<svg width="250" height="159" viewBox="0 0 250 159" fill="none" xmlns="http://www.w3.org/2000/svg">
<g clip-path="url(#clip0_4453_553)">
<path d="M131.204 110.168C132.768 107.065 131.522 103.281 128.417 101.717C125.314 100.153 121.53 101.399 119.966 104.503C118.402 107.606 119.648 111.39 122.752 112.955C125.855 114.519 129.64 113.273 131.204 110.168Z" fill="url(#paint0_linear_4453_553)"/>
<path d="M125.985 108.917C123.956 108.541 122.113 108.553 120.752 108.972L120.693 108.991C120.823 109.337 120.99 109.672 121.193 109.987L121.291 109.945C121.691 109.775 122.104 109.623 122.519 109.494C123.634 109.148 124.809 108.954 125.987 108.916L125.985 108.917Z" fill="#141416"/>
<path d="M120.731 105.313C120.338 106.267 120.266 107.287 120.473 108.25L120.511 108.239C121.351 107.983 122.339 107.862 123.446 107.88C124.418 107.897 125.477 108.026 126.572 108.257L120.731 105.313Z" fill="#141416"/>
<path d="M126.235 103.353C127.049 105.681 128.531 107.696 130.523 109.181C131.402 106.782 130.3 104.014 127.881 102.794C127.243 102.472 126.572 102.289 125.903 102.232C125.996 102.609 126.109 102.986 126.235 103.353Z" fill="#141416"/>
<path d="M124.028 102.474C124.501 103.818 125.586 105.306 127.095 106.715C126.426 105.745 125.883 104.686 125.498 103.583C125.355 103.173 125.231 102.753 125.129 102.329L125.105 102.224C124.729 102.248 124.362 102.314 124.007 102.414L124.027 102.474L124.028 102.474Z" fill="#141416"/>
<path d="M122.772 110.226C122.401 110.341 122.032 110.476 121.673 110.627C122.116 111.129 122.663 111.56 123.301 111.881C125.72 113.101 128.601 112.341 130.009 110.206C127.63 109.488 125.126 109.495 122.772 110.225L122.772 110.226Z" fill="#141416"/>
<path d="M124.753 105.29C124.077 104.411 123.588 103.546 123.294 102.718L123.281 102.68C122.383 103.086 121.607 103.751 121.074 104.634L126.913 107.578C126.075 106.835 125.343 106.061 124.751 105.288L124.753 105.29Z" fill="#141416"/>
<path d="M140.264 100.808C139.764 97.3691 136.571 94.9861 133.132 95.486C129.694 95.9858 127.311 99.1786 127.81 102.618C128.31 106.056 131.503 108.439 134.942 107.94C138.381 107.44 140.764 104.247 140.264 100.808Z" fill="url(#paint1_linear_4453_553)"/>
<path d="M135.273 102.78C133.395 103.636 131.893 104.705 131.021 105.828L130.982 105.879C131.288 106.087 131.617 106.266 131.963 106.407L132.021 106.316C132.25 105.948 132.502 105.588 132.767 105.244C133.482 104.32 134.331 103.487 135.275 102.781L135.273 102.78Z" fill="#141416"/>
<path d="M128.903 102.845C129.13 103.852 129.656 104.729 130.377 105.399L130.401 105.368C130.943 104.676 131.682 104.01 132.6 103.389C133.404 102.846 134.345 102.342 135.376 101.904L128.903 102.845Z" fill="#141416"/>
<path d="M132.286 98.08C134.287 99.5189 136.66 100.319 139.144 100.392C138.487 97.9219 135.996 96.2892 133.315 96.6781C132.606 96.7803 131.951 97.0156 131.372 97.3524C131.665 97.6073 131.974 97.854 132.288 98.0804L132.286 98.08Z" fill="#141416"/>
<path d="M129.974 98.6284C131.131 99.457 132.875 100.054 134.919 100.339C133.814 99.9293 132.762 99.374 131.815 98.6924C131.463 98.4387 131.119 98.1654 130.793 97.8766L130.713 97.805C130.42 98.0405 130.156 98.304 129.923 98.5914L129.974 98.6284Z" fill="#141416"/>
<path d="M133.395 105.696C133.158 106.003 132.931 106.326 132.724 106.654C133.376 106.811 134.071 106.849 134.778 106.747C137.46 106.358 139.382 104.081 139.309 101.526C136.949 102.302 134.903 103.745 133.394 105.695L133.395 105.696Z" fill="#141416"/>
<path d="M132.183 100.519C131.126 100.186 130.228 99.7577 129.512 99.2486L129.479 99.2258C128.977 100.074 128.723 101.064 128.793 102.094L135.265 101.153C134.153 101.025 133.109 100.811 132.18 100.518L132.183 100.519Z" fill="#141416"/>
<path d="M141.346 109.633C140.846 106.195 137.654 103.812 134.215 104.311C130.776 104.811 128.393 108.004 128.893 111.443C129.393 114.882 132.585 117.265 136.024 116.765C139.463 116.265 141.846 113.072 141.346 109.633Z" fill="url(#paint2_linear_4453_553)"/>
<path d="M136.356 111.606C134.477 112.461 132.976 113.53 132.103 114.654L132.064 114.704C132.371 114.913 132.699 115.091 133.046 115.233L133.103 115.142C133.333 114.774 133.584 114.413 133.85 114.069C134.564 113.145 135.414 112.312 136.357 111.606L136.356 111.606Z" fill="#141416"/>
<path d="M129.986 111.668C130.212 112.675 130.738 113.552 131.46 114.222L131.484 114.191C132.025 113.499 132.764 112.833 133.682 112.212C134.487 111.669 135.428 111.165 136.459 110.727L129.986 111.668Z" fill="#141416"/>
<path d="M133.369 106.905C135.37 108.344 137.742 109.144 140.226 109.218C139.57 106.747 137.078 105.115 134.397 105.504C133.689 105.606 133.034 105.841 132.455 106.178C132.747 106.433 133.056 106.679 133.37 106.906L133.369 106.905Z" fill="#141416"/>
<path d="M131.054 107.452C132.211 108.281 133.955 108.878 136 109.163C134.895 108.753 133.842 108.198 132.896 107.516C132.544 107.262 132.2 106.989 131.874 106.7L131.793 106.629C131.501 106.864 131.236 107.128 131.003 107.415L131.054 107.452Z" fill="#141416"/>
<path d="M134.475 114.521C134.239 114.828 134.011 115.151 133.805 115.479C134.456 115.636 135.152 115.674 135.859 115.571C138.54 115.182 140.462 112.906 140.39 110.35C138.029 111.127 135.984 112.57 134.474 114.519L134.475 114.521Z" fill="#141416"/>
<path d="M133.264 109.343C132.207 109.01 131.309 108.582 130.593 108.073L130.56 108.05C130.058 108.898 129.803 109.889 129.874 110.918L136.346 109.977C135.234 109.849 134.19 109.635 133.261 109.342L133.264 109.343Z" fill="#141416"/>
<path d="M158.136 106.331C157.636 102.892 154.443 100.509 151.004 101.009C147.565 101.509 145.182 104.701 145.682 108.14C146.182 111.579 149.375 113.962 152.814 113.462C156.253 112.962 158.636 109.77 158.136 106.331Z" fill="url(#paint3_linear_4453_553)"/>
<path d="M153.145 108.304C151.267 109.159 149.765 110.228 148.892 111.352L148.854 111.402C149.16 111.611 149.489 111.79 149.835 111.931L149.892 111.84C150.122 111.472 150.373 111.111 150.639 110.767C151.353 109.843 152.203 109.011 153.147 108.304L153.145 108.304Z" fill="#141416"/>
<path d="M146.773 108.366C147 109.374 147.526 110.25 148.248 110.92L148.271 110.889C148.813 110.197 149.552 109.531 150.47 108.91C151.275 108.367 152.215 107.863 153.246 107.425L146.773 108.366Z" fill="#141416"/>
<path d="M150.158 103.601C152.159 105.04 154.531 105.84 157.015 105.913C156.359 103.443 153.868 101.81 151.186 102.199C150.478 102.302 149.823 102.537 149.244 102.874C149.536 103.129 149.845 103.375 150.159 103.602L150.158 103.601Z" fill="#141416"/>
<path d="M147.844 104.15C149.001 104.978 150.745 105.575 152.789 105.861C151.684 105.45 150.632 104.895 149.685 104.214C149.333 103.96 148.989 103.687 148.664 103.398L148.583 103.326C148.29 103.562 148.026 103.825 147.793 104.113L147.844 104.15Z" fill="#141416"/>
<path d="M151.265 111.219C151.028 111.526 150.801 111.849 150.594 112.177C151.246 112.334 151.941 112.372 152.648 112.27C155.33 111.881 157.252 109.604 157.179 107.048C154.819 107.825 152.773 109.268 151.264 111.218L151.265 111.219Z" fill="#141416"/>
<path d="M150.053 106.04C148.996 105.707 148.099 105.279 147.382 104.77L147.349 104.747C146.847 105.595 146.593 106.585 146.663 107.615L153.135 106.674C152.023 106.546 150.979 106.332 150.05 106.039L150.053 106.04Z" fill="#141416"/>
<path d="M160.154 121.116C162.557 118.607 162.472 114.623 159.961 112.219C157.45 109.816 153.468 109.902 151.064 112.413C148.661 114.922 148.747 118.906 151.258 121.309C153.767 123.712 157.751 123.627 160.154 121.116Z" fill="url(#paint4_linear_4453_553)"/>
<path d="M155.528 118.396C153.697 117.441 151.931 116.915 150.508 116.918L150.445 116.918C150.47 117.287 150.53 117.656 150.633 118.018L150.741 118.006C151.173 117.961 151.611 117.937 152.047 117.935C153.215 117.931 154.394 118.087 155.531 118.397L155.528 118.396Z" fill="#141416"/>
<path d="M151.559 113.412C150.905 114.21 150.537 115.164 150.453 116.146L150.492 116.145C151.371 116.146 152.352 116.318 153.405 116.662C154.328 116.962 155.304 117.394 156.284 117.936L151.559 113.412Z" fill="#141416"/>
<path d="M157.397 113.147C157.493 115.611 158.323 117.971 159.793 119.974C161.335 117.937 161.091 114.968 159.134 113.094C158.617 112.599 158.029 112.228 157.408 111.977C157.387 112.365 157.383 112.759 157.398 113.146L157.397 113.147Z" fill="#141416"/>
<path d="M155.542 111.662C155.601 113.085 156.203 114.825 157.236 116.614C156.88 115.49 156.67 114.319 156.625 113.153C156.608 112.72 156.613 112.281 156.64 111.845L156.647 111.737C156.281 111.65 155.91 111.606 155.54 111.599L155.542 111.662Z" fill="#141416"/>
<path d="M152.073 118.705C151.685 118.708 151.291 118.727 150.906 118.766C151.183 119.376 151.579 119.948 152.097 120.442C154.053 122.316 157.03 122.431 159.001 120.802C156.936 119.42 154.541 118.694 152.075 118.704L152.073 118.705Z" fill="#141416"/>
<path d="M155.41 114.566C155.022 113.528 154.806 112.557 154.768 111.679L154.766 111.64C153.789 111.767 152.851 112.175 152.083 112.864L156.806 117.388C156.221 116.433 155.748 115.477 155.408 114.566L155.41 114.566Z" fill="#141416"/>
<path d="M118.077 112.41C117.915 112.367 117.782 112.239 117.741 112.064L106.869 65.6587C106.81 65.407 106.967 65.1553 107.218 65.0962C107.471 65.0375 107.722 65.1936 107.781 65.4453L118.653 111.851C118.712 112.103 118.555 112.354 118.304 112.413C118.226 112.431 118.148 112.429 118.077 112.41Z" fill="black"/>
<path d="M158.675 123.289C158.604 123.27 158.536 123.233 158.477 123.178C158.289 123.001 158.279 122.705 158.456 122.516L191.074 87.764C191.251 87.5756 191.544 87.5633 191.736 87.743C191.924 87.92 191.934 88.2162 191.757 88.4046L159.139 123.157C159.016 123.287 158.837 123.332 158.675 123.289Z" fill="black"/>
<path d="M192.216 88.0761C191.575 90.469 171.877 87.2886 148.233 80.9532C124.589 74.6178 105.925 67.5193 106.567 65.1265C106.909 63.847 112.589 64.1427 121.381 65.6443C126.643 66.5387 133.011 67.8732 140.013 69.5558C143.393 70.3647 146.942 71.2672 150.569 72.2391C154.197 73.211 157.707 74.2 161.053 75.1935C167.957 77.2371 174.141 79.2643 179.145 81.1219C187.494 84.2134 192.56 86.797 192.217 88.0765L192.216 88.0761Z" fill="#141416"/>
<path d="M166.236 85.8272C165.997 85.7632 165.846 85.5213 165.901 85.2752C165.956 85.0229 166.205 84.8631 166.457 84.9183C184.296 88.8047 191.447 88.8434 191.764 87.9536C191.767 87.939 191.81 86.3105 178.979 81.559C173.99 79.7082 167.744 77.6614 160.918 75.6403C154.236 73.656 146.624 71.6165 139.902 70.0089C132.98 68.3448 126.548 66.9945 121.301 66.1041C107.799 63.7997 107.022 65.2315 107.018 65.246C106.912 65.8221 110.584 68.7709 128.245 74.556C128.491 74.6358 128.624 74.9012 128.544 75.1469C128.463 75.3922 128.177 75.5264 127.954 75.4462C117.621 72.0622 105.445 67.5032 106.114 65.0054C106.285 64.3671 106.739 62.6709 121.459 65.1827C126.725 66.0767 133.179 67.4329 140.12 69.1006C146.858 70.714 154.486 72.7563 161.183 74.7445C168.03 76.771 174.295 78.8248 179.305 80.6825C193.292 85.8626 192.838 87.5589 192.667 88.1972C191.92 90.9835 175.8 87.912 166.257 85.8331C166.25 85.8311 166.243 85.8292 166.236 85.8272Z" fill="black"/>
<path d="M131.562 116.024C131.343 115.965 131.195 115.755 131.218 115.523L136.235 67.608C136.262 67.3511 136.491 67.1643 136.749 67.1928C136.999 67.2161 137.191 67.4487 137.164 67.707L132.149 115.622C132.122 115.879 131.891 116.065 131.635 116.037C131.61 116.035 131.585 116.03 131.562 116.024Z" fill="black"/>
<path d="M192.223 88.0713C192.565 86.7948 187.497 84.2093 179.143 81.118C174.14 79.2604 167.956 77.2285 161.051 75.1849C157.701 74.1964 154.194 73.2053 150.568 72.2338C146.943 71.2623 143.399 70.3643 140.014 69.548C133.013 67.8658 126.642 66.5334 121.38 65.6405C112.588 64.1374 106.907 63.8413 106.565 65.1193C106.987 63.5411 107.474 62.0174 108.031 60.5143C110.18 54.7613 113.283 49.6403 117.12 45.2954C122.124 39.5843 128.346 35.2085 135.19 32.5614C143.433 29.3582 152.602 28.6381 161.604 31.0501C173.617 34.2691 183.075 42.4464 188.573 53.0115C193.906 63.2353 195.538 75.6962 192.223 88.0699L192.223 88.0713Z" fill="#FE515E"/>
<path d="M192.223 88.0713C192.565 86.7948 187.497 84.2093 179.143 81.118C174.14 79.2604 167.956 77.2285 161.051 75.1849C157.701 74.1964 154.194 73.2053 150.568 72.2338C146.943 71.2623 143.399 70.3643 140.014 69.548C133.013 67.8658 126.642 66.5334 121.38 65.6405C112.588 64.1374 106.907 63.8413 106.565 65.1193C106.987 63.5411 107.474 62.0174 108.031 60.5143C110.18 54.7613 113.283 49.6403 117.12 45.2954C122.124 39.5843 128.346 35.2085 135.19 32.5614C143.433 29.3582 152.602 28.6381 161.604 31.0501C173.617 34.2691 183.075 42.4464 188.573 53.0115C193.906 63.2353 195.538 75.6962 192.223 88.0699L192.223 88.0713Z" fill="url(#paint5_linear_4453_553)"/>
<path d="M133.677 35.6945C132.404 36.3482 130.73 35.9903 129.598 36.8489C128.43 37.7372 128.259 39.6281 126.953 40.2605C126.419 40.5172 125.814 40.5114 125.265 40.725C124.403 41.0501 123.82 41.8747 123.448 42.731C123.08 43.5757 122.874 44.4889 122.446 45.3161C122.033 46.1348 121.324 46.9005 120.418 47.0576C119.402 47.2367 118.409 46.6491 117.678 45.9097C117.485 45.7157 117.295 45.5102 117.12 45.2946C122.124 39.5835 128.346 35.2077 135.19 32.5606C135.324 33.7976 134.779 35.1102 133.679 35.6948L133.677 35.6945Z" fill="#FFECD4"/>
<path d="M119.314 52.4391C117.768 52.0248 116.512 50.9933 115.404 50.0824C115.149 49.8641 114.892 49.6548 114.636 49.4441L114.112 49.0115C113.914 48.8461 113.887 48.5514 114.053 48.3521C114.219 48.1529 114.515 48.1294 114.712 48.293L115.231 48.7211C115.491 48.9344 115.751 49.1478 116.006 49.3643C117.044 50.2173 118.205 51.1517 119.601 51.5459C120.766 51.8583 122.356 51.5937 123.012 50.4889C123.362 49.9078 123.431 49.1939 123.502 48.4383L123.554 47.9305C123.732 46.5505 124.233 45.6195 125.043 45.1618C125.735 44.7756 126.482 44.8135 127.207 44.8483C127.767 44.8764 128.294 44.9021 128.736 44.7269C129.762 44.3083 130.111 42.8808 130.285 41.8433C130.491 40.6069 130.771 38.9139 132.117 38.1139C132.814 37.6978 133.589 37.6556 134.337 37.6154C134.817 37.5895 135.271 37.5642 135.685 37.4442C137.325 36.9605 138.11 35.0059 138.037 33.3261C138.022 32.7754 137.922 32.238 137.736 31.6756C137.706 31.5881 137.704 31.4954 137.728 31.4065C137.795 31.1574 138.053 31.0032 138.302 31.07C138.487 31.1196 138.619 31.2704 138.645 31.4461C138.847 32.0735 138.954 32.6769 138.972 33.2924C139.06 35.3293 138.051 37.7218 135.948 38.3422C135.429 38.4924 134.9 38.5222 134.388 38.5491C133.723 38.5848 133.095 38.6196 132.596 38.9172C131.699 39.4514 131.428 40.6783 131.207 41.9967C130.997 43.2554 130.547 44.9968 129.086 45.5939C128.452 45.8457 127.796 45.8138 127.161 45.7826C126.542 45.7509 125.958 45.7225 125.502 45.9768C124.965 46.281 124.621 46.9761 124.483 48.042L124.433 48.5268C124.354 49.3536 124.272 50.2078 123.813 50.9675C122.905 52.497 120.864 52.8341 119.316 52.4381L119.314 52.4391Z" fill="#FFECD4"/>
<path d="M192.223 88.0715C192.565 86.795 187.498 84.2095 179.143 81.1182C180.685 74.1577 181.139 67.357 180.629 61.1118C183.723 60.5069 186.439 57.9814 187.796 55.0385C188.105 54.3714 188.36 53.7042 188.572 53.0128C193.904 63.2366 195.537 75.6975 192.222 88.0711L192.223 88.0715Z" fill="#F83B4D"/>
<path d="M192.223 88.0715C192.565 86.795 187.498 84.2095 179.143 81.1182C180.685 74.1577 181.139 67.357 180.629 61.1118C183.723 60.5069 186.439 57.9814 187.796 55.0385C188.105 54.3714 188.36 53.7042 188.572 53.0128C193.904 63.2366 195.537 75.6975 192.222 88.0711L192.223 88.0715Z" fill="url(#paint6_linear_4453_553)"/>
<path d="M179.142 81.1185C174.139 79.2609 167.955 77.229 161.051 75.1854C157.7 74.1969 154.194 73.2058 150.568 72.2343C146.942 71.2628 143.398 70.3648 140.014 69.5485C133.013 67.8663 126.641 66.5338 121.379 65.641C121.977 63.7473 122.64 61.8975 123.376 60.1189C131.579 39.9114 147.54 27.2825 161.603 31.0506C172.46 33.9596 179.401 45.892 180.63 61.1124C181.138 67.3573 180.686 74.1583 179.144 81.1189L179.142 81.1185Z" fill="#1E1E20"/>
<path d="M179.143 81.1184C174.14 79.2608 167.956 77.2289 161.052 75.1852C162.144 70.725 163.039 66.4199 163.739 62.3575C165.429 60.7706 167.095 59.1364 169.297 58.8236C172.425 58.3825 175.233 60.814 178.371 61.2035C179.131 61.3041 179.892 61.2627 180.629 61.1119C181.138 67.3568 180.685 74.1578 179.143 81.1184Z" fill="#282828"/>
<path d="M142.843 60.6216C141.86 63.4709 140.908 66.4444 140.013 69.5484C133.012 67.8662 126.64 66.5337 121.378 65.6409C121.976 63.7472 122.639 61.8974 123.375 60.1188C124.788 59.904 126.218 59.8732 127.613 60.2081C130.244 60.8488 132.543 62.7301 135.233 62.8573C137.885 62.9868 140.313 61.39 142.845 60.622L142.843 60.6216Z" fill="#282828"/>
<path d="M161.051 75.1869C157.7 74.1984 154.194 73.2073 150.568 72.2358C146.943 71.2644 143.399 70.3663 140.014 69.55C140.91 66.4446 141.863 63.4714 142.845 60.6232C149.163 42.2973 156.831 29.7718 161.604 31.0506C166.062 32.2451 166.686 45.1465 163.74 62.3595C163.04 66.4201 162.143 70.7267 161.053 75.1873L161.051 75.1869Z" fill="#FE515E"/>
<path d="M161.051 75.1869C157.7 74.1984 154.194 73.2073 150.568 72.2358C146.943 71.2644 143.399 70.3663 140.014 69.55C140.91 66.4446 141.863 63.4714 142.845 60.6232C149.163 42.2973 156.831 29.7718 161.604 31.0506C166.062 32.2451 166.686 45.1465 163.74 62.3595C163.04 66.4201 162.143 70.7267 161.053 75.1873L161.051 75.1869Z" fill="url(#paint7_linear_4453_553)"/>
<path d="M161.051 75.1866C157.701 74.1982 154.194 73.2071 150.568 72.2356C146.943 71.2641 143.399 70.3661 140.014 69.5498C140.911 66.4443 141.863 63.4712 142.845 60.623C143.776 60.3305 144.727 60.1587 145.69 60.2233C150.403 60.5177 153.811 66.2086 158.5 65.5797C160.577 65.2978 162.166 63.8508 163.74 62.3607C163.039 66.4213 162.143 70.7278 161.053 75.1885L161.051 75.1866Z" fill="#F83B4D"/>
<path d="M161.051 75.1866C157.701 74.1982 154.194 73.2071 150.568 72.2356C146.943 71.2641 143.399 70.3661 140.014 69.5498C140.911 66.4443 141.863 63.4712 142.845 60.623C143.776 60.3305 144.727 60.1587 145.69 60.2233C150.403 60.5177 153.811 66.2086 158.5 65.5797C160.577 65.2978 162.166 63.8508 163.74 62.3607C163.039 66.4213 162.143 70.7278 161.053 75.1885L161.051 75.1866Z" fill="url(#paint8_linear_4453_553)"/>
<path d="M192.102 88.5239C191.853 88.4571 191.704 88.2003 191.771 87.9511C191.775 87.935 191.817 86.3061 178.982 81.5582C173.97 79.6982 167.725 77.6499 160.921 75.6347C153.918 73.5693 146.951 71.7042 139.905 70.0037C133.007 68.3459 126.573 66.9966 121.302 66.1029C107.8 63.7938 107.021 65.2251 107.017 65.2412C106.95 65.4904 106.693 65.6386 106.444 65.5719C106.195 65.5051 106.046 65.2483 106.113 64.9991L106.115 64.9903C106.542 63.3975 107.025 61.8807 107.593 60.3521C116.147 37.4136 139.419 24.6221 161.725 30.5991C169.052 32.5624 175.76 36.4856 181.125 41.9419C181.306 42.1261 181.304 42.4225 181.12 42.6042C180.936 42.7844 180.639 42.7831 180.458 42.5985C175.209 37.2595 168.648 33.4226 161.483 31.5026C139.646 25.6514 116.853 38.1947 108.469 60.679C108.052 61.8014 107.682 62.9172 107.346 64.0628C108.927 63.6774 112.622 63.6692 121.458 65.1811C126.75 66.0803 133.203 67.4332 140.124 69.0954C147.187 70.8006 154.166 72.6706 161.184 74.7385C168.009 76.7592 174.275 78.8148 179.306 80.6813C187.703 83.7872 190.898 85.6415 192.073 86.7653C193.198 82.1201 193.648 77.3849 193.409 72.6742C193.397 72.4164 193.595 72.1961 193.853 72.184C194.109 72.1715 194.331 72.3699 194.343 72.6277C194.607 77.8354 194.047 83.0709 192.676 88.1873L192.674 88.1961C192.607 88.4453 192.35 88.5936 192.101 88.5268L192.102 88.5239Z" fill="black"/>
<path d="M160.221 66.2473C159.397 66.0267 158.541 66.2219 157.835 66.7202C157.121 67.2176 156.551 68.0051 156.29 68.9785C156.812 67.0316 155.907 65.0915 154.262 64.6506C155.085 64.8713 155.932 64.6732 156.644 64.1879C157.35 63.6881 157.92 62.9007 158.181 61.9272C157.92 62.9007 158.02 63.8678 158.39 64.6557C158.755 65.4296 159.399 66.0271 160.222 66.2477L160.221 66.2473Z" fill="#FFECD4"/>
<path d="M156.901 38.4613C157.688 38.9064 157.227 41.1976 156.146 43.7115C155.054 46.2193 153.698 48.124 152.835 47.8551C151.985 47.5931 151.997 45.1066 153.165 42.4207C154.324 39.731 156.127 38.0212 156.901 38.4613Z" fill="#FFECD4"/>
<path d="M159.237 34.5624C159.566 34.7802 159.44 35.5381 158.989 36.2749C158.536 37.0109 157.911 37.4604 157.572 37.2666C157.232 37.0724 157.316 36.2888 157.783 35.5315C158.247 34.7719 158.914 34.3476 159.236 34.562L159.237 34.5624Z" fill="#FFECD4"/>
<path d="M150.494 104.127C151.091 100.704 148.802 97.4434 145.378 96.846C141.953 96.2486 138.694 98.5381 138.097 101.963C137.5 105.386 139.789 108.646 143.213 109.244C146.636 109.841 149.897 107.552 150.494 104.127Z" fill="url(#paint9_linear_4453_553)"/>
<path d="M145.138 104.444C143.085 104.672 141.325 105.219 140.146 106.013L140.094 106.049C140.32 106.343 140.577 106.614 140.861 106.858L140.944 106.789C141.278 106.51 141.628 106.246 141.989 106.003C142.956 105.348 144.023 104.822 145.139 104.445L145.138 104.444Z" fill="#141416"/>
<path d="M139.066 102.517C138.967 103.545 139.192 104.541 139.67 105.403L139.703 105.38C140.433 104.892 141.343 104.489 142.409 104.187C143.344 103.922 144.394 103.737 145.51 103.642L139.066 102.517Z" fill="#141416"/>
<path d="M143.768 99.0463C145.221 101.038 147.224 102.539 149.561 103.382C149.708 100.83 147.851 98.502 145.182 98.0351C144.478 97.912 143.782 97.9318 143.125 98.0697C143.323 98.4039 143.539 98.7336 143.768 99.0463Z" fill="#141416"/>
<path d="M141.399 98.8456C142.24 99.9943 143.711 101.105 145.563 102.015C144.641 101.281 143.815 100.426 143.127 99.4822C142.871 99.1324 142.631 98.765 142.412 98.3877L142.357 98.2949C142.006 98.4273 141.672 98.5955 141.361 98.7949L141.397 98.8452L141.399 98.8456Z" fill="#141416"/>
<path d="M142.443 106.627C142.122 106.844 141.806 107.081 141.507 107.327C142.076 107.68 142.725 107.933 143.43 108.056C146.099 108.523 148.634 106.96 149.363 104.509C146.877 104.511 144.483 105.243 142.442 106.625L142.443 106.627Z" fill="#141416"/>
<path d="M142.908 101.33C142.008 100.684 141.288 99.9978 140.767 99.2897L140.744 99.2585C140.003 99.9081 139.452 100.769 139.196 101.769L145.639 102.894C144.623 102.427 143.696 101.897 142.906 101.33L142.908 101.33Z" fill="#141416"/>
<path d="M149.218 117.676C151.352 114.933 150.859 110.979 148.115 108.844C145.372 106.71 141.418 107.203 139.284 109.947C137.149 112.689 137.642 116.644 140.386 118.778C143.129 120.912 147.083 120.419 149.218 117.676Z" fill="url(#paint10_linear_4453_553)"/>
<path d="M144.339 115.442C142.421 114.68 140.61 114.339 139.195 114.486L139.132 114.492C139.194 114.857 139.292 115.218 139.431 115.567L139.537 115.546C139.962 115.457 140.396 115.387 140.829 115.341C141.99 115.216 143.18 115.252 144.342 115.443L144.339 115.442Z" fill="#141416"/>
<path d="M139.88 110.892C139.311 111.753 139.043 112.738 139.06 113.724L139.099 113.72C139.974 113.631 140.965 113.703 142.049 113.936C142.999 114.14 144.013 114.47 145.043 114.91L139.88 110.893L139.88 110.892Z" fill="#141416"/>
<path d="M145.661 110.032C146.01 112.473 147.075 114.737 148.744 116.579C150.07 114.394 149.524 111.466 147.384 109.803C146.82 109.364 146.197 109.054 145.553 108.869C145.571 109.256 145.608 109.649 145.663 110.032L145.661 110.032Z" fill="#141416"/>
<path d="M143.663 108.744C143.867 110.152 144.645 111.823 145.854 113.496C145.385 112.415 145.057 111.272 144.892 110.116C144.83 109.687 144.79 109.25 144.772 108.814L144.768 108.707C144.395 108.659 144.022 108.651 143.653 108.682L143.662 108.743L143.663 108.744Z" fill="#141416"/>
<path d="M140.934 116.106C140.548 116.148 140.159 116.208 139.778 116.287C140.116 116.865 140.57 117.394 141.135 117.833C143.273 119.496 146.246 119.307 148.039 117.483C145.844 116.319 143.387 115.843 140.935 116.105L140.934 116.106Z" fill="#141416"/>
<path d="M143.83 111.647C143.338 110.654 143.024 109.709 142.896 108.841L142.891 108.802C141.932 109.028 141.042 109.53 140.347 110.293L145.509 114.31C144.831 113.419 144.261 112.518 143.83 111.645L143.83 111.647Z" fill="#141416"/>
<path d="M144.701 119.543C144.677 119.537 144.653 119.529 144.631 119.518C144.395 119.413 144.288 119.136 144.393 118.902L164.007 74.8982C164.113 74.661 164.397 74.5574 164.624 74.6604C164.86 74.7658 164.966 75.0428 164.862 75.2771L145.249 119.281C145.154 119.494 144.919 119.602 144.701 119.543Z" fill="black"/>
<path d="M161.311 123.375L154.777 147.762C154.028 150.557 151.153 152.228 148.345 151.476L112.859 141.968C110.064 141.219 108.408 138.334 109.157 135.539L115.692 111.151L161.31 123.375L161.311 123.375Z" fill="#141416"/>
<path d="M161.311 123.375L154.777 147.762C154.028 150.557 151.153 152.228 148.345 151.476L112.859 141.968C110.064 141.219 108.408 138.334 109.157 135.539L115.692 111.151L161.31 123.375L161.311 123.375Z" fill="#FFCB67" fill-opacity="0.9"/>
<path d="M126.314 117.202C124.972 117.874 123.12 117.456 122.082 118.534C121.688 118.945 121.5 119.501 121.238 119.999C120.985 120.512 120.595 121.001 120.036 121.111C119.392 121.248 118.736 120.802 118.09 120.899C117.083 121.043 116.706 122.259 116.152 123.118C115.447 124.208 114.169 124.885 112.886 124.851C112.605 124.839 112.318 124.802 112.053 124.731L115.692 111.15L127.982 114.444C127.897 115.583 127.331 116.684 126.314 117.2L126.314 117.202Z" fill="#FE9A4C"/>
<path d="M111.958 131.421C111.411 131.275 110.86 131.032 110.318 130.698C110.098 130.562 110.03 130.274 110.166 130.054C110.301 129.834 110.59 129.764 110.809 129.901C111.707 130.456 112.614 130.711 113.433 130.639C114.492 130.54 115.427 129.858 115.702 128.982C115.778 128.74 115.816 128.482 115.856 128.223C115.952 127.598 116.06 126.89 116.634 126.414C117.303 125.876 118.286 125.896 119.414 126.461L119.649 126.577C120.257 126.877 120.832 127.162 121.356 127.033C122.202 126.811 122.503 125.635 122.605 124.689C122.724 123.563 122.888 122.02 124.094 121.337C124.841 120.916 125.779 120.941 126.951 121.411C127.128 121.485 127.296 121.562 127.466 121.638C128.052 121.9 128.606 122.152 129.179 122.172C130.482 122.228 131.568 121.071 131.97 119.898C132.383 118.654 132.296 117.341 132.139 115.754C132.137 115.747 132.137 115.743 132.135 115.737C132.087 115.537 132.176 115.322 132.367 115.218C132.594 115.093 132.877 115.179 133.001 115.404C133.026 115.45 133.045 115.514 133.056 115.572C133.061 115.593 133.065 115.615 133.067 115.636C133.202 116.981 133.369 118.653 132.857 120.196C132.359 121.654 130.985 123.185 129.142 123.107C128.39 123.076 127.727 122.78 127.085 122.49C126.923 122.417 126.762 122.344 126.6 122.278C125.71 121.922 125.04 121.88 124.556 122.152C123.829 122.564 123.665 123.59 123.539 124.789C123.295 127.035 122.345 127.743 121.59 127.94C120.73 128.155 119.937 127.763 119.238 127.418L119.003 127.303C118.633 127.115 117.734 126.735 117.228 127.14C116.933 127.386 116.865 127.839 116.783 128.366C116.736 128.67 116.687 128.979 116.597 129.264C116.206 130.509 114.97 131.436 113.519 131.571C113.015 131.615 112.49 131.564 111.961 131.422L111.958 131.421Z" fill="#FFECD4"/>
<path d="M159.891 128.677L154.777 147.763C154.028 150.558 151.153 152.229 148.345 151.476L112.859 141.968C110.064 141.219 108.408 138.334 109.157 135.539L109.164 135.514C111.112 138.076 114.932 139.242 117.882 137.824C120.371 136.631 122.213 133.947 124.981 133.696C127.657 133.444 129.869 135.599 131.829 137.442C133.785 139.297 136.472 141.128 138.964 140.116C140.697 139.431 141.648 137.619 142.573 135.995C143.496 134.382 144.768 132.67 146.62 132.456C149.191 132.164 151.426 134.957 153.975 134.505C155.735 134.202 156.829 132.48 157.81 130.987C158.372 130.143 159.061 129.256 159.888 128.676L159.891 128.677Z" fill="#141416"/>
<path d="M159.891 128.677L154.777 147.763C154.028 150.558 151.153 152.229 148.345 151.476L112.859 141.968C110.064 141.219 108.408 138.334 109.157 135.539L109.164 135.514C111.112 138.076 114.932 139.242 117.882 137.824C120.371 136.631 122.213 133.947 124.981 133.696C127.657 133.444 129.869 135.599 131.829 137.442C133.785 139.297 136.472 141.128 138.964 140.116C140.697 139.431 141.648 137.619 142.573 135.995C143.496 134.382 144.768 132.67 146.62 132.456C149.191 132.164 151.426 134.957 153.975 134.505C155.735 134.202 156.829 132.48 157.81 130.987C158.372 130.143 159.061 129.256 159.888 128.676L159.891 128.677Z" fill="#FE9A4C" fill-opacity="0.5"/>
<path d="M136.588 148.81L112.738 142.42C109.699 141.605 107.89 138.464 108.706 135.418L115.24 111.031C115.307 110.782 115.564 110.633 115.813 110.7L161.432 122.924C161.681 122.99 161.829 123.247 161.762 123.496L157.105 140.877C157.038 141.126 156.781 141.275 156.532 141.208C156.283 141.141 156.135 140.884 156.202 140.635L160.738 123.706L116.023 111.725L109.609 135.66C108.926 138.209 110.439 140.835 112.981 141.516L136.83 147.907C137.079 147.974 137.228 148.23 137.161 148.48C137.094 148.729 136.837 148.877 136.588 148.81Z" fill="black"/>
<path d="M159.789 127.242L115.076 115.261C113.145 114.744 111.999 112.76 112.517 110.829C113.034 108.898 115.019 107.752 116.95 108.27L161.663 120.25C163.594 120.768 164.739 122.752 164.222 124.683C163.705 126.614 161.72 127.76 159.789 127.242Z" fill="#FFECD4"/>
<path d="M145.302 136.957C144.478 136.736 143.622 136.931 142.917 137.429C142.202 137.927 141.632 138.714 141.371 139.688C141.893 137.741 140.988 135.801 139.343 135.36C140.166 135.58 141.013 135.382 141.725 134.897C142.431 134.397 143.001 133.61 143.262 132.636C143.001 133.61 143.101 134.577 143.471 135.365C143.836 136.139 144.48 136.736 145.303 136.957L145.302 136.957Z" fill="#FFECD4"/>
<path d="M147.51 132.513C147.137 132.413 146.748 132.501 146.426 132.729C146.102 132.954 145.843 133.313 145.725 133.754C145.962 132.87 145.551 131.988 144.804 131.788C145.177 131.888 145.563 131.799 145.886 131.578C146.206 131.352 146.466 130.993 146.584 130.552C146.466 130.995 146.511 131.433 146.679 131.791C146.844 132.143 147.137 132.413 147.511 132.514L147.51 132.513Z" fill="#FFECD4"/>
<path d="M140.982 125.235C140.7 126.088 138.57 126.182 136.1 125.655C133.622 125.12 131.682 124.04 131.852 123.151C132.019 122.278 134.211 121.925 136.794 122.481C139.387 123.034 141.266 124.384 140.984 125.234L140.982 125.235Z" fill="#FFECD4"/>
<path d="M144.877 126.679C144.712 127.039 144.008 127.061 143.278 126.781C142.55 126.497 142.048 125.992 142.172 125.623C142.297 125.25 143.026 125.163 143.793 125.462C144.56 125.757 145.037 126.328 144.875 126.678L144.877 126.679Z" fill="#FFECD4"/>
</g>
<g clip-path="url(#clip1_4453_553)">
<path d="M67.2335 106.207C67.3416 103.584 65.3033 101.368 62.6787 101.26C60.0552 101.152 57.8398 103.191 57.7318 105.815C57.6237 108.439 59.6619 110.654 62.2866 110.762C64.9101 110.87 67.1255 108.832 67.2335 106.207Z" fill="url(#paint11_linear_4453_553)"/>
<path d="M63.2514 106.976C61.7371 107.35 60.4724 107.933 59.6671 108.647L59.6319 108.678C59.8297 108.875 60.0487 109.054 60.2868 109.207L60.3416 109.147C60.564 108.906 60.8004 108.673 61.0462 108.454C61.705 107.868 62.453 107.368 63.2523 106.975L63.2514 106.976Z" fill="#141416"/>
<path d="M58.5103 106.134C58.5374 106.913 58.8064 107.638 59.2496 108.236L59.2717 108.216C59.7701 107.778 60.4125 107.386 61.1802 107.054C61.8541 106.762 62.623 106.521 63.449 106.338L58.5103 106.134Z" fill="#141416"/>
<path d="M61.6877 103.068C62.9737 104.416 64.6229 105.34 66.457 105.741C66.3131 103.815 64.6915 102.254 62.6462 102.17C62.1062 102.147 61.5874 102.23 61.1092 102.399C61.2907 102.631 61.4861 102.855 61.6877 103.068Z" fill="#141416"/>
<path d="M59.8951 103.151C60.6395 103.928 61.8506 104.614 63.3288 105.113C62.5655 104.655 61.8618 104.095 61.2523 103.456C61.0259 103.219 60.8099 102.968 60.6075 102.708L60.5575 102.643C60.307 102.777 60.0745 102.937 59.8616 103.116L59.894 103.152L59.8951 103.151Z" fill="#141416"/>
<path d="M61.4487 108.879C61.229 109.074 61.0173 109.282 60.8173 109.498C61.2792 109.706 61.7899 109.831 62.3296 109.853C64.375 109.938 66.1203 108.516 66.423 106.608C64.5621 106.855 62.8409 107.641 61.4485 108.878L61.4487 108.879Z" fill="#141416"/>
<path d="M61.2709 104.864C60.5321 104.47 59.9251 104.027 59.4646 103.548L59.4437 103.526C58.9527 104.086 58.6259 104.786 58.5343 105.56L63.4719 105.764C62.6634 105.514 61.9175 105.21 61.2696 104.863L61.2709 104.864Z" fill="#141416"/>
<path d="M70.5488 96.9365C69.1318 94.7258 66.1909 94.082 63.9802 95.499C61.7695 96.916 61.1257 99.8569 62.5427 102.068C63.9598 104.278 66.9006 104.922 69.1113 103.505C71.322 102.088 71.9658 99.1472 70.5488 96.9365Z" fill="url(#paint12_linear_4453_553)"/>
<path d="M67.7295 99.8511C66.7036 101.026 66.0038 102.23 65.7537 103.276L65.743 103.322C66.019 103.37 66.3008 103.391 66.5833 103.38L66.5942 103.3C66.6376 102.975 66.698 102.648 66.7733 102.328C66.9769 101.47 67.3016 100.631 67.7307 99.8509L67.7295 99.8511Z" fill="#141416"/>
<path d="M63.3648 101.883C63.8352 102.506 64.4705 102.945 65.1762 103.181L65.183 103.152C65.3398 102.507 65.6407 101.818 66.0785 101.104C66.4628 100.479 66.9531 99.8389 67.5261 99.2161L63.3648 101.883Z" fill="#141416"/>
<path d="M64.2071 97.5488C66.0332 97.9148 67.9153 97.7249 69.6478 97.0005C68.4253 95.5052 66.2015 95.1588 64.4776 96.2631C64.0219 96.5545 63.6446 96.9208 63.3511 97.3333C63.6319 97.4175 63.9214 97.4909 64.2083 97.5486L64.2071 97.5488Z" fill="#141416"/>
<path d="M62.7851 98.648C63.8399 98.8572 65.2264 98.7239 66.7226 98.2824C65.8339 98.3449 64.9365 98.2911 64.0723 98.1174C63.7508 98.0527 63.4289 97.9719 63.1148 97.8748L63.0368 97.8507C62.9089 98.1041 62.8092 98.3678 62.7384 98.6384L62.7851 98.648Z" fill="#141416"/>
<path d="M67.3453 102.444C67.278 102.729 67.2226 103.023 67.1826 103.312C67.68 103.217 68.1707 103.026 68.6252 102.735C70.3491 101.631 70.9616 99.4649 70.1141 97.7285C68.7319 98.9993 67.7746 100.631 67.344 102.443L67.3453 102.444Z" fill="#141416"/>
<path d="M64.8954 99.2591C64.0638 99.3596 63.3127 99.3451 62.6608 99.2183L62.6311 99.2129C62.5501 99.953 62.684 100.714 63.054 101.401L67.2142 98.7335C66.4089 98.9926 65.6238 99.171 64.8931 99.2594L64.8954 99.2591Z" fill="#141416"/>
<path d="M74.0443 102.675C72.6273 100.464 69.6865 99.82 67.4758 101.237C65.2651 102.654 64.6213 105.595 66.0383 107.806C67.4553 110.016 70.3961 110.66 72.6068 109.243C74.8175 107.826 75.4613 104.885 74.0443 102.675Z" fill="url(#paint13_linear_4453_553)"/>
<path d="M71.2251 105.589C70.1991 106.764 69.4993 107.968 69.2492 109.014L69.2385 109.06C69.5145 109.108 69.7963 109.129 70.0788 109.118L70.0898 109.038C70.1331 108.713 70.1935 108.386 70.2689 108.066C70.4724 107.208 70.7971 106.369 71.2262 105.589L71.2251 105.589Z" fill="#141416"/>
<path d="M66.8604 107.62C67.3307 108.242 67.9661 108.681 68.6718 108.917L68.6786 108.888C68.8353 108.243 69.1363 107.554 69.574 106.841C69.9583 106.216 70.4487 105.575 71.0216 104.952L66.8604 107.62Z" fill="#141416"/>
<path d="M67.7027 103.286C69.5288 103.652 71.4108 103.462 73.1433 102.738C71.9208 101.243 69.697 100.896 67.9731 102C67.5175 102.292 67.1401 102.658 66.8466 103.071C67.1275 103.155 67.4169 103.228 67.7038 103.286L67.7027 103.286Z" fill="#141416"/>
<path d="M66.2822 104.384C67.3371 104.594 68.7236 104.46 70.2197 104.019C69.3311 104.081 68.4336 104.027 67.5695 103.854C67.248 103.789 66.9261 103.708 66.6119 103.611L66.534 103.587C66.4061 103.84 66.3064 104.104 66.2356 104.375L66.2822 104.384Z" fill="#141416"/>
<path d="M70.8408 108.182C70.7736 108.467 70.7181 108.76 70.6782 109.05C71.1755 108.955 71.6662 108.764 72.1207 108.473C73.8447 107.369 74.4571 105.203 73.6096 103.466C72.2275 104.737 71.2701 106.369 70.8395 108.181L70.8408 108.182Z" fill="#141416"/>
<path d="M68.3925 104.997C67.561 105.097 66.8099 105.083 66.158 104.956L66.1282 104.951C66.0472 105.691 66.1812 106.452 66.5512 107.139L70.7113 104.471C69.9061 104.73 69.1209 104.909 68.3903 104.997L68.3925 104.997Z" fill="#141416"/>
<path d="M84.5685 95.1636C83.1515 92.9528 80.2107 92.309 78 93.726C75.7893 95.1431 75.1455 98.0839 76.5625 100.295C77.9795 102.505 80.9203 103.149 83.131 101.732C85.3417 100.315 85.9855 97.3743 84.5685 95.1636Z" fill="url(#paint14_linear_4453_553)"/>
<path d="M81.7509 98.0774C80.725 99.2523 80.0251 100.456 79.7751 101.502L79.7643 101.549C80.0403 101.597 80.3222 101.617 80.6046 101.606L80.6156 101.526C80.6589 101.201 80.7193 100.874 80.7947 100.555C80.9982 99.6959 81.323 98.8576 81.752 98.0772L81.7509 98.0774Z" fill="#141416"/>
<path d="M77.3846 100.109C77.8549 100.731 78.4903 101.17 79.196 101.406L79.2028 101.377C79.3595 100.732 79.6604 100.043 80.0982 99.3296C80.4825 98.7045 80.9728 98.0642 81.5458 97.4414L77.3846 100.109Z" fill="#141416"/>
<path d="M78.2269 95.7742C80.053 96.1401 81.935 95.9502 83.6675 95.2259C82.445 93.7306 80.2212 93.3842 78.4973 94.4885C78.0417 94.7799 77.6643 95.1462 77.3708 95.5587C77.6517 95.6428 77.9411 95.7163 78.228 95.774L78.2269 95.7742Z" fill="#141416"/>
<path d="M76.8064 96.8733C77.8613 97.0825 79.2478 96.9492 80.7439 96.5077C79.8553 96.5703 78.9578 96.5165 78.0937 96.3427C77.7722 96.278 77.4503 96.1972 77.1361 96.1001L77.0582 96.076C76.9302 96.3294 76.8306 96.5932 76.7598 96.8637L76.8064 96.8733Z" fill="#141416"/>
<path d="M81.3667 100.671C81.2994 100.956 81.2439 101.249 81.204 101.539C81.7013 101.444 82.1921 101.253 82.6465 100.962C84.3705 99.8578 84.983 97.6917 84.1354 95.9553C82.7533 97.2261 81.7959 98.8576 81.3654 100.67L81.3667 100.671Z" fill="#141416"/>
<path d="M78.9167 97.4842C78.0852 97.5847 77.3341 97.5702 76.6822 97.4434L76.6524 97.438C76.5714 98.1781 76.7054 98.9394 77.0754 99.6258L81.2355 96.9586C80.4303 97.2177 79.6451 97.3961 78.9145 97.4845L78.9167 97.4842Z" fill="#141416"/>
<path d="M90.5724 104.71C91.4431 102.233 90.1415 99.5176 87.6635 98.6471C85.1855 97.7765 82.4715 99.078 81.6009 101.556C80.7302 104.033 82.0319 106.748 84.5099 107.619C86.9868 108.489 89.7019 107.188 90.5724 104.71Z" fill="url(#paint15_linear_4453_553)"/>
<path d="M86.5415 104.281C84.9836 104.195 83.604 104.384 82.6251 104.83L82.5822 104.85C82.7142 105.096 82.8709 105.332 83.0547 105.549L83.1252 105.507C83.4086 105.341 83.7021 105.187 84.0018 105.05C84.8042 104.683 85.6648 104.423 86.5438 104.281L86.5415 104.281Z" fill="#141416"/>
<path d="M82.2529 102.089C82.0516 102.842 82.096 103.614 82.3449 104.316L82.3717 104.303C82.977 104.03 83.7052 103.842 84.5369 103.75C85.2664 103.668 86.0729 103.661 86.916 103.728L82.2529 102.089Z" fill="#141416"/>
<path d="M86.1889 100.086C87.0236 101.751 88.3309 103.117 89.9678 104.037C90.3936 102.153 89.2988 100.186 87.3678 99.5072C86.8575 99.3281 86.3371 99.2558 85.8311 99.2771C85.9376 99.5507 86.0577 99.8231 86.1888 100.085L86.1889 100.086Z" fill="#141416"/>
<path d="M84.4484 99.6419C84.9331 100.603 85.8905 101.613 87.1592 102.522C86.5633 101.86 86.0538 101.119 85.6588 100.33C85.5122 100.038 85.3788 99.7342 85.2607 99.4256L85.232 99.3495C84.9532 99.4036 84.6842 99.4886 84.4275 99.5992L84.4484 99.6419Z" fill="#141416"/>
<path d="M84.2595 105.572C83.9932 105.694 83.7281 105.83 83.475 105.977C83.856 106.311 84.3073 106.58 84.8176 106.76C86.7486 107.439 88.8336 106.589 89.6813 104.853C87.8291 104.546 85.9542 104.793 84.2605 105.57L84.2595 105.572Z" fill="#141416"/>
<path d="M85.2649 101.682C84.6745 101.089 84.2227 100.487 83.9227 99.8956L83.909 99.869C83.276 100.261 82.7584 100.835 82.4443 101.549L87.1062 103.188C86.4061 102.713 85.7821 102.203 85.2638 101.682L85.2649 101.682Z" fill="#141416"/>
<path d="M58.8973 111.846C58.7725 111.867 58.6411 111.82 58.5586 111.713L36.5969 83.1684C36.4777 83.0136 36.5069 82.7915 36.6617 82.6724C36.8176 82.553 37.0385 82.5823 37.1577 82.7371L59.1194 111.281C59.2386 111.436 59.2094 111.658 59.0546 111.777C59.0064 111.814 58.9524 111.837 58.8973 111.846Z" fill="black"/>
<path d="M90.233 106.665C90.1778 106.674 90.1194 106.67 90.0619 106.651C89.877 106.588 89.7779 106.387 89.8409 106.202L101.446 72.1078C101.509 71.9229 101.706 71.8232 101.895 71.8868C102.079 71.9499 102.178 72.1507 102.115 72.3356L90.5106 106.43C90.467 106.557 90.3578 106.645 90.233 106.665Z" fill="black"/>
<path d="M102.328 71.9664C102.634 73.8132 88.0851 77.7705 69.8364 80.7878C51.5876 83.8051 36.5284 84.7432 36.2231 82.8964C36.0598 81.9089 40.0607 80.3403 46.5803 78.6303C50.4802 77.6042 55.2791 76.5357 60.6232 75.5088C63.202 75.0108 65.9259 74.5246 68.7254 74.0617C71.5249 73.5988 74.2491 73.1842 76.8621 72.8238C82.2513 72.076 87.1396 71.5416 91.1625 71.2589C97.8731 70.7814 102.166 70.9787 102.329 71.9662L102.328 71.9664Z" fill="#141416"/>
<path d="M83.7465 78.5243C83.5621 78.5548 83.3829 78.4353 83.3439 78.2488C83.3031 78.058 83.4246 77.8703 83.6155 77.8295C97.1049 74.9382 102.038 72.7336 101.978 72.0225C101.977 72.0113 101.498 70.8771 91.1852 71.6105C87.1739 71.8936 82.2369 72.4337 76.9086 73.1726C71.6904 73.8921 65.8159 74.8634 60.6877 75.8546C55.4051 76.869 50.5569 77.9468 46.6682 78.9711C36.657 81.5981 36.5689 82.826 36.5707 82.8372C36.6776 83.2667 40.1249 84.1503 54.0844 82.621C54.2784 82.5993 54.4531 82.7403 54.4748 82.9343C54.4953 83.1285 54.3405 83.3101 54.1615 83.3247C45.9946 84.2197 36.1923 84.8814 35.8736 82.9536C35.7921 82.461 35.5756 81.1518 46.4894 78.2877C50.3925 77.2599 55.2575 76.1794 60.5546 75.1614C65.6954 74.1693 71.5821 73.1948 76.8115 72.4734C82.1555 71.732 87.1085 71.1903 91.1356 70.9058C102.378 70.1065 102.595 71.4157 102.676 71.9083C103.032 74.0588 90.979 76.9748 83.7634 78.5215C83.7578 78.5224 83.7522 78.5233 83.7465 78.5243Z" fill="black"/>
<path d="M69.3056 110.125C69.1369 110.153 68.9693 110.055 68.9127 109.888L57.415 75.3472C57.3532 75.1621 57.453 74.9619 57.6393 74.901C57.8186 74.8391 58.0235 74.9392 58.0855 75.1254L69.5843 109.666C69.6461 109.851 69.5452 110.051 69.3599 110.112C69.3425 110.118 69.3236 110.122 69.3056 110.125Z" fill="black"/>
<path d="M102.331 71.9612C102.168 70.9759 97.8736 70.7777 91.1597 71.2569C87.1369 71.5396 82.2469 72.0708 76.8577 72.8186C74.2432 73.1839 71.5208 73.5959 68.7225 74.0585C65.9242 74.5212 63.2051 75.0089 60.6211 75.5032C55.278 76.5299 50.4773 77.601 46.5776 78.6283C40.0578 80.3372 36.0558 81.9059 36.2189 82.8923C36.0175 81.6742 35.8768 80.4738 35.7914 79.2654C35.4753 74.6357 36.0128 70.1433 37.2975 65.956C38.9593 60.4642 41.876 55.5114 45.7605 51.5541C50.4338 46.7776 56.5194 43.4212 63.4669 42.2725C72.7392 40.7393 81.7993 43.4161 88.8801 48.9714C95.7399 54.3437 100.751 62.4099 102.331 71.96L102.331 71.9612Z" fill="#FE515E"/>
<path d="M102.331 71.9612C102.168 70.9759 97.8736 70.7777 91.1597 71.2569C87.1369 71.5396 82.2469 72.0708 76.8577 72.8186C74.2432 73.1839 71.5208 73.5959 68.7225 74.0585C65.9242 74.5212 63.2051 75.0089 60.6211 75.5032C55.278 76.5299 50.4773 77.601 46.5776 78.6283C40.0578 80.3372 36.0558 81.9059 36.2189 82.8923C36.0175 81.6742 35.8768 80.4738 35.7914 79.2654C35.4753 74.6357 36.0128 70.1433 37.2975 65.956C38.9593 60.4642 41.876 55.5114 45.7605 51.5541C50.4338 46.7776 56.5194 43.4212 63.4669 42.2725C72.7392 40.7393 81.7993 43.4161 88.8801 48.9714C95.7399 54.3437 100.751 62.4099 102.331 71.96L102.331 71.9612Z" fill="url(#paint16_linear_4453_553)"/>
<path d="M45.6973 54.1818C45.0251 55.029 43.7616 55.305 43.2498 56.2493C42.7236 57.2248 43.196 58.5795 42.4942 59.4224C42.2066 59.7657 41.7888 59.9503 41.4775 60.2687C40.9858 60.7614 40.8417 61.5108 40.8532 62.2161C40.8631 62.9124 41.0065 63.6051 40.9702 64.3078C40.9414 65.0001 40.6919 65.7485 40.1176 66.1393C39.474 66.5796 38.6078 66.4848 37.8739 66.204C37.6804 66.1309 37.4854 66.0487 37.2977 65.955C38.9595 60.4632 41.8763 55.5104 45.7607 51.553C46.2389 52.3625 46.2731 53.4361 45.6985 54.1817L45.6973 54.1818Z" fill="#FFECD4"/>
<path d="M41.0375 70.1868C39.8442 70.3842 38.6581 70.0661 37.611 69.7851C37.367 69.7145 37.1254 69.6505 36.8835 69.5853L36.3876 69.4513C36.1999 69.3991 36.0892 69.2048 36.1411 69.0159C36.1931 68.8271 36.39 68.7183 36.5764 68.7695L37.0675 68.9021C37.3129 68.9678 37.5583 69.0335 37.801 69.1032C38.7815 69.3662 39.8725 69.6469 40.9558 69.4828C41.8556 69.334 42.8666 68.6561 42.9739 67.6909C43.0331 67.182 42.8581 66.669 42.6714 66.1267L42.5486 65.7611C42.2402 64.756 42.2945 63.959 42.709 63.3912C43.065 62.9095 43.5912 62.7023 44.1008 62.5002C44.4946 62.345 44.8655 62.1981 45.1151 61.9396C45.6905 61.3315 45.4857 60.2399 45.2813 59.4718C45.0375 58.5565 44.7022 57.3039 45.3783 56.3336C45.7283 55.8297 46.2485 55.5588 46.7508 55.2978C47.0732 55.1302 47.3774 54.9712 47.6254 54.7592C48.6031 53.9147 48.5332 52.3247 47.9587 51.1914C47.7767 50.8171 47.5404 50.4783 47.2364 50.1496C47.1887 50.0986 47.1586 50.0354 47.1473 49.9668C47.1155 49.7744 47.2452 49.5877 47.4376 49.5559C47.5804 49.5323 47.7179 49.5951 47.7908 49.7078C48.1256 50.0765 48.3875 50.4584 48.5918 50.8765C49.2882 52.2507 49.3398 54.2123 48.0861 55.2954C47.7764 55.5604 47.4211 55.7463 47.0774 55.9244C46.6305 56.1566 46.2093 56.3765 45.9592 56.7367C45.5081 57.3844 45.7045 58.3133 45.9641 59.2895C46.2118 60.2215 46.4458 61.5601 45.6267 62.427C45.2686 62.7982 44.8077 62.9807 44.3608 63.1574C43.9247 63.3289 43.5137 63.4916 43.2796 63.8088C43.0045 64.1859 42.9846 64.7715 43.2228 65.5479L43.3395 65.8972C43.5428 66.4911 43.7528 67.1045 43.6746 67.7703C43.5269 69.1062 42.2273 69.9751 41.0385 70.1855L41.0375 70.1868Z" fill="#FFECD4"/>
<path d="M102.331 71.9608C102.169 70.9756 97.8744 70.7774 91.1605 71.2566C90.0498 65.9852 88.2403 61.1633 85.9406 57.0244C87.881 55.6429 88.9626 53.0572 88.9783 50.6084C88.9824 50.0531 88.9499 49.5142 88.8799 48.9723C95.7397 54.3446 100.751 62.4109 102.33 71.961L102.331 71.9608Z" fill="#F83B4D"/>
<path d="M102.331 71.9608C102.169 70.9756 97.8744 70.7774 91.1605 71.2566C90.0498 65.9852 88.2403 61.1633 85.9406 57.0244C87.881 55.6429 88.9626 53.0572 88.9783 50.6084C88.9824 50.0531 88.9499 49.5142 88.8799 48.9723C95.7397 54.3446 100.751 62.4109 102.33 71.961L102.331 71.9608Z" fill="url(#paint17_linear_4453_553)"/>
<path d="M91.1599 71.257C87.137 71.5397 82.247 72.0709 76.8579 72.8187C74.2433 73.184 71.5209 73.596 68.7226 74.0587C65.9243 74.5213 63.2052 75.0091 60.6212 75.5033C55.2782 76.53 50.4774 77.6011 46.5777 78.6284C46.3984 77.1386 46.2773 75.6588 46.2288 74.2051C45.5687 57.7389 52.6133 44.0672 63.467 42.2726C71.8463 40.8871 80.3462 46.9334 85.9411 57.0247C88.2396 61.1637 90.0502 65.9855 91.161 71.2568L91.1599 71.257Z" fill="#1E1E20"/>
<path d="M91.161 71.257C87.1381 71.5397 82.2481 72.0709 76.859 72.8187C76.2188 69.4084 75.4921 66.1661 74.706 63.152C75.3742 61.5325 76.0105 59.8881 77.4282 58.9859C79.4432 57.7064 82.1344 58.5035 84.4156 57.7924C84.9702 57.6245 85.4809 57.3586 85.941 57.0248C88.2396 61.1639 90.0502 65.9856 91.161 71.257Z" fill="#282828"/>
<path d="M59.7832 68.4769C59.9952 70.7447 60.2683 73.088 60.6203 75.5037C55.2773 76.5304 50.4765 77.6015 46.5768 78.6287C46.3975 77.1389 46.2764 75.6591 46.2279 74.2054C47.1335 73.6166 48.1077 73.1493 49.1727 72.9444C51.1828 72.5646 53.3524 73.1419 55.2432 72.3901C57.1086 71.6519 58.2818 69.7952 59.7843 68.4767L59.7832 68.4769Z" fill="#282828"/>
<path d="M76.8587 72.8195C74.2442 73.1847 71.5218 73.5967 68.7234 74.0594C65.9251 74.5221 63.206 75.0098 60.622 75.5041C60.2698 73.0873 59.9979 70.7438 59.7849 68.4773C58.4148 53.8941 59.7841 42.8812 63.4677 42.2722C66.9082 41.7033 71.3633 50.3873 74.7069 63.1526C75.4916 66.1657 76.2186 69.4092 76.8598 72.8193L76.8587 72.8195Z" fill="#FE515E"/>
<path d="M76.8587 72.8195C74.2442 73.1847 71.5218 73.5967 68.7234 74.0594C65.9251 74.5221 63.206 75.0098 60.622 75.5041C60.2698 73.0873 59.9979 70.7438 59.7849 68.4773C58.4148 53.8941 59.7841 42.8812 63.4677 42.2722C66.9082 41.7033 71.3633 50.3873 74.7069 63.1526C75.4916 66.1657 76.2186 69.4092 76.8598 72.8193L76.8587 72.8195Z" fill="url(#paint18_linear_4453_553)"/>
<path d="M76.8579 72.8195C74.2434 73.1847 71.521 73.5967 68.7226 74.0594C65.9243 74.5221 63.2052 75.0098 60.6212 75.5041C60.269 73.0873 59.9971 70.7439 59.7841 68.4774C60.3337 67.9855 60.9341 67.5708 61.6174 67.3145C64.9528 66.0467 69.0736 68.8999 72.1041 67.0042C73.4461 66.1618 74.0881 64.6702 74.7063 63.1537C75.491 66.1669 76.218 69.4103 76.8592 72.8204L76.8579 72.8195Z" fill="#F83B4D"/>
<path d="M76.8579 72.8195C74.2434 73.1847 71.521 73.5967 68.7226 74.0594C65.9243 74.5221 63.2052 75.0098 60.6212 75.5041C60.269 73.0873 59.9971 70.7439 59.7841 68.4774C60.3337 67.9855 60.9341 67.5708 61.6174 67.3145C64.9528 66.0467 69.0736 68.8999 72.1041 67.0042C73.4461 66.1618 74.0881 64.6702 74.7063 63.1537C75.491 66.1669 76.218 69.4103 76.8592 72.8204L76.8579 72.8195Z" fill="url(#paint19_linear_4453_553)"/>
<path d="M102.389 72.3096C102.197 72.3414 102.015 72.2109 101.983 72.0186C101.981 72.0062 101.501 70.8723 91.1865 71.6094C87.1569 71.8932 82.2196 72.4322 76.9083 73.1683C71.4443 73.9319 66.0683 74.822 60.6885 75.8501C55.4238 76.8616 50.5747 77.9407 46.6684 78.9702C36.6555 81.594 36.5663 82.822 36.5683 82.8344C36.6001 83.0268 36.4696 83.2089 36.2773 83.2407C36.085 83.2725 35.9028 83.142 35.871 82.9497L35.8698 82.943C35.6666 81.7136 35.5257 80.5191 35.4392 79.2901C34.1694 60.8344 46.1937 44.7701 63.41 41.9236C69.0652 40.9885 74.9059 41.5954 80.3006 43.6765C80.4821 43.747 80.5737 43.9514 80.5034 44.134C80.4329 44.3155 80.2285 44.4071 80.0458 44.3368C74.7682 42.2999 69.0556 41.7065 63.5253 42.6209C46.6712 45.4076 34.899 61.1517 36.1441 79.2417C36.2078 80.144 36.3007 81.0276 36.4276 81.9206C37.3953 81.1621 39.9353 80.0037 46.4884 78.287C50.4105 77.2549 55.274 76.1723 60.5554 75.1569C65.9487 74.1265 71.335 73.2359 76.81 72.4693C82.1372 71.7306 87.0914 71.19 91.1359 70.9049C97.8838 70.4223 100.662 70.7014 101.821 71.1083C101.145 67.5606 99.9776 64.1612 98.3435 60.9939C98.2547 60.8202 98.3223 60.6068 98.4959 60.518C98.6685 60.4294 98.883 60.4968 98.9718 60.6704C100.778 64.1722 102.026 67.9499 102.679 71.8988L102.68 71.9055C102.712 72.0979 102.582 72.2801 102.389 72.3119L102.389 72.3096Z" fill="black"/>
<path d="M73.4985 66.9264C72.8631 67.0315 72.3344 67.4332 72.0046 67.9961C71.6682 68.5613 71.5215 69.2812 71.6457 70.0325C71.3972 68.5299 70.1693 67.4769 68.8995 67.6868C69.535 67.5818 70.0558 67.1814 70.3948 66.625C70.7244 66.0609 70.8711 65.3411 70.7469 64.5897C70.8711 65.3411 71.2418 65.9754 71.7422 66.4022C72.2344 66.8212 72.8642 67.0313 73.4997 66.9262L73.4985 66.9264Z" fill="#FFECD4"/>
<path d="M62.5438 48.841C63.2241 48.9018 63.6218 50.6224 63.662 52.6899C63.6929 54.7565 63.3545 56.4902 62.6763 56.5746C62.0097 56.6594 61.242 54.9445 61.2078 52.7317C61.1666 50.5188 61.8739 48.7796 62.5438 48.841Z" fill="#FFECD4"/>
<path d="M62.9352 45.4285C63.2296 45.4757 63.379 46.0368 63.2989 46.6844C63.2165 47.3324 62.9267 47.8368 62.6332 47.809C62.3387 47.7815 62.1516 47.2162 62.2366 46.5493C62.3192 45.8816 62.6455 45.3816 62.9341 45.4287L62.9352 45.4285Z" fill="#FFECD4"/>
<path d="M78.6234 96.0293C77.9662 93.4873 75.3734 91.9574 72.8303 92.6148C70.2872 93.2722 68.7584 95.8648 69.4158 98.4079C70.073 100.95 72.6658 102.48 75.2089 101.822C77.7509 101.165 79.2808 98.5724 78.6234 96.0293Z" fill="url(#paint20_linear_4453_553)"/>
<path d="M75.0351 97.9189C73.6937 98.7161 72.6531 99.6416 72.0891 100.556L72.0647 100.597C72.3117 100.729 72.5732 100.836 72.845 100.914L72.8804 100.842C73.0232 100.545 73.1819 100.254 73.354 99.974C73.8154 99.2218 74.3857 98.5266 75.0362 97.9187L75.0351 97.9189Z" fill="#141416"/>
<path d="M70.2539 98.4877C70.5066 99.2259 70.9722 99.841 71.5703 100.285L71.5857 100.26C71.9361 99.6955 72.4361 99.1345 73.0759 98.5942C73.6365 98.1202 74.3019 97.6647 75.0401 97.2515L70.2539 98.4877Z" fill="#141416"/>
<path d="M72.4078 94.6315C74.0293 95.5489 75.8761 95.9565 77.7476 95.8077C77.0522 94.0057 75.0482 92.9828 73.0656 93.4944C72.5425 93.6294 72.07 93.86 71.6608 94.1599C71.9012 94.3282 72.1529 94.4876 72.4078 94.6315Z" fill="#141416"/>
<path d="M70.7145 95.2326C71.6522 95.7604 73.0108 96.0662 74.5695 96.1146C73.7061 95.8969 72.8703 95.566 72.1028 95.1313C71.8174 94.9705 71.5373 94.7926 71.2688 94.6013L71.2021 94.5546C71.0019 94.7552 70.8245 94.9752 70.6726 95.2095L70.7134 95.2328L70.7145 95.2326Z" fill="#141416"/>
<path d="M73.8622 100.263C73.7094 100.512 73.5655 100.774 73.4367 101.037C73.9386 101.102 74.4643 101.074 74.9874 100.939C76.9699 100.427 78.2269 98.5599 77.9636 96.646C76.2538 97.4233 74.8347 98.6736 73.8609 100.262L73.8622 100.263Z" fill="#141416"/>
<path d="M72.5296 96.4723C71.7088 96.3088 70.9988 96.0611 70.4194 95.7363L70.3939 95.722C70.0866 96.4002 69.9762 97.1649 70.1124 97.9328L74.8974 96.6967C74.0519 96.6921 73.2491 96.6168 72.5285 96.4725L72.5296 96.4723Z" fill="#141416"/>
<path d="M81.9739 105.752C82.5871 103.199 81.014 100.632 78.4596 100.019C75.9063 99.4057 73.3389 100.979 72.726 103.533C72.1128 106.087 73.6859 108.654 76.2403 109.267C78.7936 109.88 81.361 108.307 81.9739 105.752Z" fill="url(#paint21_linear_4453_553)"/>
<path d="M77.9178 105.738C76.3597 105.811 75.0069 106.141 74.0787 106.684L74.0376 106.708C74.1938 106.94 74.3742 107.158 74.5789 107.355L74.645 107.307C74.9099 107.113 75.1869 106.93 75.4701 106.763C76.2303 106.315 77.0604 105.968 77.92 105.737L77.9178 105.738Z" fill="#141416"/>
<path d="M73.4311 103.996C73.3078 104.767 73.4314 105.528 73.7506 106.201L73.776 106.187C74.3504 105.852 75.0551 105.593 75.8738 105.415C76.591 105.259 77.392 105.169 78.2382 105.151L73.4313 103.997L73.4311 103.996Z" fill="#141416"/>
<path d="M77.1401 101.601C78.1417 103.172 79.5807 104.398 81.3046 105.145C81.5353 103.228 80.2458 101.383 78.2546 100.906C77.7289 100.78 77.2034 100.761 76.7025 100.834C76.8358 101.096 76.9837 101.354 77.1412 101.601L77.1401 101.601Z" fill="#141416"/>
<path d="M75.3634 101.338C75.943 102.244 77 103.151 78.354 103.925C77.6936 103.327 77.1114 102.644 76.6371 101.899C76.4609 101.624 76.2965 101.335 76.1484 101.041L76.1122 100.968C75.8405 101.051 75.5815 101.162 75.3372 101.299L75.3622 101.338L75.3634 101.338Z" fill="#141416"/>
<path d="M75.7821 107.256C75.5295 107.406 75.2802 107.568 75.0431 107.741C75.4554 108.034 75.9336 108.256 76.4593 108.382C78.4494 108.859 80.4365 107.802 81.1013 105.988C79.2275 105.871 77.3878 106.31 75.782 107.255L75.7821 107.256Z" fill="#141416"/>
<path d="M76.3845 103.284C75.7365 102.754 75.2258 102.202 74.8667 101.644L74.851 101.619C74.2617 102.074 73.8055 102.697 73.5654 103.439L78.3711 104.593C77.6265 104.191 76.9536 103.749 76.3843 103.283L76.3845 103.284Z" fill="#141416"/>
<path d="M79.4464 108.447C79.4284 108.45 79.4091 108.452 79.3905 108.452C79.1954 108.453 79.0354 108.295 79.0345 108.101L78.8033 71.6981C78.802 71.5018 78.9651 71.342 79.1534 71.342C79.3485 71.341 79.5086 71.4982 79.5094 71.6922L79.7418 108.095C79.7433 108.272 79.6151 108.419 79.4464 108.447Z" fill="black"/>
<path d="M92.0747 105.902L95.1869 124.724C95.5435 126.881 94.0864 128.928 91.919 129.287L64.5306 133.815C62.3734 134.172 60.3338 132.703 59.9771 130.546L56.8649 111.723L92.0736 105.902L92.0747 105.902Z" fill="#141416"/>
<path d="M92.0747 105.902L95.1869 124.724C95.5435 126.881 94.0864 128.928 91.919 129.287L64.5306 133.815C62.3734 134.172 60.3338 132.703 59.9771 130.546L56.8649 111.723L92.0736 105.902L92.0747 105.902Z" fill="#FFCB67" fill-opacity="0.9"/>
<path d="M66.0617 112.573C65.3478 113.455 63.9433 113.745 63.5649 114.81C63.4217 115.216 63.4658 115.657 63.4412 116.082C63.4272 116.514 63.3111 116.972 62.9607 117.222C62.56 117.517 61.97 117.415 61.5556 117.683C60.9076 118.097 61.0272 119.051 60.9144 119.815C60.7686 120.785 60.1005 121.65 59.2071 122.027C59.0101 122.107 58.801 122.17 58.5963 122.204L56.8633 111.723L66.3493 110.154C66.6462 110.965 66.5997 111.899 66.0615 112.572L66.0617 112.573Z" fill="#FE9A4C"/>
<path d="M60.6183 126.838C60.1965 126.908 59.7409 126.913 59.264 126.852C59.0704 126.827 58.9336 126.65 58.9582 126.456C58.9829 126.263 59.16 126.125 59.3537 126.151C60.1447 126.252 60.848 126.145 61.3891 125.84C62.087 125.441 62.5181 124.68 62.4342 123.991C62.4109 123.801 62.3564 123.611 62.303 123.421C62.1737 122.961 62.0275 122.44 62.2742 121.933C62.5668 121.355 63.2497 121.061 64.2021 121.098L64.3996 121.105C64.912 121.122 65.3966 121.139 65.7165 120.886C66.23 120.469 66.0702 119.566 65.8452 118.883C65.5758 118.071 65.2069 116.958 65.8239 116.112C66.2065 115.589 66.86 115.313 67.8132 115.271C67.9581 115.267 68.0979 115.267 68.2389 115.267C68.7237 115.264 69.1836 115.264 69.584 115.1C70.4983 114.731 70.8849 113.596 70.7954 112.664C70.6915 111.679 70.2219 110.802 69.6184 109.759C69.6154 109.755 69.6137 109.752 69.6109 109.749C69.5155 109.626 69.5095 109.45 69.6081 109.32C69.7254 109.163 69.947 109.133 70.1026 109.249C70.1342 109.273 70.1672 109.311 70.1928 109.348C70.2031 109.361 70.2123 109.375 70.2203 109.388C70.7327 110.272 71.3696 111.37 71.4988 112.592C71.6107 113.751 71.1429 115.234 69.8506 115.755C69.3231 115.968 68.7747 115.971 68.2423 115.972C68.1083 115.972 67.9743 115.973 67.8421 115.977C67.1185 116.01 66.6445 116.19 66.3964 116.528C66.0245 117.039 66.2318 117.796 66.5191 118.661C67.0519 120.283 66.6187 121.066 66.1613 121.437C65.6362 121.854 64.9681 121.831 64.379 121.812L64.1817 121.806C63.8685 121.792 63.131 121.811 62.9097 122.248C62.783 122.509 62.8775 122.842 62.9855 123.23C63.048 123.454 63.111 123.682 63.1377 123.906C63.2568 124.885 62.6958 125.909 61.7391 126.454C61.4062 126.642 61.0288 126.77 60.6205 126.838L60.6183 126.838Z" fill="#FFECD4"/>
<path d="M92.7499 109.994L95.1855 124.725C95.5422 126.882 94.0851 128.929 91.9177 129.287L64.5293 133.816C62.3721 134.172 60.3325 132.704 59.9758 130.546L59.9726 130.527C62.1129 131.682 65.1059 131.293 66.6931 129.396C68.0339 127.798 68.4643 125.377 70.2907 124.34C72.0537 123.332 74.2484 124.125 76.1723 124.782C78.0977 125.448 80.5177 125.87 81.9171 124.396C82.896 123.384 82.9851 121.84 83.1153 120.433C83.247 119.035 83.5886 117.461 84.7963 116.735C86.4746 115.732 88.8841 116.957 90.4968 115.85C91.6136 115.093 91.8292 113.566 92.0386 112.233C92.162 111.477 92.3595 110.651 92.7477 109.994L92.7499 109.994Z" fill="#141416"/>
<path d="M92.7499 109.994L95.1855 124.725C95.5422 126.882 94.0851 128.929 91.9177 129.287L64.5293 133.816C62.3721 134.172 60.3325 132.704 59.9758 130.546L59.9726 130.527C62.1129 131.682 65.1059 131.293 66.6931 129.396C68.0339 127.798 68.4643 125.377 70.2907 124.34C72.0537 123.332 74.2484 124.125 76.1723 124.782C78.0977 125.448 80.5177 125.87 81.9171 124.396C82.896 123.384 82.9851 121.84 83.1153 120.433C83.247 119.035 83.5886 117.461 84.7963 116.735C86.4746 115.732 88.8841 116.957 90.4968 115.85C91.6136 115.093 91.8292 113.566 92.0386 112.233C92.162 111.477 92.3595 110.651 92.7477 109.994L92.7499 109.994Z" fill="#FE9A4C" fill-opacity="0.5"/>
<path d="M82.9949 131.12L64.5875 134.164C62.2413 134.552 60.0163 132.954 59.6276 130.603L56.5155 111.781C56.4837 111.589 56.6142 111.407 56.8065 111.375L92.0151 105.553C92.2075 105.521 92.3897 105.652 92.4215 105.844L94.6395 119.259C94.6713 119.451 94.5408 119.633 94.3485 119.665C94.1561 119.697 93.9739 119.567 93.9421 119.374L91.7818 106.308L57.2705 112.014L60.325 130.488C60.6502 132.455 62.5107 133.791 64.4722 133.466L82.8796 130.423C83.0719 130.391 83.2541 130.522 83.2859 130.714C83.3177 130.906 83.1872 131.088 82.9949 131.12Z" fill="black"/>
<path d="M92.232 109.039L57.7218 114.745C56.2315 114.991 54.8238 113.983 54.5774 112.492C54.331 111.002 55.3392 109.594 56.8295 109.348L91.3397 103.642C92.83 103.396 94.2377 104.404 94.4841 105.894C94.7305 107.384 93.7222 108.792 92.232 109.039Z" fill="#FFECD4"/>
<path d="M85.2931 120.244C84.6576 120.349 84.129 120.751 83.7991 121.314C83.4628 121.879 83.316 122.599 83.4402 123.35C83.1918 121.847 81.9639 120.794 80.6941 121.004C81.3295 120.899 81.8503 120.499 82.1893 119.942C82.519 119.378 82.6657 118.658 82.5415 117.907C82.6657 118.658 83.0363 119.293 83.5368 119.72C84.0289 120.139 84.6588 120.349 85.2942 120.244L85.2931 120.244Z" fill="#FFECD4"/>
<path d="M85.4264 116.497C85.1384 116.544 84.8981 116.726 84.7477 116.983C84.5948 117.24 84.5288 117.567 84.5851 117.908C84.4722 117.225 83.9147 116.747 83.3377 116.842C83.6257 116.794 83.8637 116.613 84.0172 116.36C84.1667 116.104 84.2338 115.776 84.1775 115.436C84.234 115.777 84.4018 116.065 84.629 116.259C84.8524 116.449 85.1384 116.544 85.4275 116.496L85.4264 116.497Z" fill="#FFECD4"/>
<path d="M78.6614 113.527C78.7336 114.201 77.2967 114.931 75.4321 115.338C73.5603 115.744 71.8885 115.605 71.7278 114.941C71.5701 114.288 72.9687 113.361 74.9196 112.938C76.8766 112.509 78.5914 112.852 78.6623 113.525L78.6614 113.527Z" fill="#FFECD4"/>
<path d="M81.7926 113.305C81.7913 113.605 81.3136 113.84 80.7243 113.875C80.1345 113.906 79.6315 113.716 79.6015 113.423C79.5712 113.127 80.0459 112.84 80.6667 112.806C81.2869 112.77 81.793 113.014 81.7915 113.305L81.7926 113.305Z" fill="#FFECD4"/>
</g>
<rect x="0.823466" y="0.823466" width="248.353" height="38.3531" rx="9.05813" fill="url(#paint22_linear_4453_553)"/>
<rect x="0.823466" y="0.823466" width="248.353" height="38.3531" rx="9.05813" fill="black" fill-opacity="0.9"/>
<rect x="0.823466" y="0.823466" width="248.353" height="38.3531" rx="9.05813" stroke="#6EBD70" stroke-width="1.64693"/>
<rect x="0.823466" y="0.823466" width="248.353" height="38.3531" rx="9.05813" stroke="url(#paint23_linear_4453_553)" stroke-width="1.64693"/>
<path d="M20.5575 23.0505C20.154 23.0505 19.7288 22.9698 19.2818 22.8084C18.8411 22.6408 18.3972 22.4514 17.9502 22.2404C17.5095 22.0231 17.0873 21.8338 16.6838 21.6724C16.2865 21.5047 15.9265 21.4209 15.6037 21.4209C15.405 21.4209 15.2374 21.4737 15.1008 21.5792C14.9705 21.6786 14.868 21.812 14.7935 21.9796C14.7253 22.1473 14.6911 22.3211 14.6911 22.5011L12.4656 22.4732C12.4532 21.9207 12.596 21.4023 12.8939 20.9181C13.1981 20.4339 13.5954 20.0428 14.0858 19.7448C14.5763 19.4406 15.107 19.2885 15.6782 19.2885C16.0817 19.2885 16.4821 19.3723 16.8794 19.5399C17.2767 19.7076 17.6709 19.9062 18.062 20.1359C18.4531 20.3594 18.8318 20.5549 19.198 20.7225C19.5643 20.8902 19.9119 20.974 20.2409 20.974C20.4396 20.974 20.6072 20.9243 20.7438 20.825C20.8804 20.7257 20.9859 20.5922 21.0604 20.4246C21.1411 20.257 21.1845 20.0769 21.1907 19.8845L23.407 19.9031C23.4194 20.4556 23.3045 20.9709 23.0624 21.4489C22.8265 21.9269 22.4913 22.3149 22.0567 22.6128C21.6222 22.9046 21.1225 23.0505 20.5575 23.0505ZM23.9814 26.7566L24.2607 24.7266C24.7077 24.4224 25.2385 24.0469 25.853 23.5999C26.4738 23.1467 27.1101 22.6594 27.762 22.1379C28.42 21.6103 29.0346 21.0826 29.6057 20.5549C30.183 20.0273 30.661 19.5244 31.0397 19.0464C31.4184 18.5684 31.6295 18.1587 31.6729 17.8173C31.7288 17.4386 31.6853 17.0941 31.5426 16.7837C31.3998 16.4671 31.1887 16.2156 30.9093 16.0294C30.63 15.8432 30.301 15.75 29.9223 15.75C29.5436 15.75 29.1836 15.8432 28.8421 16.0294C28.5069 16.2156 28.2244 16.4671 27.9948 16.7837C27.7651 17.0941 27.6223 17.4386 27.5664 17.8173H25.2943C25.4123 16.9978 25.7134 16.2622 26.1976 15.6104C26.688 14.9523 27.2871 14.434 27.9948 14.0553C28.7087 13.6704 29.4567 13.478 30.2389 13.478C31.0335 13.478 31.7288 13.6735 32.3247 14.0646C32.9269 14.4495 33.377 14.971 33.675 15.629C33.9729 16.287 34.0629 17.0165 33.945 17.8173C33.8891 18.2394 33.7526 18.6646 33.5353 19.093C33.3242 19.5213 33.048 19.9528 32.7065 20.3873C32.3651 20.8219 31.9709 21.2626 31.5239 21.7096C31.0832 22.1504 30.6021 22.6035 30.0806 23.0691C29.5653 23.5285 29.0222 24.0003 28.451 24.4845H33.079L32.7624 26.7566H23.9814ZM38.9994 26.9987C38.242 26.9987 37.5778 26.8249 37.0067 26.4772C36.4356 26.1234 35.9669 25.6361 35.6006 25.0153C35.2405 24.3945 34.9953 23.6775 34.865 22.8643C34.7408 22.0448 34.7439 21.1695 34.8743 20.2383C35.0046 19.3072 35.2468 18.4349 35.6006 17.6217C35.9607 16.8023 36.4076 16.0822 36.9415 15.4614C37.4816 14.8406 38.0869 14.3564 38.7573 14.0087C39.4278 13.6549 40.1417 13.478 40.899 13.478C41.6564 13.478 42.3206 13.6549 42.8917 14.0087C43.4629 14.3564 43.9253 14.8406 44.2792 15.4614C44.6393 16.0822 44.8845 16.8023 45.0148 17.6217C45.1452 18.4349 45.1452 19.3072 45.0148 20.2383C44.8845 21.1695 44.6393 22.0448 44.2792 22.8643C43.9253 23.6775 43.4815 24.3945 42.9476 25.0153C42.4137 25.6361 41.8116 26.1234 41.1411 26.4772C40.4707 26.8249 39.7568 26.9987 38.9994 26.9987ZM39.316 24.7266C39.9803 24.7266 40.5576 24.5156 41.048 24.0934C41.5446 23.6713 41.9481 23.1188 42.2585 22.4359C42.5689 21.7531 42.7769 21.0205 42.8824 20.2383C43.0004 19.4127 42.9942 18.6615 42.8638 17.9849C42.7396 17.302 42.4882 16.7588 42.1095 16.3553C41.7309 15.9518 41.2218 15.75 40.5824 15.75C40.0796 15.75 39.6264 15.8742 39.2229 16.1225C38.8194 16.3646 38.4655 16.6967 38.1613 17.1189C37.8572 17.541 37.6088 18.0221 37.4164 18.5622C37.224 19.0961 37.0874 19.6548 37.0067 20.2383C36.8949 21.0143 36.898 21.7468 37.016 22.4359C37.1402 23.1188 37.3885 23.6713 37.7609 24.0934C38.1396 24.5156 38.658 24.7266 39.316 24.7266ZM49.8207 26.9987C49.0634 26.9987 48.3991 26.8249 47.828 26.4772C47.2569 26.1234 46.7882 25.6361 46.4219 25.0153C46.0619 24.3945 45.8167 23.6775 45.6863 22.8643C45.5621 22.0448 45.5652 21.1695 45.6956 20.2383C45.826 19.3072 46.0681 18.4349 46.4219 17.6217C46.782 16.8023 47.2289 16.0822 47.7628 15.4614C48.3029 14.8406 48.9082 14.3564 49.5786 14.0087C50.2491 13.6549 50.963 13.478 51.7203 13.478C52.4777 13.478 53.1419 13.6549 53.7131 14.0087C54.2842 14.3564 54.7467 14.8406 55.1005 15.4614C55.4606 16.0822 55.7058 16.8023 55.8362 17.6217C55.9665 18.4349 55.9665 19.3072 55.8362 20.2383C55.7058 21.1695 55.4606 22.0448 55.1005 22.8643C54.7467 23.6775 54.3028 24.3945 53.7689 25.0153C53.2351 25.6361 52.6329 26.1234 51.9624 26.4772C51.292 26.8249 50.5781 26.9987 49.8207 26.9987ZM50.1373 24.7266C50.8016 24.7266 51.3789 24.5156 51.8693 24.0934C52.366 23.6713 52.7695 23.1188 53.0799 22.4359C53.3903 21.7531 53.5982 21.0205 53.7038 20.2383C53.8217 19.4127 53.8155 18.6615 53.6851 17.9849C53.561 17.302 53.3096 16.7588 52.9309 16.3553C52.5522 15.9518 52.0431 15.75 51.4037 15.75C50.9009 15.75 50.4477 15.8742 50.0442 16.1225C49.6407 16.3646 49.2869 16.6967 48.9827 17.1189C48.6785 17.541 48.4302 18.0221 48.2377 18.5622C48.0453 19.0961 47.9087 19.6548 47.828 20.2383C47.7163 21.0143 47.7194 21.7468 47.8373 22.4359C47.9615 23.1188 48.2098 23.6713 48.5823 24.0934C48.9609 24.5156 49.4793 24.7266 50.1373 24.7266ZM56.0781 27.7995L57.0931 24.6521H59.3652L57.5959 27.7995H56.0781ZM65.789 26.9987C65.0316 26.9987 64.3674 26.8249 63.7963 26.4772C63.2252 26.1234 62.7565 25.6361 62.3902 25.0153C62.0301 24.3945 61.7849 23.6775 61.6546 22.8643C61.5304 22.0448 61.5335 21.1695 61.6639 20.2383C61.7942 19.3072 62.0364 18.4349 62.3902 17.6217C62.7503 16.8023 63.1972 16.0822 63.7311 15.4614C64.2712 14.8406 64.8765 14.3564 65.5469 14.0087C66.2174 13.6549 66.9313 13.478 67.6886 13.478C68.446 13.478 69.1102 13.6549 69.6813 14.0087C70.2525 14.3564 70.7149 14.8406 71.0688 15.4614C71.4289 16.0822 71.6741 16.8023 71.8044 17.6217C71.9348 18.4349 71.9348 19.3072 71.8044 20.2383C71.6741 21.1695 71.4289 22.0448 71.0688 22.8643C70.7149 23.6775 70.2711 24.3945 69.7372 25.0153C69.2033 25.6361 68.6012 26.1234 67.9307 26.4772C67.2603 26.8249 66.5464 26.9987 65.789 26.9987ZM66.1056 24.7266C66.7699 24.7266 67.3472 24.5156 67.8376 24.0934C68.3342 23.6713 68.7377 23.1188 69.0481 22.4359C69.3585 21.7531 69.5665 21.0205 69.672 20.2383C69.79 19.4127 69.7838 18.6615 69.6534 17.9849C69.5292 17.302 69.2778 16.7588 68.8991 16.3553C68.5205 15.9518 68.0114 15.75 67.372 15.75C66.8692 15.75 66.416 15.8742 66.0125 16.1225C65.609 16.3646 65.2551 16.6967 64.9509 17.1189C64.6468 17.541 64.3984 18.0221 64.206 18.5622C64.0136 19.0961 63.877 19.6548 63.7963 20.2383C63.6845 21.0143 63.6876 21.7468 63.8056 22.4359C63.9298 23.1188 64.1781 23.6713 64.5505 24.0934C64.9292 24.5156 65.4476 24.7266 66.1056 24.7266ZM76.6103 26.9987C75.853 26.9987 75.1887 26.8249 74.6176 26.4772C74.0465 26.1234 73.5778 25.6361 73.2115 25.0153C72.8515 24.3945 72.6063 23.6775 72.4759 22.8643C72.3517 22.0448 72.3548 21.1695 72.4852 20.2383C72.6156 19.3072 72.8577 18.4349 73.2115 17.6217C73.5716 16.8023 74.0185 16.0822 74.5524 15.4614C75.0925 14.8406 75.6978 14.3564 76.3682 14.0087C77.0387 13.6549 77.7526 13.478 78.5099 13.478C79.2673 13.478 79.9315 13.6549 80.5027 14.0087C81.0738 14.3564 81.5363 14.8406 81.8901 15.4614C82.2502 16.0822 82.4954 16.8023 82.6258 17.6217C82.7561 18.4349 82.7561 19.3072 82.6258 20.2383C82.4954 21.1695 82.2502 22.0448 81.8901 22.8643C81.5363 23.6775 81.0924 24.3945 80.5585 25.0153C80.0247 25.6361 79.4225 26.1234 78.752 26.4772C78.0816 26.8249 77.3677 26.9987 76.6103 26.9987ZM76.9269 24.7266C77.5912 24.7266 78.1685 24.5156 78.6589 24.0934C79.1556 23.6713 79.5591 23.1188 79.8695 22.4359C80.1799 21.7531 80.3878 21.0205 80.4934 20.2383C80.6113 19.4127 80.6051 18.6615 80.4747 17.9849C80.3506 17.302 80.0992 16.7588 79.7205 16.3553C79.3418 15.9518 78.8327 15.75 78.1933 15.75C77.6905 15.75 77.2373 15.8742 76.8338 16.1225C76.4303 16.3646 76.0765 16.6967 75.7723 17.1189C75.4681 17.541 75.2198 18.0221 75.0273 18.5622C74.8349 19.0961 74.6983 19.6548 74.6176 20.2383C74.5059 21.0143 74.509 21.7468 74.6269 22.4359C74.7511 23.1188 74.9994 23.6713 75.3719 24.0934C75.7505 24.5156 76.2689 24.7266 76.9269 24.7266ZM87.4317 26.9987C86.6743 26.9987 86.0101 26.8249 85.4389 26.4772C84.8678 26.1234 84.3991 25.6361 84.0329 25.0153C83.6728 24.3945 83.4276 23.6775 83.2972 22.8643C83.1731 22.0448 83.1762 21.1695 83.3065 20.2383C83.4369 19.3072 83.679 18.4349 84.0329 17.6217C84.3929 16.8023 84.8399 16.0822 85.3738 15.4614C85.9138 14.8406 86.5191 14.3564 87.1896 14.0087C87.86 13.6549 88.5739 13.478 89.3313 13.478C90.0886 13.478 90.7529 13.6549 91.324 14.0087C91.8951 14.3564 92.3576 14.8406 92.7114 15.4614C93.0715 16.0822 93.3167 16.8023 93.4471 17.6217C93.5774 18.4349 93.5774 19.3072 93.4471 20.2383C93.3167 21.1695 93.0715 22.0448 92.7114 22.8643C92.3576 23.6775 91.9137 24.3945 91.3799 25.0153C90.846 25.6361 90.2438 26.1234 89.5734 26.4772C88.9029 26.8249 88.189 26.9987 87.4317 26.9987ZM87.7483 24.7266C88.4125 24.7266 88.9898 24.5156 89.4803 24.0934C89.9769 23.6713 90.3804 23.1188 90.6908 22.4359C91.0012 21.7531 91.2091 21.0205 91.3147 20.2383C91.4326 19.4127 91.4264 18.6615 91.2961 17.9849C91.1719 17.302 90.9205 16.7588 90.5418 16.3553C90.1631 15.9518 89.6541 15.75 89.0147 15.75C88.5118 15.75 88.0587 15.8742 87.6551 16.1225C87.2516 16.3646 86.8978 16.6967 86.5936 17.1189C86.2894 17.541 86.0411 18.0221 85.8487 18.5622C85.6562 19.0961 85.5196 19.6548 85.4389 20.2383C85.3272 21.0143 85.3303 21.7468 85.4482 22.4359C85.5724 23.1188 85.8207 23.6713 86.1932 24.0934C86.5719 24.5156 87.0902 24.7266 87.7483 24.7266ZM93.689 27.7995L94.704 24.6521H96.9761L95.2069 27.7995H93.689ZM103.4 26.9987C102.643 26.9987 101.978 26.8249 101.407 26.4772C100.836 26.1234 100.367 25.6361 100.001 25.0153C99.6411 24.3945 99.3959 23.6775 99.2655 22.8643C99.1413 22.0448 99.1444 21.1695 99.2748 20.2383C99.4052 19.3072 99.6473 18.4349 100.001 17.6217C100.361 16.8023 100.808 16.0822 101.342 15.4614C101.882 14.8406 102.487 14.3564 103.158 14.0087C103.828 13.6549 104.542 13.478 105.3 13.478C106.057 13.478 106.721 13.6549 107.292 14.0087C107.863 14.3564 108.326 14.8406 108.68 15.4614C109.04 16.0822 109.285 16.8023 109.415 17.6217C109.546 18.4349 109.546 19.3072 109.415 20.2383C109.285 21.1695 109.04 22.0448 108.68 22.8643C108.326 23.6775 107.882 24.3945 107.348 25.0153C106.814 25.6361 106.212 26.1234 105.542 26.4772C104.871 26.8249 104.157 26.9987 103.4 26.9987ZM103.717 24.7266C104.381 24.7266 104.958 24.5156 105.449 24.0934C105.945 23.6713 106.349 23.1188 106.659 22.4359C106.969 21.7531 107.177 21.0205 107.283 20.2383C107.401 19.4127 107.395 18.6615 107.264 17.9849C107.14 17.302 106.889 16.7588 106.51 16.3553C106.131 15.9518 105.622 15.75 104.983 15.75C104.48 15.75 104.027 15.8742 103.623 16.1225C103.22 16.3646 102.866 16.6967 102.562 17.1189C102.258 17.541 102.009 18.0221 101.817 18.5622C101.624 19.0961 101.488 19.6548 101.407 20.2383C101.295 21.0143 101.299 21.7468 101.417 22.4359C101.541 23.1188 101.789 23.6713 102.161 24.0934C102.54 24.5156 103.059 24.7266 103.717 24.7266ZM114.221 26.9987C113.464 26.9987 112.8 26.8249 112.229 26.4772C111.657 26.1234 111.189 25.6361 110.822 25.0153C110.462 24.3945 110.217 23.6775 110.087 22.8643C109.963 22.0448 109.966 21.1695 110.096 20.2383C110.227 19.3072 110.469 18.4349 110.822 17.6217C111.183 16.8023 111.629 16.0822 112.163 15.4614C112.703 14.8406 113.309 14.3564 113.979 14.0087C114.65 13.6549 115.364 13.478 116.121 13.478C116.878 13.478 117.542 13.6549 118.114 14.0087C118.685 14.3564 119.147 14.8406 119.501 15.4614C119.861 16.0822 120.106 16.8023 120.237 17.6217C120.367 18.4349 120.367 19.3072 120.237 20.2383C120.106 21.1695 119.861 22.0448 119.501 22.8643C119.147 23.6775 118.703 24.3945 118.169 25.0153C117.636 25.6361 117.033 26.1234 116.363 26.4772C115.693 26.8249 114.979 26.9987 114.221 26.9987ZM114.538 24.7266C115.202 24.7266 115.779 24.5156 116.27 24.0934C116.766 23.6713 117.17 23.1188 117.48 22.4359C117.791 21.7531 117.999 21.0205 118.104 20.2383C118.222 19.4127 118.216 18.6615 118.086 17.9849C117.962 17.302 117.71 16.7588 117.331 16.3553C116.953 15.9518 116.444 15.75 115.804 15.75C115.301 15.75 114.848 15.8742 114.445 16.1225C114.041 16.3646 113.687 16.6967 113.383 17.1189C113.079 17.541 112.831 18.0221 112.638 18.5622C112.446 19.0961 112.309 19.6548 112.229 20.2383C112.117 21.0143 112.12 21.7468 112.238 22.4359C112.362 23.1188 112.61 23.6713 112.983 24.0934C113.361 24.5156 113.88 24.7266 114.538 24.7266ZM125.043 26.9987C124.285 26.9987 123.621 26.8249 123.05 26.4772C122.479 26.1234 122.01 25.6361 121.644 25.0153C121.284 24.3945 121.039 23.6775 120.908 22.8643C120.784 22.0448 120.787 21.1695 120.917 20.2383C121.048 19.3072 121.29 18.4349 121.644 17.6217C122.004 16.8023 122.451 16.0822 122.985 15.4614C123.525 14.8406 124.13 14.3564 124.8 14.0087C125.471 13.6549 126.185 13.478 126.942 13.478C127.7 13.478 128.364 13.6549 128.935 14.0087C129.506 14.3564 129.969 14.8406 130.322 15.4614C130.682 16.0822 130.928 16.8023 131.058 17.6217C131.188 18.4349 131.188 19.3072 131.058 20.2383C130.928 21.1695 130.682 22.0448 130.322 22.8643C129.969 23.6775 129.525 24.3945 128.991 25.0153C128.457 25.6361 127.855 26.1234 127.184 26.4772C126.514 26.8249 125.8 26.9987 125.043 26.9987ZM125.359 24.7266C126.023 24.7266 126.601 24.5156 127.091 24.0934C127.588 23.6713 127.991 23.1188 128.302 22.4359C128.612 21.7531 128.82 21.0205 128.926 20.2383C129.044 19.4127 129.037 18.6615 128.907 17.9849C128.783 17.302 128.531 16.7588 128.153 16.3553C127.774 15.9518 127.265 15.75 126.626 15.75C126.123 15.75 125.67 15.8742 125.266 16.1225C124.863 16.3646 124.509 16.6967 124.205 17.1189C123.9 17.541 123.652 18.0221 123.46 18.5622C123.267 19.0961 123.131 19.6548 123.05 20.2383C122.938 21.0143 122.941 21.7468 123.059 22.4359C123.183 23.1188 123.432 23.6713 123.804 24.0934C124.183 24.5156 124.701 24.7266 125.359 24.7266ZM140.951 26.9987C140.231 26.9987 139.555 26.887 138.921 26.6635C138.294 26.4338 137.764 26.1079 137.329 25.6857C136.895 25.2574 136.609 24.7452 136.472 24.1493L138.717 23.3671C138.772 23.6154 138.918 23.842 139.154 24.0469C139.39 24.2517 139.691 24.4162 140.057 24.5404C140.424 24.6645 140.827 24.7266 141.268 24.7266C141.721 24.7266 142.153 24.6583 142.562 24.5218C142.978 24.379 143.326 24.1834 143.605 23.9351C143.885 23.6806 144.049 23.3857 144.099 23.0505C144.148 22.7091 144.058 22.4297 143.829 22.2124C143.605 21.989 143.304 21.812 142.925 21.6817C142.553 21.5513 142.159 21.452 141.743 21.3837C140.837 21.2409 140.039 21.0205 139.35 20.7225C138.661 20.4246 138.139 20.0117 137.785 19.4841C137.438 18.9564 137.32 18.2735 137.431 17.4355C137.543 16.6471 137.866 15.958 138.4 15.3683C138.94 14.7785 139.601 14.3191 140.383 13.9901C141.172 13.6611 141.994 13.4966 142.851 13.4966C143.565 13.4966 144.235 13.6083 144.862 13.8318C145.496 14.0553 146.032 14.3812 146.473 14.8096C146.914 15.2379 147.203 15.7532 147.339 16.3553L145.086 17.1282C145.03 16.8799 144.884 16.6533 144.648 16.4484C144.412 16.2436 144.111 16.0822 143.745 15.9642C143.379 15.8401 142.975 15.778 142.534 15.778C142.094 15.7718 141.665 15.8432 141.249 15.9922C140.833 16.1349 140.483 16.3305 140.197 16.5788C139.918 16.8271 139.753 17.1127 139.704 17.4355C139.648 17.8514 139.722 18.1649 139.927 18.376C140.132 18.587 140.421 18.7422 140.793 18.8416C141.172 18.9347 141.594 19.0216 142.059 19.1023C142.916 19.2389 143.689 19.4686 144.378 19.7914C145.073 20.1142 145.607 20.5456 145.98 21.0857C146.352 21.6196 146.483 22.2745 146.371 23.0505C146.259 23.8389 145.936 24.5311 145.402 25.127C144.875 25.7168 144.217 26.1762 143.428 26.5052C142.646 26.8342 141.82 26.9987 140.951 26.9987ZM157.671 13.7201H159.291L164.04 26.7566H162.653L161.638 23.9631H155.334L154.319 26.7566H152.931L157.671 13.7201ZM155.808 22.6594H161.153L158.481 15.3217L155.808 22.6594ZM165.471 17.4448H166.774V26.7566H165.471V17.4448ZM166.132 15.8152C165.921 15.8152 165.741 15.7469 165.592 15.6104C165.449 15.4676 165.378 15.2907 165.378 15.0796C165.378 14.8685 165.449 14.6947 165.592 14.5581C165.741 14.4154 165.921 14.344 166.132 14.344C166.337 14.344 166.511 14.4154 166.653 14.5581C166.802 14.6947 166.877 14.8685 166.877 15.0796C166.877 15.2907 166.805 15.4676 166.663 15.6104C166.52 15.7469 166.343 15.8152 166.132 15.8152ZM168.981 26.7566V17.4448H170.285V18.7298C170.614 18.258 171.042 17.8824 171.57 17.6031C172.097 17.3237 172.671 17.1841 173.292 17.1841C173.652 17.1841 174 17.2306 174.335 17.3237L173.804 18.6181C173.544 18.5374 173.289 18.497 173.041 18.497C172.538 18.497 172.076 18.6212 171.653 18.8695C171.237 19.1178 170.905 19.4499 170.657 19.8659C170.409 20.2818 170.285 20.7443 170.285 21.2533V26.7566H168.981ZM182.683 12.7889H183.986V26.7566H182.683V25.0153C182.36 25.6112 181.916 26.0924 181.351 26.4586C180.792 26.8187 180.128 26.9987 179.358 26.9987C178.682 26.9987 178.048 26.8714 177.459 26.6169C176.869 26.3624 176.347 26.0116 175.894 25.5647C175.447 25.1115 175.097 24.59 174.842 24.0003C174.588 23.4106 174.46 22.7774 174.46 22.1007C174.46 21.424 174.588 20.7908 174.842 20.2011C175.097 19.6051 175.447 19.0837 175.894 18.6367C176.347 18.1835 176.869 17.8297 177.459 17.5752C178.048 17.3206 178.682 17.1934 179.358 17.1934C180.128 17.1934 180.792 17.3765 181.351 17.7428C181.916 18.1028 182.36 18.5777 182.683 19.1675V12.7889ZM179.368 25.7323C180.032 25.7323 180.603 25.5709 181.081 25.2481C181.559 24.9191 181.925 24.4783 182.18 23.9258C182.44 23.3733 182.571 22.7649 182.571 22.1007C182.571 21.4178 182.44 20.8032 182.18 20.257C181.919 19.7045 181.55 19.2668 181.072 18.944C180.594 18.6212 180.026 18.4598 179.368 18.4598C178.71 18.4598 178.111 18.6243 177.57 18.9533C177.03 19.2761 176.599 19.7138 176.276 20.2663C175.953 20.8188 175.792 21.4302 175.792 22.1007C175.792 22.7774 175.956 23.3919 176.285 23.9444C176.614 24.4907 177.049 24.9253 177.589 25.2481C178.135 25.5709 178.728 25.7323 179.368 25.7323ZM186.222 26.7566V17.4448H187.526V18.7298C187.855 18.258 188.283 17.8824 188.811 17.6031C189.339 17.3237 189.913 17.1841 190.534 17.1841C190.894 17.1841 191.241 17.2306 191.577 17.3237L191.046 18.6181C190.785 18.5374 190.531 18.497 190.282 18.497C189.779 18.497 189.317 18.6212 188.895 18.8695C188.479 19.1178 188.147 19.4499 187.898 19.8659C187.65 20.2818 187.526 20.7443 187.526 21.2533V26.7566H186.222ZM196.358 26.9987C195.501 26.9987 194.719 26.7783 194.011 26.3376C193.31 25.8968 192.748 25.3071 192.326 24.5683C191.91 23.8234 191.702 23.0008 191.702 22.1007C191.702 21.4178 191.823 20.7815 192.065 20.1918C192.307 19.5958 192.639 19.0744 193.061 18.6274C193.49 18.1742 193.986 17.8204 194.551 17.5658C195.116 17.3113 195.718 17.1841 196.358 17.1841C197.214 17.1841 197.993 17.4044 198.695 17.8452C199.403 18.286 199.964 18.8788 200.38 19.6238C200.802 20.3687 201.013 21.1943 201.013 22.1007C201.013 22.7774 200.892 23.4106 200.65 24.0003C200.408 24.59 200.073 25.1115 199.645 25.5647C199.222 26.0116 198.729 26.3624 198.164 26.6169C197.605 26.8714 197.003 26.9987 196.358 26.9987ZM196.358 25.695C196.991 25.695 197.559 25.5305 198.062 25.2015C198.571 24.8663 198.971 24.4255 199.263 23.8792C199.561 23.333 199.71 22.7401 199.71 22.1007C199.71 21.4489 199.561 20.8498 199.263 20.3035C198.965 19.751 198.561 19.3103 198.052 18.9812C197.549 18.6522 196.985 18.4877 196.358 18.4877C195.724 18.4877 195.153 18.6553 194.644 18.9906C194.141 19.3196 193.741 19.7572 193.443 20.3035C193.151 20.8498 193.005 21.4489 193.005 22.1007C193.005 22.7711 193.157 23.3795 193.462 23.9258C193.766 24.4659 194.172 24.8973 194.681 25.2201C195.19 25.5367 195.749 25.695 196.358 25.695ZM203.894 31.4125H202.591V17.4448H203.894V19.1861C204.217 18.5964 204.658 18.1183 205.217 17.7521C205.775 17.3858 206.44 17.2027 207.209 17.2027C207.886 17.2027 208.519 17.3299 209.109 17.5845C209.705 17.839 210.226 18.1928 210.673 18.646C211.12 19.093 211.471 19.6113 211.726 20.2011C211.98 20.7908 212.107 21.424 212.107 22.1007C212.107 22.7774 211.98 23.4137 211.726 24.0096C211.471 24.6056 211.12 25.1301 210.673 25.5833C210.226 26.0303 209.705 26.381 209.109 26.6355C208.519 26.8901 207.886 27.0173 207.209 27.0173C206.44 27.0173 205.775 26.8342 205.217 26.4679C204.658 26.1017 204.217 25.6237 203.894 25.0339V31.4125ZM207.2 18.4691C206.548 18.4691 205.98 18.6336 205.496 18.9626C205.018 19.2854 204.649 19.72 204.388 20.2663C204.127 20.8126 203.997 21.424 203.997 22.1007C203.997 22.7649 204.124 23.3733 204.379 23.9258C204.639 24.4783 205.009 24.9191 205.487 25.2481C205.971 25.5771 206.542 25.7416 207.2 25.7416C207.846 25.7416 208.438 25.5802 208.979 25.2574C209.525 24.9346 209.962 24.5 210.291 23.9537C210.621 23.4012 210.785 22.7836 210.785 22.1007C210.785 21.4365 210.624 20.8312 210.301 20.2849C209.978 19.7324 209.547 19.2916 209.006 18.9626C208.466 18.6336 207.864 18.4691 207.2 18.4691Z" fill="#F5F5F5"/>
<defs>
<linearGradient id="paint0_linear_4453_553" x1="131.333" y1="110.234" x2="119.861" y2="104.449" gradientUnits="userSpaceOnUse">
<stop stop-color="#1A3746"/>
<stop offset="0.24" stop-color="#2B588B"/>
<stop offset="0.37" stop-color="#5A6B83"/>
<stop offset="0.74" stop-color="#ED5409"/>
<stop offset="1" stop-color="#FFCB67"/>
</linearGradient>
<linearGradient id="paint1_linear_4453_553" x1="140.405" y1="100.789" x2="127.693" y2="102.637" gradientUnits="userSpaceOnUse">
<stop stop-color="#1A3746"/>
<stop offset="0.24" stop-color="#2B588B"/>
<stop offset="0.37" stop-color="#5A6B83"/>
<stop offset="0.74" stop-color="#ED5409"/>
<stop offset="1" stop-color="#FFCB67"/>
</linearGradient>
<linearGradient id="paint2_linear_4453_553" x1="141.487" y1="109.616" x2="128.774" y2="111.463" gradientUnits="userSpaceOnUse">
<stop stop-color="#1A3746"/>
<stop offset="0.24" stop-color="#2B588B"/>
<stop offset="0.37" stop-color="#5A6B83"/>
<stop offset="0.74" stop-color="#ED5409"/>
<stop offset="1" stop-color="#FFCB67"/>
</linearGradient>
<linearGradient id="paint3_linear_4453_553" x1="158.277" y1="106.313" x2="145.564" y2="108.161" gradientUnits="userSpaceOnUse">
<stop stop-color="#1A3746"/>
<stop offset="0.24" stop-color="#2B588B"/>
<stop offset="0.37" stop-color="#5A6B83"/>
<stop offset="0.74" stop-color="#ED5409"/>
<stop offset="1" stop-color="#FFCB67"/>
</linearGradient>
<linearGradient id="paint4_linear_4453_553" x1="160.254" y1="121.213" x2="150.975" y2="112.327" gradientUnits="userSpaceOnUse">
<stop stop-color="#1A3746"/>
<stop offset="0.24" stop-color="#2B588B"/>
<stop offset="0.37" stop-color="#5A6B83"/>
<stop offset="0.74" stop-color="#ED5409"/>
<stop offset="1" stop-color="#FFCB67"/>
</linearGradient>
<linearGradient id="paint5_linear_4453_553" x1="199.688" y1="63.4589" x2="110.466" y2="54.8828" gradientUnits="userSpaceOnUse">
<stop stop-color="#1A3746"/>
<stop offset="0.24" stop-color="#2B588B"/>
<stop offset="0.37" stop-color="#5A6B83"/>
<stop offset="0.74" stop-color="#ED5409"/>
<stop offset="1" stop-color="#FFCB67"/>
</linearGradient>
<linearGradient id="paint6_linear_4453_553" x1="197.034" y1="70.7816" x2="178.848" y2="66.8548" gradientUnits="userSpaceOnUse">
<stop stop-color="#1A3746"/>
<stop offset="0.24" stop-color="#2B588B"/>
<stop offset="0.37" stop-color="#5A6B83"/>
<stop offset="0.74" stop-color="#ED5409"/>
<stop offset="1" stop-color="#FFCB67"/>
</linearGradient>
<linearGradient id="paint7_linear_4453_553" x1="167.288" y1="52.7162" x2="145.509" y2="47.9267" gradientUnits="userSpaceOnUse">
<stop stop-color="#1A3746"/>
<stop offset="0.24" stop-color="#2B588B"/>
<stop offset="0.37" stop-color="#5A6B83"/>
<stop offset="0.74" stop-color="#ED5409"/>
<stop offset="1" stop-color="#FFCB67"/>
</linearGradient>
<linearGradient id="paint8_linear_4453_553" x1="163.098" y1="68.351" x2="141.163" y2="65.8257" gradientUnits="userSpaceOnUse">
<stop stop-color="#1A3746"/>
<stop offset="0.24" stop-color="#2B588B"/>
<stop offset="0.37" stop-color="#5A6B83"/>
<stop offset="0.74" stop-color="#ED5409"/>
<stop offset="1" stop-color="#FFCB67"/>
</linearGradient>
<linearGradient id="paint9_linear_4453_553" x1="150.636" y1="104.156" x2="137.98" y2="101.944" gradientUnits="userSpaceOnUse">
<stop stop-color="#1A3746"/>
<stop offset="0.24" stop-color="#2B588B"/>
<stop offset="0.37" stop-color="#5A6B83"/>
<stop offset="0.74" stop-color="#ED5409"/>
<stop offset="1" stop-color="#FFCB67"/>
</linearGradient>
<linearGradient id="paint10_linear_4453_553" x1="149.326" y1="117.754" x2="139.186" y2="109.866" gradientUnits="userSpaceOnUse">
<stop stop-color="#1A3746"/>
<stop offset="0.24" stop-color="#2B588B"/>
<stop offset="0.37" stop-color="#5A6B83"/>
<stop offset="0.74" stop-color="#ED5409"/>
<stop offset="1" stop-color="#FFCB67"/>
</linearGradient>
<linearGradient id="paint11_linear_4453_553" x1="67.3427" y1="106.213" x2="57.6427" y2="105.811" gradientUnits="userSpaceOnUse">
<stop stop-color="#1A3746"/>
<stop offset="0.24" stop-color="#2B588B"/>
<stop offset="0.37" stop-color="#5A6B83"/>
<stop offset="0.74" stop-color="#ED5409"/>
<stop offset="1" stop-color="#FFCB67"/>
</linearGradient>
<linearGradient id="paint12_linear_4453_553" x1="70.6403" y1="96.8795" x2="62.4679" y2="102.118" gradientUnits="userSpaceOnUse">
<stop stop-color="#1A3746"/>
<stop offset="0.24" stop-color="#2B588B"/>
<stop offset="0.37" stop-color="#5A6B83"/>
<stop offset="0.74" stop-color="#ED5409"/>
<stop offset="1" stop-color="#FFCB67"/>
</linearGradient>
<linearGradient id="paint13_linear_4453_553" x1="74.1356" y1="102.618" x2="65.9631" y2="107.857" gradientUnits="userSpaceOnUse">
<stop stop-color="#1A3746"/>
<stop offset="0.24" stop-color="#2B588B"/>
<stop offset="0.37" stop-color="#5A6B83"/>
<stop offset="0.74" stop-color="#ED5409"/>
<stop offset="1" stop-color="#FFCB67"/>
</linearGradient>
<linearGradient id="paint14_linear_4453_553" x1="84.6605" y1="95.1075" x2="76.488" y2="100.346" gradientUnits="userSpaceOnUse">
<stop stop-color="#1A3746"/>
<stop offset="0.24" stop-color="#2B588B"/>
<stop offset="0.37" stop-color="#5A6B83"/>
<stop offset="0.74" stop-color="#ED5409"/>
<stop offset="1" stop-color="#FFCB67"/>
</linearGradient>
<linearGradient id="paint15_linear_4453_553" x1="90.6715" y1="104.745" x2="81.5128" y2="101.525" gradientUnits="userSpaceOnUse">
<stop stop-color="#1A3746"/>
<stop offset="0.24" stop-color="#2B588B"/>
<stop offset="0.37" stop-color="#5A6B83"/>
<stop offset="0.74" stop-color="#ED5409"/>
<stop offset="1" stop-color="#FFCB67"/>
</linearGradient>
<linearGradient id="paint16_linear_4453_553" x1="99.7887" y1="52.6935" x2="35.7102" y2="74.63" gradientUnits="userSpaceOnUse">
<stop stop-color="#1A3746"/>
<stop offset="0.24" stop-color="#2B588B"/>
<stop offset="0.37" stop-color="#5A6B83"/>
<stop offset="0.74" stop-color="#ED5409"/>
<stop offset="1" stop-color="#FFCB67"/>
</linearGradient>
<linearGradient id="paint17_linear_4453_553" x1="100.248" y1="58.5606" x2="86.5068" y2="61.5326" gradientUnits="userSpaceOnUse">
<stop stop-color="#1A3746"/>
<stop offset="0.24" stop-color="#2B588B"/>
<stop offset="0.37" stop-color="#5A6B83"/>
<stop offset="0.74" stop-color="#ED5409"/>
<stop offset="1" stop-color="#FFCB67"/>
</linearGradient>
<linearGradient id="paint18_linear_4453_553" x1="74.1393" y1="55.4091" x2="57.6571" y2="58.9081" gradientUnits="userSpaceOnUse">
<stop stop-color="#1A3746"/>
<stop offset="0.24" stop-color="#2B588B"/>
<stop offset="0.37" stop-color="#5A6B83"/>
<stop offset="0.74" stop-color="#ED5409"/>
<stop offset="1" stop-color="#FFCB67"/>
</linearGradient>
<linearGradient id="paint19_linear_4453_553" x1="76.1337" y1="67.4765" x2="60.2499" y2="72.5827" gradientUnits="userSpaceOnUse">
<stop stop-color="#1A3746"/>
<stop offset="0.24" stop-color="#2B588B"/>
<stop offset="0.37" stop-color="#5A6B83"/>
<stop offset="0.74" stop-color="#ED5409"/>
<stop offset="1" stop-color="#FFCB67"/>
</linearGradient>
<linearGradient id="paint20_linear_4453_553" x1="78.7301" y1="96.0045" x2="69.3301" y2="98.4317" gradientUnits="userSpaceOnUse">
<stop stop-color="#1A3746"/>
<stop offset="0.24" stop-color="#2B588B"/>
<stop offset="0.37" stop-color="#5A6B83"/>
<stop offset="0.74" stop-color="#ED5409"/>
<stop offset="1" stop-color="#FFCB67"/>
</linearGradient>
<linearGradient id="paint21_linear_4453_553" x1="82.0728" y1="105.773" x2="72.6335" y2="103.508" gradientUnits="userSpaceOnUse">
<stop stop-color="#1A3746"/>
<stop offset="0.24" stop-color="#2B588B"/>
<stop offset="0.37" stop-color="#5A6B83"/>
<stop offset="0.74" stop-color="#ED5409"/>
<stop offset="1" stop-color="#FFCB67"/>
</linearGradient>
<linearGradient id="paint22_linear_4453_553" x1="257.008" y1="15.2739" x2="-6.71256" y2="15.2739" gradientUnits="userSpaceOnUse">
<stop stop-color="#214E81"/>
<stop offset="0.363625" stop-color="#506179"/>
<stop offset="0.651499" stop-color="#ED5409"/>
<stop offset="1" stop-color="#FFCB67"/>
</linearGradient>
<linearGradient id="paint23_linear_4453_553" x1="257.008" y1="15.2739" x2="-6.71256" y2="15.2739" gradientUnits="userSpaceOnUse">
<stop stop-color="#214E81"/>
<stop offset="0.363625" stop-color="#506179"/>
<stop offset="0.651499" stop-color="#ED5409"/>
<stop offset="1" stop-color="#FFCB67"/>
</linearGradient>
<clipPath id="clip0_4453_553">
<rect width="89.6166" height="120.689" fill="white" transform="translate(118.438 19) rotate(15)"/>
</clipPath>
<clipPath id="clip1_4453_553">
<rect width="67.7174" height="91.1969" fill="white" transform="translate(30 47.4473) rotate(-9.38852)"/>
</clipPath>
</defs>
</svg>
