<svg width="175" height="140" viewBox="0 0 175 140" fill="none" xmlns="http://www.w3.org/2000/svg">
<g clip-path="url(#clip0_4246_1679)">
<path d="M101.204 91.1682C102.768 88.0652 101.522 84.2811 98.4174 82.7167C95.3144 81.1527 91.5303 82.3988 89.9659 85.5033C88.4019 88.6063 89.648 92.3904 92.7525 93.9548C95.8555 95.5188 99.6396 94.2726 101.204 91.1682Z" fill="url(#paint0_linear_4246_1679)"/>
<path d="M95.9852 89.9174C93.9557 89.5407 92.1126 89.5529 90.7522 89.9724L90.6926 89.9908C90.8233 90.3366 90.9896 90.6717 91.1926 90.9869L91.2914 90.9447C91.6913 90.7754 92.1037 90.6235 92.5194 90.4944C93.6337 90.1479 94.8088 89.9536 95.9871 89.9163L95.9852 89.9174Z" fill="#141416"/>
<path d="M90.7311 86.3129C90.3381 87.2665 90.266 88.2874 90.4734 89.2505L90.511 89.2387C91.3511 88.9827 92.3394 88.8617 93.4465 88.8804C94.4182 88.8971 95.4769 89.0261 96.5724 89.2572L90.7311 86.3129Z" fill="#141416"/>
<path d="M96.2354 84.353C97.0486 86.681 98.5312 88.6964 100.523 90.1813C101.402 87.7819 100.3 85.0142 97.8814 83.7944C97.2431 83.4719 96.5721 83.289 95.9033 83.2316C95.9958 83.6094 96.1087 83.9864 96.2354 84.353Z" fill="#141416"/>
<path d="M94.0284 83.4743C94.501 84.8176 95.5859 86.3063 97.0952 87.715C96.4257 86.7453 95.8832 85.6862 95.4977 84.5833C95.3546 84.1732 95.2314 83.7529 95.1295 83.3289L95.1045 83.2238C94.7294 83.2482 94.3619 83.3137 94.0071 83.4139L94.027 83.4739L94.0284 83.4743Z" fill="#141416"/>
<path d="M92.7719 91.226C92.4008 91.3405 92.0318 91.4759 91.6728 91.6265C92.1159 92.1295 92.6628 92.5603 93.3014 92.8813C95.7204 94.1012 98.6012 93.3408 100.009 91.2065C97.6304 90.488 95.1264 90.4949 92.7723 91.2245L92.7719 91.226Z" fill="#141416"/>
<path d="M94.7525 86.2903C94.0775 85.4113 93.5878 84.546 93.2943 83.7176L93.281 83.6797C92.3834 84.0858 91.607 84.7509 91.0736 85.6341L96.9135 88.5781C96.0755 87.835 95.3427 87.0607 94.7515 86.2885L94.7525 86.2903Z" fill="#141416"/>
<path d="M110.264 81.808C109.764 78.3691 106.571 75.9861 103.132 76.486C99.6936 76.9858 97.3105 80.1786 97.8104 83.6175C98.3103 87.0564 101.503 89.4395 104.942 88.9396C108.381 88.4397 110.764 85.2469 110.264 81.808Z" fill="url(#paint1_linear_4246_1679)"/>
<path d="M105.273 83.7803C103.395 84.6358 101.893 85.7048 101.021 86.8282L100.982 86.8788C101.288 87.0874 101.617 87.2661 101.963 87.4073L102.021 87.3164C102.25 86.9484 102.502 86.5878 102.767 86.2435C103.482 85.3198 104.331 84.4869 105.275 83.7807L105.273 83.7803Z" fill="#141416"/>
<path d="M98.9032 83.8452C99.13 84.8524 99.6557 85.729 100.377 86.3987L100.401 86.3677C100.943 85.6756 101.682 85.0099 102.6 84.389C103.404 83.8455 104.345 83.3417 105.376 82.9041L98.9032 83.8452Z" fill="#141416"/>
<path d="M102.286 79.08C104.287 80.5189 106.66 81.3185 109.144 81.3922C108.487 78.9219 105.996 77.2892 103.315 77.6781C102.606 77.7803 101.951 78.0156 101.372 78.3524C101.665 78.6073 101.974 78.854 102.288 79.0804L102.286 79.08Z" fill="#141416"/>
<path d="M99.9736 79.6284C101.131 80.457 102.875 81.054 104.919 81.3394C103.814 80.9293 102.762 80.374 101.815 79.6924C101.463 79.4387 101.119 79.1654 100.794 78.8766L100.713 78.805C100.42 79.0405 100.156 79.304 99.9226 79.5914L99.9736 79.6284Z" fill="#141416"/>
<path d="M103.395 86.6964C103.158 87.0031 102.931 87.3265 102.724 87.6538C103.376 87.8112 104.071 87.8492 104.778 87.7466C107.46 87.3576 109.382 85.0815 109.309 82.5255C106.949 83.3019 104.903 84.7452 103.394 86.6946L103.395 86.6964Z" fill="#141416"/>
<path d="M102.183 81.5188C101.126 81.1855 100.228 80.7577 99.5121 80.2486L99.4792 80.2258C98.9771 81.0736 98.7225 82.0644 98.7934 83.0939L105.265 82.1525C104.153 82.0247 103.109 81.8107 102.18 81.518L102.183 81.5188Z" fill="#141416"/>
<path d="M111.346 90.6335C110.847 87.1946 107.654 84.8115 104.215 85.3114C100.776 85.8113 98.3929 89.0041 98.8927 92.443C99.3926 95.8819 102.585 98.2649 106.024 97.765C109.463 97.2652 111.846 94.0724 111.346 90.6335Z" fill="url(#paint2_linear_4246_1679)"/>
<path d="M106.356 92.6058C104.477 93.4612 102.976 94.5302 102.103 95.6537L102.064 95.7042C102.371 95.9129 102.699 96.0915 103.046 96.2327L103.103 96.1418C103.333 95.7739 103.584 95.4133 103.85 95.069C104.564 94.1452 105.414 93.3123 106.357 92.6062L106.356 92.6058Z" fill="#141416"/>
<path d="M99.9855 92.6682C100.212 93.6754 100.738 94.552 101.46 95.2217L101.484 95.1907C102.025 94.4986 102.764 93.8329 103.682 93.212C104.487 92.6685 105.428 92.1647 106.459 91.7271L99.9855 92.6682Z" fill="#141416"/>
<path d="M103.369 87.9054C105.37 89.3443 107.742 90.144 110.226 90.2176C109.57 87.7473 107.079 86.1146 104.397 86.5035C103.689 86.6058 103.034 86.841 102.455 87.1779C102.747 87.4327 103.056 87.6795 103.37 87.9058L103.369 87.9054Z" fill="#141416"/>
<path d="M101.054 88.4522C102.211 89.2808 103.955 89.8777 106 90.1631C104.895 89.753 103.842 89.1977 102.896 88.5161C102.544 88.2624 102.2 87.9891 101.874 87.7004L101.793 87.6288C101.501 87.8643 101.236 88.1277 101.003 88.4151L101.054 88.4522Z" fill="#141416"/>
<path d="M104.475 95.5211C104.239 95.8278 104.011 96.1512 103.805 96.4785C104.456 96.6359 105.152 96.6739 105.859 96.5713C108.54 96.1823 110.462 93.9062 110.39 91.3502C108.029 92.1266 105.984 93.5699 104.474 95.5193L104.475 95.5211Z" fill="#141416"/>
<path d="M103.264 90.3433C102.207 90.01 101.309 89.5821 100.593 89.0731L100.56 89.0502C100.058 89.8981 99.8032 90.8889 99.8741 91.9184L106.346 90.977C105.234 90.8492 104.19 90.6351 103.261 90.3425L103.264 90.3433Z" fill="#141416"/>
<path d="M128.136 87.3307C127.636 83.8918 124.443 81.5088 121.004 82.0087C117.565 82.5085 115.182 85.7013 115.682 89.1402C116.182 92.5791 119.375 94.9622 122.814 94.4623C126.253 93.9624 128.636 90.7696 128.136 87.3307Z" fill="url(#paint3_linear_4246_1679)"/>
<path d="M123.145 89.304C121.267 90.1595 119.765 91.2284 118.892 92.3519L118.854 92.4025C119.16 92.6111 119.489 92.7897 119.835 92.931L119.892 92.8401C120.122 92.4721 120.373 92.1115 120.639 91.7672C121.353 90.8435 122.203 90.0106 123.147 89.3044L123.145 89.304Z" fill="#141416"/>
<path d="M116.773 89.3664C117 90.3737 117.526 91.2502 118.248 91.92L118.271 91.8889C118.813 91.1969 119.552 90.5312 120.47 89.9102C121.275 89.3668 122.215 88.8629 123.246 88.4254L116.773 89.3664Z" fill="#141416"/>
<path d="M120.158 84.6012C122.159 86.0401 124.531 86.8398 127.015 86.9134C126.359 84.4431 123.868 82.8104 121.187 83.1993C120.478 83.3016 119.823 83.5369 119.244 83.8737C119.537 84.1285 119.845 84.3753 120.159 84.6016L120.158 84.6012Z" fill="#141416"/>
<path d="M117.844 85.1497C119.001 85.9783 120.745 86.5752 122.789 86.8607C121.684 86.4505 120.632 85.8952 119.685 85.2136C119.333 84.9599 118.989 84.6866 118.664 84.3979L118.583 84.3263C118.29 84.5618 118.026 84.8252 117.793 85.1126L117.844 85.1497Z" fill="#141416"/>
<path d="M121.265 92.2194C121.028 92.5261 120.801 92.8494 120.594 93.1768C121.246 93.3341 121.942 93.3722 122.648 93.2695C125.33 92.8806 127.252 90.6044 127.179 88.0485C124.819 88.8248 122.773 90.2682 121.264 92.2175L121.265 92.2194Z" fill="#141416"/>
<path d="M120.053 87.0398C118.996 86.7065 118.099 86.2786 117.382 85.7696L117.349 85.7467C116.847 86.5946 116.593 87.5854 116.663 88.6149L123.135 87.6735C122.023 87.5457 120.979 87.3317 120.05 87.039L120.053 87.0398Z" fill="#141416"/>
<path d="M130.154 102.116C132.557 99.6065 132.472 95.6227 129.961 93.2193C127.45 90.8159 123.468 90.9015 121.064 93.4126C118.661 95.9221 118.747 99.9059 121.258 102.309C123.767 104.712 127.751 104.627 130.154 102.116Z" fill="url(#paint4_linear_4246_1679)"/>
<path d="M125.528 99.3958C123.697 98.4413 121.931 97.915 120.508 97.9178L120.445 97.9182C120.47 98.2871 120.53 98.6563 120.633 99.0181L120.741 99.0064C121.173 98.9614 121.611 98.9365 122.047 98.9347C123.215 98.9306 124.394 99.0873 125.531 99.3966L125.528 99.3958Z" fill="#141416"/>
<path d="M121.559 94.4119C120.905 95.2096 120.537 96.1637 120.453 97.1456L120.492 97.1452C121.371 97.1464 122.352 97.3185 123.405 97.6615C124.328 97.9621 125.304 98.3939 126.284 98.9359L121.559 94.4119Z" fill="#141416"/>
<path d="M127.397 94.1472C127.493 96.611 128.323 98.9715 129.793 100.974C131.335 98.9369 131.091 95.9678 129.134 94.0941C128.617 93.5994 128.029 93.2279 127.408 92.9771C127.387 93.365 127.383 93.759 127.398 94.1458L127.397 94.1472Z" fill="#141416"/>
<path d="M125.542 92.6616C125.602 94.0847 126.204 95.8251 127.236 97.6137C126.88 96.4904 126.67 95.3191 126.625 94.1528C126.608 93.7203 126.613 93.2812 126.64 92.8447L126.647 92.7372C126.281 92.6502 125.91 92.6056 125.541 92.5986L125.542 92.6616Z" fill="#141416"/>
<path d="M122.073 99.7055C121.685 99.7077 121.291 99.7271 120.906 99.766C121.183 100.376 121.579 100.948 122.097 101.442C124.053 103.316 127.03 103.431 129.001 101.802C126.936 100.42 124.541 99.6936 122.075 99.7044L122.073 99.7055Z" fill="#141416"/>
<path d="M125.41 95.5659C125.022 94.5281 124.806 93.5565 124.768 92.6794L124.766 92.6399C123.789 92.7669 122.851 93.1749 122.083 93.8639L126.806 98.3875C126.221 97.4328 125.748 96.4766 125.408 95.5655L125.41 95.5659Z" fill="#141416"/>
<path d="M88.0766 93.4103C87.9148 93.367 87.782 93.2392 87.7413 93.0643L76.8692 46.6587C76.8101 46.407 76.9666 46.1553 77.2182 46.0962C77.4714 46.0375 77.7216 46.1936 77.7807 46.4453L88.6529 92.8509C88.712 93.1026 88.5555 93.3543 88.3038 93.4134C88.2256 93.4315 88.148 93.4294 88.0766 93.4103Z" fill="black"/>
<path d="M128.675 104.289C128.604 104.27 128.536 104.233 128.477 104.178C128.289 104.001 128.279 103.705 128.456 103.516L161.074 68.764C161.251 68.5756 161.544 68.5633 161.736 68.743C161.924 68.92 161.934 69.2162 161.757 69.4046L129.139 104.157C129.016 104.287 128.837 104.332 128.675 104.289Z" fill="black"/>
<path d="M162.216 69.0761C161.575 71.469 141.877 68.2886 118.233 61.9532C94.5889 55.6178 75.9255 48.5193 76.5666 46.1265C76.9095 44.847 82.5889 45.1427 91.3814 46.6443C96.6428 47.5387 103.011 48.8732 110.013 50.5558C113.393 51.3647 116.942 52.2672 120.569 53.2391C124.197 54.211 127.707 55.2 131.053 56.1935C137.957 58.2371 144.141 60.2643 149.144 62.1219C157.494 65.2134 162.56 67.797 162.217 69.0765L162.216 69.0761Z" fill="#141416"/>
<path d="M136.236 66.8272C135.997 66.7632 135.846 66.5213 135.901 66.2752C135.956 66.0229 136.205 65.8631 136.457 65.9183C154.296 69.8047 161.447 69.8434 161.764 68.9536C161.767 68.939 161.81 67.3105 148.979 62.559C143.99 60.7082 137.744 58.6614 130.918 56.6403C124.236 54.656 116.624 52.6165 109.902 51.0089C102.98 49.3448 96.5477 47.9945 91.3009 47.1041C77.7989 44.7997 77.0216 46.2315 77.0177 46.246C76.9118 46.8221 80.584 49.7709 98.2452 55.556C98.4908 55.6358 98.6243 55.9012 98.5445 56.1469C98.4631 56.3922 98.1772 56.5264 97.9535 56.4462C87.6209 53.0622 75.4446 48.5032 76.1138 46.0054C76.2849 45.3671 76.7394 43.6709 91.4588 46.1827C96.7249 47.0767 103.179 48.4329 110.12 50.1006C116.858 51.714 124.486 53.7563 131.183 55.7445C138.03 57.771 144.295 59.8248 149.305 61.6825C163.292 66.8626 162.838 68.5589 162.667 69.1972C161.92 71.9835 145.8 68.912 136.257 66.8331C136.25 66.8311 136.243 66.8292 136.236 66.8272Z" fill="black"/>
<path d="M101.562 97.024C101.343 96.9654 101.195 96.7554 101.218 96.5227L106.235 48.608C106.262 48.3511 106.491 48.1643 106.749 48.1928C106.999 48.2161 107.191 48.4487 107.164 48.707L102.149 96.6221C102.122 96.8789 101.891 97.0654 101.635 97.0373C101.61 97.0354 101.585 97.0302 101.562 97.024Z" fill="black"/>
<path d="M162.223 69.0713C162.565 67.7948 157.497 65.2093 149.143 62.118C144.14 60.2604 137.956 58.2285 131.051 56.1849C127.701 55.1964 124.194 54.2053 120.568 53.2338C116.943 52.2623 113.399 51.3643 110.014 50.548C103.013 48.8658 96.6417 47.5334 91.38 46.6405C82.5879 45.1374 76.907 44.8413 76.5645 46.1193C76.9874 44.5411 77.4738 43.0174 78.0312 41.5143C80.1803 35.7613 83.283 30.6403 87.1196 26.2954C92.1235 20.5843 98.3456 16.2085 105.19 13.5614C113.433 10.3582 122.602 9.63812 131.604 12.0501C143.617 15.2691 153.075 23.4464 158.573 34.0115C163.906 44.2353 165.538 56.6962 162.223 69.0699L162.223 69.0713Z" fill="#FE515E"/>
<path d="M162.223 69.0713C162.565 67.7948 157.497 65.2093 149.143 62.118C144.14 60.2604 137.956 58.2285 131.051 56.1849C127.701 55.1964 124.194 54.2053 120.568 53.2338C116.943 52.2623 113.399 51.3643 110.014 50.548C103.013 48.8658 96.6417 47.5334 91.38 46.6405C82.5879 45.1374 76.907 44.8413 76.5645 46.1193C76.9874 44.5411 77.4738 43.0174 78.0312 41.5143C80.1803 35.7613 83.283 30.6403 87.1196 26.2954C92.1235 20.5843 98.3456 16.2085 105.19 13.5614C113.433 10.3582 122.602 9.63812 131.604 12.0501C143.617 15.2691 153.075 23.4464 158.573 34.0115C163.906 44.2353 165.538 56.6962 162.223 69.0699L162.223 69.0713Z" fill="url(#paint5_linear_4246_1679)"/>
<path d="M103.677 16.6945C102.404 17.3482 100.73 16.9903 99.5977 17.8489C98.4303 18.7372 98.2594 20.6281 96.9529 21.2605C96.4187 21.5172 95.8143 21.5114 95.265 21.725C94.4032 22.0501 93.8199 22.8747 93.4483 23.731C93.0799 24.5757 92.8742 25.4889 92.4464 26.3161C92.0334 27.1348 91.3237 27.9005 90.4179 28.0576C89.4015 28.2367 88.4094 27.6491 87.6782 26.9097C87.485 26.7157 87.2948 26.5102 87.1199 26.2946C92.1238 20.5835 98.3459 16.2077 105.19 13.5606C105.324 14.7976 104.779 16.1102 103.679 16.6948L103.677 16.6945Z" fill="#FFECD4"/>
<path d="M89.3145 33.4391C87.7683 33.0248 86.5125 31.9933 85.404 31.0824C85.1485 30.8641 84.8922 30.6548 84.6363 30.4441L84.1119 30.0115C83.9141 29.8461 83.8868 29.5514 84.0527 29.3521C84.2185 29.1529 84.5153 29.1294 84.712 29.293L85.2315 29.7211C85.4914 29.9344 85.7513 30.1478 86.0056 30.3643C87.0438 31.2173 88.2053 32.1517 89.6007 32.5459C90.7665 32.8583 92.3555 32.5937 93.0124 31.4889C93.3617 30.9078 93.4312 30.1939 93.5025 29.4383L93.5542 28.9305C93.7319 27.5505 94.2328 26.6195 95.0427 26.1618C95.735 25.7756 96.4823 25.8135 97.2071 25.8483C97.7665 25.8764 98.2938 25.9021 98.7359 25.7269C99.7618 25.3083 100.111 23.8808 100.285 22.8433C100.491 21.6069 100.771 19.9139 102.117 19.1139C102.814 18.6978 103.589 18.6556 104.337 18.6154C104.817 18.5895 105.271 18.5642 105.685 18.4442C107.325 17.9605 108.11 16.0059 108.037 14.3261C108.022 13.7754 107.922 13.238 107.736 12.6756C107.706 12.5881 107.704 12.4954 107.728 12.4065C107.795 12.1574 108.053 12.0032 108.302 12.07C108.487 12.1196 108.619 12.2704 108.645 12.4461C108.847 13.0735 108.954 13.6769 108.972 14.2924C109.06 16.3293 108.051 18.7218 105.948 19.3422C105.429 19.4924 104.9 19.5222 104.388 19.5491C103.723 19.5848 103.095 19.6196 102.596 19.9172C101.699 20.4514 101.428 21.6783 101.207 22.9967C100.997 24.2554 100.547 25.9968 99.0862 26.5939C98.4518 26.8457 97.7965 26.8138 97.1614 26.7826C96.542 26.7509 95.9576 26.7225 95.5021 26.9768C94.9645 27.281 94.6206 27.9761 94.4833 29.042L94.4331 29.5268C94.3537 30.3536 94.2716 31.2078 93.8134 31.9675C92.9054 33.497 90.8643 33.8341 89.3163 33.4381L89.3145 33.4391Z" fill="#FFECD4"/>
<path d="M162.223 69.0715C162.565 67.795 157.498 65.2095 149.143 62.1182C150.685 55.1577 151.139 48.357 150.629 42.1118C153.723 41.5069 156.439 38.9814 157.796 36.0385C158.105 35.3714 158.36 34.7042 158.572 34.0128C163.904 44.2366 165.537 56.6975 162.221 69.0711L162.223 69.0715Z" fill="#F83B4D"/>
<path d="M162.223 69.0715C162.565 67.795 157.498 65.2095 149.143 62.1182C150.685 55.1577 151.139 48.357 150.629 42.1118C153.723 41.5069 156.439 38.9814 157.796 36.0385C158.105 35.3714 158.36 34.7042 158.572 34.0128C163.904 44.2366 165.537 56.6975 162.221 69.0711L162.223 69.0715Z" fill="url(#paint6_linear_4246_1679)"/>
<path d="M149.142 62.1185C144.139 60.2609 137.955 58.229 131.051 56.1854C127.7 55.1969 124.194 54.2058 120.568 53.2343C116.942 52.2628 113.398 51.3648 110.014 50.5485C103.013 48.8663 96.6411 47.5338 91.3794 46.641C91.9774 44.7473 92.6401 42.8975 93.376 41.1189C101.579 20.9114 117.54 8.28249 131.603 12.0506C142.46 14.9596 149.401 26.892 150.63 42.1124C151.138 48.3573 150.686 55.1583 149.144 62.1189L149.142 62.1185Z" fill="#1E1E20"/>
<path d="M149.143 62.1184C144.14 60.2608 137.956 58.2289 131.052 56.1852C132.144 51.725 133.039 47.4199 133.739 43.3575C135.429 41.7706 137.095 40.1364 139.297 39.8236C142.425 39.3825 145.233 41.814 148.371 42.2035C149.131 42.3041 149.892 42.2627 150.629 42.1119C151.137 48.3568 150.685 55.1578 149.143 62.1184Z" fill="#282828"/>
<path d="M112.843 41.6216C111.86 44.4709 110.908 47.4444 110.013 50.5484C103.012 48.8662 96.64 47.5337 91.3782 46.6409C91.9762 44.7472 92.639 42.8974 93.3748 41.1188C94.7881 40.904 96.2177 40.8732 97.6133 41.2081C100.244 41.8488 102.543 43.7301 105.233 43.8573C107.885 43.9868 110.313 42.39 112.845 41.622L112.843 41.6216Z" fill="#282828"/>
<path d="M131.051 56.1869C127.7 55.1984 124.194 54.2073 120.568 53.2358C116.943 52.2644 113.399 51.3663 110.014 50.55C110.91 47.4446 111.863 44.4714 112.845 41.6232C119.163 23.2973 126.831 10.7718 131.604 12.0506C136.062 13.2451 136.686 26.1465 133.74 43.3595C133.04 47.4201 132.143 51.7267 131.053 56.1873L131.051 56.1869Z" fill="#FE515E"/>
<path d="M131.051 56.1869C127.7 55.1984 124.194 54.2073 120.568 53.2358C116.943 52.2644 113.399 51.3663 110.014 50.55C110.91 47.4446 111.863 44.4714 112.845 41.6232C119.163 23.2973 126.831 10.7718 131.604 12.0506C136.062 13.2451 136.686 26.1465 133.74 43.3595C133.04 47.4201 132.143 51.7267 131.053 56.1873L131.051 56.1869Z" fill="url(#paint7_linear_4246_1679)"/>
<path d="M131.051 56.1866C127.701 55.1982 124.194 54.2071 120.568 53.2356C116.943 52.2641 113.399 51.3661 110.014 50.5498C110.911 47.4443 111.863 44.4712 112.845 41.623C113.776 41.3305 114.727 41.1587 115.69 41.2233C120.403 41.5177 123.811 47.2086 128.5 46.5797C130.577 46.2978 132.166 44.8508 133.74 43.3607C133.039 47.4213 132.143 51.7278 131.053 56.1885L131.051 56.1866Z" fill="#F83B4D"/>
<path d="M131.051 56.1866C127.701 55.1982 124.194 54.2071 120.568 53.2356C116.943 52.2641 113.399 51.3661 110.014 50.5498C110.911 47.4443 111.863 44.4712 112.845 41.623C113.776 41.3305 114.727 41.1587 115.69 41.2233C120.403 41.5177 123.811 47.2086 128.5 46.5797C130.577 46.2978 132.166 44.8508 133.74 43.3607C133.039 47.4213 132.143 51.7278 131.053 56.1885L131.051 56.1866Z" fill="url(#paint8_linear_4246_1679)"/>
<path d="M162.102 69.5239C161.853 69.4571 161.704 69.2003 161.771 68.9511C161.775 68.935 161.817 67.3061 148.982 62.5582C143.97 60.6982 137.725 58.6499 130.921 56.6347C123.918 54.5693 116.951 52.7042 109.905 51.0037C103.007 49.3459 96.5729 47.9966 91.302 47.1029C77.7996 44.7938 77.021 46.2251 77.0167 46.2412C76.9499 46.4904 76.6931 46.6386 76.4439 46.5719C76.1947 46.5051 76.0464 46.2483 76.1132 45.9991L76.1155 45.9903C76.5423 44.3975 77.0253 42.8807 77.5926 41.3521C86.1474 18.4136 109.419 5.62213 131.725 11.5991C139.052 13.5624 145.76 17.4856 151.125 22.9419C151.306 23.1261 151.304 23.4225 151.12 23.6042C150.936 23.7844 150.639 23.7831 150.458 23.5985C145.209 18.2595 138.648 14.4226 131.483 12.5026C109.646 6.65136 86.8534 19.1947 78.4687 41.679C78.0524 42.8014 77.6815 43.9172 77.3465 45.0628C78.9273 44.6774 82.6218 44.6692 91.4584 46.1811C96.7497 47.0803 103.203 48.4332 110.124 50.0954C117.187 51.8006 124.166 53.6706 131.184 55.7385C138.009 57.7592 144.275 59.8148 149.306 61.6813C157.703 64.7872 160.898 66.6415 162.073 67.7653C163.198 63.1201 163.648 58.3849 163.409 53.6742C163.397 53.4164 163.595 53.1961 163.853 53.184C164.109 53.1715 164.331 53.3699 164.343 53.6277C164.607 58.8354 164.047 64.0709 162.676 69.1873L162.674 69.1961C162.607 69.4453 162.35 69.5936 162.101 69.5268L162.102 69.5239Z" fill="black"/>
<path d="M130.221 47.2473C129.397 47.0267 128.541 47.2219 127.836 47.7202C127.121 48.2176 126.551 49.0051 126.29 49.9785C126.812 48.0316 125.907 46.0915 124.262 45.6506C125.085 45.8713 125.932 45.6732 126.644 45.1879C127.35 44.6881 127.92 43.9007 128.181 42.9272C127.92 43.9007 128.02 44.8678 128.39 45.6557C128.755 46.4296 129.399 47.0271 130.222 47.2477L130.221 47.2473Z" fill="#FFECD4"/>
<path d="M126.901 19.4613C127.688 19.9064 127.227 22.1976 126.146 24.7115C125.054 27.2193 123.698 29.124 122.835 28.8551C121.985 28.5931 121.997 26.1066 123.165 23.4207C124.324 20.731 126.127 19.0212 126.901 19.4613Z" fill="#FFECD4"/>
<path d="M129.237 15.5624C129.566 15.7802 129.44 16.5381 128.989 17.2749C128.536 18.0109 127.911 18.4604 127.572 18.2666C127.232 18.0724 127.316 17.2888 127.783 16.5315C128.247 15.7719 128.914 15.3476 129.236 15.562L129.237 15.5624Z" fill="#FFECD4"/>
<path d="M120.494 85.1272C121.091 81.7042 118.802 78.4434 115.378 77.846C111.953 77.2486 108.694 79.5381 108.097 82.9626C107.5 86.3856 109.789 89.6464 113.213 90.2438C116.636 90.8408 119.897 88.5516 120.494 85.1272Z" fill="url(#paint9_linear_4246_1679)"/>
<path d="M115.138 85.4442C113.085 85.6721 111.325 86.2189 110.146 87.0133L110.094 87.0494C110.32 87.3426 110.577 87.6145 110.861 87.8579L110.944 87.7894C111.278 87.5103 111.628 87.2465 111.989 87.0026C112.956 86.348 114.023 85.8218 115.139 85.4446L115.138 85.4442Z" fill="#141416"/>
<path d="M109.066 83.5169C108.967 84.5446 109.192 85.5405 109.67 86.4027L109.703 86.3802C110.433 85.8919 111.343 85.4889 112.409 85.1873C113.344 84.9224 114.394 84.7369 115.51 84.6423L109.066 83.5169Z" fill="#141416"/>
<path d="M113.768 80.0463C115.221 82.0381 117.224 83.5386 119.561 84.3819C119.708 81.83 117.851 79.502 115.182 79.0351C114.478 78.912 113.782 78.9318 113.125 79.0697C113.323 79.4039 113.539 79.7336 113.768 80.0463Z" fill="#141416"/>
<path d="M111.399 79.8456C112.24 80.9943 113.711 82.1052 115.563 83.0154C114.641 82.2811 113.815 81.4255 113.127 80.4822C112.871 80.1324 112.631 79.765 112.412 79.3877L112.357 79.2949C112.006 79.4273 111.672 79.5955 111.361 79.7949L111.397 79.8452L111.399 79.8456Z" fill="#141416"/>
<path d="M112.443 87.6267C112.122 87.8439 111.806 88.0808 111.507 88.3272C112.076 88.6797 112.725 88.9332 113.43 89.0563C116.099 89.5232 118.634 87.9596 119.363 85.509C116.877 85.5114 114.483 86.243 112.442 87.6249L112.443 87.6267Z" fill="#141416"/>
<path d="M112.908 82.3301C112.008 81.6844 111.288 80.9978 110.767 80.2897L110.744 80.2585C110.003 80.9081 109.452 81.7694 109.196 82.7693L115.639 83.8944C114.623 83.4268 113.696 82.8974 112.906 82.3297L112.908 82.3301Z" fill="#141416"/>
<path d="M119.218 98.6755C121.352 95.9331 120.859 91.979 118.115 89.8444C115.372 87.7101 111.418 88.2031 109.284 90.947C107.149 93.6895 107.642 97.6435 110.386 99.7782C113.129 101.912 117.083 101.419 119.218 98.6755Z" fill="url(#paint10_linear_4246_1679)"/>
<path d="M114.339 96.4424C112.421 95.68 110.61 95.3385 109.195 95.4856L109.132 95.4922C109.194 95.857 109.292 96.2177 109.431 96.5673L109.537 96.5457C109.962 96.4566 110.396 96.387 110.829 96.3405C111.99 96.2159 113.18 96.252 114.342 96.4432L114.339 96.4424Z" fill="#141416"/>
<path d="M109.88 91.8916C109.311 92.7526 109.043 93.7384 109.06 94.7239L109.099 94.7201C109.974 94.6313 110.965 94.7032 112.049 94.9359C112.999 95.1403 114.013 95.4699 115.043 95.9099L109.88 91.893L109.88 91.8916Z" fill="#141416"/>
<path d="M115.661 91.0317C116.01 93.4726 117.075 95.7368 118.744 97.5789C120.07 95.3945 119.524 92.4664 117.384 90.803C116.819 90.3642 116.197 90.0537 115.553 89.8687C115.571 90.2561 115.608 90.6487 115.663 91.0321L115.661 91.0317Z" fill="#141416"/>
<path d="M113.663 89.7436C113.867 91.1523 114.645 92.8228 115.854 94.4961C115.385 93.4145 115.057 92.2723 114.892 91.1161C114.83 90.6872 114.79 90.25 114.772 89.8142L114.768 89.7069C114.395 89.6585 114.022 89.6508 113.653 89.6815L113.662 89.7432L113.663 89.7436Z" fill="#141416"/>
<path d="M110.934 97.1061C110.548 97.1479 110.159 97.2076 109.778 97.2869C110.116 97.8645 110.57 98.394 111.135 98.8328C113.273 100.496 116.246 100.307 118.039 98.4834C115.844 97.319 113.387 96.8433 110.935 97.1047L110.934 97.1061Z" fill="#141416"/>
<path d="M113.83 92.6465C113.338 91.6542 113.024 90.7095 112.896 89.8411L112.891 89.8022C111.932 90.028 111.042 90.5298 110.347 91.2932L115.509 95.3097C114.831 94.4189 114.261 93.5182 113.83 92.6451L113.83 92.6465Z" fill="#141416"/>
<path d="M114.701 100.543C114.677 100.537 114.653 100.529 114.631 100.518C114.395 100.413 114.288 100.136 114.393 99.9016L134.007 55.8982C134.113 55.661 134.397 55.5574 134.624 55.6604C134.86 55.7658 134.966 56.0428 134.862 56.2771L115.249 100.281C115.154 100.494 114.919 100.602 114.701 100.543Z" fill="black"/>
<path d="M131.311 104.375L124.777 128.762C124.028 131.557 121.153 133.228 118.345 132.476L82.859 122.968C80.064 122.219 78.4083 119.334 79.1572 116.539L85.6918 92.1514L131.31 104.375L131.311 104.375Z" fill="#141416"/>
<path d="M131.311 104.375L124.777 128.762C124.028 131.557 121.153 133.228 118.345 132.476L82.859 122.968C80.064 122.219 78.4083 119.334 79.1572 116.539L85.6918 92.1514L131.31 104.375L131.311 104.375Z" fill="#FFCB67" fill-opacity="0.9"/>
<path d="M96.314 98.2016C94.9717 98.8744 93.1204 98.4564 92.082 99.5339C91.6875 99.9452 91.4996 100.501 91.238 100.999C90.9849 101.512 90.5946 102.001 90.0357 102.111C89.3916 102.248 88.7363 101.802 88.0902 101.899C87.0832 102.043 86.706 103.259 86.1525 104.118C85.4465 105.208 84.1685 105.885 82.886 105.851C82.6048 105.839 82.3182 105.802 82.053 105.731L85.6918 92.1504L97.9823 95.4436C97.8973 96.5829 97.3306 97.6837 96.3144 98.2002L96.314 98.2016Z" fill="#FE9A4C"/>
<path d="M81.9579 112.421C81.4114 112.275 80.8596 112.032 80.3181 111.698C80.0983 111.562 80.0303 111.274 80.1657 111.054C80.3012 110.834 80.59 110.764 80.8094 110.901C81.7073 111.456 82.6135 111.711 83.4327 111.639C84.4916 111.54 85.4271 110.858 85.7024 109.982C85.7782 109.74 85.8162 109.482 85.8557 109.223C85.9515 108.598 86.06 107.89 86.6342 107.414C87.303 106.876 88.2864 106.896 89.4143 107.461L89.6487 107.577C90.257 107.877 90.8319 108.162 91.3556 108.033C92.2021 107.811 92.5033 106.635 92.6052 105.689C92.7241 104.563 92.8876 103.02 94.0936 102.337C94.8407 101.916 95.7789 101.941 96.9509 102.411C97.1279 102.485 97.2964 102.562 97.4664 102.638C98.0522 102.9 98.6065 103.152 99.1788 103.172C100.482 103.228 101.568 102.071 101.97 100.898C102.383 99.6543 102.296 98.3409 102.139 96.754C102.137 96.7474 102.137 96.7426 102.135 96.7374C102.087 96.5372 102.176 96.322 102.367 96.2184C102.594 96.0934 102.877 96.1787 103.001 96.404C103.026 96.4498 103.045 96.5141 103.056 96.5718C103.061 96.5935 103.065 96.6147 103.067 96.6356C103.202 97.9806 103.369 99.6529 102.857 101.196C102.359 102.654 100.985 104.185 99.1422 104.107C98.39 104.076 97.7275 103.78 97.085 103.49C96.9233 103.417 96.7617 103.344 96.6 103.278C95.7097 102.922 95.04 102.88 94.5564 103.152C93.8289 103.564 93.6649 104.59 93.5389 105.789C93.2948 108.035 92.3445 108.743 91.5903 108.94C90.7299 109.155 89.9369 108.763 89.2375 108.418L89.0027 108.303C88.6329 108.115 87.7336 107.735 87.2283 108.14C86.9329 108.386 86.8645 108.839 86.7828 109.366C86.7356 109.67 86.6873 109.979 86.5968 110.264C86.2055 111.509 84.9698 112.436 83.5187 112.571C83.0148 112.615 82.4898 112.564 81.9608 112.422L81.9579 112.421Z" fill="#FFECD4"/>
<path d="M129.891 109.677L124.777 128.763C124.028 131.558 121.153 133.229 118.345 132.476L82.8588 122.968C80.0638 122.219 78.408 119.334 79.157 116.539L79.1636 116.514C81.1121 119.076 84.9324 120.242 87.8818 118.824C90.371 117.631 92.213 114.947 94.9809 114.696C97.6566 114.444 99.8689 116.599 101.829 118.442C103.785 120.297 106.472 122.128 108.964 121.116C110.697 120.431 111.648 118.619 112.573 116.995C113.496 115.382 114.768 113.67 116.62 113.456C119.191 113.164 121.426 115.957 123.975 115.505C125.735 115.202 126.829 113.48 127.81 111.987C128.372 111.143 129.061 110.256 129.888 109.676L129.891 109.677Z" fill="#141416"/>
<path d="M129.891 109.677L124.777 128.763C124.028 131.558 121.153 133.229 118.345 132.476L82.8588 122.968C80.0638 122.219 78.408 119.334 79.157 116.539L79.1636 116.514C81.1121 119.076 84.9324 120.242 87.8818 118.824C90.371 117.631 92.213 114.947 94.9809 114.696C97.6566 114.444 99.8689 116.599 101.829 118.442C103.785 120.297 106.472 122.128 108.964 121.116C110.697 120.431 111.648 118.619 112.573 116.995C113.496 115.382 114.768 113.67 116.62 113.456C119.191 113.164 121.426 115.957 123.975 115.505C125.735 115.202 126.829 113.48 127.81 111.987C128.372 111.143 129.061 110.256 129.888 109.676L129.891 109.677Z" fill="#FE9A4C" fill-opacity="0.5"/>
<path d="M106.588 129.81L82.7384 123.42C79.6986 122.605 77.8898 119.464 78.7059 116.418L85.2405 92.0309C85.3072 91.7817 85.5641 91.6334 85.8133 91.7001L131.431 103.924C131.681 103.99 131.829 104.247 131.762 104.496L127.105 121.877C127.038 122.126 126.781 122.275 126.532 122.208C126.283 122.141 126.135 121.884 126.202 121.635L130.738 104.706L86.0229 92.7247L79.6094 116.66C78.9265 119.209 80.4391 121.835 82.9805 122.516L106.83 128.907C107.079 128.974 107.228 129.23 107.161 129.48C107.094 129.729 106.837 129.877 106.588 129.81Z" fill="black"/>
<path d="M129.789 108.242L85.076 96.2615C83.1451 95.7441 81.9994 93.7596 82.5168 91.8288C83.0342 89.8979 85.0186 88.7521 86.9495 89.2695L131.663 101.25C133.594 101.768 134.739 103.752 134.222 105.683C133.705 107.614 131.72 108.76 129.789 108.242Z" fill="#FFECD4"/>
<path d="M115.302 117.957C114.478 117.736 113.622 117.931 112.917 118.429C112.202 118.927 111.632 119.714 111.371 120.688C111.893 118.741 110.988 116.801 109.343 116.36C110.166 116.58 111.013 116.382 111.726 115.897C112.431 115.397 113.001 114.61 113.262 113.636C113.001 114.61 113.101 115.577 113.471 116.365C113.836 117.139 114.48 117.736 115.303 117.957L115.302 117.957Z" fill="#FFECD4"/>
<path d="M117.51 113.513C117.137 113.413 116.748 113.501 116.426 113.729C116.102 113.954 115.843 114.313 115.725 114.754C115.962 113.87 115.551 112.988 114.804 112.788C115.177 112.888 115.563 112.799 115.886 112.578C116.206 112.352 116.466 111.993 116.584 111.552C116.466 111.995 116.511 112.433 116.679 112.791C116.844 113.143 117.137 113.413 117.511 113.514L117.51 113.513Z" fill="#FFECD4"/>
<path d="M110.982 106.235C110.7 107.088 108.57 107.182 106.1 106.655C103.622 106.12 101.682 105.04 101.852 104.151C102.019 103.278 104.211 102.925 106.794 103.481C109.387 104.034 111.266 105.384 110.984 106.234L110.982 106.235Z" fill="#FFECD4"/>
<path d="M114.877 107.679C114.712 108.039 114.008 108.061 113.278 107.781C112.55 107.497 112.048 106.992 112.172 106.623C112.297 106.25 113.026 106.163 113.793 106.462C114.56 106.757 115.037 107.328 114.875 107.678L114.877 107.679Z" fill="#FFECD4"/>
</g>
<g clip-path="url(#clip1_4246_1679)">
<path d="M37.2335 87.2073C37.3416 84.5838 35.3033 82.3684 32.6787 82.2604C30.0552 82.1523 27.8398 84.1906 27.7318 86.8152C27.6237 89.4387 29.662 91.6541 32.2866 91.7621C34.9101 91.8702 37.1255 89.832 37.2335 87.2073Z" fill="url(#paint11_linear_4246_1679)"/>
<path d="M33.2514 87.9758C31.7371 88.3498 30.4724 88.9333 29.6671 89.6465L29.6319 89.6778C29.8297 89.875 30.0487 90.0537 30.2868 90.2073L30.3416 90.1474C30.564 89.9061 30.8004 89.6729 31.0462 89.4543C31.705 88.8682 32.453 88.3678 33.2523 87.9745L33.2514 87.9758Z" fill="#141416"/>
<path d="M28.5103 87.1341C28.5374 87.913 28.8064 88.6381 29.2496 89.2362L29.2717 89.2163C29.7701 88.7781 30.4125 88.3864 31.1802 88.0538C31.8541 87.7621 32.623 87.5206 33.449 87.3378L28.5103 87.1341Z" fill="#141416"/>
<path d="M31.6877 84.0676C32.9737 85.416 34.6229 86.3404 36.457 86.7409C36.3131 84.8154 34.6915 83.2543 32.6462 83.1696C32.1062 83.1468 31.5874 83.2303 31.1092 83.3995C31.2907 83.6306 31.4861 83.8548 31.6877 84.0676Z" fill="#141416"/>
<path d="M29.8951 84.1514C30.6395 84.9284 31.8506 85.6144 33.3288 86.113C32.5655 85.6545 31.8618 85.0949 31.2524 84.4562C31.0259 84.2186 30.8099 83.9678 30.6075 83.7078L30.5575 83.6432C30.307 83.7771 30.0746 83.9368 29.8616 84.1165L29.894 84.1516L29.8951 84.1514Z" fill="#141416"/>
<path d="M31.4487 89.8791C31.229 90.0737 31.0173 90.282 30.8173 90.4977C31.2792 90.7055 31.7899 90.8314 32.3296 90.8531C34.375 90.9378 36.1204 89.5157 36.423 87.6076C34.5621 87.8552 32.841 88.6413 31.4486 89.8779L31.4487 89.8791Z" fill="#141416"/>
<path d="M31.271 85.8638C30.5321 85.4695 29.9251 85.0268 29.4647 84.5483L29.4437 84.5263C28.9527 85.0859 28.6259 85.7858 28.5344 86.5601L33.4719 86.764C32.6634 86.5141 31.9175 86.2099 31.2697 85.8629L31.271 85.8638Z" fill="#141416"/>
<path d="M40.5488 77.9365C39.1318 75.7258 36.191 75.082 33.9803 76.499C31.7696 77.916 31.1257 80.8569 32.5428 83.0676C33.9598 85.2783 36.9006 85.9221 39.1113 84.5051C41.322 83.0881 41.9658 80.1472 40.5488 77.9365Z" fill="url(#paint12_linear_4246_1679)"/>
<path d="M37.7295 80.8511C36.7036 82.026 36.0037 83.2302 35.7537 84.2756L35.743 84.3225C36.019 84.3704 36.3008 84.3908 36.5832 84.38L36.5942 84.2996C36.6376 83.9746 36.698 83.6481 36.7733 83.3282C36.9768 82.4696 37.3016 81.6313 37.7307 80.8509L37.7295 80.8511Z" fill="#141416"/>
<path d="M33.3649 82.8835C33.8352 83.5059 34.4706 83.9451 35.1762 84.1808L35.183 84.152C35.3398 83.5067 35.6407 82.818 36.0785 82.1043C36.4628 81.4792 36.9531 80.8389 37.5261 80.2161L33.3649 82.8835Z" fill="#141416"/>
<path d="M34.2071 78.5488C36.0332 78.9148 37.9153 78.7249 39.6478 78.0005C38.4253 76.5052 36.2015 76.1588 34.4776 77.2631C34.022 77.5545 33.6446 77.9208 33.3511 78.3333C33.632 78.4175 33.9214 78.4909 34.2083 78.5486L34.2071 78.5488Z" fill="#141416"/>
<path d="M32.7851 79.648C33.8399 79.8572 35.2264 79.7239 36.7226 79.2824C35.8339 79.3449 34.9365 79.2911 34.0723 79.1174C33.7508 79.0527 33.4289 78.9719 33.1148 78.8748L33.0368 78.8507C32.9089 79.1041 32.8092 79.3678 32.7384 79.6384L32.7851 79.648Z" fill="#141416"/>
<path d="M37.3453 83.4442C37.278 83.7292 37.2226 84.0226 37.1826 84.3123C37.68 84.2174 38.1707 84.0265 38.6252 83.7353C40.3491 82.631 40.9616 80.4649 40.1141 78.7285C38.7319 79.9993 37.7746 81.6308 37.344 83.4433L37.3453 83.4442Z" fill="#141416"/>
<path d="M34.8953 80.2591C34.0638 80.3596 33.3127 80.3451 32.6608 80.2183L32.6311 80.2129C32.5501 80.953 32.684 81.7143 33.054 82.4007L37.2142 79.7335C36.4089 79.9926 35.6238 80.171 34.8931 80.2594L34.8953 80.2591Z" fill="#141416"/>
<path d="M44.0443 83.6745C42.6273 81.4638 39.6865 80.82 37.4758 82.237C35.2651 83.654 34.6213 86.5949 36.0383 88.8056C37.4553 91.0163 40.3961 91.6601 42.6068 90.2431C44.8175 88.8261 45.4613 85.8852 44.0443 83.6745Z" fill="url(#paint13_linear_4246_1679)"/>
<path d="M41.225 86.5891C40.1991 87.764 39.4993 88.9682 39.2492 90.0137L39.2385 90.0605C39.5145 90.1085 39.7963 90.1289 40.0788 90.118L40.0897 90.0376C40.1331 89.7127 40.1935 89.3861 40.2688 89.0663C40.4724 88.2076 40.7971 87.3693 41.2262 86.5889L41.225 86.5891Z" fill="#141416"/>
<path d="M36.8604 88.6198C37.3307 89.2422 37.9661 89.6814 38.6718 89.9172L38.6785 89.8883C38.8353 89.2431 39.1362 88.5543 39.574 87.8406C39.9583 87.2155 40.4486 86.5752 41.0216 85.9524L36.8604 88.6198Z" fill="#141416"/>
<path d="M37.7027 84.2861C39.5287 84.6521 41.4108 84.4622 43.1433 83.7378C41.9208 82.2425 39.697 81.8962 37.9731 83.0004C37.5175 83.2918 37.1401 83.6581 36.8466 84.0706C37.1275 84.1548 37.4169 84.2282 37.7038 84.2859L37.7027 84.2861Z" fill="#141416"/>
<path d="M36.2822 85.3843C37.3371 85.5935 38.7236 85.4602 40.2197 85.0187C39.3311 85.0813 38.4336 85.0274 37.5695 84.8537C37.248 84.789 36.9261 84.7082 36.6119 84.6111L36.534 84.587C36.406 84.8404 36.3064 85.1042 36.2356 85.3747L36.2822 85.3843Z" fill="#141416"/>
<path d="M40.8409 89.182C40.7736 89.467 40.7181 89.7604 40.6782 90.0501C41.1755 89.9552 41.6662 89.7643 42.1207 89.473C43.8447 88.3688 44.4571 86.2027 43.6096 84.4663C42.2275 85.7371 41.2701 87.3686 40.8395 89.1811L40.8409 89.182Z" fill="#141416"/>
<path d="M38.3925 85.9969C37.561 86.0974 36.8099 86.0829 36.158 85.9561L36.1282 85.9506C36.0472 86.6908 36.1812 87.4521 36.5512 88.1385L40.7113 85.4713C39.906 85.7304 39.1209 85.9088 38.3903 85.9972L38.3925 85.9969Z" fill="#141416"/>
<path d="M54.5685 76.1636C53.1515 73.9528 50.2107 73.309 48 74.726C45.7893 76.1431 45.1455 79.0839 46.5625 81.2946C47.9795 83.5053 50.9203 84.1491 53.131 82.7321C55.3417 81.3151 55.9855 78.3743 54.5685 76.1636Z" fill="url(#paint14_linear_4246_1679)"/>
<path d="M51.7509 79.0774C50.725 80.2523 50.0251 81.4565 49.7751 82.5019L49.7643 82.5488C50.0403 82.5967 50.3222 82.6172 50.6046 82.6063L50.6156 82.5259C50.6589 82.201 50.7193 81.8744 50.7947 81.5546C50.9982 80.6959 51.323 79.8576 51.752 79.0772L51.7509 79.0774Z" fill="#141416"/>
<path d="M47.3846 81.1088C47.8549 81.7312 48.4903 82.1704 49.196 82.4062L49.2027 82.3773C49.3595 81.7321 49.6604 81.0433 50.0982 80.3296C50.4825 79.7045 50.9728 79.0642 51.5458 78.4414L47.3846 81.1088Z" fill="#141416"/>
<path d="M48.2269 76.7742C50.0529 77.1401 51.935 76.9502 53.6675 76.2259C52.445 74.7306 50.2212 74.3842 48.4973 75.4885C48.0417 75.7799 47.6643 76.1462 47.3708 76.5587C47.6517 76.6428 47.9411 76.7163 48.228 76.774L48.2269 76.7742Z" fill="#141416"/>
<path d="M46.8064 77.8733C47.8613 78.0825 49.2478 77.9492 50.7439 77.5077C49.8553 77.5703 48.9578 77.5165 48.0937 77.3427C47.7722 77.278 47.4503 77.1972 47.1361 77.1001L47.0582 77.076C46.9302 77.3294 46.8306 77.5932 46.7598 77.8637L46.8064 77.8733Z" fill="#141416"/>
<path d="M51.3667 81.671C51.2994 81.956 51.2439 82.2494 51.204 82.5391C51.7013 82.4442 52.1921 82.2533 52.6465 81.9621C54.3705 80.8578 54.9829 78.6917 54.1354 76.9553C52.7533 78.2261 51.7959 79.8576 51.3654 81.6701L51.3667 81.671Z" fill="#141416"/>
<path d="M48.9167 78.4842C48.0852 78.5847 47.3341 78.5702 46.6822 78.4434L46.6524 78.438C46.5714 79.1781 46.7054 79.9394 47.0754 80.6258L51.2355 77.9586C50.4302 78.2177 49.6451 78.3961 48.9145 78.4845L48.9167 78.4842Z" fill="#141416"/>
<path d="M60.5724 85.7096C61.4432 83.2327 60.1415 80.5176 57.6635 79.6471C55.1855 78.7765 52.4715 80.078 51.601 82.556C50.7302 85.0329 52.0319 87.748 54.5099 88.6185C56.9868 89.4893 59.7019 88.1876 60.5724 85.7096Z" fill="url(#paint15_linear_4246_1679)"/>
<path d="M56.5415 85.281C54.9837 85.1954 53.604 85.3842 52.6252 85.8303L52.5822 85.8501C52.7142 86.0964 52.871 86.3316 53.0547 86.5485L53.1252 86.5068C53.4086 86.3409 53.7021 86.1873 54.0018 86.0499C54.8042 85.6827 55.6648 85.4225 56.5438 85.2806L56.5415 85.281Z" fill="#141416"/>
<path d="M52.2529 83.0891C52.0516 83.8423 52.096 84.6137 52.3449 85.3155L52.3717 85.303C52.977 85.0296 53.7052 84.8422 54.5369 84.7497C55.2664 84.6684 56.0729 84.661 56.916 84.7285L52.2529 83.0891Z" fill="#141416"/>
<path d="M56.1889 81.0857C57.0236 82.7514 58.3309 84.1171 59.9678 85.0366C60.3936 83.1532 59.2988 81.1862 57.3678 80.5072C56.8575 80.3281 56.3371 80.2558 55.8311 80.2771C55.9376 80.5507 56.0577 80.8231 56.1888 81.0846L56.1889 81.0857Z" fill="#141416"/>
<path d="M54.4484 80.6419C54.9331 81.6029 55.8905 82.6128 57.1592 83.5215C56.5633 82.8597 56.0538 82.119 55.6588 81.3304C55.5122 81.038 55.3788 80.7342 55.2608 80.4256L55.232 80.3495C54.9532 80.4036 54.6842 80.4886 54.4275 80.5992L54.4484 80.6419Z" fill="#141416"/>
<path d="M54.2595 86.5715C53.9932 86.6941 53.7281 86.8304 53.475 86.9774C53.856 87.3107 54.3073 87.5805 54.8176 87.7595C56.7486 88.4386 58.8336 87.5889 59.6813 85.853C57.8291 85.5457 55.9542 85.7933 54.2605 86.5702L54.2595 86.5715Z" fill="#141416"/>
<path d="M55.2649 82.6819C54.6746 82.0885 54.2227 81.4873 53.9227 80.8956L53.9091 80.869C53.276 81.2614 52.7584 81.8346 52.4443 82.5486L57.1062 84.1881C56.4061 83.7134 55.7821 83.203 55.2638 82.6821L55.2649 82.6819Z" fill="#141416"/>
<path d="M28.8973 92.8462C28.7725 92.8668 28.6411 92.8204 28.5586 92.7127L6.59693 64.1684C6.47775 64.0136 6.5069 63.7915 6.66167 63.6724C6.81756 63.553 7.03849 63.5823 7.15767 63.7371L29.1194 92.2814C29.2386 92.4362 29.2094 92.6583 29.0546 92.7774C29.0064 92.8143 28.9524 92.8371 28.8973 92.8462Z" fill="black"/>
<path d="M60.233 87.6653C60.1778 87.6744 60.1194 87.6702 60.0619 87.6509C59.877 87.5878 59.7779 87.387 59.8409 87.2021L71.4458 53.1078C71.5088 52.9229 71.7061 52.8232 71.8945 52.8868C72.0794 52.9499 72.1785 53.1507 72.1155 53.3356L60.5106 87.4299C60.467 87.5573 60.3578 87.6447 60.233 87.6653Z" fill="black"/>
<path d="M72.3281 52.9664C72.6335 54.8132 58.0851 58.7705 39.8363 61.7878C21.5875 64.8051 6.52843 65.7432 6.22308 63.8964C6.0598 62.9089 10.0607 61.3403 16.5803 59.6303C20.4802 58.6042 25.2791 57.5357 30.6232 56.5088C33.202 56.0108 35.9259 55.5246 38.7254 55.0617C41.5249 54.5988 44.2491 54.1842 46.8621 53.8238C52.2513 53.076 57.1396 52.5416 61.1625 52.2589C67.8731 51.7814 72.166 51.9787 72.3293 52.9662L72.3281 52.9664Z" fill="#141416"/>
<path d="M53.7465 59.5243C53.5621 59.5548 53.3829 59.4353 53.3439 59.2488C53.3031 59.058 53.4246 58.8703 53.6155 58.8295C67.1049 55.9382 72.0382 53.7336 71.9784 53.0225C71.9766 53.0113 71.4979 51.8771 61.1851 52.6105C57.1739 52.8936 52.2369 53.4337 46.9086 54.1726C41.6904 54.8921 35.8159 55.8634 30.6877 56.8546C25.405 57.869 20.5569 58.9468 16.6682 59.9711C6.65701 62.5981 6.56884 63.826 6.5707 63.8372C6.67754 64.2667 10.1248 65.1503 24.0844 63.621C24.2784 63.5993 24.4531 63.7403 24.4748 63.9343C24.4953 64.1285 24.3405 64.3101 24.1615 64.3247C15.9946 65.2197 6.1923 65.8814 5.87355 63.9536C5.7921 63.461 5.57563 62.1518 16.4893 59.2877C20.3925 58.2599 25.2575 57.1794 30.5546 56.1614C35.6954 55.1693 41.5821 54.1948 46.8115 53.4734C52.1555 52.732 57.1085 52.1903 61.1356 51.9058C72.378 51.1065 72.5945 52.4157 72.6759 52.9083C73.0315 55.0588 60.979 57.9748 53.7634 59.5215C53.7578 59.5224 53.7521 59.5233 53.7465 59.5243Z" fill="black"/>
<path d="M39.3056 91.1255C39.1369 91.1534 38.9692 91.0551 38.9127 90.8877L27.415 56.3472C27.3532 56.1621 27.453 55.9619 27.6393 55.901C27.8186 55.8391 28.0235 55.9392 28.0855 56.1254L39.5843 90.6657C39.6461 90.8508 39.5452 91.0512 39.3599 91.1119C39.3425 91.1182 39.3236 91.1225 39.3056 91.1255Z" fill="black"/>
<path d="M72.3307 52.9612C72.1678 51.9759 67.8736 51.7777 61.1597 52.2569C57.1369 52.5396 52.2469 53.0708 46.8577 53.8186C44.2432 54.1839 41.5208 54.5959 38.7225 55.0585C35.9241 55.5212 33.2051 56.0089 30.6211 56.5032C25.278 57.5299 20.4773 58.601 16.5776 59.6283C10.0578 61.3372 6.05576 62.9059 6.21885 63.8923C6.01745 62.6742 5.87675 61.4738 5.79134 60.2654C5.47533 55.6357 6.01281 51.1433 7.29751 46.956C8.95927 41.4642 11.876 36.5114 15.7604 32.5541C20.4338 27.7776 26.5194 24.4212 33.4669 23.2725C42.7392 21.7393 51.7993 24.4161 58.8801 29.9714C65.7399 35.3437 70.7514 43.4099 72.3305 52.9601L72.3307 52.9612Z" fill="#FE515E"/>
<path d="M72.3307 52.9612C72.1678 51.9759 67.8736 51.7777 61.1597 52.2569C57.1369 52.5396 52.2469 53.0708 46.8577 53.8186C44.2432 54.1839 41.5208 54.5959 38.7225 55.0585C35.9241 55.5212 33.2051 56.0089 30.6211 56.5032C25.278 57.5299 20.4773 58.601 16.5776 59.6283C10.0578 61.3372 6.05576 62.9059 6.21885 63.8923C6.01745 62.6742 5.87675 61.4738 5.79134 60.2654C5.47533 55.6357 6.01281 51.1433 7.29751 46.956C8.95927 41.4642 11.876 36.5114 15.7604 32.5541C20.4338 27.7776 26.5194 24.4212 33.4669 23.2725C42.7392 21.7393 51.7993 24.4161 58.8801 29.9714C65.7399 35.3437 70.7514 43.4099 72.3305 52.9601L72.3307 52.9612Z" fill="url(#paint16_linear_4246_1679)"/>
<path d="M15.6973 35.1818C15.0251 36.029 13.7615 36.305 13.2498 37.2493C12.7236 38.2248 13.196 39.5795 12.4942 40.4224C12.2066 40.7657 11.7888 40.9503 11.4775 41.2687C10.9858 41.7614 10.8417 42.5108 10.8531 43.2161C10.8631 43.9124 11.0065 44.6051 10.9702 45.3078C10.9414 46.0001 10.6919 46.7485 10.1175 47.1393C9.47395 47.5796 8.60783 47.4848 7.8739 47.204C7.68039 47.1309 7.4854 47.0487 7.29773 46.955C8.9595 41.4632 11.8763 36.5104 15.7607 32.553C16.2388 33.3625 16.2731 34.4361 15.6984 35.1817L15.6973 35.1818Z" fill="#FFECD4"/>
<path d="M11.0376 51.1868C9.84421 51.3842 8.65809 51.0661 7.61099 50.7851C7.36706 50.7145 7.12538 50.6505 6.88351 50.5853L6.38759 50.4512C6.19987 50.3991 6.08917 50.2048 6.14114 50.0159C6.19311 49.8271 6.39004 49.7183 6.57645 49.7695L7.0675 49.9021C7.31293 49.9678 7.55835 50.0335 7.80097 50.1032C8.78156 50.3662 9.87252 50.6469 10.9558 50.4828C11.8556 50.334 12.8666 49.6561 12.974 48.6909C13.0331 48.182 12.8581 47.669 12.6714 47.1267L12.5486 46.7611C12.2403 45.756 12.2945 44.959 12.7091 44.3912C13.065 43.9095 13.5912 43.7023 14.1008 43.5002C14.4946 43.345 14.8655 43.1981 15.1151 42.9396C15.6905 42.3315 15.4857 41.2399 15.2813 40.4718C15.0376 39.5565 14.7022 38.3039 15.3783 37.3336C15.7283 36.8297 16.2486 36.5588 16.7508 36.2978C17.0732 36.1302 17.3774 35.9712 17.6254 35.7592C18.6031 34.9147 18.5332 33.3247 17.9587 32.1914C17.7767 31.8171 17.5404 31.4783 17.2365 31.1496C17.1887 31.0986 17.1586 31.0354 17.1473 30.9668C17.1155 30.7744 17.2452 30.5877 17.4376 30.5559C17.5804 30.5323 17.7179 30.5951 17.7908 30.7078C18.1257 31.0765 18.3875 31.4584 18.5918 31.8765C19.2882 33.2507 19.3398 35.2123 18.0861 36.2954C17.7764 36.5604 17.4212 36.7463 17.0774 36.9244C16.6305 37.1566 16.2093 37.3765 15.9592 37.7367C15.5082 38.3844 15.7045 39.3133 15.9641 40.2895C16.2118 41.2215 16.4459 42.5601 15.6267 43.427C15.2686 43.7982 14.8077 43.9807 14.3609 44.1574C13.9247 44.3289 13.5137 44.4916 13.2796 44.8088C13.0045 45.1859 12.9847 45.7715 13.2228 46.5479L13.3395 46.8972C13.5428 47.4911 13.7529 48.1045 13.6746 48.7703C13.5269 50.1062 12.2274 50.9751 11.0385 51.1855L11.0376 51.1868Z" fill="#FFECD4"/>
<path d="M72.3315 52.9608C72.1686 51.9756 67.8744 51.7774 61.1605 52.2566C60.0498 46.9852 58.2403 42.1633 55.9406 38.0244C57.881 36.6429 58.9626 34.0572 58.9783 31.6084C58.9824 31.0531 58.9499 30.5142 58.8799 29.9723C65.7397 35.3446 70.7513 43.4109 72.3304 52.961L72.3315 52.9608Z" fill="#F83B4D"/>
<path d="M72.3315 52.9608C72.1686 51.9756 67.8744 51.7774 61.1605 52.2566C60.0498 46.9852 58.2403 42.1633 55.9406 38.0244C57.881 36.6429 58.9626 34.0572 58.9783 31.6084C58.9824 31.0531 58.9499 30.5142 58.8799 29.9723C65.7397 35.3446 70.7513 43.4109 72.3304 52.961L72.3315 52.9608Z" fill="url(#paint17_linear_4246_1679)"/>
<path d="M61.1599 52.257C57.137 52.5397 52.247 53.0709 46.8578 53.8187C44.2433 54.184 41.5209 54.596 38.7226 55.0587C35.9243 55.5213 33.2052 56.0091 30.6212 56.5033C25.2782 57.53 20.4774 58.6011 16.5777 59.6284C16.3984 58.1386 16.2773 56.6588 16.2288 55.2051C15.5687 38.7389 22.6133 25.0672 33.467 23.2726C41.8463 21.8871 50.3462 27.9334 55.941 38.0247C58.2396 42.1637 60.0502 46.9855 61.161 52.2568L61.1599 52.257Z" fill="#1E1E20"/>
<path d="M61.161 52.257C57.1381 52.5397 52.2481 53.0709 46.859 53.8187C46.2188 50.4084 45.4921 47.1661 44.706 44.152C45.3742 42.5325 46.0105 40.8881 47.4282 39.9859C49.4432 38.7064 52.1344 39.5035 54.4156 38.7924C54.9702 38.6245 55.4809 38.3586 55.941 38.0248C58.2396 42.1639 60.0502 46.9856 61.161 52.257Z" fill="#282828"/>
<path d="M29.7832 49.4769C29.9952 51.7447 30.2683 54.088 30.6203 56.5037C25.2773 57.5304 20.4766 58.6015 16.5768 59.6287C16.3975 58.1389 16.2764 56.6591 16.2279 55.2054C17.1335 54.6166 18.1077 54.1493 19.1727 53.9444C21.1829 53.5646 23.3524 54.1419 25.2432 53.3901C27.1086 52.6519 28.2818 50.7952 29.7843 49.4767L29.7832 49.4769Z" fill="#282828"/>
<path d="M46.8587 53.8195C44.2442 54.1847 41.5218 54.5967 38.7235 55.0594C35.9251 55.5221 33.206 56.0098 30.622 56.5041C30.2698 54.0873 29.9979 51.7438 29.7849 49.4773C28.4148 34.8941 29.7842 23.8812 33.4677 23.2722C36.9082 22.7033 41.3633 31.3873 44.7069 44.1526C45.4916 47.1657 46.2186 50.4092 46.8598 53.8193L46.8587 53.8195Z" fill="#FE515E"/>
<path d="M46.8587 53.8195C44.2442 54.1847 41.5218 54.5967 38.7235 55.0594C35.9251 55.5221 33.206 56.0098 30.622 56.5041C30.2698 54.0873 29.9979 51.7438 29.7849 49.4773C28.4148 34.8941 29.7842 23.8812 33.4677 23.2722C36.9082 22.7033 41.3633 31.3873 44.7069 44.1526C45.4916 47.1657 46.2186 50.4092 46.8598 53.8193L46.8587 53.8195Z" fill="url(#paint18_linear_4246_1679)"/>
<path d="M46.8579 53.8195C44.2434 54.1847 41.521 54.5967 38.7227 55.0594C35.9243 55.5221 33.2052 56.0098 30.6213 56.5041C30.269 54.0873 29.9971 51.7439 29.7841 49.4774C30.3337 48.9855 30.9341 48.5708 31.6174 48.3145C34.9528 47.0467 39.0736 49.8999 42.1041 48.0042C43.4461 47.1618 44.0881 45.6702 44.7063 44.1537C45.491 47.1669 46.218 50.4103 46.8592 53.8204L46.8579 53.8195Z" fill="#F83B4D"/>
<path d="M46.8579 53.8195C44.2434 54.1847 41.521 54.5967 38.7227 55.0594C35.9243 55.5221 33.2052 56.0098 30.6213 56.5041C30.269 54.0873 29.9971 51.7439 29.7841 49.4774C30.3337 48.9855 30.9341 48.5708 31.6174 48.3145C34.9528 47.0467 39.0736 49.8999 42.1041 48.0042C43.4461 47.1618 44.0881 45.6702 44.7063 44.1537C45.491 47.1669 46.218 50.4103 46.8592 53.8204L46.8579 53.8195Z" fill="url(#paint19_linear_4246_1679)"/>
<path d="M72.3891 53.3096C72.1968 53.3414 72.0146 53.2109 71.9828 53.0186C71.9807 53.0062 71.5009 51.8723 61.1865 52.6094C57.1569 52.8932 52.2196 53.4322 46.9083 54.1683C41.4443 54.9319 36.0683 55.822 30.6885 56.8501C25.4238 57.8616 20.5747 58.9407 16.6684 59.9702C6.65554 62.594 6.56624 63.822 6.56829 63.8344C6.60009 64.0268 6.4696 64.2089 6.27727 64.2407C6.08494 64.2725 5.90276 64.1421 5.87096 63.9497L5.86984 63.943C5.66658 62.7136 5.52568 61.5191 5.43918 60.2901C4.16941 41.8344 16.1937 25.7701 33.41 22.9236C39.0651 21.9885 44.9059 22.5954 50.3006 24.6765C50.4821 24.747 50.5737 24.9514 50.5034 25.134C50.4329 25.3155 50.2285 25.4071 50.0458 25.3368C44.7682 23.2999 39.0556 22.7065 33.5253 23.6209C16.6712 26.4076 4.89899 42.1517 6.14411 60.2417C6.20779 61.144 6.30074 62.0276 6.42759 62.9206C7.39526 62.1621 9.9353 61.0037 16.4884 59.287C20.4105 58.2549 25.274 57.1723 30.5554 56.1569C35.9487 55.1265 41.335 54.2359 46.81 53.4693C52.1371 52.7306 57.0914 52.19 61.1358 51.9049C67.8838 51.4223 70.6615 51.7014 71.8207 52.1083C71.1451 48.5606 69.9776 45.1612 68.3435 41.9939C68.2547 41.8202 68.3223 41.6068 68.4959 41.518C68.6685 41.4294 68.883 41.4968 68.9718 41.6704C70.7779 45.1722 72.0264 48.9499 72.6794 52.8988L72.6805 52.9055C72.7123 53.0979 72.5818 53.2801 72.3895 53.3119L72.3891 53.3096Z" fill="black"/>
<path d="M43.4986 47.9264C42.8631 48.0315 42.3344 48.4332 42.0046 48.9961C41.6682 49.5613 41.5215 50.2812 41.6457 51.0325C41.3972 49.5299 40.1693 48.4769 38.8995 48.6868C39.535 48.5818 40.0558 48.1814 40.3948 47.625C40.7244 47.0609 40.8712 46.3411 40.7469 45.5897C40.8712 46.3411 41.2418 46.9754 41.7422 47.4022C42.2344 47.8212 42.8642 48.0313 43.4997 47.9262L43.4986 47.9264Z" fill="#FFECD4"/>
<path d="M32.5438 29.841C33.2241 29.9018 33.6218 31.6224 33.662 33.6899C33.6929 35.7565 33.3545 37.4902 32.6763 37.5746C32.0097 37.6594 31.242 35.9445 31.2078 33.7317C31.1666 31.5188 31.8739 29.7796 32.5438 29.841Z" fill="#FFECD4"/>
<path d="M32.9352 26.4285C33.2296 26.4757 33.379 27.0368 33.2989 27.6844C33.2165 28.3324 32.9267 28.8368 32.6332 28.809C32.3386 28.7815 32.1516 28.2162 32.2366 27.5493C32.3192 26.8816 32.6455 26.3816 32.9341 26.4287L32.9352 26.4285Z" fill="#FFECD4"/>
<path d="M48.6234 77.0293C47.9662 74.4873 45.3734 72.9574 42.8303 73.6148C40.2872 74.2722 38.7584 76.8648 39.4158 79.4079C40.073 81.9499 42.6658 83.4798 45.2089 82.8224C47.7509 82.1652 49.2808 79.5724 48.6234 77.0293Z" fill="url(#paint20_linear_4246_1679)"/>
<path d="M45.0351 78.9189C43.6937 79.7161 42.6531 80.6416 42.0891 81.5564L42.0647 81.5974C42.3117 81.7287 42.5732 81.8357 42.845 81.9144L42.8804 81.8415C43.0232 81.5452 43.1819 81.2544 43.354 80.974C43.8154 80.2218 44.3857 79.5266 45.0362 78.9187L45.0351 78.9189Z" fill="#141416"/>
<path d="M40.2539 79.4877C40.5066 80.2259 40.9722 80.841 41.5703 81.2852L41.5857 81.2596C41.9361 80.6955 42.4361 80.1345 43.0759 79.5942C43.6365 79.1202 44.3019 78.6647 45.0401 78.2515L40.2539 79.4877Z" fill="#141416"/>
<path d="M42.4078 75.6315C44.0293 76.5489 45.8761 76.9565 47.7477 76.8077C47.0522 75.0057 45.0482 73.9828 43.0656 74.4944C42.5426 74.6294 42.07 74.86 41.6608 75.1599C41.9013 75.3282 42.1529 75.4876 42.4078 75.6315Z" fill="#141416"/>
<path d="M40.7145 76.2326C41.6522 76.7604 43.0108 77.0662 44.5695 77.1146C43.7061 76.8969 42.8703 76.566 42.1028 76.1313C41.8174 75.9705 41.5373 75.7926 41.2688 75.6013L41.2021 75.5546C41.0019 75.7552 40.8245 75.9752 40.6726 76.2095L40.7134 76.2328L40.7145 76.2326Z" fill="#141416"/>
<path d="M43.8622 81.2626C43.7094 81.512 43.5655 81.7738 43.4368 82.0366C43.9386 82.1015 44.4643 82.0735 44.9874 81.9385C46.9699 81.427 48.2269 79.5599 47.9636 77.646C46.2538 78.4233 44.8347 79.6736 43.8609 81.2616L43.8622 81.2626Z" fill="#141416"/>
<path d="M42.5297 77.4723C41.7088 77.3088 40.9988 77.0611 40.4194 76.7363L40.3939 76.722C40.0866 77.4002 39.9762 78.1649 40.1124 78.9328L44.8974 77.6967C44.0519 77.6921 43.2491 77.6168 42.5285 77.4725L42.5297 77.4723Z" fill="#141416"/>
<path d="M51.9739 86.7525C52.5871 84.1992 51.014 81.6318 48.4596 81.0189C45.9063 80.4057 43.3389 81.9788 42.7259 84.5332C42.1128 87.0865 43.6858 89.6539 46.2403 90.2668C48.7936 90.88 51.361 89.3069 51.9739 86.7525Z" fill="url(#paint21_linear_4246_1679)"/>
<path d="M47.9178 86.7376C46.3597 86.8115 45.0069 87.1415 44.0787 87.6843L44.0376 87.7085C44.1938 87.9403 44.3742 88.1578 44.5789 88.355L44.645 88.3071C44.9099 88.1131 45.1869 87.9298 45.4701 87.7628C46.2303 87.3147 47.0604 86.9683 47.92 86.7372L47.9178 86.7376Z" fill="#141416"/>
<path d="M43.4311 84.9962C43.3078 85.7665 43.4314 86.5283 43.7506 87.2012L43.776 87.1866C44.3504 86.8524 45.0551 86.5926 45.8738 86.4145C46.591 86.259 47.392 86.1693 48.2382 86.1507L43.4313 84.9973L43.4311 84.9962Z" fill="#141416"/>
<path d="M47.14 82.601C48.1416 84.1721 49.5807 85.3981 51.3045 86.145C51.5353 84.228 50.2458 82.3833 48.2546 81.906C47.7288 81.7803 47.2034 81.7609 46.7025 81.8345C46.8358 82.0955 46.9837 82.3542 47.1412 82.6008L47.14 82.601Z" fill="#141416"/>
<path d="M45.3633 82.3382C45.943 83.2442 46.9999 84.1509 48.354 84.9254C47.6935 84.3274 47.1114 83.6438 46.637 82.8995C46.4608 82.6236 46.2965 82.3353 46.1484 82.0409L46.1122 81.9683C45.8405 82.0513 45.5815 82.1623 45.3371 82.2986L45.3622 82.3384L45.3633 82.3382Z" fill="#141416"/>
<path d="M45.7821 88.2564C45.5295 88.4057 45.2802 88.5682 45.0431 88.7414C45.4554 89.0338 45.9336 89.2563 46.4593 89.382C48.4494 89.8595 50.4364 88.8018 51.1013 86.9875C49.2275 86.871 47.3878 87.3104 45.7819 88.2553L45.7821 88.2564Z" fill="#141416"/>
<path d="M46.3845 84.2837C45.7365 83.7542 45.2258 83.202 44.8667 82.6443L44.851 82.6192C44.2617 83.0737 43.8055 83.6968 43.5654 84.439L48.3711 85.5926C47.6265 85.1911 46.9536 84.7489 46.3843 84.2826L46.3845 84.2837Z" fill="#141416"/>
<path d="M49.4464 89.447C49.4284 89.45 49.409 89.452 49.3905 89.4516C49.1954 89.4527 49.0354 89.2954 49.0345 89.1014L48.8033 52.6981C48.802 52.5018 48.9651 52.342 49.1534 52.342C49.3485 52.341 49.5086 52.4982 49.5094 52.6922L49.7418 89.0954C49.7433 89.2719 49.6151 89.4191 49.4464 89.447Z" fill="black"/>
<path d="M62.0747 86.9017L65.1869 105.724C65.5435 107.881 64.0864 109.928 61.919 110.287L34.5306 114.815C32.3734 115.172 30.3338 113.703 29.9771 111.546L26.8649 92.7234L62.0736 86.9019L62.0747 86.9017Z" fill="#141416"/>
<path d="M62.0747 86.9017L65.1869 105.724C65.5435 107.881 64.0864 109.928 61.919 110.287L34.5306 114.815C32.3734 115.172 30.3338 113.703 29.9771 111.546L26.8649 92.7234L62.0736 86.9019L62.0747 86.9017Z" fill="#FFCB67" fill-opacity="0.9"/>
<path d="M36.0617 93.5728C35.3478 94.4546 33.9433 94.7446 33.5648 95.8102C33.4217 96.2163 33.4657 96.6573 33.4412 97.082C33.4272 97.5141 33.3111 97.9724 32.9607 98.2222C32.56 98.5172 31.97 98.4149 31.5556 98.6833C30.9076 99.0966 31.0272 100.051 30.9143 100.815C30.7686 101.785 30.1005 102.65 29.2071 103.027C29.0101 103.107 28.801 103.17 28.5963 103.204L26.8633 92.7227L36.3493 91.1542C36.6462 91.9648 36.5997 92.8992 36.0615 93.5717L36.0617 93.5728Z" fill="#FE9A4C"/>
<path d="M30.6182 107.838C30.1965 107.908 29.7409 107.913 29.264 107.852C29.0704 107.827 28.9336 107.65 28.9582 107.456C28.9829 107.263 29.1599 107.125 29.3537 107.151C30.1447 107.252 30.848 107.145 31.3891 106.84C32.087 106.441 32.5181 105.68 32.4342 104.991C32.4109 104.801 32.3564 104.611 32.303 104.421C32.1737 103.961 32.0275 103.44 32.2742 102.933C32.5668 102.355 33.2497 102.061 34.2021 102.098L34.3996 102.105C34.912 102.122 35.3966 102.139 35.7165 101.886C36.23 101.469 36.0702 100.566 35.8452 99.8829C35.5758 99.0712 35.2069 97.9582 35.8239 97.1121C36.2065 96.5889 36.86 96.3133 37.8132 96.2713C37.9581 96.267 38.0979 96.267 38.2389 96.2668C38.7237 96.264 39.1836 96.2642 39.584 96.0998C40.4983 95.7314 40.8849 94.5964 40.7954 93.6637C40.6915 92.679 40.2218 91.8023 39.6184 90.7593C39.6154 90.7552 39.6137 90.752 39.6109 90.749C39.5155 90.6261 39.5095 90.4503 39.6081 90.3196C39.7254 90.1627 39.947 90.133 40.1026 90.2494C40.1342 90.273 40.1672 90.3115 40.1928 90.3477C40.2031 90.361 40.2123 90.3745 40.2203 90.3882C40.7327 91.2718 41.3696 92.3705 41.4988 93.5924C41.6107 94.7514 41.1429 96.2338 39.8506 96.7548C39.3231 96.968 38.7747 96.9708 38.2423 96.9722C38.1083 96.9724 37.9743 96.9726 37.8421 96.9771C37.1185 97.0101 36.6444 97.1902 36.3964 97.5281C36.0245 98.0391 36.2318 98.7964 36.5191 99.6605C37.0519 101.283 36.6187 102.066 36.1613 102.437C35.6362 102.854 34.9681 102.831 34.379 102.812L34.1817 102.806C33.8685 102.792 33.131 102.811 32.9097 103.248C32.783 103.509 32.8774 103.842 32.9855 104.23C33.048 104.454 33.111 104.682 33.1377 104.906C33.2568 105.885 32.6958 106.909 31.7391 107.454C31.4062 107.642 31.0288 107.77 30.6205 107.838L30.6182 107.838Z" fill="#FFECD4"/>
<path d="M62.7499 90.994L65.1855 105.725C65.5422 107.882 64.0851 109.929 61.9177 110.287L34.5293 114.816C32.3721 115.172 30.3325 113.704 29.9758 111.546L29.9726 111.527C32.1129 112.682 35.1059 112.293 36.6931 110.396C38.0339 108.798 38.4643 106.377 40.2907 105.34C42.0537 104.332 44.2484 105.125 46.1723 105.782C48.0977 106.448 50.5177 106.87 51.9171 105.396C52.896 104.384 52.9851 102.84 53.1153 101.433C53.247 100.035 53.5886 98.4606 54.7963 97.7352C56.4746 96.7321 58.8841 97.9571 60.4968 96.8504C61.6136 96.0927 61.8292 94.5664 62.0386 93.2331C62.162 92.4766 62.3594 91.6513 62.7477 90.9944L62.7499 90.994Z" fill="#141416"/>
<path d="M62.7499 90.994L65.1855 105.725C65.5422 107.882 64.0851 109.929 61.9177 110.287L34.5293 114.816C32.3721 115.172 30.3325 113.704 29.9758 111.546L29.9726 111.527C32.1129 112.682 35.1059 112.293 36.6931 110.396C38.0339 108.798 38.4643 106.377 40.2907 105.34C42.0537 104.332 44.2484 105.125 46.1723 105.782C48.0977 106.448 50.5177 106.87 51.9171 105.396C52.896 104.384 52.9851 102.84 53.1153 101.433C53.247 100.035 53.5886 98.4606 54.7963 97.7352C56.4746 96.7321 58.8841 97.9571 60.4968 96.8504C61.6136 96.0927 61.8292 94.5664 62.0386 93.2331C62.162 92.4766 62.3594 91.6513 62.7477 90.9944L62.7499 90.994Z" fill="#FE9A4C" fill-opacity="0.5"/>
<path d="M52.9949 112.12L34.5875 115.164C32.2413 115.552 30.0163 113.954 29.6276 111.603L26.5155 92.781C26.4837 92.5887 26.6142 92.4065 26.8065 92.3747L62.0151 86.5532C62.2075 86.5214 62.3897 86.6519 62.4215 86.8442L64.6395 100.259C64.6713 100.451 64.5408 100.633 64.3485 100.665C64.1561 100.697 63.974 100.567 63.9422 100.374L61.7818 87.3082L27.2705 93.0144L30.325 111.488C30.6502 113.455 32.5107 114.791 34.4722 114.466L52.8796 111.423C53.0719 111.391 53.2541 111.522 53.2859 111.714C53.3177 111.906 53.1872 112.088 52.9949 112.12Z" fill="black"/>
<path d="M62.232 90.0385L27.7218 95.7445C26.2315 95.9909 24.8238 94.9827 24.5774 93.4924C24.331 92.0022 25.3392 90.5945 26.8295 90.3481L61.3397 84.642C62.83 84.3956 64.2377 85.4039 64.4841 86.8941C64.7305 88.3844 63.7222 89.7921 62.232 90.0385Z" fill="#FFECD4"/>
<path d="M55.2931 101.244C54.6576 101.349 54.129 101.751 53.7992 102.314C53.4628 102.879 53.316 103.599 53.4403 104.35C53.1918 102.847 51.9639 101.794 50.6941 102.004C51.3296 101.899 51.8503 101.499 52.1893 100.942C52.519 100.378 52.6657 99.6584 52.5415 98.9071C52.6657 99.6584 53.0364 100.293 53.5368 100.72C54.0289 101.139 54.6588 101.349 55.2942 101.244L55.2931 101.244Z" fill="#FFECD4"/>
<path d="M55.4264 97.4967C55.1384 97.5443 54.8981 97.7261 54.7477 97.9832C54.5948 98.2396 54.5288 98.5671 54.5851 98.9079C54.4722 98.2252 53.9147 97.7466 53.3377 97.842C53.6257 97.7944 53.8637 97.6129 54.0172 97.3599C54.1667 97.1041 54.2338 96.7764 54.1775 96.4356C54.234 96.7775 54.4018 97.0652 54.629 97.2587C54.8524 97.4494 55.1384 97.5443 55.4275 97.4965L55.4264 97.4967Z" fill="#FFECD4"/>
<path d="M48.6614 94.5266C48.7336 95.201 47.2967 95.9308 45.4321 96.3385C43.5603 96.7439 41.8885 96.6055 41.7278 95.941C41.5701 95.2877 42.9687 94.3609 44.9196 93.9377C46.8766 93.509 48.5914 93.8518 48.6623 94.5252L48.6614 94.5266Z" fill="#FFECD4"/>
<path d="M51.7926 94.3053C51.7913 94.6048 51.3136 94.8398 50.7243 94.8748C50.1345 94.9065 49.6315 94.7158 49.6016 94.4226C49.5712 94.1272 50.0459 93.8396 50.6667 93.8063C51.2869 93.7696 51.793 94.0141 51.7915 94.3055L51.7926 94.3053Z" fill="#FFECD4"/>
</g>
<defs>
<linearGradient id="paint0_linear_4246_1679" x1="101.333" y1="91.2342" x2="89.8609" y2="85.4494" gradientUnits="userSpaceOnUse">
<stop stop-color="#1A3746"/>
<stop offset="0.24" stop-color="#2B588B"/>
<stop offset="0.37" stop-color="#5A6B83"/>
<stop offset="0.74" stop-color="#ED5409"/>
<stop offset="1" stop-color="#FFCB67"/>
</linearGradient>
<linearGradient id="paint1_linear_4246_1679" x1="110.406" y1="81.7893" x2="97.6928" y2="83.6371" gradientUnits="userSpaceOnUse">
<stop stop-color="#1A3746"/>
<stop offset="0.24" stop-color="#2B588B"/>
<stop offset="0.37" stop-color="#5A6B83"/>
<stop offset="0.74" stop-color="#ED5409"/>
<stop offset="1" stop-color="#FFCB67"/>
</linearGradient>
<linearGradient id="paint2_linear_4246_1679" x1="111.487" y1="90.6156" x2="98.7743" y2="92.4634" gradientUnits="userSpaceOnUse">
<stop stop-color="#1A3746"/>
<stop offset="0.24" stop-color="#2B588B"/>
<stop offset="0.37" stop-color="#5A6B83"/>
<stop offset="0.74" stop-color="#ED5409"/>
<stop offset="1" stop-color="#FFCB67"/>
</linearGradient>
<linearGradient id="paint3_linear_4246_1679" x1="128.277" y1="87.3134" x2="115.564" y2="89.1611" gradientUnits="userSpaceOnUse">
<stop stop-color="#1A3746"/>
<stop offset="0.24" stop-color="#2B588B"/>
<stop offset="0.37" stop-color="#5A6B83"/>
<stop offset="0.74" stop-color="#ED5409"/>
<stop offset="1" stop-color="#FFCB67"/>
</linearGradient>
<linearGradient id="paint4_linear_4246_1679" x1="130.254" y1="102.213" x2="120.975" y2="93.3273" gradientUnits="userSpaceOnUse">
<stop stop-color="#1A3746"/>
<stop offset="0.24" stop-color="#2B588B"/>
<stop offset="0.37" stop-color="#5A6B83"/>
<stop offset="0.74" stop-color="#ED5409"/>
<stop offset="1" stop-color="#FFCB67"/>
</linearGradient>
<linearGradient id="paint5_linear_4246_1679" x1="169.688" y1="44.4589" x2="80.4665" y2="35.8828" gradientUnits="userSpaceOnUse">
<stop stop-color="#1A3746"/>
<stop offset="0.24" stop-color="#2B588B"/>
<stop offset="0.37" stop-color="#5A6B83"/>
<stop offset="0.74" stop-color="#ED5409"/>
<stop offset="1" stop-color="#FFCB67"/>
</linearGradient>
<linearGradient id="paint6_linear_4246_1679" x1="167.034" y1="51.7816" x2="148.848" y2="47.8548" gradientUnits="userSpaceOnUse">
<stop stop-color="#1A3746"/>
<stop offset="0.24" stop-color="#2B588B"/>
<stop offset="0.37" stop-color="#5A6B83"/>
<stop offset="0.74" stop-color="#ED5409"/>
<stop offset="1" stop-color="#FFCB67"/>
</linearGradient>
<linearGradient id="paint7_linear_4246_1679" x1="137.288" y1="33.7162" x2="115.509" y2="28.9267" gradientUnits="userSpaceOnUse">
<stop stop-color="#1A3746"/>
<stop offset="0.24" stop-color="#2B588B"/>
<stop offset="0.37" stop-color="#5A6B83"/>
<stop offset="0.74" stop-color="#ED5409"/>
<stop offset="1" stop-color="#FFCB67"/>
</linearGradient>
<linearGradient id="paint8_linear_4246_1679" x1="133.098" y1="49.351" x2="111.163" y2="46.8257" gradientUnits="userSpaceOnUse">
<stop stop-color="#1A3746"/>
<stop offset="0.24" stop-color="#2B588B"/>
<stop offset="0.37" stop-color="#5A6B83"/>
<stop offset="0.74" stop-color="#ED5409"/>
<stop offset="1" stop-color="#FFCB67"/>
</linearGradient>
<linearGradient id="paint9_linear_4246_1679" x1="120.637" y1="85.1556" x2="107.98" y2="82.9445" gradientUnits="userSpaceOnUse">
<stop stop-color="#1A3746"/>
<stop offset="0.24" stop-color="#2B588B"/>
<stop offset="0.37" stop-color="#5A6B83"/>
<stop offset="0.74" stop-color="#ED5409"/>
<stop offset="1" stop-color="#FFCB67"/>
</linearGradient>
<linearGradient id="paint10_linear_4246_1679" x1="119.326" y1="98.7539" x2="109.186" y2="90.8661" gradientUnits="userSpaceOnUse">
<stop stop-color="#1A3746"/>
<stop offset="0.24" stop-color="#2B588B"/>
<stop offset="0.37" stop-color="#5A6B83"/>
<stop offset="0.74" stop-color="#ED5409"/>
<stop offset="1" stop-color="#FFCB67"/>
</linearGradient>
<linearGradient id="paint11_linear_4246_1679" x1="37.3427" y1="87.2126" x2="27.6427" y2="86.8109" gradientUnits="userSpaceOnUse">
<stop stop-color="#1A3746"/>
<stop offset="0.24" stop-color="#2B588B"/>
<stop offset="0.37" stop-color="#5A6B83"/>
<stop offset="0.74" stop-color="#ED5409"/>
<stop offset="1" stop-color="#FFCB67"/>
</linearGradient>
<linearGradient id="paint12_linear_4246_1679" x1="40.6404" y1="77.8795" x2="32.4679" y2="83.1178" gradientUnits="userSpaceOnUse">
<stop stop-color="#1A3746"/>
<stop offset="0.24" stop-color="#2B588B"/>
<stop offset="0.37" stop-color="#5A6B83"/>
<stop offset="0.74" stop-color="#ED5409"/>
<stop offset="1" stop-color="#FFCB67"/>
</linearGradient>
<linearGradient id="paint13_linear_4246_1679" x1="44.1356" y1="83.6183" x2="35.9631" y2="88.8566" gradientUnits="userSpaceOnUse">
<stop stop-color="#1A3746"/>
<stop offset="0.24" stop-color="#2B588B"/>
<stop offset="0.37" stop-color="#5A6B83"/>
<stop offset="0.74" stop-color="#ED5409"/>
<stop offset="1" stop-color="#FFCB67"/>
</linearGradient>
<linearGradient id="paint14_linear_4246_1679" x1="54.6605" y1="76.1075" x2="46.488" y2="81.3457" gradientUnits="userSpaceOnUse">
<stop stop-color="#1A3746"/>
<stop offset="0.24" stop-color="#2B588B"/>
<stop offset="0.37" stop-color="#5A6B83"/>
<stop offset="0.74" stop-color="#ED5409"/>
<stop offset="1" stop-color="#FFCB67"/>
</linearGradient>
<linearGradient id="paint15_linear_4246_1679" x1="60.6715" y1="85.7453" x2="51.5128" y2="82.5252" gradientUnits="userSpaceOnUse">
<stop stop-color="#1A3746"/>
<stop offset="0.24" stop-color="#2B588B"/>
<stop offset="0.37" stop-color="#5A6B83"/>
<stop offset="0.74" stop-color="#ED5409"/>
<stop offset="1" stop-color="#FFCB67"/>
</linearGradient>
<linearGradient id="paint16_linear_4246_1679" x1="69.7886" y1="33.6935" x2="5.71022" y2="55.63" gradientUnits="userSpaceOnUse">
<stop stop-color="#1A3746"/>
<stop offset="0.24" stop-color="#2B588B"/>
<stop offset="0.37" stop-color="#5A6B83"/>
<stop offset="0.74" stop-color="#ED5409"/>
<stop offset="1" stop-color="#FFCB67"/>
</linearGradient>
<linearGradient id="paint17_linear_4246_1679" x1="70.2478" y1="39.5606" x2="56.5068" y2="42.5326" gradientUnits="userSpaceOnUse">
<stop stop-color="#1A3746"/>
<stop offset="0.24" stop-color="#2B588B"/>
<stop offset="0.37" stop-color="#5A6B83"/>
<stop offset="0.74" stop-color="#ED5409"/>
<stop offset="1" stop-color="#FFCB67"/>
</linearGradient>
<linearGradient id="paint18_linear_4246_1679" x1="44.1393" y1="36.4091" x2="27.6571" y2="39.9081" gradientUnits="userSpaceOnUse">
<stop stop-color="#1A3746"/>
<stop offset="0.24" stop-color="#2B588B"/>
<stop offset="0.37" stop-color="#5A6B83"/>
<stop offset="0.74" stop-color="#ED5409"/>
<stop offset="1" stop-color="#FFCB67"/>
</linearGradient>
<linearGradient id="paint19_linear_4246_1679" x1="46.1337" y1="48.4765" x2="30.2499" y2="53.5827" gradientUnits="userSpaceOnUse">
<stop stop-color="#1A3746"/>
<stop offset="0.24" stop-color="#2B588B"/>
<stop offset="0.37" stop-color="#5A6B83"/>
<stop offset="0.74" stop-color="#ED5409"/>
<stop offset="1" stop-color="#FFCB67"/>
</linearGradient>
<linearGradient id="paint20_linear_4246_1679" x1="48.7301" y1="77.0045" x2="39.3301" y2="79.4317" gradientUnits="userSpaceOnUse">
<stop stop-color="#1A3746"/>
<stop offset="0.24" stop-color="#2B588B"/>
<stop offset="0.37" stop-color="#5A6B83"/>
<stop offset="0.74" stop-color="#ED5409"/>
<stop offset="1" stop-color="#FFCB67"/>
</linearGradient>
<linearGradient id="paint21_linear_4246_1679" x1="52.0728" y1="86.7726" x2="42.6335" y2="84.508" gradientUnits="userSpaceOnUse">
<stop stop-color="#1A3746"/>
<stop offset="0.24" stop-color="#2B588B"/>
<stop offset="0.37" stop-color="#5A6B83"/>
<stop offset="0.74" stop-color="#ED5409"/>
<stop offset="1" stop-color="#FFCB67"/>
</linearGradient>
<clipPath id="clip0_4246_1679">
<rect width="89.6166" height="120.689" fill="white" transform="translate(88.4375) rotate(15)"/>
</clipPath>
<clipPath id="clip1_4246_1679">
<rect width="67.7174" height="91.1969" fill="white" transform="translate(0 28.4473) rotate(-9.38852)"/>
</clipPath>
</defs>
</svg>
