<svg width="250" height="159" viewBox="0 0 250 159" fill="none" xmlns="http://www.w3.org/2000/svg">
<rect x="0.5" y="0.5" width="249" height="39" rx="9.38159" fill="url(#paint0_linear_4561_242)"/>
<rect x="0.5" y="0.5" width="249" height="39" rx="9.38159" fill="black" fill-opacity="0.9"/>
<rect x="0.5" y="0.5" width="249" height="39" rx="9.38159" fill="url(#paint1_linear_4561_242)"/>
<rect x="0.5" y="0.5" width="249" height="39" rx="9.38159" fill="white" fill-opacity="0.88"/>
<rect x="0.5" y="0.5" width="249" height="39" rx="9.38159" stroke="url(#paint2_linear_4561_242)"/>
<path d="M20.5575 23.0505C20.154 23.0505 19.7288 22.9698 19.2818 22.8084C18.8411 22.6408 18.3972 22.4514 17.9502 22.2404C17.5095 22.0231 17.0873 21.8338 16.6838 21.6724C16.2865 21.5047 15.9265 21.4209 15.6037 21.4209C15.405 21.4209 15.2374 21.4737 15.1008 21.5792C14.9705 21.6786 14.868 21.812 14.7935 21.9796C14.7253 22.1473 14.6911 22.3211 14.6911 22.5011L12.4656 22.4732C12.4532 21.9207 12.596 21.4023 12.8939 20.9181C13.1981 20.4339 13.5954 20.0428 14.0858 19.7448C14.5763 19.4406 15.107 19.2885 15.6782 19.2885C16.0817 19.2885 16.4821 19.3723 16.8794 19.5399C17.2767 19.7076 17.6709 19.9062 18.062 20.1359C18.4531 20.3594 18.8318 20.5549 19.198 20.7225C19.5643 20.8902 19.9119 20.974 20.2409 20.974C20.4396 20.974 20.6072 20.9243 20.7438 20.825C20.8804 20.7257 20.9859 20.5922 21.0604 20.4246C21.1411 20.257 21.1845 20.0769 21.1907 19.8845L23.407 19.9031C23.4194 20.4556 23.3045 20.9709 23.0624 21.4489C22.8265 21.9269 22.4913 22.3149 22.0567 22.6128C21.6222 22.9046 21.1225 23.0505 20.5575 23.0505ZM23.9814 26.7566L24.2607 24.7266C24.7077 24.4224 25.2385 24.0469 25.853 23.5999C26.4738 23.1467 27.1101 22.6594 27.762 22.1379C28.42 21.6103 29.0346 21.0826 29.6057 20.5549C30.183 20.0273 30.661 19.5244 31.0397 19.0464C31.4184 18.5684 31.6295 18.1587 31.6729 17.8173C31.7288 17.4386 31.6853 17.0941 31.5426 16.7837C31.3998 16.4671 31.1887 16.2156 30.9093 16.0294C30.63 15.8432 30.301 15.75 29.9223 15.75C29.5436 15.75 29.1836 15.8432 28.8421 16.0294C28.5069 16.2156 28.2244 16.4671 27.9948 16.7837C27.7651 17.0941 27.6223 17.4386 27.5664 17.8173H25.2943C25.4123 16.9978 25.7134 16.2622 26.1976 15.6104C26.688 14.9523 27.2871 14.434 27.9948 14.0553C28.7087 13.6704 29.4567 13.478 30.2389 13.478C31.0335 13.478 31.7288 13.6735 32.3247 14.0646C32.9269 14.4495 33.377 14.971 33.675 15.629C33.9729 16.287 34.0629 17.0165 33.945 17.8173C33.8891 18.2394 33.7526 18.6646 33.5353 19.093C33.3242 19.5213 33.048 19.9528 32.7065 20.3873C32.3651 20.8219 31.9709 21.2626 31.5239 21.7096C31.0832 22.1504 30.6021 22.6035 30.0806 23.0691C29.5653 23.5285 29.0222 24.0003 28.451 24.4845H33.079L32.7624 26.7566H23.9814ZM38.9994 26.9987C38.242 26.9987 37.5778 26.8249 37.0067 26.4772C36.4356 26.1234 35.9669 25.6361 35.6006 25.0153C35.2405 24.3945 34.9953 23.6775 34.865 22.8643C34.7408 22.0448 34.7439 21.1695 34.8743 20.2383C35.0046 19.3072 35.2468 18.4349 35.6006 17.6217C35.9607 16.8023 36.4076 16.0822 36.9415 15.4614C37.4816 14.8406 38.0869 14.3564 38.7573 14.0087C39.4278 13.6549 40.1417 13.478 40.899 13.478C41.6564 13.478 42.3206 13.6549 42.8917 14.0087C43.4629 14.3564 43.9253 14.8406 44.2792 15.4614C44.6393 16.0822 44.8845 16.8023 45.0148 17.6217C45.1452 18.4349 45.1452 19.3072 45.0148 20.2383C44.8845 21.1695 44.6393 22.0448 44.2792 22.8643C43.9253 23.6775 43.4815 24.3945 42.9476 25.0153C42.4137 25.6361 41.8116 26.1234 41.1411 26.4772C40.4707 26.8249 39.7568 26.9987 38.9994 26.9987ZM39.316 24.7266C39.9803 24.7266 40.5576 24.5156 41.048 24.0934C41.5446 23.6713 41.9481 23.1188 42.2585 22.4359C42.5689 21.7531 42.7769 21.0205 42.8824 20.2383C43.0004 19.4127 42.9942 18.6615 42.8638 17.9849C42.7396 17.302 42.4882 16.7588 42.1095 16.3553C41.7309 15.9518 41.2218 15.75 40.5824 15.75C40.0796 15.75 39.6264 15.8742 39.2229 16.1225C38.8194 16.3646 38.4655 16.6967 38.1613 17.1189C37.8572 17.541 37.6088 18.0221 37.4164 18.5622C37.224 19.0961 37.0874 19.6548 37.0067 20.2383C36.8949 21.0143 36.898 21.7468 37.016 22.4359C37.1402 23.1188 37.3885 23.6713 37.7609 24.0934C38.1396 24.5156 38.658 24.7266 39.316 24.7266ZM49.8207 26.9987C49.0634 26.9987 48.3991 26.8249 47.828 26.4772C47.2569 26.1234 46.7882 25.6361 46.4219 25.0153C46.0619 24.3945 45.8167 23.6775 45.6863 22.8643C45.5621 22.0448 45.5652 21.1695 45.6956 20.2383C45.826 19.3072 46.0681 18.4349 46.4219 17.6217C46.782 16.8023 47.2289 16.0822 47.7628 15.4614C48.3029 14.8406 48.9082 14.3564 49.5786 14.0087C50.2491 13.6549 50.963 13.478 51.7203 13.478C52.4777 13.478 53.1419 13.6549 53.7131 14.0087C54.2842 14.3564 54.7467 14.8406 55.1005 15.4614C55.4606 16.0822 55.7058 16.8023 55.8362 17.6217C55.9665 18.4349 55.9665 19.3072 55.8362 20.2383C55.7058 21.1695 55.4606 22.0448 55.1005 22.8643C54.7467 23.6775 54.3028 24.3945 53.7689 25.0153C53.2351 25.6361 52.6329 26.1234 51.9624 26.4772C51.292 26.8249 50.5781 26.9987 49.8207 26.9987ZM50.1373 24.7266C50.8016 24.7266 51.3789 24.5156 51.8693 24.0934C52.366 23.6713 52.7695 23.1188 53.0799 22.4359C53.3903 21.7531 53.5982 21.0205 53.7038 20.2383C53.8217 19.4127 53.8155 18.6615 53.6851 17.9849C53.561 17.302 53.3096 16.7588 52.9309 16.3553C52.5522 15.9518 52.0431 15.75 51.4037 15.75C50.9009 15.75 50.4477 15.8742 50.0442 16.1225C49.6407 16.3646 49.2869 16.6967 48.9827 17.1189C48.6785 17.541 48.4302 18.0221 48.2377 18.5622C48.0453 19.0961 47.9087 19.6548 47.828 20.2383C47.7163 21.0143 47.7194 21.7468 47.8373 22.4359C47.9615 23.1188 48.2098 23.6713 48.5823 24.0934C48.9609 24.5156 49.4793 24.7266 50.1373 24.7266ZM56.0781 27.7995L57.0931 24.6521H59.3652L57.5959 27.7995H56.0781ZM65.789 26.9987C65.0316 26.9987 64.3674 26.8249 63.7963 26.4772C63.2252 26.1234 62.7565 25.6361 62.3902 25.0153C62.0301 24.3945 61.7849 23.6775 61.6546 22.8643C61.5304 22.0448 61.5335 21.1695 61.6639 20.2383C61.7942 19.3072 62.0364 18.4349 62.3902 17.6217C62.7503 16.8023 63.1972 16.0822 63.7311 15.4614C64.2712 14.8406 64.8765 14.3564 65.5469 14.0087C66.2174 13.6549 66.9313 13.478 67.6886 13.478C68.446 13.478 69.1102 13.6549 69.6813 14.0087C70.2525 14.3564 70.7149 14.8406 71.0688 15.4614C71.4289 16.0822 71.6741 16.8023 71.8044 17.6217C71.9348 18.4349 71.9348 19.3072 71.8044 20.2383C71.6741 21.1695 71.4289 22.0448 71.0688 22.8643C70.7149 23.6775 70.2711 24.3945 69.7372 25.0153C69.2033 25.6361 68.6012 26.1234 67.9307 26.4772C67.2603 26.8249 66.5464 26.9987 65.789 26.9987ZM66.1056 24.7266C66.7699 24.7266 67.3472 24.5156 67.8376 24.0934C68.3342 23.6713 68.7377 23.1188 69.0481 22.4359C69.3585 21.7531 69.5665 21.0205 69.672 20.2383C69.79 19.4127 69.7838 18.6615 69.6534 17.9849C69.5292 17.302 69.2778 16.7588 68.8991 16.3553C68.5205 15.9518 68.0114 15.75 67.372 15.75C66.8692 15.75 66.416 15.8742 66.0125 16.1225C65.609 16.3646 65.2551 16.6967 64.9509 17.1189C64.6468 17.541 64.3984 18.0221 64.206 18.5622C64.0136 19.0961 63.877 19.6548 63.7963 20.2383C63.6845 21.0143 63.6876 21.7468 63.8056 22.4359C63.9298 23.1188 64.1781 23.6713 64.5505 24.0934C64.9292 24.5156 65.4476 24.7266 66.1056 24.7266ZM76.6103 26.9987C75.853 26.9987 75.1887 26.8249 74.6176 26.4772C74.0465 26.1234 73.5778 25.6361 73.2115 25.0153C72.8515 24.3945 72.6063 23.6775 72.4759 22.8643C72.3517 22.0448 72.3548 21.1695 72.4852 20.2383C72.6156 19.3072 72.8577 18.4349 73.2115 17.6217C73.5716 16.8023 74.0185 16.0822 74.5524 15.4614C75.0925 14.8406 75.6978 14.3564 76.3682 14.0087C77.0387 13.6549 77.7526 13.478 78.5099 13.478C79.2673 13.478 79.9315 13.6549 80.5027 14.0087C81.0738 14.3564 81.5363 14.8406 81.8901 15.4614C82.2502 16.0822 82.4954 16.8023 82.6258 17.6217C82.7561 18.4349 82.7561 19.3072 82.6258 20.2383C82.4954 21.1695 82.2502 22.0448 81.8901 22.8643C81.5363 23.6775 81.0924 24.3945 80.5585 25.0153C80.0247 25.6361 79.4225 26.1234 78.752 26.4772C78.0816 26.8249 77.3677 26.9987 76.6103 26.9987ZM76.9269 24.7266C77.5912 24.7266 78.1685 24.5156 78.6589 24.0934C79.1556 23.6713 79.5591 23.1188 79.8695 22.4359C80.1799 21.7531 80.3878 21.0205 80.4934 20.2383C80.6113 19.4127 80.6051 18.6615 80.4747 17.9849C80.3506 17.302 80.0992 16.7588 79.7205 16.3553C79.3418 15.9518 78.8327 15.75 78.1933 15.75C77.6905 15.75 77.2373 15.8742 76.8338 16.1225C76.4303 16.3646 76.0765 16.6967 75.7723 17.1189C75.4681 17.541 75.2198 18.0221 75.0273 18.5622C74.8349 19.0961 74.6983 19.6548 74.6176 20.2383C74.5059 21.0143 74.509 21.7468 74.6269 22.4359C74.7511 23.1188 74.9994 23.6713 75.3719 24.0934C75.7505 24.5156 76.2689 24.7266 76.9269 24.7266ZM87.4317 26.9987C86.6743 26.9987 86.0101 26.8249 85.4389 26.4772C84.8678 26.1234 84.3991 25.6361 84.0329 25.0153C83.6728 24.3945 83.4276 23.6775 83.2972 22.8643C83.1731 22.0448 83.1762 21.1695 83.3065 20.2383C83.4369 19.3072 83.679 18.4349 84.0329 17.6217C84.3929 16.8023 84.8399 16.0822 85.3738 15.4614C85.9138 14.8406 86.5191 14.3564 87.1896 14.0087C87.86 13.6549 88.5739 13.478 89.3313 13.478C90.0886 13.478 90.7529 13.6549 91.324 14.0087C91.8951 14.3564 92.3576 14.8406 92.7114 15.4614C93.0715 16.0822 93.3167 16.8023 93.4471 17.6217C93.5774 18.4349 93.5774 19.3072 93.4471 20.2383C93.3167 21.1695 93.0715 22.0448 92.7114 22.8643C92.3576 23.6775 91.9137 24.3945 91.3799 25.0153C90.846 25.6361 90.2438 26.1234 89.5734 26.4772C88.9029 26.8249 88.189 26.9987 87.4317 26.9987ZM87.7483 24.7266C88.4125 24.7266 88.9898 24.5156 89.4803 24.0934C89.9769 23.6713 90.3804 23.1188 90.6908 22.4359C91.0012 21.7531 91.2091 21.0205 91.3147 20.2383C91.4326 19.4127 91.4264 18.6615 91.2961 17.9849C91.1719 17.302 90.9205 16.7588 90.5418 16.3553C90.1631 15.9518 89.6541 15.75 89.0147 15.75C88.5118 15.75 88.0587 15.8742 87.6551 16.1225C87.2516 16.3646 86.8978 16.6967 86.5936 17.1189C86.2894 17.541 86.0411 18.0221 85.8487 18.5622C85.6562 19.0961 85.5196 19.6548 85.4389 20.2383C85.3272 21.0143 85.3303 21.7468 85.4482 22.4359C85.5724 23.1188 85.8207 23.6713 86.1932 24.0934C86.5719 24.5156 87.0902 24.7266 87.7483 24.7266ZM93.689 27.7995L94.704 24.6521H96.9761L95.2069 27.7995H93.689ZM103.4 26.9987C102.643 26.9987 101.978 26.8249 101.407 26.4772C100.836 26.1234 100.367 25.6361 100.001 25.0153C99.6411 24.3945 99.3959 23.6775 99.2655 22.8643C99.1413 22.0448 99.1444 21.1695 99.2748 20.2383C99.4052 19.3072 99.6473 18.4349 100.001 17.6217C100.361 16.8023 100.808 16.0822 101.342 15.4614C101.882 14.8406 102.487 14.3564 103.158 14.0087C103.828 13.6549 104.542 13.478 105.3 13.478C106.057 13.478 106.721 13.6549 107.292 14.0087C107.863 14.3564 108.326 14.8406 108.68 15.4614C109.04 16.0822 109.285 16.8023 109.415 17.6217C109.546 18.4349 109.546 19.3072 109.415 20.2383C109.285 21.1695 109.04 22.0448 108.68 22.8643C108.326 23.6775 107.882 24.3945 107.348 25.0153C106.814 25.6361 106.212 26.1234 105.542 26.4772C104.871 26.8249 104.157 26.9987 103.4 26.9987ZM103.717 24.7266C104.381 24.7266 104.958 24.5156 105.449 24.0934C105.945 23.6713 106.349 23.1188 106.659 22.4359C106.969 21.7531 107.177 21.0205 107.283 20.2383C107.401 19.4127 107.395 18.6615 107.264 17.9849C107.14 17.302 106.889 16.7588 106.51 16.3553C106.131 15.9518 105.622 15.75 104.983 15.75C104.48 15.75 104.027 15.8742 103.623 16.1225C103.22 16.3646 102.866 16.6967 102.562 17.1189C102.258 17.541 102.009 18.0221 101.817 18.5622C101.624 19.0961 101.488 19.6548 101.407 20.2383C101.295 21.0143 101.299 21.7468 101.417 22.4359C101.541 23.1188 101.789 23.6713 102.161 24.0934C102.54 24.5156 103.059 24.7266 103.717 24.7266ZM114.221 26.9987C113.464 26.9987 112.8 26.8249 112.229 26.4772C111.657 26.1234 111.189 25.6361 110.822 25.0153C110.462 24.3945 110.217 23.6775 110.087 22.8643C109.963 22.0448 109.966 21.1695 110.096 20.2383C110.227 19.3072 110.469 18.4349 110.822 17.6217C111.183 16.8023 111.629 16.0822 112.163 15.4614C112.703 14.8406 113.309 14.3564 113.979 14.0087C114.65 13.6549 115.364 13.478 116.121 13.478C116.878 13.478 117.542 13.6549 118.114 14.0087C118.685 14.3564 119.147 14.8406 119.501 15.4614C119.861 16.0822 120.106 16.8023 120.237 17.6217C120.367 18.4349 120.367 19.3072 120.237 20.2383C120.106 21.1695 119.861 22.0448 119.501 22.8643C119.147 23.6775 118.703 24.3945 118.169 25.0153C117.636 25.6361 117.033 26.1234 116.363 26.4772C115.693 26.8249 114.979 26.9987 114.221 26.9987ZM114.538 24.7266C115.202 24.7266 115.779 24.5156 116.27 24.0934C116.766 23.6713 117.17 23.1188 117.48 22.4359C117.791 21.7531 117.999 21.0205 118.104 20.2383C118.222 19.4127 118.216 18.6615 118.086 17.9849C117.962 17.302 117.71 16.7588 117.331 16.3553C116.953 15.9518 116.444 15.75 115.804 15.75C115.301 15.75 114.848 15.8742 114.445 16.1225C114.041 16.3646 113.687 16.6967 113.383 17.1189C113.079 17.541 112.831 18.0221 112.638 18.5622C112.446 19.0961 112.309 19.6548 112.229 20.2383C112.117 21.0143 112.12 21.7468 112.238 22.4359C112.362 23.1188 112.61 23.6713 112.983 24.0934C113.361 24.5156 113.88 24.7266 114.538 24.7266ZM125.043 26.9987C124.285 26.9987 123.621 26.8249 123.05 26.4772C122.479 26.1234 122.01 25.6361 121.644 25.0153C121.284 24.3945 121.039 23.6775 120.908 22.8643C120.784 22.0448 120.787 21.1695 120.917 20.2383C121.048 19.3072 121.29 18.4349 121.644 17.6217C122.004 16.8023 122.451 16.0822 122.985 15.4614C123.525 14.8406 124.13 14.3564 124.8 14.0087C125.471 13.6549 126.185 13.478 126.942 13.478C127.7 13.478 128.364 13.6549 128.935 14.0087C129.506 14.3564 129.969 14.8406 130.322 15.4614C130.682 16.0822 130.928 16.8023 131.058 17.6217C131.188 18.4349 131.188 19.3072 131.058 20.2383C130.928 21.1695 130.682 22.0448 130.322 22.8643C129.969 23.6775 129.525 24.3945 128.991 25.0153C128.457 25.6361 127.855 26.1234 127.184 26.4772C126.514 26.8249 125.8 26.9987 125.043 26.9987ZM125.359 24.7266C126.023 24.7266 126.601 24.5156 127.091 24.0934C127.588 23.6713 127.991 23.1188 128.302 22.4359C128.612 21.7531 128.82 21.0205 128.926 20.2383C129.044 19.4127 129.037 18.6615 128.907 17.9849C128.783 17.302 128.531 16.7588 128.153 16.3553C127.774 15.9518 127.265 15.75 126.626 15.75C126.123 15.75 125.67 15.8742 125.266 16.1225C124.863 16.3646 124.509 16.6967 124.205 17.1189C123.9 17.541 123.652 18.0221 123.46 18.5622C123.267 19.0961 123.131 19.6548 123.05 20.2383C122.938 21.0143 122.941 21.7468 123.059 22.4359C123.183 23.1188 123.432 23.6713 123.804 24.0934C124.183 24.5156 124.701 24.7266 125.359 24.7266ZM140.951 26.9987C140.231 26.9987 139.555 26.887 138.921 26.6635C138.294 26.4338 137.764 26.1079 137.329 25.6857C136.895 25.2574 136.609 24.7452 136.472 24.1493L138.717 23.3671C138.772 23.6154 138.918 23.842 139.154 24.0469C139.39 24.2517 139.691 24.4162 140.057 24.5404C140.424 24.6645 140.827 24.7266 141.268 24.7266C141.721 24.7266 142.153 24.6583 142.562 24.5218C142.978 24.379 143.326 24.1834 143.605 23.9351C143.885 23.6806 144.049 23.3857 144.099 23.0505C144.148 22.7091 144.058 22.4297 143.829 22.2124C143.605 21.989 143.304 21.812 142.925 21.6817C142.553 21.5513 142.159 21.452 141.743 21.3837C140.837 21.2409 140.039 21.0205 139.35 20.7225C138.661 20.4246 138.139 20.0117 137.785 19.4841C137.438 18.9564 137.32 18.2735 137.431 17.4355C137.543 16.6471 137.866 15.958 138.4 15.3683C138.94 14.7785 139.601 14.3191 140.383 13.9901C141.172 13.6611 141.994 13.4966 142.851 13.4966C143.565 13.4966 144.235 13.6083 144.862 13.8318C145.496 14.0553 146.032 14.3812 146.473 14.8096C146.914 15.2379 147.203 15.7532 147.339 16.3553L145.086 17.1282C145.03 16.8799 144.884 16.6533 144.648 16.4484C144.412 16.2436 144.111 16.0822 143.745 15.9642C143.379 15.8401 142.975 15.778 142.534 15.778C142.094 15.7718 141.665 15.8432 141.249 15.9922C140.833 16.1349 140.483 16.3305 140.197 16.5788C139.918 16.8271 139.753 17.1127 139.704 17.4355C139.648 17.8514 139.722 18.1649 139.927 18.376C140.132 18.587 140.421 18.7422 140.793 18.8416C141.172 18.9347 141.594 19.0216 142.059 19.1023C142.916 19.2389 143.689 19.4686 144.378 19.7914C145.073 20.1142 145.607 20.5456 145.98 21.0857C146.352 21.6196 146.483 22.2745 146.371 23.0505C146.259 23.8389 145.936 24.5311 145.402 25.127C144.875 25.7168 144.217 26.1762 143.428 26.5052C142.646 26.8342 141.82 26.9987 140.951 26.9987ZM157.671 13.7201H159.291L164.04 26.7566H162.653L161.638 23.9631H155.334L154.319 26.7566H152.931L157.671 13.7201ZM155.808 22.6594H161.153L158.481 15.3217L155.808 22.6594ZM165.471 17.4448H166.774V26.7566H165.471V17.4448ZM166.132 15.8152C165.921 15.8152 165.741 15.7469 165.592 15.6104C165.449 15.4676 165.378 15.2907 165.378 15.0796C165.378 14.8685 165.449 14.6947 165.592 14.5581C165.741 14.4154 165.921 14.344 166.132 14.344C166.337 14.344 166.511 14.4154 166.653 14.5581C166.802 14.6947 166.877 14.8685 166.877 15.0796C166.877 15.2907 166.805 15.4676 166.663 15.6104C166.52 15.7469 166.343 15.8152 166.132 15.8152ZM168.981 26.7566V17.4448H170.285V18.7298C170.614 18.258 171.042 17.8824 171.57 17.6031C172.097 17.3237 172.671 17.1841 173.292 17.1841C173.652 17.1841 174 17.2306 174.335 17.3237L173.804 18.6181C173.544 18.5374 173.289 18.497 173.041 18.497C172.538 18.497 172.076 18.6212 171.653 18.8695C171.237 19.1178 170.905 19.4499 170.657 19.8659C170.409 20.2818 170.285 20.7443 170.285 21.2533V26.7566H168.981ZM182.683 12.7889H183.986V26.7566H182.683V25.0153C182.36 25.6112 181.916 26.0924 181.351 26.4586C180.792 26.8187 180.128 26.9987 179.358 26.9987C178.682 26.9987 178.048 26.8714 177.459 26.6169C176.869 26.3624 176.347 26.0116 175.894 25.5647C175.447 25.1115 175.097 24.59 174.842 24.0003C174.588 23.4106 174.46 22.7774 174.46 22.1007C174.46 21.424 174.588 20.7908 174.842 20.2011C175.097 19.6051 175.447 19.0837 175.894 18.6367C176.347 18.1835 176.869 17.8297 177.459 17.5752C178.048 17.3206 178.682 17.1934 179.358 17.1934C180.128 17.1934 180.792 17.3765 181.351 17.7428C181.916 18.1028 182.36 18.5777 182.683 19.1675V12.7889ZM179.368 25.7323C180.032 25.7323 180.603 25.5709 181.081 25.2481C181.559 24.9191 181.925 24.4783 182.18 23.9258C182.44 23.3733 182.571 22.7649 182.571 22.1007C182.571 21.4178 182.44 20.8032 182.18 20.257C181.919 19.7045 181.55 19.2668 181.072 18.944C180.594 18.6212 180.026 18.4598 179.368 18.4598C178.71 18.4598 178.111 18.6243 177.57 18.9533C177.03 19.2761 176.599 19.7138 176.276 20.2663C175.953 20.8188 175.792 21.4302 175.792 22.1007C175.792 22.7774 175.956 23.3919 176.285 23.9444C176.614 24.4907 177.049 24.9253 177.589 25.2481C178.135 25.5709 178.728 25.7323 179.368 25.7323ZM186.222 26.7566V17.4448H187.526V18.7298C187.855 18.258 188.283 17.8824 188.811 17.6031C189.339 17.3237 189.913 17.1841 190.534 17.1841C190.894 17.1841 191.241 17.2306 191.577 17.3237L191.046 18.6181C190.785 18.5374 190.531 18.497 190.282 18.497C189.779 18.497 189.317 18.6212 188.895 18.8695C188.479 19.1178 188.147 19.4499 187.898 19.8659C187.65 20.2818 187.526 20.7443 187.526 21.2533V26.7566H186.222ZM196.358 26.9987C195.501 26.9987 194.719 26.7783 194.011 26.3376C193.31 25.8968 192.748 25.3071 192.326 24.5683C191.91 23.8234 191.702 23.0008 191.702 22.1007C191.702 21.4178 191.823 20.7815 192.065 20.1918C192.307 19.5958 192.639 19.0744 193.061 18.6274C193.49 18.1742 193.986 17.8204 194.551 17.5658C195.116 17.3113 195.718 17.1841 196.358 17.1841C197.214 17.1841 197.993 17.4044 198.695 17.8452C199.403 18.286 199.964 18.8788 200.38 19.6238C200.802 20.3687 201.013 21.1943 201.013 22.1007C201.013 22.7774 200.892 23.4106 200.65 24.0003C200.408 24.59 200.073 25.1115 199.645 25.5647C199.222 26.0116 198.729 26.3624 198.164 26.6169C197.605 26.8714 197.003 26.9987 196.358 26.9987ZM196.358 25.695C196.991 25.695 197.559 25.5305 198.062 25.2015C198.571 24.8663 198.971 24.4255 199.263 23.8792C199.561 23.333 199.71 22.7401 199.71 22.1007C199.71 21.4489 199.561 20.8498 199.263 20.3035C198.965 19.751 198.561 19.3103 198.052 18.9812C197.549 18.6522 196.985 18.4877 196.358 18.4877C195.724 18.4877 195.153 18.6553 194.644 18.9906C194.141 19.3196 193.741 19.7572 193.443 20.3035C193.151 20.8498 193.005 21.4489 193.005 22.1007C193.005 22.7711 193.157 23.3795 193.462 23.9258C193.766 24.4659 194.172 24.8973 194.681 25.2201C195.19 25.5367 195.749 25.695 196.358 25.695ZM203.894 31.4125H202.591V17.4448H203.894V19.1861C204.217 18.5964 204.658 18.1183 205.217 17.7521C205.775 17.3858 206.44 17.2027 207.209 17.2027C207.886 17.2027 208.519 17.3299 209.109 17.5845C209.705 17.839 210.226 18.1928 210.673 18.646C211.12 19.093 211.471 19.6113 211.726 20.2011C211.98 20.7908 212.107 21.424 212.107 22.1007C212.107 22.7774 211.98 23.4137 211.726 24.0096C211.471 24.6056 211.12 25.1301 210.673 25.5833C210.226 26.0303 209.705 26.381 209.109 26.6355C208.519 26.8901 207.886 27.0173 207.209 27.0173C206.44 27.0173 205.775 26.8342 205.217 26.4679C204.658 26.1017 204.217 25.6237 203.894 25.0339V31.4125ZM207.2 18.4691C206.548 18.4691 205.98 18.6336 205.496 18.9626C205.018 19.2854 204.649 19.72 204.388 20.2663C204.127 20.8126 203.997 21.424 203.997 22.1007C203.997 22.7649 204.124 23.3733 204.379 23.9258C204.639 24.4783 205.009 24.9191 205.487 25.2481C205.971 25.5771 206.542 25.7416 207.2 25.7416C207.846 25.7416 208.438 25.5802 208.979 25.2574C209.525 24.9346 209.962 24.5 210.291 23.9537C210.621 23.4012 210.785 22.7836 210.785 22.1007C210.785 21.4365 210.624 20.8312 210.301 20.2849C209.978 19.7324 209.547 19.2916 209.006 18.9626C208.466 18.6336 207.864 18.4691 207.2 18.4691Z" fill="#10283C"/>
<g clip-path="url(#clip0_4561_242)">
<path d="M128.003 104.168C129.567 101.065 128.321 97.2811 125.217 95.7167C122.114 94.1527 118.329 95.3988 116.765 98.5033C115.201 101.606 116.447 105.39 119.552 106.955C122.655 108.519 126.439 107.273 128.003 104.168Z" fill="url(#paint3_linear_4561_242)"/>
<path d="M122.784 102.917C120.755 102.541 118.912 102.553 117.551 102.972L117.492 102.991C117.623 103.337 117.789 103.672 117.992 103.987L118.091 103.945C118.49 103.775 118.903 103.623 119.319 103.494C120.433 103.148 121.608 102.954 122.786 102.916L122.784 102.917Z" fill="#141416"/>
<path d="M117.53 99.3129C117.137 100.267 117.065 101.287 117.273 102.25L117.31 102.239C118.15 101.983 119.139 101.862 120.246 101.88C121.217 101.897 122.276 102.026 123.372 102.257L117.53 99.3129Z" fill="#141416"/>
<path d="M123.035 97.353C123.848 99.681 125.33 101.696 127.322 103.181C128.201 100.782 127.1 98.0142 124.681 96.7944C124.042 96.4719 123.371 96.289 122.703 96.2316C122.795 96.6094 122.908 96.9864 123.035 97.353Z" fill="#141416"/>
<path d="M120.828 96.4743C121.3 97.8176 122.385 99.3063 123.894 100.715C123.225 99.7453 122.682 98.6862 122.297 97.5833C122.154 97.1732 122.031 96.7529 121.929 96.3289L121.904 96.2238C121.529 96.2482 121.161 96.3137 120.806 96.4139L120.826 96.4739L120.828 96.4743Z" fill="#141416"/>
<path d="M119.571 104.226C119.2 104.341 118.831 104.476 118.472 104.627C118.915 105.129 119.462 105.56 120.101 105.881C122.52 107.101 125.4 106.341 126.808 104.206C124.43 103.488 121.926 103.495 119.572 104.225L119.571 104.226Z" fill="#141416"/>
<path d="M121.552 99.2903C120.877 98.4113 120.387 97.546 120.093 96.7176L120.08 96.6797C119.183 97.0858 118.406 97.7509 117.873 98.6341L123.713 101.578C122.875 100.835 122.142 100.061 121.551 99.2885L121.552 99.2903Z" fill="#141416"/>
<path d="M137.063 94.808C136.563 91.3691 133.371 88.9861 129.932 89.486C126.493 89.9858 124.11 93.1786 124.61 96.6175C125.109 100.056 128.302 102.439 131.741 101.94C135.18 101.44 137.563 98.2469 137.063 94.808Z" fill="url(#paint4_linear_4561_242)"/>
<path d="M132.073 96.7803C130.194 97.6358 128.692 98.7048 127.82 99.8282L127.781 99.8788C128.088 100.087 128.416 100.266 128.763 100.407L128.82 100.316C129.05 99.9484 129.301 99.5878 129.566 99.2435C130.281 98.3198 131.13 97.4869 132.074 96.7807L132.073 96.7803Z" fill="#141416"/>
<path d="M125.702 96.8452C125.929 97.8524 126.455 98.729 127.177 99.3987L127.201 99.3677C127.742 98.6756 128.481 98.0099 129.399 97.389C130.204 96.8455 131.145 96.3417 132.176 95.9041L125.702 96.8452Z" fill="#141416"/>
<path d="M129.085 92.08C131.086 93.5189 133.459 94.3185 135.943 94.3922C135.286 91.9219 132.795 90.2892 130.114 90.6781C129.406 90.7803 128.751 91.0156 128.171 91.3524C128.464 91.6073 128.773 91.854 129.087 92.0804L129.085 92.08Z" fill="#141416"/>
<path d="M126.773 92.6284C127.93 93.457 129.674 94.054 131.718 94.3394C130.613 93.9293 129.561 93.374 128.614 92.6924C128.262 92.4387 127.918 92.1654 127.593 91.8766L127.512 91.805C127.219 92.0405 126.955 92.304 126.722 92.5914L126.773 92.6284Z" fill="#141416"/>
<path d="M130.194 99.6964C129.957 100.003 129.73 100.326 129.524 100.654C130.175 100.811 130.871 100.849 131.578 100.747C134.259 100.358 136.181 98.0815 136.108 95.5255C133.748 96.3019 131.702 97.7452 130.193 99.6946L130.194 99.6964Z" fill="#141416"/>
<path d="M128.982 94.5188C127.925 94.1855 127.028 93.7577 126.311 93.2486L126.278 93.2258C125.776 94.0736 125.522 95.0644 125.593 96.0939L132.064 95.1525C130.952 95.0247 129.908 94.8107 128.979 94.518L128.982 94.5188Z" fill="#141416"/>
<path d="M138.146 103.633C137.646 100.195 134.453 97.8115 131.014 98.3114C127.575 98.8113 125.192 102.004 125.692 105.443C126.192 108.882 129.385 111.265 132.824 110.765C136.262 110.265 138.646 107.072 138.146 103.633Z" fill="url(#paint5_linear_4561_242)"/>
<path d="M133.155 105.606C131.276 106.461 129.775 107.53 128.902 108.654L128.864 108.704C129.17 108.913 129.499 109.091 129.845 109.233L129.902 109.142C130.132 108.774 130.383 108.413 130.649 108.069C131.363 107.145 132.213 106.312 133.156 105.606L133.155 105.606Z" fill="#141416"/>
<path d="M126.785 105.668C127.012 106.675 127.537 107.552 128.259 108.222L128.283 108.191C128.825 107.499 129.564 106.833 130.481 106.212C131.286 105.669 132.227 105.165 133.258 104.727L126.785 105.668Z" fill="#141416"/>
<path d="M130.168 100.905C132.169 102.344 134.541 103.144 137.025 103.218C136.369 100.747 133.878 99.1146 131.196 99.5035C130.488 99.6058 129.833 99.841 129.254 100.178C129.546 100.433 129.855 100.679 130.169 100.906L130.168 100.905Z" fill="#141416"/>
<path d="M127.853 101.452C129.011 102.281 130.755 102.878 132.799 103.163C131.694 102.753 130.642 102.198 129.695 101.516C129.343 101.262 128.999 100.989 128.673 100.7L128.593 100.629C128.3 100.864 128.036 101.128 127.802 101.415L127.853 101.452Z" fill="#141416"/>
<path d="M131.275 108.521C131.038 108.828 130.811 109.151 130.604 109.479C131.256 109.636 131.951 109.674 132.658 109.571C135.34 109.182 137.261 106.906 137.189 104.35C134.829 105.127 132.783 106.57 131.274 108.519L131.275 108.521Z" fill="#141416"/>
<path d="M130.063 103.343C129.006 103.01 128.108 102.582 127.392 102.073L127.359 102.05C126.857 102.898 126.602 103.889 126.673 104.918L133.145 103.977C132.033 103.849 130.989 103.635 130.06 103.342L130.063 103.343Z" fill="#141416"/>
<path d="M154.935 100.331C154.435 96.8918 151.242 94.5088 147.803 95.0087C144.364 95.5085 141.981 98.7013 142.481 102.14C142.981 105.579 146.174 107.962 149.613 107.462C153.052 106.962 155.435 103.77 154.935 100.331Z" fill="url(#paint6_linear_4561_242)"/>
<path d="M149.944 102.304C148.066 103.159 146.564 104.228 145.691 105.352L145.653 105.402C145.959 105.611 146.288 105.79 146.634 105.931L146.691 105.84C146.921 105.472 147.172 105.111 147.438 104.767C148.153 103.843 149.002 103.011 149.946 102.304L149.944 102.304Z" fill="#141416"/>
<path d="M143.572 102.366C143.799 103.374 144.325 104.25 145.047 104.92L145.071 104.889C145.612 104.197 146.351 103.531 147.269 102.91C148.074 102.367 149.015 101.863 150.046 101.425L143.572 102.366Z" fill="#141416"/>
<path d="M146.957 97.6012C148.958 99.0401 151.33 99.8398 153.814 99.9134C153.158 97.4431 150.667 95.8104 147.986 96.1993C147.277 96.3016 146.622 96.5369 146.043 96.8737C146.336 97.1285 146.644 97.3753 146.959 97.6016L146.957 97.6012Z" fill="#141416"/>
<path d="M144.643 98.1497C145.8 98.9783 147.544 99.5752 149.588 99.8607C148.483 99.4505 147.431 98.8952 146.484 98.2136C146.132 97.9599 145.788 97.6866 145.463 97.3979L145.382 97.3263C145.089 97.5618 144.825 97.8252 144.592 98.1126L144.643 98.1497Z" fill="#141416"/>
<path d="M148.064 105.219C147.827 105.526 147.6 105.849 147.394 106.177C148.045 106.334 148.741 106.372 149.448 106.27C152.129 105.881 154.051 103.604 153.978 101.048C151.618 101.825 149.572 103.268 148.063 105.218L148.064 105.219Z" fill="#141416"/>
<path d="M146.852 100.04C145.795 99.7065 144.898 99.2786 144.181 98.7696L144.148 98.7467C143.646 99.5946 143.392 100.585 143.463 101.615L149.934 100.674C148.822 100.546 147.778 100.332 146.849 100.039L146.852 100.04Z" fill="#141416"/>
<path d="M156.953 115.116C159.356 112.607 159.271 108.623 156.76 106.219C154.249 103.816 150.267 103.902 147.863 106.413C145.46 108.922 145.546 112.906 148.057 115.309C150.566 117.712 154.55 117.627 156.953 115.116Z" fill="url(#paint7_linear_4561_242)"/>
<path d="M152.328 112.396C150.497 111.441 148.731 110.915 147.307 110.918L147.244 110.918C147.269 111.287 147.329 111.656 147.432 112.018L147.54 112.006C147.972 111.961 148.41 111.937 148.846 111.935C150.014 111.931 151.193 112.087 152.33 112.397L152.328 112.396Z" fill="#141416"/>
<path d="M148.358 107.412C147.704 108.21 147.336 109.164 147.253 110.146L147.292 110.145C148.171 110.146 149.151 110.318 150.204 110.662C151.127 110.962 152.104 111.394 153.083 111.936L148.358 107.412Z" fill="#141416"/>
<path d="M154.196 107.147C154.292 109.611 155.122 111.971 156.592 113.974C158.135 111.937 157.89 108.968 155.933 107.094C155.416 106.599 154.829 106.228 154.207 105.977C154.186 106.365 154.182 106.759 154.197 107.146L154.196 107.147Z" fill="#141416"/>
<path d="M152.342 105.662C152.401 107.085 153.003 108.825 154.035 110.614C153.679 109.49 153.469 108.319 153.424 107.153C153.407 106.72 153.413 106.281 153.439 105.845L153.446 105.737C153.08 105.65 152.71 105.606 152.34 105.599L152.342 105.662Z" fill="#141416"/>
<path d="M148.872 112.705C148.484 112.708 148.09 112.727 147.705 112.766C147.982 113.376 148.379 113.948 148.896 114.442C150.852 116.316 153.83 116.431 155.8 114.802C153.735 113.42 151.34 112.694 148.874 112.704L148.872 112.705Z" fill="#141416"/>
<path d="M152.209 108.566C151.821 107.528 151.605 106.557 151.567 105.679L151.565 105.64C150.588 105.767 149.651 106.175 148.882 106.864L153.605 111.388C153.02 110.433 152.547 109.477 152.207 108.566L152.209 108.566Z" fill="#141416"/>
<path d="M114.876 106.41C114.714 106.367 114.581 106.239 114.54 106.064L103.668 59.6587C103.609 59.407 103.766 59.1553 104.017 59.0962C104.27 59.0375 104.521 59.1936 104.58 59.4453L115.452 105.851C115.511 106.103 115.355 106.354 115.103 106.413C115.025 106.431 114.947 106.429 114.876 106.41Z" fill="black"/>
<path d="M155.474 117.289C155.403 117.27 155.335 117.233 155.276 117.178C155.088 117.001 155.078 116.705 155.255 116.516L187.874 81.764C188.051 81.5756 188.343 81.5633 188.535 81.743C188.724 81.92 188.733 82.2162 188.556 82.4046L155.938 117.157C155.816 117.287 155.636 117.332 155.474 117.289Z" fill="black"/>
<path d="M189.015 82.0761C188.374 84.469 168.676 81.2886 145.032 74.9532C121.388 68.6178 102.725 61.5193 103.366 59.1265C103.709 57.847 109.388 58.1427 118.181 59.6443C123.442 60.5387 129.81 61.8732 136.812 63.5558C140.193 64.3647 143.742 65.2672 147.369 66.2391C150.996 67.211 154.506 68.2 157.852 69.1935C164.757 71.2371 170.94 73.2643 175.944 75.1219C184.293 78.2134 189.359 80.797 189.017 82.0765L189.015 82.0761Z" fill="#737578"/>
<path d="M163.035 79.8272C162.796 79.7632 162.645 79.5213 162.7 79.2752C162.755 79.0229 163.004 78.8631 163.256 78.9183C181.095 82.8047 188.246 82.8434 188.563 81.9536C188.567 81.939 188.609 80.3105 175.779 75.559C170.789 73.7082 164.543 71.6614 157.718 69.6403C151.035 67.656 143.424 65.6165 136.701 64.0089C129.779 62.3448 123.347 60.9945 118.1 60.1041C104.598 57.7997 103.821 59.2315 103.817 59.246C103.711 59.8221 107.383 62.7709 125.044 68.556C125.29 68.6358 125.424 68.9012 125.344 69.1469C125.262 69.3922 124.976 69.5264 124.753 69.4462C114.42 66.0622 102.244 61.5032 102.913 59.0054C103.084 58.3671 103.539 56.6709 118.258 59.1827C123.524 60.0767 129.978 61.4329 136.919 63.1006C143.658 64.714 151.285 66.7563 157.983 68.7445C164.829 70.771 171.095 72.8248 176.104 74.6825C190.091 79.8626 189.637 81.5589 189.466 82.1972C188.719 84.9835 172.599 81.912 163.057 79.8331C163.049 79.8311 163.042 79.8292 163.035 79.8272Z" fill="black"/>
<path d="M128.361 110.024C128.142 109.965 127.994 109.755 128.017 109.523L133.034 61.608C133.061 61.3511 133.29 61.1643 133.548 61.1928C133.798 61.2161 133.99 61.4487 133.963 61.707L128.948 109.622C128.921 109.879 128.69 110.065 128.434 110.037C128.409 110.035 128.384 110.03 128.361 110.024Z" fill="black"/>
<path d="M189.022 82.0713C189.364 80.7948 184.296 78.2093 175.942 75.118C170.939 73.2604 164.755 71.2285 157.851 69.1849C154.5 68.1964 150.993 67.2053 147.368 66.2338C143.742 65.2623 140.198 64.3643 136.814 63.548C129.813 61.8658 123.441 60.5334 118.179 59.6405C109.387 58.1374 103.706 57.8413 103.364 59.1193C103.787 57.5411 104.273 56.0174 104.83 54.5143C106.979 48.7613 110.082 43.6403 113.919 39.2954C118.923 33.5843 125.145 29.2085 131.989 26.5614C140.232 23.3582 149.401 22.6381 158.403 25.0501C170.417 28.2691 179.874 36.4464 185.373 47.0115C190.705 57.2353 192.338 69.6962 189.022 82.0699L189.022 82.0713Z" fill="#FE515E"/>
<path d="M189.022 82.0713C189.364 80.7948 184.296 78.2093 175.942 75.118C170.939 73.2604 164.755 71.2285 157.851 69.1849C154.5 68.1964 150.993 67.2053 147.368 66.2338C143.742 65.2623 140.198 64.3643 136.814 63.548C129.813 61.8658 123.441 60.5334 118.179 59.6405C109.387 58.1374 103.706 57.8413 103.364 59.1193C103.787 57.5411 104.273 56.0174 104.83 54.5143C106.979 48.7613 110.082 43.6403 113.919 39.2954C118.923 33.5843 125.145 29.2085 131.989 26.5614C140.232 23.3582 149.401 22.6381 158.403 25.0501C170.417 28.2691 179.874 36.4464 185.373 47.0115C190.705 57.2353 192.338 69.6962 189.022 82.0699L189.022 82.0713Z" fill="url(#paint8_linear_4561_242)"/>
<path d="M130.477 29.6945C129.203 30.3482 127.53 29.9903 126.397 30.8489C125.229 31.7372 125.059 33.6281 123.752 34.2605C123.218 34.5172 122.613 34.5114 122.064 34.725C121.202 35.0501 120.619 35.8747 120.247 36.731C119.879 37.5757 119.673 38.4889 119.246 39.3161C118.832 40.1348 118.123 40.9005 117.217 41.0576C116.201 41.2367 115.209 40.6491 114.477 39.9097C114.284 39.7157 114.094 39.5102 113.919 39.2946C118.923 33.5835 125.145 29.2077 131.989 26.5606C132.123 27.7976 131.578 29.1102 130.478 29.6948L130.477 29.6945Z" fill="#FFECD4"/>
<path d="M116.114 46.4391C114.567 46.0248 113.312 44.9933 112.203 44.0824C111.948 43.8641 111.691 43.6548 111.435 43.4441L110.911 43.0115C110.713 42.8461 110.686 42.5514 110.852 42.3521C111.018 42.1529 111.314 42.1294 111.511 42.293L112.031 42.7211C112.29 42.9344 112.55 43.1478 112.805 43.3643C113.843 44.2173 115.004 45.1517 116.4 45.5459C117.566 45.8583 119.155 45.5937 119.811 44.4889C120.161 43.9078 120.23 43.1939 120.302 42.4383L120.353 41.9305C120.531 40.5505 121.032 39.6195 121.842 39.1618C122.534 38.7756 123.281 38.8135 124.006 38.8483C124.566 38.8764 125.093 38.9021 125.535 38.7269C126.561 38.3083 126.911 36.8808 127.084 35.8433C127.29 34.6069 127.571 32.9139 128.916 32.1139C129.613 31.6978 130.388 31.6556 131.136 31.6154C131.616 31.5895 132.07 31.5642 132.485 31.4442C134.124 30.9605 134.909 29.0059 134.836 27.3261C134.821 26.7754 134.721 26.238 134.535 25.6756C134.505 25.5881 134.503 25.4954 134.527 25.4065C134.594 25.1574 134.852 25.0032 135.101 25.07C135.287 25.1196 135.418 25.2704 135.444 25.4461C135.646 26.0735 135.753 26.6769 135.771 27.2924C135.859 29.3293 134.85 31.7218 132.747 32.3422C132.229 32.4924 131.699 32.5222 131.187 32.5491C130.522 32.5848 129.894 32.6196 129.396 32.9172C128.498 33.4514 128.227 34.6783 128.007 35.9967C127.796 37.2554 127.346 38.9968 125.885 39.5939C125.251 39.8457 124.596 39.8138 123.96 39.7826C123.341 39.7509 122.757 39.7225 122.301 39.9768C121.764 40.281 121.42 40.9761 121.282 42.042L121.232 42.5268C121.153 43.3536 121.071 44.2078 120.613 44.9675C119.705 46.497 117.663 46.8341 116.115 46.4381L116.114 46.4391Z" fill="#FFECD4"/>
<path d="M189.022 82.0715C189.364 80.795 184.297 78.2095 175.943 75.1182C177.484 68.1577 177.938 61.357 177.428 55.1118C180.522 54.5069 183.239 51.9814 184.596 49.0385C184.904 48.3714 185.159 47.7042 185.371 47.0128C190.704 57.2366 192.336 69.6975 189.021 82.0711L189.022 82.0715Z" fill="#F83B4D"/>
<path d="M189.022 82.0715C189.364 80.795 184.297 78.2095 175.943 75.1182C177.484 68.1577 177.938 61.357 177.428 55.1118C180.522 54.5069 183.239 51.9814 184.596 49.0385C184.904 48.3714 185.159 47.7042 185.371 47.0128C190.704 57.2366 192.336 69.6975 189.021 82.0711L189.022 82.0715Z" fill="url(#paint9_linear_4561_242)"/>
<path d="M175.942 75.1185C170.938 73.2609 164.754 71.229 157.85 69.1854C154.499 68.1969 150.993 67.2058 147.367 66.2343C143.741 65.2628 140.197 64.3648 136.813 63.5485C129.812 61.8663 123.44 60.5338 118.179 59.641C118.777 57.7473 119.439 55.8975 120.175 54.1189C128.378 33.9114 144.34 21.2825 158.402 25.0506C169.259 27.9596 176.2 39.892 177.429 55.1124C177.937 61.3573 177.485 68.1583 175.943 75.1189L175.942 75.1185Z" fill="#E1E5EB"/>
<path d="M175.942 75.1184C170.939 73.2608 164.755 71.2289 157.851 69.1852C158.943 64.725 159.839 60.4199 160.538 56.3575C162.229 54.7706 163.894 53.1364 166.096 52.8236C169.224 52.3825 172.032 54.814 175.17 55.2035C175.93 55.3041 176.691 55.2627 177.428 55.1119C177.937 61.3568 177.484 68.1578 175.942 75.1184Z" fill="#C9CCD1"/>
<path d="M139.643 54.6216C138.659 57.4709 137.708 60.4444 136.812 63.5484C129.811 61.8662 123.439 60.5337 118.177 59.6409C118.775 57.7472 119.438 55.8974 120.174 54.1188C121.587 53.904 123.017 53.8732 124.413 54.2081C127.043 54.8488 129.342 56.7301 132.032 56.8573C134.684 56.9868 137.113 55.39 139.644 54.622L139.643 54.6216Z" fill="#C9CCD1"/>
<path d="M157.85 69.1869C154.499 68.1984 150.993 67.2073 147.367 66.2358C143.742 65.2644 140.198 64.3663 136.813 63.55C137.709 60.4446 138.662 57.4714 139.644 54.6232C145.962 36.2973 153.63 23.7718 158.403 25.0506C162.861 26.2451 163.485 39.1465 160.539 56.3595C159.839 60.4201 158.942 64.7267 157.852 69.1873L157.85 69.1869Z" fill="#FE515E"/>
<path d="M157.85 69.1869C154.499 68.1984 150.993 67.2073 147.367 66.2358C143.742 65.2644 140.198 64.3663 136.813 63.55C137.709 60.4446 138.662 57.4714 139.644 54.6232C145.962 36.2973 153.63 23.7718 158.403 25.0506C162.861 26.2451 163.485 39.1465 160.539 56.3595C159.839 60.4201 158.942 64.7267 157.852 69.1873L157.85 69.1869Z" fill="url(#paint10_linear_4561_242)"/>
<path d="M157.851 69.1866C154.5 68.1982 150.993 67.2071 147.368 66.2356C143.742 65.2641 140.198 64.3661 136.814 63.5498C137.71 60.4443 138.663 57.4712 139.644 54.623C140.576 54.3305 141.526 54.1587 142.49 54.2233C147.203 54.5177 150.61 60.2086 155.299 59.5797C157.377 59.2978 158.965 57.8508 160.539 56.3607C159.839 60.4213 158.942 64.7278 157.852 69.1885L157.851 69.1866Z" fill="#F83B4D"/>
<path d="M157.851 69.1866C154.5 68.1982 150.993 67.2071 147.368 66.2356C143.742 65.2641 140.198 64.3661 136.814 63.5498C137.71 60.4443 138.663 57.4712 139.644 54.623C140.576 54.3305 141.526 54.1587 142.49 54.2233C147.203 54.5177 150.61 60.2086 155.299 59.5797C157.377 59.2978 158.965 57.8508 160.539 56.3607C159.839 60.4213 158.942 64.7278 157.852 69.1885L157.851 69.1866Z" fill="url(#paint11_linear_4561_242)"/>
<path d="M188.901 82.5239C188.652 82.4571 188.504 82.2003 188.57 81.9511C188.575 81.935 188.616 80.3061 175.781 75.5582C170.769 73.6982 164.524 71.6499 157.72 69.6347C150.717 67.5693 143.751 65.7042 136.705 64.0037C129.806 62.3459 123.372 60.9966 118.101 60.1029C104.599 57.7938 103.82 59.2251 103.816 59.2412C103.749 59.4904 103.492 59.6386 103.243 59.5719C102.994 59.5051 102.846 59.2483 102.912 58.9991L102.915 58.9903C103.342 57.3975 103.824 55.8807 104.392 54.3521C112.947 31.4136 136.218 18.6221 158.524 24.5991C165.851 26.5624 172.56 30.4856 177.925 35.9419C178.105 36.1261 178.104 36.4225 177.919 36.6042C177.735 36.7844 177.438 36.7831 177.257 36.5985C172.009 31.2595 165.448 27.4226 158.282 25.5026C136.445 19.6514 113.653 32.1947 105.268 54.679C104.852 55.8014 104.481 56.9172 104.146 58.0628C105.727 57.6774 109.421 57.6692 118.258 59.1811C123.549 60.0803 130.002 61.4332 136.923 63.0954C143.987 64.8006 150.965 66.6706 157.983 68.7385C164.808 70.7592 171.075 72.8148 176.105 74.6813C184.502 77.7872 187.698 79.6415 188.873 80.7653C189.997 76.1201 190.447 71.3849 190.209 66.6742C190.196 66.4164 190.394 66.1961 190.652 66.184C190.909 66.1715 191.13 66.3699 191.143 66.6277C191.406 71.8354 190.846 77.0709 189.475 82.1873L189.473 82.1961C189.406 82.4453 189.15 82.5936 188.9 82.5268L188.901 82.5239Z" fill="black"/>
<path d="M157.02 60.2473C156.197 60.0267 155.34 60.2219 154.635 60.7202C153.92 61.2176 153.35 62.0051 153.089 62.9785C153.611 61.0316 152.706 59.0915 151.061 58.6506C151.884 58.8713 152.731 58.6732 153.444 58.1879C154.149 57.6881 154.719 56.9007 154.98 55.9272C154.719 56.9007 154.82 57.8678 155.189 58.6557C155.554 59.4296 156.198 60.0271 157.021 60.2477L157.02 60.2473Z" fill="#FFECD4"/>
<path d="M153.701 32.4613C154.487 32.9064 154.026 35.1976 152.945 37.7115C151.853 40.2193 150.498 42.124 149.634 41.8551C148.784 41.5931 148.796 39.1066 149.964 36.4207C151.124 33.731 152.927 32.0212 153.701 32.4613Z" fill="#FFECD4"/>
<path d="M156.037 28.5624C156.366 28.7802 156.239 29.5381 155.789 30.2749C155.335 31.0109 154.71 31.4604 154.372 31.2666C154.032 31.0724 154.115 30.2888 154.582 29.5315C155.046 28.7719 155.713 28.3476 156.035 28.562L156.037 28.5624Z" fill="#FFECD4"/>
<path d="M147.294 98.1272C147.891 94.7042 145.601 91.4434 142.177 90.846C138.753 90.2486 135.493 92.5381 134.896 95.9626C134.299 99.3856 136.588 102.646 140.012 103.244C143.435 103.841 146.696 101.552 147.294 98.1272Z" fill="url(#paint12_linear_4561_242)"/>
<path d="M141.937 98.4442C139.885 98.6721 138.125 99.2189 136.945 100.013L136.893 100.049C137.119 100.343 137.376 100.614 137.661 100.858L137.743 100.789C138.077 100.51 138.427 100.246 138.788 100.003C139.755 99.348 140.822 98.8218 141.939 98.4446L141.937 98.4442Z" fill="#141416"/>
<path d="M135.865 96.5169C135.766 97.5446 135.991 98.5405 136.469 99.4027L136.502 99.3802C137.232 98.8919 138.142 98.4889 139.208 98.1873C140.143 97.9224 141.194 97.7369 142.309 97.6423L135.865 96.5169Z" fill="#141416"/>
<path d="M140.567 93.0463C142.02 95.0381 144.023 96.5386 146.361 97.3819C146.507 94.83 144.651 92.502 141.981 92.0351C141.277 91.912 140.581 91.9318 139.924 92.0697C140.122 92.4039 140.339 92.7336 140.567 93.0463Z" fill="#141416"/>
<path d="M138.198 92.8456C139.04 93.9943 140.51 95.1052 142.362 96.0154C141.441 95.2811 140.614 94.4255 139.927 93.4822C139.67 93.1324 139.43 92.765 139.211 92.3877L139.156 92.2949C138.805 92.4273 138.471 92.5955 138.16 92.7949L138.196 92.8452L138.198 92.8456Z" fill="#141416"/>
<path d="M139.242 100.627C138.921 100.844 138.605 101.081 138.306 101.327C138.876 101.68 139.525 101.933 140.229 102.056C142.898 102.523 145.433 100.96 146.162 98.509C143.676 98.5114 141.282 99.243 139.241 100.625L139.242 100.627Z" fill="#141416"/>
<path d="M139.707 95.3301C138.807 94.6844 138.087 93.9978 137.566 93.2897L137.543 93.2585C136.802 93.9081 136.251 94.7694 135.996 95.7693L142.438 96.8944C141.422 96.4268 140.495 95.8974 139.706 95.3297L139.707 95.3301Z" fill="#141416"/>
<path d="M146.017 111.676C148.151 108.933 147.658 104.979 144.914 102.844C142.172 100.71 138.218 101.203 136.083 103.947C133.949 106.689 134.442 110.644 137.186 112.778C139.928 114.912 143.882 114.419 146.017 111.676Z" fill="url(#paint13_linear_4561_242)"/>
<path d="M141.139 109.442C139.22 108.68 137.409 108.339 135.994 108.486L135.931 108.492C135.993 108.857 136.091 109.218 136.23 109.567L136.336 109.546C136.762 109.457 137.196 109.387 137.628 109.341C138.789 109.216 139.979 109.252 141.142 109.443L141.139 109.442Z" fill="#141416"/>
<path d="M136.679 104.892C136.11 105.753 135.843 106.738 135.86 107.724L135.898 107.72C136.773 107.631 137.764 107.703 138.848 107.936C139.798 108.14 140.812 108.47 141.842 108.91L136.679 104.893L136.679 104.892Z" fill="#141416"/>
<path d="M142.461 104.032C142.809 106.473 143.874 108.737 145.543 110.579C146.869 108.394 146.323 105.466 144.184 103.803C143.619 103.364 142.996 103.054 142.352 102.869C142.37 103.256 142.407 103.649 142.462 104.032L142.461 104.032Z" fill="#141416"/>
<path d="M140.462 102.744C140.666 104.152 141.445 105.823 142.653 107.496C142.184 106.415 141.856 105.272 141.691 104.116C141.629 103.687 141.589 103.25 141.571 102.814L141.567 102.707C141.194 102.659 140.822 102.651 140.453 102.682L140.461 102.743L140.462 102.744Z" fill="#141416"/>
<path d="M137.733 110.106C137.347 110.148 136.958 110.208 136.578 110.287C136.915 110.865 137.37 111.394 137.935 111.833C140.072 113.496 143.045 113.307 144.838 111.483C142.643 110.319 140.186 109.843 137.734 110.105L137.733 110.106Z" fill="#141416"/>
<path d="M140.629 105.647C140.137 104.654 139.823 103.709 139.695 102.841L139.69 102.802C138.731 103.028 137.841 103.53 137.146 104.293L142.308 108.31C141.63 107.419 141.06 106.518 140.629 105.645L140.629 105.647Z" fill="#141416"/>
<path d="M141.5 113.543C141.476 113.537 141.452 113.529 141.43 113.518C141.194 113.413 141.087 113.136 141.192 112.902L160.806 68.8982C160.912 68.661 161.196 68.5574 161.423 68.6604C161.659 68.7658 161.766 69.0428 161.661 69.2771L142.048 113.281C141.953 113.494 141.718 113.602 141.5 113.543Z" fill="black"/>
<path d="M158.111 117.375L151.576 141.762C150.827 144.557 147.952 146.228 145.144 145.476L109.658 135.968C106.863 135.219 105.207 132.334 105.956 129.539L112.491 105.151L158.109 117.375L158.111 117.375Z" fill="#141416"/>
<path d="M158.111 117.375L151.576 141.762C150.827 144.557 147.952 146.228 145.144 145.476L109.658 135.968C106.863 135.219 105.207 132.334 105.956 129.539L112.491 105.151L158.109 117.375L158.111 117.375Z" fill="#FFCB67" fill-opacity="0.9"/>
<path d="M123.113 111.202C121.771 111.874 119.92 111.456 118.881 112.534C118.487 112.945 118.299 113.501 118.037 113.999C117.784 114.512 117.394 115.001 116.835 115.111C116.191 115.248 115.536 114.802 114.889 114.899C113.882 115.043 113.505 116.259 112.952 117.118C112.246 118.208 110.968 118.885 109.685 118.851C109.404 118.839 109.117 118.802 108.852 118.731L112.491 105.15L124.782 108.444C124.697 109.583 124.13 110.684 123.114 111.2L123.113 111.202Z" fill="#FE9A4C"/>
<path d="M108.757 125.421C108.211 125.275 107.659 125.032 107.117 124.698C106.897 124.562 106.829 124.274 106.965 124.054C107.1 123.834 107.389 123.764 107.609 123.901C108.507 124.456 109.413 124.711 110.232 124.639C111.291 124.54 112.226 123.858 112.502 122.982C112.577 122.74 112.615 122.482 112.655 122.223C112.751 121.598 112.859 120.89 113.433 120.414C114.102 119.876 115.086 119.896 116.213 120.461L116.448 120.577C117.056 120.877 117.631 121.162 118.155 121.033C119.001 120.811 119.303 119.635 119.404 118.689C119.523 117.563 119.687 116.02 120.893 115.337C121.64 114.916 122.578 114.941 123.75 115.411C123.927 115.485 124.096 115.562 124.266 115.638C124.851 115.9 125.406 116.152 125.978 116.172C127.281 116.228 128.368 115.071 128.769 113.898C129.182 112.654 129.095 111.341 128.938 109.754C128.937 109.747 128.936 109.743 128.935 109.737C128.887 109.537 128.976 109.322 129.166 109.218C129.393 109.093 129.676 109.179 129.8 109.404C129.825 109.45 129.844 109.514 129.855 109.572C129.86 109.593 129.864 109.615 129.866 109.636C130.001 110.981 130.168 112.653 129.656 114.196C129.158 115.654 127.784 117.185 125.941 117.107C125.189 117.076 124.527 116.78 123.884 116.49C123.723 116.417 123.561 116.344 123.399 116.278C122.509 115.922 121.839 115.88 121.356 116.152C120.628 116.564 120.464 117.59 120.338 118.789C120.094 121.035 119.144 121.743 118.389 121.94C117.529 122.155 116.736 121.763 116.037 121.418L115.802 121.303C115.432 121.115 114.533 120.735 114.028 121.14C113.732 121.386 113.664 121.839 113.582 122.366C113.535 122.67 113.486 122.979 113.396 123.264C113.005 124.509 111.769 125.436 110.318 125.571C109.814 125.615 109.289 125.564 108.76 125.422L108.757 125.421Z" fill="#FFECD4"/>
<path d="M156.69 122.677L151.576 141.763C150.827 144.558 147.952 146.229 145.144 145.476L109.658 135.968C106.863 135.219 105.207 132.334 105.956 129.539L105.963 129.514C107.911 132.076 111.732 133.242 114.681 131.824C117.17 130.631 119.012 127.947 121.78 127.696C124.456 127.444 126.668 129.599 128.628 131.442C130.585 133.297 133.271 135.128 135.763 134.116C137.496 133.431 138.447 131.619 139.373 129.995C140.295 128.382 141.568 126.67 143.42 126.456C145.991 126.164 148.225 128.957 150.774 128.505C152.534 128.202 153.628 126.48 154.609 124.987C155.171 124.143 155.86 123.256 156.687 122.676L156.69 122.677Z" fill="#141416"/>
<path d="M156.69 122.677L151.576 141.763C150.827 144.558 147.952 146.229 145.144 145.476L109.658 135.968C106.863 135.219 105.207 132.334 105.956 129.539L105.963 129.514C107.911 132.076 111.732 133.242 114.681 131.824C117.17 130.631 119.012 127.947 121.78 127.696C124.456 127.444 126.668 129.599 128.628 131.442C130.585 133.297 133.271 135.128 135.763 134.116C137.496 133.431 138.447 131.619 139.373 129.995C140.295 128.382 141.568 126.67 143.42 126.456C145.991 126.164 148.225 128.957 150.774 128.505C152.534 128.202 153.628 126.48 154.609 124.987C155.171 124.143 155.86 123.256 156.687 122.676L156.69 122.677Z" fill="#FE9A4C" fill-opacity="0.5"/>
<path d="M133.387 142.81L109.538 136.42C106.498 135.605 104.689 132.464 105.505 129.418L112.04 105.031C112.106 104.782 112.363 104.633 112.613 104.7L158.231 116.924C158.48 116.99 158.628 117.247 158.561 117.496L153.904 134.877C153.838 135.126 153.581 135.275 153.331 135.208C153.082 135.141 152.934 134.884 153.001 134.635L157.537 117.706L112.822 105.725L106.409 129.66C105.726 132.209 107.238 134.835 109.78 135.516L133.629 141.907C133.879 141.974 134.027 142.23 133.96 142.48C133.893 142.729 133.636 142.877 133.387 142.81Z" fill="black"/>
<path d="M156.588 121.242L111.875 109.261C109.944 108.744 108.799 106.76 109.316 104.829C109.833 102.898 111.818 101.752 113.749 102.27L158.462 114.25C160.393 114.768 161.539 116.752 161.021 118.683C160.504 120.614 158.519 121.76 156.588 121.242Z" fill="#997951"/>
<path d="M142.101 130.957C141.278 130.736 140.421 130.931 139.716 131.429C139.001 131.927 138.431 132.714 138.17 133.688C138.692 131.741 137.787 129.801 136.142 129.36C136.966 129.58 137.812 129.382 138.525 128.897C139.23 128.397 139.8 127.61 140.061 126.636C139.8 127.61 139.901 128.577 140.27 129.365C140.635 130.139 141.279 130.736 142.102 130.957L142.101 130.957Z" fill="#FFECD4"/>
<path d="M144.309 126.513C143.936 126.413 143.547 126.501 143.225 126.729C142.901 126.954 142.642 127.313 142.524 127.754C142.761 126.87 142.351 125.988 141.603 125.788C141.976 125.888 142.362 125.799 142.685 125.578C143.005 125.352 143.265 124.993 143.384 124.552C143.265 124.995 143.31 125.433 143.478 125.791C143.643 126.143 143.936 126.413 144.311 126.514L144.309 126.513Z" fill="#FFECD4"/>
<path d="M137.781 119.235C137.5 120.088 135.369 120.182 132.899 119.655C130.421 119.12 128.482 118.04 128.651 117.151C128.818 116.278 131.01 115.925 133.593 116.481C136.186 117.034 138.065 118.384 137.783 119.234L137.781 119.235Z" fill="#FFECD4"/>
<path d="M141.676 120.679C141.511 121.039 140.807 121.061 140.077 120.781C139.349 120.497 138.847 119.992 138.971 119.623C139.096 119.25 139.825 119.163 140.592 119.462C141.359 119.757 141.836 120.328 141.675 120.678L141.676 120.679Z" fill="#FFECD4"/>
</g>
<g clip-path="url(#clip1_4561_242)">
<path d="M64.2334 100.207C64.3415 97.5838 62.3032 95.3684 59.6786 95.2604C57.0551 95.1523 54.8397 97.1906 54.7317 99.8152C54.6236 102.439 56.6619 104.654 59.2865 104.762C61.91 104.87 64.1254 102.832 64.2334 100.207Z" fill="url(#paint14_linear_4561_242)"/>
<path d="M60.2514 100.976C58.7371 101.35 57.4725 101.933 56.6672 102.647L56.6319 102.678C56.8297 102.875 57.0488 103.054 57.2868 103.207L57.3416 103.147C57.564 102.906 57.8004 102.673 58.0462 102.454C58.705 101.868 59.4531 101.368 60.2523 100.975L60.2514 100.976Z" fill="#141416"/>
<path d="M55.5103 100.134C55.5374 100.913 55.8064 101.638 56.2496 102.236L56.2717 102.216C56.7701 101.778 57.4125 101.386 58.1802 101.054C58.8541 100.762 59.623 100.521 60.449 100.338L55.5103 100.134Z" fill="#141416"/>
<path d="M58.6876 97.0676C59.9736 98.416 61.6228 99.3404 63.4569 99.7409C63.313 97.8154 61.6914 96.2543 59.6461 96.1696C59.1062 96.1468 58.5873 96.2303 58.1092 96.3995C58.2907 96.6306 58.4861 96.8548 58.6876 97.0676Z" fill="#141416"/>
<path d="M56.8951 97.1514C57.6395 97.9284 58.8506 98.6144 60.3288 99.113C59.5655 98.6545 58.8618 98.0949 58.2524 97.4562C58.0259 97.2186 57.8099 96.9678 57.6075 96.7078L57.5575 96.6432C57.307 96.7771 57.0746 96.9368 56.8616 97.1165L56.894 97.1516L56.8951 97.1514Z" fill="#141416"/>
<path d="M58.4487 102.879C58.229 103.074 58.0173 103.282 57.8172 103.498C58.2791 103.706 58.7899 103.831 59.3296 103.853C61.3749 103.938 63.1203 102.516 63.423 100.608C61.562 100.855 59.8409 101.641 58.4485 102.878L58.4487 102.879Z" fill="#141416"/>
<path d="M58.2709 98.8638C57.5321 98.4695 56.9251 98.0268 56.4646 97.5483L56.4437 97.5263C55.9527 98.0859 55.6258 98.7858 55.5343 99.5601L60.4719 99.764C59.6633 99.5141 58.9174 99.2099 58.2696 98.8629L58.2709 98.8638Z" fill="#141416"/>
<path d="M67.5488 90.9365C66.1317 88.7258 63.1909 88.082 60.9802 89.499C58.7695 90.916 58.1257 93.8569 59.5427 96.0676C60.9597 98.2783 63.9006 98.9221 66.1113 97.5051C68.322 96.0881 68.9658 93.1472 67.5488 90.9365Z" fill="url(#paint15_linear_4561_242)"/>
<path d="M64.7295 93.8511C63.7035 95.026 63.0037 96.2302 62.7536 97.2756L62.7429 97.3225C63.0189 97.3704 63.3007 97.3908 63.5832 97.38L63.5942 97.2996C63.6375 96.9746 63.6979 96.6481 63.7733 96.3282C63.9768 95.4696 64.3015 94.6313 64.7306 93.8509L64.7295 93.8511Z" fill="#141416"/>
<path d="M60.3648 95.8835C60.8352 96.5059 61.4705 96.9451 62.1762 97.1808L62.183 97.152C62.3398 96.5067 62.6407 95.818 63.0785 95.1043C63.4627 94.4792 63.9531 93.8389 64.5261 93.2161L60.3648 95.8835Z" fill="#141416"/>
<path d="M61.2071 91.5488C63.0332 91.9148 64.9153 91.7249 66.6478 91.0005C65.4253 89.5052 63.2015 89.1588 61.4775 90.2631C61.0219 90.5545 60.6446 90.9208 60.3511 91.3333C60.6319 91.4175 60.9214 91.4909 61.2082 91.5486L61.2071 91.5488Z" fill="#141416"/>
<path d="M59.785 92.648C60.8399 92.8572 62.2264 92.7239 63.7225 92.2824C62.8339 92.3449 61.9364 92.2911 61.0723 92.1174C60.7508 92.0527 60.4289 91.9719 60.1147 91.8748L60.0368 91.8507C59.9088 92.1041 59.8092 92.3678 59.7383 92.6384L59.785 92.648Z" fill="#141416"/>
<path d="M64.3453 96.4442C64.278 96.7292 64.2225 97.0226 64.1826 97.3123C64.6799 97.2174 65.1707 97.0265 65.6251 96.7353C67.3491 95.631 67.9616 93.4649 67.114 91.7285C65.7319 92.9993 64.7745 94.6308 64.344 96.4433L64.3453 96.4442Z" fill="#141416"/>
<path d="M61.8953 93.2591C61.0638 93.3596 60.3126 93.3451 59.6608 93.2183L59.631 93.2129C59.55 93.953 59.6839 94.7143 60.0539 95.4007L64.2141 92.7335C63.4088 92.9926 62.6237 93.171 61.893 93.2594L61.8953 93.2591Z" fill="#141416"/>
<path d="M71.0444 96.6745C69.6274 94.4638 66.6865 93.82 64.4758 95.237C62.2651 96.654 61.6213 99.5949 63.0383 101.806C64.4553 104.016 67.3962 104.66 69.6069 103.243C71.8176 101.826 72.4614 98.8852 71.0444 96.6745Z" fill="url(#paint16_linear_4561_242)"/>
<path d="M68.2251 99.5891C67.1991 100.764 66.4993 101.968 66.2492 103.014L66.2385 103.06C66.5145 103.108 66.7963 103.129 67.0788 103.118L67.0898 103.038C67.1331 102.713 67.1935 102.386 67.2689 102.066C67.4724 101.208 67.7971 100.369 68.2262 99.5889L68.2251 99.5891Z" fill="#141416"/>
<path d="M63.8604 101.62C64.3308 102.242 64.9661 102.681 65.6718 102.917L65.6786 102.888C65.8354 102.243 66.1363 101.554 66.5741 100.841C66.9583 100.216 67.4487 99.5752 68.0217 98.9524L63.8604 101.62Z" fill="#141416"/>
<path d="M64.7027 97.2861C66.5288 97.6521 68.4109 97.4622 70.1434 96.7378C68.9209 95.2425 66.6971 94.8962 64.9731 96.0004C64.5175 96.2918 64.1402 96.6581 63.8467 97.0706C64.1275 97.1548 64.417 97.2282 64.7039 97.2859L64.7027 97.2861Z" fill="#141416"/>
<path d="M63.2822 98.3843C64.3371 98.5935 65.7236 98.4602 67.2197 98.0187C66.3311 98.0813 65.4336 98.0274 64.5695 97.8537C64.248 97.789 63.9261 97.7082 63.6119 97.6111L63.534 97.587C63.406 97.8404 63.3063 98.1042 63.2355 98.3747L63.2822 98.3843Z" fill="#141416"/>
<path d="M67.8409 102.182C67.7736 102.467 67.7181 102.76 67.6782 103.05C68.1756 102.955 68.6663 102.764 69.1207 102.473C70.8447 101.369 71.4572 99.2027 70.6097 97.4663C69.2275 98.7371 68.2702 100.369 67.8396 102.181L67.8409 102.182Z" fill="#141416"/>
<path d="M65.3926 98.9969C64.5611 99.0974 63.8099 99.0829 63.1581 98.9561L63.1283 98.9506C63.0473 99.6908 63.1813 100.452 63.5513 101.139L67.7114 98.4713C66.9061 98.7304 66.121 98.9088 65.3903 98.9972L65.3926 98.9969Z" fill="#141416"/>
<path d="M81.5685 89.1636C80.1515 86.9528 77.2107 86.309 75 87.726C72.7893 89.1431 72.1455 92.0839 73.5625 94.2946C74.9795 96.5053 77.9203 97.1491 80.131 95.7321C82.3417 94.3151 82.9855 91.3743 81.5685 89.1636Z" fill="url(#paint17_linear_4561_242)"/>
<path d="M78.7508 92.0774C77.7249 93.2523 77.025 94.4565 76.775 95.5019L76.7643 95.5488C77.0403 95.5967 77.3221 95.6172 77.6046 95.6063L77.6155 95.5259C77.6589 95.201 77.7193 94.8744 77.7946 94.5546C77.9981 93.6959 78.3229 92.8576 78.752 92.0772L78.7508 92.0774Z" fill="#141416"/>
<path d="M74.3845 94.1088C74.8548 94.7312 75.4902 95.1704 76.1959 95.4062L76.2027 95.3773C76.3594 94.7321 76.6604 94.0433 77.0981 93.3296C77.4824 92.7045 77.9728 92.0642 78.5457 91.4414L74.3845 94.1088Z" fill="#141416"/>
<path d="M75.2268 89.7742C77.0529 90.1401 78.9349 89.9502 80.6674 89.2259C79.4449 87.7306 77.2211 87.3842 75.4972 88.4885C75.0416 88.7799 74.6642 89.1462 74.3707 89.5587C74.6516 89.6428 74.941 89.7163 75.2279 89.774L75.2268 89.7742Z" fill="#141416"/>
<path d="M73.8064 90.8733C74.8612 91.0825 76.2477 90.9492 77.7439 90.5077C76.8552 90.5703 75.9578 90.5165 75.0936 90.3427C74.7721 90.278 74.4503 90.1972 74.1361 90.1001L74.0581 90.076C73.9302 90.3294 73.8305 90.5932 73.7597 90.8637L73.8064 90.8733Z" fill="#141416"/>
<path d="M78.3666 94.671C78.2994 94.956 78.2439 95.2494 78.204 95.5391C78.7013 95.4442 79.192 95.2533 79.6465 94.9621C81.3705 93.8578 81.9829 91.6917 81.1354 89.9553C79.7533 91.2261 78.7959 92.8576 78.3653 94.6701L78.3666 94.671Z" fill="#141416"/>
<path d="M75.9166 91.4842C75.0851 91.5847 74.334 91.5702 73.6821 91.4434L73.6523 91.438C73.5713 92.1781 73.7053 92.9394 74.0753 93.6258L78.2354 90.9586C77.4302 91.2177 76.645 91.3961 75.9144 91.4845L75.9166 91.4842Z" fill="#141416"/>
<path d="M87.5724 98.7096C88.4432 96.2327 87.1415 93.5176 84.6635 92.6471C82.1855 91.7765 79.4715 93.078 78.601 95.556C77.7303 98.0329 79.0319 100.748 81.5099 101.619C83.9868 102.489 86.7019 101.188 87.5724 98.7096Z" fill="url(#paint18_linear_4561_242)"/>
<path d="M83.5415 98.281C81.9836 98.1954 80.604 98.3842 79.6251 98.8303L79.5821 98.8501C79.7141 99.0964 79.8709 99.3316 80.0547 99.5485L80.1252 99.5068C80.4086 99.3409 80.7021 99.1873 81.0017 99.0499C81.8042 98.6827 82.6647 98.4225 83.5437 98.2806L83.5415 98.281Z" fill="#141416"/>
<path d="M79.2529 96.0891C79.0516 96.8423 79.096 97.6137 79.3449 98.3155L79.3717 98.303C79.977 98.0296 80.7052 97.8422 81.5369 97.7497C82.2664 97.6684 83.0728 97.661 83.9159 97.7285L79.2529 96.0891Z" fill="#141416"/>
<path d="M83.1889 94.0857C84.0236 95.7514 85.3309 97.1171 86.9677 98.0366C87.3935 96.1532 86.2988 94.1862 84.3678 93.5072C83.8575 93.3281 83.3371 93.2558 82.8311 93.2771C82.9375 93.5507 83.0577 93.8231 83.1887 94.0846L83.1889 94.0857Z" fill="#141416"/>
<path d="M81.4484 93.6419C81.9331 94.6029 82.8905 95.6128 84.1592 96.5215C83.5633 95.8597 83.0538 95.119 82.6588 94.3304C82.5122 94.038 82.3788 93.7342 82.2608 93.4256L82.232 93.3495C81.9532 93.4036 81.6842 93.4886 81.4275 93.5992L81.4484 93.6419Z" fill="#141416"/>
<path d="M81.2596 99.5715C80.9933 99.6941 80.7281 99.8304 80.4751 99.9774C80.8561 100.311 81.3074 100.58 81.8177 100.76C83.7487 101.439 85.8337 100.589 86.6813 98.853C84.8291 98.5457 82.9543 98.7933 81.2605 99.5702L81.2596 99.5715Z" fill="#141416"/>
<path d="M82.2649 95.6819C81.6745 95.0885 81.2227 94.4873 80.9226 93.8956L80.909 93.869C80.276 94.2614 79.7583 94.8346 79.4442 95.5486L84.1061 97.1881C83.406 96.7134 82.782 96.203 82.2637 95.6821L82.2649 95.6819Z" fill="#141416"/>
<path d="M55.8972 105.846C55.7724 105.867 55.6411 105.82 55.5586 105.713L33.5969 77.1684C33.4777 77.0136 33.5068 76.7915 33.6616 76.6724C33.8175 76.553 34.0384 76.5823 34.1576 76.7371L56.1193 105.281C56.2385 105.436 56.2094 105.658 56.0546 105.777C56.0064 105.814 55.9524 105.837 55.8972 105.846Z" fill="black"/>
<path d="M87.2329 100.665C87.1778 100.674 87.1193 100.67 87.0618 100.651C86.8769 100.588 86.7779 100.387 86.8409 100.202L98.4457 66.1078C98.5088 65.9229 98.706 65.8232 98.8945 65.8868C99.0794 65.9499 99.1785 66.1507 99.1154 66.3356L87.5106 100.43C87.467 100.557 87.3578 100.645 87.2329 100.665Z" fill="black"/>
<path d="M99.3282 65.9664C99.6335 67.8132 85.0852 71.7705 66.8364 74.7878C48.5876 77.8051 33.5285 78.7432 33.2231 76.8964C33.0598 75.9089 37.0607 74.3403 43.5803 72.6303C47.4803 71.6042 52.2791 70.5357 57.6233 69.5088C60.202 69.0108 62.926 68.5246 65.7254 68.0617C68.5249 67.5988 71.2491 67.1842 73.8622 66.8238C79.2513 66.076 84.1396 65.5416 88.1625 65.2589C94.8731 64.7814 99.166 64.9787 99.3293 65.9662L99.3282 65.9664Z" fill="#737578"/>
<path d="M80.7465 72.5243C80.5621 72.5548 80.3829 72.4353 80.344 72.2488C80.3032 72.058 80.4247 71.8703 80.6155 71.8295C94.1049 68.9382 99.0383 66.7336 98.9785 66.0225C98.9766 66.0113 98.4979 64.8771 88.1852 65.6105C84.1739 65.8936 79.2369 66.4337 73.9086 67.1726C68.6904 67.8921 62.816 68.8634 57.6877 69.8546C52.4051 70.869 47.5569 71.9468 43.6682 72.9711C33.657 75.5981 33.5689 76.826 33.5707 76.8372C33.6776 77.2667 37.1249 78.1503 51.0844 76.621C51.2784 76.5993 51.4531 76.7403 51.4748 76.9343C51.4953 77.1285 51.3405 77.3101 51.1615 77.3247C42.9946 78.2197 33.1923 78.8814 32.8736 76.9536C32.7921 76.461 32.5757 75.1518 43.4894 72.2877C47.3925 71.2599 52.2575 70.1794 57.5546 69.1614C62.6954 68.1693 68.5821 67.1948 73.8115 66.4734C79.1555 65.732 84.1085 65.1903 88.1357 64.9058C99.3781 64.1065 99.5945 65.4157 99.676 65.9083C100.032 68.0588 87.979 70.9748 80.7634 72.5215C80.7578 72.5224 80.7522 72.5233 80.7465 72.5243Z" fill="black"/>
<path d="M66.3056 104.125C66.1369 104.153 65.9693 104.055 65.9127 103.888L54.415 69.3472C54.3532 69.1621 54.453 68.9619 54.6394 68.901C54.8186 68.8391 55.0235 68.9392 55.0855 69.1254L66.5843 103.666C66.6461 103.851 66.5452 104.051 66.36 104.112C66.3425 104.118 66.3236 104.122 66.3056 104.125Z" fill="black"/>
<path d="M99.3307 65.9612C99.1678 64.9759 94.8736 64.7777 88.1598 65.2569C84.1369 65.5396 79.2469 66.0708 73.8578 66.8186C71.2432 67.1839 68.5208 67.5959 65.7225 68.0585C62.9242 68.5212 60.2051 69.0089 57.6211 69.5032C52.2781 70.5299 47.4773 71.601 43.5776 72.6283C37.0578 74.3372 33.0558 75.9059 33.2189 76.8923C33.0175 75.6742 32.8768 74.4738 32.7914 73.2654C32.4754 68.6357 33.0128 64.1433 34.2975 59.956C35.9593 54.4642 38.8761 49.5114 42.7605 45.5541C47.4338 40.7776 53.5194 37.4212 60.4669 36.2725C69.7392 34.7393 78.7994 37.4161 85.8801 42.9714C92.7399 48.3437 97.7515 56.4099 99.3305 65.96L99.3307 65.9612Z" fill="#FE515E"/>
<path d="M99.3307 65.9612C99.1678 64.9759 94.8736 64.7777 88.1598 65.2569C84.1369 65.5396 79.2469 66.0708 73.8578 66.8186C71.2432 67.1839 68.5208 67.5959 65.7225 68.0585C62.9242 68.5212 60.2051 69.0089 57.6211 69.5032C52.2781 70.5299 47.4773 71.601 43.5776 72.6283C37.0578 74.3372 33.0558 75.9059 33.2189 76.8923C33.0175 75.6742 32.8768 74.4738 32.7914 73.2654C32.4754 68.6357 33.0128 64.1433 34.2975 59.956C35.9593 54.4642 38.8761 49.5114 42.7605 45.5541C47.4338 40.7776 53.5194 37.4212 60.4669 36.2725C69.7392 34.7393 78.7994 37.4161 85.8801 42.9714C92.7399 48.3437 97.7515 56.4099 99.3305 65.96L99.3307 65.9612Z" fill="url(#paint19_linear_4561_242)"/>
<path d="M42.6973 48.1818C42.0251 49.029 40.7616 49.305 40.2498 50.2493C39.7236 51.2248 40.1961 52.5795 39.4942 53.4224C39.2067 53.7657 38.7889 53.9503 38.4775 54.2687C37.9859 54.7614 37.8417 55.5108 37.8532 56.2161C37.8631 56.9124 38.0066 57.6051 37.9702 58.3078C37.9414 59.0001 37.6919 59.7485 37.1176 60.1393C36.474 60.5796 35.6079 60.4848 34.8739 60.204C34.6804 60.1309 34.4854 60.0487 34.2978 59.955C35.9595 54.4632 38.8763 49.5104 42.7607 45.553C43.2389 46.3625 43.2731 47.4361 42.6985 48.1817L42.6973 48.1818Z" fill="#FFECD4"/>
<path d="M38.0376 64.1868C36.8442 64.3842 35.6581 64.0661 34.611 63.7851C34.3671 63.7145 34.1254 63.6505 33.8835 63.5853L33.3876 63.4513C33.1999 63.3991 33.0892 63.2048 33.1411 63.0159C33.1931 62.8271 33.39 62.7183 33.5765 62.7695L34.0675 62.9021C34.3129 62.9678 34.5584 63.0335 34.801 63.1032C35.7816 63.3662 36.8725 63.6469 37.9558 63.4828C38.8556 63.334 39.8666 62.6561 39.974 61.6909C40.0331 61.182 39.8581 60.669 39.6714 60.1267L39.5486 59.7611C39.2403 58.756 39.2945 57.959 39.7091 57.3912C40.065 56.9095 40.5912 56.7023 41.1008 56.5002C41.4946 56.345 41.8655 56.1981 42.1151 55.9396C42.6905 55.3315 42.4857 54.2399 42.2813 53.4718C42.0376 52.5565 41.7022 51.3039 42.3783 50.3336C42.7283 49.8297 43.2486 49.5588 43.7508 49.2978C44.0732 49.1302 44.3774 48.9712 44.6254 48.7592C45.6031 47.9147 45.5332 46.3247 44.9587 45.1914C44.7767 44.8171 44.5404 44.4783 44.2365 44.1496C44.1887 44.0986 44.1586 44.0354 44.1473 43.9668C44.1155 43.7744 44.2452 43.5877 44.4376 43.5559C44.5804 43.5323 44.7179 43.5951 44.7908 43.7078C45.1257 44.0765 45.3875 44.4584 45.5918 44.8765C46.2882 46.2507 46.3398 48.2123 45.0861 49.2954C44.7764 49.5604 44.4212 49.7463 44.0774 49.9244C43.6305 50.1566 43.2093 50.3765 42.9592 50.7367C42.5082 51.3844 42.7045 52.3133 42.9641 53.2895C43.2118 54.2215 43.4459 55.5601 42.6267 56.427C42.2686 56.7982 41.8077 56.9807 41.3609 57.1574C40.9247 57.3289 40.5137 57.4916 40.2796 57.8088C40.0045 58.1859 39.9847 58.7715 40.2228 59.5479L40.3395 59.8972C40.5428 60.4911 40.7529 61.1045 40.6746 61.7703C40.5269 63.1062 39.2274 63.9751 38.0385 64.1855L38.0376 64.1868Z" fill="#FFECD4"/>
<path d="M99.3315 65.9608C99.1686 64.9756 94.8744 64.7774 88.1605 65.2566C87.0498 59.9852 85.2403 55.1633 82.9406 51.0244C84.881 49.6429 85.9626 47.0572 85.9783 44.6084C85.9824 44.0531 85.9499 43.5142 85.8799 42.9723C92.7397 48.3446 97.7513 56.4109 99.3304 65.961L99.3315 65.9608Z" fill="#F83B4D"/>
<path d="M99.3315 65.9608C99.1686 64.9756 94.8744 64.7774 88.1605 65.2566C87.0498 59.9852 85.2403 55.1633 82.9406 51.0244C84.881 49.6429 85.9626 47.0572 85.9783 44.6084C85.9824 44.0531 85.9499 43.5142 85.8799 42.9723C92.7397 48.3446 97.7513 56.4109 99.3304 65.961L99.3315 65.9608Z" fill="url(#paint20_linear_4561_242)"/>
<path d="M88.1599 65.257C84.137 65.5397 79.247 66.0709 73.8578 66.8187C71.2433 67.184 68.5209 67.596 65.7226 68.0587C62.9243 68.5213 60.2052 69.0091 57.6212 69.5033C52.2782 70.53 47.4774 71.6011 43.5777 72.6284C43.3984 71.1386 43.2773 69.6588 43.2288 68.2051C42.5687 51.7389 49.6133 38.0672 60.467 36.2726C68.8463 34.8871 77.3462 40.9334 82.941 51.0247C85.2396 55.1637 87.0502 59.9855 88.161 65.2568L88.1599 65.257Z" fill="#E1E5EB"/>
<path d="M88.161 65.257C84.1382 65.5397 79.2482 66.0709 73.859 66.8187C73.2189 63.4084 72.4921 60.1661 71.7061 57.152C72.3742 55.5325 73.0106 53.8881 74.4282 52.9859C76.4433 51.7064 79.1345 52.5035 81.4157 51.7924C81.9703 51.6245 82.4809 51.3586 82.9411 51.0248C85.2397 55.1639 87.0503 59.9856 88.161 65.257Z" fill="#C9CCD1"/>
<path d="M56.7831 62.4769C56.9952 64.7447 57.2682 67.088 57.6203 69.5037C52.2772 70.5304 47.4765 71.6015 43.5767 72.6287C43.3974 71.1389 43.2764 69.6591 43.2278 68.2054C44.1334 67.6166 45.1077 67.1493 46.1726 66.9444C48.1828 66.5646 50.3523 67.1419 52.2432 66.3901C54.1086 65.6519 55.2817 63.7952 56.7842 62.4767L56.7831 62.4769Z" fill="#C9CCD1"/>
<path d="M73.8587 66.8195C71.2442 67.1847 68.5218 67.5967 65.7235 68.0594C62.9251 68.5221 60.2061 69.0098 57.6221 69.5041C57.2699 67.0873 56.9979 64.7438 56.785 62.4773C55.4148 47.8941 56.7842 36.8812 60.4677 36.2722C63.9082 35.7033 68.3634 44.3873 71.7069 57.1526C72.4917 60.1657 73.2186 63.4092 73.8599 66.8193L73.8587 66.8195Z" fill="#FE515E"/>
<path d="M73.8587 66.8195C71.2442 67.1847 68.5218 67.5967 65.7235 68.0594C62.9251 68.5221 60.2061 69.0098 57.6221 69.5041C57.2699 67.0873 56.9979 64.7438 56.785 62.4773C55.4148 47.8941 56.7842 36.8812 60.4677 36.2722C63.9082 35.7033 68.3634 44.3873 71.7069 57.1526C72.4917 60.1657 73.2186 63.4092 73.8599 66.8193L73.8587 66.8195Z" fill="url(#paint21_linear_4561_242)"/>
<path d="M73.8578 66.8195C71.2433 67.1847 68.5209 67.5967 65.7226 68.0594C62.9243 68.5221 60.2052 69.0098 57.6212 69.5041C57.269 67.0873 56.997 64.7439 56.7841 62.4774C57.3336 61.9855 57.9341 61.5708 58.6174 61.3145C61.9527 60.0467 66.0735 62.8999 69.104 61.0042C70.4461 60.1618 71.088 58.6702 71.7062 57.1537C72.491 60.1669 73.2179 63.4103 73.8592 66.8204L73.8578 66.8195Z" fill="#F83B4D"/>
<path d="M73.8578 66.8195C71.2433 67.1847 68.5209 67.5967 65.7226 68.0594C62.9243 68.5221 60.2052 69.0098 57.6212 69.5041C57.269 67.0873 56.997 64.7439 56.7841 62.4774C57.3336 61.9855 57.9341 61.5708 58.6174 61.3145C61.9527 60.0467 66.0735 62.8999 69.104 61.0042C70.4461 60.1618 71.088 58.6702 71.7062 57.1537C72.491 60.1669 73.2179 63.4103 73.8592 66.8204L73.8578 66.8195Z" fill="url(#paint22_linear_4561_242)"/>
<path d="M99.3891 66.3096C99.1968 66.3414 99.0146 66.2109 98.9828 66.0186C98.9808 66.0062 98.501 64.8723 88.1865 65.6094C84.1569 65.8932 79.2197 66.4322 73.9083 67.1683C68.4444 67.9319 63.0683 68.822 57.6886 69.8501C52.4239 70.8616 47.5748 71.9407 43.6685 72.9702C33.6556 75.594 33.5663 76.822 33.5684 76.8344C33.6002 77.0268 33.4697 77.2089 33.2773 77.2407C33.085 77.2725 32.9028 77.142 32.871 76.9497L32.8699 76.943C32.6666 75.7136 32.5257 74.5191 32.4392 73.2901C31.1695 54.8344 43.1938 38.7701 60.41 35.9236C66.0652 34.9885 71.906 35.5954 77.3007 37.6765C77.4822 37.747 77.5738 37.9514 77.5034 38.134C77.4329 38.3155 77.2285 38.4071 77.0459 38.3368C71.7683 36.2999 66.0557 35.7065 60.5253 36.6209C43.6712 39.4076 31.899 55.1517 33.1442 73.2417C33.2079 74.144 33.3008 75.0276 33.4277 75.9206C34.3953 75.1621 36.9354 74.0037 43.4885 72.287C47.4106 71.2549 52.2741 70.1723 57.5554 69.1569C62.9487 68.1265 68.3351 67.2359 73.8101 66.4693C79.1372 65.7306 84.0915 65.19 88.1359 64.9049C94.8839 64.4223 97.6616 64.7014 98.8208 65.1083C98.1452 61.5606 96.9777 58.1612 95.3436 54.9939C95.2548 54.8202 95.3223 54.6068 95.496 54.518C95.6685 54.4294 95.883 54.4968 95.9718 54.6704C97.7779 58.1722 99.0265 61.9499 99.6794 65.8988L99.6805 65.9055C99.7123 66.0979 99.5818 66.2801 99.3895 66.3119L99.3891 66.3096Z" fill="black"/>
<path d="M70.4985 60.9264C69.863 61.0315 69.3344 61.4332 69.0046 61.9961C68.6682 62.5613 68.5214 63.2812 68.6457 64.0325C68.3972 62.5299 67.1693 61.4769 65.8995 61.6868C66.535 61.5818 67.0557 61.1814 67.3947 60.625C67.7244 60.0609 67.8711 59.3411 67.7469 58.5897C67.8711 59.3411 68.2418 59.9754 68.7422 60.4022C69.2344 60.8212 69.8642 61.0313 70.4996 60.9262L70.4985 60.9264Z" fill="#FFECD4"/>
<path d="M59.5438 42.841C60.2241 42.9018 60.6218 44.6224 60.6621 46.6899C60.693 48.7565 60.3545 50.4902 59.6763 50.5746C59.0098 50.6594 58.2421 48.9445 58.2078 46.7317C58.1666 44.5188 58.8739 42.7796 59.5438 42.841Z" fill="#FFECD4"/>
<path d="M59.9353 39.4285C60.2297 39.4757 60.379 40.0368 60.2989 40.6844C60.2166 41.3324 59.9267 41.8368 59.6333 41.809C59.3387 41.7815 59.1516 41.2162 59.2367 40.5493C59.3192 39.8816 59.6456 39.3816 59.9342 39.4287L59.9353 39.4285Z" fill="#FFECD4"/>
<path d="M75.6235 90.0293C74.9663 87.4873 72.3735 85.9574 69.8304 86.6148C67.2872 87.2722 65.7585 89.8648 66.4159 92.4079C67.0731 94.9499 69.6659 96.4798 72.209 95.8224C74.751 95.1652 76.2809 92.5724 75.6235 90.0293Z" fill="url(#paint23_linear_4561_242)"/>
<path d="M72.0351 91.9189C70.6937 92.7161 69.6531 93.6416 69.0891 94.5564L69.0647 94.5974C69.3117 94.7287 69.5732 94.8357 69.845 94.9144L69.8804 94.8415C70.0232 94.5452 70.1819 94.2544 70.354 93.974C70.8154 93.2218 71.3857 92.5266 72.0362 91.9187L72.0351 91.9189Z" fill="#141416"/>
<path d="M67.254 92.4877C67.5066 93.2259 67.9723 93.841 68.5703 94.2852L68.5857 94.2596C68.9362 93.6955 69.4362 93.1345 70.0759 92.5942C70.6365 92.1202 71.3019 91.6647 72.0401 91.2515L67.254 92.4877Z" fill="#141416"/>
<path d="M69.4078 88.6315C71.0293 89.5489 72.8761 89.9565 74.7476 89.8077C74.0522 88.0057 72.0482 86.9828 70.0656 87.4944C69.5425 87.6294 69.0699 87.86 68.6608 88.1599C68.9012 88.3282 69.1529 88.4876 69.4078 88.6315Z" fill="#141416"/>
<path d="M67.7146 89.2326C68.6523 89.7604 70.0108 90.0662 71.5695 90.1146C70.7062 89.8969 69.8703 89.566 69.1029 89.1313C68.8175 88.9705 68.5373 88.7926 68.2688 88.6013L68.2022 88.5546C68.0019 88.7552 67.8245 88.9752 67.6726 89.2095L67.7134 89.2328L67.7146 89.2326Z" fill="#141416"/>
<path d="M70.8622 94.2626C70.7094 94.512 70.5655 94.7738 70.4368 95.0366C70.9386 95.1015 71.4643 95.0735 71.9874 94.9385C73.9699 94.427 75.2269 92.5599 74.9636 90.646C73.2538 91.4233 71.8347 92.6736 70.8609 94.2616L70.8622 94.2626Z" fill="#141416"/>
<path d="M69.5297 90.4723C68.7088 90.3088 67.9988 90.0611 67.4194 89.7363L67.3939 89.722C67.0866 90.4002 66.9762 91.1649 67.1124 91.9328L71.8974 90.6967C71.0519 90.6921 70.2491 90.6168 69.5285 90.4725L69.5297 90.4723Z" fill="#141416"/>
<path d="M78.974 99.7525C79.5871 97.1992 78.0141 94.6318 75.4597 94.0189C72.9064 93.4057 70.339 94.9788 69.726 97.5332C69.1129 100.087 70.6859 102.654 73.2404 103.267C75.7937 103.88 78.3611 102.307 78.974 99.7525Z" fill="url(#paint24_linear_4561_242)"/>
<path d="M74.9179 99.7376C73.3598 99.8115 72.007 100.141 71.0787 100.684L71.0377 100.708C71.1939 100.94 71.3742 101.158 71.579 101.355L71.6451 101.307C71.9099 101.113 72.187 100.93 72.4702 100.763C73.2304 100.315 74.0605 99.9683 74.9201 99.7372L74.9179 99.7376Z" fill="#141416"/>
<path d="M70.4312 97.9962C70.3078 98.7665 70.4314 99.5283 70.7507 100.201L70.776 100.187C71.3505 99.8524 72.0551 99.5926 72.8738 99.4145C73.591 99.259 74.392 99.1693 75.2382 99.1507L70.4313 97.9973L70.4312 97.9962Z" fill="#141416"/>
<path d="M74.1401 95.601C75.1417 97.1721 76.5808 98.3981 78.3046 99.145C78.5353 97.228 77.2458 95.3833 75.2546 94.906C74.7289 94.7803 74.2034 94.7609 73.7025 94.8345C73.8358 95.0955 73.9837 95.3542 74.1412 95.6008L74.1401 95.601Z" fill="#141416"/>
<path d="M72.3634 95.3382C72.9431 96.2442 74 97.1509 75.3541 97.9254C74.6936 97.3274 74.1115 96.6438 73.6371 95.8995C73.4609 95.6236 73.2966 95.3353 73.1485 95.0409L73.1122 94.9683C72.8406 95.0513 72.5816 95.1623 72.3372 95.2986L72.3623 95.3384L72.3634 95.3382Z" fill="#141416"/>
<path d="M72.7822 101.256C72.5295 101.406 72.2802 101.568 72.0431 101.741C72.4554 102.034 72.9336 102.256 73.4593 102.382C75.4494 102.859 77.4365 101.802 78.1013 99.9875C76.2275 99.871 74.3878 100.31 72.782 101.255L72.7822 101.256Z" fill="#141416"/>
<path d="M73.3846 97.2837C72.7366 96.7542 72.2259 96.202 71.8667 95.6443L71.851 95.6192C71.2618 96.0737 70.8055 96.6968 70.5654 97.439L75.3712 98.5926C74.6265 98.1911 73.9537 97.7489 73.3844 97.2826L73.3846 97.2837Z" fill="#141416"/>
<path d="M76.4463 102.447C76.4283 102.45 76.409 102.452 76.3905 102.452C76.1954 102.453 76.0353 102.295 76.0345 102.101L75.8032 65.6981C75.802 65.5018 75.965 65.342 76.1534 65.342C76.3485 65.341 76.5085 65.4982 76.5094 65.6922L76.7418 102.095C76.7432 102.272 76.615 102.419 76.4463 102.447Z" fill="black"/>
<path d="M89.0746 99.9017L92.1868 118.724C92.5435 120.881 91.0863 122.928 88.9189 123.287L61.5306 127.815C59.3733 128.172 57.3337 126.703 56.977 124.546L53.8649 105.723L89.0735 99.9019L89.0746 99.9017Z" fill="#141416"/>
<path d="M89.0746 99.9017L92.1868 118.724C92.5435 120.881 91.0863 122.928 88.9189 123.287L61.5306 127.815C59.3733 128.172 57.3337 126.703 56.977 124.546L53.8649 105.723L89.0735 99.9019L89.0746 99.9017Z" fill="#FFCB67" fill-opacity="0.9"/>
<path d="M63.0617 106.573C62.3478 107.455 60.9433 107.745 60.5648 108.81C60.4217 109.216 60.4657 109.657 60.4412 110.082C60.4272 110.514 60.3111 110.972 59.9607 111.222C59.56 111.517 58.97 111.415 58.5556 111.683C57.9076 112.097 58.0272 113.051 57.9143 113.815C57.7686 114.785 57.1005 115.65 56.2071 116.027C56.0101 116.107 55.801 116.17 55.5963 116.204L53.8633 105.723L63.3493 104.154C63.6462 104.965 63.5997 105.899 63.0615 106.572L63.0617 106.573Z" fill="#FE9A4C"/>
<path d="M57.6182 120.838C57.1964 120.908 56.7408 120.913 56.2639 120.852C56.0704 120.827 55.9336 120.65 55.9582 120.456C55.9828 120.263 56.1599 120.125 56.3537 120.151C57.1446 120.252 57.8479 120.145 58.389 119.84C59.0869 119.441 59.518 118.68 59.4342 117.991C59.4108 117.801 59.3563 117.611 59.303 117.421C59.1737 116.961 59.0274 116.44 59.2742 115.933C59.5667 115.355 60.2497 115.061 61.2021 115.098L61.3996 115.105C61.912 115.122 62.3966 115.139 62.7165 114.886C63.23 114.469 63.0701 113.566 62.8452 112.883C62.5758 112.071 62.2069 110.958 62.8238 110.112C63.2065 109.589 63.86 109.313 64.8132 109.271C64.9581 109.267 65.0979 109.267 65.2388 109.267C65.7237 109.264 66.1836 109.264 66.5839 109.1C67.4983 108.731 67.8849 107.596 67.7953 106.664C67.6915 105.679 67.2218 104.802 66.6184 103.759C66.6154 103.755 66.6137 103.752 66.6109 103.749C66.5155 103.626 66.5095 103.45 66.6081 103.32C66.7254 103.163 66.947 103.133 67.1026 103.249C67.1342 103.273 67.1671 103.311 67.1928 103.348C67.2031 103.361 67.2122 103.375 67.2203 103.388C67.7326 104.272 68.3696 105.37 68.4988 106.592C68.6107 107.751 68.1429 109.234 66.8505 109.755C66.3231 109.968 65.7747 109.971 65.2422 109.972C65.1082 109.972 64.9742 109.973 64.8421 109.977C64.1184 110.01 63.6444 110.19 63.3964 110.528C63.0245 111.039 63.2317 111.796 63.519 112.661C64.0518 114.283 63.6186 115.066 63.1612 115.437C62.6361 115.854 61.968 115.831 61.379 115.812L61.1817 115.806C60.8685 115.792 60.131 115.811 59.9097 116.248C59.783 116.509 59.8774 116.842 59.9854 117.23C60.0479 117.454 60.111 117.682 60.1377 117.906C60.2567 118.885 59.6958 119.909 58.7391 120.454C58.4062 120.642 58.0287 120.77 57.6205 120.838L57.6182 120.838Z" fill="#FFECD4"/>
<path d="M89.7499 103.994L92.1855 118.725C92.5422 120.882 91.0851 122.929 88.9177 123.287L61.5293 127.816C59.3721 128.172 57.3325 126.704 56.9758 124.546L56.9726 124.527C59.1129 125.682 62.1059 125.293 63.6931 123.396C65.0339 121.798 65.4643 119.377 67.2907 118.34C69.0537 117.332 71.2484 118.125 73.1723 118.782C75.0977 119.448 77.5177 119.87 78.9171 118.396C79.896 117.384 79.9851 115.84 80.1153 114.433C80.247 113.035 80.5886 111.461 81.7963 110.735C83.4746 109.732 85.8841 110.957 87.4968 109.85C88.6136 109.093 88.8292 107.566 89.0386 106.233C89.162 105.477 89.3594 104.651 89.7477 103.994L89.7499 103.994Z" fill="#141416"/>
<path d="M89.7499 103.994L92.1855 118.725C92.5422 120.882 91.0851 122.929 88.9177 123.287L61.5293 127.816C59.3721 128.172 57.3325 126.704 56.9758 124.546L56.9726 124.527C59.1129 125.682 62.1059 125.293 63.6931 123.396C65.0339 121.798 65.4643 119.377 67.2907 118.34C69.0537 117.332 71.2484 118.125 73.1723 118.782C75.0977 119.448 77.5177 119.87 78.9171 118.396C79.896 117.384 79.9851 115.84 80.1153 114.433C80.247 113.035 80.5886 111.461 81.7963 110.735C83.4746 109.732 85.8841 110.957 87.4968 109.85C88.6136 109.093 88.8292 107.566 89.0386 106.233C89.162 105.477 89.3594 104.651 89.7477 103.994L89.7499 103.994Z" fill="#FE9A4C" fill-opacity="0.5"/>
<path d="M79.9949 125.12L61.5876 128.164C59.2414 128.552 57.0164 126.954 56.6277 124.603L53.5155 105.781C53.4837 105.589 53.6142 105.407 53.8066 105.375L89.0152 99.5532C89.2075 99.5214 89.3897 99.6519 89.4215 99.8442L91.6395 113.259C91.6713 113.451 91.5409 113.633 91.3485 113.665C91.1562 113.697 90.974 113.567 90.9422 113.374L88.7818 100.308L54.2705 106.014L57.325 124.488C57.6503 126.455 59.5107 127.791 61.4723 127.466L79.8796 124.423C80.072 124.391 80.2542 124.522 80.286 124.714C80.3178 124.906 80.1873 125.088 79.9949 125.12Z" fill="black"/>
<path d="M89.232 103.039L54.7219 108.745C53.2316 108.991 51.8239 107.983 51.5775 106.492C51.3311 105.002 52.3393 103.594 53.8296 103.348L88.3398 97.642C89.83 97.3956 91.2377 98.4039 91.4841 99.8941C91.7305 101.384 90.7223 102.792 89.232 103.039Z" fill="#997951"/>
<path d="M82.2931 114.244C81.6576 114.349 81.129 114.751 80.7991 115.314C80.4627 115.879 80.316 116.599 80.4402 117.35C80.1918 115.847 78.9639 114.794 77.694 115.004C78.3295 114.899 78.8503 114.499 79.1893 113.942C79.5189 113.378 79.6657 112.658 79.5415 111.907C79.6657 112.658 80.0363 113.293 80.5367 113.72C81.0289 114.139 81.6587 114.349 82.2942 114.244L82.2931 114.244Z" fill="#FFECD4"/>
<path d="M82.4264 110.497C82.1385 110.544 81.8982 110.726 81.7477 110.983C81.5948 111.24 81.5288 111.567 81.5852 111.908C81.4723 111.225 80.9148 110.747 80.3378 110.842C80.6257 110.794 80.8638 110.613 81.0172 110.36C81.1667 110.104 81.2339 109.776 81.1775 109.436C81.2341 109.777 81.4018 110.065 81.6291 110.259C81.8524 110.449 82.1385 110.544 82.4276 110.496L82.4264 110.497Z" fill="#FFECD4"/>
<path d="M75.6614 107.527C75.7336 108.201 74.2967 108.931 72.4321 109.338C70.5602 109.744 68.8885 109.605 68.7278 108.941C68.5701 108.288 69.9686 107.361 71.9196 106.938C73.8766 106.509 75.5914 106.852 75.6623 107.525L75.6614 107.527Z" fill="#FFECD4"/>
<path d="M78.7925 107.305C78.7912 107.605 78.3135 107.84 77.7243 107.875C77.1344 107.906 76.6314 107.716 76.6015 107.423C76.5711 107.127 77.0458 106.84 77.6666 106.806C78.2868 106.77 78.7929 107.014 78.7914 107.305L78.7925 107.305Z" fill="#FFECD4"/>
</g>
<defs>
<linearGradient id="paint0_linear_4561_242" x1="257.008" y1="15.2739" x2="-6.71256" y2="15.2739" gradientUnits="userSpaceOnUse">
<stop stop-color="#214E81"/>
<stop offset="0.363625" stop-color="#506179"/>
<stop offset="0.651499" stop-color="#ED5409"/>
<stop offset="1" stop-color="#FFCB67"/>
</linearGradient>
<linearGradient id="paint1_linear_4561_242" x1="250" y1="20" x2="0" y2="20" gradientUnits="userSpaceOnUse">
<stop stop-color="#141416"/>
<stop offset="0.15" stop-color="#102D3C"/>
<stop offset="0.359759" stop-color="#506179"/>
<stop offset="0.495" stop-color="#FFA59D"/>
<stop offset="0.695" stop-color="#FFCB67"/>
<stop offset="0.98" stop-color="#214E81"/>
</linearGradient>
<linearGradient id="paint2_linear_4561_242" x1="250" y1="20" x2="0" y2="20" gradientUnits="userSpaceOnUse">
<stop stop-color="#102D3C"/>
<stop offset="0.227213" stop-color="#506179"/>
<stop offset="0.495" stop-color="#FFA59D"/>
<stop offset="0.695" stop-color="#FFCB67"/>
<stop offset="0.98" stop-color="#214E81"/>
</linearGradient>
<linearGradient id="paint3_linear_4561_242" x1="128.132" y1="104.234" x2="116.66" y2="98.4494" gradientUnits="userSpaceOnUse">
<stop stop-color="#1A3746"/>
<stop offset="0.24" stop-color="#2B588B"/>
<stop offset="0.37" stop-color="#5A6B83"/>
<stop offset="0.74" stop-color="#ED5409"/>
<stop offset="1" stop-color="#FFCB67"/>
</linearGradient>
<linearGradient id="paint4_linear_4561_242" x1="137.205" y1="94.7893" x2="124.492" y2="96.6371" gradientUnits="userSpaceOnUse">
<stop stop-color="#1A3746"/>
<stop offset="0.24" stop-color="#2B588B"/>
<stop offset="0.37" stop-color="#5A6B83"/>
<stop offset="0.74" stop-color="#ED5409"/>
<stop offset="1" stop-color="#FFCB67"/>
</linearGradient>
<linearGradient id="paint5_linear_4561_242" x1="138.286" y1="103.616" x2="125.574" y2="105.463" gradientUnits="userSpaceOnUse">
<stop stop-color="#1A3746"/>
<stop offset="0.24" stop-color="#2B588B"/>
<stop offset="0.37" stop-color="#5A6B83"/>
<stop offset="0.74" stop-color="#ED5409"/>
<stop offset="1" stop-color="#FFCB67"/>
</linearGradient>
<linearGradient id="paint6_linear_4561_242" x1="155.076" y1="100.313" x2="142.364" y2="102.161" gradientUnits="userSpaceOnUse">
<stop stop-color="#1A3746"/>
<stop offset="0.24" stop-color="#2B588B"/>
<stop offset="0.37" stop-color="#5A6B83"/>
<stop offset="0.74" stop-color="#ED5409"/>
<stop offset="1" stop-color="#FFCB67"/>
</linearGradient>
<linearGradient id="paint7_linear_4561_242" x1="157.053" y1="115.213" x2="147.774" y2="106.327" gradientUnits="userSpaceOnUse">
<stop stop-color="#1A3746"/>
<stop offset="0.24" stop-color="#2B588B"/>
<stop offset="0.37" stop-color="#5A6B83"/>
<stop offset="0.74" stop-color="#ED5409"/>
<stop offset="1" stop-color="#FFCB67"/>
</linearGradient>
<linearGradient id="paint8_linear_4561_242" x1="196.487" y1="57.4589" x2="107.266" y2="48.8828" gradientUnits="userSpaceOnUse">
<stop stop-color="#1A3746"/>
<stop offset="0.24" stop-color="#2B588B"/>
<stop offset="0.37" stop-color="#5A6B83"/>
<stop offset="0.74" stop-color="#ED5409"/>
<stop offset="1" stop-color="#FFCB67"/>
</linearGradient>
<linearGradient id="paint9_linear_4561_242" x1="193.833" y1="64.7816" x2="175.647" y2="60.8548" gradientUnits="userSpaceOnUse">
<stop stop-color="#1A3746"/>
<stop offset="0.24" stop-color="#2B588B"/>
<stop offset="0.37" stop-color="#5A6B83"/>
<stop offset="0.74" stop-color="#ED5409"/>
<stop offset="1" stop-color="#FFCB67"/>
</linearGradient>
<linearGradient id="paint10_linear_4561_242" x1="164.087" y1="46.7162" x2="142.309" y2="41.9267" gradientUnits="userSpaceOnUse">
<stop stop-color="#1A3746"/>
<stop offset="0.24" stop-color="#2B588B"/>
<stop offset="0.37" stop-color="#5A6B83"/>
<stop offset="0.74" stop-color="#ED5409"/>
<stop offset="1" stop-color="#FFCB67"/>
</linearGradient>
<linearGradient id="paint11_linear_4561_242" x1="159.898" y1="62.351" x2="137.962" y2="59.8257" gradientUnits="userSpaceOnUse">
<stop stop-color="#1A3746"/>
<stop offset="0.24" stop-color="#2B588B"/>
<stop offset="0.37" stop-color="#5A6B83"/>
<stop offset="0.74" stop-color="#ED5409"/>
<stop offset="1" stop-color="#FFCB67"/>
</linearGradient>
<linearGradient id="paint12_linear_4561_242" x1="147.436" y1="98.1556" x2="134.78" y2="95.9445" gradientUnits="userSpaceOnUse">
<stop stop-color="#1A3746"/>
<stop offset="0.24" stop-color="#2B588B"/>
<stop offset="0.37" stop-color="#5A6B83"/>
<stop offset="0.74" stop-color="#ED5409"/>
<stop offset="1" stop-color="#FFCB67"/>
</linearGradient>
<linearGradient id="paint13_linear_4561_242" x1="146.125" y1="111.754" x2="135.985" y2="103.866" gradientUnits="userSpaceOnUse">
<stop stop-color="#1A3746"/>
<stop offset="0.24" stop-color="#2B588B"/>
<stop offset="0.37" stop-color="#5A6B83"/>
<stop offset="0.74" stop-color="#ED5409"/>
<stop offset="1" stop-color="#FFCB67"/>
</linearGradient>
<linearGradient id="paint14_linear_4561_242" x1="64.3426" y1="100.213" x2="54.6426" y2="99.8109" gradientUnits="userSpaceOnUse">
<stop stop-color="#1A3746"/>
<stop offset="0.24" stop-color="#2B588B"/>
<stop offset="0.37" stop-color="#5A6B83"/>
<stop offset="0.74" stop-color="#ED5409"/>
<stop offset="1" stop-color="#FFCB67"/>
</linearGradient>
<linearGradient id="paint15_linear_4561_242" x1="67.6403" y1="90.8795" x2="59.4678" y2="96.1178" gradientUnits="userSpaceOnUse">
<stop stop-color="#1A3746"/>
<stop offset="0.24" stop-color="#2B588B"/>
<stop offset="0.37" stop-color="#5A6B83"/>
<stop offset="0.74" stop-color="#ED5409"/>
<stop offset="1" stop-color="#FFCB67"/>
</linearGradient>
<linearGradient id="paint16_linear_4561_242" x1="71.1356" y1="96.6183" x2="62.9631" y2="101.857" gradientUnits="userSpaceOnUse">
<stop stop-color="#1A3746"/>
<stop offset="0.24" stop-color="#2B588B"/>
<stop offset="0.37" stop-color="#5A6B83"/>
<stop offset="0.74" stop-color="#ED5409"/>
<stop offset="1" stop-color="#FFCB67"/>
</linearGradient>
<linearGradient id="paint17_linear_4561_242" x1="81.6605" y1="89.1075" x2="73.488" y2="94.3457" gradientUnits="userSpaceOnUse">
<stop stop-color="#1A3746"/>
<stop offset="0.24" stop-color="#2B588B"/>
<stop offset="0.37" stop-color="#5A6B83"/>
<stop offset="0.74" stop-color="#ED5409"/>
<stop offset="1" stop-color="#FFCB67"/>
</linearGradient>
<linearGradient id="paint18_linear_4561_242" x1="87.6715" y1="98.7453" x2="78.5128" y2="95.5252" gradientUnits="userSpaceOnUse">
<stop stop-color="#1A3746"/>
<stop offset="0.24" stop-color="#2B588B"/>
<stop offset="0.37" stop-color="#5A6B83"/>
<stop offset="0.74" stop-color="#ED5409"/>
<stop offset="1" stop-color="#FFCB67"/>
</linearGradient>
<linearGradient id="paint19_linear_4561_242" x1="96.7887" y1="46.6935" x2="32.7103" y2="68.63" gradientUnits="userSpaceOnUse">
<stop stop-color="#1A3746"/>
<stop offset="0.24" stop-color="#2B588B"/>
<stop offset="0.37" stop-color="#5A6B83"/>
<stop offset="0.74" stop-color="#ED5409"/>
<stop offset="1" stop-color="#FFCB67"/>
</linearGradient>
<linearGradient id="paint20_linear_4561_242" x1="97.2478" y1="52.5606" x2="83.5068" y2="55.5326" gradientUnits="userSpaceOnUse">
<stop stop-color="#1A3746"/>
<stop offset="0.24" stop-color="#2B588B"/>
<stop offset="0.37" stop-color="#5A6B83"/>
<stop offset="0.74" stop-color="#ED5409"/>
<stop offset="1" stop-color="#FFCB67"/>
</linearGradient>
<linearGradient id="paint21_linear_4561_242" x1="71.1393" y1="49.4091" x2="54.6571" y2="52.9081" gradientUnits="userSpaceOnUse">
<stop stop-color="#1A3746"/>
<stop offset="0.24" stop-color="#2B588B"/>
<stop offset="0.37" stop-color="#5A6B83"/>
<stop offset="0.74" stop-color="#ED5409"/>
<stop offset="1" stop-color="#FFCB67"/>
</linearGradient>
<linearGradient id="paint22_linear_4561_242" x1="73.1337" y1="61.4765" x2="57.2498" y2="66.5827" gradientUnits="userSpaceOnUse">
<stop stop-color="#1A3746"/>
<stop offset="0.24" stop-color="#2B588B"/>
<stop offset="0.37" stop-color="#5A6B83"/>
<stop offset="0.74" stop-color="#ED5409"/>
<stop offset="1" stop-color="#FFCB67"/>
</linearGradient>
<linearGradient id="paint23_linear_4561_242" x1="75.7302" y1="90.0045" x2="66.3302" y2="92.4317" gradientUnits="userSpaceOnUse">
<stop stop-color="#1A3746"/>
<stop offset="0.24" stop-color="#2B588B"/>
<stop offset="0.37" stop-color="#5A6B83"/>
<stop offset="0.74" stop-color="#ED5409"/>
<stop offset="1" stop-color="#FFCB67"/>
</linearGradient>
<linearGradient id="paint24_linear_4561_242" x1="79.0729" y1="99.7726" x2="69.6336" y2="97.508" gradientUnits="userSpaceOnUse">
<stop stop-color="#1A3746"/>
<stop offset="0.24" stop-color="#2B588B"/>
<stop offset="0.37" stop-color="#5A6B83"/>
<stop offset="0.74" stop-color="#ED5409"/>
<stop offset="1" stop-color="#FFCB67"/>
</linearGradient>
<clipPath id="clip0_4561_242">
<rect width="89.6166" height="120.689" fill="white" transform="translate(115.237 13) rotate(15)"/>
</clipPath>
<clipPath id="clip1_4561_242">
<rect width="67.7174" height="91.1969" fill="white" transform="translate(27 41.4473) rotate(-9.38852)"/>
</clipPath>
</defs>
</svg>
