<svg width="175" height="138" viewBox="0 0 175 138" fill="none" xmlns="http://www.w3.org/2000/svg">
<g clip-path="url(#clip0_4554_1405)">
<path d="M101.003 91.1682C102.567 88.0652 101.321 84.2811 98.2166 82.7167C95.1136 81.1527 91.3295 82.3988 89.7651 85.5033C88.2011 88.6063 89.4472 92.3904 92.5517 93.9548C95.6547 95.5188 99.4388 94.2726 101.003 91.1682Z" fill="url(#paint0_linear_4554_1405)"/>
<path d="M95.7844 89.9174C93.7549 89.5407 91.9118 89.5529 90.5514 89.9724L90.4918 89.9908C90.6225 90.3366 90.7888 90.6717 90.9918 90.9869L91.0906 90.9447C91.4905 90.7754 91.9029 90.6235 92.3186 90.4944C93.4329 90.1479 94.608 89.9536 95.7863 89.9163L95.7844 89.9174Z" fill="#141416"/>
<path d="M90.5303 86.3129C90.1373 87.2665 90.0652 88.2874 90.2726 89.2505L90.3101 89.2387C91.1503 88.9827 92.1386 88.8617 93.2457 88.8804C94.2174 88.8971 95.2761 89.0261 96.3716 89.2572L90.5303 86.3129Z" fill="#141416"/>
<path d="M96.0346 84.353C96.8478 86.681 98.3304 88.6964 100.322 90.1813C101.201 87.7819 100.1 85.0142 97.6806 83.7944C97.0423 83.4719 96.3713 83.289 95.7025 83.2316C95.795 83.6094 95.9079 83.9864 96.0346 84.353Z" fill="#141416"/>
<path d="M93.8276 83.4743C94.3001 84.8176 95.3851 86.3063 96.8944 87.715C96.2249 86.7453 95.6824 85.6862 95.2969 84.5833C95.1538 84.1732 95.0306 83.7529 94.9287 83.3289L94.9037 83.2238C94.5286 83.2482 94.1611 83.3137 93.8063 83.4139L93.8261 83.4739L93.8276 83.4743Z" fill="#141416"/>
<path d="M92.5711 91.226C92.2 91.3405 91.831 91.4759 91.472 91.6265C91.9151 92.1295 92.462 92.5603 93.1006 92.8813C95.5196 94.1012 98.4004 93.3408 99.8079 91.2065C97.4296 90.488 94.9256 90.4949 92.5715 91.2245L92.5711 91.226Z" fill="#141416"/>
<path d="M94.5517 86.2903C93.8767 85.4113 93.387 84.546 93.0935 83.7176L93.0802 83.6797C92.1826 84.0858 91.4062 84.7509 90.8728 85.6341L96.7127 88.5781C95.8747 87.835 95.1419 87.0607 94.5507 86.2885L94.5517 86.2903Z" fill="#141416"/>
<path d="M110.063 81.808C109.563 78.3691 106.371 75.9861 102.932 76.486C99.4928 76.9858 97.1097 80.1786 97.6096 83.6175C98.1095 87.0564 101.302 89.4395 104.741 88.9396C108.18 88.4397 110.563 85.2469 110.063 81.808Z" fill="url(#paint1_linear_4554_1405)"/>
<path d="M105.073 83.7803C103.194 84.6358 101.692 85.7048 100.82 86.8282L100.781 86.8788C101.088 87.0874 101.416 87.2661 101.763 87.4073L101.82 87.3164C102.05 86.9484 102.301 86.5878 102.566 86.2435C103.281 85.3198 104.13 84.4869 105.074 83.7807L105.073 83.7803Z" fill="#141416"/>
<path d="M98.7024 83.8452C98.9292 84.8524 99.4549 85.729 100.177 86.3987L100.201 86.3677C100.742 85.6756 101.481 85.0099 102.399 84.389C103.204 83.8455 104.145 83.3417 105.176 82.9041L98.7024 83.8452Z" fill="#141416"/>
<path d="M102.086 79.08C104.087 80.5189 106.459 81.3185 108.943 81.3922C108.286 78.9219 105.795 77.2892 103.114 77.6781C102.406 77.7803 101.751 78.0156 101.172 78.3524C101.464 78.6073 101.773 78.854 102.087 79.0804L102.086 79.08Z" fill="#141416"/>
<path d="M99.7727 79.6284C100.93 80.457 102.674 81.054 104.718 81.3394C103.613 80.9293 102.561 80.374 101.614 79.6924C101.262 79.4387 100.918 79.1654 100.593 78.8766L100.512 78.805C100.219 79.0405 99.955 79.304 99.7218 79.5914L99.7727 79.6284Z" fill="#141416"/>
<path d="M103.194 86.6964C102.957 87.0031 102.73 87.3265 102.524 87.6538C103.175 87.8112 103.871 87.8492 104.578 87.7466C107.259 87.3576 109.181 85.0815 109.108 82.5255C106.748 83.3019 104.702 84.7452 103.193 86.6946L103.194 86.6964Z" fill="#141416"/>
<path d="M101.982 81.5188C100.925 81.1855 100.028 80.7577 99.3113 80.2486L99.2784 80.2258C98.7763 81.0736 98.5217 82.0644 98.5926 83.0939L105.064 82.1525C103.952 82.0247 102.908 81.8107 101.979 81.518L101.982 81.5188Z" fill="#141416"/>
<path d="M111.146 90.6335C110.646 87.1946 107.453 84.8115 104.014 85.3114C100.575 85.8113 98.1921 89.0041 98.6919 92.443C99.1918 95.8819 102.385 98.2649 105.824 97.765C109.262 97.2652 111.645 94.0724 111.146 90.6335Z" fill="url(#paint2_linear_4554_1405)"/>
<path d="M106.155 92.6058C104.276 93.4612 102.775 94.5302 101.902 95.6537L101.864 95.7042C102.17 95.9129 102.499 96.0915 102.845 96.2327L102.902 96.1418C103.132 95.7739 103.383 95.4133 103.649 95.069C104.363 94.1452 105.213 93.3123 106.156 92.6062L106.155 92.6058Z" fill="#141416"/>
<path d="M99.7847 92.6682C100.012 93.6754 100.537 94.552 101.259 95.2217L101.283 95.1907C101.825 94.4986 102.564 93.8329 103.481 93.212C104.286 92.6685 105.227 92.1647 106.258 91.7271L99.7847 92.6682Z" fill="#141416"/>
<path d="M103.168 87.9054C105.169 89.3443 107.541 90.144 110.025 90.2176C109.369 87.7473 106.878 86.1146 104.196 86.5035C103.488 86.6058 102.833 86.841 102.254 87.1779C102.546 87.4327 102.855 87.6795 103.169 87.9058L103.168 87.9054Z" fill="#141416"/>
<path d="M100.853 88.4522C102.011 89.2808 103.755 89.8777 105.799 90.1631C104.694 89.753 103.642 89.1977 102.695 88.5161C102.343 88.2624 101.999 87.9891 101.673 87.7004L101.593 87.6288C101.3 87.8643 101.036 88.1277 100.802 88.4151L100.853 88.4522Z" fill="#141416"/>
<path d="M104.275 95.5211C104.038 95.8278 103.811 96.1512 103.604 96.4785C104.256 96.6359 104.951 96.6739 105.658 96.5713C108.34 96.1823 110.261 93.9062 110.189 91.3502C107.829 92.1266 105.783 93.5699 104.274 95.5193L104.275 95.5211Z" fill="#141416"/>
<path d="M103.063 90.3433C102.006 90.01 101.108 89.5821 100.392 89.0731L100.359 89.0502C99.857 89.8981 99.6024 90.8889 99.6733 91.9184L106.145 90.977C105.033 90.8492 103.989 90.6351 103.06 90.3425L103.063 90.3433Z" fill="#141416"/>
<path d="M127.935 87.3307C127.435 83.8918 124.242 81.5088 120.803 82.0087C117.364 82.5085 114.981 85.7013 115.481 89.1402C115.981 92.5791 119.174 94.9622 122.613 94.4623C126.052 93.9624 128.435 90.7696 127.935 87.3307Z" fill="url(#paint3_linear_4554_1405)"/>
<path d="M122.944 89.304C121.066 90.1595 119.564 91.2284 118.691 92.3519L118.653 92.4025C118.959 92.6111 119.288 92.7897 119.634 92.931L119.691 92.8401C119.921 92.4721 120.173 92.1115 120.438 91.7672C121.153 90.8435 122.002 90.0106 122.946 89.3044L122.944 89.304Z" fill="#141416"/>
<path d="M116.572 89.3664C116.799 90.3737 117.325 91.2502 118.047 91.92L118.071 91.8889C118.612 91.1969 119.351 90.5312 120.269 89.9102C121.074 89.3668 122.015 88.8629 123.046 88.4254L116.572 89.3664Z" fill="#141416"/>
<path d="M119.957 84.6012C121.958 86.0401 124.33 86.8398 126.814 86.9134C126.158 84.4431 123.667 82.8104 120.986 83.1993C120.277 83.3016 119.622 83.5369 119.043 83.8737C119.336 84.1285 119.644 84.3753 119.959 84.6016L119.957 84.6012Z" fill="#141416"/>
<path d="M117.643 85.1497C118.8 85.9783 120.544 86.5752 122.588 86.8607C121.483 86.4505 120.431 85.8952 119.484 85.2136C119.132 84.9599 118.788 84.6866 118.463 84.3979L118.382 84.3263C118.089 84.5618 117.825 84.8252 117.592 85.1126L117.643 85.1497Z" fill="#141416"/>
<path d="M121.064 92.2194C120.827 92.5261 120.6 92.8494 120.394 93.1768C121.045 93.3341 121.741 93.3722 122.448 93.2695C125.129 92.8806 127.051 90.6044 126.978 88.0485C124.618 88.8248 122.572 90.2682 121.063 92.2175L121.064 92.2194Z" fill="#141416"/>
<path d="M119.852 87.0398C118.795 86.7065 117.898 86.2786 117.181 85.7696L117.148 85.7467C116.646 86.5946 116.392 87.5854 116.463 88.6149L122.934 87.6735C121.822 87.5457 120.778 87.3317 119.849 87.039L119.852 87.0398Z" fill="#141416"/>
<path d="M129.954 102.116C132.357 99.6065 132.271 95.6227 129.76 93.2193C127.249 90.8159 123.267 90.9015 120.864 93.4126C118.461 95.9221 118.546 99.9059 121.057 102.309C123.566 104.712 127.55 104.627 129.954 102.116Z" fill="url(#paint4_linear_4554_1405)"/>
<path d="M125.327 99.3958C123.497 98.4413 121.731 97.915 120.307 97.9178L120.244 97.9182C120.269 98.2871 120.329 98.6563 120.432 99.0181L120.54 99.0064C120.972 98.9614 121.41 98.9365 121.846 98.9347C123.014 98.9306 124.193 99.0873 125.33 99.3966L125.327 99.3958Z" fill="#141416"/>
<path d="M121.358 94.4119C120.704 95.2096 120.336 96.1637 120.253 97.1456L120.292 97.1452C121.171 97.1464 122.151 97.3185 123.204 97.6615C124.127 97.9621 125.104 98.3939 126.083 98.9359L121.358 94.4119Z" fill="#141416"/>
<path d="M127.197 94.1472C127.292 96.611 128.122 98.9715 129.592 100.974C131.135 98.9369 130.89 95.9678 128.934 94.0941C128.416 93.5994 127.829 93.2279 127.207 92.9771C127.186 93.365 127.182 93.759 127.197 94.1458L127.197 94.1472Z" fill="#141416"/>
<path d="M125.342 92.6616C125.401 94.0847 126.003 95.8251 127.035 97.6137C126.679 96.4904 126.469 95.3191 126.424 94.1528C126.407 93.7203 126.413 93.2812 126.439 92.8447L126.446 92.7372C126.08 92.6502 125.71 92.6056 125.34 92.5986L125.342 92.6616Z" fill="#141416"/>
<path d="M121.872 99.7055C121.484 99.7077 121.09 99.7271 120.705 99.766C120.982 100.376 121.379 100.948 121.896 101.442C123.852 103.316 126.83 103.431 128.8 101.802C126.735 100.42 124.34 99.6936 121.874 99.7044L121.872 99.7055Z" fill="#141416"/>
<path d="M125.209 95.5659C124.821 94.5281 124.605 93.5565 124.567 92.6794L124.565 92.6399C123.588 92.7669 122.651 93.1749 121.882 93.8639L126.605 98.3875C126.02 97.4328 125.547 96.4766 125.207 95.5655L125.209 95.5659Z" fill="#141416"/>
<path d="M87.8758 93.4103C87.714 93.367 87.5811 93.2392 87.5405 93.0643L76.6683 46.6587C76.6093 46.407 76.7657 46.1553 77.0174 46.0962C77.2706 46.0375 77.5208 46.1936 77.5799 46.4453L88.4521 92.8509C88.5111 93.1026 88.3547 93.3543 88.103 93.4134C88.0247 93.4315 87.9472 93.4294 87.8758 93.4103Z" fill="black"/>
<path d="M128.475 104.289C128.403 104.27 128.335 104.233 128.276 104.178C128.088 104.001 128.078 103.705 128.255 103.516L160.874 68.764C161.051 68.5756 161.343 68.5633 161.535 68.743C161.724 68.92 161.733 69.2162 161.556 69.4046L128.938 104.157C128.816 104.287 128.636 104.332 128.475 104.289Z" fill="black"/>
<path d="M162.015 69.0761C161.374 71.469 141.676 68.2886 118.032 61.9532C94.3881 55.6178 75.7247 48.5193 76.3658 46.1265C76.7086 44.847 82.3881 45.1427 91.1806 46.6443C96.442 47.5387 102.81 48.8732 109.812 50.5558C113.193 51.3647 116.742 52.2672 120.369 53.2391C123.996 54.211 127.506 55.2 130.852 56.1935C137.757 58.2371 143.94 60.2643 148.944 62.1219C157.293 65.2134 162.359 67.797 162.017 69.0765L162.015 69.0761Z" fill="#737578"/>
<path d="M136.035 66.8272C135.796 66.7632 135.645 66.5213 135.7 66.2752C135.755 66.0229 136.004 65.8631 136.257 65.9183C154.095 69.8047 161.246 69.8434 161.563 68.9536C161.567 68.939 161.609 67.3105 148.779 62.559C143.789 60.7082 137.543 58.6614 130.718 56.6403C124.035 54.656 116.424 52.6165 109.701 51.0089C102.779 49.3448 96.3469 47.9945 91.1001 47.1041C77.5981 44.7997 76.8208 46.2315 76.8169 46.246C76.711 46.8221 80.3832 49.7709 98.0444 55.556C98.29 55.6358 98.4235 55.9012 98.3437 56.1469C98.2623 56.3922 97.9764 56.5264 97.7527 56.4462C87.4201 53.0622 75.2438 48.5032 75.913 46.0054C76.0841 45.3671 76.5386 43.6709 91.258 46.1827C96.5241 47.0767 102.978 48.4329 109.919 50.1006C116.658 51.714 124.285 53.7563 130.983 55.7445C137.829 57.771 144.095 59.8248 149.104 61.6825C163.091 66.8626 162.637 68.5589 162.466 69.1972C161.719 71.9835 145.599 68.912 136.057 66.8331C136.049 66.8311 136.042 66.8292 136.035 66.8272Z" fill="black"/>
<path d="M101.361 97.024C101.142 96.9654 100.994 96.7554 101.017 96.5227L106.034 48.608C106.061 48.3511 106.29 48.1643 106.548 48.1928C106.798 48.2161 106.99 48.4487 106.963 48.707L101.948 96.6221C101.922 96.8789 101.69 97.0654 101.434 97.0373C101.409 97.0354 101.384 97.0302 101.361 97.024Z" fill="black"/>
<path d="M162.022 69.0713C162.364 67.7948 157.296 65.2093 148.942 62.118C143.939 60.2604 137.755 58.2285 130.851 56.1849C127.5 55.1964 123.993 54.2053 120.368 53.2338C116.742 52.2623 113.198 51.3643 109.814 50.548C102.813 48.8658 96.4409 47.5334 91.1792 46.6405C82.3871 45.1374 76.7062 44.8413 76.3637 46.1193C76.7866 44.5411 77.273 43.0174 77.8304 41.5143C79.9794 35.7613 83.0822 30.6403 86.9188 26.2954C91.9227 20.5843 98.1448 16.2085 104.989 13.5614C113.232 10.3582 122.401 9.63812 131.403 12.0501C143.417 15.2691 152.874 23.4464 158.373 34.0115C163.705 44.2353 165.338 56.6962 162.022 69.0699L162.022 69.0713Z" fill="#FE515E"/>
<path d="M162.022 69.0713C162.364 67.7948 157.296 65.2093 148.942 62.118C143.939 60.2604 137.755 58.2285 130.851 56.1849C127.5 55.1964 123.993 54.2053 120.368 53.2338C116.742 52.2623 113.198 51.3643 109.814 50.548C102.813 48.8658 96.4409 47.5334 91.1792 46.6405C82.3871 45.1374 76.7062 44.8413 76.3637 46.1193C76.7866 44.5411 77.273 43.0174 77.8304 41.5143C79.9794 35.7613 83.0822 30.6403 86.9188 26.2954C91.9227 20.5843 98.1448 16.2085 104.989 13.5614C113.232 10.3582 122.401 9.63812 131.403 12.0501C143.417 15.2691 152.874 23.4464 158.373 34.0115C163.705 44.2353 165.338 56.6962 162.022 69.0699L162.022 69.0713Z" fill="url(#paint5_linear_4554_1405)"/>
<path d="M103.477 16.6945C102.203 17.3482 100.53 16.9903 99.3969 17.8489C98.2295 18.7372 98.0586 20.6281 96.7521 21.2605C96.2179 21.5172 95.6135 21.5114 95.0642 21.725C94.2024 22.0501 93.6191 22.8747 93.2475 23.731C92.8791 24.5757 92.6734 25.4889 92.2456 26.3161C91.8326 27.1348 91.1229 27.9005 90.2171 28.0576C89.2007 28.2367 88.2086 27.6491 87.4774 26.9097C87.2842 26.7157 87.094 26.5102 86.9191 26.2946C91.923 20.5835 98.1451 16.2077 104.989 13.5606C105.123 14.7976 104.578 16.1102 103.478 16.6948L103.477 16.6945Z" fill="#FFECD4"/>
<path d="M89.1137 33.4391C87.5675 33.0248 86.3117 31.9933 85.2032 31.0824C84.9477 30.8641 84.6914 30.6548 84.4355 30.4441L83.911 30.0115C83.7133 29.8461 83.686 29.5514 83.8519 29.3521C84.0177 29.1529 84.3145 29.1294 84.5112 29.293L85.0306 29.7211C85.2905 29.9344 85.5504 30.1478 85.8048 30.3643C86.843 31.2173 88.0045 32.1517 89.3999 32.5459C90.5657 32.8583 92.1547 32.5937 92.8116 31.4889C93.1609 30.9078 93.2304 30.1939 93.3017 29.4383L93.3534 28.9305C93.531 27.5505 94.032 26.6195 94.8418 26.1618C95.5342 25.7756 96.2815 25.8135 97.0063 25.8483C97.5657 25.8764 98.093 25.9021 98.5351 25.7269C99.561 25.3083 99.9107 23.8808 100.084 22.8433C100.29 21.6069 100.571 19.9139 101.916 19.1139C102.613 18.6978 103.388 18.6556 104.136 18.6154C104.616 18.5895 105.07 18.5642 105.485 18.4442C107.125 17.9605 107.909 16.0059 107.836 14.3261C107.821 13.7754 107.721 13.238 107.535 12.6756C107.505 12.5881 107.503 12.4954 107.527 12.4065C107.594 12.1574 107.852 12.0032 108.102 12.07C108.287 12.1196 108.418 12.2704 108.444 12.4461C108.646 13.0735 108.753 13.6769 108.771 14.2924C108.86 16.3293 107.85 18.7218 105.747 19.3422C105.229 19.4924 104.699 19.5222 104.187 19.5491C103.522 19.5848 102.894 19.6196 102.396 19.9172C101.498 20.4514 101.227 21.6783 101.007 22.9967C100.796 24.2554 100.346 25.9968 98.8854 26.5939C98.251 26.8457 97.5957 26.8138 96.9606 26.7826C96.3412 26.7509 95.7568 26.7225 95.3013 26.9768C94.7637 27.281 94.4198 27.9761 94.2825 29.042L94.2323 29.5268C94.1529 30.3536 94.0708 31.2078 93.6126 31.9675C92.7046 33.497 90.6635 33.8341 89.1155 33.4381L89.1137 33.4391Z" fill="#FFECD4"/>
<path d="M162.022 69.0715C162.364 67.795 157.297 65.2095 148.943 62.1182C150.484 55.1577 150.938 48.357 150.428 42.1118C153.522 41.5069 156.239 38.9814 157.596 36.0385C157.904 35.3714 158.159 34.7042 158.371 34.0128C163.704 44.2366 165.336 56.6975 162.021 69.0711L162.022 69.0715Z" fill="#F83B4D"/>
<path d="M162.022 69.0715C162.364 67.795 157.297 65.2095 148.943 62.1182C150.484 55.1577 150.938 48.357 150.428 42.1118C153.522 41.5069 156.239 38.9814 157.596 36.0385C157.904 35.3714 158.159 34.7042 158.371 34.0128C163.704 44.2366 165.336 56.6975 162.021 69.0711L162.022 69.0715Z" fill="url(#paint6_linear_4554_1405)"/>
<path d="M148.942 62.1185C143.938 60.2609 137.754 58.229 130.85 56.1854C127.499 55.1969 123.993 54.2058 120.367 53.2343C116.741 52.2628 113.198 51.3648 109.813 50.5485C102.812 48.8663 96.4403 47.5338 91.1786 46.641C91.7766 44.7473 92.4393 42.8975 93.1752 41.1189C101.378 20.9114 117.34 8.28249 131.402 12.0506C142.259 14.9596 149.2 26.892 150.429 42.1124C150.937 48.3573 150.485 55.1583 148.943 62.1189L148.942 62.1185Z" fill="#E1E5EB"/>
<path d="M148.942 62.1184C143.939 60.2608 137.755 58.2289 130.851 56.1852C131.943 51.725 132.839 47.4199 133.538 43.3575C135.229 41.7706 136.894 40.1364 139.096 39.8236C142.224 39.3825 145.032 41.814 148.17 42.2035C148.93 42.3041 149.691 42.2627 150.428 42.1119C150.937 48.3568 150.484 55.1578 148.942 62.1184Z" fill="#C9CCD1"/>
<path d="M112.643 41.6216C111.659 44.4709 110.708 47.4444 109.812 50.5484C102.811 48.8662 96.4391 47.5337 91.1774 46.6409C91.7754 44.7472 92.4382 42.8974 93.174 41.1188C94.5873 40.904 96.0169 40.8732 97.4125 41.2081C100.043 41.8488 102.342 43.7301 105.032 43.8573C107.684 43.9868 110.113 42.39 112.644 41.622L112.643 41.6216Z" fill="#C9CCD1"/>
<path d="M130.85 56.1869C127.5 55.1984 123.993 54.2073 120.367 53.2358C116.742 52.2644 113.198 51.3663 109.813 50.55C110.71 47.4446 111.662 44.4714 112.644 41.6232C118.962 23.2973 126.63 10.7718 131.403 12.0506C135.861 13.2451 136.485 26.1465 133.539 43.3595C132.839 47.4201 131.942 51.7267 130.852 56.1873L130.85 56.1869Z" fill="#FE515E"/>
<path d="M130.85 56.1869C127.5 55.1984 123.993 54.2073 120.367 53.2358C116.742 52.2644 113.198 51.3663 109.813 50.55C110.71 47.4446 111.662 44.4714 112.644 41.6232C118.962 23.2973 126.63 10.7718 131.403 12.0506C135.861 13.2451 136.485 26.1465 133.539 43.3595C132.839 47.4201 131.942 51.7267 130.852 56.1873L130.85 56.1869Z" fill="url(#paint7_linear_4554_1405)"/>
<path d="M130.851 56.1866C127.5 55.1982 123.993 54.2071 120.368 53.2356C116.742 52.2641 113.198 51.3661 109.814 50.5498C110.71 47.4443 111.663 44.4712 112.644 41.623C113.576 41.3305 114.526 41.1587 115.49 41.2233C120.202 41.5177 123.61 47.2086 128.299 46.5797C130.377 46.2978 131.965 44.8508 133.539 43.3607C132.839 47.4213 131.942 51.7278 130.852 56.1885L130.851 56.1866Z" fill="#F83B4D"/>
<path d="M130.851 56.1866C127.5 55.1982 123.993 54.2071 120.368 53.2356C116.742 52.2641 113.198 51.3661 109.814 50.5498C110.71 47.4443 111.663 44.4712 112.644 41.623C113.576 41.3305 114.526 41.1587 115.49 41.2233C120.202 41.5177 123.61 47.2086 128.299 46.5797C130.377 46.2978 131.965 44.8508 133.539 43.3607C132.839 47.4213 131.942 51.7278 130.852 56.1885L130.851 56.1866Z" fill="url(#paint8_linear_4554_1405)"/>
<path d="M161.901 69.5239C161.652 69.4571 161.504 69.2003 161.57 68.9511C161.575 68.935 161.616 67.3061 148.781 62.5582C143.769 60.6982 137.524 58.6499 130.72 56.6347C123.717 54.5693 116.751 52.7042 109.705 51.0037C102.806 49.3459 96.3721 47.9966 91.1012 47.1029C77.5988 44.7938 76.8202 46.2251 76.8159 46.2412C76.7491 46.4904 76.4923 46.6386 76.2431 46.5719C75.9939 46.5051 75.8456 46.2483 75.9124 45.9991L75.9147 45.9903C76.3415 44.3975 76.8244 42.8807 77.3918 41.3521C85.9466 18.4136 109.218 5.62213 131.524 11.5991C138.851 13.5624 145.56 17.4856 150.925 22.9419C151.105 23.1261 151.104 23.4225 150.919 23.6042C150.735 23.7844 150.438 23.7831 150.257 23.5985C145.009 18.2595 138.448 14.4226 131.282 12.5026C109.445 6.65136 86.6526 19.1947 78.2679 41.679C77.8516 42.8014 77.4807 43.9172 77.1456 45.0628C78.7265 44.6774 82.421 44.6692 91.2576 46.1811C96.5489 47.0803 103.002 48.4332 109.923 50.0954C116.987 51.8006 123.965 53.6706 130.983 55.7385C137.808 57.7592 144.075 59.8148 149.105 61.6813C157.502 64.7872 160.698 66.6415 161.872 67.7653C162.997 63.1201 163.447 58.3849 163.209 53.6742C163.196 53.4164 163.394 53.1961 163.652 53.184C163.909 53.1715 164.13 53.3699 164.142 53.6277C164.406 58.8354 163.846 64.0709 162.475 69.1873L162.473 69.1961C162.406 69.4453 162.15 69.5936 161.9 69.5268L161.901 69.5239Z" fill="black"/>
<path d="M130.02 47.2473C129.197 47.0267 128.34 47.2219 127.635 47.7202C126.92 48.2176 126.35 49.0051 126.089 49.9785C126.611 48.0316 125.706 46.0915 124.061 45.6506C124.885 45.8713 125.731 45.6732 126.444 45.1879C127.149 44.6881 127.719 43.9007 127.98 42.9272C127.719 43.9007 127.82 44.8678 128.189 45.6557C128.554 46.4296 129.198 47.0271 130.021 47.2477L130.02 47.2473Z" fill="#FFECD4"/>
<path d="M126.7 19.4613C127.487 19.9064 127.026 22.1976 125.945 24.7115C124.853 27.2193 123.498 29.124 122.634 28.8551C121.784 28.5931 121.796 26.1066 122.964 23.4207C124.124 20.731 125.927 19.0212 126.7 19.4613Z" fill="#FFECD4"/>
<path d="M129.037 15.5624C129.366 15.7802 129.239 16.5381 128.789 17.2749C128.335 18.0109 127.71 18.4604 127.372 18.2666C127.032 18.0724 127.115 17.2888 127.582 16.5315C128.046 15.7719 128.713 15.3476 129.035 15.562L129.037 15.5624Z" fill="#FFECD4"/>
<path d="M120.294 85.1272C120.891 81.7042 118.601 78.4434 115.177 77.846C111.753 77.2486 108.493 79.5381 107.896 82.9626C107.299 86.3856 109.588 89.6464 113.012 90.2438C116.435 90.8408 119.696 88.5516 120.294 85.1272Z" fill="url(#paint9_linear_4554_1405)"/>
<path d="M114.937 85.4442C112.885 85.6721 111.125 86.2189 109.945 87.0133L109.893 87.0494C110.119 87.3426 110.376 87.6145 110.66 87.8579L110.743 87.7894C111.077 87.5103 111.427 87.2465 111.788 87.0026C112.755 86.348 113.822 85.8218 114.939 85.4446L114.937 85.4442Z" fill="#141416"/>
<path d="M108.865 83.5169C108.766 84.5446 108.991 85.5405 109.469 86.4027L109.502 86.3802C110.233 85.8919 111.142 85.4889 112.208 85.1873C113.143 84.9224 114.194 84.7369 115.309 84.6423L108.865 83.5169Z" fill="#141416"/>
<path d="M113.567 80.0463C115.02 82.0381 117.023 83.5386 119.361 84.3819C119.507 81.83 117.651 79.502 114.981 79.0351C114.277 78.912 113.581 78.9318 112.924 79.0697C113.122 79.4039 113.339 79.7336 113.567 80.0463Z" fill="#141416"/>
<path d="M111.198 79.8456C112.04 80.9943 113.51 82.1052 115.362 83.0154C114.441 82.2811 113.614 81.4255 112.927 80.4822C112.67 80.1324 112.43 79.765 112.211 79.3877L112.156 79.2949C111.805 79.4273 111.471 79.5955 111.16 79.7949L111.196 79.8452L111.198 79.8456Z" fill="#141416"/>
<path d="M112.242 87.6267C111.921 87.8439 111.605 88.0808 111.306 88.3272C111.876 88.6797 112.525 88.9332 113.229 89.0563C115.898 89.5232 118.433 87.9596 119.162 85.509C116.676 85.5114 114.282 86.243 112.241 87.6249L112.242 87.6267Z" fill="#141416"/>
<path d="M112.707 82.3301C111.807 81.6844 111.087 80.9978 110.566 80.2897L110.543 80.2585C109.802 80.9081 109.251 81.7694 108.995 82.7693L115.438 83.8944C114.422 83.4268 113.495 82.8974 112.706 82.3297L112.707 82.3301Z" fill="#141416"/>
<path d="M119.017 98.6755C121.151 95.9331 120.658 91.979 117.914 89.8444C115.172 87.7101 111.218 88.2031 109.083 90.947C106.949 93.6895 107.442 97.6435 110.186 99.7782C112.928 101.912 116.882 101.419 119.017 98.6755Z" fill="url(#paint10_linear_4554_1405)"/>
<path d="M114.139 96.4424C112.22 95.68 110.409 95.3385 108.994 95.4856L108.931 95.4922C108.993 95.857 109.091 96.2177 109.231 96.5673L109.336 96.5457C109.762 96.4566 110.196 96.387 110.628 96.3405C111.789 96.2159 112.979 96.252 114.142 96.4432L114.139 96.4424Z" fill="#141416"/>
<path d="M109.679 91.8916C109.11 92.7526 108.843 93.7384 108.86 94.7239L108.898 94.7201C109.773 94.6313 110.764 94.7032 111.849 94.9359C112.798 95.1403 113.812 95.4699 114.842 95.9099L109.679 91.893L109.679 91.8916Z" fill="#141416"/>
<path d="M115.461 91.0317C115.809 93.4726 116.874 95.7368 118.543 97.5789C119.869 95.3945 119.323 92.4664 117.184 90.803C116.619 90.3642 115.996 90.0537 115.352 89.8687C115.37 90.2561 115.407 90.6487 115.462 91.0321L115.461 91.0317Z" fill="#141416"/>
<path d="M113.462 89.7436C113.666 91.1523 114.445 92.8228 115.653 94.4961C115.184 93.4145 114.856 92.2723 114.691 91.1161C114.629 90.6872 114.589 90.25 114.571 89.8142L114.567 89.7069C114.194 89.6585 113.822 89.6508 113.453 89.6815L113.461 89.7432L113.462 89.7436Z" fill="#141416"/>
<path d="M110.733 97.1061C110.347 97.1479 109.958 97.2076 109.578 97.2869C109.915 97.8645 110.37 98.394 110.935 98.8328C113.072 100.496 116.045 100.307 117.838 98.4834C115.643 97.319 113.186 96.8433 110.734 97.1047L110.733 97.1061Z" fill="#141416"/>
<path d="M113.629 92.6465C113.137 91.6542 112.823 90.7095 112.695 89.8411L112.69 89.8022C111.731 90.028 110.841 90.5298 110.146 91.2932L115.308 95.3097C114.63 94.4189 114.061 93.5182 113.629 92.6451L113.629 92.6465Z" fill="#141416"/>
<path d="M114.5 100.543C114.476 100.537 114.452 100.529 114.43 100.518C114.194 100.413 114.087 100.136 114.192 99.9016L133.806 55.8982C133.912 55.661 134.196 55.5574 134.423 55.6604C134.659 55.7658 134.766 56.0428 134.661 56.2771L115.048 100.281C114.953 100.494 114.718 100.602 114.5 100.543Z" fill="black"/>
<path d="M131.111 104.375L124.576 128.762C123.827 131.557 120.952 133.228 118.144 132.476L82.6582 122.968C79.8632 122.219 78.2075 119.334 78.9564 116.539L85.491 92.1514L131.109 104.375L131.111 104.375Z" fill="#141416"/>
<path d="M131.111 104.375L124.576 128.762C123.827 131.557 120.952 133.228 118.144 132.476L82.6582 122.968C79.8632 122.219 78.2075 119.334 78.9564 116.539L85.491 92.1514L131.109 104.375L131.111 104.375Z" fill="#FFCB67" fill-opacity="0.9"/>
<path d="M96.1132 98.2016C94.7709 98.8744 92.9196 98.4564 91.8812 99.5339C91.4867 99.9452 91.2988 100.501 91.0372 100.999C90.7841 101.512 90.3938 102.001 89.8349 102.111C89.1908 102.248 88.5355 101.802 87.8894 101.899C86.8824 102.043 86.5052 103.259 85.9517 104.118C85.2457 105.208 83.9677 105.885 82.6852 105.851C82.404 105.839 82.1174 105.802 81.8521 105.731L85.491 92.1504L97.7815 95.4436C97.6965 96.5829 97.1298 97.6837 96.1136 98.2002L96.1132 98.2016Z" fill="#FE9A4C"/>
<path d="M81.7571 112.421C81.2106 112.275 80.6588 112.032 80.1173 111.698C79.8974 111.562 79.8295 111.274 79.9649 111.054C80.1004 110.834 80.3892 110.764 80.6086 110.901C81.5065 111.456 82.4127 111.711 83.2319 111.639C84.2908 111.54 85.2263 110.858 85.5016 109.982C85.5774 109.74 85.6154 109.482 85.6549 109.223C85.7507 108.598 85.8592 107.89 86.4333 107.414C87.1022 106.876 88.0856 106.896 89.2135 107.461L89.4479 107.577C90.0562 107.877 90.6311 108.162 91.1548 108.033C92.0013 107.811 92.3025 106.635 92.4044 105.689C92.5233 104.563 92.6868 103.02 93.8928 102.337C94.6399 101.916 95.5781 101.941 96.7501 102.411C96.927 102.485 97.0956 102.562 97.2655 102.638C97.8514 102.9 98.4057 103.152 98.978 103.172C100.281 103.228 101.368 102.071 101.769 100.898C102.182 99.6543 102.095 98.3409 101.938 96.754C101.937 96.7474 101.936 96.7426 101.935 96.7374C101.887 96.5372 101.976 96.322 102.166 96.2184C102.393 96.0934 102.676 96.1787 102.8 96.404C102.825 96.4498 102.844 96.5141 102.855 96.5718C102.86 96.5935 102.864 96.6147 102.866 96.6356C103.001 97.9806 103.168 99.6529 102.656 101.196C102.158 102.654 100.784 104.185 98.9414 104.107C98.1892 104.076 97.5267 103.78 96.8842 103.49C96.7225 103.417 96.5609 103.344 96.3992 103.278C95.5089 102.922 94.8392 102.88 94.3556 103.152C93.6281 103.564 93.4641 104.59 93.3381 105.789C93.094 108.035 92.1437 108.743 91.3895 108.94C90.5291 109.155 89.7361 108.763 89.0367 108.418L88.8019 108.303C88.4321 108.115 87.5328 107.735 87.0275 108.14C86.7321 108.386 86.6637 108.839 86.582 109.366C86.5348 109.67 86.4864 109.979 86.396 110.264C86.0047 111.509 84.769 112.436 83.3179 112.571C82.814 112.615 82.289 112.564 81.76 112.422L81.7571 112.421Z" fill="#FFECD4"/>
<path d="M129.69 109.677L124.576 128.763C123.827 131.558 120.952 133.229 118.144 132.476L82.658 122.968C79.863 122.219 78.2072 119.334 78.9562 116.539L78.9628 116.514C80.9113 119.076 84.7316 120.242 87.681 118.824C90.1702 117.631 92.0122 114.947 94.7801 114.696C97.4558 114.444 99.668 116.599 101.628 118.442C103.585 120.297 106.271 122.128 108.763 121.116C110.496 120.431 111.447 118.619 112.373 116.995C113.295 115.382 114.568 113.67 116.42 113.456C118.991 113.164 121.225 115.957 123.774 115.505C125.534 115.202 126.628 113.48 127.609 111.987C128.171 111.143 128.86 110.256 129.687 109.676L129.69 109.677Z" fill="#141416"/>
<path d="M129.69 109.677L124.576 128.763C123.827 131.558 120.952 133.229 118.144 132.476L82.658 122.968C79.863 122.219 78.2072 119.334 78.9562 116.539L78.9628 116.514C80.9113 119.076 84.7316 120.242 87.681 118.824C90.1702 117.631 92.0122 114.947 94.7801 114.696C97.4558 114.444 99.668 116.599 101.628 118.442C103.585 120.297 106.271 122.128 108.763 121.116C110.496 120.431 111.447 118.619 112.373 116.995C113.295 115.382 114.568 113.67 116.42 113.456C118.991 113.164 121.225 115.957 123.774 115.505C125.534 115.202 126.628 113.48 127.609 111.987C128.171 111.143 128.86 110.256 129.687 109.676L129.69 109.677Z" fill="#FE9A4C" fill-opacity="0.5"/>
<path d="M106.387 129.81L82.5376 123.42C79.4978 122.605 77.689 119.464 78.5051 116.418L85.0397 92.0309C85.1064 91.7817 85.3633 91.6334 85.6125 91.7001L131.231 103.924C131.48 103.99 131.628 104.247 131.561 104.496L126.904 121.877C126.837 122.126 126.581 122.275 126.331 122.208C126.082 122.141 125.934 121.884 126.001 121.635L130.537 104.706L85.8221 92.7247L79.4086 116.66C78.7257 119.209 80.2383 121.835 82.7797 122.516L106.629 128.907C106.879 128.974 107.027 129.23 106.96 129.48C106.893 129.729 106.636 129.877 106.387 129.81Z" fill="black"/>
<path d="M129.588 108.242L84.8752 96.2615C82.9443 95.7441 81.7986 93.7596 82.316 91.8288C82.8333 89.8979 84.8178 88.7521 86.7487 89.2695L131.462 101.25C133.393 101.768 134.539 103.752 134.021 105.683C133.504 107.614 131.519 108.76 129.588 108.242Z" fill="#997951"/>
<path d="M115.101 117.957C114.278 117.736 113.421 117.931 112.716 118.429C112.001 118.927 111.431 119.714 111.17 120.688C111.692 118.741 110.787 116.801 109.142 116.36C109.966 116.58 110.812 116.382 111.525 115.897C112.23 115.397 112.801 114.61 113.061 113.636C112.801 114.61 112.901 115.577 113.271 116.365C113.635 117.139 114.279 117.736 115.102 117.957L115.101 117.957Z" fill="#FFECD4"/>
<path d="M117.309 113.513C116.936 113.413 116.547 113.501 116.225 113.729C115.901 113.954 115.642 114.313 115.524 114.754C115.761 113.87 115.351 112.988 114.603 112.788C114.976 112.888 115.362 112.799 115.685 112.578C116.005 112.352 116.265 111.993 116.384 111.552C116.265 111.995 116.31 112.433 116.478 112.791C116.643 113.143 116.936 113.413 117.311 113.514L117.309 113.513Z" fill="#FFECD4"/>
<path d="M110.781 106.235C110.5 107.088 108.369 107.182 105.899 106.655C103.421 106.12 101.482 105.04 101.651 104.151C101.818 103.278 104.01 102.925 106.593 103.481C109.186 104.034 111.065 105.384 110.783 106.234L110.781 106.235Z" fill="#FFECD4"/>
<path d="M114.676 107.679C114.511 108.039 113.807 108.061 113.077 107.781C112.349 107.497 111.847 106.992 111.971 106.623C112.096 106.25 112.825 106.163 113.592 106.462C114.359 106.757 114.836 107.328 114.675 107.678L114.676 107.679Z" fill="#FFECD4"/>
</g>
<g clip-path="url(#clip1_4554_1405)">
<path d="M37.2335 87.2073C37.3416 84.5838 35.3033 82.3684 32.6787 82.2604C30.0552 82.1523 27.8398 84.1906 27.7318 86.8152C27.6237 89.4387 29.662 91.6541 32.2866 91.7621C34.9101 91.8702 37.1255 89.832 37.2335 87.2073Z" fill="url(#paint11_linear_4554_1405)"/>
<path d="M33.2514 87.9758C31.7371 88.3498 30.4724 88.9333 29.6671 89.6465L29.6319 89.6778C29.8297 89.875 30.0487 90.0537 30.2868 90.2073L30.3416 90.1474C30.564 89.9061 30.8004 89.6729 31.0462 89.4543C31.705 88.8682 32.453 88.3678 33.2523 87.9745L33.2514 87.9758Z" fill="#141416"/>
<path d="M28.5103 87.1341C28.5374 87.913 28.8064 88.6381 29.2496 89.2362L29.2717 89.2163C29.7701 88.7781 30.4125 88.3864 31.1802 88.0538C31.8541 87.7621 32.623 87.5206 33.449 87.3378L28.5103 87.1341Z" fill="#141416"/>
<path d="M31.6877 84.0676C32.9737 85.416 34.6229 86.3404 36.457 86.7409C36.3131 84.8154 34.6915 83.2543 32.6462 83.1696C32.1062 83.1468 31.5874 83.2303 31.1092 83.3995C31.2907 83.6306 31.4861 83.8548 31.6877 84.0676Z" fill="#141416"/>
<path d="M29.8951 84.1514C30.6395 84.9284 31.8506 85.6144 33.3288 86.113C32.5655 85.6545 31.8618 85.0949 31.2524 84.4562C31.0259 84.2186 30.8099 83.9678 30.6075 83.7078L30.5575 83.6432C30.307 83.7771 30.0746 83.9368 29.8616 84.1165L29.894 84.1516L29.8951 84.1514Z" fill="#141416"/>
<path d="M31.4487 89.8791C31.229 90.0737 31.0173 90.282 30.8173 90.4977C31.2792 90.7055 31.7899 90.8314 32.3296 90.8531C34.375 90.9378 36.1204 89.5157 36.423 87.6076C34.5621 87.8552 32.841 88.6413 31.4486 89.8779L31.4487 89.8791Z" fill="#141416"/>
<path d="M31.271 85.8638C30.5321 85.4695 29.9251 85.0268 29.4647 84.5483L29.4437 84.5263C28.9527 85.0859 28.6259 85.7858 28.5344 86.5601L33.4719 86.764C32.6634 86.5141 31.9175 86.2099 31.2697 85.8629L31.271 85.8638Z" fill="#141416"/>
<path d="M40.5488 77.9365C39.1318 75.7258 36.191 75.082 33.9803 76.499C31.7696 77.916 31.1257 80.8569 32.5428 83.0676C33.9598 85.2783 36.9006 85.9221 39.1113 84.5051C41.322 83.0881 41.9658 80.1472 40.5488 77.9365Z" fill="url(#paint12_linear_4554_1405)"/>
<path d="M37.7295 80.8511C36.7036 82.026 36.0037 83.2302 35.7537 84.2756L35.743 84.3225C36.019 84.3704 36.3008 84.3908 36.5832 84.38L36.5942 84.2996C36.6376 83.9746 36.698 83.6481 36.7733 83.3282C36.9768 82.4696 37.3016 81.6313 37.7307 80.8509L37.7295 80.8511Z" fill="#141416"/>
<path d="M33.3649 82.8835C33.8352 83.5059 34.4706 83.9451 35.1762 84.1808L35.183 84.152C35.3398 83.5067 35.6407 82.818 36.0785 82.1043C36.4628 81.4792 36.9531 80.8389 37.5261 80.2161L33.3649 82.8835Z" fill="#141416"/>
<path d="M34.2071 78.5488C36.0332 78.9148 37.9153 78.7249 39.6478 78.0005C38.4253 76.5052 36.2015 76.1588 34.4776 77.2631C34.022 77.5545 33.6446 77.9208 33.3511 78.3333C33.632 78.4175 33.9214 78.4909 34.2083 78.5486L34.2071 78.5488Z" fill="#141416"/>
<path d="M32.7851 79.648C33.8399 79.8572 35.2264 79.7239 36.7226 79.2824C35.8339 79.3449 34.9365 79.2911 34.0723 79.1174C33.7508 79.0527 33.4289 78.9719 33.1148 78.8748L33.0368 78.8507C32.9089 79.1041 32.8092 79.3678 32.7384 79.6384L32.7851 79.648Z" fill="#141416"/>
<path d="M37.3453 83.4442C37.278 83.7292 37.2226 84.0226 37.1826 84.3123C37.68 84.2174 38.1707 84.0265 38.6252 83.7353C40.3491 82.631 40.9616 80.4649 40.1141 78.7285C38.7319 79.9993 37.7746 81.6308 37.344 83.4433L37.3453 83.4442Z" fill="#141416"/>
<path d="M34.8953 80.2591C34.0638 80.3596 33.3127 80.3451 32.6608 80.2183L32.6311 80.2129C32.5501 80.953 32.684 81.7143 33.054 82.4007L37.2142 79.7335C36.4089 79.9926 35.6238 80.171 34.8931 80.2594L34.8953 80.2591Z" fill="#141416"/>
<path d="M44.0443 83.6745C42.6273 81.4638 39.6865 80.82 37.4758 82.237C35.2651 83.654 34.6213 86.5949 36.0383 88.8056C37.4553 91.0163 40.3961 91.6601 42.6068 90.2431C44.8175 88.8261 45.4613 85.8852 44.0443 83.6745Z" fill="url(#paint13_linear_4554_1405)"/>
<path d="M41.225 86.5891C40.1991 87.764 39.4993 88.9682 39.2492 90.0137L39.2385 90.0605C39.5145 90.1085 39.7963 90.1289 40.0788 90.118L40.0897 90.0376C40.1331 89.7127 40.1935 89.3861 40.2688 89.0663C40.4724 88.2076 40.7971 87.3693 41.2262 86.5889L41.225 86.5891Z" fill="#141416"/>
<path d="M36.8604 88.6198C37.3307 89.2422 37.9661 89.6814 38.6718 89.9172L38.6785 89.8883C38.8353 89.2431 39.1362 88.5543 39.574 87.8406C39.9583 87.2155 40.4486 86.5752 41.0216 85.9524L36.8604 88.6198Z" fill="#141416"/>
<path d="M37.7027 84.2861C39.5287 84.6521 41.4108 84.4622 43.1433 83.7378C41.9208 82.2425 39.697 81.8962 37.9731 83.0004C37.5175 83.2918 37.1401 83.6581 36.8466 84.0706C37.1275 84.1548 37.4169 84.2282 37.7038 84.2859L37.7027 84.2861Z" fill="#141416"/>
<path d="M36.2822 85.3843C37.3371 85.5935 38.7236 85.4602 40.2197 85.0187C39.3311 85.0813 38.4336 85.0274 37.5695 84.8537C37.248 84.789 36.9261 84.7082 36.6119 84.6111L36.534 84.587C36.406 84.8404 36.3064 85.1042 36.2356 85.3747L36.2822 85.3843Z" fill="#141416"/>
<path d="M40.8409 89.182C40.7736 89.467 40.7181 89.7604 40.6782 90.0501C41.1755 89.9552 41.6662 89.7643 42.1207 89.473C43.8447 88.3688 44.4571 86.2027 43.6096 84.4663C42.2275 85.7371 41.2701 87.3686 40.8395 89.1811L40.8409 89.182Z" fill="#141416"/>
<path d="M38.3925 85.9969C37.561 86.0974 36.8099 86.0829 36.158 85.9561L36.1282 85.9506C36.0472 86.6908 36.1812 87.4521 36.5512 88.1385L40.7113 85.4713C39.906 85.7304 39.1209 85.9088 38.3903 85.9972L38.3925 85.9969Z" fill="#141416"/>
<path d="M54.5685 76.1636C53.1515 73.9528 50.2107 73.309 48 74.726C45.7893 76.1431 45.1455 79.0839 46.5625 81.2946C47.9795 83.5053 50.9203 84.1491 53.131 82.7321C55.3417 81.3151 55.9855 78.3743 54.5685 76.1636Z" fill="url(#paint14_linear_4554_1405)"/>
<path d="M51.7509 79.0774C50.725 80.2523 50.0251 81.4565 49.7751 82.5019L49.7643 82.5488C50.0403 82.5967 50.3222 82.6172 50.6046 82.6063L50.6156 82.5259C50.6589 82.201 50.7193 81.8744 50.7947 81.5546C50.9982 80.6959 51.323 79.8576 51.752 79.0772L51.7509 79.0774Z" fill="#141416"/>
<path d="M47.3846 81.1088C47.8549 81.7312 48.4903 82.1704 49.196 82.4062L49.2027 82.3773C49.3595 81.7321 49.6604 81.0433 50.0982 80.3296C50.4825 79.7045 50.9728 79.0642 51.5458 78.4414L47.3846 81.1088Z" fill="#141416"/>
<path d="M48.2269 76.7742C50.0529 77.1401 51.935 76.9502 53.6675 76.2259C52.445 74.7306 50.2212 74.3842 48.4973 75.4885C48.0417 75.7799 47.6643 76.1462 47.3708 76.5587C47.6517 76.6428 47.9411 76.7163 48.228 76.774L48.2269 76.7742Z" fill="#141416"/>
<path d="M46.8064 77.8733C47.8613 78.0825 49.2478 77.9492 50.7439 77.5077C49.8553 77.5703 48.9578 77.5165 48.0937 77.3427C47.7722 77.278 47.4503 77.1972 47.1361 77.1001L47.0582 77.076C46.9302 77.3294 46.8306 77.5932 46.7598 77.8637L46.8064 77.8733Z" fill="#141416"/>
<path d="M51.3667 81.671C51.2994 81.956 51.2439 82.2494 51.204 82.5391C51.7013 82.4442 52.1921 82.2533 52.6465 81.9621C54.3705 80.8578 54.9829 78.6917 54.1354 76.9553C52.7533 78.2261 51.7959 79.8576 51.3654 81.6701L51.3667 81.671Z" fill="#141416"/>
<path d="M48.9167 78.4842C48.0852 78.5847 47.3341 78.5702 46.6822 78.4434L46.6524 78.438C46.5714 79.1781 46.7054 79.9394 47.0754 80.6258L51.2355 77.9586C50.4302 78.2177 49.6451 78.3961 48.9145 78.4845L48.9167 78.4842Z" fill="#141416"/>
<path d="M60.5724 85.7096C61.4432 83.2327 60.1415 80.5176 57.6635 79.6471C55.1855 78.7765 52.4715 80.078 51.601 82.556C50.7302 85.0329 52.0319 87.748 54.5099 88.6185C56.9868 89.4893 59.7019 88.1876 60.5724 85.7096Z" fill="url(#paint15_linear_4554_1405)"/>
<path d="M56.5415 85.281C54.9837 85.1954 53.604 85.3842 52.6252 85.8303L52.5822 85.8501C52.7142 86.0964 52.871 86.3316 53.0547 86.5485L53.1252 86.5068C53.4086 86.3409 53.7021 86.1873 54.0018 86.0499C54.8042 85.6827 55.6648 85.4225 56.5438 85.2806L56.5415 85.281Z" fill="#141416"/>
<path d="M52.2529 83.0891C52.0516 83.8423 52.096 84.6137 52.3449 85.3155L52.3717 85.303C52.977 85.0296 53.7052 84.8422 54.5369 84.7497C55.2664 84.6684 56.0729 84.661 56.916 84.7285L52.2529 83.0891Z" fill="#141416"/>
<path d="M56.1889 81.0857C57.0236 82.7514 58.3309 84.1171 59.9678 85.0366C60.3936 83.1532 59.2988 81.1862 57.3678 80.5072C56.8575 80.3281 56.3371 80.2558 55.8311 80.2771C55.9376 80.5507 56.0577 80.8231 56.1888 81.0846L56.1889 81.0857Z" fill="#141416"/>
<path d="M54.4484 80.6419C54.9331 81.6029 55.8905 82.6128 57.1592 83.5215C56.5633 82.8597 56.0538 82.119 55.6588 81.3304C55.5122 81.038 55.3788 80.7342 55.2608 80.4256L55.232 80.3495C54.9532 80.4036 54.6842 80.4886 54.4275 80.5992L54.4484 80.6419Z" fill="#141416"/>
<path d="M54.2595 86.5715C53.9932 86.6941 53.7281 86.8304 53.475 86.9774C53.856 87.3107 54.3073 87.5805 54.8176 87.7595C56.7486 88.4386 58.8336 87.5889 59.6813 85.853C57.8291 85.5457 55.9542 85.7933 54.2605 86.5702L54.2595 86.5715Z" fill="#141416"/>
<path d="M55.2649 82.6819C54.6746 82.0885 54.2227 81.4873 53.9227 80.8956L53.9091 80.869C53.276 81.2614 52.7584 81.8346 52.4443 82.5486L57.1062 84.1881C56.4061 83.7134 55.7821 83.203 55.2638 82.6821L55.2649 82.6819Z" fill="#141416"/>
<path d="M28.8973 92.8462C28.7725 92.8668 28.6411 92.8204 28.5586 92.7127L6.59693 64.1684C6.47775 64.0136 6.5069 63.7915 6.66167 63.6724C6.81756 63.553 7.03849 63.5823 7.15767 63.7371L29.1194 92.2814C29.2386 92.4362 29.2094 92.6583 29.0546 92.7774C29.0064 92.8143 28.9524 92.8371 28.8973 92.8462Z" fill="black"/>
<path d="M60.233 87.6653C60.1778 87.6744 60.1194 87.6702 60.0619 87.6509C59.877 87.5878 59.7779 87.387 59.8409 87.2021L71.4458 53.1078C71.5088 52.9229 71.7061 52.8232 71.8945 52.8868C72.0794 52.9499 72.1785 53.1507 72.1155 53.3356L60.5106 87.4299C60.467 87.5573 60.3578 87.6447 60.233 87.6653Z" fill="black"/>
<path d="M72.3281 52.9664C72.6335 54.8132 58.0851 58.7705 39.8363 61.7878C21.5875 64.8051 6.52843 65.7432 6.22308 63.8964C6.0598 62.9089 10.0607 61.3403 16.5803 59.6303C20.4802 58.6042 25.2791 57.5357 30.6232 56.5088C33.202 56.0108 35.9259 55.5246 38.7254 55.0617C41.5249 54.5988 44.2491 54.1842 46.8621 53.8238C52.2513 53.076 57.1396 52.5416 61.1625 52.2589C67.8731 51.7814 72.166 51.9787 72.3293 52.9662L72.3281 52.9664Z" fill="#737578"/>
<path d="M53.7465 59.5243C53.5621 59.5548 53.3829 59.4353 53.3439 59.2488C53.3031 59.058 53.4246 58.8703 53.6155 58.8295C67.1049 55.9382 72.0382 53.7336 71.9784 53.0225C71.9766 53.0113 71.4979 51.8771 61.1851 52.6105C57.1739 52.8936 52.2369 53.4337 46.9086 54.1726C41.6904 54.8921 35.8159 55.8634 30.6877 56.8546C25.405 57.869 20.5569 58.9468 16.6682 59.9711C6.65701 62.5981 6.56884 63.826 6.5707 63.8372C6.67754 64.2667 10.1248 65.1503 24.0844 63.621C24.2784 63.5993 24.4531 63.7403 24.4748 63.9343C24.4953 64.1285 24.3405 64.3101 24.1615 64.3247C15.9946 65.2197 6.1923 65.8814 5.87355 63.9536C5.7921 63.461 5.57563 62.1518 16.4893 59.2877C20.3925 58.2599 25.2575 57.1794 30.5546 56.1614C35.6954 55.1693 41.5821 54.1948 46.8115 53.4734C52.1555 52.732 57.1085 52.1903 61.1356 51.9058C72.378 51.1065 72.5945 52.4157 72.6759 52.9083C73.0315 55.0588 60.979 57.9748 53.7634 59.5215C53.7578 59.5224 53.7521 59.5233 53.7465 59.5243Z" fill="black"/>
<path d="M39.3056 91.1255C39.1369 91.1534 38.9692 91.0551 38.9127 90.8877L27.415 56.3472C27.3532 56.1621 27.453 55.9619 27.6393 55.901C27.8186 55.8391 28.0235 55.9392 28.0855 56.1254L39.5843 90.6657C39.6461 90.8508 39.5452 91.0512 39.3599 91.1119C39.3425 91.1182 39.3236 91.1225 39.3056 91.1255Z" fill="black"/>
<path d="M72.3307 52.9612C72.1678 51.9759 67.8736 51.7777 61.1597 52.2569C57.1369 52.5396 52.2469 53.0708 46.8577 53.8186C44.2432 54.1839 41.5208 54.5959 38.7225 55.0585C35.9241 55.5212 33.2051 56.0089 30.6211 56.5032C25.278 57.5299 20.4773 58.601 16.5776 59.6283C10.0578 61.3372 6.05576 62.9059 6.21885 63.8923C6.01745 62.6742 5.87675 61.4738 5.79134 60.2654C5.47533 55.6357 6.01281 51.1433 7.29751 46.956C8.95927 41.4642 11.876 36.5114 15.7604 32.5541C20.4338 27.7776 26.5194 24.4212 33.4669 23.2725C42.7392 21.7393 51.7993 24.4161 58.8801 29.9714C65.7399 35.3437 70.7514 43.4099 72.3305 52.9601L72.3307 52.9612Z" fill="#FE515E"/>
<path d="M72.3307 52.9612C72.1678 51.9759 67.8736 51.7777 61.1597 52.2569C57.1369 52.5396 52.2469 53.0708 46.8577 53.8186C44.2432 54.1839 41.5208 54.5959 38.7225 55.0585C35.9241 55.5212 33.2051 56.0089 30.6211 56.5032C25.278 57.5299 20.4773 58.601 16.5776 59.6283C10.0578 61.3372 6.05576 62.9059 6.21885 63.8923C6.01745 62.6742 5.87675 61.4738 5.79134 60.2654C5.47533 55.6357 6.01281 51.1433 7.29751 46.956C8.95927 41.4642 11.876 36.5114 15.7604 32.5541C20.4338 27.7776 26.5194 24.4212 33.4669 23.2725C42.7392 21.7393 51.7993 24.4161 58.8801 29.9714C65.7399 35.3437 70.7514 43.4099 72.3305 52.9601L72.3307 52.9612Z" fill="url(#paint16_linear_4554_1405)"/>
<path d="M15.6973 35.1818C15.0251 36.029 13.7615 36.305 13.2498 37.2493C12.7236 38.2248 13.196 39.5795 12.4942 40.4224C12.2066 40.7657 11.7888 40.9503 11.4775 41.2687C10.9858 41.7614 10.8417 42.5108 10.8531 43.2161C10.8631 43.9124 11.0065 44.6051 10.9702 45.3078C10.9414 46.0001 10.6919 46.7485 10.1175 47.1393C9.47395 47.5796 8.60783 47.4848 7.8739 47.204C7.68039 47.1309 7.4854 47.0487 7.29773 46.955C8.9595 41.4632 11.8763 36.5104 15.7607 32.553C16.2388 33.3625 16.2731 34.4361 15.6984 35.1817L15.6973 35.1818Z" fill="#FFECD4"/>
<path d="M11.0376 51.1868C9.84421 51.3842 8.65809 51.0661 7.61099 50.7851C7.36706 50.7145 7.12538 50.6505 6.88351 50.5853L6.38759 50.4512C6.19987 50.3991 6.08917 50.2048 6.14114 50.0159C6.19311 49.8271 6.39004 49.7183 6.57645 49.7695L7.0675 49.9021C7.31293 49.9678 7.55835 50.0335 7.80097 50.1032C8.78156 50.3662 9.87252 50.6469 10.9558 50.4828C11.8556 50.334 12.8666 49.6561 12.974 48.6909C13.0331 48.182 12.8581 47.669 12.6714 47.1267L12.5486 46.7611C12.2403 45.756 12.2945 44.959 12.7091 44.3912C13.065 43.9095 13.5912 43.7023 14.1008 43.5002C14.4946 43.345 14.8655 43.1981 15.1151 42.9396C15.6905 42.3315 15.4857 41.2399 15.2813 40.4718C15.0376 39.5565 14.7022 38.3039 15.3783 37.3336C15.7283 36.8297 16.2486 36.5588 16.7508 36.2978C17.0732 36.1302 17.3774 35.9712 17.6254 35.7592C18.6031 34.9147 18.5332 33.3247 17.9587 32.1914C17.7767 31.8171 17.5404 31.4783 17.2365 31.1496C17.1887 31.0986 17.1586 31.0354 17.1473 30.9668C17.1155 30.7744 17.2452 30.5877 17.4376 30.5559C17.5804 30.5323 17.7179 30.5951 17.7908 30.7078C18.1257 31.0765 18.3875 31.4584 18.5918 31.8765C19.2882 33.2507 19.3398 35.2123 18.0861 36.2954C17.7764 36.5604 17.4212 36.7463 17.0774 36.9244C16.6305 37.1566 16.2093 37.3765 15.9592 37.7367C15.5082 38.3844 15.7045 39.3133 15.9641 40.2895C16.2118 41.2215 16.4459 42.5601 15.6267 43.427C15.2686 43.7982 14.8077 43.9807 14.3609 44.1574C13.9247 44.3289 13.5137 44.4916 13.2796 44.8088C13.0045 45.1859 12.9847 45.7715 13.2228 46.5479L13.3395 46.8972C13.5428 47.4911 13.7529 48.1045 13.6746 48.7703C13.5269 50.1062 12.2274 50.9751 11.0385 51.1855L11.0376 51.1868Z" fill="#FFECD4"/>
<path d="M72.3315 52.9608C72.1686 51.9756 67.8744 51.7774 61.1605 52.2566C60.0498 46.9852 58.2403 42.1633 55.9406 38.0244C57.881 36.6429 58.9626 34.0572 58.9783 31.6084C58.9824 31.0531 58.9499 30.5142 58.8799 29.9723C65.7397 35.3446 70.7513 43.4109 72.3304 52.961L72.3315 52.9608Z" fill="#F83B4D"/>
<path d="M72.3315 52.9608C72.1686 51.9756 67.8744 51.7774 61.1605 52.2566C60.0498 46.9852 58.2403 42.1633 55.9406 38.0244C57.881 36.6429 58.9626 34.0572 58.9783 31.6084C58.9824 31.0531 58.9499 30.5142 58.8799 29.9723C65.7397 35.3446 70.7513 43.4109 72.3304 52.961L72.3315 52.9608Z" fill="url(#paint17_linear_4554_1405)"/>
<path d="M61.1599 52.257C57.137 52.5397 52.247 53.0709 46.8578 53.8187C44.2433 54.184 41.5209 54.596 38.7226 55.0587C35.9243 55.5213 33.2052 56.0091 30.6212 56.5033C25.2782 57.53 20.4774 58.6011 16.5777 59.6284C16.3984 58.1386 16.2773 56.6588 16.2288 55.2051C15.5687 38.7389 22.6133 25.0672 33.467 23.2726C41.8463 21.8871 50.3462 27.9334 55.941 38.0247C58.2396 42.1637 60.0502 46.9855 61.161 52.2568L61.1599 52.257Z" fill="#E1E5EB"/>
<path d="M61.161 52.257C57.1381 52.5397 52.2481 53.0709 46.859 53.8187C46.2188 50.4084 45.4921 47.1661 44.706 44.152C45.3742 42.5325 46.0105 40.8881 47.4282 39.9859C49.4432 38.7064 52.1344 39.5035 54.4156 38.7924C54.9702 38.6245 55.4809 38.3586 55.941 38.0248C58.2396 42.1639 60.0502 46.9856 61.161 52.257Z" fill="#C9CCD1"/>
<path d="M29.7832 49.4769C29.9952 51.7447 30.2683 54.088 30.6203 56.5037C25.2773 57.5304 20.4766 58.6015 16.5768 59.6287C16.3975 58.1389 16.2764 56.6591 16.2279 55.2054C17.1335 54.6166 18.1077 54.1493 19.1727 53.9444C21.1829 53.5646 23.3524 54.1419 25.2432 53.3901C27.1086 52.6519 28.2818 50.7952 29.7843 49.4767L29.7832 49.4769Z" fill="#C9CCD1"/>
<path d="M46.8587 53.8195C44.2442 54.1847 41.5218 54.5967 38.7235 55.0594C35.9251 55.5221 33.206 56.0098 30.622 56.5041C30.2698 54.0873 29.9979 51.7438 29.7849 49.4773C28.4148 34.8941 29.7842 23.8812 33.4677 23.2722C36.9082 22.7033 41.3633 31.3873 44.7069 44.1526C45.4916 47.1657 46.2186 50.4092 46.8598 53.8193L46.8587 53.8195Z" fill="#FE515E"/>
<path d="M46.8587 53.8195C44.2442 54.1847 41.5218 54.5967 38.7235 55.0594C35.9251 55.5221 33.206 56.0098 30.622 56.5041C30.2698 54.0873 29.9979 51.7438 29.7849 49.4773C28.4148 34.8941 29.7842 23.8812 33.4677 23.2722C36.9082 22.7033 41.3633 31.3873 44.7069 44.1526C45.4916 47.1657 46.2186 50.4092 46.8598 53.8193L46.8587 53.8195Z" fill="url(#paint18_linear_4554_1405)"/>
<path d="M46.8579 53.8195C44.2434 54.1847 41.521 54.5967 38.7227 55.0594C35.9243 55.5221 33.2052 56.0098 30.6213 56.5041C30.269 54.0873 29.9971 51.7439 29.7841 49.4774C30.3337 48.9855 30.9341 48.5708 31.6174 48.3145C34.9528 47.0467 39.0736 49.8999 42.1041 48.0042C43.4461 47.1618 44.0881 45.6702 44.7063 44.1537C45.491 47.1669 46.218 50.4103 46.8592 53.8204L46.8579 53.8195Z" fill="#F83B4D"/>
<path d="M46.8579 53.8195C44.2434 54.1847 41.521 54.5967 38.7227 55.0594C35.9243 55.5221 33.2052 56.0098 30.6213 56.5041C30.269 54.0873 29.9971 51.7439 29.7841 49.4774C30.3337 48.9855 30.9341 48.5708 31.6174 48.3145C34.9528 47.0467 39.0736 49.8999 42.1041 48.0042C43.4461 47.1618 44.0881 45.6702 44.7063 44.1537C45.491 47.1669 46.218 50.4103 46.8592 53.8204L46.8579 53.8195Z" fill="url(#paint19_linear_4554_1405)"/>
<path d="M72.3891 53.3096C72.1968 53.3414 72.0146 53.2109 71.9828 53.0186C71.9807 53.0062 71.5009 51.8723 61.1865 52.6094C57.1569 52.8932 52.2196 53.4322 46.9083 54.1683C41.4443 54.9319 36.0683 55.822 30.6885 56.8501C25.4238 57.8616 20.5747 58.9407 16.6684 59.9702C6.65554 62.594 6.56624 63.822 6.56829 63.8344C6.60009 64.0268 6.4696 64.2089 6.27727 64.2407C6.08494 64.2725 5.90276 64.1421 5.87096 63.9497L5.86984 63.943C5.66658 62.7136 5.52568 61.5191 5.43918 60.2901C4.16941 41.8344 16.1937 25.7701 33.41 22.9236C39.0651 21.9885 44.9059 22.5954 50.3006 24.6765C50.4821 24.747 50.5737 24.9514 50.5034 25.134C50.4329 25.3155 50.2285 25.4071 50.0458 25.3368C44.7682 23.2999 39.0556 22.7065 33.5253 23.6209C16.6712 26.4076 4.89899 42.1517 6.14411 60.2417C6.20779 61.144 6.30074 62.0276 6.42759 62.9206C7.39526 62.1621 9.9353 61.0037 16.4884 59.287C20.4105 58.2549 25.274 57.1723 30.5554 56.1569C35.9487 55.1265 41.335 54.2359 46.81 53.4693C52.1371 52.7306 57.0914 52.19 61.1358 51.9049C67.8838 51.4223 70.6615 51.7014 71.8207 52.1083C71.1451 48.5606 69.9776 45.1612 68.3435 41.9939C68.2547 41.8202 68.3223 41.6068 68.4959 41.518C68.6685 41.4294 68.883 41.4968 68.9718 41.6704C70.7779 45.1722 72.0264 48.9499 72.6794 52.8988L72.6805 52.9055C72.7123 53.0979 72.5818 53.2801 72.3895 53.3119L72.3891 53.3096Z" fill="black"/>
<path d="M43.4986 47.9264C42.8631 48.0315 42.3344 48.4332 42.0046 48.9961C41.6682 49.5613 41.5215 50.2812 41.6457 51.0325C41.3972 49.5299 40.1693 48.4769 38.8995 48.6868C39.535 48.5818 40.0558 48.1814 40.3948 47.625C40.7244 47.0609 40.8712 46.3411 40.7469 45.5897C40.8712 46.3411 41.2418 46.9754 41.7422 47.4022C42.2344 47.8212 42.8642 48.0313 43.4997 47.9262L43.4986 47.9264Z" fill="#FFECD4"/>
<path d="M32.5438 29.841C33.2241 29.9018 33.6218 31.6224 33.662 33.6899C33.6929 35.7565 33.3545 37.4902 32.6763 37.5746C32.0097 37.6594 31.242 35.9445 31.2078 33.7317C31.1666 31.5188 31.8739 29.7796 32.5438 29.841Z" fill="#FFECD4"/>
<path d="M32.9352 26.4285C33.2296 26.4757 33.379 27.0368 33.2989 27.6844C33.2165 28.3324 32.9267 28.8368 32.6332 28.809C32.3386 28.7815 32.1516 28.2162 32.2366 27.5493C32.3192 26.8816 32.6455 26.3816 32.9341 26.4287L32.9352 26.4285Z" fill="#FFECD4"/>
<path d="M48.6234 77.0293C47.9662 74.4873 45.3734 72.9574 42.8303 73.6148C40.2872 74.2722 38.7584 76.8648 39.4158 79.4079C40.073 81.9499 42.6658 83.4798 45.2089 82.8224C47.7509 82.1652 49.2808 79.5724 48.6234 77.0293Z" fill="url(#paint20_linear_4554_1405)"/>
<path d="M45.0351 78.9189C43.6937 79.7161 42.6531 80.6416 42.0891 81.5564L42.0647 81.5974C42.3117 81.7287 42.5732 81.8357 42.845 81.9144L42.8804 81.8415C43.0232 81.5452 43.1819 81.2544 43.354 80.974C43.8154 80.2218 44.3857 79.5266 45.0362 78.9187L45.0351 78.9189Z" fill="#141416"/>
<path d="M40.2539 79.4877C40.5066 80.2259 40.9722 80.841 41.5703 81.2852L41.5857 81.2596C41.9361 80.6955 42.4361 80.1345 43.0759 79.5942C43.6365 79.1202 44.3019 78.6647 45.0401 78.2515L40.2539 79.4877Z" fill="#141416"/>
<path d="M42.4078 75.6315C44.0293 76.5489 45.8761 76.9565 47.7477 76.8077C47.0522 75.0057 45.0482 73.9828 43.0656 74.4944C42.5426 74.6294 42.07 74.86 41.6608 75.1599C41.9013 75.3282 42.1529 75.4876 42.4078 75.6315Z" fill="#141416"/>
<path d="M40.7145 76.2326C41.6522 76.7604 43.0108 77.0662 44.5695 77.1146C43.7061 76.8969 42.8703 76.566 42.1028 76.1313C41.8174 75.9705 41.5373 75.7926 41.2688 75.6013L41.2021 75.5546C41.0019 75.7552 40.8245 75.9752 40.6726 76.2095L40.7134 76.2328L40.7145 76.2326Z" fill="#141416"/>
<path d="M43.8622 81.2626C43.7094 81.512 43.5655 81.7738 43.4368 82.0366C43.9386 82.1015 44.4643 82.0735 44.9874 81.9385C46.9699 81.427 48.2269 79.5599 47.9636 77.646C46.2538 78.4233 44.8347 79.6736 43.8609 81.2616L43.8622 81.2626Z" fill="#141416"/>
<path d="M42.5297 77.4723C41.7088 77.3088 40.9988 77.0611 40.4194 76.7363L40.3939 76.722C40.0866 77.4002 39.9762 78.1649 40.1124 78.9328L44.8974 77.6967C44.0519 77.6921 43.2491 77.6168 42.5285 77.4725L42.5297 77.4723Z" fill="#141416"/>
<path d="M51.9739 86.7525C52.5871 84.1992 51.014 81.6318 48.4596 81.0189C45.9063 80.4057 43.3389 81.9788 42.7259 84.5332C42.1128 87.0865 43.6858 89.6539 46.2403 90.2668C48.7936 90.88 51.361 89.3069 51.9739 86.7525Z" fill="url(#paint21_linear_4554_1405)"/>
<path d="M47.9178 86.7376C46.3597 86.8115 45.0069 87.1415 44.0787 87.6843L44.0376 87.7085C44.1938 87.9403 44.3742 88.1578 44.5789 88.355L44.645 88.3071C44.9099 88.1131 45.1869 87.9298 45.4701 87.7628C46.2303 87.3147 47.0604 86.9683 47.92 86.7372L47.9178 86.7376Z" fill="#141416"/>
<path d="M43.4311 84.9962C43.3078 85.7665 43.4314 86.5283 43.7506 87.2012L43.776 87.1866C44.3504 86.8524 45.0551 86.5926 45.8738 86.4145C46.591 86.259 47.392 86.1693 48.2382 86.1507L43.4313 84.9973L43.4311 84.9962Z" fill="#141416"/>
<path d="M47.14 82.601C48.1416 84.1721 49.5807 85.3981 51.3045 86.145C51.5353 84.228 50.2458 82.3833 48.2546 81.906C47.7288 81.7803 47.2034 81.7609 46.7025 81.8345C46.8358 82.0955 46.9837 82.3542 47.1412 82.6008L47.14 82.601Z" fill="#141416"/>
<path d="M45.3633 82.3382C45.943 83.2442 46.9999 84.1509 48.354 84.9254C47.6935 84.3274 47.1114 83.6438 46.637 82.8995C46.4608 82.6236 46.2965 82.3353 46.1484 82.0409L46.1122 81.9683C45.8405 82.0513 45.5815 82.1623 45.3371 82.2986L45.3622 82.3384L45.3633 82.3382Z" fill="#141416"/>
<path d="M45.7821 88.2564C45.5295 88.4057 45.2802 88.5682 45.0431 88.7414C45.4554 89.0338 45.9336 89.2563 46.4593 89.382C48.4494 89.8595 50.4364 88.8018 51.1013 86.9875C49.2275 86.871 47.3878 87.3104 45.7819 88.2553L45.7821 88.2564Z" fill="#141416"/>
<path d="M46.3845 84.2837C45.7365 83.7542 45.2258 83.202 44.8667 82.6443L44.851 82.6192C44.2617 83.0737 43.8055 83.6968 43.5654 84.439L48.3711 85.5926C47.6265 85.1911 46.9536 84.7489 46.3843 84.2826L46.3845 84.2837Z" fill="#141416"/>
<path d="M49.4464 89.447C49.4284 89.45 49.409 89.452 49.3905 89.4516C49.1954 89.4527 49.0354 89.2954 49.0345 89.1014L48.8033 52.6981C48.802 52.5018 48.9651 52.342 49.1534 52.342C49.3485 52.341 49.5086 52.4982 49.5094 52.6922L49.7418 89.0954C49.7433 89.2719 49.6151 89.4191 49.4464 89.447Z" fill="black"/>
<path d="M62.0747 86.9017L65.1869 105.724C65.5435 107.881 64.0864 109.928 61.919 110.287L34.5306 114.815C32.3734 115.172 30.3338 113.703 29.9771 111.546L26.8649 92.7234L62.0736 86.9019L62.0747 86.9017Z" fill="#141416"/>
<path d="M62.0747 86.9017L65.1869 105.724C65.5435 107.881 64.0864 109.928 61.919 110.287L34.5306 114.815C32.3734 115.172 30.3338 113.703 29.9771 111.546L26.8649 92.7234L62.0736 86.9019L62.0747 86.9017Z" fill="#FFCB67" fill-opacity="0.9"/>
<path d="M36.0617 93.5728C35.3478 94.4546 33.9433 94.7446 33.5648 95.8102C33.4217 96.2163 33.4657 96.6573 33.4412 97.082C33.4272 97.5141 33.3111 97.9724 32.9607 98.2222C32.56 98.5172 31.97 98.4149 31.5556 98.6833C30.9076 99.0966 31.0272 100.051 30.9143 100.815C30.7686 101.785 30.1005 102.65 29.2071 103.027C29.0101 103.107 28.801 103.17 28.5963 103.204L26.8633 92.7227L36.3493 91.1542C36.6462 91.9648 36.5997 92.8992 36.0615 93.5717L36.0617 93.5728Z" fill="#FE9A4C"/>
<path d="M30.6182 107.838C30.1965 107.908 29.7409 107.913 29.264 107.852C29.0704 107.827 28.9336 107.65 28.9582 107.456C28.9829 107.263 29.1599 107.125 29.3537 107.151C30.1447 107.252 30.848 107.145 31.3891 106.84C32.087 106.441 32.5181 105.68 32.4342 104.991C32.4109 104.801 32.3564 104.611 32.303 104.421C32.1737 103.961 32.0275 103.44 32.2742 102.933C32.5668 102.355 33.2497 102.061 34.2021 102.098L34.3996 102.105C34.912 102.122 35.3966 102.139 35.7165 101.886C36.23 101.469 36.0702 100.566 35.8452 99.8829C35.5758 99.0712 35.2069 97.9582 35.8239 97.1121C36.2065 96.5889 36.86 96.3133 37.8132 96.2713C37.9581 96.267 38.0979 96.267 38.2389 96.2668C38.7237 96.264 39.1836 96.2642 39.584 96.0998C40.4983 95.7314 40.8849 94.5964 40.7954 93.6637C40.6915 92.679 40.2218 91.8023 39.6184 90.7593C39.6154 90.7552 39.6137 90.752 39.6109 90.749C39.5155 90.6261 39.5095 90.4503 39.6081 90.3196C39.7254 90.1627 39.947 90.133 40.1026 90.2494C40.1342 90.273 40.1672 90.3115 40.1928 90.3477C40.2031 90.361 40.2123 90.3745 40.2203 90.3882C40.7327 91.2718 41.3696 92.3705 41.4988 93.5924C41.6107 94.7514 41.1429 96.2338 39.8506 96.7548C39.3231 96.968 38.7747 96.9708 38.2423 96.9722C38.1083 96.9724 37.9743 96.9726 37.8421 96.9771C37.1185 97.0101 36.6444 97.1902 36.3964 97.5281C36.0245 98.0391 36.2318 98.7964 36.5191 99.6605C37.0519 101.283 36.6187 102.066 36.1613 102.437C35.6362 102.854 34.9681 102.831 34.379 102.812L34.1817 102.806C33.8685 102.792 33.131 102.811 32.9097 103.248C32.783 103.509 32.8774 103.842 32.9855 104.23C33.048 104.454 33.111 104.682 33.1377 104.906C33.2568 105.885 32.6958 106.909 31.7391 107.454C31.4062 107.642 31.0288 107.77 30.6205 107.838L30.6182 107.838Z" fill="#FFECD4"/>
<path d="M62.7499 90.994L65.1855 105.725C65.5422 107.882 64.0851 109.929 61.9177 110.287L34.5293 114.816C32.3721 115.172 30.3325 113.704 29.9758 111.546L29.9726 111.527C32.1129 112.682 35.1059 112.293 36.6931 110.396C38.0339 108.798 38.4643 106.377 40.2907 105.34C42.0537 104.332 44.2484 105.125 46.1723 105.782C48.0977 106.448 50.5177 106.87 51.9171 105.396C52.896 104.384 52.9851 102.84 53.1153 101.433C53.247 100.035 53.5886 98.4606 54.7963 97.7352C56.4746 96.7321 58.8841 97.9571 60.4968 96.8504C61.6136 96.0927 61.8292 94.5664 62.0386 93.2331C62.162 92.4766 62.3594 91.6513 62.7477 90.9944L62.7499 90.994Z" fill="#141416"/>
<path d="M62.7499 90.994L65.1855 105.725C65.5422 107.882 64.0851 109.929 61.9177 110.287L34.5293 114.816C32.3721 115.172 30.3325 113.704 29.9758 111.546L29.9726 111.527C32.1129 112.682 35.1059 112.293 36.6931 110.396C38.0339 108.798 38.4643 106.377 40.2907 105.34C42.0537 104.332 44.2484 105.125 46.1723 105.782C48.0977 106.448 50.5177 106.87 51.9171 105.396C52.896 104.384 52.9851 102.84 53.1153 101.433C53.247 100.035 53.5886 98.4606 54.7963 97.7352C56.4746 96.7321 58.8841 97.9571 60.4968 96.8504C61.6136 96.0927 61.8292 94.5664 62.0386 93.2331C62.162 92.4766 62.3594 91.6513 62.7477 90.9944L62.7499 90.994Z" fill="#FE9A4C" fill-opacity="0.5"/>
<path d="M52.9949 112.12L34.5875 115.164C32.2413 115.552 30.0163 113.954 29.6276 111.603L26.5155 92.781C26.4837 92.5887 26.6142 92.4065 26.8065 92.3747L62.0151 86.5532C62.2075 86.5214 62.3897 86.6519 62.4215 86.8442L64.6395 100.259C64.6713 100.451 64.5408 100.633 64.3485 100.665C64.1561 100.697 63.974 100.567 63.9422 100.374L61.7818 87.3082L27.2705 93.0144L30.325 111.488C30.6502 113.455 32.5107 114.791 34.4722 114.466L52.8796 111.423C53.0719 111.391 53.2541 111.522 53.2859 111.714C53.3177 111.906 53.1872 112.088 52.9949 112.12Z" fill="black"/>
<path d="M62.232 90.0385L27.7218 95.7445C26.2315 95.9909 24.8238 94.9827 24.5774 93.4924C24.331 92.0022 25.3392 90.5945 26.8295 90.3481L61.3397 84.642C62.83 84.3956 64.2377 85.4039 64.4841 86.8941C64.7305 88.3844 63.7222 89.7921 62.232 90.0385Z" fill="#997951"/>
<path d="M55.2931 101.244C54.6576 101.349 54.129 101.751 53.7992 102.314C53.4628 102.879 53.316 103.599 53.4403 104.35C53.1918 102.847 51.9639 101.794 50.6941 102.004C51.3296 101.899 51.8503 101.499 52.1893 100.942C52.519 100.378 52.6657 99.6584 52.5415 98.9071C52.6657 99.6584 53.0364 100.293 53.5368 100.72C54.0289 101.139 54.6588 101.349 55.2942 101.244L55.2931 101.244Z" fill="#FFECD4"/>
<path d="M55.4264 97.4967C55.1384 97.5443 54.8981 97.7261 54.7477 97.9832C54.5948 98.2396 54.5288 98.5671 54.5851 98.9079C54.4722 98.2252 53.9147 97.7466 53.3377 97.842C53.6257 97.7944 53.8637 97.6129 54.0172 97.3599C54.1667 97.1041 54.2338 96.7764 54.1775 96.4356C54.234 96.7775 54.4018 97.0652 54.629 97.2587C54.8524 97.4494 55.1384 97.5443 55.4275 97.4965L55.4264 97.4967Z" fill="#FFECD4"/>
<path d="M48.6614 94.5266C48.7336 95.201 47.2967 95.9308 45.4321 96.3385C43.5603 96.7439 41.8885 96.6055 41.7278 95.941C41.5701 95.2877 42.9687 94.3609 44.9196 93.9377C46.8766 93.509 48.5914 93.8518 48.6623 94.5252L48.6614 94.5266Z" fill="#FFECD4"/>
<path d="M51.7926 94.3053C51.7913 94.6048 51.3136 94.8398 50.7243 94.8748C50.1345 94.9065 49.6315 94.7158 49.6016 94.4226C49.5712 94.1272 50.0459 93.8396 50.6667 93.8063C51.2869 93.7696 51.793 94.0141 51.7915 94.3055L51.7926 94.3053Z" fill="#FFECD4"/>
</g>
<defs>
<linearGradient id="paint0_linear_4554_1405" x1="101.132" y1="91.2342" x2="89.6601" y2="85.4494" gradientUnits="userSpaceOnUse">
<stop stop-color="#1A3746"/>
<stop offset="0.24" stop-color="#2B588B"/>
<stop offset="0.37" stop-color="#5A6B83"/>
<stop offset="0.74" stop-color="#ED5409"/>
<stop offset="1" stop-color="#FFCB67"/>
</linearGradient>
<linearGradient id="paint1_linear_4554_1405" x1="110.205" y1="81.7893" x2="97.492" y2="83.6371" gradientUnits="userSpaceOnUse">
<stop stop-color="#1A3746"/>
<stop offset="0.24" stop-color="#2B588B"/>
<stop offset="0.37" stop-color="#5A6B83"/>
<stop offset="0.74" stop-color="#ED5409"/>
<stop offset="1" stop-color="#FFCB67"/>
</linearGradient>
<linearGradient id="paint2_linear_4554_1405" x1="111.286" y1="90.6156" x2="98.5735" y2="92.4634" gradientUnits="userSpaceOnUse">
<stop stop-color="#1A3746"/>
<stop offset="0.24" stop-color="#2B588B"/>
<stop offset="0.37" stop-color="#5A6B83"/>
<stop offset="0.74" stop-color="#ED5409"/>
<stop offset="1" stop-color="#FFCB67"/>
</linearGradient>
<linearGradient id="paint3_linear_4554_1405" x1="128.076" y1="87.3134" x2="115.364" y2="89.1611" gradientUnits="userSpaceOnUse">
<stop stop-color="#1A3746"/>
<stop offset="0.24" stop-color="#2B588B"/>
<stop offset="0.37" stop-color="#5A6B83"/>
<stop offset="0.74" stop-color="#ED5409"/>
<stop offset="1" stop-color="#FFCB67"/>
</linearGradient>
<linearGradient id="paint4_linear_4554_1405" x1="130.053" y1="102.213" x2="120.774" y2="93.3273" gradientUnits="userSpaceOnUse">
<stop stop-color="#1A3746"/>
<stop offset="0.24" stop-color="#2B588B"/>
<stop offset="0.37" stop-color="#5A6B83"/>
<stop offset="0.74" stop-color="#ED5409"/>
<stop offset="1" stop-color="#FFCB67"/>
</linearGradient>
<linearGradient id="paint5_linear_4554_1405" x1="169.487" y1="44.4589" x2="80.2657" y2="35.8828" gradientUnits="userSpaceOnUse">
<stop stop-color="#1A3746"/>
<stop offset="0.24" stop-color="#2B588B"/>
<stop offset="0.37" stop-color="#5A6B83"/>
<stop offset="0.74" stop-color="#ED5409"/>
<stop offset="1" stop-color="#FFCB67"/>
</linearGradient>
<linearGradient id="paint6_linear_4554_1405" x1="166.833" y1="51.7816" x2="148.647" y2="47.8548" gradientUnits="userSpaceOnUse">
<stop stop-color="#1A3746"/>
<stop offset="0.24" stop-color="#2B588B"/>
<stop offset="0.37" stop-color="#5A6B83"/>
<stop offset="0.74" stop-color="#ED5409"/>
<stop offset="1" stop-color="#FFCB67"/>
</linearGradient>
<linearGradient id="paint7_linear_4554_1405" x1="137.087" y1="33.7162" x2="115.309" y2="28.9267" gradientUnits="userSpaceOnUse">
<stop stop-color="#1A3746"/>
<stop offset="0.24" stop-color="#2B588B"/>
<stop offset="0.37" stop-color="#5A6B83"/>
<stop offset="0.74" stop-color="#ED5409"/>
<stop offset="1" stop-color="#FFCB67"/>
</linearGradient>
<linearGradient id="paint8_linear_4554_1405" x1="132.898" y1="49.351" x2="110.962" y2="46.8257" gradientUnits="userSpaceOnUse">
<stop stop-color="#1A3746"/>
<stop offset="0.24" stop-color="#2B588B"/>
<stop offset="0.37" stop-color="#5A6B83"/>
<stop offset="0.74" stop-color="#ED5409"/>
<stop offset="1" stop-color="#FFCB67"/>
</linearGradient>
<linearGradient id="paint9_linear_4554_1405" x1="120.436" y1="85.1556" x2="107.78" y2="82.9445" gradientUnits="userSpaceOnUse">
<stop stop-color="#1A3746"/>
<stop offset="0.24" stop-color="#2B588B"/>
<stop offset="0.37" stop-color="#5A6B83"/>
<stop offset="0.74" stop-color="#ED5409"/>
<stop offset="1" stop-color="#FFCB67"/>
</linearGradient>
<linearGradient id="paint10_linear_4554_1405" x1="119.125" y1="98.7539" x2="108.985" y2="90.8661" gradientUnits="userSpaceOnUse">
<stop stop-color="#1A3746"/>
<stop offset="0.24" stop-color="#2B588B"/>
<stop offset="0.37" stop-color="#5A6B83"/>
<stop offset="0.74" stop-color="#ED5409"/>
<stop offset="1" stop-color="#FFCB67"/>
</linearGradient>
<linearGradient id="paint11_linear_4554_1405" x1="37.3427" y1="87.2126" x2="27.6427" y2="86.8109" gradientUnits="userSpaceOnUse">
<stop stop-color="#1A3746"/>
<stop offset="0.24" stop-color="#2B588B"/>
<stop offset="0.37" stop-color="#5A6B83"/>
<stop offset="0.74" stop-color="#ED5409"/>
<stop offset="1" stop-color="#FFCB67"/>
</linearGradient>
<linearGradient id="paint12_linear_4554_1405" x1="40.6404" y1="77.8795" x2="32.4679" y2="83.1178" gradientUnits="userSpaceOnUse">
<stop stop-color="#1A3746"/>
<stop offset="0.24" stop-color="#2B588B"/>
<stop offset="0.37" stop-color="#5A6B83"/>
<stop offset="0.74" stop-color="#ED5409"/>
<stop offset="1" stop-color="#FFCB67"/>
</linearGradient>
<linearGradient id="paint13_linear_4554_1405" x1="44.1356" y1="83.6183" x2="35.9631" y2="88.8566" gradientUnits="userSpaceOnUse">
<stop stop-color="#1A3746"/>
<stop offset="0.24" stop-color="#2B588B"/>
<stop offset="0.37" stop-color="#5A6B83"/>
<stop offset="0.74" stop-color="#ED5409"/>
<stop offset="1" stop-color="#FFCB67"/>
</linearGradient>
<linearGradient id="paint14_linear_4554_1405" x1="54.6605" y1="76.1075" x2="46.488" y2="81.3457" gradientUnits="userSpaceOnUse">
<stop stop-color="#1A3746"/>
<stop offset="0.24" stop-color="#2B588B"/>
<stop offset="0.37" stop-color="#5A6B83"/>
<stop offset="0.74" stop-color="#ED5409"/>
<stop offset="1" stop-color="#FFCB67"/>
</linearGradient>
<linearGradient id="paint15_linear_4554_1405" x1="60.6715" y1="85.7453" x2="51.5128" y2="82.5252" gradientUnits="userSpaceOnUse">
<stop stop-color="#1A3746"/>
<stop offset="0.24" stop-color="#2B588B"/>
<stop offset="0.37" stop-color="#5A6B83"/>
<stop offset="0.74" stop-color="#ED5409"/>
<stop offset="1" stop-color="#FFCB67"/>
</linearGradient>
<linearGradient id="paint16_linear_4554_1405" x1="69.7886" y1="33.6935" x2="5.71022" y2="55.63" gradientUnits="userSpaceOnUse">
<stop stop-color="#1A3746"/>
<stop offset="0.24" stop-color="#2B588B"/>
<stop offset="0.37" stop-color="#5A6B83"/>
<stop offset="0.74" stop-color="#ED5409"/>
<stop offset="1" stop-color="#FFCB67"/>
</linearGradient>
<linearGradient id="paint17_linear_4554_1405" x1="70.2478" y1="39.5606" x2="56.5068" y2="42.5326" gradientUnits="userSpaceOnUse">
<stop stop-color="#1A3746"/>
<stop offset="0.24" stop-color="#2B588B"/>
<stop offset="0.37" stop-color="#5A6B83"/>
<stop offset="0.74" stop-color="#ED5409"/>
<stop offset="1" stop-color="#FFCB67"/>
</linearGradient>
<linearGradient id="paint18_linear_4554_1405" x1="44.1393" y1="36.4091" x2="27.6571" y2="39.9081" gradientUnits="userSpaceOnUse">
<stop stop-color="#1A3746"/>
<stop offset="0.24" stop-color="#2B588B"/>
<stop offset="0.37" stop-color="#5A6B83"/>
<stop offset="0.74" stop-color="#ED5409"/>
<stop offset="1" stop-color="#FFCB67"/>
</linearGradient>
<linearGradient id="paint19_linear_4554_1405" x1="46.1337" y1="48.4765" x2="30.2499" y2="53.5827" gradientUnits="userSpaceOnUse">
<stop stop-color="#1A3746"/>
<stop offset="0.24" stop-color="#2B588B"/>
<stop offset="0.37" stop-color="#5A6B83"/>
<stop offset="0.74" stop-color="#ED5409"/>
<stop offset="1" stop-color="#FFCB67"/>
</linearGradient>
<linearGradient id="paint20_linear_4554_1405" x1="48.7301" y1="77.0045" x2="39.3301" y2="79.4317" gradientUnits="userSpaceOnUse">
<stop stop-color="#1A3746"/>
<stop offset="0.24" stop-color="#2B588B"/>
<stop offset="0.37" stop-color="#5A6B83"/>
<stop offset="0.74" stop-color="#ED5409"/>
<stop offset="1" stop-color="#FFCB67"/>
</linearGradient>
<linearGradient id="paint21_linear_4554_1405" x1="52.0728" y1="86.7726" x2="42.6335" y2="84.508" gradientUnits="userSpaceOnUse">
<stop stop-color="#1A3746"/>
<stop offset="0.24" stop-color="#2B588B"/>
<stop offset="0.37" stop-color="#5A6B83"/>
<stop offset="0.74" stop-color="#ED5409"/>
<stop offset="1" stop-color="#FFCB67"/>
</linearGradient>
<clipPath id="clip0_4554_1405">
<rect width="89.6166" height="120.689" fill="white" transform="translate(88.2367) rotate(15)"/>
</clipPath>
<clipPath id="clip1_4554_1405">
<rect width="67.7174" height="91.1969" fill="white" transform="translate(0 28.4473) rotate(-9.38852)"/>
</clipPath>
</defs>
</svg>
