<svg width="114" height="40" viewBox="0 0 114 40" fill="none" xmlns="http://www.w3.org/2000/svg">
<path d="M9.04599 37.1126H19.2879L13.0194 19.7138C12.97 19.5493 12.8219 19.4012 12.5751 19.2696C12.3283 19.1379 12.0898 19.0721 11.8594 19.0721C11.5962 19.0721 11.3494 19.1379 11.1191 19.2696C10.9052 19.4012 10.7735 19.5493 10.7242 19.7138L3.59186 40.0001H0.309509L7.93542 18.4798C8.05059 18.1343 8.21512 17.8053 8.42901 17.4927C8.64289 17.1636 8.90614 16.8757 9.21875 16.6289C9.5478 16.3656 9.92622 16.16 10.354 16.0119C10.7982 15.8638 11.3 15.7898 11.8594 15.7898C12.4188 15.7898 12.9124 15.8638 13.3402 16.0119C13.768 16.16 14.1382 16.3656 14.4508 16.6289C14.7798 16.8757 15.0513 17.1636 15.2652 17.4927C15.4791 17.8053 15.6518 18.1343 15.7834 18.4798L23.4094 40.0001H9.04599V37.1126ZM9.04599 36.2242V35.2864L7.46651 40.0001H4.48032L11.2671 20.3308C11.3 20.232 11.3741 20.1498 11.4892 20.084C11.6209 20.0017 11.7443 19.9606 11.8594 19.9606C11.9746 19.9606 12.098 20.0017 12.2296 20.084C12.3612 20.1498 12.4435 20.232 12.4764 20.3308L18.1033 36.2242H9.04599ZM11.8594 27.0682L9.88509 33.2873H13.9078L11.8594 27.0682Z" fill="url(#paint0_linear_4246_2235)"/>
<path d="M22.5354 40.0001V20.0099H32.185C33.2215 20.0099 34.0771 20.3225 34.7516 20.9477C35.4426 21.573 35.7882 22.519 35.7882 23.7859C35.7882 24.3288 35.6977 24.8388 35.5167 25.316C35.3357 25.7766 35.0807 26.1797 34.7516 26.5252C34.439 26.8707 34.0606 27.1422 33.6164 27.3397C33.1721 27.5371 32.695 27.6358 32.185 27.6358H31.3706L38.4042 40.0001H34.875L29.9885 31.5351V40.0001H26.7062V24.2301H32.0616C32.1932 24.2301 32.2919 24.1807 32.3577 24.082C32.44 23.9833 32.4811 23.8763 32.4811 23.7612C32.4811 23.646 32.44 23.5473 32.3577 23.465C32.2919 23.3663 32.1932 23.3169 32.0616 23.3169H25.8177V40.0001H22.5354ZM39.6135 40.0001L32.95 28.4502C33.4272 28.4173 33.8879 28.2775 34.3321 28.0307C34.7928 27.7839 35.1959 27.4548 35.5414 27.0435C35.8869 26.6322 36.1666 26.1551 36.3805 25.6121C36.5943 25.0527 36.7013 24.444 36.7013 23.7859C36.7013 23.1113 36.5943 22.4861 36.3805 21.9102C36.1666 21.3344 35.8622 20.8408 35.4673 20.4295C35.0725 20.0182 34.5953 19.6973 34.0359 19.467C33.493 19.2367 32.876 19.1215 32.185 19.1215H22.5354V15.7898H32.185C33.2709 15.7898 34.2909 15.9955 35.2452 16.4068C36.1995 16.8181 37.0303 17.3857 37.7378 18.1096C38.4453 18.8336 38.9965 19.6809 39.3913 20.6516C39.8027 21.6223 40.0083 22.6671 40.0083 23.7859C40.0083 25.2008 39.7698 26.4265 39.2926 27.463C38.8155 28.4831 38.1656 29.3058 37.343 29.931L42.9698 40.0001H39.6135Z" fill="url(#paint1_linear_4246_2235)"/>
<path d="M57.8135 40.0001H48.46C47.5716 40.0001 46.7078 39.8109 45.8687 39.4325C45.0461 39.0376 44.3139 38.5111 43.6722 37.853C43.047 37.1784 42.5452 36.3887 42.1668 35.4838C41.7884 34.5624 41.5992 33.5835 41.5992 32.547V23.2429C41.5992 22.2064 41.7884 21.2357 42.1668 20.3308C42.5452 19.4094 43.047 18.6197 43.6722 17.9616C44.3139 17.287 45.0461 16.7605 45.8687 16.3821C46.7078 15.9872 47.5716 15.7898 48.46 15.7898H57.8135V19.0721H48.8549C48.2297 19.0721 47.6703 19.1955 47.1767 19.4423C46.6831 19.6891 46.2636 20.0099 45.9181 20.4048C45.589 20.7997 45.334 21.2521 45.153 21.7622C44.972 22.2557 44.8815 22.7493 44.8815 23.2429V32.547C44.8815 33.0405 44.972 33.5424 45.153 34.0524C45.334 34.546 45.589 34.9902 45.9181 35.3851C46.2636 35.7799 46.6831 36.1008 47.1767 36.3476C47.6703 36.5943 48.2297 36.7177 48.8549 36.7177H57.8135V40.0001ZM57.8135 32.547V35.8293H49.1757C48.5999 35.8293 48.0981 35.7141 47.6703 35.4838C47.2425 35.2534 46.8888 34.9573 46.6091 34.5953C46.3294 34.2334 46.1155 33.8303 45.9674 33.3861C45.8358 32.9254 45.77 32.4812 45.77 32.0534V23.7365C45.77 23.3087 45.8358 22.8727 45.9674 22.4285C46.1155 21.9678 46.3294 21.5565 46.6091 21.1945C46.8888 20.8326 47.2425 20.5364 47.6703 20.3061C48.0981 20.0757 48.5999 19.9606 49.1757 19.9606H57.8135V23.2429H49.62C49.5212 23.2429 49.4143 23.3005 49.2991 23.4157C49.2004 23.5308 49.1511 23.6871 49.1511 23.8846V31.9053C49.1511 32.3331 49.258 32.547 49.4719 32.547H57.8135Z" fill="url(#paint2_linear_4246_2235)"/>
<path d="M66.2856 37.1126H76.5276L70.259 19.7138C70.2096 19.5493 70.0616 19.4012 69.8148 19.2696C69.568 19.1379 69.3294 19.0721 69.0991 19.0721C68.8358 19.0721 68.589 19.1379 68.3587 19.2696C68.1448 19.4012 68.0132 19.5493 67.9638 19.7138L60.8315 40.0001H57.5492L65.1751 18.4798C65.2902 18.1343 65.4548 17.8053 65.6687 17.4927C65.8825 17.1636 66.1458 16.8757 66.4584 16.6289C66.7874 16.3656 67.1659 16.16 67.5936 16.0119C68.0379 15.8638 68.5397 15.7898 69.0991 15.7898C69.6585 15.7898 70.1521 15.8638 70.5798 16.0119C71.0076 16.16 71.3778 16.3656 71.6904 16.6289C72.0195 16.8757 72.2909 17.1636 72.5048 17.4927C72.7187 17.8053 72.8915 18.1343 73.0231 18.4798L80.649 40.0001H66.2856V37.1126ZM66.2856 36.2242V35.2864L64.7062 40.0001H61.72L68.5068 20.3308C68.5397 20.232 68.6137 20.1498 68.7289 20.084C68.8605 20.0017 68.9839 19.9606 69.0991 19.9606C69.2142 19.9606 69.3376 20.0017 69.4693 20.084C69.6009 20.1498 69.6832 20.232 69.7161 20.3308L75.3429 36.2242H66.2856ZM69.0991 27.0682L67.1247 33.2873H71.1475L69.0991 27.0682Z" fill="url(#paint3_linear_4246_2235)"/>
<path d="M89.622 36.7177C90.2473 36.7177 90.7738 36.6355 91.2015 36.471C91.6293 36.29 91.9748 36.0432 92.2381 35.7306C92.5178 35.418 92.7152 35.0478 92.8304 34.62C92.962 34.1922 93.0278 33.7316 93.0278 33.238V22.5519C93.0278 22.0583 92.962 21.5976 92.8304 21.1699C92.7152 20.7421 92.5178 20.3719 92.2381 20.0593C91.9748 19.7467 91.6211 19.5081 91.1768 19.3436C90.7491 19.1626 90.2226 19.0721 89.5974 19.0721H79.775V15.7898H89.2765C90.4776 15.7898 91.5059 15.9214 92.3615 16.1847C93.2335 16.4479 93.9492 16.8757 94.5086 17.468C95.068 18.0603 95.4793 18.8336 95.7425 19.7878C96.0058 20.7256 96.1374 21.8773 96.1374 23.2429V32.547C96.1374 33.8632 96.0058 34.9984 95.7425 35.9527C95.4793 36.8905 95.068 37.6638 94.5086 38.2725C93.9492 38.8648 93.2335 39.3008 92.3615 39.5805C91.5059 39.8602 90.4776 40.0001 89.2765 40.0001H79.775V24.0326H82.8846V36.7177H89.622ZM88.3881 23.2429H79.775V19.9606H89.2765C89.8524 19.9606 90.3213 20.0428 90.6833 20.2074C91.0617 20.3554 91.3578 20.5693 91.5717 20.849C91.7856 21.1287 91.9337 21.4578 92.0159 21.8362C92.0982 22.2146 92.1393 22.6177 92.1393 23.0455V32.7444C92.1393 33.3202 92.0982 33.8056 92.0159 34.2005C91.9337 34.5789 91.7856 34.8915 91.5717 35.1383C91.3743 35.3851 91.0864 35.566 90.7079 35.6812C90.346 35.7799 89.8771 35.8293 89.3012 35.8293H83.7731V24.0326H87.2282V31.9053C87.2282 32.3331 87.4338 32.547 87.8451 32.547H88.3881C88.5855 32.547 88.7418 32.4894 88.857 32.3742C88.9886 32.259 89.0544 32.1027 89.0544 31.9053V23.8846C89.0544 23.6871 88.9886 23.5308 88.857 23.4157C88.7418 23.3005 88.5855 23.2429 88.3881 23.2429Z" fill="url(#paint4_linear_4246_2235)"/>
<path d="M97.0795 23.2429C97.0795 22.2064 97.2687 21.2357 97.6471 20.3308C98.0255 19.4094 98.5273 18.6197 99.1525 17.9616C99.7942 17.287 100.526 16.7605 101.349 16.3821C102.188 15.9872 103.052 15.7898 103.94 15.7898H113.294V19.0721H104.335C103.71 19.0721 103.151 19.1955 102.657 19.4423C102.163 19.6891 101.744 20.0099 101.398 20.4048C101.069 20.7997 100.814 21.2521 100.633 21.7622C100.452 22.2557 100.362 22.7493 100.362 23.2429V32.547C100.362 33.0405 100.452 33.5424 100.633 34.0524C100.814 34.546 101.069 34.9902 101.398 35.3851C101.744 35.7799 102.163 36.1008 102.657 36.3476C103.151 36.5943 103.71 36.7177 104.335 36.7177H113.294V40.0001H103.94C103.052 40.0001 102.188 39.8109 101.349 39.4325C100.526 39.0376 99.7942 38.5111 99.1525 37.853C98.5273 37.1784 98.0255 36.3887 97.6471 35.4838C97.2687 34.5624 97.0795 33.5835 97.0795 32.547V23.2429ZM101.25 27.4877V23.7365C101.25 23.3087 101.316 22.8727 101.448 22.4285C101.596 21.9678 101.81 21.5565 102.089 21.1945C102.369 20.8326 102.723 20.5364 103.151 20.3061C103.578 20.0757 104.08 19.9606 104.656 19.9606H113.294V23.2429H104.73C104.631 23.2429 104.524 23.3005 104.409 23.4157C104.311 23.5308 104.261 23.6871 104.261 23.8846V24.2301H111.418V27.4877H101.25ZM101.25 28.3021H111.418V31.5845H104.261V31.9053C104.261 32.1027 104.311 32.259 104.409 32.3742C104.524 32.4894 104.631 32.547 104.73 32.547H113.294V35.8293H104.656C104.08 35.8293 103.578 35.7141 103.151 35.4838C102.723 35.2534 102.369 34.9573 102.089 34.5953C101.81 34.2334 101.596 33.8303 101.448 33.3861C101.316 32.9254 101.25 32.4812 101.25 32.0534V28.3021Z" fill="url(#paint5_linear_4246_2235)"/>
<path d="M8.04284 5.60923C7.49568 5.34441 6.79687 5.21024 5.96739 5.21024H3.60727C2.97845 5.21024 2.47562 5.03525 2.11629 4.69809L2.09879 4.68059C1.74763 4.31076 1.57847 3.89427 1.57847 3.40779C1.57847 2.9213 1.75347 2.47214 2.09879 2.10815C2.44645 1.73833 2.92361 1.55166 3.5116 1.55166H9.31915V0.290527H3.29577C2.64128 0.290527 2.07896 0.44219 1.57614 0.751349C1.07331 1.04534 0.692979 1.4245 0.415318 1.90749C0.137657 2.39164 0 2.9038 0 3.47778C0 4.15093 0.143489 4.72142 0.429317 5.17641C0.736144 5.63957 1.14331 5.98606 1.6718 6.23922C2.22129 6.47255 2.87345 6.59154 3.60727 6.59154H6.08988C6.50754 6.59154 6.87971 6.68721 7.1947 6.87737C7.51669 7.04887 7.75585 7.29386 7.91451 7.60535C8.06967 7.89701 8.14201 8.19334 8.14201 8.541C8.14201 8.88865 8.05684 9.23748 7.88768 9.55481C7.71852 9.87563 7.45836 10.1428 7.11887 10.3528C6.80037 10.5418 6.41071 10.6351 5.96972 10.6351H0.381495V11.8939H6.23571C6.93686 11.8939 7.52835 11.7364 8.04517 11.4133C8.583 11.0866 8.98665 10.6794 9.28181 10.1603C9.58047 9.62714 9.72281 9.07415 9.72281 8.4675C9.72281 7.76285 9.57348 7.1597 9.28415 6.68137C9.01232 6.21005 8.60516 5.85656 8.04401 5.6069L8.04052 5.60923H8.04284Z" fill="#F5F5F5"/>
<path d="M21.9113 0.81898C21.0048 0.276493 19.9408 0 18.7509 0C17.5609 0 16.4992 0.276493 15.5869 0.821314C14.677 1.34863 13.9466 2.08595 13.4146 3.01226C12.8827 3.91874 12.6132 4.95588 12.6132 6.09219C12.6132 7.22849 12.8827 8.2773 13.4146 9.19778C13.9466 10.1066 14.6781 10.8439 15.5869 11.3887C16.4549 11.8962 17.4699 12.1634 18.5992 12.1844H18.7509C19.9408 12.1867 21.0025 11.9219 21.9113 11.3922C22.8388 10.8474 23.5691 10.1101 24.0871 9.20478C24.6191 8.2808 24.8886 7.23549 24.8886 6.09685C24.8886 4.95821 24.6191 3.89424 24.0871 2.98776C23.5691 2.08128 22.8388 1.3533 21.9113 0.823647V0.820147V0.81898ZM23.2833 6.09569C23.2833 6.99283 23.0931 7.81764 22.7163 8.54913C22.3395 9.26894 21.8075 9.84876 21.1378 10.2769C20.4705 10.7027 19.6434 10.9267 18.7485 10.9267C17.8537 10.9267 17.0522 10.7086 16.3593 10.2769C15.6896 9.84876 15.1576 9.26661 14.7773 8.54679C14.4028 7.81881 14.2103 6.994 14.2103 6.09685C14.2103 5.19971 14.4005 4.38423 14.7773 3.67024C15.1541 2.93293 15.6896 2.34144 16.3628 1.91329C17.0522 1.48163 17.8572 1.26697 18.7485 1.26697C19.6399 1.26697 20.4588 1.48513 21.1378 1.91679C21.811 2.34844 22.343 2.93643 22.7198 3.66791C23.0943 4.38423 23.2868 5.19971 23.2868 6.09802H23.2833V6.09569Z" fill="#F5F5F5"/>
<path d="M36.5948 0.659069C35.7933 0.22508 34.8495 0.00341797 33.7843 0.00341797C32.7192 0.00341797 31.787 0.225079 30.9681 0.664902C30.1467 1.08723 29.5179 1.67054 29.0466 2.43936C28.5963 3.20234 28.3676 4.10882 28.3676 5.1343V11.8985H29.9472V5.15763C29.9472 4.36548 30.1257 3.669 30.4769 3.09151C30.8397 2.50353 31.3192 2.0462 31.9014 1.72771C32.4917 1.41622 33.124 1.25872 33.7843 1.25872C34.4447 1.25872 35.0712 1.41622 35.644 1.72771C36.2378 2.0427 36.7173 2.50002 37.0708 3.09384C37.4359 3.67016 37.6203 4.36081 37.6203 5.15296V11.8938H39.2022V5.12963C39.2022 4.10765 38.9654 3.19767 38.4999 2.43469C38.0438 1.66238 37.4208 1.08256 36.596 0.654403L36.5936 0.657902L36.5948 0.659069Z" fill="#F5F5F5"/>
<path d="M44.9577 0.288574H43.3547V11.8955H44.9577V0.288574Z" fill="#F5F5F5"/>
<path d="M52.2782 2.17036C52.9829 1.75971 53.7809 1.54971 54.6559 1.54971H55.8552V0.288574H54.7294C53.5219 0.288574 52.4276 0.551069 51.4861 1.06672C50.5446 1.58004 49.7898 2.28703 49.2403 3.16434C48.6966 4.02065 48.4213 5.00529 48.4213 6.0926C48.4213 7.17991 48.6966 8.16922 49.2403 9.0442C49.7875 9.90634 50.5446 10.6028 51.4861 11.1185C52.3109 11.5665 53.9256 11.8966 54.6477 11.8966H55.8552V10.6355H54.6559C53.7844 10.6355 52.9829 10.4348 52.2759 10.0382C51.5911 9.62752 51.0334 9.07103 50.6204 8.38621C50.2261 7.69906 50.0243 6.92675 50.0243 6.09027C50.0243 5.25379 50.2261 4.47914 50.6239 3.79199C51.0334 3.11067 51.5923 2.56235 52.2794 2.1692V2.1727L52.2782 2.17036Z" fill="#F5F5F5"/>
<defs>
<linearGradient id="paint0_linear_4246_2235" x1="114.536" y1="24.9239" x2="-0.8002" y2="24.9239" gradientUnits="userSpaceOnUse">
<stop stop-color="#102D3C"/>
<stop offset="0.161465" stop-color="#214E81"/>
<stop offset="0.363625" stop-color="#506179"/>
<stop offset="0.651499" stop-color="#ED5409"/>
<stop offset="1" stop-color="#FFCB67"/>
</linearGradient>
<linearGradient id="paint1_linear_4246_2235" x1="114.536" y1="24.9239" x2="-0.8002" y2="24.9239" gradientUnits="userSpaceOnUse">
<stop stop-color="#102D3C"/>
<stop offset="0.161465" stop-color="#214E81"/>
<stop offset="0.363625" stop-color="#506179"/>
<stop offset="0.651499" stop-color="#ED5409"/>
<stop offset="1" stop-color="#FFCB67"/>
</linearGradient>
<linearGradient id="paint2_linear_4246_2235" x1="114.536" y1="24.9239" x2="-0.8002" y2="24.9239" gradientUnits="userSpaceOnUse">
<stop stop-color="#102D3C"/>
<stop offset="0.161465" stop-color="#214E81"/>
<stop offset="0.363625" stop-color="#506179"/>
<stop offset="0.651499" stop-color="#ED5409"/>
<stop offset="1" stop-color="#FFCB67"/>
</linearGradient>
<linearGradient id="paint3_linear_4246_2235" x1="114.536" y1="24.9239" x2="-0.8002" y2="24.9239" gradientUnits="userSpaceOnUse">
<stop stop-color="#102D3C"/>
<stop offset="0.161465" stop-color="#214E81"/>
<stop offset="0.363625" stop-color="#506179"/>
<stop offset="0.651499" stop-color="#ED5409"/>
<stop offset="1" stop-color="#FFCB67"/>
</linearGradient>
<linearGradient id="paint4_linear_4246_2235" x1="114.536" y1="24.9239" x2="-0.8002" y2="24.9239" gradientUnits="userSpaceOnUse">
<stop stop-color="#102D3C"/>
<stop offset="0.161465" stop-color="#214E81"/>
<stop offset="0.363625" stop-color="#506179"/>
<stop offset="0.651499" stop-color="#ED5409"/>
<stop offset="1" stop-color="#FFCB67"/>
</linearGradient>
<linearGradient id="paint5_linear_4246_2235" x1="114.536" y1="24.9239" x2="-0.8002" y2="24.9239" gradientUnits="userSpaceOnUse">
<stop stop-color="#102D3C"/>
<stop offset="0.161465" stop-color="#214E81"/>
<stop offset="0.363625" stop-color="#506179"/>
<stop offset="0.651499" stop-color="#ED5409"/>
<stop offset="1" stop-color="#FFCB67"/>
</linearGradient>
</defs>
</svg>
