<svg width="32" height="26" viewBox="0 0 32 26" fill="none" xmlns="http://www.w3.org/2000/svg">
<path d="M27.6364 3.97215C27.6364 3.97215 24.3011 1.27134 20.3636 0.962891L20.0087 1.6979C23.568 2.59993 25.2015 3.8894 26.9091 5.47678C23.9658 3.9225 21.0618 2.46752 16 2.46752C10.9382 2.46752 8.03418 3.9225 5.09091 5.47678C6.79855 3.8894 8.74182 2.45548 11.9913 1.6979L11.6364 0.962891C7.50545 1.36538 4.36364 3.97215 4.36364 3.97215C4.36364 3.97215 0.639273 9.55884 0 20.5231C3.75273 25.0016 9.45455 25.037 9.45455 25.037L10.6473 23.3939C8.62255 22.6657 6.33891 21.3664 4.36364 19.0184C6.71855 20.8616 10.2727 22.78 16 22.78C21.7273 22.78 25.2815 20.8616 27.6364 19.0184C25.6618 21.3664 23.3782 22.6657 21.3527 23.3939L22.5455 25.037C22.5455 25.037 28.2473 25.0016 32 20.5231C31.3607 9.55884 27.6364 3.97215 27.6364 3.97215ZM11.2727 17.5138C9.86618 17.5138 8.72727 16.1672 8.72727 14.5046C8.72727 12.8419 9.86618 11.4953 11.2727 11.4953C12.6793 11.4953 13.8182 12.8419 13.8182 14.5046C13.8182 16.1672 12.6793 17.5138 11.2727 17.5138ZM20.7273 17.5138C19.3207 17.5138 18.1818 16.1672 18.1818 14.5046C18.1818 12.8419 19.3207 11.4953 20.7273 11.4953C22.1338 11.4953 23.2727 12.8419 23.2727 14.5046C23.2727 16.1672 22.1338 17.5138 20.7273 17.5138Z" fill="currentColor"/>
</svg>
