<svg width="61" height="16" viewBox="0 0 61 16" fill="none" xmlns="http://www.w3.org/2000/svg">
<path fill-rule="evenodd" clip-rule="evenodd" d="M6.39674 0.316823L2.53325 2.35865C2.3004 2.48171 2.18085 2.65672 2.1637 2.84416H2.16198V2.87022C2.1614 2.8845 2.1614 2.89884 2.16198 2.91322C2.16198 2.91324 2.16198 2.91325 2.16198 2.91326V13.0552C2.16132 13.0693 2.16137 13.0865 2.16198 13.1074C2.16785 13.3087 2.28634 13.511 2.53325 13.6415L6.39673 15.6833C6.77535 15.8834 7.35146 15.8834 7.73008 15.6833L11.5936 13.6415C11.8415 13.5105 11.9679 13.3096 11.9728 13.1074H11.973V2.84416H11.9693C11.9469 2.65876 11.8216 2.47917 11.5936 2.35865L7.73009 0.316823C7.35147 0.116723 6.77536 0.116723 6.39674 0.316823ZM2.7701 13.0872L6.39673 14.9937C6.61517 15.1105 6.84246 15.2242 7.06341 15.2249C7.26688 15.2256 7.46477 15.1285 7.66479 15.0304L7.70345 15.0114L11.3648 13.0708V8.56989L7.73008 10.4908C7.35146 10.6909 6.77535 10.6909 6.39673 10.4908L2.7701 8.57418V13.0872ZM2.7701 7.2312L6.2278 5.40383L2.7701 3.57645V7.2312ZM7.89902 5.40383L11.3648 3.57217V7.23549L7.89902 5.40383ZM7.44607 0.854864L11.3096 2.8967L11.3184 2.90148L11.3244 2.90495L11.3212 2.90685L11.3096 2.91321L7.44607 4.95504C7.24516 5.06123 6.88165 5.06123 6.68074 4.95504L2.81726 2.91321L2.80845 2.90843L2.80238 2.90495L2.80565 2.90305L2.81726 2.8967L6.68074 0.854864C6.88165 0.748682 7.24516 0.748682 7.44607 0.854864ZM7.44608 5.8525L11.3096 7.89434L11.3184 7.89912L11.3244 7.90259L11.3212 7.90449L11.3096 7.91085L7.44608 9.95268C7.42202 9.9654 7.39563 9.97659 7.36747 9.98626V5.81893C7.39563 5.8286 7.42202 5.83979 7.44608 5.8525ZM6.75935 5.81893C6.73119 5.8286 6.70481 5.83979 6.68075 5.8525L2.81727 7.89434L2.80566 7.9007L2.80239 7.90259L2.80846 7.90607L2.81727 7.91085L6.68075 9.95268C6.70481 9.9654 6.73119 9.97659 6.75935 9.98626V5.81893ZM11.9357 1.07878L11.621 1.59943L11.8404 1.73194L11.9119 1.77573C11.9725 1.81327 12.0223 1.84521 12.0675 1.87569L12.0792 1.88366C12.2851 2.024 12.3979 2.13933 12.4731 2.29025C12.5638 2.47233 12.6094 2.73078 12.6094 3.12402H13.2176L13.2175 3.09666C13.2132 2.19872 12.9943 1.76707 12.4074 1.37115C12.3525 1.33411 12.2936 1.29643 12.2226 1.25257L12.1813 1.22721L11.9357 1.07878ZM2.52206 14.4089L2.20732 14.9295L1.9617 14.7811L1.92042 14.7557C1.8494 14.7119 1.79054 14.6742 1.73564 14.6371C1.14874 14.2412 0.92986 13.8096 0.925541 12.9116L0.925476 12.8843H1.53359C1.53359 13.2775 1.57927 13.536 1.66995 13.7181C1.74512 13.869 1.8579 13.9843 2.06382 14.1246L2.07558 14.1326C2.12077 14.1631 2.17055 14.195 2.23115 14.2326L2.30262 14.2764L2.52206 14.4089Z" fill="#1969FF"/>
<path fill-rule="evenodd" clip-rule="evenodd" d="M19.3953 6.95587V12.6795H18.0444V6.95587H16.747V5.90788H18.0444V5.048C18.0444 4.2956 18.2339 3.72234 18.6128 3.32823C18.9918 2.93412 19.5246 2.73706 20.2112 2.73706C20.5678 2.73706 20.8933 2.78185 21.1876 2.87142V3.98658C20.9468 3.91492 20.7194 3.87909 20.5054 3.87909C19.7653 3.87909 19.3953 4.30456 19.3953 5.15548V5.90788H20.9736V6.95587H19.3953ZM26.2367 12.4511C25.8488 12.666 25.3963 12.7735 24.8791 12.7735C24.2817 12.7735 23.7578 12.6302 23.3075 12.3436C22.8572 12.057 22.5073 11.6516 22.2576 11.1277C22.0079 10.6037 21.8831 9.99234 21.8831 9.29368C21.8831 8.59503 22.0101 7.97699 22.2643 7.43956C22.5184 6.90213 22.8728 6.48563 23.3276 6.19004C23.7824 5.89446 24.2995 5.74666 24.8791 5.74666C25.3963 5.74666 25.8466 5.85639 26.23 6.07584C26.6135 6.29529 26.9077 6.60655 27.1128 7.00962V5.90789H28.4503V12.6795H27.1128V11.524C26.9166 11.9271 26.6246 12.2361 26.2367 12.4511ZM25.2001 11.6987C24.5849 11.6987 24.1056 11.4882 23.7623 11.0672C23.419 10.6462 23.2474 10.055 23.2474 9.29369C23.2474 8.52338 23.419 7.92101 23.7623 7.48659C24.1056 7.05217 24.5804 6.83496 25.1868 6.83496C25.802 6.83496 26.2769 7.04545 26.6112 7.46644C26.9456 7.88742 27.1128 8.48755 27.1128 9.26682C27.1128 10.0371 26.9456 10.635 26.6112 11.0605C26.2769 11.4859 25.8065 11.6987 25.2001 11.6987ZM31.7674 8.82344V12.6795H30.4299V7.81576C30.4299 7.10815 30.3942 6.47219 30.3229 5.90789H31.5802L31.7005 7.0768C31.9145 6.64685 32.2244 6.31768 32.6301 6.08927C33.0358 5.86087 33.4973 5.74666 34.0145 5.74666C35.6284 5.74666 36.4354 6.65133 36.4354 8.46067V12.6795H35.0845V8.54129C35.0845 7.95012 34.9708 7.52017 34.7434 7.25146C34.516 6.98275 34.1527 6.84839 33.6533 6.84839C33.0826 6.84839 32.6257 7.02753 32.2824 7.38582C31.9391 7.7441 31.7674 8.22331 31.7674 8.82344ZM40.9562 12.7735C41.3307 12.7735 41.6651 12.7242 41.9593 12.6257V11.524C41.7186 11.5956 41.4823 11.6315 41.2505 11.6315C40.8938 11.6315 40.6151 11.5352 40.4145 11.3426C40.2139 11.15 40.1136 10.8208 40.1136 10.3551V6.95584H41.9727V5.90786H40.1136V3.74471L38.7627 4.21496V5.90786H37.4519V6.95584H38.7627V10.4626C38.7627 11.215 38.9544 11.7882 39.3378 12.1823C39.7212 12.5764 40.2607 12.7735 40.9562 12.7735ZM47.8445 12.3436C47.3451 12.6302 46.77 12.7735 46.1191 12.7735C45.4592 12.7735 44.8796 12.6302 44.3803 12.3436C43.8809 12.057 43.4953 11.6494 43.2233 11.1209C42.9514 10.5925 42.8154 9.97443 42.8154 9.26681C42.8154 8.5592 42.9514 7.93892 43.2233 7.40597C43.4953 6.87302 43.8809 6.46323 44.3803 6.17661C44.8796 5.88998 45.4592 5.74666 46.1191 5.74666C46.77 5.74666 47.3451 5.88998 47.8445 6.17661C48.3438 6.46323 48.7295 6.87302 49.0014 7.40597C49.2734 7.93892 49.4094 8.5592 49.4094 9.26681C49.4094 9.97443 49.2734 10.5925 49.0014 11.1209C48.7295 11.6494 48.3438 12.057 47.8445 12.3436ZM46.1057 11.6987C45.4904 11.6987 45.0156 11.4927 44.6812 11.0806C44.3468 10.6686 44.1796 10.064 44.1796 9.26682C44.1796 8.48755 44.3491 7.88742 44.6879 7.46644C45.0267 7.04545 45.5038 6.83496 46.1191 6.83496C46.7254 6.83496 47.1958 7.04545 47.5302 7.46644C47.8645 7.88742 48.0317 8.48755 48.0317 9.26682C48.0317 10.064 47.8668 10.6686 47.5368 11.0806C47.2069 11.4927 46.7299 11.6987 46.1057 11.6987ZM52.3252 8.85031V12.6795H50.9877V7.81576C50.9877 7.10815 50.952 6.47219 50.8807 5.90789H52.1379L52.2583 7.03649C52.4545 6.62446 52.7354 6.30648 53.101 6.08256C53.4665 5.85863 53.8946 5.74666 54.385 5.74666C55.4282 5.74666 56.1104 6.18108 56.4314 7.04993C56.6365 6.64685 56.9374 6.32888 57.3342 6.09599C57.731 5.86311 58.1791 5.74666 58.6784 5.74666C60.1765 5.74666 60.9255 6.65133 60.9255 8.46067V12.6795H59.5746V8.52785C59.5746 7.94564 59.4743 7.52017 59.2736 7.25146C59.073 6.98275 58.7498 6.84839 58.3039 6.84839C57.7868 6.84839 57.3788 7.02753 57.0801 7.38582C56.7814 7.7441 56.632 8.23227 56.632 8.85031V12.6795H55.2811V8.52785C55.2811 7.94564 55.1808 7.52017 54.9802 7.25146C54.7795 6.98275 54.4563 6.84839 54.0105 6.84839C53.4933 6.84839 53.0831 7.02753 52.7799 7.38582C52.4768 7.7441 52.3252 8.23227 52.3252 8.85031Z" fill="#1969FF"/>
</svg>
