<svg width="160" height="160" viewBox="0 0 160 160" fill="none" xmlns="http://www.w3.org/2000/svg">
<circle cx="80" cy="80" r="70.5" stroke="#2ABB7F" stroke-dasharray="2 2"/>
<rect x="10.5" y="10.5" width="139" height="139" rx="69.5" stroke="white" stroke-opacity="0.1"/>
<rect x="53" y="120" width="2" height="9" fill="#BABEC5"/>
<path d="M53.9995 124.5C27.6606 129.309 24.2868 62.7762 43.9325 69.5219" stroke="#5B7896"/>
<rect x="45.3652" y="68.0098" width="2" height="4.08427" transform="rotate(48.4954 45.3652 68.0098)" fill="#BABEC5"/>
<rect x="55" y="115" width="50" height="18.75" rx="2.5" fill="#5B7896"/>
<rect x="57.5" y="117.5" width="45" height="13.75" rx="1.25" fill="#D2DFFE"/>
<path d="M77.8184 119H82.182V123.091H77.8184V119Z" fill="#ABB9C0"/>
<path d="M80.818 128.546C80.818 128.395 80.6958 128.273 80.5453 128.273H79.4544C79.3038 128.273 79.1816 128.395 79.1816 128.546V130.455H80.818V128.546Z" fill="#546E7A"/>
<path d="M83 123.909C83 123.458 82.6335 123.091 82.1818 123.091H77.8182C77.3663 123.091 77 123.458 77 123.909V127.182C77 128.273 77.8182 129.091 78.9091 129.091H81.0909C81.9091 129.091 83 128.273 83 127.182V123.909ZM78.3636 120.637H79.4545V121.455H78.3636V120.637ZM80.5455 120.637H81.6364V121.455H80.5455V120.637Z" fill="#546E7A"/>
<rect x="41.5" y="24.5" width="78" height="43" rx="4" fill="#5B7896"/>
<path d="M42.9473 72.5C42.395 72.5 42.0494 72.9478 42.41 73.3661C43.3865 74.499 45.7116 76 47.4533 76H113.222C114.839 76 116.593 74.5403 117.344 73.4134C117.65 72.9537 117.27 72.5 116.718 72.5H42.9473Z" fill="#4E6781"/>
<path d="M113.203 67.7609C113.019 67.593 112.779 67.5 112.529 67.5H47.4707C47.2215 67.5 46.9812 67.593 46.7971 67.7609L42.4082 71.7609C41.7331 72.3762 42.1684 73.5 43.0818 73.5H116.918C117.832 73.5 118.267 72.3762 117.592 71.7609L113.203 67.7609Z" fill="#5B7896"/>
<path d="M110.29 67.5H49.7099L45.6641 71.5139H113.712L110.29 67.5Z" fill="#4E6781"/>
<rect x="44.5" y="27.5" width="72" height="37" rx="2" fill="#D2DFFE"/>
<path d="M74.9082 32.2734H85.0896V41.8185H74.9082V32.2734Z" fill="#ABB9C0"/>
<path d="M81.9079 54.5465C81.9079 54.1946 81.6228 53.9102 81.2715 53.9102H78.7262C78.3749 53.9102 78.0898 54.1946 78.0898 54.5465V59.0008H81.9079V54.5465Z" fill="#546E7A"/>
<path d="M86.9994 43.7278C86.9994 42.6734 86.1442 41.8188 85.0904 41.8188H74.909C73.8546 41.8188 73 42.6734 73 43.7278V51.3639C73 53.9092 74.909 55.8182 77.4544 55.8182H82.545C84.454 55.8182 86.9994 53.9092 86.9994 51.3639V43.7278ZM76.1817 36.0918H78.727V38.0008H76.1817V36.0918ZM81.2724 36.0918H83.8177V38.0008H81.2724V36.0918Z" fill="#546E7A"/>
<path d="M71.666 103.998V87" stroke="#2ABB7F" stroke-width="2.4283" stroke-linecap="round" stroke-linejoin="round"/>
<path d="M77.332 98.334L71.666 104L66 98.334" stroke="#2ABB7F" stroke-width="2.4283" stroke-linecap="round" stroke-linejoin="round"/>
<path d="M88.666 84V100.998" stroke="#2ABB7F" stroke-width="2.4283" stroke-linecap="round" stroke-linejoin="round"/>
<path d="M94.332 89.6641L88.666 83.998L83 89.6641" stroke="#2ABB7F" stroke-width="2.4283" stroke-linecap="round" stroke-linejoin="round"/>
</svg>
