<svg width="160" height="160" viewBox="0 0 160 160" fill="none" xmlns="http://www.w3.org/2000/svg">
<circle cx="80" cy="80" r="70.5" stroke="#2ABB7F" stroke-dasharray="2 2"/>
<rect x="10.5" y="10.5" width="139" height="139" rx="69.5" stroke="#D3D8E0"/>
<rect x="53" y="120" width="2" height="9" fill="#192945"/>
<path d="M53.9976 124.498C27.6586 129.307 24.2849 62.7742 43.9306 69.52" stroke="#192945"/>
<rect x="45.3594" y="68.0078" width="2" height="4.08427" transform="rotate(48.4954 45.3594 68.0078)" fill="#192945"/>
<rect x="55" y="115" width="50" height="18.75" rx="2.5" fill="#5B7896"/>
<rect x="57.5" y="117.5" width="45" height="13.75" rx="1.25" fill="#D2DFFE"/>
<path d="M77.8125 119H82.1761V123.091H77.8125V119Z" fill="#ABB9C0"/>
<path d="M80.8161 128.546C80.8161 128.395 80.6939 128.273 80.5433 128.273H79.4524C79.3019 128.273 79.1797 128.395 79.1797 128.546V130.455H80.8161V128.546Z" fill="#546E7A"/>
<path d="M83 123.913C83 123.461 82.6335 123.095 82.1818 123.095H77.8182C77.3663 123.095 77 123.461 77 123.913V127.186C77 128.277 77.8182 129.095 78.9091 129.095H81.0909C81.9091 129.095 83 128.277 83 127.186V123.913ZM78.3636 120.641H79.4545V121.459H78.3636V120.641ZM80.5455 120.641H81.6364V121.459H80.5455V120.641Z" fill="#546E7A"/>
<rect x="41.5" y="24.5" width="78" height="43" rx="4" fill="#5B7896"/>
<path d="M42.9453 72.5C42.393 72.5 42.0474 72.9478 42.408 73.3661C43.3846 74.499 45.7096 76 47.4513 76H113.22C114.837 76 116.591 74.5403 117.342 73.4134C117.648 72.9537 117.268 72.5 116.716 72.5H42.9453Z" fill="#4E6781"/>
<path d="M113.203 67.7609C113.019 67.593 112.779 67.5 112.529 67.5H47.4707C47.2215 67.5 46.9812 67.593 46.7971 67.7609L42.4082 71.7609C41.7331 72.3762 42.1684 73.5 43.0818 73.5H116.918C117.832 73.5 118.267 72.3762 117.592 71.7609L113.203 67.7609Z" fill="#5B7896"/>
<path d="M110.29 67.5H49.7099L45.6641 71.5139H113.712L110.29 67.5Z" fill="#4E6781"/>
<rect x="44.5" y="27.5" width="72" height="37" rx="2" fill="#D2DFFE"/>
<path d="M74.9062 32.2734H85.0876V41.8185H74.9062V32.2734Z" fill="#ABB9C0"/>
<path d="M81.9118 54.5426C81.9118 54.1907 81.6267 53.9062 81.2754 53.9062H78.7301C78.3788 53.9062 78.0938 54.1907 78.0938 54.5426V58.9969H81.9118V54.5426Z" fill="#546E7A"/>
<path d="M86.9994 43.7298C86.9994 42.6754 86.1442 41.8208 85.0904 41.8208H74.909C73.8546 41.8208 73 42.6754 73 43.7298V51.3658C73 53.9112 74.909 55.8202 77.4544 55.8202H82.545C84.454 55.8202 86.9994 53.9112 86.9994 51.3658V43.7298ZM76.1817 36.0938H78.727V38.0028H76.1817V36.0938ZM81.2724 36.0938H83.8177V38.0028H81.2724V36.0938Z" fill="#546E7A"/>
<path d="M71.6641 103.998V87" stroke="#2ABB7F" stroke-width="2.4283" stroke-linecap="round" stroke-linejoin="round"/>
<path d="M77.332 98.3359L71.666 104.002L66 98.3359" stroke="#2ABB7F" stroke-width="2.4283" stroke-linecap="round" stroke-linejoin="round"/>
<path d="M88.6641 84.0019V101" stroke="#2ABB7F" stroke-width="2.4283" stroke-linecap="round" stroke-linejoin="round"/>
<path d="M94.332 89.6641L88.666 83.998L83 89.6641" stroke="#2ABB7F" stroke-width="2.4283" stroke-linecap="round" stroke-linejoin="round"/>
</svg>
