<svg width="140" height="140" viewBox="0 0 140 140" fill="none" xmlns="http://www.w3.org/2000/svg">
<g id="&#230;&#143;&#146;&#231;&#148;&#187;&#228;&#184;&#187;&#228;&#189;&#147;">
<rect x="0.5" y="0.5" width="139" height="139" rx="69.5" fill="#F2F4F7"/>
<g id="&#233;&#146;&#177;&#229;&#140;&#133;">
<rect id="Rectangle 25729" x="45" y="92" width="50" height="32" rx="2.5" fill="#5B7896"/>
<rect id="Rectangle 25730" x="47" y="94" width="46" height="28" rx="1.25" fill="#D2DFFE"/>
<g id="Group 427322168">
<path id="Vector" d="M71.4391 115.059C71.4391 115.595 71.1821 116.066 70.7806 116.355C70.5183 116.547 70.1865 116.665 69.8332 116.665C68.9446 116.665 68.2273 115.948 68.2273 115.059C68.2273 114.171 68.9446 113.453 69.8332 113.453C70.0259 113.453 70.2132 113.491 70.3845 113.555C71.0001 113.775 71.4391 114.363 71.4391 115.059ZM58.0566 103.763L59.9569 105.664C65.4598 100.361 74.2065 100.361 79.7094 105.664L81.6097 103.763C75.0587 97.4122 64.6076 97.4122 58.0566 103.763Z" fill="#3E495E"/>
<path id="Vector_2" d="M78.188 107.187L76.2824 109.093C75.6936 108.531 75.0458 108.065 74.3607 107.69C70.8652 105.769 66.4008 106.24 63.3817 109.093L61.4761 107.187C66.0957 102.76 73.3971 102.723 78.0649 107.075C78.1077 107.112 78.1452 107.15 78.188 107.187Z" fill="#3E495E"/>
<path id="Vector_3" d="M74.7625 110.613L72.8622 112.513C72.268 111.983 71.5668 111.64 70.8334 111.48C69.4417 111.164 67.9321 111.512 66.8026 112.513L64.9023 110.613C66.9579 108.702 69.8538 108.204 72.3483 109.13C73.2209 109.451 74.0452 109.943 74.7625 110.613Z" fill="#3E495E"/>
</g>
</g>
<g id="&#231;&#148;&#181;&#232;&#132;&#145;">
<rect id="Rectangle 25731" x="31.5" y="14.5" width="78" height="43" rx="4" fill="#5B7896"/>
<path id="Vector_4" d="M32.9478 62.5C32.3955 62.5 32.0499 62.9478 32.4105 63.3661C33.387 64.499 35.7121 66 37.4538 66H103.223C104.839 66 106.594 64.5403 107.344 63.4134C107.65 62.9537 107.271 62.5 106.719 62.5H32.9478Z" fill="#4E6781"/>
<path id="Vector_5" d="M103.203 57.7609C103.019 57.593 102.779 57.5 102.529 57.5H37.4707C37.2215 57.5 36.9812 57.593 36.7971 57.7609L32.4082 61.7609C31.7331 62.3762 32.1684 63.5 33.0818 63.5H106.918C107.832 63.5 108.267 62.3762 107.592 61.7609L103.203 57.7609Z" fill="#5B7896"/>
<path id="Vector_6" d="M100.29 57.5H39.7099L35.6641 61.5139H103.712L100.29 57.5Z" fill="#4E6781"/>
<rect id="Rectangle 25732" x="34.5" y="17.5" width="72" height="37" rx="2" fill="#D2DFFE"/>
<g id="Group 427322168_2">
<path id="Vector_7" d="M72.583 45.8291C72.583 46.5528 72.2356 47.1896 71.6929 47.5804C71.3383 47.8409 70.8896 48.0001 70.412 48.0001C69.2107 48.0001 68.241 47.0304 68.241 45.8291C68.241 44.6278 69.2107 43.6581 70.412 43.6581C70.6725 43.6581 70.9258 43.7087 71.1574 43.7956C71.9896 44.0923 72.583 44.8883 72.583 45.8291ZM54.4912 30.5582L57.0602 33.1279C64.4996 25.9578 76.3244 25.9578 83.7637 33.1279L86.3327 30.5582C77.4765 21.9718 63.3475 21.9718 54.4912 30.5582Z" fill="#3E495E"/>
<path id="Vector_8" d="M81.7073 35.1873L79.131 37.7636C78.335 37.0037 77.4593 36.3741 76.533 35.8675C71.8074 33.2696 65.772 33.9064 61.6905 37.7636L59.1143 35.1873C65.3595 29.2025 75.2304 29.1519 81.5408 35.0353C81.5987 35.086 81.6494 35.1366 81.7073 35.1873Z" fill="#3E495E"/>
<path id="Vector_9" d="M77.0761 39.8174L74.5071 42.3864C73.7038 41.67 72.7558 41.2069 71.7644 40.9898C69.8828 40.5628 67.8421 41.0332 66.3151 42.3864L63.7461 39.8174C66.525 37.2339 70.4401 36.5609 73.8124 37.8128C74.9919 38.247 76.1064 38.9128 77.0761 39.8174Z" fill="#3E495E"/>
</g>
</g>
<g id="Group 427322173">
<g id="Group 427322171">
<path id="Vector_10" d="M63.7422 86.1427V73.2969" stroke="#2ABB7F" stroke-width="1.83512" stroke-linecap="round" stroke-linejoin="round"/>
<path id="Vector_11" d="M68.0243 81.8613L63.7424 86.1433L59.4604 81.8613" stroke="#2ABB7F" stroke-width="1.83512" stroke-linecap="round" stroke-linejoin="round"/>
</g>
<g id="Group 427322172">
<path id="Vector_12" d="M76.5894 71.0299V83.8757" stroke="#2ABB7F" stroke-width="1.83512" stroke-linecap="round" stroke-linejoin="round"/>
<path id="Vector_13" d="M80.8715 75.3113L76.5896 71.0293L72.3076 75.3113" stroke="#2ABB7F" stroke-width="1.83512" stroke-linecap="round" stroke-linejoin="round"/>
</g>
</g>
<rect x="0.5" y="0.5" width="139" height="139" rx="69.5" stroke="#D3D8E0"/>
</g>
</svg>
