<svg width="160" height="160" viewBox="0 0 160 160" fill="none" xmlns="http://www.w3.org/2000/svg">
<circle cx="80" cy="80" r="70.5" stroke="#2ABB7F" stroke-dasharray="2 2"/>
<rect x="10.5" y="10.5" width="139" height="139" rx="69.5" stroke="#D3D8E0"/>
<rect x="55" y="102" width="50" height="32" rx="2.5" fill="#5B7896"/>
<rect x="57" y="104" width="46" height="28" rx="1.25" fill="#D2DFFE"/>
<path d="M71 109V115.545H72.6364V117.182H74.2727V115.545H77.5455V109H71ZM77.5455 115.545V117.182H79.1818V118.818H75.9091V120.455H71V127H77.5455V120.455H82.4545V118.818H80.8182V117.182H84.0909V115.545H85.7273V117.182H87.3636V115.545H89V109H82.4545V115.545H77.5455ZM87.3636 117.182V118.818H89V117.182H87.3636ZM87.3636 118.818H85.7273V120.455H87.3636V118.818ZM87.3636 120.455V122.091H89V120.455H87.3636ZM87.3636 122.091H85.7273V120.455H84.0909V122.091H80V127H81.6364V123.727H84.9091V125.364H86.5455V123.727H87.3636V122.091ZM84.9091 125.364H83.2727V127H84.9091V125.364ZM85.7273 118.818V117.182H84.0909V118.818H85.7273ZM75.9091 118.818V117.182H74.2727V118.818H75.9091ZM72.6364 117.182H71V118.818H72.6364V117.182ZM79.1818 109V112.273H78.3636V113.909H79.1818V114.727H80.8182V112.273H81.6364V110.636H80.8182V109H79.1818ZM72.6364 110.636H75.9091V113.909H72.6364V110.636ZM84.0909 110.636H87.3636V113.909H84.0909V110.636ZM73.4545 111.455V113.091H75.0909V111.455H73.4545ZM84.9091 111.455V113.091H86.5455V111.455H84.9091ZM72.6364 122.091H75.9091V125.364H72.6364V122.091ZM73.4545 122.909V124.545H75.0909V122.909H73.4545ZM87.3636 125.364V127H89V125.364H87.3636Z" fill="#3E495E"/>
<rect x="41.5" y="24.5" width="78" height="43" rx="4" fill="#5B7896"/>
<path d="M42.9453 72.5C42.393 72.5 42.0474 72.9478 42.408 73.3661C43.3846 74.499 45.7096 76 47.4513 76H113.22C114.837 76 116.591 74.5403 117.342 73.4134C117.648 72.9537 117.268 72.5 116.716 72.5H42.9453Z" fill="#4E6781"/>
<path d="M113.203 67.7609C113.019 67.593 112.779 67.5 112.529 67.5H47.4707C47.2215 67.5 46.9812 67.593 46.7971 67.7609L42.4082 71.7609C41.7331 72.3762 42.1684 73.5 43.0818 73.5H116.918C117.832 73.5 118.267 72.3762 117.592 71.7609L113.203 67.7609Z" fill="#5B7896"/>
<path d="M110.29 67.5H49.7099L45.6641 71.5139H113.712L110.29 67.5Z" fill="#4E6781"/>
<rect x="44.5" y="27.5" width="72" height="37" rx="2" fill="#D2DFFE"/>
<path d="M68 34V42.7273H70.1818V44.9091H72.3636V42.7273H76.7273V34H68ZM76.7273 42.7273V44.9091H78.9091V47.0909H74.5455V49.2727H68V58H76.7273V49.2727H83.2727V47.0909H81.0909V44.9091H85.4545V42.7273H87.6364V44.9091H89.8182V42.7273H92V34H83.2727V42.7273H76.7273ZM89.8182 44.9091V47.0909H92V44.9091H89.8182ZM89.8182 47.0909H87.6364V49.2727H89.8182V47.0909ZM89.8182 49.2727V51.4545H92V49.2727H89.8182ZM89.8182 51.4545H87.6364V49.2727H85.4545V51.4545H80V58H82.1818V53.6364H86.5455V55.8182H88.7273V53.6364H89.8182V51.4545ZM86.5455 55.8182H84.3636V58H86.5455V55.8182ZM87.6364 47.0909V44.9091H85.4545V47.0909H87.6364ZM74.5455 47.0909V44.9091H72.3636V47.0909H74.5455ZM70.1818 44.9091H68V47.0909H70.1818V44.9091ZM78.9091 34V38.3636H77.8182V40.5455H78.9091V41.6364H81.0909V38.3636H82.1818V36.1818H81.0909V34H78.9091ZM70.1818 36.1818H74.5455V40.5455H70.1818V36.1818ZM85.4545 36.1818H89.8182V40.5455H85.4545V36.1818ZM71.2727 37.2727V39.4545H73.4545V37.2727H71.2727ZM86.5455 37.2727V39.4545H88.7273V37.2727H86.5455ZM70.1818 51.4545H74.5455V55.8182H70.1818V51.4545ZM71.2727 52.5455V54.7273H73.4545V52.5455H71.2727ZM89.8182 55.8182V58H92V55.8182H89.8182Z" fill="#3E495E"/>
<path d="M73.7422 96.1427V83.2969" stroke="#2ABB7F" stroke-width="1.83512" stroke-linecap="round" stroke-linejoin="round"/>
<path d="M78.0248 91.8594L73.7429 96.1413L69.4609 91.8594" stroke="#2ABB7F" stroke-width="1.83512" stroke-linecap="round" stroke-linejoin="round"/>
<path d="M86.5898 81.0292V93.875" stroke="#2ABB7F" stroke-width="1.83512" stroke-linecap="round" stroke-linejoin="round"/>
<path d="M90.8725 85.3125L86.5905 81.0306L82.3086 85.3125" stroke="#2ABB7F" stroke-width="1.83512" stroke-linecap="round" stroke-linejoin="round"/>
</svg>
