<svg xmlns="http://www.w3.org/2000/svg" width="140" height="140" viewBox="0 0 140 140" fill="none">
  <rect x="0.5" y="0.5" width="139" height="139" rx="69.5" fill="#F2F4F7"/>
  <path d="M78.7055 89C80.3854 89 81.793 90.3213 81.793 91.9949V129.739C81.793 131.369 80.4308 132.734 78.7055 132.734H62.0875C60.4075 132.734 59 131.413 59 129.739V91.9949C59 90.3653 60.3621 89 62.0875 89H78.7055Z" fill="#5B7896"/>
  <path d="M80.2524 92.2521V129.253C80.2524 129.901 79.8408 130.419 79.2005 130.592C79.0633 130.635 78.9261 130.635 78.7432 130.635H62.0041C61.9126 130.635 61.8211 130.635 61.7754 130.635C61.0436 130.505 60.5405 129.944 60.5405 129.253V92.3816C60.5405 91.6476 61.0436 91.0864 61.7754 91C61.8668 91 61.9126 91 62.0041 91H64.4738C64.7939 91 65.0226 91.2159 65.0226 91.5181C65.0226 92.1226 65.5714 92.6407 66.2117 92.6407H74.7185C75.3588 92.6407 75.9076 92.1226 75.9076 91.5181C75.9076 91.2159 76.1363 91 76.4564 91H78.7889L78.7531 91.0058C78.8903 91.0058 79.0733 91.0058 79.2105 91.049C79.7593 91.2217 80.2524 91.6045 80.2524 92.2521Z" fill="#D2DFFE"/>
  <path d="M62.8965 104V109.455H64.2601V110.818H65.6238V109.455H68.351V104H62.8965ZM68.351 109.455V110.818H69.7147V112.182H66.9874V113.545H62.8965V119H68.351V113.545H72.4419V112.182H71.0783V110.818H73.8056V109.455H75.1692V110.818H76.5328V109.455H77.8965V104H72.4419V109.455H68.351ZM76.5328 110.818V112.182H77.8965V110.818H76.5328ZM76.5328 112.182H75.1692V113.545H76.5328V112.182ZM76.5328 113.545V114.909H77.8965V113.545H76.5328ZM76.5328 114.909H75.1692V113.545H73.8056V114.909H70.3965V119H71.7601V116.273H74.4874V117.636H75.851V116.273H76.5328V114.909ZM74.4874 117.636H73.1238V119H74.4874V117.636ZM75.1692 112.182V110.818H73.8056V112.182H75.1692ZM66.9874 112.182V110.818H65.6238V112.182H66.9874ZM64.2601 110.818H62.8965V112.182H64.2601V110.818ZM69.7147 104V106.727H69.0328V108.091H69.7147V108.773H71.0783V106.727H71.7601V105.364H71.0783V104H69.7147ZM64.2601 105.364H66.9874V108.091H64.2601V105.364ZM73.8056 105.364H76.5328V108.091H73.8056V105.364ZM64.9419 106.045V107.409H66.3056V106.045H64.9419ZM74.4874 106.045V107.409H75.851V106.045H74.4874ZM64.2601 114.909H66.9874V117.636H64.2601V114.909ZM64.9419 115.591V116.955H66.3056V115.591H64.9419ZM76.5328 117.636V119H77.8965V117.636H76.5328Z" fill="#3E495E"/>
  <path d="M72.5011 91.8982H69.2799C68.9513 91.8982 68.8198 91.569 68.8198 91.4374C68.8198 91.1082 69.1485 90.9766 69.2799 90.9766H72.5011C72.764 90.9766 72.9612 91.3057 72.9612 91.4374C72.9612 91.7665 72.764 91.8982 72.5011 91.8982Z" fill="#4E6781"/>
  <path d="M67.4373 91.8982H67.3058C66.9772 91.8982 66.8457 91.569 66.8457 91.4374C66.8457 91.1082 67.1744 90.9766 67.3058 90.9766H67.4373C67.766 90.9766 67.8975 91.3057 67.8975 91.4374C67.8975 91.7665 67.7003 91.8982 67.4373 91.8982Z" fill="#4E6781"/>
  <rect x="31.5" y="14.5" width="78" height="43" rx="4" fill="#5B7896"/>
  <path d="M32.9478 62.5C32.3955 62.5 32.0499 62.9478 32.4105 63.3661C33.387 64.499 35.7121 66 37.4538 66H103.223C104.839 66 106.594 64.5403 107.344 63.4134C107.65 62.9537 107.271 62.5 106.719 62.5H32.9478Z" fill="#4E6781"/>
  <path d="M103.203 57.7609C103.019 57.593 102.779 57.5 102.529 57.5H37.4707C37.2215 57.5 36.9812 57.593 36.7971 57.7609L32.4082 61.7609C31.7331 62.3762 32.1684 63.5 33.0818 63.5H106.918C107.832 63.5 108.267 62.3762 107.592 61.7609L103.203 57.7609Z" fill="#5B7896"/>
  <path d="M100.29 57.5H39.7099L35.6641 61.5139H103.712L100.29 57.5Z" fill="#4E6781"/>
  <rect x="34.5" y="17.5" width="72" height="37" rx="2" fill="#D2DFFE"/>
  <path d="M58 24V32.7273H60.1818V34.9091H62.3636V32.7273H66.7273V24H58ZM66.7273 32.7273V34.9091H68.9091V37.0909H64.5455V39.2727H58V48H66.7273V39.2727H73.2727V37.0909H71.0909V34.9091H75.4545V32.7273H77.6364V34.9091H79.8182V32.7273H82V24H73.2727V32.7273H66.7273ZM79.8182 34.9091V37.0909H82V34.9091H79.8182ZM79.8182 37.0909H77.6364V39.2727H79.8182V37.0909ZM79.8182 39.2727V41.4545H82V39.2727H79.8182ZM79.8182 41.4545H77.6364V39.2727H75.4545V41.4545H70V48H72.1818V43.6364H76.5455V45.8182H78.7273V43.6364H79.8182V41.4545ZM76.5455 45.8182H74.3636V48H76.5455V45.8182ZM77.6364 37.0909V34.9091H75.4545V37.0909H77.6364ZM64.5455 37.0909V34.9091H62.3636V37.0909H64.5455ZM60.1818 34.9091H58V37.0909H60.1818V34.9091ZM68.9091 24V28.3636H67.8182V30.5455H68.9091V31.6364H71.0909V28.3636H72.1818V26.1818H71.0909V24H68.9091ZM60.1818 26.1818H64.5455V30.5455H60.1818V26.1818ZM75.4545 26.1818H79.8182V30.5455H75.4545V26.1818ZM61.2727 27.2727V29.4545H63.4545V27.2727H61.2727ZM76.5455 27.2727V29.4545H78.7273V27.2727H76.5455ZM60.1818 41.4545H64.5455V45.8182H60.1818V41.4545ZM61.2727 42.5455V44.7273H63.4545V42.5455H61.2727ZM79.8182 45.8182V48H82V45.8182H79.8182Z" fill="#3E495E"/>
  <path d="M63.7422 85.1427V72.2969" stroke="#2ABB7F" stroke-width="1.83512" stroke-linecap="round" stroke-linejoin="round"/>
  <path d="M68.0243 80.8613L63.7424 85.1433L59.4604 80.8613" stroke="#2ABB7F" stroke-width="1.83512" stroke-linecap="round" stroke-linejoin="round"/>
  <path d="M76.5894 70.0299V82.8757" stroke="#2ABB7F" stroke-width="1.83512" stroke-linecap="round" stroke-linejoin="round"/>
  <path d="M80.8715 74.3113L76.5896 70.0293L72.3076 74.3113" stroke="#2ABB7F" stroke-width="1.83512" stroke-linecap="round" stroke-linejoin="round"/>
  <rect x="0.5" y="0.5" width="139" height="139" rx="69.5" stroke="#D3D8E0"/>
</svg>
