<svg width="160" height="160" viewBox="0 0 160 160" fill="none" xmlns="http://www.w3.org/2000/svg">
<circle cx="80" cy="80" r="70.5" stroke="#2ABB7F" stroke-dasharray="2 2"/>
<rect x="10.5" y="10.5" width="139" height="139" rx="69.5" stroke="#D3D8E0"/>
<path d="M88.7055 99C90.3854 99 91.793 100.321 91.793 101.995V139.739C91.793 141.369 90.4308 142.734 88.7055 142.734H72.0875C70.4075 142.734 69 141.413 69 139.739V101.995C69 100.365 70.3621 99 72.0875 99H88.7055Z" fill="#5B7896"/>
<path d="M90.2529 102.252V139.253C90.2529 139.901 89.8413 140.419 89.201 140.592C89.0638 140.635 88.9266 140.635 88.7437 140.635H72.0046C71.9131 140.635 71.8216 140.635 71.7759 140.635C71.0441 140.505 70.541 139.944 70.541 139.253V102.382C70.541 101.648 71.0441 101.086 71.7759 101C71.8673 101 71.9131 101 72.0046 101H74.4743C74.7944 101 75.0231 101.216 75.0231 101.518C75.0231 102.123 75.5719 102.641 76.2122 102.641H84.719C85.3593 102.641 85.9081 102.123 85.9081 101.518C85.9081 101.216 86.1367 101 86.4569 101H88.7894L88.7536 101.006C88.8908 101.006 89.0738 101.006 89.211 101.049C89.7598 101.222 90.2529 101.604 90.2529 102.252Z" fill="#D2DFFE"/>
<path d="M72.8965 114V119.455H74.2601V120.818H75.6238V119.455H78.351V114H72.8965ZM78.351 119.455V120.818H79.7147V122.182H76.9874V123.545H72.8965V129H78.351V123.545H82.4419V122.182H81.0783V120.818H83.8056V119.455H85.1692V120.818H86.5328V119.455H87.8965V114H82.4419V119.455H78.351ZM86.5328 120.818V122.182H87.8965V120.818H86.5328ZM86.5328 122.182H85.1692V123.545H86.5328V122.182ZM86.5328 123.545V124.909H87.8965V123.545H86.5328ZM86.5328 124.909H85.1692V123.545H83.8056V124.909H80.3965V129H81.7601V126.273H84.4874V127.636H85.851V126.273H86.5328V124.909ZM84.4874 127.636H83.1238V129H84.4874V127.636ZM85.1692 122.182V120.818H83.8056V122.182H85.1692ZM76.9874 122.182V120.818H75.6238V122.182H76.9874ZM74.2601 120.818H72.8965V122.182H74.2601V120.818ZM79.7147 114V116.727H79.0328V118.091H79.7147V118.773H81.0783V116.727H81.7601V115.364H81.0783V114H79.7147ZM74.2601 115.364H76.9874V118.091H74.2601V115.364ZM83.8056 115.364H86.5328V118.091H83.8056V115.364ZM74.9419 116.045V117.409H76.3056V116.045H74.9419ZM84.4874 116.045V117.409H85.851V116.045H84.4874ZM74.2601 124.909H76.9874V127.636H74.2601V124.909ZM74.9419 125.591V126.955H76.3056V125.591H74.9419ZM86.5328 127.636V129H87.8965V127.636H86.5328Z" fill="#3E495E"/>
<path d="M82.5016 101.898H79.2804C78.9518 101.898 78.8203 101.569 78.8203 101.437C78.8203 101.108 79.149 100.977 79.2804 100.977H82.5016C82.7645 100.977 82.9617 101.306 82.9617 101.437C82.9617 101.767 82.7645 101.898 82.5016 101.898Z" fill="#4E6781"/>
<path d="M77.4373 101.898H77.3058C76.9772 101.898 76.8457 101.569 76.8457 101.437C76.8457 101.108 77.1744 100.977 77.3058 100.977H77.4373C77.766 100.977 77.8975 101.306 77.8975 101.437C77.8975 101.767 77.7003 101.898 77.4373 101.898Z" fill="#4E6781"/>
<rect x="41.5" y="24.5" width="78" height="43" rx="4" fill="#5B7896"/>
<path d="M42.9473 72.5C42.395 72.5 42.0494 72.9478 42.41 73.3661C43.3865 74.499 45.7116 76 47.4533 76H113.222C114.839 76 116.593 74.5403 117.344 73.4134C117.65 72.9537 117.27 72.5 116.718 72.5H42.9473Z" fill="#4E6781"/>
<path d="M113.203 67.7609C113.019 67.593 112.779 67.5 112.529 67.5H47.4707C47.2215 67.5 46.9812 67.593 46.7971 67.7609L42.4082 71.7609C41.7331 72.3762 42.1684 73.5 43.0818 73.5H116.918C117.832 73.5 118.267 72.3762 117.592 71.7609L113.203 67.7609Z" fill="#5B7896"/>
<path d="M110.29 67.5H49.7099L45.6641 71.5139H113.712L110.29 67.5Z" fill="#4E6781"/>
<rect x="44.5" y="27.5" width="72" height="37" rx="2" fill="#D2DFFE"/>
<path d="M68 34V42.7273H70.1818V44.9091H72.3636V42.7273H76.7273V34H68ZM76.7273 42.7273V44.9091H78.9091V47.0909H74.5455V49.2727H68V58H76.7273V49.2727H83.2727V47.0909H81.0909V44.9091H85.4545V42.7273H87.6364V44.9091H89.8182V42.7273H92V34H83.2727V42.7273H76.7273ZM89.8182 44.9091V47.0909H92V44.9091H89.8182ZM89.8182 47.0909H87.6364V49.2727H89.8182V47.0909ZM89.8182 49.2727V51.4545H92V49.2727H89.8182ZM89.8182 51.4545H87.6364V49.2727H85.4545V51.4545H80V58H82.1818V53.6364H86.5455V55.8182H88.7273V53.6364H89.8182V51.4545ZM86.5455 55.8182H84.3636V58H86.5455V55.8182ZM87.6364 47.0909V44.9091H85.4545V47.0909H87.6364ZM74.5455 47.0909V44.9091H72.3636V47.0909H74.5455ZM70.1818 44.9091H68V47.0909H70.1818V44.9091ZM78.9091 34V38.3636H77.8182V40.5455H78.9091V41.6364H81.0909V38.3636H82.1818V36.1818H81.0909V34H78.9091ZM70.1818 36.1818H74.5455V40.5455H70.1818V36.1818ZM85.4545 36.1818H89.8182V40.5455H85.4545V36.1818ZM71.2727 37.2727V39.4545H73.4545V37.2727H71.2727ZM86.5455 37.2727V39.4545H88.7273V37.2727H86.5455ZM70.1818 51.4545H74.5455V55.8182H70.1818V51.4545ZM71.2727 52.5455V54.7273H73.4545V52.5455H71.2727ZM89.8182 55.8182V58H92V55.8182H89.8182Z" fill="#3E495E"/>
<path d="M73.7422 95.1427V82.2969" stroke="#2ABB7F" stroke-width="1.83512" stroke-linecap="round" stroke-linejoin="round"/>
<path d="M78.0248 90.8613L73.7429 95.1433L69.4609 90.8613" stroke="#2ABB7F" stroke-width="1.83512" stroke-linecap="round" stroke-linejoin="round"/>
<path d="M86.5898 80.0302V92.876" stroke="#2ABB7F" stroke-width="1.83512" stroke-linecap="round" stroke-linejoin="round"/>
<path d="M90.8725 84.3115L86.5905 80.0296L82.3086 84.3115" stroke="#2ABB7F" stroke-width="1.83512" stroke-linecap="round" stroke-linejoin="round"/>
</svg>
