<svg width="140" height="140" viewBox="0 0 140 140" fill="none" xmlns="http://www.w3.org/2000/svg">
<g id="&#230;&#143;&#146;&#231;&#148;&#187;&#228;&#184;&#187;&#228;&#189;&#147;">
<rect x="0.5" y="0.5" width="139" height="139" rx="69.5" fill="#F2F4F7"/>
<g id="&#233;&#146;&#177;&#229;&#140;&#133;">
<rect id="Rectangle 25729" x="45" y="92" width="50" height="32" rx="2.5" fill="#5B7896"/>
<rect id="Rectangle 25730" x="47" y="94" width="46" height="28" rx="1.25" fill="#D2DFFE"/>
<path id="Vector" d="M61 99V105.545H62.6364V107.182H64.2727V105.545H67.5455V99H61ZM67.5455 105.545V107.182H69.1818V108.818H65.9091V110.455H61V117H67.5455V110.455H72.4545V108.818H70.8182V107.182H74.0909V105.545H75.7273V107.182H77.3636V105.545H79V99H72.4545V105.545H67.5455ZM77.3636 107.182V108.818H79V107.182H77.3636ZM77.3636 108.818H75.7273V110.455H77.3636V108.818ZM77.3636 110.455V112.091H79V110.455H77.3636ZM77.3636 112.091H75.7273V110.455H74.0909V112.091H70V117H71.6364V113.727H74.9091V115.364H76.5455V113.727H77.3636V112.091ZM74.9091 115.364H73.2727V117H74.9091V115.364ZM75.7273 108.818V107.182H74.0909V108.818H75.7273ZM65.9091 108.818V107.182H64.2727V108.818H65.9091ZM62.6364 107.182H61V108.818H62.6364V107.182ZM69.1818 99V102.273H68.3636V103.909H69.1818V104.727H70.8182V102.273H71.6364V100.636H70.8182V99H69.1818ZM62.6364 100.636H65.9091V103.909H62.6364V100.636ZM74.0909 100.636H77.3636V103.909H74.0909V100.636ZM63.4545 101.455V103.091H65.0909V101.455H63.4545ZM74.9091 101.455V103.091H76.5455V101.455H74.9091ZM62.6364 112.091H65.9091V115.364H62.6364V112.091ZM63.4545 112.909V114.545H65.0909V112.909H63.4545ZM77.3636 115.364V117H79V115.364H77.3636Z" fill="#3E495E"/>
</g>
<g id="&#231;&#148;&#181;&#232;&#132;&#145;">
<rect id="Rectangle 25731" x="31.5" y="14.5" width="78" height="43" rx="4" fill="#5B7896"/>
<path id="Vector_2" d="M32.9478 62.5C32.3955 62.5 32.0499 62.9478 32.4105 63.3661C33.387 64.499 35.7121 66 37.4538 66H103.223C104.839 66 106.594 64.5403 107.344 63.4134C107.65 62.9537 107.271 62.5 106.719 62.5H32.9478Z" fill="#4E6781"/>
<path id="Vector_3" d="M103.203 57.7609C103.019 57.593 102.779 57.5 102.529 57.5H37.4707C37.2215 57.5 36.9812 57.593 36.7971 57.7609L32.4082 61.7609C31.7331 62.3762 32.1684 63.5 33.0818 63.5H106.918C107.832 63.5 108.267 62.3762 107.592 61.7609L103.203 57.7609Z" fill="#5B7896"/>
<path id="Vector_4" d="M100.29 57.5H39.7099L35.6641 61.5139H103.712L100.29 57.5Z" fill="#4E6781"/>
<rect id="Rectangle 25732" x="34.5" y="17.5" width="72" height="37" rx="2" fill="#D2DFFE"/>
<path id="Vector_5" d="M58 24V32.7273H60.1818V34.9091H62.3636V32.7273H66.7273V24H58ZM66.7273 32.7273V34.9091H68.9091V37.0909H64.5455V39.2727H58V48H66.7273V39.2727H73.2727V37.0909H71.0909V34.9091H75.4545V32.7273H77.6364V34.9091H79.8182V32.7273H82V24H73.2727V32.7273H66.7273ZM79.8182 34.9091V37.0909H82V34.9091H79.8182ZM79.8182 37.0909H77.6364V39.2727H79.8182V37.0909ZM79.8182 39.2727V41.4545H82V39.2727H79.8182ZM79.8182 41.4545H77.6364V39.2727H75.4545V41.4545H70V48H72.1818V43.6364H76.5455V45.8182H78.7273V43.6364H79.8182V41.4545ZM76.5455 45.8182H74.3636V48H76.5455V45.8182ZM77.6364 37.0909V34.9091H75.4545V37.0909H77.6364ZM64.5455 37.0909V34.9091H62.3636V37.0909H64.5455ZM60.1818 34.9091H58V37.0909H60.1818V34.9091ZM68.9091 24V28.3636H67.8182V30.5455H68.9091V31.6364H71.0909V28.3636H72.1818V26.1818H71.0909V24H68.9091ZM60.1818 26.1818H64.5455V30.5455H60.1818V26.1818ZM75.4545 26.1818H79.8182V30.5455H75.4545V26.1818ZM61.2727 27.2727V29.4545H63.4545V27.2727H61.2727ZM76.5455 27.2727V29.4545H78.7273V27.2727H76.5455ZM60.1818 41.4545H64.5455V45.8182H60.1818V41.4545ZM61.2727 42.5455V44.7273H63.4545V42.5455H61.2727ZM79.8182 45.8182V48H82V45.8182H79.8182Z" fill="#3E495E"/>
</g>
<g id="Group 427322173">
<g id="Group 427322171">
<path id="Vector_6" d="M63.7422 86.1427V73.2969" stroke="#2ABB7F" stroke-width="1.83512" stroke-linecap="round" stroke-linejoin="round"/>
<path id="Vector_7" d="M68.0243 81.8613L63.7424 86.1433L59.4604 81.8613" stroke="#2ABB7F" stroke-width="1.83512" stroke-linecap="round" stroke-linejoin="round"/>
</g>
<g id="Group 427322172">
<path id="Vector_8" d="M76.5894 71.0299V83.8757" stroke="#2ABB7F" stroke-width="1.83512" stroke-linecap="round" stroke-linejoin="round"/>
<path id="Vector_9" d="M80.8715 75.3113L76.5896 71.0293L72.3076 75.3113" stroke="#2ABB7F" stroke-width="1.83512" stroke-linecap="round" stroke-linejoin="round"/>
</g>
</g>
<rect x="0.5" y="0.5" width="139" height="139" rx="69.5" stroke="#D3D8E0"/>
</g>
</svg>
