<svg width="140" height="140" viewBox="0 0 140 140" fill="none" xmlns="http://www.w3.org/2000/svg">
<g id="&#230;&#143;&#146;&#231;&#148;&#187;&#228;&#184;&#187;&#228;&#189;&#147;">
<rect x="0.5" y="0.5" width="139" height="139" rx="69.5" fill="#F2F4F7"/>
<g id="&#231;&#186;&#191;">
<rect id="Rectangle 25728" x="43" y="110" width="2" height="9" fill="#192945"/>
<path id="Vector 24" d="M43.9995 114.499C17.6606 119.309 14.2868 52.7755 33.9325 59.5212" stroke="#192945"/>
<rect id="Rectangle 25730" x="35.3662" y="58.0098" width="2" height="4.08427" transform="rotate(48.4954 35.3662 58.0098)" fill="#192945"/>
</g>
<g id="&#233;&#146;&#177;&#229;&#140;&#133;">
<rect id="Rectangle 25729" x="45" y="105" width="50" height="18.75" rx="2.5" fill="#5B7896"/>
<rect id="Rectangle 25730_2" x="47.5" y="107.5" width="45" height="13.75" rx="1.25" fill="#D2DFFE"/>
<g id="Group 427322172">
<path id="Vector" d="M67.8184 109H72.182V113.091H67.8184V109Z" fill="#ABB9C0"/>
<path id="Vector_2" d="M70.818 118.545C70.818 118.394 70.6958 118.272 70.5453 118.272H69.4544C69.3038 118.272 69.1816 118.394 69.1816 118.545V120.454H70.818V118.545Z" fill="#546E7A"/>
<path id="Vector_3" d="M73 113.909C73 113.458 72.6335 113.091 72.1818 113.091H67.8182C67.3663 113.091 67 113.458 67 113.909V117.182C67 118.273 67.8182 119.091 68.9091 119.091H71.0909C71.9091 119.091 73 118.273 73 117.182V113.909ZM68.3636 110.637H69.4545V111.455H68.3636V110.637ZM70.5455 110.637H71.6364V111.455H70.5455V110.637Z" fill="#546E7A"/>
</g>
</g>
<g id="&#231;&#148;&#181;&#232;&#132;&#145;">
<rect id="Rectangle 25731" x="31.5" y="14.5" width="78" height="43" rx="4" fill="#5B7896"/>
<path id="Vector_4" d="M32.9473 62.5C32.395 62.5 32.0494 62.9478 32.41 63.3661C33.3865 64.499 35.7116 66 37.4533 66H103.222C104.839 66 106.593 64.5403 107.344 63.4134C107.65 62.9537 107.27 62.5 106.718 62.5H32.9473Z" fill="#4E6781"/>
<path id="Vector_5" d="M103.203 57.7609C103.019 57.593 102.779 57.5 102.529 57.5H37.4707C37.2215 57.5 36.9812 57.593 36.7971 57.7609L32.4082 61.7609C31.7331 62.3762 32.1684 63.5 33.0818 63.5H106.918C107.832 63.5 108.267 62.3762 107.592 61.7609L103.203 57.7609Z" fill="#5B7896"/>
<path id="Vector_6" d="M100.29 57.5H39.7099L35.6641 61.5139H103.712L100.29 57.5Z" fill="#4E6781"/>
<rect id="Rectangle 25732" x="34.5" y="17.5" width="72" height="37" rx="2" fill="#D2DFFE"/>
<g id="Group 427322172_2">
<path id="Vector_7" d="M64.9087 22.2734H75.0901V31.8185H64.9087V22.2734Z" fill="#ABB9C0"/>
<path id="Vector_8" d="M71.9088 44.5465C71.9088 44.1946 71.6238 43.9102 71.2725 43.9102H68.7272C68.3759 43.9102 68.0908 44.1946 68.0908 44.5465V49.0008H71.9088V44.5465Z" fill="#546E7A"/>
<path id="Vector_9" d="M76.9994 33.7286C76.9994 32.6742 76.1442 31.8196 75.0904 31.8196H64.909C63.8546 31.8196 63 32.6742 63 33.7286V41.3646C63 43.9099 64.909 45.8189 67.4544 45.8189H72.545C74.454 45.8189 76.9994 43.9099 76.9994 41.3646V33.7286ZM66.1817 26.0925H68.727V28.0015H66.1817V26.0925ZM71.2724 26.0925H73.8177V28.0015H71.2724V26.0925Z" fill="#546E7A"/>
</g>
</g>
<g id="Group 427322173">
<g id="Group 427322171">
<path id="Vector_10" d="M61.6655 93.9981V77" stroke="#2ABB7F" stroke-width="2.4283" stroke-linecap="round" stroke-linejoin="round"/>
<path id="Vector_11" d="M67.332 88.333L61.666 93.999L56 88.333" stroke="#2ABB7F" stroke-width="2.4283" stroke-linecap="round" stroke-linejoin="round"/>
</g>
<g id="Group 427322172_3">
<path id="Vector_12" d="M78.6655 74.001V90.999" stroke="#2ABB7F" stroke-width="2.4283" stroke-linecap="round" stroke-linejoin="round"/>
<path id="Vector_13" d="M84.332 79.666L78.666 74L73 79.666" stroke="#2ABB7F" stroke-width="2.4283" stroke-linecap="round" stroke-linejoin="round"/>
</g>
</g>
<rect x="0.5" y="0.5" width="139" height="139" rx="69.5" stroke="#D3D8E0"/>
</g>
</svg>
