<svg width="160" height="160" viewBox="0 0 160 160" fill="none" xmlns="http://www.w3.org/2000/svg">
<circle cx="80" cy="80" r="70.5" stroke="#2ABB7F" stroke-dasharray="2 2"/>
<rect x="10.5" y="10.5" width="139" height="139" rx="69.5" stroke="#D3D8E0"/>
<rect x="55" y="102" width="50" height="32" rx="2.5" fill="#5B7896"/>
<rect x="57" y="104" width="46" height="28" rx="1.25" fill="#D2DFFE"/>
<path d="M81.4391 125.059C81.4391 125.595 81.1821 126.066 80.7806 126.355C80.5183 126.547 80.1865 126.665 79.8332 126.665C78.9446 126.665 78.2273 125.948 78.2273 125.059C78.2273 124.171 78.9446 123.453 79.8332 123.453C80.0259 123.453 80.2132 123.491 80.3845 123.555C81.0001 123.775 81.4391 124.363 81.4391 125.059ZM68.0566 113.763L69.9569 115.664C75.4598 110.361 84.2065 110.361 89.7094 115.664L91.6097 113.763C85.0587 107.412 74.6076 107.412 68.0566 113.763Z" fill="#3E495E"/>
<path d="M88.1885 117.187L86.2829 119.093C85.694 118.531 85.0463 118.065 84.3611 117.691C80.8657 115.769 76.4013 116.24 73.3822 119.093L71.4766 117.187C76.0962 112.76 83.3976 112.723 88.0654 117.075C88.1082 117.112 88.1457 117.15 88.1885 117.187Z" fill="#3E495E"/>
<path d="M84.7625 120.613L82.8622 122.513C82.268 121.983 81.5668 121.64 80.8334 121.48C79.4417 121.164 77.9321 121.512 76.8026 122.513L74.9023 120.613C76.9579 118.702 79.8538 118.204 82.3483 119.13C83.2209 119.451 84.0452 119.943 84.7625 120.613Z" fill="#3E495E"/>
<rect x="41.5" y="24.5" width="78" height="43" rx="4" fill="#5B7896"/>
<path d="M42.9473 72.5C42.395 72.5 42.0494 72.9478 42.41 73.3661C43.3865 74.499 45.7116 76 47.4533 76H113.222C114.839 76 116.593 74.5403 117.344 73.4134C117.65 72.9537 117.27 72.5 116.718 72.5H42.9473Z" fill="#4E6781"/>
<path d="M113.203 67.7609C113.019 67.593 112.779 67.5 112.529 67.5H47.4707C47.2215 67.5 46.9812 67.593 46.7971 67.7609L42.4082 71.7609C41.7331 72.3762 42.1684 73.5 43.0818 73.5H116.918C117.832 73.5 118.267 72.3762 117.592 71.7609L113.203 67.7609Z" fill="#5B7896"/>
<path d="M110.29 67.5H49.7099L45.6641 71.5139H113.712L110.29 67.5Z" fill="#4E6781"/>
<rect x="44.5" y="27.5" width="72" height="37" rx="2" fill="#D2DFFE"/>
<path d="M82.584 55.8288C82.584 56.5525 82.2366 57.1893 81.6938 57.5801C81.3393 57.8406 80.8906 57.9999 80.413 57.9999C79.2117 57.9999 78.2419 57.0301 78.2419 55.8288C78.2419 54.6275 79.2117 53.6578 80.413 53.6578C80.6735 53.6578 80.9268 53.7085 81.1583 53.7953C81.9906 54.092 82.584 54.8881 82.584 55.8288ZM64.4922 40.5579L67.0612 43.1277C74.5006 35.9576 86.3253 35.9576 93.7647 43.1277L96.3337 40.5579C87.4774 31.9716 73.3485 31.9716 64.4922 40.5579Z" fill="#3E495E"/>
<path d="M91.7082 45.187L89.132 47.7633C88.3359 47.0035 87.4603 46.3739 86.534 45.8673C81.8084 43.2693 75.773 43.9061 71.6915 47.7633L69.1152 45.187C75.3605 39.2023 85.2314 39.1516 91.5418 45.0351C91.5997 45.0857 91.6504 45.1364 91.7082 45.187Z" fill="#3E495E"/>
<path d="M87.0761 49.8169L84.5071 52.386C83.7038 51.6695 82.7558 51.2064 81.7644 50.9893C79.8828 50.5623 77.8421 51.0327 76.3151 52.386L73.7461 49.8169C76.525 47.2334 80.4401 46.5604 83.8124 47.8123C84.9919 48.2466 86.1064 48.9123 87.0761 49.8169Z" fill="#3E495E"/>
<path d="M73.7422 96.1427V83.2969" stroke="#2ABB7F" stroke-width="1.83512" stroke-linecap="round" stroke-linejoin="round"/>
<path d="M78.0248 91.8613L73.7429 96.1433L69.4609 91.8613" stroke="#2ABB7F" stroke-width="1.83512" stroke-linecap="round" stroke-linejoin="round"/>
<path d="M86.5898 81.0302V93.876" stroke="#2ABB7F" stroke-width="1.83512" stroke-linecap="round" stroke-linejoin="round"/>
<path d="M90.8725 85.3115L86.5905 81.0296L82.3086 85.3115" stroke="#2ABB7F" stroke-width="1.83512" stroke-linecap="round" stroke-linejoin="round"/>
</svg>
