<svg xmlns="http://www.w3.org/2000/svg" width="16" height="16" viewBox="0 0 16 16" fill="none">
<g clip-path="url(#clip0_105201_1315)">
<path d="M7.99999 15.2008C9.9882 15.2008 11.7882 14.3949 13.0911 13.0919C14.3941 11.789 15.2 9.98899 15.2 8.00078C15.2 6.01257 14.3941 4.21257 13.0911 2.90961C11.7882 1.60667 9.9882 0.800781 7.99999 0.800781C6.01178 0.800781 4.21178 1.60667 2.90882 2.90961C1.60588 4.21257 0.799988 6.01257 0.799988 8.00078C0.799988 9.98899 1.60588 11.789 2.90882 13.0919C4.21178 14.3949 6.01178 15.2008 7.99999 15.2008Z" stroke="#2ABB7F" stroke-width="1.25" stroke-linejoin="round"/>
<path d="M4.66718 7.99913L7.11162 10.4436L12.0005 5.55469" stroke="#2ABB7F" stroke-width="1.25" stroke-linecap="round" stroke-linejoin="round"/>
</g>
<defs>
<clipPath id="clip0_105201_1315">
<rect width="16" height="16" fill="white"/>
</clipPath>
</defs>
</svg>
