<svg width="14" height="14" viewBox="0 0 14 14" fill="none" xmlns="http://www.w3.org/2000/svg">
<g clip-path="url(#clip0_56854_31398)">
<path d="M7.00033 12.8337C8.61114 12.8337 10.0695 12.1807 11.1251 11.1251C12.1807 10.0695 12.8337 8.61114 12.8337 7.00033C12.8337 5.38951 12.1807 3.93118 11.1251 2.87553C10.0695 1.81991 8.61114 1.16699 7.00033 1.16699C5.38951 1.16699 3.93118 1.81991 2.87553 2.87553C1.81991 3.93118 1.16699 5.38951 1.16699 7.00033C1.16699 8.61114 1.81991 10.0695 2.87553 11.1251C3.93118 12.1807 5.38951 12.8337 7.00033 12.8337Z" stroke="#FFB020" stroke-width="1.25" stroke-linejoin="round"/>
<path fill-rule="evenodd" clip-rule="evenodd" d="M6.99967 10.7913C7.40238 10.7913 7.72884 10.4649 7.72884 10.0622C7.72884 9.65947 7.40238 9.33301 6.99967 9.33301C6.59697 9.33301 6.27051 9.65947 6.27051 10.0622C6.27051 10.4649 6.59697 10.7913 6.99967 10.7913Z" fill="#FFB020"/>
<path d="M7 3.5V8.16667" stroke="#FFB020" stroke-width="1.25" stroke-linecap="round" stroke-linejoin="round"/>
</g>
<defs>
<clipPath id="clip0_56854_31398">
<rect width="14" height="14" fill="white"/>
</clipPath>
</defs>
</svg>
