<svg width="22" height="18" viewBox="0 0 22 18" fill="none" xmlns="http://www.w3.org/2000/svg">
<path d="M20.1786 0.260793L1.22215 7.57569C0.153872 7.98791 0.180633 8.58699 1.27662 8.91219L5.8569 10.2712L7.71919 15.8125C7.963 16.538 8.59993 16.691 9.14475 16.1512L11.5473 13.7713L16.2899 17.2467C16.906 17.6982 17.5395 17.4606 17.7058 16.7111L21.1666 1.11679C21.3325 0.369472 20.8907 -0.013998 20.1786 0.260793ZM17.2939 3.78662L9.20801 10.9909C9.06262 11.1204 8.93104 11.3771 8.91084 11.5672L8.55387 14.9233C8.51379 15.3002 8.38385 15.3157 8.26401 14.9545L6.69941 10.2383C6.63821 10.0538 6.72205 9.82761 6.88548 9.7296L17.1399 3.579C17.7933 3.18707 17.8629 3.27963 17.2939 3.78662Z" fill="white"/>
</svg>
