<svg width="28" height="28" viewBox="0 0 28 28" fill="none" xmlns="http://www.w3.org/2000/svg">
<path d="M14.0572 12.2812C11.3607 12.2812 9.16663 10.0866 9.16663 7.3906C9.16663 4.69461 11.3608 2.5 14.0572 2.5C16.7537 2.5 18.9478 4.69461 18.9478 7.3906C18.9478 10.0866 16.7537 12.2812 14.0572 12.2812ZM14.0572 3C11.6356 3 9.66663 4.96896 9.66663 7.3906C9.66663 9.81224 11.6356 11.7812 14.0572 11.7812C16.4789 11.7812 18.4478 9.81224 18.4478 7.3906C18.4478 4.96896 16.4789 3 14.0572 3Z" fill="#FFD523" stroke="#DC9E00"/>
<path d="M25.0162 26.9336H3.66663V22.1255C3.66663 18.7481 6.41463 16 9.79263 16H18.8902C22.2681 16 25.0162 18.748 25.0162 22.1255V26.9336ZM5.16663 25.4336H23.5162V22.1255C23.5162 19.5752 21.441 17.5 18.8902 17.5H9.79263C7.24183 17.5 5.16663 19.5752 5.16663 22.1255V25.4336Z" fill="#0A0D10"/>
</svg>
