<svg width="28" height="28" viewBox="0 0 28 28" fill="none" xmlns="http://www.w3.org/2000/svg">
<path d="M23.8312 3.60327L12.1943 15.2081L13.2529 16.2696L24.8898 4.66483L23.8312 3.60327Z" fill="#DC9E00"/>
<path d="M17.1962 25.6305C16.6757 25.6305 16.2108 25.3263 16.0028 24.8449L12.3622 16.4015L3.13574 12.5709C2.63184 12.361 2.31734 11.8732 2.33394 11.3278C2.35154 10.7824 2.69624 10.3156 3.21184 10.1383L23.7509 3.07288C24.2255 2.90738 24.7411 3.02898 25.0966 3.38438C25.4511 3.74078 25.5693 4.25648 25.4032 4.73108L18.4266 24.757C18.2498 25.2673 17.786 25.61 17.2459 25.6296L17.1961 25.6306L17.1962 25.6305ZM4.19534 11.3864L13.0127 15.047C13.3262 15.1779 13.5732 15.4215 13.708 15.734L17.1777 23.7823L23.8525 4.62418L4.19534 11.3864Z" fill="#0A0D10"/>
</svg>
