<svg width="28" height="28" viewBox="0 0 28 28" fill="none" xmlns="http://www.w3.org/2000/svg">
<path d="M14.1621 26.3242C7.4561 26.3242 2 20.8682 2 14.1621C2 7.456 7.4561 2 14.1621 2C20.8681 2 26.3242 7.4561 26.3242 14.1621C26.3242 20.8681 20.8681 26.3242 14.1621 26.3242ZM14.1621 3.5C8.2832 3.5 3.5 8.2832 3.5 14.1621C3.5 20.041 8.2832 24.8242 14.1621 24.8242C20.041 24.8242 24.8242 20.041 24.8242 14.1621C24.8242 8.2832 20.041 3.5 14.1621 3.5Z" fill="#0A0D10"/>
<path d="M18.0462 20.2802C17.8489 20.2802 17.6517 20.2026 17.5042 20.0488L12.5413 14.8623C12.4075 14.7227 12.3333 14.5371 12.3333 14.3437V6.75C12.3333 6.3359 12.6692 6 13.0833 6C13.4974 6 13.8333 6.3359 13.8333 6.75V14.0425L18.5882 19.0117C18.8743 19.311 18.8636 19.7856 18.5648 20.0722C18.4193 20.2114 18.2328 20.2802 18.0462 20.2802Z" fill="#DC9E00"/>
</svg>
