<svg width="28" height="28" viewBox="0 0 28 28" fill="none" xmlns="http://www.w3.org/2000/svg">
<path fill-rule="evenodd" clip-rule="evenodd" d="M13.9999 0.999878C11.7776 0.999878 9.97601 2.8015 9.97601 5.02376C9.97601 8.29316 13.9999 11.0596 13.9999 11.0596C13.9999 11.0596 18.0238 8.29316 18.0238 5.02376C18.0238 2.80142 16.2223 0.999878 13.9999 0.999878Z" stroke="#DC9E00" stroke-width="1.75" stroke-linecap="round" stroke-linejoin="round"/>
<path fill-rule="evenodd" clip-rule="evenodd" d="M13.9999 27.0001C11.7776 27.0001 9.97601 25.1985 9.97601 22.9763C9.97601 19.7068 13.9999 16.9404 13.9999 16.9404C13.9999 16.9404 18.0238 19.7068 18.0238 22.9762C18.0238 25.1986 16.2223 27.0001 13.9999 27.0001Z" stroke="#0A0D10" stroke-width="1.75" stroke-linecap="round" stroke-linejoin="round"/>
<path fill-rule="evenodd" clip-rule="evenodd" d="M27.0003 14C27.0003 16.2223 25.1986 18.0238 22.9764 18.0238C19.707 18.0238 16.9406 14 16.9406 14C16.9406 14 19.707 9.97607 22.9764 9.97607C25.1987 9.97607 27.0003 11.7776 27.0003 14Z" stroke="#0A0D10" stroke-width="1.75" stroke-linecap="round" stroke-linejoin="round"/>
<path fill-rule="evenodd" clip-rule="evenodd" d="M0.999756 14C0.999757 16.2223 2.80138 18.0238 5.02364 18.0238C8.29304 18.0238 11.0594 14 11.0594 14C11.0594 14 8.29304 9.97607 5.02364 9.97607C2.8013 9.97607 0.999756 11.7776 0.999756 14Z" stroke="#0A0D10" stroke-width="1.75" stroke-linecap="round" stroke-linejoin="round"/>
</svg>
