<svg width="12" height="13" viewBox="0 0 12 13" fill="none" xmlns="http://www.w3.org/2000/svg">
<path d="M6 11.5C7.3807 11.5 8.6307 10.9404 9.53553 10.0355C10.4404 9.1307 11 7.8807 11 6.5C11 5.1193 10.4404 3.8693 9.53553 2.96446C8.6307 2.05964 7.3807 1.5 6 1.5C4.6193 1.5 3.3693 2.05964 2.46446 2.96446C1.55964 3.8693 1 5.1193 1 6.5C1 7.8807 1.55964 9.1307 2.46446 10.0355C3.3693 10.9404 4.6193 11.5 6 11.5Z" stroke="currentColor" stroke-linejoin="round"/>
<path d="M6 7.65625V6.65625C6.82842 6.65625 7.5 5.98467 7.5 5.15625C7.5 4.32783 6.82842 3.65625 6 3.65625C5.17158 3.65625 4.5 4.32783 4.5 5.15625" stroke="currentColor" stroke-linecap="round" stroke-linejoin="round"/>
<path d="M6.5 9.28125C6.5 9.55739 6.27614 9.78125 6 9.78125C5.72386 9.78125 5.5 9.55739 5.5 9.28125C5.5 9.00511 5.72386 8.78125 6 8.78125C6.27614 8.78125 6.5 9.00511 6.5 9.28125Z" fill="currentColor" stroke="currentColor" stroke-width="0.25"/>
</svg>
