<svg width="36" height="36" viewBox="0 0 36 36" fill="none" xmlns="http://www.w3.org/2000/svg">
  <g opacity="0.1">
    <path d="M31.7668 28.7808C31.527 28.7808 31.2871 28.7089 31.0833 28.565C30.5436 28.1812 30.4117 27.4377 30.7835 26.8981C32.6063 24.2838 33.5656 21.2019 33.5656 18C33.5656 9.40173 26.5743 2.41039 17.976 2.41039C17.6043 2.41039 17.2325 2.42239 16.8608 2.44637C16.2252 2.49434 15.6256 1.99067 15.5776 1.33111C15.5296 0.671552 16.0333 0.0959366 16.6929 0.0479686C17.1126 0.0239845 17.5443 0 17.976 0C27.8934 0 35.964 8.07062 35.964 17.988C35.964 21.6815 34.8488 25.2312 32.7502 28.2532C32.5223 28.5889 32.1386 28.7688 31.7668 28.7688V28.7808Z" fill="currentColor" fill-opacity="0.44" />
    <path d="M4.1972 9.6056C3.95736 9.6056 3.71752 9.53364 3.51366 9.38974C2.97402 9.006 2.8421 8.26249 3.21386 7.72285C4.43704 5.97202 5.94804 4.46103 7.69887 3.23784C8.23851 2.8541 8.994 2.998 9.36576 3.53764C9.7495 4.07728 9.6056 4.83278 9.06596 5.20453C7.54297 6.25983 6.23584 7.56696 5.18055 9.08994C4.9527 9.42572 4.56895 9.6056 4.1972 9.6056Z" fill="currentColor" fill-opacity="0.44" />
    <path d="M1.28314 20.998C0.671552 20.998 0.155896 20.5423 0.095936 19.9307C0.0239839 19.2951 0 18.6476 0 18C0 16.477 0.191872 14.966 0.563624 13.503C0.731512 12.8554 1.37908 12.4717 2.02665 12.6396C2.66222 12.8075 3.05796 13.455 2.89007 14.1026C2.56629 15.3618 2.3984 16.6809 2.3984 18C2.3984 18.5516 2.42238 19.1153 2.48234 19.6669C2.5543 20.3265 2.07462 20.9141 1.41506 20.986C1.36709 20.986 1.33111 20.986 1.28314 20.986V20.998Z" fill="currentColor" fill-opacity="0.44" />
    <path d="M8.38241 32.978C8.14257 32.978 7.90273 32.9061 7.69887 32.7622C4.92871 30.8315 2.75816 28.1692 1.42705 25.0633C1.16322 24.4517 1.45103 23.7442 2.06262 23.4923C2.67422 23.2285 3.38175 23.5163 3.63358 24.1279C4.78481 26.8141 6.65556 29.1166 9.06596 30.7955C9.6056 31.1792 9.73751 31.9227 9.36576 32.4624C9.13791 32.7981 8.75416 32.978 8.38241 32.978Z" fill="currentColor" fill-opacity="0.44" />
    <path d="M17.976 35.988C16.6809 35.988 15.3738 35.8441 14.1266 35.5803C13.479 35.4364 13.0713 34.8008 13.2152 34.1532C13.3591 33.5057 13.9947 33.0979 14.6422 33.2418C15.7335 33.4817 16.8608 33.6016 17.988 33.6016C21.6456 33.6016 25.2072 32.3065 28.0133 29.956C28.517 29.5363 29.2725 29.5963 29.7042 30.0999C30.1359 30.6036 30.064 31.3591 29.5603 31.7908C26.3344 34.501 22.2212 36 18 36L17.976 35.988Z" fill="currentColor" fill-opacity="0.44" />
    <path d="M16.9218 28.074L13.8998 22.5577C13.7919 22.3538 13.624 22.1859 13.4201 22.078L7.90379 19.056C7.07634 18.6003 7.07634 17.4011 7.90379 16.9574L13.4201 13.9354C13.624 13.8275 13.7919 13.6596 13.8998 13.4558L16.9218 7.93943C17.3775 7.11199 18.5767 7.11199 19.0204 7.93943L22.0424 13.4558C22.1503 13.6596 22.3182 13.8275 22.522 13.9354L28.0384 16.9574C28.8658 17.4131 28.8658 18.6123 28.0384 19.056L22.522 22.078C22.3182 22.1859 22.1503 22.3538 22.0424 22.5577L19.0204 28.074C18.5647 28.9015 17.3655 28.9015 16.9218 28.074ZM10.9857 18.0007L14.5833 19.9674C15.1829 20.3032 15.6866 20.7949 16.0104 21.3945L17.9771 24.9921L19.9438 21.3945C20.2795 20.7949 20.7712 20.2912 21.3708 19.9674L24.9684 18.0007L21.3708 16.034C20.7712 15.6983 20.2675 15.2066 19.9438 14.607L17.9771 11.0094L16.0104 14.607C15.6746 15.2066 15.1829 15.7103 14.5833 16.034L10.9857 18.0007Z" fill="currentColor" />
  </g>
</svg>
