<svg width="178" height="65" viewBox="0 0 178 65" fill="none" xmlns="http://www.w3.org/2000/svg">
<g filter="url(#filter0_d_728_2705)">
<rect x="3" y="5.5625" width="137.222" height="29.1795" rx="2.31428" transform="rotate(-1.48852 3 5.5625)" fill="var(--r-neutral-bg1)"/>
<rect x="3.07418" y="5.63292" width="137.078" height="29.0348" rx="2.24196" transform="rotate(-1.48852 3.07418 5.63292)" stroke="var(--r-neutral-line)" stroke-width="0.144642"/>
<circle cx="12.5128" cy="15.163" r="4.62855" transform="rotate(-1.48852 12.5128 15.163)" fill="var(--r-neutral-card2)"/>
<rect x="20.5078" y="10.8984" width="38.1856" height="5.78569" transform="rotate(-1.48852 20.5078 10.8984)" fill="var(--r-neutral-card2)"/>
<rect x="20.7266" y="19.5781" width="26.3249" height="5.78569" transform="rotate(-1.48852 20.7266 19.5781)" fill="var(--r-neutral-card2)"/>
<g opacity="0.5" clip-path="url(#clip0_728_2705)">
<path d="M128.876 17.2423L126.731 18.4421L127.084 16.0097L125.277 14.3407L127.699 13.9252L128.729 11.6937L129.874 13.8686L132.314 14.1578L130.597 15.9184L131.075 18.3293L128.876 17.2423Z" fill="var(--r-blue-default)" stroke="var(--r-blue-default)" stroke-width="0.551698" stroke-linecap="round" stroke-linejoin="round"/>
</g>
</g>
<g filter="url(#filter1_d_728_2705)">
<g clip-path="url(#clip1_728_2705)">
<rect x="37.5156" y="22.4219" width="137.222" height="29.1795" rx="2.31428" transform="rotate(3.55354 37.5156 22.4219)" fill="var(--r-neutral-bg1)"/>
<circle cx="46.1453" cy="32.8128" r="4.62855" transform="rotate(3.55354 46.1453 32.8128)" fill="var(--r-neutral-card2)"/>
<rect x="54.4766" y="29.2734" width="38.1856" height="5.78569" transform="rotate(3.55354 54.4766 29.2734)" fill="var(--r-neutral-card2)"/>
<rect x="53.9375" y="37.9375" width="26.3249" height="5.78569" transform="rotate(3.55354 53.9375 37.9375)" fill="var(--r-neutral-card2)"/>
<g opacity="0.5" clip-path="url(#clip2_728_2705)">
<path d="M161.843 45.2305L159.628 46.2951L160.131 43.8892L158.431 42.1114L160.874 41.8468L162.041 39.6835L163.048 41.9251L165.466 42.365L163.643 44.0158L163.971 46.4516L161.843 45.2305Z" fill="var(--r-blue-default)" stroke="var(--r-blue-default)" stroke-width="0.551698" stroke-linecap="round" stroke-linejoin="round"/>
</g>
</g>
<rect x="37.5833" y="22.4985" width="137.078" height="29.0348" rx="2.24196" transform="rotate(3.55354 37.5833 22.4985)" stroke="var(--r-neutral-line)" stroke-width="0.144642"/>
</g>
<defs>
<filter id="filter0_d_728_2705" x="0.213367" y="0.60473" width="143.511" height="38.3076" filterUnits="userSpaceOnUse" color-interpolation-filters="sRGB">
<feFlood flood-opacity="0" result="BackgroundImageFix"/>
<feColorMatrix in="SourceAlpha" type="matrix" values="0 0 0 0 0 0 0 0 0 0 0 0 0 0 0 0 0 0 127 0" result="hardAlpha"/>
<feOffset dy="1.39332"/>
<feGaussianBlur stdDeviation="1.39332"/>
<feComposite in2="hardAlpha" operator="out"/>
<feColorMatrix type="matrix" values="0 0 0 0 0 0 0 0 0 0 0 0 0 0 0 0 0 0 0.05 0"/>
<feBlend mode="normal" in2="BackgroundImageFix" result="effect1_dropShadow_728_2705"/>
<feBlend mode="normal" in="SourceGraphic" in2="effect1_dropShadow_728_2705" result="shape"/>
</filter>
<filter id="filter1_d_728_2705" x="32.9243" y="21.0286" width="144.339" height="43.2022" filterUnits="userSpaceOnUse" color-interpolation-filters="sRGB">
<feFlood flood-opacity="0" result="BackgroundImageFix"/>
<feColorMatrix in="SourceAlpha" type="matrix" values="0 0 0 0 0 0 0 0 0 0 0 0 0 0 0 0 0 0 127 0" result="hardAlpha"/>
<feOffset dy="1.39332"/>
<feGaussianBlur stdDeviation="1.39332"/>
<feComposite in2="hardAlpha" operator="out"/>
<feColorMatrix type="matrix" values="0 0 0 0 0 0 0 0 0 0 0 0 0 0 0 0 0 0 0.05 0"/>
<feBlend mode="normal" in2="BackgroundImageFix" result="effect1_dropShadow_728_2705"/>
<feBlend mode="normal" in="SourceGraphic" in2="effect1_dropShadow_728_2705" result="shape"/>
</filter>
<clipPath id="clip0_728_2705">
<rect width="8.82717" height="8.82717" fill="var(--r-neutral-bg1)" transform="translate(124.719 11.3281) rotate(-1.48852)"/>
</clipPath>
<clipPath id="clip1_728_2705">
<rect x="37.5156" y="22.4219" width="137.222" height="29.1795" rx="2.31428" transform="rotate(3.55354 37.5156 22.4219)" fill="var(--r-neutral-bg1)"/>
</clipPath>
<clipPath id="clip2_728_2705">
<rect width="8.82717" height="8.82717" fill="var(--r-neutral-bg1)" transform="translate(158.062 39.0703) rotate(2.06502)"/>
</clipPath>
</defs>
</svg>
