<svg width="20" height="20" viewBox="0 0 20 20" fill="none" xmlns="http://www.w3.org/2000/svg">
<path d="M9.38021 8.09635C11.2212 8.09635 12.7135 6.60397 12.7135 4.76302C12.7135 2.92207 11.2212 1.42969 9.38021 1.42969C7.53926 1.42969 6.04688 2.92207 6.04688 4.76302C6.04688 6.60397 7.53926 8.09635 9.38021 8.09635Z" stroke="var(--r-neutral-body, #D3D8E0)" stroke-width="1.25" stroke-linecap="round" stroke-linejoin="round"/>
<path fill-rule="evenodd" clip-rule="evenodd" d="M8.06399 11.2891H8.0362H8.0362C6.99297 11.2891 6.17176 11.2891 5.51102 11.343C4.83712 11.3981 4.2753 11.5124 3.76506 11.7724L3.76504 11.7724C2.93063 12.1975 2.25223 12.876 1.82708 13.7104C1.5671 14.2206 1.45279 14.7824 1.39773 15.4563C1.34374 16.1171 1.34375 16.9383 1.34375 17.9815V17.9815V18.0093V18.5807C1.34375 18.9259 1.62357 19.2057 1.96875 19.2057H12.2653C12.0103 18.8229 11.8067 18.403 11.6644 17.9557H2.59375C2.59378 16.9066 2.59506 16.1519 2.64358 15.5581C2.69232 14.9615 2.78561 14.5825 2.94084 14.2779L2.94085 14.2779C3.24615 13.6786 3.73332 13.1915 4.33252 12.8861L12.9101 12.8861C12.9101 12.8861 12.9101 12.8861 12.9101 12.8861H4.33254C4.6372 12.7309 5.01622 12.6376 5.6128 12.5889C6.21669 12.5395 6.98691 12.5391 8.06399 12.5391H10.1592C11.2363 12.5391 12.0065 12.5395 12.6104 12.5889C12.8171 12.6058 12.9977 12.628 13.1581 12.6563C13.5639 12.3048 14.0269 12.0176 14.5313 11.8105C14.507 11.7976 14.4827 11.7849 14.4582 11.7724L14.4581 11.7724C13.9479 11.5124 13.3861 11.3981 12.7122 11.343C12.0515 11.2891 11.2302 11.2891 10.187 11.2891H10.1592H8.06399Z" fill="var(--r-neutral-body, #D3D8E0)"/>
<path d="M17.1417 13.7829L17.9607 12.9639C18.0276 12.897 18.1185 12.8594 18.2132 12.8594C18.3079 12.8594 18.3987 12.897 18.4657 12.9639L19.3892 13.8875C19.4562 13.9545 19.4938 14.0453 19.4938 14.14C19.4938 14.2347 19.4562 14.3255 19.3892 14.3925L18.5703 15.2114M17.1417 13.7829L13.675 17.2497C13.608 17.3166 13.5703 17.4074 13.5703 17.5022V18.4257C13.5703 18.5204 13.6079 18.6113 13.6749 18.6783C13.7419 18.7452 13.8327 18.7829 13.9275 18.7829H14.851C14.9457 18.7829 15.0366 18.7452 15.1035 18.6782L18.5703 15.2114M17.1417 13.7829L18.5703 15.2114" stroke="var(--r-neutral-body, #D3D8E0)" stroke-linecap="round" stroke-linejoin="round"/>
</svg>
