<svg width="28" height="28" viewBox="0 0 28 28" fill="none" xmlns="http://www.w3.org/2000/svg">
    <path
        d="M13.1354 11.3333C15.7128 11.3333 17.8021 9.244 17.8021 6.66667C17.8021 4.08934 15.7128 2 13.1354 2C10.5581 2 8.46875 4.08934 8.46875 6.66667C8.46875 9.244 10.5581 11.3333 13.1354 11.3333Z"
        stroke="#13141A" stroke-width="1.75" stroke-linecap="round" stroke-linejoin="round" />
    <path fill-rule="evenodd" clip-rule="evenodd"
        d="M11.2833 15.7969H11.2444C9.78391 15.7969 8.63421 15.7969 7.70917 15.8724C6.76572 15.9495 5.97918 16.1096 5.26483 16.4735L5.26481 16.4735C4.09663 17.0687 3.14687 18.0185 2.55167 19.1867C2.18769 19.901 2.02765 20.6876 1.95057 21.631C1.87499 22.5561 1.87499 23.7058 1.875 25.1663V25.2052V26.0052C1.875 26.4885 2.26675 26.8802 2.75 26.8802H17.173C16.8154 26.3444 16.5299 25.7564 16.33 25.1302H3.625C3.62504 23.6614 3.62683 22.6049 3.69476 21.7736C3.763 20.9383 3.89361 20.4077 4.11093 19.9812L4.11093 19.9812C4.53836 19.1423 5.2204 18.4602 6.05927 18.0328L6.0593 18.0328C6.48583 17.8155 7.01646 17.6849 7.85167 17.6166C8.69712 17.5476 9.77543 17.5469 11.2833 17.5469H14.2167C15.7246 17.5469 16.8029 17.5476 17.6483 17.6166C17.9374 17.6402 18.19 17.6713 18.4145 17.7109C18.9819 17.2186 19.6293 16.816 20.3346 16.5253C20.3017 16.5078 20.2685 16.4905 20.2352 16.4735L20.2352 16.4735C19.5208 16.1096 18.7343 15.9495 17.7908 15.8724C16.8658 15.7969 15.7161 15.7969 14.2556 15.7969H14.2167H11.2833Z"
        fill="#13141A" />
    <path
        d="M24 19.2929L25.1465 18.1464C25.2403 18.0527 25.3674 18 25.5 18C25.6326 18 25.7597 18.0527 25.8535 18.1464L27.1465 19.4394C27.2402 19.5332 27.2929 19.6603 27.2929 19.7929C27.2929 19.9255 27.2402 20.0526 27.1465 20.1464L26 21.2929M24 19.2929L19.1465 24.1464C19.0527 24.2401 19 24.3673 19 24.4999V25.7929C19 25.9255 19.0527 26.0527 19.1464 26.1464C19.2402 26.2402 19.3674 26.2929 19.5 26.2929H20.793C20.9256 26.2929 21.0528 26.2402 21.1465 26.1464L26 21.2929M24 19.2929L26 21.2929"
        stroke="#8697FF" stroke-width="1.25" stroke-linecap="round" stroke-linejoin="round" />
</svg>