<svg width="40" height="40" viewBox="0 0 40 40" fill="none" xmlns="http://www.w3.org/2000/svg">
<rect width="40" height="40" rx="20" fill="white"/>
<path d="M19.9998 2C10.0557 2 1.99854 10.0572 1.99854 20.0013C1.99854 29.9454 10.0557 38.0026 19.9998 38.0026C29.9439 38.0026 38.0011 29.9454 38.0011 20.0013C38.0011 10.0572 29.9439 2 19.9998 2ZM13.169 27.868C13.0585 28.0564 12.9004 28.2124 12.7105 28.3204C12.5206 28.4283 12.3057 28.4843 12.0873 28.4828C11.8647 28.4847 11.646 28.4246 11.4556 28.3092C11.3139 28.2271 11.1898 28.1178 11.0905 27.9876C10.9911 27.8574 10.9184 27.7088 10.8766 27.5504C10.8348 27.3921 10.8247 27.227 10.8468 27.0647C10.8689 26.9024 10.9229 26.7461 11.0056 26.6047L12.2344 24.5619C12.2965 24.4565 12.385 24.3691 12.4913 24.3085C12.5976 24.2479 12.7179 24.2161 12.8403 24.2163H13.0219C13.9131 24.2163 14.5368 24.7524 14.7184 25.2715L13.169 27.868ZM23.572 23.8499L15.5252 23.8587H10.1771C10.0088 23.8594 9.84215 23.826 9.68721 23.7603C9.53227 23.6947 9.39228 23.5983 9.27572 23.4769C9.15917 23.3555 9.06848 23.2118 9.00916 23.0543C8.94984 22.8968 8.92313 22.729 8.93064 22.5609C8.95636 21.8858 9.54542 21.3747 10.2164 21.3747H14.0932L18.6891 13.5514L17.2008 11.0159C16.8657 10.4381 17.0143 9.67627 17.5889 9.31303C17.7306 9.22141 17.8893 9.15939 18.0556 9.13069C18.2218 9.10199 18.3921 9.1072 18.5563 9.14601C18.7205 9.18482 18.8751 9.25643 19.0109 9.35653C19.1467 9.45663 19.2608 9.58316 19.3465 9.7285L20.1421 11.0874H20.1509L20.9473 9.7285C21.033 9.58391 21.147 9.45806 21.2824 9.35846C21.4178 9.25886 21.5719 9.18755 21.7355 9.14878C21.8991 9.11001 22.0688 9.10457 22.2345 9.13279C22.4002 9.16101 22.5585 9.2223 22.7 9.31303C23.2714 9.67627 23.4185 10.4381 23.0809 11.0183L21.5926 13.5538L20.1461 16.0201L17.0047 21.3771V21.386H21.6344C22.2146 21.386 22.9419 21.6978 23.236 22.1992L23.2618 22.2515C23.5213 22.6927 23.6684 22.9956 23.6684 23.4368C23.6642 23.5801 23.6322 23.7212 23.5744 23.8523L23.572 23.8499ZM29.8202 23.8587H27.6415V23.8676L29.2343 26.5766C29.4056 26.8619 29.4581 27.2031 29.3804 27.5267C29.3027 27.8502 29.101 28.1304 28.8189 28.3068C28.6233 28.4261 28.3986 28.4892 28.1695 28.4892C27.9517 28.4891 27.7376 28.4327 27.5481 28.3254C27.3586 28.2181 27.2 28.0636 27.0878 27.8769L24.734 23.87L23.2714 21.3787L21.3845 18.153C21.1112 17.6924 20.9626 17.1685 20.9535 16.633C20.9443 16.0975 21.0749 15.5688 21.3323 15.0992C21.7051 14.441 21.9904 14.2682 21.9904 14.2682L26.1878 21.3675H29.7969C30.4719 21.3675 31.0513 21.8866 31.0827 22.5528C31.0892 22.7222 31.0614 22.8911 31.0009 23.0495C30.9405 23.2079 30.8487 23.3524 30.731 23.4743C30.6133 23.5963 30.4721 23.6932 30.316 23.7593C30.1599 23.8254 29.9921 23.8592 29.8226 23.8587H29.8202Z" fill="url(#paint0_linear_133886_2510)"/>
<defs>
<linearGradient id="paint0_linear_133886_2510" x1="19.9998" y1="2" x2="19.9998" y2="38.0026" gradientUnits="userSpaceOnUse">
<stop stop-color="#1AC4FB"/>
<stop offset="1" stop-color="#1D7AF3"/>
</linearGradient>
</defs>
</svg>
