<svg width="100" height="100" viewBox="0 0 100 100" fill="none" xmlns="http://www.w3.org/2000/svg">
<g id="Group 2269">
<g id="Group 2232" opacity="0.4">
<path id="Vector" d="M80.2532 66.361C75.7517 66.2234 71.2502 66.076 66.7586 65.9384C66.621 54.4094 66.4735 42.8805 66.3359 31.3516C70.8374 36.6983 75.3389 42.0352 79.8306 47.382C79.9682 53.7018 80.1058 60.0314 80.2532 66.361Z" fill="#697ADF"/>
<path id="Vector_2" d="M67.1739 61.3013C52.549 61.4389 37.9241 61.5863 23.2991 61.7239C22.8765 53.8512 22.4539 45.9785 22.0312 38.096C36.7938 35.8452 51.5563 33.5945 66.3287 31.3438C66.6137 41.3296 66.8889 51.3154 67.1739 61.3013Z" fill="#4D5EC9"/>
<path id="Vector_3" d="M33.4219 56.2227C33.7069 65.2257 33.9821 74.2189 34.2671 83.2219C49.5899 79.8507 64.9225 76.4696 80.2453 73.0984V47.3672C64.6473 50.3256 49.0395 53.2742 33.4219 56.2227Z" fill="#8697FF"/>
<path id="Vector_4" d="M34.2681 83.2208C29.7666 77.7365 25.2651 72.2521 20.7734 66.7678L22.0413 38.0781C25.9826 44.2308 29.914 50.3835 33.8553 56.546C33.9929 65.4409 34.1305 74.3358 34.2681 83.2208Z" fill="#A4B0F7"/>
<path id="Vector_5" d="M33.4217 56.225C26.8169 54.6819 20.2023 53.129 13.5975 51.5859C11.0617 46.1015 8.53577 40.6172 6 35.1328C11.4843 36.2533 16.9687 37.3836 22.453 38.504C26.1191 44.4208 29.7753 50.3278 33.4217 56.225Z" fill="#ACB8FF"/>
<path id="Vector_6" d="M65.906 31.3399C51.2811 33.7283 36.6562 36.1166 22.0312 38.5148C20.2031 33.5907 18.375 28.6764 16.5469 23.7522C30.4642 21.5015 44.3913 19.2507 58.3085 17C60.8443 21.7767 63.3801 26.5632 65.906 31.3399ZM78.9879 46.5251C74.7714 41.4633 70.5549 36.4016 66.3286 31.3399C70.6925 27.5461 75.0466 23.7424 79.4105 19.9486C84.3346 24.4501 89.2489 28.9516 94.173 33.4432C89.1113 37.8071 84.0496 42.171 78.9879 46.5251Z" fill="#ACB8FF"/>
<path id="Vector_7" d="M33.4219 56.2263L40.1741 59.1748C57.8951 55.096 75.6062 51.0171 93.3271 46.9383C88.5504 46.8007 83.7639 46.6532 78.9872 46.5156C63.802 49.7591 48.6169 52.9927 33.4219 56.2263Z" fill="#ACB8FF"/>
</g>
</g>
</svg>
