<svg width="20" height="20" viewBox="0 0 20 20" fill="none" xmlns="http://www.w3.org/2000/svg">
<path d="M20 0H0V20H20V0Z" fill="white" fill-opacity="0.01"/>
<path d="M10.0001 18.3333C12.3012 18.3333 14.3846 17.4005 15.8926 15.8925C17.4007 14.3845 18.3334 12.3011 18.3334 9.99996C18.3334 7.69879 17.4007 5.61546 15.8926 4.1074C14.3846 2.59937 12.3012 1.66663 10.0001 1.66663C7.69891 1.66663 5.61558 2.59937 4.10752 4.1074C2.59949 5.61546 1.66675 7.69879 1.66675 9.99996C1.66675 12.3011 2.59949 14.3845 4.10752 15.8925C5.61558 17.4005 7.69891 18.3333 10.0001 18.3333Z" fill="#8697FF" stroke="#8697FF" stroke-width="1.25" stroke-linejoin="round"/>
<path d="M6.66675 10L9.16675 12.5L14.1667 7.5" stroke="white" stroke-width="1.25" stroke-linecap="round" stroke-linejoin="round"/>
</svg>
