<svg xmlns="http://www.w3.org/2000/svg" width="28" height="28" viewBox="0 0 28 28" fill="none">
    <g clip-path="url(#clip0_99304_3715)">
        <path fill-rule="evenodd" clip-rule="evenodd"
            d="M24.375 2C24.375 1.58579 24.0392 1.25 23.625 1.25C23.2108 1.25 22.875 1.58579 22.875 2V3.86719H21C20.5858 3.86719 20.25 4.20297 20.25 4.61719C20.25 5.0314 20.5858 5.36719 21 5.36719H22.875V7.25C22.875 7.66421 23.2108 8 23.625 8C24.0392 8 24.375 7.66421 24.375 7.25V5.36719H26.25C26.6642 5.36719 27 5.0314 27 4.61719C27 4.20297 26.6642 3.86719 26.25 3.86719H24.375V2Z"
            fill="url(#paint0_linear_99304_3715)" />
        <path fill-rule="evenodd" clip-rule="evenodd"
            d="M2.96875 21C2.96875 20.7411 2.75888 20.5312 2.5 20.5312C2.24112 20.5312 2.03125 20.7411 2.03125 21V22.0312H1C0.741117 22.0312 0.53125 22.2411 0.53125 22.5C0.53125 22.7589 0.741117 22.9688 1 22.9688H2.03125V24C2.03125 24.2589 2.24112 24.4688 2.5 24.4688C2.75888 24.4688 2.96875 24.2589 2.96875 24V22.9688H4C4.25888 22.9688 4.46875 22.7589 4.46875 22.5C4.46875 22.2411 4.25888 22.0312 4 22.0312H2.96875V21Z"
            fill="url(#paint1_linear_99304_3715)" />
        <path
            d="M13.446 1.33196C13.651 0.839182 14.349 0.839182 14.554 1.33196L17.8268 9.20076C17.9132 9.4085 18.1086 9.55044 18.3329 9.56842L26.8279 10.2495C27.3599 10.2921 27.5756 10.956 27.1703 11.3032L20.698 16.8475C20.5271 16.9938 20.4525 17.2235 20.5047 17.4423L22.4821 25.732C22.6059 26.2512 22.0411 26.6615 21.5857 26.3833L14.3128 21.941C14.1207 21.8237 13.8793 21.8237 13.6872 21.941L6.41432 26.3833C5.95886 26.6615 5.3941 26.2512 5.51794 25.732L7.49534 17.4423C7.54754 17.2235 7.47292 16.9938 7.30204 16.8475L0.829726 11.3032C0.424404 10.956 0.640118 10.2921 1.17211 10.2495L9.66714 9.56842C9.89142 9.55044 10.0868 9.4085 10.1732 9.20076L13.446 1.33196Z"
            fill="url(#paint2_linear_99304_3715)" />
    </g>
    <defs>
        <linearGradient id="paint0_linear_99304_3715" x1="20.366" y1="1.95312" x2="27.0997" y2="2.07838"
            gradientUnits="userSpaceOnUse">
            <stop stop-color="#326CFF" />
            <stop offset="1" stop-color="#AE2BFF" />
        </linearGradient>
        <linearGradient id="paint1_linear_99304_3715" x1="0.598926" y1="20.9414" x2="4.5269" y2="21.0145"
            gradientUnits="userSpaceOnUse">
            <stop stop-color="#326CFF" />
            <stop offset="1" stop-color="#AE2BFF" />
        </linearGradient>
        <linearGradient id="paint2_linear_99304_3715" x1="-0.484375" y1="3.125" x2="29.443" y2="3.68168"
            gradientUnits="userSpaceOnUse">
            <stop stop-color="#326CFF" />
            <stop offset="1" stop-color="#AE2BFF" />
        </linearGradient>
        <clipPath id="clip0_99304_3715">
            <rect width="28" height="28" fill="white" />
        </clipPath>
    </defs>
</svg>