<svg xmlns="http://www.w3.org/2000/svg" width="28" height="28" viewBox="0 0 28 28" fill="none">
  <path d="M15.461 12.8298H8.43595C7.97016 12.8298 7.52345 12.6447 7.19409 12.3154C6.86472 11.986 6.67969 11.5393 6.67969 11.0735V7.56095C6.67969 7.09516 6.86472 6.64845 7.19409 6.31909C7.52345 5.98972 7.97016 5.80469 8.43595 5.80469H15.461C15.9268 5.80469 16.3735 5.98972 16.7029 6.31909C17.0323 6.64845 17.2173 7.09516 17.2173 7.56095V11.0735C17.2173 11.5393 17.0323 11.986 16.7029 12.3154C16.3735 12.6447 15.9268 12.8298 15.461 12.8298ZM8.43595 6.97553C8.28069 6.97553 8.13179 7.03721 8.022 7.147C7.91221 7.25679 7.85053 7.40569 7.85053 7.56095V11.0735C7.85053 11.2288 7.91221 11.3777 8.022 11.4874C8.13179 11.5972 8.28069 11.6589 8.43595 11.6589H15.461C15.6163 11.6589 15.7652 11.5972 15.875 11.4874C15.9848 11.3777 16.0464 11.2288 16.0464 11.0735V7.56095C16.0464 7.40569 15.9848 7.25679 15.875 7.147C15.7652 7.03721 15.6163 6.97553 15.461 6.97553H8.43595Z" fill="var(--r-neutral-title-1, rgba(247, 250, 252, 1))" stroke="var(--r-neutral-title-1, rgba(247, 250, 252, 1))" stroke-width="0.5"/>
  <path d="M23.8948 7.27193L25.7681 10.4918C25.9259 10.7657 26.0068 11.0772 26.0023 11.3933V16.1048C25.6486 15.7438 25.256 15.421 24.8315 15.143V11.3699C24.8322 11.2673 24.8059 11.1664 24.7554 11.0772L22.882 7.85736C22.8397 7.79073 22.8112 7.71621 22.7984 7.63831C22.7856 7.5604 22.7887 7.4807 22.8074 7.40401C22.8262 7.32733 22.8603 7.25523 22.9077 7.19206C22.9551 7.1289 23.0147 7.07596 23.0831 7.03645C23.1514 6.99694 23.2271 6.97166 23.3055 6.96214C23.3839 6.95262 23.4633 6.95905 23.5392 6.98105C23.615 7.00305 23.6856 7.04016 23.7467 7.09015C23.8078 7.14014 23.8582 7.20197 23.8948 7.27193Z" fill="var(--r-neutral-title-1, rgba(247, 250, 252, 1))"/>
  <path d="M22.4898 14.1622V11.0772C22.4898 10.6114 22.3047 10.1647 21.9754 9.83531C21.646 9.50595 21.1993 9.32091 20.7335 9.32091H19.5627V5.22296C19.5627 4.13611 19.1309 3.09378 18.3624 2.32526C17.5939 1.55675 16.5516 1.125 15.4647 1.125H8.43965C7.3528 1.125 6.31047 1.55675 5.54195 2.32526C4.77344 3.09378 4.34169 4.13611 4.34169 5.22296V25.7127H2.58542C2.43016 25.7127 2.28125 25.7744 2.17147 25.8842C2.06168 25.994 2 26.1429 2 26.2982C2 26.4534 2.06168 26.6023 2.17147 26.7121C2.28125 26.8219 2.43016 26.8836 2.58542 26.8836H17.2023C16.6931 26.5538 16.2295 26.1597 15.8229 25.7127H5.51253V5.22296C5.51253 4.44664 5.82093 3.70212 6.36987 3.15318C6.91881 2.60424 7.66333 2.29584 8.43965 2.29584H15.4647C15.8491 2.29584 16.2297 2.37156 16.5849 2.51866C16.94 2.66576 17.2627 2.88137 17.5345 3.15318C17.8063 3.42498 18.0219 3.74767 18.169 4.1028C18.3161 4.45793 18.3918 4.83856 18.3918 5.22296V14.5069C18.7671 14.356 19.1585 14.2366 19.5627 14.1521V10.4918H20.7335C20.8104 10.4918 20.8865 10.5069 20.9575 10.5363C21.0286 10.5657 21.0931 10.6089 21.1475 10.6632C21.2018 10.7176 21.245 10.7821 21.2744 10.8531C21.3038 10.9242 21.3189 11.0003 21.3189 11.0772V14.0109C21.7189 14.0287 22.1101 14.0801 22.4898 14.1622Z" fill="var(--r-neutral-title-1, rgba(247, 250, 252, 1))"/>
  <path d="M23.8948 7.27193L25.7681 10.4918C25.9259 10.7657 26.0068 11.0772 26.0023 11.3933V16.1048C25.6486 15.7438 25.256 15.421 24.8315 15.143V11.3699C24.8322 11.2673 24.8059 11.1664 24.7554 11.0772L22.882 7.85736C22.8397 7.79073 22.8112 7.71621 22.7984 7.63831C22.7856 7.5604 22.7887 7.4807 22.8074 7.40401C22.8262 7.32733 22.8603 7.25523 22.9077 7.19206C22.9551 7.1289 23.0147 7.07596 23.0831 7.03645C23.1514 6.99694 23.2271 6.97166 23.3055 6.96214C23.3839 6.95262 23.4633 6.95905 23.5392 6.98105C23.615 7.00305 23.6856 7.04016 23.7467 7.09015C23.8078 7.14014 23.8582 7.20197 23.8948 7.27193Z" stroke="var(--r-neutral-title-1, rgba(247, 250, 252, 1))" stroke-width="0.5"/>
  <path d="M22.4898 14.1622V11.0772C22.4898 10.6114 22.3047 10.1647 21.9754 9.83531C21.646 9.50595 21.1993 9.32091 20.7335 9.32091H19.5627V5.22296C19.5627 4.13611 19.1309 3.09378 18.3624 2.32526C17.5939 1.55675 16.5516 1.125 15.4647 1.125H8.43965C7.3528 1.125 6.31047 1.55675 5.54195 2.32526C4.77344 3.09378 4.34169 4.13611 4.34169 5.22296V25.7127H2.58542C2.43016 25.7127 2.28125 25.7744 2.17147 25.8842C2.06168 25.994 2 26.1429 2 26.2982C2 26.4534 2.06168 26.6023 2.17147 26.7121C2.28125 26.8219 2.43016 26.8836 2.58542 26.8836H17.2023C16.6931 26.5538 16.2295 26.1597 15.8229 25.7127H5.51253V5.22296C5.51253 4.44664 5.82093 3.70212 6.36987 3.15318C6.91881 2.60424 7.66333 2.29584 8.43965 2.29584H15.4647C15.8491 2.29584 16.2297 2.37156 16.5849 2.51866C16.94 2.66576 17.2627 2.88137 17.5345 3.15318C17.8063 3.42498 18.0219 3.74767 18.169 4.1028C18.3161 4.45793 18.3918 4.83856 18.3918 5.22296V14.5069C18.7671 14.356 19.1585 14.2366 19.5627 14.1521V10.4918H20.7335C20.8104 10.4918 20.8865 10.5069 20.9575 10.5363C21.0286 10.5657 21.0931 10.6089 21.1475 10.6632C21.2018 10.7176 21.245 10.7821 21.2744 10.8531C21.3038 10.9242 21.3189 11.0003 21.3189 11.0772V14.0109C21.7189 14.0287 22.1101 14.0801 22.4898 14.1622Z" stroke="var(--r-neutral-title-1, rgba(247, 250, 252, 1))" stroke-width="0.5"/>
  <path d="M16 21H26" stroke="#7084FF" stroke-width="1.5" stroke-linecap="round" stroke-linejoin="round"/>
  <path d="M21 16V26" stroke="#7084FF" stroke-width="1.5" stroke-linecap="round" stroke-linejoin="round"/>
</svg>