<svg width="20" height="20" viewBox="0 0 20 20" fill="none" xmlns="http://www.w3.org/2000/svg">
<path d="M11.0419 9.16244H6.02401C5.6913 9.16244 5.37222 9.03027 5.13696 8.79501C4.9017 8.55975 4.76953 8.24067 4.76953 7.90796V5.39901C4.76953 5.0663 4.9017 4.74722 5.13696 4.51196C5.37222 4.2767 5.6913 4.14453 6.02401 4.14453H11.0419C11.3746 4.14453 11.6937 4.2767 11.929 4.51196C12.1642 4.74722 12.2964 5.0663 12.2964 5.39901V7.90796C12.2964 8.24067 12.1642 8.55975 11.929 8.79501C11.6937 9.03027 11.3746 9.16244 11.0419 9.16244ZM6.02401 4.98085C5.91311 4.98085 5.80674 5.0249 5.72832 5.10332C5.6499 5.18174 5.60585 5.2881 5.60585 5.39901V7.90796C5.60585 8.01886 5.6499 8.12522 5.72832 8.20364C5.80674 8.28206 5.91311 8.32612 6.02401 8.32612H11.0419C11.1528 8.32612 11.2592 8.28206 11.3376 8.20364C11.416 8.12522 11.4601 8.01886 11.4601 7.90796V5.39901C11.4601 5.2881 11.416 5.18174 11.3376 5.10332C11.2592 5.0249 11.1528 4.98085 11.0419 4.98085H6.02401Z" fill="var(--r-neutral-body, #D3D8E0)" stroke="var(--r-neutral-body, #D3D8E0)" stroke-width="0.357143"/>
<path d="M17.0688 5.19535L18.4069 7.49523C18.5196 7.69092 18.5774 7.9134 18.5742 8.13919V11.5045C18.3215 11.2467 18.0411 11.0161 17.7379 10.8176V8.12247C17.7384 8.04922 17.7196 7.97712 17.6835 7.91339L16.3454 5.61351C16.3152 5.56592 16.2948 5.5127 16.2857 5.45705C16.2765 5.4014 16.2787 5.34447 16.2922 5.2897C16.3056 5.23492 16.3299 5.18342 16.3638 5.1383C16.3976 5.09319 16.4402 5.05538 16.489 5.02715C16.5379 4.99893 16.5919 4.98088 16.6479 4.97407C16.7039 4.96727 16.7606 4.97187 16.8148 4.98758C16.869 5.0033 16.9194 5.0298 16.9631 5.06551C17.0067 5.10122 17.0427 5.14538 17.0688 5.19535Z" fill="var(--r-neutral-body, #D3D8E0)"/>
<path d="M16.0652 10.117V7.91339C16.0652 7.58068 15.9331 7.2616 15.6978 7.02634C15.4626 6.79108 15.1435 6.65891 14.8108 6.65891H13.9745V3.7318C13.9745 2.95548 13.6661 2.21096 13.1171 1.66202C12.5682 1.11308 11.8237 0.804688 11.0473 0.804688H6.02943C5.25312 0.804688 4.50859 1.11308 3.95965 1.66202C3.41071 2.21096 3.10232 2.95548 3.10232 3.7318V18.3674H1.84785C1.73694 18.3674 1.63058 18.4114 1.55216 18.4898C1.47374 18.5683 1.42969 18.6746 1.42969 18.7855C1.42969 18.8964 1.47374 19.0028 1.55216 19.0812C1.63058 19.1596 1.73694 19.2037 1.84785 19.2037H12.2885C11.9248 18.9681 11.5936 18.6866 11.3032 18.3674H3.93864V3.7318C3.93864 3.17729 4.15892 2.64548 4.55102 2.25338C4.94312 1.86128 5.47492 1.64101 6.02943 1.64101H11.0473C11.3219 1.64101 11.5938 1.69509 11.8475 1.80016C12.1011 1.90523 12.3316 2.05924 12.5258 2.25338C12.7199 2.44753 12.8739 2.67802 12.979 2.93169C13.0841 3.18535 13.1381 3.45723 13.1381 3.7318V10.3632C13.4062 10.2554 13.6857 10.1701 13.9745 10.1098V7.49523H14.8108C14.8657 7.49523 14.9201 7.50604 14.9708 7.52706C15.0215 7.54807 15.0676 7.57887 15.1065 7.6177C15.1453 7.65653 15.1761 7.70263 15.1971 7.75337C15.2181 7.8041 15.2289 7.85847 15.2289 7.91339V10.0089C15.5146 10.0216 15.794 10.0583 16.0652 10.117Z" fill="var(--r-neutral-body, #D3D8E0)"/>
<path d="M17.0688 5.19535L18.4069 7.49523C18.5196 7.69092 18.5774 7.9134 18.5742 8.13919V11.5045C18.3215 11.2467 18.0411 11.0161 17.7379 10.8176V8.12247C17.7384 8.04922 17.7196 7.97712 17.6835 7.91339L16.3454 5.61351C16.3152 5.56592 16.2948 5.5127 16.2857 5.45705C16.2765 5.4014 16.2787 5.34447 16.2922 5.2897C16.3056 5.23492 16.3299 5.18342 16.3638 5.1383C16.3976 5.09319 16.4402 5.05538 16.489 5.02715C16.5379 4.99893 16.5919 4.98088 16.6479 4.97407C16.7039 4.96727 16.7606 4.97187 16.8148 4.98758C16.869 5.0033 16.9194 5.0298 16.9631 5.06551C17.0067 5.10122 17.0427 5.14538 17.0688 5.19535Z" stroke="var(--r-neutral-body, #D3D8E0)" stroke-width="0.357143"/>
<path d="M16.0652 10.117V7.91339C16.0652 7.58068 15.9331 7.2616 15.6978 7.02634C15.4626 6.79108 15.1435 6.65891 14.8108 6.65891H13.9745V3.7318C13.9745 2.95548 13.6661 2.21096 13.1171 1.66202C12.5682 1.11308 11.8237 0.804688 11.0473 0.804688H6.02943C5.25312 0.804688 4.50859 1.11308 3.95965 1.66202C3.41071 2.21096 3.10232 2.95548 3.10232 3.7318V18.3674H1.84785C1.73694 18.3674 1.63058 18.4114 1.55216 18.4898C1.47374 18.5683 1.42969 18.6746 1.42969 18.7855C1.42969 18.8964 1.47374 19.0028 1.55216 19.0812C1.63058 19.1596 1.73694 19.2037 1.84785 19.2037H12.2885C11.9248 18.9681 11.5936 18.6866 11.3032 18.3674H3.93864V3.7318C3.93864 3.17729 4.15892 2.64548 4.55102 2.25338C4.94312 1.86128 5.47492 1.64101 6.02943 1.64101H11.0473C11.3219 1.64101 11.5938 1.69509 11.8475 1.80016C12.1011 1.90523 12.3316 2.05924 12.5258 2.25338C12.7199 2.44753 12.8739 2.67802 12.979 2.93169C13.0841 3.18535 13.1381 3.45723 13.1381 3.7318V10.3632C13.4062 10.2554 13.6857 10.1701 13.9745 10.1098V7.49523H14.8108C14.8657 7.49523 14.9201 7.50604 14.9708 7.52706C15.0215 7.54807 15.0676 7.57887 15.1065 7.6177C15.1453 7.65653 15.1761 7.70263 15.1971 7.75337C15.2181 7.8041 15.2289 7.85847 15.2289 7.91339V10.0089C15.5146 10.0216 15.794 10.0583 16.0652 10.117Z" stroke="var(--r-neutral-body, #D3D8E0)" stroke-width="0.357143"/>
<path d="M11.4297 15H18.5725" stroke="var(--r-neutral-body, #D3D8E0)" stroke-width="1.07143" stroke-linecap="round" stroke-linejoin="round"/>
<path d="M15 11.4297V18.5725" stroke="var(--r-neutral-body, #D3D8E0)" stroke-width="1.07143" stroke-linecap="round" stroke-linejoin="round"/>
</svg>
