<svg width="28" height="28" viewBox="0 0 28 28" fill="none" xmlns="http://www.w3.org/2000/svg">
<path d="M15.464 12.8298H8.43888C7.97309 12.8298 7.52638 12.6447 7.19702 12.3154C6.86765 11.986 6.68262 11.5393 6.68262 11.0735V7.56095C6.68262 7.09516 6.86765 6.64845 7.19702 6.31909C7.52638 5.98972 7.97309 5.80469 8.43888 5.80469H15.464C15.9297 5.80469 16.3765 5.98972 16.7058 6.31909C17.0352 6.64845 17.2202 7.09516 17.2202 7.56095V11.0735C17.2202 11.5393 17.0352 11.986 16.7058 12.3154C16.3765 12.6447 15.9297 12.8298 15.464 12.8298ZM8.43888 6.97553C8.28362 6.97553 8.13472 7.03721 8.02493 7.147C7.91514 7.25679 7.85346 7.40569 7.85346 7.56095V11.0735C7.85346 11.2288 7.91514 11.3777 8.02493 11.4874C8.13472 11.5972 8.28362 11.6589 8.43888 11.6589H15.464C15.6192 11.6589 15.7681 11.5972 15.8779 11.4874C15.9877 11.3777 16.0494 11.2288 16.0494 11.0735V7.56095C16.0494 7.40569 15.9877 7.25679 15.8779 7.147C15.7681 7.03721 15.6192 6.97553 15.464 6.97553H8.43888Z" fill="#13141A" stroke="#13141A" stroke-width="0.5"/>
<path d="M23.8924 7.26803L25.7657 10.4879C25.9235 10.7618 26.0044 11.0733 25.9999 11.3894V16.1009C25.6461 15.7399 25.2536 15.4171 24.829 15.1391V11.366C24.8297 11.2634 24.8035 11.1625 24.7529 11.0733L22.8796 7.85345C22.8372 7.78682 22.8088 7.71231 22.796 7.6344C22.7831 7.55649 22.7862 7.4768 22.805 7.40011C22.8238 7.32342 22.8579 7.25132 22.9053 7.18816C22.9526 7.12499 23.0123 7.07206 23.0806 7.03255C23.149 6.99303 23.2246 6.96776 23.303 6.95824C23.3814 6.94872 23.4609 6.95515 23.5367 6.97715C23.6126 6.99914 23.6832 7.03625 23.7443 7.08624C23.8054 7.13623 23.8558 7.19807 23.8924 7.26803Z" fill="#13141A"/>
<path d="M22.4873 14.1583V11.0733C22.4873 10.6075 22.3023 10.1608 21.9729 9.83141C21.6436 9.50204 21.1969 9.31701 20.7311 9.31701H19.5602V5.21905C19.5602 4.1322 19.1285 3.08987 18.36 2.32136C17.5914 1.55284 16.5491 1.12109 15.4623 1.12109H8.4372C7.35036 1.12109 6.30803 1.55284 5.53951 2.32136C4.771 3.08987 4.33925 4.1322 4.33925 5.21905V25.7088H2.58298C2.42772 25.7088 2.27881 25.7705 2.16902 25.8803C2.05924 25.9901 1.99756 26.139 1.99756 26.2943C1.99756 26.4495 2.05924 26.5984 2.16902 26.7082C2.27881 26.818 2.42772 26.8797 2.58298 26.8797H17.1999C16.6907 26.5499 16.227 26.1558 15.8205 25.7088H5.51009V5.21905C5.51009 4.44273 5.81848 3.69821 6.36742 3.14927C6.91636 2.60033 7.66089 2.29194 8.4372 2.29194H15.4623C15.8467 2.29194 16.2273 2.36765 16.5824 2.51475C16.9376 2.66185 17.2602 2.87746 17.5321 3.14927C17.8039 3.42108 18.0195 3.74376 18.1666 4.09889C18.3137 4.45403 18.3894 4.83466 18.3894 5.21905V14.503C18.7647 14.3521 19.156 14.2327 19.5602 14.1482V10.4879H20.7311C20.808 10.4879 20.8841 10.503 20.9551 10.5324C21.0261 10.5618 21.0907 10.605 21.145 10.6593C21.1994 10.7137 21.2425 10.7782 21.2719 10.8492C21.3014 10.9203 21.3165 10.9964 21.3165 11.0733V14.007C21.7164 14.0248 22.1076 14.0762 22.4873 14.1583Z" fill="#13141A"/>
<path d="M23.8924 7.26803L25.7657 10.4879C25.9235 10.7618 26.0044 11.0733 25.9999 11.3894V16.1009C25.6461 15.7399 25.2536 15.4171 24.829 15.1391V11.366C24.8297 11.2634 24.8035 11.1625 24.7529 11.0733L22.8796 7.85345C22.8372 7.78682 22.8088 7.71231 22.796 7.6344C22.7831 7.55649 22.7862 7.4768 22.805 7.40011C22.8238 7.32342 22.8579 7.25132 22.9053 7.18816C22.9526 7.12499 23.0123 7.07206 23.0806 7.03255C23.149 6.99303 23.2246 6.96776 23.303 6.95824C23.3814 6.94872 23.4609 6.95515 23.5367 6.97715C23.6126 6.99914 23.6832 7.03625 23.7443 7.08624C23.8054 7.13623 23.8558 7.19807 23.8924 7.26803Z" stroke="#13141A" stroke-width="0.5"/>
<path d="M22.4873 14.1583V11.0733C22.4873 10.6075 22.3023 10.1608 21.9729 9.83141C21.6436 9.50204 21.1969 9.31701 20.7311 9.31701H19.5602V5.21905C19.5602 4.1322 19.1285 3.08987 18.36 2.32136C17.5914 1.55284 16.5491 1.12109 15.4623 1.12109H8.4372C7.35036 1.12109 6.30803 1.55284 5.53951 2.32136C4.771 3.08987 4.33925 4.1322 4.33925 5.21905V25.7088H2.58298C2.42772 25.7088 2.27881 25.7705 2.16902 25.8803C2.05924 25.9901 1.99756 26.139 1.99756 26.2943C1.99756 26.4495 2.05924 26.5984 2.16902 26.7082C2.27881 26.818 2.42772 26.8797 2.58298 26.8797H17.1999C16.6907 26.5499 16.227 26.1558 15.8205 25.7088H5.51009V5.21905C5.51009 4.44273 5.81848 3.69821 6.36742 3.14927C6.91636 2.60033 7.66089 2.29194 8.4372 2.29194H15.4623C15.8467 2.29194 16.2273 2.36765 16.5824 2.51475C16.9376 2.66185 17.2602 2.87746 17.5321 3.14927C17.8039 3.42108 18.0195 3.74376 18.1666 4.09889C18.3137 4.45403 18.3894 4.83466 18.3894 5.21905V14.503C18.7647 14.3521 19.156 14.2327 19.5602 14.1482V10.4879H20.7311C20.808 10.4879 20.8841 10.503 20.9551 10.5324C21.0261 10.5618 21.0907 10.605 21.145 10.6593C21.1994 10.7137 21.2425 10.7782 21.2719 10.8492C21.3014 10.9203 21.3165 10.9964 21.3165 11.0733V14.007C21.7164 14.0248 22.1076 14.0762 22.4873 14.1583Z" stroke="#13141A" stroke-width="0.5"/>
<path d="M16 21H26" stroke="#8697FF" stroke-width="1.5" stroke-linecap="round" stroke-linejoin="round"/>
<path d="M21 16V26" stroke="#8697FF" stroke-width="1.5" stroke-linecap="round" stroke-linejoin="round"/>
</svg>
