<svg xmlns="http://www.w3.org/2000/svg" width="20" height="20" viewBox="0 0 20 20" fill="none">
  <path d="M12.4062 8.51419H13.2669C13.7234 8.51419 14.1612 8.69554 14.484 9.01834C14.8068 9.34115 14.9882 9.77897 14.9882 10.2355V12.8174C14.9882 13.1598 15.1242 13.4882 15.3663 13.7303C15.6084 13.9724 15.9368 14.1084 16.2792 14.1084C16.6216 14.1084 16.9499 13.9724 17.192 13.7303C17.4341 13.4882 17.5701 13.1598 17.5701 12.8174V6.79289L14.9882 4.21094" stroke="#4B4D59" stroke-width="1.5625" stroke-linecap="round" stroke-linejoin="round"/>
  <path d="M3.79688 16.2704V4.2213C3.79688 3.76478 3.97823 3.32696 4.30103 3.00416C4.62384 2.68135 5.06166 2.5 5.51817 2.5H10.6821C11.1386 2.5 11.5764 2.68135 11.8992 3.00416C12.222 3.32696 12.4034 3.76478 12.4034 4.2213V16.2704" stroke="#4B4D59" stroke-width="1.5625" stroke-linecap="round" stroke-linejoin="round"/>
  <path d="M2.92969 16.25H13.2575" stroke="#4B4D59" stroke-width="1.5625" stroke-linecap="round" stroke-linejoin="round"/>
  <path d="M6.52344 8L9.27613 8" stroke="#4B4D59" stroke-width="1.5625" stroke-linecap="round" stroke-linejoin="round"/>
</svg>
