<svg width="28" height="28" viewBox="0 0 28 28" fill="none" xmlns="http://www.w3.org/2000/svg">
<g clip-path="url(#clip0_102521_117004)">
<path d="M22.8605 16.0096C25.8402 18.767 27.4704 21.1684 26.8802 22.3292C25.9117 24.2122 19.3621 21.9951 12.2483 17.3793C5.13713 12.7634 0.152804 7.49493 1.12003 5.61324C1.72325 4.43961 4.92393 5.04061 8.66413 6.65146" stroke="url(#paint0_linear_102521_117004)" stroke-width="1.75" stroke-linecap="round" stroke-linejoin="round"/>
<path d="M5 14C5 15.1819 5.23279 16.3522 5.68508 17.4442C6.13738 18.5361 6.80031 19.5282 7.63604 20.364C8.47177 21.1997 9.46392 21.8626 10.5558 22.3149C11.6478 22.7672 12.8181 23 14 23C15.1819 23 16.3522 22.7672 17.4442 22.3149C18.5361 21.8626 19.5282 21.1997 20.364 20.364C21.1997 19.5282 21.8626 18.5361 22.3149 17.4442C22.7672 16.3522 23 15.1819 23 14C23 12.8181 22.7672 11.6478 22.3149 10.5558C21.8626 9.46392 21.1997 8.47177 20.364 7.63604C19.5282 6.80031 18.5361 6.13738 17.4442 5.68508C16.3522 5.23279 15.1819 5 14 5C12.8181 5 11.6478 5.23279 10.5558 5.68508C9.46392 6.13738 8.47177 6.80031 7.63604 7.63604C6.80031 8.47177 6.13738 9.46392 5.68508 10.5558C5.23279 11.6478 5 12.8181 5 14Z" stroke="var(--r-neutral-title1, #192945)" stroke-width="1.75" stroke-linecap="round" stroke-linejoin="round"/>
<mask id="mask0_102521_117004" style="mask-type:alpha" maskUnits="userSpaceOnUse" x="4" y="4" width="20" height="20">
<path d="M5 14C5 15.1819 5.23279 16.3522 5.68508 17.4442C6.13738 18.5361 6.80031 19.5282 7.63604 20.364C8.47177 21.1997 9.46392 21.8626 10.5558 22.3149C11.6478 22.7672 12.8181 23 14 23C15.1819 23 16.3522 22.7672 17.4442 22.3149C18.5361 21.8626 19.5282 21.1997 20.364 20.364C21.1997 19.5282 21.8626 18.5361 22.3149 17.4442C22.7672 16.3522 23 15.1819 23 14C23 12.8181 22.7672 11.6478 22.3149 10.5558C21.8626 9.46392 21.1997 8.47177 20.364 7.63604C19.5282 6.80031 18.5361 6.13738 17.4442 5.68508C16.3522 5.23279 15.1819 5 14 5C12.8181 5 11.6478 5.23279 10.5558 5.68508C9.46392 6.13738 8.47177 6.80031 7.63604 7.63604C6.80031 8.47177 6.13738 9.46392 5.68508 10.5558C5.23279 11.6478 5 12.8181 5 14Z" stroke="var(--r-neutral-title1, #192945)" stroke-width="1.75" stroke-linecap="round" stroke-linejoin="round"/>
</mask>
<g mask="url(#mask0_102521_117004)">
<path d="M26.8802 14.4984C29.8599 17.2558 27.4704 21.1669 26.8802 22.3276C25.9117 24.2106 19.3621 21.9936 12.2483 17.3777C5.13714 12.7618 0.152804 7.49338 1.12003 5.61169C1.72325 4.43805 4.2598 0.387598 8 1.99845" stroke="url(#paint1_linear_102521_117004)" stroke-width="1.75" stroke-linecap="round" stroke-linejoin="round"/>
</g>
<path d="M3.40667 21.2427C3.43954 21.1572 3.56046 21.1572 3.59334 21.2427L4.2042 22.8309C4.3029 23.0875 4.35225 23.2158 4.42897 23.3238C4.49701 23.4194 4.58059 23.503 4.67624 23.571C4.78418 23.6478 4.91249 23.6971 5.16912 23.7958L6.75733 24.4067C6.8428 24.4395 6.8428 24.5605 6.75733 24.5933L5.16912 25.2042C4.91249 25.3029 4.78418 25.3522 4.67624 25.429C4.58059 25.497 4.49701 25.5806 4.42897 25.6762C4.35225 25.7842 4.3029 25.9125 4.2042 26.1691L3.59334 27.7573C3.56046 27.8428 3.43954 27.8428 3.40667 27.7573L2.79581 26.1691C2.69711 25.9125 2.64776 25.7842 2.57101 25.6762C2.50299 25.5806 2.41942 25.497 2.32376 25.429C2.21583 25.3522 2.08751 25.3029 1.83088 25.2042L0.242666 24.5933C0.157197 24.5605 0.157198 24.4395 0.242667 24.4067L1.83088 23.7958C2.08751 23.6971 2.21583 23.6478 2.32376 23.571C2.41942 23.503 2.50299 23.4194 2.57101 23.3238C2.64776 23.2158 2.69711 23.0875 2.79581 22.8309L3.40667 21.2427Z" fill="url(#paint2_linear_102521_117004)"/>
<path d="M23.9067 0.242667C23.9395 0.157198 24.0605 0.157197 24.0933 0.242666L24.8048 2.09244C24.9176 2.38573 24.974 2.53237 25.0617 2.65572C25.1394 2.76505 25.235 2.86056 25.3443 2.9383C25.4676 3.02601 25.6143 3.08241 25.9076 3.19522L27.7573 3.90667C27.8428 3.93954 27.8428 4.06046 27.7573 4.09334L25.9076 4.8048C25.6143 4.9176 25.4676 4.974 25.3443 5.06168C25.235 5.13944 25.1394 5.23496 25.0617 5.34428C24.974 5.46764 24.9176 5.61428 24.8048 5.90756L24.0933 7.75733C24.0605 7.8428 23.9395 7.8428 23.9067 7.75733L23.1952 5.90756C23.0824 5.61428 23.026 5.46764 22.9383 5.34428C22.8606 5.23496 22.765 5.13944 22.6557 5.06168C22.5324 4.974 22.3857 4.9176 22.0924 4.8048L20.2427 4.09334C20.1572 4.06046 20.1572 3.93954 20.2427 3.90667L22.0924 3.19522C22.3857 3.08241 22.5324 3.02601 22.6557 2.9383C22.765 2.86056 22.8606 2.76505 22.9383 2.65572C23.026 2.53237 23.0824 2.38572 23.1952 2.09243L23.9067 0.242667Z" fill="url(#paint3_linear_102521_117004)"/>
</g>
<defs>
<linearGradient id="paint0_linear_102521_117004" x1="1.48878" y1="4.94269" x2="28.0683" y2="24.8944" gradientUnits="userSpaceOnUse">
<stop stop-color="#4EAE77"/>
<stop offset="1" stop-color="#DE7652"/>
</linearGradient>
<linearGradient id="paint1_linear_102521_117004" x1="1.48878" y1="4.94114" x2="28.0683" y2="24.8929" gradientUnits="userSpaceOnUse">
<stop stop-color="#4EAE77"/>
<stop offset="1" stop-color="#DE7652"/>
</linearGradient>
<linearGradient id="paint2_linear_102521_117004" x1="0.875" y1="21.875" x2="5.25" y2="26.25" gradientUnits="userSpaceOnUse">
<stop stop-color="#4FAE78"/>
<stop offset="1" stop-color="#D47B56"/>
</linearGradient>
<linearGradient id="paint3_linear_102521_117004" x1="21" y1="1" x2="26" y2="6" gradientUnits="userSpaceOnUse">
<stop stop-color="#4FAE78"/>
<stop offset="1" stop-color="#D47B56"/>
</linearGradient>
<clipPath id="clip0_102521_117004">
<rect width="28" height="28" fill="white"/>
</clipPath>
</defs>
</svg>
