<svg width="28" height="28" viewBox="0 0 28 28" fill="none" xmlns="http://www.w3.org/2000/svg">
<path d="M9 8H19" stroke="#192945" stroke-width="1.75" stroke-linecap="round" stroke-linejoin="round"/>
<path d="M9 14H17" stroke="#192945" stroke-width="1.75" stroke-linecap="round" stroke-linejoin="round"/>
<path d="M21.9102 1.125C23.7349 1.125 24.875 2.94469 24.875 4.68848V15.1699C24.339 14.813 23.7513 14.5274 23.125 14.3281V4.68848C23.125 3.47546 22.3839 2.875 21.9102 2.875H6.08984C5.61612 2.875 4.875 3.47546 4.875 4.68848V23.3115C4.875 24.5245 5.61611 25.125 6.08984 25.125H15.3457C15.8501 25.8152 16.4777 26.4088 17.1963 26.875H6.08984C4.26507 26.875 3.125 25.0553 3.125 23.3115V4.68848C3.125 2.94469 4.26506 1.125 6.08984 1.125H21.9102Z" fill="#192945"/>
<path d="M21.286 17.714L17.7143 21.2857C17.3198 21.6802 17.3198 22.3198 17.7143 22.7143L21.286 26.286C21.6805 26.6805 22.3201 26.6805 22.7146 26.286L26.2863 22.7143C26.6808 22.3198 26.6808 21.6802 26.2863 21.2857L22.7146 17.714C22.3201 17.3195 21.6805 17.3195 21.286 17.714Z" stroke="#4C65FF" stroke-width="1.75" stroke-linejoin="round"/>
</svg>
