<svg width="20" height="20" viewBox="0 0 20 20" fill="none" xmlns="http://www.w3.org/2000/svg">
<path fill-rule="evenodd" clip-rule="evenodd" d="M18.4111 6.98966L19 3.89356L18.1112 1L12.3878 3.30906L7.61215 3.30936L7.63626 3.3797L7.61215 3.31485L1.88878 1L1 3.88777L1.59964 6.98966L1.21416 7.29638L1.78703 7.75935L1.35872 8.12394L1.91553 8.6795L1.56217 8.95728L2.37597 9.9816L1.14466 14.1078L2.28497 18.3208L6.28408 17.1288L6.28503 17.1308L7.06671 17.8252L8.64613 19L11.3499 19L12.9346 17.8194L13.7056 17.1308L13.7041 17.1236L13.7052 17.1283L13.7056 17.1308L17.7151 18.3208L18.8607 14.1081L17.6241 9.9819L18.4378 8.95728L18.0845 8.6795L18.6466 8.12394L18.2183 7.76514L18.7805 7.30217L18.4057 6.98966L18.4111 6.98966Z" fill="#E78C38"/>
<path d="M8.00551 12.0463L5.28809 10.7718L7.21232 9.35555L8.01285 12.0463H8.00551ZM11.9788 12.0463L12.7867 9.34375L14.7183 10.76L11.9788 12.0581V12.0463Z" fill="white"/>
</svg>
