<svg xmlns="http://www.w3.org/2000/svg" width="29" height="28" viewBox="0 0 29 28" fill="none">
  <path d="M27.9922 14C28.0017 16.1813 27.541 18.2664 26.6543 20.25L26.6533 20.251C25.9857 21.7401 24.8271 23.1603 23.376 23.876C22.6385 24.2395 21.8092 24.4268 20.9395 24.3203C20.0661 24.2133 19.2176 23.8183 18.4346 23.124V23.123C17.7935 22.5547 17.3064 21.862 16.8955 21.1885C16.6892 20.8503 16.4948 20.5039 16.3096 20.1738C16.1217 19.839 15.9437 19.5208 15.7588 19.2148C15.0185 17.9899 14.2949 17.1807 13.0967 16.9619C12.2339 16.8615 11.6406 17.0371 11.1748 17.3242C10.6754 17.6321 10.2583 18.1072 9.82031 18.7109C9.42266 19.2592 8.93637 20.0293 8.43262 20.6084C7.89495 21.2264 7.19649 21.81 6.21777 22.0078L6.2168 22.0068C5.14113 22.2259 4.21286 21.9244 3.4834 21.3203C2.78761 20.744 2.29433 19.9155 1.94336 19.0742C1.24124 17.391 0.980047 15.3364 1.00488 14.0342C1.0051 14.0228 1.00562 14.0114 1.00586 14H2.83984C2.83929 14.0232 2.83833 14.0463 2.83789 14.0693C2.81692 15.1708 3.05108 16.9642 3.63672 18.3682C3.92965 19.0703 4.27855 19.596 4.6543 19.9072C4.99557 20.1897 5.36774 20.3092 5.85254 20.21H5.85449C6.27701 20.1245 6.64483 19.8686 7.04883 19.4043C7.4867 18.9009 7.82021 18.3434 8.33496 17.6338C8.80933 16.9798 9.39793 16.2646 10.2119 15.7627C11.0023 15.2755 11.9502 15.0223 13.1104 15.1201L13.3457 15.1445L13.3691 15.1475L13.3926 15.1514C15.424 15.5086 16.5202 16.9288 17.3281 18.2656C17.5313 18.6018 17.7248 18.9477 17.9092 19.2764C18.0963 19.6098 18.2756 19.928 18.4619 20.2334C18.8361 20.8468 19.2108 21.3604 19.6514 21.751H19.6523C20.196 22.2329 20.7064 22.4441 21.1621 22.5C21.6213 22.5562 22.0933 22.4633 22.5654 22.2305C23.5337 21.7527 24.4349 20.7154 24.9795 19.501C25.7369 17.8065 26.1375 16.0458 26.1572 14.209L26.1553 14H27.9922Z" fill="currentColor"/>
  <path d="M18.5991 4.71973C19.9643 3.5896 21.5088 3.42058 22.8901 3.90527C24.2264 4.37421 25.359 5.43019 26.0962 6.67773L26.3325 7.0957C27.322 8.92929 27.8237 10.9785 27.9556 12.9922H27.9849L27.9946 13.8984C27.995 13.9323 27.9945 13.9662 27.9946 14H26.1577L26.1567 13.9199C26.1314 11.718 25.627 9.48738 24.5171 7.6123V7.61133C23.9502 6.65192 23.128 5.93236 22.2827 5.63574C21.4825 5.35499 20.617 5.42988 19.7681 6.13281V6.13379C19.2554 6.55785 18.8356 7.15059 18.4282 7.87988C18.2259 8.24217 18.035 8.62327 17.8364 9.02246C17.6409 9.41557 17.4362 9.83055 17.2202 10.2314C16.3606 11.8268 15.1489 13.522 12.6841 13.6914H12.6802C10.2083 13.8522 8.89998 12.3799 7.94189 11.1973C7.43814 10.5754 7.06511 10.0808 6.62744 9.70898C6.22867 9.37022 5.8324 9.18652 5.31982 9.18652C4.45736 9.18658 3.87932 9.67711 3.46045 10.6289C3.03716 11.591 2.87057 12.8626 2.84326 14H1.0083C1.03468 12.7566 1.21128 11.186 1.78174 9.88965C2.37061 8.55166 3.46724 7.3526 5.31982 7.35254C6.36947 7.35254 7.17159 7.76499 7.81494 8.31152C8.41918 8.82491 8.9327 9.50504 9.36768 10.042C10.2867 11.1765 11.0662 11.9572 12.5581 11.8613L12.8247 11.833C14.119 11.6439 14.8567 10.75 15.605 9.36133C15.8034 8.99311 15.9927 8.6096 16.1938 8.20508C16.3919 7.80677 16.6014 7.39031 16.8276 6.98535C17.2213 6.28065 17.6921 5.56205 18.3198 4.9668L18.5991 4.71973Z" fill="#4C65FF"/>
</svg>