<svg width="20" height="20" viewBox="0 0 20 20" fill="none" xmlns="http://www.w3.org/2000/svg">
<path d="M17.2184 7.41383L17.608 5.36574C17.627 5.26579 17.6213 5.1627 17.5915 5.06544L16.9007 2.81649C16.8493 2.64917 16.7301 2.51107 16.5721 2.43578C16.4141 2.36049 16.2317 2.3549 16.0694 2.42039L11.7335 4.16967L8.25409 4.16989L3.92903 2.4206C3.76673 2.35495 3.58435 2.36039 3.42625 2.43558C3.26815 2.51078 3.14884 2.64883 3.09734 2.81615L2.40656 5.0606C2.37641 5.15857 2.37081 5.26244 2.39027 5.36308L2.78444 7.40208L2.78122 7.40464C2.63284 7.5227 2.54608 7.70173 2.54536 7.89134C2.54477 8.04553 2.60114 8.19316 2.70152 8.30703C2.67589 8.37184 2.66101 8.44112 2.6582 8.51221C2.6513 8.68666 2.71768 8.85604 2.84126 8.97935L2.84815 8.98623C2.8346 9.02674 2.82513 9.06882 2.82008 9.1119C2.80073 9.27709 2.84802 9.44317 2.95148 9.5734L3.38124 10.1143L2.51744 13.009C2.4842 13.1204 2.48268 13.2388 2.51305 13.351L3.39933 16.6255C3.44335 16.7882 3.55119 16.9261 3.69839 17.0082C3.84559 17.0902 4.01967 17.1093 4.18116 17.0612L6.95514 16.2343L7.30402 16.5442C7.31755 16.5563 7.33159 16.5677 7.34611 16.5785L8.57368 17.4916C8.6815 17.5718 8.81231 17.6151 8.94669 17.6151H11.0481C11.1827 17.6151 11.3136 17.5717 11.4215 17.4913L12.6532 16.5737C12.6681 16.5627 12.6824 16.551 12.6962 16.5386L13.0354 16.2356L15.8175 17.0614C15.9788 17.1093 16.1526 17.0901 16.2995 17.0082C16.4465 16.9263 16.5543 16.7886 16.5984 16.6262L17.4889 13.352C17.5195 13.2393 17.518 13.1204 17.4844 13.0085L16.617 10.1141L17.0465 9.57332C17.1499 9.4431 17.1972 9.27702 17.1778 9.11185C17.1729 9.06987 17.1638 9.02883 17.1508 8.98928L17.1587 8.98146C17.2838 8.85777 17.3511 8.68705 17.3438 8.51124C17.3409 8.4392 17.3255 8.36903 17.2991 8.30353C17.3943 8.19185 17.4479 8.04917 17.4484 7.90012C17.449 7.71403 17.3666 7.53737 17.2236 7.41819L17.2184 7.41383Z" stroke="var(--r-neutral-body, #D3D8E0)" stroke-width="1.25" stroke-linecap="round" stroke-linejoin="round"/>
<path d="M8.81629 11.9561L5.84393 10.562L7.94868 9.01291L8.82432 11.9561H8.81629ZM11.1624 11.9561L12.046 9L14.1588 10.5491L11.1624 11.969V11.9561Z" fill="var(--r-neutral-body, #D3D8E0)"/>
</svg>
