<svg width="40" height="40" viewBox="0 0 40 40" fill="none" xmlns="http://www.w3.org/2000/svg">
<path d="M12.8516 11.4297H27.1373" stroke="#192945" stroke-width="2.5" stroke-linecap="round" stroke-linejoin="round"/>
<path d="M12.8516 20H24.2801" stroke="#192945" stroke-width="2.5" stroke-linecap="round" stroke-linejoin="round"/>
<path d="M31.2969 1.60938C33.9036 1.60938 35.5322 4.20814 35.5322 6.69922V21.6777C34.7664 21.1681 33.9269 20.7609 33.0322 20.4766V6.69922C33.0322 4.96645 31.9736 4.10938 31.2969 4.10938H8.69629C8.01955 4.10938 6.961 4.96645 6.96094 6.69922V33.3047C6.96094 35.0376 8.01953 35.8955 8.69629 35.8955H21.9189C22.6382 36.881 23.5328 37.7292 24.5576 38.3955H8.69629C6.08946 38.3955 4.46094 35.7958 4.46094 33.3047V6.69922C4.46101 4.20814 6.08952 1.60938 8.69629 1.60938H31.2969Z" fill="#192945"/>
<path d="M30.4041 25.3069L25.3017 30.4092C24.7381 30.9728 24.7381 31.8866 25.3017 32.4502L30.4041 37.5525C30.9677 38.1161 31.8814 38.1161 32.445 37.5525L37.5473 32.4502C38.1109 31.8866 38.1109 30.9728 37.5473 30.4092L32.445 25.3069C31.8814 24.7433 30.9677 24.7433 30.4041 25.3069Z" stroke="#4C65FF" stroke-width="2.5" stroke-linejoin="round"/>
</svg>
