<svg width="14" height="14" viewBox="0 0 14 14" fill="none" xmlns="http://www.w3.org/2000/svg">
<g clip-path="url(#clip0_62860_91771)">
<path d="M6.9974 12.8307C8.60821 12.8307 10.0665 12.1778 11.1222 11.1222C12.1778 10.0665 12.8307 8.60821 12.8307 6.9974C12.8307 5.38658 12.1778 3.92825 11.1222 2.87261C10.0665 1.81698 8.60821 1.16406 6.9974 1.16406C5.38658 1.16406 3.92825 1.81698 2.87261 2.87261C1.81698 3.92825 1.16406 5.38658 1.16406 6.9974C1.16406 8.60821 1.81698 10.0665 2.87261 11.1222C3.92825 12.1778 5.38658 12.8307 6.9974 12.8307Z" stroke="#707280" stroke-width="1.16667" stroke-linejoin="round"/>
<path fill-rule="evenodd" clip-rule="evenodd" d="M7.0026 3.21094C7.40531 3.21094 7.73177 3.5374 7.73177 3.9401C7.73177 4.34281 7.40531 4.66927 7.0026 4.66927C6.5999 4.66927 6.27344 4.34281 6.27344 3.9401C6.27344 3.5374 6.5999 3.21094 7.0026 3.21094Z" fill="#707280"/>
<path d="M7.14583 9.91927V5.83594H6.85417H6.5625" stroke="#707280" stroke-width="1.16667" stroke-linecap="round" stroke-linejoin="round"/>
<path d="M6.125 9.91406H8.16667" stroke="#707280" stroke-width="1.16667" stroke-linecap="round" stroke-linejoin="round"/>
</g>
<defs>
<clipPath id="clip0_62860_91771">
<rect width="14" height="14" fill="white"/>
</clipPath>
</defs>
</svg>
