<svg width="24" height="24" viewBox="0 0 24 24" fill="none" xmlns="http://www.w3.org/2000/svg">
<rect width="24" height="24" rx="12" fill="#E5E9EF"/>
<path d="M13.9503 10.6255C13.9503 11.2571 13.2172 11.821 12.1007 12.1593C11.503 12.3397 10.8038 12.4638 10.0482 12.4863C9.92418 12.4976 9.78885 12.4976 9.66479 12.4976C7.30778 12.4976 5.39062 11.6518 5.39062 10.6255C5.39062 9.588 7.30778 8.74219 9.66479 8.74219C9.78885 8.74219 9.92418 8.74219 10.0482 8.75347C10.24 8.75347 10.4204 8.76473 10.6008 8.78729C11.7963 8.90006 12.8112 9.23841 13.3977 9.70079C13.7473 9.98272 13.9503 10.2872 13.9503 10.6255Z" stroke="#707280" stroke-width="1.25" stroke-linecap="round" stroke-linejoin="round"/>
<path d="M13.9503 10.625V13.3203C13.9503 13.997 13.127 14.5947 11.8865 14.9217C11.2437 15.0909 10.4768 15.1924 9.66479 15.1924C7.30778 15.1924 5.39062 14.3579 5.39062 13.3203V10.625C5.39062 11.6513 7.30778 12.4971 9.66479 12.4971C9.78885 12.4971 9.92418 12.4971 10.0482 12.4858C10.8038 12.4632 11.503 12.3392 12.1007 12.1587C13.2172 11.8204 13.9503 11.2565 13.9503 10.625Z" stroke="#707280" stroke-width="1.25" stroke-linecap="round" stroke-linejoin="round"/>
<path d="M13.9503 13.3203V16.1284C13.9503 17.166 12.0331 18.0005 9.66479 18.0005C7.30778 18.0005 5.39062 17.166 5.39062 16.1284V13.3203C5.39062 14.3578 7.30778 15.1924 9.66479 15.1924C10.4768 15.1924 11.2437 15.0909 11.8865 14.9217C13.127 14.5947 13.9503 14.0082 13.9503 13.3203Z" stroke="#707280" stroke-width="1.25" stroke-linecap="round" stroke-linejoin="round"/>
<path d="M5.39062 16.479V16.1406" stroke="#707280" stroke-width="1.25" stroke-linecap="round" stroke-linejoin="round"/>
<path d="M13.9531 16.479V16.1406" stroke="#707280" stroke-width="1.25" stroke-linecap="round" stroke-linejoin="round"/>
<path d="M18.6065 7.87218C18.6065 8.90972 16.6893 9.75553 14.3323 9.75553C14.0166 9.75553 13.7008 9.74425 13.3963 9.71043C12.8099 9.24805 11.7949 8.90973 10.5995 8.79695C10.2499 8.52629 10.0469 8.21051 10.0469 7.87218C10.0469 6.84593 11.9641 6.00011 14.3323 6.00011C16.6893 5.98883 18.6065 6.83465 18.6065 7.87218Z" stroke="#707280" stroke-width="1.25" stroke-linecap="round" stroke-linejoin="round"/>
<path d="M13.9531 15.2436C14.0772 15.2549 14.2125 15.2549 14.3366 15.2549C16.6936 15.2549 18.6107 14.4203 18.6107 13.3828" stroke="#707280" stroke-width="1.25" stroke-linecap="round" stroke-linejoin="round"/>
<path d="M13.9531 12.4389C14.0772 12.4502 14.2125 12.4502 14.3366 12.4502C16.6936 12.4502 18.6107 11.6044 18.6107 10.5781" stroke="#707280" stroke-width="1.25" stroke-linecap="round" stroke-linejoin="round"/>
<path d="M10.0469 8.76593V7.875" stroke="#707280" stroke-width="1.25" stroke-linecap="round" stroke-linejoin="round"/>
<path d="M18.6094 13.728V13.3897V10.5816V7.875" stroke="#707280" stroke-width="1.25" stroke-linecap="round" stroke-linejoin="round"/>
</svg>
