<svg width="12" height="13" viewBox="0 0 12 13" fill="none" xmlns="http://www.w3.org/2000/svg">
<path d="M4.5 2H2C1.72386 2 1.5 2.22386 1.5 2.5V5C1.5 5.27615 1.72386 5.5 2 5.5H4.5C4.77615 5.5 5 5.27615 5 5V2.5C5 2.22386 4.77615 2 4.5 2Z" stroke="currentColor" stroke-linejoin="round"/>
<path d="M4.5 7.51562H2C1.72386 7.51562 1.5 7.73948 1.5 8.01562V10.5156C1.5 10.7918 1.72386 11.0156 2 11.0156H4.5C4.77615 11.0156 5 10.7918 5 10.5156V8.01562C5 7.73948 4.77615 7.51562 4.5 7.51562Z" stroke="currentColor" stroke-linejoin="round"/>
<path d="M8.43033 1.86801L6.84898 3.44936C6.67431 3.62403 6.67431 3.90722 6.84898 4.08189L8.43033 5.66324C8.605 5.83791 8.88819 5.83791 9.06287 5.66324L10.6442 4.08189C10.8189 3.90722 10.8189 3.62403 10.6442 3.44936L9.06287 1.86801C8.8882 1.69334 8.605 1.69334 8.43033 1.86801Z" stroke="currentColor" stroke-linejoin="round"/>
<path d="M9.99719 7.51562H7.49719C7.22104 7.51562 6.99719 7.73948 6.99719 8.01562V10.5156C6.99719 10.7918 7.22104 11.0156 7.49719 11.0156H9.99719C10.2733 11.0156 10.4972 10.7918 10.4972 10.5156V8.01562C10.4972 7.73948 10.2733 7.51562 9.99719 7.51562Z" stroke="currentColor" stroke-linejoin="round"/>
</svg>
