<svg width="28" height="28" viewBox="0 0 28 28" fill="none" xmlns="http://www.w3.org/2000/svg">
<path d="M10.5 3.5H4.66667C4.02233 3.5 3.5 4.02233 3.5 4.66667V10.5C3.5 11.1443 4.02233 11.6667 4.66667 11.6667H10.5C11.1443 11.6667 11.6667 11.1443 11.6667 10.5V4.66667C11.6667 4.02233 11.1443 3.5 10.5 3.5Z" stroke="var(--r-neutral-title-1, rgba(247, 250, 252, 1))" stroke-width="1.75" stroke-linejoin="round"/>
<path d="M10.5 16.3335H4.66667C4.02233 16.3335 3.5 16.8558 3.5 17.5002V23.3335C3.5 23.9778 4.02233 24.5002 4.66667 24.5002H10.5C11.1443 24.5002 11.6667 23.9778 11.6667 23.3335V17.5002C11.6667 16.8558 11.1443 16.3335 10.5 16.3335Z" stroke="var(--r-neutral-title-1, rgba(247, 250, 252, 1))" stroke-width="1.75" stroke-linejoin="round"/>
<path d="M19.5904 2.63375L15.4656 6.75854C15.01 7.21416 15.01 7.95284 15.4656 8.40845L19.5904 12.5332C20.046 12.9889 20.7847 12.9889 21.2403 12.5332L25.3651 8.40845C25.8207 7.95283 25.8207 7.21416 25.3651 6.75854L21.2403 2.63375C20.7847 2.17814 20.046 2.17812 19.5904 2.63375Z" stroke="#8697FF" stroke-width="1.75" stroke-linejoin="round"/>
<path d="M23.332 16.3335H17.4987C16.8543 16.3335 16.332 16.8558 16.332 17.5002V23.3335C16.332 23.9778 16.8543 24.5002 17.4987 24.5002H23.332C23.9764 24.5002 24.4987 23.9778 24.4987 23.3335V17.5002C24.4987 16.8558 23.9764 16.3335 23.332 16.3335Z" stroke="var(--r-neutral-title-1, rgba(247, 250, 252, 1))" stroke-width="1.75" stroke-linejoin="round"/>
</svg>
