<svg width="28" height="28" viewBox="0 0 28 28" fill="none" xmlns="http://www.w3.org/2000/svg">
<path d="M3.52344 4.21251C3.52344 2.92918 4.50489 2.15104 5.78822 2.15104H24.4549C25.7382 2.15104 26.7882 3.20104 26.7882 4.48437V21.651C26.7882 22.9344 25.7382 23.9844 24.4549 23.9844" stroke="#8697FF" stroke-width="1.75" stroke-linecap="round" stroke-linejoin="round"/>
<path d="M21.3359 25.9193H3.66927C2.38594 25.9193 1.33594 24.8693 1.33594 23.5859V7.41927C1.33594 6.13594 2.38594 5.08594 3.66927 5.08594H21.3359C22.6193 5.08594 23.6693 6.13594 23.6693 7.41927V23.5859C23.6693 24.8693 22.6193 25.9193 21.3359 25.9193Z" stroke="var(--r-neutral-title-1, rgba(247, 250, 252, 1))" stroke-width="1.75" stroke-linecap="round" stroke-linejoin="round"/>
<path d="M23.1638 22.8427L17.8889 18.7105L10.3333 19.5737L6.44444 17L2 19.5737" stroke="var(--r-neutral-title-1, rgba(247, 250, 252, 1))" stroke-width="1.75" stroke-linecap="round" stroke-linejoin="round"/>
<path d="M17.5508 9C16.9157 9 16.3067 9.26339 15.8576 9.73223C15.4085 10.2011 15.1563 10.837 15.1562 11.5C15.1563 12.163 15.4085 12.7989 15.8576 13.2678C16.3067 13.7366 16.9157 14 17.5508 14C18.1859 14 18.7949 13.7366 19.244 13.2678C19.693 12.7989 19.9453 12.163 19.9453 11.5C19.9453 10.837 19.693 10.2011 19.244 9.73223C18.7949 9.26339 18.1859 9 17.5508 9Z" stroke="#8697FF" stroke-width="1.5"/>
</svg>
