<svg width="12" height="12" viewBox="0 0 12 12" fill="none" xmlns="http://www.w3.org/2000/svg">
<g clip-path="url(#clip0_115457_40087)">
<path d="M6.00005 10.7992C7.32551 10.7992 8.52551 10.2619 9.39414 9.39328C10.2628 8.52465 10.8 7.32466 10.8 5.99919C10.8 4.67373 10.2628 3.47374 9.39414 2.6051C8.52551 1.73648 7.32551 1.19922 6.00005 1.19922C4.67458 1.19922 3.47459 1.73648 2.60595 2.6051C1.73733 3.47374 1.20007 4.67373 1.20007 5.99919C1.20007 7.32466 1.73733 8.52465 2.60595 9.39328C3.47459 10.2619 4.67458 10.7992 6.00005 10.7992Z" stroke="currentColor" stroke-width="0.75" stroke-linejoin="round"/>
<path d="M6 7.15625V6.15625C6.82842 6.15625 7.5 5.48467 7.5 4.65625C7.5 3.82783 6.82842 3.15625 6 3.15625C5.17158 3.15625 4.5 3.82783 4.5 4.65625" stroke="currentColor" stroke-width="0.75" stroke-linecap="round" stroke-linejoin="round"/>
<path d="M6.5 8.78125C6.5 9.05739 6.27614 9.28125 6 9.28125C5.72386 9.28125 5.5 9.05739 5.5 8.78125C5.5 8.50511 5.72386 8.28125 6 8.28125C6.27614 8.28125 6.5 8.50511 6.5 8.78125Z" fill="currentColor" stroke="currentColor" stroke-width="0.25"/>
</g>
<defs>
<clipPath id="clip0_115457_40087">
<rect width="12" height="12" fill="white"/>
</clipPath>
</defs>
</svg>
