<svg width="32" height="32" viewBox="0 0 32 32" fill="none" xmlns="http://www.w3.org/2000/svg">
<g clip-path="url(#clip0_129235_7557)">
<path fill-rule="evenodd" clip-rule="evenodd" d="M26.0601 2.19137C26.0601 0.966779 24.8831 0 23.4783 0H9.58187C8.13906 0 7 0.999006 7 2.19137V29.8089C7 31.0335 8.17702 32.0004 9.58187 32.0004H23.4783C24.9211 32.0004 26.0601 31.0015 26.0601 29.8089V2.19137ZM24.5471 29.438V2.37709C24.5471 1.90322 24.1348 1.62312 23.6758 1.49675C23.5611 1.46516 23.4081 1.46516 23.2934 1.46516L23.3233 1.46094H21.5973C21.3295 1.46094 21.1383 1.61889 21.1383 1.84003C21.1383 2.28231 20.6794 2.66141 20.1439 2.66141H13.0304C12.4949 2.66141 12.036 2.28231 12.036 1.84003C12.036 1.61889 11.8448 1.46094 11.577 1.46094H9.58731C8.97539 1.52412 8.55469 1.93481 8.55469 2.47186V29.438C8.55469 29.9435 8.97539 30.3543 9.58731 30.4489H23.2851C23.438 30.4489 23.5528 30.4489 23.6675 30.4173C24.2029 30.291 24.5471 29.9118 24.5471 29.438Z" fill="var(--r-neutral-title-1)"/>
<path d="M22.1952 16.7098C22.64 15.7123 20.4408 12.9253 18.3398 11.7642C17.0154 10.8647 15.6355 10.9883 15.356 11.3832C14.7426 12.25 17.387 12.9844 19.1555 13.8414C18.7753 14.0072 18.4171 14.3046 18.2064 14.6849C17.5471 13.9624 16.1 13.3403 14.402 13.8414C13.2578 14.1792 12.3068 14.9754 11.9393 16.178C11.85 16.1381 11.7511 16.116 11.647 16.116C11.2492 16.116 10.9268 16.4397 10.9268 16.839C10.9268 17.2383 11.2492 17.562 11.647 17.562C11.7208 17.562 11.9513 17.5124 11.9513 17.5124L15.6355 17.5392C14.1621 19.8854 12.9977 20.2283 12.9977 20.6348C12.9977 21.0413 14.1118 20.9311 14.5302 20.7796C16.5327 20.0543 18.6836 17.7939 19.0526 17.1432C20.6026 17.3373 21.9051 17.3602 22.1952 16.7098Z" fill="url(#paint0_linear_129235_7557)"/>
<path fill-rule="evenodd" clip-rule="evenodd" d="M19.1551 13.8416C19.1552 13.8416 19.1553 13.8417 19.1554 13.8417C19.2374 13.8093 19.2241 13.6878 19.2016 13.5923C19.1499 13.373 18.2573 12.4882 17.4191 12.0919C16.2768 11.5519 15.4358 11.5798 15.3115 11.8287C15.5442 12.3073 16.6228 12.7567 17.7493 13.226C18.2299 13.4263 18.7192 13.6302 19.1553 13.8415C19.1553 13.8415 19.1552 13.8415 19.1551 13.8416Z" fill="url(#paint1_linear_129235_7557)"/>
<path fill-rule="evenodd" clip-rule="evenodd" d="M17.7054 18.659C17.4744 18.5704 17.2135 18.4891 16.9168 18.4153C17.2331 17.8472 17.2995 17.0061 17.0008 16.4744C16.5815 15.7281 16.0553 15.3309 14.8324 15.3309C14.1598 15.3309 12.3488 15.5583 12.3167 17.0758C12.3133 17.235 12.3166 17.3809 12.3281 17.5151L15.635 17.5392C15.1892 18.2491 14.7717 18.7756 14.4061 19.1759C14.845 19.2888 15.2072 19.3836 15.5397 19.4706C15.8552 19.5532 16.144 19.6287 16.4462 19.7061C16.9022 19.3727 17.3308 19.0091 17.7054 18.659Z" fill="url(#paint2_linear_129235_7557)"/>
<path d="M11.8952 17.3592C12.0303 18.5119 12.683 18.9637 14.0166 19.0974C15.3502 19.2311 16.1152 19.1414 17.1337 19.2344C17.9843 19.3121 18.7438 19.7472 19.0255 19.5968C19.2791 19.4615 19.1372 18.9726 18.7979 18.659C18.3581 18.2524 17.7494 17.9697 16.6783 17.8694C16.8918 17.2827 16.832 16.4602 16.5004 16.0127C16.0211 15.3656 15.1364 15.0731 14.0166 15.2009C12.8467 15.3344 11.7257 15.9126 11.8952 17.3592Z" fill="url(#paint3_linear_129235_7557)"/>
</g>
<defs>
<linearGradient id="paint0_linear_129235_7557" x1="14.2688" y1="15.8264" x2="22.1038" y2="18.0399" gradientUnits="userSpaceOnUse">
<stop stop-color="#4C65FE"/>
<stop offset="1" stop-color="#8F9FFF"/>
</linearGradient>
<linearGradient id="paint1_linear_129235_7557" x1="20.7806" y1="15.677" x2="15.1091" y2="10.0131" gradientUnits="userSpaceOnUse">
<stop stop-color="#4C65FE"/>
<stop offset="1" stop-color="#5156D8" stop-opacity="0"/>
</linearGradient>
<linearGradient id="paint2_linear_129235_7557" x1="17.8626" y1="18.857" x2="12.4249" y2="15.7425" gradientUnits="userSpaceOnUse">
<stop stop-color="#2D46E2"/>
<stop offset="1" stop-color="#8697FF" stop-opacity="0"/>
</linearGradient>
<linearGradient id="paint3_linear_129235_7557" x1="14.7364" y1="15.7678" x2="18.4221" y2="20.4333" gradientUnits="userSpaceOnUse">
<stop stop-color="#4C65FE"/>
<stop offset="1" stop-color="#4C65FE"/>
</linearGradient>
<clipPath id="clip0_129235_7557">
<rect width="32" height="32" fill="white"/>
</clipPath>
</defs>
</svg>
