<svg width="148" height="148" viewBox="0 0 148 148" fill="none" xmlns="http://www.w3.org/2000/svg">
<g clip-path="url(#clip0_133886_2494)">
<rect width="148" height="148" rx="74" fill="#EDF0FF"/>
<path d="M103.384 24.05C109.357 24.0502 114.361 28.7482 114.361 34.6984V168.893C114.361 174.687 109.518 179.541 103.384 179.541H44.301C38.3281 179.541 33.3235 174.843 33.3235 168.893V34.6984C33.3235 28.9047 38.1667 24.05 44.301 24.05H103.384ZM42.8518 29.6008C40.2214 29.9112 38.4134 31.9282 38.4133 34.5666V167.109C38.4133 169.592 40.2214 171.61 42.8518 172.075H103.846C104.503 172.075 104.996 172.075 105.49 171.919C107.791 171.299 109.271 169.436 109.271 167.109V34.1008C109.271 31.773 107.498 30.3974 105.526 29.7766C105.032 29.6213 104.374 29.6213 103.881 29.6213L104.01 29.6008H95.6252C94.4745 29.6009 93.6526 30.3767 93.6526 31.4631C93.6524 33.6357 91.6798 35.4982 89.3782 35.4982H58.7991C56.4974 35.4982 54.5249 33.6357 54.5247 31.4631C54.5247 30.3768 53.7027 29.6009 52.552 29.6008H42.8518Z" fill="#3E495E"/>
<path d="M62.4035 58.0165L60.5691 57.4014L59.9563 55.5519C59.7585 54.9543 58.7754 54.9543 58.5776 55.5519L57.9649 57.4014L56.1304 58.0165C55.8337 58.1161 55.6321 58.3954 55.6321 58.7118C55.6321 59.0282 55.8337 59.3074 56.1304 59.407L57.9649 60.0222L58.5776 61.8716C58.6765 62.1704 58.9538 62.3716 59.266 62.3716C59.5782 62.3716 59.8574 62.1685 59.9544 61.8716L60.5672 60.0222L62.4016 59.407C62.6983 59.3074 62.8999 59.0282 62.8999 58.7118C62.8999 58.3954 62.7002 58.1161 62.4035 58.0165Z" fill="#4C65FF" fill-opacity="0.4"/>
<path d="M89.6209 83.6055L86.3176 82.496L85.2166 79.1675C84.8582 78.0922 83.0929 78.0922 82.7346 79.1675L81.6335 82.496L78.3303 83.6055C77.7967 83.7847 77.4358 84.2881 77.4358 84.8547C77.4358 85.4213 77.7967 85.9247 78.3303 86.1039L81.6335 87.2134L82.7346 90.5419C82.9124 91.0795 83.4146 91.4432 83.9769 91.4432C84.5392 91.4432 85.0387 91.0795 85.2192 90.5419L86.3202 87.2134L89.6235 86.1039C90.157 85.9247 90.5179 85.4213 90.5179 84.8547C90.5179 84.2881 90.157 83.7847 89.6235 83.6055H89.6209Z" fill="#4C65FF" fill-opacity="0.7"/>
<path d="M78.531 65.0225L73.0028 55.9237C72.4059 54.9412 70.9587 55.0077 70.4544 56.0407L66.1174 64.9235C65.9069 65.3546 65.4973 65.6541 65.0226 65.7239L55.613 67.1071C54.4258 67.2816 53.9495 68.7382 54.8042 69.5805L61.6338 76.3111C61.9719 76.6443 62.126 77.1215 62.0467 77.5895L60.4626 86.9293C60.2565 88.1444 61.5612 89.0485 62.6265 88.4288L77.3409 79.8697C77.4041 79.8329 77.4644 79.7914 77.5214 79.7456L90.0776 69.6407C91.07 68.8421 90.6281 67.2439 89.3664 67.0686L79.5731 65.7074C79.1404 65.6473 78.7578 65.3958 78.531 65.0225Z" fill="#4056DD"/>
<rect x="45.325" y="106.375" width="57.35" height="19.425" rx="3.7" fill="#DBE0FF"/>
<path d="M64.1537 120.249C63.4913 120.249 62.9166 120.097 62.4297 119.792C61.9461 119.487 61.5735 119.055 61.3119 118.495C61.0502 117.936 60.9194 117.27 60.9194 116.498V116.488C60.9194 115.713 61.0502 115.046 61.3119 114.486C61.5735 113.926 61.9461 113.494 62.4297 113.189C62.9133 112.884 63.488 112.732 64.1537 112.732C64.6803 112.732 65.1556 112.836 65.5796 113.045C66.0069 113.25 66.3563 113.535 66.6279 113.9C66.9028 114.264 67.0701 114.683 67.1297 115.157V115.186H66.0218L66.0168 115.167C65.9506 114.872 65.8297 114.617 65.6541 114.401C65.4786 114.186 65.2633 114.019 65.0082 113.9C64.7532 113.78 64.4684 113.721 64.1537 113.721C63.7264 113.721 63.3555 113.833 63.0408 114.059C62.7295 114.284 62.4877 114.603 62.3154 115.018C62.1465 115.428 62.0621 115.918 62.0621 116.488V116.498C62.0621 117.061 62.1465 117.55 62.3154 117.964C62.4877 118.378 62.7295 118.697 63.0408 118.923C63.3555 119.148 63.7281 119.26 64.1587 119.26C64.4733 119.26 64.7582 119.207 65.0132 119.101C65.2716 118.995 65.4868 118.845 65.6591 118.649C65.8313 118.451 65.9489 118.217 66.0118 117.949L66.0218 117.929H67.1347L67.1297 117.954C67.0601 118.414 66.8912 118.817 66.6229 119.161C66.3546 119.506 66.0102 119.774 65.5895 119.966C65.1689 120.155 64.6903 120.249 64.1537 120.249ZM68.5208 120.075V112.563H69.5989V120.075H68.5208ZM72.6842 120.165C72.3431 120.165 72.0367 120.1 71.7651 119.971C71.4968 119.838 71.2848 119.651 71.1291 119.409C70.9735 119.168 70.8956 118.884 70.8956 118.56V118.55C70.8956 118.225 70.9735 117.949 71.1291 117.72C71.2881 117.492 71.5167 117.313 71.8148 117.184C72.1162 117.051 72.4805 116.972 72.9078 116.945L74.9 116.826V117.586L73.0568 117.705C72.6859 117.729 72.4126 117.808 72.2371 117.944C72.0615 118.076 71.9737 118.263 71.9737 118.505V118.515C71.9737 118.76 72.0681 118.954 72.2569 119.096C72.4457 119.236 72.6842 119.305 72.9724 119.305C73.2406 119.305 73.4791 119.252 73.6878 119.146C73.8998 119.037 74.0654 118.891 74.1846 118.709C74.3039 118.523 74.3635 118.315 74.3635 118.083V116.384C74.3635 116.086 74.2707 115.859 74.0853 115.703C73.9031 115.544 73.6315 115.465 73.2705 115.465C72.9691 115.465 72.7223 115.518 72.5302 115.624C72.3414 115.73 72.2155 115.879 72.1526 116.071L72.1427 116.086H71.1043L71.1093 116.051C71.1523 115.753 71.2699 115.494 71.462 115.276C71.6574 115.054 71.9125 114.882 72.2271 114.759C72.5451 114.637 72.9078 114.575 73.3152 114.575C73.7689 114.575 74.1532 114.648 74.4678 114.794C74.7858 114.936 75.0259 115.143 75.1882 115.415C75.3538 115.683 75.4366 116.006 75.4366 116.384V120.075H74.3635V119.31H74.284C74.178 119.492 74.0455 119.648 73.8865 119.777C73.7275 119.903 73.547 119.999 73.345 120.065C73.1429 120.132 72.9227 120.165 72.6842 120.165ZM76.9718 120.075V114.68H78.0549V120.075H76.9718ZM77.5183 113.716C77.3328 113.716 77.1739 113.65 77.0414 113.517C76.9089 113.385 76.8426 113.226 76.8426 113.04C76.8426 112.855 76.9089 112.697 77.0414 112.568C77.1739 112.436 77.3328 112.369 77.5183 112.369C77.7038 112.369 77.8628 112.436 77.9953 112.568C78.1278 112.697 78.194 112.855 78.194 113.04C78.194 113.226 78.1278 113.385 77.9953 113.517C77.8628 113.65 77.7038 113.716 77.5183 113.716ZM79.6199 120.075V114.68H80.698V115.509H80.7825C80.9017 115.211 81.0872 114.981 81.3389 114.819C81.594 114.656 81.8987 114.575 82.2531 114.575C82.4982 114.575 82.7184 114.615 82.9139 114.695C83.1093 114.774 83.2765 114.887 83.4156 115.032C83.5581 115.175 83.669 115.344 83.7485 115.539H83.833C83.9224 115.344 84.0483 115.175 84.2106 115.032C84.3729 114.887 84.5617 114.774 84.777 114.695C84.9956 114.615 85.2274 114.575 85.4725 114.575C85.8368 114.575 86.1482 114.647 86.4065 114.789C86.6649 114.928 86.862 115.13 86.9978 115.395C87.1336 115.66 87.2015 115.98 87.2015 116.354V120.075H86.1234V116.612C86.1234 116.364 86.0853 116.159 86.0091 115.996C85.9329 115.831 85.817 115.706 85.6613 115.624C85.5089 115.541 85.3168 115.499 85.085 115.499C84.8564 115.499 84.6561 115.552 84.4838 115.658C84.3149 115.761 84.1824 115.9 84.0864 116.076C83.9936 116.248 83.9473 116.443 83.9473 116.662V120.075H82.8691V116.503C82.8691 116.298 82.8261 116.12 82.74 115.971C82.6572 115.819 82.5379 115.703 82.3823 115.624C82.2266 115.541 82.0428 115.499 81.8308 115.499C81.6155 115.499 81.4217 115.556 81.2495 115.668C81.0806 115.781 80.9464 115.933 80.8471 116.125C80.7477 116.314 80.698 116.526 80.698 116.761V120.075H79.6199Z" fill="#4C65FF"/>
<path d="M81.3448 32.8769H69.8925C68.724 32.8769 68.2566 31.7067 68.2566 31.2385C68.2566 30.0683 69.4251 29.6002 69.8925 29.6002H81.3448C82.2797 29.6002 82.9807 30.7704 82.9807 31.2385C82.9807 32.4088 82.2797 32.8769 81.3448 32.8769Z" fill="#4E6781"/>
<path d="M63.3123 32.8769H62.8449C61.6764 32.8769 61.209 31.7067 61.209 31.2385C61.209 30.0683 62.3775 29.6002 62.8449 29.6002H63.3123C64.481 29.6002 64.9484 30.7704 64.9484 31.2385C64.9484 32.4088 64.2474 32.8769 63.3123 32.8769Z" fill="#4E6781"/>
</g>
<defs>
<clipPath id="clip0_133886_2494">
<rect width="148" height="148" rx="74" fill="white"/>
</clipPath>
</defs>
</svg>
