<svg width="20" height="20" viewBox="0 0 20 20" fill="none" xmlns="http://www.w3.org/2000/svg">
<g clip-path="url(#clip0_104392_37042)">
<path fill-rule="evenodd" clip-rule="evenodd" d="M17.374 1.42773C17.374 1.15159 17.1502 0.927734 16.874 0.927734C16.5979 0.927734 16.374 1.15159 16.374 1.42773L16.374 2.79672H14.999C14.7229 2.79672 14.499 3.02058 14.499 3.29672C14.499 3.57287 14.7229 3.79672 14.999 3.79672H16.374L16.374 5.17773C16.374 5.45388 16.5979 5.67773 16.874 5.67773C17.1502 5.67773 17.374 5.45388 17.374 5.17773V3.79672H18.749C19.0252 3.79672 19.249 3.57287 19.249 3.29672C19.249 3.02058 19.0252 2.79672 18.749 2.79672H17.374V1.42773Z" fill="var(--r-neutral-body, #D3D8E0)"/>
<path fill-rule="evenodd" clip-rule="evenodd" d="M2.16113 15.002C2.16113 14.7948 1.99324 14.627 1.78613 14.627C1.57903 14.627 1.41113 14.7948 1.41113 15.002V15.6992H0.714844C0.507737 15.6992 0.339844 15.8671 0.339844 16.0742C0.339844 16.2813 0.507737 16.4492 0.714844 16.4492H1.41113V17.1448C1.41113 17.3519 1.57903 17.5198 1.78613 17.5198C1.99324 17.5198 2.16113 17.3519 2.16113 17.1448V16.4492H2.8577C3.06481 16.4492 3.2327 16.2813 3.2327 16.0742C3.2327 15.8671 3.06481 15.6992 2.8577 15.6992H2.16113V15.002Z" fill="var(--r-neutral-body, #D3D8E0)"/>
<path d="M9.60741 1.89671C9.75725 1.55446 10.2428 1.55446 10.3926 1.89671L12.5418 6.80556C12.6053 6.95073 12.7438 7.04897 12.9018 7.06101L18.4393 7.48275C18.8254 7.51216 18.9776 7.99805 18.6772 8.24249L14.4914 11.6489C14.3623 11.7539 14.3057 11.9242 14.3462 12.0856L15.6307 17.2012C15.723 17.5688 15.3277 17.8664 14.9999 17.6762L10.2151 14.8998C10.0821 14.8226 9.91792 14.8226 9.78491 14.8998L5.00011 17.6762C4.67229 17.8664 4.27705 17.5688 4.36935 17.2012L5.65381 12.0856C5.69434 11.9242 5.63775 11.7539 5.50865 11.6489L1.32278 8.24249C1.0224 7.99805 1.17458 7.51216 1.56074 7.48275L7.0982 7.06101C7.25621 7.04897 7.39469 6.95073 7.45824 6.80556L9.60741 1.89671Z" stroke="var(--r-neutral-body, #D3D8E0)" stroke-width="1.25"/>
</g>
<defs>
<clipPath id="clip0_104392_37042">
<rect width="20" height="20" fill="white"/>
</clipPath>
</defs>
</svg>
