<svg width="32" height="32" viewBox="0 0 32 32" fill="none" xmlns="http://www.w3.org/2000/svg">
<g clip-path="url(#clip0_118611_51655)">
<path fill-rule="evenodd" clip-rule="evenodd" d="M25.0601 2.19137C25.0601 0.966779 23.8831 0 22.4783 0H8.58187C7.13906 0 6 0.999006 6 2.19137V29.8089C6 31.0335 7.17702 32.0004 8.58187 32.0004H22.4783C23.9211 32.0004 25.0601 31.0015 25.0601 29.8089V2.19137ZM23.5471 29.438V2.37709C23.5471 1.90322 23.1348 1.62312 22.6758 1.49675C22.5611 1.46516 22.4081 1.46516 22.2934 1.46516L22.3233 1.46094H20.5973C20.3295 1.46094 20.1383 1.61889 20.1383 1.84003C20.1383 2.28231 19.6794 2.66141 19.1439 2.66141H12.0304C11.4949 2.66141 11.036 2.28231 11.036 1.84003C11.036 1.61889 10.8448 1.46094 10.577 1.46094H8.58731C7.97539 1.52412 7.55469 1.93481 7.55469 2.47186V29.438C7.55469 29.9435 7.97539 30.3543 8.58731 30.4489H22.2851C22.438 30.4489 22.5528 30.4489 22.6675 30.4173C23.2029 30.291 23.5471 29.9118 23.5471 29.438Z" fill="currentColor"/>
<path d="M21.8988 16.3693C22.4024 15.2401 19.9128 12.0851 17.5344 10.7707C16.0352 9.75242 14.473 9.89232 14.1566 10.3394C13.4623 11.3206 16.4558 12.152 18.4578 13.1222C18.0274 13.3098 17.6219 13.6465 17.3834 14.0771C16.6371 13.2592 14.9989 12.5549 13.0767 13.1222C11.7814 13.5045 10.7048 14.4059 10.2888 15.7673C10.1877 15.7222 10.0757 15.6971 9.95797 15.6971C9.50764 15.6971 9.14258 16.0636 9.14258 16.5156C9.14258 16.9676 9.50764 17.3341 9.95797 17.3341C10.0414 17.3341 10.3024 17.2779 10.3024 17.2779L14.473 17.3082C12.8051 19.9642 11.487 20.3524 11.487 20.8126C11.487 21.2727 12.7482 21.148 13.2218 20.9765C15.4887 20.1554 17.9236 17.5965 18.3414 16.8599C20.0959 17.0797 21.5705 17.1056 21.8988 16.3693Z" fill="url(#paint0_linear_118611_51655)"/>
<path fill-rule="evenodd" clip-rule="evenodd" d="M18.4564 13.1204C18.4567 13.1206 18.457 13.1207 18.4572 13.1208C18.55 13.0841 18.535 12.9465 18.5095 12.8385C18.451 12.5902 17.4405 11.5886 16.4916 11.14C15.1991 10.5289 14.2472 10.5602 14.106 10.8416C14.3686 11.3838 15.5901 11.8927 16.866 12.4243C17.4096 12.6508 17.9631 12.8814 18.4564 13.1204Z" fill="url(#paint1_linear_118611_51655)"/>
<path fill-rule="evenodd" clip-rule="evenodd" d="M16.816 18.5839C16.5545 18.4836 16.2591 18.3915 15.9233 18.308C16.2813 17.6649 16.3565 16.7128 16.0183 16.1108C15.5437 15.2661 14.948 14.8164 13.5636 14.8164C12.8022 14.8164 10.7522 15.0738 10.7158 16.7916C10.712 16.9716 10.7157 17.1366 10.7286 17.2883L14.473 17.3155C13.968 18.1196 13.4952 18.7158 13.0812 19.1691C13.578 19.2969 13.9879 19.4042 14.3643 19.5027C14.7214 19.5961 15.0483 19.6817 15.3905 19.7693C15.9067 19.3918 16.3919 18.9803 16.816 18.5839Z" fill="url(#paint2_linear_118611_51655)"/>
<path d="M10.2388 17.1005C10.3918 18.4055 11.1306 18.9169 12.6403 19.0682C14.15 19.2195 15.016 19.118 16.1689 19.2233C17.1319 19.3112 17.9916 19.8038 18.3106 19.6336C18.5977 19.4804 18.4371 18.927 18.053 18.5719C17.5551 18.1116 16.866 17.7916 15.6535 17.6781C15.8951 17.0139 15.8274 16.0828 15.4521 15.5762C14.9095 14.8437 13.9079 14.5125 12.6403 14.6572C11.3159 14.8084 10.0469 15.4629 10.2388 17.1005Z" fill="url(#paint3_linear_118611_51655)"/>
</g>
<defs>
<linearGradient id="paint0_linear_118611_51655" x1="12.9259" y1="15.3693" x2="21.7954" y2="17.8751" gradientUnits="userSpaceOnUse">
<stop stop-color="#8697FF"/>
<stop offset="1" stop-color="#ABB7FF"/>
</linearGradient>
<linearGradient id="paint1_linear_118611_51655" x1="20.2972" y1="15.1985" x2="13.8768" y2="8.78663" gradientUnits="userSpaceOnUse">
<stop stop-color="#8697FF"/>
<stop offset="1" stop-color="#5156D8" stop-opacity="0"/>
</linearGradient>
<linearGradient id="paint2_linear_118611_51655" x1="16.994" y1="18.808" x2="10.8383" y2="15.2822" gradientUnits="userSpaceOnUse">
<stop stop-color="#465EED"/>
<stop offset="1" stop-color="#8697FF" stop-opacity="0"/>
</linearGradient>
<linearGradient id="paint3_linear_118611_51655" x1="13.4551" y1="15.299" x2="17.6275" y2="20.5805" gradientUnits="userSpaceOnUse">
<stop stop-color="#8898FF"/>
<stop offset="0.983895" stop-color="#6277F1"/>
</linearGradient>
<clipPath id="clip0_118611_51655">
<rect width="32" height="32" fill="white"/>
</clipPath>
</defs>
</svg>
