<svg width="20" height="20" viewBox="0 0 20 20" fill="none" xmlns="http://www.w3.org/2000/svg">
<g opacity="0.6">
<path d="M5.32519 9.61776C5.32506 9.5283 5.34263 9.4397 5.37689 9.35706C5.41115 9.27443 5.46143 9.19939 5.52483 9.13627C5.58822 9.07316 5.66348 9.02321 5.74627 8.98931C5.82906 8.95541 5.91773 8.93823 6.00719 8.93876L7.13719 8.94276C7.22636 8.94289 7.31463 8.96058 7.39696 8.99483C7.47929 9.02907 7.55406 9.0792 7.61702 9.14234C7.67998 9.20548 7.72989 9.28041 7.76389 9.36284C7.79789 9.44527 7.81532 9.53359 7.81519 9.62276V13.8938C7.97075 13.8496 8.12748 13.8095 8.28519 13.7738C8.40896 13.7443 8.5192 13.674 8.59812 13.5742C8.67705 13.4745 8.72005 13.351 8.72019 13.2238V7.92376C8.72045 7.74358 8.79221 7.57088 8.91971 7.44357C9.04721 7.31626 9.22002 7.24476 9.40019 7.24476H10.5312C10.7115 7.24476 10.8845 7.3164 11.012 7.44392C11.1395 7.57145 11.2112 7.74441 11.2112 7.92476V12.8428C11.2112 12.8428 11.4932 12.7278 11.7692 12.6118C11.8719 12.5685 11.9597 12.4959 12.0214 12.4031C12.0831 12.3102 12.1161 12.2012 12.1162 12.0898V6.22576C12.1159 6.13655 12.1333 6.04817 12.1672 5.96568C12.2012 5.8832 12.2511 5.80822 12.3141 5.74505C12.377 5.68188 12.4519 5.63176 12.5343 5.59756C12.6167 5.56336 12.705 5.54576 12.7942 5.54576H13.9262C14.1065 5.54576 14.2795 5.6174 14.407 5.74493C14.5345 5.87245 14.6062 6.04541 14.6062 6.22576V11.0548C15.5862 10.3428 16.5812 9.48776 17.3702 8.45876C17.4846 8.30944 17.5602 8.13415 17.5904 7.9485C17.6206 7.76285 17.6044 7.57262 17.5432 7.39476C17.0094 5.83851 16.0081 4.48506 14.6761 3.51941C13.344 2.55377 11.7463 2.02303 10.1012 1.99976C5.66619 1.93976 2.00019 5.56276 2.00119 9.99976C1.99647 11.4039 2.36246 12.7844 3.06219 14.0018C3.15873 14.1683 3.30084 14.3039 3.47179 14.3925C3.64274 14.481 3.83542 14.519 4.02719 14.5018C4.24119 14.4828 4.50719 14.4558 4.82419 14.4188C4.96209 14.4031 5.08943 14.3372 5.18198 14.2338C5.27453 14.1304 5.32585 13.9966 5.32619 13.8578V9.61776" fill="white"/>
<path d="M5.3011 16.4696C6.53172 17.3645 7.99215 17.8896 9.51084 17.9833C11.0295 18.077 12.5434 17.7354 13.8747 16.9985C15.206 16.2617 16.2994 15.1603 17.0264 13.8236C17.7534 12.487 18.0839 10.9706 17.9791 9.45264C15.0581 13.8106 9.6641 15.8486 5.3011 16.4696Z" fill="white"/>
</g>
</svg>
