<svg xmlns="http://www.w3.org/2000/svg" width="20" height="20" viewBox="0 0 20 20" fill="none">
  <path d="M7.71352 18C6.37308 17.5848 5.17992 16.814 4.23515 15.7926C4.5876 15.3581 4.8 14.7966 4.8 14.1835C4.8 12.8045 3.72548 11.6866 2.4 11.6866C2.31982 11.6866 2.24056 11.6907 2.1624 11.6987C2.05592 11.1571 2 10.5964 2 10.022C2 9.15201 2.12831 8.31319 2.36632 7.52489C2.37752 7.52505 2.38875 7.52514 2.4 7.52514C3.72548 7.52514 4.8 6.40725 4.8 5.02827C4.8 4.63239 4.71144 4.25807 4.55384 3.92549C5.479 3.03052 6.6082 2.36075 7.86084 2C8.25776 2.80942 9.06668 3.3637 10 3.3637C10.9333 3.3637 11.7422 2.80942 12.1392 2C13.3918 2.36075 14.521 3.03052 15.4462 3.92549C15.2886 4.25807 15.2 4.63239 15.2 5.02827C15.2 6.40725 16.2745 7.52514 17.6 7.52514C17.6112 7.52514 17.6225 7.52505 17.6337 7.52489C17.8717 8.31319 18 9.15201 18 10.022C18 10.5964 17.9441 11.1571 17.8376 11.6987C17.7594 11.6907 17.6802 11.6866 17.6 11.6866C16.2745 11.6866 15.2 12.8045 15.2 14.1835C15.2 14.7966 15.4124 15.3581 15.7648 15.7926C14.8201 16.814 13.6269 17.5848 12.2865 18C11.9771 16.9932 11.0704 16.2642 10 16.2642C8.9296 16.2642 8.02288 16.9932 7.71352 18Z" stroke="currentColor" stroke-width="1.25" stroke-linejoin="round"/>
  <path d="M10 13C11.6569 13 13 11.6569 13 10C13 8.34314 11.6569 7 10 7C8.34314 7 7 8.34314 7 10C7 11.6569 8.34314 13 10 13Z" stroke="currentColor" stroke-width="1.25" stroke-linejoin="round"/>
</svg>