<svg xmlns="http://www.w3.org/2000/svg" width="20" height="20" viewBox="0 0 20 20" fill="none">
<path d="M7.71352 16.9609C6.37308 16.5717 5.17992 15.8491 4.23515 14.8915C4.5876 14.4841 4.8 13.9577 4.8 13.3829C4.8 12.0901 3.72548 11.0421 2.4 11.0421C2.31982 11.0421 2.24056 11.046 2.1624 11.0535C2.05592 10.5457 2 10.02 2 9.48157C2 8.66595 2.12831 7.87955 2.36632 7.14052C2.37752 7.14068 2.38875 7.14075 2.4 7.14075C3.72548 7.14075 4.8 6.09273 4.8 4.79994C4.8 4.4288 4.71144 4.07788 4.55384 3.76608C5.479 2.92705 6.6082 2.29914 7.86084 1.96094C8.25776 2.71977 9.06668 3.23941 10 3.23941C10.9333 3.23941 11.7422 2.71977 12.1392 1.96094C13.3918 2.29914 14.521 2.92705 15.4462 3.76608C15.2886 4.07788 15.2 4.4288 15.2 4.79994C15.2 6.09273 16.2745 7.14075 17.6 7.14075C17.6112 7.14075 17.6225 7.14068 17.6337 7.14052C17.8717 7.87955 18 8.66595 18 9.48157C18 10.02 17.9441 10.5457 17.8376 11.0535C17.7594 11.046 17.6802 11.0421 17.6 11.0421C16.2745 11.0421 15.2 12.0901 15.2 13.3829C15.2 13.9577 15.4124 14.4841 15.7648 14.8915C14.8201 15.8491 13.6269 16.5717 12.2865 16.9609C11.9771 16.0171 11.0704 15.3336 10 15.3336C8.9296 15.3336 8.02288 16.0171 7.71352 16.9609Z" stroke="currentColor" stroke-width="1.25" stroke-linejoin="round"/>
<path d="M10 11.9609C11.6569 11.9609 13 10.8417 13 9.46094C13 8.08022 11.6569 6.96094 10 6.96094C8.34314 6.96094 7 8.08022 7 9.46094C7 10.8417 8.34314 11.9609 10 11.9609Z" stroke="currentColor" stroke-width="1.25" stroke-linejoin="round"/>
</svg>