<svg width="119" height="67" viewBox="0 0 119 67" fill="none" xmlns="http://www.w3.org/2000/svg">
<rect x="23.5703" y="23.3594" width="70.8915" height="19.0862" rx="2.35632" fill="var(--r-neutral-card-2, #F5F6FA)"/>
<path d="M34.9546 34.2345V35.257H29.3629L29.3203 34.4848L32.6647 29.2446H33.6925L32.5794 31.1511L30.657 34.2345H34.9546ZM33.9853 29.2446V36.9984H32.7019V29.2446H33.9853Z" fill="#9BE1C4"/>
<path d="M41.0095 35.9759V36.9984H35.812V36.1197L38.3362 33.3665C38.6131 33.0541 38.8314 32.7843 38.9912 32.557C39.151 32.3298 39.2628 32.1257 39.3267 31.9446C39.3942 31.76 39.4279 31.5807 39.4279 31.4068C39.4279 31.1618 39.3817 30.947 39.2894 30.7624C39.2007 30.5742 39.0693 30.4269 38.8954 30.3204C38.7214 30.2103 38.5101 30.1553 38.2616 30.1553C37.9741 30.1553 37.7326 30.2174 37.5374 30.3417C37.3421 30.4659 37.1948 30.6381 37.0954 30.8582C36.996 31.0748 36.9463 31.3233 36.9463 31.6038H35.6628C35.6628 31.1529 35.7658 30.7411 35.9717 30.3683C36.1776 29.992 36.4759 29.6938 36.8664 29.4736C37.2569 29.25 37.7273 29.1381 38.2776 29.1381C38.7959 29.1381 39.2362 29.2251 39.5983 29.3991C39.9604 29.573 40.2356 29.8198 40.4237 30.1393C40.6154 30.4588 40.7113 30.8369 40.7113 31.2736C40.7113 31.515 40.6723 31.7547 40.5941 31.9925C40.516 32.2304 40.4042 32.4683 40.2586 32.7061C40.1166 32.9405 39.948 33.1766 39.7527 33.4144C39.5575 33.6487 39.3427 33.8866 39.1084 34.128L37.4309 35.9759H41.0095Z" fill="#9BE1C4"/>
<path d="M41.9574 31.1458V30.7358C41.9574 30.4411 42.0214 30.173 42.1492 29.9316C42.277 29.6902 42.4634 29.4967 42.7083 29.3512C42.9533 29.2056 43.248 29.1328 43.5923 29.1328C43.9474 29.1328 44.2456 29.2056 44.487 29.3512C44.732 29.4967 44.9184 29.6902 45.0462 29.9316C45.174 30.173 45.2379 30.4411 45.2379 30.7358V31.1458C45.2379 31.4334 45.174 31.6979 45.0462 31.9393C44.9219 32.1807 44.7373 32.3742 44.4923 32.5198C44.2509 32.6653 43.9545 32.7381 43.603 32.7381C43.2551 32.7381 42.9568 32.6653 42.7083 32.5198C42.4634 32.3742 42.277 32.1807 42.1492 31.9393C42.0214 31.6979 41.9574 31.4334 41.9574 31.1458ZM42.8468 30.7358V31.1458C42.8468 31.2878 42.8734 31.4227 42.9267 31.5505C42.9835 31.6783 43.0687 31.7813 43.1823 31.8594C43.2959 31.9375 43.4361 31.9766 43.603 31.9766C43.7734 31.9766 43.9119 31.9375 44.0184 31.8594C44.1284 31.7813 44.2101 31.6783 44.2633 31.5505C44.3166 31.4227 44.3432 31.2878 44.3432 31.1458V30.7358C44.3432 30.5902 44.3148 30.4535 44.258 30.3257C44.2048 30.1943 44.1231 30.0896 44.013 30.0115C43.903 29.9334 43.7628 29.8943 43.5923 29.8943C43.429 29.8943 43.2906 29.9334 43.177 30.0115C43.0669 30.0896 42.9835 30.1943 42.9267 30.3257C42.8734 30.4535 42.8468 30.5902 42.8468 30.7358ZM45.6959 35.5126V35.0972C45.6959 34.8061 45.7598 34.5399 45.8876 34.2984C46.0189 34.057 46.2071 33.8635 46.4521 33.718C46.697 33.5724 46.9917 33.4996 47.3361 33.4996C47.6911 33.4996 47.9893 33.5724 48.2307 33.718C48.4757 33.8635 48.6603 34.057 48.7846 34.2984C48.9124 34.5399 48.9763 34.8061 48.9763 35.0972V35.5126C48.9763 35.8037 48.9124 36.07 48.7846 36.3114C48.6603 36.5528 48.4775 36.7463 48.2361 36.8919C47.9947 37.0375 47.7 37.1102 47.3521 37.1102C47.0006 37.1102 46.7006 37.0375 46.4521 36.8919C46.2071 36.7463 46.0189 36.5528 45.8876 36.3114C45.7598 36.07 45.6959 35.8037 45.6959 35.5126ZM46.5905 35.0972V35.5126C46.5905 35.6546 46.6189 35.7895 46.6757 35.9174C46.7361 36.0452 46.8231 36.1499 46.9367 36.2315C47.0503 36.3097 47.187 36.3487 47.3467 36.3487C47.5278 36.3487 47.6734 36.3097 47.7834 36.2315C47.8935 36.1499 47.9716 36.0469 48.0177 35.9227C48.0674 35.7949 48.0923 35.6582 48.0923 35.5126V35.0972C48.0923 34.9517 48.0639 34.815 48.0071 34.6872C47.9538 34.5594 47.8704 34.4564 47.7568 34.3783C47.6467 34.3002 47.5065 34.2612 47.3361 34.2612C47.1692 34.2612 47.0308 34.3002 46.9207 34.3783C46.8106 34.4564 46.7272 34.5594 46.6704 34.6872C46.6172 34.815 46.5905 34.9517 46.5905 35.0972ZM47.6556 30.3523L43.8693 36.4126L43.2142 36.0345L47.0006 29.9742L47.6556 30.3523Z" fill="#9BE1C4"/>
<circle cx="8.25492" cy="32.9893" r="8.24711" fill="var(--r-neutral-card-2, #F5F6FA)"/>
<path d="M7.95716 30.6923L6.24117 32.4083L5.24268 31.4098L7.95716 28.6953L10.6725 31.4107L9.67403 32.4092L7.95716 30.6923Z" fill="#B4BDCC"/>
<path d="M4.53756 34.1119L3.53906 33.1134L4.53756 32.1149L5.53604 33.1134L4.53756 34.1119Z" fill="#B4BDCC"/>
<path d="M5.24136 34.8157L6.24117 33.8185L7.95716 35.5345L9.67403 33.8172L10.6725 34.8161L7.95716 37.5315L5.24268 34.817L5.24136 34.8157Z" fill="#B4BDCC"/>
<path d="M11.3768 34.1119L10.3783 33.1134L11.3768 32.1149L12.3753 33.1134L11.3768 34.1119Z" fill="#B4BDCC"/>
<path d="M7.95716 32.0999L8.96978 33.1125L8.97067 33.1134L7.95672 34.1269L6.94497 33.1147L6.9432 33.1134L6.94497 33.1121L7.12214 32.9345L7.95716 32.0999Z" fill="#B4BDCC"/>
<rect x="23.5703" y="47.0391" width="55.8952" height="19.0862" rx="2.35632" fill="var(--r-neutral-card-2, #F5F6FA)"/>
<path d="M31.1228 56.2207H31.8897C32.1879 56.2207 32.4346 56.1693 32.6299 56.0663C32.8287 55.9634 32.976 55.8213 33.0719 55.6403C33.1678 55.4592 33.2157 55.2515 33.2157 55.0172C33.2157 54.7722 33.1713 54.5628 33.0825 54.3888C32.9973 54.2113 32.866 54.0746 32.6885 53.9788C32.5145 53.8829 32.2926 53.835 32.0228 53.835C31.7956 53.835 31.5897 53.8811 31.4051 53.9734C31.224 54.0622 31.0802 54.19 30.9737 54.3569C30.8672 54.5202 30.8139 54.7154 30.8139 54.9427H29.5252C29.5252 54.5308 29.6335 54.1651 29.85 53.8456C30.0666 53.5261 30.3613 53.2758 30.7341 53.0947C31.1104 52.9101 31.5329 52.8178 32.0015 52.8178C32.5021 52.8178 32.9388 52.9013 33.3115 53.0681C33.6879 53.2314 33.9808 53.4764 34.1902 53.803C34.3997 54.1296 34.5044 54.5344 34.5044 55.0172C34.5044 55.2373 34.4529 55.461 34.35 55.6882C34.247 55.9154 34.0944 56.1231 33.892 56.3113C33.6896 56.4959 33.4376 56.6468 33.1358 56.7639C32.834 56.8775 32.4843 56.9343 32.0867 56.9343H31.1228V56.2207ZM31.1228 57.2219V56.519H32.0867C32.5411 56.519 32.9281 56.5722 33.2476 56.6787C33.5707 56.7852 33.8334 56.9326 34.0358 57.1207C34.2382 57.3053 34.3855 57.5166 34.4778 57.7545C34.5737 57.9923 34.6216 58.2444 34.6216 58.5107C34.6216 58.8728 34.5559 59.1959 34.4245 59.4799C34.2967 59.7604 34.1139 59.9982 33.876 60.1935C33.6382 60.3887 33.3595 60.5361 33.0399 60.6355C32.724 60.7349 32.3796 60.7846 32.0068 60.7846C31.6731 60.7846 31.3536 60.7384 31.0483 60.6461C30.7429 60.5538 30.4696 60.4171 30.2281 60.2361C29.9867 60.0515 29.795 59.8225 29.653 59.5491C29.5145 59.2722 29.4453 58.9527 29.4453 58.5905H30.7287C30.7287 58.8213 30.782 59.0254 30.8885 59.203C30.9985 59.3769 31.1512 59.5136 31.3465 59.613C31.5453 59.7124 31.7725 59.7621 32.0281 59.7621C32.2979 59.7621 32.5305 59.7142 32.7257 59.6183C32.921 59.5225 33.0701 59.3805 33.1731 59.1923C33.2796 59.0041 33.3328 58.7769 33.3328 58.5107C33.3328 58.2089 33.2743 57.9639 33.1571 57.7758C33.0399 57.5876 32.8731 57.4491 32.6565 57.3604C32.44 57.2681 32.1843 57.2219 31.8897 57.2219H31.1228Z" fill="#E19B9B"/>
<path d="M39.6913 52.8764H39.8511V53.9255H39.7606C39.3026 53.9255 38.9067 53.9965 38.573 54.1385C38.2428 54.2805 37.9713 54.4758 37.7582 54.7243C37.5452 54.9728 37.3855 55.264 37.279 55.5977C37.176 55.9278 37.1245 56.2793 37.1245 56.6521V57.8716C37.1245 58.1805 37.1582 58.4539 37.2257 58.6917C37.2932 58.926 37.3872 59.1231 37.5079 59.2828C37.6322 59.4391 37.7742 59.558 37.934 59.6396C38.0937 59.7213 38.2659 59.7621 38.4505 59.7621C38.6422 59.7621 38.8162 59.7231 38.9724 59.645C39.1286 59.5633 39.2618 59.4515 39.3718 59.3095C39.4819 59.1675 39.5653 58.9988 39.6221 58.8036C39.6789 58.6083 39.7073 58.3953 39.7073 58.1645C39.7073 57.9444 39.6789 57.7385 39.6221 57.5468C39.5689 57.3515 39.489 57.1811 39.3825 57.0355C39.276 56.8864 39.1428 56.771 38.9831 56.6894C38.8269 56.6042 38.6458 56.5616 38.4399 56.5616C38.1843 56.5616 37.9517 56.6219 37.7423 56.7426C37.5363 56.8633 37.3695 57.0213 37.2417 57.2166C37.1174 57.4083 37.05 57.6124 37.0393 57.829L36.5494 57.6692C36.5778 57.3391 36.6506 57.0426 36.7677 56.7799C36.8884 56.5172 37.0464 56.2935 37.2417 56.1089C37.4369 55.9243 37.6624 55.7841 37.918 55.6882C38.1772 55.5888 38.4612 55.5391 38.7701 55.5391C39.1464 55.5391 39.473 55.6101 39.7499 55.7521C40.0268 55.8941 40.2558 56.0876 40.4369 56.3326C40.6215 56.574 40.7582 56.8509 40.847 57.1633C40.9393 57.4722 40.9854 57.7953 40.9854 58.1326C40.9854 58.5053 40.9286 58.8533 40.815 59.1763C40.7014 59.4959 40.5345 59.7763 40.3144 60.0177C40.0979 60.2592 39.8334 60.4473 39.5209 60.5822C39.2121 60.7171 38.8606 60.7846 38.4665 60.7846C38.0511 60.7846 37.6801 60.7047 37.3535 60.545C37.0304 60.3852 36.7553 60.1651 36.5281 59.8846C36.3044 59.6041 36.134 59.2811 36.0168 58.9154C35.8997 58.5497 35.8411 58.1627 35.8411 57.7545V57.2219C35.8411 56.6326 35.9157 56.077 36.0648 55.5551C36.2139 55.0296 36.4429 54.5663 36.7517 54.1651C37.0642 53.764 37.4636 53.4498 37.9499 53.2226C38.4363 52.9918 39.0168 52.8764 39.6913 52.8764Z" fill="#E19B9B"/>
<path d="M41.96 54.8255V54.4154C41.96 54.1208 42.0239 53.8527 42.1517 53.6113C42.2795 53.3699 42.4659 53.1764 42.7108 53.0308C42.9558 52.8853 43.2505 52.8125 43.5949 52.8125C43.9499 52.8125 44.2481 52.8853 44.4895 53.0308C44.7345 53.1764 44.9209 53.3699 45.0487 53.6113C45.1765 53.8527 45.2404 54.1208 45.2404 54.4154V54.8255C45.2404 55.1131 45.1765 55.3776 45.0487 55.619C44.9244 55.8604 44.7398 56.0539 44.4948 56.1994C44.2534 56.345 43.957 56.4178 43.6055 56.4178C43.2576 56.4178 42.9594 56.345 42.7108 56.1994C42.4659 56.0539 42.2795 55.8604 42.1517 55.619C42.0239 55.3776 41.96 55.1131 41.96 54.8255ZM42.8493 54.4154V54.8255C42.8493 54.9675 42.8759 55.1024 42.9292 55.2302C42.986 55.358 43.0712 55.461 43.1848 55.5391C43.2984 55.6172 43.4386 55.6563 43.6055 55.6563C43.7759 55.6563 43.9144 55.6172 44.0209 55.5391C44.1309 55.461 44.2126 55.358 44.2659 55.2302C44.3191 55.1024 44.3457 54.9675 44.3457 54.8255V54.4154C44.3457 54.2699 44.3173 54.1332 44.2605 54.0054C44.2073 53.874 44.1256 53.7693 44.0156 53.6912C43.9055 53.6131 43.7653 53.574 43.5949 53.574C43.4315 53.574 43.2931 53.6131 43.1795 53.6912C43.0694 53.7693 42.986 53.874 42.9292 54.0054C42.8759 54.1332 42.8493 54.2699 42.8493 54.4154ZM45.6984 59.1923V58.7769C45.6984 58.4858 45.7623 58.2195 45.8901 57.9781C46.0215 57.7367 46.2096 57.5432 46.4546 57.3977C46.6996 57.2521 46.9942 57.1793 47.3386 57.1793C47.6936 57.1793 47.9918 57.2521 48.2333 57.3977C48.4782 57.5432 48.6628 57.7367 48.7871 57.9781C48.9149 58.2195 48.9788 58.4858 48.9788 58.7769V59.1923C48.9788 59.4834 48.9149 59.7497 48.7871 59.9911C48.6628 60.2325 48.48 60.426 48.2386 60.5716C47.9972 60.7171 47.7025 60.7899 47.3546 60.7899C47.0031 60.7899 46.7031 60.7171 46.4546 60.5716C46.2096 60.426 46.0215 60.2325 45.8901 59.9911C45.7623 59.7497 45.6984 59.4834 45.6984 59.1923ZM46.593 58.7769V59.1923C46.593 59.3343 46.6214 59.4692 46.6783 59.597C46.7386 59.7248 46.8256 59.8296 46.9392 59.9112C47.0528 59.9893 47.1895 60.0284 47.3493 60.0284C47.5303 60.0284 47.6759 59.9893 47.7859 59.9112C47.896 59.8296 47.9741 59.7266 48.0202 59.6024C48.07 59.4746 48.0948 59.3379 48.0948 59.1923V58.7769C48.0948 58.6314 48.0664 58.4947 48.0096 58.3669C47.9563 58.2391 47.8729 58.1361 47.7593 58.058C47.6492 57.9799 47.509 57.9408 47.3386 57.9408C47.1717 57.9408 47.0333 57.9799 46.9232 58.058C46.8132 58.1361 46.7297 58.2391 46.6729 58.3669C46.6197 58.4947 46.593 58.6314 46.593 58.7769ZM47.6581 54.032L43.8718 60.0923L43.2168 59.7142L47.0031 53.6539L47.6581 54.032Z" fill="#E19B9B"/>
<circle cx="8.25492" cy="56.544" r="8.24711" fill="var(--r-neutral-card-2, #F5F6FA)"/>
<path d="M9.6375 51.9698C9.66401 51.8624 9.77181 51.8094 9.87961 51.8624C11.3606 52.3449 12.5455 53.4985 13.0297 55.0271C13.223 55.6318 13.2948 56.2688 13.2409 56.9013C13.187 57.5339 13.0085 58.1495 12.7157 58.7128C12.4229 59.2761 12.0216 59.7759 11.5349 60.1834C11.0481 60.591 10.4856 60.8982 9.87961 61.0874C9.85266 61.1139 9.79876 61.1139 9.77181 61.1139C9.72999 61.1056 9.69196 61.0841 9.66332 61.0525C9.63469 61.0209 9.61696 60.981 9.61275 60.9385L9.61055 60.8997V60.5241C9.61055 60.3898 9.66401 60.3094 9.77181 60.2559C10.8759 59.8535 11.7644 58.9959 12.1682 57.8693C12.9493 55.8047 11.8722 53.472 9.77181 52.7209C9.69389 52.6687 9.63803 52.5895 9.61496 52.4987L9.61055 52.4527V52.0772C9.61055 52.0237 9.61055 51.9968 9.6375 51.9698Z" fill="#B4BDCC"/>
<path d="M6.91772 51.8624C6.94467 51.8359 6.99857 51.8359 7.02552 51.8359C7.06733 51.8443 7.10536 51.8658 7.134 51.8974C7.16264 51.929 7.18037 51.9689 7.18457 52.0113L7.18678 52.0502V52.4258C7.18678 52.5601 7.13332 52.6405 7.02552 52.6939C5.92144 53.0964 5.03296 53.954 4.62914 55.0806C3.84802 57.1452 4.92516 59.4779 7.02552 60.229C7.09444 60.2749 7.1638 60.3602 7.18236 60.4349L7.18678 60.4702V60.8458C7.18678 60.8992 7.18678 60.9266 7.15983 60.9531C7.13332 61.0605 7.02552 61.1139 6.91772 61.0605C5.40982 60.578 4.25184 59.4249 3.76762 57.9227C3.57432 57.3181 3.50255 56.6811 3.55643 56.0486C3.61032 55.416 3.78879 54.8004 4.08158 54.2371C4.37438 53.6738 4.7757 53.174 5.26244 52.7665C5.74919 52.3589 6.31174 52.0517 6.91772 51.8624Z" fill="#B4BDCC"/>
<path d="M8.18306 53.2303H8.58731C8.70528 53.2537 8.78127 53.3182 8.79894 53.4061L8.80248 53.445V54.0878C9.08405 54.111 9.35115 54.2223 9.56579 54.406C9.78043 54.5897 9.93168 54.8364 9.99801 55.1111L10.0144 55.1875V55.214C10.0156 55.2583 10.0006 55.3015 9.97233 55.3355C9.94404 55.3696 9.90433 55.3922 9.86061 55.3991L9.82571 55.4018H9.39494C9.35358 55.4014 9.31333 55.3884 9.2796 55.3645C9.24587 55.3405 9.22028 55.3068 9.20629 55.2679C9.07198 54.8654 8.80248 54.7046 8.31781 54.7046C7.77969 54.7046 7.51018 54.9458 7.51018 55.3214C7.51018 55.6969 7.67144 55.9112 8.47951 56.0185C9.61055 56.1529 10.1761 56.4745 10.1761 57.4129C10.1761 58.1092 9.67814 58.6566 8.92132 58.8165L8.82987 58.8342V59.4784C8.80601 59.5954 8.74151 59.6714 8.65314 59.6891L8.61427 59.6926H8.21045C8.09249 59.6692 8.01606 59.6047 7.99838 59.5172L7.99485 59.4784V58.8346C7.14171 58.7061 6.71051 58.2559 6.58238 57.6267L6.5678 57.5472V57.5207C6.5667 57.4766 6.58163 57.4336 6.60982 57.3996C6.63801 57.3657 6.67755 57.3431 6.72111 57.336L6.75601 57.3329H7.21373C7.29458 57.3329 7.37587 57.3868 7.40238 57.4938C7.48323 57.8962 7.72534 58.1909 8.42561 58.1909C8.93723 58.1909 9.31409 57.8958 9.31409 57.4672C9.31409 57.0382 9.07198 56.877 8.31781 56.7431C7.18678 56.6088 6.64865 56.2602 6.64865 55.3757C6.64865 54.7311 7.12139 54.2102 7.876 54.0759L7.96746 54.0618V53.445C7.99131 53.3275 8.05582 53.2515 8.14418 53.2338L8.18306 53.2303Z" fill="#B4BDCC"/>
<rect x="23.5703" width="95.4309" height="19.0862" rx="2.35632" fill="var(--r-neutral-card-2, #F5F6FA)"/>
<path d="M33.4987 5.83734H33.6585V6.88644H33.5679C33.1099 6.88644 32.7141 6.95745 32.3804 7.09946C32.0502 7.24147 31.7786 7.43673 31.5656 7.68525C31.3526 7.93377 31.1928 8.22489 31.0863 8.55861C30.9833 8.88879 30.9319 9.24026 30.9319 9.61304V10.8326C30.9319 11.1414 30.9656 11.4148 31.033 11.6527C31.1005 11.887 31.1946 12.084 31.3153 12.2438C31.4395 12.4 31.5816 12.5189 31.7413 12.6006C31.9011 12.6822 32.0733 12.7231 32.2579 12.7231C32.4496 12.7231 32.6236 12.684 32.7798 12.6059C32.936 12.5242 33.0691 12.4124 33.1792 12.2704C33.2892 12.1284 33.3727 11.9598 33.4295 11.7645C33.4863 11.5692 33.5147 11.3562 33.5147 11.1254C33.5147 10.9053 33.4863 10.6994 33.4295 10.5077C33.3762 10.3124 33.2963 10.142 33.1898 9.99647C33.0833 9.84736 32.9502 9.73197 32.7904 9.65032C32.6342 9.56511 32.4531 9.52251 32.2472 9.52251C31.9916 9.52251 31.7591 9.58286 31.5496 9.70357C31.3437 9.82428 31.1768 9.98227 31.049 10.1775C30.9248 10.3692 30.8573 10.5734 30.8466 10.7899L30.3567 10.6302C30.3851 10.3 30.4579 10.0036 30.5751 9.74085C30.6958 9.47813 30.8537 9.25446 31.049 9.06985C31.2443 8.88524 31.4697 8.745 31.7253 8.64914C31.9845 8.54974 32.2685 8.50003 32.5774 8.50003C32.9537 8.50003 33.2803 8.57104 33.5573 8.71305C33.8342 8.85506 34.0632 9.04855 34.2442 9.29352C34.4289 9.53493 34.5655 9.81185 34.6543 10.1243C34.7466 10.4331 34.7928 10.7562 34.7928 11.0935C34.7928 11.4663 34.736 11.8142 34.6223 12.1373C34.5087 12.4568 34.3419 12.7373 34.1218 12.9787C33.9052 13.2201 33.6407 13.4083 33.3283 13.5432C33.0194 13.6781 32.6679 13.7455 32.2739 13.7455C31.8585 13.7455 31.4875 13.6657 31.1608 13.5059C30.8378 13.3461 30.5626 13.126 30.3354 12.8455C30.1117 12.5651 29.9413 12.242 29.8242 11.8763C29.707 11.5107 29.6484 11.1237 29.6484 10.7154V10.1829C29.6484 9.59351 29.723 9.0379 29.8721 8.51601C30.0212 7.99057 30.2502 7.52726 30.5591 7.12608C30.8715 6.72491 31.2709 6.41071 31.7573 6.18349C32.2437 5.95273 32.8241 5.83734 33.4987 5.83734Z" fill="#9BE1C4"/>
<path d="M41.1619 10.8752V11.8976H35.5703L35.5277 11.1254L38.872 5.88527H39.8998L38.7868 7.79176L36.8643 10.8752H41.1619ZM40.1927 5.88527V13.639H38.9093V5.88527H40.1927Z" fill="#9BE1C4"/>
<path d="M41.966 7.78643V7.37638C41.966 7.08171 42.03 6.81366 42.1578 6.57225C42.2856 6.33083 42.472 6.13734 42.7169 5.99178C42.9619 5.84622 43.2566 5.77344 43.6009 5.77344C43.956 5.77344 44.2542 5.84622 44.4956 5.99178C44.7406 6.13734 44.927 6.33083 45.0548 6.57225C45.1826 6.81366 45.2465 7.08171 45.2465 7.37638V7.78643C45.2465 8.074 45.1826 8.3385 45.0548 8.57991C44.9305 8.82133 44.7459 9.01482 44.5009 9.16038C44.2595 9.30594 43.9631 9.37872 43.6116 9.37872C43.2637 9.37872 42.9654 9.30594 42.7169 9.16038C42.472 9.01482 42.2856 8.82133 42.1578 8.57991C42.03 8.3385 41.966 8.074 41.966 7.78643ZM42.8554 7.37638V7.78643C42.8554 7.92844 42.882 8.06335 42.9353 8.19116C42.9921 8.31897 43.0773 8.42193 43.1909 8.50003C43.3045 8.57814 43.4447 8.61719 43.6116 8.61719C43.782 8.61719 43.9205 8.57814 44.027 8.50003C44.137 8.42193 44.2187 8.31897 44.2719 8.19116C44.3252 8.06335 44.3518 7.92844 44.3518 7.78643V7.37638C44.3518 7.23082 44.3234 7.09413 44.2666 6.96632C44.2134 6.83496 44.1317 6.73023 44.0216 6.65213C43.9116 6.57402 43.7714 6.53497 43.6009 6.53497C43.4376 6.53497 43.2992 6.57402 43.1856 6.65213C43.0755 6.73023 42.9921 6.83496 42.9353 6.96632C42.882 7.09413 42.8554 7.23082 42.8554 7.37638ZM45.7045 12.1532V11.7379C45.7045 11.4467 45.7684 11.1805 45.8962 10.9391C46.0275 10.6976 46.2157 10.5042 46.4607 10.3586C46.7056 10.213 47.0003 10.1403 47.3447 10.1403C47.6997 10.1403 47.9979 10.213 48.2394 10.3586C48.4843 10.5042 48.6689 10.6976 48.7932 10.9391C48.921 11.1805 48.9849 11.4467 48.9849 11.7379V12.1532C48.9849 12.4444 48.921 12.7106 48.7932 12.9521C48.6689 13.1935 48.4861 13.387 48.2447 13.5325C48.0033 13.6781 47.7086 13.7509 47.3607 13.7509C47.0092 13.7509 46.7092 13.6781 46.4607 13.5325C46.2157 13.387 46.0275 13.1935 45.8962 12.9521C45.7684 12.7106 45.7045 12.4444 45.7045 12.1532ZM46.5991 11.7379V12.1532C46.5991 12.2953 46.6275 12.4302 46.6843 12.558C46.7447 12.6858 46.8317 12.7905 46.9453 12.8722C47.0589 12.9503 47.1956 12.9893 47.3553 12.9893C47.5364 12.9893 47.682 12.9503 47.792 12.8722C47.9021 12.7905 47.9802 12.6876 48.0263 12.5633C48.076 12.4355 48.1009 12.2988 48.1009 12.1532V11.7379C48.1009 11.5923 48.0725 11.4556 48.0157 11.3278C47.9624 11.2 47.879 11.097 47.7654 11.0189C47.6553 10.9408 47.5151 10.9018 47.3447 10.9018C47.1778 10.9018 47.0394 10.9408 46.9293 11.0189C46.8192 11.097 46.7358 11.2 46.679 11.3278C46.6258 11.4556 46.5991 11.5923 46.5991 11.7379ZM47.6642 6.99295L43.8779 13.0532L43.2228 12.6751L47.0092 6.61485L47.6642 6.99295Z" fill="#9BE1C4"/>
<circle cx="8.25492" cy="9.4268" r="8.24711" fill="var(--r-neutral-card-2, #F5F6FA)"/>
<path d="M8.25 3.89844V8.07799L11.7826 9.65651L8.25 3.89844Z" fill="#B4BDCC"/>
<path d="M8.25182 3.89844L4.71875 9.65651L8.25182 8.07799V3.89844Z" fill="#B4BDCC"/>
<path d="M8.25 12.371V15.2109L11.785 10.3203L8.25 12.371Z" fill="#B4BDCC"/>
<path d="M8.25182 15.2109V12.3705L4.71875 10.3203L8.25182 15.2109Z" fill="#B4BDCC"/>
<path d="M8.25 11.7068L11.7826 9.65571L8.25 8.07812V11.7068Z" fill="#B4BDCC"/>
<path d="M4.71875 9.65571L8.25182 11.7068V8.07812L4.71875 9.65571Z" fill="#B4BDCC"/>
</svg>
