<svg width="129" height="69" viewBox="0 0 129 69" fill="none" xmlns="http://www.w3.org/2000/svg">
<rect x="15.7578" width="112.813" height="30.6407" rx="2.19055" fill="var(--r-neutral-card-2, #F5F6FA)"/>
<path d="M29.6875 8.35938V13.3002L33.8635 15.1663L29.6875 8.35938Z" fill="#B4BDCC"/>
<path d="M29.6922 8.35938L25.5156 15.1663L29.6922 13.3002V8.35938Z" fill="#B4BDCC"/>
<path d="M29.6875 18.3851V21.7423L33.8663 15.9609L29.6875 18.3851Z" fill="#B4BDCC"/>
<path d="M29.6922 21.7423V18.3846L25.5156 15.9609L29.6922 21.7423Z" fill="#B4BDCC"/>
<path d="M29.6875 17.5866L33.8635 15.1618L29.6875 13.2969V17.5866Z" fill="#B4BDCC"/>
<path d="M25.5156 15.1616L29.6922 17.5863V13.2966L25.5156 15.1616Z" fill="#B4BDCC"/>
<rect x="42.2266" y="5.47656" width="29.2479" height="6.96379" fill="var(--r-neutral-line, #E5E9EF)"/>
<rect width="29.2479" height="6.96379" transform="matrix(-1 0 0 1 123 5.47656)" fill="var(--r-neutral-line, #E5E9EF)"/>
<rect x="42.2266" y="17.5234" width="16.7131" height="6.96379" fill="var(--r-neutral-line, #E5E9EF)"/>
<g opacity="0.5">
<path d="M91.5835 20.2896V21.012H88.1797V20.2896H91.5835ZM90.2806 18.9315V22.46H89.486V18.9315H90.2806Z" fill="#27C193"/>
<path d="M94.4552 18.0827V22.946H93.6333V19.0347L92.4157 19.4375V18.7751L94.3563 18.0827H94.4552Z" fill="#27C193"/>
<path d="M99.5097 22.3069V22.946H96.181V22.3968L97.7976 20.6758C97.975 20.4805 98.1148 20.3118 98.2171 20.1698C98.3194 20.0278 98.3911 19.9002 98.432 19.787C98.4752 19.6716 98.4968 19.5595 98.4968 19.4508C98.4968 19.2977 98.4672 19.1634 98.4081 19.048C98.3513 18.9304 98.2671 18.8383 98.1557 18.7717C98.0443 18.7029 97.909 18.6685 97.7499 18.6685C97.5657 18.6685 97.4111 18.7074 97.286 18.785C97.161 18.8627 97.0666 18.9703 97.0029 19.1079C96.9393 19.2433 96.9074 19.3986 96.9074 19.574H96.0855C96.0855 19.2921 96.1514 19.0347 96.2833 18.8017C96.4152 18.5665 96.6062 18.38 96.8563 18.2425C97.1064 18.1026 97.4077 18.0327 97.7601 18.0327C98.0921 18.0327 98.374 18.0871 98.6059 18.1958C98.8379 18.3046 99.0141 18.4588 99.1346 18.6585C99.2574 18.8583 99.3187 19.0946 99.3187 19.3676C99.3187 19.5185 99.2937 19.6683 99.2437 19.817C99.1937 19.9656 99.1221 20.1143 99.0288 20.263C98.9379 20.4095 98.8299 20.5571 98.7048 20.7057C98.5798 20.8522 98.4422 21.0009 98.2922 21.1518L97.2178 22.3069H99.5097Z" fill="#27C193"/>
<path d="M100.117 19.2877V19.0314C100.117 18.8472 100.158 18.6796 100.24 18.5287C100.321 18.3778 100.441 18.2569 100.598 18.1659C100.755 18.0749 100.943 18.0294 101.164 18.0294C101.391 18.0294 101.582 18.0749 101.737 18.1659C101.894 18.2569 102.013 18.3778 102.095 18.5287C102.177 18.6796 102.218 18.8472 102.218 19.0314V19.2877C102.218 19.4674 102.177 19.6328 102.095 19.7837C102.015 19.9346 101.897 20.0555 101.74 20.1465C101.586 20.2375 101.396 20.283 101.171 20.283C100.948 20.283 100.757 20.2375 100.598 20.1465C100.441 20.0555 100.321 19.9346 100.24 19.7837C100.158 19.6328 100.117 19.4674 100.117 19.2877ZM100.686 19.0314V19.2877C100.686 19.3765 100.703 19.4608 100.738 19.5407C100.774 19.6206 100.829 19.6849 100.901 19.7337C100.974 19.7826 101.064 19.807 101.171 19.807C101.28 19.807 101.369 19.7826 101.437 19.7337C101.507 19.6849 101.56 19.6206 101.594 19.5407C101.628 19.4608 101.645 19.3765 101.645 19.2877V19.0314C101.645 18.9404 101.627 18.8549 101.59 18.7751C101.556 18.6929 101.504 18.6275 101.433 18.5787C101.363 18.5298 101.273 18.5054 101.164 18.5054C101.059 18.5054 100.971 18.5298 100.898 18.5787C100.827 18.6275 100.774 18.6929 100.738 18.7751C100.703 18.8549 100.686 18.9404 100.686 19.0314ZM102.511 22.0173V21.7576C102.511 21.5757 102.552 21.4092 102.634 21.2583C102.718 21.1074 102.838 20.9865 102.995 20.8955C103.152 20.8045 103.341 20.759 103.562 20.759C103.789 20.759 103.98 20.8045 104.135 20.8955C104.291 20.9865 104.41 21.1074 104.489 21.2583C104.571 21.4092 104.612 21.5757 104.612 21.7576V22.0173C104.612 22.1993 104.571 22.3657 104.489 22.5166C104.41 22.6675 104.293 22.7884 104.138 22.8794C103.983 22.9704 103.795 23.0159 103.572 23.0159C103.347 23.0159 103.155 22.9704 102.995 22.8794C102.838 22.7884 102.718 22.6675 102.634 22.5166C102.552 22.3657 102.511 22.1993 102.511 22.0173ZM103.084 21.7576V22.0173C103.084 22.106 103.102 22.1904 103.139 22.2703C103.177 22.3502 103.233 22.4156 103.306 22.4667C103.379 22.5155 103.466 22.5399 103.568 22.5399C103.684 22.5399 103.778 22.5155 103.848 22.4667C103.919 22.4156 103.969 22.3513 103.998 22.2736C104.03 22.1937 104.046 22.1083 104.046 22.0173V21.7576C104.046 21.6666 104.028 21.5812 103.991 21.5013C103.957 21.4214 103.904 21.3571 103.831 21.3082C103.761 21.2594 103.671 21.235 103.562 21.235C103.455 21.235 103.366 21.2594 103.296 21.3082C103.225 21.3571 103.172 21.4214 103.135 21.5013C103.101 21.5812 103.084 21.6666 103.084 21.7576ZM103.766 18.7917L101.341 22.5798L100.922 22.3435L103.347 18.5554L103.766 18.7917Z" fill="#27C193"/>
<path d="M107.098 21.032V20.9754C107.098 20.5005 107.151 20.0699 107.255 19.6838C107.362 19.2955 107.501 18.9559 107.671 18.6652C107.842 18.3723 108.024 18.1304 108.217 17.9395C108.413 17.7465 108.6 17.6078 108.78 17.5234L108.943 17.9828C108.812 18.0782 108.68 18.2103 108.548 18.3789C108.418 18.5476 108.299 18.7551 108.19 19.0014C108.083 19.2455 107.996 19.5318 107.931 19.8602C107.867 20.1865 107.835 20.5559 107.835 20.9687V21.0386C107.835 21.4514 107.867 21.822 107.931 22.1504C107.996 22.4766 108.083 22.7629 108.19 23.0093C108.299 23.2556 108.418 23.4642 108.548 23.6351C108.68 23.8082 108.812 23.9457 108.943 24.0478L108.78 24.4872C108.6 24.4007 108.413 24.2609 108.217 24.0678C108.024 23.877 107.842 23.6351 107.671 23.3421C107.501 23.0514 107.362 22.713 107.255 22.3269C107.151 21.9385 107.098 21.5069 107.098 21.032Z" fill="#27C193"/>
<path d="M110.318 20.6924L109.663 20.536L109.933 18.0993H112.61V18.7784H110.615L110.478 19.9668C110.556 19.9224 110.662 19.8791 110.799 19.8369C110.935 19.7925 111.091 19.7704 111.266 19.7704C111.5 19.7704 111.71 19.8081 111.894 19.8835C112.08 19.9568 112.238 20.0644 112.368 20.2064C112.497 20.3462 112.596 20.5171 112.664 20.7191C112.733 20.9188 112.767 21.144 112.767 21.3948C112.767 21.6189 112.733 21.8286 112.664 22.0239C112.599 22.2192 112.498 22.3912 112.364 22.5399C112.23 22.6886 112.061 22.8051 111.856 22.8894C111.654 22.9715 111.414 23.0126 111.137 23.0126C110.93 23.0126 110.731 22.9837 110.54 22.926C110.351 22.8661 110.182 22.7785 110.031 22.6631C109.881 22.5454 109.761 22.4012 109.67 22.2303C109.579 22.0572 109.527 21.8586 109.513 21.6345H110.318C110.338 21.792 110.383 21.9263 110.451 22.0373C110.521 22.146 110.615 22.2292 110.731 22.2869C110.847 22.3446 110.981 22.3735 111.133 22.3735C111.272 22.3735 111.391 22.3502 111.491 22.3036C111.591 22.2547 111.674 22.1859 111.74 22.0972C111.808 22.0062 111.858 21.8997 111.89 21.7776C111.924 21.6556 111.941 21.5202 111.941 21.3715C111.941 21.2295 111.922 21.0996 111.883 20.982C111.847 20.8644 111.791 20.7623 111.716 20.6758C111.644 20.5892 111.551 20.5227 111.44 20.4761C111.329 20.4272 111.2 20.4028 111.055 20.4028C110.859 20.4028 110.709 20.4306 110.604 20.486C110.502 20.5415 110.407 20.6103 110.318 20.6924Z" fill="#27C193"/>
<path d="M116.846 21.2184V21.8575H113.265L113.237 21.3748L115.379 18.0993H116.038L115.325 19.291L114.094 21.2184H116.846ZM116.225 18.0993V22.946H115.403V18.0993H116.225Z" fill="#27C193"/>
<path d="M118.36 20.1598H118.851C119.042 20.1598 119.2 20.1276 119.325 20.0633C119.453 19.9989 119.547 19.9102 119.608 19.797C119.67 19.6838 119.701 19.554 119.701 19.4075C119.701 19.2544 119.672 19.1235 119.615 19.0147C119.561 18.9038 119.477 18.8183 119.363 18.7584C119.252 18.6985 119.109 18.6685 118.937 18.6685C118.791 18.6685 118.659 18.6974 118.541 18.7551C118.425 18.8106 118.333 18.8905 118.265 18.9948C118.196 19.0968 118.162 19.2189 118.162 19.3609H117.337C117.337 19.1035 117.406 18.8749 117.545 18.6752C117.684 18.4755 117.872 18.319 118.111 18.2058C118.352 18.0904 118.623 18.0327 118.923 18.0327C119.244 18.0327 119.523 18.0849 119.762 18.1892C120.003 18.2913 120.191 18.4444 120.325 18.6486C120.459 18.8527 120.526 19.1057 120.526 19.4075C120.526 19.5451 120.493 19.6849 120.427 19.8269C120.361 19.969 120.263 20.0988 120.134 20.2164C120.004 20.3318 119.843 20.4261 119.649 20.4994C119.456 20.5704 119.232 20.6059 118.978 20.6059H118.36V20.1598ZM118.36 20.7856V20.3462H118.978C119.269 20.3462 119.516 20.3795 119.721 20.4461C119.928 20.5127 120.096 20.6048 120.226 20.7224C120.355 20.8378 120.45 20.9698 120.509 21.1185C120.57 21.2672 120.601 21.4248 120.601 21.5912C120.601 21.8176 120.559 22.0195 120.475 22.197C120.393 22.3723 120.276 22.521 120.123 22.6431C119.971 22.7651 119.793 22.8572 119.588 22.9194C119.386 22.9815 119.165 23.0126 118.926 23.0126C118.713 23.0126 118.508 22.9837 118.312 22.926C118.117 22.8683 117.942 22.7829 117.787 22.6697C117.633 22.5543 117.51 22.4112 117.419 22.2403C117.33 22.0672 117.286 21.8675 117.286 21.6411H118.108C118.108 21.7854 118.142 21.913 118.21 22.0239C118.281 22.1327 118.378 22.2181 118.503 22.2803C118.631 22.3424 118.776 22.3735 118.94 22.3735C119.113 22.3735 119.262 22.3435 119.387 22.2836C119.512 22.2237 119.607 22.1349 119.673 22.0173C119.741 21.8997 119.776 21.7576 119.776 21.5912C119.776 21.4026 119.738 21.2494 119.663 21.1318C119.588 21.0142 119.481 20.9277 119.342 20.8722C119.204 20.8145 119.04 20.7856 118.851 20.7856H118.36Z" fill="#27C193"/>
<path d="M122.999 20.9754V21.032C122.999 21.5002 122.944 21.9274 122.835 22.3135C122.728 22.6997 122.588 23.0392 122.415 23.3321C122.245 23.6251 122.06 23.8692 121.859 24.0645C121.662 24.2598 121.472 24.4007 121.29 24.4872L121.123 24.0478C121.255 23.9502 121.385 23.8159 121.515 23.645C121.647 23.4764 121.766 23.2667 121.873 23.0159C121.982 22.7674 122.069 22.4789 122.132 22.1504C122.198 21.822 122.231 21.4514 122.231 21.0386V20.9687C122.231 20.5559 122.197 20.1853 122.129 19.8569C122.063 19.5262 121.974 19.2378 121.863 18.9914C121.751 18.7429 121.631 18.5332 121.501 18.3623C121.372 18.1914 121.246 18.0583 121.123 17.9628L121.29 17.5234C121.472 17.6078 121.662 17.7476 121.859 17.9429C122.06 18.1382 122.245 18.3834 122.415 18.6785C122.588 18.9715 122.728 19.311 122.835 19.6971C122.944 20.0833 122.999 20.5093 122.999 20.9754Z" fill="#27C193"/>
</g>
<rect x="0.421875" y="38.3359" width="112.813" height="30.6407" rx="2.19055" fill="var(--r-neutral-card-2, #F5F6FA)"/>
<path d="M14.8413 47.746C14.8761 47.6051 15.0176 47.5355 15.1591 47.6051C17.1031 48.2384 18.6585 49.7527 19.2942 51.7593C19.5479 52.5531 19.6421 53.3892 19.5714 54.2196C19.5006 55.0499 19.2664 55.858 18.882 56.5974C18.4977 57.3369 17.9709 57.9929 17.3319 58.5279C16.693 59.0629 15.9545 59.4662 15.1591 59.7146C15.1237 59.7494 15.0529 59.7494 15.0176 59.7494C14.9627 59.7385 14.9128 59.7102 14.8752 59.6688C14.8376 59.6273 14.8143 59.5749 14.8088 59.5192L14.8059 59.4681V58.9752C14.8059 58.7989 14.8761 58.6933 15.0176 58.6231C16.4669 58.0948 17.6332 56.9691 18.1633 55.4902C19.1886 52.7801 17.7747 49.7179 15.0176 48.732C14.9153 48.6635 14.842 48.5596 14.8117 48.4402L14.8059 48.3799V47.887C14.8059 47.8168 14.8059 47.7814 14.8413 47.746Z" fill="#B4BDCC"/>
<path d="M11.271 47.6051C11.3064 47.5703 11.3772 47.5703 11.4126 47.5703C11.4674 47.5812 11.5174 47.6095 11.555 47.651C11.5926 47.6924 11.6158 47.7449 11.6213 47.8006L11.6242 47.8516V48.3446C11.6242 48.5209 11.5541 48.6264 11.4126 48.6966C9.96324 49.2249 8.79695 50.3506 8.26687 51.8295C7.24151 54.5397 8.65544 57.6018 11.4126 58.5878C11.503 58.6481 11.5941 58.76 11.6184 58.858L11.6242 58.9044V59.3974C11.6242 59.4675 11.6242 59.5035 11.5889 59.5383C11.5541 59.6792 11.4126 59.7494 11.271 59.6792C9.29165 59.0459 7.77159 57.5322 7.13595 55.5604C6.88222 54.7666 6.78801 53.9305 6.85874 53.1002C6.92947 52.2698 7.16376 51.4617 7.5481 50.7223C7.93244 49.9829 8.45925 49.3268 9.09819 48.7918C9.73714 48.2568 10.4756 47.8535 11.271 47.6051Z" fill="#B4BDCC"/>
<path d="M12.932 49.4007H13.4627C13.6176 49.4314 13.7173 49.5161 13.7405 49.6315L13.7451 49.6825V50.5264C14.1148 50.5567 14.4654 50.7029 14.7471 50.944C15.0289 51.1852 15.2274 51.509 15.3145 51.8695L15.336 51.9699V52.0047C15.3375 52.0628 15.3179 52.1194 15.2808 52.1641C15.2437 52.2089 15.1915 52.2385 15.1341 52.2477L15.0883 52.2511H14.5229C14.4686 52.2507 14.4157 52.2336 14.3715 52.2022C14.3272 52.1707 14.2936 52.1265 14.2752 52.0754C14.0989 51.5471 13.7451 51.336 13.1089 51.336C12.4025 51.336 12.0488 51.6526 12.0488 52.1456C12.0488 52.6386 12.2605 52.9198 13.3212 53.0608C14.8059 53.2371 15.5482 53.6593 15.5482 54.8911C15.5482 55.8051 14.8946 56.5237 13.9012 56.7336L13.7811 56.7568V57.6024C13.7498 57.7561 13.6651 57.8558 13.5491 57.879L13.4981 57.8837H12.968C12.8132 57.8529 12.7128 57.7683 12.6896 57.6534L12.685 57.6024V56.7574C11.5651 56.5886 10.999 55.9977 10.8309 55.1718L10.8117 55.0674V55.0326C10.8103 54.9747 10.8299 54.9182 10.8669 54.8737C10.9039 54.8291 10.9558 54.7994 11.013 54.7902L11.0588 54.7861H11.6596C11.7657 54.7861 11.8725 54.8569 11.9073 54.9972C12.0134 55.5256 12.3312 55.9124 13.2504 55.9124C13.922 55.9124 14.4167 55.525 14.4167 54.9624C14.4167 54.3993 14.0989 54.1876 13.1089 54.0119C11.6242 53.8356 10.9179 53.378 10.9179 52.2169C10.9179 51.3708 11.5384 50.687 12.529 50.5107L12.649 50.4921V49.6825C12.6803 49.5282 12.765 49.4285 12.881 49.4053L12.932 49.4007Z" fill="#B4BDCC"/>
<rect x="26.7109" y="43.8125" width="29.2479" height="6.96379" fill="var(--r-neutral-line, #E5E9EF)"/>
<rect width="29.2479" height="6.96379" transform="matrix(-1 0 0 1 107.664 43.8125)" fill="var(--r-neutral-line, #E5E9EF)"/>
<rect x="26.8906" y="55.0469" width="16.7131" height="6.96379" fill="var(--r-neutral-line, #E5E9EF)"/>
<g opacity="0.5">
<path d="M89.9757 58.1043V58.808H88.0469V58.1043H89.9757Z" fill="#EC5151"/>
<path d="M93.0932 55.3813V60.7357H92.2145V56.4295L90.9128 56.8729V56.1436L92.9875 55.3813H93.0932Z" fill="#EC5151"/>
<path d="M95.0075 58.6284V58.5661C95.0075 58.0432 95.0634 57.5693 95.1752 57.1441C95.2894 56.7166 95.4377 56.3427 95.62 56.0227C95.8023 55.7002 95.9968 55.4339 96.2034 55.2237C96.4125 55.0112 96.613 54.8585 96.805 54.7656L96.98 55.2714C96.8391 55.3764 96.6981 55.5218 96.5571 55.7075C96.4185 55.8932 96.2909 56.1216 96.1742 56.3928C96.06 56.6616 95.9676 56.9768 95.8971 57.3384C95.8291 57.6975 95.795 58.1043 95.795 58.5588V58.6357C95.795 59.0902 95.8291 59.4982 95.8971 59.8598C95.9676 60.219 96.06 60.5341 96.1742 60.8053C96.2909 61.0765 96.4185 61.3062 96.5571 61.4943C96.6981 61.6849 96.8391 61.8364 96.98 61.9488L96.805 62.4326C96.613 62.3373 96.4125 62.1833 96.2034 61.9708C95.9968 61.7607 95.8023 61.4943 95.62 61.1718C95.4377 60.8518 95.2894 60.4792 95.1752 60.054C95.0634 59.6265 95.0075 59.1513 95.0075 58.6284Z" fill="#EC5151"/>
<path d="M98.4495 58.2546L97.7494 58.0823L98.0374 55.3996H100.9V56.1473H98.7667L98.6208 57.4556C98.7035 57.4068 98.8177 57.3591 98.9636 57.3127C99.1094 57.2639 99.2759 57.2394 99.4631 57.2394C99.7135 57.2394 99.9371 57.281 100.134 57.364C100.333 57.4447 100.502 57.5631 100.641 57.7195C100.779 57.8734 100.885 58.0616 100.958 58.2839C101.031 58.5038 101.067 58.7518 101.067 59.0279C101.067 59.2746 101.031 59.5055 100.958 59.7205C100.888 59.9355 100.781 60.1249 100.637 60.2886C100.494 60.4523 100.313 60.5806 100.094 60.6734C99.8776 60.7638 99.6211 60.809 99.3245 60.809C99.1033 60.809 98.8906 60.7772 98.6865 60.7137C98.4847 60.6478 98.3036 60.5512 98.1432 60.4242C97.9827 60.2947 97.8539 60.1359 97.7567 59.9478C97.6595 59.7572 97.6035 59.5385 97.589 59.2918H98.4495C98.4713 59.4652 98.5187 59.613 98.5917 59.7352C98.667 59.8549 98.7667 59.9465 98.8906 60.0101C99.0146 60.0736 99.158 60.1054 99.3209 60.1054C99.4692 60.1054 99.5968 60.0797 99.7037 60.0284C99.8107 59.9746 99.8994 59.8989 99.9699 59.8012C100.043 59.701 100.096 59.5837 100.13 59.4493C100.167 59.315 100.185 59.1659 100.185 59.0022C100.185 58.8459 100.164 58.7029 100.123 58.5734C100.084 58.4439 100.025 58.3316 99.9444 58.2363C99.8666 58.141 99.7682 58.0677 99.6491 58.0164C99.5299 57.9626 99.3926 57.9357 99.237 57.9357C99.028 57.9357 98.8676 57.9663 98.7557 58.0274C98.6464 58.0884 98.5443 58.1642 98.4495 58.2546Z" fill="#EC5151"/>
<path d="M105.33 60.0321V60.7357H101.771V60.131L103.499 58.2363C103.689 58.0213 103.839 57.8356 103.948 57.6792C104.057 57.5228 104.134 57.3823 104.178 57.2577C104.224 57.1307 104.247 57.0073 104.247 56.8876C104.247 56.719 104.215 56.5712 104.152 56.4441C104.091 56.3146 104.001 56.2133 103.882 56.14C103.763 56.0642 103.619 56.0263 103.448 56.0263C103.251 56.0263 103.086 56.0691 102.953 56.1546C102.819 56.2401 102.718 56.3586 102.65 56.5101C102.582 56.6591 102.548 56.8302 102.548 57.0232H101.669C101.669 56.7129 101.74 56.4295 101.881 56.1729C102.022 55.914 102.226 55.7087 102.493 55.5572C102.76 55.4033 103.083 55.3264 103.459 55.3264C103.814 55.3264 104.116 55.3862 104.364 55.5059C104.612 55.6256 104.8 55.7955 104.929 56.0153C105.06 56.2352 105.126 56.4954 105.126 56.796C105.126 56.9621 105.099 57.127 105.045 57.2907C104.992 57.4544 104.915 57.6181 104.816 57.7818C104.718 57.9431 104.603 58.1056 104.469 58.2692C104.336 58.4305 104.189 58.5942 104.028 58.7603L102.88 60.0321H105.33Z" fill="#EC5151"/>
<path d="M107.762 58.5661V58.6284C107.762 59.1439 107.703 59.6143 107.587 60.0394C107.473 60.4645 107.323 60.8383 107.138 61.1608C106.956 61.4833 106.758 61.7521 106.544 61.9671C106.333 62.1821 106.13 62.3373 105.935 62.4326L105.756 61.9488C105.897 61.8413 106.037 61.6935 106.176 61.5053C106.317 61.3197 106.444 61.0888 106.559 60.8127C106.675 60.539 106.768 60.2214 106.836 59.8598C106.906 59.4982 106.941 59.0902 106.941 58.6357V58.5588C106.941 58.1043 106.905 57.6963 106.832 57.3347C106.762 56.9707 106.667 56.653 106.548 56.3818C106.429 56.1082 106.3 55.8773 106.161 55.6892C106.023 55.501 105.888 55.3544 105.756 55.2494L105.935 54.7656C106.13 54.8585 106.333 55.0124 106.544 55.2274C106.758 55.4424 106.956 55.7124 107.138 56.0373C107.323 56.3598 107.473 56.7337 107.587 57.1588C107.703 57.5839 107.762 58.053 107.762 58.5661Z" fill="#EC5151"/>
</g>
</svg>
