<svg width="16" height="16" viewBox="0 0 16 16" fill="none" xmlns="http://www.w3.org/2000/svg">
<path d="M2.66771 4.50729C3.32987 4.50729 3.86667 3.97052 3.86667 3.30833C3.86667 2.64615 3.32987 2.10938 2.66771 2.10938C2.00554 2.10938 1.46875 2.64615 1.46875 3.30833C1.46875 3.97052 2.00554 4.50729 2.66771 4.50729Z" fill="currentColor"/>
<path d="M6.67188 3.3125H14.6719" stroke="currentColor" stroke-width="1.8" stroke-linecap="round" stroke-linejoin="round"/>
<path d="M2.66771 9.19479C3.32987 9.19479 3.86667 8.65802 3.86667 7.99583C3.86667 7.33365 3.32987 6.79688 2.66771 6.79688C2.00554 6.79688 1.46875 7.33365 1.46875 7.99583C1.46875 8.65802 2.00554 9.19479 2.66771 9.19479Z" fill="currentColor"/>
<path d="M2.66771 13.8901C3.32987 13.8901 3.86667 13.3533 3.86667 12.6911C3.86667 12.029 3.32987 11.4922 2.66771 11.4922C2.00554 11.4922 1.46875 12.029 1.46875 12.6911C1.46875 13.3533 2.00554 13.8901 2.66771 13.8901Z" fill="currentColor"/>
<path d="M6.67188 8.00781H14.6719" stroke="currentColor" stroke-width="1.8" stroke-linecap="round" stroke-linejoin="round"/>
<path d="M6.67188 12.7031H14.6719" stroke="currentColor" stroke-width="1.8" stroke-linecap="round" stroke-linejoin="round"/>
</svg>
