<svg xmlns="http://www.w3.org/2000/svg" width="28" height="28" viewBox="0 0 28 28" fill="none">
    <g clip-path="url(#clip0_87870_44158)">
        <path fill-rule="evenodd" clip-rule="evenodd"
            d="M24.375 2C24.375 1.58579 24.0392 1.25 23.625 1.25C23.2108 1.25 22.875 1.58579 22.875 2V3.86719H21C20.5858 3.86719 20.25 4.20297 20.25 4.61719C20.25 5.0314 20.5858 5.36719 21 5.36719H22.875V7.25C22.875 7.66421 23.2108 8 23.625 8C24.0392 8 24.375 7.66421 24.375 7.25V5.36719H26.25C26.6642 5.36719 27 5.0314 27 4.61719C27 4.20297 26.6642 3.86719 26.25 3.86719H24.375V2Z"
            fill="#7084FF" />
        <path fill-rule="evenodd" clip-rule="evenodd"
            d="M2.96875 21.0039C2.96875 20.745 2.75888 20.5352 2.5 20.5352C2.24112 20.5352 2.03125 20.745 2.03125 21.0039V22.0352H1C0.741117 22.0352 0.53125 22.245 0.53125 22.5039C0.53125 22.7628 0.741117 22.9727 1 22.9727H2.03125V24.0039C2.03125 24.2628 2.24112 24.4727 2.5 24.4727C2.75888 24.4727 2.96875 24.2628 2.96875 24.0039V22.9727H4C4.25888 22.9727 4.46875 22.7628 4.46875 22.5039C4.46875 22.245 4.25888 22.0352 4 22.0352H2.96875V21.0039Z"
            fill="#7084FF" />
        <path
            d="M14 2.27846L17.0189 9.53679C17.2313 10.0475 17.7116 10.3964 18.2629 10.4406L26.0989 11.0688L20.1287 16.1829C19.7087 16.5427 19.5252 17.1073 19.6535 17.6454L21.4775 25.2919L14.7689 21.1943C14.2968 20.906 13.7032 20.906 13.2311 21.1943L6.52247 25.2919L8.34646 17.6454C8.47479 17.1073 8.29134 16.5428 7.87128 16.1829L1.9011 11.0688L9.73707 10.4406C10.2884 10.3964 10.7687 10.0475 10.9811 9.53678L14 2.27846Z"
            stroke="var(--r-neutral-title1)" stroke-width="1.75" />
    </g>
    <defs>
        <clipPath id="clip0_87870_44158">
            <rect width="28" height="28" fill="white" />
        </clipPath>
    </defs>
</svg>