<svg width="28" height="28" viewBox="0 0 28 28" fill="none" xmlns="http://www.w3.org/2000/svg">
<path fill-rule="evenodd" clip-rule="evenodd" d="M13.9999 0.99987C11.7776 0.99987 9.97604 2.80149 9.97604 5.02375C9.97604 8.29315 13.9999 11.0596 13.9999 11.0596C13.9999 11.0596 18.0238 8.29315 18.0238 5.02375C18.0238 2.80141 16.2223 0.99987 13.9999 0.99987Z" stroke="#8697FF" stroke-width="1.75" stroke-linecap="round" stroke-linejoin="round"/>
<path fill-rule="evenodd" clip-rule="evenodd" d="M13.9999 27.0001C11.7776 27.0001 9.97604 25.1985 9.97604 22.9763C9.97604 19.7068 13.9999 16.9404 13.9999 16.9404C13.9999 16.9404 18.0238 19.7068 18.0238 22.9762C18.0238 25.1986 16.2223 27.0001 13.9999 27.0001Z" stroke="var(--r-neutral-title-1, rgba(247, 250, 252, 1))" stroke-width="1.75" stroke-linecap="round" stroke-linejoin="round"/>
<path fill-rule="evenodd" clip-rule="evenodd" d="M27.0003 14C27.0003 16.2223 25.1986 18.0238 22.9764 18.0238C19.707 18.0238 16.9406 14 16.9406 14C16.9406 14 19.707 9.97607 22.9764 9.97607C25.1987 9.97607 27.0003 11.7776 27.0003 14Z" stroke="var(--r-neutral-title-1, rgba(247, 250, 252, 1))" stroke-width="1.75" stroke-linecap="round" stroke-linejoin="round"/>
<path fill-rule="evenodd" clip-rule="evenodd" d="M0.999748 14C0.999749 16.2223 2.80137 18.0238 5.02363 18.0238C8.29303 18.0238 11.0594 14 11.0594 14C11.0594 14 8.29303 9.97607 5.02363 9.97607C2.80129 9.97607 0.999748 11.7776 0.999748 14Z" stroke="var(--r-neutral-title-1, rgba(247, 250, 252, 1))" stroke-width="1.75" stroke-linecap="round" stroke-linejoin="round"/>
</svg>
