<svg xmlns="http://www.w3.org/2000/svg" width="20" height="20" viewBox="0 0 20 20" fill="none">
  <path d="M10 19C12.4853 19 14.7353 17.9926 16.3639 16.3639C17.9926 14.7353 19 12.4853 19 10C19 7.51474 17.9926 5.26474 16.3639 3.63604C14.7353 2.00736 12.4853 1 10 1C7.51474 1 5.26474 2.00736 3.63604 3.63604C2.00736 5.26474 1 7.51474 1 10C1 12.4853 2.00736 14.7353 3.63604 16.3639C5.26474 17.9926 7.51474 19 10 19Z" fill="currentColor"/>
  <path d="M14.375 9.5C14.7202 9.5 15 9.77982 15 10.125C15 10.4702 14.7202 10.75 14.375 10.75H5.625C5.27982 10.75 5 10.4702 5 10.125C5 9.77982 5.27982 9.5 5.625 9.5H14.375Z" fill="white"/>
</svg>