<svg width="28" height="28" viewBox="0 0 28 28" fill="none" xmlns="http://www.w3.org/2000/svg">
<rect width="28" height="28" rx="14" fill="black"/>
<path d="M20.0158 13.7189V14.318H18.1018V15.1058H20.0827V15.75H17.4373C17.4415 15.0771 17.4415 14.4042 17.4415 13.7189H20.0158ZM5.77343 12.2582C5.81105 12.2582 5.83194 12.2664 5.84865 12.3033C6.36269 13.4358 6.88089 14.5683 7.39493 15.6967C7.39911 15.709 7.40328 15.7213 7.41164 15.7418H7.14836C7.01464 15.7418 6.88508 15.7377 6.75135 15.7418C6.7012 15.7418 6.67613 15.7295 6.65523 15.6802C6.35015 14.995 6.04508 14.3057 5.74001 13.6205C5.64805 13.4153 5.55611 13.206 5.45999 12.9886C5.44747 13.0173 5.4391 13.0337 5.42657 13.0542C5.03373 13.9282 4.64507 14.8022 4.25642 15.6761C4.23552 15.7213 4.21463 15.7377 4.1603 15.7377C3.98311 15.7344 3.80858 15.7364 3.63246 15.7331L3.5 15.7295C3.51254 15.709 3.52507 15.6885 3.53761 15.6679C4.04746 14.5519 4.55731 13.4358 5.06716 12.3198C5.08806 12.2746 5.10896 12.2582 5.16328 12.2582C5.36806 12.2623 5.57284 12.2623 5.77343 12.2582ZM8.87433 12.2705C8.91611 12.2705 8.93701 12.2828 8.95792 12.3157C9.30059 12.7793 9.64328 13.2389 9.98598 13.7025C9.9985 13.7189 10.0111 13.7394 10.0319 13.76C10.0487 13.7394 10.0612 13.723 10.0737 13.7066C10.4164 13.243 10.7591 12.7834 11.1018 12.3198C11.131 12.2828 11.1561 12.2705 11.2021 12.2705C11.411 12.2746 11.6242 12.2705 11.8331 12.2705H11.9V15.7418H11.2397V13.2471C11.2355 13.243 11.2313 13.243 11.2272 13.2389C11.2146 13.2553 11.2021 13.2717 11.1896 13.2881C10.8343 13.7518 10.4791 14.2154 10.1239 14.6791C10.0612 14.7611 9.96925 14.7611 9.91075 14.675C9.56806 14.2113 9.2212 13.7518 8.87851 13.2881C8.86596 13.2717 8.85343 13.2512 8.83672 13.2348C8.83254 13.2389 8.82836 13.2389 8.82418 13.243V15.7418H8.1597V12.2746C8.17642 12.2746 8.19731 12.2705 8.21404 12.2705H8.87433ZM23.0665 12.25C23.2713 12.25 23.4678 12.291 23.6516 12.3772C24.0738 12.57 24.3286 12.9886 24.3035 13.4522C24.2952 13.5999 24.2743 13.7436 24.2201 13.879C24.0862 14.2072 23.8314 14.396 23.4929 14.4862C23.4678 14.4903 23.4468 14.4985 23.4135 14.5067C23.4468 14.5437 23.4719 14.5765 23.5013 14.6052C23.8187 14.954 24.1323 15.3028 24.4498 15.6556C24.4665 15.6761 24.4792 15.7049 24.5 15.7377H23.7394C23.7102 15.7377 23.6767 15.7213 23.6559 15.7008C23.3382 15.3438 23.0206 14.9909 22.7072 14.6298C22.6696 14.5888 22.6319 14.5724 22.5776 14.5724C22.3938 14.5765 22.2057 14.5724 22.0176 14.5724V15.7336C21.7878 15.7295 21.5705 15.7295 21.3448 15.7295V13.9733H21.4199C21.9425 13.9733 22.4648 13.9774 22.9914 13.9774C23.0832 13.9774 23.1795 13.9692 23.2672 13.9446C23.5221 13.8708 23.6641 13.6328 23.6349 13.3414C23.6098 13.0953 23.4135 12.8983 23.1544 12.8696C23.0999 12.8614 23.0416 12.8614 22.9871 12.8614H21.3489V12.2541C21.3616 12.2541 21.3783 12.25 21.3908 12.25H23.0665ZM14.9006 12.25C15.1137 12.25 15.3227 12.2869 15.5191 12.3731C15.8576 12.5249 16.0331 12.7875 16.0666 13.1486C16.1 13.5056 15.9621 13.7682 15.6236 13.9282C15.632 13.9364 15.6403 13.9405 15.6445 13.9446C16.0122 14.0718 16.2003 14.4821 16.1794 14.7734C16.1543 15.1756 15.9746 15.4669 15.586 15.6146C15.4731 15.6556 15.3519 15.6885 15.2349 15.7049C15.1054 15.7254 14.9716 15.7336 14.8421 15.7336H13.1746V13.6697H13.2499C13.814 13.6615 14.3782 13.6574 14.9382 13.6451C15.0176 13.641 15.1012 13.6246 15.1764 13.5958C15.3896 13.5179 15.469 13.3127 15.3686 13.1117C15.2934 12.9598 15.1555 12.886 14.9925 12.8573C14.9382 12.8491 14.8797 12.845 14.8254 12.845C14.2988 12.8409 13.7764 12.8409 13.2499 12.8368H13.1746V12.2541C13.1913 12.2541 13.2039 12.25 13.2206 12.25H14.9006ZM14.8546 14.2277H13.8893C13.8684 14.2277 13.8516 14.2318 13.8308 14.2318V15.1181C14.2111 15.1181 14.5788 15.1222 14.9507 15.1181C15.0761 15.1181 15.1931 15.0853 15.306 15.0278C15.4021 14.9786 15.4731 14.9088 15.5024 14.8063C15.5484 14.6504 15.4898 14.4985 15.3436 14.3877C15.2015 14.2811 15.0343 14.2277 14.8546 14.2277ZM20.0869 12.2705V12.8983H17.4415V12.2705H20.0869Z" fill="white"/>
</svg>
