<svg width="28" height="28" viewBox="0 0 28 28" fill="none" xmlns="http://www.w3.org/2000/svg">
<rect width="28" height="28" rx="14" fill="white"/>
<path d="M21.8649 10.3363C21.7841 12.5603 21.7437 14.7882 21.2934 16.9826C21.0146 18.3588 20.5685 19.6928 19.3626 20.6058C18.6258 21.1632 17.7699 21.5795 16.9634 22.0551C16.2148 22.4939 15.4536 22.9115 14.712 23.3615C14.13 23.7126 13.8909 23.7087 13.3137 23.3747C12.2459 22.7567 11.185 22.123 10.0802 21.5696C8.29509 20.6763 7.24606 19.31 6.81808 17.4589C6.3901 15.6078 6.27788 13.7474 6.19493 11.8719C6.1552 10.9845 6.13917 10.0932 6.12523 9.20714C6.11477 8.524 6.46538 8.18736 7.18611 8.19856C8.7628 8.22294 10.2921 8.01147 11.7113 7.33623C12.2689 7.07272 12.7833 6.72819 13.2921 6.38694C13.7891 6.05361 14.2094 6.02396 14.6792 6.38167C16.2908 7.60699 18.1546 8.14059 20.1955 8.19263C20.4395 8.19922 20.6835 8.19263 20.9267 8.1979C21.5136 8.21635 21.8503 8.52729 21.8726 9.08263C21.881 9.2908 21.8649 9.49963 21.8628 9.70781C21.8608 9.91598 21.8649 10.1274 21.8649 10.3363ZM20.0896 10.7355L20.0032 10.7276C19.9955 10.6179 19.9955 10.5079 20.0032 10.3982C20.0464 10.0794 19.9551 9.95682 19.5668 9.93047C17.6388 9.79872 15.8293 9.29542 14.2185 8.25061C14.0603 8.14784 13.9473 8.14191 13.787 8.24534C12.1218 9.31518 10.26 9.82638 8.26791 9.94299C8.05043 9.95616 7.98282 10.0319 7.98909 10.2216C8.0107 10.638 8.02604 11.0543 8.03998 11.4733C8.10062 13.3179 8.19193 15.1565 8.60806 16.9642C8.85481 18.0373 9.27442 19.034 10.3339 19.6361C11.5063 20.3022 12.6941 20.9445 13.8818 21.5861C13.9515 21.625 14.1028 21.5907 14.1892 21.5446C15.1469 21.0314 16.0949 20.5004 17.0561 19.9919C17.9385 19.5241 18.7046 18.9523 19.042 18.0109C19.2281 17.4945 19.426 16.9655 19.4901 16.4299C19.7216 14.5326 19.8944 12.6327 20.0875 10.7355H20.0896Z" fill="#0D63CA"/>
</svg>
