<svg width="32" height="32" viewBox="0 0 32 32" fill="none" xmlns="http://www.w3.org/2000/svg">
<path d="M10.2058 6.92512C9.70164 7.4581 9.51438 7.19881 7.69937 13.9691C5.71151 21.402 5.6971 21.546 6.35972 22.2951C6.77746 22.7704 15.0314 27.524 15.6364 27.6392C15.8957 27.6825 16.299 27.668 16.5295 27.5816C17.2065 27.3367 25.5181 22.5111 25.8062 22.1942C25.9359 22.0358 26.0511 21.6756 26.0511 21.3875C26.0511 20.8114 22.5363 7.53012 22.2194 6.92512C22.1186 6.72345 21.8449 6.40655 21.6432 6.24809C21.2687 5.96 21.1102 5.94559 15.9245 5.94559L10.7184 6.6243L10.2058 6.92512ZM20.246 7.61655C20.318 7.80381 16.6592 21.8917 16.2414 23.0441C15.9245 23.9084 15.7228 23.3178 13.6918 15.6976C12.5538 11.4914 11.6319 7.93346 11.6463 7.80381C11.6463 7.67417 11.6895 7.53012 11.7471 7.48691C11.7903 7.42929 13.7062 7.38607 15.9965 7.38607C19.6842 7.38607 20.1595 7.41488 20.246 7.61655ZM12.6114 17.5415C13.6486 21.4308 14.5128 24.7007 14.5128 24.8303C14.5273 24.9599 14.4408 25.104 14.34 25.1472C14.2536 25.176 12.6834 24.3549 10.8828 23.3178C8.54926 21.9781 7.58413 21.3443 7.52651 21.1283C7.4833 20.9554 8.0739 18.5066 8.82295 15.6832C9.5864 12.8455 10.2058 10.4975 10.2058 10.4687C10.2058 10.4255 10.321 10.4111 10.4651 10.4399C10.6668 10.4831 11.0845 11.8516 12.6114 17.5415ZM22.9973 15.3663C23.7319 18.0744 24.3225 20.48 24.3225 20.6817C24.3225 20.8834 24.1785 21.2147 24.0056 21.4308C23.5879 21.8917 17.826 25.2336 17.5955 25.1472C17.4946 25.104 17.4082 25.0032 17.4082 24.9023C17.3938 24.8159 18.2581 21.5172 19.3096 17.5703C20.8077 11.938 21.2687 10.4111 21.4416 10.4111C21.6288 10.4111 21.9601 11.4914 22.9973 15.3663Z" fill="white"/>
<mask id="mask0_1919_39" style="mask-type:alpha" maskUnits="userSpaceOnUse" x="3" y="1" width="18" height="16">
<path d="M6.4793 9.34763L8.51529 3.91833L15.3019 1.88234L20.7312 6.63298L3.76465 16.8129L6.4793 9.34763Z" fill="#D9D9D9"/>
</mask>
<g mask="url(#mask0_1919_39)">
<path d="M21.7755 6.48728C22.2797 7.02025 22.3373 7.20752 24.1523 13.9778C26.1402 21.4107 26.1546 21.5547 25.492 22.3038C25.0742 22.7791 16.8203 27.5327 16.2153 27.6479C15.956 27.6912 15.5526 27.6768 15.3222 27.5903C14.6451 27.3454 6.33356 22.5198 6.04547 22.2029C5.91582 22.0445 5.80058 21.6844 5.80058 21.3963C5.80058 20.8201 9.31536 7.53883 9.63227 6.93382C9.7331 6.73216 10.0068 6.41525 10.2085 6.2568C10.583 5.9687 10.7414 5.9543 15.9272 5.9543H21.2425L21.7755 6.48728ZM11.6057 7.62526C11.5337 7.81252 15.1925 21.9004 15.6103 23.0528C15.9272 23.9171 16.1288 23.3265 18.1599 15.7064C19.2979 11.5001 20.2198 7.94216 20.2054 7.81252C20.2054 7.68287 20.1622 7.53883 20.1046 7.49561C20.0613 7.43799 18.1455 7.39478 15.8551 7.39478C12.1675 7.39478 11.6922 7.42359 11.6057 7.62526ZM19.2403 17.5502C18.2031 21.4395 17.3388 24.7094 17.3388 24.839C17.3244 24.9686 17.4109 25.1127 17.5117 25.1559C17.5981 25.1847 19.1682 24.3636 20.9689 23.3265C23.3024 21.9869 24.2676 21.353 24.3252 21.137C24.3684 20.9641 23.7778 18.5153 23.0287 15.6919C22.2653 12.8542 21.6459 10.5062 21.6459 10.4774C21.6459 10.4342 21.5306 10.4198 21.3866 10.4486C21.1849 10.4918 20.7672 11.8603 19.2403 17.5502ZM8.8544 15.375C8.11976 18.0831 7.52916 20.4888 7.52916 20.6904C7.52916 20.8921 7.67321 21.2234 7.84607 21.4395C8.26381 21.9004 14.0257 25.2423 14.2562 25.1559C14.357 25.1127 14.4435 25.0119 14.4435 24.911C14.4579 24.8246 13.5936 21.5259 12.542 17.579C11.0439 11.9467 10.583 10.4198 10.4101 10.4198C10.2229 10.4198 9.89155 11.5001 8.8544 15.375Z" fill="white"/>
</g>
</svg>
