<svg width="24" height="24" viewBox="0 0 24 24" fill="none" xmlns="http://www.w3.org/2000/svg">
<path d="M12 24C18.6274 24 24 18.6274 24 12C24 5.37258 18.6274 0 12 0C5.37258 0 0 5.37258 0 12C0 18.6274 5.37258 24 12 24Z" fill="#C1C9DC"/>
<path d="M11.9995 21.3934V19.2835C12.2751 19.2835 12.5485 19.2683 12.8188 19.2382L13.0528 21.335C12.707 21.3736 12.3556 21.3934 11.9995 21.3934ZM14.0965 21.1585L13.6275 19.1014C13.8934 19.0408 14.1551 18.9652 14.4115 18.8753L15.1099 20.8662C14.7801 20.9819 14.4419 21.0797 14.0965 21.1585ZM16.0869 20.4599L15.1677 18.5608C15.413 18.442 15.6516 18.3095 15.8821 18.1639L17.0088 19.9477C16.7123 20.135 16.4046 20.3062 16.0869 20.4599ZM17.8664 19.3365L16.5476 17.6895C16.7609 17.5187 16.9646 17.336 17.1576 17.1425L18.6517 18.6322C18.4034 18.8812 18.1412 19.1164 17.8664 19.3365ZM19.9682 16.9761C19.7812 17.275 19.5778 17.5626 19.3593 17.8377L17.7072 16.5254C17.8771 16.3115 18.0349 16.0882 18.1797 15.8568L19.9682 16.9761ZM20.4836 16.0374L18.5791 15.1294C18.6962 14.8836 18.7995 14.6314 18.8883 14.3737L20.8831 15.0609C20.7679 15.3954 20.6343 15.7212 20.4836 16.0374ZM21.1651 14.0665L19.1064 13.6043C19.1659 13.3393 19.2106 13.0702 19.2402 12.798L21.3378 13.0259C21.2994 13.379 21.2415 13.7263 21.1651 14.0665ZM21.3931 11.9641L19.2832 11.972C19.2822 11.6965 19.266 11.4234 19.2348 11.1533L21.3308 10.9115C21.3707 11.257 21.3918 11.6082 21.3931 11.9641ZM21.1503 9.8681L19.095 10.345C19.0333 10.0791 18.9567 9.81763 18.8657 9.56143L20.854 8.85533C20.971 9.18484 21.0702 9.52282 21.1503 9.8681ZM20.4441 7.88035L18.5485 8.80678C18.4288 8.56185 18.2953 8.32381 18.1488 8.09377L19.9284 6.96034C20.1168 7.25617 20.2891 7.56325 20.4441 7.88035ZM19.3141 6.1054L17.6721 7.43028C17.5005 7.21761 17.3171 7.01462 17.1228 6.82235L18.6069 5.32268C18.8569 5.57007 19.0931 5.83139 19.3141 6.1054ZM17.8098 4.61806L16.5037 6.27509C16.2891 6.10597 16.0653 5.94901 15.8333 5.80505L16.9459 4.01232C17.2455 4.19826 17.5339 4.40059 17.8098 4.61806ZM16.0049 3.50037L15.1042 5.40833C14.858 5.29211 14.6054 5.18983 14.3473 5.10203L15.027 3.1046C15.3618 3.21854 15.6882 3.35086 16.0049 3.50037ZM14.0316 2.82644L13.5772 4.88682C13.3119 4.82833 13.0427 4.78464 12.7703 4.75608L12.9902 2.65769C13.3435 2.69472 13.691 2.75134 14.0316 2.82644ZM11.9288 2.60632L11.9443 4.71616C11.6688 4.71819 11.3956 4.73544 11.1256 4.76763L10.8758 2.67257C11.2214 2.63138 11.5727 2.60895 11.9288 2.60632ZM9.83325 2.85706L10.3179 4.91052C10.0524 4.97319 9.79131 5.05072 9.53551 5.14265L8.82191 3.1571C9.15091 3.03886 9.48841 2.93846 9.83325 2.85706ZM7.84813 3.57081L8.78178 5.46288C8.5373 5.58352 8.29976 5.71789 8.07027 5.86528L6.93012 4.08997C7.22524 3.90044 7.53165 3.72698 7.84813 3.57081ZM6.07774 4.70729L7.40875 6.34438C7.19673 6.51676 6.99443 6.70092 6.8029 6.89591L5.29771 5.41738C5.54416 5.16648 5.80459 4.92937 6.07774 4.70729ZM4.59547 6.2179L6.2575 7.51763C6.08923 7.7328 5.93317 7.95717 5.79013 8.18965L3.99315 7.08398C4.17792 6.78368 4.37911 6.49457 4.59547 6.2179ZM3.48495 8.02657L5.39634 8.92002C5.28108 9.16659 5.17978 9.41956 5.09297 9.67791L3.09297 9.00589C3.20563 8.6706 3.33669 8.34376 3.48495 8.02657ZM2.81858 10.0024L4.88068 10.449C4.8232 10.7144 4.78052 10.9839 4.75299 11.2564L2.65378 11.0444C2.68949 10.6909 2.74479 10.3432 2.81858 10.0024ZM2.60638 12.1055L4.71615 12.0823C4.71918 12.3576 4.73743 12.6305 4.7706 12.9004L2.67648 13.1578C2.63403 12.8125 2.61031 12.4614 2.60638 12.1055ZM2.86502 14.2005L4.91662 13.708C4.98028 13.9732 5.05877 14.2339 5.15164 14.4893L3.1688 15.2104C3.04934 14.8819 2.9477 14.5449 2.86502 14.2005ZM4.10931 17.0995C3.91853 16.8049 3.7438 16.499 3.58635 16.183L5.47486 15.2421C5.5965 15.4863 5.73186 15.7235 5.88022 15.9525L4.10931 17.0995ZM4.72987 17.9495L6.36186 16.6122C6.5351 16.8236 6.72009 17.0253 6.91587 17.2161L5.44314 18.727C5.19122 18.4814 4.95305 18.2218 4.72987 17.9495ZM6.24546 19.4254L7.53897 17.7586C7.75474 17.926 7.97966 18.0812 8.21265 18.2234L7.11371 20.0245C6.81274 19.8408 6.5229 19.6407 6.24546 19.4254ZM8.05864 20.5293L8.94479 18.6145C9.19182 18.7289 9.44521 18.8292 9.70394 18.915L9.03961 20.9176C8.70381 20.8062 8.37642 20.6764 8.05864 20.5293ZM10.4756 19.1243C10.7414 19.1808 11.011 19.2225 11.2837 19.249L11.0796 21.349C10.726 21.3146 10.3781 21.2606 10.037 21.1881L10.4756 19.1243Z" fill="white"/>
</svg>
