<svg width="28" height="28" viewBox="0 0 28 28" fill="none" xmlns="http://www.w3.org/2000/svg">
<path d="M11.7774 5.60895C12.747 5.62669 13.7165 5.61863 14.6861 5.67344C15.2597 5.70568 15.4455 5.27684 15.6152 4.92699C15.9933 4.1483 16.5847 3.93871 17.3927 4.01448C18.4107 4.1096 19.432 4.15958 20.4516 4.23052C21.552 4.30791 22.0029 5.00438 21.6199 6.05553C21.363 6.76006 21.1109 7.46782 20.8119 8.15139C20.6132 8.59636 20.6794 8.9575 20.9202 9.35571C21.7718 10.7761 22.5862 12.2206 23.4426 13.6393C23.8741 14.3551 24.1665 15.071 23.8951 15.9174C23.8356 16.1236 23.794 16.3345 23.7706 16.5477C23.3958 19.1853 22.8173 19.6109 20.4677 19.8592C19.8521 19.9237 19.5386 20.3284 19.154 20.7588C17.6739 22.4145 15.717 23.2835 13.6228 23.8833C13.0589 24.0445 12.4917 24.1702 11.9148 24.3121C11.0778 24.4991 10.2326 24.6571 9.40692 24.8796C7.76355 25.323 7.05417 24.4878 6.6809 23.2593C6.1428 21.5407 5.57239 19.8173 5.31384 18.0326C5.03429 16.1318 4.82908 14.2084 5.64995 12.3625C5.69241 12.2688 5.71544 12.1675 5.71766 12.0647C5.71988 11.9619 5.70125 11.8598 5.66288 11.7643C5.52714 11.3871 5.4512 10.9969 5.31384 10.6213C4.69334 9.02521 4.97451 8.26425 6.32217 7.16312C6.36256 7.12926 6.42881 7.12442 6.45952 7.08573C7.62135 5.61863 9.21786 5.50577 10.9049 5.64442C11.1962 5.65165 11.4877 5.6398 11.7774 5.60895ZM11.1149 7.43074C10.1551 7.41623 9.21624 7.1083 8.26932 7.76447C6.85703 8.73179 6.54516 9.84582 7.42906 11.3016C7.44198 11.3242 7.44522 11.3532 7.45653 11.3774C7.74739 11.953 7.73931 12.4802 7.32241 13.0219C7.04609 13.383 6.95398 13.8425 6.90227 14.3116C6.56455 17.3474 7.64559 20.1155 8.47454 22.9417C8.54887 23.1965 8.69107 23.2964 8.94962 23.2142C10.2957 22.7837 11.7209 22.658 13.0524 22.1695C14.6925 21.8471 16.1 21.041 17.425 20.0736C17.7586 19.8405 18.0147 19.5132 18.1602 19.1337C18.3218 18.6678 18.645 18.4582 19.0975 18.3792C19.4659 18.3147 19.8327 18.2341 20.2011 18.1632C21.7136 17.8681 21.6781 17.8601 22.0546 16.3365C22.2598 15.5046 22.1822 14.8082 21.6829 14.0795C21.0058 13.0976 20.4597 12.0255 19.8101 11.0163C19.0587 9.85388 18.5675 8.72211 19.2316 7.29854C19.8666 5.93623 19.7842 5.94268 18.2798 5.8137C17.509 5.7476 16.9467 5.85078 16.5896 6.6198C16.2826 7.27436 15.6928 7.45815 14.9737 7.44041C13.6923 7.40495 12.4028 7.42913 11.1133 7.43074H11.1149Z" fill="white"/>
</svg>
