<svg width="32" height="32" viewBox="0 0 32 32" fill="none" xmlns="http://www.w3.org/2000/svg">
<path d="M16 4C9.37333 4 4 9.37333 4 16C4 16.7173 4.06667 17.4187 4.18667 18.1H6.85133C7.192 18.1 7.396 17.9893 7.528 17.776L8.464 16.2253L9.66133 19.9433C9.77933 20.3173 10.0573 20.512 10.432 20.5147C10.816 20.5167 11.1327 20.2813 11.2073 19.8973L12.076 15.8033L13.0213 22.3313C13.0793 22.7607 13.288 22.9767 13.72 22.9767H13.7247C14.1547 22.9767 14.3607 22.744 14.4207 22.3167L16.348 9.61133C16.374 9.42201 16.324 9.2301 16.2087 9.07764C16.0935 8.92518 15.9226 8.82462 15.7333 8.798C15.5442 8.77267 15.3528 8.82293 15.2005 8.93788C15.0482 9.05283 14.9474 9.2232 14.92 9.412L13.732 17.5573L12.9327 12.1213C12.88 11.704 12.5633 11.4447 12.2173 11.4373C11.8267 11.428 11.536 11.6727 11.4547 12.088L10.3067 17.4067L9.39 14.5533C9.35217 14.4029 9.26984 14.2674 9.15375 14.1645C9.03766 14.0616 8.89322 13.9961 8.73933 13.9767C8.322 13.9267 8.084 14.1427 7.90866 14.428L6.49133 16.66H5.644C5.62877 16.4403 5.62076 16.2202 5.62 16C5.62 10.2667 10.2667 5.62 16 5.62C20.6227 5.62 24.5393 8.644 25.8807 12.82H27.5707C26.176 7.73666 21.5267 4 16 4Z" fill="white"/>
<path d="M27.8137 13.9001H25.1443C24.8037 13.9001 24.5997 14.0108 24.4677 14.2241L23.5317 15.7748L22.3337 12.0568C22.2163 11.6828 21.9377 11.4881 21.5637 11.4854C21.1797 11.4834 20.863 11.7188 20.7883 12.1028L19.9197 16.1968L18.9737 9.66877C18.9163 9.23944 18.707 9.02344 18.2757 9.02344H18.271C17.841 9.02344 17.635 9.2561 17.575 9.68344L15.647 22.3888C15.5917 22.7821 15.8677 23.1474 16.261 23.2021C16.4501 23.2274 16.6416 23.1772 16.7938 23.0622C16.9461 22.9473 17.0469 22.7769 17.0743 22.5881L18.263 14.4428L19.0623 19.8788C19.115 20.2961 19.4317 20.5554 19.777 20.5628C20.1683 20.5721 20.459 20.3274 20.5403 19.9121L21.6877 14.5934L22.6043 17.4468C22.6763 17.7568 22.9523 17.9868 23.255 18.0234C23.6723 18.0734 23.9103 17.8574 24.085 17.5721L25.5037 15.3401H26.3557C26.3703 15.5588 26.3797 15.7794 26.3797 16.0001C26.3797 21.7334 21.733 26.3801 15.9997 26.3801C11.377 26.3801 7.46035 23.3561 6.11902 19.1801H4.42969C5.82435 24.2634 10.4757 28.0001 16.0003 28.0001C22.627 28.0001 28.0003 22.6268 28.0003 16.0001C28.0003 15.2828 27.9337 14.5814 27.8137 13.9001Z" fill="white"/>
</svg>
