<svg width="20" height="20" viewBox="0 0 20 20" fill="none" xmlns="http://www.w3.org/2000/svg">
<g clip-path="url(#clip0_24442_7113)">
<path d="M20 11.3C20 9.12035 18.825 4.22501 12.9936 1.38469C10.3011 0.0732611 8.15177 -0.193465 7.65137 0.609824C6.55321 2.37272 11.2877 3.8665 14.454 5.60965C13.7734 5.94673 13.132 6.55165 12.7548 7.32527C11.5744 5.85576 8.98347 4.59029 5.94333 5.60965C3.89464 6.29657 2.19202 7.916 1.53397 10.362C1.37407 10.281 1.19704 10.2359 1.01078 10.2359C0.298547 10.2359 0 10.8943 0 11.7065C0 12.5186 0.298547 13.177 1.01078 13.177C1.1428 13.177 1.55558 13.076 1.55558 13.076H8.725C6.08704 17.848 3.42907 18.6 3.42907 19.4267C3.42907 20.2535 5.42379 20.0294 6.17277 19.7213C9.825 18.2186 12.9936 16.825 14.454 13.076C19.0591 14.2509 20 12.6813 20 11.3Z" fill="url(#paint0_linear_24442_7113)"/>
<path fill-rule="evenodd" clip-rule="evenodd" d="M14.383 5.57601C14.4069 5.58775 14.4306 5.59949 14.4542 5.61123C14.601 5.54534 14.5773 5.29832 14.537 5.10434C14.4443 4.65848 12.8462 2.86002 11.3454 2.05448C9.29812 0.955624 7.79117 1.01355 7.57129 1.52101C7.9855 2.49494 9.91833 3.4092 11.9371 4.3641C12.7714 4.75877 13.6205 5.16038 14.383 5.57601Z" fill="url(#paint1_linear_24442_7113)"/>
<path d="M1.45386 12.7576C1.69573 15.1007 2.86425 16.019 5.25201 16.2907C7.63976 16.5625 9.00942 16.3802 10.8329 16.5692C12.3558 16.7272 14.2944 17.8555 14.7989 17.5498C15.2529 17.2748 14.9989 16.281 14.3914 15.6435C13.6039 14.817 11.9353 13.9985 10.0176 13.7946C10.3998 12.6021 10.2927 10.9302 9.69916 10.0205C8.84096 8.70523 7.25688 8.11057 5.25201 8.37038C3.15738 8.64182 1.15032 9.81703 1.45386 12.7576Z" fill="url(#paint2_linear_24442_7113)"/>
<path d="M19.623 13.3399L19.8772 12.0031C19.8886 11.9431 19.8852 11.8813 19.8673 11.8229L19.4219 10.3728C19.3911 10.2724 19.3196 10.1896 19.2247 10.1444C19.1299 10.0992 19.0205 10.0959 18.9231 10.1351L16.1223 11.2651L13.8679 11.2653L11.0741 10.1353C10.9767 10.0959 10.8672 10.0991 10.7724 10.1443C10.6775 10.1894 10.6059 10.2722 10.575 10.3726L10.1296 11.8198C10.1115 11.8786 10.1082 11.9409 10.1199 12.0013L10.3772 13.3327L10.3619 13.3449C10.2729 13.4158 10.2208 13.5232 10.2204 13.637C10.22 13.7353 10.2583 13.8293 10.3259 13.8991C10.3063 13.9425 10.295 13.9897 10.2931 14.0383C10.289 14.143 10.3288 14.2446 10.4029 14.3186L10.42 14.3356C10.4087 14.3648 10.401 14.3955 10.3973 14.4271C10.3857 14.5262 10.4141 14.6259 10.4762 14.704L10.7624 15.0642L10.2012 16.9447C10.1813 17.0116 10.1803 17.0826 10.1986 17.1499L10.77 19.2613C10.7964 19.3589 10.8611 19.4417 10.9495 19.4909C11.0378 19.5401 11.1422 19.5516 11.2391 19.5227L13.0427 18.9851L13.2793 19.1953C13.2875 19.2025 13.2959 19.2094 13.3046 19.2158L14.0961 19.8046C14.1608 19.8527 14.2393 19.8787 14.3199 19.8787H15.6749C15.7557 19.8787 15.8342 19.8527 15.899 19.8044L16.6932 19.2128C16.7021 19.2062 16.7107 19.1991 16.719 19.1917L16.9494 18.9859L18.7582 19.5228C18.855 19.5516 18.9592 19.5401 19.0474 19.4909C19.1356 19.4418 19.2003 19.3592 19.2268 19.2617L19.8009 17.1505C19.8193 17.0829 19.8184 17.0115 19.7983 16.9445L19.2347 15.0641L19.5208 14.704C19.5828 14.6258 19.6112 14.5262 19.5996 14.4271C19.5959 14.3961 19.5885 14.366 19.5776 14.3374L19.5954 14.3198C19.6704 14.2456 19.7108 14.1432 19.7064 14.0377C19.7044 13.9886 19.6928 13.941 19.6729 13.8973C19.7371 13.8286 19.7735 13.7377 19.7738 13.6424C19.7742 13.5308 19.7247 13.4248 19.639 13.3533L19.623 13.3399Z" fill="#616161" stroke="white" stroke-width="0.75" stroke-linecap="round" stroke-linejoin="round"/>
<path d="M14.0992 15.917L12.8735 15.3421L13.7414 14.7033L14.1025 15.917H14.0992ZM15.8913 15.917L16.2557 14.698L17.1269 15.3368L15.8913 15.9223V15.917Z" fill="white"/>
</g>
<defs>
<linearGradient id="paint0_linear_24442_7113" x1="5.70478" y1="9.64696" x2="19.97" y2="13.1946" gradientUnits="userSpaceOnUse">
<stop stop-color="#7081F1"/>
<stop offset="1" stop-color="#AAA8FF"/>
</linearGradient>
<linearGradient id="paint1_linear_24442_7113" x1="14.1999" y1="6.35347" x2="0.824038" y2="-4.79659" gradientUnits="userSpaceOnUse">
<stop stop-color="#3B22A0"/>
<stop offset="0.238543" stop-color="#3D26A5" stop-opacity="0.92508"/>
<stop offset="1" stop-color="#5156D8" stop-opacity="0"/>
</linearGradient>
<linearGradient id="paint2_linear_24442_7113" x1="6.54069" y1="9.52277" x2="14.1964" y2="18.0585" gradientUnits="userSpaceOnUse">
<stop stop-color="#7081F2"/>
<stop offset="1" stop-color="#3E26A4"/>
</linearGradient>
<clipPath id="clip0_24442_7113">
<rect width="20" height="20" fill="white"/>
</clipPath>
</defs>
</svg>
