<svg width="32" height="32" viewBox="0 0 32 32" fill="none" xmlns="http://www.w3.org/2000/svg">
<path d="M17.7686 6.86699C17.8957 6.97099 17.8823 7.18549 17.7485 7.28299C17.6148 7.38049 17.4007 7.31549 17.3406 7.16599C17.2804 7.01649 17.3941 6.82799 17.5546 6.80199C17.6282 6.79549 17.7084 6.81499 17.7686 6.86699Z" fill="white"/>
<path d="M18.8532 7.78324C18.8465 7.81574 18.8398 7.84174 18.8398 7.87424C18.8465 7.93274 18.8866 7.97823 18.9401 7.99773C19.0806 8.06923 19.2879 7.96524 19.308 7.80924C19.3213 7.65331 19.1475 7.50381 18.9936 7.54931C18.9803 7.54281 18.9602 7.55581 18.9536 7.56881C18.8933 7.64031 18.88 7.70524 18.8532 7.78324Z" fill="white"/>
<path d="M18.1907 8.70088C18.0904 8.70088 17.9901 8.70088 17.8965 8.70088C17.8697 8.70088 17.843 8.70088 17.8229 8.72038C17.8095 8.73338 17.8095 8.75287 17.8029 8.77237C17.7894 8.85037 17.7828 8.92188 17.7761 8.99988C17.7694 9.09088 17.7694 9.20787 17.8496 9.25337C17.9031 9.27937 17.9634 9.27288 18.0169 9.28588C18.0636 9.29888 18.1038 9.32488 18.1506 9.31838C18.2442 9.31838 18.3044 9.22087 18.3245 9.12987C18.3446 9.03237 18.3513 8.93487 18.3044 8.84387C18.2576 8.75287 18.164 8.68788 18.0636 8.70088" fill="white"/>
<path d="M22.7047 11.5277C22.6378 11.4627 22.5576 11.4692 22.4706 11.4952C22.3904 11.5212 22.3435 11.5992 22.3502 11.6772C22.3502 11.7422 22.397 11.8072 22.4439 11.8527C22.5175 11.9242 22.6512 11.8592 22.7047 11.7942C22.7716 11.7292 22.7716 11.6057 22.7047 11.5277Z" fill="white"/>
<path d="M22.2361 12.62C22.2294 12.581 22.2026 12.516 22.1692 12.4835C22.129 12.4445 22.0488 12.464 22.002 12.4835C21.9619 12.503 21.9217 12.529 21.8883 12.5615C21.8749 12.5745 21.8615 12.581 21.8549 12.6005C21.8348 12.633 21.8281 12.6655 21.8214 12.7045C21.8214 12.724 21.8014 12.815 21.8214 12.828C21.9017 12.88 22.0087 12.893 22.1023 12.854C22.1826 12.8085 22.2495 12.711 22.2361 12.62Z" fill="white"/>
<path d="M10.713 20.8359C10.5859 20.8359 10.4655 20.8944 10.4053 20.9984C10.3451 21.1024 10.3652 21.2519 10.4588 21.3299C10.5591 21.4144 10.8868 21.4079 10.9805 21.3234C11.0741 21.2389 10.947 21.0894 10.8935 20.9659C10.8133 20.9204 10.7263 20.8749 10.6394 20.8359" fill="white"/>
<path d="M10.1312 18.6832C10.0911 18.7872 10.0577 18.8912 10.0376 19.0017C10.0309 19.0212 10.0309 19.0472 10.0443 19.0667C10.0644 19.0992 10.1045 19.1057 10.1446 19.1122C10.2449 19.1187 10.3586 19.1187 10.4188 19.0472C10.4389 19.0277 10.4523 18.9952 10.4589 18.9692C10.4924 18.8652 10.4723 18.7417 10.3787 18.6832C10.2851 18.6247 10.1379 18.6572 10.1179 18.7612" fill="white"/>
<path d="M11.6228 19.7508C11.6094 19.7183 11.5827 19.6663 11.5492 19.6533C11.5292 19.6468 11.4957 19.6533 11.469 19.6533C11.4422 19.6533 11.4222 19.6533 11.3954 19.6533C11.3754 19.6533 11.3553 19.6533 11.3419 19.6598C11.3152 19.6728 11.2884 19.7118 11.2684 19.7313C11.255 19.7378 11.2483 19.7443 11.2416 19.7573C11.2215 19.7898 11.2148 19.8353 11.2148 19.8743C11.2148 19.8873 11.2149 19.9913 11.2282 19.9913C11.2951 20.0043 11.5292 20.0238 11.5961 20.0368C11.6362 20.0433 11.5225 20.0563 11.5559 20.0303C11.5693 20.0173 11.5827 20.0043 11.5961 19.9848C11.6295 19.9068 11.6496 19.8223 11.6228 19.7508Z" fill="white"/>
<path d="M18.1762 26.7306C18.3033 26.8216 18.5107 26.7956 18.5976 26.6656C18.6645 26.5681 18.6511 26.4446 18.631 26.3276C18.6244 26.2951 18.6177 26.2626 18.5976 26.2431C18.5775 26.2236 18.5441 26.2171 18.5107 26.2171C18.417 26.2041 18.3367 26.2106 18.2432 26.2106C18.2297 26.2106 18.2164 26.2106 18.203 26.2106C18.1696 26.2236 18.1361 26.2496 18.1094 26.2756C18.0425 26.3406 18.0157 26.4186 18.0358 26.5096C18.0559 26.5941 18.1027 26.6786 18.1762 26.7306Z" fill="white"/>
<path d="M17.3268 25.4635C17.2331 25.5025 17.1863 25.613 17.2198 25.704C17.2733 25.7495 17.3401 25.7885 17.4137 25.795C17.4873 25.8015 17.5675 25.756 17.5809 25.6845C17.5943 25.626 17.5608 25.574 17.5274 25.522C17.494 25.47 17.4538 25.418 17.3936 25.3985C17.3335 25.3855 17.2532 25.4375 17.28 25.496" fill="white"/>
<path d="M22.0166 20.9528C21.9096 20.9203 21.7892 20.9658 21.7156 21.0438C21.6421 21.1283 21.6086 21.2388 21.6019 21.3428C21.5953 21.4013 21.6019 21.4598 21.6353 21.5053C21.6822 21.5638 21.7691 21.5703 21.8427 21.5508C21.9898 21.5248 22.1236 21.4208 22.1637 21.2843C22.2039 21.1478 22.1102 20.9723 21.9631 20.9528C22.0701 20.9398 21.943 20.8813 22.0166 20.9528Z" fill="white"/>
<path d="M22.4915 19.3086C22.3511 19.3346 22.2173 19.4321 22.2039 19.5686C22.1905 19.7051 22.3511 19.8351 22.4781 19.7701C22.6052 19.6531 22.5918 19.4256 22.4581 19.3151" fill="white"/>
<path d="M18.097 6.07455C18.0168 6.09405 17.9833 6.19805 18.0168 6.26955C18.0502 6.34105 18.1371 6.38005 18.2241 6.38005C18.2642 6.38005 18.3111 6.36705 18.3311 6.33455C18.3378 6.31505 18.3445 6.29555 18.3445 6.27605C18.3445 6.20455 18.3445 6.12655 18.3244 6.05505C18.2508 6.04855 18.1773 6.04855 18.1037 6.06155" fill="white"/>
<path d="M17.3608 7.22391C17.3006 7.23041 17.2337 7.23691 17.1802 7.26291C17.1267 7.28891 17.0799 7.34741 17.0866 7.40591C17.0932 7.48384 17.1802 7.53584 17.2538 7.56834C17.3139 7.59434 17.3942 7.62034 17.4477 7.57484C17.5012 7.52934 17.4812 7.45134 17.5213 7.39291C17.5347 7.37341 17.5547 7.35391 17.5614 7.32791C17.5681 7.28241 17.5146 7.24991 17.4678 7.24341C17.421 7.23691 17.3674 7.23041 17.3474 7.19141" fill="white"/>
<path d="M16.3653 5.82031C16.3051 5.85281 16.2382 5.89831 16.2047 5.95681C16.1379 6.06731 16.1914 6.24281 16.3184 6.26881C16.4455 6.29481 16.5592 6.18431 16.6261 6.07381C16.6328 6.06081 16.6394 6.04781 16.6394 6.03481C16.6394 6.02181 16.6261 6.00881 16.6127 6.00231C16.5392 5.95031 16.4656 5.89831 16.392 5.85281C16.3719 5.83981 16.3385 5.82681 16.3252 5.85281" fill="white"/>
<path d="M11.2078 6.96534C11.1744 7.04334 11.161 7.13434 11.1677 7.22534C11.2279 7.25784 11.3015 7.25134 11.3616 7.22534C11.4218 7.19284 11.4687 7.14734 11.5088 7.08884C11.5155 7.07584 11.5288 7.06284 11.5288 7.04334C11.5288 7.01734 11.5155 6.99134 11.4954 6.97184C11.4553 6.92634 11.4018 6.89384 11.3416 6.88734C11.2814 6.88084 11.2145 6.92634 11.2078 6.97834" fill="white"/>
<path d="M10.9066 8.02429C10.8531 8.05029 10.8464 8.13479 10.8798 8.18029C10.9199 8.22579 10.9868 8.24529 11.047 8.23879C11.0871 8.23229 11.134 8.21929 11.1473 8.18679C11.1741 8.13479 11.134 8.07629 11.0938 8.03729C11.0537 7.99179 10.9935 7.93979 10.9266 7.95929" fill="white"/>
<path d="M13.6148 4.68251C13.588 4.74751 13.588 4.82551 13.6081 4.89701C13.6415 4.94901 13.7218 4.96201 13.7753 4.92951C13.8288 4.89701 13.8556 4.83201 13.8488 4.76701C13.8355 4.69551 13.7552 4.62401 13.6883 4.65651" fill="white"/>
<path d="M19.4879 11.0398C19.4411 11.1178 19.4612 11.2348 19.5414 11.2868C19.6217 11.3388 19.7421 11.3128 19.7889 11.2348C19.8157 11.1958 19.8157 11.1373 19.8022 11.0918C19.7755 11.0268 19.7019 10.9813 19.6284 10.9813C19.5548 10.9748 19.4812 11.0073 19.4277 11.0528C19.4545 11.0593 19.4745 11.0723 19.5013 11.0788" fill="white"/>
<path d="M19.0535 20.5887C19.0468 20.6862 19 20.7772 19 20.8747C19 20.9722 19.0669 21.0827 19.1672 21.0827C19.2541 21.0827 19.3144 21.0047 19.3544 20.9332C19.3879 20.8877 19.4146 20.8357 19.4414 20.7902C19.4615 20.7642 19.4749 20.7317 19.4615 20.6992C19.4548 20.6862 19.4414 20.6732 19.428 20.6667C19.3144 20.5952 19.1739 20.5627 19.0334 20.5692" fill="white"/>
<path d="M19.0535 20.5887C19.0468 20.6862 19 20.7772 19 20.8747C19 20.9722 19.0669 21.0827 19.1672 21.0827C19.2541 21.0827 19.3144 21.0047 19.3544 20.9332C19.3879 20.8877 19.4146 20.8357 19.4414 20.7902C19.4615 20.7642 19.4749 20.7317 19.4615 20.6992C19.4548 20.6862 19.4414 20.6732 19.428 20.6667C19.3144 20.5952 19.1739 20.5627 19.0334 20.5692" stroke="white" stroke-width="0.5" stroke-miterlimit="10"/>
<path d="M18.4648 19.4638C18.4983 19.5353 18.5518 19.6068 18.6253 19.6263C18.7524 19.6653 18.8996 19.5158 18.8461 19.3988C18.7926 19.2818 18.5785 19.2753 18.525 19.3988" fill="white"/>
<path d="M15.7363 21.2062C15.6895 21.3232 15.7898 21.4662 15.917 21.4857C16.044 21.5052 16.1711 21.4012 16.2045 21.2777C16.2112 21.2582 16.2112 21.2322 16.1978 21.2127C16.1845 21.1932 16.1644 21.1867 16.1376 21.1802C16.0306 21.1542 15.917 21.1282 15.8099 21.0957C15.7965 21.1282 15.7832 21.1672 15.7765 21.1997" fill="white"/>
<path d="M10.7393 16.513C10.7259 16.5715 10.7059 16.63 10.7193 16.6885C10.7259 16.747 10.7661 16.8054 10.8263 16.8184C10.8931 16.8379 10.9667 16.7859 10.9935 16.721C11.0202 16.656 11.0202 16.5845 11.0135 16.5195C10.9333 16.5065 10.853 16.4935 10.7794 16.4805" fill="white"/>
<path d="M10.1044 25.2682C10.0776 25.3527 10.0575 25.4632 10.1311 25.5217C10.2114 25.5867 10.3251 25.5282 10.4254 25.5477C10.4455 25.4697 10.4521 25.3852 10.4321 25.3072C10.412 25.2292 10.3518 25.1512 10.2716 25.1382C10.1913 25.1187 10.0977 25.1837 10.1044 25.2682C10.1177 25.2682 10.1445 25.2682 10.1646 25.2682H10.1044Z" fill="white"/>
<path d="M11.6289 25.8336C11.6289 25.9376 11.6289 26.0351 11.6356 26.1391C11.7092 26.1521 11.7894 26.1586 11.8697 26.1716C11.8897 26.1716 11.9165 26.1781 11.9366 26.1651C11.9566 26.1521 11.9633 26.1261 11.97 26.1001C11.9968 25.9896 11.9968 25.8661 11.9165 25.7816C11.8362 25.7036 11.6623 25.7231 11.649 25.8336" fill="white"/>
<path d="M18.5387 26.0152C18.4651 26.0737 18.425 26.1777 18.4651 26.2622C18.5052 26.3467 18.6256 26.3922 18.7059 26.3337C18.7393 26.2622 18.7727 26.1842 18.7594 26.1062C18.746 26.0282 18.639 25.9697 18.5721 26.0217" fill="white"/>
<path d="M22.2025 26.0296C22.1892 26.0816 22.1825 26.1401 22.2025 26.1921C22.2226 26.2441 22.2962 26.2766 22.343 26.2441C22.363 26.2311 22.3698 26.2116 22.3765 26.1921C22.4032 26.1336 22.4165 26.0751 22.4099 26.0166C22.4032 25.9581 22.3564 25.8996 22.2962 25.8931C22.236 25.8866 22.1691 25.9451 22.1892 25.9971" fill="white"/>
<path d="M21.8428 18.2095C21.8294 18.268 21.8094 18.3265 21.8228 18.385C21.8361 18.4435 21.8829 18.502 21.9431 18.4955C22.0368 18.4955 22.0769 18.385 22.0903 18.294C22.1036 18.216 22.1036 18.112 22.0301 18.0795C21.9498 18.047 21.8763 18.1315 21.8294 18.1965" fill="white"/>
<path d="M22.5176 8.40729C22.5042 8.46579 22.4975 8.53079 22.5242 8.58279C22.551 8.63479 22.6246 8.66729 22.6781 8.63479C22.7048 8.62179 22.7182 8.59579 22.7316 8.56979C22.7517 8.51779 22.7717 8.46579 22.7583 8.41379C22.7449 8.36179 22.7048 8.30979 22.6513 8.30329C22.5978 8.29679 22.5377 8.34879 22.551 8.40079" fill="white"/>
<path d="M22.1504 9.27841C22.1504 9.34991 22.1504 9.41491 22.1571 9.48641C22.2575 9.49941 22.3577 9.42791 22.3711 9.33041C22.3845 9.23291 22.3042 9.13541 22.204 9.12891C22.2106 9.17441 22.1972 9.21991 22.1772 9.25891" fill="white"/>
<path d="M23.0318 9.44201C23.0051 9.51351 22.985 9.59151 22.9984 9.66951C23.0117 9.74751 23.092 9.81251 23.1656 9.79951C23.2659 9.78001 23.286 9.64351 23.2793 9.53951C23.2726 9.46801 23.2659 9.38351 23.2057 9.34451C23.1455 9.30551 23.0318 9.35101 23.0586 9.41601" fill="white"/>
<path d="M17.2346 10.253C16.0107 9.30403 14.6262 9.14803 13.195 9.77196C10.9009 10.773 10.2856 13.7369 11.6634 15.2123C11.8573 15.4203 12.0045 15.6608 12.2051 15.8688C12.3857 16.0573 12.4459 16.2588 12.4325 16.5123C12.4125 16.8633 12.379 17.2208 12.4325 17.6042L13.6097 17.6562L13.6297 16.8438L14.0844 16.8568V16.8633C14.0844 16.8698 14.0844 16.8763 14.0844 16.8828C14.0844 16.8893 14.0844 16.9023 14.0844 16.9088C14.0844 16.9218 14.0844 16.9348 14.0844 16.9413C14.0844 16.9543 14.0844 16.9673 14.0844 16.9803C14.0844 16.9933 14.0844 17.0128 14.0844 17.0258C14.0844 17.0453 14.0844 17.0583 14.0844 17.0778C14.0844 17.0973 14.0844 17.1168 14.0844 17.1363C14.0844 17.1558 14.0844 17.1753 14.0844 17.1948C14.0844 17.2143 14.0844 17.2338 14.0844 17.2533C14.0844 17.2728 14.0844 17.2923 14.0844 17.3118C14.0844 17.3313 14.0844 17.3508 14.0844 17.3703C14.0844 17.3898 14.0844 17.4028 14.0844 17.4223C14.0844 17.4353 14.0844 17.4548 14.0844 17.4743C14.0844 17.4873 14.0844 17.5068 14.0844 17.5198C14.0844 17.5328 14.0844 17.5458 14.0844 17.5588C14.0844 17.5653 14.0844 17.5783 14.0844 17.5912C14.0844 17.5977 14.0844 17.6042 14.0844 17.6107C14.0844 17.6302 14.0778 17.6497 14.0778 17.6757C14.0844 17.6757 14.0844 17.6757 14.0912 17.6757H14.0979H14.1045C14.1112 17.6757 14.1246 17.6757 14.1313 17.6757C14.1514 17.6757 14.1714 17.6757 14.1915 17.6757C14.2717 17.6757 14.3453 17.6822 14.4256 17.6822C14.5192 17.6887 14.6195 17.6887 14.7199 17.6952C14.8068 17.7017 14.9004 17.7017 14.9874 17.7082C15.0409 17.7082 15.0944 17.7147 15.1546 17.7147C15.1612 17.7147 15.1679 17.7147 15.1747 17.7147C15.188 17.7147 15.1947 17.7147 15.2081 17.7082C15.2081 17.6887 15.2147 17.6627 15.2147 17.6432V17.6367C15.2147 17.6302 15.2147 17.6172 15.2214 17.6107C15.2214 17.5913 15.2282 17.5718 15.2282 17.5588C15.2282 17.5458 15.2282 17.5328 15.2282 17.5198C15.2282 17.5068 15.2282 17.4938 15.2282 17.4873C15.2282 17.4743 15.2282 17.4678 15.2282 17.4548C15.2282 17.4418 15.2282 17.4288 15.2282 17.4158C15.2282 17.4028 15.2282 17.3833 15.2282 17.3638C15.2282 17.3443 15.2282 17.3248 15.2282 17.3118C15.2282 17.2923 15.2282 17.2728 15.2282 17.2533C15.2282 17.2338 15.2282 17.2143 15.2282 17.1948C15.2282 17.1753 15.2282 17.1558 15.2282 17.1363C15.2282 17.1168 15.2282 17.0973 15.2282 17.0778C15.2282 17.0648 15.2282 17.0453 15.2282 17.0258C15.2282 17.0128 15.2282 16.9998 15.2282 16.9868C15.2282 16.9738 15.2282 16.9673 15.2282 16.9543C15.2282 16.9478 15.2282 16.9413 15.2282 16.9348V16.9283L15.6829 16.9413L15.6629 17.7472C15.7364 17.7472 16.9002 17.7992 16.9002 17.7992C16.9002 17.5653 16.9002 17.3313 16.9002 17.0908C16.9002 16.9803 16.9002 16.8698 16.9002 16.7593C16.9002 16.7268 16.9002 16.6943 16.8934 16.6683C16.8934 16.5903 16.8934 16.5123 16.9069 16.4408C16.9202 16.3628 16.9469 16.2783 17.0004 16.2133C17.0139 16.2003 17.0272 16.1808 17.0406 16.1678C17.0607 16.1483 17.074 16.1353 17.0941 16.1158C17.1275 16.0833 17.161 16.0443 17.1944 16.0118C17.2613 15.9403 17.3282 15.8753 17.3951 15.8038C17.4619 15.7323 17.5222 15.6673 17.589 15.5958C17.6559 15.5243 17.7161 15.4593 17.7763 15.3878C17.8365 15.3163 17.9034 15.2513 17.9636 15.1798C18.0237 15.1083 18.0839 15.0433 18.1442 14.9718C18.1776 14.9393 18.2043 14.9004 18.2378 14.8679C18.4652 14.5949 18.6257 14.2894 18.6792 13.9384C18.9199 12.4369 18.4451 11.189 17.2346 10.253ZM13.4424 16.6293C13.429 16.6293 13.4157 16.6293 13.3956 16.6293C13.3889 16.6293 13.3822 16.6293 13.3755 16.6293C13.3755 16.6618 13.3755 16.6943 13.3755 16.7268C13.3755 16.7918 13.3689 16.8633 13.3689 16.9283C13.3622 17.0648 13.3555 17.2078 13.3555 17.3443L12.7602 17.3183C12.7602 17.2598 12.7669 17.2013 12.7669 17.1428C12.7736 17.0128 12.7803 16.8828 12.7803 16.7463C12.787 16.6098 12.7937 16.4668 12.7937 16.3303C12.7937 16.2783 12.8004 16.2263 12.8004 16.1743C12.8004 16.1483 12.7937 16.1223 12.7937 16.1028C12.7937 16.0768 12.787 16.0508 12.787 16.0248C12.787 16.0118 12.7803 16.0053 12.7803 15.9923C12.7736 15.9858 12.7736 15.9728 12.7669 15.9663C12.7602 15.9468 12.7535 15.9273 12.7402 15.9078C12.7201 15.8688 12.7 15.8298 12.68 15.7908C12.6599 15.7518 12.6332 15.7193 12.6064 15.6803C12.593 15.6608 12.573 15.6348 12.5529 15.6153C12.272 15.2838 12.0045 14.9393 11.737 14.5949C11.3557 14.0879 11.2889 13.4964 11.3624 12.8984C11.5296 11.553 12.2519 10.578 13.5427 10.0775C14.8202 9.58353 16.0307 9.79146 17.0473 10.682C18.0839 11.5855 18.4652 12.7359 18.1307 14.0814C18.0505 14.4259 17.8231 14.6729 17.5957 14.9198C17.3148 15.2253 17.0272 15.5243 16.7397 15.8233C16.7262 15.8363 16.7129 15.8428 16.7062 15.8558C16.7062 15.8623 16.7062 15.8623 16.6995 15.8688C16.6928 15.8753 16.6928 15.8818 16.6862 15.8883C16.6794 15.9013 16.6661 15.9143 16.6594 15.9273C16.6527 15.9338 16.6527 15.9403 16.646 15.9468C16.6393 15.9533 16.6393 15.9533 16.6393 15.9598C16.6259 15.9858 16.6126 16.0118 16.5992 16.0378C16.5724 16.0963 16.5591 16.1613 16.5457 16.2263C16.539 16.2588 16.539 16.2913 16.539 16.3238C16.539 16.3368 16.539 16.3563 16.539 16.3693C16.539 16.3758 16.539 16.3823 16.539 16.3953C16.539 16.4083 16.539 16.4213 16.539 16.4343C16.539 16.4538 16.539 16.4798 16.539 16.4993C16.539 16.5383 16.539 16.5708 16.539 16.6098C16.539 16.6813 16.539 16.7593 16.539 16.8308C16.539 16.9023 16.539 16.9803 16.539 17.0518C16.539 17.1233 16.539 17.2013 16.539 17.2728C16.539 17.3118 16.539 17.3443 16.539 17.3833C16.539 17.4028 16.539 17.4223 16.539 17.4418C16.539 17.4483 16.539 17.4548 16.539 17.4613V17.4678C16.5323 17.4743 16.5256 17.4678 16.5256 17.4678C16.5189 17.4678 16.5056 17.4678 16.4989 17.4678C16.4654 17.4678 16.4253 17.4678 16.3919 17.4613C16.2447 17.4548 16.0976 17.4483 15.9504 17.4418C15.9572 17.3183 15.9572 17.1948 15.9638 17.0778C15.9638 17.0388 15.9705 16.9933 15.9705 16.9543C15.9705 16.9023 15.9705 16.8568 15.9705 16.8048C15.9705 16.7853 15.9705 16.7723 15.9705 16.7528L15.8836 16.7398C15.8502 16.7333 15.8167 16.7268 15.7832 16.7268C15.7097 16.7203 15.6428 16.7138 15.5692 16.7073C15.4957 16.7008 15.4221 16.7008 15.3485 16.7008C15.2749 16.7008 15.2014 16.7008 15.1278 16.7008C15.0677 16.7008 15.0007 16.7008 14.9405 16.7008L14.9138 17.4483L14.3186 17.4223L14.3453 16.6878C14.3119 16.6813 14.2717 16.6748 14.2383 16.6683C14.1647 16.6553 14.0979 16.6488 14.0243 16.6423C13.9507 16.6358 13.8772 16.6358 13.8036 16.6293C13.73 16.6293 13.6564 16.6293 13.5829 16.6228C13.5494 16.6228 13.5093 16.6228 13.4759 16.6228" fill="white"/>
<path d="M14.9272 14.459C14.9204 14.4525 14.9204 14.4395 14.9138 14.433C14.9004 14.4135 14.8937 14.3875 14.8804 14.368C14.8737 14.355 14.8669 14.342 14.8603 14.329C14.8536 14.316 14.8469 14.3095 14.8402 14.2965C14.8134 14.2575 14.7934 14.212 14.7667 14.173C14.7533 14.1535 14.7466 14.134 14.7332 14.108C14.7332 14.1015 14.7265 14.095 14.7265 14.095C14.7265 14.0885 14.7198 14.082 14.7198 14.082C14.7132 14.082 14.7132 14.082 14.7132 14.0885C14.7132 14.095 14.7064 14.095 14.7064 14.1015C14.7064 14.108 14.6998 14.1145 14.6998 14.121C14.6931 14.134 14.6864 14.147 14.6797 14.1535C14.6529 14.1925 14.6262 14.238 14.6062 14.277C14.5794 14.316 14.5527 14.3615 14.5326 14.4005C14.4992 14.4525 14.4724 14.5045 14.4389 14.563C14.4256 14.5825 14.4189 14.602 14.4055 14.615C14.3921 14.6345 14.3787 14.654 14.3721 14.6735C14.3587 14.693 14.3453 14.7125 14.3319 14.7385C14.3185 14.758 14.3052 14.784 14.2918 14.8035C14.2784 14.8295 14.265 14.849 14.2517 14.875C14.2383 14.901 14.2249 14.9205 14.2115 14.9465C14.1982 14.9725 14.1848 14.9985 14.1714 15.018C14.158 15.044 14.1447 15.07 14.1313 15.0895C14.1179 15.1155 14.1045 15.135 14.0912 15.161C14.0778 15.187 14.0644 15.2065 14.051 15.2325C14.0377 15.2585 14.0243 15.278 14.0109 15.304C13.9975 15.3235 13.9842 15.3495 13.9708 15.369C13.9574 15.3885 13.944 15.408 13.9373 15.4275C13.9239 15.447 13.9173 15.4665 13.9039 15.486C13.8972 15.5055 13.8838 15.5185 13.8772 15.538C13.8704 15.551 13.8571 15.564 13.8504 15.5835C13.8437 15.5965 13.837 15.6095 13.8303 15.6225C13.8237 15.629 13.8169 15.642 13.8169 15.6485C13.8102 15.655 13.8102 15.6615 13.8036 15.668L13.7969 15.6745H13.8036C13.8437 15.6745 13.8772 15.6745 13.9173 15.681C13.9239 15.681 13.9307 15.681 13.944 15.681C13.9507 15.681 13.9641 15.681 13.9708 15.681C13.9774 15.681 13.9774 15.681 13.9842 15.681C13.9908 15.681 13.9975 15.681 14.0042 15.681C14.0109 15.681 14.0176 15.681 14.0309 15.681C14.0377 15.681 14.051 15.681 14.0577 15.681C14.0711 15.681 14.0844 15.681 14.0912 15.681C14.1045 15.681 14.1179 15.681 14.1313 15.681C14.1447 15.681 14.158 15.681 14.1714 15.681C14.1848 15.681 14.2049 15.681 14.2182 15.681C14.2316 15.681 14.2517 15.681 14.265 15.681C14.2851 15.681 14.2985 15.681 14.3185 15.681C14.3386 15.681 14.352 15.681 14.3721 15.681C14.3921 15.681 14.4122 15.681 14.4256 15.681C14.4457 15.681 14.4657 15.681 14.4857 15.681C14.5058 15.681 14.5259 15.681 14.5459 15.681C14.566 15.681 14.5861 15.681 14.6062 15.681C14.6262 15.681 14.6462 15.681 14.6663 15.681C14.6864 15.681 14.7064 15.681 14.7265 15.681C14.7466 15.681 14.7667 15.681 14.7867 15.681C14.8068 15.681 14.8269 15.681 14.8469 15.681C14.8669 15.681 14.887 15.681 14.9071 15.681C14.9272 15.681 14.9472 15.681 14.9606 15.681C14.9807 15.681 14.994 15.681 15.0141 15.681C15.0342 15.681 15.0475 15.681 15.0676 15.681C15.081 15.681 15.1011 15.681 15.1144 15.681C15.1278 15.681 15.1479 15.681 15.1612 15.681C15.1746 15.681 15.188 15.681 15.2014 15.681C15.2147 15.681 15.2282 15.681 15.2415 15.681C15.2549 15.681 15.2616 15.681 15.2749 15.681L15.5157 15.6875C15.5224 15.6875 15.5224 15.6875 15.5224 15.6875C15.509 15.6485 15.4889 15.616 15.4756 15.577C15.4354 15.486 14.9339 14.472 14.9272 14.459C14.9272 14.4655 14.9272 14.4655 14.9272 14.459ZM14.2383 15.4405C14.3988 15.174 14.5459 14.9335 14.7132 14.654C14.8269 14.953 14.9204 15.187 15.0342 15.473C14.7599 15.46 14.5326 15.447 14.2383 15.4405Z" fill="white"/>
<path d="M10.4453 10.4297C10.4453 10.4622 10.452 10.4882 10.452 10.5142L10.4453 10.4297ZM10.4453 10.4297C10.4453 10.4622 10.452 10.4882 10.452 10.5142L10.4453 10.4297Z" fill="white"/>
<path d="M10.4453 10.4297C10.4453 10.4622 10.452 10.4882 10.452 10.5142M10.4453 10.4297C10.4453 10.4622 10.452 10.4882 10.452 10.5142L10.4453 10.4297Z" stroke="white" stroke-width="2" stroke-miterlimit="10"/>
<path d="M24.6043 22.8437C24.2632 22.5772 24.0091 22.2327 23.688 21.9337C23.7081 21.6022 23.7482 21.3032 23.7482 21.0042C23.7415 20.1853 23.795 19.3663 23.7282 18.5473C23.688 18.0469 23.8285 17.5659 23.969 17.0849C24.2432 16.1684 24.0893 15.2259 23.9489 14.3224C23.8485 13.6789 23.8352 13.0549 23.882 12.418C23.9288 11.859 23.9355 11.3 23.9823 10.741C24.0425 9.94809 24.1161 9.16809 23.9087 8.36859C23.7282 7.69259 23.688 6.98416 23.4072 6.33416C23.1865 5.82716 23.1865 5.82716 22.5042 4.94966C21.8957 4.32573 21.802 4.31923 21.2803 4.01373C20.879 3.77973 20.4845 3.55873 19.9962 3.51323C19.3742 3.45473 18.7991 3.18823 18.1837 3.09073C17.1137 2.92173 16.057 3.01273 15.0002 3.16873C13.5824 3.38323 12.1846 3.64973 11.0944 4.70273C10.5794 5.20316 10.0511 5.67766 9.83036 6.37316C9.77016 6.56816 9.6364 6.73716 9.53609 6.91266C9.07461 7.67309 9.18161 8.01759 9.11474 9.00559C9.15486 9.07709 9.0211 9.50609 8.97429 9.62309C8.91409 10.286 8.90741 9.86359 8.91409 10.1496C8.93416 11.014 8.94084 11.8785 8.94754 12.7365C8.95422 13.5164 8.98766 14.2964 8.84052 15.0634C8.68001 15.8759 8.69339 16.6949 8.6867 17.5139C8.6867 17.6959 8.69339 17.8844 8.64657 18.0599C8.50612 18.6708 8.53956 19.2818 8.573 19.8928C8.61981 20.7248 8.57969 21.5502 8.68001 22.4017C8.18509 22.7787 7.69686 23.1557 7.20195 23.5197C7.02806 23.6432 6.92773 23.7797 6.92773 24.0007C6.94111 24.9172 6.94111 25.8337 6.9478 26.7501C6.9478 26.9971 7.06818 27.1336 7.32902 27.1531C8.53956 27.2246 9.74341 27.2961 10.9473 27.3741C12.5123 27.4716 14.0706 27.5626 15.6356 27.6601C17.408 27.7706 19.1803 27.8876 20.9526 27.9981C21.1934 28.0111 21.4141 27.9591 21.6215 27.8356C22.5511 27.2896 23.4874 26.7436 24.4237 26.2106C24.6511 26.0807 24.7381 25.9117 24.7381 25.6582C24.7447 24.8587 24.7648 24.0592 24.7849 23.2662C24.7849 23.1037 24.7515 22.9542 24.6043 22.8437ZM9.21506 18.7358C9.29531 18.1898 9.36888 17.6504 9.35551 17.0979C9.33544 16.3829 9.42239 15.6809 9.52939 14.9789C9.67653 14.0039 9.62303 13.0224 9.60296 12.041C9.59628 11.6835 9.58959 11.326 9.59628 10.975C9.59628 10.884 9.60296 10.793 9.60965 10.702C9.61634 10.65 9.62303 10.598 9.62303 10.5395C9.62303 10.5135 9.64309 10.494 9.66316 10.4745C9.68991 10.442 9.72335 10.4095 9.7501 10.377C9.75679 10.3705 9.76348 10.364 9.77685 10.3575C9.78354 10.3575 9.79691 10.3575 9.80361 10.364C9.92399 10.416 10.1313 10.6045 10.138 10.6175C10.138 10.624 10.3788 10.7995 10.3788 10.806C10.3855 10.8125 10.2316 11.1375 10.2316 11.1505C10.5192 11.1505 10.4457 11.0595 10.6797 10.65C10.6931 10.624 10.4457 10.4615 10.4457 10.429C10.4055 10.39 10.3922 10.338 10.3721 10.2925C10.352 10.234 10.3186 10.1821 10.2851 10.1366C10.2651 10.1106 10.245 10.0911 10.225 10.0651C10.2049 10.0456 10.1848 10.0261 10.1648 10.0066C10.1514 9.99359 10.1447 9.98059 10.1447 9.96109C10.138 9.93509 10.1246 9.91559 10.1179 9.88959C10.0912 9.83109 10.0644 9.76609 10.0444 9.70109C9.99756 9.57759 9.95743 9.44759 9.9173 9.31759C9.87717 9.18759 9.83704 9.05759 9.79023 8.92759C9.76348 8.85609 9.73672 8.79109 9.70997 8.71959C9.75679 8.10859 9.87717 7.52366 10.2918 7.02966C10.3855 6.91266 10.4457 6.76316 10.4925 6.62666C10.6797 6.02866 11.0944 5.59966 11.5693 5.21616C11.8635 4.97566 12.1311 4.68973 12.4721 4.52723C12.4788 4.52073 12.5056 4.54023 12.5123 4.54023C12.5257 4.54673 12.539 4.55323 12.5524 4.55973C12.5792 4.57923 12.5992 4.59873 12.6126 4.62473C12.6393 4.65723 12.646 4.70273 12.6661 4.73523C12.6795 4.76773 12.6929 4.80673 12.7062 4.83923C12.733 4.91066 12.7597 4.97566 12.7798 5.04716C12.7865 5.06016 12.7865 5.06666 12.7932 5.07316C12.7932 5.07966 12.7999 5.08616 12.7999 5.08616C12.7999 5.08616 12.8132 5.09266 12.8199 5.09266C12.8467 5.09916 12.8734 5.11216 12.9002 5.11866C12.9069 5.11866 12.8734 5.29416 12.8734 5.30716V5.33966C12.8734 5.36566 12.8667 5.39816 12.8667 5.42416C12.8601 5.48266 12.8601 5.54116 12.8534 5.59966C12.8534 5.61916 12.8467 5.64516 12.8534 5.66466C12.8601 5.68416 12.8667 5.69716 12.8734 5.71666C12.9269 5.82066 12.9537 6.21066 12.9537 6.21066C12.9537 6.21066 13.0406 5.98966 13.0339 5.97666C13.0273 5.95716 13.0273 5.94416 13.0206 5.92466C13.0139 5.89216 13.0072 5.85316 13.0005 5.82066C12.9938 5.77516 12.9871 5.72966 12.9804 5.67766C12.9804 5.65816 12.9738 5.64516 12.9738 5.62566C12.9738 5.61266 12.9671 5.60616 12.9738 5.59316C12.9804 5.57366 12.9871 5.55416 13.0005 5.54116C13.0072 5.52166 13.0206 5.50216 13.0273 5.48266C13.0273 5.48266 13.0674 5.48916 13.0741 5.49566C13.0875 5.50216 13.1008 5.50866 13.1142 5.50866C13.1543 5.51516 13.1878 5.52816 13.2212 5.54766C13.2346 5.55416 13.248 5.56066 13.2613 5.57366C13.268 5.58666 13.2747 5.59966 13.2814 5.61266C13.3148 5.69716 13.3483 5.78816 13.3884 5.87266C13.3951 5.88566 13.4018 5.90516 13.4152 5.91816C13.4285 5.93116 13.442 5.93766 13.4553 5.94416C13.5422 5.99616 13.6359 6.04816 13.7228 6.10016C13.6827 6.03516 13.6225 5.98316 13.569 5.91816C13.4887 5.82066 13.4352 5.70366 13.4152 5.58016C13.4085 5.55416 13.4085 5.52816 13.4085 5.50216C13.3416 5.45666 13.2747 5.41766 13.2078 5.37216C13.1811 5.35266 13.1476 5.33966 13.1276 5.32016C13.1209 5.31366 13.1142 5.30066 13.1142 5.28766C13.1075 5.26816 13.1008 5.25516 13.0941 5.23566C13.0674 5.16416 13.0473 5.09266 13.0206 5.02766C13.0139 5.00816 13.0072 4.98216 12.9871 4.97566C12.9804 4.96916 12.9671 4.96916 12.9537 4.96266C12.9336 4.94966 12.9269 4.92366 12.9202 4.90416C12.9136 4.87816 12.9069 4.84573 12.9002 4.81973C12.8935 4.80023 12.8868 4.77423 12.8868 4.74823V4.72223C12.8801 4.67673 12.8667 4.63123 12.8667 4.58573C12.8601 4.46873 12.8868 4.35173 12.9537 4.24773C14.9935 3.95523 17.0535 3.71473 18.8459 5.24216V6.15216C18.8459 6.17816 18.8459 6.21066 18.8325 6.23666C18.8258 6.24316 18.8258 6.24966 18.8191 6.26266C18.8125 6.28216 18.8057 6.30166 18.7924 6.31466C18.7723 6.34716 18.7522 6.37966 18.7255 6.41866C18.6987 6.45766 18.672 6.49666 18.6586 6.54216C18.6653 6.53566 18.672 6.53566 18.6787 6.52916L18.6987 6.50966C18.7121 6.49666 18.7322 6.48366 18.7455 6.47716C18.779 6.45766 18.8057 6.43166 18.8325 6.40566C18.8459 6.39266 18.8526 6.37966 18.866 6.36016C18.8793 6.34066 18.8927 6.30816 18.9061 6.28866C18.9262 6.26916 18.9395 6.23666 18.9462 6.20416C18.9529 6.19116 18.9596 6.18466 18.9596 6.17166C18.9662 6.15866 18.9662 6.14566 18.973 6.12616C18.9797 6.09366 18.9863 6.06766 18.993 6.03516C19.0197 5.90516 19.0265 5.77516 19.0465 5.64516C19.0532 5.59316 19.0666 5.54766 19.08 5.49566C19.6351 5.91816 20.2102 6.28866 20.2905 7.02966C20.3574 7.65359 20.4711 8.26459 20.6517 8.86909C20.7052 9.04459 20.752 9.22659 20.752 9.40859C20.752 10.624 20.8122 11.833 20.6115 13.0419C20.5045 13.6854 20.5112 14.3549 20.5045 15.0114C20.5045 15.7134 20.4644 16.4154 20.3975 17.1109C20.3306 17.7934 20.3306 18.4693 20.5045 19.1323C20.5982 19.4833 20.538 19.8343 20.4978 20.1918C20.4176 20.8872 20.3842 21.5892 20.3373 22.2912C20.324 22.4602 20.3306 22.6357 20.257 22.8177C16.6187 22.6227 12.9871 22.4277 9.33544 22.2262C9.33544 22.2262 9.32206 22.1157 9.32206 22.1092C9.31538 22.0637 9.30869 22.0182 9.302 21.9727C9.28862 21.8817 9.28194 21.7972 9.27525 21.7062C9.26856 21.6152 9.27525 21.5307 9.28194 21.4462V21.4137C9.28194 21.3812 9.28862 21.3422 9.29531 21.3162C9.302 21.2837 9.30869 21.2447 9.31538 21.2122C9.33544 21.1342 9.35551 21.0562 9.38894 20.9782C9.39564 20.9652 9.39564 20.9587 9.40232 20.9457C9.40901 20.9392 9.42239 20.9327 9.43576 20.9262C9.60965 20.8612 9.77685 20.7962 9.95074 20.7313C9.97081 20.7248 9.97749 20.6988 9.99087 20.6793C10.0043 20.6598 10.0176 20.6403 10.0377 20.6208C10.0511 20.6078 10.0711 20.5948 10.0845 20.5818C10.1113 20.5558 10.1246 20.5233 10.138 20.4908C10.1648 20.4388 10.1915 20.3803 10.2116 20.3283C10.225 20.3023 10.2383 20.2763 10.245 20.2568C10.245 20.2503 10.245 20.2438 10.2517 20.2373C10.2718 20.2048 10.3186 20.1788 10.3453 20.1593C10.4055 20.1138 10.459 20.0618 10.4992 20.0033C10.4457 20.0293 10.4055 20.0618 10.352 20.0943C10.332 20.1073 10.3052 20.1203 10.2785 20.1268C10.2718 20.1268 10.2651 20.1268 10.2517 20.1333C10.245 20.1333 10.245 20.1398 10.245 20.1398C10.2316 20.1528 10.2183 20.1723 10.2049 20.1918C10.1781 20.2308 10.1514 20.2698 10.1246 20.3088C10.0912 20.3543 10.0578 20.3998 10.0243 20.4518C9.99087 20.5038 9.97081 20.5558 9.9173 20.5818C9.90393 20.5883 9.88386 20.5948 9.8638 20.6013C9.69659 20.6533 9.52271 20.7118 9.35551 20.7638C9.32206 20.7767 9.28862 20.7833 9.25519 20.8092V20.7443C9.26187 20.7118 9.25519 20.6793 9.26187 20.6533V20.5233C9.26187 20.4323 9.25519 20.3478 9.25519 20.2568C9.24849 20.0813 9.23512 19.9058 9.22843 19.7368C9.17493 19.4118 9.16824 19.0738 9.21506 18.7358ZM9.06791 22.9542C9.16155 22.8827 9.28194 22.9022 9.38894 22.9087C11.5358 23.0257 13.6827 23.1362 15.8295 23.2532C17.234 23.3312 18.6385 23.4092 20.0497 23.4807C20.1166 23.4872 20.1835 23.5002 20.257 23.5067C20.3908 23.7667 20.4978 24.0332 20.5781 24.3582C16.4783 24.0982 12.412 23.8447 8.27204 23.5847C8.55294 23.3117 8.82046 23.1427 9.06791 22.9542ZM20.7921 27.3026C20.4912 27.3481 20.1969 27.3091 19.9227 27.2766C19.9093 27.2766 19.8959 27.2636 19.8892 27.2571C19.8758 27.2506 19.8692 27.2441 19.8558 27.2311C19.8357 27.2181 19.8157 27.1986 19.7956 27.1791C19.7555 27.1401 19.7287 27.0881 19.6886 27.0491C19.6752 27.0361 19.6552 27.0231 19.6485 27.0101C19.6351 26.9841 19.6284 26.9581 19.6217 26.9321C19.6217 26.9256 19.6217 26.9191 19.615 26.9061C19.6083 26.8996 19.6016 26.8931 19.6016 26.8801C19.5682 26.8411 19.5415 26.8021 19.5214 26.7566C19.5147 26.7436 19.5147 26.7241 19.5147 26.7111C19.5214 26.6721 19.5013 26.6331 19.488 26.6006C19.4812 26.5681 19.4745 26.5421 19.4679 26.5096C19.4679 26.5031 19.4612 26.4901 19.4545 26.4836C19.4411 26.4641 19.421 26.4511 19.401 26.4381C19.3542 26.3861 19.3074 26.3406 19.2605 26.2951C19.2405 26.2756 19.2204 26.2626 19.2003 26.2496C19.2137 26.2561 19.2204 26.2756 19.2338 26.2886C19.2405 26.3016 19.2539 26.3146 19.2672 26.3276C19.2873 26.3536 19.3074 26.3796 19.3207 26.4186C19.3207 26.4316 19.3341 26.4511 19.3408 26.4641C19.3609 26.5031 19.3742 26.5356 19.381 26.5746C19.3943 26.6266 19.401 26.6786 19.401 26.7306C19.4077 26.7761 19.4077 26.8281 19.4144 26.8736C19.4144 26.8736 19.4478 26.8866 19.4545 26.8866C19.4612 26.8931 19.4612 26.9061 19.4612 26.9191C19.4745 26.9516 19.4946 26.9841 19.5147 27.0166C19.5214 27.0296 19.528 27.0426 19.5347 27.0556V27.1661C19.5347 27.1791 19.5347 27.1986 19.528 27.2116C19.5147 27.2311 19.488 27.2441 19.4946 27.2701C19.4679 27.2701 19.4277 27.2766 19.401 27.2701C19.3943 27.2701 19.3876 27.2701 19.381 27.2636C19.3341 27.2571 19.294 27.2571 19.2472 27.2571C19.1602 27.2506 19.0732 27.2441 18.9863 27.2441C18.2306 27.1986 17.4748 27.1466 16.7191 27.1011C15.9633 27.0556 15.2076 27.0036 14.4518 26.9581C13.6961 26.9126 12.9403 26.8606 12.1846 26.8151C11.4288 26.7696 10.6731 26.7176 9.9173 26.6721C9.53609 26.6461 9.16155 26.6266 8.78033 26.6006C8.59306 26.5876 8.39911 26.5746 8.21184 26.5681C8.11821 26.5616 8.02458 26.5551 7.93094 26.5486C7.91088 26.5486 7.65673 26.5356 7.65673 26.5291V25.9052L7.66342 25.8987C7.67011 25.8922 7.67011 25.8922 7.6768 25.8857C7.68348 25.8727 7.69018 25.8662 7.69686 25.8532C7.71693 25.8272 7.73031 25.8077 7.75037 25.7817C7.77043 25.7557 7.79718 25.7297 7.81725 25.7037C7.82393 25.6907 7.83062 25.6842 7.83731 25.6712C7.85068 25.6582 7.87075 25.6452 7.88413 25.6387C7.90419 25.6257 7.92426 25.6192 7.94432 25.6062C7.98445 25.5867 8.02458 25.5672 8.07139 25.5542C8.10484 25.5412 8.13828 25.5347 8.17171 25.5412C8.19847 25.5477 8.22522 25.5607 8.24529 25.5802C8.31886 25.6322 8.39911 25.6842 8.48606 25.7037C8.50612 25.7102 8.51281 25.6907 8.52619 25.6842C8.55962 25.6517 8.59975 25.6257 8.63319 25.6062C8.63988 25.5997 8.65326 25.5932 8.65994 25.5932C8.68001 25.5802 8.70007 25.5737 8.72014 25.5607C8.80039 25.5282 8.88734 25.5217 8.97429 25.5152C8.91409 25.4957 8.84721 25.4827 8.77364 25.4762C8.73351 25.4762 8.69339 25.4762 8.65994 25.4957C8.65326 25.5022 8.64657 25.5087 8.64657 25.5087C8.63988 25.5152 8.62651 25.5217 8.61981 25.5282L8.55962 25.5672C8.55294 25.5672 8.55294 25.5737 8.54625 25.5737C8.53287 25.5802 8.51949 25.5867 8.51281 25.5997C8.50612 25.6062 8.48606 25.6192 8.47268 25.6192C8.46599 25.6192 8.45261 25.6127 8.43924 25.6062C8.43255 25.5997 8.41918 25.5997 8.41249 25.5932C8.39242 25.5802 8.37236 25.5672 8.35899 25.5607C8.30548 25.5217 8.25197 25.4697 8.19847 25.4242C8.19178 25.4177 8.18509 25.4177 8.17841 25.4112H8.15165C8.13159 25.4177 8.11152 25.4177 8.09146 25.4242C8.07808 25.4242 8.07139 25.4307 8.05802 25.4307H8.03796C8.01789 25.4307 7.99783 25.4372 7.97776 25.4372C7.95101 25.4437 7.91757 25.4502 7.89081 25.4567C7.80387 25.4762 7.72361 25.4957 7.63667 25.5217V24.2152C12.024 24.4882 16.398 24.7677 20.7921 25.0407V27.3026ZM19.5415 5.04066L19.3475 4.77423H19.2605C19.2472 4.77423 19.2405 4.76123 19.2271 4.76123L19.0265 4.60523C18.8927 4.50123 18.7522 4.40373 18.6118 4.31273C18.3309 4.12423 18.0366 3.94873 17.7223 3.80573C17.5818 3.79273 17.4682 3.72773 17.3076 3.63023C17.4815 3.65623 17.6019 3.67573 17.7223 3.69523C18.137 3.68873 18.5249 3.81873 18.9195 3.93573C19.2271 4.02673 19.5347 4.12423 19.8558 4.15023C20.344 4.18273 20.7252 4.43623 21.1065 4.68973C21.4074 4.89116 21.5077 5.22266 21.6014 5.53466C21.6682 5.77516 21.4342 5.87916 21.287 6.01566V6.04166C21.287 6.05466 21.2937 6.06766 21.2937 6.08066C21.3004 6.10666 21.3137 6.12616 21.3205 6.15216C21.3472 6.20416 21.374 6.24966 21.394 6.30166C21.4074 6.32766 21.4141 6.35366 21.4208 6.37966C21.4275 6.40566 21.4342 6.43816 21.4275 6.46416C21.4275 6.47716 21.4074 6.49016 21.4007 6.49666C21.3606 6.54866 21.3137 6.60066 21.2737 6.64616L21.5545 6.55516C21.5746 6.53566 21.588 6.51616 21.608 6.50316C21.6281 6.49016 21.6482 6.47066 21.6682 6.45766C21.6482 6.44466 21.6482 6.43816 21.6482 6.41866C21.6415 6.39266 21.6348 6.36016 21.6281 6.33416C21.6215 6.30816 21.6147 6.28216 21.608 6.25616C21.608 6.24316 21.6014 6.23016 21.6014 6.21716C21.6014 6.21066 21.588 6.18466 21.5947 6.17816C21.6682 6.03516 21.8287 6.00916 21.909 5.91816C22.404 5.95066 22.6782 6.20416 22.8186 6.63966C22.9992 7.19216 23.046 7.77709 23.2132 8.32959C23.5007 9.31759 23.3202 10.2925 23.2466 11.274C23.2065 11.8395 23.2667 12.418 23.153 12.9769C23.1062 13.1914 23.0527 13.3929 22.8788 13.5164C22.8186 13.7569 22.8721 13.9779 22.8587 14.1989C22.832 14.2639 22.7717 14.3159 22.7182 14.3614C22.6715 14.4069 22.618 14.4459 22.5645 14.4849C22.5645 14.4849 22.5645 14.4849 22.5577 14.4914C22.511 14.5239 22.4575 14.5564 22.4173 14.5954C22.3972 14.6149 22.3772 14.6344 22.3571 14.6539C22.337 14.6734 22.3103 14.6864 22.2835 14.7059C22.2367 14.7319 22.1899 14.7644 22.1431 14.7969C22.1297 14.8099 22.1097 14.8164 22.103 14.8359L22.0762 14.8619C22.0695 14.8684 22.0562 14.8814 22.0495 14.8879C22.0427 14.8944 22.0361 14.9009 22.0361 14.9074C22.0361 14.9139 22.0427 14.9139 22.0427 14.9204C22.0762 14.9594 22.0896 15.0179 22.1163 15.0634C22.123 15.0764 22.1364 15.0894 22.1431 15.1089C22.1498 15.1154 22.1498 15.1219 22.1498 15.1349C22.1632 15.1609 22.1699 15.1869 22.1699 15.2129V15.2519C22.1632 15.2779 22.1765 15.3039 22.1565 15.3234C22.1297 15.3494 22.0963 15.3754 22.0695 15.4014C22.0562 15.4144 22.0427 15.4274 22.0294 15.4339C22.0027 15.4599 21.9692 15.4794 21.9425 15.5054C21.9357 15.5119 21.9291 15.5119 21.9291 15.5184C21.9224 15.5249 21.9224 15.5379 21.9291 15.5509C21.9492 15.6939 21.9692 15.8434 21.9892 15.9864C21.9892 16.0059 21.996 16.0319 21.996 16.0579C21.9892 16.0774 21.9892 16.0969 21.9892 16.1229C21.9892 16.1814 21.996 16.2399 22.0027 16.2919L22.1297 15.6874C22.2234 15.5184 22.4575 15.4859 22.5176 15.3169C22.5176 15.1674 22.3772 15.1284 22.3304 14.9984C22.5778 14.8229 22.832 14.6409 23.1129 14.4394C23.1195 14.3094 23.133 14.1534 23.1396 13.9909C23.2332 14.0104 23.2466 14.0819 23.2533 14.1404C23.3001 15.0179 23.5208 15.8954 23.3269 16.7794C23.26 17.0979 23.1463 17.4034 23.1062 17.7219C22.9992 18.6188 23.1396 19.5093 23.1195 20.3998C23.1062 20.8482 23.1664 21.3032 23.0125 21.7712C22.3437 22.1092 21.6682 22.4147 20.9392 22.7527C20.9727 22.3562 20.986 22.0052 21.0262 21.6542C21.0864 21.0887 21.0596 20.5103 21.1867 19.9513C21.2402 19.7108 21.2202 19.4508 21.16 19.2103C20.9526 18.4303 20.9593 17.6504 21.0596 16.8639C21.1667 16.0059 21.1399 15.1414 21.1532 14.2769C21.1667 13.4124 21.3004 12.561 21.3472 11.6965C21.394 10.793 21.4743 9.88309 21.3138 8.99259C21.1867 8.28409 20.9794 7.58859 20.8925 6.86716C20.8255 6.33416 20.5513 5.89216 20.1233 5.54766C19.9628 5.41766 19.8157 5.28116 19.6552 5.14466C19.615 5.11216 19.5816 5.07966 19.5415 5.04066C19.5347 5.03416 19.528 5.03416 19.528 5.02766C19.5147 5.01466 19.5147 5.00166 19.508 4.98216L19.5415 5.04066ZM23.0594 22.8047C23.0594 22.8047 23.066 22.8112 23.0727 22.8112C23.0795 22.8112 23.0795 22.8112 23.0861 22.8177C23.0995 22.8177 23.1062 22.8242 23.1129 22.8307C23.1262 22.8437 23.133 22.8567 23.1396 22.8697C23.1396 22.8892 23.1463 22.9087 23.1463 22.9347C23.1463 22.9802 23.153 23.0322 23.1463 23.0777C23.1463 23.1037 23.1463 23.1232 23.1396 23.1492V23.1752C23.1396 23.1882 23.153 23.1882 23.1664 23.1947C23.1865 23.2012 23.1998 23.2207 23.2065 23.2337C23.2132 23.2467 23.2199 23.2597 23.2132 23.2727C23.2132 23.2857 23.2065 23.2987 23.1998 23.3052C23.1865 23.3312 23.1664 23.3442 23.1396 23.3572C23.0795 23.3832 23.0192 23.4157 22.9657 23.4482C22.4307 23.7212 21.8957 24.0007 21.3338 24.2867C21.1867 24.0202 21.0864 23.7537 20.986 23.4482C21.7285 23.1102 22.4641 22.7722 23.2065 22.4277C23.454 22.5772 23.6078 22.8047 23.7884 22.9997C23.688 23.1102 23.561 23.1427 23.4339 23.2012C23.4205 23.1947 23.4072 23.1882 23.3937 23.1817C23.3804 23.1752 23.3603 23.1622 23.347 23.1557C23.3336 23.1492 23.3202 23.1362 23.3001 23.1362C23.2801 23.1297 23.2533 23.1167 23.24 23.1037C23.2332 23.0972 23.2332 23.0907 23.2332 23.0777C23.2266 23.0517 23.2199 23.0322 23.2199 23.0062C23.2132 22.9737 23.2065 22.9477 23.1931 22.9152C23.1865 22.8892 23.173 22.8567 23.1664 22.8307L23.0594 22.8047ZM23.5142 24.5662V24.4687C23.5142 24.4492 23.5142 24.4232 23.5275 24.4037C23.5342 24.3907 23.5342 24.3842 23.5409 24.3777C23.5409 24.3712 23.5476 24.3712 23.5476 24.3647C23.5677 24.3322 23.5877 24.2997 23.6145 24.2672C23.7282 24.1372 23.795 23.9877 23.7817 23.8057C23.8552 23.7537 23.9288 23.6952 24.0559 23.7017C24.1027 24.3387 24.0692 25.0017 24.0492 25.6777C23.2065 26.1651 22.3638 26.6526 21.4877 27.1531V24.9497C22.1699 24.5987 22.8453 24.2542 23.5275 23.9097C23.5476 23.9357 23.561 23.9682 23.5677 24.0007C23.5743 24.0202 23.5677 24.0462 23.5677 24.0657C23.5677 24.0787 23.561 24.0852 23.5543 24.0982C23.5543 24.1047 23.5476 24.1112 23.5409 24.1242C23.5342 24.1307 23.5208 24.1437 23.5142 24.1502C23.5007 24.1567 23.4941 24.1697 23.4807 24.1827C23.4673 24.1957 23.454 24.2152 23.4472 24.2282C23.4406 24.2347 23.4339 24.2412 23.4339 24.2542C23.4272 24.2607 23.4205 24.2737 23.4205 24.2867C23.4005 24.3192 23.3804 24.3582 23.3537 24.3907C23.3402 24.4037 23.3269 24.4232 23.3269 24.4427C23.3269 24.4492 23.3269 24.4557 23.3336 24.4622V24.7157C23.3336 24.7612 23.3402 24.8002 23.3402 24.8457C23.3402 24.8782 23.3336 24.9237 23.3135 24.9497L23.2935 24.9692C23.2935 24.9692 23.2867 24.9757 23.2867 24.9822C23.2867 24.9887 23.2801 24.9887 23.2734 24.9952C23.2266 25.0472 23.1664 25.0862 23.1062 25.1252C23.1463 25.1187 23.1865 25.1122 23.2199 25.0927C23.2466 25.0797 23.2734 25.0602 23.3068 25.0472C23.3135 25.0472 23.3202 25.0342 23.3336 25.0342C23.3336 25.0342 23.3336 25.0342 23.3402 25.0342C23.3537 25.0147 23.3603 24.9952 23.3737 24.9692C23.3804 24.9627 23.3804 24.9497 23.3871 24.9367C23.3937 24.9237 23.3937 24.9172 23.4005 24.9042C23.4005 24.8977 23.4072 24.8912 23.4072 24.8847C23.4138 24.8587 23.4205 24.8327 23.4339 24.8067C23.4406 24.7937 23.4406 24.7807 23.4472 24.7677C23.4472 24.7612 23.454 24.7547 23.454 24.7417C23.454 24.7287 23.454 24.7157 23.4607 24.7092C23.4607 24.6962 23.4673 24.6832 23.4807 24.6767C23.4874 24.6767 23.4874 24.6767 23.4941 24.6767L23.5142 24.5662Z" fill="white"/>
<path d="M23.1664 22.8307L23.026 22.7787M19.5415 5.04066L19.3475 4.77423H19.2605C19.2472 4.77423 19.2405 4.76123 19.2271 4.76123L19.0265 4.60523C18.8927 4.50123 18.7522 4.40373 18.6118 4.31273C18.3309 4.12423 18.0366 3.94873 17.7223 3.80573C17.5818 3.79273 17.4682 3.72773 17.3076 3.63023C17.4815 3.65623 17.6019 3.67573 17.7223 3.69523C18.137 3.68873 18.5249 3.81873 18.9195 3.93573C19.2271 4.02673 19.5347 4.12423 19.8558 4.15023C20.344 4.18273 20.7252 4.43623 21.1065 4.68973C21.4074 4.89116 21.5077 5.22266 21.6014 5.53466C21.6682 5.77516 21.4342 5.87916 21.287 6.01566V6.04166C21.287 6.05466 21.2937 6.06766 21.2937 6.08066C21.3004 6.10666 21.3137 6.12616 21.3205 6.15216C21.3472 6.20416 21.374 6.24966 21.394 6.30166C21.4074 6.32766 21.4141 6.35366 21.4208 6.37966C21.4275 6.40566 21.4342 6.43816 21.4275 6.46416C21.4275 6.47716 21.4074 6.49016 21.4007 6.49666C21.3606 6.54866 21.3137 6.60066 21.2737 6.64616L21.5545 6.55516C21.5746 6.53566 21.588 6.51616 21.608 6.50316C21.6281 6.49016 21.6482 6.47066 21.6682 6.45766C21.6482 6.44466 21.6482 6.43816 21.6482 6.41866C21.6415 6.39266 21.6348 6.36016 21.6281 6.33416C21.6215 6.30816 21.6147 6.28216 21.608 6.25616C21.608 6.24316 21.6014 6.23016 21.6014 6.21716C21.6014 6.21066 21.588 6.18466 21.5947 6.17816C21.6682 6.03516 21.8287 6.00916 21.909 5.91816C22.404 5.95066 22.6782 6.20416 22.8186 6.63966C22.9992 7.19216 23.046 7.77709 23.2132 8.32959C23.5007 9.31759 23.3202 10.2925 23.2466 11.274C23.2065 11.8395 23.2667 12.418 23.153 12.9769C23.1062 13.1914 23.0527 13.3929 22.8788 13.5164C22.8186 13.7569 22.8721 13.9779 22.8587 14.1989C22.832 14.2639 22.7717 14.3159 22.7182 14.3614C22.6715 14.4069 22.618 14.4459 22.5645 14.4849C22.5645 14.4849 22.5645 14.4849 22.5577 14.4914C22.511 14.5239 22.4575 14.5564 22.4173 14.5954C22.3972 14.6149 22.3772 14.6344 22.3571 14.6539C22.337 14.6734 22.3103 14.6864 22.2835 14.7059C22.2367 14.7319 22.1899 14.7644 22.1431 14.7969C22.1297 14.8099 22.1097 14.8164 22.103 14.8359L22.0762 14.8619C22.0695 14.8684 22.0562 14.8814 22.0495 14.8879C22.0427 14.8944 22.0361 14.9009 22.0361 14.9074C22.0361 14.9139 22.0427 14.9139 22.0427 14.9204C22.0762 14.9594 22.0896 15.0179 22.1163 15.0634C22.123 15.0764 22.1364 15.0894 22.1431 15.1089C22.1498 15.1154 22.1498 15.1219 22.1498 15.1349C22.1632 15.1609 22.1699 15.1869 22.1699 15.2129V15.2519C22.1632 15.2779 22.1765 15.3039 22.1565 15.3234C22.1297 15.3494 22.0963 15.3754 22.0695 15.4014C22.0562 15.4144 22.0427 15.4274 22.0294 15.4339C22.0027 15.4599 21.9692 15.4794 21.9425 15.5054C21.9357 15.5119 21.9291 15.5119 21.9291 15.5184C21.9224 15.5249 21.9224 15.5379 21.9291 15.5509C21.9492 15.6939 21.9692 15.8434 21.9892 15.9864C21.9892 16.0059 21.996 16.0319 21.996 16.0579C21.9892 16.0774 21.9892 16.0969 21.9892 16.1229C21.9892 16.1814 21.996 16.2399 22.0027 16.2919L22.1297 15.6874C22.2234 15.5184 22.4575 15.4859 22.5176 15.3169C22.5176 15.1674 22.3772 15.1284 22.3304 14.9984C22.5778 14.8229 22.832 14.6409 23.1129 14.4394C23.1195 14.3094 23.133 14.1534 23.1396 13.9909C23.2332 14.0104 23.2466 14.0819 23.2533 14.1404C23.3001 15.0179 23.5208 15.8954 23.3269 16.7794C23.26 17.0979 23.1463 17.4034 23.1062 17.7219C22.9992 18.6188 23.1396 19.5093 23.1195 20.3998C23.1062 20.8482 23.1664 21.3032 23.0125 21.7712C22.3437 22.1092 21.6682 22.4147 20.9392 22.7527C20.9727 22.3562 20.986 22.0052 21.0262 21.6542C21.0864 21.0887 21.0596 20.5103 21.1867 19.9513C21.2402 19.7108 21.2202 19.4508 21.16 19.2103C20.9526 18.4303 20.9593 17.6504 21.0596 16.8639C21.1667 16.0059 21.1399 15.1414 21.1532 14.2769C21.1667 13.4124 21.3004 12.561 21.3472 11.6965C21.394 10.793 21.4743 9.88309 21.3138 8.99259C21.1867 8.28409 20.9794 7.58859 20.8925 6.86716C20.8255 6.33416 20.5513 5.89216 20.1233 5.54766C19.9628 5.41766 19.8157 5.28116 19.6552 5.14466C19.615 5.11216 19.5816 5.07966 19.5415 5.04066ZM19.5415 5.04066C19.5347 5.03416 19.528 5.03416 19.528 5.02766C19.5147 5.01466 19.5147 5.00166 19.508 4.98216L19.5415 5.04066ZM23.1664 22.8307C23.173 22.8567 23.1865 22.8892 23.1931 22.9152C23.2065 22.9477 23.2132 22.9737 23.2199 23.0062C23.2199 23.0322 23.2266 23.0517 23.2332 23.0777C23.2332 23.0907 23.2332 23.0972 23.24 23.1037C23.2533 23.1167 23.2801 23.1297 23.3001 23.1362C23.3202 23.1362 23.3336 23.1492 23.347 23.1557C23.3603 23.1622 23.3804 23.1752 23.3937 23.1817C23.4072 23.1882 23.4205 23.1947 23.4339 23.2012C23.561 23.1427 23.688 23.1102 23.7884 22.9997C23.6078 22.8047 23.454 22.5772 23.2065 22.4277C22.4641 22.7722 21.7285 23.1102 20.986 23.4482C21.0864 23.7537 21.1867 24.0202 21.3338 24.2867C21.8957 24.0007 22.4307 23.7212 22.9657 23.4482C23.0192 23.4157 23.0795 23.3832 23.1396 23.3572C23.1664 23.3442 23.1865 23.3312 23.1998 23.3052C23.2065 23.2987 23.2132 23.2857 23.2132 23.2727C23.2199 23.2597 23.2132 23.2467 23.2065 23.2337C23.1998 23.2207 23.1865 23.2012 23.1664 23.1947C23.153 23.1882 23.1396 23.1882 23.1396 23.1752V23.1492C23.1463 23.1232 23.1463 23.1037 23.1463 23.0777C23.153 23.0322 23.1463 22.9802 23.1463 22.9347C23.1463 22.9087 23.1396 22.8892 23.1396 22.8697C23.133 22.8567 23.1262 22.8437 23.1129 22.8307C23.1062 22.8242 23.0995 22.8177 23.0861 22.8177C23.0795 22.8112 23.0795 22.8112 23.0727 22.8112C23.066 22.8112 23.0594 22.8047 23.0594 22.8047L23.1664 22.8307ZM24.6043 22.8437C24.2632 22.5772 24.0091 22.2327 23.688 21.9337C23.7081 21.6022 23.7482 21.3032 23.7482 21.0042C23.7415 20.1853 23.795 19.3663 23.7282 18.5473C23.688 18.0469 23.8285 17.5659 23.969 17.0849C24.2432 16.1684 24.0893 15.2259 23.9489 14.3224C23.8485 13.6789 23.8352 13.0549 23.882 12.418C23.9288 11.859 23.9355 11.3 23.9823 10.741C24.0425 9.94809 24.1161 9.16809 23.9087 8.36859C23.7282 7.69259 23.688 6.98416 23.4072 6.33416C23.1865 5.82716 23.1865 5.82716 22.5042 4.94966C21.8957 4.32573 21.802 4.31923 21.2803 4.01373C20.879 3.77973 20.4845 3.55873 19.9962 3.51323C19.3742 3.45473 18.7991 3.18823 18.1837 3.09073C17.1137 2.92173 16.057 3.01273 15.0002 3.16873C13.5824 3.38323 12.1846 3.64973 11.0944 4.70273C10.5794 5.20316 10.0511 5.67766 9.83036 6.37316C9.77016 6.56816 9.6364 6.73716 9.53609 6.91266C9.07461 7.67309 9.18161 8.01759 9.11474 9.00559C9.15486 9.07709 9.0211 9.50609 8.97429 9.62309C8.91409 10.286 8.90741 9.86359 8.91409 10.1496C8.93416 11.014 8.94084 11.8785 8.94754 12.7365C8.95422 13.5164 8.98766 14.2964 8.84052 15.0634C8.68001 15.8759 8.69339 16.6949 8.6867 17.5139C8.6867 17.6959 8.69339 17.8844 8.64657 18.0599C8.50612 18.6708 8.53956 19.2818 8.573 19.8928C8.61981 20.7248 8.57969 21.5502 8.68001 22.4017C8.18509 22.7787 7.69686 23.1557 7.20195 23.5197C7.02806 23.6432 6.92773 23.7797 6.92773 24.0007C6.94111 24.9172 6.94111 25.8337 6.9478 26.7501C6.9478 26.9971 7.06818 27.1336 7.32902 27.1531C8.53956 27.2246 9.74341 27.2961 10.9473 27.3741C12.5123 27.4716 14.0706 27.5626 15.6356 27.6601C17.408 27.7706 19.1803 27.8876 20.9526 27.9981C21.1934 28.0111 21.4141 27.9591 21.6215 27.8356C22.5511 27.2896 23.4874 26.7436 24.4237 26.2106C24.6511 26.0807 24.7381 25.9117 24.7381 25.6582C24.7447 24.8587 24.7648 24.0592 24.7849 23.2662C24.7849 23.1037 24.7515 22.9542 24.6043 22.8437ZM9.21506 18.7358C9.29531 18.1898 9.36888 17.6504 9.35551 17.0979C9.33544 16.3829 9.42239 15.6809 9.52939 14.9789C9.67653 14.0039 9.62303 13.0224 9.60296 12.041C9.59628 11.6835 9.58959 11.326 9.59628 10.975C9.59628 10.884 9.60296 10.793 9.60965 10.702C9.61634 10.65 9.62303 10.598 9.62303 10.5395C9.62303 10.5135 9.64309 10.494 9.66316 10.4745C9.68991 10.442 9.72335 10.4095 9.7501 10.377C9.75679 10.3705 9.76348 10.364 9.77685 10.3575C9.78354 10.3575 9.79691 10.3575 9.80361 10.364C9.92399 10.416 10.1313 10.6045 10.138 10.6175C10.138 10.624 10.3788 10.7995 10.3788 10.806C10.3855 10.8125 10.2316 11.1375 10.2316 11.1505C10.5192 11.1505 10.4457 11.0595 10.6797 10.65C10.6931 10.624 10.4457 10.4615 10.4457 10.429C10.4055 10.39 10.3922 10.338 10.3721 10.2925C10.352 10.234 10.3186 10.1821 10.2851 10.1366C10.2651 10.1106 10.245 10.0911 10.225 10.0651C10.2049 10.0456 10.1848 10.0261 10.1648 10.0066C10.1514 9.99359 10.1447 9.98059 10.1447 9.96109C10.138 9.93509 10.1246 9.91559 10.1179 9.88959C10.0912 9.83109 10.0644 9.76609 10.0444 9.70109C9.99756 9.57759 9.95743 9.44759 9.9173 9.31759C9.87717 9.18759 9.83704 9.05759 9.79023 8.92759C9.76348 8.85609 9.73672 8.79109 9.70997 8.71959C9.75679 8.10859 9.87717 7.52366 10.2918 7.02966C10.3855 6.91266 10.4457 6.76316 10.4925 6.62666C10.6797 6.02866 11.0944 5.59966 11.5693 5.21616C11.8635 4.97566 12.1311 4.68973 12.4721 4.52723C12.4788 4.52073 12.5056 4.54023 12.5123 4.54023C12.5257 4.54673 12.539 4.55323 12.5524 4.55973C12.5792 4.57923 12.5992 4.59873 12.6126 4.62473C12.6393 4.65723 12.646 4.70273 12.6661 4.73523C12.6795 4.76773 12.6929 4.80673 12.7062 4.83923C12.733 4.91066 12.7597 4.97566 12.7798 5.04716C12.7865 5.06016 12.7865 5.06666 12.7932 5.07316C12.7932 5.07966 12.7999 5.08616 12.7999 5.08616C12.7999 5.08616 12.8132 5.09266 12.8199 5.09266C12.8467 5.09916 12.8734 5.11216 12.9002 5.11866C12.9069 5.11866 12.8734 5.29416 12.8734 5.30716V5.33966C12.8734 5.36566 12.8667 5.39816 12.8667 5.42416C12.8601 5.48266 12.8601 5.54116 12.8534 5.59966C12.8534 5.61916 12.8467 5.64516 12.8534 5.66466C12.8601 5.68416 12.8667 5.69716 12.8734 5.71666C12.9269 5.82066 12.9537 6.21066 12.9537 6.21066C12.9537 6.21066 13.0406 5.98966 13.0339 5.97666C13.0273 5.95716 13.0273 5.94416 13.0206 5.92466C13.0139 5.89216 13.0072 5.85316 13.0005 5.82066C12.9938 5.77516 12.9871 5.72966 12.9804 5.67766C12.9804 5.65816 12.9738 5.64516 12.9738 5.62566C12.9738 5.61266 12.9671 5.60616 12.9738 5.59316C12.9804 5.57366 12.9871 5.55416 13.0005 5.54116C13.0072 5.52166 13.0206 5.50216 13.0273 5.48266C13.0273 5.48266 13.0674 5.48916 13.0741 5.49566C13.0875 5.50216 13.1008 5.50866 13.1142 5.50866C13.1543 5.51516 13.1878 5.52816 13.2212 5.54766C13.2346 5.55416 13.248 5.56066 13.2613 5.57366C13.268 5.58666 13.2747 5.59966 13.2814 5.61266C13.3148 5.69716 13.3483 5.78816 13.3884 5.87266C13.3951 5.88566 13.4018 5.90516 13.4152 5.91816C13.4285 5.93116 13.442 5.93766 13.4553 5.94416C13.5422 5.99616 13.6359 6.04816 13.7228 6.10016C13.6827 6.03516 13.6225 5.98316 13.569 5.91816C13.4887 5.82066 13.4352 5.70366 13.4152 5.58016C13.4085 5.55416 13.4085 5.52816 13.4085 5.50216C13.3416 5.45666 13.2747 5.41766 13.2078 5.37216C13.1811 5.35266 13.1476 5.33966 13.1276 5.32016C13.1209 5.31366 13.1142 5.30066 13.1142 5.28766C13.1075 5.26816 13.1008 5.25516 13.0941 5.23566C13.0674 5.16416 13.0473 5.09266 13.0206 5.02766C13.0139 5.00816 13.0072 4.98216 12.9871 4.97566C12.9804 4.96916 12.9671 4.96916 12.9537 4.96266C12.9336 4.94966 12.9269 4.92366 12.9202 4.90416C12.9136 4.87816 12.9069 4.84573 12.9002 4.81973C12.8935 4.80023 12.8868 4.77423 12.8868 4.74823V4.72223C12.8801 4.67673 12.8667 4.63123 12.8667 4.58573C12.8601 4.46873 12.8868 4.35173 12.9537 4.24773C14.9935 3.95523 17.0535 3.71473 18.8459 5.24216V6.15216C18.8459 6.17816 18.8459 6.21066 18.8325 6.23666C18.8258 6.24316 18.8258 6.24966 18.8191 6.26266C18.8125 6.28216 18.8057 6.30166 18.7924 6.31466C18.7723 6.34716 18.7522 6.37966 18.7255 6.41866C18.6987 6.45766 18.672 6.49666 18.6586 6.54216C18.6653 6.53566 18.672 6.53566 18.6787 6.52916L18.6987 6.50966C18.7121 6.49666 18.7322 6.48366 18.7455 6.47716C18.779 6.45766 18.8057 6.43166 18.8325 6.40566C18.8459 6.39266 18.8526 6.37966 18.866 6.36016C18.8793 6.34066 18.8927 6.30816 18.9061 6.28866C18.9262 6.26916 18.9395 6.23666 18.9462 6.20416C18.9529 6.19116 18.9596 6.18466 18.9596 6.17166C18.9662 6.15866 18.9662 6.14566 18.973 6.12616C18.9797 6.09366 18.9863 6.06766 18.993 6.03516C19.0197 5.90516 19.0265 5.77516 19.0465 5.64516C19.0532 5.59316 19.0666 5.54766 19.08 5.49566C19.6351 5.91816 20.2102 6.28866 20.2905 7.02966C20.3574 7.65359 20.4711 8.26459 20.6517 8.86909C20.7052 9.04459 20.752 9.22659 20.752 9.40859C20.752 10.624 20.8122 11.833 20.6115 13.0419C20.5045 13.6854 20.5112 14.3549 20.5045 15.0114C20.5045 15.7134 20.4644 16.4154 20.3975 17.1109C20.3306 17.7934 20.3306 18.4693 20.5045 19.1323C20.5982 19.4833 20.538 19.8343 20.4978 20.1918C20.4176 20.8872 20.3842 21.5892 20.3373 22.2912C20.324 22.4602 20.3306 22.6357 20.257 22.8177C16.6187 22.6227 12.9871 22.4277 9.33544 22.2262C9.33544 22.2262 9.32206 22.1157 9.32206 22.1092C9.31538 22.0637 9.30869 22.0182 9.302 21.9727C9.28862 21.8817 9.28194 21.7972 9.27525 21.7062C9.26856 21.6152 9.27525 21.5307 9.28194 21.4462V21.4137C9.28194 21.3812 9.28862 21.3422 9.29531 21.3162C9.302 21.2837 9.30869 21.2447 9.31538 21.2122C9.33544 21.1342 9.35551 21.0562 9.38894 20.9782C9.39564 20.9652 9.39564 20.9587 9.40232 20.9457C9.40901 20.9392 9.42239 20.9327 9.43576 20.9262C9.60965 20.8612 9.77685 20.7962 9.95074 20.7313C9.97081 20.7248 9.97749 20.6988 9.99087 20.6793C10.0043 20.6598 10.0176 20.6403 10.0377 20.6208C10.0511 20.6078 10.0711 20.5948 10.0845 20.5818C10.1113 20.5558 10.1246 20.5233 10.138 20.4908C10.1648 20.4388 10.1915 20.3803 10.2116 20.3283C10.225 20.3023 10.2383 20.2763 10.245 20.2568C10.245 20.2503 10.245 20.2438 10.2517 20.2373C10.2718 20.2048 10.3186 20.1788 10.3453 20.1593C10.4055 20.1138 10.459 20.0618 10.4992 20.0033C10.4457 20.0293 10.4055 20.0618 10.352 20.0943C10.332 20.1073 10.3052 20.1203 10.2785 20.1268C10.2718 20.1268 10.2651 20.1268 10.2517 20.1333C10.245 20.1333 10.245 20.1398 10.245 20.1398C10.2316 20.1528 10.2183 20.1723 10.2049 20.1918C10.1781 20.2308 10.1514 20.2698 10.1246 20.3088C10.0912 20.3543 10.0578 20.3998 10.0243 20.4518C9.99087 20.5038 9.97081 20.5558 9.9173 20.5818C9.90393 20.5883 9.88386 20.5948 9.8638 20.6013C9.69659 20.6533 9.52271 20.7118 9.35551 20.7638C9.32206 20.7767 9.28862 20.7833 9.25519 20.8092V20.7443C9.26187 20.7118 9.25519 20.6793 9.26187 20.6533V20.5233C9.26187 20.4323 9.25519 20.3478 9.25519 20.2568C9.24849 20.0813 9.23512 19.9058 9.22843 19.7368C9.17493 19.4118 9.16824 19.0738 9.21506 18.7358ZM9.06791 22.9542C9.16155 22.8827 9.28194 22.9022 9.38894 22.9087C11.5358 23.0257 13.6827 23.1362 15.8295 23.2532C17.234 23.3312 18.6385 23.4092 20.0497 23.4807C20.1166 23.4872 20.1835 23.5002 20.257 23.5067C20.3908 23.7667 20.4978 24.0332 20.5781 24.3582C16.4783 24.0982 12.412 23.8447 8.27204 23.5847C8.55294 23.3117 8.82046 23.1427 9.06791 22.9542ZM20.7921 27.3026C20.4912 27.3481 20.1969 27.3091 19.9227 27.2766C19.9093 27.2766 19.8959 27.2636 19.8892 27.2571C19.8758 27.2506 19.8692 27.2441 19.8558 27.2311C19.8357 27.2181 19.8157 27.1986 19.7956 27.1791C19.7555 27.1401 19.7287 27.0881 19.6886 27.0491C19.6752 27.0361 19.6552 27.0231 19.6485 27.0101C19.6351 26.9841 19.6284 26.9581 19.6217 26.9321C19.6217 26.9256 19.6217 26.9191 19.615 26.9061C19.6083 26.8996 19.6016 26.8931 19.6016 26.8801C19.5682 26.8411 19.5415 26.8021 19.5214 26.7566C19.5147 26.7436 19.5147 26.7241 19.5147 26.7111C19.5214 26.6721 19.5013 26.6331 19.488 26.6006C19.4812 26.5681 19.4745 26.5421 19.4679 26.5096C19.4679 26.5031 19.4612 26.4901 19.4545 26.4836C19.4411 26.4641 19.421 26.4511 19.401 26.4381C19.3542 26.3861 19.3074 26.3406 19.2605 26.2951C19.2405 26.2756 19.2204 26.2626 19.2003 26.2496C19.2137 26.2561 19.2204 26.2756 19.2338 26.2886C19.2405 26.3016 19.2539 26.3146 19.2672 26.3276C19.2873 26.3536 19.3074 26.3796 19.3207 26.4186C19.3207 26.4316 19.3341 26.4511 19.3408 26.4641C19.3609 26.5031 19.3742 26.5356 19.381 26.5746C19.3943 26.6266 19.401 26.6786 19.401 26.7306C19.4077 26.7761 19.4077 26.8281 19.4144 26.8736C19.4144 26.8736 19.4478 26.8866 19.4545 26.8866C19.4612 26.8931 19.4612 26.9061 19.4612 26.9191C19.4745 26.9516 19.4946 26.9841 19.5147 27.0166C19.5214 27.0296 19.528 27.0426 19.5347 27.0556V27.1661C19.5347 27.1791 19.5347 27.1986 19.528 27.2116C19.5147 27.2311 19.488 27.2441 19.4946 27.2701C19.4679 27.2701 19.4277 27.2766 19.401 27.2701C19.3943 27.2701 19.3876 27.2701 19.381 27.2636C19.3341 27.2571 19.294 27.2571 19.2472 27.2571C19.1602 27.2506 19.0732 27.2441 18.9863 27.2441C18.2306 27.1986 17.4748 27.1466 16.7191 27.1011C15.9633 27.0556 15.2076 27.0036 14.4518 26.9581C13.6961 26.9126 12.9403 26.8606 12.1846 26.8151C11.4288 26.7696 10.6731 26.7176 9.9173 26.6721C9.53609 26.6461 9.16155 26.6266 8.78033 26.6006C8.59306 26.5876 8.39911 26.5746 8.21184 26.5681C8.11821 26.5616 8.02458 26.5551 7.93094 26.5486C7.91088 26.5486 7.65673 26.5356 7.65673 26.5291V25.9052L7.66342 25.8987C7.67011 25.8922 7.67011 25.8922 7.6768 25.8857C7.68348 25.8727 7.69018 25.8662 7.69686 25.8532C7.71693 25.8272 7.73031 25.8077 7.75037 25.7817C7.77043 25.7557 7.79718 25.7297 7.81725 25.7037C7.82393 25.6907 7.83062 25.6842 7.83731 25.6712C7.85068 25.6582 7.87075 25.6452 7.88413 25.6387C7.90419 25.6257 7.92426 25.6192 7.94432 25.6062C7.98445 25.5867 8.02458 25.5672 8.07139 25.5542C8.10483 25.5412 8.13828 25.5347 8.17171 25.5412C8.19847 25.5477 8.22522 25.5607 8.24529 25.5802C8.31886 25.6322 8.39911 25.6842 8.48606 25.7037C8.50612 25.7102 8.51281 25.6907 8.52619 25.6842C8.55962 25.6517 8.59975 25.6257 8.63319 25.6062C8.63988 25.5997 8.65326 25.5932 8.65994 25.5932C8.68001 25.5802 8.70007 25.5737 8.72014 25.5607C8.80039 25.5282 8.88734 25.5217 8.97429 25.5152C8.91409 25.4957 8.84721 25.4827 8.77364 25.4762C8.73351 25.4762 8.69339 25.4762 8.65994 25.4957C8.65326 25.5022 8.64657 25.5087 8.64657 25.5087C8.63988 25.5152 8.62651 25.5217 8.61981 25.5282L8.55962 25.5672C8.55294 25.5672 8.55294 25.5737 8.54625 25.5737C8.53287 25.5802 8.51949 25.5867 8.51281 25.5997C8.50612 25.6062 8.48606 25.6192 8.47268 25.6192C8.46599 25.6192 8.45261 25.6127 8.43924 25.6062C8.43255 25.5997 8.41918 25.5997 8.41249 25.5932C8.39242 25.5802 8.37236 25.5672 8.35899 25.5607C8.30548 25.5217 8.25197 25.4697 8.19847 25.4242C8.19178 25.4177 8.18509 25.4177 8.17841 25.4112H8.15165C8.13159 25.4177 8.11152 25.4177 8.09146 25.4242C8.07808 25.4242 8.07139 25.4307 8.05802 25.4307H8.03796C8.01789 25.4307 7.99783 25.4372 7.97776 25.4372C7.95101 25.4437 7.91757 25.4502 7.89081 25.4567C7.80387 25.4762 7.72361 25.4957 7.63667 25.5217V24.2152C12.024 24.4882 16.398 24.7677 20.7921 25.0407V27.3026ZM23.5142 24.5662V24.4687C23.5142 24.4492 23.5142 24.4232 23.5275 24.4037C23.5342 24.3907 23.5342 24.3842 23.5409 24.3777C23.5409 24.3712 23.5476 24.3712 23.5476 24.3647C23.5677 24.3322 23.5877 24.2997 23.6145 24.2672C23.7282 24.1372 23.795 23.9877 23.7817 23.8057C23.8552 23.7537 23.9288 23.6952 24.0559 23.7017C24.1027 24.3387 24.0692 25.0017 24.0492 25.6777C23.2065 26.1651 22.3638 26.6526 21.4877 27.1531V24.9497C22.1699 24.5987 22.8453 24.2542 23.5275 23.9097C23.5476 23.9357 23.561 23.9682 23.5677 24.0007C23.5743 24.0202 23.5677 24.0462 23.5677 24.0657C23.5677 24.0787 23.561 24.0852 23.5543 24.0982C23.5543 24.1047 23.5476 24.1112 23.5409 24.1242C23.5342 24.1307 23.5208 24.1437 23.5142 24.1502C23.5007 24.1567 23.4941 24.1697 23.4807 24.1827C23.4673 24.1957 23.454 24.2152 23.4472 24.2282C23.4406 24.2347 23.4339 24.2412 23.4339 24.2542C23.4272 24.2607 23.4205 24.2737 23.4205 24.2867C23.4005 24.3192 23.3804 24.3582 23.3537 24.3907C23.3402 24.4037 23.3269 24.4232 23.3269 24.4427C23.3269 24.4492 23.3269 24.4557 23.3336 24.4622V24.7157C23.3336 24.7612 23.3402 24.8002 23.3402 24.8457C23.3402 24.8782 23.3336 24.9237 23.3135 24.9497L23.2935 24.9692C23.2935 24.9692 23.2867 24.9757 23.2867 24.9822C23.2867 24.9887 23.2801 24.9887 23.2734 24.9952C23.2266 25.0472 23.1664 25.0862 23.1062 25.1252C23.1463 25.1187 23.1865 25.1122 23.2199 25.0927C23.2466 25.0797 23.2734 25.0602 23.3068 25.0472C23.3135 25.0472 23.3202 25.0342 23.3336 25.0342C23.3336 25.0342 23.3336 25.0342 23.3402 25.0342C23.3537 25.0147 23.3603 24.9952 23.3737 24.9692C23.3804 24.9627 23.3804 24.9497 23.3871 24.9367C23.3937 24.9237 23.3937 24.9172 23.4005 24.9042C23.4005 24.8977 23.4072 24.8912 23.4072 24.8847C23.4138 24.8587 23.4205 24.8327 23.4339 24.8067C23.4406 24.7937 23.4406 24.7807 23.4472 24.7677C23.4472 24.7612 23.454 24.7547 23.454 24.7417C23.454 24.7287 23.454 24.7157 23.4607 24.7092C23.4607 24.6962 23.4673 24.6832 23.4807 24.6767C23.4874 24.6767 23.4874 24.6767 23.4941 24.6767L23.5142 24.5662Z" stroke="white" stroke-width="0.5" stroke-miterlimit="10"/>
<path d="M13.2608 14.3428C12.7525 14.3428 12.3379 13.9398 12.3379 13.4458C12.3379 12.9518 12.7525 12.5488 13.2608 12.5488C13.7692 12.5488 14.1838 12.9518 14.1838 13.4458C14.1838 13.9398 13.7692 14.3428 13.2608 14.3428ZM13.2608 12.8088C12.8997 12.8088 12.6054 13.0948 12.6054 13.4458C12.6054 13.7968 12.8997 14.0828 13.2608 14.0828C13.622 14.0828 13.9162 13.7968 13.9162 13.4458C13.9162 13.0948 13.622 12.8088 13.2608 12.8088Z" fill="white"/>
<path d="M16.2316 14.4073C15.7233 14.4073 15.3086 14.0043 15.3086 13.5103C15.3086 13.0163 15.7233 12.6133 16.2316 12.6133C16.7399 12.6133 17.1545 13.0163 17.1545 13.5103C17.1545 14.0043 16.7399 14.4073 16.2316 14.4073ZM16.2316 12.8733C15.8705 12.8733 15.5762 13.1593 15.5762 13.5103C15.5762 13.8613 15.8705 14.1473 16.2316 14.1473C16.5927 14.1473 16.887 13.8613 16.887 13.5103C16.887 13.1593 16.5927 12.8733 16.2316 12.8733Z" fill="white"/>
</svg>
