<svg width="20" height="20" viewBox="0 0 20 20" fill="none" xmlns="http://www.w3.org/2000/svg">
<g opacity="0.6">
<path opacity="0.8" fill-rule="evenodd" clip-rule="evenodd" d="M16.2946 12.8533C16.2946 15.2363 14.3338 17.1681 11.9151 17.1681H3.64285V14.2916H11.9151C12.7214 14.2916 13.3749 13.6476 13.3749 12.8533C13.3749 12.059 12.7214 11.4151 11.9151 11.4151H8.99551V8.53861H11.9151C12.7214 8.53861 13.3749 7.89469 13.3749 7.10037C13.3749 6.30605 12.7214 5.66213 11.9151 5.66213H3.64285V2.78564H11.9151C14.3338 2.78564 16.2946 4.71741 16.2946 7.10037C16.2946 8.20545 15.8729 9.21349 15.1794 9.97685C15.8729 10.7402 16.2946 11.7483 16.2946 12.8533Z" fill="white"/>
<path opacity="0.12" fill-rule="evenodd" clip-rule="evenodd" d="M3.64288 5.66213H10.7479C9.23871 3.91546 6.83587 2.78564 4.12948 2.78564C3.96613 2.78564 3.80389 2.78976 3.64288 2.79788V5.66213ZM12.2363 11.4152H9.48211V8.53868H12.2363C12.3448 9.00339 12.4017 9.48437 12.4017 9.97692C12.4017 10.4695 12.3448 10.9505 12.2363 11.4152ZM3.64285 14.2916H10.7479C9.23868 16.0383 6.83585 17.1681 4.12946 17.1681C3.96611 17.1681 3.80386 17.164 3.64285 17.1559V14.2916Z" fill="black"/>
<path d="M3.64285 2.78564C7.67402 2.78564 10.9419 6.00526 10.9419 9.97685C10.9419 13.9484 7.67402 17.1681 3.64285 17.1681V14.2916C6.06155 14.2916 8.0223 12.3598 8.0223 9.97685C8.0223 7.59389 6.06155 5.66213 3.64285 5.66213V2.78564Z" fill="white"/>
</g>
</svg>
