<svg width="32" height="32" viewBox="0 0 32 32" fill="none" xmlns="http://www.w3.org/2000/svg">
<path d="M15.5287 11.746C11.8766 17.372 9.63328 25.1852 8.75786 27.84C8.26543 22.833 10.8643 16.0102 12.7657 11.9798C11.8902 12.0211 7.22586 12.3512 4.64062 15.0336C4.64062 15.0336 6.03583 10.7281 14.0925 9.42131L14.1198 9.36629C20.4256 0.1088 25.1584 5.63853 25.1584 5.63853C22.2859 5.15709 19.7827 6.60142 17.6489 8.95362C18.6885 8.91236 25.4183 8.82982 27.3606 14.1807C27.3606 14.1807 23.4623 11.3746 15.5287 11.746ZM20.0837 18.1974C18.4696 18.1974 17.1565 19.5179 17.1565 21.141C17.1565 22.7642 18.4696 24.0847 20.0837 24.0847C21.6977 24.0847 23.0109 22.7642 23.0109 21.141C23.0109 19.5041 21.6977 18.1974 20.0837 18.1974Z" fill="white"/>
</svg>
