<svg width="32" height="32" viewBox="0 0 32 32" fill="none" xmlns="http://www.w3.org/2000/svg">
<rect width="32" height="32" rx="16" fill="#1273EA"/>
<path fill-rule="evenodd" clip-rule="evenodd" d="M7.84 7.68007V21.7958C7.84016 22.0594 7.8997 22.3197 8.01422 22.5573C8.12874 22.7949 8.2953 23.0039 8.50162 23.1686L15.173 28.5104C15.4077 28.6979 15.6994 28.8 16 28.8C16.3006 28.8 16.5923 28.6979 16.827 28.5104L23.4984 23.1686C23.7047 23.0039 23.8713 22.7949 23.9858 22.5573C24.1003 22.3197 24.1598 22.0594 24.16 21.7958V7.68007C24.16 7.21327 23.9741 6.76558 23.6433 6.43551C23.3124 6.10543 22.8636 5.92 22.3957 5.92H9.60432C9.13639 5.92 8.68763 6.10543 8.35676 6.43551C8.02588 6.76558 7.84 7.21327 7.84 7.68007Z" fill="white"/>
<path d="M21.4367 13.7931V10.251C21.4367 9.78133 21.2534 9.33086 20.927 8.99873C20.6006 8.66659 20.158 8.48 19.6964 8.48H12.3003C11.8387 8.48 11.3961 8.66659 11.0697 8.99873C10.7433 9.33086 10.56 9.78133 10.56 10.251V20.5286C10.5602 20.7939 10.6189 21.0558 10.7318 21.2949C10.8448 21.534 11.0091 21.7442 11.2126 21.91L13.9057 24.1105C13.9376 24.1369 13.9763 24.1535 14.0172 24.1585C14.0581 24.1634 14.0995 24.1564 14.1366 24.1383C14.1738 24.1202 14.2051 24.0918 14.227 24.0563C14.2488 24.0208 14.2604 23.9798 14.2603 23.9378V16.6711C14.2603 16.6123 14.2832 16.5561 14.324 16.5145C14.3648 16.473 14.4201 16.4497 14.4778 16.4497H16.4356C16.7817 16.4497 17.1137 16.5896 17.3585 16.8387C17.6033 17.0878 17.7408 17.4257 17.7408 17.778V23.9378C17.7408 23.9796 17.7524 24.0204 17.7743 24.0557C17.7961 24.0909 17.8273 24.1193 17.8642 24.1373C17.9012 24.1553 17.9423 24.1624 17.983 24.1576C18.0238 24.1529 18.0623 24.1366 18.0943 24.1105L20.7874 21.91C20.9909 21.7442 21.1552 21.534 21.2681 21.2949C21.3811 21.0558 21.4398 20.7939 21.44 20.5286V17.3352C21.44 16.8655 21.2566 16.415 20.9302 16.0829C20.6039 15.7507 20.1613 15.5641 19.6997 15.5641C20.1607 15.5633 20.6025 15.3763 20.9282 15.0443C21.2538 14.7122 21.4367 14.2623 21.4367 13.7931ZM16.4334 14.6787H14.4756C14.4179 14.6787 14.3626 14.6553 14.3218 14.6138C14.281 14.5723 14.2581 14.516 14.2581 14.4573V10.4724C14.2581 10.4137 14.281 10.3574 14.3218 10.3159C14.3626 10.2744 14.4179 10.251 14.4756 10.251H17.5211C17.5788 10.251 17.6341 10.2744 17.6749 10.3159C17.7157 10.3574 17.7386 10.4137 17.7386 10.4724V13.3504C17.7386 13.7027 17.6011 14.0405 17.3563 14.2896C17.1116 14.5387 16.7796 14.6787 16.4334 14.6787Z" fill="#1273EA"/>
</svg>
