<svg width="28" height="28" viewBox="0 0 28 28" fill="none" xmlns="http://www.w3.org/2000/svg">
<rect width="28" height="28" rx="14" fill="url(#paint0_linear_36270_19102)"/>
<path d="M22.7045 8.79765C23.2816 16.6152 18.257 20.3102 13.7527 20.7043C9.5649 21.0706 5.623 18.4971 5.27718 14.543C4.99191 11.2763 7.01065 9.88558 8.59675 9.74695C10.2281 9.60394 11.599 10.7291 11.7179 12.0913C11.8324 13.4011 11.0153 13.9972 10.447 14.0468C9.99753 14.0862 9.43211 13.8134 9.38104 13.2274C9.33727 12.724 9.52841 12.6554 9.48172 12.1205C9.39855 11.1683 8.5683 11.0574 8.11377 11.0968C7.56367 11.145 6.56561 11.7871 6.70569 13.3865C6.84649 14.9998 8.3932 16.2745 10.4207 16.0972C12.6087 15.9061 14.132 14.2023 14.2466 11.8126C14.2455 11.6861 14.2722 11.5608 14.3246 11.4456L14.3253 11.4427C14.349 11.3926 14.3765 11.3446 14.4078 11.2989C14.4545 11.2289 14.5143 11.1515 14.5917 11.0669C14.5924 11.0647 14.5924 11.0647 14.5939 11.0647C14.65 11.0012 14.7179 10.9326 14.7945 10.8589C15.7502 9.95709 19.1924 7.83012 22.4477 8.5036C22.5165 8.51835 22.5788 8.55496 22.625 8.60795C22.6713 8.66095 22.6992 8.72749 22.7045 8.79765Z" fill="white"/>
<defs>
<linearGradient id="paint0_linear_36270_19102" x1="27.2172" y1="0.782881" x2="1.53836e-05" y2="28.0001" gradientUnits="userSpaceOnUse">
<stop stop-color="#11C4D1"/>
<stop offset="1" stop-color="#0062AD"/>
</linearGradient>
</defs>
</svg>
