<svg width="12" height="12" viewBox="0 0 12 12" fill="none" xmlns="http://www.w3.org/2000/svg">
<path d="M6.08398 10.832C7.44149 10.832 8.6705 10.2818 9.56012 9.39216C10.4498 8.50253 11 7.27352 11 5.91602C11 4.55851 10.4498 3.3295 9.56012 2.43987C8.6705 1.55024 7.44149 1 6.08398 1C4.72648 1 3.49747 1.55024 2.60784 2.43987C1.71821 3.3295 1.16797 4.55851 1.16797 5.91602C1.16797 7.27352 1.71821 8.50253 2.60784 9.39216C3.49747 10.2818 4.72648 10.832 6.08398 10.832Z" stroke="#666666" stroke-linejoin="round"/>
<path d="M6.08271 7.05317V6.06997C6.89722 6.06997 7.55752 5.40968 7.55752 4.59517C7.55752 3.78066 6.89722 3.12036 6.08271 3.12036C5.2682 3.12036 4.60791 3.78066 4.60791 4.59517" stroke="#666666" stroke-linecap="round" stroke-linejoin="round"/>
<path fill-rule="evenodd" clip-rule="evenodd" d="M6.08179 9.2644C6.42116 9.2644 6.69629 8.98928 6.69629 8.6499C6.69629 8.31053 6.42116 8.0354 6.08179 8.0354C5.74241 8.0354 5.46729 8.31053 5.46729 8.6499C5.46729 8.98928 5.74241 9.2644 6.08179 9.2644Z" fill="#666666"/>
</svg>
