<svg width="32" height="32" viewBox="0 0 32 32" fill="none" xmlns="http://www.w3.org/2000/svg">
<circle cx="16" cy="16" r="16" fill="#8247E5"/>
<path d="M21.1436 12.8902C20.7781 12.7003 20.3081 12.7003 19.8903 12.8902L16.9661 14.457L14.9817 15.454L12.1097 17.0208C11.7441 17.2107 11.2742 17.2107 10.8564 17.0208L8.61097 15.7863C8.24543 15.5964 7.98433 15.2166 7.98433 14.7893V12.4154C7.98433 12.0356 8.19321 11.6558 8.61097 11.4184L10.8564 10.2315C11.2219 10.0415 11.6919 10.0415 12.1097 10.2315L14.3551 11.4659C14.7206 11.6558 14.9817 12.0356 14.9817 12.4629V14.0297L16.9661 12.9852V11.3709C16.9661 10.9911 16.7572 10.6113 16.3394 10.3739L12.1619 8.14243C11.7963 7.95252 11.3264 7.95252 10.9086 8.14243L6.62663 10.4214C6.20888 10.6113 6 10.9911 6 11.3709V15.8338C6 16.2136 6.20888 16.5935 6.62663 16.8309L10.8564 19.0623C11.2219 19.2522 11.6919 19.2522 12.1097 19.0623L14.9817 17.543L16.9661 16.4985L19.8381 14.9792C20.2037 14.7893 20.6736 14.7893 21.0914 14.9792L23.3368 16.1662C23.7023 16.3561 23.9634 16.7359 23.9634 17.1632V19.5371C23.9634 19.9169 23.7546 20.2967 23.3368 20.5341L21.1436 21.7211C20.7781 21.911 20.3081 21.911 19.8903 21.7211L17.6449 20.5341C17.2794 20.3442 17.0183 19.9644 17.0183 19.5371V18.0178L15.0339 19.0623V20.6291C15.0339 21.0089 15.2428 21.3887 15.6606 21.6261L19.8903 23.8576C20.2559 24.0475 20.7258 24.0475 21.1436 23.8576L25.3734 21.6261C25.7389 21.4362 26 21.0564 26 20.6291V16.1187C26 15.7389 25.7911 15.3591 25.3734 15.1217L21.1436 12.8902Z" fill="white"/>
</svg>
