<svg width="20" height="20" viewBox="0 0 20 20" fill="none" xmlns="http://www.w3.org/2000/svg">
<path d="M13.9799 3C13.1803 2.99938 12.4131 3.31693 11.8467 3.88296C11.2803 4.44898 10.9611 5.21723 10.959 6.01905V9.36644C10.6479 9.3875 10.3298 9.40076 10 9.40076C9.67022 9.40076 9.35367 9.41402 9.041 9.43274V6.01905C9.02828 5.22418 8.70445 4.46618 8.13939 3.90858C7.57432 3.35098 6.81329 3.03847 6.0205 3.03847C5.22771 3.03847 4.46668 3.35098 3.90162 3.90858C3.33655 4.46618 3.01272 5.22418 3 6.01905V14.0194C3.01272 14.8143 3.33655 15.5723 3.90162 16.1299C4.46668 16.6875 5.22771 17 6.0205 17C6.81329 17 7.57432 16.6875 8.13939 16.1299C8.70445 15.5723 9.02828 14.8143 9.041 14.0194V10.672C9.35211 10.651 9.67022 10.6377 10 10.6377C10.3298 10.6377 10.6463 10.6244 10.959 10.6057V14.0194C10.9717 14.8143 11.2955 15.5723 11.8606 16.1299C12.4257 16.6875 13.1867 17 13.9795 17C14.7723 17 15.5333 16.6875 16.0984 16.1299C16.6635 15.5723 16.9873 14.8143 17 14.0194V6.01905C16.9979 5.21736 16.6788 4.44924 16.1126 3.88323C15.5464 3.31723 14.7794 2.99959 13.9799 3ZM6.02011 4.23695C6.49202 4.23674 6.94475 4.42425 7.27895 4.75835C7.61316 5.09245 7.80154 5.54584 7.80278 6.01905V9.56376C6.91905 9.69217 6.05606 9.93683 5.23611 10.2914C4.88085 10.4478 4.54642 10.6479 4.24056 10.8873V6.01905C4.24179 5.54638 4.42975 5.09346 4.76328 4.75945C5.09681 4.42544 5.54874 4.23756 6.02011 4.23695ZM7.80278 14.0194C7.80278 14.4935 7.61496 14.9482 7.28065 15.2834C6.94633 15.6186 6.4929 15.807 6.02011 15.807C5.54732 15.807 5.09389 15.6186 4.75958 15.2834C4.42526 14.9482 4.23744 14.4935 4.23744 14.0194V13.2169C4.23744 12.5079 4.79744 11.8364 5.73622 11.4184C6.3977 11.1322 7.09176 10.9287 7.80278 10.8124V14.0194ZM13.9799 15.8015C13.508 15.8017 13.0553 15.6142 12.721 15.2801C12.3868 14.946 12.1985 14.4926 12.1972 14.0194V10.4747C13.0809 10.3463 13.9439 10.1016 14.7639 9.74704C15.1192 9.59069 15.4536 9.39053 15.7594 9.15119V14.0194C15.7582 14.4921 15.5703 14.945 15.2367 15.279C14.9032 15.613 14.4513 15.8009 13.9799 15.8015ZM14.2638 8.61539C13.6023 8.90155 12.9082 9.10508 12.1972 9.22138V6.01905C12.1972 5.54496 12.385 5.09028 12.7194 4.75505C13.0537 4.41982 13.5071 4.23149 13.9799 4.23149C14.4527 4.23149 14.9061 4.41982 15.2404 4.75505C15.5747 5.09028 15.7626 5.54496 15.7626 6.01905V6.82158C15.7626 7.52741 15.2026 8.19891 14.2638 8.61539Z" fill="white"/>
</svg>
