<svg width="8" height="8" viewBox="0 0 8 8" fill="none" xmlns="http://www.w3.org/2000/svg">
<path d="M4 3.38415L1.74404 1.12749C1.70362 1.08707 1.65564 1.05501 1.60283 1.03313C1.55002 1.01126 1.49343 1 1.43627 1C1.37911 1 1.32251 1.01126 1.2697 1.03313C1.2169 1.05501 1.16892 1.08707 1.1285 1.12749C1.08808 1.16791 1.05602 1.2159 1.03415 1.26871C1.01227 1.32152 1.00102 1.37813 1.00102 1.43529C1.00102 1.49245 1.01227 1.54906 1.03415 1.60187C1.05602 1.65468 1.08808 1.70266 1.1285 1.74309L3.38395 3.99975L1.12748 6.2559C1.08707 6.29632 1.05501 6.34431 1.03313 6.39712C1.01126 6.44993 1 6.50653 1 6.5637C1 6.62086 1.01126 6.67746 1.03313 6.73027C1.05501 6.78308 1.08707 6.83107 1.12748 6.87149C1.1679 6.91191 1.21588 6.94397 1.26869 6.96585C1.3215 6.98773 1.37809 6.99898 1.43525 6.99898C1.49241 6.99898 1.54901 6.98773 1.60182 6.96585C1.65462 6.94397 1.7026 6.91191 1.74302 6.87149L4 4.61585L6.25596 6.87251C6.29638 6.91293 6.34436 6.94499 6.39717 6.96687C6.44998 6.98874 6.50657 7 6.56373 7C6.62089 7 6.67749 6.98874 6.7303 6.96687C6.7831 6.94499 6.83108 6.91293 6.8715 6.87251C6.91192 6.83209 6.94398 6.7841 6.96585 6.73129C6.98773 6.67848 6.99898 6.62187 6.99898 6.56471C6.99898 6.50755 6.98773 6.45094 6.96585 6.39813C6.94398 6.34532 6.91192 6.29734 6.8715 6.25692L4.61605 3.99975L6.87252 1.74359C6.91293 1.70317 6.94499 1.65519 6.96687 1.60238C6.98874 1.54956 7 1.49296 7 1.4358C7 1.37863 6.98874 1.32203 6.96687 1.26922C6.94499 1.21641 6.91293 1.16842 6.87252 1.128C6.8321 1.08758 6.78412 1.05552 6.73131 1.03364C6.6785 1.01177 6.62191 1.00051 6.56475 1.00051C6.50759 1.00051 6.45099 1.01177 6.39818 1.03364C6.34538 1.05552 6.29739 1.08758 6.25698 1.128L4 3.38365V3.38415Z" fill="#707280"/>
</svg>
