<svg width="12" height="12" viewBox="0 0 12 12" fill="none" xmlns="http://www.w3.org/2000/svg">
<path d="M5.625 0.75C5.72446 0.75 5.81984 0.789509 5.89016 0.859835C5.96049 0.930161 6 1.02554 6 1.125C6 1.22446 5.96049 1.31984 5.89016 1.39017C5.81984 1.46049 5.72446 1.5 5.625 1.5H2.25C2.05109 1.5 1.86032 1.57902 1.71967 1.71967C1.57902 1.86032 1.5 2.05109 1.5 2.25V9.75C1.5 9.94891 1.57902 10.1397 1.71967 10.2803C1.86032 10.421 2.05109 10.5 2.25 10.5H9.75C9.94891 10.5 10.1397 10.421 10.2803 10.2803C10.421 10.1397 10.5 9.94891 10.5 9.75V6.375C10.5 6.27554 10.5395 6.18016 10.6098 6.10983C10.6802 6.03951 10.7755 6 10.875 6C10.9745 6 11.0698 6.03951 11.1402 6.10983C11.2105 6.18016 11.25 6.27554 11.25 6.375V9.75C11.25 10.1478 11.092 10.5294 10.8107 10.8107C10.5294 11.092 10.1478 11.25 9.75 11.25H2.25C1.85218 11.25 1.47064 11.092 1.18934 10.8107C0.908035 10.5294 0.75 10.1478 0.75 9.75V2.25C0.75 1.85218 0.908035 1.47064 1.18934 1.18934C1.47064 0.908035 1.85218 0.75 2.25 0.75H5.625ZM9.75 0.75C10.1478 0.75 10.5294 0.908035 10.8107 1.18934C11.092 1.47064 11.25 1.85218 11.25 2.25V4.125C11.25 4.22446 11.2105 4.31984 11.1402 4.39016C11.0698 4.46049 10.9745 4.5 10.875 4.5C10.7755 4.5 10.6802 4.46049 10.6098 4.39016C10.5395 4.31984 10.5 4.22446 10.5 4.125V2.25C10.5 2.1885 10.4925 2.1285 10.4782 2.0715L5.52075 7.02375C5.48616 7.05957 5.44478 7.08813 5.39903 7.10779C5.35328 7.12744 5.30407 7.13779 5.25428 7.13822C5.20448 7.13865 5.1551 7.12916 5.10902 7.11031C5.06293 7.09145 5.02106 7.06361 4.98585 7.0284C4.95064 6.99319 4.9228 6.95132 4.90394 6.90523C4.88509 6.85915 4.8756 6.80977 4.87603 6.75997C4.87646 6.71018 4.88681 6.66097 4.90646 6.61522C4.92612 6.56947 4.95468 6.52809 4.9905 6.4935L9.9585 1.52925C9.89072 1.50974 9.82053 1.4999 9.75 1.5H7.875C7.77554 1.5 7.68016 1.46049 7.60983 1.39017C7.53951 1.31984 7.5 1.22446 7.5 1.125C7.5 1.02554 7.53951 0.930161 7.60983 0.859835C7.68016 0.789509 7.77554 0.75 7.875 0.75H9.75Z" fill="#F29C1B"/>
</svg>
