<svg width="32" height="32" viewBox="0 0 32 32" fill="none" xmlns="http://www.w3.org/2000/svg">
<g opacity="0.4">
<path d="M16.5134 4C13.1246 4 10.3824 6.66458 10.3824 9.95723V12.1906C9.19362 12.3992 8 12.6781 8 13.0413V24.6909C8 24.6909 8 25.0144 8.37194 25.1667C9.72358 25.6987 15.0353 27.5266 16.2581 27.9438C16.4137 28 16.4599 28 16.4988 28C16.5571 28 16.5863 28 16.7419 27.9438C17.9622 27.5243 23.2886 25.6987 24.6402 25.1667C24.8396 25.0893 24.9781 24.9112 25 24.705V13.039C25 12.6757 23.8234 12.3851 22.6298 12.1883V9.95489C22.6468 6.66458 19.8876 4 16.5134 4ZM16.5134 6.34352C18.6964 6.34352 20.0164 7.63715 20.0164 9.77444V11.9141C17.6875 11.7453 15.3465 11.7453 13.0176 11.9141V9.77444C13.0152 7.63246 14.3352 6.34352 16.5134 6.34352ZM16.4964 13.8358C19.9727 13.8358 22.8899 14.0889 22.8899 14.5435V23.3481C22.8899 23.484 22.8729 23.5004 22.744 23.5497C22.62 23.6012 16.8124 25.5768 16.8124 25.5768C16.8124 25.5768 16.579 25.6448 16.5109 25.6448C16.438 25.6448 16.2071 25.5604 16.2071 25.5604C16.2071 25.5604 10.4018 23.5848 10.2778 23.5332C10.1539 23.4817 10.132 23.4653 10.132 23.3317V14.5294C10.1004 14.0748 13.02 13.8358 16.4964 13.8358Z" fill="#4B4D59"/>
</g>
</svg>
