<svg width="14" height="14" viewBox="0 0 14 14" fill="none" xmlns="http://www.w3.org/2000/svg">
<g clip-path="url(#clip0_56854_31374)">
<path d="M7.0002 12.8332C8.61102 12.8332 10.0694 12.1802 11.125 11.1246C12.1806 10.069 12.8335 8.61065 12.8335 6.99984C12.8335 5.38902 12.1806 3.93069 11.125 2.87505C10.0694 1.81942 8.61102 1.1665 7.0002 1.1665C5.38939 1.1665 3.93105 1.81942 2.87541 2.87505C1.81979 3.93069 1.16687 5.38902 1.16687 6.99984C1.16687 8.61065 1.81979 10.069 2.87541 11.1246C3.93105 12.1802 5.38939 12.8332 7.0002 12.8332Z" stroke="#27C193" stroke-width="1.25" stroke-linejoin="round"/>
<path d="M4.66687 7L6.41687 8.75L9.91687 5.25" stroke="#27C193" stroke-width="1.25" stroke-linecap="round" stroke-linejoin="round"/>
</g>
<defs>
<clipPath id="clip0_56854_31374">
<rect width="14" height="14" fill="white"/>
</clipPath>
</defs>
</svg>
