<svg width="16" height="16" viewBox="0 0 16 16" fill="none" xmlns="http://www.w3.org/2000/svg">
<path d="M6.09452 14.3942C4.97749 14.0616 3.98319 13.4442 3.19588 12.6261C3.48959 12.278 3.66659 11.8282 3.66659 11.3371C3.66659 10.2325 2.77116 9.33711 1.66659 9.33711C1.59977 9.33711 1.53372 9.34041 1.46858 9.34681C1.37985 8.91298 1.33325 8.46384 1.33325 8.00378C1.33325 7.30691 1.44018 6.63501 1.63852 6.00358C1.64786 6.00371 1.65721 6.00378 1.66659 6.00378C2.77116 6.00378 3.66659 5.10835 3.66659 4.00378C3.66659 3.68668 3.59279 3.38685 3.46145 3.12045C4.23242 2.40358 5.17342 1.86709 6.21729 1.57812C6.54805 2.22648 7.22215 2.67046 7.99992 2.67046C8.77769 2.67046 9.45179 2.22648 9.78255 1.57812C10.8264 1.86709 11.7674 2.40358 12.5384 3.12045C12.4071 3.38685 12.3333 3.68668 12.3333 4.00378C12.3333 5.10835 13.2287 6.00378 14.3333 6.00378C14.3426 6.00378 14.352 6.00371 14.3613 6.00358C14.5597 6.63501 14.6666 7.30691 14.6666 8.00378C14.6666 8.46384 14.62 8.91298 14.5313 9.34681C14.4661 9.34041 14.4001 9.33711 14.3333 9.33711C13.2287 9.33711 12.3333 10.2325 12.3333 11.3371C12.3333 11.8282 12.5103 12.278 12.804 12.6261C12.0167 13.4442 11.0224 14.0616 9.90532 14.3942C9.64752 13.5877 8.89192 13.0038 7.99992 13.0038C7.10792 13.0038 6.35232 13.5877 6.09452 14.3942Z" stroke="#4B4D59" stroke-linejoin="round"/>
<path d="M8.00008 10.3307C9.28875 10.3307 10.3334 9.28606 10.3334 7.9974C10.3334 6.70873 9.28875 5.66406 8.00008 5.66406C6.71141 5.66406 5.66675 6.70873 5.66675 7.9974C5.66675 9.28606 6.71141 10.3307 8.00008 10.3307Z" stroke="#4B4D59" stroke-linejoin="round"/>
</svg>
