<svg width="200" height="200" viewBox="0 0 200 200" fill="none" xmlns="http://www.w3.org/2000/svg">
<rect width="200" height="200" rx="100" fill="black"/>
<path d="M168.386 85.2795L179.498 104.653L120.986 138.694C120.986 138.694 85.1724 160.515 59.4122 115.501L77.6306 104.901C77.6306 104.901 89.4645 131.269 109.989 119.296C130.513 107.324 168.386 85.2795 168.386 85.2795Z" fill="white"/>
<path d="M32.6015 115.393L21.4897 96.0203L81.2496 61.2925C81.2496 61.2925 117.079 39.4719 142.839 84.4443L124.613 95.0197C124.613 95.0197 112.779 68.6514 92.2544 80.6243C71.73 92.597 32.6015 115.393 32.6015 115.393Z" fill="white"/>
<path d="M101.634 114.922C104.524 114.924 107.35 114.062 109.753 112.445C112.157 110.828 114.03 108.53 115.137 105.84C116.243 103.151 116.533 100.191 115.97 97.3347C115.407 94.4789 114.015 91.8558 111.972 89.797C109.929 87.7379 107.325 86.336 104.49 85.7685C101.656 85.2008 98.7184 85.4931 96.0488 86.6081C93.3793 87.7229 91.098 89.6107 89.4935 92.0324C87.8889 94.4539 87.0336 97.3007 87.0352 100.212C87.0374 104.113 88.5761 107.853 91.3137 110.611C94.051 113.369 97.7632 114.92 101.634 114.922Z" fill="#FF931E"/>
<path d="M50.0813 137.884C51.5888 137.882 53.0619 137.43 54.3146 136.585C55.5672 135.74 56.5432 134.54 57.1189 133.136C57.6947 131.733 57.8445 130.188 57.5494 128.699C57.2544 127.209 56.5276 125.841 55.461 124.768C54.3944 123.694 53.0361 122.964 51.5574 122.668C50.0787 122.372 48.5462 122.525 47.1537 123.106C45.761 123.688 44.5707 124.673 43.7334 125.936C42.8962 127.199 42.4491 128.683 42.4491 130.202C42.4481 131.212 42.6447 132.212 43.028 133.145C43.4113 134.078 43.9736 134.926 44.6826 135.639C45.3917 136.353 46.2335 136.919 47.1599 137.304C48.0863 137.689 49.0791 137.886 50.0813 137.884Z" fill="white"/>
<path d="M151.858 78.6728C153.368 78.6744 154.844 78.2249 156.101 77.381C157.357 76.537 158.336 75.3365 158.915 73.9317C159.494 72.5268 159.646 70.9802 159.353 69.4881C159.059 67.9958 158.333 66.6249 157.266 65.5487C156.199 64.4725 154.839 63.7391 153.359 63.4419C151.878 63.1444 150.343 63.2962 148.948 63.878C147.553 64.4599 146.36 65.4455 145.521 66.7101C144.682 67.9748 144.234 69.4619 144.234 70.9832C144.233 71.9926 144.43 72.9925 144.812 73.9252C145.195 74.8582 145.757 75.706 146.465 76.4202C147.173 77.1343 148.013 77.7008 148.939 78.0873C149.864 78.474 150.856 78.6728 151.858 78.6728Z" fill="white"/>
</svg>
