<svg width="20" height="20" viewBox="0 0 20 20" fill="none" xmlns="http://www.w3.org/2000/svg">
<path d="M10 4.06944C10.289 4.06852 10.5725 4.14854 10.8184 4.30043C11.0642 4.45232 11.2627 4.67003 11.3912 4.92889L15.766 13.6789C15.8847 13.9161 15.9407 14.1796 15.9289 14.4446C15.917 14.7095 15.8376 14.967 15.6982 15.1927C15.5588 15.4183 15.3641 15.6045 15.1324 15.7336C14.9008 15.8628 14.64 15.9306 14.3748 15.9306H5.62519C5.35999 15.9306 5.09919 15.8628 4.86756 15.7336C4.63593 15.6045 4.44117 15.4183 4.30177 15.1927C4.16238 14.967 4.08298 14.7095 4.07111 14.4446C4.05925 14.1796 4.11532 13.9161 4.234 13.6789L8.60881 4.92889C8.73734 4.67003 8.93577 4.45232 9.18164 4.30043C9.42751 4.14854 9.711 4.06852 10 4.06944ZM10 3C9.51257 2.99994 9.03476 3.13562 8.62009 3.39181C8.20541 3.64801 7.87026 4.01462 7.65218 4.45056L3.27737 13.2006C3.07716 13.6008 2.98258 14.0456 3.00264 14.4926C3.02269 14.9397 3.15671 15.3742 3.39195 15.7549C3.6272 16.1356 3.95587 16.4499 4.34673 16.6678C4.7376 16.8857 5.17769 17.0001 5.62519 17H14.3748C14.8223 17.0001 15.2624 16.8857 15.6533 16.6678C16.0441 16.4499 16.3728 16.1356 16.608 15.7549C16.8433 15.3742 16.9773 14.9397 16.9974 14.4926C17.0174 14.0456 16.9228 13.6008 16.7226 13.2006L12.3478 4.45056C12.1297 4.01462 11.7946 3.64801 11.3799 3.39181C10.9652 3.13562 10.4874 2.99994 10 3Z" fill="white"/>
</svg>
