<svg width="20" height="20" viewBox="0 0 20 20" fill="none" xmlns="http://www.w3.org/2000/svg">
<g clip-path="url(#clip0_24444_7137)">
<path fill-rule="evenodd" clip-rule="evenodd" d="M20 11.3001C20 9.12041 18.825 4.22507 12.9936 1.38476C10.3011 0.0733224 8.15177 -0.193403 7.65137 0.609885C7.45827 0.919874 7.44551 1.22154 7.57286 1.51771L7.57141 1.52101C7.98562 2.49494 9.91845 3.4092 11.9372 4.3641C12.7716 4.75877 13.6206 5.16038 14.3832 5.57601L14.4527 5.61039C13.7725 5.94761 13.1317 6.55224 12.7548 7.32534C11.5744 5.85582 8.98347 4.59035 5.94333 5.60971C3.89464 6.29663 2.19202 7.91606 1.53397 10.362C1.37407 10.281 1.19704 10.236 1.01078 10.236C0.298547 10.236 0 10.8944 0 11.7065C0 12.5187 0.298547 13.1771 1.01078 13.1771C1.11169 13.1771 1.37662 13.1181 1.49588 13.0903C1.81258 15.1887 2.98067 16.0322 5.25201 16.2907C5.66904 16.3382 6.05502 16.3718 6.41778 16.396C5.60256 17.3193 4.87706 17.923 4.34506 18.3657C3.7766 18.8387 3.42907 19.1279 3.42907 19.4268C3.42907 20.2535 5.42379 20.0295 6.17277 19.7213C8.27844 18.855 10.2234 18.0249 11.7728 16.7587C12.2145 16.8813 12.6599 17.0408 13.071 17.188C13.8655 17.4725 14.5324 17.7113 14.7989 17.5498C15.2529 17.2748 14.9989 16.281 14.3914 15.6435C14.1585 15.399 13.8485 15.1553 13.4777 14.9279C13.8563 14.3806 14.1843 13.7685 14.454 13.0761C19.0591 14.251 20 12.6814 20 11.3001Z" fill="#A2A2A2"/>
<path d="M19.5065 10L15.5981 13.1257L16.3269 11.2831L19.5065 10Z" fill="#E17726" stroke="#E17726" stroke-width="0.0820444" stroke-linecap="round" stroke-linejoin="round"/>
<path d="M10.494 10L14.3667 13.1514L13.6737 11.2863L10.494 10ZM18.0996 17.245L17.0586 18.9622L19.2864 19.6247L19.9229 17.2836L18.0996 17.245ZM10.0806 17.2836L10.7141 19.6247L12.936 18.9622L11.9009 17.245L10.0806 17.2836Z" fill="#E27625" stroke="#E27625" stroke-width="0.0820444" stroke-linecap="round" stroke-linejoin="round"/>
<path d="M12.8159 14.3569L12.1973 15.3666L14.3983 15.4759L14.327 12.913L12.8159 14.3601V14.3569ZM17.1824 14.3601L15.6476 12.8809L15.597 15.4759L17.7981 15.3666L17.1824 14.3601ZM12.9349 18.9747L14.2704 18.2801L13.1223 17.3153L12.9349 18.9747ZM15.7309 18.2768L17.0575 18.9747L16.879 17.3121L15.7309 18.2768Z" fill="#E27625" stroke="#E27625" stroke-width="0.0820444" stroke-linecap="round" stroke-linejoin="round"/>
<path d="M17.0596 18.9661L15.733 18.2715L15.84 19.204L15.8281 19.5996L17.0596 18.9661ZM12.937 18.9661L14.1744 19.5996L14.1654 19.204L14.2725 18.2715L12.937 18.9661Z" fill="#D5BFB2" stroke="#D5BFB2" stroke-width="0.0820444" stroke-linecap="round" stroke-linejoin="round"/>
<path d="M14.1938 16.6837L13.0933 16.3364L13.8726 15.9505L14.1968 16.6837H14.1938ZM15.803 16.6837L16.1301 15.9473L16.9124 16.3332L15.803 16.6869V16.6837Z" fill="#233447" stroke="#233447" stroke-width="0.0820444" stroke-linecap="round" stroke-linejoin="round"/>
<path d="M12.937 18.9596L13.1303 17.2424L11.9019 17.281L12.937 18.9596ZM16.8721 17.2424L17.0595 18.9596L18.1005 17.281L16.8721 17.2424ZM17.8031 15.3516L15.602 15.4609L15.8043 16.6829L16.1315 15.9433L16.9138 16.3291L17.8031 15.3516ZM13.0946 16.3324L13.8739 15.9465L14.1981 16.6797L14.4033 15.4577L12.2023 15.3516L13.0946 16.3324Z" fill="#CC6228" stroke="#CC6228" stroke-width="0.0820444" stroke-linecap="round" stroke-linejoin="round"/>
<path d="M12.1997 15.3516L13.1218 17.2971L13.092 16.3324L12.1997 15.3516ZM16.9112 16.3324L16.8755 17.2971L17.7976 15.3516L16.9112 16.3324ZM14.4008 15.4609L14.1926 16.6829L14.4543 18.1235L14.5138 16.223L14.4008 15.4609ZM15.5965 15.4609L15.4894 16.2198L15.543 18.1235L15.8017 16.6797L15.5965 15.4577V15.4609Z" fill="#E27525" stroke="#E27525" stroke-width="0.0820444" stroke-linecap="round" stroke-linejoin="round"/>
<path d="M15.8011 16.6852L15.5423 18.129L15.7297 18.2705L16.8748 17.3058L16.9105 16.3379L15.8011 16.6852ZM13.0914 16.3379L13.1211 17.3026L14.2692 18.2673L14.4536 18.129L14.1949 16.6852L13.0884 16.3379H13.0914Z" fill="#F5841F" stroke="#F5841F" stroke-width="0.0820444" stroke-linecap="round" stroke-linejoin="round"/>
<path d="M15.8311 19.6081L15.84 19.2126L15.7389 19.1225H14.2636L14.1654 19.2126L14.1744 19.6081L12.937 18.9746L13.3713 19.3605L14.2487 20.0133H15.7508L16.6312 19.3573L17.0596 18.9746L15.8281 19.6081H15.8311Z" fill="#C0AC9D" stroke="#C0AC9D" stroke-width="0.0820444" stroke-linecap="round" stroke-linejoin="round"/>
<path d="M15.7301 18.2633L15.5427 18.125H14.4541L14.2697 18.2665L14.1626 19.1991L14.2608 19.109H15.7361L15.8372 19.1991L15.7301 18.2665V18.2633Z" fill="#161616" stroke="#161616" stroke-width="0.0820444" stroke-linecap="round" stroke-linejoin="round"/>
<path d="M19.6728 13.3283L20 11.6079L19.5062 10L15.7287 13.0228L17.1832 14.3444L19.2356 14.9908L19.6877 14.4216L19.4914 14.2673L19.8037 13.9586L19.5657 13.7592L19.878 13.5019L19.6698 13.3283H19.6728ZM10 11.6046L10.3331 13.3283L10.119 13.4987L10.4372 13.756L10.1993 13.9586L10.5086 14.2673L10.3123 14.4216L10.7644 14.9908L12.8168 14.3477L14.2713 13.0196L10.4938 10L10 11.6046Z" fill="#763E1A" stroke="#763E1A" stroke-width="0.0820444" stroke-linecap="round" stroke-linejoin="round"/>
<path d="M19.2358 14.9968L17.1835 14.3536L17.8022 15.3602L16.8801 17.3057L18.0996 17.2896H19.9229L19.2358 14.9968ZM12.817 14.3504L10.7647 14.9968L10.0806 17.2896H11.9039L13.1234 17.3057L12.2013 15.3602L12.82 14.3504H12.817ZM15.5981 15.4695L15.732 13.0256L16.3268 11.2891H13.6737L14.2685 13.0256L14.4024 15.4695L14.453 16.2348V18.1321H15.5446L15.5505 16.2348L15.5981 15.4695Z" fill="#F5841F" stroke="#F5841F" stroke-width="0.0820444" stroke-linecap="round" stroke-linejoin="round"/>
</g>
<defs>
<clipPath id="clip0_24444_7137">
<rect width="20" height="20" fill="white"/>
</clipPath>
</defs>
</svg>
