<svg width="28" height="28" viewBox="0 0 28 28" fill="none" xmlns="http://www.w3.org/2000/svg">
<path d="M15.4029 5.52196L15.4031 5.5218C15.6229 5.28892 15.9269 4.97577 16.26 4.66042L16.26 4.6604C16.5895 4.34851 16.9641 4.01831 17.3232 3.76091L17.3234 3.76074C17.5028 3.63231 17.6954 3.50951 17.8895 3.41592M15.4029 5.52196L19.5995 3.53358L19.2955 3.93056L19.5995 3.53356C19.294 3.2996 18.9361 3.23117 18.6062 3.23117C18.3239 3.23117 18.0701 3.32876 17.8895 3.41592M15.4029 5.52196C15.3898 5.53586 15.377 5.54949 15.3645 5.56284C14.7154 5.44435 13.9895 5.38438 13.3666 5.38438C12.862 5.38438 12.366 5.4236 11.8817 5.49928C11.2333 5.30116 10.762 5.10767 10.1686 4.48396L10.1685 4.48395M15.4029 5.52196L10.1685 4.48395M17.8895 3.41592L18.1067 3.86628L17.8894 3.41597C17.8894 3.41595 17.8895 3.41594 17.8895 3.41592ZM10.1685 4.48395C10.1141 4.42672 10.0556 4.36424 9.99208 4.29643L9.99205 4.2964M10.1685 4.48395L9.99205 4.2964M9.99205 4.2964L9.97639 4.27967C9.62015 3.89916 9.11421 3.35876 8.58082 2.98994L8.58078 2.98991M9.99205 4.2964L8.58078 2.98991M8.58078 2.98991C8.2622 2.76967 7.85145 2.55024 7.38659 2.50746L7.38659 2.50746M8.58078 2.98991L7.38659 2.50746M7.38659 2.50746C6.86849 2.45978 6.37245 2.64041 5.97891 3.05818L5.97889 3.0582M7.38659 2.50746L5.97889 3.0582M5.97889 3.0582C5.36729 3.70752 4.89079 4.90329 4.62058 6.32048C4.35305 7.72347 4.26507 9.45964 4.50404 11.3727C4.0613 12.4739 3.81799 13.676 3.81799 14.933C3.81799 16.8692 4.39522 18.6734 5.3872 20.1791C6.91665 23.4092 10.207 25.6458 14.0215 25.6458C18.4619 25.6458 22.1922 22.6155 23.2618 18.5115C23.832 17.4593 24.153 16.2858 24.153 15.0471C24.153 12.5149 22.8185 10.2847 20.7828 8.76861C20.3139 7.82683 20.2912 7.16733 20.2651 6.37246L20.2651 6.37234M5.97889 3.0582L20.2651 6.37234M20.2651 6.37234C20.2599 6.21612 20.2544 6.05222 20.2453 5.88235L20.2453 5.88232M20.2651 6.37234L20.2453 5.88232M20.2453 5.88232C20.2367 5.72156 20.2324 5.58078 20.2282 5.43862L20.2282 5.43786M20.2453 5.88232L20.2282 5.43786M20.2282 5.43786C20.2249 5.3336 20.2216 5.22827 20.2166 5.11783L20.2282 5.43786Z" stroke="white"/>
<path d="M7.10122 9.2562C6.60168 7.6205 6.72953 5.61793 7.10124 4.46214C7.75209 6.64053 9.32857 7.9227 9.32857 7.9227C8.67109 8.06543 7.73179 8.61814 7.10122 9.2562Z" fill="white"/>
<path d="M17.3283 15.0421C17.8224 13.9877 20.7266 13.7995 21.1844 15.0421C21.439 15.7334 20.4129 17.3055 19.7291 17.4068C18.7469 17.5522 16.7826 16.2063 17.3283 15.0421Z" fill="white"/>
<path d="M16.8569 20.9542C16.693 20.8083 16.8983 20.621 17.0979 20.7121C17.4949 20.8931 17.9477 20.9958 18.4286 20.9958C19.6644 20.9958 20.7159 20.3181 21.1069 19.3718C21.1423 19.2862 21.2699 19.2948 21.2699 19.3875C21.2699 20.6242 20.1176 21.6269 18.696 21.6269C17.9755 21.6269 17.3241 21.3693 16.8569 20.9542Z" fill="white"/>
<path fill-rule="evenodd" clip-rule="evenodd" d="M6.5329 11.5401L24.597 9.4033L24.6994 10.2704L23.8325 10.3729L23.935 11.24L23.0679 11.3427L23.1704 12.2097L22.3031 12.3122L22.3035 12.3124L22.406 13.1795L19.5157 13.5214L19.4133 12.6543L19.4135 12.6541L18.546 12.7568L18.4435 11.8897L17.5765 11.9922L17.4738 11.1251L15.7396 11.3302L15.8423 12.1973L14.9752 12.2999L15.0777 13.167L14.2106 13.2695H14.2107L14.3133 14.1366L11.4231 14.4785L11.3205 13.6114L10.4533 13.714L10.3508 12.847L9.48373 12.9494L9.38117 12.0824L6.63547 12.4072L6.5329 11.5401ZM22.2009 11.4451L23.0674 11.3427L22.9647 10.4756L22.0976 10.5782L22.2003 11.4451L21.3338 11.5476V11.5478L21.4364 12.4147L22.3035 12.3122L22.2009 11.4451ZM14.8724 11.4323L14.0054 11.5348L14.1079 12.4018L14.975 12.2994L14.8724 11.4323ZM13.2407 12.5043L14.1078 12.4018L14.2104 13.2689L13.3433 13.3714L13.2407 12.5043Z" fill="white"/>
<path d="M21.9147 15.6614C22.6314 16.606 21.8463 18.3172 20.4859 18.2919C20.1892 18.2863 19.8862 18.3971 19.683 18.6129C18.6086 19.7543 16.3445 19.8973 15.6435 18.3191C15.5728 18.1599 15.46 18.0182 15.3041 17.9404L14.7479 17.6623" stroke="white" stroke-width="0.766137" stroke-linecap="round"/>
<path d="M18.1676 19.5825C19.9186 20.2858 20.9498 18.9326 20.8596 18.4254L19.6439 18.5645L18.1676 19.5825Z" fill="white"/>
</svg>
