<svg width="14" height="14" viewBox="0 0 14 14" fill="none" xmlns="http://www.w3.org/2000/svg">
<path d="M13.5685 7.82874C14.0898 6.66417 11.5126 3.41056 9.05057 2.05504C7.49865 1.00494 5.88156 1.1492 5.55405 1.61028C4.83529 2.62215 7.93405 3.47956 10.0064 4.4801C9.56096 4.67358 9.14115 5.0208 8.89429 5.46484C8.12168 4.62136 6.42592 3.895 4.43612 4.4801C3.09523 4.87438 1.98086 5.80391 1.55016 7.20786C1.4455 7.16136 1.32963 7.13551 1.20773 7.13551C0.741563 7.13551 0.363663 7.51341 0.363663 7.97958C0.363663 8.44574 0.741563 8.82364 1.20773 8.82364C1.29413 8.82364 1.5643 8.76569 1.5643 8.76569L5.88156 8.79697C4.15499 11.536 2.79052 11.9364 2.79052 12.4109C2.79052 12.8854 4.09608 12.7568 4.58629 12.58C6.93297 11.7332 9.45342 9.09432 9.88592 8.33467C11.7022 8.56127 13.2286 8.58807 13.5685 7.82874Z" fill="url(#paint0_linear)"/>
<path fill-rule="evenodd" clip-rule="evenodd" d="M10.0063 4.48017C10.0064 4.48022 10.0065 4.48027 10.0066 4.48032C10.1027 4.44248 10.0871 4.30061 10.0607 4.1892C10.0001 3.93313 8.95411 2.90022 7.97184 2.43757C6.63343 1.80719 5.64786 1.83966 5.50217 2.13017C5.77479 2.68898 7.03877 3.21362 8.35888 3.76156C8.92208 3.99533 9.4955 4.23334 10.0065 4.48006C10.0064 4.48009 10.0063 4.48013 10.0063 4.48017Z" fill="url(#paint1_linear)"/>
<path fill-rule="evenodd" clip-rule="evenodd" d="M8.30774 10.1045C8.03706 10.001 7.73128 9.90614 7.38366 9.82002C7.75431 9.15679 7.83209 8.17494 7.48203 7.55415C6.99076 6.68295 6.37406 6.21924 4.94101 6.21924C4.15284 6.21924 2.03071 6.48472 1.99304 8.25622C1.98908 8.4421 1.99294 8.61245 2.00639 8.76911L5.88155 8.79719C5.35912 9.62597 4.86984 10.2406 4.44149 10.708C4.95578 10.8398 5.3802 10.9504 5.76984 11.052C6.13958 11.1484 6.478 11.2366 6.8322 11.327C7.36652 10.9377 7.86882 10.5133 8.30774 10.1045Z" fill="url(#paint2_linear)"/>
<path d="M1.49845 8.58663C1.65675 9.93235 2.42156 10.4597 3.98436 10.6158C5.54717 10.7719 6.44362 10.6672 7.63709 10.7758C8.63387 10.8665 9.52388 11.3744 9.85406 11.1989C10.1512 11.0409 9.98496 10.4702 9.58735 10.104C9.07195 9.62933 8.35863 9.29932 7.1035 9.18221C7.35363 8.49734 7.28354 7.53708 6.89506 7.01463C6.33336 6.25922 5.29657 5.91769 3.98436 6.06691C2.61341 6.22281 1.29978 6.89776 1.49845 8.58663Z" fill="url(#paint3_linear)"/>
<defs>
<linearGradient id="paint0_linear" x1="4.27998" y1="6.79746" x2="13.4562" y2="9.39967" gradientUnits="userSpaceOnUse">
<stop stop-color="white"/>
<stop offset="1" stop-color="white"/>
</linearGradient>
<linearGradient id="paint1_linear" x1="11.9111" y1="6.62295" x2="5.29" y2="-0.0143002" gradientUnits="userSpaceOnUse">
<stop stop-color="#7258DC"/>
<stop offset="1" stop-color="#797DEA" stop-opacity="0"/>
</linearGradient>
<linearGradient id="paint2_linear" x1="8.49196" y1="10.3357" x2="2.13168" y2="6.67898" gradientUnits="userSpaceOnUse">
<stop stop-color="#7461EA"/>
<stop offset="1" stop-color="#BFC2FF" stop-opacity="0"/>
</linearGradient>
<linearGradient id="paint3_linear" x1="4.82782" y1="6.72876" x2="9.12688" y2="12.1912" gradientUnits="userSpaceOnUse">
<stop stop-color="white"/>
<stop offset="0.983895" stop-color="#D5CEFF"/>
</linearGradient>
</defs>
</svg>
