<svg width="28" height="28" viewBox="0 0 28 28" fill="none" xmlns="http://www.w3.org/2000/svg">
<path d="M14 28C21.732 28 28 21.732 28 14C28 6.26801 21.732 0 14 0C6.26801 0 0 6.26801 0 14C0 21.732 6.26801 28 14 28Z" fill="white"/>
<path fill-rule="evenodd" clip-rule="evenodd" d="M6.94891 20.7278L8.98626 19.544L14.031 22.5035L19.0137 19.544L21.1131 20.7278L14.031 25L6.94891 20.7278Z" fill="#2FBDF4"/>
<path fill-rule="evenodd" clip-rule="evenodd" d="M4.69231 8.8562L7.45049 10.04V16.6955L14 12.7282L20.6126 16.6955V10.04L23.3077 8.8562V21.4004L14 15.8323L4.69231 21.4004V8.8562Z" fill="#0F68AA"/>
<path fill-rule="evenodd" clip-rule="evenodd" d="M5.00567 8.34391L14 3L23.0574 8.34391L20.6126 9.36848L14 5.49648L7.45049 9.36848L5.00567 8.34391Z" fill="#2FBDF4"/>
</svg>
