<svg width="32" height="32" viewBox="0 0 32 32" fill="none" xmlns="http://www.w3.org/2000/svg">
<rect width="32" height="32" rx="16" fill="white"/>
<path fill-rule="evenodd" clip-rule="evenodd" d="M25.5625 8.7625C23.7437 6.4375 21.0812 4.95625 18.1375 4.95625C12.4375 4.95625 8.25625 10.2625 8.25625 16C8.25625 19.9937 10.9187 22.9937 13.8625 22.9937C14.1437 22.9937 14.4062 22.975 14.6875 22.9187C12.7 21.475 11.4437 18.85 11.4437 16C11.4437 11.4625 14.5187 7.91875 18.1375 7.91875C22.0937 7.91875 24.8312 11.8375 24.8312 16C24.8125 19.075 23.725 22.1312 21.7937 24.3812C20.1062 26.35 17.9312 27.5875 15.5312 27.9812C15.5312 27.9812 15.7375 28 16 28C22.6187 28 28 22.6187 28 16C28 13.2812 27.1 10.7687 25.5625 8.7625ZM23.7437 16C23.7437 12.0062 21.0812 9.00625 18.1375 9.00625C17.8562 9.00625 17.5937 9.025 17.3125 9.08125C19.3 10.525 20.5562 13.15 20.5562 16C20.5562 20.5375 17.4812 24.0812 13.8625 24.0812C9.90624 24.0812 7.16875 20.1625 7.16875 16C7.1875 12.925 8.275 9.86875 10.2062 7.61875C11.8937 5.65 14.0687 4.4125 16.4687 4.01875C16.4687 4.01875 16.2625 4 16 4C9.38125 4 4 9.38125 4 16C4 18.7187 4.9 21.2312 6.4375 23.2375C8.25625 25.5625 10.9187 27.025 13.8625 27.025C19.5625 27.0437 23.7437 21.7375 23.7437 16Z" fill="#107BF4"/>
</svg>
