<svg width="20" height="20" viewBox="0 0 20 20" fill="none" xmlns="http://www.w3.org/2000/svg">
<path fill-rule="evenodd" clip-rule="evenodd" d="M9.76305 1.04102C7.16455 1.04102 5.05805 3.14752 5.05805 5.74602C5.05805 7.36152 5.87226 8.78686 7.1127 9.63407C4.37848 10.5549 2.2526 12.8643 1.63682 15.7846C1.59326 15.9911 1.55881 16.2996 1.52941 16.7251C1.45079 17.8628 2.3094 18.8489 3.44715 18.9275L3.51828 18.9312L15.9379 18.9324C17.0784 18.9324 18.0029 18.0079 18.0029 16.8674C18.0029 16.8205 18.0013 16.7736 17.9981 16.7268L17.9727 16.4005C17.9504 16.1511 17.9251 15.9573 17.8954 15.8138C17.2879 12.8804 15.1572 10.5582 12.4134 9.63406C13.6538 8.78686 14.4681 7.36152 14.4681 5.74602C14.4681 3.14752 12.3616 1.04102 9.76305 1.04102ZM9.76305 2.29102C11.6712 2.29102 13.2181 3.83787 13.2181 5.74602C13.2181 7.65416 11.6712 9.20102 9.76305 9.20102C7.85491 9.20102 6.30805 7.65416 6.30805 5.74602C6.30805 3.83787 7.85491 2.29102 9.76305 2.29102ZM9.76305 10.451C13.1233 10.451 15.9986 12.8185 16.6714 16.0673C16.6908 16.1612 16.7106 16.3172 16.7292 16.5299L16.7524 16.8396L16.7529 16.8674C16.7529 17.3175 16.388 17.6824 15.9379 17.6824H3.5895C3.57075 17.6824 3.55202 17.6818 3.53332 17.6805C3.08428 17.6494 2.74541 17.2603 2.77644 16.8112L2.79921 16.52C2.81875 16.3004 2.83948 16.1394 2.85992 16.0425C3.54248 12.8055 6.41214 10.451 9.76305 10.451Z" fill="white"/>
</svg>
