<svg width="16" height="16" viewBox="0 0 16 16" fill="none" xmlns="http://www.w3.org/2000/svg">
<path d="M8.78589 10.4614C8.67418 10.3899 8.54027 10.3613 8.40908 10.3811C8.27789 10.4009 8.15834 10.4676 8.07267 10.5688L5.69783 13.2636C5.33476 13.6707 4.82775 13.921 4.28364 13.9618C3.73954 14.0026 3.20083 13.8307 2.78106 13.4823C2.57182 13.2986 2.4011 13.0752 2.27879 12.8251C2.15648 12.575 2.085 12.3031 2.06849 12.0252C2.05198 11.7473 2.09077 11.4689 2.18261 11.2061C2.27445 10.9433 2.41751 10.7013 2.60354 10.4941L4.94489 7.8436C4.9926 7.78941 5.02826 7.72573 5.04953 7.65676C5.07081 7.58778 5.0772 7.51508 5.0683 7.44346C5.05939 7.37183 5.0354 7.3029 4.99788 7.24123C4.96037 7.17955 4.9102 7.12653 4.85068 7.08565C4.73889 7.01391 4.60481 6.98524 4.47344 7.005C4.34207 7.02476 4.22237 7.09159 4.13667 7.19304L1.76339 9.88711C1.49524 10.1923 1.29037 10.5476 1.16065 10.9325C1.03093 11.3174 0.978943 11.7243 1.0077 12.1294C1.03645 12.5345 1.14537 12.9299 1.32816 13.2927C1.51094 13.6554 1.76394 13.9783 2.07251 14.2426C2.70152 14.7801 3.51653 15.0494 4.34218 14.9925C5.16782 14.9356 5.93813 14.5571 6.48737 13.9383L8.87622 11.2194C8.92412 11.1654 8.96004 11.102 8.98162 11.0331C9.0032 10.9643 9.00995 10.8917 9.00141 10.8201C8.99288 10.7485 8.96926 10.6795 8.93211 10.6177C8.89497 10.5559 8.84513 10.5026 8.78589 10.4614ZM14.5299 2.51382C14.3261 2.15957 14.0524 1.85038 13.7255 1.60497C13.3985 1.35955 13.0251 1.18304 12.6279 1.08613C12.2307 0.989208 11.8179 0.973904 11.4146 1.04114C11.0113 1.10838 10.6259 1.25676 10.2817 1.47728L7.24264 3.4492C7.00126 3.61262 6.93119 3.93634 7.08224 4.18536C7.11625 4.24432 7.16187 4.29578 7.21635 4.33663C7.27082 4.37748 7.33301 4.40686 7.39917 4.42301C7.46532 4.43916 7.53407 4.44173 7.60124 4.43058C7.66842 4.41942 7.73264 4.39477 7.79002 4.35812L10.829 2.3862C11.0583 2.23899 11.3151 2.13983 11.5838 2.09474C11.8525 2.04965 12.1276 2.05957 12.3924 2.12389C12.6572 2.18821 12.9062 2.3056 13.1242 2.46893C13.3423 2.63227 13.5249 2.83816 13.6609 3.07411C13.9509 3.55387 14.046 4.12642 13.9267 4.6741C13.8074 5.22177 13.4827 5.70296 13.0193 6.01876L9.97098 7.99068C9.7296 8.1541 9.65952 8.47782 9.81136 8.72606C9.84531 8.78498 9.89084 8.83642 9.94522 8.87727C9.9996 8.91812 10.0617 8.94755 10.1278 8.96376C10.1938 8.97998 10.2625 8.98265 10.3296 8.97162C10.3968 8.9606 10.461 8.93609 10.5184 8.8996L13.5581 6.92768C14.254 6.45553 14.7424 5.73498 14.9231 4.91407C15.1039 4.09316 14.9631 3.23425 14.5299 2.51382ZM5.70795 9.86766C5.82006 9.95213 5.95929 9.99253 6.09923 9.9812C6.23917 9.96987 6.37008 9.90759 6.46712 9.80618L10.3502 5.9246C10.4049 5.86992 10.4475 5.80437 10.4753 5.73218C10.5031 5.66 10.5154 5.58278 10.5114 5.50554C10.5075 5.4283 10.4873 5.35276 10.4523 5.28379C10.4173 5.21482 10.3682 5.15397 10.3081 5.10517C10.196 5.02048 10.0566 4.97995 9.91644 4.99128C9.77632 5.00262 9.64525 5.06503 9.54818 5.16665L5.66668 9.04745C5.61191 9.10208 5.56922 9.16759 5.54137 9.23974C5.51353 9.3119 5.50115 9.3891 5.50504 9.46633C5.50893 9.54357 5.529 9.61914 5.56395 9.68813C5.59891 9.75713 5.64796 9.81803 5.70795 9.86688V9.86766ZM1.39042 6.8841C1.39946 6.91814 1.41658 6.9495 1.44035 6.97551C1.46411 7.00151 1.4938 7.0214 1.52691 7.03347C1.56001 7.04554 1.59554 7.04944 1.63048 7.04484C1.66542 7.04025 1.69873 7.02728 1.72757 7.00705L3.74112 5.93472C3.76737 5.91946 3.78785 5.89596 3.79936 5.86788C3.81087 5.83979 3.81278 5.80869 3.80479 5.77941C3.7968 5.75013 3.77936 5.72431 3.75517 5.70595C3.73099 5.6876 3.70141 5.67774 3.67104 5.67792L1.41768 5.56586C1.38027 5.56293 1.34273 5.56967 1.30868 5.58542C1.27463 5.60117 1.2452 5.62541 1.22323 5.65581C1.20126 5.68621 1.18748 5.72175 1.18321 5.75901C1.17895 5.79627 1.18434 5.834 1.19888 5.86857L1.3912 6.8841H1.39042ZM1.47607 3.33092L4.16703 4.32076C4.19555 4.33076 4.22656 4.33111 4.25529 4.32177C4.28403 4.31242 4.30889 4.2939 4.32606 4.26904C4.34323 4.24419 4.35175 4.21439 4.35031 4.18422C4.34887 4.15406 4.33755 4.1252 4.31809 4.1021L2.45715 1.95431C2.43618 1.92374 2.40777 1.899 2.3746 1.88241C2.34143 1.86583 2.30458 1.85795 2.26752 1.8595C2.23047 1.86106 2.19441 1.872 2.16275 1.89131C2.13109 1.91062 2.10486 1.93765 2.08652 1.96987L1.3585 2.98774C1.33688 3.01642 1.32264 3.04996 1.31701 3.08542C1.31139 3.12088 1.31456 3.15719 1.32624 3.19114C1.33792 3.2251 1.35777 3.25567 1.38402 3.28017C1.41028 3.30468 1.44216 3.32237 1.47685 3.33169L1.47607 3.33092ZM5.45022 3.699C5.45896 3.72705 5.47644 3.75157 5.50012 3.76898C5.52379 3.7864 5.55242 3.79579 5.58181 3.79579C5.61121 3.79579 5.63983 3.7864 5.66351 3.76898C5.68718 3.75157 5.70466 3.72705 5.7134 3.699L6.48892 1.50841C6.50133 1.47633 6.50601 1.44179 6.5026 1.40757C6.49919 1.37335 6.48778 1.34041 6.46929 1.3114C6.45081 1.2824 6.42576 1.25814 6.39616 1.24059C6.36657 1.22304 6.33327 1.21269 6.29894 1.21036L5.34744 1.13566C5.31019 1.12883 5.27181 1.13179 5.23605 1.14423C5.20028 1.15667 5.16836 1.17818 5.14341 1.20665C5.11845 1.23512 5.10132 1.26958 5.09368 1.30665C5.08605 1.34372 5.08817 1.38213 5.09984 1.41814L5.45022 3.69822V3.699Z" fill="currentColor"/>
</svg>
