<svg width="28" height="28" viewBox="0 0 28 28" fill="none" xmlns="http://www.w3.org/2000/svg">
<rect width="28" height="28" rx="14" fill="white"/>
<path d="M19.3471 4.19012L19.7928 4.60113C18.6338 4.79707 17.5442 5.01931 16.4963 5.39567C14.3696 6.15915 12.3982 7.18787 10.741 8.76501C8.82928 10.5787 8.82928 12.7533 10.2857 14.7988C10.4542 15.0377 10.7637 15.2002 10.7326 15.5551C9.73972 14.6566 8.8472 13.7019 8.55687 12.3172C8.25219 10.8607 8.79583 9.66589 9.64892 8.57265C10.9847 6.85333 12.8462 5.89032 14.8248 5.12684C16.012 4.68405 17.2279 4.32239 18.4642 4.04435C18.8107 3.9631 19.0783 3.98341 19.3471 4.19012Z" fill="#BAA7DA"/>
<path d="M8.70619 23.7789L8.14105 23.2568C9.10884 23.0178 10.0527 22.9055 10.962 22.596C13.2703 21.8075 15.4293 20.7692 17.206 19.0499C18.9827 17.3305 19.1535 15.0987 17.666 13.1129C17.4904 12.8739 17.3171 12.635 17.1439 12.4044C17.1439 12.4044 17.1594 12.3626 17.1726 12.359C17.2119 12.3509 17.2519 12.3461 17.292 12.3446C17.9599 13.0472 18.6768 13.7187 19.0842 14.6243C19.831 16.297 19.3997 17.8132 18.3482 19.1861C17.0148 20.9293 15.1366 21.9066 13.1521 22.6988C11.8973 23.189 10.6014 23.5665 9.2797 23.8267C9.05866 23.8661 8.88661 23.8912 8.70619 23.7789Z" fill="#BAA6DD"/>
<path d="M21.8096 6.30371C21.4965 7.30973 20.6148 7.36827 19.7868 7.53316C16.9945 8.08635 14.4353 9.14017 12.2691 11.0411C11.3037 11.8906 10.5856 12.893 10.5964 14.3543C10.4074 14.0833 10.2909 13.7684 10.2578 13.4397C10.2248 13.111 10.2763 12.7793 10.4076 12.4761C10.8604 11.2932 11.7338 10.47 12.704 9.72801C15.01 7.95373 17.6612 6.98594 20.4559 6.36583L21.6041 6.10776C21.7236 6.1209 21.8275 6.14838 21.8096 6.30371Z" fill="#764FBC"/>
<path d="M15.6301 16.1286C16.0889 15.714 16.5441 15.2444 16.7054 14.5944C16.7326 14.5476 16.7494 14.4993 16.7598 14.45C16.9977 13.7909 17.0796 13.141 16.5752 12.5274C16.5971 12.9362 16.5569 13.3459 16.4557 13.7425L16.4615 13.7448C16.4609 13.7484 16.4602 13.7521 16.4595 13.7557L15.9676 14.6861C15.9642 14.6886 15.9609 14.6911 15.9575 14.6936C15.3577 15.4224 14.5942 15.9541 13.8164 16.4667C12.3133 17.4584 10.7302 18.2493 8.96787 18.6532C8.87153 18.6824 8.77531 18.7159 8.67882 18.7496C8.45938 18.826 8.23859 18.903 8.01203 18.9304C7.35728 19.008 7.16013 19.4728 6.93671 20.0296C10.2535 19.5541 13.1664 18.3318 15.6301 16.1286Z" fill="#592CA7"/>
<path d="M13.8809 10.4592C12.8008 11.194 11.7147 11.948 11.2021 13.2407C11.2021 13.2408 11.2021 13.2407 11.2021 13.2407C10.9393 13.9445 10.8019 14.6399 11.3288 15.2958L11.3371 14.4738C11.3371 14.4738 11.3372 14.4738 11.3371 14.4738C11.6099 13.5739 12.1566 12.7816 12.9011 12.2072C14.9669 10.6456 17.2239 9.45919 19.7856 8.95618C20.457 8.82475 20.7414 8.4233 20.9804 7.8486C20.8921 7.84246 20.8034 7.84246 20.7151 7.8486C18.2491 8.22616 15.9491 9.05416 13.8809 10.4592Z" fill="#582CA7"/>
<path d="M11.9262 8.52365C11.0253 9.2919 10.171 10.1402 9.76838 11.3135C9.54376 11.9575 9.56407 12.6672 9.82095 13.0687C9.90949 12.9402 9.90454 12.7944 9.89964 12.6504C9.89853 12.6176 9.89742 12.5849 9.89742 12.5525C9.89602 12.5503 9.89464 12.5481 9.89328 12.5459L9.89503 12.5477C10.4614 11.0017 11.4758 9.79969 12.8247 8.88089C14.3337 7.85575 15.9849 7.12931 17.7234 6.59165C18.8357 6.24635 19.9648 5.9584 21.0987 5.70272C21.092 5.56178 21.0062 5.49741 20.9248 5.43635C20.8599 5.38766 20.7978 5.34107 20.7809 5.25945L20.5144 5.05035C20.4419 5.05035 20.3686 5.0457 20.2953 5.04105C20.1489 5.03176 20.0026 5.02248 19.8633 5.05035C16.9683 5.63461 14.213 6.57373 11.9262 8.52365Z" fill="#774EBD"/>
<path d="M18.2109 16.364C18.0209 17.1693 17.4856 17.7655 16.9563 18.3521C15.0554 20.4562 12.6049 21.6068 9.92372 22.3427C9.57962 22.4371 9.21879 22.4778 8.88424 22.5949C8.13988 22.8529 7.43136 22.9318 6.80051 22.3344C6.81604 21.9258 7.17209 22.0464 7.3776 21.9998C9.3526 21.5434 11.287 20.9783 13.1186 20.0882C15.2609 19.0511 17.077 17.6806 18.0018 15.383C18.3638 15.6542 18.1117 16.0438 18.2109 16.364Z" fill="#774EBD"/>
<path d="M18.2109 16.364C18.046 16.0581 18.2288 15.6793 18.0042 15.3866C18.0328 15.2074 17.9468 15.0007 18.1702 14.8143C18.3277 15.317 18.3417 15.8537 18.2109 16.364Z" fill="#774EBD"/>
<path d="M17.6469 14.4666C17.6613 14.1285 17.5418 13.8417 17.3339 13.5359C17.3094 13.7403 17.2877 13.9247 17.267 14.101C17.2528 14.2227 17.2389 14.3405 17.2249 14.4584L17.224 14.4594C17.0178 15.1048 16.6806 15.7007 16.2335 16.2098C15.4401 17.0988 14.4747 17.7631 13.4663 18.3605C11.563 19.4955 9.46371 20.1204 7.30232 20.4789C6.59773 20.5977 6.41712 21.0121 6.18941 21.5347C6.16304 21.5952 6.13604 21.6571 6.10751 21.7203C8.45411 21.3224 10.6478 20.7262 12.7016 19.6795C14.1808 18.9244 15.5656 18.0283 16.6636 16.7642C17.2275 16.1154 17.6601 15.3782 17.6469 14.4666Z" fill="#764FBC"/>
</svg>
