<svg width="32" height="32" viewBox="0 0 32 32" fill="none" xmlns="http://www.w3.org/2000/svg">
<path d="M9.45836 4C9.04956 4.29343 8.71833 4.68196 8.49329 5.13205C8.26825 5.58213 8.15616 6.08023 8.1667 6.58333C8.15616 7.08643 8.26825 7.58453 8.49329 8.03462C8.71833 8.4847 9.04956 8.87324 9.45836 9.16667" stroke="white" stroke-width="1.5" stroke-linecap="round" stroke-linejoin="round"/>
<path d="M14.2923 4C13.8835 4.29343 13.5523 4.68196 13.3273 5.13205C13.1022 5.58213 12.9901 6.08023 13.0007 6.58333C12.9903 7.08641 13.1024 7.58448 13.3274 8.03454C13.5525 8.48461 13.8836 8.87316 14.2923 9.16667" stroke="white" stroke-width="1.5" stroke-linecap="round" stroke-linejoin="round"/>
<path d="M19.2923 4C18.8835 4.29343 18.5523 4.68196 18.3273 5.13205C18.1022 5.58213 17.9901 6.08023 18.0007 6.58333C17.9903 7.08641 18.1024 7.58448 18.3274 8.03454C18.5525 8.48461 18.8836 8.87316 19.2923 9.16667" stroke="white" stroke-width="1.5" stroke-linecap="round" stroke-linejoin="round"/>
<path d="M22.7554 21.7287C23.3322 21.9935 23.9653 22.1126 24.5989 22.0754C25.2326 22.0382 25.8474 21.846 26.3893 21.5155C26.9313 21.1851 27.3838 20.7266 27.707 20.1803C28.0302 19.634 28.2143 19.0167 28.2431 18.3826C28.2718 17.7486 28.1444 17.1171 27.8719 16.5438C27.5995 15.9705 27.1904 15.4729 26.6806 15.0948C26.1708 14.7166 25.5759 14.4695 24.9483 14.3751C24.3206 14.2807 23.6793 14.342 23.0809 14.5535" stroke="white" stroke-width="1.5" stroke-linecap="round" stroke-linejoin="round"/>
<path d="M5 13.043H23.0833V19.5013C23.0833 21.5567 22.2668 23.528 20.8134 24.9814C19.36 26.4348 17.3888 27.2513 15.3333 27.2513H12.75C10.6946 27.2513 8.72333 26.4348 7.26992 24.9814C5.81652 23.528 5 21.5567 5 19.5013V13.043Z" stroke="white" stroke-width="1.5" stroke-linecap="round" stroke-linejoin="round"/>
</svg>
