<svg width="32" height="32" viewBox="0 0 32 32" fill="none" xmlns="http://www.w3.org/2000/svg">
<path fill-rule="evenodd" clip-rule="evenodd" d="M11.5454 4.18564C11.7102 4.06413 11.9095 3.99906 12.1138 4.00001C12.2099 4.00057 12.3054 4.01574 12.397 4.04501C12.397 4.04501 14.4614 4.62909 14.9461 6.65501C15.2015 7.7205 15.7754 8.15626 16.5318 8.45501C16.949 8.61981 17.4026 8.69988 17.8343 8.74563V7.84001C17.8343 6.77921 18.6881 5.92001 19.7423 5.92001C20.7966 5.92001 21.6504 6.77921 21.6504 7.84001V9.76001C21.6504 10.0146 21.5498 10.2588 21.3709 10.4388C21.192 10.6188 20.9494 10.72 20.6964 10.72C19.1088 11.0051 18.7883 12.7226 18.7883 13.6C18.7883 16.0632 20.6374 19.3526 23.4486 19.3526C23.5834 19.3367 23.72 19.3502 23.8493 19.3918C24.6454 19.6481 24.3452 20.4574 24.7566 20.9856C25.8312 22.3655 27.3746 23.0097 27.3746 25.12C27.3746 26.2696 26.6388 27.2038 25.8019 27.5819C24.9652 27.9599 24.0706 28 23.2492 28C19.9504 28 17.7812 25.7354 16.8187 24.955C13.3816 22.1664 10.6402 18.4322 7.3548 15.475C4.78992 13.1664 4.48332 9.85938 4.48332 9.85938C4.46076 9.64203 4.51248 9.42341 4.62996 9.23967C4.74756 9.05591 4.92396 8.91801 5.12988 8.84876L7.5672 8.03126C7.73556 7.58783 8.0322 6.96339 8.72244 6.36814C9.5616 5.64454 11.5454 4.18564 11.5454 4.18564ZM13.0902 7.10501C12.9622 6.56987 12.5466 6.27432 12.2144 6.08876C11.7176 6.45977 10.5073 7.35795 9.96348 7.82688C9.7242 8.03321 9.53688 8.35044 9.4044 8.62001L10.8877 10.5044C11.6948 11.4768 10.106 12.6562 9.39144 11.695L7.9902 9.91376L6.56844 10.3919C6.73692 11.1959 7.15008 12.7128 8.6274 14.0425C11.8859 16.9754 14.6083 20.6954 18.0169 23.4606C19.0804 24.323 20.4584 25.7099 22.4554 26.0144C19.6829 23.9883 15.4706 19.4033 14.0182 16.48C14.2614 16.7699 15.1 17.2737 15.412 17.05C15.7506 16.8062 15.8137 16.3521 15.6038 16.0113C15.3787 15.6528 14.9761 15.2438 14.5567 14.8179C13.835 14.085 13.064 13.3018 13.064 12.64C13.064 11.9834 13.4838 11.68 14.0182 11.68C14.5524 11.68 15.0094 12.6325 15.9262 12.6325C16.3297 12.6325 16.8803 12.3808 16.8803 11.68C16.8803 11.1202 16.5769 10.4579 15.9971 10.2939C14.5512 9.88491 13.4318 8.53049 13.0902 7.10501ZM23.2548 22.1706C23.0694 21.9326 22.9052 21.6444 22.787 21.3213C22.1983 21.3852 21.6504 21.58 21.6504 22.2456C21.6504 24.1914 23.8157 25.2437 25.2281 25.7313C25.4156 25.628 25.4665 25.5195 25.4665 25.12C25.4665 23.7446 24.0053 23.1342 23.2548 22.1706Z" fill="white"/>
<path d="M22.9623 11.7368C23.8433 12.0955 23.5968 13.2595 23.1244 13.855C22.7304 14.3515 21.9125 14.7462 21.2812 14.4909C20.6551 14.2377 20.4858 13.3938 20.967 12.9163C21.1471 12.7377 21.3976 12.6364 21.6504 12.64C21.6414 11.9755 22.3359 11.4819 22.9623 11.7368Z" fill="white"/>
<path d="M22.8741 14.838C23.2413 14.4575 23.8628 14.4559 24.2326 14.8274C24.7519 15.3489 24.4777 16.2319 24.0784 16.735C23.7735 17.1193 23.2214 17.44 22.6045 17.44C22.218 17.4456 21.859 17.2071 21.7108 16.8506C21.4515 16.227 21.9253 15.5104 22.6045 15.5201C22.6011 15.2658 22.698 15.0205 22.8741 14.838Z" fill="white"/>
</svg>
