<svg width="28" height="28" viewBox="0 0 28 28" fill="none" xmlns="http://www.w3.org/2000/svg">
<path d="M23.538 1.86667C23.8788 1.86667 24.2163 1.9338 24.5312 2.06423C24.8461 2.19466 25.1322 2.38583 25.3732 2.62683C25.6142 2.86783 25.8053 3.15394 25.9358 3.46883C26.0662 3.78371 26.1333 4.1212 26.1333 4.46203V20.0342C26.1333 20.7226 25.8599 21.3827 25.3732 21.8694C24.8864 22.3561 24.2263 22.6296 23.538 22.6296H23.1487V22.7918C23.1487 23.6414 22.8251 24.4592 22.2437 25.0787C21.6622 25.6983 20.8666 26.0731 20.0187 26.1268L19.8071 26.1333H5.2082C4.35855 26.1334 3.54079 25.8098 2.92126 25.2283C2.30172 24.6469 1.92694 23.8513 1.87316 23.0033L1.86667 22.7918V8.19287C1.86661 7.34322 2.19022 6.52546 2.77167 5.90592C3.35311 5.28639 4.14872 4.91161 4.99667 4.85783L5.2082 4.85134H5.37041V4.46203C5.37041 3.7737 5.64385 3.11356 6.13058 2.62683C6.6173 2.14011 7.27744 1.86667 7.96578 1.86667H23.538ZM5.37041 6.66809H5.2082C4.42181 6.66809 3.77555 7.26244 3.6925 8.02676L3.68342 8.19287V22.7918C3.68342 23.5782 4.27777 24.2244 5.04209 24.3075L5.2082 24.3166H19.8071C20.5935 24.3166 21.2398 23.7222 21.3228 22.9579L21.3319 22.7918V22.6296H7.96578C7.27744 22.6296 6.6173 22.3561 6.13058 21.8694C5.64385 21.3827 5.37041 20.7226 5.37041 20.0342V6.66809ZM23.538 3.68342H7.96578C7.78112 3.68346 7.60249 3.74912 7.46177 3.86869C7.32105 3.98825 7.22741 4.15394 7.19756 4.33617L7.18717 4.46203V4.85134V6.66809V20.0342C7.1872 20.2189 7.25287 20.3975 7.37243 20.5382C7.492 20.6789 7.65768 20.7726 7.83991 20.8024L7.96578 20.8128H23.538C23.7226 20.8128 23.9013 20.7471 24.042 20.6276C24.1827 20.508 24.2763 20.3423 24.3062 20.1601L24.3166 20.0342V4.46203C24.3165 4.27738 24.2509 4.09874 24.1313 3.95803C24.0117 3.81731 23.8461 3.72366 23.6638 3.69381L23.538 3.68342ZM16.5266 15.2328C16.7576 15.2316 16.9804 15.3185 17.1497 15.4758C17.3189 15.633 17.4219 15.8489 17.4376 16.0794C17.4533 16.3099 17.3806 16.5377 17.2342 16.7165C17.0879 16.8953 16.8789 17.0116 16.6499 17.0418L16.5266 17.0496H10.5611C10.3301 17.0508 10.1073 16.9639 9.93804 16.8066C9.7688 16.6493 9.66584 16.4335 9.65013 16.2029C9.63443 15.9724 9.70714 15.7446 9.85348 15.5658C9.99983 15.387 10.2088 15.2707 10.4379 15.2406L10.5611 15.2328H16.5266ZM20.6688 11.1425C20.8998 11.1414 21.1226 11.2282 21.2918 11.3855C21.461 11.5428 21.5639 11.7586 21.5796 11.9891C21.5953 12.2196 21.5226 12.4474 21.3763 12.6262C21.23 12.8049 21.0211 12.9213 20.7921 12.9515L20.6688 12.9593H10.5611C10.3317 12.9581 10.1113 12.8701 9.94405 12.7131C9.77681 12.5561 9.67518 12.3416 9.65958 12.1127C9.64397 11.8838 9.71553 11.6575 9.8599 11.4792C10.0043 11.301 10.2107 11.1839 10.4379 11.1516L10.5611 11.1425H20.6701H20.6688ZM20.879 6.79786C21.1101 6.79666 21.3329 6.88354 21.5021 7.04082C21.6714 7.1981 21.7743 7.41396 21.79 7.64446C21.8057 7.87497 21.733 8.1028 21.5867 8.28159C21.4403 8.46038 21.2314 8.57668 21.0023 8.60684L20.879 8.61462H10.7714C10.5403 8.61582 10.3175 8.52894 10.1483 8.37166C9.97901 8.21438 9.87606 7.99852 9.86035 7.76801C9.84464 7.5375 9.91736 7.30967 10.0637 7.13089C10.21 6.9521 10.419 6.83579 10.6481 6.80564L10.7714 6.79786H20.8803H20.879Z" fill="#B4BDCC"/>
</svg>
