<svg width="28" height="28" viewBox="0 0 28 28" fill="none" xmlns="http://www.w3.org/2000/svg">
<circle cx="14" cy="14" r="14" fill="url(#paint0_linear_14402_3523)"/>
<path d="M4.57911 15.0646C4.60261 15.0293 4.62415 14.9931 4.64961 14.9593C4.67775 14.9196 4.71385 14.8862 4.75561 14.8612C4.79737 14.8362 4.84388 14.8201 4.89217 14.814C4.94047 14.8079 4.9895 14.812 5.03616 14.8259C5.08281 14.8398 5.12606 14.8632 5.16317 14.8947C5.20064 14.9261 5.23134 14.9647 5.2534 15.0083C5.27546 15.052 5.28841 15.0996 5.29148 15.1484C5.29455 15.1971 5.28767 15.246 5.27125 15.2921C5.25483 15.3381 5.22922 15.3803 5.19598 15.4161C5.1614 15.4528 5.11942 15.4818 5.07282 15.5011C5.02623 15.5205 4.97606 15.5297 4.92563 15.5282C4.87521 15.5267 4.82567 15.5146 4.78028 15.4926C4.7349 15.4705 4.6947 15.4391 4.66234 15.4004C4.63149 15.3642 4.60554 15.3231 4.57715 15.2844L4.57911 15.0646Z" fill="#E0157B"/>
<path d="M15.7353 12.1629H10.3157C9.95583 12.1629 9.87505 12.0816 9.88338 11.7189C9.93234 8.94197 11.9886 6.53765 14.7248 6.09115C16.7874 5.75481 18.567 6.35063 20.0123 7.85608C20.9797 8.86314 21.4981 10.0886 21.5828 11.4892C21.5902 11.6048 21.6073 11.7208 21.6034 11.8359C21.596 12.0395 21.4854 12.1467 21.2822 12.1619C21.2333 12.1653 21.1843 12.1619 21.1354 12.1619L15.7353 12.1629Z" fill="#53CAC7"/>
<path d="M15.7381 13.9078H9.14302C9.08182 13.9078 9.02062 13.9078 8.95992 13.9078C8.7538 13.8945 8.61378 13.7516 8.61232 13.5567C8.61085 13.3619 8.75282 13.214 8.95502 13.1993C9.01573 13.194 9.07693 13.1969 9.13812 13.1969H22.343C22.4162 13.1939 22.4895 13.196 22.5624 13.2033C22.6469 13.2168 22.7236 13.2604 22.7785 13.3261C22.8333 13.3918 22.8626 13.4751 22.8608 13.5607C22.859 13.6463 22.8263 13.7283 22.7688 13.7916C22.7112 13.855 22.6327 13.8954 22.5477 13.9053C22.4867 13.9098 22.4256 13.9111 22.3646 13.9092L15.7381 13.9078Z" fill="#E0147B"/>
<path d="M14.9426 16.4257H20.7804C20.8413 16.4232 20.9023 16.4248 20.963 16.4306C21.0453 16.4425 21.1211 16.4822 21.1776 16.5433C21.2341 16.6043 21.2679 16.683 21.2734 16.766C21.2753 16.8489 21.2493 16.9301 21.1996 16.9965C21.1499 17.0629 21.0793 17.1107 20.9992 17.1322C20.9274 17.1458 20.8543 17.151 20.7813 17.1479C16.8885 17.1479 12.9959 17.1479 9.10343 17.1479C9.04858 17.1501 8.99363 17.149 8.93893 17.1444C8.84705 17.1332 8.76261 17.0883 8.70193 17.0184C8.64125 16.9484 8.60864 16.8585 8.61042 16.766C8.61633 16.6769 8.65482 16.593 8.71857 16.5305C8.78231 16.4679 8.86684 16.431 8.95606 16.4267C9.01041 16.4223 9.06573 16.4267 9.12056 16.4267L14.9426 16.4257Z" fill="#E0147B"/>
<path d="M11.1728 14.8095C12.7969 14.8095 14.4208 14.8095 16.0446 14.8095C16.3658 14.8095 16.5508 15.0386 16.4446 15.2991C16.4219 15.3596 16.383 15.4127 16.332 15.4525C16.281 15.4922 16.22 15.5171 16.1557 15.5243C16.0951 15.5307 16.0341 15.5326 15.9731 15.5302C12.768 15.5302 9.56275 15.5302 6.35732 15.5302C6.27833 15.533 6.19927 15.5265 6.12183 15.5106C6.04186 15.4892 5.97182 15.4407 5.92373 15.3733C5.87564 15.3059 5.8525 15.2239 5.8583 15.1413C5.86409 15.0587 5.89844 14.9807 5.95546 14.9207C6.01248 14.8607 6.08862 14.8224 6.17079 14.8124C6.23169 14.8075 6.29284 14.8061 6.35389 14.8085L11.1728 14.8095Z" fill="#E0147B"/>
<path d="M18.043 18.0423H22.8409C22.8835 18.0423 22.9266 18.0399 22.9692 18.0423C23.1753 18.0585 23.3221 18.2005 23.329 18.3885C23.3358 18.5765 23.1777 18.7405 22.9721 18.7601C22.9177 18.7655 22.8624 18.7625 22.8076 18.7625H13.1404C12.877 18.7586 12.7056 18.6107 12.71 18.3919C12.7145 18.1731 12.875 18.0419 13.137 18.0419C14.7731 18.0415 16.4085 18.0417 18.043 18.0423Z" fill="#E0147B"/>
<path d="M18.0967 20.3759C17.1014 20.3759 16.1061 20.3759 15.1103 20.3759C14.9517 20.3759 14.8195 20.3314 14.7328 20.1963C14.7035 20.1496 14.6857 20.0965 14.681 20.0416C14.6762 19.9866 14.6847 19.9313 14.7057 19.8803C14.7267 19.8293 14.7596 19.784 14.8016 19.7483C14.8436 19.7125 14.8935 19.6874 14.9473 19.6749C15.0252 19.6605 15.1045 19.6548 15.1837 19.6577H21.0097C21.0459 19.6577 21.0827 19.6577 21.1194 19.6577C21.3485 19.6719 21.5013 19.8207 21.4954 20.0225C21.4895 20.2242 21.323 20.3725 21.1008 20.373C20.2641 20.3759 19.4279 20.373 18.5912 20.373L18.0967 20.3759Z" fill="#E0147B"/>
<path d="M14.3633 21.2789H17.3277C17.6053 21.2789 17.7639 21.4087 17.7634 21.6329C17.7634 21.8473 17.5847 21.9991 17.3253 21.9991C15.3493 21.9991 13.3732 21.9991 11.3969 21.9991C11.3304 22.0034 11.2636 21.9936 11.2011 21.9702C11.021 21.8919 10.9274 21.7386 10.9593 21.5658C10.9911 21.393 11.1252 21.2799 11.3274 21.2794C12.0897 21.277 12.8525 21.2794 13.6147 21.2794L14.3633 21.2789Z" fill="#E0147B"/>
<path d="M9.28602 18.0424C10.0312 18.0424 10.776 18.0424 11.5205 18.0424C11.5875 18.0414 11.6545 18.0463 11.7207 18.0571C11.8871 18.0869 11.9733 18.199 11.9944 18.3586C12.0058 18.4287 11.9942 18.5005 11.9612 18.5634C11.9283 18.6263 11.8758 18.6767 11.8118 18.7072C11.7299 18.7487 11.6386 18.7681 11.5469 18.7635H7.02319C6.93133 18.77 6.83941 18.7519 6.75686 18.7111C6.61586 18.6318 6.53997 18.5109 6.5669 18.3479C6.57447 18.2741 6.60664 18.205 6.65824 18.1517C6.70983 18.0984 6.77785 18.0641 6.85135 18.0541C6.9116 18.045 6.97255 18.0412 7.03347 18.0429L9.28602 18.0424Z" fill="#E0147B"/>
<path d="M7.68595 17.1474C7.61453 17.1464 7.54501 17.1243 7.4862 17.0837C7.42738 17.0432 7.38191 16.9862 7.35555 16.9198C7.32919 16.8534 7.32312 16.7807 7.33812 16.7109C7.35311 16.641 7.38849 16.5772 7.43978 16.5275C7.49107 16.4778 7.55595 16.4444 7.62622 16.4316C7.69648 16.4188 7.76897 16.4272 7.83449 16.4556C7.90001 16.484 7.95562 16.5312 7.99429 16.5913C8.03295 16.6513 8.05291 16.7215 8.05166 16.7929C8.04777 16.8876 8.00765 16.9772 7.93959 17.0432C7.87153 17.1092 7.78073 17.1465 7.68595 17.1474Z" fill="#E0167C"/>
<path d="M8.05125 13.5596C8.04646 13.6538 8.0049 13.7424 7.93551 13.8064C7.86612 13.8703 7.77442 13.9044 7.68012 13.9015C7.58582 13.8985 7.49644 13.8587 7.43118 13.7906C7.36591 13.7225 7.32997 13.6314 7.33108 13.5371C7.33587 13.4429 7.37743 13.3543 7.44682 13.2904C7.51621 13.2264 7.60791 13.1923 7.70221 13.1952C7.79651 13.1982 7.88589 13.238 7.95115 13.3061C8.01642 13.3743 8.05235 13.4653 8.05125 13.5596Z" fill="#E0157C"/>
<path d="M14.1171 20.0191C14.1166 20.0659 14.1068 20.1121 14.0884 20.1552C14.07 20.1982 14.0433 20.2372 14.0098 20.2699C13.9763 20.3026 13.9367 20.3284 13.8933 20.3458C13.8498 20.3632 13.8034 20.3719 13.7566 20.3713C13.7098 20.3708 13.6635 20.361 13.6205 20.3426C13.5775 20.3242 13.5385 20.2975 13.5058 20.264C13.4731 20.2305 13.4473 20.1909 13.4299 20.1475C13.4125 20.104 13.4038 20.0576 13.4043 20.0108C13.4071 19.9184 13.4452 19.8306 13.5108 19.7656C13.5764 19.7005 13.6645 19.6632 13.7568 19.6612C13.8042 19.6603 13.8513 19.6689 13.8952 19.6865C13.9392 19.7041 13.9792 19.7304 14.0128 19.7638C14.0464 19.7972 14.073 19.837 14.0909 19.8809C14.1088 19.9247 14.1177 19.9717 14.1171 20.0191Z" fill="#E0157B"/>
<path d="M10.3915 21.6328C10.3915 21.6799 10.3823 21.7266 10.3642 21.7701C10.3462 21.8137 10.3198 21.8532 10.2864 21.8865C10.2531 21.9199 10.2136 21.9463 10.17 21.9643C10.1265 21.9824 10.0798 21.9916 10.0327 21.9916C9.98556 21.9916 9.9389 21.9824 9.89536 21.9643C9.85182 21.9463 9.81226 21.9199 9.77894 21.8865C9.74561 21.8532 9.71918 21.8137 9.70115 21.7701C9.68311 21.7266 9.67383 21.6799 9.67383 21.6328C9.67383 21.5376 9.71164 21.4463 9.77894 21.379C9.84624 21.3117 9.93751 21.2739 10.0327 21.2739C10.1279 21.2739 10.2191 21.3117 10.2864 21.379C10.3537 21.4463 10.3915 21.5376 10.3915 21.6328Z" fill="#E0157B"/>
<path d="M6.00191 18.4026C5.99976 18.498 5.96063 18.5889 5.89276 18.656C5.8249 18.7231 5.73361 18.7613 5.63816 18.7624C5.54298 18.7624 5.4517 18.7246 5.3844 18.6573C5.31711 18.59 5.2793 18.4987 5.2793 18.4035C5.2793 18.3084 5.31711 18.2171 5.3844 18.1498C5.4517 18.0825 5.54298 18.0447 5.63816 18.0447C5.73355 18.0449 5.82505 18.0825 5.89304 18.1494C5.96104 18.2163 6.00012 18.3072 6.00191 18.4026Z" fill="#E0167C"/>
<defs>
<linearGradient id="paint0_linear_14402_3523" x1="14" y1="0" x2="14" y2="28" gradientUnits="userSpaceOnUse">
<stop stop-color="#1D2549"/>
<stop offset="1" stop-color="#0F1126"/>
</linearGradient>
</defs>
</svg>
