<svg width="16" height="16" viewBox="0 0 16 16" fill="none" xmlns="http://www.w3.org/2000/svg">
    <path
        d="M13.5446 2.99523C12.5246 2.53526 11.4313 2.19529 10.288 2.00197C10.2778 2.00001 10.2673 2.00127 10.2579 2.00557C10.2484 2.00987 10.2406 2.017 10.2354 2.02597C10.0954 2.27195 9.93937 2.59259 9.83004 2.84591C8.61747 2.66475 7.38471 2.66475 6.17214 2.84591C6.05037 2.56517 5.91305 2.29143 5.76082 2.02597C5.75566 2.01689 5.74785 2.0096 5.73844 2.00507C5.72903 2.00055 5.71847 1.999 5.70816 2.00063C4.56552 2.19395 3.47222 2.53393 2.45158 2.99457C2.4428 2.99825 2.43536 3.00453 2.43025 3.01257C0.355643 6.06237 -0.213007 9.03684 0.0663185 11.974C0.0670958 11.9812 0.0693288 11.9881 0.0728816 11.9944C0.0764344 12.0007 0.0812327 12.0063 0.0869846 12.0106C1.29788 12.8922 2.64847 13.5638 4.0822 13.9972C4.0922 14.0003 4.10289 14.0002 4.11288 13.9972C4.12287 13.9941 4.13169 13.988 4.1382 13.9798C4.44672 13.5673 4.72012 13.1295 4.95551 12.6713C4.95878 12.665 4.96066 12.6581 4.96103 12.651C4.9614 12.644 4.96025 12.6369 4.95766 12.6304C4.95507 12.6238 4.9511 12.6179 4.94601 12.6129C4.94092 12.608 4.93484 12.6043 4.92818 12.6019C4.49753 12.4398 4.08026 12.2441 3.68021 12.0166C3.67303 12.0125 3.66697 12.0067 3.66259 11.9997C3.6582 11.9927 3.65563 11.9847 3.6551 11.9764C3.65457 11.9682 3.65611 11.9599 3.65956 11.9524C3.66301 11.9448 3.66827 11.9383 3.67488 11.9333C3.75888 11.8713 3.84288 11.8067 3.92287 11.742C3.93007 11.7362 3.93875 11.7325 3.94793 11.7313C3.95711 11.7301 3.96644 11.7315 3.97487 11.7353C6.5928 12.9113 9.42805 12.9113 12.0153 11.7353C12.0238 11.7313 12.0332 11.7297 12.0425 11.7308C12.0518 11.7318 12.0606 11.7355 12.068 11.7413C12.148 11.8067 12.2313 11.8713 12.316 11.9333C12.3226 11.9382 12.328 11.9447 12.3315 11.9521C12.3351 11.9596 12.3368 11.9678 12.3364 11.9761C12.336 11.9843 12.3335 11.9923 12.3293 11.9994C12.325 12.0065 12.3191 12.0124 12.312 12.0166C11.9133 12.246 11.4987 12.4399 11.0633 12.6013C11.0566 12.6037 11.0506 12.6075 11.0455 12.6125C11.0404 12.6175 11.0364 12.6235 11.0338 12.6301C11.0312 12.6367 11.0301 12.6438 11.0305 12.6509C11.0308 12.658 11.0327 12.665 11.036 12.6713C11.276 13.1292 11.5507 13.5652 11.8526 13.9792C11.8589 13.9877 11.8677 13.994 11.8777 13.9974C11.8877 14.0007 11.8985 14.0009 11.9086 13.9978C13.3448 13.5656 14.6976 12.8938 15.9099 12.0106C15.9158 12.0065 15.9207 12.0012 15.9244 11.9949C15.9281 11.9887 15.9304 11.9818 15.9312 11.9746C16.2645 8.57887 15.3725 5.6284 13.5653 3.0139C13.5608 3.0054 13.5535 2.99878 13.5446 2.99523ZM5.34683 10.1854C4.55886 10.1854 3.90887 9.47281 3.90887 8.59887C3.90887 7.72426 4.54619 7.0123 5.34683 7.0123C6.15348 7.0123 6.79746 7.73026 6.78479 8.59887C6.78479 9.47348 6.14748 10.1854 5.34683 10.1854ZM10.6633 10.1854C9.8747 10.1854 9.22539 9.47281 9.22539 8.59887C9.22539 7.72426 9.86203 7.0123 10.6633 7.0123C11.47 7.0123 12.114 7.73026 12.1013 8.59887C12.1013 9.47348 11.4707 10.1854 10.6633 10.1854Z"
        fill="#707280" />
</svg>