<svg width="18" height="18" viewBox="0 0 18 18" fill="none" xmlns="http://www.w3.org/2000/svg">
<path d="M11.7941 1C12.0671 1 12.329 1.11223 12.522 1.31199C12.7151 1.51176 12.8235 1.7827 12.8235 2.06522V4.95652H12.9706C13.2436 4.95652 13.5054 5.06875 13.6985 5.26852C13.8915 5.46828 14 5.73923 14 6.02174V13.9348C14 14.2173 13.8915 14.4882 13.6985 14.688C13.5054 14.8878 13.2436 15 12.9706 15H5.02941C4.75639 15 4.49456 14.8878 4.30151 14.688C4.10846 14.4882 4 14.2173 4 13.9348V6.02174C4 5.73923 4.10846 5.46828 4.30151 5.26852C4.49456 5.06875 4.75639 4.95652 5.02941 4.95652H5.17647V2.06522C5.17647 1.7827 5.28493 1.51176 5.47798 1.31199C5.67103 1.11223 5.93287 1 6.20588 1H11.7941ZM12.9706 5.86956H5.02941C4.99041 5.86956 4.953 5.8856 4.92543 5.91414C4.89785 5.94267 4.88235 5.98138 4.88235 6.02174V13.9348C4.88235 13.9751 4.89785 14.0138 4.92543 14.0424C4.953 14.0709 4.99041 14.087 5.02941 14.087H12.9706C13.0096 14.087 13.047 14.0709 13.0746 14.0424C13.1022 14.0138 13.1176 13.9751 13.1176 13.9348V6.02174C13.1176 5.98138 13.1022 5.94267 13.0746 5.91414C13.047 5.8856 13.0096 5.86956 12.9706 5.86956ZM11.7941 1.91304H6.20588C6.16688 1.91304 6.12947 1.92908 6.1019 1.95761C6.07432 1.98615 6.05882 2.02486 6.05882 2.06522V4.95652H11.9412V2.06522C11.9412 2.02486 11.9257 1.98615 11.8981 1.95761C11.8705 1.92908 11.8331 1.91304 11.7941 1.91304ZM10.1765 2.94174H10.7647C10.8872 2.942 11.0048 2.99104 11.0932 3.07867C11.1817 3.16631 11.2341 3.28581 11.2397 3.41239C11.2452 3.53896 11.2035 3.6629 11.1231 3.75847C11.0427 3.85405 10.9299 3.91393 10.8079 3.9257L10.7647 3.92783H10.1765C10.054 3.92756 9.93637 3.87852 9.84793 3.79089C9.75949 3.70326 9.70705 3.58376 9.70149 3.45718C9.69593 3.3306 9.73767 3.20667 9.81806 3.11109C9.89845 3.01552 10.0113 2.95563 10.1332 2.94387L10.1765 2.94174H10.7647H10.1765ZM7.82353 2.94174C7.8861 2.94174 7.94806 2.95449 8.00587 2.97927C8.06367 3.00405 8.1162 3.04036 8.16044 3.08615C8.20469 3.13193 8.23979 3.18628 8.26373 3.2461C8.28768 3.30592 8.3 3.37004 8.3 3.43478C8.3 3.49953 8.28768 3.56364 8.26373 3.62346C8.23979 3.68328 8.20469 3.73763 8.16044 3.78342C8.1162 3.8292 8.06367 3.86552 8.00587 3.8903C7.94806 3.91507 7.8861 3.92783 7.82353 3.92783H7.23529C7.17272 3.92783 7.11076 3.91507 7.05296 3.8903C6.99515 3.86552 6.94262 3.8292 6.89838 3.78342C6.85413 3.73763 6.81904 3.68328 6.79509 3.62346C6.77115 3.56364 6.75882 3.49953 6.75882 3.43478C6.75882 3.37004 6.77115 3.30592 6.79509 3.2461C6.81904 3.18628 6.85413 3.13193 6.89838 3.08615C6.94262 3.04036 6.99515 3.00405 7.05296 2.97927C7.11076 2.95449 7.17272 2.94174 7.23529 2.94174H7.82353Z" fill="white"/>
</svg>
