<svg width="14" height="14" viewBox="0 0 14 14" fill="none" xmlns="http://www.w3.org/2000/svg">
<rect width="14" height="14" rx="7" fill="#2F7EF1"/>
<path d="M4.15799 5.13421C5.72759 3.5386 8.27245 3.5386 9.84205 5.13421L10.031 5.32624C10.0496 5.345 10.0644 5.36745 10.0746 5.39226C10.0847 5.41708 10.0899 5.44375 10.0899 5.47069C10.0899 5.49763 10.0847 5.5243 10.0746 5.54911C10.0644 5.57393 10.0496 5.59638 10.031 5.61514L9.3848 6.27207C9.36576 6.29126 9.34028 6.30199 9.31375 6.30199C9.28722 6.30199 9.26173 6.29126 9.2427 6.27207L8.98269 6.0078C7.88772 4.89465 6.11232 4.89465 5.01735 6.0078L4.73896 6.29081C4.71993 6.30999 4.69444 6.32073 4.66791 6.32073C4.64138 6.32073 4.61589 6.30999 4.59686 6.29081L3.95065 5.63388C3.93203 5.61512 3.91722 5.59267 3.90711 5.56785C3.89699 5.54304 3.89178 5.51637 3.89178 5.48943C3.89178 5.46248 3.89699 5.43581 3.90711 5.411C3.91722 5.38619 3.93203 5.36373 3.95065 5.34497L4.15799 5.13421ZM11.1785 6.49276L11.7536 7.07744C11.7722 7.09619 11.7871 7.11865 11.7972 7.14346C11.8073 7.16827 11.8125 7.19495 11.8125 7.22189C11.8125 7.24884 11.8073 7.27551 11.7972 7.30032C11.7871 7.32514 11.7722 7.34759 11.7536 7.36635L9.16035 10.0027C9.12228 10.041 9.07131 10.0625 9.01825 10.0625C8.96519 10.0625 8.91422 10.041 8.87615 10.0027L7.03558 8.1316C7.02606 8.12201 7.01332 8.11664 7.00005 8.11664C6.98679 8.11664 6.97405 8.12201 6.96453 8.1316L5.12396 10.0026C5.08589 10.041 5.03492 10.0624 4.98186 10.0624C4.9288 10.0624 4.87782 10.041 4.83976 10.0026L2.24637 7.36642C2.22774 7.34765 2.21294 7.3252 2.20282 7.30039C2.19271 7.27557 2.1875 7.24891 2.1875 7.22196C2.1875 7.19502 2.19271 7.16835 2.20282 7.14354C2.21294 7.11872 2.22774 7.09627 2.24637 7.07751L2.82153 6.49283C2.8596 6.45445 2.91057 6.43298 2.96363 6.43298C3.01669 6.43298 3.06766 6.45445 3.10573 6.49283L4.94637 8.36374C4.95588 8.37334 4.96863 8.3787 4.98189 8.3787C4.99516 8.3787 5.0079 8.37334 5.01742 8.36374L6.85792 6.49276C6.89599 6.45438 6.94696 6.43291 7.00002 6.43291C7.05308 6.43291 7.10405 6.45438 7.14212 6.49276L8.98269 8.36381C8.99221 8.37341 9.00495 8.37877 9.01822 8.37877C9.03148 8.37877 9.04422 8.37341 9.05374 8.36381L10.8943 6.49283C10.9324 6.45445 10.9834 6.43298 11.0364 6.43298C11.0895 6.43298 11.1404 6.45445 11.1785 6.49283V6.49276Z" fill="white"/>
</svg>
