<svg width="32" height="32" viewBox="0 0 32 32" fill="none" xmlns="http://www.w3.org/2000/svg">
<path d="M16 22.1107C16 21.1993 16.4397 20.5161 17.2 20.5161C17.9721 20.5161 18.4 21.2424 18.4 22.0829C18.4 22.9956 17.9662 23.6774 17.2059 23.6774C16.4574 23.6774 16 23.0304 16 22.1107Z" fill="#707280"/>
<path fill-rule="evenodd" clip-rule="evenodd" d="M7 2H19L28 10.4V27.2C28 27.5677 27.9224 27.9318 27.7716 28.2715C27.6209 28.6112 27.3999 28.9199 27.1213 29.1799C26.8427 29.4399 26.512 29.6462 26.148 29.7869C25.7841 29.9276 25.394 30 25 30H7C6.60603 30 6.21593 29.9276 5.85195 29.7869C5.48797 29.6462 5.15726 29.4399 4.87868 29.1799C4.6001 28.9199 4.37913 28.6112 4.22836 28.2715C4.0776 27.9318 4 27.5677 4 27.2V4.8C4 4.4323 4.0776 4.0682 4.22836 3.72849C4.37913 3.38877 4.6001 3.0801 4.87868 2.8201C5.15726 2.5601 5.48797 2.35385 5.85195 2.21314C6.21593 2.07242 6.60603 2 7 2ZM8.233 24.4C9.3415 24.4 10.033 23.931 10.033 22.5856H10.0345V19.6022H8.893V22.573C8.893 23.308 8.5915 23.511 8.113 23.511C7.885 23.511 7.6825 23.476 7.5265 23.427L7.3975 24.288C7.624 24.3594 7.969 24.4 8.233 24.4ZM10.789 24.106C11.0725 24.253 11.644 24.393 12.2215 24.393C13.6105 24.393 14.266 23.721 14.2645 22.9286C14.2645 22.2622 13.8445 21.8282 12.9505 21.5202C12.295 21.2892 12.01 21.1548 12.01 20.8538C12.01 20.6088 12.2515 20.3988 12.7465 20.3988C13.2415 20.3988 13.6015 20.5318 13.804 20.6228L14.062 19.7618C13.759 19.6344 13.3405 19.5224 12.7705 19.5224C11.5765 19.5224 10.855 20.1398 10.855 20.9462C10.855 21.6322 11.4025 22.0676 12.2455 22.3406C12.853 22.5436 13.0915 22.7116 13.0915 23.007C13.0915 23.3136 12.8155 23.518 12.2905 23.518C11.803 23.518 11.3275 23.3696 11.0215 23.2226L10.789 24.106ZM14.8015 21.9976C14.8015 23.343 15.679 24.4 17.1805 24.4C18.6595 24.4 19.6645 23.462 19.666 21.9122C19.666 20.6088 18.817 19.5224 17.2645 19.5224C15.7705 19.5224 14.8015 20.5808 14.8015 21.9976ZM23.398 24.323H24.6025V19.6022H23.5495V20.9812C23.5495 21.6896 23.572 22.3266 23.647 22.9496H23.626C23.398 22.4176 23.098 21.8282 22.798 21.3326L21.7465 19.6022H20.41V24.3244H21.4615V22.902C21.4615 22.1306 21.4465 21.4642 21.415 20.8412L21.439 20.8342C21.7001 21.4035 21.993 21.9596 22.3165 22.5002L23.398 24.323ZM17.5 11.8H25L17.5 4.8V11.8Z" fill="#707280"/>
</svg>
