<svg width="32" height="32" viewBox="0 0 32 32" fill="none" xmlns="http://www.w3.org/2000/svg">
<path fill-rule="evenodd" clip-rule="evenodd" d="M28 17.2702C28 17.3828 27.9736 17.4899 27.9236 17.5828L22.7767 26.396C22.5584 26.7698 22.1551 27 21.7185 27H10.2815C9.84495 27 9.44155 26.7698 9.22327 26.396L4.07592 17.582C4.02604 17.4892 4 17.3826 4 17.2702C4 16.9054 4.29912 16.6097 4.66809 16.6097H10.3152L11.7463 19.0129L11.7551 19.0272C11.9461 19.3304 12.3479 19.4292 12.661 19.247L12.6772 19.2372C12.8215 19.1477 12.926 19.0068 12.9688 18.8432L14.7924 11.8739L16.3582 23.094L16.3606 23.1097C16.4184 23.4626 16.7511 23.7072 17.1113 23.6581L17.1277 23.6556C17.3885 23.6136 17.6004 23.4231 17.6668 23.1692L19.8649 14.7687L20.7674 16.2843L20.7763 16.2989C20.8981 16.4919 21.1122 16.6097 21.3431 16.6097H27.3319C27.7009 16.6097 28 16.9054 28 17.2702ZM21.7185 5C22.1551 5 22.5584 5.23025 22.7767 5.60402L27.9239 14.4176C27.9737 14.5104 28 14.6174 28 14.7298C28 15.0946 27.7009 15.3903 27.3319 15.3903H21.6663L20.2352 12.9871L20.2253 12.9711C20.1348 12.8284 19.9922 12.7251 19.8268 12.6828L19.8112 12.679C19.4591 12.5976 19.1037 12.8088 19.0127 13.1568L17.1891 20.126L15.6233 8.90597L15.6208 8.88979C15.5783 8.63195 15.3856 8.42248 15.1288 8.3568C14.7716 8.26544 14.4071 8.47767 14.3147 8.83082L12.1166 17.2312L11.2141 15.7157L11.2052 15.7011C11.0834 15.5081 10.8693 15.3903 10.6384 15.3903H4.66809C4.29912 15.3903 4 15.0946 4 14.7298C4 14.6183 4.02534 14.5128 4.0743 14.4206L9.22327 5.60402C9.44155 5.23025 9.84495 5 10.2815 5H21.7185Z" fill="white"/>
</svg>
