<svg width="52" height="52" viewBox="0 0 52 52" fill="none" xmlns="http://www.w3.org/2000/svg">
    <path
        d="M43.3324 29.2482V6.49821C43.3324 5.30159 42.3624 4.33154 41.1658 4.33154H10.8324C9.63582 4.33154 8.66577 5.30159 8.66577 6.49821V45.4982C8.66577 46.6949 9.63582 47.6649 10.8324 47.6649H22.7491"
        stroke="#4B4D59" stroke-width="2" stroke-linecap="round" stroke-linejoin="round" />
    <path d="M18.4158 13H33.5824" stroke="#4B4D59" stroke-width="2" stroke-linecap="round"
        stroke-linejoin="round" />
    <path d="M18.4158 21.6685H33.5824" stroke="#4B4D59" stroke-width="2" stroke-linecap="round"
        stroke-linejoin="round" />
    <path d="M18.4158 30.3315H24.9158" stroke="#4B4D59" stroke-width="2" stroke-linecap="round"
        stroke-linejoin="round" />
    <path
        d="M42.25 47.6685L38.4968 43.9152M38.4968 43.9152C39.4771 42.935 40.0833 41.5809 40.0833 40.0851C40.0833 37.0936 37.6582 34.6685 34.6667 34.6685C31.6752 34.6685 29.25 37.0936 29.25 40.0851C29.25 43.0766 31.6752 45.5018 34.6667 45.5018C36.1624 45.5018 37.5166 44.8956 38.4968 43.9152Z"
        stroke="#4B4D59" stroke-width="2" stroke-linecap="round" stroke-linejoin="round" />
</svg>
    