<svg width="20" height="20" viewBox="0 0 20 20" fill="none" xmlns="http://www.w3.org/2000/svg">
<path d="M10.006 19.0873C6.65312 19.0873 3.08978 17.9789 3.08978 15.9239V5.60178H4.22756V15.9241C4.22756 16.7696 6.42594 17.9497 10.006 17.9497C13.586 17.9497 15.7844 16.7702 15.7844 15.9241V5.60178H16.9221V15.9241C16.9221 17.9783 13.3588 19.0873 10.0059 19.0873H10.006ZM10.006 8.76497C6.65312 8.76497 3.08978 7.65659 3.08978 5.60157C3.08978 3.54655 6.65367 2.43817 10.006 2.43817C13.3583 2.43817 16.9222 3.54655 16.9222 5.60157C16.9222 7.65659 13.3588 8.76497 10.006 8.76497ZM10.006 3.57729C6.42595 3.57729 4.22758 4.75624 4.22758 5.60233C4.22758 6.44843 6.42595 7.62796 10.006 7.62796C13.586 7.62796 15.7844 6.44848 15.7844 5.60233C15.7844 4.75618 13.586 3.57729 10.006 3.57729ZM10.006 15.431C6.28717 15.431 3.37424 14.166 3.37424 12.5515H3.94312C3.94312 13.6671 6.37931 14.8621 10.006 14.8621C13.6326 14.8621 16.0688 13.6671 16.0688 12.5515H16.6377C16.6377 14.1662 13.725 15.431 10.006 15.431ZM10.006 11.8795C6.28717 11.8795 3.37424 10.6145 3.37424 9.00051H3.94312C3.94312 10.1161 6.37931 11.3106 10.006 11.3106C13.6326 11.3106 16.0688 10.1161 16.0688 9.00051H16.6377C16.6377 10.6145 13.725 11.8795 10.006 11.8795Z" fill="#13141A"/>
</svg>
