<svg width="20" height="20" viewBox="0 0 20 20" fill="none" xmlns="http://www.w3.org/2000/svg">
<path d="M13.2148 8.05638C12.9863 7.93769 12.6926 7.93769 12.4315 8.05638L10.6038 9.03561L9.36358 9.65875L7.56854 10.638C7.34008 10.7567 7.04634 10.7567 6.78525 10.638L5.38185 9.86647C5.15339 9.74777 4.99021 9.51039 4.99021 9.24332V7.75964C4.99021 7.52226 5.12076 7.28487 5.38185 7.1365L6.78525 6.39466C7.01371 6.27596 7.30744 6.27596 7.56854 6.39466L8.97193 7.16617C9.20039 7.28487 9.36358 7.52226 9.36358 7.78932V8.76855L10.6038 8.11573V7.10682C10.6038 6.86944 10.4732 6.63205 10.2121 6.48368L7.60118 5.08902C7.37272 4.97033 7.07898 4.97033 6.81789 5.08902L4.14164 6.51335C3.88055 6.63205 3.75 6.86944 3.75 7.10682V9.89614C3.75 10.1335 3.88055 10.3709 4.14164 10.5193L6.78525 11.9139C7.01371 12.0326 7.30744 12.0326 7.56854 11.9139L9.36358 10.9644L10.6038 10.3116L12.3988 9.36202C12.6273 9.24332 12.921 9.24332 13.1821 9.36202L14.5855 10.1039C14.814 10.2226 14.9772 10.4599 14.9772 10.727V12.2107C14.9772 12.4481 14.8466 12.6855 14.5855 12.8338L13.2148 13.5757C12.9863 13.6944 12.6926 13.6944 12.4315 13.5757L11.0281 12.8338C10.7996 12.7151 10.6364 12.4777 10.6364 12.2107V11.2611L9.39621 11.9139V12.8932C9.39621 13.1306 9.52676 13.368 9.78786 13.5163L12.4315 14.911C12.6599 15.0297 12.9537 15.0297 13.2148 14.911L15.8584 13.5163C16.0868 13.3976 16.25 13.1602 16.25 12.8932V10.0742C16.25 9.8368 16.1195 9.59941 15.8584 9.45104L13.2148 8.05638Z" fill="white"/>
</svg>
