<svg width="400" height="105" viewBox="0 0 400 105" fill="none" xmlns="http://www.w3.org/2000/svg">
<rect width="400" height="105" fill="url(#paint0_linear_35805_10076)"/>
<path d="M156.946 48.1271H157.691C158.469 48.1271 159.067 47.9503 159.483 47.5967C159.899 47.2431 160.107 46.7348 160.107 46.0718C160.107 45.4088 159.899 44.9006 159.483 44.547C159.067 44.1934 158.469 44.0166 157.691 44.0166H156.946V48.1271ZM165.623 57.3425H160.711L156.946 50.9337V57.3425H153V40.6796H159.14C159.986 40.6796 160.724 40.8195 161.355 41.0994C161.986 41.3646 162.503 41.733 162.905 42.2044C163.321 42.6759 163.63 43.221 163.831 43.8398C164.046 44.4586 164.153 45.1215 164.153 45.8287C164.153 47.0958 163.872 48.1271 163.308 48.9227C162.758 49.7035 161.939 50.2339 160.852 50.5138L165.623 57.3425Z" fill="white"/>
<path d="M168.87 51.6409C168.87 52.0092 168.93 52.3554 169.051 52.6796C169.172 52.989 169.333 53.2615 169.534 53.4972C169.749 53.733 169.997 53.9171 170.279 54.0497C170.574 54.1823 170.89 54.2486 171.225 54.2486C171.547 54.2486 171.849 54.1823 172.131 54.0497C172.426 53.9171 172.675 53.733 172.876 53.4972C173.091 53.2615 173.259 52.989 173.379 52.6796C173.514 52.3702 173.581 52.0387 173.581 51.6851C173.581 51.3315 173.514 51 173.379 50.6906C173.259 50.3665 173.091 50.0866 172.876 49.8508C172.675 49.6151 172.426 49.4309 172.131 49.2983C171.849 49.1657 171.547 49.0994 171.225 49.0994C170.89 49.0994 170.574 49.1657 170.279 49.2983C169.997 49.4309 169.749 49.6151 169.534 49.8508C169.333 50.0866 169.172 50.3591 169.051 50.6685C168.93 50.9632 168.87 51.2873 168.87 51.6409ZM173.46 46.0055H177.124V57.3425H173.46V56.0829C172.681 57.1584 171.628 57.6961 170.299 57.6961C169.548 57.6961 168.856 57.5488 168.225 57.2541C167.595 56.9447 167.044 56.5175 166.575 55.9724C166.105 55.4273 165.736 54.7864 165.467 54.0497C165.212 53.3131 165.085 52.5101 165.085 51.6409C165.085 50.8306 165.212 50.0645 165.467 49.3425C165.722 48.6059 166.078 47.965 166.534 47.4199C166.991 46.8748 167.534 46.4475 168.165 46.1381C168.796 45.814 169.494 45.6519 170.259 45.6519C171.547 45.6519 172.614 46.1455 173.46 47.1326V46.0055Z" fill="white"/>
<path d="M186.63 51.7072C186.63 51.3536 186.57 51.0221 186.449 50.7127C186.328 50.3886 186.16 50.1087 185.946 49.8729C185.731 49.6372 185.482 49.453 185.201 49.3204C184.919 49.1731 184.61 49.0994 184.275 49.0994C183.952 49.0994 183.65 49.1657 183.369 49.2983C183.087 49.4309 182.838 49.6151 182.624 49.8508C182.422 50.0866 182.255 50.3665 182.12 50.6906C182 51 181.939 51.3315 181.939 51.6851C181.939 52.0387 182 52.3702 182.12 52.6796C182.241 52.989 182.409 53.2615 182.624 53.4972C182.838 53.7182 183.087 53.9024 183.369 54.0497C183.664 54.1823 183.973 54.2486 184.295 54.2486C184.617 54.2486 184.919 54.1823 185.201 54.0497C185.482 53.9171 185.724 53.733 185.925 53.4972C186.14 53.2615 186.308 52.989 186.429 52.6796C186.563 52.3702 186.63 52.046 186.63 51.7072ZM182.04 39V47.1326C182.899 46.1455 183.973 45.6519 185.261 45.6519C186.026 45.6519 186.724 45.814 187.355 46.1381C187.999 46.4475 188.543 46.8748 188.986 47.4199C189.442 47.9503 189.798 48.5838 190.053 49.3204C190.308 50.0424 190.435 50.8158 190.435 51.6409C190.435 52.4807 190.301 53.2689 190.032 54.0055C189.777 54.7422 189.415 55.3831 188.945 55.9282C188.475 56.4733 187.918 56.9079 187.274 57.232C186.643 57.5414 185.959 57.6961 185.221 57.6961C183.879 57.6961 182.818 57.1584 182.04 56.0829V57.3425H178.396V39H182.04Z" fill="white"/>
<path d="M199.538 51.7072C199.538 51.3536 199.478 51.0221 199.357 50.7127C199.236 50.3886 199.069 50.1087 198.854 49.8729C198.639 49.6372 198.391 49.453 198.109 49.3204C197.827 49.1731 197.518 49.0994 197.183 49.0994C196.861 49.0994 196.559 49.1657 196.277 49.2983C195.995 49.4309 195.747 49.6151 195.532 49.8508C195.331 50.0866 195.163 50.3665 195.029 50.6906C194.908 51 194.848 51.3315 194.848 51.6851C194.848 52.0387 194.908 52.3702 195.029 52.6796C195.149 52.989 195.317 53.2615 195.532 53.4972C195.747 53.7182 195.995 53.9024 196.277 54.0497C196.572 54.1823 196.881 54.2486 197.203 54.2486C197.525 54.2486 197.827 54.1823 198.109 54.0497C198.391 53.9171 198.632 53.733 198.834 53.4972C199.048 53.2615 199.216 52.989 199.337 52.6796C199.471 52.3702 199.538 52.046 199.538 51.7072ZM194.948 39V47.1326C195.807 46.1455 196.881 45.6519 198.169 45.6519C198.934 45.6519 199.632 45.814 200.263 46.1381C200.907 46.4475 201.451 46.8748 201.894 47.4199C202.35 47.9503 202.706 48.5838 202.961 49.3204C203.216 50.0424 203.343 50.8158 203.343 51.6409C203.343 52.4807 203.209 53.2689 202.941 54.0055C202.686 54.7422 202.323 55.3831 201.854 55.9282C201.384 56.4733 200.827 56.9079 200.183 57.232C199.552 57.5414 198.867 57.6961 198.129 57.6961C196.787 57.6961 195.727 57.1584 194.948 56.0829V57.3425H191.304V39H194.948Z" fill="white"/>
<path d="M207.407 55.7956L202.414 46.0055H206.642L209.4 51.8177L212.077 46.0055H216.265L207.97 63H203.884L207.407 55.7956Z" fill="white"/>
<path d="M224.828 40.6796L227.445 51.442L230.666 40.6796H233.807L237.028 51.442L239.645 40.6796H243.772L239.243 57.3425H235.216L232.236 47.6851L229.257 57.3425H225.23L220.701 40.6796H224.828Z" fill="white"/>
<path d="M246.517 51.6409C246.517 52.0092 246.577 52.3554 246.698 52.6796C246.818 52.989 246.98 53.2615 247.181 53.4972C247.396 53.733 247.644 53.9171 247.926 54.0497C248.221 54.1823 248.536 54.2486 248.872 54.2486C249.194 54.2486 249.496 54.1823 249.778 54.0497C250.073 53.9171 250.322 53.733 250.523 53.4972C250.738 53.2615 250.905 52.989 251.026 52.6796C251.16 52.3702 251.228 52.0387 251.228 51.6851C251.228 51.3315 251.16 51 251.026 50.6906C250.905 50.3665 250.738 50.0866 250.523 49.8508C250.322 49.6151 250.073 49.4309 249.778 49.2983C249.496 49.1657 249.194 49.0994 248.872 49.0994C248.536 49.0994 248.221 49.1657 247.926 49.2983C247.644 49.4309 247.396 49.6151 247.181 49.8508C246.98 50.0866 246.818 50.3591 246.698 50.6685C246.577 50.9632 246.517 51.2873 246.517 51.6409ZM251.107 46.0055H254.771V57.3425H251.107V56.0829C250.328 57.1584 249.275 57.6961 247.946 57.6961C247.194 57.6961 246.503 57.5488 245.872 57.2541C245.241 56.9447 244.691 56.5175 244.221 55.9724C243.752 55.4273 243.383 54.7864 243.114 54.0497C242.859 53.3131 242.732 52.5101 242.732 51.6409C242.732 50.8306 242.859 50.0645 243.114 49.3425C243.369 48.6059 243.725 47.965 244.181 47.4199C244.637 46.8748 245.181 46.4475 245.812 46.1381C246.443 45.814 247.141 45.6519 247.906 45.6519C249.194 45.6519 250.261 46.1455 251.107 47.1326V46.0055Z" fill="white"/>
<path d="M259.687 39V57.3425H256.043V39H259.687Z" fill="white"/>
<path d="M264.613 39V57.3425H260.969V39H264.613Z" fill="white"/>
<path d="M273.445 50.0276C273.324 49.4678 273.076 49.0184 272.7 48.6796C272.324 48.3407 271.868 48.1713 271.331 48.1713C270.767 48.1713 270.304 48.3333 269.942 48.6575C269.593 48.9816 269.371 49.4383 269.277 50.0276H273.445ZM269.177 52.3481C269.177 54.0718 269.915 54.9337 271.391 54.9337C272.183 54.9337 272.78 54.5801 273.183 53.8729H276.706C275.995 56.4659 274.216 57.7624 271.371 57.7624C270.499 57.7624 269.7 57.6225 268.975 57.3425C268.25 57.0479 267.626 56.6354 267.103 56.105C266.593 55.5746 266.197 54.9411 265.915 54.2044C265.633 53.4678 265.492 52.6427 265.492 51.7293C265.492 50.7864 265.627 49.9392 265.895 49.1878C266.163 48.4217 266.546 47.7735 267.043 47.2431C267.539 46.7127 268.136 46.3076 268.834 46.0276C269.546 45.733 270.344 45.5856 271.23 45.5856C272.102 45.5856 272.888 45.733 273.586 46.0276C274.283 46.3076 274.874 46.7201 275.357 47.2652C275.84 47.8103 276.209 48.4807 276.464 49.2762C276.719 50.0571 276.847 50.9411 276.847 51.9282V52.3481H269.177Z" fill="white"/>
<path d="M281.926 49.3425V57.3425H278.282V49.3425H277.074V46.0055H278.282V42.6022H281.926V46.0055H284V49.3425H281.926Z" fill="white"/>
<path d="M133.739 51.1761C135.742 46.7124 125.84 34.2418 116.379 29.0463C110.416 25.0214 104.202 25.5744 102.944 27.3416C100.182 31.22 112.089 34.5063 120.052 38.3412C118.34 39.0828 116.727 40.4136 115.779 42.1156C112.81 38.8827 106.294 36.0986 98.6483 38.3412C93.496 39.8524 89.214 43.4152 87.5591 48.7963C87.157 48.6181 86.7117 48.519 86.2433 48.519C84.4521 48.519 83 49.9675 83 51.7542C83 53.541 84.4521 54.9894 86.2433 54.9894C86.5753 54.9894 87.6134 54.7672 87.6134 54.7672L104.202 54.8872C97.5681 65.3854 92.3252 66.9201 92.3252 68.7388C92.3252 70.5576 97.3417 70.0648 99.2254 69.3868C108.242 66.1414 117.927 56.0269 119.589 53.1152C126.568 53.9838 132.433 54.0865 133.739 51.1761Z" fill="url(#paint1_linear_35805_10076)"/>
<path fill-rule="evenodd" clip-rule="evenodd" d="M120.191 38.3848C120.192 38.385 120.192 38.3852 120.193 38.3854C120.561 38.2399 120.502 37.6942 120.4 37.2656C120.168 36.2807 116.158 32.3075 112.392 30.528C107.262 28.1033 103.484 28.228 102.925 29.3454C103.97 31.4949 108.816 33.5129 113.876 35.6206C116.035 36.5198 118.234 37.4353 120.193 38.3843C120.192 38.3845 120.192 38.3846 120.191 38.3848Z" fill="url(#paint2_linear_35805_10076)"/>
<path fill-rule="evenodd" clip-rule="evenodd" d="M113.682 60.0194C112.644 59.6213 111.472 59.2561 110.138 58.9247C111.559 56.3736 111.857 52.5969 110.516 50.209C108.632 46.8579 106.268 45.0742 100.774 45.0742C97.7527 45.0742 89.6174 46.0954 89.4729 52.9095C89.4578 53.6249 89.4726 54.2805 89.5242 54.8834L104.38 54.9914C102.378 58.1789 100.502 60.543 98.8604 62.3407C100.832 62.8475 102.458 63.273 103.952 63.6637C105.37 64.0345 106.667 64.374 108.026 64.7217C110.074 63.2243 111.999 61.5916 113.682 60.0194Z" fill="url(#paint3_linear_35805_10076)"/>
<path d="M87.5761 54.1816C88.183 59.3579 91.1149 61.3865 97.1061 61.9869C103.097 62.5872 106.534 62.1845 111.109 62.6022C114.93 62.951 118.342 64.9048 119.608 64.2296C120.747 63.622 120.11 61.4266 118.586 60.0181C116.61 58.1923 113.875 56.9229 109.064 56.4725C110.022 53.8381 109.754 50.1444 108.265 48.1348C106.111 45.2291 102.137 43.9154 97.1061 44.4894C91.8504 45.0891 86.8145 47.6853 87.5761 54.1816Z" fill="url(#paint4_linear_35805_10076)"/>
<circle opacity="0.1" cx="34.5" cy="7.5" r="3.5" fill="white" fill-opacity="0.3"/>
<circle opacity="0.4" cx="34.5" cy="37.5" r="3.5" fill="white" fill-opacity="0.3"/>
<circle opacity="0.9" cx="34.5" cy="97.5" r="3.5" fill="white" fill-opacity="0.3"/>
<circle opacity="0.1" cx="64.5" cy="7.5" r="3.5" fill="white" fill-opacity="0.3"/>
<circle opacity="0.4" cx="64.5" cy="37.5" r="3.5" fill="white" fill-opacity="0.3"/>
<circle opacity="0.9" cx="64.5" cy="67.5" r="3.5" fill="white" fill-opacity="0.3"/>
<circle opacity="0.1" cx="94.5" cy="7.5" r="3.5" fill="white" fill-opacity="0.3"/>
<circle opacity="0.4" cx="94.5" cy="37.5" r="3.5" fill="white" fill-opacity="0.3"/>
<circle opacity="0.5" cx="94.5" cy="67.5" r="3.5" fill="white" fill-opacity="0.3"/>
<circle opacity="0.5" cx="94.5" cy="97.5" r="3.5" fill="white" fill-opacity="0.3"/>
<circle opacity="0.4" cx="124.5" cy="37.5" r="3.5" fill="white" fill-opacity="0.3"/>
<circle opacity="0.5" cx="124.5" cy="67.5" r="3.5" fill="white" fill-opacity="0.3"/>
<circle opacity="0.5" cx="124.5" cy="97.5" r="3.5" fill="white" fill-opacity="0.3"/>
<circle opacity="0.2" cx="154.5" cy="7.5" r="3.5" fill="white" fill-opacity="0.3"/>
<circle opacity="0.2" cx="154.5" cy="37.5" r="3.5" fill="white" fill-opacity="0.3"/>
<circle opacity="0.4" cx="154.5" cy="67.5" r="3.5" fill="white" fill-opacity="0.3"/>
<circle opacity="0.2" cx="184.5" cy="7.5" r="3.5" fill="white" fill-opacity="0.3"/>
<circle opacity="0.2" cx="184.5" cy="37.5" r="3.5" fill="white" fill-opacity="0.3"/>
<circle opacity="0.4" cx="184.5" cy="67.5" r="3.5" fill="white" fill-opacity="0.3"/>
<circle opacity="0.4" cx="184.5" cy="97.5" r="3.5" fill="white" fill-opacity="0.3"/>
<circle opacity="0.2" cx="214.5" cy="7.5" r="3.5" fill="white" fill-opacity="0.3"/>
<circle opacity="0.2" cx="214.5" cy="37.5" r="3.5" fill="white" fill-opacity="0.3"/>
<circle opacity="0.4" cx="214.5" cy="97.5" r="3.5" fill="white" fill-opacity="0.3"/>
<circle opacity="0.2" cx="244.5" cy="7.5" r="3.5" fill="white" fill-opacity="0.3"/>
<circle opacity="0.2" cx="244.5" cy="37.5" r="3.5" fill="white" fill-opacity="0.3"/>
<circle opacity="0.8" cx="244.5" cy="67.5" r="3.5" fill="white" fill-opacity="0.3"/>
<circle opacity="0.2" cx="274.5" cy="7.5" r="3.5" fill="white" fill-opacity="0.3"/>
<circle opacity="0.2" cx="274.5" cy="37.5" r="3.5" fill="white" fill-opacity="0.3"/>
<circle opacity="0.8" cx="274.5" cy="67.5" r="3.5" fill="white" fill-opacity="0.3"/>
<circle opacity="0.5" cx="304.5" cy="7.5" r="3.5" fill="white" fill-opacity="0.3"/>
<circle opacity="0.5" cx="304.5" cy="37.5" r="3.5" fill="white" fill-opacity="0.3"/>
<circle opacity="0.5" cx="304.5" cy="67.5" r="3.5" fill="white" fill-opacity="0.3"/>
<circle opacity="0.5" cx="334.5" cy="7.5" r="3.5" fill="white" fill-opacity="0.3"/>
<circle opacity="0.5" cx="334.5" cy="37.5" r="3.5" fill="white" fill-opacity="0.3"/>
<circle opacity="0.5" cx="334.5" cy="67.5" r="3.5" fill="white" fill-opacity="0.3"/>
<circle opacity="0.5" cx="334.5" cy="97.5" r="3.5" fill="white" fill-opacity="0.3"/>
<circle opacity="0.5" cx="364.5" cy="67.5" r="3.5" fill="white" fill-opacity="0.3"/>
<defs>
<linearGradient id="paint0_linear_35805_10076" x1="0" y1="0" x2="358.512" y2="182.091" gradientUnits="userSpaceOnUse">
<stop stop-color="#8BA8FF"/>
<stop offset="1" stop-color="#8C96FF"/>
</linearGradient>
<linearGradient id="paint1_linear_35805_10076" x1="98.0484" y1="47.2233" x2="133.295" y2="57.2437" gradientUnits="userSpaceOnUse">
<stop stop-color="white"/>
<stop offset="1" stop-color="white"/>
</linearGradient>
<linearGradient id="paint2_linear_35805_10076" x1="127.494" y1="46.6271" x2="102.026" y2="21.1827" gradientUnits="userSpaceOnUse">
<stop stop-color="#8697FF"/>
<stop offset="1" stop-color="#8697FF" stop-opacity="0"/>
</linearGradient>
<linearGradient id="paint3_linear_35805_10076" x1="114.388" y1="60.9086" x2="89.964" y2="46.9132" gradientUnits="userSpaceOnUse">
<stop stop-color="#8697FF"/>
<stop offset="1" stop-color="#8697FF" stop-opacity="0"/>
</linearGradient>
<linearGradient id="paint4_linear_35805_10076" x1="100.34" y1="47.0352" x2="116.889" y2="67.9924" gradientUnits="userSpaceOnUse">
<stop stop-color="white"/>
<stop offset="0.983895" stop-color="#D1D8FF"/>
</linearGradient>
</defs>
</svg>
