<svg width="12" height="12" viewBox="0 0 12 12" fill="none" xmlns="http://www.w3.org/2000/svg">
<path d="M12 0H0V12H12V0Z" fill="white" fill-opacity="0.01"/>
<path d="M6.00028 11.001C7.38098 11.001 8.63098 10.4413 9.5358 9.5365C10.4406 8.63168 11.0003 7.38168 11.0003 6.00098C11.0003 4.62028 10.4406 3.37028 9.5358 2.46544C8.63098 1.56062 7.38098 1.00098 6.00028 1.00098C4.61958 1.00098 3.36958 1.56062 2.46474 2.46544C1.55992 3.37028 1.00028 4.62028 1.00028 6.00098C1.00028 7.38168 1.55992 8.63168 2.46474 9.5365C3.36958 10.4413 4.61958 11.001 6.00028 11.001Z" stroke="#8697FF" stroke-width="0.8" stroke-linejoin="round"/>
<path fill-rule="evenodd" clip-rule="evenodd" d="M5.99972 2.74902C6.3449 2.74902 6.62472 3.02885 6.62472 3.37402C6.62472 3.7192 6.3449 3.99902 5.99972 3.99902C5.65455 3.99902 5.37472 3.7192 5.37472 3.37402C5.37472 3.02885 5.65455 2.74902 5.99972 2.74902Z" fill="#8697FF"/>
<path d="M6.125 8.49902V4.99902H5.875H5.625" stroke="#8697FF" stroke-width="0.8" stroke-linecap="round" stroke-linejoin="round"/>
<path d="M5.25 8.50098H7H5.25Z" fill="#8697FF"/>
<path d="M5.25 8.50098H7" stroke="#8697FF" stroke-width="0.8" stroke-linecap="round" stroke-linejoin="round"/>
</svg>
