<svg width="32" height="32" viewBox="0 0 32 32" fill="none" xmlns="http://www.w3.org/2000/svg">
<g id="Ethereum">
<path id="Vector" d="M16 32C24.8366 32 32 24.8366 32 16C32 7.16344 24.8366 0 16 0C7.16344 0 0 7.16344 0 16C0 24.8366 7.16344 32 16 32Z" fill="#8D91AB"/>
<g id="Group">
<path id="Vector_2" d="M16.498 4V12.87L23.995 16.22L16.498 4Z" fill="white" fill-opacity="0.602"/>
<path id="Vector_3" d="M16.498 4L9 16.22L16.498 12.87V4Z" fill="white"/>
<path id="Vector_4" d="M16.498 21.9692V27.9962L24 17.6172L16.498 21.9692Z" fill="white" fill-opacity="0.602"/>
<path id="Vector_5" d="M16.498 27.9962V21.9682L9 17.6172L16.498 27.9962Z" fill="white"/>
<path id="Vector_6" d="M16.498 20.574L23.995 16.221L16.498 12.873V20.574Z" fill="white" fill-opacity="0.2"/>
<path id="Vector_7" d="M9 16.221L16.498 20.574V12.873L9 16.221Z" fill="white" fill-opacity="0.602"/>
</g>
</g>
</svg>
