<svg width="28" height="28" viewBox="0 0 28 28" fill="none" xmlns="http://www.w3.org/2000/svg">
<path d="M10.326 6H8.12794C7.97614 6 7.84066 6.09307 7.78858 6.23284L2.01109 21.7622C1.96813 21.8778 2.05537 22 2.18076 22H4.3788C4.5306 22 4.66608 21.9069 4.71816 21.7673L10.4957 6.23779C10.5386 6.12225 10.4514 6 10.326 6ZM12.9994 12.5069C12.9417 12.3517 12.7179 12.3517 12.6601 12.5069L11.5206 15.5703C11.4914 15.6486 11.4914 15.7346 11.5206 15.813L13.7358 21.7672C13.7877 21.9069 13.9233 21.9999 14.0751 21.9999H16.2732C16.3986 21.9999 16.4858 21.8776 16.4428 21.7621L12.9994 12.5069ZM18.6028 15.5053C18.6605 15.6605 18.8843 15.6605 18.9421 15.5053L22.3899 6.23779C22.4328 6.12225 22.3456 6 22.2202 6H20.0222C19.8704 6 19.7349 6.09295 19.6828 6.23284L17.4632 12.1991C17.434 12.2775 17.434 12.3634 17.4632 12.4417L18.6028 15.5053ZM14.2689 6.2312C14.2174 6.09236 14.0828 6 13.9322 6H11.7267C11.575 6 11.4396 6.09295 11.3875 6.23273L5.61011 21.7622C5.56715 21.8778 5.65439 22 5.77979 22H7.97794C8.12974 22 8.26522 21.9071 8.3173 21.7673L12.7407 9.87705C12.7698 9.79904 12.8822 9.79904 12.9111 9.87705L17.3347 21.7673C17.3866 21.9071 17.5222 22 17.674 22H19.8722C19.9976 22 20.0848 21.8778 20.0419 21.7623L14.2689 6.2312ZM25.8192 6H23.621C23.4693 6 23.3337 6.09295 23.2817 6.23273L19.2626 17.036C19.2334 17.1144 19.2334 17.2003 19.2626 17.2786L20.4023 20.3422C20.4601 20.4974 20.6839 20.4974 20.7416 20.3422L24.7202 9.64797L25.9889 6.23767C26.0319 6.12225 25.9446 6 25.8192 6Z" fill="white"/>
</svg>
