<svg width="28" height="28" viewBox="0 0 28 28" fill="none" xmlns="http://www.w3.org/2000/svg">
<path d="M0 14C0 6.26801 6.26801 0 14 0C21.732 0 28 6.26801 28 14C28 21.732 21.732 28 14 28C6.26801 28 0 21.732 0 14Z" fill="#061735"/>
<path fill-rule="evenodd" clip-rule="evenodd" d="M19.6218 12.5653C19.7025 12.659 19.7884 12.7478 19.8744 12.8367C20.0013 12.9678 20.1282 13.099 20.2383 13.2456C21.5194 14.9573 21.1071 16.9014 19.5826 18.1855C18.8048 18.8407 17.8847 19.16 16.8599 19.187C16.7863 19.1889 16.7203 19.2053 16.6574 19.2294C16.6038 19.2499 16.5526 19.276 16.501 19.3036C16.111 19.5133 15.7205 19.7221 15.3299 19.931C14.4562 20.3981 13.5825 20.8654 12.7142 21.3421C11.9582 21.7573 11.1615 22.0188 10.2939 21.9989C8.80058 21.9651 7.58535 21.3748 6.72187 20.1583C5.77099 18.8188 5.84174 17.2222 6.89124 15.95C6.99593 15.8231 7.10845 15.7026 7.22088 15.5822L7.22894 15.5736C7.2771 15.5219 7.32526 15.4703 7.37272 15.4182C7.39972 15.322 7.47765 15.2698 7.55298 15.2191C7.56387 15.2118 7.57469 15.2046 7.58535 15.1972C7.59246 15.1922 7.59948 15.1872 7.60635 15.1822C8.34129 14.64 9.16236 14.3256 10.0865 14.2929C10.2494 14.285 10.4053 14.2257 10.5312 14.1238C10.9201 13.9323 11.3023 13.7278 11.6842 13.5234L11.6884 13.5211C11.8477 13.4358 12.0069 13.3506 12.1664 13.2663C12.3264 13.1821 12.4855 13.0964 12.6447 13.0108C12.9159 12.8648 13.1871 12.7188 13.4625 12.58C13.6007 12.5069 13.7377 12.4312 13.8748 12.3554L13.8805 12.3524C14.4447 12.0406 15.0091 11.7287 15.6536 11.5901C17.0479 11.2899 18.3217 11.5411 19.467 12.3922C19.4773 12.4001 19.4879 12.4077 19.4986 12.4153C19.552 12.4536 19.6067 12.4927 19.6218 12.5653ZM12.8313 18.5418C12.6233 18.6528 12.4184 18.762 12.2133 18.871C11.799 19.0907 11.3894 19.3196 10.9674 19.5246C9.99718 19.9955 8.78439 19.5298 8.4662 18.5728C8.23011 17.8663 8.67243 17.0451 9.45908 16.7418C9.97373 16.5427 10.4932 16.5483 10.9848 16.7963C11.615 17.1123 12.2386 17.4424 12.8789 17.7813L12.8824 17.7832L12.9144 17.8002C13.1311 17.9147 13.3498 18.0305 13.5713 18.1469L12.8313 18.5418ZM15.4854 14.3053L13.507 15.3554C13.527 15.3679 13.5429 15.3788 13.5569 15.3884C13.5746 15.4006 13.5893 15.4106 13.6052 15.4191C14.421 15.8534 15.2295 16.3012 16.055 16.7163C16.6513 17.016 17.2646 16.9974 17.8496 16.663C18.7782 16.1316 18.9241 14.9895 18.1584 14.2978C17.8756 14.0442 17.5212 13.8816 17.1422 13.8314C16.7632 13.7811 16.3776 13.8458 16.0369 14.0167C15.8493 14.1095 15.6686 14.2082 15.4854 14.3053Z" fill="#74DC54"/>
<path fill-rule="evenodd" clip-rule="evenodd" d="M19.6215 12.5655C19.1607 12.2199 18.6784 11.9142 18.1177 11.7431C16.8403 11.3529 15.6182 11.4731 14.4487 12.1148C14.2884 12.2024 14.1275 12.288 13.9665 12.373C13.8026 12.4596 13.6386 12.5456 13.4748 12.6323C13.4544 12.6076 13.4307 12.5852 13.4045 12.5662C12.5814 12.1327 11.7607 11.6953 10.9328 11.2717C10.531 11.0664 10.0984 11.0305 9.65817 11.1328C8.94905 11.2972 8.37622 11.9134 8.34029 12.5431C8.30271 13.2011 8.7534 13.8181 9.45722 14.0768C9.82145 14.2104 10.1922 14.2062 10.5672 14.142C10.5092 14.2039 10.4391 14.2537 10.361 14.2882C10.2822 14.323 10.197 14.3416 10.1105 14.3427C9.15726 14.377 8.31234 14.697 7.5673 15.2782C7.55072 15.2911 7.53382 15.3037 7.51677 15.3161C7.50224 15.3265 7.48763 15.3368 7.47295 15.347L7.43908 15.3704C7.41689 15.3858 7.3947 15.4011 7.37283 15.4167C6.5122 14.6584 5.98342 13.7365 6.0004 12.5742C6.01335 11.7068 6.36423 10.9549 6.93462 10.3052C7.75325 9.36864 8.80354 8.88615 10.0543 8.82007C10.1063 8.81634 10.1577 8.80732 10.2075 8.79325C10.2668 8.77645 10.3239 8.75251 10.3777 8.7218C11.0744 8.3501 11.7707 7.97777 12.4677 7.60677C13.1186 7.26018 13.7701 6.91484 14.4228 6.57229C16.1534 5.6615 18.0914 5.83985 19.5783 7.09295C20.4649 7.83729 20.9775 8.80576 20.9354 9.98003C20.8978 11.0245 20.4091 11.8748 19.6215 12.5655ZM15.5551 8.70982C14.8581 9.0816 14.1572 9.44623 13.4222 9.83278C13.701 9.97995 13.9761 10.127 14.2491 10.2731C14.8528 10.5959 15.4468 10.9134 16.0491 11.2149C16.6058 11.4935 17.1814 11.462 17.7345 11.1714C18.3012 10.8733 18.6707 10.2555 18.5947 9.7122C18.4743 8.85 17.6415 8.23775 16.7181 8.28992C16.2974 8.31363 15.9403 8.50419 15.5814 8.69583L15.5551 8.70982Z" fill="#C6E251"/>
</svg>
