<svg width="32" height="32" viewBox="0 0 32 32" fill="none" xmlns="http://www.w3.org/2000/svg">
<path d="M11.7375 9.73429C10.8406 9.73429 10.1136 10.4483 10.1136 11.3293V13.7217H11.7375V11.3293H13.7672V13.7217H15.3911V11.3293C15.3911 10.4483 14.664 9.73429 13.7672 9.73429H11.7375Z" fill="white"/>
<path d="M18.2328 9.73429C17.3359 9.73429 16.6089 10.4483 16.6089 11.3293V13.7217H18.2328V11.3293H20.2625V13.7217H21.8863V11.3293C21.8863 10.4483 21.1593 9.73429 20.2625 9.73429H18.2328Z" fill="white"/>
<path d="M10.1136 20.1013C10.1136 20.9821 10.8406 21.6962 11.7375 21.6962H13.7672C14.664 21.6962 15.3911 20.9821 15.3911 20.1013V17.7089H13.7672V20.1013H11.7375V17.7089H10.1136V20.1013Z" fill="white"/>
<path d="M16.6089 20.1013C16.6089 20.9821 17.3359 21.6962 18.2328 21.6962H20.2625C21.1593 21.6962 21.8863 20.9821 21.8863 20.1013V17.7089H20.2625V20.1013H18.2328V17.7089H16.6089V20.1013Z" fill="white"/>
<path fill-rule="evenodd" clip-rule="evenodd" d="M17.2178 4.32051C16.4642 3.89316 15.5357 3.89316 14.7821 4.32051L6.38632 9.08165C5.63271 9.50902 5.16846 10.2988 5.16846 11.1535V20.6758C5.16846 21.5305 5.63271 22.3203 6.38632 22.7477L14.7821 27.5089C15.5357 27.9362 16.4642 27.9362 17.2178 27.5089L25.6136 22.7477C26.3671 22.3203 26.8315 21.5305 26.8315 20.6758V11.1535C26.8315 10.2988 26.3671 9.50902 25.6136 9.08165L17.2178 4.32051ZM15.5941 5.70177C15.8452 5.55931 16.1547 5.55931 16.4059 5.70177L24.8018 10.4629C25.053 10.6054 25.2077 10.8687 25.2077 11.1535V13.3638C25.175 13.4066 25.1309 13.4628 25.0763 13.5285C24.9393 13.693 24.7415 13.9111 24.4985 14.1269C23.9877 14.5809 23.3977 14.9178 22.8231 14.9178H9.05193C8.14362 14.9178 7.36723 15.331 6.79227 15.7703V11.1535C6.79227 10.8687 6.94701 10.6054 7.19821 10.4629L15.5941 5.70177ZM6.79227 18.0622V20.6758C6.79227 20.9607 6.94701 21.224 7.19821 21.3664L15.5941 26.1276C15.8452 26.2701 16.1547 26.2701 16.4059 26.1276L24.8018 21.3664C25.053 21.224 25.2077 20.9607 25.2077 20.6758V15.622C24.6054 16.0767 23.7838 16.5127 22.8231 16.5127H9.05193C8.52451 16.5127 7.96965 16.8371 7.47741 17.2926C7.245 17.5076 7.05554 17.7253 6.92417 17.8896C6.86842 17.9595 6.82408 18.0185 6.79227 18.0622Z" fill="white"/>
</svg>
