<svg width="28" height="28" viewBox="0 0 28 28" fill="none" xmlns="http://www.w3.org/2000/svg">
<rect width="28" height="28" rx="14" fill="white"/>
<path d="M10.9137 7.14062H9.06739C8.93988 7.14062 8.82608 7.22043 8.78233 7.34029L3.92923 20.6567C3.89315 20.7558 3.96643 20.8606 4.07176 20.8606H5.91811C6.04562 20.8606 6.15943 20.7808 6.20317 20.6611L11.0563 7.34453C11.0924 7.24545 11.0191 7.14062 10.9137 7.14062ZM13.1595 12.7203C13.111 12.5872 12.923 12.5872 12.8744 12.7203L11.9172 15.3471C11.8927 15.4143 11.8927 15.4881 11.9172 15.5553L13.778 20.661C13.8216 20.7808 13.9355 20.8605 14.063 20.8605H15.9094C16.0147 20.8605 16.088 20.7557 16.0519 20.6566L13.1595 12.7203ZM17.8663 15.2914C17.9148 15.4245 18.1028 15.4245 18.1513 15.2914L21.0474 7.34453C21.0835 7.24545 21.0102 7.14062 20.9049 7.14062H19.0586C18.931 7.14062 18.8172 7.22033 18.7735 7.34029L16.909 12.4564C16.8845 12.5236 16.8845 12.5972 16.909 12.6644L17.8663 15.2914ZM14.2258 7.33888C14.1826 7.21982 14.0695 7.14062 13.943 7.14062H12.0904C11.963 7.14062 11.8492 7.22033 11.8054 7.34019L6.95242 20.6567C6.91633 20.7558 6.98961 20.8606 7.09495 20.8606H8.94139C9.06891 20.8606 9.18271 20.7809 9.22646 20.6611L12.9421 10.4652C12.9665 10.3983 13.061 10.3983 13.0853 10.4652L16.801 20.6611C16.8447 20.7809 16.9586 20.8606 17.0861 20.8606H18.9326C19.0379 20.8606 19.1112 20.7558 19.0751 20.6568L14.2258 7.33888ZM23.9281 7.14062H22.0815C21.9541 7.14062 21.8402 7.22033 21.7966 7.34019L18.4205 16.604C18.396 16.6712 18.396 16.7449 18.4205 16.8121L19.3779 19.4391C19.4264 19.5721 19.6144 19.5721 19.6628 19.4391L23.0049 10.2688L24.0706 7.34443C24.1067 7.24545 24.0334 7.14062 23.9281 7.14062Z" fill="#EF8220"/>
</svg>
