<svg width="16" height="16" viewBox="0 0 16 16" fill="none" xmlns="http://www.w3.org/2000/svg">
<path d="M7.38625 8.31328C7.48141 8.22777 7.60872 8.17733 7.74317 8.17188C7.8107 8.17188 7.87758 8.18383 7.93998 8.20705C8.00237 8.23027 8.05907 8.26431 8.10682 8.30722C8.15458 8.35014 8.19246 8.40108 8.21831 8.45714C8.24415 8.51321 8.25745 8.5733 8.25745 8.63399V11.4812C8.25745 11.6038 8.20327 11.7213 8.10682 11.808C8.01037 11.8946 7.87956 11.9433 7.74317 11.9433C7.60677 11.9433 7.47596 11.8946 7.37951 11.808C7.28307 11.7213 7.22888 11.6038 7.22888 11.4812V8.63399C7.23496 8.51318 7.29109 8.39879 7.38625 8.31328Z" fill="#fff"/>
<path fill-rule="evenodd" clip-rule="evenodd" d="M12.61 5.98333C12.8588 6.19281 13.0188 6.49003 13.0574 6.81431V6.84378H12.9915V12.8555C12.9658 13.1676 12.8243 13.4584 12.5952 13.67C12.3661 13.8816 12.0663 13.9985 11.7554 13.9975H3.42445C3.09808 14.0182 2.77641 13.9109 2.52687 13.698C2.27733 13.4851 2.11931 13.1832 2.08594 12.8555V6.81431C2.1278 6.49147 2.28871 6.19631 2.5367 5.98747C2.78468 5.77864 3.10159 5.67141 3.42445 5.6871H4.09005C4.14569 4.66736 4.53686 3.69532 5.20182 2.92435C5.51267 2.61911 5.88149 2.38021 6.28619 2.22197C6.69088 2.06373 7.12313 1.9894 7.55702 2.00343C7.96195 1.98348 8.36645 2.0507 8.74356 2.2006C9.12067 2.35051 9.46173 2.57966 9.744 2.87278C10.4178 3.65917 10.8116 4.64964 10.8631 5.6871H11.7189C12.0425 5.66789 12.3613 5.77384 12.61 5.98333ZM6.67606 3.08454C6.38562 3.19393 6.1222 3.3655 5.904 3.58741C5.39823 4.17152 5.10651 4.9126 5.07748 5.6871H9.91222C9.86522 4.88996 9.56231 4.12979 9.04914 3.5211C8.8564 3.33134 8.62727 3.18316 8.37575 3.08562C8.12422 2.98808 7.8556 2.94323 7.58628 2.95382C7.27706 2.93055 6.96651 2.97515 6.67606 3.08454ZM12.0714 12.9042C12.0901 12.871 12.102 12.8344 12.1065 12.7966H12.0699V6.90271C12.0576 6.82859 12.0188 6.76154 11.9609 6.71409C11.903 6.66663 11.83 6.64203 11.7554 6.64486H3.38788C3.31331 6.64203 3.24026 6.66663 3.18238 6.71409C3.1245 6.76154 3.08575 6.82859 3.07337 6.90271V12.7966C3.08732 12.8694 3.12674 12.9347 3.18446 12.9806C3.24218 13.0266 3.31436 13.0502 3.38788 13.0471H11.7847C11.8222 13.0522 11.8603 13.0498 11.8969 13.04C11.9335 13.0301 11.9677 13.0131 11.9977 12.9898C12.0277 12.9664 12.0527 12.9374 12.0714 12.9042Z" fill="#fff"/>
<path d="M7.38625 8.31328C7.48141 8.22777 7.60872 8.17733 7.74317 8.17188C7.8107 8.17188 7.87758 8.18383 7.93998 8.20705C8.00237 8.23027 8.05907 8.26431 8.10682 8.30722C8.15458 8.35014 8.19246 8.40108 8.21831 8.45714C8.24415 8.51321 8.25745 8.5733 8.25745 8.63399V11.4812C8.25745 11.6038 8.20327 11.7213 8.10682 11.808C8.01037 11.8946 7.87956 11.9433 7.74317 11.9433C7.60677 11.9433 7.47596 11.8946 7.37951 11.808C7.28307 11.7213 7.22888 11.6038 7.22888 11.4812V8.63399C7.23496 8.51318 7.29109 8.39879 7.38625 8.31328Z" stroke="#fff" stroke-width="0.2"/>
<path fill-rule="evenodd" clip-rule="evenodd" d="M12.61 5.98333C12.8588 6.19281 13.0188 6.49003 13.0574 6.81431V6.84378H12.9915V12.8555C12.9658 13.1676 12.8243 13.4584 12.5952 13.67C12.3661 13.8816 12.0663 13.9985 11.7554 13.9975H3.42445C3.09808 14.0182 2.77641 13.9109 2.52687 13.698C2.27733 13.4851 2.11931 13.1832 2.08594 12.8555V6.81431C2.1278 6.49147 2.28871 6.19631 2.5367 5.98747C2.78468 5.77864 3.10159 5.67141 3.42445 5.6871H4.09005C4.14569 4.66736 4.53686 3.69532 5.20182 2.92435C5.51267 2.61911 5.88149 2.38021 6.28619 2.22197C6.69088 2.06373 7.12313 1.9894 7.55702 2.00343C7.96195 1.98348 8.36645 2.0507 8.74356 2.2006C9.12067 2.35051 9.46173 2.57966 9.744 2.87278C10.4178 3.65917 10.8116 4.64964 10.8631 5.6871H11.7189C12.0425 5.66789 12.3613 5.77384 12.61 5.98333ZM6.67606 3.08454C6.38562 3.19393 6.1222 3.3655 5.904 3.58741C5.39823 4.17152 5.10651 4.9126 5.07748 5.6871H9.91222C9.86522 4.88996 9.56231 4.12979 9.04914 3.5211C8.8564 3.33134 8.62727 3.18316 8.37575 3.08562C8.12422 2.98808 7.8556 2.94323 7.58628 2.95382C7.27706 2.93055 6.96651 2.97515 6.67606 3.08454ZM12.0714 12.9042C12.0901 12.871 12.102 12.8344 12.1065 12.7966H12.0699V6.90271C12.0576 6.82859 12.0188 6.76154 11.9609 6.71409C11.903 6.66663 11.83 6.64203 11.7554 6.64486H3.38788C3.31331 6.64203 3.24026 6.66663 3.18238 6.71409C3.1245 6.76154 3.08575 6.82859 3.07337 6.90271V12.7966C3.08732 12.8694 3.12674 12.9347 3.18446 12.9806C3.24218 13.0266 3.31436 13.0502 3.38788 13.0471H11.7847C11.8222 13.0522 11.8603 13.0498 11.8969 13.04C11.9335 13.0301 11.9677 13.0131 11.9977 12.9898C12.0277 12.9664 12.0527 12.9374 12.0714 12.9042Z" stroke="#fff" stroke-width="0.2"/>
</svg>
