<svg width="20" height="20" viewBox="0 0 20 20" fill="none" xmlns="http://www.w3.org/2000/svg">
<path d="M9.19118 9.8858C8.19094 9.76064 7.17844 9.64515 6.15819 9.61031C5.46061 9.58708 4.76366 9.53611 4.0693 9.47289C3.5808 9.42837 3.20458 9.18771 3.06067 8.69867C2.91999 8.2251 3.05357 7.81025 3.44206 7.48508C3.75762 7.2212 4.28871 7.18894 4.71075 7.45669C5.13279 7.72444 5.54321 8.03155 5.9575 8.31801C6.12464 8.43479 6.28468 8.56382 6.45827 8.67028C6.72478 8.83351 7.02292 8.76448 7.16037 8.52253C7.28943 8.29994 7.19909 8.00639 6.93128 7.86767C6.29113 7.53411 5.64581 7.21991 5.00372 6.89022C4.59266 6.67667 4.16158 6.50892 3.77762 6.24439C3.54253 6.09062 3.34966 5.88049 3.21655 5.63314C3.08344 5.3858 3.01432 5.10909 3.0155 4.82822C3.0155 4.66692 3.0155 4.50563 3.0155 4.34433C3.02002 3.75593 3.37301 3.22623 3.86861 3.06365C4.41971 2.87848 5.10568 3.10946 5.44576 3.59915C6.41438 4.99339 7.4527 6.33601 8.45875 7.7038C8.7001 8.03284 8.94015 8.36382 9.18667 8.68899C9.24087 8.7606 9.2783 8.86512 9.42285 8.86448C9.45963 8.69415 9.3338 8.58963 9.257 8.47737C8.59039 7.5154 7.90829 6.56182 7.25136 5.59147C6.75769 4.86306 6.8874 3.97013 7.53594 3.40366C8.02768 2.97397 8.81948 2.8759 9.37768 3.17655C10.023 3.52366 10.3766 4.15594 10.2811 4.85016C10.1876 5.51986 10.0649 6.18568 9.95846 6.85345C9.93975 6.96764 9.92297 7.08249 9.89909 7.23733C10.0469 7.15926 10.0424 7.04378 10.0675 6.9528C10.2908 6.15665 10.5231 5.36243 10.7296 4.56111C10.9542 3.67141 11.8499 2.97913 12.7443 3.01526C13.5922 3.0501 14.4447 3.05397 15.292 3.01526C15.9967 2.98106 16.7246 3.62689 16.9105 4.18626C17.1312 4.85016 16.9395 5.65534 16.3839 6.09084C15.261 6.97151 14.1201 7.83799 12.9889 8.7077C12.4449 9.12771 11.9015 9.54644 11.3653 9.97935C11.2801 10.0439 11.0845 10.1265 11.2026 10.2639C11.2981 10.3755 11.4059 10.2148 11.4924 10.1465C12.5739 9.29611 13.6477 8.43995 14.7357 7.59476C14.9661 7.40557 15.2518 7.2964 15.5497 7.28371C15.8475 7.27103 16.1415 7.35552 16.3871 7.52444C16.8711 7.84703 17.097 8.45414 16.9576 9.05932C16.8401 9.56708 16.3013 10.0155 15.7076 10.0735C14.7777 10.1645 13.8465 10.2413 12.9159 10.3239C12.8728 10.324 12.8297 10.327 12.7869 10.3329C12.712 10.3503 12.5843 10.3168 12.6004 10.4458C12.612 10.5381 12.7224 10.5181 12.794 10.5149C13.427 10.4865 14.062 10.4749 14.6932 10.4174C15.8831 10.309 16.9763 11.271 16.9834 12.4685C16.9898 13.5653 16.9866 14.6621 16.9834 15.7589C16.9834 16.3505 16.5865 16.8647 16.0677 16.9647C15.4224 17.0893 14.8809 16.808 14.6144 16.2221C14.2989 15.5279 13.9691 14.8389 13.6568 14.1434C13.5277 13.8608 13.3302 13.684 13.0147 13.695C12.7656 13.704 12.5526 13.8098 12.4558 14.0614C12.3397 14.3659 12.4229 14.6272 12.6423 14.8576C12.8359 15.0589 13.0469 15.2415 13.1521 15.5144C13.4309 16.2383 12.9443 16.9518 12.1725 16.9925C10.9406 17.057 10.4412 16.7234 10.3011 15.324C10.1759 14.053 9.97847 12.7885 9.81262 11.5213C9.80423 11.4536 9.82553 11.3684 9.73067 11.3104C9.67065 11.4426 9.73454 11.5639 9.74938 11.682C9.87264 12.6736 10.0036 13.664 10.1269 14.6556C10.2753 15.8499 9.29314 16.9783 8.08575 16.9841C6.99969 16.9912 5.91362 16.9841 4.82691 16.9776C4.01187 16.9705 3.26782 16.3544 3.06003 15.537C2.84514 14.6905 3.22265 13.755 3.9454 13.3646C4.83529 12.8846 5.79682 12.564 6.71381 12.1426C7.29008 11.8781 7.88054 11.6446 8.46197 11.3923C8.59685 11.3336 8.78463 11.2684 8.69493 11.0775C8.60523 10.8865 8.43681 10.9949 8.30129 11.0555C7.27696 11.5287 6.2537 12.0044 5.23152 12.4827C4.39261 12.8698 3.48916 12.5794 3.14392 11.8084C2.6851 10.7878 3.38398 9.67934 4.52425 9.68709C5.65162 9.69483 6.77834 9.77354 7.90507 9.82257C8.3342 9.84128 8.76269 9.86451 9.19118 9.8858Z" fill="white"/>
</svg>
