<svg width="20" height="20" viewBox="0 0 20 20" fill="none" xmlns="http://www.w3.org/2000/svg">
<path d="M9.8774 3.13356C10.2155 2.95548 10.73 2.95548 11.0681 3.13356L14.5183 4.95067C14.7246 5.05931 14.8367 5.22186 14.8546 5.3891L14.8571 5.38908V14.5631L14.8566 14.5632C14.8481 14.741 14.7353 14.9165 14.5183 15.0318L11.0681 16.8652C10.73 17.0449 10.2155 17.0449 9.87742 16.8652L6.42722 15.0318C6.20672 14.9146 6.1009 14.733 6.09566 14.5522L6.09614 14.5631H6.09524V5.38908L6.09663 5.38912C6.10978 5.21991 6.21659 5.06158 6.42719 4.95067L9.8774 3.13356ZM6.61905 10.5008V14.5236L9.87742 16.246C10.0655 16.3471 10.261 16.4456 10.4516 16.4532L10.4728 16.4536C10.6455 16.4542 10.8136 16.3755 10.9832 16.292L11.0444 16.2619L14.3333 14.509V10.5363L11.1068 12.2316C10.7742 12.4064 10.2712 12.4096 9.93227 12.2413L9.91326 12.2316L6.61905 10.5008ZM5.54412 14.372C5.54412 14.7211 5.58499 14.9506 5.66613 15.1122C5.73339 15.2462 5.8343 15.3486 6.01856 15.4732L6.02907 15.4802C6.06951 15.5073 6.11406 15.5357 6.16828 15.569L6.23222 15.6079L6.42857 15.7255L6.14695 16.1877L5.92718 16.0559L5.89024 16.0334C5.8267 15.9945 5.77403 15.961 5.72491 15.9282C5.19977 15.5767 5.00392 15.1935 5.00006 14.3963L5 14.372H5.54412ZM10.762 8.06747V11.7892C10.7948 11.7792 10.8254 11.7671 10.8526 11.7528L14.3109 9.93568C14.3146 9.93377 14.318 9.93188 14.3213 9.93002L14.3242 9.92833L14.3188 9.92524L14.3109 9.92098L10.8526 8.10386C10.8254 8.08957 10.7948 8.07744 10.762 8.06747ZM10.2381 8.07391C10.2128 8.08253 10.1891 8.09252 10.1675 8.10386L6.70912 9.92098C6.70549 9.92289 6.70203 9.92477 6.69873 9.92664L6.69581 9.92833L6.70124 9.93142L6.70912 9.93568L10.1675 11.7528C10.1891 11.7641 10.2128 11.7741 10.2381 11.7827V8.07391ZM6.61905 6.0241V9.35581L9.78586 7.69191L6.61905 6.0241ZM14.3333 6.02046L11.1968 7.67232L14.3333 9.32031V6.02046ZM10.8145 3.6124C10.6351 3.5179 10.3105 3.5179 10.131 3.6124L6.68081 5.42951C6.67719 5.43142 6.67374 5.43331 6.67045 5.43517L6.66753 5.43686L6.67295 5.43995L6.68081 5.44421L10.131 7.26132C10.3105 7.35582 10.6351 7.35582 10.8145 7.26132L14.2647 5.44421C14.2683 5.4423 14.2718 5.44041 14.2751 5.43855L14.278 5.43686L14.2726 5.43377L14.2647 5.42951L10.8145 3.6124ZM14.853 3.81229L15.0728 3.94406L15.1098 3.96657C15.1733 4.00551 15.226 4.03897 15.2751 4.07185C15.8002 4.42333 15.9961 4.80654 15.9999 5.6037L16 5.62799H15.4559C15.4559 5.27889 15.415 5.04944 15.3339 4.8878C15.2666 4.75382 15.1657 4.65143 14.9814 4.52684L14.9709 4.51976C14.9305 4.4927 14.8859 4.46434 14.8317 4.43102L14.7678 4.39214L14.5714 4.27451L14.853 3.81229Z" fill="white"/>
</svg>
