<svg width="56" height="45" viewBox="0 0 56 45" fill="none" xmlns="http://www.w3.org/2000/svg">
<path d="M26.3758 2.26066C27.1738 1.14997 28.8262 1.14997 29.6242 2.26066L49.9733 30.583C50.924 31.9062 49.9783 33.75 48.3491 33.75H7.65094C6.02166 33.75 5.07603 31.9062 6.0267 30.583L26.3758 2.26066Z" fill="#E5E9EF"/>
<path fill-rule="evenodd" clip-rule="evenodd" d="M28.0422 27.9985C28.8702 27.9985 29.5415 27.3273 29.5415 26.4993C29.5415 25.6712 28.8702 25 28.0422 25C27.2142 25 26.543 25.6712 26.543 26.4993C26.543 27.3273 27.2142 27.9985 28.0422 27.9985Z" fill="white"/>
<path d="M28.043 13V22.5952V13Z" fill="white"/>
<path d="M28.043 13V22.5952" stroke="white" stroke-width="2.3988" stroke-linecap="round" stroke-linejoin="round"/>
</svg>
