<svg width="128" height="128" viewBox="0 0 128 128" fill="none" xmlns="http://www.w3.org/2000/svg">
<rect opacity="0.4" x="51" y="37" width="39" height="25" rx="6" fill="white"/>
<g filter="url(#filter0_d)">
<path d="M99.9891 82.5545V87.8396C99.9891 93.585 95.3843 98.2496 89.7067 98.2496H38.2834C32.6057 98.2496 28.001 93.585 28.001 87.8396V41.16C28.001 35.4147 32.6057 30.75 38.2834 30.75H57.7306L57.7418 30.761C58.4906 30.739 59.34 31.0147 59.9324 32.0623L66.5601 43.6743H89.7067C95.3843 43.6743 99.9891 48.3389 99.9891 54.0843V54.3056L100.001 54.314V81.3453V82.5258L99.9891 82.5545Z" fill="white"/>
</g>
<mask id="mask0" mask-type="alpha" maskUnits="userSpaceOnUse" x="28" y="30" width="73" height="69">
<path d="M99.9891 82.5545V87.8396C99.9891 93.585 95.3843 98.2496 89.7067 98.2496H38.2834C32.6057 98.2496 28.001 93.585 28.001 87.8396V41.16C28.001 35.4147 32.6057 30.75 38.2834 30.75H57.7306L57.7418 30.761C58.4906 30.739 59.34 31.0147 59.9324 32.0623L66.5601 43.6743H89.7067C95.3843 43.6743 99.9891 48.3389 99.9891 54.0843V54.3056L100.001 54.314V81.3453V82.5258L99.9891 82.5545Z" fill="white"/>
</mask>
<g mask="url(#mask0)">
<circle opacity="0.1" cx="95" cy="91" r="24" fill="#8399FF"/>
</g>
<path opacity="0.6" d="M61.5978 54.8521C62.1716 54.8521 62.7037 55.0979 63.0897 55.5256C63.9138 56.4449 63.9138 57.8668 63.0897 58.7755L57.7275 64.6445H82.0347C83.1718 64.6445 84.1003 65.6601 84.1003 66.9002C84.1003 68.1403 83.1718 69.1559 82.0347 69.1559H57.6336L63.0062 75.0357C63.8095 75.9443 63.8095 77.3341 63.0062 78.2428L62.9645 78.2963C62.5889 78.7239 62.0569 78.9591 61.4935 78.9591C60.9302 78.9484 60.3981 78.7132 60.0226 78.2856L51.103 68.5359C50.2997 67.6272 50.2997 66.2374 51.103 65.3287L51.1551 65.2753H51.1655L51.2177 65.2218L60.106 55.5256C60.492 55.0979 61.0345 54.8521 61.5978 54.8521Z" fill="#8298FF"/>
<defs>
<filter id="filter0_d" x="12.001" y="26.75" width="104" height="99.4996" filterUnits="userSpaceOnUse" color-interpolation-filters="sRGB">
<feFlood flood-opacity="0" result="BackgroundImageFix"/>
<feColorMatrix in="SourceAlpha" type="matrix" values="0 0 0 0 0 0 0 0 0 0 0 0 0 0 0 0 0 0 127 0"/>
<feOffset dy="12"/>
<feGaussianBlur stdDeviation="8"/>
<feColorMatrix type="matrix" values="0 0 0 0 0.0840278 0 0 0 0 0.109304 0 0 0 0 0.366667 0 0 0 0.08 0"/>
<feBlend mode="normal" in2="BackgroundImageFix" result="effect1_dropShadow"/>
<feBlend mode="normal" in="SourceGraphic" in2="effect1_dropShadow" result="shape"/>
</filter>
</defs>
</svg>
