<svg width="20" height="20" viewBox="0 0 20 20" fill="none" xmlns="http://www.w3.org/2000/svg">
<path d="M5.3252 9.61776C5.32507 9.5283 5.34264 9.4397 5.37691 9.35706C5.41117 9.27443 5.46145 9.19939 5.52484 9.13627C5.58824 9.07316 5.6635 9.02321 5.74628 8.98931C5.82907 8.95541 5.91775 8.93823 6.0072 8.93876L7.1372 8.94276C7.22637 8.94289 7.31464 8.96058 7.39697 8.99483C7.4793 9.02907 7.55408 9.0792 7.61704 9.14234C7.68 9.20548 7.7299 9.28041 7.7639 9.36284C7.7979 9.44527 7.81534 9.53359 7.8152 9.62276V13.8938C7.97077 13.8496 8.12749 13.8095 8.2852 13.7738C8.40898 13.7443 8.51922 13.674 8.59814 13.5742C8.67706 13.4745 8.72006 13.351 8.7202 13.2238V7.92376C8.72047 7.74358 8.79223 7.57088 8.91973 7.44357C9.04722 7.31626 9.22003 7.24476 9.4002 7.24476H10.5312C10.7116 7.24476 10.8845 7.3164 11.012 7.44393C11.1396 7.57145 11.2112 7.74441 11.2112 7.92476V12.8428C11.2112 12.8428 11.4932 12.7278 11.7692 12.6118C11.872 12.5685 11.9597 12.4959 12.0214 12.4031C12.0831 12.3102 12.1161 12.2012 12.1162 12.0898V6.22576C12.1159 6.13655 12.1333 6.04817 12.1672 5.96568C12.2012 5.8832 12.2511 5.80822 12.3141 5.74505C12.3771 5.68188 12.4519 5.63176 12.5343 5.59756C12.6167 5.56336 12.705 5.54576 12.7942 5.54576H13.9262C14.1066 5.54576 14.2795 5.6174 14.407 5.74493C14.5346 5.87245 14.6062 6.04541 14.6062 6.22576V11.0548C15.5862 10.3428 16.5812 9.48776 17.3702 8.45876C17.4846 8.30944 17.5602 8.13415 17.5904 7.9485C17.6206 7.76285 17.6044 7.57262 17.5432 7.39476C17.0094 5.83851 16.0081 4.48506 14.6761 3.51941C13.344 2.55377 11.7463 2.02303 10.1012 1.99976C5.6662 1.93976 2.0002 5.56276 2.0012 9.99976C1.99648 11.4039 2.36248 12.7844 3.0622 14.0018C3.15875 14.1683 3.30085 14.3039 3.4718 14.3925C3.64275 14.481 3.83544 14.519 4.0272 14.5018C4.2412 14.4828 4.5072 14.4558 4.8242 14.4188C4.96211 14.4031 5.08944 14.3372 5.18199 14.2338C5.27455 14.1304 5.32587 13.9966 5.3262 13.8578V9.61776" fill="white"/>
<path d="M5.30109 16.4696C6.53171 17.3645 7.99213 17.8896 9.51083 17.9833C11.0295 18.077 12.5434 17.7354 13.8747 16.9985C15.206 16.2617 16.2993 15.1603 17.0264 13.8236C17.7534 12.487 18.0839 10.9706 17.9791 9.45264C15.0581 13.8106 9.66409 15.8486 5.30109 16.4696Z" fill="white"/>
</svg>
