<svg width="18" height="18" viewBox="0 0 18 18" fill="none" xmlns="http://www.w3.org/2000/svg">
<path fill-rule="evenodd" clip-rule="evenodd" d="M6.04308 9.00001C6.04308 7.2801 7.37018 5.87961 9 5.87961C10.6298 5.87961 11.9569 7.2801 11.9569 9.00001C11.9569 10.7199 10.6298 12.1204 9 12.1204C7.3702 12.1204 6.04308 10.7199 6.04308 9.00001ZM7.16065 9.00001C7.16065 10.0713 7.98487 10.941 9 10.941C10.0128 10.941 10.8393 10.0713 10.8393 9.00001C10.8393 7.92874 10.0151 7.05897 9 7.05897C7.98485 7.05897 7.16065 7.92874 7.16065 9.00001Z" fill="white"/>
<path fill-rule="evenodd" clip-rule="evenodd" d="M13.8731 4.629C15.2701 5.66832 16.3271 7.10814 16.9255 8.79362L17 9L16.9255 9.20638C16.3271 10.8894 15.2724 12.3292 13.8731 13.371C12.4412 14.4373 10.7579 15 9 15C7.24215 15 5.55879 14.4349 4.1269 13.371C2.72992 12.3317 1.67288 10.8919 1.07451 9.20638L1 9L1.07451 8.79362C1.67288 7.11057 2.72758 5.67077 4.1269 4.629C5.55881 3.56265 7.24215 3 9 3C10.7579 3 12.4412 3.56512 13.8731 4.629ZM2.19675 9.00245C3.31898 11.8944 6.02445 13.8231 9 13.8231C11.9732 13.8231 14.681 11.8944 15.8033 9.00245C14.681 6.11054 11.9755 4.18181 9 4.18181C6.02445 4.18181 3.31664 6.10811 2.19675 9.00245Z" fill="white"/>
<path fill-rule="evenodd" clip-rule="evenodd" d="M6.04308 9.00001C6.04308 7.2801 7.37018 5.87961 9 5.87961C10.6298 5.87961 11.9569 7.2801 11.9569 9.00001C11.9569 10.7199 10.6298 12.1204 9 12.1204C7.3702 12.1204 6.04308 10.7199 6.04308 9.00001ZM7.16065 9.00001C7.16065 10.0713 7.98487 10.941 9 10.941C10.0128 10.941 10.8393 10.0713 10.8393 9.00001C10.8393 7.92874 10.0151 7.05897 9 7.05897C7.98485 7.05897 7.16065 7.92874 7.16065 9.00001Z" stroke="#8A9FFF" stroke-width="0.2"/>
<path fill-rule="evenodd" clip-rule="evenodd" d="M13.8731 4.629C15.2701 5.66832 16.3271 7.10814 16.9255 8.79362L17 9L16.9255 9.20638C16.3271 10.8894 15.2724 12.3292 13.8731 13.371C12.4412 14.4373 10.7579 15 9 15C7.24215 15 5.55879 14.4349 4.1269 13.371C2.72992 12.3317 1.67288 10.8919 1.07451 9.20638L1 9L1.07451 8.79362C1.67288 7.11057 2.72758 5.67077 4.1269 4.629C5.55881 3.56265 7.24215 3 9 3C10.7579 3 12.4412 3.56512 13.8731 4.629ZM2.19675 9.00245C3.31898 11.8944 6.02445 13.8231 9 13.8231C11.9732 13.8231 14.681 11.8944 15.8033 9.00245C14.681 6.11054 11.9755 4.18181 9 4.18181C6.02445 4.18181 3.31664 6.10811 2.19675 9.00245Z" stroke="#8A9FFF" stroke-width="0.2"/>
</svg>
