<svg width="32" height="32" viewBox="0 0 32 32" fill="none" xmlns="http://www.w3.org/2000/svg">
<rect width="32" height="32" rx="16" fill="white"/>
<path d="M25.4386 10.5012C23.9853 10.5012 22.5319 10.502 21.0786 10.502C18.7817 10.502 16.4849 10.5029 14.1872 10.502C13.6116 10.502 13.0441 10.555 12.4921 10.7251C11.5395 11.0174 10.7302 11.5312 10.0674 12.277C9.51945 12.8933 9.14166 13.6009 8.9259 14.3947C8.8168 14.7953 8.75329 15.204 8.75166 15.6185C8.74596 17.2745 8.74841 18.9314 8.74759 20.5875C8.74759 20.7919 8.75166 20.7666 8.5644 20.7666C7.75102 20.7666 6.93845 20.7658 6.12507 20.7682C6.03388 20.7682 6.00212 20.7438 6.00294 20.6486C6.00619 18.9681 5.98991 17.2884 6.01108 15.6087C6.03143 13.9526 6.54112 12.448 7.50594 11.1005C8.20941 10.1177 9.09525 9.33937 10.1513 8.75396C10.6984 8.45108 11.2757 8.21822 11.8798 8.05294C11.9287 8.03991 11.9751 8.01875 12.0223 8.00165C16.4645 8.00165 20.906 8.00165 25.3482 8.00002C25.4248 8.00002 25.4419 8.01712 25.4419 8.09365C25.4386 8.89645 25.4402 9.69925 25.4402 10.502L25.4386 10.5012Z" fill="#00CC9B"/>
<path d="M16.8288 22.4927H6V24.976C7.32985 24.9488 11.5118 24.976 17.6023 24.976C23.5866 24.976 25.5 20.0908 25.5 16.6712V12.1524H14.9969C13.8163 12.1524 13.3278 12.071 12.1879 12.5595C10.8526 13.3085 10.4645 14.8257 10.4374 15.4906V20.8236H16.8288C17.9687 20.8236 17.8194 20.4707 17.6023 20.2943C16.4353 19.1273 13.971 16.6549 13.4499 16.1012C13.1242 15.5476 13.5856 15.2192 13.857 15.1242C14.0334 15.0835 16.0553 15.0265 22.7317 15.1242C22.7317 18.7474 22.691 18.2588 21.9175 19.8465C20.8754 22.1588 18.0908 22.5741 16.8288 22.4927Z" fill="black"/>
</svg>
