<svg width="28" height="28" viewBox="0 0 28 28" fill="none" xmlns="http://www.w3.org/2000/svg">
<circle cx="14" cy="14" r="14" fill="#313042"/>
<path d="M11.1124 20.58C11.2573 20.2566 11.4176 19.9451 11.5289 19.6175C11.5618 19.5209 11.4848 19.3571 11.4113 19.2577C10.8233 18.4646 10.6077 17.5882 10.7918 16.6159C10.8075 16.5359 10.8295 16.4573 10.8576 16.3807C10.8832 16.3283 10.913 16.278 10.9465 16.2302C11.6752 16.9344 11.867 17.8066 11.9384 18.7607C12.1687 18.3407 12.4109 17.9207 12.6174 17.4846C12.6524 17.4111 12.5537 17.255 12.4886 17.1556C11.8943 16.2456 11.7641 15.2859 12.1484 14.182C12.8694 14.9051 13.0304 15.7577 13.0885 16.6957C13.3426 16.3156 13.6058 15.9411 13.8431 15.5505C13.8809 15.4882 13.8158 15.3538 13.7808 15.2586C13.442 14.3304 13.4847 13.4288 13.9607 12.5559C14.0139 12.4579 14.0874 12.3711 14.1784 12.2395C14.6341 13.027 14.625 13.8131 14.4514 14.6195L14.555 14.6678C14.7181 14.3878 14.9351 14.1316 15.0338 13.8334C15.3936 12.7407 16.0705 11.9434 17.1135 11.4618C17.2738 11.4005 17.4374 11.3482 17.6035 11.305C17.584 11.4675 17.5543 11.6286 17.5146 11.7873C17.1751 12.8303 16.5157 13.6115 15.5119 14.0455C15.0779 14.2338 14.8448 14.5586 14.6019 14.9338C15.4069 14.5838 16.2182 14.3605 17.1604 14.6797C16.9826 14.8442 16.8552 14.9912 16.7012 15.0997C16.0019 15.61 15.2158 15.82 14.3576 15.673C14.1049 15.6296 13.9712 15.6996 13.8466 15.9033C13.6366 16.2498 13.4056 16.5844 13.2026 16.9701C14.1042 16.5963 15.0009 16.4101 16.032 16.8427C15.7485 17.0373 15.542 17.2165 15.3054 17.3327C14.6337 17.6778 13.8584 17.7633 13.1277 17.5728C12.924 17.521 12.8071 17.5406 12.7077 17.738C12.4977 18.1636 12.2625 18.578 12.0574 19.0449C12.952 18.6088 13.8529 18.3603 14.8126 18.7082L14.9295 18.858C14.807 18.918 14.6881 18.9848 14.5732 19.0582C13.8214 19.5895 12.9954 19.8023 12.0882 19.6182C11.8411 19.5671 11.7256 19.6357 11.6388 19.8583C11.3343 20.6409 11.0263 21.4221 10.7015 22.1963C10.5671 22.5176 10.3851 22.8186 10.2304 23.1322C10.1156 23.3639 9.97698 23.4122 9.73058 23.2869C7.01878 21.924 5.17498 19.8156 4.38608 16.8784C2.97628 11.6284 5.90648 6.30844 11.1103 4.73904C17.1576 2.91344 22.9963 6.94684 23.8699 12.7778C24.5699 17.4629 21.9099 21.973 17.5167 23.6019C17.2661 23.6943 17.0267 23.8168 16.7824 23.5522C16.5381 23.2876 16.6081 23.037 16.7124 22.7451C17.0624 21.7469 17.4124 20.7459 17.7302 19.7351C17.9248 19.1191 18.1012 18.9532 18.7585 18.8951C19.3514 18.844 19.9443 18.7915 20.5323 18.7075C21.0671 18.6312 21.2281 18.4233 21.2323 17.8857C21.2434 17.745 21.2327 17.6033 21.2008 17.4657C21.1252 17.2221 21.1952 17.0331 21.359 16.8609C21.5228 16.6887 21.5564 16.5424 21.3688 16.3492C21.3086 16.2869 21.3093 16.0615 21.3688 16.0041C21.5907 15.7941 21.5606 15.5911 21.4115 15.3811C21.2533 15.1585 21.3002 15.0059 21.5207 14.8645C21.6763 14.7604 21.8229 14.6433 21.9589 14.5145C22.2214 14.2723 22.1983 14.1169 21.9176 13.8999C21.4682 13.5499 21.023 13.1999 20.5918 12.8275C20.3118 12.5888 20.2271 12.2675 20.3188 11.9063C20.4679 11.3211 20.2943 10.8143 19.9891 10.3124C19.7332 9.88519 19.5095 9.43945 19.3199 8.97894C19.0224 8.26494 18.5499 7.74554 17.7897 7.56424C17.0771 7.39484 16.3519 7.27654 15.6295 7.15334C15.1395 7.06864 14.6369 7.02524 14.1434 6.94334C12.8036 6.72564 11.6388 7.09244 10.5965 7.94364C10.2874 8.18987 9.95331 8.4029 9.59968 8.57924C9.31491 8.71113 9.08497 8.9381 8.94938 9.22114C8.81949 9.4764 8.62678 9.69441 8.38938 9.85464C7.86088 10.2046 7.33938 10.5343 6.98238 11.088C6.86548 11.2707 6.62818 11.382 6.43498 11.508C5.87988 11.8734 5.68878 12.3144 5.89598 12.95C6.03096 13.3464 6.05302 13.7725 5.95968 14.1806C5.8976 14.5115 5.88932 14.8502 5.93518 15.1837C5.98418 15.6219 6.25158 15.9369 6.66458 16.0937C6.97538 16.2106 7.12938 16.4129 7.17418 16.7349C7.23578 17.1773 7.45768 17.5154 7.78458 17.8374C8.08833 18.1543 8.33214 18.5235 8.50418 18.9273C8.71978 19.4054 9.00748 19.7351 9.51568 19.9122C9.99728 20.0795 10.4516 20.3266 10.9157 20.5359C10.98 20.5557 11.0458 20.5705 11.1124 20.58Z" fill="#00DACC"/>
</svg>
