<svg width="28" height="28" viewBox="0 0 28 28" fill="none" xmlns="http://www.w3.org/2000/svg">
<rect width="28" height="28" rx="14" fill="#00BC59"/>
<path d="M4.221 15.6016C4.12562 15.602 4.03127 15.6212 3.94336 15.6582C3.85544 15.6952 3.7757 15.7492 3.70871 15.8171C3.64172 15.885 3.5888 15.9654 3.55299 16.0538C3.51718 16.1422 3.49918 16.2368 3.50003 16.3322C3.50173 16.5235 3.57885 16.7065 3.71465 16.8413C3.85045 16.9761 4.03396 17.0518 4.2253 17.0521C4.41765 17.0521 4.60212 16.9757 4.73814 16.8397C4.87415 16.7037 4.95056 16.5192 4.95056 16.3268C4.95056 16.1345 4.87415 15.95 4.73814 15.814C4.60212 15.678 4.41765 15.6016 4.2253 15.6016H4.221Z" fill="white"/>
<path d="M8.35396 9.52246L8.24651 9.57833C7.86222 9.59702 7.5006 9.76575 7.2394 10.0483C6.97819 10.3308 6.83827 10.7045 6.8497 11.089L6.85615 12.0281H5.9235C5.5238 12.0281 5.17137 12.4149 5.17782 12.8512C5.18019 13.0571 5.25645 13.2554 5.39272 13.4099C5.458 13.4879 5.53926 13.551 5.63102 13.5949C5.72277 13.6389 5.82287 13.6626 5.92458 13.6645H6.7906L6.80242 15.5438L5.94284 15.5492C5.845 15.5499 5.74828 15.57 5.65827 15.6083C5.56826 15.6467 5.48676 15.7026 5.4185 15.7727C5.27485 15.918 5.19451 16.1142 5.19501 16.3185C5.19567 16.5198 5.27557 16.7128 5.41743 16.8557C5.48603 16.9266 5.56817 16.983 5.65898 17.0216C5.74978 17.0602 5.84741 17.0801 5.94607 17.0803H6.81532L6.83466 18.0344C6.84216 18.4312 7.00175 18.81 7.28048 19.0925C7.55921 19.3751 7.9358 19.5398 8.33247 19.5526H8.42272L8.36148 9.66751L8.35396 9.52246Z" fill="white"/>
<path d="M23.0618 15.4464H22.3935C22.4329 15.1325 22.4515 14.8162 22.4493 14.4998C22.4468 14.1874 22.4242 13.8756 22.3817 13.5661H23.051C23.1542 13.5643 23.2557 13.5401 23.3485 13.495C23.4413 13.4499 23.5232 13.385 23.5883 13.305C23.7325 13.1433 23.8085 12.9319 23.8003 12.7154C23.7921 12.4988 23.7003 12.2938 23.5442 12.1435C23.4139 12.0093 23.2359 11.9321 23.0489 11.9286H22.0292C20.9333 9.11348 17.7797 7 14.6401 7H14.5971L10.729 7.02364C9.85225 7.02364 9.1431 7.8037 9.14847 8.75031L9.21509 19.6025L14.5079 19.5702C15.9402 19.5616 17.2575 19.0771 18.2181 18.2067C18.7103 17.7597 19.1012 17.2124 19.3643 16.6018C19.6275 15.9911 19.7569 15.3312 19.7438 14.6664C19.7256 11.7416 17.5283 9.54542 14.625 9.54542H14.5907L11.277 9.56584V9.78073C11.3006 10.5801 12.1473 10.9981 12.9747 10.9981L13.5226 10.9766L15.0162 10.9755H15.0398C15.4928 10.9649 15.9427 11.0525 16.3586 11.2324C16.7745 11.4124 17.1464 11.6803 17.4488 12.0178C18.0397 12.6775 18.3674 13.5951 18.3739 14.603C18.3804 15.067 18.2843 15.5268 18.0924 15.9494C17.9005 16.3719 17.6176 16.7469 17.2639 17.0474C16.5171 17.663 15.5767 17.9948 14.6089 17.9843L10.8042 17.9327L10.685 8.54831L14.6143 8.52682H14.6498C16.2526 8.54268 17.7906 9.16187 18.9573 10.261C20.1736 11.4021 20.8484 12.8935 20.8581 14.4611C20.8774 17.7533 18.2363 20.4481 14.971 20.4685L9.98978 20.4986V20.706C9.99075 20.8696 10.0242 21.0315 10.0882 21.1822C10.1522 21.3328 10.2455 21.4693 10.3626 21.5836C10.4798 21.698 10.6184 21.7879 10.7706 21.8483C10.9228 21.9086 11.0854 21.9381 11.2491 21.9351H14.9764C18.0698 21.9351 20.9655 19.9108 22.0432 17.0044L23.0682 17.0377C23.1634 17.036 23.2574 17.0155 23.3446 16.9773C23.4318 16.9392 23.5106 16.8841 23.5765 16.8153C23.7293 16.6608 23.815 16.4523 23.815 16.2351C23.8118 15.816 23.4604 15.4464 23.0618 15.4464Z" fill="white"/>
<path d="M25.3458 12.2654C25.2028 12.1237 25.0099 12.0439 24.8086 12.043C24.604 12.043 24.4077 12.1242 24.2631 12.2689C24.1184 12.4136 24.0371 12.6098 24.0371 12.8144C24.0371 13.019 24.1184 13.2153 24.2631 13.36C24.4077 13.5046 24.604 13.5859 24.8086 13.5859C24.9612 13.585 25.1101 13.5388 25.2365 13.4532C25.3628 13.3677 25.461 13.2465 25.5185 13.1052C25.576 12.9638 25.5903 12.8086 25.5595 12.6591C25.5288 12.5096 25.4544 12.3726 25.3458 12.2654Z" fill="white"/>
</svg>
