<svg width="32" height="32" viewBox="0 0 32 32" fill="none" xmlns="http://www.w3.org/2000/svg">
<path d="M26.8801 13.6581L28.6479 16.7403L19.3391 22.156C19.3391 22.156 13.6415 25.6274 9.54327 18.4661L12.4417 16.7797C12.4417 16.7797 14.3243 20.9747 17.5896 19.0699C20.8548 17.1651 26.8801 13.6581 26.8801 13.6581Z" fill="white"/>
<path d="M5.27791 18.449L3.51013 15.3669L13.0174 9.84198C13.0174 9.84198 18.7176 6.37053 22.8158 13.5252L19.9161 15.2077C19.9161 15.2077 18.0334 11.0127 14.7682 12.9175C11.5029 14.8223 5.27791 18.449 5.27791 18.449Z" fill="white"/>
<path d="M16.2604 18.374C16.7202 18.3742 17.1697 18.2371 17.552 17.9799C17.9344 17.7227 18.2325 17.357 18.4085 16.9291C18.5846 16.5012 18.6307 16.0303 18.5411 15.576C18.4515 15.1217 18.2301 14.7043 17.905 14.3768C17.5799 14.0492 17.1657 13.8262 16.7148 13.7359C16.2639 13.6456 15.7965 13.6921 15.3718 13.8695C14.9471 14.0468 14.5842 14.3472 14.3289 14.7324C14.0736 15.1177 13.9376 15.5706 13.9378 16.0338C13.9382 16.6543 14.183 17.2494 14.6185 17.6882C15.054 18.1269 15.6445 18.3736 16.2604 18.374Z" fill="white"/>
<path d="M8.05882 22.0271C8.29865 22.0268 8.53301 21.9549 8.7323 21.8205C8.93158 21.686 9.08686 21.4951 9.17845 21.2718C9.27004 21.0484 9.29388 20.8027 9.24694 20.5658C9.19999 20.3288 9.08437 20.1112 8.91468 19.9404C8.74499 19.7696 8.5289 19.6534 8.29365 19.6063C8.0584 19.5593 7.81459 19.5836 7.59306 19.6761C7.3715 19.7686 7.18214 19.9253 7.04892 20.1262C6.91573 20.3271 6.84461 20.5634 6.84461 20.805C6.84445 20.9656 6.87573 21.1248 6.93671 21.2732C6.99768 21.4216 7.08714 21.5565 7.19993 21.67C7.31275 21.7835 7.44667 21.8735 7.59405 21.9348C7.74143 21.996 7.89938 22.0274 8.05882 22.0271Z" fill="white"/>
<path d="M24.2506 12.607C24.4908 12.6073 24.7257 12.5357 24.9255 12.4015C25.1254 12.2672 25.2812 12.0762 25.3733 11.8527C25.4654 11.6292 25.4896 11.3832 25.4429 11.1458C25.3962 10.9084 25.2807 10.6903 25.111 10.5191C24.9412 10.3479 24.7249 10.2312 24.4893 10.1839C24.2537 10.1366 24.0095 10.1607 23.7876 10.2533C23.5656 10.3458 23.3759 10.5026 23.2425 10.7038C23.109 10.905 23.0377 11.1416 23.0377 11.3837C23.0376 11.5442 23.0688 11.7033 23.1297 11.8517C23.1905 12.0001 23.2799 12.135 23.3925 12.2486C23.5052 12.3622 23.6389 12.4524 23.7861 12.5139C23.9334 12.5754 24.0912 12.607 24.2506 12.607Z" fill="white"/>
</svg>
