<svg width="14" height="14" viewBox="0 0 14 14" fill="none" xmlns="http://www.w3.org/2000/svg">
<path d="M14 0H0V14H14V0Z" fill="white" fill-opacity="0.01"/>
<path d="M7.00008 12.8332C8.6109 12.8332 10.0692 12.1802 11.1249 11.1246C12.1805 10.069 12.8334 8.61065 12.8334 6.99984C12.8334 5.38902 12.1805 3.93069 11.1249 2.87505C10.0692 1.81942 8.6109 1.1665 7.00008 1.1665C5.38927 1.1665 3.93093 1.81942 2.87529 2.87505C1.81967 3.93069 1.16675 5.38902 1.16675 6.99984C1.16675 8.61065 1.81967 10.069 2.87529 11.1246C3.93093 12.1802 5.38927 12.8332 7.00008 12.8332Z" fill="#B4BDCC" stroke="#B4BDCC" stroke-linejoin="round"/>
<path fill-rule="evenodd" clip-rule="evenodd" d="M6.99992 3.2085C7.40262 3.2085 7.72909 3.53496 7.72909 3.93766C7.72909 4.34037 7.40262 4.66683 6.99992 4.66683C6.59721 4.66683 6.27075 4.34037 6.27075 3.93766C6.27075 3.53496 6.59721 3.2085 6.99992 3.2085Z" fill="white"/>
<path d="M7.14583 9.91683V5.8335H6.85417H6.5625" stroke="white" stroke-linecap="round" stroke-linejoin="round"/>
<path d="M6.125 9.9165H8.16667" stroke="white" stroke-linecap="round" stroke-linejoin="round"/>
</svg>
