<svg width="16" height="16" viewBox="0 0 16 16" fill="none" xmlns="http://www.w3.org/2000/svg">
<path d="M4.88571 15.3714C5.87321 15.7893 6.91964 16 8 16C9.08036 16 10.1268 15.7893 11.1143 15.3714C12.0679 14.9679 12.9232 14.3911 13.6571 13.6571C14.3911 12.9232 14.9679 12.0679 15.3714 11.1143C15.7893 10.1268 16 9.08036 16 8C16 6.91964 15.7893 5.87321 15.3714 4.88571C14.9679 3.93214 14.3911 3.07679 13.6571 2.34286C12.9232 1.60893 12.0679 1.03214 11.1143 0.628571C10.1268 0.210714 9.08036 0 8 0C6.91964 0 5.87321 0.210714 4.88571 0.628571C3.93214 1.03214 3.07679 1.60893 2.34286 2.34286C1.60893 3.07679 1.03214 3.93214 0.628571 4.88571C0.210714 5.87321 0 6.91964 0 8C0 9.08036 0.210714 10.1268 0.628571 11.1143C1.03214 12.0679 1.60893 12.9232 2.34286 13.6571C3.07679 14.3911 3.93214 14.9679 4.88571 15.3714Z" fill="#F29C1B"/>
<path d="M7.03904 11.8098C7.03904 11.3454 7.48751 10.9391 8 10.9391C8.51249 10.9391 8.96096 11.3454 8.96096 11.8098C8.96096 12.2741 8.51249 12.6804 8 12.6804C7.48751 12.6804 7.03904 12.2741 7.03904 11.8098Z" fill="white"/>
<path d="M7.29294 3.91384C7.48047 3.74394 7.7348 3.64848 8 3.64844C8.26517 3.64856 8.51945 3.74406 8.70695 3.91393C8.89446 4.08381 8.99986 4.31418 9 4.55442L8.62205 9.23569C8.62205 9.736 8.55206 10.1417 8 10.1417C7.44794 10.1417 7.37865 9.73536 7.37865 9.23569L7 4.55442C7.00005 4.31415 7.10542 4.08374 7.29294 3.91384Z" fill="white"/>
<path d="M7.03904 11.8098C7.03904 11.3454 7.48751 10.9391 8 10.9391C8.51249 10.9391 8.96096 11.3454 8.96096 11.8098C8.96096 12.2741 8.51249 12.6804 8 12.6804C7.48751 12.6804 7.03904 12.2741 7.03904 11.8098Z" stroke="#F29C1B" stroke-width="0.2"/>
<path d="M7.29294 3.91384C7.48047 3.74394 7.7348 3.64848 8 3.64844C8.26517 3.64856 8.51945 3.74406 8.70695 3.91393C8.89446 4.08381 8.99986 4.31418 9 4.55442L8.62205 9.23569C8.62205 9.736 8.55206 10.1417 8 10.1417C7.44794 10.1417 7.37865 9.73536 7.37865 9.23569L7 4.55442C7.00005 4.31415 7.10542 4.08374 7.29294 3.91384Z" stroke="#F29C1B" stroke-width="0.2"/>
</svg>
