<svg width="100" height="100" viewBox="0 0 100 100" fill="none" xmlns="http://www.w3.org/2000/svg">
<g clip-path="url(#clip0_61475_62663)">
<g filter="url(#filter0_d_61475_62663)">
<path d="M81.5431 91.35C81.3255 92.4814 80.2351 93.22 79.1038 93.0024L32.0496 83.9518C30.9182 83.7342 30.1797 82.6439 30.3973 81.5125L42.9893 16.0458C43.2069 14.9145 44.2973 14.1759 45.4286 14.3935L92.4828 23.444C93.6142 23.6616 94.3528 24.752 94.1352 25.8834L81.5431 91.35Z" fill="#F5F6FA"/>
</g>
<rect x="47.2656" y="20.2734" width="42.5" height="60" rx="2.5" transform="rotate(10.8875 47.2656 20.2734)" fill="#E5E9EF"/>
<path d="M44.1424 61.9354L46.5619 49.3559L49.0022 49.8253L52.4224 58.9124L53.9858 50.7839L56.3917 51.2466L53.9722 63.8261L51.5663 63.3633L48.1124 54.3588L46.5654 62.4014L44.1424 61.9354ZM55.7548 64.1689L57.6654 54.236C57.7601 53.7434 57.9219 53.3349 58.1506 53.0106C58.3815 52.6748 58.6474 52.4349 58.9484 52.2908C59.2608 52.149 59.5737 52.0666 59.887 52.0437C60.2139 52.0115 60.5539 52.0353 60.9068 52.1151C63.8472 52.7638 65.6741 53.2102 66.3875 53.4544L66.0041 55.4478L61.0376 54.4926C60.8199 54.4507 60.6437 54.4406 60.5088 54.4622C60.374 54.4837 60.2669 54.5463 60.1876 54.6499C60.1197 54.7556 60.0724 54.8475 60.0455 54.9255C60.0186 55.0035 59.9897 55.1227 59.9589 55.2831L59.5821 57.2422L64.6358 58.3924L64.2524 60.3859L59.1358 59.5621L58.1607 64.6317L55.7548 64.1689ZM67.0345 55.5926L67.4609 53.3757L76.758 55.1639L76.3316 57.3808L72.843 56.7098L70.8499 67.0724L68.444 66.6096L70.4371 56.247L67.0345 55.5926Z" fill="#B4BDCC"/>
<g filter="url(#filter1_d_61475_62663)">
<path d="M62.2225 75.2141C62.3657 76.3572 61.5574 77.397 60.4142 77.5401L12.8689 83.4942C11.7258 83.6374 10.686 82.8291 10.5429 81.6859L2.25887 15.5359C2.11572 14.3928 2.92403 13.353 4.06719 13.2099L51.6125 7.25575C52.7556 7.1126 53.7954 7.92091 53.9386 9.06407L62.2225 75.2141Z" fill="#F5F6FA"/>
</g>
<rect x="7.63281" y="18.2266" width="42.5" height="60" rx="2.5" transform="rotate(-7.13802 7.63281 18.2266)" fill="#E5E9EF"/>
<g opacity="0.5" clip-path="url(#clip1_61475_62663)">
<path d="M40.9278 27.3443L38.1449 29.3028L38.2834 25.9025L35.5576 23.8616L38.8339 22.9438L39.9342 19.7237L41.8208 22.5557L45.2229 22.6058L43.1092 25.2755L44.1119 28.5275L40.9278 27.3443Z" fill="#8697FF" stroke="#8697FF" stroke-width="1.25" stroke-linecap="round" stroke-linejoin="round"/>
</g>
<g opacity="0.5" clip-path="url(#clip2_61475_62663)">
<path d="M75.599 39.3638L72.197 39.4457L74.2015 36.6956L73.0694 33.4842L76.3033 34.5416L79.0074 32.4758L79.0023 35.8787L81.803 37.8108L78.5622 38.8559L77.5888 42.1168L75.599 39.3638Z" fill="#8697FF" stroke="#8697FF" stroke-width="1.25" stroke-linecap="round" stroke-linejoin="round"/>
</g>
<path d="M19.818 57.7718L18.2262 45.0611L20.692 44.7523L26.7562 52.3351L25.7277 44.1217L28.1587 43.8173L29.7504 56.528L27.3194 56.8324L21.2487 49.3387L22.2664 57.4652L19.818 57.7718ZM31.5517 56.3024L30.2948 46.2658C30.2325 45.768 30.2599 45.3296 30.377 44.9504C30.4927 44.5597 30.6713 44.2492 30.9129 44.0191C31.1661 43.7875 31.4381 43.6123 31.729 43.4936C32.0299 43.3619 32.3606 43.2793 32.7209 43.2459C35.7177 42.953 37.5931 42.8122 38.347 42.8236L38.5992 44.8378L33.5809 45.4663C33.361 45.4938 33.1903 45.5387 33.0687 45.601C32.9472 45.6632 32.8647 45.7559 32.8213 45.8789C32.7895 46.0004 32.7729 46.1025 32.7715 46.1849C32.77 46.2674 32.7795 46.3897 32.7998 46.5518L33.0477 48.5313L38.2093 48.0613L38.4615 50.0755L33.3412 50.8755L33.9827 55.998L31.5517 56.3024ZM39.6239 44.6566L39.3434 42.4166L48.7375 41.2402L49.018 43.4802L45.493 43.9216L46.8043 54.3923L44.3733 54.6968L43.062 44.2261L39.6239 44.6566Z" fill="#B4BDCC"/>
</g>
<defs>
<filter id="filter0_d_61475_62663" x="25.3594" y="11.8555" width="73.814" height="88.6846" filterUnits="userSpaceOnUse" color-interpolation-filters="sRGB">
<feFlood flood-opacity="0" result="BackgroundImageFix"/>
<feColorMatrix in="SourceAlpha" type="matrix" values="0 0 0 0 0 0 0 0 0 0 0 0 0 0 0 0 0 0 127 0" result="hardAlpha"/>
<feOffset dy="2.5"/>
<feGaussianBlur stdDeviation="2.5"/>
<feComposite in2="hardAlpha" operator="out"/>
<feColorMatrix type="matrix" values="0 0 0 0 0 0 0 0 0 0 0 0 0 0 0 0 0 0 0.15 0"/>
<feBlend mode="normal" in2="BackgroundImageFix" result="effect1_dropShadow_61475_62663"/>
<feBlend mode="normal" in="SourceGraphic" in2="effect1_dropShadow_61475_62663" result="shape"/>
</filter>
<filter id="filter1_d_61475_62663" x="-2.75732" y="4.73926" width="69.9961" height="86.2715" filterUnits="userSpaceOnUse" color-interpolation-filters="sRGB">
<feFlood flood-opacity="0" result="BackgroundImageFix"/>
<feColorMatrix in="SourceAlpha" type="matrix" values="0 0 0 0 0 0 0 0 0 0 0 0 0 0 0 0 0 0 127 0" result="hardAlpha"/>
<feOffset dy="2.5"/>
<feGaussianBlur stdDeviation="2.5"/>
<feComposite in2="hardAlpha" operator="out"/>
<feColorMatrix type="matrix" values="0 0 0 0 0 0 0 0 0 0 0 0 0 0 0 0 0 0 0.15 0"/>
<feBlend mode="normal" in2="BackgroundImageFix" result="effect1_dropShadow_61475_62663"/>
<feBlend mode="normal" in="SourceGraphic" in2="effect1_dropShadow_61475_62663" result="shape"/>
</filter>
<clipPath id="clip0_61475_62663">
<rect width="100" height="100" fill="white"/>
</clipPath>
<clipPath id="clip1_61475_62663">
<rect width="11.7122" height="11.7122" fill="white" transform="translate(34 19.5078) rotate(-7.40289)"/>
</clipPath>
<clipPath id="clip2_61475_62663">
<rect width="11.7122" height="11.7122" fill="white" transform="translate(74.1953 29) rotate(26.3536)"/>
</clipPath>
</defs>
</svg>
