<svg width="100" height="100" viewBox="0 0 100 100" fill="none" xmlns="http://www.w3.org/2000/svg">
<rect width="100" height="100" rx="50" />
<path d="M50.0267 25C43.2491 25 37.7648 30.5512 37.7648 37.4109V42.0638C35.3872 42.4983 33 43.0793 33 43.8361V68.1061C33 68.1061 33 68.7799 33.7439 69.0973C36.4472 70.2055 47.0706 74.0138 49.5162 74.8828C49.8274 75 49.9198 75 49.9976 75C50.1143 75 50.1726 75 50.4838 74.8828C52.9245 74.0089 63.5771 70.2055 66.2804 69.0973C66.6791 68.9361 66.9562 68.5651 67 68.1354V43.8312C67 43.0744 64.6468 42.469 62.2595 42.0589V37.406C62.2936 30.5512 56.7752 25 50.0267 25ZM50.0267 29.8823C54.3928 29.8823 57.0329 32.5774 57.0329 37.0301V41.4876C52.3751 41.1361 47.693 41.1361 43.0352 41.4876V37.0301C43.0303 32.5676 45.6704 29.8823 50.0267 29.8823ZM49.9927 45.4912C56.9454 45.4912 62.7798 46.0185 62.7798 46.9656V65.3086C62.7798 65.5917 62.7457 65.6259 62.4881 65.7284C62.2401 65.8359 50.6248 69.9517 50.6248 69.9517C50.6248 69.9517 50.158 70.0933 50.0219 70.0933C49.876 70.0933 49.4141 69.9175 49.4141 69.9175C49.4141 69.9175 37.8037 65.8017 37.5557 65.6943C37.3077 65.5869 37.264 65.5527 37.264 65.2744V46.9363C37.2008 45.9892 43.04 45.4912 49.9927 45.4912Z" fill="#4B4D59"/>
</svg>
