<svg width="148" height="41" viewBox="0 0 148 41" fill="none" xmlns="http://www.w3.org/2000/svg">
<path d="M64.7647 10.5338C67.6837 10.5338 69.9202 11.2478 71.4742 12.6758C73.0492 14.0828 73.8367 15.9728 73.8367 18.3458C73.8367 19.6688 73.5532 20.9708 72.9862 22.2518C72.4402 23.5328 71.5057 24.5513 70.1827 25.3073L75.5692 33.7178H70.2457L65.3632 26.3468H62.3077V33.7178H57.7402V10.5338H64.7647ZM65.5522 21.9368C66.4762 21.9368 67.1902 21.7478 67.6942 21.3698C68.2192 20.9708 68.5867 20.5088 68.7967 19.9838C69.0067 19.4378 69.1117 18.9443 69.1117 18.5033C69.1117 18.2513 69.0697 17.9363 68.9857 17.5583C68.9227 17.1593 68.7757 16.7603 68.5447 16.3613C68.3137 15.9623 67.9567 15.6263 67.4737 15.3533C67.0117 15.0803 66.3817 14.9438 65.5837 14.9438H62.3077V21.9368H65.5522Z" fill="#8697FF"/>
<path d="M83.4615 34.0958C82.1805 34.0958 81.015 33.8438 79.965 33.3398C78.936 32.8148 78.117 32.0168 77.508 30.9458C76.899 29.8748 76.5945 28.5098 76.5945 26.8508C76.5945 25.2968 76.9095 23.9528 77.5395 22.8188C78.1695 21.6848 78.999 20.8133 80.028 20.2043C81.057 19.5743 82.149 19.2593 83.304 19.2593C84.669 19.2593 85.698 19.4798 86.391 19.9208C87.105 20.3618 87.672 20.8448 88.092 21.3698L88.3755 19.9523H92.4705V33.7178H88.0605V32.0168C87.8505 32.2268 87.5355 32.4998 87.1155 32.8358C86.7165 33.1718 86.2125 33.4658 85.6035 33.7178C84.9945 33.9698 84.2805 34.0958 83.4615 34.0958ZM84.7215 30.5048C86.2545 30.5048 87.3675 29.8118 88.0605 28.4258V25.0553C87.8085 24.3833 87.3675 23.8478 86.7375 23.4488C86.1285 23.0498 85.404 22.8503 84.564 22.8503C83.619 22.8503 82.8 23.2073 82.107 23.9213C81.414 24.6143 81.0675 25.5173 81.0675 26.6303C81.0675 27.3653 81.2355 28.0268 81.5715 28.6148C81.9075 29.2028 82.3485 29.6648 82.8945 30.0008C83.4615 30.3368 84.0705 30.5048 84.7215 30.5048Z" fill="#8697FF"/>
<path d="M105.11 34.0958C104.06 34.0958 103.157 33.9383 102.401 33.6233C101.666 33.3083 101.026 32.8778 100.48 32.3318V33.7178H96.0696V8.86426H100.448V20.8973C100.994 20.4353 101.719 20.0468 102.622 19.7318C103.525 19.4168 104.554 19.2593 105.709 19.2593C106.906 19.2593 107.998 19.5428 108.985 20.1098C109.972 20.6768 110.759 21.5063 111.347 22.5983C111.956 23.6693 112.261 24.9818 112.261 26.5358C112.261 28.0898 111.925 29.4338 111.253 30.5678C110.602 31.7018 109.73 32.5733 108.638 33.1823C107.546 33.7913 106.37 34.0958 105.11 34.0958ZM104.134 30.3788C104.785 30.3788 105.383 30.2108 105.929 29.8748C106.496 29.5388 106.948 29.0768 107.284 28.4888C107.62 27.9008 107.788 27.2393 107.788 26.5043C107.788 25.7693 107.62 25.1183 107.284 24.5513C106.948 23.9843 106.496 23.5433 105.929 23.2283C105.383 22.8923 104.785 22.7243 104.134 22.7243C103.273 22.7243 102.517 22.9238 101.866 23.3228C101.215 23.7218 100.753 24.2573 100.48 24.9293V28.2998C101.236 29.6858 102.454 30.3788 104.134 30.3788Z" fill="#8697FF"/>
<path d="M123.822 34.0958C122.772 34.0958 121.869 33.9383 121.113 33.6233C120.378 33.3083 119.737 32.8778 119.191 32.3318V33.7178H114.781V8.86426H119.16V20.8973C119.706 20.4353 120.43 20.0468 121.333 19.7318C122.236 19.4168 123.265 19.2593 124.42 19.2593C125.617 19.2593 126.709 19.5428 127.696 20.1098C128.683 20.6768 129.471 21.5063 130.059 22.5983C130.668 23.6693 130.972 24.9818 130.972 26.5358C130.972 28.0898 130.636 29.4338 129.964 30.5678C129.313 31.7018 128.442 32.5733 127.35 33.1823C126.258 33.7913 125.082 34.0958 123.822 34.0958ZM122.845 30.3788C123.496 30.3788 124.095 30.2108 124.641 29.8748C125.208 29.5388 125.659 29.0768 125.995 28.4888C126.331 27.9008 126.499 27.2393 126.499 26.5043C126.499 25.7693 126.331 25.1183 125.995 24.5513C125.659 23.9843 125.208 23.5433 124.641 23.2283C124.095 22.8923 123.496 22.7243 122.845 22.7243C121.984 22.7243 121.228 22.9238 120.577 23.3228C119.926 23.7218 119.464 24.2573 119.191 24.9293V28.2998C119.947 29.6858 121.165 30.3788 122.845 30.3788Z" fill="#8697FF"/>
<path d="M134.596 40.3328L137.903 32.9933L131.54 19.9523H136.486L140.108 28.0793L143.762 19.9523H147.731L138.848 40.3328H134.596Z" fill="#8697FF"/>
<path d="M44.4437 22.4833C46.1884 18.5857 37.5632 7.69661 29.3232 3.15998C24.1292 -0.354488 18.7172 0.128342 17.6211 1.67146C15.2156 5.05799 25.5864 7.92754 32.5223 11.2761C31.0314 11.9237 29.6264 13.0857 28.8001 14.5718C26.2144 11.7489 20.539 9.31793 13.8796 11.2761C9.39198 12.5957 5.66239 15.7066 4.22093 20.4054C3.87068 20.2497 3.48289 20.1632 3.0749 20.1632C1.51475 20.1632 0.25 21.428 0.25 22.9881C0.25 24.5483 1.51475 25.813 3.0749 25.813C3.36409 25.813 4.26827 25.619 4.26827 25.619L18.7172 25.7237C12.9388 34.8906 8.37215 36.2307 8.37215 37.8188C8.37215 39.4069 12.7416 38.9766 14.3822 38.3846C22.236 35.5508 30.6714 26.7189 32.1189 24.1765C38.1976 24.9349 43.3061 25.0246 44.4437 22.4833Z" fill="url(#paint0_linear)"/>
<path fill-rule="evenodd" clip-rule="evenodd" d="M32.5207 11.2792C32.8419 11.1524 32.7899 10.6777 32.7017 10.3049C32.4988 9.4479 28.998 5.99098 25.7106 4.44261C21.2318 2.33314 17.9336 2.44148 17.4453 3.41343C18.3563 5.28413 22.5876 7.0404 27.0068 8.87469C28.8916 9.65701 30.8105 10.4535 32.5207 11.2792Z" fill="url(#paint1_linear)"/>
<path fill-rule="evenodd" clip-rule="evenodd" d="M26.8367 30.1039C25.9306 29.7576 24.9071 29.4399 23.7434 29.1516C24.9839 26.9319 25.2442 23.6459 24.0727 21.5683C22.4285 18.6525 20.3645 17.1006 15.5684 17.1006C12.9306 17.1006 5.82828 17.9891 5.7022 23.9179C5.68896 24.5401 5.70187 25.1103 5.74692 25.6347L18.7167 25.7287C16.9683 28.5024 15.3308 30.5595 13.8972 32.1237C15.6182 32.5647 17.0385 32.9349 18.3424 33.2749C19.58 33.5975 20.7128 33.8928 21.8984 34.1953C23.6866 32.8925 25.3677 31.4719 26.8367 30.1039Z" fill="url(#paint2_linear)"/>
<path d="M4.0475 25.0196C4.57731 29.5234 7.13695 31.2885 12.3673 31.8108C17.5977 32.3332 20.5979 31.9828 24.5922 32.3462C27.9282 32.6497 30.9069 34.3497 32.0119 33.7622C33.0064 33.2335 32.45 31.3234 31.1193 30.0979C29.3944 28.5093 27.007 27.4048 22.8064 27.0129C23.6435 24.7208 23.4089 21.507 22.1088 19.7585C20.2289 17.2303 16.759 16.0873 12.3673 16.5867C7.77905 17.1084 3.38259 19.3673 4.0475 25.0196Z" fill="url(#paint3_linear)"/>
<defs>
<linearGradient id="paint0_linear" x1="13.3571" y1="19.0318" x2="44.068" y2="27.7409" gradientUnits="userSpaceOnUse">
<stop stop-color="#8697FF"/>
<stop offset="1" stop-color="#ABB7FF"/>
</linearGradient>
<linearGradient id="paint1_linear" x1="38.8942" y1="18.45" x2="16.7352" y2="-3.76314" gradientUnits="userSpaceOnUse">
<stop stop-color="#8697FF"/>
<stop offset="1" stop-color="#5156D8" stop-opacity="0"/>
</linearGradient>
<linearGradient id="paint2_linear" x1="27.4532" y1="30.8776" x2="6.16639" y2="18.639" gradientUnits="userSpaceOnUse">
<stop stop-color="#465EED"/>
<stop offset="1" stop-color="#8697FF" stop-opacity="0"/>
</linearGradient>
<linearGradient id="paint3_linear" x1="15.1902" y1="18.8017" x2="29.5782" y2="37.0833" gradientUnits="userSpaceOnUse">
<stop stop-color="#8898FF"/>
<stop offset="0.983895" stop-color="#6277F1"/>
</linearGradient>
</defs>
</svg>
