<svg width="28" height="28" viewBox="0 0 28 28" fill="none" xmlns="http://www.w3.org/2000/svg">
<path d="M11.3357 7.46674C7.18786 8.96422 6.80791 12.7992 5.61856 14.5903C4.41512 16.4026 1.6581 17.4025 2.03511 18.3261C2.41213 19.2496 5.17243 18.2577 7.35623 18.847C9.51415 19.4292 12.525 22.0403 16.6728 20.5429C18.7858 19.7801 20.316 18.2099 21.0194 16.3502C21.0952 16.1506 20.9537 15.9371 20.7293 15.9174C20.5897 15.9051 20.4558 15.9738 20.3929 16.0914C19.7565 17.2836 18.6647 18.2654 17.2359 18.7811C14.8772 19.6325 12.2964 18.9641 10.7114 17.2873C10.3514 16.9065 10.0435 16.4731 9.80044 15.9941C9.73362 15.8622 9.67007 15.7282 9.61373 15.5896C9.55707 15.451 9.50891 15.3114 9.4647 15.1713C10.7114 14.6248 12.15 14.0459 13.7809 13.4572C15.38 12.8799 16.8353 12.4117 18.1311 12.0371C19.0077 11.7839 19.8112 11.5732 20.5366 11.4009C20.589 11.3886 20.6409 11.3763 20.6922 11.3643C20.802 11.3387 20.9146 11.3939 20.9553 11.4931L20.956 11.4949C20.9798 11.5537 21.0005 11.6129 21.0228 11.672C21.1663 12.0537 21.2737 12.4394 21.3448 12.826C21.3759 12.9951 21.5725 13.0873 21.7336 13.0059C22.329 12.7053 22.8738 12.412 23.3606 12.1298C25.1742 11.0793 26.1798 10.1884 25.9734 9.68353C25.7674 9.17831 24.3864 9.14935 22.291 9.50978C21.6251 9.62438 20.8869 9.77841 20.0912 9.9691C19.9537 10.0021 19.8144 10.0362 19.6736 10.0714C19.0041 10.2383 18.2979 10.4296 17.5625 10.6437C16.195 11.0421 14.7278 11.5192 13.2132 12.066C11.7962 12.5777 10.4532 13.1082 9.22165 13.6368C9.20658 11.3932 10.6488 9.27227 13.0075 8.4208C14.436 7.90511 15.946 7.94731 17.2673 8.43311C17.3977 8.48117 17.5462 8.4479 17.6414 8.35087C17.7941 8.1953 17.7472 7.94762 17.549 7.84658C15.703 6.90793 13.4487 6.70399 11.3357 7.46674Z" fill="white"/>
</svg>
