<svg width="14" height="12" viewBox="0 0 14 12" fill="none" xmlns="http://www.w3.org/2000/svg">
<path d="M12.9877 4.95155C12.9934 4.97999 13.1155 5.64018 13.1155 6.16037C13.1155 6.69106 12.9895 7.36218 12.9877 7.36874C12.916 7.74937 12.685 7.99655 12.3892 7.99655H12.3376C11.5116 7.99655 10.8409 8.67424 10.8409 9.50812C10.8409 9.77674 10.97 10.0826 10.9713 10.0852C11.1191 10.4207 11.005 10.832 10.6869 11.0547L9.12545 11.924C8.96617 11.9891 8.79084 12.0043 8.62274 11.9674C8.45465 11.9305 8.30176 11.8433 8.18439 11.7175C8.01464 11.5302 7.42664 10.9939 6.96727 10.9939C6.54377 10.9939 5.97064 11.4716 5.75889 11.7039C5.60795 11.8697 5.37433 11.9686 5.13677 11.9686C5.02302 11.9686 4.91539 11.9467 4.79727 11.8942L3.29227 11.0424C3.14633 10.9361 3.04081 10.7833 2.99297 10.6092C2.94513 10.4351 2.95779 10.2499 3.02889 10.0839C3.0302 10.0812 3.15927 9.77805 3.15927 9.50812C3.15927 8.67555 2.48858 7.99655 1.66302 7.99655H1.60045C1.3152 7.99655 1.0842 7.75068 1.01245 7.36874C1.00677 7.3403 0.884705 6.67749 0.884705 6.16037C0.884705 5.64149 1.0072 4.97912 1.01245 4.95155C1.0842 4.57006 1.31389 4.32418 1.60964 4.32418H1.66127C2.48727 4.32418 3.15795 3.64605 3.15795 2.81262C3.15795 2.53962 3.02889 2.23818 3.02758 2.23512C2.8797 1.89999 2.99389 1.48699 3.31283 1.2643L4.90314 0.385805C5.00114 0.343367 5.10702 0.323242 5.21814 0.323242C5.45614 0.323242 5.68802 0.419492 5.84027 0.58268C6.00739 0.758992 6.58446 1.2643 7.03027 1.2643C7.47127 1.2643 8.0457 0.76993 8.21152 0.596242C8.36377 0.43743 8.59433 0.342492 8.82927 0.342492C8.94346 0.342492 9.05239 0.36393 9.17052 0.415555L10.7048 1.27918C11.0036 1.48962 11.1178 1.9013 10.97 2.23818C10.9686 2.2408 10.8396 2.54355 10.8396 2.81393C10.8396 3.64649 11.5116 4.32549 12.3358 4.32549H12.3984C12.685 4.32418 12.916 4.57006 12.9877 4.95155ZM9.16877 6.32574C9.16877 5.11999 8.19664 4.13955 7.00314 4.13955C5.80877 4.13955 4.83664 5.11956 4.83664 6.32574C4.83664 7.53193 5.80789 8.51237 7.00271 8.51237C8.19796 8.51237 9.16877 7.53193 9.16877 6.32574Z" fill="#707280"/>
</svg>
