<svg width="32" height="32" viewBox="0 0 32 32" fill="none" xmlns="http://www.w3.org/2000/svg">
<rect width="32" height="32" rx="16" fill="white"/>
<path d="M10.0246 16.0366C10.0246 14.2494 10.0246 12.4618 10.0246 10.6736C10.0246 10.1387 10.196 10.0266 10.6466 10.3017C12.2012 11.2503 13.8226 12.082 15.3633 13.0557C15.6175 13.2165 15.8989 13.3343 16.1621 13.4798C16.3711 13.5947 16.5689 13.7361 16.571 14.0008C16.5731 14.2655 16.362 14.3651 16.1677 14.4765C15.5848 14.8115 15.0004 15.143 14.4265 15.4941C14.1709 15.6508 13.9543 15.6835 13.6896 15.5066C13.4737 15.3624 13.202 15.0971 12.9875 15.2092C12.7549 15.3304 12.9179 15.6968 12.8928 15.9524C12.8817 16.1493 12.8817 16.3467 12.8928 16.5437C12.8991 16.9066 12.9771 16.9546 13.3051 16.7735C13.739 16.5319 14.1792 16.2916 14.5971 16.0241C15.5367 15.4251 16.5271 14.9139 17.4848 14.3463C18.143 13.9562 18.8026 13.569 19.4684 13.1922C19.7331 13.0424 19.6774 12.9554 19.4524 12.8265C17.8309 11.902 16.2125 10.9755 14.5971 10.0468C14.1249 9.77517 13.6596 9.48961 13.1923 9.21101C12.9694 9.07728 12.8817 9.13788 12.8886 9.39558C12.9028 9.66218 12.8968 9.92947 12.8705 10.1952C12.812 10.6764 12.5285 10.7962 12.1239 10.5525C11.5202 10.1875 10.9092 9.83135 10.2907 9.48404C10.2063 9.44548 10.1355 9.38225 10.0878 9.30267C10.04 9.22309 10.0175 9.13091 10.0233 9.03828C10.0281 8.35363 10.0072 7.66828 10.0316 6.98223C10.0532 6.36723 10.8291 5.62964 11.559 5.54049C12.6469 5.40746 13.4688 5.93192 14.338 6.43061C15.7951 7.2664 17.2354 8.13353 18.7064 8.94774C20.0458 9.68811 21.3531 10.4863 22.6521 11.3005C23.1347 11.6021 23.4698 12.0548 23.4113 12.6893C23.3976 12.805 23.3976 12.9219 23.4113 13.0375C23.5506 13.9883 23.04 14.5761 22.2969 15.0135C20.938 15.8103 19.5666 16.5869 18.2029 17.376C16.7077 18.242 15.2142 19.1098 13.7223 19.9795C12.6799 20.5831 11.6352 21.1868 10.5881 21.7904C10.196 22.0147 10.0309 21.9185 10.0309 21.4742C10.0249 19.66 10.0228 17.8475 10.0246 16.0366Z" fill="url(#paint0_linear_42260_13931)"/>
<path d="M10.0251 24.0228C10.0251 23.8257 10.0543 23.623 10.0202 23.4315C9.92199 22.882 10.1901 22.5762 10.647 22.3387C11.1499 22.0768 11.6305 21.7725 12.1222 21.4876C12.5687 21.2292 12.8577 21.3859 12.8884 21.9055C12.9023 22.1604 12.8981 22.416 12.8932 22.6716C12.8891 22.905 12.9629 22.9676 13.1788 22.8416C13.8809 22.4348 14.5892 22.0385 15.2927 21.6339C16.297 21.0553 17.2999 20.4749 18.3015 19.8926C18.6922 19.6663 19.0844 19.4399 19.4779 19.2184C19.7196 19.0791 19.7098 18.9628 19.473 18.8333C19.2358 18.7112 19.0052 18.5768 18.7821 18.4307C18.4338 18.1869 18.4422 17.8777 18.803 17.6611C19.4493 17.2738 20.1026 16.8984 20.7532 16.5181C20.9001 16.4317 21.077 16.3711 21.2184 16.4589C21.9017 16.8817 22.7013 17.1408 23.177 17.8589C23.3239 18.0803 23.4235 18.299 23.4082 18.5693C23.3915 18.7779 23.3915 18.9875 23.4082 19.1961C23.4904 19.9706 23.0885 20.4825 22.4833 20.8552C21.6231 21.3831 20.742 21.8748 19.8707 22.3875C17.807 23.5931 15.7356 24.7813 13.6914 26.019C12.9476 26.4696 12.171 26.5657 11.3554 26.4633C10.6965 26.3812 9.94776 25.5495 10.0202 24.8927C10.0515 24.603 10.0251 24.3133 10.0251 24.0228Z" fill="url(#paint1_linear_42260_13931)"/>
<defs>
<linearGradient id="paint0_linear_42260_13931" x1="10.0003" y1="11.196" x2="23.4426" y2="12.7283" gradientUnits="userSpaceOnUse">
<stop stop-color="#8309E9"/>
<stop offset="1" stop-color="#390FDD"/>
</linearGradient>
<linearGradient id="paint1_linear_42260_13931" x1="10.5572" y1="24.4289" x2="23.4423" y2="18.3694" gradientUnits="userSpaceOnUse">
<stop stop-color="#7A11E7"/>
<stop offset="1" stop-color="#10D9B7"/>
</linearGradient>
</defs>
</svg>
