<svg width="32" height="32" viewBox="0 0 32 32" fill="none" xmlns="http://www.w3.org/2000/svg">
<rect width="32" height="32" rx="16" fill="black"/>
<path d="M16.0003 21.6417C13.6342 20.3759 10.6532 18.7838 7.79102 17.2598C9.84659 20.296 12.3057 23.9154 14.6827 27.4138C15.1258 28.066 15.566 28.714 16.0003 29.3532V21.6417Z" fill="#34B02E"/>
<path d="M15.9997 21.6417C18.3658 20.3759 21.3468 18.7838 24.209 17.2598C22.1534 20.296 19.6943 23.9154 17.3173 27.4138C16.8742 28.066 16.434 28.714 15.9997 29.3532V21.6417Z" fill="#13740F"/>
<path d="M16.0003 2.64648L7.79102 14.6979L16.0003 10.3648V2.64648Z" fill="#34B02E"/>
<path d="M15.9997 2.64648L24.209 14.6979L15.9997 10.3648V2.64648Z" fill="#13740F"/>
<path d="M16.0008 15.9844H8.14387L8.11719 15.9986L16.0008 20.188L16.0008 15.9844Z" fill="#155812"/>
<path d="M16.0008 15.9844H8.14387L8.11719 15.9701L16.0008 11.7807L16.0008 15.9844Z" fill="#34B02E"/>
<path d="M16.0012 15.9844H23.8581L23.8848 15.9986L16.0012 20.188L16.0012 15.9844Z" fill="#0A3D04"/>
<path d="M16.0012 15.9844H23.8581L23.8848 15.9701L16.0012 11.7807L16.0012 15.9844Z" fill="#13740F"/>
</svg>
