<svg width="20" height="20" viewBox="0 0 20 20" fill="none" xmlns="http://www.w3.org/2000/svg">
<path d="M1.76441 10.9316C1.78497 10.9008 1.80382 10.8691 1.8261 10.8395C1.85073 10.8048 1.88231 10.7755 1.91885 10.7536C1.95539 10.7317 1.99608 10.7177 2.03834 10.7124C2.0806 10.707 2.12351 10.7106 2.16433 10.7227C2.20515 10.7349 2.243 10.7554 2.27547 10.783C2.30826 10.8104 2.33512 10.8442 2.35442 10.8824C2.37372 10.9206 2.38506 10.9622 2.38774 11.0049C2.39043 11.0476 2.3844 11.0904 2.37004 11.1306C2.35567 11.1709 2.33326 11.2078 2.30417 11.2392C2.27392 11.2713 2.23719 11.2967 2.19642 11.3136C2.15564 11.3305 2.11174 11.3386 2.06762 11.3373C2.0235 11.336 1.98015 11.3254 1.94044 11.3061C1.90073 11.2868 1.86555 11.2593 1.83723 11.2255C1.81025 11.1938 1.78754 11.1578 1.7627 11.124L1.76441 10.9316Z" fill="white"/>
<path d="M11.5262 8.39258H6.78403C6.46917 8.39258 6.39849 8.32147 6.40577 8.00403C6.44861 5.57424 8.24782 3.47044 10.6421 3.07976C12.4468 2.78546 14.004 3.3068 15.2686 4.62408C16.1151 5.50527 16.5688 6.57751 16.6429 7.80312C16.6493 7.90422 16.6643 8.00575 16.6609 8.10642C16.6544 8.28462 16.5576 8.37844 16.3798 8.39172C16.337 8.39472 16.2942 8.39172 16.2513 8.39172L11.5262 8.39258Z" fill="white"/>
<path d="M11.5281 9.91933H5.75735C5.7038 9.91933 5.65025 9.91933 5.59713 9.91933C5.41678 9.90776 5.29426 9.78268 5.29298 9.61218C5.29169 9.44168 5.41592 9.31231 5.59285 9.29946C5.64597 9.29475 5.69952 9.29732 5.75306 9.29732H17.3074C17.3715 9.29466 17.4356 9.29652 17.4994 9.30288C17.5733 9.31471 17.6405 9.35288 17.6885 9.41037C17.7365 9.46785 17.762 9.54076 17.7605 9.61563C17.7589 9.6905 17.7303 9.76228 17.6799 9.81771C17.6296 9.87313 17.5609 9.90847 17.4865 9.91719C17.4332 9.92112 17.3797 9.92226 17.3263 9.92061L11.5281 9.91933Z" fill="white"/>
<path d="M10.8328 12.1224H15.9408C15.9941 12.1201 16.0475 12.1216 16.1006 12.1266C16.1727 12.137 16.239 12.1718 16.2884 12.2252C16.3379 12.2787 16.3674 12.3474 16.3722 12.4201C16.3739 12.4927 16.3512 12.5637 16.3077 12.6218C16.2642 12.6799 16.2024 12.7217 16.1323 12.7405C16.0695 12.7524 16.0055 12.757 15.9417 12.7542C12.5355 12.7542 9.12937 12.7542 5.72344 12.7542C5.67544 12.7562 5.62737 12.7552 5.5795 12.7512C5.4991 12.7414 5.42521 12.7021 5.37212 12.6409C5.31903 12.5797 5.2905 12.5011 5.29205 12.4201C5.29722 12.3421 5.33091 12.2687 5.38668 12.214C5.44246 12.1592 5.51643 12.1269 5.59449 12.1232C5.64204 12.1194 5.69045 12.1232 5.73843 12.1232L10.8328 12.1224Z" fill="white"/>
<path d="M7.53479 10.7084C8.95588 10.7084 10.3768 10.7084 11.7976 10.7084C12.0787 10.7084 12.2406 10.9089 12.1476 11.1368C12.1278 11.1898 12.0937 11.2362 12.0491 11.271C12.0045 11.3058 11.9511 11.3275 11.8949 11.3339C11.8418 11.3394 11.7884 11.3412 11.7351 11.339C8.93061 11.339 6.12598 11.339 3.3212 11.339C3.25208 11.3415 3.18291 11.3358 3.11515 11.3219C3.04517 11.3032 2.98388 11.2607 2.94181 11.2017C2.89973 11.1428 2.87949 11.071 2.88455 10.9987C2.88962 10.9265 2.91968 10.8582 2.96958 10.8057C3.01947 10.7532 3.08609 10.7197 3.15799 10.711C3.21128 10.7066 3.26478 10.7055 3.31821 10.7076L7.53479 10.7084Z" fill="white"/>
<path d="M13.5454 13.5368H17.7435C17.7808 13.5368 17.8185 13.5347 17.8558 13.5368C18.0361 13.551 18.1646 13.6752 18.1706 13.8397C18.1766 14.0042 18.0383 14.1477 17.8583 14.1649C17.8108 14.1696 17.7624 14.167 17.7144 14.167H9.25553C9.02506 14.1636 8.87512 14.0342 8.87898 13.8427C8.88283 13.6512 9.02334 13.5364 9.25253 13.5364C10.6842 13.5361 12.1151 13.5363 13.5454 13.5368Z" fill="white"/>
<path d="M13.5925 15.579C12.7216 15.579 11.8507 15.579 10.9793 15.579C10.8405 15.579 10.7249 15.5401 10.649 15.4218C10.6233 15.381 10.6078 15.3346 10.6036 15.2865C10.5995 15.2384 10.6069 15.19 10.6253 15.1454C10.6437 15.1007 10.6724 15.0611 10.7092 15.0298C10.746 14.9986 10.7897 14.9765 10.8367 14.9656C10.9049 14.9531 10.9743 14.948 11.0436 14.9506H16.1414C16.1731 14.9506 16.2052 14.9506 16.2373 14.9506C16.4378 14.963 16.5715 15.0932 16.5663 15.2697C16.5612 15.4462 16.4155 15.576 16.221 15.5765C15.4889 15.579 14.7572 15.5765 14.0251 15.5765L13.5925 15.579Z" fill="white"/>
<path d="M10.3257 16.3689H12.9196C13.1625 16.3689 13.3013 16.4825 13.3009 16.6787C13.3009 16.8663 13.1445 16.9991 12.9174 16.9991C11.1885 16.9991 9.45939 16.9991 7.73015 16.9991C7.67188 17.0029 7.61348 16.9943 7.55879 16.9738C7.40115 16.9053 7.31933 16.7712 7.34717 16.62C7.37502 16.4687 7.49239 16.3698 7.66932 16.3694C8.33631 16.3672 9.00373 16.3694 9.67073 16.3694L10.3257 16.3689Z" fill="white"/>
<path d="M5.88297 13.537C6.53497 13.537 7.18669 13.537 7.83812 13.537C7.89679 13.5361 7.95542 13.5404 8.01333 13.5498C8.15898 13.576 8.23437 13.6741 8.25279 13.8137C8.2628 13.875 8.25263 13.9379 8.22381 13.9929C8.195 14.0479 8.14909 14.0921 8.09301 14.1187C8.02136 14.155 7.94147 14.172 7.86125 14.168H3.90298C3.82261 14.1737 3.74217 14.1579 3.66994 14.1222C3.54657 14.0528 3.48017 13.9469 3.50373 13.8043C3.51035 13.7397 3.5385 13.6793 3.58365 13.6327C3.62879 13.586 3.68831 13.556 3.75262 13.5473C3.80534 13.5393 3.85867 13.536 3.91198 13.5374L5.88297 13.537Z" fill="white"/>
<path d="M4.48326 12.754C4.42077 12.7531 4.35994 12.7337 4.30848 12.6983C4.25702 12.6628 4.21723 12.6129 4.19417 12.5548C4.1711 12.4967 4.16579 12.4331 4.17891 12.372C4.19203 12.3109 4.22299 12.2551 4.26786 12.2116C4.31274 12.1681 4.36952 12.1389 4.431 12.1277C4.49248 12.1165 4.5559 12.1238 4.61324 12.1486C4.67057 12.1735 4.71923 12.2148 4.75306 12.2674C4.78689 12.3199 4.80436 12.3813 4.80326 12.4438C4.79986 12.5267 4.76476 12.6051 4.7052 12.6628C4.64565 12.7205 4.56619 12.7532 4.48326 12.754Z" fill="white"/>
<path d="M4.80303 9.61464C4.79883 9.69709 4.76247 9.7746 4.70175 9.83053C4.64103 9.88646 4.5608 9.91635 4.47829 9.91377C4.39577 9.91119 4.31756 9.87635 4.26046 9.81673C4.20335 9.75712 4.17191 9.67748 4.17287 9.59494C4.17707 9.51249 4.21343 9.43497 4.27415 9.37904C4.33486 9.32311 4.4151 9.29323 4.49761 9.29581C4.58012 9.29839 4.65833 9.33323 4.71544 9.39284C4.77255 9.45246 4.80399 9.53209 4.80303 9.61464Z" fill="white"/>
<path d="M10.1111 15.2668C10.1106 15.3078 10.102 15.3482 10.0859 15.3859C10.0698 15.4235 10.0464 15.4577 10.0171 15.4863C9.98784 15.5149 9.95319 15.5375 9.91517 15.5527C9.87715 15.5679 9.8365 15.5755 9.79555 15.575C9.75459 15.5746 9.71413 15.566 9.67648 15.5499C9.63883 15.5338 9.60472 15.5104 9.57609 15.4811C9.54747 15.4518 9.5249 15.4172 9.50967 15.3792C9.49444 15.3411 9.48685 15.3005 9.48733 15.2595C9.48972 15.1787 9.52307 15.1019 9.58047 15.045C9.63787 14.9881 9.71494 14.9554 9.79576 14.9537C9.83721 14.9529 9.87839 14.9604 9.91687 14.9758C9.95535 14.9912 9.99033 15.0142 10.0197 15.0435C10.0492 15.0727 10.0724 15.1075 10.0881 15.1459C10.1038 15.1842 10.1116 15.2254 10.1111 15.2668Z" fill="white"/>
<path d="M6.85067 16.6788C6.85067 16.72 6.84255 16.7608 6.82677 16.7989C6.81099 16.837 6.78786 16.8716 6.7587 16.9008C6.72954 16.9299 6.69492 16.9531 6.65683 16.9689C6.61873 16.9846 6.5779 16.9928 6.53666 16.9928C6.49543 16.9928 6.45459 16.9846 6.4165 16.9689C6.3784 16.9531 6.34378 16.9299 6.31463 16.9008C6.28547 16.8716 6.26234 16.837 6.24656 16.7989C6.23078 16.7608 6.22266 16.72 6.22266 16.6788C6.22266 16.5955 6.25574 16.5156 6.31463 16.4567C6.37351 16.3978 6.45338 16.3647 6.53666 16.3647C6.61994 16.3647 6.69981 16.3978 6.7587 16.4567C6.81758 16.5156 6.85067 16.5955 6.85067 16.6788Z" fill="white"/>
<path d="M3.00925 13.8522C3.00737 13.9357 2.97312 14.0152 2.91374 14.074C2.85436 14.1327 2.77448 14.1661 2.69096 14.1671C2.60768 14.1671 2.52781 14.134 2.46892 14.0751C2.41004 14.0162 2.37695 13.9363 2.37695 13.8531C2.37695 13.7698 2.41004 13.6899 2.46892 13.631C2.52781 13.5721 2.60768 13.5391 2.69096 13.5391C2.77442 13.5393 2.85449 13.5722 2.91398 13.6307C2.97348 13.6892 3.00768 13.7688 3.00925 13.8522Z" fill="white"/>
</svg>
