<svg width="32" height="32" viewBox="0 0 32 32" fill="none" xmlns="http://www.w3.org/2000/svg">
<rect width="32" height="32" rx="16" fill="url(#paint0_linear_1401_15)"/>
<path d="M15.9582 9.5301C13.0651 12.338 10.2128 15.1048 7.20001 18.0389C7.20001 16.5954 7.20001 15.3836 7.20001 14.1718C7.22772 13.9826 7.32072 13.8091 7.46276 13.6818C10.2917 10.9414 13.1089 8.23324 15.9816 5.44C16.9392 6.34663 17.8997 7.23272 18.8368 8.13935C20.6527 9.8998 22.4481 11.6896 24.2757 13.4412C24.4556 13.5995 24.5963 13.7979 24.6866 14.0205C24.7768 14.2431 24.814 14.4838 24.7953 14.7234C24.7603 15.765 24.7953 16.8095 24.7953 18.08L15.9582 9.5301Z" fill="white"/>
<path d="M9.28003 20.0683L16.0046 13.6L17.9088 15.6144L13.6863 20.0509C14.427 20.831 15.2056 21.6549 16.1679 22.6708C17.588 21.029 18.9615 19.4337 20.3379 17.8385L20.7637 18.0102L22.56 20.2721L16.0483 26.56L9.28003 20.0683Z" fill="white"/>
<defs>
<linearGradient id="paint0_linear_1401_15" x1="2.08" y1="0.799999" x2="30.64" y2="32" gradientUnits="userSpaceOnUse">
<stop stop-color="#2C4EBA"/>
<stop offset="1" stop-color="#13D67A"/>
</linearGradient>
</defs>
</svg>
