<svg width="28" height="28" viewBox="0 0 28 28" fill="none" xmlns="http://www.w3.org/2000/svg">
<rect width="28" height="28" rx="14" fill="black"/>
<path d="M18.7413 13.1724C18.3392 12.7737 18.3392 12.1274 18.7413 11.7287C19.1435 11.33 19.7955 11.33 20.1976 11.7287C20.5997 12.1274 20.5997 12.7737 20.1976 13.1724C19.7955 13.5711 19.1435 13.5711 18.7413 13.1724ZM15.2827 16.6013C14.9811 16.3023 14.9811 15.8175 15.2827 15.5185C15.5843 15.2195 16.0733 15.2195 16.3749 15.5185C16.6765 15.8175 16.6765 16.3023 16.3749 16.6013C16.0733 16.9003 15.5843 16.9003 15.2827 16.6013ZM20.7437 14.7966C20.4421 14.4976 20.4421 14.0128 20.7437 13.7138C21.0453 13.4148 21.5343 13.4148 21.8359 13.7138C22.1375 14.0128 22.1375 14.4976 21.8359 14.7966C21.5343 15.0956 21.0453 15.0956 20.7437 14.7966ZM18.9234 16.6013C18.6218 16.3023 18.6218 15.8175 18.9234 15.5185C19.225 15.2195 19.714 15.2195 20.0156 15.5185C20.3172 15.8175 20.3172 16.3023 20.0156 16.6013C19.714 16.9003 19.225 16.9003 18.9234 16.6013ZM22.7461 16.4208C22.545 16.2215 22.545 15.8983 22.7461 15.699C22.9471 15.4996 23.2731 15.4996 23.4742 15.699C23.6753 15.8983 23.6753 16.2215 23.4742 16.4208C23.2731 16.6202 22.9471 16.6202 22.7461 16.4208ZM20.9257 18.2255C20.7247 18.0262 20.7247 17.703 20.9257 17.5036C21.1268 17.3043 21.4528 17.3043 21.6539 17.5036C21.8549 17.703 21.8549 18.0262 21.6539 18.2255C21.4528 18.4248 21.1268 18.4248 20.9257 18.2255ZM16.921 14.9771C16.5189 14.5784 16.5189 13.932 16.921 13.5333C17.3231 13.1347 17.9751 13.1347 18.3773 13.5333C18.7794 13.932 18.7794 14.5784 18.3773 14.9771C17.9751 15.3758 17.3231 15.3758 16.921 14.9771ZM16.921 11.3677C16.5189 10.9691 16.5189 10.3227 16.921 9.92401C17.3231 9.52533 17.9751 9.52533 18.3773 9.92401C18.7794 10.3227 18.7794 10.9691 18.3773 11.3677C17.9751 11.7664 17.3231 11.7664 16.921 11.3677ZM15.1007 13.1724C14.6985 12.7737 14.6985 12.1274 15.1007 11.7287C15.5028 11.33 16.1548 11.33 16.5569 11.7287C16.9591 12.1274 16.9591 12.7737 16.5569 13.1724C16.1548 13.5711 15.5028 13.5711 15.1007 13.1724ZM11.4431 13.1724C11.0409 12.7737 11.0409 12.1274 11.4431 11.7287C11.8452 11.33 12.4972 11.33 12.8993 11.7287C13.3015 12.1274 13.3015 12.7737 12.8993 13.1724C12.4972 13.5711 11.8452 13.5711 11.4431 13.1724ZM7.98444 16.6013C7.68283 16.3023 7.68283 15.8175 7.98444 15.5185C8.28604 15.2195 8.77503 15.2195 9.07664 15.5185C9.37824 15.8175 9.37824 16.3023 9.07664 16.6013C8.77503 16.9003 8.28604 16.9003 7.98444 16.6013ZM13.4454 14.7966C13.1438 14.4976 13.1438 14.0128 13.4454 13.7138C13.747 13.4148 14.236 13.4148 14.5376 13.7138C14.8392 14.0128 14.8392 14.4976 14.5376 14.7966C14.236 15.0956 13.747 15.0956 13.4454 14.7966ZM11.6251 16.6013C11.3235 16.3023 11.3235 15.8175 11.6251 15.5185C11.9267 15.2195 12.4157 15.2195 12.7173 15.5185C13.0189 15.8175 13.0189 16.3023 12.7173 16.6013C12.4157 16.9003 11.9267 16.9003 11.6251 16.6013ZM4.5258 16.4208C4.32473 16.2215 4.32473 15.8983 4.5258 15.699C4.72687 15.4996 5.05287 15.4996 5.25393 15.699C5.455 15.8983 5.455 16.2215 5.25393 16.4208C5.05287 16.6202 4.72687 16.6202 4.5258 16.4208ZM6.34614 18.2255C6.14507 18.0262 6.14507 17.703 6.34614 17.5036C6.5472 17.3043 6.8732 17.3043 7.07427 17.5036C7.27534 17.703 7.27534 18.0262 7.07427 18.2255C6.8732 18.4248 6.5472 18.4248 6.34614 18.2255ZM13.6275 18.2255C13.4264 18.0262 13.4264 17.703 13.6275 17.5036C13.8285 17.3043 14.1545 17.3043 14.3556 17.5036C14.5567 17.703 14.5567 18.0262 14.3556 18.2255C14.1545 18.4248 13.8285 18.4248 13.6275 18.2255ZM6.1641 14.7966C5.8625 14.4976 5.8625 14.0128 6.1641 13.7138C6.4657 13.4148 6.9547 13.4148 7.2563 13.7138C7.55791 14.0128 7.55791 14.4976 7.2563 14.7966C6.9547 15.0956 6.4657 15.0956 6.1641 14.7966ZM9.62274 14.9771C9.2206 14.5784 9.2206 13.932 9.62274 13.5333C10.0249 13.1347 10.6769 13.1347 11.079 13.5333C11.4811 13.932 11.4811 14.5784 11.079 14.9771C10.6769 15.3758 10.0249 15.3758 9.62274 14.9771ZM9.62274 11.3677C9.2206 10.9691 9.2206 10.3227 9.62274 9.92401C10.0249 9.52533 10.6769 9.52533 11.079 9.92401C11.4811 10.3227 11.4811 10.9691 11.079 11.3677C10.6769 11.7664 10.0249 11.7664 9.62274 11.3677ZM7.8024 13.1724C7.40027 12.7737 7.40027 12.1274 7.8024 11.7287C8.20454 11.33 8.85653 11.33 9.25867 11.7287C9.66081 12.1274 9.66081 12.7737 9.25867 13.1724C8.85653 13.5711 8.20454 13.5711 7.8024 13.1724Z" fill="white"/>
</svg>
