<svg width="400" height="217" viewBox="0 0 400 217" fill="none" xmlns="http://www.w3.org/2000/svg">
<rect width="400" height="217" fill="#6C80FB"/>
<g opacity="0.1">
<path d="M360.055 91.5123C360.055 89.5878 361.158 87.8533 362.765 86.791C366.666 84.221 369.867 80.7223 372.081 76.609C374.296 72.4957 375.453 67.8968 375.451 63.2254C375.451 47.6373 362.813 35 347.225 35C331.637 35 319 47.6373 319 63.2254C318.997 67.8968 320.155 72.4957 322.369 76.609C324.584 80.7223 327.785 84.221 331.686 86.791C333.292 87.8533 334.396 89.5878 334.396 91.5123V94.0167C334.396 94.3536 334.462 94.6873 334.591 94.9986C334.72 95.3099 334.909 95.5928 335.147 95.8311C335.385 96.0693 335.668 96.2583 335.98 96.3873C336.291 96.5162 336.625 96.5826 336.962 96.5826H357.489C357.826 96.5826 358.16 96.5162 358.471 96.3873C358.782 96.2583 359.065 96.0693 359.304 95.8311C359.542 95.5928 359.731 95.3099 359.86 94.9986C359.989 94.6873 360.055 94.3536 360.055 94.0167V91.5123V91.5123Z" fill="white"/>
<path d="M336.965 91.4492C336.291 91.4491 335.623 91.5818 335 91.8397C334.378 92.0975 333.812 92.4755 333.335 92.9521C332.859 93.4286 332.481 93.9944 332.223 94.6171C331.965 95.2397 331.832 95.9071 331.832 96.5811C331.832 97.2551 331.965 97.9225 332.223 98.5451C332.481 99.1678 332.859 99.7336 333.335 100.21C333.812 100.687 334.378 101.065 335 101.323C335.623 101.58 336.291 101.713 336.965 101.713C338.381 101.713 339.479 102.929 340.159 104.174C340.601 104.982 341.252 105.657 342.044 106.127C342.837 106.597 343.741 106.845 344.662 106.845H349.794C350.716 106.845 351.621 106.597 352.414 106.127C353.206 105.657 353.858 104.983 354.3 104.174C354.977 102.929 356.076 101.713 357.492 101.713C358.166 101.713 358.833 101.58 359.456 101.323C360.079 101.065 360.645 100.687 361.121 100.21C361.598 99.7336 361.976 99.1678 362.234 98.5451C362.492 97.9225 362.625 97.2551 362.625 96.5811C362.625 95.9071 362.492 95.2397 362.234 94.6171C361.976 93.9944 361.598 93.4286 361.121 92.9521C360.645 92.4755 360.079 92.0975 359.456 91.8397C358.833 91.5818 358.166 91.4491 357.492 91.4492H336.965Z" fill="#E8ECFF"/>
<path d="M333.887 58.3501C334.5 57.5335 335.412 56.9936 336.422 56.8492C337.433 56.7049 338.459 56.9679 339.276 57.5803L347.23 63.5462L355.185 57.5803C355.589 57.2771 356.049 57.0564 356.539 56.931C357.029 56.8055 357.538 56.7778 358.038 56.8492C358.539 56.9207 359.02 57.0901 359.455 57.3476C359.89 57.6051 360.27 57.9458 360.573 58.3501C360.877 58.7545 361.097 59.2146 361.223 59.7042C361.348 60.1939 361.376 60.7034 361.304 61.2038C361.233 61.7042 361.064 62.1855 360.806 62.6205C360.549 63.0554 360.208 63.4353 359.803 63.7386L351.079 70.2818V81.187C351.079 81.6925 350.98 82.193 350.786 82.6599C350.593 83.1269 350.309 83.5512 349.952 83.9086C349.595 84.266 349.17 84.5495 348.703 84.7429C348.236 84.9364 347.736 85.0359 347.23 85.0359C346.725 85.0359 346.224 84.9364 345.757 84.7429C345.29 84.5495 344.866 84.266 344.509 83.9086C344.151 83.5512 343.868 83.1269 343.674 82.6599C343.481 82.193 343.381 81.6925 343.381 81.187V70.2818L334.657 63.7386C333.841 63.1261 333.301 62.2143 333.156 61.2038C333.012 60.1933 333.275 59.1668 333.887 58.3501V58.3501Z" fill="#8697FF"/>
</g>
</svg>
