<svg width="32" height="32" viewBox="0 0 32 32" fill="none" xmlns="http://www.w3.org/2000/svg">
<path d="M16 32C24.8366 32 32 24.8366 32 16C32 7.16344 24.8366 0 16 0C7.16344 0 0 7.16344 0 16C0 24.8366 7.16344 32 16 32Z" fill="white"/>
<path d="M12.488 7.9447L15.7852 6.04063C15.8791 5.98646 15.9955 5.98646 16.0895 6.04063L24.7792 11.0577C24.8731 11.1118 24.9309 11.2121 24.9318 11.3204L24.9435 14.771C24.9435 14.8803 24.8858 14.9814 24.7909 15.0355L21.4983 16.9369C21.2961 17.0543 21.0423 16.908 21.0415 16.6742L21.0307 13.5775C21.0307 13.4691 20.9719 13.3689 20.878 13.3147L12.488 8.47196C12.2849 8.35458 12.2849 8.06207 12.488 7.9447Z" fill="#010101"/>
<path d="M10.3588 23.5744L7.06255 21.6712C6.96775 21.617 6.90997 21.5168 6.90997 21.4076V11.3735C6.90997 11.2652 6.96775 11.165 7.06165 11.1099L10.0446 9.37373C10.1394 9.31866 10.2559 9.31866 10.3498 9.37373L13.6424 11.2751C13.8446 11.3925 13.8455 11.6841 13.6433 11.8023L10.9673 13.3597C10.8734 13.4139 10.8156 13.5141 10.8156 13.6234V23.3116C10.8156 23.5464 10.5619 23.6918 10.3588 23.5744Z" fill="#010101"/>
<path d="M24.9436 17.6004V21.4068C24.9436 21.516 24.8858 21.6162 24.791 21.6704L16.1013 26.6875C16.0074 26.7416 15.8918 26.7416 15.7979 26.6875L12.8032 24.9721C12.7084 24.9179 12.6497 24.8168 12.6497 24.7075V20.9057C12.6497 20.6718 12.9025 20.5256 13.1057 20.6411L15.7924 22.1805C15.8863 22.2346 16.002 22.2338 16.0959 22.1805L24.4858 17.3359C24.689 17.2186 24.9427 17.3648 24.9427 17.5995L24.9436 17.6004Z" fill="#010101"/>
</svg>
