<svg width="32" height="32" viewBox="0 0 32 32" fill="none" xmlns="http://www.w3.org/2000/svg">
<rect width="32" height="32" rx="16" fill="white"/>
<path d="M10.2059 6.92512C9.70173 7.4581 9.51447 7.19881 7.69946 13.9691C5.7116 21.402 5.69719 21.546 6.35982 22.2951C6.77755 22.7704 15.0315 27.524 15.6365 27.6392C15.8958 27.6825 16.2991 27.668 16.5296 27.5816C17.2066 27.3367 25.5182 22.5111 25.8063 22.1942C25.936 22.0358 26.0512 21.6756 26.0512 21.3875C26.0512 20.8114 22.5364 7.53012 22.2195 6.92512C22.1187 6.72345 21.845 6.40655 21.6433 6.24809C21.2688 5.96 21.1103 5.94559 15.9246 5.94559L10.7185 6.6243L10.2059 6.92512ZM20.2461 7.61655C20.3181 7.80381 16.6593 21.8917 16.2415 23.0441C15.9246 23.9084 15.7229 23.3178 13.6919 15.6976C12.5539 11.4914 11.632 7.93346 11.6464 7.80381C11.6464 7.67417 11.6896 7.53012 11.7472 7.48691C11.7904 7.42929 13.7063 7.38607 15.9966 7.38607C19.6843 7.38607 20.1596 7.41488 20.2461 7.61655ZM12.6115 17.5415C13.6486 21.4308 14.5129 24.7007 14.5129 24.8303C14.5273 24.9599 14.4409 25.104 14.3401 25.1472C14.2537 25.176 12.6835 24.3549 10.8829 23.3178C8.54935 21.9781 7.58422 21.3443 7.5266 21.1283C7.48339 20.9554 8.07399 18.5066 8.82304 15.6832C9.58649 12.8455 10.2059 10.4975 10.2059 10.4687C10.2059 10.4255 10.3211 10.4111 10.4652 10.4399C10.6669 10.4831 11.0846 11.8516 12.6115 17.5415ZM22.9974 15.3663C23.732 18.0744 24.3226 20.48 24.3226 20.6817C24.3226 20.8834 24.1786 21.2147 24.0057 21.4308C23.588 21.8917 17.826 25.2336 17.5956 25.1472C17.4947 25.104 17.4083 25.0032 17.4083 24.9023C17.3939 24.8159 18.2582 21.5172 19.3097 17.5703C20.8078 11.938 21.2688 10.4111 21.4417 10.4111C21.6289 10.4111 21.9602 11.4914 22.9974 15.3663Z" fill="black"/>
<mask id="mask0_1919_32" style="mask-type:alpha" maskUnits="userSpaceOnUse" x="3" y="1" width="18" height="16">
<path d="M6.47936 9.34763L8.51535 3.91833L15.302 1.88234L20.7313 6.63298L3.76471 16.8129L6.47936 9.34763Z" fill="#D9D9D9"/>
</mask>
<g mask="url(#mask0_1919_32)">
<path d="M21.7756 6.48728C22.2798 7.02025 22.3374 7.20752 24.1524 13.9778C26.1403 21.4107 26.1547 21.5547 25.4921 22.3038C25.0743 22.7791 16.8204 27.5327 16.2154 27.6479C15.9561 27.6912 15.5528 27.6768 15.3223 27.5903C14.6453 27.3454 6.33368 22.5198 6.04559 22.2029C5.91595 22.0445 5.80071 21.6844 5.80071 21.3963C5.80071 20.8201 9.31548 7.53883 9.63239 6.93382C9.73322 6.73216 10.0069 6.41525 10.2086 6.2568C10.5831 5.9687 10.7416 5.9543 15.9273 5.9543H21.2427L21.7756 6.48728ZM11.6058 7.62526C11.5338 7.81252 15.1926 21.9004 15.6104 23.0528C15.9273 23.9171 16.129 23.3265 18.16 15.7064C19.298 11.5001 20.2199 7.94216 20.2055 7.81252C20.2055 7.68287 20.1623 7.53883 20.1047 7.49561C20.0615 7.43799 18.1456 7.39478 15.8553 7.39478C12.1676 7.39478 11.6923 7.42359 11.6058 7.62526ZM19.2404 17.5502C18.2032 21.4395 17.339 24.7094 17.339 24.839C17.3246 24.9686 17.411 25.1127 17.5118 25.1559C17.5982 25.1847 19.1684 24.3636 20.969 23.3265C23.3026 21.9869 24.2677 21.353 24.3253 21.137C24.3685 20.9641 23.7779 18.5153 23.0289 15.6919C22.2654 12.8542 21.646 10.5062 21.646 10.4774C21.646 10.4342 21.5308 10.4198 21.3867 10.4486C21.185 10.4918 20.7673 11.8603 19.2404 17.5502ZM8.85453 15.375C8.11988 18.0831 7.52928 20.4888 7.52928 20.6904C7.52928 20.8921 7.67333 21.2234 7.84619 21.4395C8.26393 21.9004 14.0259 25.2423 14.2563 25.1559C14.3572 25.1127 14.4436 25.0119 14.4436 24.911C14.458 24.8246 13.5937 21.5259 12.5422 17.579C11.0441 11.9467 10.5831 10.4198 10.4102 10.4198C10.223 10.4198 9.89167 11.5001 8.85453 15.375Z" fill="black"/>
</g>
</svg>
