<svg width="200" height="200" viewBox="0 0 200 200" fill="none" xmlns="http://www.w3.org/2000/svg">
<rect width="200" height="200" rx="100" fill="#F7CF3B"/>
<path fill-rule="evenodd" clip-rule="evenodd" d="M76.9052 38.9591C77.7565 38.3313 78.7863 37.9952 79.8416 38.0001C80.3382 38.0029 80.8317 38.0813 81.3048 38.2326C81.3048 38.2326 91.9712 41.2503 94.4754 51.7176C95.7948 57.2226 98.7602 59.474 102.668 61.0176C104.824 61.869 107.167 62.2827 109.398 62.5191V57.8401C109.398 52.3593 113.809 47.9201 119.256 47.9201C124.703 47.9201 129.114 52.3593 129.114 57.8401V67.7601C129.114 69.0755 128.595 70.337 127.67 71.2672C126.746 72.1973 125.492 72.7199 124.185 72.7201C115.983 74.1932 114.327 83.0666 114.327 87.6C114.327 100.327 123.88 117.322 138.405 117.322C139.101 117.24 139.807 117.309 140.475 117.524C144.588 118.849 143.038 123.03 145.163 125.759C150.715 132.889 158.689 136.217 158.689 147.12C158.689 153.06 154.888 157.886 150.564 159.84C146.24 161.793 141.618 162 137.374 162C120.331 162 109.124 150.299 104.151 146.267C86.3919 131.86 72.228 112.566 55.2536 97.2875C42.0017 85.3598 40.4176 68.2735 40.4176 68.2735C40.3011 67.1505 40.5683 66.021 41.1753 65.0716C41.7829 64.1222 42.6943 63.4097 43.7582 63.0519L56.351 58.8282C57.2209 56.5371 58.7535 53.3108 62.3198 50.2354C66.6554 46.4968 76.9052 38.9591 76.9052 38.9591ZM84.8865 54.0426C84.225 51.2777 82.0779 49.7507 80.3618 48.7919C77.795 50.7088 71.5416 55.3494 68.7318 57.7722C67.4955 58.8383 66.5277 60.4773 65.8432 61.8701L73.507 71.606C77.6771 76.6301 69.4684 82.7236 65.7763 77.7576L58.5365 68.5544L51.1907 71.0247C52.0612 75.1787 54.1959 83.0159 61.8287 89.8863C78.6642 105.039 92.7301 124.259 110.341 138.547C115.836 143.002 122.956 150.168 133.273 151.741C118.949 141.273 97.1854 117.584 89.681 102.48C90.9377 103.978 95.2703 106.581 96.8823 105.425C98.6319 104.165 98.958 101.819 97.8736 100.058C96.7105 98.2062 94.6304 96.0931 92.4635 93.8927C88.7348 90.1056 84.7514 86.0595 84.7514 82.6401C84.7514 79.2474 86.9201 77.6801 89.681 77.6801C92.4412 77.6801 94.8022 82.6013 99.539 82.6013C101.624 82.6013 104.469 81.3009 104.469 77.6801C104.469 74.7879 102.901 71.3659 99.9054 70.5184C92.435 68.4054 86.6516 61.4075 84.8865 54.0426ZM137.404 131.882C136.446 130.652 135.598 129.163 134.987 127.493C131.945 127.824 129.114 128.83 129.114 132.269C129.114 142.322 140.301 147.759 147.599 150.278C148.568 149.744 148.831 149.184 148.831 147.12C148.831 140.014 141.281 136.86 137.404 131.882Z" fill="black"/>
<path d="M135.892 77.9737C140.444 79.8266 139.171 85.8408 136.73 88.9176C134.694 91.4829 130.468 93.5219 127.207 92.2029C123.972 90.895 123.097 86.5348 125.584 84.0678C126.514 83.1448 127.808 82.6215 129.114 82.6401C129.068 79.2066 132.656 76.6563 135.892 77.9737Z" fill="black"/>
<path d="M135.436 93.9965C137.334 92.0304 140.545 92.0224 142.455 93.9413C145.138 96.6362 143.721 101.198 141.659 103.798C140.083 105.783 137.231 107.44 134.043 107.44C132.046 107.469 130.192 106.237 129.426 104.395C128.086 101.173 130.534 97.4703 134.043 97.5203C134.026 96.2064 134.526 94.9391 135.436 93.9965Z" fill="black"/>
</svg>
