<svg width="28" height="28" viewBox="0 0 28 28" fill="none" xmlns="http://www.w3.org/2000/svg">
<path d="M14 0C6.26801 0 0 6.26801 0 14C0 21.732 6.26801 28 14 28C21.732 28 28 21.732 28 14C28 6.26801 21.732 0 14 0Z" fill="url(#paint0_linear_1314_160)"/>
<path d="M15.4035 6.33342L15.4036 6.3333C15.6036 6.12141 15.8798 5.83684 16.1823 5.55054L16.1823 5.55053C16.4819 5.26693 16.8201 4.969 17.1425 4.73792L17.1426 4.73781C17.3037 4.62249 17.4742 4.51403 17.644 4.43215L15.4035 6.33342ZM15.4035 6.33342C15.3772 6.36126 15.3522 6.38791 15.3286 6.41322C14.7285 6.29921 14.0472 6.24125 13.4652 6.24125C13.0013 6.24125 12.5456 6.27797 12.1008 6.34876C11.4874 6.16246 11.0331 5.98149 10.4658 5.38537L10.4658 5.38536M15.4035 6.33342L10.4658 5.38536M10.4658 5.38536C10.4157 5.33271 10.362 5.2753 10.304 5.2134L10.304 5.21338M10.4658 5.38536L10.304 5.21338M5.47718 11.6201C5.25589 9.87206 5.33556 8.28708 5.57913 7.00972L5.47718 11.6201ZM5.47718 11.6201C5.07111 12.6207 4.84772 13.7144 4.84772 14.8587C4.84772 16.609 5.37025 18.2394 6.26798 19.5995C7.647 22.5185 10.6185 24.5399 14.0635 24.5399C18.0754 24.5399 21.4451 21.799 22.4061 18.0888C22.923 17.1392 23.2136 16.0804 23.2136 14.963C23.2136 12.6808 22.0067 10.6663 20.1571 9.2971C19.7069 8.40302 19.6856 7.77719 19.6614 7.0407L19.6614 7.04062C19.6567 6.8978 19.6517 6.74909 19.6434 6.59513L19.6434 6.59511C19.6355 6.4468 19.6315 6.317 19.6277 6.18714L19.6277 6.18661C19.6247 6.09131 19.6217 5.99575 19.6172 5.89567C19.6172 5.89579 19.6172 5.89591 19.6172 5.89603L19.2675 5.91138L5.47718 11.6201ZM10.304 5.21338L10.2926 5.20126C9.96543 4.85179 9.50963 4.36496 9.0318 4.03455L9.03177 4.03453M10.304 5.21338L9.03177 4.03453M9.03177 4.03453C8.74711 3.83774 8.38983 3.64888 7.99163 3.61223L7.99163 3.61223M9.03177 4.03453L7.99163 3.61223M7.99163 3.61223C7.55176 3.57175 7.1306 3.72393 6.79302 4.08228L6.79301 4.0823M7.99163 3.61223L6.79301 4.0823M6.79301 4.0823C6.25529 4.65319 5.82479 5.7213 5.57914 7.00971L6.79301 4.0823Z" fill="white" stroke="black" stroke-width="0.7"/>
<mask id="mask0_1314_160" style="mask-type:alpha" maskUnits="userSpaceOnUse" x="5" y="3" width="18" height="22">
<path d="M15.6581 6.57353C15.5752 6.6615 15.5052 6.7372 15.452 6.79551C14.8353 6.66092 14.0908 6.59125 13.4652 6.59125C12.9925 6.59125 12.5289 6.63096 12.0775 6.70726C11.3983 6.50423 10.8633 6.31083 10.2123 5.62664C10.161 5.57277 10.1063 5.5143 10.0485 5.4526C9.71465 5.09605 9.27958 4.63141 8.83274 4.32243C8.5691 4.14017 8.27083 3.98941 7.95956 3.96076C7.62944 3.93038 7.3133 4.04042 7.04779 4.32227C6.57909 4.81989 6.16458 5.80792 5.92294 7.07527C5.68221 8.3377 5.60488 9.91874 5.83623 11.6674C5.42486 12.6497 5.19772 13.7281 5.19772 14.8587C5.19772 16.5473 5.7043 18.1186 6.57384 19.4275C7.89253 22.2408 10.7501 24.1899 14.0635 24.1899C17.927 24.1899 21.1706 21.54 22.078 17.9592C22.5817 17.048 22.8636 16.0332 22.8636 14.963C22.8636 12.7855 21.6986 10.8476 19.8833 9.53041C19.3601 8.52569 19.3368 7.82091 19.3116 7.05217C19.3069 6.90909 19.302 6.76377 19.2939 6.6139C19.2857 6.46091 19.2817 6.3273 19.2778 6.19752C19.2749 6.10211 19.2719 6.00877 19.2675 5.91138C19.2582 5.70012 19.2416 5.4912 19.1935 5.30919C19.1443 5.12325 19.0556 4.93875 18.8823 4.8061C18.7101 4.67423 18.4944 4.62392 18.2525 4.62392C18.0952 4.62392 17.9365 4.67964 17.7961 4.74737C17.6509 4.81742 17.4983 4.91365 17.3464 5.0224C17.0427 5.24003 16.7178 5.52561 16.4229 5.80472C16.1268 6.08501 15.8554 6.36454 15.6581 6.57353Z" fill="white"/>
</mask>
<g mask="url(#mask0_1314_160)">
<path d="M14.0875 22.1273C9.4675 22.0573 6.5625 19.6481 5.6875 18.4523L2.625 19.8523L11.4625 27.3773L23.1875 22.7398L22.225 18.4523C21.9625 18.394 21.3325 18.3123 20.9125 18.4523C20.3525 20.6223 17.8792 20.6398 16.7125 20.3773C16.8 20.9606 16.3975 22.1273 14.0875 22.1273Z" fill="#F8ECE0"/>
<path d="M11.1125 14.525C7.61249 13.545 5.71665 16.45 5.59999 17.9375L5.24999 17.675L3.67499 11.1125L6.64999 1.75L22.925 3.4125L24.4125 12.075L21.7 9.625C21.6125 9.91666 22.4875 14.2187 20.7375 13.9125C17.2375 13.3 17.5 14.175 15.6625 15.05C13.825 15.925 13.3 15.575 11.1125 14.525Z" fill="url(#paint1_linear_1314_160)"/>
<path d="M12.1087 10.0807C11.8987 9.73067 12.7212 9.29317 13.1587 9.11817C14.0337 8.94317 15.3462 10.0807 14.1212 10.4307C12.8962 10.7807 12.3712 10.5182 12.1087 10.0807Z" fill="white" fill-opacity="0.48"/>
<ellipse cx="17.9375" cy="9.5375" rx="0.9625" ry="0.6125" fill="white" fill-opacity="0.48"/>
</g>
<path d="M7.74068 9.672C7.28426 8.1775 7.40107 6.34781 7.7407 5.29179C8.33536 7.28213 9.77575 8.45362 9.77575 8.45362C9.17503 8.58403 8.31681 9.08902 7.74068 9.672Z" fill="black"/>
<path d="M17.0849 14.9585C17.5364 13.9951 20.1899 13.8231 20.6082 14.9585C20.8408 15.59 19.9033 17.0264 19.2785 17.119C18.3811 17.2518 16.5863 16.0221 17.0849 14.9585Z" fill="black"/>
<path d="M16.6542 20.3602C16.5044 20.2268 16.692 20.0557 16.8744 20.139C17.2371 20.3044 17.6508 20.3982 18.0903 20.3982C19.2194 20.3982 20.1801 19.779 20.5373 18.9143C20.5697 18.8361 20.6862 18.844 20.6862 18.9287C20.6862 20.0587 19.6334 20.9748 18.3346 20.9748C17.6762 20.9748 17.081 20.7394 16.6542 20.3602Z" fill="black"/>
<path fill-rule="evenodd" clip-rule="evenodd" d="M7.22147 11.7588L23.7261 9.8064L23.8198 10.5986L23.0277 10.6923L23.1213 11.4845L22.3291 11.5783L22.4227 12.3706L21.6303 12.4642L21.6307 12.4644L21.7243 13.2566L19.0836 13.569L18.9899 12.7767L18.9901 12.7766L18.1975 12.8704L18.1039 12.0781L17.3117 12.1718L17.2179 11.3795L15.6334 11.567L15.7272 12.3592L14.935 12.453L15.0287 13.2452L14.2364 13.3388H14.2365L14.3302 14.1311L11.6895 14.4434L11.5958 13.6512L10.8035 13.745L10.7098 12.9528L9.91757 13.0464L9.82386 12.2542L7.31518 12.551L7.22147 11.7588ZM21.5369 11.672L22.3286 11.5783L22.2348 10.7861L21.4426 10.8799L21.5364 11.672L20.7447 11.7656V11.7658L20.8385 12.5578L21.6307 12.4642L21.5369 11.672ZM14.8411 11.6602L14.0489 11.7539L14.1426 12.5461L14.9348 12.4525L14.8411 11.6602ZM13.3502 12.6397L14.1425 12.5461L14.2362 13.3383L13.4439 13.4319L13.3502 12.6397Z" fill="black"/>
<path d="M21.2754 15.5242C21.9303 16.3873 21.213 17.9508 19.9699 17.9277C19.6989 17.9226 19.422 18.0238 19.2363 18.221C18.2548 19.2638 16.1861 19.3945 15.5456 17.9525C15.481 17.8071 15.3779 17.6776 15.2355 17.6066L14.7273 17.3525" stroke="black" stroke-width="0.7" stroke-linecap="round"/>
<path d="M17.8517 19.1069C19.4516 19.7495 20.3938 18.5131 20.3114 18.0497L19.2006 18.1767L17.8517 19.1069Z" fill="black"/>
<path d="M13.4435 13.4279L13.3555 12.6281L14.1438 12.5477L14.2433 13.3322L13.4435 13.4279Z" fill="white"/>
<path d="M20.83 12.5592L20.742 11.7594L21.5303 11.679L21.6298 12.4635L20.83 12.5592Z" fill="white"/>
<path d="M14.14 12.5669L14.0482 11.7517L14.8365 11.6522L14.9357 12.448L14.14 12.5669Z" fill="white"/>
<path d="M21.5311 11.7021L21.4392 10.887L22.2275 10.7875L22.3268 11.5832L21.5311 11.7021Z" fill="white"/>
<defs>
<linearGradient id="paint0_linear_1314_160" x1="14" y1="0" x2="14" y2="28" gradientUnits="userSpaceOnUse">
<stop stop-color="#AB3AFE"/>
<stop offset="1" stop-color="#7B71F4"/>
</linearGradient>
<linearGradient id="paint1_linear_1314_160" x1="14.0437" y1="1.75" x2="14.0437" y2="17.675" gradientUnits="userSpaceOnUse">
<stop stop-color="#FBF672"/>
<stop offset="1" stop-color="#FFAB24"/>
</linearGradient>
</defs>
</svg>
