<svg width="14" height="14" viewBox="0 0 14 14" fill="none" xmlns="http://www.w3.org/2000/svg">
<g clip-path="url(#clip0_42292_29207)">
<path d="M14 0H0V14H14V0Z" fill="white" fill-opacity="0.01"/>
<path d="M7 13C8.65684 13 10.1568 12.3284 11.2426 11.2426C12.3284 10.1568 13 8.65684 13 7C13 5.34316 12.3284 3.84316 11.2426 2.75736C10.1568 1.67157 8.65684 1 7 1C5.34316 1 3.84316 1.67157 2.75736 2.75736C1.67157 3.84316 1 5.34316 1 7C1 8.65684 1.67157 10.1568 2.75736 11.2426C3.84316 12.3284 5.34316 13 7 13Z" fill="white" stroke="#AF160E" stroke-width="0.875" stroke-linejoin="round"/>
<path d="M4.08594 6.99826L6.22483 9.13715L10.5026 4.85938" stroke="white" stroke-width="0.875" stroke-linecap="round" stroke-linejoin="round"/>
</g>
<defs>
<clipPath id="clip0_42292_29207">
<rect width="14" height="14" fill="white"/>
</clipPath>
</defs>
</svg>
