<svg width="28" height="28" viewBox="0 0 28 28" fill="none" xmlns="http://www.w3.org/2000/svg">
<path fill-rule="evenodd" clip-rule="evenodd" d="M13.6687 1.45833C17.3066 1.45833 20.2557 4.40743 20.2557 8.04533C20.2557 10.3077 19.1151 12.3036 17.3777 13.4896C21.2198 14.7816 24.2034 18.033 25.0539 22.1402C25.0956 22.3412 25.131 22.6125 25.1622 22.9616L25.1978 23.4184C25.2022 23.4839 25.2045 23.5496 25.2045 23.6153C25.2045 25.212 23.9101 26.5063 22.3135 26.5063L4.92599 26.5046L4.82641 26.4994C3.23355 26.3893 2.03151 25.0089 2.14157 23.416C2.18272 22.8204 2.23096 22.3885 2.29194 22.0993C3.15418 18.0103 6.13122 14.7768 9.96001 13.488C8.2222 12.3036 7.08167 10.3077 7.08167 8.04533C7.08167 4.40743 10.0308 1.45833 13.6687 1.45833ZM13.6687 14.6323C8.97739 14.6323 4.95987 17.9287 4.00429 22.4604C3.97567 22.5961 3.94665 22.8215 3.9193 23.1289L3.88741 23.5366C3.84397 24.1653 4.31838 24.7101 4.94704 24.7536C4.97322 24.7554 4.99945 24.7563 5.02569 24.7563H22.3135C22.9436 24.7563 23.4545 24.2454 23.4545 23.6153L23.4538 23.5764L23.4213 23.1427C23.3952 22.845 23.3675 22.6266 23.3403 22.4951C22.3984 17.9468 18.373 14.6323 13.6687 14.6323ZM13.6687 3.20833C10.9973 3.20833 8.83167 5.37393 8.83167 8.04533C8.83167 10.7167 10.9973 12.8823 13.6687 12.8823C16.3401 12.8823 18.5057 10.7167 18.5057 8.04533C18.5057 5.37393 16.3401 3.20833 13.6687 3.20833Z" fill="#B4BDCC"/>
</svg>
