<svg width="32" height="32" viewBox="0 0 32 32" fill="none" xmlns="http://www.w3.org/2000/svg">
<path d="M26.476 8.74096C26.3556 9.16568 25.8571 9.06658 25.4668 9.00489C25.1513 8.95568 24.8725 9.02781 24.6305 9.2213C18.8705 6.51323 11.262 6.5921 5.84692 10.2072C5.67434 10.0259 5.49738 9.94871 5.31603 9.97567C4.68637 10.0707 4.19626 10.1044 3.8457 10.0768C5.80041 8.34557 8.31027 7.21906 10.8333 6.61941C15.9784 5.39481 21.8901 5.92773 26.476 8.74096Z" fill="white" fill-opacity="0.8"/>
<path d="M19.8903 9.75288C20.3838 10.4513 20.708 11.2178 20.8631 12.0524C20.948 12.7232 20.913 13.3876 20.7579 14.0455C20.4202 15.1383 19.7979 16.0302 18.8912 16.7213C16.9753 17.9341 15.0708 17.9172 13.1778 16.6707C12.3128 15.981 11.7216 15.106 11.4041 14.0455C11.2524 13.3775 11.2187 12.7033 11.303 12.0231C11.4728 11.1952 11.7907 10.427 12.2565 9.7185C12.3206 9.69355 12.3846 9.64603 12.4487 9.57591C14.5156 7.30773 17.9073 7.47458 19.8903 9.75288Z" fill="white"/>
<path d="M26.4744 8.74023C28.2602 9.81112 29.8408 11.3836 30.6538 13.3241C30.1718 13.3875 29.7056 13.4859 29.2553 13.6194C28.2663 11.5868 26.5968 10.2449 24.6289 9.22057C24.8709 9.02709 25.1497 8.95495 25.4652 9.00416C25.8555 9.06585 26.3541 9.16495 26.4744 8.74023Z" fill="white" fill-opacity="0.8"/>
<path d="M12.2553 9.71875C11.7895 10.4273 11.4716 11.1955 11.3017 12.0233C10.188 12.4919 9.22027 13.1674 8.39848 14.0498C8.31421 14.06 8.26364 14.0269 8.24679 13.9507C8.24361 13.9357 8.23641 13.9221 8.22623 13.9119C8.21606 13.9018 8.20343 13.8955 8.19016 13.8941C7.37242 13.7964 6.55838 13.8216 5.74805 13.97C7.07276 11.6674 9.70903 10.2638 12.2553 9.71875Z" fill="white" fill-opacity="0.8"/>
<path d="M26.2735 13.8403C25.8286 13.967 25.2302 14.0358 24.4786 14.0466C24.4044 14.0479 24.1924 14.0985 23.8425 14.1983C23.02 13.2477 22.027 12.5328 20.8634 12.0534C20.7084 11.2188 20.3841 10.4523 19.8906 9.75391C21.4095 10.0478 22.8272 10.6549 24.1438 11.5751C25.0371 12.2001 25.747 12.9551 26.2735 13.8403Z" fill="white" fill-opacity="0.8"/>
<path d="M5.84685 10.2075C4.72236 10.974 3.81361 11.9418 3.12058 13.1107C2.65272 12.9024 2.16396 12.835 1.6543 12.9085C2.19294 11.8164 2.92339 10.8726 3.84563 10.0771C4.19619 10.1047 4.6863 10.071 5.31595 9.97594C5.4973 9.94897 5.67426 10.0262 5.84685 10.2075Z" fill="white" fill-opacity="0.8"/>
<path d="M3.11971 13.1099C1.94804 15.3744 2.09905 17.5401 3.57274 19.607C3.27881 19.69 2.98118 19.7004 2.67983 19.6384C2.6077 19.6235 2.46545 19.6502 2.25309 19.7183C2.22815 19.7257 2.19613 19.7274 2.15703 19.7233C2.08961 19.7152 2.05388 19.7439 2.04984 19.8093C0.671195 17.5927 0.539061 15.2921 1.65343 12.9076C2.16309 12.8342 2.65185 12.9016 3.11971 13.1099Z" fill="white" fill-opacity="0.8"/>
<path d="M30.6536 13.3242C31.8296 16.1587 31.0419 19.0245 29.0103 21.2158C28.8607 21.168 28.7326 21.0925 28.6261 20.9893C28.6016 20.9655 28.5725 20.9494 28.5421 20.9428C28.2489 20.8842 27.8767 20.8922 27.6836 20.6182C29.6171 18.6119 30.3542 16.2821 29.255 13.6195C29.7054 13.486 30.1716 13.3876 30.6536 13.3242Z" fill="white" fill-opacity="0.8"/>
<path d="M8.39928 14.0499C6.86154 16.0083 6.89289 17.9485 8.49332 19.8705C7.89265 19.944 7.28794 19.9187 6.67918 19.7947C6.65279 19.7894 6.61963 19.793 6.58413 19.8048L6.3475 19.8857C4.93785 18.1494 4.65875 15.95 5.74885 13.97C6.55918 13.8217 7.37322 13.7964 8.19097 13.8942C8.20423 13.8956 8.21686 13.9018 8.22704 13.912C8.23721 13.9222 8.24441 13.9358 8.24759 13.9508C8.26445 14.027 8.31501 14.06 8.39928 14.0499Z" fill="white" fill-opacity="0.8"/>
<path d="M26.2737 13.8398C27.656 16.1323 27.0887 18.6674 25.2372 20.4715L25.0582 20.5584C25.0373 20.5686 25.0289 20.5625 25.0329 20.5402C25.0521 20.4401 24.3402 20.3693 24.048 20.3016C24.0175 20.295 23.984 20.2971 23.9509 20.3077C23.6334 20.4128 23.506 20.1529 23.2754 20.2126C25.159 18.3728 25.3481 16.3679 23.8427 14.1978C24.1926 14.098 24.4046 14.0475 24.4788 14.0461C25.2304 14.0353 25.8287 13.9666 26.2737 13.8398Z" fill="white" fill-opacity="0.8"/>
<path d="M11.4042 14.0449C11.7218 15.1054 12.313 15.9804 13.1779 16.6701C12.2709 17.4386 11.928 18.461 12.6217 19.5268C12.102 19.8126 11.6132 20.144 11.1555 20.5208C10.9175 20.3954 10.6458 20.1854 10.3404 19.8908C8.33616 17.9634 9.10065 15.2321 11.4042 14.0449Z" fill="white" fill-opacity="0.8"/>
<path d="M20.7574 14.0449C23.5433 15.6386 23.6677 18.7724 20.9768 20.5623C20.5177 20.1268 20.0245 19.7732 19.4974 19.5015C20.1759 18.5378 19.8705 17.3253 18.8906 16.7206C19.7974 16.0296 20.4196 15.1377 20.7574 14.0449Z" fill="white" fill-opacity="0.8"/>
<path d="M19.4969 19.502C20.0241 19.7736 20.5173 20.1272 20.9764 20.5627C18.7301 21.8814 16.2988 22.237 13.6824 21.6296C12.7177 21.4058 11.875 21.0363 11.1543 20.5213C11.612 20.1444 12.1008 19.8131 12.6206 19.5272C14.3356 21.3434 17.8072 21.4182 19.4969 19.502Z" fill="white" fill-opacity="0.8"/>
<path d="M3.57369 19.6074C5.17345 21.735 7.60141 23.0739 10.1194 23.8586C10.2785 24.4141 10.5384 24.9184 10.899 25.3714C10.8714 25.3667 10.8454 25.368 10.8212 25.3755C10.7814 25.3876 10.75 25.391 10.7271 25.3856C7.35265 24.6191 3.97818 22.7837 2.05078 19.8097C2.05483 19.7443 2.09056 19.7156 2.15797 19.7237C2.19707 19.7278 2.22909 19.7261 2.25404 19.7187C2.4664 19.6506 2.60864 19.6239 2.68078 19.6388C2.98212 19.7008 3.27976 19.6903 3.57369 19.6074Z" fill="white" fill-opacity="0.8"/>
<path d="M8.49348 19.8712C9.07393 20.4665 9.7265 20.9771 10.4512 21.4032L10.0103 22.556C8.57168 21.9567 7.35079 21.0668 6.34766 19.8864L6.58428 19.8055C6.61979 19.7936 6.65294 19.7901 6.67934 19.7953C7.2881 19.9194 7.89281 19.9447 8.49348 19.8712Z" fill="white" fill-opacity="0.8"/>
<path d="M25.2367 20.471C24.3435 21.3676 23.3083 22.0489 22.1312 22.5147C22.022 22.1298 21.8761 21.759 21.6934 21.4024C22.2711 21.0538 22.7983 20.6571 23.2749 20.2121C23.5055 20.1525 23.6329 20.4124 23.9504 20.3072C23.9835 20.2966 24.017 20.2945 24.0475 20.3011C24.3397 20.3689 25.0516 20.4397 25.0324 20.5398C25.0284 20.562 25.0368 20.5681 25.0577 20.558L25.2367 20.471Z" fill="white" fill-opacity="0.8"/>
<path d="M27.6844 20.6191C27.8776 20.8932 28.2497 20.8851 28.543 20.9437C28.5734 20.9504 28.6025 20.9665 28.6269 20.9903C28.7334 21.0934 28.8615 21.1689 29.0112 21.2168C26.9796 23.3879 24.0683 24.8147 21.1934 25.4346C21.585 24.9506 21.878 24.4241 22.0721 23.8551C24.2129 23.0451 26.0048 22.2229 27.6844 20.6191Z" fill="white" fill-opacity="0.8"/>
<path d="M10.4507 21.4023C13.9414 23.2114 18.2027 23.1477 21.6925 21.4023C21.8752 21.759 22.0211 22.1298 22.1303 22.5147C21.256 22.93 20.2687 23.2418 19.1685 23.4501C15.9851 24.0528 12.9322 23.7545 10.0098 22.5551L10.4507 21.4023Z" fill="white" fill-opacity="0.8"/>
<path d="M10.1191 23.8595C14.1027 24.9705 18.0873 24.9692 22.0729 23.8555C21.8787 24.4245 21.5858 24.951 21.1941 25.435C17.939 26.247 14.3946 26.2086 11.1314 25.4957C11.0417 25.4761 10.9642 25.435 10.8988 25.3723C10.5381 24.9193 10.2782 24.415 10.1191 23.8595Z" fill="white" fill-opacity="0.8"/>
</svg>
