<svg width="28" height="28" viewBox="0 0 28 28" fill="none" xmlns="http://www.w3.org/2000/svg">
<rect width="28" height="28" rx="14" fill="url(#paint0_linear_36270_19059)"/>
<path d="M11.4902 5.25H15.6394V12.0874H13.0667V7.45106H10.7617L11.4902 5.25064V5.25Z" fill="white"/>
<path fill-rule="evenodd" clip-rule="evenodd" d="M14.2908 22.4302C14.9122 22.4302 15.5276 22.3078 16.1017 22.07C16.6758 21.8321 17.1975 21.4836 17.6369 21.0442C18.0763 20.6047 18.4249 20.0831 18.6627 19.5089C18.9005 18.9348 19.0229 18.3194 19.0229 17.698C19.0229 17.0766 18.9005 16.4612 18.6627 15.8871C18.4249 15.3129 18.0763 14.7913 17.6369 14.3518C17.1975 13.9124 16.6758 13.5638 16.1017 13.326C15.5276 13.0882 14.9122 12.9658 14.2908 12.9658C13.0357 12.9658 11.8321 13.4644 10.9446 14.3518C10.0572 15.2393 9.55859 16.4429 9.55859 17.698C9.55859 18.953 10.0572 20.1567 10.9446 21.0442C11.8321 21.9316 13.0357 22.4302 14.2908 22.4302ZM14.2908 20.2814C14.6335 20.2868 14.9738 20.224 15.292 20.0966C15.6102 19.9692 15.8998 19.7798 16.1441 19.5393C16.3883 19.2989 16.5823 19.0123 16.7147 18.6962C16.8471 18.38 16.9153 18.0407 16.9153 17.698C16.9153 17.3553 16.8471 17.016 16.7147 16.6998C16.5823 16.3837 16.3883 16.0971 16.1441 15.8567C15.8998 15.6162 15.6102 15.4268 15.292 15.2994C14.9738 15.172 14.6335 15.1092 14.2908 15.1146C13.6055 15.1146 12.9484 15.3868 12.4638 15.8714C11.9793 16.3559 11.7071 17.0131 11.7071 17.6983C11.7071 18.3836 11.9793 19.0407 12.4638 19.5253C12.9484 20.0098 13.6055 20.282 14.2908 20.282V20.2814Z" fill="white"/>
<defs>
<linearGradient id="paint0_linear_36270_19059" x1="2.625" y1="1.3125" x2="23.1875" y2="27.125" gradientUnits="userSpaceOnUse">
<stop stop-color="#40D242"/>
<stop offset="1" stop-color="#01B812"/>
</linearGradient>
</defs>
</svg>
