<svg width="28" height="28" viewBox="0 0 28 28" fill="none" xmlns="http://www.w3.org/2000/svg">
<path d="M9.5042 25.97H5.3042C3.21656 25.97 1.5242 24.2776 1.5242 22.19V19.67H9.5042" stroke="#B4BDCC" stroke-width="1.68" stroke-linejoin="round"/>
<path d="M5.09421 19.7029C5.09421 16.4289 5.09421 11.518 5.09421 4.97001C5.09421 2.99835 6.69255 1.40001 8.66421 1.40001H18.7442H24.0992M9.5 25.97H18.7442C20.7159 25.97 22.3142 25.1756 22.3142 23.2039V5.62483" stroke="#B4BDCC" stroke-width="1.68" stroke-linejoin="round"/>
<path d="M9.60919 15.155H17.3792" stroke="#B4BDCC" stroke-width="1.68" stroke-linecap="round" stroke-linejoin="round"/>
<path fill-rule="evenodd" clip-rule="evenodd" d="M24.0992 1.40001C25.085 1.40001 25.8842 2.19918 25.8842 3.18501V8.12001H22.3142V3.18501C22.3142 2.19918 23.1134 1.40001 24.0992 1.40001Z" stroke="#B4BDCC" stroke-width="1.68" stroke-linejoin="round"/>
<path d="M22.3142 19.67V23.2039C22.3142 24.0357 21.421 24.71 20.3192 24.71C19.2174 24.71 18.3242 24.0357 18.3242 23.2039V19.67L1.61 19.67" stroke="#B4BDCC" stroke-width="1.68" stroke-linejoin="round"/>
<path d="M9.60919 7.59501H17.3792" stroke="#B4BDCC" stroke-width="1.68" stroke-linecap="round" stroke-linejoin="round"/>
<path d="M9.60919 11.375H17.3792" stroke="#B4BDCC" stroke-width="1.68" stroke-linecap="round" stroke-linejoin="round"/>
</svg>
