<svg width="32" height="32" viewBox="0 0 32 32" fill="none" xmlns="http://www.w3.org/2000/svg">
<rect width="32" height="32" rx="16" fill="white"/>
<path d="M25.2262 9.61187C25.1203 9.98571 24.6815 9.89848 24.3379 9.84418C24.0602 9.80086 23.8148 9.86436 23.6018 10.0347C18.5318 7.65097 11.8346 7.7204 7.06815 10.9025C6.91624 10.7429 6.76047 10.6749 6.60085 10.6987C6.04661 10.7823 5.61521 10.812 5.30664 10.7877C7.02721 9.26384 9.23644 8.27226 11.4572 7.74443C15.9861 6.66652 21.1896 7.1356 25.2262 9.61187Z" fill="#6FBFB8"/>
<path d="M19.4305 10.5026C19.8649 11.1174 20.1503 11.7921 20.2868 12.5267C20.3616 13.1171 20.3307 13.7019 20.1942 14.2811C19.8969 15.243 19.3492 16.0281 18.5511 16.6363C16.8646 17.7038 15.1883 17.689 13.522 16.5918C12.7607 15.9848 12.2403 15.2145 11.9608 14.2811C11.8273 13.693 11.7976 13.0996 11.8718 12.5009C12.0213 11.7722 12.3011 11.096 12.7111 10.4724C12.7675 10.4504 12.8239 10.4086 12.8803 10.3468C14.6996 8.35035 17.685 8.49721 19.4305 10.5026Z" fill="#549C91"/>
<path d="M25.226 9.61133C26.7979 10.5539 28.1891 11.9381 28.9048 13.6462C28.4805 13.7019 28.0702 13.7886 27.6738 13.9061C26.8033 12.117 25.3337 10.9358 23.6016 10.0341C23.8146 9.86382 24.06 9.80033 24.3377 9.84364C24.6813 9.89794 25.1201 9.98517 25.226 9.61133Z" fill="#99CFCA"/>
<path d="M12.7102 10.4727C12.3002 11.0963 12.0204 11.7725 11.8709 12.5012C10.8906 12.9136 10.0387 13.5082 9.31538 14.285C9.2412 14.2939 9.1967 14.2648 9.18186 14.1977C9.17906 14.1845 9.17273 14.1725 9.16377 14.1636C9.15481 14.1546 9.14369 14.1491 9.13202 14.1479C8.41222 14.0618 7.69569 14.0841 6.98242 14.2146C8.14846 12.1879 10.469 10.9524 12.7102 10.4727Z" fill="#A7D5C8"/>
<path d="M25.048 14.0989C24.6564 14.2104 24.1297 14.2709 23.4681 14.2804C23.4028 14.2816 23.2162 14.3261 22.9082 14.414C22.1843 13.5773 21.3102 12.948 20.286 12.526C20.1495 11.7914 19.8641 11.1167 19.4297 10.502C20.7666 10.7607 22.0145 11.295 23.1735 12.105C23.9597 12.6551 24.5846 13.3197 25.048 14.0989Z" fill="#A7D5C8"/>
<path d="M7.06927 10.9018C6.07948 11.5765 5.27957 12.4283 4.66955 13.4573C4.25773 13.2739 3.82752 13.2146 3.37891 13.2793C3.85303 12.318 4.49598 11.4872 5.30776 10.787C5.61633 10.8113 6.04773 10.7816 6.60197 10.698C6.76159 10.6742 6.91736 10.7422 7.06927 10.9018Z" fill="#A1D2CC"/>
<path d="M4.66904 13.4572C3.63771 15.4505 3.77063 17.3568 5.0678 19.1761C4.80908 19.2491 4.54709 19.2583 4.28184 19.2037C4.21835 19.1907 4.09314 19.2141 3.90622 19.274C3.88426 19.2806 3.85608 19.2821 3.82166 19.2785C3.76232 19.2714 3.73087 19.2966 3.72731 19.3542C2.5138 17.403 2.3975 15.3781 3.37839 13.2792C3.827 13.2145 4.25722 13.2739 4.66904 13.4572Z" fill="#ADD79C"/>
<path d="M28.9052 13.6465C29.9404 16.1414 29.247 18.664 27.4588 20.5928C27.3271 20.5507 27.2143 20.4842 27.1206 20.3935C27.0991 20.3725 27.0735 20.3583 27.0467 20.3525C26.7886 20.3009 26.461 20.308 26.291 20.0668C27.9929 18.3008 28.6418 16.25 27.6742 13.9064C28.0706 13.7889 28.481 13.7023 28.9052 13.6465Z" fill="#B3D39D"/>
<path d="M9.31639 14.2841C7.96284 16.0079 7.99043 17.7157 9.39917 19.4075C8.87045 19.4722 8.33817 19.4499 7.80233 19.3407C7.77909 19.3361 7.74991 19.3392 7.71866 19.3496L7.51037 19.4208C6.26957 17.8925 6.0239 15.9566 6.98343 14.2137C7.6967 14.0832 8.41323 14.0609 9.13303 14.147C9.1447 14.1482 9.15582 14.1537 9.16478 14.1627C9.17374 14.1716 9.18007 14.1836 9.18287 14.1968C9.19771 14.2639 9.24221 14.293 9.31639 14.2841Z" fill="#ADD79C"/>
<path d="M25.0493 14.0996C26.2661 16.1175 25.7667 18.349 24.137 19.9369L23.9794 20.0134C23.961 20.0223 23.9536 20.017 23.9572 19.9974C23.9741 19.9093 23.3474 19.847 23.0902 19.7874C23.0634 19.7815 23.0339 19.7834 23.0047 19.7927C22.7253 19.8853 22.6131 19.6565 22.4102 19.709C24.0681 18.0896 24.2346 16.3249 22.9095 14.4147C23.2175 14.3269 23.4041 14.2824 23.4694 14.2812C24.131 14.2717 24.6577 14.2112 25.0493 14.0996Z" fill="#B0D599"/>
<path d="M11.9607 14.2812C12.2402 15.2147 12.7606 15.9849 13.522 16.592C12.7236 17.2684 12.4218 18.1683 13.0324 19.1065C12.5749 19.3581 12.1447 19.6498 11.7418 19.9815C11.5323 19.8711 11.2932 19.6862 11.0244 19.4269C9.26017 17.7304 9.93309 15.3262 11.9607 14.2812Z" fill="#B0D599"/>
<path d="M20.1939 14.2812C22.6461 15.6841 22.7556 18.4425 20.3871 20.018C19.983 19.6346 19.5489 19.3234 19.0848 19.0842C19.6821 18.236 19.4133 17.1687 18.5508 16.6365C19.3489 16.0282 19.8966 15.2432 20.1939 14.2812Z" fill="#B0D599"/>
<path d="M19.0855 19.084C19.5496 19.3231 19.9836 19.6344 20.3877 20.0177C18.4105 21.1784 16.2704 21.4914 13.9674 20.9568C13.1183 20.7597 12.3765 20.4346 11.7422 19.9812C12.1451 19.6495 12.5753 19.3578 13.0328 19.1062C14.5424 20.7049 17.5982 20.7707 19.0855 19.084Z" fill="#548E73"/>
<path d="M5.06706 19.1777C6.4752 21.0505 8.61233 22.229 10.8287 22.9197C10.9687 23.4087 11.1975 23.8526 11.515 24.2513C11.4906 24.2472 11.4678 24.2483 11.4464 24.2549C11.4114 24.2656 11.3838 24.2685 11.3636 24.2638C8.39337 23.5891 5.4231 21.9735 3.72656 19.3558C3.73012 19.2982 3.76157 19.273 3.82091 19.2801C3.85533 19.2837 3.88352 19.2822 3.90547 19.2756C4.09239 19.2157 4.2176 19.1923 4.2811 19.2053C4.54635 19.2599 4.80833 19.2507 5.06706 19.1777Z" fill="#E5B9B0"/>
<path d="M9.39856 19.4087C9.90948 19.9327 10.4839 20.3822 11.1218 20.7572L10.7337 21.7719C9.4674 21.2444 8.39275 20.4611 7.50977 19.422L7.71805 19.3508C7.7493 19.3404 7.77849 19.3373 7.80172 19.3419C8.33756 19.4511 8.86984 19.4734 9.39856 19.4087Z" fill="#D4C2A7"/>
<path d="M24.1365 19.937C23.3502 20.7262 22.4391 21.3258 21.403 21.7359C21.3069 21.397 21.1784 21.0707 21.0176 20.7568C21.5261 20.45 21.9902 20.1008 22.4097 19.7091C22.6126 19.6566 22.7248 19.8853 23.0043 19.7928C23.0334 19.7835 23.0629 19.7816 23.0897 19.7874C23.347 19.8471 23.9736 19.9094 23.9567 19.9975C23.9531 20.0171 23.9606 20.0224 23.9789 20.0135L24.1365 19.937Z" fill="#D4C2A7"/>
<path d="M26.2917 20.0664C26.4617 20.3076 26.7893 20.3005 27.0474 20.3521C27.0741 20.3579 27.0998 20.3721 27.1213 20.3931C27.215 20.4839 27.3278 20.5503 27.4595 20.5925C25.6713 22.5035 23.1087 23.7594 20.5781 24.3051C20.9229 23.879 21.1807 23.4156 21.3516 22.9147C23.236 22.2018 24.8132 21.4781 26.2917 20.0664Z" fill="#E9B8B2"/>
<path d="M11.1225 20.7578C14.1951 22.3502 17.946 22.2941 21.0177 20.7578C21.1785 21.0717 21.307 21.3981 21.4031 21.7369C20.6335 22.1025 19.7645 22.3769 18.796 22.5603C15.994 23.0908 13.3068 22.8282 10.7344 21.7725L11.1225 20.7578Z" fill="#5B877A"/>
<path d="M10.8301 22.9196C14.3365 23.8975 17.8438 23.8963 21.352 22.916C21.1811 23.4168 20.9232 23.8803 20.5785 24.3064C17.7132 25.0211 14.5934 24.9873 11.7211 24.3598C11.6421 24.3426 11.5739 24.3064 11.5163 24.2512C11.1989 23.8524 10.9701 23.4085 10.8301 22.9196Z" fill="#628380"/>
</svg>
