<svg width="32" height="32" viewBox="0 0 32 32" fill="none" xmlns="http://www.w3.org/2000/svg">
<path d="M26.5801 9.79589C24.9555 9.79589 23.331 9.7968 21.7064 9.7968C19.139 9.7968 16.5715 9.79771 14.0031 9.7968C13.3597 9.7968 12.7253 9.85596 12.1083 10.0462C11.0434 10.3729 10.1388 10.9472 9.39793 11.7809C8.78542 12.4698 8.36312 13.2607 8.12194 14.1481C7.99998 14.5959 7.92899 15.0528 7.92717 15.516C7.9208 17.3672 7.92353 19.2193 7.92262 21.0705C7.92262 21.2989 7.92717 21.2707 7.71784 21.2707C6.80863 21.2707 5.90033 21.2698 4.99112 21.2725C4.88919 21.2725 4.85369 21.2452 4.8546 21.1387C4.85824 19.2602 4.84004 17.3827 4.8637 15.5051C4.88646 13.6539 5.45619 11.972 6.53469 10.4657C7.32103 9.36723 8.31124 8.49715 9.49167 7.84277C10.1033 7.50421 10.7485 7.24391 11.4239 7.05916C11.4785 7.0446 11.5303 7.02093 11.5831 7.00182C16.5488 7.00182 21.5135 7.00182 26.4791 7C26.5646 7 26.5838 7.01911 26.5838 7.10466C26.5801 8.00204 26.5819 8.89942 26.5819 9.7968L26.5801 9.79589Z" fill="white"/>
<path d="M16.9559 23.2001H4.85132V25.976C6.33785 25.9457 11.0125 25.976 17.8206 25.976C24.5099 25.976 26.6487 20.5153 26.6487 16.6927V11.6416H14.9082C13.5885 11.6416 13.0424 11.5506 11.7682 12.0966C10.2756 12.9339 9.84182 14.6298 9.81148 15.3731V21.3344H16.9559C18.2301 21.3344 18.0632 20.94 17.8206 20.7428C16.516 19.4383 13.7614 16.6745 13.1789 16.0557C12.8149 15.4368 13.3306 15.0697 13.634 14.9635C13.8312 14.918 16.0913 14.8543 23.5543 14.9635C23.5543 19.0136 23.5088 18.4675 22.6442 20.2422C21.4792 22.827 18.3666 23.2911 16.9559 23.2001Z" fill="white"/>
</svg>
