<svg width="150" height="150" viewBox="0 0 150 150" fill="none" xmlns="http://www.w3.org/2000/svg">
<g clip-path="url(#clip0_1907_19)">
<path d="M75 150C116.421 150 150 116.421 150 75C150 33.5786 116.421 0 75 0C33.5786 0 0 33.5786 0 75C0 116.421 33.5786 150 75 150Z" fill="#7F3CE0"/>
<path d="M56.8978 48.3528C53.089 48.3528 50.0016 51.3853 50.0016 55.1265V65.2868H56.8978V55.1265H65.5177V65.2868H72.4142V55.1265C72.4142 51.3853 69.3265 48.3528 65.5177 48.3528H56.8978Z" fill="white"/>
<path d="M84.4823 48.3528C80.6735 48.3528 77.5858 51.3853 77.5858 55.1265V65.2868H84.4823V55.1265H93.1021V65.2868H99.9981V55.1265C99.9981 51.3853 96.9109 48.3528 93.1021 48.3528H84.4823Z" fill="white"/>
<path d="M50.0016 92.38C50.0016 96.1209 53.089 99.1535 56.8978 99.1535H65.5177C69.3265 99.1535 72.4142 96.1209 72.4142 92.38V82.2197H65.5177V92.38H56.8978V82.2197H50.0016V92.38Z" fill="white"/>
<path d="M77.5858 92.38C77.5858 96.1209 80.6735 99.1535 84.4823 99.1535H93.1021C96.9109 99.1535 99.9981 96.1209 99.9981 92.38V82.2197H93.1021V92.38H84.4823V82.2197H77.5858V92.38Z" fill="white"/>
<path fill-rule="evenodd" clip-rule="evenodd" d="M80.1721 25.3612C76.9717 23.5463 73.0283 23.5463 69.8279 25.3612L34.1721 45.5811C30.9716 47.3961 29 50.7502 29 54.3801V94.8199C29 98.4498 30.9716 101.804 34.1721 103.619L69.8279 123.839C73.0283 125.654 76.9717 125.654 80.1721 123.839L115.828 103.619C119.028 101.804 121 98.4498 121 94.8199V54.3801C121 50.7502 119.028 47.3961 115.828 45.5811L80.1721 25.3612ZM73.2762 31.2272C74.3428 30.6222 75.6572 30.6222 76.7238 31.2272L112.38 51.4471C113.447 52.0521 114.104 53.1703 114.104 54.3801V63.767C113.965 63.9487 113.778 64.1873 113.546 64.4662C112.964 65.1648 112.124 66.0911 111.092 67.0077C108.923 68.9357 106.417 70.3663 103.977 70.3663H45.4926C41.6351 70.3663 38.3379 72.1212 35.8961 73.9871V54.3801C35.8961 53.1703 36.5533 52.0521 37.6201 51.4471L73.2762 31.2272ZM35.8961 83.7201V94.8199C35.8961 96.0297 36.5533 97.148 37.6201 97.7529L73.2762 117.973C74.3428 118.578 75.6572 118.578 76.7238 117.973L112.38 97.7529C113.447 97.148 114.104 96.0297 114.104 94.8199V73.3569C111.546 75.2883 108.057 77.1398 103.977 77.1398H45.4926C43.2527 77.1398 40.8963 78.5175 38.8058 80.4518C37.8188 81.3649 37.0142 82.2895 36.4563 82.9875C36.2195 83.2842 36.0312 83.5349 35.8961 83.7201Z" fill="white"/>
</g>
<defs>
<clipPath id="clip0_1907_19">
<rect width="150" height="150" fill="white"/>
</clipPath>
</defs>
</svg>
