<svg width="14" height="14" viewBox="0 0 14 14" fill="none" xmlns="http://www.w3.org/2000/svg">
<path d="M1.52973 5.22177C1.19865 5.22177 1 5.02419 1 4.76075V2.58737C1 1.66532 1.72838 0.94086 2.65541 0.94086H4.77432C5.03919 0.94086 5.30405 1.13844 5.30405 1.46774C5.30405 1.79704 5.03919 1.92876 4.77432 1.92876H2.65541C2.25811 1.92876 1.99324 2.25806 1.99324 2.58737V4.76075C1.99324 5.02419 1.79459 5.22177 1.52973 5.22177ZM11.5284 13.125H9.40946C9.14459 13.125 8.87973 12.9274 8.87973 12.5981C8.87973 12.3347 9.07838 12.0712 9.40946 12.0712H11.5284C11.9257 12.0712 12.1905 11.7419 12.1905 11.4126V9.23925C12.1905 8.97581 12.3892 8.71237 12.7203 8.71237C13.0514 8.71237 13.25 8.90995 13.25 9.23925V11.4126C13.1838 12.3347 12.4554 13.125 11.5284 13.125ZM12.7203 5.22177C12.4554 5.22177 12.1905 5.02419 12.1905 4.69489V2.58737C12.1905 2.1922 11.8595 1.92876 11.5284 1.92876H9.34324C9.07838 1.92876 8.81351 1.73118 8.81351 1.40188C8.81351 1.07258 9.01216 0.875 9.34324 0.875H11.5284C12.4554 0.875 13.1838 1.59946 13.1838 2.52151V4.62903C13.1838 4.95833 12.9851 5.22177 12.7203 5.22177ZM4.84054 13.0591H2.65541C1.72838 13.0591 1 12.3347 1 11.4126V9.30511C1 9.04167 1.19865 8.77823 1.52973 8.77823C1.86081 8.77823 2.05946 8.97581 2.05946 9.30511V11.4126C2.05946 11.8078 2.39054 12.0712 2.72162 12.0712H4.90676C5.17162 12.0712 5.43649 12.2688 5.43649 12.5981C5.30405 12.8616 5.10541 13.0591 4.84054 13.0591ZM12.7203 7.52688H1.46351C1.19865 7.52688 1.06622 7.3293 1.06622 7.13172V7C1.06622 6.73656 1.26486 6.60484 1.46351 6.60484H12.7203C12.9851 6.60484 13.1176 6.80242 13.1176 7V7.13172C13.1176 7.3293 12.9189 7.52688 12.7203 7.52688Z" fill="#707280"/>
</svg>
