<svg width="32" height="32" viewBox="0 0 32 32" fill="none" xmlns="http://www.w3.org/2000/svg">
<path fill-rule="evenodd" clip-rule="evenodd" d="M7.18372 6.90161V22.1525C7.18389 22.4374 7.24822 22.7185 7.37195 22.9753C7.49568 23.232 7.67564 23.4577 7.89854 23.6358L15.1064 29.4072C15.36 29.6097 15.6751 29.72 15.9999 29.72C16.3248 29.72 16.6399 29.6097 16.8935 29.4072L24.1014 23.6358C24.3242 23.4577 24.5042 23.232 24.628 22.9753C24.7517 22.7185 24.816 22.4374 24.8162 22.1525V6.90161C24.8162 6.39727 24.6153 5.91359 24.2579 5.55697C23.9004 5.20035 23.4155 5 22.91 5H9.08993C8.58437 5 8.09951 5.20035 7.74203 5.55697C7.38455 5.91359 7.18372 6.39727 7.18372 6.90161Z" fill="white" fill-opacity="0.4"/>
<path d="M21.8739 13.5063V9.67934C21.8739 9.17185 21.6758 8.68516 21.3232 8.32632C20.9705 7.96747 20.4923 7.76587 19.9936 7.76587H12.0027C11.504 7.76587 11.0258 7.96747 10.6731 8.32632C10.3205 8.68516 10.1224 9.17185 10.1224 9.67934V20.7834C10.1226 21.0701 10.1861 21.353 10.3081 21.6113C10.4301 21.8697 10.6077 22.0968 10.8275 22.2759L13.7372 24.6534C13.7717 24.6819 13.8135 24.6999 13.8576 24.7052C13.9018 24.7105 13.9466 24.703 13.9867 24.6834C14.0268 24.6639 14.0607 24.6331 14.0843 24.5948C14.1079 24.5565 14.1204 24.5121 14.1203 24.4668V16.6157C14.1203 16.5522 14.145 16.4914 14.1891 16.4465C14.2332 16.4017 14.293 16.3765 14.3553 16.3765H16.4705C16.8445 16.3765 17.2032 16.5277 17.4677 16.7968C17.7322 17.066 17.8807 17.431 17.8807 17.8116V24.4668C17.8808 24.5119 17.8933 24.556 17.9169 24.5942C17.9405 24.6322 17.9741 24.6628 18.014 24.6823C18.054 24.7018 18.0985 24.7095 18.1424 24.7043C18.1864 24.6992 18.2281 24.6816 18.2626 24.6534L21.1723 22.2759C21.3922 22.0968 21.5697 21.8697 21.6917 21.6113C21.8138 21.353 21.8772 21.0701 21.8774 20.7834V17.3332C21.8774 16.8257 21.6793 16.339 21.3267 15.9802C20.9741 15.6213 20.4958 15.4197 19.9972 15.4197C20.4952 15.4188 20.9726 15.2168 21.3244 14.858C21.6762 14.4993 21.8739 14.0131 21.8739 13.5063ZM16.4682 14.463H14.3529C14.2906 14.463 14.2308 14.4378 14.1868 14.393C14.1427 14.3481 14.1179 14.2872 14.1179 14.2238V9.91852C14.1179 9.85508 14.1427 9.79425 14.1868 9.74939C14.2308 9.70454 14.2906 9.67934 14.3529 9.67934H17.6433C17.7057 9.67934 17.7654 9.70454 17.8095 9.74939C17.8536 9.79425 17.8784 9.85508 17.8784 9.91852V13.0279C17.8784 13.4085 17.7298 13.7736 17.4653 14.0427C17.2009 14.3118 16.8422 14.463 16.4682 14.463Z" fill="white"/>
</svg>
