<svg width="160" height="47" viewBox="0 0 160 47" fill="none" xmlns="http://www.w3.org/2000/svg">
<path d="M42.0481 25.953C43.4015 22.9191 36.7103 14.4431 30.318 10.9118C26.2886 8.17618 22.0901 8.55201 21.2397 9.75316C19.3736 12.3892 27.4191 14.6229 32.7997 17.2294C31.6431 17.7334 30.5531 18.638 29.9122 19.7947C27.9062 17.5974 23.5034 15.7051 18.3372 17.2294C14.8558 18.2565 11.9625 20.6781 10.8442 24.3355C10.5725 24.2144 10.2717 24.147 9.95516 24.147C8.74484 24.147 7.76367 25.1315 7.76367 26.3459C7.76367 27.5603 8.74484 28.5448 9.95516 28.5448C10.1795 28.5448 10.8809 28.3938 10.8809 28.3938L22.0901 28.4753C17.6073 35.6107 14.0646 36.6538 14.0646 37.89C14.0646 39.1262 17.4543 38.7912 18.7271 38.3304C24.8199 36.1246 31.3639 29.2499 32.4868 27.271C37.2025 27.8613 41.1656 27.9311 42.0481 25.953Z" fill="url(#paint0_linear_26101_5370)"/>
<path fill-rule="evenodd" clip-rule="evenodd" d="M32.7998 17.2296C32.8001 17.2298 32.8004 17.2299 32.8007 17.23C33.05 17.1315 33.0097 16.7619 32.9412 16.4716C32.7838 15.8045 30.068 13.1137 27.5177 11.9084C24.0425 10.2661 21.4835 10.3508 21.1055 11.1078C21.8134 12.5635 25.0951 13.9302 28.5225 15.3577C29.9847 15.9667 31.4735 16.5867 32.8003 17.2294C32.8001 17.2295 32.7999 17.2296 32.7998 17.2296Z" fill="url(#paint1_linear_26101_5370)"/>
<path fill-rule="evenodd" clip-rule="evenodd" d="M28.3874 31.8813C27.6846 31.6118 26.8907 31.3646 25.9881 31.1402C26.9504 29.4124 27.1524 26.8546 26.2435 25.2374C24.968 22.9678 23.3668 21.7598 19.6461 21.7598C17.5997 21.7598 12.0899 22.4514 11.9921 27.0663C11.9818 27.5505 11.9918 27.9943 12.0268 28.4024L22.0882 28.4756C20.7318 30.6347 19.4614 32.236 18.3493 33.4536C19.6845 33.7969 20.7864 34.0851 21.7981 34.3497C22.758 34.6008 23.6367 34.8306 24.5564 35.0661C25.9436 34.052 27.2478 32.9462 28.3874 31.8813Z" fill="url(#paint2_linear_26101_5370)"/>
<path d="M10.7104 27.9277C11.1214 31.4335 13.1071 32.8074 17.1647 33.214C21.2223 33.6206 23.5498 33.3478 26.6484 33.6307C29.2364 33.8669 31.5472 35.1902 32.4045 34.7329C33.176 34.3214 32.7443 32.8345 31.712 31.8806C30.3738 30.6441 28.5218 29.7844 25.263 29.4793C25.9125 27.6951 25.7305 25.1935 24.7219 23.8325C23.2635 21.8645 20.5716 20.9748 17.1647 21.3636C13.6052 21.7697 10.1945 23.528 10.7104 27.9277Z" fill="url(#paint3_linear_26101_5370)"/>
<path d="M52.8917 24.1546H53.4671C54.0684 24.1546 54.5298 24.018 54.8512 23.7448C55.1726 23.4716 55.3333 23.0788 55.3333 22.5665C55.3333 22.0542 55.1726 21.6615 54.8512 21.3882C54.5298 21.115 54.0684 20.9784 53.4671 20.9784H52.8917V24.1546ZM59.5942 31.2755H55.7998L52.8917 26.3234V31.2755H49.8438V18.3999H54.5868C55.2399 18.3999 55.8101 18.508 56.2974 18.7243C56.7847 18.9292 57.1838 19.2138 57.4948 19.5781C57.8162 19.9424 58.0547 20.3637 58.2102 20.8418C58.3761 21.3199 58.459 21.8322 58.459 22.3787C58.459 23.3577 58.2413 24.1546 57.8059 24.7694C57.3808 25.3728 56.7484 25.7826 55.9086 25.9989L59.5942 31.2755Z" fill="#8697FF"/>
<path d="M62.1021 26.8698C62.1021 27.1544 62.1487 27.4219 62.242 27.6724C62.3353 27.9115 62.4597 28.1221 62.6152 28.3042C62.7811 28.4864 62.9729 28.6287 63.1906 28.7311C63.4187 28.8336 63.6624 28.8848 63.9215 28.8848C64.1703 28.8848 64.4036 28.8336 64.6213 28.7311C64.8494 28.6287 65.0412 28.4864 65.1967 28.3042C65.3626 28.1221 65.4922 27.9115 65.5855 27.6724C65.6892 27.4333 65.741 27.1772 65.741 26.904C65.741 26.6307 65.6892 26.3746 65.5855 26.1355C65.4922 25.8851 65.3626 25.6688 65.1967 25.4866C65.0412 25.3045 64.8494 25.1622 64.6213 25.0597C64.4036 24.9572 64.1703 24.906 63.9215 24.906C63.6624 24.906 63.4187 24.9572 63.1906 25.0597C62.9729 25.1622 62.7811 25.3045 62.6152 25.4866C62.4597 25.6688 62.3353 25.8794 62.242 26.1184C62.1487 26.3461 62.1021 26.5966 62.1021 26.8698ZM65.6477 22.5153H68.478V31.2755H65.6477V30.3022C65.0464 31.1332 64.2326 31.5488 63.2062 31.5488C62.6256 31.5488 62.0917 31.4349 61.6044 31.2072C61.1172 30.9682 60.6921 30.638 60.3293 30.2168C59.9664 29.7956 59.6813 29.3004 59.4739 28.7311C59.277 28.1619 59.1785 27.5415 59.1785 26.8698C59.1785 26.2437 59.277 25.6517 59.4739 25.0938C59.6709 24.5246 59.9457 24.0294 60.2982 23.6082C60.6506 23.187 61.0705 22.8568 61.5578 22.6178C62.045 22.3673 62.5841 22.2421 63.1751 22.2421C64.1703 22.2421 64.9946 22.6234 65.6477 23.3862V22.5153Z" fill="#8697FF"/>
<path d="M75.8207 26.921C75.8207 26.6478 75.7741 26.3917 75.6808 26.1526C75.5875 25.9021 75.4579 25.6858 75.292 25.5037C75.1261 25.3215 74.9343 25.1792 74.7166 25.0768C74.4989 24.9629 74.2604 24.906 74.0013 24.906C73.7524 24.906 73.5192 24.9572 73.3015 25.0597C73.0837 25.1622 72.8919 25.3045 72.7261 25.4866C72.5706 25.6688 72.441 25.8851 72.3373 26.1355C72.244 26.3746 72.1973 26.6307 72.1973 26.904C72.1973 27.1772 72.244 27.4333 72.3373 27.6724C72.4306 27.9115 72.5602 28.1221 72.7261 28.3042C72.8919 28.475 73.0837 28.6173 73.3015 28.7311C73.5295 28.8336 73.768 28.8848 74.0168 28.8848C74.2656 28.8848 74.4989 28.8336 74.7166 28.7311C74.9343 28.6287 75.1209 28.4864 75.2764 28.3042C75.4423 28.1221 75.5719 27.9115 75.6652 27.6724C75.7689 27.4333 75.8207 27.1829 75.8207 26.921ZM72.2751 17.1021V23.3862C72.9386 22.6234 73.768 22.2421 74.7633 22.2421C75.3542 22.2421 75.8933 22.3673 76.3806 22.6178C76.8782 22.8568 77.2981 23.187 77.6402 23.6082C77.9927 24.018 78.2674 24.5076 78.4644 25.0768C78.6614 25.6346 78.7599 26.2323 78.7599 26.8698C78.7599 27.5187 78.6562 28.1278 78.4488 28.697C78.2519 29.2662 77.9719 29.7614 77.6091 30.1826C77.2462 30.6039 76.816 30.9397 76.3184 31.1902C75.8311 31.4292 75.3024 31.5488 74.7321 31.5488C73.6954 31.5488 72.8764 31.1332 72.2751 30.3022V31.2755H69.4604V17.1021H72.2751Z" fill="#8697FF"/>
<path d="M85.7916 26.921C85.7916 26.6478 85.7449 26.3917 85.6516 26.1526C85.5583 25.9021 85.4287 25.6858 85.2628 25.5037C85.097 25.3215 84.9052 25.1792 84.6875 25.0768C84.4697 24.9629 84.2313 24.906 83.9721 24.906C83.7233 24.906 83.49 24.9572 83.2723 25.0597C83.0546 25.1622 82.8628 25.3045 82.6969 25.4866C82.5414 25.6688 82.4118 25.8851 82.3082 26.1355C82.2149 26.3746 82.1682 26.6307 82.1682 26.904C82.1682 27.1772 82.2149 27.4333 82.3082 27.6724C82.4015 27.9115 82.5311 28.1221 82.6969 28.3042C82.8628 28.475 83.0546 28.6173 83.2723 28.7311C83.5004 28.8336 83.7388 28.8848 83.9877 28.8848C84.2365 28.8848 84.4697 28.8336 84.6875 28.7311C84.9052 28.6287 85.0918 28.4864 85.2473 28.3042C85.4132 28.1221 85.5428 27.9115 85.6361 27.6724C85.7397 27.4333 85.7916 27.1829 85.7916 26.921ZM82.246 17.1021V23.3862C82.9095 22.6234 83.7388 22.2421 84.7341 22.2421C85.3251 22.2421 85.8641 22.3673 86.3514 22.6178C86.849 22.8568 87.2689 23.187 87.611 23.6082C87.9635 24.018 88.2383 24.5076 88.4353 25.0768C88.6322 25.6346 88.7307 26.2323 88.7307 26.8698C88.7307 27.5187 88.627 28.1278 88.4197 28.697C88.2227 29.2662 87.9428 29.7614 87.5799 30.1826C87.2171 30.6039 86.7868 30.9397 86.2892 31.1902C85.8019 31.4292 85.2732 31.5488 84.703 31.5488C83.6663 31.5488 82.8473 31.1332 82.246 30.3022V31.2755H79.4312V17.1021H82.246Z" fill="#8697FF"/>
<path d="M91.8693 30.0802L88.0127 22.5153H91.2784L93.4089 27.0064L95.4772 22.5153H98.7118L92.3048 35.6471H89.1479L91.8693 30.0802Z" fill="#8697FF"/>
<path d="M105.326 18.3999L107.348 26.7161L109.836 18.3999H112.262L114.75 26.7161L116.771 18.3999H119.959L116.46 31.2755H113.35L111.049 23.8131L108.747 31.2755H105.637L102.138 18.3999H105.326Z" fill="#8697FF"/>
<path d="M122.079 26.8698C122.079 27.1544 122.126 27.4219 122.219 27.6724C122.312 27.9115 122.437 28.1221 122.592 28.3042C122.758 28.4864 122.95 28.6287 123.168 28.7311C123.396 28.8336 123.639 28.8848 123.899 28.8848C124.147 28.8848 124.381 28.8336 124.598 28.7311C124.826 28.6287 125.018 28.4864 125.174 28.3042C125.34 28.1221 125.469 27.9115 125.563 27.6724C125.666 27.4333 125.718 27.1772 125.718 26.904C125.718 26.6307 125.666 26.3746 125.563 26.1355C125.469 25.8851 125.34 25.6688 125.174 25.4866C125.018 25.3045 124.826 25.1622 124.598 25.0597C124.381 24.9572 124.147 24.906 123.899 24.906C123.639 24.906 123.396 24.9572 123.168 25.0597C122.95 25.1622 122.758 25.3045 122.592 25.4866C122.437 25.6688 122.312 25.8794 122.219 26.1184C122.126 26.3461 122.079 26.5966 122.079 26.8698ZM125.625 22.5153H128.455V31.2755H125.625V30.3022C125.023 31.1332 124.21 31.5488 123.183 31.5488C122.603 31.5488 122.069 31.4349 121.581 31.2072C121.094 30.9682 120.669 30.638 120.306 30.2168C119.943 29.7956 119.658 29.3004 119.451 28.7311C119.254 28.1619 119.156 27.5415 119.156 26.8698C119.156 26.2437 119.254 25.6517 119.451 25.0938C119.648 24.5246 119.923 24.0294 120.275 23.6082C120.628 23.187 121.048 22.8568 121.535 22.6178C122.022 22.3673 122.561 22.2421 123.152 22.2421C124.147 22.2421 124.972 22.6234 125.625 23.3862V22.5153Z" fill="#8697FF"/>
<path d="M132.252 17.1021V31.2755H129.437V17.1021H132.252Z" fill="#8697FF"/>
<path d="M136.057 17.1021V31.2755H133.243V17.1021H136.057Z" fill="#8697FF"/>
<path d="M142.879 25.6232C142.786 25.1906 142.594 24.8434 142.304 24.5816C142.014 24.3197 141.661 24.1888 141.246 24.1888C140.811 24.1888 140.453 24.314 140.173 24.5645C139.904 24.8149 139.733 25.1678 139.66 25.6232H142.879ZM139.582 27.4163C139.582 28.7482 140.153 29.4142 141.293 29.4142C141.905 29.4142 142.366 29.141 142.677 28.5945H145.399C144.849 30.5982 143.475 31.6 141.278 31.6C140.604 31.6 139.987 31.4918 139.427 31.2755C138.867 31.0479 138.385 30.7291 137.981 30.3193C137.587 29.9094 137.281 29.4199 137.063 28.8507C136.846 28.2815 136.737 27.6439 136.737 26.9381C136.737 26.2095 136.84 25.5549 137.048 24.9743C137.255 24.3823 137.55 23.8814 137.934 23.4716C138.318 23.0617 138.779 22.7487 139.318 22.5324C139.868 22.3047 140.484 22.1908 141.169 22.1908C141.843 22.1908 142.449 22.3047 142.988 22.5324C143.527 22.7487 143.983 23.0674 144.357 23.4887C144.73 23.9099 145.015 24.4279 145.212 25.0426C145.409 25.646 145.507 26.329 145.507 27.0918V27.4163H139.582Z" fill="#8697FF"/>
<path d="M149.431 25.0938V31.2755H146.616V25.0938H145.683V22.5153H146.616V19.8855H149.431V22.5153H151.033V25.0938H149.431Z" fill="#8697FF"/>
<defs>
<linearGradient id="paint0_linear_26101_5370" x1="17.9318" y1="23.2663" x2="41.7685" y2="30.0033" gradientUnits="userSpaceOnUse">
<stop stop-color="#8697FF"/>
<stop offset="1" stop-color="#ABB7FF"/>
</linearGradient>
<linearGradient id="paint1_linear_26101_5370" x1="37.7453" y1="22.8118" x2="20.4967" y2="5.57905" gradientUnits="userSpaceOnUse">
<stop stop-color="#8697FF"/>
<stop offset="1" stop-color="#5156D8" stop-opacity="0"/>
</linearGradient>
<linearGradient id="paint2_linear_26101_5370" x1="28.8656" y1="32.4836" x2="12.3245" y2="23.0056" gradientUnits="userSpaceOnUse">
<stop stop-color="#465EED"/>
<stop offset="1" stop-color="#8697FF" stop-opacity="0"/>
</linearGradient>
<linearGradient id="paint3_linear_26101_5370" x1="19.3546" y1="23.0878" x2="30.5629" y2="37.2813" gradientUnits="userSpaceOnUse">
<stop stop-color="#8898FF"/>
<stop offset="0.983895" stop-color="#6277F1"/>
</linearGradient>
</defs>
</svg>
