<svg width="128" height="128" viewBox="0 0 128 128" fill="none" xmlns="http://www.w3.org/2000/svg">
<rect x="0.25" y="0.25" width="127.5" height="127.5" rx="63.75" stroke="#E5E9EF" stroke-width="0.5"/>
<path d="M88.6164 28H55.3938V72.4375H99.9789V39.5594C100 33.3227 94.8812 28 88.6164 28ZM45.1914 28H39.6156C33.3578 28 28 33.0836 28 39.5805V45.1352H45.1914V28ZM28 55.5414H45.1914V72.6766H28V55.5414ZM82.8086 99.9789H88.3773C94.6422 99.9789 100 94.8953 100 88.3984V82.8648H82.8086V99.9789ZM55.3938 82.8578H72.5852V100H55.3938V82.8578ZM28 82.8648V88.4195C28 94.6633 33.0977 100 39.6156 100H45.1914V82.8648H28Z" fill="#142533"/>
</svg>
