<svg width="32" height="32" viewBox="0 0 32 32" fill="none" xmlns="http://www.w3.org/2000/svg">
<path d="M9.05468 16.04C9.05468 13.994 9.05468 11.9475 9.05468 9.90043C9.05468 9.28807 9.25083 9.1597 9.76671 9.47465C11.5464 10.5606 13.4026 11.5127 15.1663 12.6274C15.4574 12.8115 15.7795 12.9463 16.0809 13.1129C16.3201 13.2445 16.5465 13.4064 16.5489 13.7094C16.5513 14.0123 16.3097 14.1264 16.0873 14.2539C15.4199 14.6375 14.7509 15.017 14.0939 15.4189C13.8013 15.5983 13.5533 15.6357 13.2503 15.4332C13.0031 15.2682 12.6922 14.9644 12.4466 15.0927C12.1803 15.2315 12.3669 15.6509 12.3382 15.9435C12.3254 16.169 12.3254 16.395 12.3382 16.6205C12.3453 17.0359 12.4346 17.0909 12.8102 16.8836C13.3069 16.6069 13.8109 16.3318 14.2893 16.0256C15.3649 15.3399 16.4987 14.7547 17.5951 14.1048C18.3485 13.6583 19.1036 13.215 19.8659 12.7836C20.1689 12.6122 20.1051 12.5125 19.8476 12.365C17.9913 11.3067 16.1386 10.2459 14.2893 9.18282C13.7487 8.87185 13.216 8.54494 12.681 8.226C12.4259 8.07291 12.3254 8.14228 12.3334 8.4373C12.3496 8.7425 12.3427 9.0485 12.3126 9.35265C12.2457 9.90362 11.9211 10.0408 11.4579 9.76169C10.7668 9.34388 10.0673 8.93617 9.35927 8.53856C9.26263 8.49443 9.18163 8.42204 9.12697 8.33094C9.07231 8.23984 9.04655 8.1343 9.05309 8.02826C9.05867 7.24447 9.03475 6.45988 9.06266 5.6745C9.08737 4.97044 9.97562 4.12605 10.8112 4.02399C12.0567 3.8717 12.9976 4.4721 13.9926 5.043C15.6607 5.99981 17.3096 6.99251 18.9936 7.92461C20.5269 8.77219 22.0235 9.68595 23.5106 10.618C24.0631 10.9633 24.4466 11.4816 24.3797 12.208C24.3641 12.3404 24.3641 12.4742 24.3797 12.6066C24.5391 13.695 23.9547 14.368 23.1039 14.8687C21.5483 15.7809 19.9783 16.6699 18.4171 17.5733C16.7055 18.5647 14.9957 19.5582 13.2878 20.5538C12.0944 21.2448 10.8984 21.9358 9.69974 22.6269C9.25083 22.8836 9.06186 22.7736 9.06186 22.2649C9.05495 20.1881 9.05256 18.1131 9.05468 16.04Z" fill="white"/>
<path d="M9.05604 25.1829C9.05604 24.9572 9.08953 24.7252 9.05046 24.5059C8.93804 23.8768 9.24501 23.5268 9.76807 23.2549C10.3438 22.9551 10.8939 22.6067 11.4569 22.2805C11.968 21.9847 12.2988 22.1641 12.3339 22.759C12.3499 23.0508 12.3451 23.3434 12.3395 23.636C12.3347 23.9031 12.4192 23.9749 12.6664 23.8306C13.4702 23.3649 14.2811 22.9112 15.0864 22.448C16.2361 21.7857 17.3843 21.1212 18.5309 20.4546C18.9782 20.1955 19.4271 19.9364 19.8776 19.6828C20.1543 19.5233 20.1431 19.3902 19.872 19.2419C19.6005 19.1022 19.3365 18.9483 19.0811 18.781C18.6824 18.5019 18.692 18.1479 19.105 17.8999C19.8449 17.4566 20.5928 17.0268 21.3376 16.5915C21.5058 16.4926 21.7083 16.4232 21.8702 16.5237C22.6524 17.0077 23.5677 17.3043 24.1123 18.1264C24.2806 18.3799 24.3946 18.6303 24.377 18.9397C24.3579 19.1785 24.3579 19.4185 24.377 19.6573C24.4711 20.5439 24.0111 21.13 23.3182 21.5566C22.3334 22.1609 21.3248 22.7239 20.3273 23.3107C17.9648 24.6909 15.5935 26.0512 13.2533 27.4681C12.4017 27.984 11.5127 28.094 10.579 27.9768C9.82468 27.8827 8.96754 26.9307 9.05046 26.1788C9.08634 25.8471 9.05604 25.5154 9.05604 25.1829Z" fill="white"/>
</svg>
