<svg width="32" height="32" viewBox="0 0 32 32" fill="none" xmlns="http://www.w3.org/2000/svg">
<path d="M12.1562 7.13234L15.7715 5.04455C15.8744 4.98515 16.0021 4.98515 16.1051 5.04455L25.6333 10.5457C25.7363 10.6051 25.7996 10.715 25.8006 10.8337L25.8135 14.6173C25.8135 14.7371 25.7501 14.848 25.6461 14.9073L22.0358 16.9922C21.8141 17.1209 21.5359 16.9605 21.5349 16.7041L21.523 13.3086C21.523 13.1898 21.4587 13.0799 21.3557 13.0205L12.1562 7.71047C11.9335 7.58177 11.9335 7.26104 12.1562 7.13234Z" fill="white"/>
<path d="M9.8215 24.2701L6.20722 22.1833C6.10327 22.1239 6.03992 22.014 6.03992 21.8943V10.892C6.03992 10.7732 6.10327 10.6633 6.20623 10.6029L9.477 8.69926C9.58095 8.63888 9.70865 8.63888 9.81161 8.69926L13.4219 10.7841C13.6437 10.9128 13.6447 11.2325 13.4229 11.3622L10.4887 13.0699C10.3858 13.1293 10.3224 13.2391 10.3224 13.3589V23.982C10.3224 24.2394 10.0442 24.3989 9.8215 24.2701Z" fill="white"/>
<path d="M25.8135 17.7197V21.8933C25.8135 22.0131 25.7502 22.123 25.6463 22.1824L16.1181 27.6835C16.0151 27.7429 15.8884 27.7429 15.7854 27.6835L12.5018 25.8026C12.3978 25.7432 12.3335 25.6324 12.3335 25.5125V21.3439C12.3335 21.0875 12.6107 20.9271 12.8334 21.0538L15.7795 22.7417C15.8824 22.8011 16.0092 22.8001 16.1121 22.7417L25.3116 17.4297C25.5344 17.301 25.8126 17.4614 25.8126 17.7188L25.8135 17.7197Z" fill="white"/>
</svg>
