<svg width="32" height="32" viewBox="0 0 32 32" fill="none" xmlns="http://www.w3.org/2000/svg">
<g id="Arbitrum">
<path id="Vector" d="M16 32C24.8366 32 32 24.8366 32 16C32 7.16344 24.8366 0 16 0C7.16344 0 0 7.16344 0 16C0 24.8366 7.16344 32 16 32Z" fill="#8D91AB"/>
<g id="Group 500">
<path id="Union" fill-rule="evenodd" clip-rule="evenodd" d="M24.6629 10.3419C24.5075 10.1932 17.6021 6.17298 16.8048 5.76758C16.4534 5.58514 15.8048 5.53785 15.4332 5.66623C15.0008 5.80812 7.68998 10.0716 7.39268 10.3486C7.24403 10.4905 7.0616 10.727 6.98728 10.8757C6.8589 11.1392 6.85214 11.3216 6.83187 16.1932L6.81836 21.2337L7.75079 21.781C8.2643 22.0783 8.72376 22.3283 8.75754 22.3418C8.83186 22.3621 15.467 11.7946 15.467 11.6527C15.467 11.5513 13.967 11.5716 13.4332 11.6797C12.8791 11.8013 12.3927 12.0446 12.1156 12.3419C12.0008 12.4635 11.0751 13.8554 10.0616 15.4364C9.04808 17.0175 8.19673 18.3351 8.16295 18.3689C8.12916 18.4094 8.10214 16.9432 8.10214 14.9364V11.4365L8.29133 11.2675C8.61565 10.9703 15.798 6.85541 15.9872 6.85541C16.1697 6.85541 16.271 6.90946 17.9332 7.86892C18.494 8.19324 19.994 9.0581 21.2778 9.78783C22.5615 10.5243 23.6764 11.2 23.7642 11.2878L23.9129 11.4567V18.7266L20.3471 13.2515C20.1846 12.9865 20.0151 12.7235 19.9237 12.6015L19.9108 12.5817L19.9093 12.5826C19.8836 12.5496 19.8659 12.5311 19.8588 12.5311C19.8318 12.5378 19.6494 12.8351 18.8318 14.2135C18.7305 14.3824 18.5818 14.6392 18.5075 14.781L18.3656 15.0378L18.3668 15.04L18.3631 15.0422L18.4657 15.2111L18.5413 15.3419C18.5652 15.3829 18.59 15.4214 18.6143 15.4556L18.8508 15.8447C18.88 15.9089 18.9203 15.9813 18.9669 16.0513C19.0751 16.2135 19.2169 16.4432 19.2845 16.5648C19.3016 16.5956 19.32 16.6233 19.3384 16.6472L22.2611 21.4568L21.9129 21.6594C21.7147 21.7716 21.62 21.8217 21.56 21.8246L17.9044 16.1413L17.8115 15.9905L17.4805 16.531L17.4555 16.5724L16.0281 18.8928L16.0242 18.8956L18.8795 23.3841C18.5166 23.6686 16.1041 25.3232 15.948 25.3232C15.7724 25.3232 12.6156 23.1526 12.6562 23.0783C12.6706 23.0495 13.6443 21.3975 14.8269 19.3911L14.8287 19.3881C15.865 17.6301 17.0612 15.6005 17.9129 14.1527C18.9264 12.4365 19.3453 11.673 19.2778 11.6527C19.2305 11.6324 18.5548 11.6257 17.7845 11.6392L16.3791 11.6594L13.1359 17.004C11.9418 18.9761 10.8628 20.7544 10.2555 21.7551L10.2541 21.7574C9.95515 22.2501 9.77078 22.554 9.74402 22.5986L9.59537 22.8418L12.1089 24.2878C13.494 25.085 14.8116 25.835 15.048 25.9634C15.5413 26.2269 16.1089 26.3148 16.5075 26.1796C16.771 26.0986 24.1967 21.8216 24.5683 21.5445C24.6831 21.4567 24.8791 21.1932 24.9939 20.9567L25.1966 20.5378L25.1831 15.8418L25.1629 11.1459L25.0007 10.8284C24.9129 10.6527 24.7575 10.4297 24.6629 10.3419ZM23.907 18.8198L23.9129 18.8283V18.816L23.907 18.8198Z" fill="white"/>
<path id="Vector 10" d="M24.0497 18.9175L19.8629 12.4961L18.2949 15.0127L22.3433 21.6938L24.1179 20.8405L24.0497 18.9175Z" fill="white"/>
<path id="Vector 11" d="M22.0095 22.4214L17.8228 16L16.0215 18.8729L19.3819 24.2527L21.5306 23.3803L22.0095 22.4214Z" fill="white"/>
<path id="Subtract" fill-rule="evenodd" clip-rule="evenodd" d="M8.17373 11.494L15.9996 6.98539L23.8254 11.494V20.5058L15.9996 25.0144L10.2547 21.7046L9.48927 22.9541L15.7845 26.5809C15.9176 26.6576 16.0815 26.6576 16.2146 26.5809L25.0744 21.4766C25.2079 21.3997 25.2901 21.2574 25.2901 21.1033V10.8964C25.2901 10.7423 25.2079 10.6 25.0744 10.5231L16.2146 5.41885C16.0815 5.34216 15.9176 5.34216 15.7845 5.41885L6.92473 10.5231C6.79125 10.6 6.70898 10.7423 6.70898 10.8964V21.1033C6.70898 21.2574 6.79125 21.3997 6.92473 21.4766L8.6956 22.4969L9.4845 21.2609L8.17373 20.5058V11.494Z" fill="white"/>
<path id="Vector 12" d="M19.4033 11.5938L16.3802 11.6367L9.48828 22.9593L11.9198 24.3671L19.4033 11.5938Z" fill="white"/>
<path id="Vector 14" d="M11.8961 12.6255C12.5864 11.4963 14.5632 11.5009 15.4653 11.6444L8.69274 22.4947C8.46275 22.3623 7.89238 22.0343 7.4508 21.7812C6.86732 21.4468 6.77093 21.4379 6.70898 21.1283V20.5277C8.1504 18.3642 11.2058 13.7548 11.8961 12.6255Z" fill="white"/>
</g>
</g>
</svg>
