<svg width="14" height="12" viewBox="0 0 14 12" fill="none" xmlns="http://www.w3.org/2000/svg">
<path d="M7.38455 9.57949C7.38455 9.66457 7.31542 9.73417 7.22939 9.73417C7.14335 9.73417 7.07422 9.66457 7.07422 9.57949C7.07422 9.49441 7.14335 9.4248 7.22939 9.4248C7.31542 9.4248 7.38455 9.49441 7.38455 9.57949Z" fill="#FF9416" stroke="#FF9416" stroke-width="0.9375"/>
<path d="M7.22656 5V7.95774V5Z" fill="white"/>
<path d="M7.22656 5V7.95774" stroke="#FF9416" stroke-width="0.9375" stroke-linecap="round" stroke-linejoin="round"/>
<path d="M7.46418 1.78805L12.6909 10.7481C12.8853 11.0814 12.6449 11.5 12.259 11.5H2.17895C1.80006 11.5 1.55884 11.095 1.7393 10.7619L6.59264 1.80184C6.77837 1.45895 7.26769 1.45121 7.46418 1.78805Z" stroke="#FF9416"/>
</svg>
