<svg width="28" height="28" viewBox="0 0 28 28" fill="none" xmlns="http://www.w3.org/2000/svg">
<path d="M14 28C21.7319 28 28 21.7319 28 14C28 6.26801 21.7319 0 14 0C6.26801 0 0 6.26801 0 14C0 21.7319 6.26801 28 14 28Z" fill="#11171D"/>
<path d="M14.4541 4.375V9.14987L18.5998 6.7655L14.4541 4.375Z" fill="#1BD1AF"/>
<path opacity="0.9" d="M18.5996 6.7655V11.5404L22.7444 9.14987L18.5996 6.7655Z" fill="#1BD1AF"/>
<path opacity="0.8" d="M14.4541 9.1499V13.9248L18.5998 11.5404L14.4541 9.1499ZM18.5998 11.5413V16.3153L22.7448 13.9248L18.5998 11.5413Z" fill="#1BD1AF"/>
<path opacity="0.8" d="M14.4541 13.9247V18.6997L18.5998 16.3153L14.4541 13.9247Z" fill="#1BD1AF"/>
<path d="M18.5996 16.3152V21.0902L22.7444 18.6997L18.5996 16.3152Z" fill="#1BD1AF"/>
<path opacity="0.4" d="M3.73926 8.98889V13.7638L7.88501 11.3733L3.73926 8.98889Z" fill="#1BD1AF"/>
<path opacity="0.2" d="M8.96875 10.7642V15.5391L13.1075 13.1547L8.96875 10.7642Z" fill="#1BD1AF"/>
<path opacity="0.3" d="M5.89551 13.7839V18.5587L10.0404 16.1682L5.89551 13.7839Z" fill="#1BD1AF"/>
<path opacity="0.9" d="M8.62793 17.3871V22.162L12.7667 19.7715L8.62793 17.3871Z" fill="#1BD1AF"/>
<path opacity="0.7" d="M14.4199 19.4425V24.2183L18.5587 21.8268L14.4199 19.4425Z" fill="#1BD1AF"/>
<path opacity="0.9" d="M9.65918 8.40613V13.1819L13.7979 10.7975L9.65918 8.40613Z" fill="#1BD1AF"/>
<path opacity="0.8" d="M14.4544 4.375V9.14987L10.3086 6.7655L14.4544 4.375Z" fill="#1BD1AF"/>
<path opacity="0.6" d="M9.65933 6.40503V11.179L5.5127 8.78853L9.65933 6.40503Z" fill="#1BD1AF"/>
<path opacity="0.6" d="M13.8049 8.76752V13.5433L9.65918 11.1519L13.8049 8.76752Z" fill="#1BD1AF"/>
<path opacity="0.95" d="M8.94946 10.7642V15.5391L4.80371 13.1547L8.94946 10.7642Z" fill="#1BD1AF"/>
<path opacity="0.6" d="M14.4542 13.9247V18.6997L10.3154 16.3153L14.4542 13.9247Z" fill="#1BD1AF"/>
<path opacity="0.55" d="M5.89575 15.0369V19.8118L1.75 17.4204L5.89575 15.0369Z" fill="#1BD1AF"/>
<path d="M22.7444 9.1499V13.9248L18.5996 11.5404L22.7444 9.1499Z" fill="#1BD1AF"/>
<path opacity="0.95" d="M18.5998 11.5413V16.3153L14.4541 13.9248L18.5998 11.5413Z" fill="#1BD1AF"/>
<path opacity="0.9" d="M22.7444 13.9247V18.6997L18.5996 16.3153L22.7444 13.9247Z" fill="#1BD1AF"/>
<path opacity="0.7" d="M18.5998 16.3152V21.0902L14.4541 18.6997L18.5998 16.3152Z" fill="#1BD1AF"/>
<path opacity="0.4" d="M13.5365 18.305V23.0798L9.3916 20.6955L13.5365 18.305Z" fill="#1BD1AF"/>
<path d="M18.5998 6.7655V11.5404L14.4541 9.14987L18.5998 6.7655Z" fill="#1BD1AF"/>
</svg>
