<svg width="20" height="20" viewBox="0 0 20 20" fill="none" xmlns="http://www.w3.org/2000/svg">
<path opacity="0.8" d="M8.5 14.86C10.3557 14.86 11.86 13.3557 11.86 11.5C11.86 9.64432 10.3557 8.14 8.5 8.14C6.64432 8.14 5.14 9.64432 5.14 11.5C5.14 13.3557 6.64432 14.86 8.5 14.86ZM8.5 16C6.0148 16 4 13.9852 4 11.5C4 9.0148 6.0148 7 8.5 7C10.9852 7 13 9.0148 13 11.5C13 13.9852 10.9852 16 8.5 16Z" fill="white"/>
<path d="M11.5 11.86C13.3557 11.86 14.86 10.3557 14.86 8.5C14.86 6.64432 13.3557 5.14 11.5 5.14C9.64432 5.14 8.14 6.64432 8.14 8.5C8.14 10.3557 9.64432 11.86 11.5 11.86ZM11.5 13C9.0148 13 7 10.9852 7 8.5C7 6.0148 9.0148 4 11.5 4C13.9852 4 16 6.0148 16 8.5C16 10.9852 13.9852 13 11.5 13Z" fill="white"/>
</svg>
