<svg width="100" height="100" viewBox="0 0 100 100" fill="none" xmlns="http://www.w3.org/2000/svg">
<rect width="100" height="100" rx="50" />
<path d="M41.6176 25L39.4118 31.25H46.4706V44.5833H54.4118V25H41.6176Z" fill="#4B4D59"/>
<path fill-rule="evenodd" clip-rule="evenodd" d="M65 60.8333C65 68.6574 58.2843 75 50 75C41.7157 75 35 68.6574 35 60.8333C35 53.0093 41.7157 46.6667 50 46.6667C58.2843 46.6667 65 53.0093 65 60.8333ZM57.9412 60.8333C57.9412 64.9755 54.3858 68.3333 50 68.3333C45.6142 68.3333 42.0588 64.9755 42.0588 60.8333C42.0588 56.6912 45.6142 53.3333 50 53.3333C54.3858 53.3333 57.9412 56.6912 57.9412 60.8333Z" fill="#4B4D59"/>
</svg>
