<svg width="21" height="20" viewBox="0 0 21 20" fill="none" xmlns="http://www.w3.org/2000/svg">
<path d="M16.75 8.50651C16.75 3.29952 16.75 4.17318 16.75 4.17318C16.75 3.71294 16.3769 3.33984 15.9167 3.33984H5.08333C4.6231 3.33984 4.25 3.71294 4.25 4.17318V17.5065C4.25 17.9667 4.6231 18.3398 5.08333 18.3398H8.5" stroke="#AF160E" stroke-width="1.25" stroke-linecap="round" stroke-linejoin="round"/>
<path fill-rule="evenodd" clip-rule="evenodd" d="M14.4571 19.1642C16.2973 19.1642 17.7892 17.6723 17.7892 15.8321C17.7892 13.9918 16.2973 12.5 14.4571 12.5C12.6168 12.5 11.125 13.9918 11.125 15.8321C11.125 17.6723 12.6168 19.1642 14.4571 19.1642Z" stroke="#AF160E" stroke-width="1.125" stroke-linecap="round" stroke-linejoin="round"/>
<path d="M12.959 14.3359L15.9579 17.3348" stroke="#AF160E" stroke-width="1.125" stroke-linecap="round" stroke-linejoin="round"/>
<path d="M8 1.66016V4.16016" stroke="#AF160E" stroke-width="1.25" stroke-linecap="round" stroke-linejoin="round"/>
<path d="M13 1.66016V4.16016" stroke="#AF160E" stroke-width="1.25" stroke-linecap="round" stroke-linejoin="round"/>
<path d="M7.16992 6.91406H13.8366" stroke="#AF160E" stroke-width="1.25" stroke-linecap="round" stroke-linejoin="round"/>
<path d="M7.16992 10.2539H10.1699" stroke="#AF160E" stroke-width="1.25" stroke-linecap="round" stroke-linejoin="round"/>
</svg>
