<svg xmlns="http://www.w3.org/2000/svg" width="32" height="32" viewBox="0 0 32 32" fill="none">
  <g clip-path="url(#clip0_98020_45267)">
    <path d="M14.7269 4.49258C15.2538 3.75926 16.3448 3.75926 16.8717 4.49258L30.307 23.1922C30.9347 24.0658 30.3103 25.2832 29.2346 25.2832H2.36398C1.28826 25.2832 0.663915 24.0658 1.29159 23.1922L14.7269 4.49258Z" fill="currentColor"/>
    <path fill-rule="evenodd" clip-rule="evenodd" d="M15.8057 20.8457C16.3153 20.8457 16.7285 20.4325 16.7285 19.9228C16.7285 19.4132 16.3153 19 15.8057 19C15.296 19 14.8828 19.4132 14.8828 19.9228C14.8828 20.4325 15.296 20.8457 15.8057 20.8457Z" fill="white"/>
    <path d="M15.8203 11V16.9062V11Z" fill="white"/>
    <path d="M15.8203 11V16.9062" stroke="white" stroke-width="1.47655" stroke-linecap="round" stroke-linejoin="round"/>
  </g>
  <defs>
    <clipPath id="clip0_98020_45267">
      <rect width="32" height="32" fill="white"/>
    </clipPath>
  </defs>
</svg>
