<svg width="13" height="12" viewBox="0 0 13 12" fill="none" xmlns="http://www.w3.org/2000/svg">
<path d="M1 0.5C1 0.223858 1.22386 0 1.5 0H3.5C3.77614 0 4 0.223858 4 0.5V10H1V0.5Z" fill="#8697FF"/>
<path d="M5 3.5C5 3.22386 5.22386 3 5.5 3H7.5C7.77614 3 8 3.22386 8 3.5V10H5V3.5Z" fill="#8697FF"/>
<path d="M9 6.5C9 6.22386 9.22386 6 9.5 6H11.5C11.7761 6 12 6.22386 12 6.5V10H9V6.5Z" fill="#8697FF"/>
<path d="M0 11.5C0 11.2239 0.223858 11 0.5 11H12.5C12.7761 11 13 11.2239 13 11.5C13 11.7761 12.7761 12 12.5 12H0.5C0.223858 12 0 11.7761 0 11.5Z" fill="#8697FF"/>
</svg>
