<svg width="48" height="48" viewBox="0 0 48 48" fill="none" xmlns="http://www.w3.org/2000/svg">
<path d="M35.0767 17.5391C35.0767 10.9117 30.1173 5.53906 23.9998 5.53906C17.8822 5.53906 12.9229 10.9117 12.9229 17.5391" stroke="#6A7587" stroke-width="4" stroke-linecap="round" stroke-linejoin="round"/>
<path d="M15.6 42H32.4C35.7604 42 37.4404 42 38.724 41.2152C39.853 40.525 40.7708 39.4236 41.346 38.0688C42 36.5285 42 34.5125 42 30.48V29.52C42 25.4875 42 23.4715 41.346 21.9312C40.7708 20.5764 39.853 19.475 38.724 18.7848C37.4404 18 35.7604 18 32.4 18H15.6C12.2397 18 10.5595 18 9.27606 18.7848C8.14708 19.475 7.2292 20.5764 6.65396 21.9312C6 23.4715 6 25.4875 6 29.52V30.48C6 34.5125 6 36.5285 6.65396 38.0688C7.2292 39.4236 8.14708 40.525 9.27606 41.2152C10.5595 42 12.2397 42 15.6 42Z" fill="#6A7587" stroke="#6A7587" stroke-width="4" stroke-linecap="round" stroke-linejoin="round"/>
<path d="M23.9265 33.5909C22.99 33.5909 22.4392 32.9643 22.4392 32.0784V31.9271C22.4392 30.6523 23.1112 29.8096 24.4112 29.0642C25.8324 28.2323 26.2621 27.6922 26.2621 26.6982C26.2621 25.6395 25.4248 24.9049 24.2129 24.9049C23.1332 24.9049 22.4061 25.4234 22.0536 26.3849C21.7782 27.0764 21.2824 27.3789 20.6104 27.3789C19.74 27.3789 19.2002 26.8495 19.2002 26.0284C19.2002 25.5639 19.3104 25.1533 19.5307 24.7428C20.2358 23.3167 21.9985 22.3984 24.3671 22.3984C27.496 22.3984 29.6002 24.0838 29.6002 26.601C29.6002 28.2323 28.796 29.3451 27.2426 30.2418C25.7773 31.0737 25.4468 31.5382 25.3036 32.4457C25.1383 33.1695 24.7087 33.5909 23.9265 33.5909ZM23.9485 38.3984C22.957 38.3984 22.1527 37.653 22.1527 36.7023C22.1527 35.7516 22.957 35.0061 23.9485 35.0061C24.951 35.0061 25.7553 35.7516 25.7553 36.7023C25.7553 37.653 24.951 38.3984 23.9485 38.3984Z" fill="white"/>
</svg>
