<svg xmlns="http://www.w3.org/2000/svg" width="48" height="48" viewBox="0 0 48 48" fill="none">
<path d="M35.0757 17.5391C35.0757 10.9117 30.1164 5.53906 23.9988 5.53906C17.8812 5.53906 12.9219 10.9117 12.9219 17.5391" stroke="#2ABB7F" stroke-width="4" stroke-linecap="round" stroke-linejoin="round"/>
<path d="M15.6 42H32.4C35.7604 42 37.4404 42 38.724 41.2152C39.853 40.525 40.7708 39.4236 41.346 38.0688C42 36.5285 42 34.5125 42 30.48V29.52C42 25.4875 42 23.4715 41.346 21.9312C40.7708 20.5764 39.853 19.475 38.724 18.7848C37.4404 18 35.7604 18 32.4 18H15.6C12.2397 18 10.5595 18 9.27606 18.7848C8.14708 19.475 7.2292 20.5764 6.65396 21.9312C6 23.4715 6 25.4875 6 29.52V30.48C6 34.5125 6 36.5285 6.65396 38.0688C7.2292 39.4236 8.14708 40.525 9.27606 41.2152C10.5595 42 12.2397 42 15.6 42Z" fill="#2ABB7F" stroke="#2ABB7F" stroke-width="4" stroke-linecap="round" stroke-linejoin="round"/>
<path d="M18 31L22.3333 35L31 27" stroke="white" stroke-width="4" stroke-linecap="round" stroke-linejoin="round"/>
</svg>
