<svg width="63" height="63" viewBox="0 0 63 63" fill="none" xmlns="http://www.w3.org/2000/svg">
<rect x="0.75" y="0.75" width="58.5" height="58.5" rx="29.25" fill="#7084FF"/>
<rect x="0.75" y="0.75" width="58.5" height="58.5" rx="29.25" stroke="white" stroke-width="1.5"/>
<path d="M49.5682 32.4815C51.1205 29.0019 43.4461 19.2804 36.1145 15.2302C31.4931 12.0926 26.6776 12.5237 25.7023 13.9013C23.562 16.9247 32.7896 19.4865 38.9609 22.4761C37.6343 23.0542 36.3842 24.0916 35.6491 25.4184C33.3484 22.8981 28.2986 20.7279 22.3733 22.4761C18.3803 23.6541 15.0619 26.4315 13.7793 30.6264C13.4677 30.4874 13.1226 30.4102 12.7596 30.4102C11.3714 30.4102 10.2461 31.5393 10.2461 32.9322C10.2461 34.325 11.3714 35.4542 12.7596 35.4542C13.0169 35.4542 13.8214 35.281 13.8214 35.281L26.6776 35.3745C21.5361 43.5584 17.4729 44.7547 17.4729 46.1725C17.4729 47.5904 21.3607 47.2062 22.8205 46.6777C29.8085 44.1477 37.3141 36.2629 38.602 33.9931C44.0106 34.6702 48.556 34.7503 49.5682 32.4815Z" fill="url(#paint0_linear_114882_43582)"/>
<path fill-rule="evenodd" clip-rule="evenodd" d="M38.9315 22.4647C38.9413 22.469 38.9511 22.4732 38.9608 22.4775C39.2468 22.3644 39.2006 21.9405 39.122 21.6077C38.9415 20.8425 35.8266 17.7563 32.9016 16.374C28.9149 14.4899 25.9794 14.5875 25.5469 15.4562C26.3572 17.1264 30.1222 18.6944 34.0545 20.3321C35.7208 21.0261 37.4172 21.7326 38.9315 22.4647Z" fill="url(#paint1_linear_114882_43582)"/>
<path fill-rule="evenodd" clip-rule="evenodd" d="M33.904 39.2803C33.0976 38.9709 32.1865 38.6872 31.1506 38.4297C32.2544 36.448 32.486 33.5143 31.4436 31.6595C29.9806 29.0564 28.1442 27.6709 23.8768 27.6709C21.5297 27.6709 15.2103 28.4641 15.0981 33.7572C15.0863 34.3136 15.0979 34.8234 15.1381 35.2922L26.6771 35.3761C25.1222 37.8511 23.6659 39.6871 22.3908 41.0833C23.9216 41.4769 25.185 41.8074 26.345 42.1108C27.4467 42.399 28.4551 42.6627 29.5107 42.933C31.1016 41.7698 32.5972 40.5015 33.904 39.2803Z" fill="url(#paint2_linear_114882_43582)"/>
<path d="M13.6253 34.7496C14.0967 38.7705 16.3742 40.3463 21.028 40.8126C25.6818 41.279 28.3513 40.9661 31.9053 41.2906C34.8736 41.5615 37.5239 43.0793 38.5072 42.5548C39.392 42.0828 38.897 40.3774 37.7129 39.2833C36.1781 37.8651 34.054 36.8791 30.3164 36.5292C31.0612 34.4828 30.8525 31.6137 29.6957 30.0526C28.023 27.7956 24.9356 26.7751 21.028 27.2209C16.9455 27.6868 13.0337 29.7035 13.6253 34.7496Z" fill="url(#paint3_linear_114882_43582)"/>
<rect x="39.75" y="39.75" width="22.5" height="22.5" rx="11.25" fill="#2ABB7F"/>
<rect x="39.75" y="39.75" width="22.5" height="22.5" rx="11.25" stroke="white" stroke-width="1.5"/>
<g clip-path="url(#clip0_114882_43582)">
<path d="M56.25 50.25C56.0895 49.1163 55.5538 48.0658 54.7253 47.2604C53.8968 46.455 52.8216 45.9394 51.6652 45.7929C50.5089 45.6464 49.3355 45.8773 48.3259 46.4498C47.3163 47.0224 46.5265 47.905 46.0781 48.9615M45.75 46.3846V48.9615H48.375" stroke="white" stroke-width="1.5" stroke-linecap="round" stroke-linejoin="round"/>
<path d="M45.75 51.75C45.9105 52.8837 46.4462 53.9342 47.2747 54.7396C48.1032 55.545 49.1784 56.0606 50.3348 56.2071C51.4911 56.3536 52.6645 56.1227 53.6741 55.5502C54.6837 54.9776 55.4735 54.095 55.9219 53.0385M56.25 55.6154V53.0385H53.625" stroke="white" stroke-width="1.5" stroke-linecap="round" stroke-linejoin="round"/>
</g>
<defs>
<linearGradient id="paint0_linear_114882_43582" x1="21.9083" y1="29.4001" x2="49.2476" y2="37.1269" gradientUnits="userSpaceOnUse">
<stop stop-color="white"/>
<stop offset="1" stop-color="white"/>
</linearGradient>
<linearGradient id="paint1_linear_114882_43582" x1="44.6324" y1="28.8795" x2="24.8492" y2="9.11387" gradientUnits="userSpaceOnUse">
<stop stop-color="#8697FF"/>
<stop offset="1" stop-color="#8697FF" stop-opacity="0"/>
</linearGradient>
<linearGradient id="paint2_linear_114882_43582" x1="34.4528" y1="39.971" x2="15.4799" y2="29.099" gradientUnits="userSpaceOnUse">
<stop stop-color="#8697FF"/>
<stop offset="1" stop-color="#8697FF" stop-opacity="0"/>
</linearGradient>
<linearGradient id="paint3_linear_114882_43582" x1="23.5397" y1="29.1985" x2="36.395" y2="45.4776" gradientUnits="userSpaceOnUse">
<stop stop-color="white"/>
<stop offset="0.983895" stop-color="#D1D8FF"/>
</linearGradient>
<clipPath id="clip0_114882_43582">
<rect width="18" height="18" fill="white" transform="translate(42 42)"/>
</clipPath>
</defs>
</svg>
