<svg width="28" height="28" viewBox="0 0 28 28" fill="none" xmlns="http://www.w3.org/2000/svg">
<g clip-path="url(#clip0_12572_5334)">
<path opacity="0.2" d="M21.0754 12.7707V16.4343C21.0754 16.4343 21.0754 17.1745 20.8738 18.1149C20.6722 18.9887 20.2352 20.1987 19.2606 21.207C18.0515 22.4506 16.2692 23.0892 13.9835 23.0892C11.7316 23.0892 9.98386 22.4506 8.74022 21.207C7.73199 20.1987 7.29499 18.9215 7.09339 18.0485C6.85799 17.0739 6.89179 16.3343 6.89179 16.3008V12.7372C9.88294 12.7707 21.0754 12.7707 21.0754 12.7707V12.7707ZM21.0754 11.3926H6.89179C6.11871 11.3926 5.51367 11.9976 5.51367 12.7707V16.2993C5.51367 16.4002 5.51367 17.274 5.74883 18.3831C5.98423 19.4252 6.55547 20.9713 7.76554 22.215C9.24434 23.7273 11.3284 24.5004 13.9837 24.5004C16.639 24.5004 18.7562 23.7278 20.2342 22.2155C21.4433 20.9718 21.982 19.4928 22.2172 18.4845C22.4861 17.4089 22.4526 16.6023 22.4526 16.4678V12.8048C22.4526 12.0317 21.8475 11.3931 21.0744 11.3931L21.0754 11.3926ZM22.2855 13.7454H21.5124V15.1243H22.2855C23.3273 15.1243 24.2013 15.0233 24.2013 16.0654V17.9126C24.2013 18.9546 23.3273 19.8284 22.2855 19.8284H21.1425C21.0083 20.2654 20.8403 20.7359 20.6049 21.2065H22.2855C24.1004 21.2065 25.5792 19.7277 25.5792 17.9126V16.0646C25.5792 14.2495 25.0079 13.7454 22.2855 13.7454V13.7454ZM10.2193 10.586C9.9503 10.586 9.7149 10.4515 9.61422 10.2158C9.57411 10.1365 9.55012 10.0499 9.54363 9.96121C9.53714 9.87251 9.54828 9.7834 9.5764 9.69903C9.60453 9.61466 9.64908 9.53669 9.7075 9.46962C9.76591 9.40255 9.83703 9.34772 9.91674 9.30828C10.0174 9.24116 10.3873 9.00576 10.4209 8.73704C10.4544 8.46833 10.2193 8.0982 9.78226 7.72856C8.9762 7.02284 8.60648 6.28341 8.6731 5.51025C8.77378 4.39986 9.78226 3.76249 9.8822 3.69537C10.2185 3.49353 10.6225 3.59445 10.8233 3.93053C11.0242 4.26661 10.9242 4.67079 10.5882 4.87165C10.5882 4.87165 10.0502 5.20773 10.0167 5.64473C9.98312 6.04817 10.3528 6.45136 10.6553 6.72033C11.4957 7.4596 11.8654 8.19904 11.7644 8.93864C11.63 9.98043 10.6217 10.5179 10.5208 10.5519C10.4209 10.5524 10.3199 10.586 10.2193 10.586V10.586ZM14.3862 10.7876C14.1172 10.7876 13.8821 10.6533 13.7811 10.4174C13.7411 10.338 13.7171 10.2515 13.7106 10.1628C13.7042 10.0741 13.7153 9.98503 13.7434 9.90066C13.7716 9.81629 13.8161 9.73833 13.8745 9.67126C13.9329 9.60419 14.004 9.54934 14.0837 9.50987C14.1846 9.44276 14.5542 9.2076 14.5878 8.93864C14.6213 8.66968 14.3862 8.30004 13.9492 7.93016C13.1431 7.22444 12.7734 6.48509 12.84 5.71209C12.941 4.6017 13.9492 3.96409 14.0491 3.89697C14.3852 3.69537 14.7894 3.79605 14.9902 4.13237C15.1911 4.4687 15.0909 4.87264 14.7548 5.07325C14.7548 5.07325 14.2172 5.40957 14.1836 5.84632C14.1498 6.24977 14.5197 6.65296 14.8222 6.92192C15.6623 7.66218 16.0324 8.40162 15.9326 9.14024C15.7981 10.1823 14.7896 10.7195 14.689 10.7535C14.5885 10.754 14.4876 10.7876 14.3862 10.7876V10.7876ZM18.0169 10.7876C17.748 10.7876 17.5128 10.6533 17.4119 10.4174C17.3718 10.338 17.3478 10.2515 17.3414 10.1628C17.3349 10.0741 17.346 9.98503 17.3742 9.90066C17.4023 9.81629 17.4468 9.73833 17.5052 9.67126C17.5636 9.60419 17.6347 9.54934 17.7144 9.50987C17.8153 9.44276 18.185 9.2076 18.2185 8.93864C18.2521 8.66968 18.0169 8.30004 17.5799 7.93016C16.7739 7.22444 16.4041 6.48509 16.4708 5.71209C16.5717 4.6017 17.5799 3.96409 17.6799 3.89697C18.0159 3.69537 18.4201 3.79605 18.621 4.13237C18.8218 4.4687 18.7216 4.87264 18.3856 5.07325C18.3856 5.07325 17.8479 5.40957 17.8141 5.84632C17.7805 6.24977 18.1504 6.65296 18.4527 6.92192C19.2931 7.66218 19.6628 8.40162 19.5618 9.14024C19.4276 10.1823 18.4191 10.7195 18.3185 10.7535C18.2185 10.754 18.1176 10.7876 18.0169 10.7876V10.7876Z" fill="url(#paint0_linear_12572_5334)"/>
<path d="M20.0295 11.7238V15.3874C20.0295 15.3874 20.0295 16.1277 19.8279 17.068C19.6263 17.9418 19.1893 19.1519 18.2147 20.1601C17.0056 21.4037 15.2233 22.0423 12.9376 22.0423C10.6857 22.0423 8.93796 21.4037 7.69432 20.1601C6.68609 19.1519 6.24909 17.8747 6.04749 17.0017C5.81209 16.027 5.84589 15.2875 5.84589 15.2539V11.6903C8.83704 11.7238 20.0295 11.7238 20.0295 11.7238V11.7238ZM20.0295 10.3457H5.84589C5.07281 10.3457 4.46777 10.9508 4.46777 11.7238V15.2524C4.46777 15.3533 4.46777 16.2271 4.70293 17.3363C4.93833 18.3783 5.50957 19.9244 6.71965 21.1681C8.19844 22.6804 10.2825 23.4535 12.9378 23.4535C15.5931 23.4535 17.7103 22.6809 19.1883 21.1686C20.3974 19.9249 20.9361 18.4459 21.1713 17.4377C21.4402 16.3621 21.4067 15.5554 21.4067 15.421V11.7579C21.4067 10.9848 20.8016 10.3462 20.0285 10.3462L20.0295 10.3457ZM21.2396 12.6985H20.4665V14.0774H21.2396C22.2814 14.0774 23.1554 13.9765 23.1554 15.0185V16.8657C23.1554 17.9077 22.2814 18.7815 21.2396 18.7815H20.0966C19.9624 19.2185 19.7944 19.689 19.559 20.1596H21.2396C23.0545 20.1596 24.5333 18.6808 24.5333 16.8657V15.0178C24.5333 13.2026 23.962 12.6985 21.2396 12.6985V12.6985ZM9.17336 9.53909C8.9044 9.53909 8.669 9.40461 8.56832 9.16896C8.52822 9.08958 8.50422 9.00304 8.49773 8.91434C8.49124 8.82564 8.50238 8.73653 8.53051 8.65215C8.55863 8.56778 8.60319 8.48981 8.6616 8.42274C8.72001 8.35568 8.79113 8.30084 8.87084 8.2614C8.97152 8.19428 9.3414 7.95888 9.37496 7.69017C9.40852 7.42145 9.17336 7.05132 8.73636 6.68168C7.9303 5.97597 7.56058 5.23653 7.62721 4.46337C7.72788 3.35298 8.73636 2.71562 8.8363 2.6485C9.17262 2.44665 9.57656 2.54758 9.77742 2.88366C9.97827 3.21973 9.87834 3.62392 9.54226 3.82477C9.54226 3.82477 9.00434 4.16085 8.97078 4.59785C8.93722 5.00129 9.30686 5.40449 9.60938 5.67345C10.4498 6.41272 10.8195 7.15216 10.7185 7.89176C10.5841 8.93356 9.57582 9.47099 9.4749 9.50504C9.37496 9.50553 9.27404 9.53909 9.17336 9.53909V9.53909ZM13.3403 9.74069C13.0713 9.74069 12.8362 9.60645 12.7352 9.37056C12.6952 9.29117 12.6712 9.20463 12.6647 9.11594C12.6583 9.02725 12.6694 8.93815 12.6975 8.85378C12.7257 8.76942 12.7702 8.69145 12.8286 8.62438C12.887 8.55731 12.9581 8.50246 13.0378 8.463C13.1387 8.39588 13.5083 8.16072 13.5419 7.89176C13.5754 7.6228 13.3403 7.25317 12.9033 6.88328C12.0972 6.17757 11.7275 5.43821 11.7941 4.66522C11.8951 3.55482 12.9033 2.91721 13.0032 2.8501C13.3393 2.6485 13.7435 2.74917 13.9443 3.0855C14.1452 3.42182 14.045 3.82576 13.7089 4.02637C13.7089 4.02637 13.1713 4.3627 13.1377 4.79945C13.1039 5.20289 13.4738 5.60609 13.7763 5.87505C14.6164 6.61531 14.9865 7.35475 14.8867 8.09336C14.7522 9.1354 13.7437 9.67258 13.6431 9.70664C13.5426 9.70713 13.4417 9.74069 13.3403 9.74069V9.74069ZM16.971 9.74069C16.7021 9.74069 16.4669 9.60645 16.366 9.37056C16.3259 9.29117 16.3019 9.20463 16.2955 9.11594C16.289 9.02725 16.3001 8.93815 16.3283 8.85378C16.3564 8.76942 16.4009 8.69145 16.4593 8.62438C16.5177 8.55731 16.5888 8.50246 16.6685 8.463C16.7694 8.39588 17.1391 8.16072 17.1726 7.89176C17.2062 7.6228 16.971 7.25317 16.534 6.88328C15.728 6.17757 15.3582 5.43821 15.4249 4.66522C15.5258 3.55482 16.534 2.91721 16.634 2.8501C16.97 2.6485 17.3742 2.74917 17.5751 3.0855C17.7759 3.42182 17.6757 3.82576 17.3397 4.02637C17.3397 4.02637 16.802 4.3627 16.7682 4.79945C16.7346 5.20289 17.1045 5.60609 17.4068 5.87505C18.2472 6.61531 18.6169 7.35475 18.5159 8.09336C18.3817 9.1354 17.3732 9.67258 17.2726 9.70664C17.1726 9.70713 17.0717 9.74069 16.971 9.74069V9.74069Z" fill="url(#paint1_linear_12572_5334)"/>
<mask id="mask0_12572_5334" style="mask-type:alpha" maskUnits="userSpaceOnUse" x="4" y="2" width="21" height="22">
<path d="M20.0305 11.7238V15.3874C20.0305 15.3874 20.0305 16.1277 19.8289 17.068C19.6273 17.9418 19.1903 19.1519 18.2156 20.1601C17.0065 21.4037 15.2242 22.0423 12.9386 22.0423C10.6867 22.0423 8.93894 21.4037 7.6953 20.1601C6.68706 19.1519 6.25006 17.8747 6.04847 17.0017C5.81306 16.027 5.84687 15.2875 5.84687 15.2539V11.6903C8.83801 11.7238 20.0305 11.7238 20.0305 11.7238V11.7238ZM20.0305 10.3457H5.84687C5.07379 10.3457 4.46875 10.9508 4.46875 11.7238V15.2524C4.46875 15.3533 4.46875 16.2271 4.70391 17.3363C4.93931 18.3783 5.51054 19.9244 6.72062 21.1681C8.19942 22.6804 10.2835 23.4535 12.9388 23.4535C15.5941 23.4535 17.7113 22.6809 19.1893 21.1686C20.3984 19.9249 20.9371 18.4459 21.1722 17.4377C21.4412 16.3621 21.4076 15.5554 21.4076 15.421V11.7579C21.4076 10.9848 20.8026 10.3462 20.0295 10.3462L20.0305 10.3457ZM21.2406 12.6985H20.4675V14.0774H21.2406C22.2824 14.0774 23.1564 13.9765 23.1564 15.0185V16.8657C23.1564 17.9077 22.2824 18.7815 21.2406 18.7815H20.0976C19.9634 19.2185 19.7953 19.689 19.5599 20.1596H21.2406C23.0555 20.1596 24.5343 18.6808 24.5343 16.8657V15.0178C24.5343 13.2026 23.963 12.6985 21.2406 12.6985V12.6985ZM9.17434 9.53909C8.90538 9.53909 8.66997 9.40461 8.5693 9.16896C8.52919 9.08958 8.5052 9.00304 8.49871 8.91434C8.49222 8.82564 8.50336 8.73653 8.53148 8.65215C8.55961 8.56778 8.60416 8.48981 8.66258 8.42274C8.72099 8.35568 8.7921 8.30084 8.87182 8.2614C8.97249 8.19428 9.34238 7.95888 9.37594 7.69017C9.40949 7.42145 9.17434 7.05132 8.73734 6.68168C7.93128 5.97597 7.56156 5.23653 7.62818 4.46337C7.72886 3.35298 8.73734 2.71562 8.83727 2.6485C9.1736 2.44665 9.57753 2.54758 9.77839 2.88366C9.97925 3.21973 9.87931 3.62392 9.54324 3.82477C9.54324 3.82477 9.00531 4.16085 8.97175 4.59785C8.9382 5.00129 9.30783 5.40449 9.61035 5.67345C10.4508 6.41272 10.8205 7.15216 10.7195 7.89176C10.585 8.93356 9.57679 9.47099 9.47587 9.50504C9.37594 9.50553 9.27501 9.53909 9.17434 9.53909V9.53909ZM13.3413 9.74069C13.0723 9.74069 12.8371 9.60645 12.7362 9.37056C12.6962 9.29117 12.6722 9.20463 12.6657 9.11594C12.6592 9.02725 12.6704 8.93815 12.6985 8.85378C12.7266 8.76942 12.7712 8.69145 12.8296 8.62438C12.888 8.55731 12.9591 8.50246 13.0387 8.463C13.1397 8.39588 13.5093 8.16072 13.5429 7.89176C13.5764 7.6228 13.3413 7.25317 12.9043 6.88328C12.0982 6.17757 11.7285 5.43821 11.7951 4.66522C11.896 3.55482 12.9043 2.91721 13.0042 2.8501C13.3403 2.6485 13.7445 2.74917 13.9453 3.0855C14.1462 3.42182 14.046 3.82576 13.7099 4.02637C13.7099 4.02637 13.1722 4.3627 13.1387 4.79945C13.1049 5.20289 13.4748 5.60609 13.7773 5.87505C14.6174 6.61531 14.9875 7.35475 14.8877 8.09336C14.7532 9.1354 13.7447 9.67258 13.644 9.70664C13.5436 9.70713 13.4427 9.74069 13.3413 9.74069V9.74069ZM16.972 9.74069C16.703 9.74069 16.4679 9.60645 16.367 9.37056C16.3269 9.29117 16.3029 9.20463 16.2964 9.11594C16.29 9.02725 16.3011 8.93815 16.3292 8.85378C16.3574 8.76942 16.4019 8.69145 16.4603 8.62438C16.5187 8.55731 16.5898 8.50246 16.6695 8.463C16.7704 8.39588 17.14 8.16072 17.1736 7.89176C17.2072 7.6228 16.972 7.25317 16.535 6.88328C15.7289 6.17757 15.3592 5.43821 15.4258 4.66522C15.5268 3.55482 16.535 2.91721 16.6349 2.8501C16.971 2.6485 17.3752 2.74917 17.576 3.0855C17.7769 3.42182 17.6767 3.82576 17.3406 4.02637C17.3406 4.02637 16.803 4.3627 16.7692 4.79945C16.7356 5.20289 17.1055 5.60609 17.4078 5.87505C18.2482 6.61531 18.6179 7.35475 18.5169 8.09336C18.3827 9.1354 17.3742 9.67258 17.2735 9.70664C17.1736 9.70713 17.0727 9.74069 16.972 9.74069V9.74069Z" fill="url(#paint2_linear_12572_5334)"/>
</mask>
<g mask="url(#mask0_12572_5334)">
<circle opacity="0.2" cx="7.70552" cy="9.34126" r="4.70455" fill="white"/>
<circle opacity="0.2" cx="18.6828" cy="20.3185" r="4.18182" fill="white"/>
</g>
</g>
<defs>
<linearGradient id="paint0_linear_12572_5334" x1="5.51367" y1="3.5918" x2="27.773" y2="6.43987" gradientUnits="userSpaceOnUse">
<stop stop-color="#FF8B8B"/>
<stop offset="1" stop-color="#FFDF8C"/>
</linearGradient>
<linearGradient id="paint1_linear_12572_5334" x1="4.46777" y1="2.54492" x2="26.7271" y2="5.39299" gradientUnits="userSpaceOnUse">
<stop stop-color="#FF8B8B"/>
<stop offset="1" stop-color="#FFDF8C"/>
</linearGradient>
<linearGradient id="paint2_linear_12572_5334" x1="4.46875" y1="2.54492" x2="26.728" y2="5.39299" gradientUnits="userSpaceOnUse">
<stop stop-color="#FF8B8B"/>
<stop offset="1" stop-color="#FFDF8C"/>
</linearGradient>
<clipPath id="clip0_12572_5334">
<rect width="23" height="23" fill="white" transform="translate(3 1.5)"/>
</clipPath>
</defs>
</svg>
