<svg width="24" height="24" viewBox="0 0 24 24" fill="none" xmlns="http://www.w3.org/2000/svg">
<path opacity="0.2" d="M18.8614 11.7596V15.5825C18.8614 15.5825 18.8614 16.3549 18.651 17.3362C18.4407 18.2479 17.9847 19.5106 16.9676 20.5627C15.706 21.8604 13.8462 22.5268 11.4611 22.5268C9.11133 22.5268 7.28759 21.8604 5.98988 20.5627C4.93781 19.5106 4.48181 18.1779 4.27145 17.2669C4.02581 16.2499 4.06108 15.4782 4.06108 15.4432V11.7246C7.18228 11.7596 18.8614 11.7596 18.8614 11.7596ZM18.8614 10.3216H4.06108C3.25439 10.3216 2.62305 10.953 2.62305 11.7596V15.4416C2.62305 15.5469 2.62305 16.4587 2.86843 17.6161C3.11406 18.7034 3.71014 20.3168 4.97283 21.6145C6.51592 23.1926 8.69061 23.9993 11.4614 23.9993C14.2321 23.9993 16.4413 23.1931 17.9836 21.615C19.2453 20.3173 19.8074 18.774 20.0528 17.7219C20.3334 16.5995 20.2984 15.7578 20.2984 15.6175V11.7952C20.2984 10.9885 19.6671 10.3221 18.8604 10.3221L18.8614 10.3216ZM20.1241 12.7767H19.3174V14.2155H20.1241C21.2112 14.2155 22.1232 14.1102 22.1232 15.1975V17.1251C22.1232 18.2124 21.2112 19.1241 20.1241 19.1241H18.9314C18.7914 19.5801 18.616 20.0712 18.3704 20.5622H20.1241C22.0179 20.5622 23.561 19.0191 23.561 17.1251V15.1968C23.561 13.3027 22.9649 12.7767 20.1241 12.7767ZM7.53323 9.4799C7.25257 9.4799 7.00693 9.33957 6.90188 9.09368C6.86003 9.01085 6.835 8.92055 6.82822 8.82799C6.82145 8.73543 6.83307 8.64245 6.86242 8.5544C6.89177 8.46636 6.93826 8.385 6.99921 8.31502C7.06016 8.24504 7.13437 8.18782 7.21755 8.14666C7.32261 8.07663 7.70857 7.83099 7.74359 7.55059C7.77861 7.27019 7.53323 6.88397 7.07723 6.49826C6.23612 5.76186 5.85032 4.99028 5.91984 4.1835C6.0249 3.02483 7.07723 2.35976 7.18151 2.28972C7.53245 2.0791 7.95395 2.18441 8.16354 2.5351C8.37313 2.88579 8.26885 3.30755 7.91816 3.51714C7.91816 3.51714 7.35685 3.86783 7.32183 4.32383C7.28682 4.74481 7.67252 5.16554 7.9882 5.44619C8.86518 6.21761 9.25097 6.98919 9.14558 7.76095C9.00525 8.84804 7.95318 9.40884 7.84787 9.44437C7.74359 9.44489 7.63828 9.4799 7.53323 9.4799ZM11.8813 9.69027C11.6007 9.69027 11.3553 9.5502 11.25 9.30404C11.2082 9.2212 11.1832 9.13091 11.1764 9.03836C11.1696 8.94581 11.1813 8.85284 11.2106 8.7648C11.24 8.67677 11.2864 8.59541 11.3474 8.52543C11.4083 8.45544 11.4825 8.39821 11.5657 8.35702C11.671 8.28699 12.0567 8.04161 12.0917 7.76095C12.1267 7.4803 11.8813 7.09459 11.4253 6.70863C10.5842 5.97223 10.1984 5.20073 10.2679 4.39412C10.3733 3.23545 11.4253 2.57012 11.5296 2.50008C11.8803 2.28972 12.302 2.39477 12.5116 2.74572C12.7212 3.09667 12.6167 3.51817 12.266 3.7275C12.266 3.7275 11.7049 4.07845 11.6699 4.53419C11.6347 4.95517 12.0206 5.3759 12.3363 5.65655C13.2129 6.429 13.5992 7.20059 13.495 7.97132C13.3546 9.05866 12.3023 9.6192 12.1973 9.65473C12.0925 9.65525 11.9871 9.69027 11.8813 9.69027ZM15.6699 9.69027C15.3893 9.69027 15.1439 9.5502 15.0386 9.30404C14.9967 9.2212 14.9717 9.13091 14.965 9.03836C14.9582 8.94581 14.9699 8.85284 14.9992 8.7648C15.0286 8.67677 15.075 8.59541 15.136 8.52543C15.1969 8.45544 15.2711 8.39821 15.3542 8.35702C15.4595 8.28699 15.8453 8.04161 15.8803 7.76095C15.9153 7.4803 15.6699 7.09459 15.2139 6.70863C14.3728 5.97223 13.987 5.20073 14.0565 4.39412C14.1618 3.23545 15.2139 2.57012 15.3182 2.50008C15.6689 2.28972 16.0906 2.39477 16.3002 2.74572C16.5098 3.09667 16.4053 3.51817 16.0546 3.7275C16.0546 3.7275 15.4935 4.07845 15.4583 4.53419C15.4232 4.95517 15.8092 5.3759 16.1246 5.65655C17.0016 6.429 17.3874 7.20059 17.282 7.97132C17.1419 9.05866 16.0896 9.6192 15.9846 9.65473C15.8803 9.65525 15.775 9.69027 15.6699 9.69027Z" fill="url(#paint0_linear_10204_4680)"/>
<path d="M17.7701 10.6688V14.4917C17.7701 14.4917 17.7701 15.2641 17.5597 16.2454C17.3494 17.1571 16.8934 18.4198 15.8763 19.4719C14.6147 20.7696 12.7549 21.4359 10.3698 21.4359C8.02002 21.4359 6.19628 20.7696 4.89857 19.4719C3.8465 18.4198 3.3905 17.0871 3.18014 16.1761C2.9345 15.1591 2.96977 14.3874 2.96977 14.3524V10.6338C6.09097 10.6688 17.7701 10.6688 17.7701 10.6688ZM17.7701 9.23079H2.96977C2.16308 9.23079 1.53174 9.86214 1.53174 10.6688V14.3508C1.53174 14.4561 1.53174 15.3679 1.77712 16.5253C2.02276 17.6126 2.61883 19.226 3.88152 20.5237C5.42461 22.1018 7.5993 22.9085 10.3701 22.9085C13.1408 22.9085 15.35 22.1023 16.8923 20.5242C18.154 19.2265 18.7161 17.6831 18.9615 16.6311C19.2421 15.5087 19.2071 14.667 19.2071 14.5267V10.7044C19.2071 9.89767 18.5758 9.23131 17.7691 9.23131L17.7701 9.23079ZM19.0328 11.6859H18.2261V13.1247H19.0328C20.1199 13.1247 21.0319 13.0194 21.0319 14.1067V16.0342C21.0319 17.1216 20.1199 18.0333 19.0328 18.0333H17.8401C17.7001 18.4893 17.5247 18.9803 17.2791 19.4714H19.0328C20.9266 19.4714 22.4697 17.9283 22.4697 16.0342V14.106C22.4697 12.2119 21.8736 11.6859 19.0328 11.6859ZM6.44192 8.38908C6.16126 8.38908 5.91563 8.24875 5.81057 8.00286C5.76872 7.92003 5.74369 7.82973 5.73691 7.73717C5.73014 7.64461 5.74176 7.55163 5.77111 7.46358C5.80046 7.37554 5.84695 7.29418 5.9079 7.2242C5.96886 7.15422 6.04306 7.097 6.12625 7.05584C6.2313 6.98581 6.61726 6.74017 6.65228 6.45977C6.6873 6.17937 6.44192 5.79315 5.98592 5.40744C5.14481 4.67104 4.75902 3.89946 4.82854 3.09268C4.93359 1.93401 5.98592 1.26894 6.0902 1.1989C6.44115 0.988281 6.86264 1.09359 7.07223 1.44428C7.28182 1.79497 7.17754 2.21673 6.82685 2.42632C6.82685 2.42632 6.26554 2.77701 6.23053 3.23301C6.19551 3.65399 6.58122 4.07472 6.89689 4.35537C7.77387 5.12679 8.15967 5.89837 8.05427 6.67013C7.91394 7.75722 6.86187 8.31802 6.75656 8.35355C6.65228 8.35406 6.54697 8.38908 6.44192 8.38908ZM10.79 8.59944C10.5094 8.59944 10.264 8.45938 10.1587 8.21322C10.1169 8.13038 10.0918 8.04009 10.0851 7.94754C10.0783 7.85499 10.09 7.76202 10.1193 7.67398C10.1487 7.58595 10.1951 7.50459 10.2561 7.43461C10.317 7.36462 10.3912 7.30739 10.4743 7.2662C10.5797 7.19617 10.9654 6.95079 11.0004 6.67013C11.0354 6.38948 10.79 6.00377 10.334 5.61781C9.49291 4.88141 9.10711 4.10991 9.17663 3.3033C9.28194 2.14463 10.334 1.4793 10.4383 1.40926C10.789 1.1989 11.2107 1.30395 11.4203 1.6549C11.6299 2.00585 11.5254 2.42735 11.1747 2.63668C11.1747 2.63668 10.6136 2.98763 10.5786 3.44337C10.5433 3.86435 10.9293 4.28508 11.245 4.56573C12.1216 5.33818 12.5078 6.10977 12.4037 6.8805C12.2633 7.96784 11.211 8.52838 11.1059 8.56391C11.0012 8.56443 10.8958 8.59944 10.79 8.59944ZM14.5786 8.59944C14.2979 8.59944 14.0526 8.45938 13.9473 8.21322C13.9054 8.13038 13.8804 8.04009 13.8737 7.94754C13.8669 7.85499 13.8786 7.76202 13.9079 7.67398C13.9372 7.58595 13.9837 7.50459 14.0447 7.43461C14.1056 7.36462 14.1798 7.30739 14.2629 7.2662C14.3682 7.19617 14.7539 6.95079 14.789 6.67013C14.824 6.38948 14.5786 6.00377 14.1226 5.61781C13.2815 4.88141 12.8957 4.10991 12.9652 3.3033C13.0705 2.14463 14.1226 1.4793 14.2269 1.40926C14.5776 1.1989 14.9993 1.30395 15.2089 1.6549C15.4185 2.00585 15.314 2.42735 14.9633 2.63668C14.9633 2.63668 14.4022 2.98763 14.367 3.44337C14.3319 3.86435 14.7179 4.28508 15.0333 4.56573C15.9103 5.33818 16.2961 6.10977 16.1907 6.8805C16.0506 7.96784 14.9983 8.52838 14.8932 8.56391C14.789 8.56443 14.6837 8.59944 14.5786 8.59944Z" fill="url(#paint1_linear_10204_4680)"/>
<mask id="mask0_10204_4680" style="mask-type:alpha" maskUnits="userSpaceOnUse" x="1" y="1" width="22" height="22">
<path d="M17.7701 10.6688V14.4917C17.7701 14.4917 17.7701 15.2641 17.5597 16.2454C17.3494 17.1571 16.8934 18.4198 15.8763 19.4719C14.6147 20.7696 12.7549 21.4359 10.3698 21.4359C8.02002 21.4359 6.19628 20.7696 4.89857 19.4719C3.8465 18.4198 3.3905 17.0871 3.18014 16.1761C2.9345 15.1591 2.96977 14.3874 2.96977 14.3524V10.6338C6.09097 10.6688 17.7701 10.6688 17.7701 10.6688ZM17.7701 9.23079H2.96977C2.16308 9.23079 1.53174 9.86214 1.53174 10.6688V14.3508C1.53174 14.4561 1.53174 15.3679 1.77712 16.5253C2.02276 17.6126 2.61883 19.226 3.88152 20.5237C5.42461 22.1018 7.5993 22.9085 10.3701 22.9085C13.1408 22.9085 15.35 22.1023 16.8923 20.5242C18.154 19.2265 18.7161 17.6831 18.9615 16.6311C19.2421 15.5087 19.2071 14.667 19.2071 14.5267V10.7044C19.2071 9.89767 18.5758 9.23131 17.7691 9.23131L17.7701 9.23079ZM19.0328 11.6859H18.2261V13.1247H19.0328C20.1199 13.1247 21.0319 13.0194 21.0319 14.1067V16.0342C21.0319 17.1216 20.1199 18.0333 19.0328 18.0333H17.8401C17.7001 18.4893 17.5247 18.9803 17.2791 19.4714H19.0328C20.9266 19.4714 22.4697 17.9283 22.4697 16.0342V14.106C22.4697 12.2119 21.8736 11.6859 19.0328 11.6859ZM6.44192 8.38908C6.16126 8.38908 5.91563 8.24875 5.81057 8.00286C5.76872 7.92003 5.74369 7.82973 5.73691 7.73717C5.73014 7.64461 5.74176 7.55163 5.77111 7.46358C5.80046 7.37554 5.84695 7.29418 5.9079 7.2242C5.96886 7.15422 6.04306 7.097 6.12625 7.05584C6.2313 6.98581 6.61726 6.74017 6.65228 6.45977C6.6873 6.17937 6.44192 5.79315 5.98592 5.40744C5.14481 4.67104 4.75902 3.89946 4.82854 3.09268C4.93359 1.93401 5.98592 1.26894 6.0902 1.1989C6.44115 0.988281 6.86264 1.09359 7.07223 1.44428C7.28182 1.79497 7.17754 2.21673 6.82685 2.42632C6.82685 2.42632 6.26554 2.77701 6.23053 3.23301C6.19551 3.65399 6.58122 4.07472 6.89689 4.35537C7.77387 5.12679 8.15967 5.89837 8.05427 6.67013C7.91394 7.75722 6.86187 8.31802 6.75656 8.35355C6.65228 8.35406 6.54697 8.38908 6.44192 8.38908ZM10.79 8.59944C10.5094 8.59944 10.264 8.45938 10.1587 8.21322C10.1169 8.13038 10.0918 8.04009 10.0851 7.94754C10.0783 7.85499 10.09 7.76202 10.1193 7.67398C10.1487 7.58595 10.1951 7.50459 10.2561 7.43461C10.317 7.36462 10.3912 7.30739 10.4743 7.2662C10.5797 7.19617 10.9654 6.95079 11.0004 6.67013C11.0354 6.38948 10.79 6.00377 10.334 5.61781C9.49291 4.88141 9.10711 4.10991 9.17663 3.3033C9.28194 2.14463 10.334 1.4793 10.4383 1.40926C10.789 1.1989 11.2107 1.30395 11.4203 1.6549C11.6299 2.00585 11.5254 2.42735 11.1747 2.63668C11.1747 2.63668 10.6136 2.98763 10.5786 3.44337C10.5433 3.86435 10.9293 4.28508 11.245 4.56573C12.1216 5.33818 12.5078 6.10977 12.4037 6.8805C12.2633 7.96784 11.211 8.52838 11.1059 8.56391C11.0012 8.56443 10.8958 8.59944 10.79 8.59944ZM14.5786 8.59944C14.2979 8.59944 14.0526 8.45938 13.9473 8.21322C13.9054 8.13038 13.8804 8.04009 13.8737 7.94754C13.8669 7.85499 13.8786 7.76202 13.9079 7.67398C13.9372 7.58595 13.9837 7.50459 14.0447 7.43461C14.1056 7.36462 14.1798 7.30739 14.2629 7.2662C14.3682 7.19617 14.7539 6.95079 14.789 6.67013C14.824 6.38948 14.5786 6.00377 14.1226 5.61781C13.2815 4.88141 12.8957 4.10991 12.9652 3.3033C13.0705 2.14463 14.1226 1.4793 14.2269 1.40926C14.5776 1.1989 14.9993 1.30395 15.2089 1.6549C15.4185 2.00585 15.314 2.42735 14.9633 2.63668C14.9633 2.63668 14.4022 2.98763 14.367 3.44337C14.3319 3.86435 14.7179 4.28508 15.0333 4.56573C15.9103 5.33818 16.2961 6.10977 16.1907 6.8805C16.0506 7.96784 14.9983 8.52838 14.8932 8.56391C14.789 8.56443 14.6837 8.59944 14.5786 8.59944Z" fill="url(#paint2_linear_10204_4680)"/>
</mask>
<g mask="url(#mask0_10204_4680)">
<circle opacity="0.2" cx="4.90909" cy="8.18155" r="4.90909" fill="white"/>
<circle opacity="0.2" cx="16.3636" cy="19.6361" r="4.36364" fill="white"/>
</g>
<defs>
<linearGradient id="paint0_linear_10204_4680" x1="2.62305" y1="2.18164" x2="25.8501" y2="5.15354" gradientUnits="userSpaceOnUse">
<stop stop-color="#FF8B8B"/>
<stop offset="1" stop-color="#FFDF8C"/>
</linearGradient>
<linearGradient id="paint1_linear_10204_4680" x1="1.53174" y1="1.09082" x2="24.7588" y2="4.06272" gradientUnits="userSpaceOnUse">
<stop stop-color="#FF8B8B"/>
<stop offset="1" stop-color="#FFDF8C"/>
</linearGradient>
<linearGradient id="paint2_linear_10204_4680" x1="1.53174" y1="1.09082" x2="24.7588" y2="4.06272" gradientUnits="userSpaceOnUse">
<stop stop-color="#FF8B8B"/>
<stop offset="1" stop-color="#FFDF8C"/>
</linearGradient>
</defs>
</svg>
