<svg width="28" height="28" viewBox="0 0 28 28" fill="none" xmlns="http://www.w3.org/2000/svg">
<rect width="28" height="28" rx="4" fill="#27C193"/>
<path d="M21.232 14.2421C21.0582 13.9861 20.6971 13.6753 19.9565 13.6753H19.0925C19.1062 13.1267 19.0697 12.7656 19.0697 12.7656H7.08796C7.08796 12.7656 6.8411 15.065 7.8651 16.8707C8.50968 17.9953 8.89825 18.3198 9.45139 18.8776C10.3794 19.8101 11.4948 19.8101 11.4948 19.8101H14.64C14.64 19.8101 15.7554 19.8101 16.6697 18.905C16.88 18.6901 17.0765 18.5118 17.2685 18.3016C20.4228 18.1278 21.2228 15.9244 21.3188 15.6318C21.3782 15.4718 21.5977 14.7907 21.232 14.2421ZM20.3177 15.2524L20.2994 15.3073C20.2948 15.321 19.9017 16.633 18.1645 17.0901C18.2057 17.0216 18.2468 16.9484 18.2925 16.8707C18.6811 16.1804 18.8868 15.4216 18.992 14.745H19.9565C20.2125 14.745 20.3222 14.8044 20.3451 14.8364C20.3954 14.9096 20.368 15.1198 20.3177 15.2524ZM19.3746 20.5969H6.81002C6.0539 21.4152 10.9869 21.9363 10.9869 21.9363H15.1968C15.1968 21.9363 19.9826 21.4344 19.3746 20.5969ZM14.1965 11.7873C14.2102 11.833 14.0594 11.8878 14.0091 11.8696C12.496 10.9187 12.8617 9.59298 13.8491 8.62384C14.6034 7.88784 15.1657 7.51755 15.1702 6.35184C15.1657 6.24669 15.3942 6.23298 15.4308 6.27869C17.2914 8.91641 13.1222 9.05355 14.1965 11.7873ZM11.4674 11.7873C11.4857 11.833 11.3348 11.8878 11.2845 11.8696C9.77139 10.9187 10.1325 9.59298 11.1245 8.62384C11.8742 7.88784 12.4365 7.51755 12.4411 6.35184C12.4411 6.24669 12.6697 6.23298 12.7062 6.27869C14.5668 8.91641 10.3931 9.05355 11.4674 11.7873Z" fill="white"/>
</svg>
