<svg width="28" height="28" viewBox="0 0 28 28" fill="none" xmlns="http://www.w3.org/2000/svg">
<rect width="28" height="28" rx="14" fill="white"/>
<path d="M16.0692 22.264C18.8907 21.049 21.0922 18.2396 21.3891 15.3946C21.6816 12.5913 21.3727 8.80877 21.3594 8.64908L21.3163 8.13218L20.8175 7.99007C20.8031 7.98603 19.3681 7.57545 18.3275 7.13149C17.0098 6.56932 15.6772 5.79736 15.6639 5.78966L14.7727 5.2715C14.6681 5.2107 14.5371 5.2861 14.5371 5.40703V6.43857C14.5371 6.7255 14.6982 6.97459 14.9349 7.10063C15.1341 7.21545 16.4193 7.94806 17.739 8.51103C18.4745 8.82483 19.3577 9.11341 19.9011 9.28133C19.9743 10.4029 20.1147 13.1562 19.8973 15.239C19.7741 16.4206 19.2155 17.6597 18.3247 18.7281C17.6847 19.4955 16.9064 20.1371 16.0692 20.5963V22.264Z" fill="black"/>
<path d="M13.8402 16.6842H12.6186C12.0789 16.6842 11.6416 16.2371 11.6577 15.6938C11.6732 15.171 12.116 14.7616 12.639 14.7616H14.9657C16.3207 14.7616 17.4449 13.6797 17.4581 12.3247C17.4713 10.9566 16.3622 9.83933 14.9971 9.83933L13.8269 9.84623C13.4254 9.84517 13.0991 9.51823 13.0991 9.11648V5.41872C13.0991 5.29825 12.9688 5.22279 12.8643 5.28272L11.9762 5.79199C11.9627 5.79969 10.6137 6.57086 9.28509 7.13496C8.23855 7.57918 6.81781 7.9867 6.80367 7.99075L6.30157 8.13405L6.26175 8.65467C6.24947 8.81548 5.96394 12.6263 6.25617 15.4271C6.40989 16.9005 7.0878 18.4191 8.16501 19.7032C9.21872 20.9594 10.6043 21.9363 12.0664 22.4542L12.8575 22.7343C12.9596 22.7704 13.0667 22.6946 13.0667 22.5865V21.7471C13.0667 21.4139 12.8494 21.1315 12.5487 21.0339C11.3419 20.6024 10.1938 19.7881 9.3141 18.7394C8.42711 17.682 7.87092 16.4504 7.74787 15.2714C7.5305 13.1883 7.65694 10.4114 7.72384 9.28042C8.26344 9.11329 9.13629 8.82743 9.87109 8.51548C10.4888 8.25332 11.1011 7.95431 11.5993 7.69825V9.11648C11.5993 10.3459 12.5995 11.346 13.8289 11.346L14.9991 11.3392C15.5381 11.3403 15.9745 11.7873 15.9579 12.3303C15.942 12.8529 15.4994 13.2618 14.9767 13.2618H12.6186C11.2534 13.2618 10.1443 14.379 10.1576 15.7471C10.1708 17.102 11.295 18.184 12.65 18.184H13.8402C14.2426 18.184 14.57 18.5114 14.57 18.9127C14.57 18.9127 14.5667 21.2651 14.5667 21.7544V22.5936C14.5667 22.7018 14.6738 22.7775 14.7759 22.7414L15.567 22.4612C15.7359 22.4014 15.9027 22.3355 16.0676 22.2646V18.8277C16.0222 17.6381 15.0407 16.6842 13.8402 16.6842Z" fill="black"/>
</svg>
