<svg width="28" height="28" viewBox="0 0 28 28" fill="none" xmlns="http://www.w3.org/2000/svg">
<rect width="28" height="28" rx="14" fill="#7525FA"/>
<path d="M22.7207 16.0716C22.7226 16.669 22.7306 17.267 22.7446 17.8658C22.746 17.9269 22.7439 17.988 22.7383 18.0491C22.7331 18.1079 22.7303 18.1683 22.7299 18.2303C22.7285 18.4976 22.6535 18.7315 22.5049 18.9321C22.4112 19.0594 22.2312 19.1982 21.965 19.3487C19.6824 20.6392 17.3947 21.9211 15.1018 23.1942C14.7109 23.4117 14.5134 23.5214 14.5091 23.5232C14.2856 23.6158 14.0536 23.6452 13.8131 23.6115C13.65 23.5882 13.433 23.4998 13.1621 23.3461C12.5237 22.9849 11.8779 22.6336 11.2245 22.292C11.1519 22.2295 11.0748 22.173 10.9932 22.1224C10.8868 22.0563 10.821 21.992 10.7956 21.9295C10.7347 21.7776 10.8045 21.6534 11.0052 21.5567L18.281 17.4868L19.0389 17.0538C19.1218 17.0064 19.1275 16.9499 19.0557 16.8842C18.9836 16.8181 18.9029 16.7604 18.8139 16.7112C18.0982 16.3144 17.3825 15.9184 16.6668 15.523C16.4343 15.3785 16.1936 15.2481 15.9448 15.1318C15.7887 15.0593 15.6366 15.0645 15.4885 15.1475C12.8685 16.6108 10.2522 18.0799 7.63966 19.5546C7.46343 19.654 7.29869 19.7381 7.14542 19.807C7.05496 19.8476 6.96521 19.8458 6.87615 19.8015C6.49885 19.6136 6.13796 19.4091 5.79346 19.188C5.46022 18.9736 5.28047 18.6697 5.25423 18.2762L5.25915 17.1264C5.25962 17.0292 5.3011 16.9478 5.38359 16.8822C5.48389 16.8019 5.59684 16.7267 5.72245 16.6564C7.03481 15.9273 8.34505 15.1961 9.65319 14.4628L16.91 10.4073L17.3277 10.1515C17.338 10.1452 17.3464 10.1365 17.3524 10.1261C17.3584 10.1158 17.3617 10.104 17.3621 10.0917C17.3626 10.0794 17.36 10.067 17.3548 10.0554C17.3495 10.0438 17.3417 10.0334 17.3319 10.0249C17.2461 9.95105 17.1554 9.88721 17.0598 9.8334C15.8309 9.13981 14.889 8.61518 14.2342 8.25949C14.0875 8.17969 13.9345 8.18379 13.7752 8.2718C11.1383 9.73148 8.50324 11.1939 5.87009 12.6591C5.71964 12.743 5.60669 12.7888 5.53123 12.7965C5.34281 12.8166 5.24907 12.6994 5.25001 12.445C5.25282 11.6164 5.25493 10.7878 5.25633 9.95926C5.2568 9.6852 5.28891 9.47772 5.35265 9.33681C5.48201 9.04998 5.71238 8.81924 6.04375 8.64459C6.41964 8.44622 7.42969 7.87758 9.07388 6.93866C10.4697 6.16937 11.8631 5.39644 13.2542 4.61985C13.3381 4.57334 13.4253 4.5307 13.5157 4.49194C13.6015 4.45546 13.6913 4.41693 13.785 4.37635C14.1122 4.36631 14.3674 4.41237 14.5506 4.51452C17.0399 5.90443 19.5268 7.29822 22.0114 8.69589C22.3052 8.86096 22.5115 9.0721 22.63 9.32928C22.6952 9.47019 22.7278 9.68269 22.7278 9.96679C22.7273 10.234 22.7266 10.5015 22.7256 10.7691C22.7252 10.8927 22.6905 10.999 22.6216 11.0879C22.5794 11.1426 22.4927 11.2074 22.3615 11.2821C21.3641 11.8517 20.3498 12.419 19.3187 12.984C19.2798 13.0049 19.2795 13.0261 19.318 13.0476C20.2315 13.5574 21.1335 14.0638 22.024 14.5668C22.6052 14.8946 22.8374 15.3963 22.7207 16.0716Z" fill="white"/>
</svg>
