<?xml version="1.0" encoding="UTF-8"?>
<svg width="512px" height="512px" viewBox="0 0 512 512" version="1.1" xmlns="http://www.w3.org/2000/svg" xmlns:xlink="http://www.w3.org/1999/xlink">
    <title>选中账户总览图标-Round</title>
    <g id="选中账户总览图标-Round" stroke="none" stroke-width="1" fill="none" fill-rule="evenodd">
        <g id="Cobo">
            <rect id="主色" fill="#4D84FF" x="0" y="0" width="512" height="512" rx="256"></rect>
            <path d="M252.211454,259.353627 C252.277999,283.555884 235.054967,304.369054 211.231273,308.875889 C187.407577,313.382723 163.74883,300.303341 154.938327,277.755181 L174.128867,258.553559 L174.128867,259.353627 C174.125642,272.533401 183.450588,283.880021 196.400816,286.454193 C209.351043,289.028365 222.319628,282.113127 227.375327,269.937655 C232.431026,257.762182 228.165715,243.717614 217.187946,236.393235 C206.210178,229.068856 191.577501,230.504668 182.238874,239.822566 L127.024814,294.933103 C112.613357,309.332658 90.9292711,313.646668 72.0878485,305.862714 C53.2464254,298.07876 40.96,279.730517 40.96,259.377158 C40.96,239.0238 53.2464254,220.675557 72.0878485,212.891603 C90.9292711,205.107649 112.613357,209.421659 127.024814,223.821214 C129.871704,226.696394 130.965567,230.86912 129.894356,234.767566 C128.823144,238.666013 125.749601,241.697913 121.8315,242.721179 C117.913399,243.744446 113.745992,242.60362 110.899102,239.72844 C100.061947,228.949097 82.5250122,228.969356 71.7128847,239.77371 C60.9007572,250.578063 60.9007572,268.082128 71.7128847,278.886482 C82.5250122,289.690835 100.061947,289.711094 110.899102,278.931751 L166.207464,224.056528 C180.604851,209.655254 202.280082,205.337029 221.113315,213.117967 C239.946549,220.898905 252.223111,239.244292 252.211454,259.588941 L252.211454,259.353627 Z M471.039999,259.353627 C471.0442,283.531441 453.817003,304.293188 430.017059,308.793348 C406.217115,313.293508 382.575656,300.259321 373.719913,277.755181 L392.910453,258.553559 L392.910453,259.353627 C392.907228,272.533401 402.232174,283.880021 415.182402,286.454193 C428.132629,289.028365 441.101214,282.113127 446.156913,269.937655 C451.212611,257.762182 446.947303,243.717614 435.969533,236.393235 C424.991764,229.068856 410.359087,230.504668 401.02046,239.822566 L345.995005,294.650726 C331.64482,309.197027 309.90539,313.635186 290.9854,305.881073 C272.065411,298.126961 259.723543,279.721024 259.755453,259.306564 L259.755453,188.712367 C259.482817,184.494428 261.582582,180.475074 265.203582,178.283603 C268.824582,176.092132 273.366054,176.092132 276.987053,178.283603 C280.608053,180.475074 282.707818,184.494428 282.435182,188.712367 L282.435182,217.373611 C296.39339,208.197514 314.001009,206.524253 329.443286,212.906406 C344.885562,219.288559 356.154037,232.896048 359.527401,249.235125 L384.989051,223.821214 C399.398776,209.43458 421.070711,205.125369 439.903921,212.902035 C458.737132,220.6787 471.024858,239.010635 471.039999,259.353627 Z M337.885038,259.353627 C337.885038,244.070292 325.472134,231.680702 310.16009,231.680702 C294.848046,231.680702 282.435182,244.070292 282.435182,259.353627 C282.435182,274.636962 294.848046,287.026593 310.16009,287.026593 C317.517031,287.039073 324.57626,284.127562 329.778411,278.935165 C334.980562,273.742768 337.897542,266.696774 337.885038,259.353627 Z" id="logo-cobo-b" fill="#FFFFFF" fill-rule="nonzero"></path>
        </g>
    </g>
</svg>