<svg width="28" height="28" viewBox="0 0 28 28" fill="none" xmlns="http://www.w3.org/2000/svg">
<rect width="28" height="28" rx="14" fill="white"/>
<path d="M16.2024 17.8967C16.1967 17.8882 16.1884 17.8818 16.1788 17.8784C16.1692 17.875 16.1587 17.8749 16.1489 17.8779C16.0676 17.8349 15.9863 17.7925 15.9057 17.7487C14.9667 17.2406 14.3948 16.4574 14.3566 15.3913C14.3058 13.9944 14.3433 12.594 14.3447 11.195C14.3447 10.7856 14.5435 10.5598 14.9466 10.5H15.0905L15.4317 10.6022C15.6047 10.7245 15.6402 10.8906 15.6339 11.0977C15.6179 11.5022 15.6284 11.9073 15.6339 12.3118C15.6339 12.4925 15.5901 12.7517 15.8994 12.4904C15.9376 12.4578 16.0092 12.464 16.0655 12.4522C16.7035 12.2437 17.361 12.3209 18.0115 12.3216C18.9963 12.6253 19.6447 13.2876 19.9908 14.239C20.0964 14.5288 20.1708 14.4517 20.3209 14.2981C20.6934 13.9179 21.077 13.5489 21.4489 13.168C22.0778 12.5224 22.8249 12.3049 23.7347 12.2875C25.0315 12.2625 26.2005 13.2549 26.4541 14.6352C26.7078 16.0154 25.9739 17.3922 24.6388 17.8571C23.4699 18.2644 22.3857 18.0718 21.4885 17.1517C21.4449 17.1134 21.3984 17.0785 21.3495 17.0474C21.3133 16.9884 21.28 16.9279 21.2411 16.8709C20.8289 16.2559 20.8241 16.251 21.3599 15.7332C21.5587 15.5414 21.7178 15.2961 22.0069 15.1703C22.0153 15.2551 22.0215 15.3003 22.0236 15.3454C22.0611 16.1099 22.5949 16.4908 23.2002 16.7354C23.6172 16.9057 24.3859 16.6763 24.7716 16.2197C25.363 15.5192 25.3025 14.565 24.6451 13.977C23.9876 13.389 23.0466 13.4433 22.4017 14.0854C21.5677 14.9194 20.7059 15.7298 19.89 16.5832C19.2895 17.2087 18.6849 17.8071 17.8085 18.0253L17.7995 18.0288L16.6194 18.0281C16.4915 17.9433 16.3449 17.9252 16.2024 17.8967ZM18.8281 15.1522C18.8248 14.7337 18.656 14.3334 18.3586 14.0389C18.0612 13.7443 17.6593 13.5794 17.2407 13.5802C16.3609 13.5802 15.5936 14.3175 15.636 15.1786C15.6798 16.0668 16.2546 16.7611 17.2345 16.7667C18.0726 16.7708 18.8788 16.0126 18.8267 15.1522H18.8281Z" fill="#3D86F6"/>
<path d="M7.01997 16.9091C6.85526 16.9751 6.77325 17.1322 6.65649 17.2489C5.3666 18.5312 3.11208 18.2414 2.1676 16.6929C1.39408 15.4239 1.72142 13.6607 2.93208 12.8135C2.95767 12.7906 2.98095 12.7652 3.00158 12.7378C3.05564 12.7204 3.10877 12.7002 3.16073 12.6773C3.78621 12.3722 4.42629 12.1568 5.14421 12.3145C5.45973 12.384 5.75163 12.5126 6.05811 12.6036C6.24159 12.7426 6.43201 12.8719 6.60785 13.0206C6.93518 13.2938 6.99634 13.7497 6.7531 14.0249C6.4751 14.3425 6.12761 14.3425 5.7558 14.0339C5.26514 13.6274 4.72374 13.4321 4.09548 13.683C3.53115 13.9088 3.17254 14.3084 3.07385 14.9242C2.96822 15.5872 3.2608 16.203 3.86197 16.5512C4.46313 16.8993 5.1039 16.8472 5.62375 16.4024C5.83224 16.2238 6.00807 16.0084 6.1985 15.8096C6.45786 15.6074 6.69129 15.374 6.89348 15.1146L8.97843 13.0297C9.05874 12.9855 9.13647 12.9367 9.21125 12.8837C9.75473 12.4504 10.4355 12.2263 11.1301 12.252C11.5944 12.2624 12.0218 12.4382 12.4506 12.5995C12.4513 12.603 12.4528 12.6063 12.455 12.6092C12.4571 12.612 12.46 12.6144 12.4632 12.616C12.4664 12.6176 12.4699 12.6184 12.4735 12.6185C12.4771 12.6185 12.4807 12.6177 12.4839 12.6162L13.0066 13.0241C13.0293 13.0636 13.0553 13.101 13.0844 13.136C13.803 13.8859 14.0372 14.7776 13.8336 15.7832C13.63 16.7888 12.9892 17.4442 12.0885 17.8751C12.0789 17.8721 12.0687 17.8723 12.0593 17.8757C12.0499 17.8791 12.0418 17.8855 12.0364 17.8939C11.7869 17.8494 11.5902 18.0329 11.3414 18.0398C10.7625 18.0516 10.2009 18.0099 9.67342 17.7556L9.66577 17.7514C9.17511 17.4567 8.76229 17.0828 8.47249 16.5831C8.39395 16.4483 8.25357 16.2912 8.3877 16.1432C8.6928 15.8068 9.0243 15.4941 9.37805 15.1389C9.48716 16.383 10.6791 16.9807 11.4741 16.6832C12.1587 16.4268 12.5381 15.9535 12.5861 15.2501C12.6236 14.6664 12.3978 14.1639 11.8751 13.8428C11.2816 13.4786 10.6533 13.4203 10.1071 13.8782C8.99442 14.8061 8.02144 15.8735 7.01997 16.9091Z" fill="#3D86F6"/>
</svg>
