<svg width="28" height="28" viewBox="0 0 28 28" fill="none" xmlns="http://www.w3.org/2000/svg">
<rect width="28" height="28" rx="14" fill="white"/>
<path d="M7.00253 7.37199V7.894V15.0912H7.00351C6.97614 15.768 7.11005 16.4068 7.36857 17.0063C8.53024 19.6982 12.2073 21.6016 15.0775 22.6347L15.077 21.2819C11.4762 19.9762 9.73297 18.2748 9.02482 17.0493C8.39829 15.965 8.47306 15.136 8.47306 15.136V8.14799L15.0775 6.38139V5.37767V5.25L7.58898 7.22756L7.00253 7.37199Z" fill="black"/>
<path d="M15.291 20.8884C15.7504 20.6797 16.1776 20.4691 16.5739 20.2577L16.6179 16.6476V7.3696L15.291 6.99609V20.8884Z" fill="black"/>
<path d="M17.8457 19.3122C18.3564 19.0741 19.1725 18.3587 19.1725 18.3587V17.1671V7.88913L17.8457 7.51562V19.3122Z" fill="black"/>
<path d="M20.3809 8.31152L20.418 13.7222C20.418 13.7222 20.418 16.3173 20.418 17.1825L20.4547 17.144C20.5382 17.043 20.6159 16.9439 20.6883 16.847C21.6241 15.5965 21.6701 14.7133 21.6701 14.7133V13.7869L21.7072 8.68505L20.3809 8.31152Z" fill="black"/>
</svg>
