<svg width="22" height="22" viewBox="0 0 22 22" fill="none" xmlns="http://www.w3.org/2000/svg">
<g opacity="0.2">
<path d="M12.1419 10.9268H15.974C16.3021 10.9268 16.5672 11.1914 16.5672 11.5189C16.5672 11.8464 16.3021 12.111 15.974 12.111H12.1419V15.9467C12.1419 16.2742 11.8768 16.5388 11.5486 16.5388C11.2205 16.5388 10.9554 16.2742 10.9554 15.9467V12.111H7.09922C6.77107 12.111 6.50596 11.8464 6.50596 11.5189C6.50596 11.1914 6.77107 10.9268 7.09922 10.9268H10.9554V7.08927C10.9554 6.76177 11.2205 6.49717 11.5486 6.49717C11.8768 6.49717 12.1419 6.76177 12.1419 7.08927V10.9268Z" fill="url(#paint0_linear_10204_4688)"/>
<path fill-rule="evenodd" clip-rule="evenodd" d="M18.9291 2.05643C19.4575 2.05643 19.9618 2.22666 20.3455 2.53381C20.7627 2.86687 21.0018 3.34055 21.0018 3.83273V19.2236C21.0018 20.2024 20.2028 20.9999 19.2221 20.9999H4.12923C3.59901 20.9999 3.09474 20.8297 2.71098 20.5225C2.29384 20.1895 2.05469 19.7158 2.05469 19.2236V3.82903C2.05469 3.33685 2.29384 2.86317 2.71098 2.53011C3.0966 2.22296 3.60086 2.05273 4.13109 2.05273L18.9291 2.05643ZM19.2221 19.8157C19.5484 19.8157 19.8153 19.5492 19.8153 19.2236V3.83273C19.8153 3.51818 19.4 3.24063 18.9273 3.24063L4.12923 3.23693C3.87154 3.23693 3.62682 3.31649 3.45255 3.45342C3.37283 3.51633 3.2412 3.64955 3.2412 3.82903V19.2236C3.2412 19.5381 3.65648 19.8157 4.12923 19.8157H19.2221Z" fill="url(#paint1_linear_10204_4688)"/>
<path d="M12.1419 10.9268H15.974C16.3021 10.9268 16.5672 11.1914 16.5672 11.5189C16.5672 11.8464 16.3021 12.111 15.974 12.111H12.1419V15.9467C12.1419 16.2742 11.8768 16.5388 11.5486 16.5388C11.2205 16.5388 10.9554 16.2742 10.9554 15.9467V12.111H7.09922C6.77107 12.111 6.50596 11.8464 6.50596 11.5189C6.50596 11.1914 6.77107 10.9268 7.09922 10.9268H10.9554V7.08927C10.9554 6.76177 11.2205 6.49717 11.5486 6.49717C11.8768 6.49717 12.1419 6.76177 12.1419 7.08927V10.9268Z" stroke="url(#paint2_linear_10204_4688)" stroke-width="0.21057"/>
<path fill-rule="evenodd" clip-rule="evenodd" d="M18.9291 2.05643C19.4575 2.05643 19.9618 2.22666 20.3455 2.53381C20.7627 2.86687 21.0018 3.34055 21.0018 3.83273V19.2236C21.0018 20.2024 20.2028 20.9999 19.2221 20.9999H4.12923C3.59901 20.9999 3.09474 20.8297 2.71098 20.5225C2.29384 20.1895 2.05469 19.7158 2.05469 19.2236V3.82903C2.05469 3.33685 2.29384 2.86317 2.71098 2.53011C3.0966 2.22296 3.60086 2.05273 4.13109 2.05273L18.9291 2.05643ZM19.2221 19.8157C19.5484 19.8157 19.8153 19.5492 19.8153 19.2236V3.83273C19.8153 3.51818 19.4 3.24063 18.9273 3.24063L4.12923 3.23693C3.87154 3.23693 3.62682 3.31649 3.45255 3.45342C3.37283 3.51633 3.2412 3.64955 3.2412 3.82903V19.2236C3.2412 19.5381 3.65648 19.8157 4.12923 19.8157H19.2221Z" stroke="url(#paint3_linear_10204_4688)" stroke-width="0.21057"/>
</g>
<path d="M11.0892 9.87408H14.9212C15.2494 9.87408 15.5145 10.1387 15.5145 10.4662C15.5145 10.7937 15.2494 11.0583 14.9212 11.0583H11.0892V14.894C11.0892 15.2215 10.8241 15.4861 10.4959 15.4861C10.1678 15.4861 9.90266 15.2215 9.90266 14.894V11.0583H6.04649C5.71834 11.0583 5.45323 10.7937 5.45323 10.4662C5.45323 10.1387 5.71834 9.87408 6.04649 9.87408H9.90266V6.03654C9.90266 5.70903 10.1678 5.44444 10.4959 5.44444C10.8241 5.44444 11.0892 5.70903 11.0892 6.03654V9.87408Z" fill="url(#paint4_linear_10204_4688)"/>
<path fill-rule="evenodd" clip-rule="evenodd" d="M17.8764 1.0037C18.4048 1.0037 18.909 1.17393 19.2928 1.48108C19.7099 1.81414 19.9491 2.28781 19.9491 2.78V18.1709C19.9491 19.1497 19.1501 19.9472 18.1693 19.9472H3.0765C2.54628 19.9472 2.04201 19.7769 1.65824 19.4698C1.24111 19.1367 1.00195 18.663 1.00195 18.1709V2.7763C1.00195 2.28411 1.24111 1.81043 1.65824 1.47738C2.04386 1.17023 2.54813 1 3.07835 1L17.8764 1.0037ZM18.1693 18.763C18.4956 18.763 18.7626 18.4965 18.7626 18.1709V2.78C18.7626 2.46544 18.3473 2.1879 17.8746 2.1879L3.0765 2.1842C2.8188 2.1842 2.57408 2.26376 2.39982 2.40068C2.3201 2.46359 2.18847 2.59682 2.18847 2.7763V18.1709C2.18847 18.4854 2.60375 18.763 3.0765 18.763H18.1693Z" fill="url(#paint5_linear_10204_4688)"/>
<path d="M11.0892 9.87408H14.9212C15.2494 9.87408 15.5145 10.1387 15.5145 10.4662C15.5145 10.7937 15.2494 11.0583 14.9212 11.0583H11.0892V14.894C11.0892 15.2215 10.8241 15.4861 10.4959 15.4861C10.1678 15.4861 9.90266 15.2215 9.90266 14.894V11.0583H6.04649C5.71834 11.0583 5.45323 10.7937 5.45323 10.4662C5.45323 10.1387 5.71834 9.87408 6.04649 9.87408H9.90266V6.03654C9.90266 5.70903 10.1678 5.44444 10.4959 5.44444C10.8241 5.44444 11.0892 5.70903 11.0892 6.03654V9.87408Z" stroke="url(#paint6_linear_10204_4688)" stroke-width="0.21057"/>
<path fill-rule="evenodd" clip-rule="evenodd" d="M17.8764 1.0037C18.4048 1.0037 18.909 1.17393 19.2928 1.48108C19.7099 1.81414 19.9491 2.28781 19.9491 2.78V18.1709C19.9491 19.1497 19.1501 19.9472 18.1693 19.9472H3.0765C2.54628 19.9472 2.04201 19.7769 1.65824 19.4698C1.24111 19.1367 1.00195 18.663 1.00195 18.1709V2.7763C1.00195 2.28411 1.24111 1.81043 1.65824 1.47738C2.04386 1.17023 2.54813 1 3.07835 1L17.8764 1.0037ZM18.1693 18.763C18.4956 18.763 18.7626 18.4965 18.7626 18.1709V2.78C18.7626 2.46544 18.3473 2.1879 17.8746 2.1879L3.0765 2.1842C2.8188 2.1842 2.57408 2.26376 2.39982 2.40068C2.3201 2.46359 2.18847 2.59682 2.18847 2.7763V18.1709C2.18847 18.4854 2.60375 18.763 3.0765 18.763H18.1693Z" stroke="url(#paint7_linear_10204_4688)" stroke-width="0.21057"/>
<mask id="mask0_10204_4688" style="mask-type:alpha" maskUnits="userSpaceOnUse" x="0" y="0" width="21" height="21">
<path d="M11.0892 9.87408H14.9212C15.2494 9.87408 15.5145 10.1387 15.5145 10.4662C15.5145 10.7937 15.2494 11.0583 14.9212 11.0583H11.0892V14.894C11.0892 15.2215 10.8241 15.4861 10.4959 15.4861C10.1678 15.4861 9.90266 15.2215 9.90266 14.894V11.0583H6.04649C5.71834 11.0583 5.45323 10.7937 5.45323 10.4662C5.45323 10.1387 5.71834 9.87408 6.04649 9.87408H9.90266V6.03654C9.90266 5.70903 10.1678 5.44444 10.4959 5.44444C10.8241 5.44444 11.0892 5.70903 11.0892 6.03654V9.87408Z" fill="url(#paint8_linear_10204_4688)"/>
<path fill-rule="evenodd" clip-rule="evenodd" d="M17.8764 1.0037C18.4048 1.0037 18.909 1.17393 19.2928 1.48108C19.7099 1.81414 19.9491 2.28781 19.9491 2.78V18.1709C19.9491 19.1497 19.1501 19.9472 18.1693 19.9472H3.0765C2.54628 19.9472 2.04201 19.7769 1.65824 19.4698C1.24111 19.1367 1.00195 18.663 1.00195 18.1709V2.7763C1.00195 2.28411 1.24111 1.81043 1.65824 1.47738C2.04386 1.17023 2.54813 1 3.07835 1L17.8764 1.0037ZM18.1693 18.763C18.4956 18.763 18.7626 18.4965 18.7626 18.1709V2.78C18.7626 2.46544 18.3473 2.1879 17.8746 2.1879L3.0765 2.1842C2.8188 2.1842 2.57408 2.26376 2.39982 2.40068C2.3201 2.46359 2.18847 2.59682 2.18847 2.7763V18.1709C2.18847 18.4854 2.60375 18.763 3.0765 18.763H18.1693Z" fill="url(#paint9_linear_10204_4688)"/>
<path d="M11.0892 9.87408H14.9212C15.2494 9.87408 15.5145 10.1387 15.5145 10.4662C15.5145 10.7937 15.2494 11.0583 14.9212 11.0583H11.0892V14.894C11.0892 15.2215 10.8241 15.4861 10.4959 15.4861C10.1678 15.4861 9.90266 15.2215 9.90266 14.894V11.0583H6.04649C5.71834 11.0583 5.45323 10.7937 5.45323 10.4662C5.45323 10.1387 5.71834 9.87408 6.04649 9.87408H9.90266V6.03654C9.90266 5.70903 10.1678 5.44444 10.4959 5.44444C10.8241 5.44444 11.0892 5.70903 11.0892 6.03654V9.87408Z" stroke="url(#paint10_linear_10204_4688)" stroke-width="0.21057"/>
<path fill-rule="evenodd" clip-rule="evenodd" d="M17.8764 1.0037C18.4048 1.0037 18.909 1.17393 19.2928 1.48108C19.7099 1.81414 19.9491 2.28781 19.9491 2.78V18.1709C19.9491 19.1497 19.1501 19.9472 18.1693 19.9472H3.0765C2.54628 19.9472 2.04201 19.7769 1.65824 19.4698C1.24111 19.1367 1.00195 18.663 1.00195 18.1709V2.7763C1.00195 2.28411 1.24111 1.81043 1.65824 1.47738C2.04386 1.17023 2.54813 1 3.07835 1L17.8764 1.0037ZM18.1693 18.763C18.4956 18.763 18.7626 18.4965 18.7626 18.1709V2.78C18.7626 2.46544 18.3473 2.1879 17.8746 2.1879L3.0765 2.1842C2.8188 2.1842 2.57408 2.26376 2.39982 2.40068C2.3201 2.46359 2.18847 2.59682 2.18847 2.7763V18.1709C2.18847 18.4854 2.60375 18.763 3.0765 18.763H18.1693Z" stroke="url(#paint11_linear_10204_4688)" stroke-width="0.21057"/>
</mask>
<g mask="url(#mask0_10204_4688)">
<circle opacity="0.2" cx="7.84329" cy="6.79055" r="4.73782" fill="white"/>
<circle opacity="0.2" cx="17.8457" cy="18.8984" r="4.21139" fill="white"/>
</g>
<defs>
<linearGradient id="paint0_linear_10204_4688" x1="2.05469" y1="2.05273" x2="23.0444" y2="4.8512" gradientUnits="userSpaceOnUse">
<stop stop-color="#8BC0FF"/>
<stop offset="1" stop-color="#8F8CFF"/>
</linearGradient>
<linearGradient id="paint1_linear_10204_4688" x1="2.05469" y1="2.05273" x2="23.0444" y2="4.8512" gradientUnits="userSpaceOnUse">
<stop stop-color="#8BC0FF"/>
<stop offset="1" stop-color="#8F8CFF"/>
</linearGradient>
<linearGradient id="paint2_linear_10204_4688" x1="2.05469" y1="2.05273" x2="23.0444" y2="4.8512" gradientUnits="userSpaceOnUse">
<stop stop-color="#8BC0FF"/>
<stop offset="1" stop-color="#8F8CFF"/>
</linearGradient>
<linearGradient id="paint3_linear_10204_4688" x1="2.05469" y1="2.05273" x2="23.0444" y2="4.8512" gradientUnits="userSpaceOnUse">
<stop stop-color="#8BC0FF"/>
<stop offset="1" stop-color="#8F8CFF"/>
</linearGradient>
<linearGradient id="paint4_linear_10204_4688" x1="1.00195" y1="1" x2="21.9916" y2="3.79847" gradientUnits="userSpaceOnUse">
<stop stop-color="#8BC0FF"/>
<stop offset="1" stop-color="#8F8CFF"/>
</linearGradient>
<linearGradient id="paint5_linear_10204_4688" x1="1.00195" y1="1" x2="21.9916" y2="3.79847" gradientUnits="userSpaceOnUse">
<stop stop-color="#8BC0FF"/>
<stop offset="1" stop-color="#8F8CFF"/>
</linearGradient>
<linearGradient id="paint6_linear_10204_4688" x1="1.00195" y1="1" x2="21.9916" y2="3.79847" gradientUnits="userSpaceOnUse">
<stop stop-color="#8BC0FF"/>
<stop offset="1" stop-color="#8F8CFF"/>
</linearGradient>
<linearGradient id="paint7_linear_10204_4688" x1="1.00195" y1="1" x2="21.9916" y2="3.79847" gradientUnits="userSpaceOnUse">
<stop stop-color="#8BC0FF"/>
<stop offset="1" stop-color="#8F8CFF"/>
</linearGradient>
<linearGradient id="paint8_linear_10204_4688" x1="1.00195" y1="1" x2="21.9916" y2="3.79847" gradientUnits="userSpaceOnUse">
<stop stop-color="#8BC0FF"/>
<stop offset="1" stop-color="#8F8CFF"/>
</linearGradient>
<linearGradient id="paint9_linear_10204_4688" x1="1.00195" y1="1" x2="21.9916" y2="3.79847" gradientUnits="userSpaceOnUse">
<stop stop-color="#8BC0FF"/>
<stop offset="1" stop-color="#8F8CFF"/>
</linearGradient>
<linearGradient id="paint10_linear_10204_4688" x1="1.00195" y1="1" x2="21.9916" y2="3.79847" gradientUnits="userSpaceOnUse">
<stop stop-color="#8BC0FF"/>
<stop offset="1" stop-color="#8F8CFF"/>
</linearGradient>
<linearGradient id="paint11_linear_10204_4688" x1="1.00195" y1="1" x2="21.9916" y2="3.79847" gradientUnits="userSpaceOnUse">
<stop stop-color="#8BC0FF"/>
<stop offset="1" stop-color="#8F8CFF"/>
</linearGradient>
</defs>
</svg>
