<svg width="28" height="28" viewBox="0 0 28 28" fill="none" xmlns="http://www.w3.org/2000/svg">
<rect width="28" height="28" rx="4" fill="#8697FF"/>
<path d="M14.5182 13.4923H17.7542C18.0313 13.4923 18.2552 13.7157 18.2552 13.9923C18.2552 14.2688 18.0313 14.4923 17.7542 14.4923H14.5182V17.7313C14.5182 18.0079 14.2943 18.2313 14.0172 18.2313C13.7401 18.2313 13.5162 18.0079 13.5162 17.7313V14.4923H10.2599C9.98277 14.4923 9.7589 14.2688 9.7589 13.9923C9.7589 13.7157 9.98277 13.4923 10.2599 13.4923H13.5162V10.2517C13.5162 9.9751 13.7401 9.75166 14.0172 9.75166C14.2943 9.75166 14.5182 9.9751 14.5182 10.2517V13.4923Z" fill="white"/>
<path fill-rule="evenodd" clip-rule="evenodd" d="M20.2497 6.00166C20.6959 6.00166 21.1217 6.14541 21.4458 6.40479C21.798 6.68604 22 7.08604 22 7.50166V20.4985C22 21.3251 21.3252 21.9985 20.4971 21.9985H7.75186C7.30411 21.9985 6.87828 21.8548 6.55421 21.5954C6.20196 21.3142 6 20.9142 6 20.4985V7.49854C6 7.08291 6.20196 6.68291 6.55421 6.40166C6.87984 6.14229 7.30568 5.99854 7.75342 5.99854L20.2497 6.00166ZM20.4971 20.9985C20.7726 20.9985 20.998 20.7735 20.998 20.4985V7.50166C20.998 7.23604 20.6474 7.00166 20.2481 7.00166L7.75186 6.99854C7.53425 6.99854 7.32759 7.06572 7.18043 7.18135C7.11311 7.23447 7.00196 7.34697 7.00196 7.49854V20.4985C7.00196 20.7642 7.35264 20.9985 7.75186 20.9985H20.4971Z" fill="white"/>
</svg>
