<svg width="28" height="28" viewBox="0 0 28 28" fill="none" xmlns="http://www.w3.org/2000/svg">
<rect width="28" height="28" rx="14" fill="black"/>
<path d="M9.72461 11.2393C10.6481 11.2393 11.5559 11.1364 12.4317 11.2604C14.4355 11.5439 14.627 13.6458 13.8323 14.6109C13.6346 14.8494 13.3613 15.026 13.0976 15.2522C13.5161 15.8581 13.9461 16.479 14.4184 17.1606C13.955 17.1606 13.5454 17.1708 13.1364 17.151C13.0635 17.151 12.9858 17.0263 12.932 16.9466C12.6471 16.5376 12.3581 16.1287 12.093 15.7089C11.9696 15.5119 11.834 15.4274 11.5989 15.4526C11.351 15.4668 11.1026 15.4687 10.8546 15.4581V17.1524H9.72461V11.2393ZM10.888 14.431C11.2581 14.431 11.5859 14.431 11.9144 14.431C12.0051 14.4258 12.095 14.4105 12.1823 14.3853C12.6934 14.2585 13.0192 13.8946 13.0506 13.4209C13.0853 12.9043 12.81 12.4279 12.294 12.3052C11.8435 12.1982 11.3644 12.2139 10.888 12.1744V14.431Z" fill="white"/>
<path d="M7.98173 14.2523C7.98173 14.9754 7.98173 15.6774 7.97628 16.3794C7.97143 16.4219 7.95799 16.4629 7.93679 16.5001C7.91558 16.5372 7.88705 16.5697 7.85292 16.5954C6.69429 17.4078 4.37021 17.5169 3.25452 16.0188C2.53277 15.0497 2.43667 13.9831 2.94033 12.9001C3.41741 11.8655 4.30342 11.3441 5.41502 11.2337C6.23288 11.1526 7.02007 11.2678 7.765 11.7571L7.3438 12.5184C6.79856 12.4216 6.29558 12.2649 5.78919 12.256C4.58013 12.2356 3.76227 13.093 3.79294 14.2686C3.82225 15.3884 4.72189 16.2192 5.87848 16.1954C6.85718 16.1749 6.92533 16.104 6.92533 15.1553V14.2523H7.98173Z" fill="white"/>
<path d="M20.1143 16.173C20.8251 16.143 21.5421 16.2848 22.2271 15.9897C22.8514 15.7211 23.1874 15.255 23.1853 14.5632C23.1853 14.4739 23.201 14.3846 23.2112 14.2729H24.2254C24.4605 15.197 23.8962 16.3304 22.927 16.7946C22.5754 16.9629 22.1773 17.1108 21.7977 17.1306C20.8715 17.179 19.9419 17.1462 18.9863 17.1462V11.2168H21.1625V12.1744H20.1143V16.173Z" fill="white"/>
<path d="M17.0661 17.156H15.9668V11.2266H17.0661V17.156Z" fill="white"/>
<path d="M23.3328 9.89355H24.2297C24.2297 10.2486 24.2413 10.5955 24.2249 10.9411C24.214 11.1824 24.3061 11.2669 24.5405 11.2492C24.7329 11.2348 24.9261 11.2348 25.1185 11.2492C25.2548 11.2594 25.4994 11.2812 25.509 11.3337C25.5441 11.5666 25.5469 11.8033 25.5172 12.037C25.5172 12.0731 25.3693 12.1181 25.2882 12.1215C25.0278 12.1331 24.7661 12.1345 24.5057 12.1256C24.3013 12.1188 24.2188 12.1938 24.2263 12.4023C24.2386 12.7431 24.2263 13.0798 24.2263 13.4458H23.3348C23.3348 13.0927 23.326 12.7554 23.3383 12.4194C23.3464 12.1951 23.2565 12.114 23.0384 12.1249C22.8005 12.1365 22.5613 12.112 22.3241 12.1304C22.0515 12.1508 21.9547 12.0425 21.9833 11.778C21.9997 11.622 21.9833 11.4632 21.9833 11.2451C22.3432 11.2451 22.6792 11.2342 23.0138 11.2492C23.2449 11.2594 23.3437 11.181 23.3342 10.9425C23.3226 10.6058 23.3328 10.2664 23.3328 9.89355Z" fill="#59B4E5"/>
</svg>
