<svg width="80" height="80" viewBox="0 0 80 80" fill="none" xmlns="http://www.w3.org/2000/svg">
<path d="M55.6055 22.5781C55.937 22.5781 56.2549 22.7098 56.4894 22.9442C56.7238 23.1787 56.8555 23.4966 56.8555 23.8281V65.625C56.8555 65.9565 56.7238 66.2745 56.4894 66.5089C56.2549 66.7433 55.937 66.875 55.6055 66.875H15.9961C15.6646 66.875 15.3466 66.7433 15.1122 66.5089C14.8778 66.2745 14.7461 65.9565 14.7461 65.625V23.8281C14.7461 23.4966 14.8778 23.1787 15.1122 22.9442C15.3466 22.7098 15.6646 22.5781 15.9961 22.5781H55.6055ZM55.6055 18.2031H15.9961C14.5043 18.2031 13.0735 18.7958 12.0186 19.8506C10.9637 20.9055 10.3711 22.3363 10.3711 23.8281V65.625C10.3711 67.1168 10.9637 68.5476 12.0186 69.6025C13.0735 70.6574 14.5043 71.25 15.9961 71.25H55.6055C57.0973 71.25 58.5281 70.6574 59.5829 69.6025C60.6378 68.5476 61.2305 67.1168 61.2305 65.625V23.8281C61.2305 22.3363 60.6378 20.9055 59.5829 19.8506C58.5281 18.7958 57.0973 18.2031 55.6055 18.2031Z" fill="white"/>
<path d="M65.4688 8.90625H25.8594C24.3675 8.90625 22.9368 9.49888 21.8819 10.5538C20.827 11.6087 20.2344 13.0394 20.2344 14.5312V18.8281H24.6094V14.5312C24.6094 14.1997 24.7411 13.8818 24.9755 13.6474C25.2099 13.4129 25.5279 13.2812 25.8594 13.2812H65.4688C65.8003 13.2812 66.1182 13.4129 66.3526 13.6474C66.5871 13.8818 66.7188 14.1997 66.7188 14.5312V56.3281C66.7188 56.6596 66.5871 56.9776 66.3526 57.212C66.1182 57.4464 65.8003 57.5781 65.4688 57.5781H59.7656V61.9531H65.4688C66.9606 61.9531 68.3913 61.3605 69.4462 60.3056C70.5011 59.2507 71.0938 57.82 71.0938 56.3281V14.5312C71.0938 13.0394 70.5011 11.6087 69.4462 10.5538C68.3913 9.49888 66.9606 8.90625 65.4688 8.90625ZM40.8789 43.5938H30.0195V47.9688H40.8789V43.5938Z" fill="white"/>
<path d="M35.7221 29.5918C35.2739 29.5917 34.8357 29.7245 34.4631 29.9734C34.0904 30.2223 33.7999 30.5762 33.6283 30.9902L24.4096 53.2176C24.1806 53.7724 24.1812 54.3954 24.4112 54.9498C24.6411 55.5042 25.0817 55.9447 25.6361 56.1746C25.911 56.2886 26.2056 56.3474 26.5032 56.3475C26.8007 56.3476 27.0954 56.2892 27.3703 56.1754C27.6453 56.0617 27.8951 55.8949 28.1056 55.6845C28.3161 55.4742 28.4831 55.2245 28.5971 54.9496L37.8119 32.7254C38.0411 32.1711 38.0411 31.5485 37.8119 30.9941C37.5827 30.4398 37.143 29.999 36.5893 29.7684C36.3145 29.6539 36.0197 29.5949 35.7221 29.5949V29.5918Z" fill="white"/>
<path d="M35.8791 29.5918C35.5814 29.5918 35.2867 29.6507 35.0119 29.7652C34.4569 29.9954 34.0162 30.4365 33.7864 30.9917C33.5567 31.5468 33.5569 32.1704 33.7869 32.7254L43.0056 54.9527C43.2364 55.5069 43.6777 55.9468 44.2325 56.1759C44.7874 56.405 45.4105 56.4045 45.965 56.1746C46.5187 55.944 46.9584 55.5032 47.1876 54.9488C47.4168 54.3945 47.4168 53.7719 47.1877 53.2176L37.9689 30.9902C37.7974 30.5762 37.5069 30.2223 37.1342 29.9734C36.7615 29.7245 36.3233 29.5917 35.8752 29.5918H35.8791Z" fill="white"/>
</svg>
