<svg width="80" height="80" viewBox="0 0 80 80" fill="none" xmlns="http://www.w3.org/2000/svg">
<path d="M80 0H0V80H80V0Z" fill="white" fill-opacity="0.01"/>
<path d="M40.0003 60C58.4098 60 73.3337 40 73.3337 40C73.3337 40 58.4098 20 40.0003 20C21.5908 20 6.66699 40 6.66699 40C6.66699 40 21.5908 60 40.0003 60Z" stroke="white" stroke-width="6.66667" stroke-linejoin="round"/>
<path d="M40.0003 48.3332C44.6027 48.3332 48.3337 44.6022 48.3337 39.9998C48.3337 35.3975 44.6027 31.6665 40.0003 31.6665C35.398 31.6665 31.667 35.3975 31.667 39.9998C31.667 44.6022 35.398 48.3332 40.0003 48.3332Z" stroke="white" stroke-width="6.66667" stroke-linejoin="round"/>
</svg>
