<svg width="20" height="20" viewBox="0 0 20 20" fill="none" xmlns="http://www.w3.org/2000/svg">
<path d="M14.8043 8.89134V12.077C14.8043 12.077 14.8043 12.7207 14.629 13.5385C14.4537 14.2982 14.0737 15.3505 13.2261 16.2272C12.1747 17.3086 10.6249 17.8639 8.63737 17.8639C6.67922 17.8639 5.15944 17.3086 4.07801 16.2272C3.20129 15.3505 2.82129 14.2399 2.64599 13.4807C2.44129 12.6332 2.47068 11.9901 2.47068 11.961V8.86216C5.07168 8.89134 14.8043 8.89134 14.8043 8.89134ZM14.8043 7.69298H2.47068C1.79844 7.69298 1.27232 8.2191 1.27232 8.89134V11.9597C1.27232 12.0474 1.27232 12.8072 1.4768 13.7717C1.6815 14.6778 2.17823 16.0223 3.23047 17.1037C4.51638 18.4188 6.32862 19.0911 8.63759 19.0911C10.9466 19.0911 12.7876 18.4192 14.0728 17.1042C15.1242 16.0227 15.5926 14.7366 15.7971 13.8599C16.031 12.9246 16.0018 12.2232 16.0018 12.1062V8.92095C16.0018 8.24871 15.4757 7.69341 14.8034 7.69341L14.8043 7.69298ZM15.8565 9.73889H15.1843V10.9379H15.8565C16.7624 10.9379 17.5224 10.8501 17.5224 11.7563V13.3625C17.5224 14.2686 16.7624 15.0284 15.8565 15.0284H14.8626C14.7459 15.4084 14.5998 15.8176 14.3951 16.2268H15.8565C17.4347 16.2268 18.7206 14.9409 18.7206 13.3625V11.7556C18.7206 10.1772 18.2239 9.73889 15.8565 9.73889ZM5.36414 6.99155C5.13026 6.99155 4.92556 6.87461 4.83801 6.6697C4.80314 6.60067 4.78228 6.52542 4.77663 6.44829C4.77099 6.37116 4.78067 6.29368 4.80513 6.22031C4.82959 6.14694 4.86833 6.07914 4.91912 6.02082C4.96992 5.9625 5.03176 5.91482 5.10107 5.88052C5.18862 5.82216 5.51026 5.61746 5.53944 5.38379C5.56862 5.15013 5.36414 4.82828 4.98414 4.50685C4.28321 3.89319 3.96172 3.2502 4.01965 2.57789C4.10719 1.61233 4.98414 1.0581 5.07104 0.999735C5.36349 0.824218 5.71474 0.911977 5.8894 1.20422C6.06406 1.49646 5.97716 1.84792 5.68492 2.02258C5.68492 2.02258 5.21716 2.31482 5.18798 2.69482C5.15879 3.04564 5.48022 3.39625 5.74328 3.63013C6.4741 4.27297 6.79559 4.91596 6.70776 5.5591C6.59082 6.465 5.7141 6.93233 5.62634 6.96194C5.53944 6.96237 5.45168 6.99155 5.36414 6.99155ZM8.98755 7.16686C8.75367 7.16686 8.54919 7.05013 8.46143 6.84501C8.42658 6.77597 8.40574 6.70072 8.40011 6.6236C8.39448 6.54647 8.40418 6.469 8.42863 6.39564C8.45308 6.32228 8.49182 6.25448 8.54259 6.19616C8.59337 6.13784 8.65519 6.09014 8.72449 6.05582C8.81225 5.99746 9.13367 5.79298 9.16285 5.5591C9.19203 5.32522 8.98755 5.00379 8.60755 4.68216C7.90663 4.06849 7.58513 3.42557 7.64306 2.7534C7.73082 1.78784 8.60755 1.2334 8.69445 1.17504C8.98669 0.999735 9.33815 1.08728 9.51281 1.37974C9.68747 1.67219 9.60036 2.02344 9.30812 2.19788C9.30812 2.19788 8.84057 2.49034 8.81139 2.87013C8.78199 3.22095 9.10363 3.57155 9.36669 3.80543C10.0972 4.44914 10.4191 5.09212 10.3322 5.7344C10.2153 6.64052 9.33837 7.10764 9.25082 7.13725C9.1635 7.13768 9.07574 7.16686 8.98755 7.16686ZM12.1447 7.16686C11.9108 7.16686 11.7063 7.05013 11.6186 6.84501C11.5837 6.77597 11.5629 6.70072 11.5573 6.6236C11.5516 6.54647 11.5613 6.469 11.5858 6.39564C11.6102 6.32228 11.649 6.25448 11.6997 6.19616C11.7505 6.13784 11.8123 6.09014 11.8816 6.05582C11.9694 5.99746 12.2908 5.79298 12.32 5.5591C12.3492 5.32522 12.1447 5.00379 11.7647 4.68216C11.0638 4.06849 10.7423 3.42557 10.8002 2.7534C10.888 1.78784 11.7647 1.2334 11.8516 1.17504C12.1438 0.999735 12.4953 1.08728 12.67 1.37974C12.8446 1.67219 12.7575 2.02344 12.4653 2.19788C12.4653 2.19788 11.9977 2.49034 11.9683 2.87013C11.9391 3.22095 12.2608 3.57155 12.5236 3.80543C13.2545 4.44914 13.5759 5.09212 13.4881 5.7344C13.3714 6.64052 12.4945 7.10764 12.4069 7.13725C12.32 7.13768 12.2322 7.16686 12.1447 7.16686Z" fill="white"/>
<mask id="mask0_14008_10192" style="mask-type:alpha" maskUnits="userSpaceOnUse" x="1" y="0" width="18" height="20">
<path d="M14.8138 8.88744V12.0731C14.8138 12.0731 14.8138 12.7168 14.6385 13.5346C14.4632 14.2943 14.0832 15.3466 13.2356 16.2233C12.1842 17.3047 10.6344 17.86 8.64686 17.86C6.68871 17.86 5.16893 17.3047 4.0875 16.2233C3.21078 15.3466 2.83078 14.236 2.65547 13.4768C2.45077 12.6293 2.48017 11.9862 2.48017 11.9571V8.85825C5.08117 8.88744 14.8138 8.88744 14.8138 8.88744ZM14.8138 7.68907H2.48017C1.80793 7.68907 1.28181 8.21519 1.28181 8.88744V11.9558C1.28181 12.0435 1.28181 12.8033 1.48629 13.7678C1.69099 14.6739 2.18771 16.0184 3.23996 17.0998C4.52586 18.4149 6.33811 19.0872 8.64708 19.0872C10.956 19.0872 12.797 18.4153 14.0823 17.1003C15.1337 16.0188 15.6021 14.7327 15.8066 13.856C16.0405 12.9207 16.0113 12.2193 16.0113 12.1023V8.91705C16.0113 8.2448 15.4852 7.6895 14.8129 7.6895L14.8138 7.68907ZM15.866 9.73498H15.1938V10.934H15.866C16.7719 10.934 17.5319 10.8462 17.5319 11.7524V13.3586C17.5319 14.2647 16.7719 15.0245 15.866 15.0245H14.8721C14.7554 15.4045 14.6093 15.8137 14.4046 16.2229H15.866C17.4442 16.2229 18.7301 14.937 18.7301 13.3586V11.7517C18.7301 10.1733 18.2333 9.73498 15.866 9.73498ZM5.37362 6.98765C5.13974 6.98765 4.93505 6.87071 4.8475 6.6658C4.81263 6.59677 4.79176 6.52152 4.78612 6.44439C4.78048 6.36726 4.79016 6.28977 4.81462 6.2164C4.83907 6.14303 4.87782 6.07523 4.92861 6.01691C4.97941 5.95859 5.04124 5.91091 5.11056 5.87661C5.19811 5.81825 5.51974 5.61355 5.54893 5.37989C5.57811 5.14622 5.37362 4.82437 4.99362 4.50295C4.2927 3.88928 3.97121 3.24629 4.02914 2.57398C4.11668 1.60842 4.99362 1.05419 5.08052 0.995829C5.37298 0.820312 5.72423 0.908071 5.89889 1.20031C6.07355 1.49255 5.98664 1.84402 5.6944 2.01868C5.6944 2.01868 5.22664 2.31092 5.19746 2.69092C5.16828 3.04174 5.4897 3.39234 5.75277 3.62622C6.48358 4.26907 6.80508 4.91206 6.71725 5.55519C6.60031 6.4611 5.72358 6.92843 5.63583 6.95804C5.54893 6.95847 5.46117 6.98765 5.37362 6.98765ZM8.99704 7.16295C8.76316 7.16295 8.55867 7.04623 8.47092 6.8411C8.43607 6.77207 8.41523 6.69682 8.4096 6.61969C8.40397 6.54257 8.41366 6.46509 8.43812 6.39173C8.46257 6.31837 8.5013 6.25057 8.55208 6.19225C8.60286 6.13393 8.66468 6.08623 8.73398 6.05192C8.82174 5.99355 9.14316 5.78907 9.17234 5.55519C9.20152 5.32131 8.99704 4.99989 8.61704 4.67825C7.91611 4.06458 7.59462 3.42167 7.65255 2.7495C7.74031 1.78394 8.61704 1.22949 8.70394 1.17113C8.99618 0.995829 9.34764 1.08337 9.5223 1.37583C9.69696 1.66829 9.60984 2.01953 9.3176 2.19398C9.3176 2.19398 8.85006 2.48644 8.82088 2.86622C8.79148 3.21704 9.11312 3.56764 9.37618 3.80152C10.1067 4.44523 10.4286 5.08822 10.3417 5.73049C10.2248 6.63662 9.34786 7.10373 9.26031 7.13334C9.17298 7.13377 9.08523 7.16295 8.99704 7.16295ZM12.1542 7.16295C11.9203 7.16295 11.7158 7.04623 11.6281 6.8411C11.5932 6.77207 11.5724 6.69682 11.5668 6.61969C11.5611 6.54257 11.5708 6.46509 11.5953 6.39173C11.6197 6.31837 11.6585 6.25057 11.7092 6.19225C11.76 6.13393 11.8218 6.08623 11.8911 6.05192C11.9789 5.99355 12.3003 5.78907 12.3295 5.55519C12.3587 5.32131 12.1542 4.99989 11.7742 4.67825C11.0733 4.06458 10.7518 3.42167 10.8097 2.7495C10.8975 1.78394 11.7742 1.22949 11.8611 1.17113C12.1533 0.995829 12.5048 1.08337 12.6795 1.37583C12.8541 1.66829 12.767 2.01953 12.4748 2.19398C12.4748 2.19398 12.0072 2.48644 11.9778 2.86622C11.9486 3.21704 12.2703 3.56764 12.5331 3.80152C13.2639 4.44523 13.5854 5.08822 13.4976 5.73049C13.3809 6.63662 12.5039 7.10373 12.4164 7.13334C12.3295 7.13377 12.2417 7.16295 12.1542 7.16295Z" fill="white"/>
</mask>
<g mask="url(#mask0_14008_10192)">
<ellipse opacity="0.2" cx="4.1004" cy="6.81601" rx="4.09091" ry="4.09091" fill="white"/>
<ellipse opacity="0.2" cx="13.6458" cy="16.3615" rx="3.63636" ry="3.63636" fill="white"/>
</g>
</svg>
