<svg width="32" height="32" viewBox="0 0 32 32" fill="none" xmlns="http://www.w3.org/2000/svg">
<g clip-path="url(#clip0_452_747)">
<circle cx="16" cy="16" r="16" fill="white"/>
<path d="M14.6099 7.69127L14.6108 15.1716C14.6108 15.2044 14.6247 15.2291 14.6524 15.2458C15.8835 15.9716 17.0868 16.6724 18.2623 17.3482C18.9216 17.7266 19.3892 18.0409 19.6653 18.2913C21.7447 20.1758 22.1412 23.2492 20.57 25.5853C18.7549 28.284 14.9759 28.8005 12.4917 26.7297C11.7104 26.078 11.1476 25.2631 10.8032 24.2851C10.1895 22.5397 10.5 20.6886 11.5665 19.1751C11.9889 18.576 12.6081 18.2969 13.2994 18.7031C13.7541 18.9708 14.2461 19.2608 14.7753 19.573C14.7787 19.5749 14.7816 19.5776 14.7838 19.5808C14.7859 19.584 14.7873 19.5877 14.7879 19.5914C14.7884 19.5952 14.7881 19.599 14.7869 19.6026C14.7856 19.6062 14.7836 19.6094 14.7809 19.6119C14.4408 19.9699 14.0711 20.3427 13.7791 20.722C13.3509 21.2778 13.1494 21.8976 13.1746 22.5814C13.2661 25.0279 16.1801 26.2456 17.9527 24.5475C19.0636 23.4829 19.1366 21.7718 18.1265 20.5903C17.9614 20.3968 17.584 20.1254 16.9943 19.7761C15.605 18.9526 14.2159 18.129 12.8271 17.3055C12.1254 16.8894 11.6054 16.5216 11.2671 16.2019C9.34848 14.3889 8.56291 11.7978 9.2385 9.2057C9.77176 7.15802 11.2348 5.47295 13.1368 4.6179C16.7661 2.98662 20.9795 4.70136 22.4933 8.39609C22.9776 9.57851 23.1319 10.9891 22.8815 12.305C22.5783 13.8964 21.802 15.2495 20.5525 16.3642C19.8603 16.9809 19.3215 16.8669 18.6015 16.4245C17.9786 16.0412 17.3079 15.6532 16.5895 15.2606C16.5641 15.2465 16.5428 15.2259 16.528 15.201C16.5132 15.176 16.5054 15.1476 16.5054 15.1187V12.1529C16.5054 12.1214 16.5212 12.1056 16.5526 12.1056L17.5951 12.1066C17.6277 12.1066 17.644 12.0899 17.644 12.0565L17.6468 9.00353C17.6468 8.98975 17.6414 8.97654 17.6317 8.9668C17.622 8.95706 17.6088 8.95159 17.5951 8.95159L16.5535 8.95623C16.541 8.95623 16.529 8.95125 16.5202 8.94238C16.5113 8.93351 16.5064 8.92148 16.5064 8.90893V7.69127C16.5064 7.67577 16.5002 7.66091 16.4893 7.64996C16.4784 7.639 16.4636 7.63284 16.4481 7.63284L14.6672 7.63377C14.629 7.63377 14.6099 7.65294 14.6099 7.69127Z" fill="#2A3330"/>
</g>
<defs>
<clipPath id="clip0_452_747">
<rect width="32" height="32" fill="white"/>
</clipPath>
</defs>
</svg>
