<svg width="28" height="28" viewBox="0 0 28 28" fill="none" xmlns="http://www.w3.org/2000/svg">
<rect width="28" height="28" rx="14" fill="#212C67"/>
<path d="M21.2363 6.125V6.54644C21.2363 9.59735 21.2733 12.649 21.2258 15.6985C21.1791 18.7038 19.7372 20.916 16.9652 22.1022C14.2064 23.2829 11.5843 22.8373 9.30889 20.8656C7.74847 19.5142 7.00279 17.7566 7 15.6999C7 14.3416 7 12.9829 7 11.6237V11.2327H16.0361C16.0542 11.3076 16.0664 11.3838 16.0723 11.4606C16.0723 12.8769 16.0821 14.2932 16.0723 15.7089C16.0653 16.5959 15.5324 17.3145 14.7281 17.5742C13.9239 17.834 13.0345 17.5791 12.5588 16.8833C12.3537 16.5849 12.2637 16.1925 12.1758 15.8353C12.1207 15.6101 12.1654 15.36 12.1654 15.1002H10.9614C10.6189 16.9172 11.7594 18.4406 13.3533 18.8061C15.4536 19.2897 17.3237 17.7939 17.3293 15.6529C17.3293 13.8916 17.3293 12.1303 17.3293 10.3691V9.98079H7.02302V6.125H21.2363ZM8.34906 12.537C8.3379 12.66 8.32395 12.7491 8.32325 12.8389C8.32325 13.8407 8.3107 14.8425 8.32953 15.8443C8.33395 16.235 8.38072 16.6241 8.46904 17.0049C9.15054 19.8424 11.7231 21.6421 14.703 21.383C17.6237 21.1288 19.9061 18.6789 19.9102 15.7835C19.9144 13.1236 19.9144 10.4639 19.9102 7.80452V7.4349H8.35464V8.65707H18.6553V9.11581C18.6553 11.2566 18.6553 13.3983 18.6553 15.541C18.6545 15.7825 18.6401 16.0237 18.6121 16.2636C18.3687 18.3881 16.7015 19.9495 14.4422 20.174C12.443 20.3723 10.4257 19.0624 9.81182 17.13C9.68208 16.6896 9.60804 16.235 9.5914 15.7766C9.55512 15.1161 9.58233 14.4521 9.58233 13.7965H13.4886C13.4886 14.4307 13.4844 15.0401 13.4886 15.6474C13.4928 16.102 13.7265 16.3755 14.0976 16.3831C14.4861 16.3907 14.7456 16.1027 14.747 15.646C14.7507 14.7022 14.7507 13.758 14.747 12.8134C14.747 12.7256 14.7302 12.6379 14.7198 12.537H8.34906Z" fill="white"/>
</svg>
