<svg width="24" height="24" viewBox="0 0 24 24" fill="none" xmlns="http://www.w3.org/2000/svg">
<path opacity="0.2" d="M21.0901 8.09033V22.0903C21.0901 22.6426 20.6424 23.0903 20.0901 23.0903H6.09009C5.5378 23.0903 5.09009 22.6426 5.09009 22.0903V4.09033C5.09009 3.53805 5.5378 3.09033 6.09009 3.09033H16.5901L21.0901 8.09033ZM21.0901 8.09033H16.0901V3.09033M14.5901 13.0903L17.0901 15.5903L14.5901 18.0903M11.5901 13.0903L9.09009 15.5903L11.5901 18.0903" stroke="url(#paint0_linear_10204_4652)" stroke-width="1.5" stroke-linecap="round" stroke-linejoin="round"/>
<path d="M19.9993 6.99951V20.9995C19.9993 21.5518 19.5516 21.9995 18.9993 21.9995H4.99927C4.44698 21.9995 3.99927 21.5518 3.99927 20.9995V2.99951C3.99927 2.44723 4.44698 1.99951 4.99927 1.99951H15.4993L19.9993 6.99951ZM19.9993 6.99951H14.9993V1.99951M13.4993 11.9995L15.9993 14.4995L13.4993 16.9995M10.4993 11.9995L7.99927 14.4995L10.4993 16.9995" stroke="url(#paint1_linear_10204_4652)" stroke-width="1.5" stroke-linecap="round" stroke-linejoin="round"/>
<mask id="mask0_10204_4652" style="mask-type:alpha" maskUnits="userSpaceOnUse" x="3" y="1" width="18" height="22">
<path d="M19.9993 6.99951V20.9995C19.9993 21.5518 19.5516 21.9995 18.9993 21.9995H4.99927C4.44698 21.9995 3.99927 21.5518 3.99927 20.9995V2.99951C3.99927 2.44723 4.44698 1.99951 4.99927 1.99951H15.4993L19.9993 6.99951ZM19.9993 6.99951H14.9993V1.99951M13.4993 11.9995L15.9993 14.4995L13.4993 16.9995M10.4993 11.9995L7.99927 14.4995L10.4993 16.9995" stroke="url(#paint2_linear_10204_4652)" stroke-width="1.5" stroke-linecap="round" stroke-linejoin="round"/>
</mask>
<g mask="url(#mask0_10204_4652)">
<circle opacity="0.2" cx="18.5455" cy="21.8182" r="4.36364" fill="white"/>
<circle opacity="0.2" cx="2.18166" cy="6.54519" r="3.27273" fill="white"/>
</g>
<defs>
<linearGradient id="paint0_linear_10204_4652" x1="5.45443" y1="1.63614" x2="26.0971" y2="6.7515" gradientUnits="userSpaceOnUse">
<stop stop-color="#8BC0FF"/>
<stop offset="1" stop-color="#8F8CFF"/>
</linearGradient>
<linearGradient id="paint1_linear_10204_4652" x1="4.36361" y1="0.545323" x2="25.0063" y2="5.66068" gradientUnits="userSpaceOnUse">
<stop stop-color="#8BC0FF"/>
<stop offset="1" stop-color="#8F8CFF"/>
</linearGradient>
<linearGradient id="paint2_linear_10204_4652" x1="4.36361" y1="0.545323" x2="25.0063" y2="5.66068" gradientUnits="userSpaceOnUse">
<stop stop-color="#8BC0FF"/>
<stop offset="1" stop-color="#8F8CFF"/>
</linearGradient>
</defs>
</svg>
