<svg width="28" height="28" viewBox="0 0 28 28" fill="none" xmlns="http://www.w3.org/2000/svg">
<rect width="28" height="28" rx="14" fill="white"/>
<path d="M7 17.034C7.016 16.3571 7.15692 15.8187 7.44306 15.3208C9.41509 11.8941 11.3879 8.4686 13.3616 5.04432C13.6982 4.46034 14.1283 4.26527 14.644 4.43265C14.8151 4.48865 14.9726 4.57418 15.0692 4.72064C15.396 5.21293 15.7178 5.71322 15.9412 6.26396C16.1369 6.74518 16.0452 7.21162 15.7935 7.64606C13.5905 11.4474 11.3855 15.247 9.17838 19.045C9.03438 19.2912 8.90516 19.549 8.74393 19.7834C8.50948 20.125 8.09165 20.1262 7.88243 19.7711C7.38969 18.9351 7.08832 18.0004 7 17.034Z" fill="black"/>
<path d="M17.449 21.4093C17.449 21.6795 17.4097 21.949 17.2644 22.1742C16.8404 22.8222 16.3697 23.4216 15.547 23.5945C15.1901 23.6696 14.8516 23.5976 14.5316 23.4487C13.3641 22.9047 12.1994 22.3554 11.0376 21.8007C10.0973 21.3527 9.77611 20.3239 10.2924 19.4285C10.7051 18.7122 11.1207 17.9972 11.5391 17.2834C12.0683 16.3769 13.0123 16.2416 13.7655 16.98C14.8159 18.0101 15.8546 19.0525 16.8964 20.0912C17.0737 20.2615 17.2142 20.4664 17.3093 20.6931C17.4043 20.9198 17.4519 21.1635 17.449 21.4093Z" fill="black"/>
<path d="M18.119 15.422C18.8156 15.422 19.5128 15.4109 20.2113 15.4256C20.8918 15.4392 21.4377 15.7266 21.805 16.3087C22.1429 16.8434 22.1158 17.4563 21.6955 17.9302C21.1592 18.5359 20.5836 19.1057 19.9725 19.6359C19.3861 20.1436 18.5855 20.1184 18.0181 19.5744C17.0951 18.6889 16.1942 17.7806 15.2896 16.8761C15.0213 16.6071 14.9235 16.281 15.089 15.921C15.2459 15.5795 15.537 15.4287 15.9056 15.4232C16.6428 15.4189 17.3806 15.422 18.119 15.422Z" fill="#2161FF"/>
<path d="M16.8107 14.2935C16.3295 14.2935 15.8483 14.2991 15.367 14.2935C14.3591 14.2806 13.8286 13.3705 14.3209 12.493C14.7911 11.6569 15.271 10.826 15.7609 10.0002C16.3682 8.98174 17.5583 8.98727 18.1571 10.0069C18.6022 10.7638 19.0412 11.5242 19.474 12.2881C19.9662 13.1594 19.4635 14.1729 18.4654 14.2695C17.9183 14.3225 17.3614 14.2788 16.8094 14.2788L16.8107 14.2935Z" fill="black"/>
</svg>
