<svg width="28" height="28" viewBox="0 0 28 28" fill="none" xmlns="http://www.w3.org/2000/svg">
<g clip-path="url(#clip0_12572_5362)">
<path opacity="0.2" d="M22.2115 10.2526V23.6693C22.2115 24.1986 21.7825 24.6276 21.2532 24.6276H7.83651C7.30723 24.6276 6.87817 24.1986 6.87817 23.6693V6.41927C6.87817 5.89 7.30723 5.46094 7.83651 5.46094H17.899L22.2115 10.2526ZM22.2115 10.2526H17.4198V5.46094M15.9823 15.0443L18.3782 17.4401L15.9823 19.8359M13.1073 15.0443L10.7115 17.4401L13.1073 19.8359" stroke="url(#paint0_linear_12572_5362)" stroke-width="1.4375" stroke-linecap="round" stroke-linejoin="round"/>
<path d="M21.1661 9.20768V22.6244C21.1661 23.1536 20.7371 23.5827 20.2078 23.5827H6.7911C6.26182 23.5827 5.83276 23.1536 5.83276 22.6244V5.37435C5.83276 4.84508 6.26182 4.41602 6.7911 4.41602H16.8536L21.1661 9.20768ZM21.1661 9.20768H16.3744V4.41602M14.9369 13.9993L17.3328 16.3952L14.9369 18.791M12.0619 13.9993L9.6661 16.3952L12.0619 18.791" stroke="url(#paint1_linear_12572_5362)" stroke-width="1.4375" stroke-linecap="round" stroke-linejoin="round"/>
<mask id="mask0_12572_5362" style="mask-type:alpha" maskUnits="userSpaceOnUse" x="5" y="3" width="17" height="22">
<path d="M21.1659 9.20573V22.6224C21.1659 23.1517 20.7368 23.5807 20.2075 23.5807H6.79085C6.26158 23.5807 5.83252 23.1517 5.83252 22.6224V5.3724C5.83252 4.84312 6.26158 4.41406 6.79085 4.41406H16.8534L21.1659 9.20573ZM21.1659 9.20573H16.3742V4.41406M14.9367 13.9974L17.3325 16.3932L14.9367 18.7891M12.0617 13.9974L9.66585 16.3932L12.0617 18.7891" stroke="url(#paint2_linear_12572_5362)" stroke-width="1.4375" stroke-linecap="round" stroke-linejoin="round"/>
</mask>
<g mask="url(#mask0_12572_5362)">
<circle opacity="0.2" cx="19.7726" cy="23.4084" r="4.18182" fill="white"/>
<circle opacity="0.2" cx="4.09071" cy="8.77113" r="3.13636" fill="white"/>
</g>
</g>
<defs>
<linearGradient id="paint0_linear_12572_5362" x1="7.22734" y1="4.06734" x2="27.0099" y2="8.96956" gradientUnits="userSpaceOnUse">
<stop stop-color="#8BC0FF"/>
<stop offset="1" stop-color="#8F8CFF"/>
</linearGradient>
<linearGradient id="paint1_linear_12572_5362" x1="6.18193" y1="3.02242" x2="25.9645" y2="7.92464" gradientUnits="userSpaceOnUse">
<stop stop-color="#8BC0FF"/>
<stop offset="1" stop-color="#8F8CFF"/>
</linearGradient>
<linearGradient id="paint2_linear_12572_5362" x1="6.18169" y1="3.02046" x2="25.9642" y2="7.92268" gradientUnits="userSpaceOnUse">
<stop stop-color="#8BC0FF"/>
<stop offset="1" stop-color="#8F8CFF"/>
</linearGradient>
<clipPath id="clip0_12572_5362">
<rect width="23" height="23" fill="white" transform="translate(2 2.5)"/>
</clipPath>
</defs>
</svg>
