<svg viewBox="0 0 28 28" fill="none" xmlns="http://www.w3.org/2000/svg">
<rect width="28" height="28" rx="14" fill="url(#paint0_linear_36270_19093)"/>
<path d="M5.10742 4.375L12.8185 10.2331L11.5635 6.85811L5.10742 4.375Z" fill="#E27625"/>
<path d="M4.08203 17.7842L5.5719 22.2538L10.0723 20.764L7.92042 17.752L4.08203 17.7842Z" fill="#E27625"/>
<path d="M9.70096 12.0102L8.52148 14.307L13.0532 14.4312L12.6186 9.34082L9.70096 12.0102Z" fill="#E27625"/>
<path d="M10.0742 20.7639L12.5727 19.7707L10.3225 17.7842L10.0742 20.7639Z" fill="#E27625"/>
<path d="M10.0742 20.7638L12.464 22.1915L12.5727 19.7705L10.0742 20.7638Z" fill="#D7CCC8"/>
<path d="M10.0731 20.7639L10.3214 17.7842H7.90039L10.0731 20.7639Z" fill="#CC6228"/>
<path d="M12.8663 14.3076L12.4805 16.7182L12.995 19.3672L13.1102 15.8759L12.8663 14.3076Z" fill="#FB8C00"/>
<path d="M4.11328 7.35473L5.60315 13.8108L9.74 12.4228L12.5558 9.83784L5.10652 4.375L4.11328 7.35473Z" fill="#763E1A"/>
<path d="M12.5559 16.4182L8.58291 14.3075L9.73954 12.4229L5.60269 13.8109L4.08203 17.7839H10.3211L12.5713 19.7704L12.9944 19.3671L12.5559 16.4182Z" fill="#FB8C00"/>
<path d="M10.3222 16.0458L12.557 16.7907L12.8673 14.3076H8.58398L10.3222 16.0458Z" fill="#CC6228"/>
<path d="M12.5571 16.7906L10.3223 16.0457L11.8742 15.3008L12.5571 16.7906Z" fill="#212121"/>
<path d="M16.5113 6.85811L15.2559 10.2331L22.9674 4.375L16.5113 6.85811Z" fill="#E27625"/>
<path d="M20.155 17.752L18.0195 20.764L22.5035 22.2538L23.9934 17.7842L20.155 17.752Z" fill="#E27625"/>
<path d="M15.4129 9.46582L15.1895 14.4752L19.5553 14.3079L18.5163 12.3214L15.4129 9.46582Z" fill="#E27625"/>
<path d="M17.7533 17.7842L15.5195 19.7707L18.018 20.7639L17.7533 17.7842Z" fill="#E27625"/>
<path d="M15.5195 19.7705L15.6119 22.1915L18.0185 20.7638L15.5195 19.7705Z" fill="#D7CCC8"/>
<path d="M20.1749 17.7842H17.7539L18.0186 20.7639L20.1749 17.7842Z" fill="#CC6228"/>
<path d="M15.7064 21.9789V21.2603H12.3711V21.9789L10.0742 20.7637L12.5573 22.7502H15.5202L18.0202 20.7637L15.7064 21.9789Z" fill="#BCAAA4"/>
<path d="M22.9695 4.375L15.5371 9.83784L18.3366 12.4228L22.4893 13.8108L23.9628 7.35473L22.9695 4.375Z" fill="#763E1A"/>
<path d="M22.4882 13.8109L18.3349 12.4229L19.4915 14.3075L15.5722 16.5801L15.2082 14.3075L14.9648 15.8759L15.0801 19.3671L15.0806 19.3636L15.0801 19.3671L15.5196 19.7704L17.7534 17.7839H23.9924L22.4882 13.8109Z" fill="#FB8C00"/>
<path d="M11.5645 6.8584L12.5577 9.83813L12.8884 14.4751L12.9883 15.8835L12.9962 19.3673H14.0386V19.345L14.0396 19.3673H15.082L15.09 15.8835L15.1898 14.4751L15.5374 9.83813L16.5307 6.8584H11.5645Z" fill="#FB8C00"/>
<path d="M15.5371 19.7701L15.0702 19.2734H13.0073L12.5573 19.7701L12.3711 21.2599H15.7064L15.5371 19.7701Z" fill="#212121"/>
<path d="M19.4923 14.3076H15.209L15.5194 16.7907L17.7542 16.0458L19.4923 14.3076Z" fill="#CC6228"/>
<path d="M16.2188 15.3008L17.7543 16.0457L15.5195 16.7906L16.2188 15.3008Z" fill="#212121"/>
<defs>
<linearGradient id="paint0_linear_36270_19093" x1="14" y1="0" x2="14" y2="28" gradientUnits="userSpaceOnUse">
<stop stop-color="#FEF5E6"/>
<stop offset="1" stop-color="#E4CBB1"/>
</linearGradient>
</defs>
</svg>
