<svg width="24" height="24" viewBox="0 0 24 24" fill="none" xmlns="http://www.w3.org/2000/svg">
<g opacity="0.2">
<path d="M20.731 3.7627H8.84814C8.40059 3.7627 7.97137 3.94049 7.6549 4.25695C7.33843 4.57342 7.16064 5.00264 7.16064 5.4502V6.73926H8.47314V5.4502C8.47314 5.35074 8.51265 5.25536 8.58298 5.18503C8.65331 5.1147 8.74869 5.0752 8.84814 5.0752H20.731C20.8304 5.0752 20.9258 5.1147 20.9961 5.18503C21.0665 5.25536 21.106 5.35074 21.106 5.4502V17.9893C21.106 18.0887 21.0665 18.1841 20.9961 18.2544C20.9258 18.3247 20.8304 18.3643 20.731 18.3643H19.02V19.6768H20.731C21.1785 19.6768 21.6077 19.499 21.9242 19.1825C22.2407 18.866 22.4185 18.4368 22.4185 17.9893V5.4502C22.4185 5.00264 22.2407 4.57342 21.9242 4.25695C21.6077 3.94049 21.1785 3.7627 20.731 3.7627ZM13.354 14.1689H10.0962V15.4814H13.354V14.1689Z" fill="url(#paint0_linear_10204_4661)"/>
<path d="M17.772 7.86426C17.8714 7.86426 17.9668 7.90377 18.0371 7.97409C18.1075 8.04442 18.147 8.1398 18.147 8.23926V20.7783C18.147 20.8778 18.1075 20.9732 18.0371 21.0435C17.9668 21.1138 17.8714 21.1533 17.772 21.1533H5.88916C5.7897 21.1533 5.69432 21.1138 5.624 21.0435C5.55367 20.9732 5.51416 20.8778 5.51416 20.7783V8.23926C5.51416 8.1398 5.55367 8.04442 5.624 7.97409C5.69432 7.90377 5.7897 7.86426 5.88916 7.86426H17.772ZM17.772 6.55176H5.88916C5.44161 6.55176 5.01239 6.72955 4.69592 7.04602C4.37945 7.36248 4.20166 7.79171 4.20166 8.23926V20.7783C4.20166 21.2259 4.37945 21.6551 4.69592 21.9716C5.01239 22.288 5.44161 22.4658 5.88916 22.4658H17.772C18.2195 22.4658 18.6487 22.288 18.9652 21.9716C19.2817 21.6551 19.4595 21.2259 19.4595 20.7783V8.23926C19.4595 7.79171 19.2817 7.36248 18.9652 7.04602C18.6487 6.72955 18.2195 6.55176 17.772 6.55176Z" fill="url(#paint1_linear_10204_4661)"/>
<path d="M11.807 9.96777C11.6725 9.96773 11.5411 10.0076 11.4292 10.0823C11.3174 10.1569 11.2303 10.2631 11.1788 10.3873L8.4132 17.0555C8.34452 17.222 8.34469 17.4089 8.41368 17.5752C8.48267 17.7415 8.61484 17.8737 8.78117 17.9426C8.86363 17.9768 8.95201 17.9944 9.04128 17.9945C9.13055 17.9945 9.21895 17.977 9.30143 17.9429C9.38392 17.9087 9.45888 17.8587 9.52202 17.7956C9.58517 17.7325 9.63526 17.6576 9.66945 17.5751L12.4339 10.9079C12.5027 10.7415 12.5027 10.5548 12.4339 10.3885C12.3651 10.2222 12.2332 10.0899 12.0671 10.0207C11.9847 9.9864 11.8963 9.96777 11.807 9.96777Z" fill="url(#paint2_linear_10204_4661)"/>
<path d="M11.8538 9.96777C11.7645 9.96777 11.676 9.98546 11.5936 10.0198C11.4271 10.0889 11.2949 10.2212 11.226 10.3877C11.1571 10.5543 11.1571 10.7414 11.2261 10.9079L13.9917 17.5761C14.061 17.7423 14.1933 17.8743 14.3598 17.943C14.5263 18.0117 14.7132 18.0116 14.8795 17.9426C15.0457 17.8734 15.1776 17.7412 15.2463 17.5749C15.3151 17.4086 15.3151 17.2218 15.2463 17.0555L12.4807 10.3873C12.4292 10.2631 12.3421 10.1569 12.2303 10.0823C12.1185 10.0076 11.987 9.96773 11.8526 9.96777H11.8538Z" fill="url(#paint3_linear_10204_4661)"/>
</g>
<path d="M19.6401 2.67188H7.75732C7.30977 2.67188 6.88055 2.84966 6.56408 3.16613C6.24761 3.4826 6.06982 3.91182 6.06982 4.35938V5.64844H7.38232V4.35938C7.38232 4.25992 7.42183 4.16454 7.49216 4.09421C7.56249 4.02388 7.65787 3.98438 7.75732 3.98438H19.6401C19.7396 3.98438 19.835 4.02388 19.9053 4.09421C19.9756 4.16454 20.0151 4.25992 20.0151 4.35938V16.8984C20.0151 16.9979 19.9756 17.0933 19.9053 17.1636C19.835 17.2339 19.7396 17.2734 19.6401 17.2734H17.9292V18.5859H19.6401C20.0877 18.5859 20.5169 18.4081 20.8334 18.0917C21.1498 17.7752 21.3276 17.346 21.3276 16.8984V4.35938C21.3276 3.91182 21.1498 3.4826 20.8334 3.16613C20.5169 2.84966 20.0877 2.67188 19.6401 2.67188ZM12.2632 13.0781H9.00537V14.3906H12.2632V13.0781Z" fill="url(#paint4_linear_10204_4661)"/>
<path d="M16.6812 6.77344C16.7806 6.77344 16.876 6.81295 16.9463 6.88327C17.0166 6.9536 17.0562 7.04898 17.0562 7.14844V19.6875C17.0562 19.787 17.0166 19.8823 16.9463 19.9527C16.876 20.023 16.7806 20.0625 16.6812 20.0625H4.79834C4.69888 20.0625 4.6035 20.023 4.53317 19.9527C4.46285 19.8823 4.42334 19.787 4.42334 19.6875V7.14844C4.42334 7.04898 4.46285 6.9536 4.53317 6.88327C4.6035 6.81295 4.69888 6.77344 4.79834 6.77344H16.6812ZM16.6812 5.46094H4.79834C4.35079 5.46094 3.92156 5.63873 3.6051 5.95519C3.28863 6.27166 3.11084 6.70088 3.11084 7.14844V19.6875C3.11084 20.1351 3.28863 20.5643 3.6051 20.8807C3.92156 21.1972 4.35079 21.375 4.79834 21.375H16.6812C17.1287 21.375 17.5579 21.1972 17.8744 20.8807C18.1909 20.5643 18.3687 20.1351 18.3687 19.6875V7.14844C18.3687 6.70088 18.1909 6.27166 17.8744 5.95519C17.5579 5.63873 17.1287 5.46094 16.6812 5.46094Z" fill="url(#paint5_linear_10204_4661)"/>
<path d="M10.7161 8.87695C10.5817 8.87691 10.4502 8.91675 10.3384 8.99143C10.2266 9.06611 10.1395 9.17227 10.088 9.29649L7.32238 15.9647C7.2537 16.1311 7.25387 16.318 7.32286 16.4844C7.39185 16.6507 7.52402 16.7828 7.69035 16.8518C7.77281 16.886 7.86119 16.9036 7.95046 16.9037C8.03973 16.9037 8.12813 16.8862 8.21061 16.852C8.2931 16.8179 8.36805 16.7679 8.4312 16.7048C8.49435 16.6417 8.54444 16.5668 8.57863 16.4843L11.3431 9.81703C11.4118 9.65073 11.4118 9.46395 11.3431 9.29765C11.2743 9.13136 11.1424 8.99911 10.9763 8.92992C10.8939 8.89558 10.8054 8.87695 10.7161 8.87695Z" fill="url(#paint6_linear_10204_4661)"/>
<path d="M10.7629 8.87695C10.6736 8.87695 10.5852 8.89464 10.5028 8.92898C10.3363 8.99803 10.2041 9.13038 10.1351 9.29691C10.0662 9.46345 10.0663 9.65053 10.1353 9.81703L12.9009 16.4852C12.9701 16.6515 13.1025 16.7835 13.269 16.8522C13.4354 16.9209 13.6224 16.9208 13.7887 16.8518C13.9548 16.7826 14.0867 16.6504 14.1555 16.4841C14.2243 16.3178 14.2243 16.131 14.1555 15.9647L11.3899 9.29649C11.3384 9.17227 11.2513 9.06611 11.1395 8.99143C11.0277 8.91675 10.8962 8.87691 10.7618 8.87695H10.7629Z" fill="url(#paint7_linear_10204_4661)"/>
<mask id="mask0_10204_4661" style="mask-type:alpha" maskUnits="userSpaceOnUse" x="3" y="2" width="19" height="20">
<path d="M19.6401 2.67188H7.75732C7.30977 2.67188 6.88055 2.84966 6.56408 3.16613C6.24761 3.4826 6.06982 3.91182 6.06982 4.35938V5.64844H7.38232V4.35938C7.38232 4.25992 7.42183 4.16454 7.49216 4.09421C7.56249 4.02388 7.65787 3.98438 7.75732 3.98438H19.6401C19.7396 3.98438 19.835 4.02388 19.9053 4.09421C19.9756 4.16454 20.0151 4.25992 20.0151 4.35938V16.8984C20.0151 16.9979 19.9756 17.0933 19.9053 17.1636C19.835 17.2339 19.7396 17.2734 19.6401 17.2734H17.9292V18.5859H19.6401C20.0877 18.5859 20.5169 18.4081 20.8334 18.0917C21.1498 17.7752 21.3276 17.346 21.3276 16.8984V4.35938C21.3276 3.91182 21.1498 3.4826 20.8334 3.16613C20.5169 2.84966 20.0877 2.67188 19.6401 2.67188ZM12.2632 13.0781H9.00537V14.3906H12.2632V13.0781Z" fill="url(#paint8_linear_10204_4661)"/>
<path d="M16.6812 6.77344C16.7806 6.77344 16.876 6.81295 16.9463 6.88327C17.0166 6.9536 17.0562 7.04898 17.0562 7.14844V19.6875C17.0562 19.787 17.0166 19.8823 16.9463 19.9527C16.876 20.023 16.7806 20.0625 16.6812 20.0625H4.79834C4.69888 20.0625 4.6035 20.023 4.53317 19.9527C4.46285 19.8823 4.42334 19.787 4.42334 19.6875V7.14844C4.42334 7.04898 4.46285 6.9536 4.53317 6.88327C4.6035 6.81295 4.69888 6.77344 4.79834 6.77344H16.6812ZM16.6812 5.46094H4.79834C4.35079 5.46094 3.92156 5.63873 3.6051 5.95519C3.28863 6.27166 3.11084 6.70088 3.11084 7.14844V19.6875C3.11084 20.1351 3.28863 20.5643 3.6051 20.8807C3.92156 21.1972 4.35079 21.375 4.79834 21.375H16.6812C17.1287 21.375 17.5579 21.1972 17.8744 20.8807C18.1909 20.5643 18.3687 20.1351 18.3687 19.6875V7.14844C18.3687 6.70088 18.1909 6.27166 17.8744 5.95519C17.5579 5.63873 17.1287 5.46094 16.6812 5.46094Z" fill="url(#paint9_linear_10204_4661)"/>
<path d="M10.7161 8.87695C10.5817 8.87691 10.4502 8.91675 10.3384 8.99143C10.2266 9.06611 10.1395 9.17227 10.088 9.29649L7.32238 15.9647C7.2537 16.1311 7.25387 16.318 7.32286 16.4844C7.39185 16.6507 7.52402 16.7828 7.69035 16.8518C7.77281 16.886 7.86119 16.9036 7.95046 16.9037C8.03973 16.9037 8.12813 16.8862 8.21061 16.852C8.2931 16.8179 8.36805 16.7679 8.4312 16.7048C8.49435 16.6417 8.54444 16.5668 8.57863 16.4843L11.3431 9.81703C11.4118 9.65073 11.4118 9.46395 11.3431 9.29765C11.2743 9.13136 11.1424 8.99911 10.9763 8.92992C10.8939 8.89558 10.8054 8.87695 10.7161 8.87695Z" fill="url(#paint10_linear_10204_4661)"/>
<path d="M10.7629 8.87695C10.6736 8.87695 10.5852 8.89464 10.5028 8.92898C10.3363 8.99803 10.2041 9.13038 10.1351 9.29691C10.0662 9.46345 10.0663 9.65053 10.1353 9.81703L12.9009 16.4852C12.9701 16.6515 13.1025 16.7835 13.269 16.8522C13.4354 16.9209 13.6224 16.9208 13.7887 16.8518C13.9548 16.7826 14.0867 16.6504 14.1555 16.4841C14.2243 16.3178 14.2243 16.131 14.1555 15.9647L11.3899 9.29649C11.3384 9.17227 11.2513 9.06611 11.1395 8.99143C11.0277 8.91675 10.8962 8.87691 10.7618 8.87695H10.7629Z" fill="url(#paint11_linear_10204_4661)"/>
</mask>
<g mask="url(#mask0_10204_4661)">
<circle opacity="0.2" cx="5.4547" cy="18.5453" r="4.36364" fill="white"/>
<circle opacity="0.2" cx="22.909" cy="10.909" r="4.36364" fill="white"/>
</g>
<defs>
<linearGradient id="paint0_linear_10204_4661" x1="7.63632" y1="3.27264" x2="20.1954" y2="2.9382" gradientUnits="userSpaceOnUse">
<stop stop-color="#8BC0FF"/>
<stop offset="1" stop-color="#8F8CFF"/>
</linearGradient>
<linearGradient id="paint1_linear_10204_4661" x1="7.63632" y1="3.27264" x2="20.1954" y2="2.9382" gradientUnits="userSpaceOnUse">
<stop stop-color="#8BC0FF"/>
<stop offset="1" stop-color="#8F8CFF"/>
</linearGradient>
<linearGradient id="paint2_linear_10204_4661" x1="7.63632" y1="3.27264" x2="20.1954" y2="2.9382" gradientUnits="userSpaceOnUse">
<stop stop-color="#8BC0FF"/>
<stop offset="1" stop-color="#8F8CFF"/>
</linearGradient>
<linearGradient id="paint3_linear_10204_4661" x1="7.63632" y1="3.27264" x2="20.1954" y2="2.9382" gradientUnits="userSpaceOnUse">
<stop stop-color="#8BC0FF"/>
<stop offset="1" stop-color="#8F8CFF"/>
</linearGradient>
<linearGradient id="paint4_linear_10204_4661" x1="6.5455" y1="2.18182" x2="19.1046" y2="1.84738" gradientUnits="userSpaceOnUse">
<stop stop-color="#8BC0FF"/>
<stop offset="1" stop-color="#8F8CFF"/>
</linearGradient>
<linearGradient id="paint5_linear_10204_4661" x1="6.5455" y1="2.18182" x2="19.1046" y2="1.84738" gradientUnits="userSpaceOnUse">
<stop stop-color="#8BC0FF"/>
<stop offset="1" stop-color="#8F8CFF"/>
</linearGradient>
<linearGradient id="paint6_linear_10204_4661" x1="6.5455" y1="2.18182" x2="19.1046" y2="1.84738" gradientUnits="userSpaceOnUse">
<stop stop-color="#8BC0FF"/>
<stop offset="1" stop-color="#8F8CFF"/>
</linearGradient>
<linearGradient id="paint7_linear_10204_4661" x1="6.5455" y1="2.18182" x2="19.1046" y2="1.84738" gradientUnits="userSpaceOnUse">
<stop stop-color="#8BC0FF"/>
<stop offset="1" stop-color="#8F8CFF"/>
</linearGradient>
<linearGradient id="paint8_linear_10204_4661" x1="6.5455" y1="2.18182" x2="19.1046" y2="1.84738" gradientUnits="userSpaceOnUse">
<stop stop-color="#8BC0FF"/>
<stop offset="1" stop-color="#8F8CFF"/>
</linearGradient>
<linearGradient id="paint9_linear_10204_4661" x1="6.5455" y1="2.18182" x2="19.1046" y2="1.84738" gradientUnits="userSpaceOnUse">
<stop stop-color="#8BC0FF"/>
<stop offset="1" stop-color="#8F8CFF"/>
</linearGradient>
<linearGradient id="paint10_linear_10204_4661" x1="6.5455" y1="2.18182" x2="19.1046" y2="1.84738" gradientUnits="userSpaceOnUse">
<stop stop-color="#8BC0FF"/>
<stop offset="1" stop-color="#8F8CFF"/>
</linearGradient>
<linearGradient id="paint11_linear_10204_4661" x1="6.5455" y1="2.18182" x2="19.1046" y2="1.84738" gradientUnits="userSpaceOnUse">
<stop stop-color="#8BC0FF"/>
<stop offset="1" stop-color="#8F8CFF"/>
</linearGradient>
</defs>
</svg>
