<svg width="28" height="28" viewBox="0 0 28 28" fill="none" xmlns="http://www.w3.org/2000/svg">
<rect width="28" height="28" rx="4" fill="#8697FF"/>
<path d="M17.1211 10.5156C17.1874 10.5156 17.251 10.542 17.2979 10.5888C17.3448 10.6357 17.3711 10.6993 17.3711 10.7656V19.125C17.3711 19.1913 17.3448 19.2549 17.2979 19.3018C17.251 19.3487 17.1874 19.375 17.1211 19.375H9.19922C9.13291 19.375 9.06933 19.3487 9.02244 19.3018C8.97556 19.2549 8.94922 19.1913 8.94922 19.125V10.7656C8.94922 10.6993 8.97556 10.6357 9.02244 10.5888C9.06933 10.542 9.13291 10.5156 9.19922 10.5156H17.1211ZM17.1211 9.64062H9.19922C8.90085 9.64062 8.6147 9.75915 8.40372 9.97013C8.19275 10.1811 8.07422 10.4673 8.07422 10.7656V19.125C8.07422 19.4234 8.19275 19.7095 8.40372 19.9205C8.6147 20.1315 8.90085 20.25 9.19922 20.25H17.1211C17.4195 20.25 17.7056 20.1315 17.9166 19.9205C18.1276 19.7095 18.2461 19.4234 18.2461 19.125V10.7656C18.2461 10.4673 18.1276 10.1811 17.9166 9.97013C17.7056 9.75915 17.4195 9.64062 17.1211 9.64062Z" fill="white"/>
<path d="M19.0938 7.78125H11.1719C10.8735 7.78125 10.5874 7.89978 10.3764 8.11075C10.1654 8.32173 10.0469 8.60788 10.0469 8.90625V9.76562H10.9219V8.90625C10.9219 8.83995 10.9482 8.77636 10.9951 8.72947C11.042 8.68259 11.1056 8.65625 11.1719 8.65625H19.0938C19.1601 8.65625 19.2236 8.68259 19.2705 8.72947C19.3174 8.77636 19.3438 8.83995 19.3438 8.90625V17.2656C19.3438 17.3319 19.3174 17.3955 19.2705 17.4424C19.2236 17.4893 19.1601 17.5156 19.0938 17.5156H17.9531V18.3906H19.0938C19.3921 18.3906 19.6783 18.2721 19.8892 18.0611C20.1002 17.8501 20.2188 17.564 20.2188 17.2656V8.90625C20.2188 8.60788 20.1002 8.32173 19.8892 8.11075C19.6783 7.89978 19.3921 7.78125 19.0938 7.78125ZM14.1758 14.7188H12.0039V15.5938H14.1758V14.7188Z" fill="white"/>
<path d="M13.1447 11.918C13.055 11.9179 12.9674 11.9445 12.8929 11.9943C12.8183 12.0441 12.7602 12.1148 12.7259 12.1977L10.8822 16.6431C10.8364 16.7541 10.8365 16.8787 10.8825 16.9896C10.9285 17.1005 11.0166 17.1886 11.1275 17.2345C11.1824 17.2573 11.2414 17.2691 11.3009 17.2691C11.3604 17.2691 11.4193 17.2574 11.4743 17.2347C11.5293 17.2119 11.5793 17.1786 11.6214 17.1365C11.6635 17.0945 11.6969 17.0445 11.7197 16.9895L13.5626 12.5447C13.6085 12.4338 13.6085 12.3093 13.5626 12.1984C13.5168 12.0876 13.4288 11.9994 13.3181 11.9533C13.2631 11.9304 13.2042 11.9186 13.1447 11.9186V11.918Z" fill="white"/>
<path d="M13.1759 11.918C13.1163 11.918 13.0574 11.9298 13.0024 11.9527C12.8914 11.9987 12.8033 12.0869 12.7573 12.1979C12.7114 12.309 12.7114 12.4337 12.7574 12.5447L14.6012 16.9902C14.6473 17.101 14.7356 17.189 14.8466 17.2348C14.9575 17.2806 15.0821 17.2805 15.1931 17.2345C15.3038 17.1884 15.3917 17.1002 15.4376 16.9894C15.4834 16.8785 15.4834 16.754 15.4376 16.6431L13.5938 12.1977C13.5595 12.1148 13.5014 12.0441 13.4269 11.9943C13.3523 11.9445 13.2647 11.9179 13.1751 11.918H13.1759Z" fill="white"/>
</svg>
