<svg width="28" height="28" viewBox="0 0 28 28" fill="none" xmlns="http://www.w3.org/2000/svg">
<g opacity="0.2">
<path d="M23.4595 5.07617H10.5864C10.1016 5.07617 9.63659 5.26878 9.29375 5.61162C8.95091 5.95446 8.7583 6.41945 8.7583 6.9043V8.30078H10.1802V6.9043C10.1802 6.79655 10.223 6.69322 10.2992 6.61703C10.3753 6.54085 10.4787 6.49805 10.5864 6.49805H23.4595C23.5672 6.49805 23.6705 6.54085 23.7467 6.61703C23.8229 6.69322 23.8657 6.79655 23.8657 6.9043V20.4883C23.8657 20.596 23.8229 20.6994 23.7467 20.7755C23.6705 20.8517 23.5672 20.8945 23.4595 20.8945H21.606V22.3164H23.4595C23.9443 22.3164 24.4093 22.1238 24.7522 21.781C25.095 21.4381 25.2876 20.9731 25.2876 20.4883V6.9043C25.2876 6.41945 25.095 5.95446 24.7522 5.61162C24.4093 5.26878 23.9443 5.07617 23.4595 5.07617ZM15.4678 16.3496H11.9385V17.7715H15.4678V16.3496Z" fill="url(#paint0_linear_12572_5353)"/>
<path d="M20.2539 9.51953C20.3616 9.51953 20.465 9.56233 20.5412 9.63852C20.6174 9.71471 20.6602 9.81804 20.6602 9.92578V23.5098C20.6602 23.6175 20.6174 23.7208 20.5412 23.797C20.465 23.8732 20.3616 23.916 20.2539 23.916H7.38086C7.27312 23.916 7.16978 23.8732 7.0936 23.797C7.01741 23.7208 6.97461 23.6175 6.97461 23.5098V9.92578C6.97461 9.81804 7.01741 9.71471 7.0936 9.63852C7.16978 9.56233 7.27312 9.51953 7.38086 9.51953H20.2539ZM20.2539 8.09766H7.38086C6.89601 8.09766 6.43102 8.29026 6.08818 8.6331C5.74534 8.97594 5.55273 9.44093 5.55273 9.92578V23.5098C5.55273 23.9946 5.74534 24.4596 6.08818 24.8024C6.43102 25.1453 6.89601 25.3379 7.38086 25.3379H20.2539C20.7388 25.3379 21.2037 25.1453 21.5466 24.8024C21.8894 24.4596 22.082 23.9946 22.082 23.5098V9.92578C22.082 9.44093 21.8894 8.97594 21.5466 8.6331C21.2037 8.29026 20.7388 8.09766 20.2539 8.09766Z" fill="url(#paint1_linear_12572_5353)"/>
<path d="M13.7918 11.7983C13.6461 11.7983 13.5037 11.8415 13.3826 11.9224C13.2615 12.0033 13.1671 12.1183 13.1113 12.2528L10.1152 19.4767C10.0408 19.657 10.041 19.8595 10.1158 20.0397C10.1905 20.2199 10.3337 20.363 10.5139 20.4378C10.6032 20.4748 10.6989 20.4939 10.7957 20.4939C10.8924 20.494 10.9881 20.475 11.0775 20.438C11.1668 20.401 11.2481 20.3468 11.3165 20.2785C11.3849 20.2101 11.4391 20.129 11.4762 20.0396L14.471 12.8168C14.5455 12.6366 14.5455 12.4343 14.471 12.2541C14.3965 12.0739 14.2536 11.9307 14.0736 11.8557C13.9843 11.8185 13.8885 11.7983 13.7918 11.7983Z" fill="url(#paint2_linear_12572_5353)"/>
<path d="M13.8425 11.7983C13.7458 11.7983 13.65 11.8175 13.5607 11.8547C13.3803 11.9295 13.2371 12.0729 13.1624 12.2533C13.0877 12.4337 13.0878 12.6364 13.1625 12.8168L16.1586 20.0406C16.2336 20.2207 16.3771 20.3637 16.5574 20.4382C16.7377 20.5126 16.9402 20.5125 17.1204 20.4378C17.3004 20.3628 17.4433 20.2195 17.5178 20.0394C17.5923 19.8592 17.5923 19.6569 17.5178 19.4767L14.5217 12.2528C14.466 12.1183 14.3715 12.0033 14.2504 11.9224C14.1293 11.8415 13.9869 11.7983 13.8412 11.7983H13.8425Z" fill="url(#paint3_linear_12572_5353)"/>
</g>
<path d="M22.2759 3.89453H9.40283C8.91798 3.89453 8.45299 4.08714 8.11015 4.42998C7.76731 4.77282 7.57471 5.23781 7.57471 5.72266V7.11914H8.99658V5.72266C8.99658 5.61491 9.03938 5.51158 9.11557 5.43539C9.19176 5.35921 9.29509 5.31641 9.40283 5.31641H22.2759C22.3836 5.31641 22.487 5.35921 22.5631 5.43539C22.6393 5.51158 22.6821 5.61491 22.6821 5.72266V19.3066C22.6821 19.4144 22.6393 19.5177 22.5631 19.5939C22.487 19.6701 22.3836 19.7129 22.2759 19.7129H20.4224V21.1348H22.2759C22.7607 21.1348 23.2257 20.9422 23.5686 20.5993C23.9114 20.2565 24.104 19.7915 24.104 19.3066V5.72266C24.104 5.23781 23.9114 4.77282 23.5686 4.42998C23.2257 4.08714 22.7607 3.89453 22.2759 3.89453ZM14.2842 15.168H10.7549V16.5898H14.2842V15.168Z" fill="url(#paint4_linear_12572_5353)"/>
<path d="M19.0703 8.33789C19.1781 8.33789 19.2814 8.38069 19.3576 8.45688C19.4338 8.53306 19.4766 8.6364 19.4766 8.74414V22.3281C19.4766 22.4359 19.4338 22.5392 19.3576 22.6154C19.2814 22.6916 19.1781 22.7344 19.0703 22.7344H6.19727C6.08952 22.7344 5.98619 22.6916 5.91 22.6154C5.83382 22.5392 5.79102 22.4359 5.79102 22.3281V8.74414C5.79102 8.6364 5.83382 8.53306 5.91 8.45688C5.98619 8.38069 6.08952 8.33789 6.19727 8.33789H19.0703ZM19.0703 6.91602H6.19727C5.71242 6.91602 5.24743 7.10862 4.90459 7.45146C4.56175 7.7943 4.36914 8.25929 4.36914 8.74414V22.3281C4.36914 22.813 4.56175 23.278 4.90459 23.6208C5.24743 23.9636 5.71242 24.1562 6.19727 24.1562H19.0703C19.5552 24.1562 20.0202 23.9636 20.363 23.6208C20.7058 23.278 20.8984 22.813 20.8984 22.3281V8.74414C20.8984 8.25929 20.7058 7.7943 20.363 7.45146C20.0202 7.10862 19.5552 6.91602 19.0703 6.91602Z" fill="url(#paint5_linear_12572_5353)"/>
<path d="M12.6082 10.6167C12.4625 10.6167 12.3202 10.6598 12.199 10.7407C12.0779 10.8216 11.9835 10.9366 11.9277 11.0712L8.93165 18.2951C8.85724 18.4754 8.85743 18.6779 8.93217 18.8581C9.0069 19.0382 9.15009 19.1814 9.33028 19.2561C9.4196 19.2932 9.51535 19.3123 9.61206 19.3123C9.70877 19.3123 9.80453 19.2933 9.89389 19.2564C9.98325 19.2194 10.0645 19.1652 10.1329 19.0968C10.2013 19.0285 10.2555 18.9473 10.2926 18.858L13.2874 11.6351C13.3619 11.455 13.3619 11.2526 13.2874 11.0725C13.2129 10.8923 13.07 10.749 12.89 10.6741C12.8007 10.6369 12.705 10.6167 12.6082 10.6167Z" fill="url(#paint6_linear_12572_5353)"/>
<path d="M12.6589 10.6167C12.5622 10.6167 12.4664 10.6359 12.3771 10.6731C12.1967 10.7479 12.0535 10.8912 11.9788 11.0717C11.9041 11.2521 11.9042 11.4547 11.979 11.6351L14.975 18.859C15.05 19.0391 15.1935 19.1821 15.3738 19.2565C15.5541 19.331 15.7566 19.3308 15.9368 19.2561C16.1168 19.1812 16.2597 19.0379 16.3342 18.8577C16.4087 18.6776 16.4087 18.4752 16.3342 18.2951L13.3381 11.0712C13.2824 10.9366 13.188 10.8216 13.0668 10.7407C12.9457 10.6598 12.8033 10.6167 12.6576 10.6167H12.6589Z" fill="url(#paint7_linear_12572_5353)"/>
<mask id="mask0_12572_5353" style="mask-type:alpha" maskUnits="userSpaceOnUse" x="4" y="3" width="21" height="22">
<path d="M22.2769 3.89453H9.40381C8.91896 3.89453 8.45397 4.08714 8.11113 4.42998C7.76829 4.77282 7.57568 5.23781 7.57568 5.72266V7.11914H8.99756V5.72266C8.99756 5.61491 9.04036 5.51158 9.11655 5.43539C9.19273 5.35921 9.29606 5.31641 9.40381 5.31641H22.2769C22.3846 5.31641 22.4879 5.35921 22.5641 5.43539C22.6403 5.51158 22.6831 5.61491 22.6831 5.72266V19.3066C22.6831 19.4144 22.6403 19.5177 22.5641 19.5939C22.4879 19.6701 22.3846 19.7129 22.2769 19.7129H20.4233V21.1348H22.2769C22.7617 21.1348 23.2267 20.9422 23.5695 20.5993C23.9124 20.2565 24.105 19.7915 24.105 19.3066V5.72266C24.105 5.23781 23.9124 4.77282 23.5695 4.42998C23.2267 4.08714 22.7617 3.89453 22.2769 3.89453ZM14.2852 15.168H10.7559V16.5898H14.2852V15.168Z" fill="url(#paint8_linear_12572_5353)"/>
<path d="M19.0713 8.33789C19.179 8.33789 19.2824 8.38069 19.3586 8.45688C19.4347 8.53306 19.4775 8.6364 19.4775 8.74414V22.3281C19.4775 22.4359 19.4347 22.5392 19.3586 22.6154C19.2824 22.6916 19.179 22.7344 19.0713 22.7344H6.19824C6.0905 22.7344 5.98717 22.6916 5.91098 22.6154C5.83479 22.5392 5.79199 22.4359 5.79199 22.3281V8.74414C5.79199 8.6364 5.83479 8.53306 5.91098 8.45688C5.98717 8.38069 6.0905 8.33789 6.19824 8.33789H19.0713ZM19.0713 6.91602H6.19824C5.71339 6.91602 5.2484 7.10862 4.90556 7.45146C4.56272 7.7943 4.37012 8.25929 4.37012 8.74414V22.3281C4.37012 22.813 4.56272 23.278 4.90556 23.6208C5.2484 23.9636 5.71339 24.1562 6.19824 24.1562H19.0713C19.5561 24.1562 20.0211 23.9636 20.364 23.6208C20.7068 23.278 20.8994 22.813 20.8994 22.3281V8.74414C20.8994 8.25929 20.7068 7.7943 20.364 7.45146C20.0211 7.10862 19.5561 6.91602 19.0713 6.91602Z" fill="url(#paint9_linear_12572_5353)"/>
<path d="M12.6092 10.6167C12.4635 10.6167 12.3211 10.6598 12.2 10.7407C12.0789 10.8216 11.9845 10.9366 11.9287 11.0712L8.93262 18.2951C8.85822 18.4754 8.8584 18.6779 8.93314 18.8581C9.00788 19.0382 9.15106 19.1814 9.33125 19.2561C9.42058 19.2932 9.51633 19.3123 9.61304 19.3123C9.70974 19.3123 9.80551 19.2933 9.89487 19.2564C9.98423 19.2194 10.0654 19.1652 10.1338 19.0968C10.2022 19.0285 10.2565 18.9473 10.2936 18.858L13.2884 11.6351C13.3629 11.455 13.3629 11.2526 13.2884 11.0725C13.2139 10.8923 13.071 10.749 12.891 10.6741C12.8017 10.6369 12.7059 10.6167 12.6092 10.6167Z" fill="url(#paint10_linear_12572_5353)"/>
<path d="M12.6599 10.6167C12.5631 10.6167 12.4674 10.6359 12.3781 10.6731C12.1977 10.7479 12.0544 10.8912 11.9798 11.0717C11.9051 11.2521 11.9052 11.4547 11.9799 11.6351L14.976 18.859C15.051 19.0391 15.1944 19.1821 15.3748 19.2565C15.5551 19.331 15.7576 19.3308 15.9378 19.2561C16.1178 19.1812 16.2607 19.0379 16.3352 18.8577C16.4097 18.6776 16.4097 18.4752 16.3352 18.2951L13.3391 11.0712C13.2833 10.9366 13.1889 10.8216 13.0678 10.7407C12.9467 10.6598 12.8043 10.6167 12.6586 10.6167H12.6599Z" fill="url(#paint11_linear_12572_5353)"/>
</mask>
<g mask="url(#mask0_12572_5353)">
<circle opacity="0.2" cx="6.90989" cy="21.0906" r="4.72727" fill="white"/>
<circle opacity="0.2" cx="25.8181" cy="12.8191" r="4.72727" fill="white"/>
</g>
<defs>
<linearGradient id="paint0_linear_12572_5353" x1="9.27362" y1="4.54528" x2="22.8793" y2="4.18297" gradientUnits="userSpaceOnUse">
<stop stop-color="#8BC0FF"/>
<stop offset="1" stop-color="#8F8CFF"/>
</linearGradient>
<linearGradient id="paint1_linear_12572_5353" x1="9.27362" y1="4.54528" x2="22.8793" y2="4.18297" gradientUnits="userSpaceOnUse">
<stop stop-color="#8BC0FF"/>
<stop offset="1" stop-color="#8F8CFF"/>
</linearGradient>
<linearGradient id="paint2_linear_12572_5353" x1="9.27362" y1="4.54528" x2="22.8793" y2="4.18297" gradientUnits="userSpaceOnUse">
<stop stop-color="#8BC0FF"/>
<stop offset="1" stop-color="#8F8CFF"/>
</linearGradient>
<linearGradient id="paint3_linear_12572_5353" x1="9.27362" y1="4.54528" x2="22.8793" y2="4.18297" gradientUnits="userSpaceOnUse">
<stop stop-color="#8BC0FF"/>
<stop offset="1" stop-color="#8F8CFF"/>
</linearGradient>
<linearGradient id="paint4_linear_12572_5353" x1="8.09002" y1="3.36364" x2="21.6957" y2="3.00133" gradientUnits="userSpaceOnUse">
<stop stop-color="#8BC0FF"/>
<stop offset="1" stop-color="#8F8CFF"/>
</linearGradient>
<linearGradient id="paint5_linear_12572_5353" x1="8.09002" y1="3.36364" x2="21.6957" y2="3.00133" gradientUnits="userSpaceOnUse">
<stop stop-color="#8BC0FF"/>
<stop offset="1" stop-color="#8F8CFF"/>
</linearGradient>
<linearGradient id="paint6_linear_12572_5353" x1="8.09002" y1="3.36364" x2="21.6957" y2="3.00133" gradientUnits="userSpaceOnUse">
<stop stop-color="#8BC0FF"/>
<stop offset="1" stop-color="#8F8CFF"/>
</linearGradient>
<linearGradient id="paint7_linear_12572_5353" x1="8.09002" y1="3.36364" x2="21.6957" y2="3.00133" gradientUnits="userSpaceOnUse">
<stop stop-color="#8BC0FF"/>
<stop offset="1" stop-color="#8F8CFF"/>
</linearGradient>
<linearGradient id="paint8_linear_12572_5353" x1="8.091" y1="3.36364" x2="21.6967" y2="3.00133" gradientUnits="userSpaceOnUse">
<stop stop-color="#8BC0FF"/>
<stop offset="1" stop-color="#8F8CFF"/>
</linearGradient>
<linearGradient id="paint9_linear_12572_5353" x1="8.091" y1="3.36364" x2="21.6967" y2="3.00133" gradientUnits="userSpaceOnUse">
<stop stop-color="#8BC0FF"/>
<stop offset="1" stop-color="#8F8CFF"/>
</linearGradient>
<linearGradient id="paint10_linear_12572_5353" x1="8.091" y1="3.36364" x2="21.6967" y2="3.00133" gradientUnits="userSpaceOnUse">
<stop stop-color="#8BC0FF"/>
<stop offset="1" stop-color="#8F8CFF"/>
</linearGradient>
<linearGradient id="paint11_linear_12572_5353" x1="8.091" y1="3.36364" x2="21.6967" y2="3.00133" gradientUnits="userSpaceOnUse">
<stop stop-color="#8BC0FF"/>
<stop offset="1" stop-color="#8F8CFF"/>
</linearGradient>
</defs>
</svg>
