<svg width="1240" height="1240" viewBox="0 0 1240 1240" fill="none" xmlns="http://www.w3.org/2000/svg">
<circle cx="620" cy="620" r="620" fill="black"/>
<path fill-rule="evenodd" clip-rule="evenodd" d="M786.363 308.287L672.525 403.582L558.682 498.94L586.55 708.412L619.407 931.937L823.165 708.412L1014.09 503.178L900.195 403.582L786.363 308.287Z" fill="url(#paint0_linear_4788_628)"/>
<path fill-rule="evenodd" clip-rule="evenodd" d="M452.427 308.287L338.58 403.582L224.723 498.94L415.615 708.413L619.41 931.937L652.26 708.413L680.132 498.94L566.279 403.582L452.427 308.287Z" fill="url(#paint1_linear_4788_628)"/>
<path fill-rule="evenodd" clip-rule="evenodd" d="M624.467 308.287L510.614 403.582L396.762 498.94L510.614 708.412L619.41 931.937L738.319 708.412L852.168 498.94L738.319 403.582L624.467 308.287Z" fill="url(#paint2_linear_4788_628)"/>
<defs>
<linearGradient id="paint0_linear_4788_628" x1="558.682" y1="308.287" x2="558.682" y2="917.944" gradientUnits="userSpaceOnUse">
<stop stop-color="#2E65A0"/>
<stop offset="1" stop-color="#EED782"/>
</linearGradient>
<linearGradient id="paint1_linear_4788_628" x1="224.723" y1="308.287" x2="224.723" y2="917.944" gradientUnits="userSpaceOnUse">
<stop stop-color="#2E65A0"/>
<stop offset="1" stop-color="#F9E7A5"/>
</linearGradient>
<linearGradient id="paint2_linear_4788_628" x1="396.762" y1="308.287" x2="396.762" y2="917.944" gradientUnits="userSpaceOnUse">
<stop stop-color="#010408"/>
<stop offset="1" stop-color="#EED782"/>
</linearGradient>
</defs>
</svg>
