<svg width="28" height="28" viewBox="0 0 28 28" fill="none" xmlns="http://www.w3.org/2000/svg">
    <g clip-path="url(#clip0_5_233)">
        <path
            d="M14 0C23.6649 0 28 4.3351 28 14C28 23.6649 23.6649 28 14 28C4.3351 28 0 23.6649 0 14C0 4.3351 4.3351 0 14 0ZM14 13.1805C11.547 13.1805 9.5584 15.1691 9.5584 17.622C9.5584 20.075 11.547 22.0635 14 22.0635C16.453 22.0635 18.4416 20.075 18.4416 17.622C18.4416 15.169 16.453 13.1805 14 13.1805ZM14 15.1966C15.3394 15.1966 16.4254 16.2826 16.4254 17.622C16.4254 18.9614 15.3394 20.0474 14 20.0474C12.6606 20.0474 11.5746 18.9614 11.5746 17.622C11.5746 16.2826 12.6606 15.1966 14 15.1966ZM11.3702 5.9363L10.687 7.8025H12.85V12.3546H15.265V5.9363H11.3702Z"
            fill="#44D62C" />
        <path d="M15.265 5.9364H11.3702L10.687 7.8026H12.85V12.3546H15.265V5.9364Z" fill="black" />
        <path fill-rule="evenodd" clip-rule="evenodd"
            d="M18.4415 17.622C18.4415 20.075 16.4531 22.0634 14.0001 22.0634C11.5471 22.0634 9.5587 20.075 9.5587 17.622C9.5587 15.169 11.5471 13.1806 14.0001 13.1806C16.4531 13.1806 18.4415 15.169 18.4415 17.622ZM16.4254 17.622C16.4254 18.9614 15.3394 20.0474 14.0001 20.0474C12.6607 20.0474 11.5747 18.9614 11.5747 17.622C11.5747 16.2827 12.6607 15.1967 14.0001 15.1967C15.3394 15.1967 16.4254 16.2827 16.4254 17.622Z"
            fill="black" />
    </g>
    <defs>
        <clipPath id="clip0_5_233">
            <rect width="28" height="28" rx="14" fill="white" />
        </clipPath>
    </defs>
</svg>