<svg width="80" height="80" viewBox="0 0 80 80" fill="none" xmlns="http://www.w3.org/2000/svg">
<g clip-path="url(#clip0_5_233)">
<path d="M40 0C67.6142 1.90114e-07 80 12.3858 80 40C80 67.6142 67.6142 80 40 80C12.3858 80 1.9015e-07 67.6142 0 40C0 12.3858 12.3858 0 40 0ZM40 37.6572C32.9913 37.6573 27.3097 43.3389 27.3096 50.3477C27.3096 57.3565 32.9912 63.038 40 63.0381C47.0089 63.0381 52.6914 57.3566 52.6914 50.3477C52.6913 43.3388 47.0088 37.6572 40 37.6572ZM40 43.4189C43.8269 43.4189 46.9296 46.5208 46.9297 50.3477C46.9297 54.1746 43.8269 57.2773 40 57.2773C36.1731 57.2773 33.0713 54.1745 33.0713 50.3477C33.0714 46.5208 36.1732 43.419 40 43.4189ZM32.4863 16.9609L30.5342 22.8643H36.7148V35.2988H43.6143V16.9609H32.4863Z" fill="#44D62C"/>
<path d="M43.6141 16.9613L32.4864 16.9613L30.5341 22.8644H36.7148V35.2988H43.6141V16.9613Z" fill="black"/>
<path fill-rule="evenodd" clip-rule="evenodd" d="M52.691 50.3477C52.691 57.3566 47.0092 63.0384 40.0003 63.0384C32.9914 63.0384 27.3096 57.3566 27.3096 50.3477C27.3096 43.3388 32.9914 37.657 40.0003 37.657C47.0092 37.657 52.691 43.3388 52.691 50.3477ZM46.9296 50.3477C46.9296 54.1746 43.8272 57.277 40.0003 57.277C36.1733 57.277 33.071 54.1746 33.071 50.3477C33.071 46.5207 36.1733 43.4184 40.0003 43.4184C43.8272 43.4184 46.9296 46.5207 46.9296 50.3477Z" fill="black"/>
</g>
<defs>
<clipPath id="clip0_5_233">
<rect width="80" height="80" rx="40" fill="white"/>
</clipPath>
</defs>
</svg>
