<svg width="28" height="28" viewBox="0 0 28 28" fill="none" xmlns="http://www.w3.org/2000/svg">
<rect width="28" height="28" rx="4" fill="#8697FF"/>
<path d="M22 6H6V22H22V6Z" fill="white" fill-opacity="0.01"/>
<path d="M22 6H6V22H22V6Z" fill="white" fill-opacity="0.01"/>
<path d="M13.6227 14.0996C14.4702 14.9313 14.8046 16.151 14.499 17.2956C14.1935 18.4402 13.2948 19.3341 12.1442 19.6381C10.9935 19.942 9.7674 19.6093 8.93125 18.7664C7.67403 17.4715 7.69201 15.4133 8.97166 14.1404C10.2513 12.8674 12.3204 12.8496 13.6221 14.1002L13.6227 14.0996Z" stroke="white" stroke-width="1.33333" stroke-linejoin="round"/>
<path d="M13.6667 14.0002L19.3334 8.3335" stroke="white" stroke-width="1.33333" stroke-linecap="round" stroke-linejoin="round"/>
<path d="M16.1018 11.6332L17.9113 13.4332L20.0224 11.3332L18.2129 9.5332L16.1018 11.6332Z" stroke="white" stroke-width="1.33333" stroke-linejoin="round"/>
</svg>
