<svg width="20" height="20" viewBox="0 0 20 20" fill="none" xmlns="http://www.w3.org/2000/svg">
<path d="M9.90519 10.077L10.3425 9.63041C10.0979 9.39088 9.7061 9.39271 9.46375 9.63451L9.90519 10.077ZM11.0593 14.2766L10.4555 14.115L10.4555 14.115L11.0593 14.2766ZM7.9579 17.3547L8.11718 17.959L8.1172 17.959L7.9579 17.3547ZM3.72646 16.2092L3.27852 16.6451L3.28323 16.6499L3.72646 16.2092ZM3.77969 10.1306L3.33942 9.68696L3.33942 9.68696L3.77969 10.1306ZM9.9044 10.0777L9.4719 10.5289C9.71717 10.764 10.1053 10.7602 10.3458 10.5202L9.9044 10.0777ZM9.52161 9.50367C9.27725 9.74747 9.2768 10.1432 9.5206 10.3875C9.7644 10.6319 10.1601 10.6324 10.4045 10.3886L9.52161 9.50367ZM17.8675 2.94244C18.1119 2.69864 18.1123 2.30292 17.8685 2.05856C17.6247 1.81421 17.229 1.81376 16.9847 2.05756L17.8675 2.94244ZM13.1698 6.83609L12.7296 6.39249C12.6113 6.50983 12.5448 6.66951 12.5448 6.83609C12.5448 7.00267 12.6113 7.16235 12.7296 7.2797L13.1698 6.83609ZM15.553 9.20133L15.1127 9.64493C15.3564 9.88679 15.7495 9.88679 15.9932 9.64494L15.553 9.20133ZM18.3333 6.44189L18.7736 6.8855C18.8918 6.76815 18.9583 6.60847 18.9583 6.44189C18.9583 6.27531 18.8918 6.11562 18.7736 5.99828L18.3333 6.44189ZM15.9502 4.07665L16.3904 3.63304C16.1467 3.39119 15.7536 3.39119 15.5099 3.63305L15.9502 4.07665ZM9.46789 10.5235C10.4235 11.4593 10.7994 12.8298 10.4555 14.115L11.663 14.4381C12.124 12.7153 11.619 10.8805 10.3425 9.63041L9.46789 10.5235ZM10.4555 14.115C10.1116 15.4006 9.09891 16.4076 7.79861 16.7503L8.1172 17.959C9.84768 17.5029 11.2022 16.1606 11.663 14.4381L10.4555 14.115ZM7.79862 16.7503C6.498 17.0931 5.11302 16.7174 4.16969 15.7686L3.28323 16.6499C4.54234 17.9164 6.38701 18.415 8.11718 17.959L7.79862 16.7503ZM4.17438 15.7733C2.75772 14.3176 2.77788 12.0054 4.21996 10.5742L3.33942 9.68696C1.41086 11.601 1.38366 14.6979 3.27855 16.6451L4.17438 15.7733ZM4.21996 10.5742C5.66455 9.14045 8.0023 9.12023 9.4719 10.5289L10.3369 9.62655C8.37779 7.74864 5.2655 7.77537 3.33942 9.68696L4.21996 10.5742ZM10.3458 10.5202L10.3466 10.5194L9.46375 9.63451L9.46296 9.6353L10.3458 10.5202ZM10.4045 10.3886L17.8675 2.94244L16.9847 2.05756L9.52161 9.50367L10.4045 10.3886ZM12.7296 7.2797L15.1127 9.64493L15.9932 8.75772L13.6101 6.39249L12.7296 7.2797ZM15.9932 9.64494L18.7736 6.8855L17.8931 5.99828L15.1127 8.75772L15.9932 9.64494ZM18.7736 5.99828L16.3904 3.63304L15.5099 4.52026L17.8931 6.88549L18.7736 5.99828ZM15.5099 3.63305L12.7296 6.39249L13.6101 7.2797L16.3904 4.52026L15.5099 3.63305Z" fill="#707280"/>
</svg>
