<svg width="24" height="24" viewBox="0 0 24 24" fill="none" xmlns="http://www.w3.org/2000/svg">
<path opacity="0.2" d="M12.4341 13.1494L12.9595 12.6141C12.6658 12.3259 12.1947 12.3281 11.9038 12.619L12.4341 13.1494ZM13.7485 17.9434L13.0239 17.7499L13.0239 17.7499L13.7485 17.9434ZM10.2162 21.4571L10.4078 22.1822L10.4078 22.1822L10.2162 21.4571ZM5.39687 20.1496L4.85875 20.672L4.8644 20.6777L5.39687 20.1496ZM5.45749 13.2106L4.92857 12.6788L4.92856 12.6788L5.45749 13.2106ZM12.4332 13.1503L11.9136 13.6911C12.2081 13.974 12.6748 13.9694 12.9635 13.6806L12.4332 13.1503ZM11.9697 12.4697C11.6768 12.7626 11.6768 13.2374 11.9697 13.5303C12.2626 13.8232 12.7374 13.8232 13.0303 13.5303L11.9697 12.4697ZM21.5303 5.03033C21.8232 4.73744 21.8232 4.26256 21.5303 3.96967C21.2374 3.67678 20.7626 3.67678 20.4697 3.96967L21.5303 5.03033ZM16.1523 9.4498L15.6234 8.91808C15.4819 9.05884 15.4023 9.25021 15.4023 9.4498C15.4023 9.6494 15.4819 9.84076 15.6234 9.98153L16.1523 9.4498ZM18.8666 12.1498L18.3377 12.6815C18.6302 12.9726 19.1029 12.9726 19.3955 12.6815L18.8666 12.1498ZM22.0333 8.9998L22.5622 9.53154C22.7037 9.39077 22.7833 9.19941 22.7833 8.99981C22.7833 8.80021 22.7037 8.60884 22.5622 8.46808L22.0333 8.9998ZM19.319 6.2998L19.8479 5.76808C19.5553 5.47705 19.0826 5.47705 18.7901 5.76808L19.319 6.2998ZM11.9087 13.6846C12.9876 14.7436 13.4124 16.2949 13.0239 17.7499L14.4732 18.1368C15.0014 16.1581 14.4229 14.0505 12.9595 12.6141L11.9087 13.6846ZM13.0239 17.7499C12.6354 19.2053 11.4919 20.3444 10.0247 20.732L10.4078 22.1822C12.3925 21.6579 13.9451 20.1152 14.4732 18.1368L13.0239 17.7499ZM10.0247 20.732C8.55721 21.1196 6.99424 20.695 5.92935 19.6214L4.8644 20.6777C6.30796 22.1331 8.42339 22.7064 10.4078 22.1822L10.0247 20.732ZM5.93497 19.6271C4.33525 17.9795 4.35805 15.3621 5.98643 13.7423L4.92856 12.6788C2.71797 14.8778 2.68683 18.435 4.85878 20.672L5.93497 19.6271ZM5.98642 13.7423C7.61691 12.1204 10.2549 12.0975 11.9136 13.6911L12.9528 12.6094C10.7064 10.4512 7.13709 10.4819 4.92857 12.6788L5.98642 13.7423ZM12.9635 13.6806L12.9644 13.6797L11.9038 12.619L11.9029 12.6199L12.9635 13.6806ZM13.0303 13.5303L21.5303 5.03033L20.4697 3.96967L11.9697 12.4697L13.0303 13.5303ZM15.6234 9.98153L18.3377 12.6815L19.3955 11.6181L16.6813 8.91808L15.6234 9.98153ZM19.3955 12.6815L22.5622 9.53154L21.5044 8.46807L18.3377 11.6181L19.3955 12.6815ZM22.5622 8.46808L19.8479 5.76808L18.7901 6.83153L21.5044 9.53153L22.5622 8.46808ZM18.7901 5.76808L15.6234 8.91808L16.6813 9.98153L19.8479 6.83153L18.7901 5.76808Z" fill="url(#paint0_linear_10204_4670)"/>
<path d="M11.4341 12.1494L11.9595 11.6141C11.6658 11.3259 11.1947 11.3281 10.9038 11.619L11.4341 12.1494ZM12.7485 16.9434L12.0239 16.7499L12.0239 16.7499L12.7485 16.9434ZM9.21625 20.4571L9.40779 21.1822L9.40781 21.1822L9.21625 20.4571ZM4.39687 19.1496L3.85875 19.672L3.8644 19.6777L4.39687 19.1496ZM4.45749 12.2106L3.92857 11.6788L3.92856 11.6788L4.45749 12.2106ZM11.4332 12.1503L10.9136 12.6911C11.2081 12.974 11.6748 12.9694 11.9635 12.6806L11.4332 12.1503ZM10.9697 11.4697C10.6768 11.7626 10.6768 12.2374 10.9697 12.5303C11.2626 12.8232 11.7374 12.8232 12.0303 12.5303L10.9697 11.4697ZM20.5303 4.03033C20.8232 3.73744 20.8232 3.26256 20.5303 2.96967C20.2374 2.67678 19.7626 2.67678 19.4697 2.96967L20.5303 4.03033ZM15.1523 8.4498L14.6234 7.91808C14.4819 8.05884 14.4023 8.25021 14.4023 8.4498C14.4023 8.6494 14.4819 8.84076 14.6234 8.98153L15.1523 8.4498ZM17.8666 11.1498L17.3377 11.6815C17.6302 11.9726 18.1029 11.9726 18.3955 11.6815L17.8666 11.1498ZM21.0333 7.9998L21.5622 8.53154C21.7037 8.39077 21.7833 8.19941 21.7833 7.99981C21.7833 7.80021 21.7037 7.60884 21.5622 7.46808L21.0333 7.9998ZM18.319 5.2998L18.8479 4.76808C18.5553 4.47705 18.0826 4.47705 17.7901 4.76808L18.319 5.2998ZM10.9087 12.6846C11.9876 13.7436 12.4124 15.2949 12.0239 16.7499L13.4732 17.1368C14.0014 15.1581 13.4229 13.0505 11.9595 11.6141L10.9087 12.6846ZM12.0239 16.7499C11.6354 18.2053 10.4919 19.3444 9.02469 19.732L9.40781 21.1822C11.3925 20.6579 12.9451 19.1152 13.4732 17.1368L12.0239 16.7499ZM9.02471 19.732C7.55721 20.1196 5.99424 19.695 4.92935 18.6214L3.8644 19.6777C5.30796 21.1331 7.42339 21.7064 9.40779 21.1822L9.02471 19.732ZM4.93497 18.6271C3.33525 16.9795 3.35805 14.3621 4.98643 12.7423L3.92856 11.6788C1.71797 13.8778 1.68683 17.435 3.85878 19.672L4.93497 18.6271ZM4.98642 12.7423C6.61691 11.1204 9.25491 11.0975 10.9136 12.6911L11.9528 11.6094C9.70638 9.45119 6.13709 9.48194 3.92857 11.6788L4.98642 12.7423ZM11.9635 12.6806L11.9644 12.6797L10.9038 11.619L10.9029 11.6199L11.9635 12.6806ZM12.0303 12.5303L20.5303 4.03033L19.4697 2.96967L10.9697 11.4697L12.0303 12.5303ZM14.6234 8.98153L17.3377 11.6815L18.3955 10.6181L15.6813 7.91808L14.6234 8.98153ZM18.3955 11.6815L21.5622 8.53154L20.5044 7.46807L17.3377 10.6181L18.3955 11.6815ZM21.5622 7.46808L18.8479 4.76808L17.7901 5.83153L20.5044 8.53153L21.5622 7.46808ZM17.7901 4.76808L14.6234 7.91808L15.6813 8.98153L18.8479 5.83153L17.7901 4.76808Z" fill="url(#paint1_linear_10204_4670)"/>
<mask id="mask0_10204_4670" style="mask-type:alpha" maskUnits="userSpaceOnUse" x="2" y="2" width="20" height="20">
<path d="M11.4341 12.1494L11.9595 11.6141C11.6658 11.3259 11.1947 11.3281 10.9038 11.619L11.4341 12.1494ZM12.7485 16.9434L12.0239 16.7499L12.0239 16.7499L12.7485 16.9434ZM9.21625 20.4571L9.40779 21.1822L9.40781 21.1822L9.21625 20.4571ZM4.39687 19.1496L3.85875 19.672L3.8644 19.6777L4.39687 19.1496ZM4.45749 12.2106L3.92857 11.6788L3.92856 11.6788L4.45749 12.2106ZM11.4332 12.1503L10.9136 12.6911C11.2081 12.974 11.6748 12.9694 11.9635 12.6806L11.4332 12.1503ZM10.9697 11.4697C10.6768 11.7626 10.6768 12.2374 10.9697 12.5303C11.2626 12.8232 11.7374 12.8232 12.0303 12.5303L10.9697 11.4697ZM20.5303 4.03033C20.8232 3.73744 20.8232 3.26256 20.5303 2.96967C20.2374 2.67678 19.7626 2.67678 19.4697 2.96967L20.5303 4.03033ZM15.1523 8.4498L14.6234 7.91808C14.4819 8.05884 14.4023 8.25021 14.4023 8.4498C14.4023 8.6494 14.4819 8.84076 14.6234 8.98153L15.1523 8.4498ZM17.8666 11.1498L17.3377 11.6815C17.6302 11.9726 18.1029 11.9726 18.3955 11.6815L17.8666 11.1498ZM21.0333 7.9998L21.5622 8.53154C21.7037 8.39077 21.7833 8.19941 21.7833 7.99981C21.7833 7.80021 21.7037 7.60884 21.5622 7.46808L21.0333 7.9998ZM18.319 5.2998L18.8479 4.76808C18.5553 4.47705 18.0826 4.47705 17.7901 4.76808L18.319 5.2998ZM10.9087 12.6846C11.9876 13.7436 12.4124 15.2949 12.0239 16.7499L13.4732 17.1368C14.0014 15.1581 13.4229 13.0505 11.9595 11.6141L10.9087 12.6846ZM12.0239 16.7499C11.6354 18.2053 10.4919 19.3444 9.02469 19.732L9.40781 21.1822C11.3925 20.6579 12.9451 19.1152 13.4732 17.1368L12.0239 16.7499ZM9.02471 19.732C7.55721 20.1196 5.99424 19.695 4.92935 18.6214L3.8644 19.6777C5.30796 21.1331 7.42339 21.7064 9.40779 21.1822L9.02471 19.732ZM4.93497 18.6271C3.33525 16.9795 3.35805 14.3621 4.98643 12.7423L3.92856 11.6788C1.71797 13.8778 1.68683 17.435 3.85878 19.672L4.93497 18.6271ZM4.98642 12.7423C6.61691 11.1204 9.25491 11.0975 10.9136 12.6911L11.9528 11.6094C9.70638 9.45119 6.13709 9.48194 3.92857 11.6788L4.98642 12.7423ZM11.9635 12.6806L11.9644 12.6797L10.9038 11.619L10.9029 11.6199L11.9635 12.6806ZM12.0303 12.5303L20.5303 4.03033L19.4697 2.96967L10.9697 11.4697L12.0303 12.5303ZM14.6234 8.98153L17.3377 11.6815L18.3955 10.6181L15.6813 7.91808L14.6234 8.98153ZM18.3955 11.6815L21.5622 8.53154L20.5044 7.46807L17.3377 10.6181L18.3955 11.6815ZM21.5622 7.46808L18.8479 4.76808L17.7901 5.83153L20.5044 8.53153L21.5622 7.46808ZM17.7901 4.76808L14.6234 7.91808L15.6813 8.98153L18.8479 5.83153L17.7901 4.76808Z" fill="url(#paint2_linear_10204_4670)"/>
</mask>
<g mask="url(#mask0_10204_4670)">
<circle opacity="0.2" cx="7" cy="20" r="4" fill="white"/>
<circle opacity="0.2" cx="17" cy="2" r="4" fill="white"/>
</g>
<defs>
<linearGradient id="paint0_linear_10204_4670" x1="7.5" y1="6.5" x2="20.946" y2="11.2546" gradientUnits="userSpaceOnUse">
<stop stop-color="#8BC0FF"/>
<stop offset="1" stop-color="#8F8CFF"/>
</linearGradient>
<linearGradient id="paint1_linear_10204_4670" x1="6.5" y1="5.5" x2="19.946" y2="10.2546" gradientUnits="userSpaceOnUse">
<stop stop-color="#8BC0FF"/>
<stop offset="1" stop-color="#8F8CFF"/>
</linearGradient>
<linearGradient id="paint2_linear_10204_4670" x1="6.5" y1="5.5" x2="19.946" y2="10.2546" gradientUnits="userSpaceOnUse">
<stop stop-color="#8BC0FF"/>
<stop offset="1" stop-color="#8F8CFF"/>
</linearGradient>
</defs>
</svg>
