<svg width="29" height="29" viewBox="0 0 29 29" fill="none" xmlns="http://www.w3.org/2000/svg">
<rect width="29" height="29" rx="14.5" fill="url(#paint0_linear_60033_33458)"/>
<path d="M4.83301 9.18301H6.28301C13.7573 9.18301 19.8163 15.2421 19.8163 22.7163V24.1663H22.7163C23.5172 24.1663 24.1663 23.5172 24.1663 22.7163C24.1663 12.8396 16.1597 4.83301 6.28301 4.83301C5.4822 4.83301 4.83301 5.4822 4.83301 6.28301V9.18301Z" fill="url(#paint1_radial_60033_33458)"/>
<path d="M20.2998 22.7168H24.1665C24.1665 23.5176 23.5173 24.1668 22.7165 24.1668H20.2998V22.7168Z" fill="url(#paint2_linear_60033_33458)"/>
<path d="M6.28301 4.83301V8.69967H4.83301V6.28301C4.83301 5.4822 5.4822 4.83301 6.28301 4.83301Z" fill="url(#paint3_linear_60033_33458)"/>
<path d="M4.83301 8.7002H6.28301C14.0242 8.7002 20.2997 14.9757 20.2997 22.7169V24.1669H15.9497V22.7169C15.9497 17.3781 11.6218 13.0502 6.28301 13.0502H4.83301V8.7002Z" fill="url(#paint4_radial_60033_33458)"/>
<path d="M16.4336 22.7168H20.3003V24.1668H16.4336V22.7168Z" fill="url(#paint5_linear_60033_33458)"/>
<path d="M4.83301 12.5669V8.7002H6.28301V12.5669H4.83301Z" fill="url(#paint6_linear_60033_33458)"/>
<path d="M4.53125 15.1042C4.53125 15.905 5.18044 16.5542 5.98125 16.5542C9.45144 16.5542 12.2646 19.3673 12.2646 22.8375C12.2646 23.6383 12.9138 24.2875 13.7146 24.2875H16.1313V22.8375C16.1313 17.2318 11.587 12.6875 5.98125 12.6875H4.53125V15.1042Z" fill="url(#paint7_radial_60033_33458)"/>
<path d="M12.5664 22.7168H16.4331V24.1668H14.0164C13.2156 24.1668 12.5664 23.5176 12.5664 22.7168Z" fill="url(#paint8_radial_60033_33458)"/>
<path d="M6.28301 16.4331C5.4822 16.4331 4.83301 15.7839 4.83301 14.9831V12.5664H6.28301V16.4331Z" fill="url(#paint9_radial_60033_33458)"/>
<defs>
<linearGradient id="paint0_linear_60033_33458" x1="14.5" y1="0" x2="14.5" y2="29" gradientUnits="userSpaceOnUse">
<stop stop-color="#174299"/>
<stop offset="1" stop-color="#001E59"/>
</linearGradient>
<radialGradient id="paint1_radial_60033_33458" cx="0" cy="0" r="1" gradientUnits="userSpaceOnUse" gradientTransform="translate(6.28301 22.7163) rotate(-90) scale(17.8833)">
<stop offset="0.770277" stop-color="#FF4000"/>
<stop offset="1" stop-color="#8754C9"/>
</radialGradient>
<linearGradient id="paint2_linear_60033_33458" x1="20.0581" y1="23.4418" x2="24.1665" y2="23.4418" gradientUnits="userSpaceOnUse">
<stop stop-color="#FF4000"/>
<stop offset="1" stop-color="#8754C9"/>
</linearGradient>
<linearGradient id="paint3_linear_60033_33458" x1="5.55801" y1="4.83301" x2="5.55801" y2="8.94134" gradientUnits="userSpaceOnUse">
<stop stop-color="#8754C9"/>
<stop offset="1" stop-color="#FF4000"/>
</linearGradient>
<radialGradient id="paint4_radial_60033_33458" cx="0" cy="0" r="1" gradientUnits="userSpaceOnUse" gradientTransform="translate(6.28301 22.7169) rotate(-90) scale(14.0167)">
<stop offset="0.723929" stop-color="#FFF700"/>
<stop offset="1" stop-color="#FF9901"/>
</radialGradient>
<linearGradient id="paint5_linear_60033_33458" x1="16.4336" y1="23.4418" x2="20.3003" y2="23.4418" gradientUnits="userSpaceOnUse">
<stop stop-color="#FFF700"/>
<stop offset="1" stop-color="#FF9901"/>
</linearGradient>
<linearGradient id="paint6_linear_60033_33458" x1="5.55801" y1="12.5669" x2="5.55801" y2="8.7002" gradientUnits="userSpaceOnUse">
<stop stop-color="#FFF700"/>
<stop offset="1" stop-color="#FF9901"/>
</linearGradient>
<radialGradient id="paint7_radial_60033_33458" cx="0" cy="0" r="1" gradientUnits="userSpaceOnUse" gradientTransform="translate(5.98125 22.8375) rotate(-90) scale(10.15)">
<stop offset="0.59513" stop-color="#00AAFF"/>
<stop offset="1" stop-color="#01DA40"/>
</radialGradient>
<radialGradient id="paint8_radial_60033_33458" cx="0" cy="0" r="1" gradientUnits="userSpaceOnUse" gradientTransform="translate(12.3247 23.4418) scale(4.10833 10.9556)">
<stop stop-color="#00AAFF"/>
<stop offset="1" stop-color="#01DA40"/>
</radialGradient>
<radialGradient id="paint9_radial_60033_33458" cx="0" cy="0" r="1" gradientUnits="userSpaceOnUse" gradientTransform="translate(5.55801 16.6747) rotate(-90) scale(4.10833 77.9061)">
<stop stop-color="#00AAFF"/>
<stop offset="1" stop-color="#01DA40"/>
</radialGradient>
</defs>
</svg>
