<svg width="28" height="28" viewBox="0 0 28 28" fill="none" xmlns="http://www.w3.org/2000/svg">
<rect width="28" height="28" rx="14" fill="#2980FE"/>
<path d="M11.0293 12.6618H11.0325C11.0293 12.6428 11.0293 12.6206 11.0293 12.6016V12.6618Z" fill="#29AEFF"/>
<path d="M17.3433 13.2646H13.8496V19.5703C13.8496 19.8683 14.0905 20.1093 14.3885 20.1093H16.8043C17.1023 20.1093 17.3433 19.8683 17.3433 19.5703V13.2646Z" fill="white"/>
<path d="M12.1612 8.75H12.0439H5.78896C5.49093 8.75 5.25 8.99093 5.25 9.28896V11.4764C5.25 11.7745 5.49093 12.0154 5.78896 12.0154H7.25679H7.84014V12.6621V19.586C7.84014 19.8841 8.08107 20.125 8.37907 20.125H10.6744C10.9724 20.125 11.2133 19.8841 11.2133 19.586V12.6621V12.6019V12.0154H11.7967H12.0344H12.1517C13.0521 12.0154 13.7844 11.2831 13.7844 10.3827C13.7939 9.48233 13.0616 8.75 12.1612 8.75Z" fill="white"/>
<path d="M17.3438 13.2646V17.665C17.4642 17.6935 17.5879 17.7157 17.7147 17.7348C17.8922 17.7601 18.0761 17.776 18.26 17.7791C18.2695 17.7791 18.279 17.7791 18.2917 17.7791V14.2791C17.7622 14.2443 17.3438 13.8036 17.3438 13.2646Z" fill="url(#paint0_linear_36270_19107)"/>
<path d="M18.3641 8.75C15.8723 8.75 13.8496 10.7726 13.8496 13.2645C13.8496 15.4076 15.3428 17.202 17.3464 17.6649V13.2645C17.3464 12.7033 17.803 12.2468 18.3641 12.2468C18.9252 12.2468 19.3818 12.7033 19.3818 13.2645C19.3818 13.7369 19.0616 14.1332 18.6241 14.2473C18.5416 14.2695 18.4529 14.2821 18.3641 14.2821V17.779C18.4529 17.779 18.5385 17.7758 18.6241 17.7727C20.9954 17.6363 22.8786 15.6707 22.8786 13.2645C22.8817 10.7726 20.8591 8.75 18.3641 8.75Z" fill="white"/>
<path d="M18.362 17.7793V14.2825C18.3366 14.2825 18.3144 14.2825 18.2891 14.2793V17.7793C18.3144 17.7793 18.3398 17.7793 18.362 17.7793Z" fill="white"/>
<defs>
<linearGradient id="paint0_linear_36270_19107" x1="18.3629" y1="15.5226" x2="17.3442" y2="15.5226" gradientUnits="userSpaceOnUse">
<stop stop-color="white"/>
<stop offset="0.9667" stop-color="white" stop-opacity="0.3233"/>
<stop offset="1" stop-color="white" stop-opacity="0.3"/>
</linearGradient>
</defs>
</svg>
