<svg width="28" height="28" viewBox="0 0 28 28" fill="none" xmlns="http://www.w3.org/2000/svg">
<rect width="28" height="28" rx="14" fill="#FFEAF8"/>
<path fill-rule="evenodd" clip-rule="evenodd" d="M4.77734 2.26486C7.0108 5.01331 8.91539 8.12613 9.66875 9.35741C9.8442 9.64416 9.95721 9.82887 9.99739 9.88315C10.1747 10.1226 10.1038 10.3501 9.8083 10.5177C9.64285 10.6135 9.30012 10.7093 9.13467 10.7093C8.94558 10.7093 8.72104 10.6135 8.5674 10.4579C8.46104 10.3501 8.00013 9.66762 6.96014 8.02724C6.16833 6.77001 5.4947 5.72831 5.48288 5.71634C5.43561 5.69239 5.43561 5.69239 6.87741 8.30263C7.78741 9.94302 8.08286 10.5297 8.08286 10.6016C8.08286 10.7572 8.03559 10.841 7.8465 11.0566C7.52741 11.4158 7.38559 11.8229 7.27923 12.673C7.16105 13.6189 6.84196 14.2894 5.93197 15.4269C5.40015 16.0974 5.31743 16.2172 5.18743 16.4926C5.02198 16.8278 4.9747 17.0194 4.95107 17.4505C4.92743 17.9055 4.9747 18.1928 5.1047 18.6239C5.22288 19.007 5.35288 19.2585 5.67197 19.7494C5.94379 20.1804 6.10924 20.5037 6.10924 20.6235C6.10924 20.7192 6.13288 20.7192 6.55833 20.6235C7.57468 20.384 8.41377 19.9769 8.87467 19.474C9.15831 19.1627 9.22922 18.9951 9.22922 18.564C9.22922 18.2886 9.2174 18.2287 9.14649 18.0611C9.02831 17.7977 8.80376 17.5822 8.31922 17.2469C7.68105 16.8039 7.40923 16.4447 7.33832 15.9657C7.27923 15.5586 7.35014 15.2832 7.70468 14.5289C8.07104 13.7506 8.16559 13.4273 8.22468 12.6371C8.26013 12.1342 8.31922 11.9306 8.46104 11.775C8.61467 11.6073 8.74467 11.5475 9.11103 11.4996C9.71376 11.4158 10.1038 11.2601 10.411 10.9608C10.6828 10.7093 10.801 10.4579 10.8128 10.0867L10.8247 9.81131L10.671 9.64368C10.3799 9.30479 8.67426 7.15269 7.11175 5.18117C5.69311 3.39119 4.3924 1.75 4.37553 1.75C4.36831 1.75 4.43605 1.83489 4.54106 1.96646C4.60795 2.05028 4.68996 2.15304 4.77734 2.26486ZM6.41651 17.9653C6.54651 17.7378 6.4756 17.4505 6.26287 17.3068C6.06197 17.1751 5.7547 17.2349 5.7547 17.4145C5.7547 17.4624 5.77833 17.5103 5.84924 17.5343C5.9556 17.5941 5.96742 17.654 5.8847 17.7857C5.80197 17.9174 5.80197 18.0372 5.90833 18.121C6.07378 18.2527 6.29833 18.1808 6.41651 17.9653Z" fill="url(#paint0_linear_60033_33471)"/>
<path d="M10.1865 5.70436C9.93831 5.66844 9.9265 5.65647 10.0447 5.6445C10.2692 5.60857 10.7892 5.65647 11.1556 5.74028C12.0065 5.94384 12.7747 6.47067 13.5901 7.39264L13.8028 7.64408L14.1101 7.59619C15.4219 7.38067 16.7692 7.5483 17.8919 8.07513C18.1992 8.21882 18.6837 8.50618 18.7428 8.57803C18.7664 8.60197 18.8019 8.75763 18.8255 8.91329C18.9082 9.47605 18.8728 9.89512 18.6955 10.2184C18.601 10.398 18.601 10.4459 18.6601 10.6016C18.7073 10.7213 18.8492 10.8051 18.9792 10.8051C19.2628 10.8051 19.5582 10.3501 19.7001 9.71552L19.7591 9.46407L19.8655 9.58381C20.4682 10.2663 20.941 11.2122 21.0119 11.8827L21.0355 12.0623L20.9291 11.9067C20.7519 11.6313 20.5864 11.4517 20.3619 11.296C19.9601 11.0206 19.5346 10.9368 18.4119 10.877C17.3955 10.8171 16.8164 10.7333 16.2492 10.5417C15.2801 10.2184 14.7837 9.79933 13.6374 8.25474C13.1292 7.57224 12.8101 7.20106 12.491 6.88975C11.7938 6.20725 11.0965 5.84805 10.1865 5.70436Z" fill="url(#paint1_linear_60033_33471)"/>
<path d="M18.9909 7.22501C19.0146 6.77001 19.0736 6.47067 19.2036 6.19528C19.2509 6.08752 19.2982 5.99173 19.31 5.99173C19.3218 5.99173 19.2982 6.07555 19.2627 6.17134C19.1682 6.43475 19.1564 6.80594 19.2155 7.22501C19.2982 7.76382 19.3336 7.83566 19.9009 8.42237C20.1609 8.69776 20.4682 9.045 20.5864 9.18868L20.7873 9.4521L20.5864 9.26052C20.3382 9.02105 19.7709 8.56605 19.6409 8.50619C19.5582 8.45829 19.5464 8.45829 19.4873 8.51816C19.44 8.56605 19.4282 8.63789 19.4282 8.98513C19.4164 9.52394 19.3455 9.8592 19.1682 10.2064C19.0736 10.386 19.0618 10.3501 19.1446 10.1466C19.2036 9.99091 19.2155 9.91907 19.2155 9.4042C19.2155 8.3625 19.0973 8.11106 18.3764 7.69198C18.1991 7.58422 17.8918 7.42856 17.7146 7.34475C17.5255 7.26093 17.3837 7.18909 17.3955 7.18909C17.4191 7.16514 18.1164 7.36869 18.3882 7.48843C18.8018 7.65606 18.8727 7.66803 18.92 7.65606C18.9555 7.62014 18.9791 7.52435 18.9909 7.22501Z" fill="url(#paint2_linear_60033_33471)"/>
<path d="M9.92648 6.43475C9.85558 7.23698 10.1747 8.31461 10.671 9.00908C11.061 9.54789 11.6637 9.96696 12.1128 10.0149C12.4083 10.0388 12.491 9.94302 12.361 9.75144C12.1719 9.48802 11.9474 9.06894 11.8883 8.88934C11.8528 8.78158 11.7701 8.44632 11.711 8.15895C11.5101 7.17712 11.2974 6.78199 10.8247 6.49462C10.6474 6.38686 10.281 6.24318 10.0683 6.20726L9.95012 6.18331L9.92648 6.43475Z" fill="url(#paint3_linear_60033_33471)"/>
<path d="M18.3882 14.2176C16.0482 13.2597 15.221 12.4335 15.221 11.0326C15.221 10.8291 15.2328 10.6614 15.2328 10.6614C15.2407 10.6614 15.2801 10.6934 15.337 10.7395C15.3654 10.7625 15.3982 10.7892 15.4337 10.8171C15.9064 11.2002 16.4382 11.3679 17.9155 11.5834C18.7782 11.7151 19.2746 11.8109 19.7237 11.9666C21.1536 12.4455 22.04 13.4273 22.2527 14.7564C22.3118 15.1396 22.2764 15.8699 22.1818 16.2531C22.0991 16.5524 21.8627 17.1032 21.8036 17.1152C21.7918 17.1152 21.7682 17.0553 21.7682 16.9595C21.7445 16.4566 21.4964 15.9777 21.0827 15.6065C20.5864 15.1755 19.9482 14.8522 18.3882 14.2176Z" fill="url(#paint4_linear_60033_33471)"/>
<path d="M16.6156 14.1098C16.651 14.2056 16.7101 14.4331 16.7337 14.6127C16.9228 15.7382 16.3437 16.6602 15.1737 17.0314C15.0556 17.0793 14.5828 17.1751 14.1219 17.2469C13.1883 17.4145 12.7629 17.5223 12.3492 17.7259C12.0538 17.8695 11.6874 18.0851 11.711 18.109C11.7229 18.121 11.7938 18.097 11.8647 18.0731C12.3965 17.8815 12.9874 17.7857 13.8738 17.7378C14.1704 17.7178 14.5001 17.6894 14.683 17.6736L14.7719 17.666C15.5637 17.5582 16.1192 17.3187 16.5446 16.8757C16.781 16.6243 16.9228 16.3968 17.041 16.0735C17.1119 15.8699 17.1237 15.7861 17.1237 15.4269C17.1237 15.0557 17.1237 14.9839 17.041 14.7564C16.9346 14.4571 16.8165 14.2415 16.6628 14.0619L16.5565 13.9302L16.6156 14.1098Z" fill="url(#paint5_linear_60033_33471)"/>
<path d="M17.8091 16.5405C17.5019 15.858 17.431 15.2114 17.5964 14.6007C17.6201 14.5409 17.6437 14.481 17.6673 14.481C17.691 14.481 17.7619 14.5169 17.8328 14.5648C17.9746 14.6606 18.2701 14.8282 19.0264 15.2473C19.9837 15.7742 20.5273 16.1813 20.9055 16.6482C21.2364 17.0553 21.4373 17.5223 21.5318 18.097C21.5909 18.4203 21.5555 19.1986 21.4728 19.5219C21.2128 20.5396 20.6219 21.3538 19.7591 21.8208C19.6291 21.8927 19.5228 21.9406 19.511 21.9406C19.4991 21.9406 19.5464 21.8208 19.6173 21.6771C19.901 21.0665 19.9364 20.4798 19.7237 19.8212C19.5937 19.4141 19.3219 18.9232 18.7782 18.097C18.1282 17.1391 17.9746 16.8877 17.8091 16.5405Z" fill="url(#paint6_linear_60033_33471)"/>
<path d="M11.9474 18.7676C10.9547 18.9352 9.87923 19.462 9.00469 20.2044L8.75652 20.4439L8.98106 20.4798C10.1629 20.6594 10.482 20.827 11.3092 21.6891C11.7819 22.18 11.9474 22.2878 12.3374 22.3955C12.9165 22.5512 13.4838 22.2758 13.6847 21.749C13.7674 21.5095 13.7556 21.1263 13.661 20.9348C13.4247 20.4678 12.7274 20.3241 12.3965 20.6594C12.1247 20.9348 12.2074 21.3658 12.5501 21.4377C12.5821 21.4431 12.5997 21.446 12.6006 21.4433C12.6018 21.4399 12.5784 21.428 12.5265 21.4017C12.3729 21.3299 12.3019 21.2341 12.3019 21.0785C12.2901 20.7073 12.7038 20.5157 13.0819 20.6833C13.3656 20.815 13.4719 20.9827 13.4719 21.27C13.4719 21.7131 13.0938 22.0603 12.6565 22.0004C12.4201 21.9645 12.1365 21.8208 11.9829 21.6412C11.6047 21.2102 11.7465 20.5037 12.2901 20.2403C12.7038 20.0368 13.2474 20.0966 13.6728 20.372C14.1574 20.6953 14.3701 20.9827 14.7837 21.9525C14.9256 22.2758 15.091 22.623 15.1737 22.7428C15.5637 23.3415 16.0483 23.6408 16.6155 23.6408C16.9346 23.6408 17.171 23.5929 17.4664 23.4373C17.6792 23.3295 17.9983 23.114 17.9746 23.09C17.9746 23.0806 17.9159 23.1009 17.839 23.1275C17.8184 23.1346 17.7962 23.1423 17.7737 23.1499C17.1474 23.3894 16.5092 23.3774 16.1428 23.102C15.9065 22.9224 15.7174 22.5871 15.6228 22.1561L15.6113 22.0878C15.5888 21.9564 15.5429 21.6871 15.5046 21.4257C15.3746 20.5995 15.2446 20.2283 14.961 19.7973C14.6656 19.3543 14.0983 18.9951 13.4719 18.8274C13.0819 18.7197 12.3729 18.6957 11.9474 18.7676Z" fill="url(#paint7_linear_60033_33471)"/>
<path fill-rule="evenodd" clip-rule="evenodd" d="M10.5646 12.3737C10.6474 12.0623 10.9192 11.751 11.2028 11.6672C11.3919 11.6073 11.7583 11.6433 11.9355 11.7391C12.2783 11.9187 12.5264 12.3138 12.4673 12.6012C12.4083 12.9484 11.8528 13.2358 11.2028 13.2358C10.8719 13.2358 10.7537 13.1879 10.6237 13.0202C10.541 12.9125 10.5174 12.5652 10.5646 12.3737ZM11.841 11.8588C12.0183 11.9666 12.0537 12.1222 11.9592 12.2659C11.8883 12.3617 11.6755 12.4575 11.5219 12.4575C11.2855 12.4575 11.0374 12.2898 11.0374 12.1342C11.0374 11.8229 11.5219 11.6552 11.841 11.8588Z" fill="url(#paint8_linear_60033_33471)"/>
<defs>
<linearGradient id="paint0_linear_60033_33471" x1="8.75" y1="7" x2="13.8699" y2="21.7121" gradientUnits="userSpaceOnUse">
<stop stop-color="#FF0AE6"/>
<stop offset="1" stop-color="#EE14D8" stop-opacity="0.56"/>
</linearGradient>
<linearGradient id="paint1_linear_60033_33471" x1="8.75" y1="7" x2="13.8699" y2="21.7121" gradientUnits="userSpaceOnUse">
<stop stop-color="#FF0AE6"/>
<stop offset="1" stop-color="#EE14D8" stop-opacity="0.56"/>
</linearGradient>
<linearGradient id="paint2_linear_60033_33471" x1="8.75" y1="7" x2="13.8699" y2="21.7121" gradientUnits="userSpaceOnUse">
<stop stop-color="#FF0AE6"/>
<stop offset="1" stop-color="#EE14D8" stop-opacity="0.56"/>
</linearGradient>
<linearGradient id="paint3_linear_60033_33471" x1="8.75" y1="7" x2="13.8699" y2="21.7121" gradientUnits="userSpaceOnUse">
<stop stop-color="#FF0AE6"/>
<stop offset="1" stop-color="#EE14D8" stop-opacity="0.56"/>
</linearGradient>
<linearGradient id="paint4_linear_60033_33471" x1="8.75" y1="7" x2="13.8699" y2="21.7121" gradientUnits="userSpaceOnUse">
<stop stop-color="#FF0AE6"/>
<stop offset="1" stop-color="#EE14D8" stop-opacity="0.56"/>
</linearGradient>
<linearGradient id="paint5_linear_60033_33471" x1="8.75" y1="7" x2="13.8699" y2="21.7121" gradientUnits="userSpaceOnUse">
<stop stop-color="#FF0AE6"/>
<stop offset="1" stop-color="#EE14D8" stop-opacity="0.56"/>
</linearGradient>
<linearGradient id="paint6_linear_60033_33471" x1="8.75" y1="7" x2="13.8699" y2="21.7121" gradientUnits="userSpaceOnUse">
<stop stop-color="#FF0AE6"/>
<stop offset="1" stop-color="#EE14D8" stop-opacity="0.56"/>
</linearGradient>
<linearGradient id="paint7_linear_60033_33471" x1="8.75" y1="7" x2="13.8699" y2="21.7121" gradientUnits="userSpaceOnUse">
<stop stop-color="#FF0AE6"/>
<stop offset="1" stop-color="#EE14D8" stop-opacity="0.56"/>
</linearGradient>
<linearGradient id="paint8_linear_60033_33471" x1="8.75" y1="7" x2="13.8699" y2="21.7121" gradientUnits="userSpaceOnUse">
<stop stop-color="#FF0AE6"/>
<stop offset="1" stop-color="#EE14D8" stop-opacity="0.56"/>
</linearGradient>
</defs>
</svg>
