<svg width="28" height="28" viewBox="0 0 28 28" fill="none" xmlns="http://www.w3.org/2000/svg">
<circle cx="14" cy="14" r="14" fill="#161616"/>
<path d="M10.8135 8.14062L13.1749 10.4862L10.6431 13.0011C9.44542 14.1907 9.44542 16.1194 10.6431 17.309C11.7646 18.423 13.5386 18.4938 14.7431 17.5215L14.0116 18.2481C12.2453 20.0025 9.38168 20.0025 7.61543 18.2481L7.32469 17.9593C5.55844 16.2049 5.55844 13.3604 7.32469 11.606L10.8135 8.14062Z" fill="white"/>
<path d="M17.1865 19.7801L14.8251 17.4345L17.3569 14.9197C18.5546 13.7301 18.5546 11.8013 17.3569 10.6117C16.2354 9.49773 14.4614 9.4269 13.257 10.3992L13.9884 9.67266C15.7547 7.91826 18.6183 7.91826 20.3846 9.67266L20.6753 9.96144C22.4416 11.7158 22.4416 14.5603 20.6753 16.3147L17.1865 19.7801Z" fill="white"/>
</svg>
