<svg width="24" height="24" viewBox="0 0 24 24" fill="none" xmlns="http://www.w3.org/2000/svg">
<rect width="24" height="24" rx="12" fill="#F2F4F7"/>
<path d="M11.9979 10.5114C13.6406 10.5114 14.9723 9.17966 14.9723 7.53693C14.9723 5.8942 13.6406 4.5625 11.9979 4.5625C10.3551 4.5625 9.02344 5.8942 9.02344 7.53693C9.02344 9.17966 10.3551 10.5114 11.9979 10.5114Z" fill="#6A7587"/>
<path d="M17.1507 18.6428C18.0809 18.3497 18.5698 17.3222 18.175 16.4309C17.1258 14.0611 14.7582 12.4062 12.0001 12.4062C9.24199 12.4062 6.87434 14.0611 5.82518 16.4309C5.43039 17.3233 5.91928 18.3497 6.84946 18.6428C8.17444 19.0603 9.92773 19.4367 12.0001 19.4367C14.0725 19.4367 15.8257 19.0603 17.1507 18.6428Z" fill="#6A7587"/>
</svg>
