<svg xmlns="http://www.w3.org/2000/svg" width="32" height="32" viewBox="0 0 32 32" fill="none">
  <path d="M0 8.34783C0 3.73745 3.73745 0 8.34783 0H23.6522C28.2626 0 32 3.73745 32 8.34783V23.6522C32 28.2626 28.2626 32 23.6522 32H8.34783C3.73745 32 0 28.2626 0 23.6522V8.34783Z" fill="rgba(255, 255, 255, 0.1)"/>
  <path d="M17.5488 17.0254C21.2238 17.0254 24.2236 20.0002 24.2236 23.7002C24.2235 24.8251 23.3238 25.75 22.1738 25.75H9.84863C8.72379 25.7499 7.79893 24.825 7.79883 23.7002C7.79883 20.0253 10.7737 17.0255 14.4736 17.0254H17.5488ZM15.999 6.25C18.8239 6.25011 21.124 8.55007 21.124 11.375C21.149 14.225 18.8234 16.5 16.0234 16.5C13.1986 16.4998 10.8984 14.1999 10.8984 11.375C10.8734 8.55 13.174 6.25 15.999 6.25Z" fill="rgba(186, 190, 197, 1)"/>
</svg>