<svg xmlns="http://www.w3.org/2000/svg" width="160" height="160" viewBox="0 0 160 160" fill="none">
  <path d="M86.2619 142.699C119.56 142.699 146.555 115.704 146.555 82.2869C146.555 48.8701 119.441 21.875 86.2619 21.875C52.964 21.875 25.9688 48.8701 25.9688 82.2869C25.9688 115.704 52.964 142.699 86.2619 142.699Z" fill="var(--r-neutral-card-2, #F2F4F7)"/>
  <path d="M142.626 42.6812C145.318 42.6812 147.502 40.4983 147.502 37.8055C147.502 35.1126 145.318 32.9297 142.626 32.9297C139.933 32.9297 137.75 35.1126 137.75 37.8055C137.75 40.4983 139.933 42.6812 142.626 42.6812Z" fill="var(--r-neutral-card-2, #F2F4F7)"/>
  <path d="M149.759 23.6596C151.598 23.6596 153.089 22.1688 153.089 20.3298C153.089 18.4908 151.598 17 149.759 17C147.921 17 146.43 18.4908 146.43 20.3298C146.43 22.1688 147.921 23.6596 149.759 23.6596Z" fill="var(--r-neutral-card-2, #F2F4F7)"/>
  <path d="M29.1735 42.5658C31.0125 42.5658 32.5033 41.075 32.5033 39.236C32.5033 37.397 31.0125 35.9062 29.1735 35.9062C27.3345 35.9062 25.8438 37.397 25.8438 39.236C25.8438 41.075 27.3345 42.5658 29.1735 42.5658Z" fill="var(--r-neutral-card-2, #F2F4F7)"/>
  <path d="M8.84015 106.79C12.2554 106.79 15.0241 104.021 15.0241 100.606C15.0241 97.1906 12.2554 94.4219 8.84015 94.4219C5.42485 94.4219 2.65625 97.1906 2.65625 100.606C2.65625 104.021 5.42485 106.79 8.84015 106.79Z" fill="var(--r-neutral-card-2, #F2F4F7)"/>
  <path d="M76.6925 53.6987L102.24 106.154C103.093 107.972 102.339 110.085 100.522 110.939L48.9866 135.278C47.1691 136.132 45.056 135.376 44.2022 133.559L12.1791 65.668C11.3252 63.8505 12.0797 61.7374 13.897 60.8835L51.1945 43.3203L76.6925 53.6987Z" fill="var(--r-neutral-bg-1, #fff)" stroke="var(--r-neutral-line, #E0E5EC)" stroke-width="2" stroke-miterlimit="10"/>
  <path d="M51.1875 43.3203L58.0182 57.8594C59.0095 59.8593 61.5618 60.7408 63.5617 59.7495L76.6855 53.6987" fill="var(--r-neutral-line, #E0E5EC)"/>
  <path d="M121.942 58.9271L122.682 117.269C122.679 119.277 121.095 120.866 119.088 120.864L62.0942 120.902C60.0862 120.9 58.4965 119.316 58.4992 117.308L58.4844 42.2434C58.487 40.2354 60.0705 38.6457 62.0785 38.6484L103.304 38.6666L121.942 58.9271Z" fill="var(--r-neutral-bg-1, #fff)" stroke="var(--r-neutral-line, #E0E5EC)" stroke-width="2" stroke-miterlimit="10"/>
  <path d="M103.303 38.6641L103.281 54.7278C103.325 56.9596 105.258 58.8452 107.489 58.8013L121.94 58.9245" fill="var(--r-neutral-line, #E0E5EC)"/>
  <path d="M157.805 84.7987L133.972 138.118C133.179 139.918 130.962 140.705 129.189 139.813L77.5548 116.003C75.756 115.21 74.9681 112.993 75.7612 111.194L107.209 43.0792C108.002 41.2803 110.219 40.4925 111.992 41.3845L149.485 58.7049L157.805 84.7987Z" fill="var(--r-neutral-bg-1, #fff)" stroke="var(--r-neutral-line, #E0E5EC)" stroke-width="2" stroke-miterlimit="10"/>
  <path d="M149.384 58.6875L142.665 73.2963C141.694 75.3654 142.726 77.8584 144.796 78.8288L157.802 84.8075" fill="var(--r-neutral-line, #E0E5EC)"/>
</svg>