<svg xmlns="http://www.w3.org/2000/svg" width="14" height="14" viewBox="0 0 14 14" fill="none">
  <path d="M11.6666 7.87484V1.74984C11.6666 1.42767 11.4054 1.1665 11.0833 1.1665H2.91659C2.59442 1.1665 2.33325 1.42767 2.33325 1.74984V12.2498C2.33325 12.572 2.59442 12.8332 2.91659 12.8332H6.12492" stroke="currentColor" stroke-width="0.875" stroke-linecap="round" stroke-linejoin="round"/>
  <path d="M4.95825 3.5H9.04159" stroke="currentColor" stroke-width="0.875" stroke-linecap="round" stroke-linejoin="round"/>
  <path d="M4.95825 5.8335H9.04159" stroke="currentColor" stroke-width="0.875" stroke-linecap="round" stroke-linejoin="round"/>
  <path d="M4.95825 8.1665H6.70825" stroke="currentColor" stroke-width="0.875" stroke-linecap="round" stroke-linejoin="round"/>
  <path d="M11.375 12.8335L10.3645 11.823M10.3645 11.823C10.6284 11.5591 10.7917 11.1945 10.7917 10.7918C10.7917 9.98642 10.1387 9.3335 9.33333 9.3335C8.52792 9.3335 7.875 9.98642 7.875 10.7918C7.875 11.5972 8.52792 12.2502 9.33333 12.2502C9.73604 12.2502 10.1006 12.0869 10.3645 11.823Z" stroke="currentColor" stroke-width="0.875" stroke-linecap="round" stroke-linejoin="round"/>
</svg>