<svg width="400" height="600" viewBox="0 0 400 600" fill="none" xmlns="http://www.w3.org/2000/svg">
<g clip-path="url(#clip0_114948_40926)">
<rect width="400" height="600" transform="matrix(1 0 0 -1 0 600)" fill="url(#paint0_radial_114948_40926)"/>
<g opacity="0.2" filter="url(#filter0_f_114948_40926)">
<path d="M473.837 864.74C343.993 967.297 278.699 879.452 208.718 790.85C138.737 702.249 90.5708 646.447 220.414 543.89C350.258 441.334 394.75 395.563 464.731 484.164C534.712 572.765 603.681 762.184 473.837 864.74Z" fill="#4569C7"/>
</g>
<g opacity="0.1" filter="url(#filter1_f_114948_40926)">
<path d="M117.4 -110.123C266.58 -60.5461 407.57 -179.346 357.993 -30.1669C308.417 119.013 147.293 199.757 -1.88646 150.18C-151.066 100.604 -231.81 -60.5199 -182.234 -209.7C-132.657 -358.879 -31.7791 -159.699 117.4 -110.123Z" fill="#2174A3"/>
</g>
<path d="M0 -10H400L400 611H0V-10Z" fill="url(#paint1_radial_114948_40926)"/>
<g filter="url(#filter2_b_114948_40926)">
<path d="M0 -10H400L400 611H0V-10Z" fill="#ECF3FF" fill-opacity="0.7"/>
</g>
<rect width="400" height="600" fill="url(#paint2_linear_114948_40926)"/>
</g>
<defs>
<filter id="filter0_f_114948_40926" x="-60.9785" y="237.073" width="807.895" height="873.845" filterUnits="userSpaceOnUse" color-interpolation-filters="sRGB">
<feFlood flood-opacity="0" result="BackgroundImageFix"/>
<feBlend mode="normal" in="SourceGraphic" in2="BackgroundImageFix" result="shape"/>
<feGaussianBlur stdDeviation="100" result="effect1_foregroundBlur_114948_40926"/>
</filter>
<filter id="filter1_f_114948_40926" x="-396.836" y="-464.175" width="964.947" height="828.958" filterUnits="userSpaceOnUse" color-interpolation-filters="sRGB">
<feFlood flood-opacity="0" result="BackgroundImageFix"/>
<feBlend mode="normal" in="SourceGraphic" in2="BackgroundImageFix" result="shape"/>
<feGaussianBlur stdDeviation="100" result="effect1_foregroundBlur_114948_40926"/>
</filter>
<filter id="filter2_b_114948_40926" x="-40" y="-50" width="480" height="701" filterUnits="userSpaceOnUse" color-interpolation-filters="sRGB">
<feFlood flood-opacity="0" result="BackgroundImageFix"/>
<feGaussianBlur in="BackgroundImageFix" stdDeviation="20"/>
<feComposite in2="SourceAlpha" operator="in" result="effect1_backgroundBlur_114948_40926"/>
<feBlend mode="normal" in="SourceGraphic" in2="effect1_backgroundBlur_114948_40926" result="shape"/>
</filter>
<radialGradient id="paint0_radial_114948_40926" cx="0" cy="0" r="1" gradientUnits="userSpaceOnUse" gradientTransform="translate(215.897 71.6667) rotate(95.3103) scale(482.069 347.703)">
<stop stop-color="#FDF8FF" stop-opacity="0.68"/>
<stop offset="1" stop-color="#E4EDFF"/>
</radialGradient>
<radialGradient id="paint1_radial_114948_40926" cx="0" cy="0" r="1" gradientUnits="userSpaceOnUse" gradientTransform="translate(215.897 64.175) rotate(95.1317) scale(498.799 347.802)">
<stop stop-color="#FDF8FF" stop-opacity="0.68"/>
<stop offset="1" stop-color="#E4EDFF"/>
</radialGradient>
<linearGradient id="paint2_linear_114948_40926" x1="199.467" y1="-171.5" x2="203.308" y2="214.462" gradientUnits="userSpaceOnUse">
<stop stop-color="#7084FF"/>
<stop offset="1" stop-color="white" stop-opacity="0"/>
</linearGradient>
<clipPath id="clip0_114948_40926">
<rect width="400" height="600" fill="white" transform="matrix(1 0 0 -1 0 600)"/>
</clipPath>
</defs>
</svg>
