<svg width="108" height="104" viewBox="0 0 108 104" fill="none" xmlns="http://www.w3.org/2000/svg">
<rect x="4" width="100" height="100" rx="50" fill="#DBE0FF"/>
<path d="M70 52.6673H64.6667V35.334C64.6667 32.505 63.5429 29.7919 61.5425 27.7915C59.5421 25.7911 56.829 24.6673 54 24.6673C51.171 24.6673 48.4579 25.7911 46.4575 27.7915C44.4571 29.7919 43.3333 32.505 43.3333 35.334V52.6673H38V35.334C38 31.0905 39.6857 27.0209 42.6863 24.0203C45.6869 21.0197 49.7565 19.334 54 19.334C58.2435 19.334 62.3131 21.0197 65.3137 24.0203C68.3143 27.0209 70 31.0905 70 35.334V52.6673Z" fill="#6A7587"/>
<path d="M75.3334 44.666H32.6667C31.6059 44.666 30.5885 45.0874 29.8383 45.8376C29.0882 46.5877 28.6667 47.6051 28.6667 48.666V76.666C28.6667 77.7269 29.0882 78.7443 29.8383 79.4944C30.5885 80.2446 31.6059 80.666 32.6667 80.666H75.3334C76.3943 80.666 77.4117 80.2446 78.1618 79.4944C78.912 78.7443 79.3334 77.7269 79.3334 76.666V48.666C79.3334 47.6051 78.912 46.5877 78.1618 45.8376C77.4117 45.0874 76.3943 44.666 75.3334 44.666Z" fill="#4C65FF"/>
<path d="M59.3334 59.3334C59.3378 58.3961 59.0952 57.4742 58.63 56.6606C58.1647 55.8469 57.4933 55.1703 56.6833 54.6987C55.8733 54.2272 54.9533 53.9774 54.016 53.9746C53.0787 53.9718 52.1573 54.2161 51.3445 54.6828C50.5316 55.1495 49.8562 55.8221 49.3861 56.633C48.916 57.4438 48.6679 58.3643 48.6668 59.3015C48.6656 60.2388 48.9115 61.1598 49.3797 61.9718C49.8478 62.7838 50.5217 63.4581 51.3334 63.9267V71.3334C51.3334 71.687 51.4738 72.0261 51.7239 72.2762C51.9739 72.5262 52.3131 72.6667 52.6667 72.6667H55.3334C55.687 72.6667 56.0261 72.5262 56.2762 72.2762C56.5262 72.0261 56.6667 71.687 56.6667 71.3334V63.9267C57.4754 63.4626 58.1476 62.7938 58.6157 61.9875C59.0838 61.1811 59.3313 60.2657 59.3334 59.3334Z" fill="#2438B1"/>
<rect x="76" y="72" width="32" height="32" rx="16" fill="white"/>
<path d="M84.269 93.692C85.1475 91.9233 85.6031 89.9748 85.6 88C85.5984 87.0398 85.8133 86.0915 86.2288 85.2258C86.6443 84.3601 87.2498 83.5993 88 83" stroke="#E34935" stroke-width="1.5" stroke-linecap="round" stroke-linejoin="round"/>
<path d="M92 88C92.0047 91.2538 91.1786 94.4549 89.6 97.3" stroke="#E34935" stroke-width="1.5" stroke-linecap="round" stroke-linejoin="round"/>
<path d="M88.8 87.9988C88.8 87.1501 89.1372 86.3362 89.7373 85.7361C90.3374 85.136 91.1514 84.7988 92 84.7988C92.8487 84.7988 93.6627 85.136 94.2628 85.7361C94.8629 86.3362 95.2 87.1501 95.2 87.9988C95.2047 91.2974 94.4779 94.5559 93.072 97.5398" stroke="#E34935" stroke-width="1.5" stroke-linecap="round" stroke-linejoin="round"/>
<path d="M101.056 93.6004C101.419 91.7558 101.601 89.8803 101.6 88.0004C101.6 85.4543 100.589 83.0125 98.7884 81.2122C96.988 79.4118 94.5462 78.4004 92.0002 78.4004C89.4541 78.4004 87.0123 79.4118 85.2119 81.2122C83.4116 83.0125 82.4001 85.4543 82.4001 88.0004C82.4012 89.0904 82.2162 90.1726 81.8531 91.2004" stroke="#E34935" stroke-width="1.5" stroke-linecap="round" stroke-linejoin="round"/>
<path d="M88.4812 91.2012C88.1395 92.8832 87.5276 94.4988 86.6692 95.9852" stroke="#E34935" stroke-width="1.5" stroke-linecap="round" stroke-linejoin="round"/>
<path d="M91.2002 81.6506C91.4656 81.618 91.7328 81.6017 92.0002 81.6016C93.6976 81.6016 95.3254 82.2758 96.5257 83.4761C97.7259 84.6763 98.4002 86.3042 98.4002 88.0016C98.3995 89.0713 98.3327 90.14 98.2002 91.2016" stroke="#E34935" stroke-width="1.5" stroke-linecap="round" stroke-linejoin="round"/>
<path d="M97.5942 94.4004C97.4422 94.9924 97.2695 95.5757 97.0762 96.1504" stroke="#E34935" stroke-width="1.5" stroke-linecap="round" stroke-linejoin="round"/>
<rect y="72" width="32" height="32" rx="16" fill="white"/>
<path d="M12 79H11.8C10.1198 79 9.27976 79 8.63803 79.327C8.07354 79.6146 7.6146 80.0735 7.32698 80.638C7 81.2798 7 82.1198 7 83.8V84M12 97H11.8C10.1198 97 9.27976 97 8.63803 96.673C8.07354 96.3854 7.6146 95.9265 7.32698 95.362C7 94.7202 7 93.8802 7 92.2V92M25 84V83.8C25 82.1198 25 81.2798 24.673 80.638C24.3854 80.0735 23.9265 79.6146 23.362 79.327C22.7202 79 21.8802 79 20.2 79H20M25 92V92.2C25 93.8802 25 94.7202 24.673 95.362C24.3854 95.9265 23.9265 96.3854 23.362 96.673C22.7202 97 21.8802 97 20.2 97H20M11.5 84V85.5M20.5 84V85.5M15 88.6001C15.8 88.6001 16.5 87.9001 16.5 87.1001V84M19.2002 91.2C17.4002 93 14.5002 93 12.7002 91.2" stroke="#E34935" stroke-width="1.5" stroke-linecap="round" stroke-linejoin="round"/>
</svg>
