<svg width="161" height="160" viewBox="0 0 161 160" fill="none" xmlns="http://www.w3.org/2000/svg">
  <g clip-path="url(#clip0_355_3988)">
    <path
      d="M148.047 88.6169C153.448 76.5068 126.749 42.6731 101.243 28.5773C85.1659 17.6575 68.4134 19.1577 65.0205 23.9523C57.5744 34.4746 89.6766 43.3906 111.146 53.795C106.531 55.807 102.182 59.4176 99.6242 64.0352C91.6203 55.264 74.0528 47.7107 53.4392 53.795C39.5481 57.8951 28.0036 67.5611 23.5417 82.1605C22.4575 81.6769 21.2571 81.4082 19.9942 81.4082C15.1649 81.4082 11.25 85.3379 11.25 90.1854C11.25 95.033 15.1649 98.9627 19.9942 98.9627C20.8894 98.9627 23.6882 98.36 23.6882 98.36L68.4134 98.6853C50.5268 127.168 36.3913 131.331 36.3913 136.266C36.3913 141.2 49.9165 139.863 54.9949 138.024C79.3057 129.219 105.417 101.777 109.897 93.8779C128.713 96.2343 144.526 96.513 148.047 88.6169Z"
      fill="url(#paint0_linear_355_3988)" />
    <path
      d="M64.4841 29.3587C65.9945 26.3383 76.2037 26.0013 90.0681 32.556C100.244 37.367 111.081 48.108 111.709 50.7708C111.982 51.9293 112.142 53.4048 111.147 53.7982C111.146 53.7976 111.145 53.7968 111.143 53.7962L111.146 53.7953C93.4437 45.2163 68.5135 37.6487 64.4841 29.3587Z"
      fill="url(#paint1_linear_355_3988)" />
    <path
      d="M58.6694 71.8772C73.5151 71.8772 79.9042 76.6996 84.9936 85.759C88.62 92.2144 87.8148 102.425 83.975 109.322C87.5754 110.217 90.7417 111.205 93.5453 112.281C88.9983 116.531 83.7943 120.944 78.2592 124.991C70.7233 123.061 63.8755 121.228 53.4916 118.557C57.9298 113.696 63.0004 107.305 68.4135 98.6848L28.269 98.3928C28.1296 96.7639 28.0884 94.9926 28.1293 93.0598C28.5196 74.6387 50.5038 71.8773 58.6694 71.8772Z"
      fill="url(#paint2_linear_355_3988)" />
    <path
      d="M23.0061 96.5002C24.6461 110.494 32.5692 115.978 48.7593 117.601C64.9494 119.224 74.2363 118.136 86.6003 119.265C96.9266 120.208 106.147 125.49 109.567 123.664C112.646 122.022 110.923 116.087 106.804 112.279C101.465 107.343 94.0752 103.911 81.0725 102.694C83.6637 95.5717 82.9376 85.5861 78.9131 80.1533C73.0941 72.298 62.3533 68.7465 48.7593 70.2982C34.5568 71.9193 20.9479 78.938 23.0061 96.5002Z"
      fill="url(#paint3_linear_355_3988)" />
  </g>
  <defs>
    <linearGradient id="paint0_linear_355_3988" x1="51.8217" y1="77.8928" x2="146.938" y2="104.764"
      gradientUnits="userSpaceOnUse">
      <stop stop-color="#4C65FE" />
      <stop offset="1" stop-color="#8F9FFF" />
    </linearGradient>
    <linearGradient id="paint1_linear_355_3988" x1="130.877" y1="76.079" x2="62.0252" y2="7.32076"
      gradientUnits="userSpaceOnUse">
      <stop stop-color="#4C65FE" />
      <stop offset="1" stop-color="#5156D8" stop-opacity="0" />
    </linearGradient>
    <linearGradient id="paint2_linear_355_3988" x1="95.4537" y1="114.683" x2="29.4416" y2="76.8748"
      gradientUnits="userSpaceOnUse">
      <stop stop-color="#2D46E2" />
      <stop offset="1" stop-color="#8697FF" stop-opacity="0" />
    </linearGradient>
    <linearGradient id="paint3_linear_355_3988" x1="57.4972" y1="77.1806" x2="102.242" y2="133.819"
      gradientUnits="userSpaceOnUse">
      <stop stop-color="#4C65FE" />
      <stop offset="1" stop-color="#4C65FE" />
    </linearGradient>
    <clipPath id="clip0_355_3988">
      <rect width="160" height="160" fill="white" transform="translate(0.5)" />
    </clipPath>
  </defs>
</svg>