<svg width="100" height="100" viewBox="0 0 100 100" fill="none" xmlns="http://www.w3.org/2000/svg">
<path d="M92.5296 55.3855C95.9049 47.8167 79.2184 26.6707 63.277 17.8608C53.2287 11.0359 42.7584 11.9736 40.6378 14.9702C35.984 21.5466 56.0478 27.1191 69.4661 33.6219C66.5817 34.8794 63.8636 37.136 62.2651 40.022C57.2627 34.54 46.283 29.8192 33.3995 33.6219C24.7176 36.1844 17.5022 42.2257 14.7135 51.3503C14.0359 51.048 13.2857 50.8801 12.4964 50.8801C9.47807 50.8801 7.03125 53.3362 7.03125 56.3659C7.03125 59.3956 9.47807 61.8517 12.4964 61.8517C13.0558 61.8517 14.8051 61.475 14.8051 61.475L42.7584 61.6783C31.5793 79.4798 22.7446 82.0821 22.7446 85.1661C22.7446 88.2501 31.1978 87.4145 34.3718 86.2649C49.566 80.7618 65.8854 63.6109 68.6858 58.6737C80.4457 60.1464 90.3288 60.3206 92.5296 55.3855Z" fill="url(#paint0_linear_115001_39088)"/>
<path fill-rule="evenodd" clip-rule="evenodd" d="M69.4649 33.6226C69.4657 33.6229 69.4664 33.6233 69.4671 33.6236C70.089 33.3777 69.9884 32.4556 69.8177 31.7315C69.4252 30.0672 62.6524 23.3541 56.2924 20.3473C47.6262 16.2501 41.2446 16.4613 40.3018 18.3497C42.0671 21.9814 50.2509 25.3912 58.7983 28.9524C62.4449 30.4717 66.1576 32.0186 69.4663 33.622C69.4658 33.6222 69.4654 33.6224 69.4649 33.6226Z" fill="url(#paint1_linear_115001_39088)"/>
<path fill-rule="evenodd" clip-rule="evenodd" d="M58.4671 70.1751C56.7145 69.5027 54.7347 68.8859 52.4839 68.3262C54.8838 64.0157 55.3874 57.6344 53.1208 53.5998C49.94 47.9376 45.947 44.9238 36.6683 44.9238C31.5651 44.9238 17.8248 46.6493 17.5808 58.1627C17.5552 59.3707 17.5802 60.4778 17.6673 61.496L42.7582 61.6785C39.3755 67.065 36.2075 71.0598 33.434 74.0975C36.7641 74.954 39.5122 75.6731 42.0351 76.3333C44.4289 76.9597 46.62 77.5331 48.9133 78.1204C52.3729 75.5904 55.6252 72.8316 58.4671 70.1751Z" fill="url(#paint2_linear_115001_39088)"/>
<path d="M14.3787 60.3121C15.4037 69.0583 20.3557 72.486 30.4745 73.5003C40.5933 74.5147 46.3976 73.8342 54.1251 74.5399C60.579 75.1293 66.3416 78.4306 68.4795 77.2898C70.4034 76.2631 69.327 72.5536 66.7526 70.1738C63.4155 67.0889 58.7969 64.9441 50.6702 64.1829C52.2897 59.7318 51.8359 53.4908 49.3206 50.0953C45.6837 45.1857 38.9707 42.9661 30.4745 43.9359C21.5979 44.9491 13.0924 49.3358 14.3787 60.3121Z" fill="url(#paint3_linear_115001_39088)"/>
<defs>
<linearGradient id="paint0_linear_115001_39088" x1="32.3886" y1="48.683" x2="91.836" y2="65.4777" gradientUnits="userSpaceOnUse">
<stop stop-color="#8697FF"/>
<stop offset="1" stop-color="#ABB7FF"/>
</linearGradient>
<linearGradient id="paint1_linear_115001_39088" x1="81.7981" y1="47.549" x2="38.7661" y2="4.57407" gradientUnits="userSpaceOnUse">
<stop stop-color="#8697FF"/>
<stop offset="1" stop-color="#5156D8" stop-opacity="0"/>
</linearGradient>
<linearGradient id="paint2_linear_115001_39088" x1="59.6599" y1="71.6777" x2="18.4015" y2="48.0463" gradientUnits="userSpaceOnUse">
<stop stop-color="#465EED"/>
<stop offset="1" stop-color="#8697FF" stop-opacity="0"/>
</linearGradient>
<linearGradient id="paint3_linear_115001_39088" x1="35.9357" y1="48.2374" x2="63.901" y2="83.6365" gradientUnits="userSpaceOnUse">
<stop stop-color="#8898FF"/>
<stop offset="0.983895" stop-color="#6277F1"/>
</linearGradient>
</defs>
</svg>
