<svg width="100" height="100" viewBox="0 0 100 100" fill="none" xmlns="http://www.w3.org/2000/svg">
<g clip-path="url(#clip0_61475_61897)">
<g filter="url(#filter0_d_61475_61897)">
<path d="M81.5431 91.35C81.3255 92.4814 80.2351 93.22 79.1038 93.0024L32.0496 83.9518C30.9182 83.7342 30.1797 82.6439 30.3973 81.5125L42.9893 16.0458C43.2069 14.9145 44.2973 14.1759 45.4286 14.3935L92.4828 23.444C93.6142 23.6616 94.3528 24.752 94.1352 25.8834L81.5431 91.35Z" fill="#F5F6FA"/>
</g>
<rect x="47.2656" y="20.2734" width="42.5" height="60" rx="2.5" transform="rotate(10.8875 47.2656 20.2734)" fill="#E5E9EF"/>
<path d="M46.1424 57.9354L48.5619 45.3559L51.0022 45.8253L54.4224 54.9124L55.9858 46.7839L58.3917 47.2466L55.9722 59.8261L53.5663 59.3633L50.1124 50.3588L48.5654 58.4014L46.1424 57.9354ZM57.7548 60.1689L59.6654 50.236C59.7601 49.7434 59.9219 49.3349 60.1506 49.0106C60.3815 48.6748 60.6474 48.4349 60.9484 48.2908C61.2608 48.149 61.5737 48.0666 61.887 48.0437C62.2139 48.0115 62.5539 48.0353 62.9068 48.1151C65.8472 48.7638 67.6741 49.2102 68.3875 49.4544L68.0041 51.4478L63.0376 50.4926C62.8199 50.4507 62.6437 50.4406 62.5088 50.4622C62.374 50.4837 62.2669 50.5463 62.1876 50.6499C62.1197 50.7556 62.0724 50.8475 62.0455 50.9255C62.0186 51.0035 61.9897 51.1227 61.9589 51.2831L61.5821 53.2422L66.6358 54.3924L66.2524 56.3859L61.1358 55.5621L60.1607 60.6317L57.7548 60.1689ZM69.0345 51.5926L69.4609 49.3757L78.758 51.1639L78.3316 53.3808L74.843 52.7098L72.8499 63.0724L70.444 62.6096L72.4371 52.247L69.0345 51.5926Z" fill="#B4BDCC"/>
<g filter="url(#filter1_d_61475_61897)">
<path d="M62.2225 75.2141C62.3657 76.3572 61.5574 77.397 60.4142 77.5401L12.8689 83.4942C11.7258 83.6374 10.686 82.8291 10.5429 81.6859L2.25887 15.5359C2.11572 14.3928 2.92403 13.353 4.06719 13.2099L51.6125 7.25575C52.7556 7.1126 53.7954 7.92091 53.9386 9.06407L62.2225 75.2141Z" fill="#F5F6FA"/>
</g>
<rect x="7.63281" y="18.2266" width="42.5" height="60" rx="2.5" transform="rotate(-7.13802 7.63281 18.2266)" fill="#E5E9EF"/>
<path d="M17.818 53.7718L16.2262 41.0611L18.692 40.7523L24.7562 48.3351L23.7277 40.1217L26.1587 39.8173L27.7504 52.528L25.3194 52.8324L19.2487 45.3387L20.2664 53.4652L17.818 53.7718ZM29.5517 52.3024L28.2948 42.2658C28.2325 41.768 28.2599 41.3296 28.377 40.9504C28.4927 40.5597 28.6713 40.2492 28.9129 40.0191C29.1661 39.7875 29.4381 39.6123 29.729 39.4936C30.0299 39.3619 30.3606 39.2793 30.7209 39.2459C33.7177 38.953 35.5931 38.8122 36.347 38.8236L36.5992 40.8378L31.5809 41.4663C31.361 41.4938 31.1903 41.5387 31.0687 41.601C30.9472 41.6632 30.8647 41.7559 30.8213 41.8789C30.7895 42.0004 30.7729 42.1025 30.7715 42.1849C30.77 42.2674 30.7795 42.3897 30.7998 42.5518L31.0477 44.5313L36.2093 44.0613L36.4615 46.0755L31.3412 46.8755L31.9827 51.998L29.5517 52.3024ZM37.6239 40.6566L37.3434 38.4166L46.7375 37.2402L47.018 39.4802L43.493 39.9216L44.8043 50.3923L42.3733 50.6968L41.062 40.2261L37.6239 40.6566Z" fill="#B4BDCC"/>
</g>
<defs>
<filter id="filter0_d_61475_61897" x="25.3594" y="11.8555" width="73.814" height="88.6846" filterUnits="userSpaceOnUse" color-interpolation-filters="sRGB">
<feFlood flood-opacity="0" result="BackgroundImageFix"/>
<feColorMatrix in="SourceAlpha" type="matrix" values="0 0 0 0 0 0 0 0 0 0 0 0 0 0 0 0 0 0 127 0" result="hardAlpha"/>
<feOffset dy="2.5"/>
<feGaussianBlur stdDeviation="2.5"/>
<feComposite in2="hardAlpha" operator="out"/>
<feColorMatrix type="matrix" values="0 0 0 0 0 0 0 0 0 0 0 0 0 0 0 0 0 0 0.15 0"/>
<feBlend mode="normal" in2="BackgroundImageFix" result="effect1_dropShadow_61475_61897"/>
<feBlend mode="normal" in="SourceGraphic" in2="effect1_dropShadow_61475_61897" result="shape"/>
</filter>
<filter id="filter1_d_61475_61897" x="-2.75732" y="4.73926" width="69.9961" height="86.2715" filterUnits="userSpaceOnUse" color-interpolation-filters="sRGB">
<feFlood flood-opacity="0" result="BackgroundImageFix"/>
<feColorMatrix in="SourceAlpha" type="matrix" values="0 0 0 0 0 0 0 0 0 0 0 0 0 0 0 0 0 0 127 0" result="hardAlpha"/>
<feOffset dy="2.5"/>
<feGaussianBlur stdDeviation="2.5"/>
<feComposite in2="hardAlpha" operator="out"/>
<feColorMatrix type="matrix" values="0 0 0 0 0 0 0 0 0 0 0 0 0 0 0 0 0 0 0.15 0"/>
<feBlend mode="normal" in2="BackgroundImageFix" result="effect1_dropShadow_61475_61897"/>
<feBlend mode="normal" in="SourceGraphic" in2="effect1_dropShadow_61475_61897" result="shape"/>
</filter>
<clipPath id="clip0_61475_61897">
<rect width="100" height="100" fill="white"/>
</clipPath>
</defs>
</svg>
