<svg width="400" height="520" viewBox="0 0 400 520" fill="none" xmlns="http://www.w3.org/2000/svg">
<g clip-path="url(#clip0_114948_40954)">
<g opacity="0.2" filter="url(#filter0_f_114948_40954)">
<path d="M506.837 825.74C376.993 928.297 311.699 840.452 241.718 751.85C171.737 663.249 123.571 607.447 253.414 504.89C383.258 402.334 427.75 356.563 497.731 445.164C567.712 533.765 636.681 723.184 506.837 825.74Z" fill="#4569C7"/>
</g>
<g opacity="0.1" filter="url(#filter1_f_114948_40954)">
<path d="M117.4 -110.123C266.58 -60.5461 407.57 -179.346 357.993 -30.1669C308.417 119.013 147.293 199.757 -1.88646 150.18C-151.066 100.604 -231.81 -60.5199 -182.234 -209.7C-132.657 -358.879 -31.7791 -159.699 117.4 -110.123Z" fill="#2174A3"/>
</g>
<g filter="url(#filter2_b_114948_40954)">
<path d="M0 -10H400L400 520H0V-10Z" fill="#ECF3FF" fill-opacity="0.7"/>
</g>
<rect width="400" height="520" fill="url(#paint0_linear_114948_40954)"/>
</g>
<defs>
<filter id="filter0_f_114948_40954" x="-27.9785" y="198.072" width="807.895" height="873.846" filterUnits="userSpaceOnUse" color-interpolation-filters="sRGB">
<feFlood flood-opacity="0" result="BackgroundImageFix"/>
<feBlend mode="normal" in="SourceGraphic" in2="BackgroundImageFix" result="shape"/>
<feGaussianBlur stdDeviation="100" result="effect1_foregroundBlur_114948_40954"/>
</filter>
<filter id="filter1_f_114948_40954" x="-396.836" y="-464.175" width="964.947" height="828.958" filterUnits="userSpaceOnUse" color-interpolation-filters="sRGB">
<feFlood flood-opacity="0" result="BackgroundImageFix"/>
<feBlend mode="normal" in="SourceGraphic" in2="BackgroundImageFix" result="shape"/>
<feGaussianBlur stdDeviation="100" result="effect1_foregroundBlur_114948_40954"/>
</filter>
<filter id="filter2_b_114948_40954" x="-40" y="-50" width="480" height="610" filterUnits="userSpaceOnUse" color-interpolation-filters="sRGB">
<feFlood flood-opacity="0" result="BackgroundImageFix"/>
<feGaussianBlur in="BackgroundImageFix" stdDeviation="20"/>
<feComposite in2="SourceAlpha" operator="in" result="effect1_backgroundBlur_114948_40954"/>
<feBlend mode="normal" in="SourceGraphic" in2="effect1_backgroundBlur_114948_40954" result="shape"/>
</filter>
<linearGradient id="paint0_linear_114948_40954" x1="199.467" y1="-148.633" x2="202.352" y2="185.875" gradientUnits="userSpaceOnUse">
<stop stop-color="#7084FF"/>
<stop offset="1" stop-color="white" stop-opacity="0"/>
</linearGradient>
<clipPath id="clip0_114948_40954">
<rect width="400" height="520" fill="white" transform="matrix(1 0 0 -1 0 520)"/>
</clipPath>
</defs>
</svg>
