<svg width="20" height="20" viewBox="0 0 20 20" fill="none" xmlns="http://www.w3.org/2000/svg">
<rect width="20" height="20" rx="10" fill="#2ABB7F"/>
<path d="M6.29403 15L6.46023 14.0455L9.91193 10.9858C10.2813 10.6534 10.5895 10.3622 10.8366 10.1122C11.0866 9.85937 11.2813 9.61932 11.4205 9.39205C11.5625 9.16477 11.6563 8.9233 11.7017 8.66761C11.75 8.37784 11.7244 8.12784 11.625 7.91761C11.5284 7.70455 11.3736 7.54119 11.1605 7.42756C10.9474 7.31108 10.6918 7.25284 10.3935 7.25284C10.081 7.25284 9.79688 7.31676 9.54119 7.4446C9.28551 7.57244 9.07244 7.75284 8.90199 7.9858C8.73153 8.21875 8.61932 8.49148 8.56534 8.80398H7.3125C7.40057 8.27273 7.60227 7.80824 7.91761 7.41051C8.23295 7.01278 8.62358 6.70455 9.08949 6.4858C9.5554 6.2642 10.0597 6.15341 10.6023 6.15341C11.1534 6.15341 11.6179 6.26278 11.9957 6.48153C12.3764 6.69744 12.652 6.9929 12.8224 7.3679C12.9929 7.74006 13.0384 8.16051 12.9588 8.62926C12.902 8.95597 12.7869 9.27415 12.6136 9.58381C12.4403 9.89062 12.1733 10.2344 11.8125 10.6151C11.4517 10.9929 10.9602 11.4517 10.3381 11.9915L8.30966 13.8068L8.29688 13.8707H12.2216L12.0384 15H6.29403Z" fill="white"/>
</svg>
