<svg xmlns="http://www.w3.org/2000/svg" width="16" height="16" viewBox="0 0 16 16" fill="none">
    <path
        d="M11.9998 6.66622L9.33317 3.99955M1.6665 14.3329L3.92275 14.0822C4.19841 14.0516 4.33624 14.0362 4.46507 13.9946C4.57936 13.9576 4.68814 13.9053 4.78843 13.8392C4.90147 13.7646 4.99954 13.6666 5.19566 13.4704L13.9998 4.66622C14.7362 3.92984 14.7362 2.73593 13.9998 1.99955C13.2635 1.26317 12.0696 1.26317 11.3332 1.99955L2.52899 10.8038C2.33287 10.9999 2.23481 11.0979 2.16026 11.211C2.09412 11.3113 2.04184 11.42 2.00484 11.5344C1.96314 11.6632 1.94782 11.801 1.9172 12.0766L1.6665 14.3329Z"
        stroke="#7084FF" stroke-width="1.5" stroke-linecap="round" stroke-linejoin="round" />
</svg>