<svg width="18" height="20" viewBox="0 0 18 20" fill="none" xmlns="http://www.w3.org/2000/svg">
<path d="M17.8157 2.908C17.8703 3.03728 17.9147 3.1881 17.9488 3.36047C17.9829 3.53284 18 3.7124 18 3.89913C18 4.08586 17.9659 4.2726 17.8976 4.45933C17.8294 4.64607 17.7202 4.82562 17.5701 4.99799C17.4063 5.17036 17.2596 5.32118 17.1299 5.45046C17.0003 5.57974 16.8877 5.69465 16.7921 5.7952C16.6829 5.91012 16.5806 6.01066 16.485 6.09685L12.6567 2.0677C12.8205 1.90969 13.015 1.71937 13.2402 1.49672C13.4654 1.27408 13.653 1.09811 13.8031 0.968837C13.9942 0.810831 14.1921 0.699509 14.3968 0.63487C14.6016 0.570231 14.8029 0.541503 15.0008 0.548685C15.1987 0.555867 15.3898 0.588186 15.574 0.645643C15.7583 0.7031 15.9186 0.767738 16.0551 0.839559C16.3417 0.997565 16.6591 1.27408 17.0071 1.66909C17.3551 2.06411 17.6247 2.47708 17.8157 2.908ZM1.86772 13.4226C1.94961 13.3364 2.14068 13.1317 2.44094 12.8085C2.74121 12.4853 3.11653 12.0867 3.56693 11.6127L5.06142 10.0398L6.71968 8.29457L11.1213 3.66212L14.9496 7.71282L10.548 12.3453L8.91024 14.0905C8.3643 14.6507 7.87297 15.1642 7.43622 15.6311C6.99948 16.0979 6.63779 16.4822 6.35118 16.7838C6.06457 17.0854 5.89396 17.2578 5.83937 17.3009C5.70289 17.4302 5.54593 17.5666 5.3685 17.7103C5.19108 17.8539 5.00682 17.9688 4.81575 18.055C4.62467 18.1556 4.34488 18.2777 3.97638 18.4213C3.60787 18.565 3.22231 18.705 2.81968 18.8415C2.41706 18.9779 2.03491 19.0964 1.67323 19.197C1.31155 19.2975 1.04199 19.3622 0.864567 19.3909C0.496063 19.434 0.250394 19.3765 0.127559 19.2185C0.00472444 19.0605 -0.0293963 18.7948 0.0251968 18.4213C0.0524934 18.2202 0.117323 17.9293 0.219685 17.5487C0.322047 17.168 0.431233 16.773 0.547244 16.3636C0.663254 15.9543 0.775853 15.5772 0.885039 15.2325C0.994226 14.8877 1.08294 14.6507 1.15118 14.5214C1.23307 14.3203 1.3252 14.1372 1.42756 13.972C1.52992 13.8068 1.67664 13.6237 1.86772 13.4226Z" fill="#5260D1"/>
</svg>
