<svg xmlns="http://www.w3.org/2000/svg" width="16" height="16" viewBox="0 0 16 16" fill="none">
  <path d="M11.9993 6.66817L9.33268 4.0015M1.66602 14.3348L3.92226 14.0842C4.19792 14.0535 4.33575 14.0382 4.46458 13.9965C4.57888 13.9595 4.68765 13.9072 4.78794 13.8411C4.90098 13.7666 4.99905 13.6685 5.19517 13.4724L13.9993 4.66817C14.7357 3.93179 14.7357 2.73788 13.9993 2.0015C13.263 1.26512 12.0691 1.26512 11.3327 2.0015L2.5285 10.8057C2.33238 11.0018 2.23432 11.0998 2.15978 11.2129C2.09364 11.3132 2.04136 11.422 2.00436 11.5363C1.96266 11.6651 1.94734 11.8029 1.91671 12.0786L1.66602 14.3348Z" stroke="#4C65FF" stroke-width="1.5" stroke-linecap="round" stroke-linejoin="round"/>
</svg>