<svg width="54" height="49" viewBox="0 0 54 49" fill="none" xmlns="http://www.w3.org/2000/svg">
<path d="M20.8197 18.0078L25.5077 1.71117C25.6474 1.22561 26.337 1.22999 26.4705 1.71728L30.9348 18.0121C30.9759 18.1621 31.0844 18.2844 31.2284 18.3431L43.2153 23.2266C43.649 23.4033 43.6235 24.0259 43.1768 24.1666L31.2459 27.9226C31.0916 27.9712 30.9704 28.0914 30.9205 28.2452L25.558 44.7796C25.4014 45.2622 24.7087 45.2318 24.5951 44.7373L20.8159 28.287C20.7752 28.1099 20.6417 27.9688 20.4671 27.9185L7.45603 24.1695C6.99284 24.0361 6.96811 23.389 7.41978 23.2206L20.5139 18.3381C20.6624 18.2827 20.7759 18.1601 20.8197 18.0078Z" fill="#FFD220"/>
<path d="M49.7084 18.0545L50.3775 15.3597C50.4288 15.1528 50.7251 15.1591 50.7676 15.368L51.2958 17.9635C51.3097 18.0319 51.3582 18.088 51.4237 18.1117L53.4173 18.8332C53.5999 18.8993 53.5907 19.1605 53.404 19.2137L51.477 19.7619C51.407 19.7818 51.3534 19.838 51.3369 19.9089L50.7001 22.6416C50.6517 22.849 50.3559 22.8472 50.31 22.6393L49.7077 19.9113C49.6918 19.8392 49.6374 19.7817 49.5663 19.7618L47.6332 19.2212C47.4429 19.168 47.4369 18.9004 47.6246 18.8386L49.5768 18.1963C49.6422 18.1748 49.6919 18.1213 49.7084 18.0545Z" fill="#7084FF"/>
<path d="M36.8565 40.8856L37.9159 36.4051C37.9654 36.1955 38.2659 36.2016 38.3068 36.4131L39.1476 40.751C39.1608 40.8189 39.2082 40.8753 39.2729 40.8999L42.4483 42.1065C42.627 42.1744 42.6177 42.4304 42.4345 42.4851L39.3463 43.4076C39.2768 43.4283 39.224 43.4851 39.2083 43.5559L38.2005 48.0965C38.1539 48.3066 37.8538 48.3049 37.8096 48.0943L36.8558 43.5582C36.8406 43.4861 36.7871 43.4282 36.7164 43.4075L33.6009 42.4926C33.414 42.4377 33.4078 42.1753 33.5919 42.1117L36.7272 41.0286C36.7919 41.0062 36.8407 40.9522 36.8565 40.8856Z" fill="#FF7C60"/>
<path d="M9.4737 5.27521L10.403 1.39334C10.453 1.18439 10.7524 1.19056 10.7938 1.40139L11.5305 5.15519C11.5438 5.22326 11.5915 5.27955 11.6564 5.30392L14.4405 6.34884C14.6202 6.41629 14.611 6.6736 14.4268 6.72792L11.7232 7.52556C11.6535 7.54609 11.6005 7.60272 11.5846 7.67353L10.7004 11.6082C10.6534 11.8176 10.3544 11.8159 10.3097 11.606L9.47298 7.67592C9.45763 7.60382 9.40387 7.54601 9.33307 7.52548L6.60898 6.73544C6.42121 6.68098 6.41507 6.4172 6.6001 6.35407L9.34378 5.41793C9.4087 5.39578 9.45773 5.34191 9.4737 5.27521Z" fill="#2ABB7F"/>
<path d="M21.7557 13.6384C27.5598 10.2874 33.2227 8.04194 37.6648 7.10203C39.8915 6.63088 41.7547 6.49955 43.1522 6.68647C44.5671 6.87573 45.3177 7.35906 45.6462 7.92808C45.9747 8.4971 46.018 9.38879 45.4744 10.7088C44.9376 12.0125 43.8923 13.5604 42.3709 15.2532C39.3359 18.6302 34.5598 22.4117 28.7557 25.7627C22.9518 29.1136 17.2893 31.3586 12.8474 32.2986C10.6207 32.7697 8.75753 32.901 7.36003 32.7141C5.9451 32.5249 5.19455 32.0415 4.86603 31.4725C4.5375 30.9035 4.49419 30.0118 5.03776 28.6918C5.57465 27.3881 6.61999 25.8402 8.14132 24.1474C11.1763 20.7705 15.9518 16.9893 21.7557 13.6384Z" stroke="url(#paint0_linear_123830_225)" stroke-width="2"/>
<defs>
<linearGradient id="paint0_linear_123830_225" x1="25" y1="13.4999" x2="32" y2="24.9999" gradientUnits="userSpaceOnUse">
<stop stop-color="#8797FF" stop-opacity="0"/>
<stop offset="0.477789" stop-color="#8797FF" stop-opacity="0.477789"/>
<stop offset="1" stop-color="#7084FF"/>
</linearGradient>
</defs>
</svg>
