<svg width="247" height="79" viewBox="0 0 247 79" fill="none" xmlns="http://www.w3.org/2000/svg">
<g filter="url(#filter0_d_117962_43150)">
<g clip-path="url(#clip0_117962_43150)">
<rect x="4" y="2" width="198" height="71" rx="3.1875" fill="white"/>
<path d="M71.5922 20.7259C70.9696 20.7259 70.4295 20.5827 69.972 20.2964C69.5175 20.01 69.1673 19.6038 68.9214 19.0777C68.6755 18.5516 68.5525 17.926 68.5525 17.2007V17.1913C68.5525 16.463 68.6755 15.8357 68.9214 15.3097C69.1673 14.7836 69.5175 14.3774 69.972 14.091C70.4264 13.8046 70.9665 13.6614 71.5922 13.6614C72.0871 13.6614 72.5338 13.7595 72.9322 13.9556C73.3338 14.1486 73.6622 14.4163 73.9174 14.7587C74.1758 15.1011 74.333 15.4949 74.389 15.94V15.968H73.3478L73.3431 15.9493C73.2809 15.6723 73.1672 15.4326 73.0023 15.2303C72.8373 15.028 72.6349 14.8708 72.3953 14.7587C72.1556 14.6466 71.8879 14.5906 71.5922 14.5906C71.1906 14.5906 70.842 14.6964 70.5463 14.9081C70.2537 15.1198 70.0264 15.4202 69.8646 15.8093C69.7058 16.1953 69.6264 16.6559 69.6264 17.1913V17.2007C69.6264 17.7299 69.7058 18.189 69.8646 18.5781C70.0264 18.9672 70.2537 19.2676 70.5463 19.4792C70.842 19.6909 71.1922 19.7968 71.5968 19.7968C71.8925 19.7968 72.1602 19.7469 72.3999 19.6473C72.6427 19.5477 72.8451 19.4061 73.0069 19.2224C73.1688 19.0357 73.2793 18.8162 73.3384 18.5641L73.3478 18.5454H74.3937L74.389 18.5688C74.3236 19.0014 74.1649 19.3796 73.9128 19.7034C73.6606 20.0271 73.3369 20.2792 72.9416 20.4598C72.5462 20.6372 72.0964 20.7259 71.5922 20.7259ZM77.7975 20.6606C77.3026 20.6606 76.8746 20.5547 76.5135 20.343C76.1555 20.1314 75.88 19.8294 75.687 19.4372C75.494 19.0419 75.3976 18.5734 75.3976 18.0318V18.0225C75.3976 17.4777 75.494 17.0092 75.687 16.617C75.8831 16.2248 76.1602 15.9229 76.5182 15.7112C76.8792 15.4995 77.3057 15.3937 77.7975 15.3937C78.2924 15.3937 78.7189 15.4995 79.0769 15.7112C79.4348 15.9198 79.7103 16.2217 79.9033 16.617C80.0994 17.0092 80.1975 17.4777 80.1975 18.0225V18.0318C80.1975 18.5734 80.0994 19.0419 79.9033 19.4372C79.7103 19.8294 79.4348 20.1314 79.0769 20.343C78.722 20.5547 78.2956 20.6606 77.7975 20.6606ZM77.7975 19.8108C78.087 19.8108 78.3329 19.7407 78.5352 19.6006C78.7376 19.4575 78.8917 19.2536 78.9975 18.989C79.1033 18.7244 79.1562 18.4053 79.1562 18.0318V18.0225C79.1562 17.6458 79.1033 17.3252 78.9975 17.0606C78.8917 16.796 78.7376 16.5937 78.5352 16.4536C78.3329 16.3104 78.087 16.2388 77.7975 16.2388C77.508 16.2388 77.2621 16.3104 77.0598 16.4536C76.8575 16.5937 76.7018 16.796 76.5929 17.0606C76.487 17.3252 76.4341 17.6458 76.4341 18.0225V18.0318C76.4341 18.4053 76.487 18.7244 76.5929 18.989C76.7018 19.2536 76.8575 19.4575 77.0598 19.6006C77.2621 19.7407 77.508 19.8108 77.7975 19.8108ZM81.4021 20.5625V15.4918H82.4153V16.2575H82.4947C82.6192 15.9867 82.8029 15.775 83.0457 15.6225C83.2885 15.47 83.5951 15.3937 83.9655 15.3937C84.5352 15.3937 84.9709 15.5571 85.2729 15.884C85.5748 16.2108 85.7258 16.6762 85.7258 17.2801V20.5625H84.7079V17.5182C84.7079 17.0948 84.6192 16.7805 84.4418 16.575C84.2675 16.3665 83.9935 16.2622 83.62 16.2622C83.3741 16.2622 83.1609 16.3167 82.9803 16.4256C82.7998 16.5314 82.6597 16.684 82.5601 16.8832C82.4636 17.0793 82.4153 17.3143 82.4153 17.5882V20.5625H81.4021ZM87.1359 20.5625V15.4918H88.1491V16.2575H88.2285C88.353 15.9867 88.5367 15.775 88.7794 15.6225C89.0222 15.47 89.3289 15.3937 89.6993 15.3937C90.2689 15.3937 90.7047 15.5571 91.0067 15.884C91.3086 16.2108 91.4596 16.6762 91.4596 17.2801V20.5625H90.4417V17.5182C90.4417 17.0948 90.353 16.7805 90.1755 16.575C90.0012 16.3665 89.7273 16.2622 89.3538 16.2622C89.1078 16.2622 88.8946 16.3167 88.7141 16.4256C88.5335 16.5314 88.3935 16.684 88.2939 16.8832C88.1974 17.0793 88.1491 17.3143 88.1491 17.5882V20.5625H87.1359ZM94.9988 20.6606C94.5039 20.6606 94.079 20.5547 93.7241 20.343C93.3693 20.1283 93.0953 19.8248 92.9023 19.4326C92.7125 19.0403 92.6175 18.5765 92.6175 18.0411V18.0365C92.6175 17.5073 92.7125 17.045 92.9023 16.6497C93.0953 16.2544 93.3661 15.9462 93.7148 15.7252C94.0665 15.5042 94.4774 15.3937 94.9474 15.3937C95.4206 15.3937 95.8268 15.4995 96.1661 15.7112C96.5085 15.9229 96.7715 16.2202 96.9552 16.603C97.1389 16.9828 97.2307 17.4279 97.2307 17.9384V18.2933H93.1311V17.5695H96.7264L96.2408 18.2419V17.8357C96.2408 17.4746 96.1848 17.1758 96.0727 16.9392C95.9638 16.6995 95.8128 16.5205 95.6198 16.4023C95.4268 16.284 95.2043 16.2248 94.9521 16.2248C94.7 16.2248 94.4743 16.2871 94.2751 16.4116C94.079 16.533 93.9233 16.7135 93.8082 16.9532C93.6961 17.1929 93.6401 17.4871 93.6401 17.8357V18.2419C93.6401 18.575 93.6961 18.8598 93.8082 19.0964C93.9202 19.3329 94.079 19.5135 94.2844 19.638C94.493 19.7625 94.7389 19.8248 95.0222 19.8248C95.2401 19.8248 95.4268 19.7952 95.5825 19.7361C95.7412 19.6738 95.8704 19.5975 95.97 19.5073C96.0727 19.417 96.1428 19.3283 96.1801 19.2411L96.1988 19.2038H97.1793L97.17 19.2458C97.1264 19.4139 97.0501 19.582 96.9412 19.7501C96.8322 19.915 96.6875 20.066 96.507 20.203C96.3295 20.3399 96.1147 20.4504 95.8626 20.5345C95.6136 20.6185 95.3257 20.6606 94.9988 20.6606ZM100.569 20.6606C100.077 20.6606 99.6524 20.5547 99.2945 20.343C98.9396 20.1283 98.6657 19.8232 98.4727 19.4279C98.2797 19.0326 98.1832 18.561 98.1832 18.0131V18.0038C98.1832 17.4653 98.2781 17.0015 98.468 16.6124C98.661 16.2233 98.9349 15.9229 99.2898 15.7112C99.6478 15.4995 100.073 15.3937 100.564 15.3937C100.991 15.3937 101.357 15.4684 101.662 15.6178C101.97 15.7641 102.214 15.9665 102.395 16.2248C102.578 16.4801 102.694 16.7711 102.74 17.098L102.745 17.1213H101.769L101.764 17.112C101.708 16.8629 101.579 16.6559 101.377 16.491C101.175 16.3229 100.905 16.2388 100.569 16.2388C100.289 16.2388 100.048 16.3104 99.8454 16.4536C99.6431 16.5937 99.4875 16.796 99.3785 17.0606C99.2727 17.3252 99.2198 17.6396 99.2198 18.0038V18.0131C99.2198 18.3867 99.2742 18.7073 99.3832 18.975C99.4921 19.2427 99.6478 19.4497 99.8501 19.596C100.052 19.7392 100.292 19.8108 100.569 19.8108C100.887 19.8108 101.143 19.7407 101.34 19.6006C101.539 19.4606 101.679 19.2536 101.76 18.9796L101.769 18.9563L102.74 18.9516L102.731 18.9937C102.672 19.3236 102.552 19.6131 102.371 19.8621C102.191 20.1111 101.95 20.3073 101.648 20.4504C101.349 20.5905 100.989 20.6606 100.569 20.6606ZM105.878 20.5952C105.324 20.5952 104.922 20.4893 104.673 20.2777C104.427 20.0629 104.305 19.7127 104.305 19.2271V16.2902H103.511V15.4918H104.305V14.2124H105.341V15.4918H106.429V16.2902H105.341V18.9796C105.341 19.2536 105.396 19.4512 105.504 19.5726C105.613 19.6909 105.794 19.7501 106.046 19.7501C106.121 19.7501 106.185 19.7485 106.238 19.7454C106.294 19.7423 106.357 19.7376 106.429 19.7314V20.5438C106.348 20.5563 106.261 20.5672 106.168 20.5765C106.074 20.589 105.978 20.5952 105.878 20.5952ZM111.724 20.5625L109.908 13.8249H111L112.237 19.059H112.298L113.704 13.8249H114.679L116.094 19.059H116.155L117.388 13.8249H118.475L116.659 20.5625H115.669L114.222 15.5291H114.161L112.714 20.5625H111.724ZM120.502 20.6465C120.181 20.6465 119.893 20.5858 119.638 20.4644C119.386 20.3399 119.187 20.1641 119.04 19.9368C118.894 19.7096 118.821 19.4435 118.821 19.1384V19.1291C118.821 18.824 118.894 18.5641 119.04 18.3493C119.19 18.1345 119.405 17.9664 119.685 17.845C119.968 17.7205 120.31 17.6458 120.712 17.6209L122.584 17.5089V18.2232L120.852 18.3353C120.503 18.3571 120.247 18.4318 120.082 18.5594C119.917 18.6839 119.834 18.8598 119.834 19.087V19.0964C119.834 19.3267 119.923 19.5088 120.1 19.6427C120.278 19.7734 120.502 19.8388 120.773 19.8388C121.025 19.8388 121.249 19.789 121.445 19.6894C121.644 19.5866 121.8 19.4497 121.912 19.2785C122.024 19.1042 122.08 18.9081 122.08 18.6902V17.0933C122.08 16.8131 121.993 16.5999 121.819 16.4536C121.647 16.3042 121.392 16.2295 121.053 16.2295C120.77 16.2295 120.538 16.2793 120.357 16.3789C120.18 16.4785 120.061 16.6186 120.002 16.7991L119.993 16.8131H119.017L119.022 16.7805C119.062 16.5003 119.173 16.2575 119.353 16.0521C119.537 15.8435 119.777 15.6816 120.072 15.5665C120.371 15.4513 120.712 15.3937 121.095 15.3937C121.521 15.3937 121.882 15.4622 122.178 15.5992C122.477 15.733 122.703 15.9276 122.855 16.1828C123.011 16.4349 123.089 16.7384 123.089 17.0933V20.5625H122.08V19.8434H122.005C121.906 20.0146 121.781 20.1609 121.632 20.2823C121.482 20.4006 121.313 20.4909 121.123 20.5532C120.933 20.6154 120.726 20.6465 120.502 20.6465ZM124.564 20.5625V13.5027H125.577V20.5625H124.564ZM127.132 20.5625V13.5027H128.145V20.5625H127.132ZM131.783 20.6606C131.288 20.6606 130.863 20.5547 130.508 20.343C130.153 20.1283 129.879 19.8248 129.686 19.4326C129.496 19.0403 129.401 18.5765 129.401 18.0411V18.0365C129.401 17.5073 129.496 17.045 129.686 16.6497C129.879 16.2544 130.15 15.9462 130.499 15.7252C130.85 15.5042 131.261 15.3937 131.731 15.3937C132.204 15.3937 132.611 15.4995 132.95 15.7112C133.292 15.9229 133.555 16.2202 133.739 16.603C133.923 16.9828 134.015 17.4279 134.015 17.9384V18.2933H129.915V17.5695H133.51L133.025 18.2419V17.8357C133.025 17.4746 132.969 17.1758 132.857 16.9392C132.748 16.6995 132.597 16.5205 132.404 16.4023C132.211 16.284 131.988 16.2248 131.736 16.2248C131.484 16.2248 131.258 16.2871 131.059 16.4116C130.863 16.533 130.707 16.7135 130.592 16.9532C130.48 17.1929 130.424 17.4871 130.424 17.8357V18.2419C130.424 18.575 130.48 18.8598 130.592 19.0964C130.704 19.3329 130.863 19.5135 131.068 19.638C131.277 19.7625 131.523 19.8248 131.806 19.8248C132.024 19.8248 132.211 19.7952 132.366 19.7361C132.525 19.6738 132.654 19.5975 132.754 19.5073C132.857 19.417 132.927 19.3283 132.964 19.2411L132.983 19.2038H133.963L133.954 19.2458C133.91 19.4139 133.834 19.582 133.725 19.7501C133.616 19.915 133.471 20.066 133.291 20.203C133.113 20.3399 132.899 20.4504 132.646 20.5345C132.397 20.6185 132.11 20.6606 131.783 20.6606ZM137.134 20.5952C136.579 20.5952 136.178 20.4893 135.929 20.2777C135.683 20.0629 135.56 19.7127 135.56 19.2271V16.2902H134.766V15.4918H135.56V14.2124H136.597V15.4918H137.685V16.2902H136.597V18.9796C136.597 19.2536 136.651 19.4512 136.76 19.5726C136.869 19.6909 137.05 19.7501 137.302 19.7501C137.376 19.7501 137.44 19.7485 137.493 19.7454C137.549 19.7423 137.613 19.7376 137.685 19.7314V20.5438C137.604 20.5563 137.516 20.5672 137.423 20.5765C137.33 20.589 137.233 20.5952 137.134 20.5952Z" fill="#192945"/>
<rect x="13.8125" y="30.9375" width="178" height="28.1875" rx="1.34375" stroke="#E0E5EC" stroke-width="0.5"/>
<path fill-rule="evenodd" clip-rule="evenodd" d="M32.9627 43.2237L33.3167 41.3625L32.7824 39.623L29.3418 41.0111L26.471 41.0113L26.4854 41.0536L26.471 41.0146L23.0304 39.623L22.4961 41.359L22.8566 43.2237L22.6248 43.4081L22.9692 43.6864L22.7117 43.9056L23.0465 44.2395L22.834 44.4065L23.3232 45.0223L22.5831 47.5027L23.2685 50.0354L25.6726 49.3188L25.6732 49.32L26.1431 49.7374L27.0925 50.4437L28.7179 50.4437L29.6705 49.734L30.134 49.32L30.1331 49.3156L30.1338 49.3185L30.134 49.32L32.5443 50.0354L33.233 47.5029L32.4896 45.0225L32.9788 44.4065L32.7663 44.2395L33.1043 43.9056L32.8468 43.6899L33.1847 43.4116L32.9595 43.2237L32.9627 43.2237Z" fill="#E78C38"/>
<path d="M26.6347 46.3362L24.9023 45.5236L26.129 44.6208L26.6394 46.3362L26.6347 46.3362ZM29.1677 46.3362L29.6827 44.6133L30.9141 45.5161L29.1677 46.3437L29.1677 46.3362Z" fill="white"/>
<path d="M39.9076 48.4531V41.7155H41.1169L43.2601 47.0851H43.3395L45.4826 41.7155H46.692V48.4531H45.7348V43.5131H45.2165L46.3091 41.9023L43.685 48.4531H42.9099L40.2905 41.9023L41.3784 43.5131H40.8648V48.4531H39.9076ZM50.39 48.5512C49.895 48.5512 49.4701 48.4453 49.1153 48.2337C48.7604 48.0189 48.4865 47.7154 48.2935 47.3232C48.1036 46.931 48.0087 46.4672 48.0087 45.9318V45.9271C48.0087 45.3979 48.1036 44.9357 48.2935 44.5403C48.4865 44.145 48.7573 43.8369 49.1059 43.6158C49.4577 43.3948 49.8686 43.2843 50.3386 43.2843C50.8117 43.2843 51.218 43.3902 51.5573 43.6018C51.8997 43.8135 52.1627 44.1108 52.3463 44.4937C52.53 44.8734 52.6218 45.3185 52.6218 45.829V46.1839H48.5223V45.4602H52.1176L51.632 46.1325V45.7263C51.632 45.3652 51.5759 45.0664 51.4639 44.8298C51.3549 44.5901 51.2039 44.4112 51.011 44.2929C50.818 44.1746 50.5954 44.1154 50.3433 44.1154C50.0911 44.1154 49.8654 44.1777 49.6662 44.3022C49.4701 44.4236 49.3145 44.6042 49.1993 44.8438C49.0872 45.0835 49.0312 45.3777 49.0312 45.7263V46.1325C49.0312 46.4656 49.0872 46.7504 49.1993 46.987C49.3114 47.2236 49.4701 47.4041 49.6756 47.5286C49.8841 47.6531 50.13 47.7154 50.4133 47.7154C50.6312 47.7154 50.818 47.6858 50.9736 47.6267C51.1324 47.5644 51.2615 47.4882 51.3611 47.3979C51.4639 47.3076 51.5339 47.2189 51.5713 47.1317L51.5899 47.0944H52.5705L52.5611 47.1364C52.5175 47.3045 52.4413 47.4726 52.3323 47.6407C52.2234 47.8057 52.0786 47.9566 51.8981 48.0936C51.7207 48.2306 51.5059 48.3411 51.2538 48.4251C51.0047 48.5092 50.7168 48.5512 50.39 48.5512ZM55.7408 48.4858C55.1868 48.4858 54.7852 48.38 54.5362 48.1683C54.2903 47.9535 54.1673 47.6033 54.1673 47.1177V44.1808H53.3736V43.3824H54.1673V42.103H55.2039V43.3824H56.2918V44.1808H55.2039V46.8703C55.2039 47.1442 55.2584 47.3419 55.3673 47.4633C55.4763 47.5815 55.6568 47.6407 55.9089 47.6407C55.9836 47.6407 56.0475 47.6391 56.1004 47.636C56.1564 47.6329 56.2202 47.6282 56.2918 47.622V48.4344C56.2109 48.4469 56.1237 48.4578 56.0303 48.4671C55.9369 48.4796 55.8405 48.4858 55.7408 48.4858ZM58.8692 48.5372C58.5486 48.5372 58.2606 48.4765 58.0054 48.3551C57.7533 48.2306 57.554 48.0547 57.4077 47.8275C57.2614 47.6002 57.1883 47.3341 57.1883 47.029V47.0197C57.1883 46.7146 57.2614 46.4547 57.4077 46.2399C57.5572 46.0251 57.7719 45.8571 58.0521 45.7357C58.3354 45.6111 58.6778 45.5364 59.0793 45.5115L60.9517 45.3995V46.1139L59.2194 46.2259C58.8708 46.2477 58.614 46.3224 58.449 46.45C58.284 46.5746 58.2015 46.7504 58.2015 46.9777V46.987C58.2015 47.2173 58.2902 47.3994 58.4677 47.5333C58.6451 47.664 58.8692 47.7294 59.14 47.7294C59.3921 47.7294 59.6163 47.6796 59.8124 47.58C60.0116 47.4773 60.1672 47.3403 60.2793 47.1691C60.3914 46.9948 60.4474 46.7987 60.4474 46.5808V44.9839C60.4474 44.7038 60.3602 44.4905 60.1859 44.3442C60.0147 44.1948 59.7595 44.1201 59.4202 44.1201C59.1369 44.1201 58.905 44.1699 58.7245 44.2695C58.547 44.3691 58.4287 44.5092 58.3696 44.6898L58.3603 44.7038H57.3844L57.3891 44.6711C57.4295 44.3909 57.54 44.1481 57.7206 43.9427C57.9042 43.7341 58.1439 43.5723 58.4396 43.4571C58.7385 43.3419 59.0793 43.2843 59.4622 43.2843C59.8886 43.2843 60.2497 43.3528 60.5454 43.4898C60.8443 43.6236 61.0699 43.8182 61.2225 44.0734C61.3781 44.3256 61.4559 44.6291 61.4559 44.9839V48.4531H60.4474V47.7341H60.3727C60.2731 47.9053 60.1486 48.0516 59.9991 48.173C59.8497 48.2913 59.6801 48.3815 59.4902 48.4438C59.3003 48.506 59.0933 48.5372 58.8692 48.5372ZM63.0014 48.4531V41.7155H64.2108L66.3539 47.0851H66.4333L68.5764 41.7155H69.7858V48.4531H68.8286V43.5131H68.3103L69.4029 41.9023L66.7788 48.4531H66.0037L63.3843 41.9023L64.4722 43.5131H63.9586V48.4531H63.0014ZM72.746 48.5372C72.4254 48.5372 72.1375 48.4765 71.8822 48.3551C71.6301 48.2306 71.4309 48.0547 71.2846 47.8275C71.1383 47.6002 71.0651 47.3341 71.0651 47.029V47.0197C71.0651 46.7146 71.1383 46.4547 71.2846 46.2399C71.434 46.0251 71.6488 45.8571 71.9289 45.7357C72.2122 45.6111 72.5546 45.5364 72.9561 45.5115L74.8285 45.3995V46.1139L73.0962 46.2259C72.7476 46.2477 72.4908 46.3224 72.3258 46.45C72.1608 46.5746 72.0783 46.7504 72.0783 46.9777V46.987C72.0783 47.2173 72.1671 47.3994 72.3445 47.5333C72.5219 47.664 72.746 47.7294 73.0168 47.7294C73.269 47.7294 73.4931 47.6796 73.6892 47.58C73.8884 47.4773 74.0441 47.3403 74.1561 47.1691C74.2682 46.9948 74.3242 46.7987 74.3242 46.5808V44.9839C74.3242 44.7038 74.2371 44.4905 74.0627 44.3442C73.8915 44.1948 73.6363 44.1201 73.297 44.1201C73.0137 44.1201 72.7818 44.1699 72.6013 44.2695C72.4239 44.3691 72.3056 44.5092 72.2464 44.6898L72.2371 44.7038H71.2612L71.2659 44.6711C71.3064 44.3909 71.4169 44.1481 71.5974 43.9427C71.7811 43.7341 72.0207 43.5723 72.3165 43.4571C72.6153 43.3419 72.9561 43.2843 73.339 43.2843C73.7655 43.2843 74.1266 43.3528 74.4223 43.4898C74.7211 43.6236 74.9468 43.8182 75.0993 44.0734C75.2549 44.3256 75.3328 44.6291 75.3328 44.9839V48.4531H74.3242V47.7341H74.2495C74.1499 47.9053 74.0254 48.0516 73.876 48.173C73.7266 48.2913 73.5569 48.3815 73.367 48.4438C73.1772 48.506 72.9702 48.5372 72.746 48.5372ZM78.6059 48.5512C78.1981 48.5512 77.8432 48.492 77.5413 48.3737C77.2393 48.2523 76.9997 48.0858 76.8222 47.8741C76.6448 47.6594 76.5405 47.4103 76.5094 47.1271V47.1177H77.5273V47.1271C77.5926 47.317 77.7172 47.471 77.9008 47.5893C78.0845 47.7076 78.3273 47.7668 78.6292 47.7668C78.8378 47.7668 79.0199 47.7372 79.1755 47.678C79.3343 47.6189 79.4588 47.5364 79.549 47.4306C79.6393 47.3247 79.6844 47.2033 79.6844 47.0664V47.057C79.6844 46.8983 79.6206 46.7644 79.493 46.6555C79.3654 46.5465 79.1553 46.4578 78.8627 46.3893L78.0502 46.2026C77.7327 46.131 77.4697 46.0329 77.2611 45.9084C77.0526 45.7839 76.8985 45.6314 76.7989 45.4508C76.6993 45.2672 76.6495 45.0524 76.6495 44.8065V44.8018C76.6495 44.5061 76.7335 44.2446 76.9016 44.0174C77.0697 43.787 77.3016 43.6081 77.5973 43.4804C77.8961 43.3497 78.237 43.2843 78.6199 43.2843C79.0059 43.2843 79.342 43.345 79.6284 43.4664C79.9179 43.5847 80.1467 43.7497 80.3148 43.9614C80.4829 44.1699 80.5825 44.4127 80.6136 44.6898V44.6944H79.6424V44.6851C79.5957 44.5077 79.4837 44.3598 79.3062 44.2415C79.1319 44.1232 78.9016 44.0641 78.6152 44.0641C78.4315 44.0641 78.2681 44.0937 78.1249 44.1528C77.9817 44.2088 77.8681 44.2882 77.7841 44.3909C77.7032 44.4905 77.6627 44.6088 77.6627 44.7458V44.7551C77.6627 44.861 77.6891 44.9543 77.7421 45.0353C77.7981 45.1131 77.8853 45.1831 78.0035 45.2454C78.1218 45.3045 78.2744 45.3575 78.4611 45.4041L79.2689 45.5862C79.7545 45.7014 80.1156 45.868 80.3521 46.0858C80.5918 46.3037 80.7117 46.5963 80.7117 46.9637V46.973C80.7117 47.2843 80.6198 47.5598 80.4362 47.7994C80.2525 48.036 80.002 48.2212 79.6844 48.3551C79.3701 48.4858 79.0105 48.5512 78.6059 48.5512ZM81.963 48.4531V41.3933H82.9762V48.4531H81.963ZM85.1567 48.4531L83.3358 46.0765L84.0875 45.4462L86.3941 48.4531H85.1567ZM82.8782 46.7115L82.8361 45.5162H83.0556L85.0634 43.3824H86.254L83.9661 45.6983L83.5739 46.0205L82.8782 46.7115Z" fill="#3E495E"/>
<g filter="url(#filter1_d_117962_43150)">
<path d="M191.208 39.0726L192.608 33.8479L199.298 45.4385L187.71 52.1274L189.144 46.7744C182.617 45.0255 177.486 45.8909 173 49.5839C176.053 43.4078 181.719 37.9283 191.208 39.0726Z" fill="#7084FF"/>
<path d="M191.513 39.1544L191.442 39.4191L191.17 39.3863C186.499 38.8229 182.786 39.8899 179.866 41.8456C177.347 43.533 175.405 45.8912 173.95 48.4637C178.256 45.4439 183.167 44.8458 189.226 46.4692L189.531 46.551L189.45 46.8562L188.213 51.4725L198.867 45.3228L192.716 34.6666L191.513 39.1544Z" stroke="#E0E5EC" stroke-width="0.631899"/>
</g>
<g filter="url(#filter2_d_117962_43150)">
<path d="M137.742 61.7587C137.373 61.5999 137.082 61.3017 136.933 60.9292C136.783 60.5568 136.787 60.1403 136.943 59.7707C137.1 59.401 137.396 59.1083 137.768 58.9563C138.139 58.8043 138.556 58.8054 138.926 58.9594L141.433 59.9231L136.487 53.3738C136.244 53.0521 136.139 52.6471 136.194 52.2479C136.25 51.8486 136.462 51.4879 136.784 51.2449C137.105 51.002 137.51 50.8968 137.909 50.9524C138.309 51.0081 138.669 51.2201 138.912 51.5418L141.477 54.9377C141.234 54.6161 141.129 54.2111 141.185 53.8118C141.24 53.4126 141.452 53.0518 141.774 52.8089C142.096 52.566 142.501 52.4608 142.9 52.5164C143.299 52.5721 143.66 52.7841 143.903 53.1058L144.636 54.076C144.393 53.7544 144.287 53.3494 144.343 52.9501C144.399 52.5509 144.611 52.1901 144.932 51.9472C145.254 51.7043 145.659 51.5991 146.058 51.6547C146.458 51.7104 146.818 51.9224 147.061 52.2441L148.71 54.4272C149.191 55.0643 149.542 55.7899 149.743 56.5626C149.944 57.3354 149.99 58.1401 149.88 58.9308C149.77 59.7215 149.505 60.4828 149.1 61.1711C148.696 61.8594 148.16 62.4614 147.523 62.9425C144.844 64.966 143.039 64.0432 137.742 61.7587Z" fill="white" stroke="#7084FF" stroke-width="1.09318" stroke-linecap="round" stroke-linejoin="round"/>
<path d="M131.453 52.2598L133.33 52.1087L131.453 52.2598Z" fill="white"/>
<path d="M131.453 52.2598L133.33 52.1087" stroke="#7084FF" stroke-width="1.09318" stroke-linecap="round" stroke-linejoin="round"/>
<path d="M136.63 46.1758L136.781 48.0524L136.63 46.1758Z" fill="white"/>
<path d="M136.63 46.1758L136.781 48.0524" stroke="#7084FF" stroke-width="1.09318" stroke-linecap="round" stroke-linejoin="round"/>
<path d="M134.244 49.3923L132.757 48.127L134.244 49.3923Z" fill="white"/>
<path d="M134.244 49.3923L132.757 48.127" stroke="#7084FF" stroke-width="1.09318" stroke-linecap="round" stroke-linejoin="round"/>
<path d="M139.499 48.9602L140.765 47.4732L139.499 48.9602Z" fill="white"/>
<path d="M139.499 48.9602L140.765 47.4732" stroke="#7084FF" stroke-width="1.09318" stroke-linecap="round" stroke-linejoin="round"/>
<path d="M134.667 54.6431L133.402 56.1301L134.667 54.6431Z" fill="white"/>
<path d="M134.667 54.6431L133.402 56.1301" stroke="#7084FF" stroke-width="1.09318" stroke-linecap="round" stroke-linejoin="round"/>
</g>
</g>
<rect x="4.25" y="2.25" width="197.5" height="70.5" rx="2.9375" stroke="#E0E5EC" stroke-width="0.5"/>
</g>
<rect x="207" y="22" width="40" height="40" rx="20" fill="#7084FF"/>
<path d="M239.84 43.6291C240.856 41.3512 235.833 34.9872 231.033 32.3358C228.008 30.2819 224.855 30.564 224.217 31.4659C222.816 33.4451 228.856 35.1222 232.896 37.0792C232.028 37.4577 231.21 38.1368 230.728 39.0054C229.222 37.3555 225.916 35.9348 222.038 37.0792C219.424 37.8504 217.251 39.6686 216.412 42.4147C216.208 42.3237 215.982 42.2732 215.744 42.2732C214.835 42.2732 214.099 43.0123 214.099 43.9242C214.099 44.836 214.835 45.5751 215.744 45.5751C215.913 45.5751 216.439 45.4618 216.439 45.4618L224.855 45.523C221.489 50.8804 218.83 51.6636 218.83 52.5918C218.83 53.5199 221.375 53.2684 222.33 52.9224C226.905 51.2662 231.818 46.1046 232.661 44.6187C236.202 45.0619 239.178 45.1144 239.84 43.6291Z" fill="url(#paint0_linear_117962_43150)"/>
<path fill-rule="evenodd" clip-rule="evenodd" d="M232.891 37.0788C232.893 37.0795 232.894 37.0802 232.896 37.0808C233.083 37.0068 233.053 36.7293 233.001 36.5114C232.883 36.0105 230.844 33.9902 228.929 33.0853C226.324 31.8541 224.405 31.9156 224.116 32.4814C224.649 33.574 227.112 34.5998 229.685 35.6712C230.782 36.1284 231.9 36.594 232.896 37.0765C232.895 37.0773 232.893 37.078 232.891 37.0788Z" fill="url(#paint1_linear_117962_43150)"/>
<path fill-rule="evenodd" clip-rule="evenodd" d="M229.587 48.0822C229.059 47.8794 228.461 47.6934 227.783 47.5246C228.505 46.2273 228.657 44.3069 227.974 43.0926C227.017 41.3885 225.814 40.4815 223.021 40.4815C221.484 40.4815 217.347 41.0008 217.274 44.4658C217.266 44.8306 217.274 45.1648 217.3 45.472L224.855 45.527C223.838 47.1467 222.885 48.3484 222.05 49.2623C223.051 49.5197 223.878 49.7359 224.637 49.9344C225.359 50.1233 226.019 50.2961 226.711 50.4732C227.753 49.7117 228.732 48.8815 229.587 48.0822Z" fill="url(#paint2_linear_117962_43150)"/>
<path d="M216.311 45.1088C216.62 47.741 218.111 48.7725 221.157 49.0778C224.204 49.3831 225.951 49.1783 228.278 49.3907C230.221 49.5681 231.956 50.5616 232.6 50.2183C233.179 49.9093 232.855 48.7929 232.08 48.0767C231.075 47.1483 229.684 46.5028 227.238 46.2737C227.725 44.9341 227.589 43.0559 226.831 42.034C225.736 40.5564 223.715 39.8884 221.157 40.1802C218.485 40.4852 215.924 41.8054 216.311 45.1088Z" fill="url(#paint3_linear_117962_43150)"/>
<defs>
<filter id="filter0_d_117962_43150" x="0.468319" y="0.23416" width="205.063" height="78.0634" filterUnits="userSpaceOnUse" color-interpolation-filters="sRGB">
<feFlood flood-opacity="0" result="BackgroundImageFix"/>
<feColorMatrix in="SourceAlpha" type="matrix" values="0 0 0 0 0 0 0 0 0 0 0 0 0 0 0 0 0 0 127 0" result="hardAlpha"/>
<feOffset dy="1.76584"/>
<feGaussianBlur stdDeviation="1.76584"/>
<feComposite in2="hardAlpha" operator="out"/>
<feColorMatrix type="matrix" values="0 0 0 0 0 0 0 0 0 0 0 0 0 0 0 0 0 0 0.05 0"/>
<feBlend mode="normal" in2="BackgroundImageFix" result="effect1_dropShadow_117962_43150"/>
<feBlend mode="normal" in="SourceGraphic" in2="effect1_dropShadow_117962_43150" result="shape"/>
</filter>
<filter id="filter1_d_117962_43150" x="167.945" y="31.3203" width="36.4088" height="28.3899" filterUnits="userSpaceOnUse" color-interpolation-filters="sRGB">
<feFlood flood-opacity="0" result="BackgroundImageFix"/>
<feColorMatrix in="SourceAlpha" type="matrix" values="0 0 0 0 0 0 0 0 0 0 0 0 0 0 0 0 0 0 127 0" result="hardAlpha"/>
<feOffset dy="2.5276"/>
<feGaussianBlur stdDeviation="2.5276"/>
<feComposite in2="hardAlpha" operator="out"/>
<feColorMatrix type="matrix" values="0 0 0 0 0 0 0 0 0 0 0 0 0 0 0 0 0 0 0.05 0"/>
<feBlend mode="normal" in2="BackgroundImageFix" result="effect1_dropShadow_117962_43150"/>
<feBlend mode="normal" in="SourceGraphic" in2="effect1_dropShadow_117962_43150" result="shape"/>
</filter>
<filter id="filter2_d_117962_43150" x="128.81" y="45.6291" width="23.7721" height="23.1711" filterUnits="userSpaceOnUse" color-interpolation-filters="sRGB">
<feFlood flood-opacity="0" result="BackgroundImageFix"/>
<feColorMatrix in="SourceAlpha" type="matrix" values="0 0 0 0 0 0 0 0 0 0 0 0 0 0 0 0 0 0 127 0" result="hardAlpha"/>
<feOffset dy="2.09685"/>
<feGaussianBlur stdDeviation="1.04842"/>
<feComposite in2="hardAlpha" operator="out"/>
<feColorMatrix type="matrix" values="0 0 0 0 0 0 0 0 0 0 0 0 0 0 0 0 0 0 0.25 0"/>
<feBlend mode="normal" in2="BackgroundImageFix" result="effect1_dropShadow_117962_43150"/>
<feBlend mode="normal" in="SourceGraphic" in2="effect1_dropShadow_117962_43150" result="shape"/>
</filter>
<linearGradient id="paint0_linear_117962_43150" x1="221.733" y1="41.6119" x2="239.63" y2="46.6702" gradientUnits="userSpaceOnUse">
<stop stop-color="white"/>
<stop offset="1" stop-color="white"/>
</linearGradient>
<linearGradient id="paint1_linear_117962_43150" x1="236.608" y1="41.2718" x2="223.657" y2="28.3349" gradientUnits="userSpaceOnUse">
<stop stop-color="#8697FF"/>
<stop offset="1" stop-color="#8697FF" stop-opacity="0"/>
</linearGradient>
<linearGradient id="paint2_linear_117962_43150" x1="229.946" y1="48.534" x2="217.525" y2="41.4155" gradientUnits="userSpaceOnUse">
<stop stop-color="#8697FF"/>
<stop offset="1" stop-color="#8697FF" stop-opacity="0"/>
</linearGradient>
<linearGradient id="paint3_linear_117962_43150" x1="222.801" y1="41.4748" x2="231.217" y2="52.1317" gradientUnits="userSpaceOnUse">
<stop stop-color="white"/>
<stop offset="0.983895" stop-color="#D1D8FF"/>
</linearGradient>
<clipPath id="clip0_117962_43150">
<rect x="4" y="2" width="198" height="71" rx="3.1875" fill="white"/>
</clipPath>
</defs>
</svg>
