<svg width="221" height="54" viewBox="0 0 221 54" fill="none" xmlns="http://www.w3.org/2000/svg">
<g filter="url(#filter0_d_116276_57959)">
<rect x="4" y="10.6094" width="156.563" height="36.6926" rx="2.91015" transform="rotate(-3.15075 4 10.6094)" fill="white" fill-opacity="0.06" shape-rendering="crispEdges"/>
<rect x="4.26336" y="10.8453" width="156.063" height="36.1926" rx="2.66015" transform="rotate(-3.15075 4.26336 10.8453)" stroke="white" stroke-opacity="0.1" stroke-width="0.5" shape-rendering="crispEdges"/>
<g filter="url(#filter1_f_116276_57959)">
<path d="M39.469 31.468C38.6409 31.5136 37.914 31.3587 37.2883 31.0032C36.6627 30.6477 36.1655 30.122 35.7966 29.426C35.4319 28.7299 35.2226 27.8916 35.1686 26.9113L35.1679 26.8987C35.1137 25.9142 35.2297 25.0559 35.5157 24.3239C35.806 23.5917 36.2404 23.0147 36.819 22.5929C37.4019 22.1709 38.1074 21.9371 38.9355 21.8915C39.5778 21.8562 40.1679 21.9509 40.7058 22.1755C41.2477 22.3958 41.7021 22.7204 42.069 23.1494C42.4357 23.5743 42.6794 24.0758 42.8002 24.654L42.7946 24.667L41.6474 24.7302L41.6404 24.7179C41.5173 24.3305 41.3276 24.0019 41.0712 23.732C40.8145 23.458 40.5086 23.2523 40.1535 23.115C39.8027 22.9775 39.416 22.9204 38.9935 22.9437C38.4104 22.9758 37.9117 23.1558 37.4974 23.4837C37.0874 23.8115 36.7816 24.2606 36.5799 24.8311C36.3782 25.4017 36.2984 26.0693 36.3405 26.8341L36.3412 26.8468C36.383 27.6074 36.5355 28.2601 36.7986 28.8051C37.0617 29.35 37.415 29.7629 37.8585 30.0436C38.3063 30.3241 38.8238 30.4482 39.4111 30.4159C39.8379 30.3924 40.2208 30.3035 40.5598 30.1492C40.8986 29.9907 41.1794 29.7782 41.402 29.5116C41.6245 29.2409 41.7725 28.9276 41.8462 28.5717L41.8581 28.5584L43.0117 28.4949L43.0124 28.5075C42.9417 29.0709 42.7487 29.5689 42.4335 30.0016C42.118 30.4301 41.7067 30.7727 41.1995 31.0295C40.6966 31.286 40.1198 31.4322 39.469 31.468ZM47.7413 30.9173C47.0948 30.9529 46.5272 30.8421 46.0384 30.5851C45.5535 30.3236 45.1677 29.9358 44.8809 29.4219C44.5983 28.9076 44.437 28.2871 44.397 27.5604L44.3963 27.5477C44.356 26.8167 44.4481 26.1802 44.6726 25.638C44.9013 25.0957 45.2423 24.67 45.6957 24.3611C46.1534 24.052 46.7055 23.8796 47.352 23.844C48.0027 23.8082 48.5703 23.9189 49.0549 24.1762C49.5395 24.4335 49.9231 24.8192 50.2057 25.3335C50.4925 25.8474 50.6561 26.4699 50.6963 27.2009L50.697 27.2136C50.737 27.9404 50.6427 28.5749 50.414 29.1173C50.1896 29.6594 49.8507 30.087 49.3975 30.4002C48.9441 30.7091 48.392 30.8815 47.7413 30.9173ZM47.6876 29.9412C48.1186 29.9175 48.4785 29.796 48.7673 29.5766C49.0562 29.3573 49.2683 29.0532 49.4037 28.6643C49.5433 28.2752 49.5984 27.8123 49.5688 27.2757L49.5681 27.263C49.5384 26.7222 49.4327 26.266 49.2512 25.8946C49.074 25.5229 48.8299 25.246 48.5189 25.0639C48.2078 24.8776 47.8367 24.7963 47.4057 24.8201C46.9747 24.8438 46.6148 24.9653 46.3259 25.1847C46.0369 25.3998 45.8225 25.7019 45.6829 26.091C45.5475 26.4799 45.4947 26.9448 45.5244 27.4856L45.5251 27.4983C45.5547 28.0349 45.6581 28.4891 45.8354 28.8607C46.0169 29.2322 46.2632 29.5111 46.5744 29.6974C46.8855 29.8837 47.2566 29.9649 47.6876 29.9412ZM52.596 30.5293L52.2199 23.6968L53.3227 23.6361L53.3792 24.6629L53.4806 24.6573C53.6339 24.2844 53.8677 23.9897 54.1821 23.7732C54.4963 23.5525 54.9048 23.4283 55.4076 23.4006C56.1767 23.3582 56.7782 23.5455 57.2122 23.9624C57.6503 24.3748 57.8916 24.9867 57.9363 25.7979L58.1798 30.2219L57.077 30.2826L56.8481 26.1248C56.8142 25.5079 56.6581 25.0588 56.3798 24.7774C56.1055 24.4916 55.6959 24.3637 55.1508 24.3937C54.7874 24.4137 54.4769 24.5092 54.2193 24.6802C53.9617 24.8512 53.7669 25.0844 53.6348 25.3799C53.507 25.6751 53.4541 26.0235 53.4762 26.4249L53.6988 30.4686L52.596 30.5293ZM60.1763 30.112L59.8002 23.2796L60.903 23.2189L60.9595 24.2456L61.061 24.24C61.2142 23.8671 61.448 23.5724 61.7624 23.3559C62.0766 23.1352 62.4851 23.011 62.988 22.9833C63.757 22.941 64.3585 23.1282 64.7926 23.5451C65.2306 23.9575 65.472 24.5694 65.5166 25.3807L65.7601 29.8046L64.6573 29.8653L64.4284 25.7076C64.3945 25.0907 64.2384 24.6415 63.9601 24.3602C63.6859 24.0744 63.2762 23.9465 62.7311 23.9765C62.3677 23.9965 62.0572 24.092 61.7997 24.263C61.5421 24.4339 61.3472 24.6672 61.2152 24.9626C61.0873 25.2579 61.0344 25.6062 61.0565 26.0076L61.2791 30.0513L60.1763 30.112ZM70.552 29.6616C69.9013 29.6975 69.3335 29.5846 68.8487 29.3231C68.3681 29.0614 67.9866 28.6755 67.7042 28.1655C67.4259 27.6511 67.267 27.0368 67.2277 26.3227L67.2274 26.3164C67.1885 25.6107 67.2791 24.9848 67.4991 24.4387C67.7233 23.8924 68.0574 23.4565 68.5015 23.1312C68.9455 22.8058 69.476 22.6262 70.0929 22.5922C70.714 22.558 71.2544 22.6724 71.7138 22.9353C72.1775 23.1979 72.5419 23.5805 72.8069 24.083C73.0759 24.581 73.2291 25.1701 73.2665 25.8504L73.2903 26.2814L67.8142 26.5829L67.7657 25.7019L72.6777 25.4315L72.1769 26.2664L72.1528 25.8291C72.1233 25.2925 72.0187 24.8553 71.8391 24.5177C71.6594 24.18 71.4234 23.9345 71.131 23.7811C70.8384 23.6234 70.5083 23.5547 70.1407 23.5749C69.7731 23.5952 69.4485 23.7042 69.1669 23.9019C68.8894 24.0952 68.6757 24.3718 68.526 24.7318C68.3763 25.0919 68.3155 25.5275 68.3437 26.0388L68.3677 26.4761C68.3945 26.962 68.4998 27.3737 68.6837 27.7111C68.8673 28.0443 69.1163 28.2954 69.4308 28.4646C69.745 28.6296 70.1092 28.7006 70.5233 28.6778C70.8317 28.6609 71.0977 28.6038 71.3212 28.5068C71.5447 28.4097 71.7268 28.2916 71.8675 28.1525C72.0082 28.0134 72.1044 27.8746 72.1561 27.7361L72.1783 27.6777L73.2811 27.6169L73.2713 27.6683C73.2249 27.904 73.1317 28.1359 72.9917 28.364C72.8557 28.5876 72.6742 28.7947 72.4474 28.9852C72.2203 29.1714 71.947 29.3263 71.6274 29.4499C71.3119 29.569 70.9534 29.6395 70.552 29.6616ZM77.9739 29.2531C77.3358 29.2882 76.7743 29.1729 76.2892 28.9072C75.8042 28.6414 75.4181 28.2495 75.131 27.7313C74.844 27.2131 74.6806 26.5927 74.6408 25.8701L74.6401 25.8575C74.601 25.1476 74.6938 24.5237 74.9185 23.9858C75.1474 23.4477 75.4885 23.022 75.9417 22.7089C76.3946 22.3915 76.9401 22.2153 77.5782 22.1802C78.1317 22.1497 78.6145 22.2206 79.0266 22.3929C79.4387 22.5651 79.7743 22.8094 80.0333 23.1258C80.292 23.4379 80.4664 23.7949 80.5563 24.1968L80.5647 24.2345L79.4683 24.2948L79.4609 24.2761C79.3578 23.9428 79.1497 23.666 78.8367 23.4459C78.5236 23.2258 78.122 23.1292 77.6319 23.1562C77.222 23.1788 76.8728 23.3018 76.5842 23.5254C76.2956 23.749 76.0794 24.0554 75.9355 24.4448C75.7956 24.8297 75.7399 25.2799 75.7683 25.7954L75.769 25.808C75.7978 26.332 75.9053 26.7838 76.0915 27.1635C76.2775 27.5389 76.5263 27.824 76.8379 28.0187C77.1495 28.2135 77.5082 28.2997 77.9138 28.2774C78.3744 28.252 78.745 28.132 79.0256 27.9174C79.3062 27.7027 79.4994 27.4018 79.6052 27.0145L79.6158 26.9758L80.7056 26.9095L80.6968 26.9799C80.6264 27.3949 80.4817 27.7694 80.2628 28.1036C80.0436 28.4335 79.7446 28.7 79.3659 28.9031C78.9872 29.1062 78.5232 29.2229 77.9739 29.2531ZM84.9926 28.7968C84.2912 28.8354 83.7742 28.7219 83.4418 28.4562C83.1135 28.1903 82.9315 27.7321 82.8956 27.0813L82.6675 22.9363L81.59 22.9956L81.5397 22.0829L82.6172 22.0236L82.5199 20.2553L83.6607 20.1925L83.7581 21.9608L85.2539 21.8784L85.3041 22.7911L83.8083 22.8735L84.0211 26.7397C84.0432 27.1411 84.1352 27.4263 84.2971 27.5954C84.4587 27.7603 84.717 27.833 85.072 27.8134C85.1692 27.8081 85.2514 27.8014 85.3188 27.7935C85.3904 27.7853 85.4767 27.7742 85.5776 27.7602L85.6293 28.6982C85.5246 28.7209 85.4197 28.7415 85.3148 28.76C85.2099 28.7785 85.1025 28.7908 84.9926 28.7968ZM91.068 28.4115L90.5646 19.2657L91.8892 19.1928L95.4403 26.6515L95.5417 26.6459L98.2526 18.8425L99.5773 18.7696L100.081 27.9154L99.0159 27.974L98.6315 20.9895L98.0737 21.0202L99.249 19.0419L96.0561 28.1369L95.0927 28.19L90.9271 19.5L92.3061 21.3377L91.7483 21.3684L92.1328 28.3529L91.068 28.4115ZM105.069 27.7616C104.418 27.7974 103.851 27.6846 103.366 27.4231C102.885 27.1613 102.504 26.7755 102.221 26.2655C101.943 25.751 101.784 25.1367 101.745 24.4227L101.744 24.4163C101.706 23.7107 101.796 23.0848 102.016 22.5387C102.24 21.9923 102.575 21.5565 103.019 21.2311C103.463 20.9058 103.993 20.7261 104.61 20.6922C105.231 20.658 105.771 20.7723 106.231 21.0352C106.695 21.2979 107.059 21.6805 107.324 22.1829C107.593 22.6809 107.746 23.2701 107.784 23.9504L107.807 24.3814L102.331 24.6828L102.283 23.8018L107.195 23.5314L106.694 24.3664L106.67 23.929C106.64 23.3924 106.536 22.9553 106.356 22.6176C106.177 22.28 105.941 22.0345 105.648 21.881C105.355 21.7234 105.025 21.6547 104.658 21.6749C104.29 21.6951 103.966 21.8041 103.684 22.0019C103.406 22.1952 103.193 22.4718 103.043 22.8318C102.893 23.1918 102.833 23.6275 102.861 24.1387L102.885 24.5761C102.912 25.062 103.017 25.4736 103.201 25.811C103.384 26.1442 103.633 26.3954 103.948 26.5646C104.262 26.7295 104.626 26.8006 105.04 26.7778C105.349 26.7608 105.615 26.7038 105.838 26.6067C106.062 26.5097 106.244 26.3916 106.385 26.2524C106.525 26.1133 106.621 25.9745 106.673 25.836L106.695 25.7776L107.798 25.7169L107.788 25.7683C107.742 26.004 107.649 26.2358 107.509 26.4639C107.373 26.6876 107.191 26.8946 106.964 27.0851C106.737 27.2714 106.464 27.4263 106.145 27.5498C105.829 27.6689 105.47 27.7395 105.069 27.7616ZM112.119 27.3036C111.418 27.3422 110.901 27.2287 110.569 26.963C110.24 26.6971 110.058 26.2388 110.023 25.5881L109.794 21.443L108.717 21.5023L108.667 20.5896L109.744 20.5303L109.647 18.762L110.788 18.6992L110.885 20.4675L112.381 20.3852L112.431 21.2979L110.935 21.3802L111.148 25.2464C111.17 25.6478 111.262 25.9331 111.424 26.1022C111.586 26.267 111.844 26.3397 112.199 26.3202C112.296 26.3148 112.378 26.3082 112.446 26.3002C112.517 26.2921 112.604 26.2809 112.705 26.2669L112.756 27.2049C112.651 27.2277 112.547 27.2483 112.442 27.2668C112.337 27.2852 112.229 27.2975 112.119 27.3036ZM116.287 27.1441C115.856 27.1678 115.463 27.1068 115.108 26.9611C114.756 26.8151 114.471 26.5956 114.251 26.3026C114.036 26.0093 113.917 25.6556 113.894 25.2415L113.893 25.2288C113.871 24.8232 113.949 24.4713 114.128 24.1733C114.306 23.8711 114.577 23.6273 114.939 23.4421C115.302 23.2568 115.747 23.1348 116.273 23.0762L118.775 22.7859L118.823 23.6669L116.455 23.9499C115.937 24.008 115.562 24.1367 115.332 24.3359C115.105 24.5348 115.002 24.8033 115.02 25.1414L115.021 25.154C115.04 25.5005 115.186 25.7637 115.458 25.9437C115.731 26.1194 116.066 26.1963 116.463 26.1745C116.839 26.1538 117.169 26.0614 117.452 25.8975C117.735 25.7293 117.952 25.5118 118.103 25.245C118.258 24.978 118.326 24.6818 118.308 24.3564L118.191 22.2268C118.168 21.8043 118.021 21.4903 117.751 21.2847C117.485 21.0747 117.097 20.9838 116.586 21.012C116.176 21.0345 115.844 21.127 115.59 21.2893C115.336 21.4473 115.172 21.6619 115.098 21.933L115.093 21.9524L113.99 22.0131L113.994 21.9747C114.033 21.6123 114.164 21.2915 114.386 21.0123C114.612 20.7286 114.911 20.5023 115.283 20.3335C115.655 20.1605 116.084 20.0606 116.57 20.0338C117.128 20.0031 117.604 20.068 117.998 20.2285C118.397 20.3888 118.705 20.6346 118.923 20.966C119.144 21.2928 119.268 21.6929 119.294 22.1661L119.551 26.8436L118.448 26.9043L118.393 25.8966L118.292 25.9022C118.161 26.1509 117.997 26.3655 117.799 26.5459C117.606 26.7261 117.383 26.8676 117.13 26.9706C116.877 27.0692 116.596 27.1271 116.287 27.1441ZM121.706 26.725L121.203 17.5792L122.527 17.5063L126.078 24.9649L126.18 24.9593L128.891 17.156L130.215 17.0831L130.719 26.2289L129.654 26.2875L129.27 19.3029L128.712 19.3336L129.887 17.3554L126.694 26.4504L125.731 26.5034L121.565 17.8135L122.944 19.6511L122.387 19.6818L122.771 26.6664L121.706 26.725ZM134.795 26.1253C134.364 26.149 133.97 26.088 133.615 25.9423C133.263 25.7964 132.978 25.5769 132.758 25.2838C132.543 24.9905 132.424 24.6368 132.401 24.2227L132.401 24.2101C132.378 23.8044 132.456 23.4526 132.635 23.1546C132.813 22.8523 133.084 22.6086 133.446 22.4233C133.809 22.238 134.254 22.1161 134.78 22.0574L137.282 21.7672L137.33 22.6482L134.962 22.9311C134.444 22.9893 134.07 23.118 133.839 23.3171C133.613 23.5161 133.509 23.7846 133.527 24.1226L133.528 24.1353C133.547 24.4818 133.693 24.745 133.966 24.9249C134.238 25.1006 134.573 25.1776 134.97 25.1557C135.346 25.135 135.676 25.0427 135.959 24.8787C136.242 24.7106 136.459 24.4931 136.61 24.2263C136.765 23.9592 136.833 23.663 136.815 23.3377L136.698 21.2081C136.675 20.7855 136.528 20.4715 136.258 20.266C135.993 20.056 135.604 19.9651 135.093 19.9932C134.683 20.0158 134.351 20.1082 134.097 20.2705C133.843 20.4286 133.679 20.6432 133.605 20.9143L133.6 20.9336L132.497 20.9943L132.501 20.956C132.541 20.5935 132.671 20.2727 132.893 19.9935C133.119 19.7098 133.418 19.4836 133.79 19.3147C134.162 19.1417 134.591 19.0418 135.077 19.0151C135.635 18.9844 136.111 19.0493 136.505 19.2098C136.904 19.3701 137.212 19.6159 137.43 19.9472C137.651 20.2741 137.775 20.6741 137.801 21.1474L138.058 25.8249L136.956 25.8856L136.9 24.8778L136.799 24.8834C136.668 25.1322 136.504 25.3467 136.306 25.5271C136.113 25.7073 135.89 25.8489 135.637 25.9518C135.384 26.0505 135.103 26.1083 134.795 26.1253ZM142.426 25.7052C141.919 25.7332 141.466 25.6818 141.069 25.551C140.672 25.4161 140.347 25.2157 140.095 24.9499C139.848 24.6838 139.692 24.3639 139.629 23.9901L140.758 23.928C140.866 24.206 141.06 24.4242 141.34 24.5825C141.62 24.7409 141.978 24.8081 142.413 24.7841C142.721 24.7672 142.989 24.7079 143.217 24.6064C143.448 24.5004 143.628 24.3655 143.754 24.2017C143.881 24.0337 143.938 23.8462 143.927 23.6392L143.926 23.6265C143.913 23.3941 143.809 23.2027 143.615 23.0524C143.42 22.8978 143.108 22.7815 142.68 22.7033L141.608 22.5081C141.175 22.4302 140.817 22.3185 140.534 22.173C140.25 22.0234 140.036 21.8338 139.892 21.6044C139.748 21.3708 139.667 21.0913 139.649 20.7659L139.649 20.7596C139.628 20.3793 139.719 20.0331 139.922 19.721C140.129 19.4087 140.421 19.1553 140.796 18.9609C141.171 18.7665 141.599 18.656 142.081 18.6295C142.558 18.6032 142.985 18.656 143.361 18.7879C143.741 18.9153 144.05 19.1102 144.289 19.3725C144.533 19.6346 144.69 19.9502 144.761 20.3192L143.677 20.3789C143.591 20.1124 143.414 19.9018 143.147 19.7469C142.88 19.5921 142.539 19.5261 142.125 19.5489C141.854 19.5638 141.616 19.6214 141.41 19.7218C141.203 19.8179 141.043 19.9454 140.928 20.1043C140.814 20.2631 140.763 20.444 140.774 20.6468L140.775 20.6595C140.783 20.8116 140.831 20.9446 140.917 21.0585C141.004 21.1724 141.135 21.269 141.308 21.3484C141.482 21.4279 141.704 21.4941 141.974 21.547L143.04 21.7426C143.691 21.8636 144.181 22.0613 144.51 22.3356C144.843 22.6097 145.023 22.9918 145.05 23.482L145.05 23.4947C145.073 23.9003 144.972 24.2661 144.748 24.592C144.524 24.9137 144.21 25.1726 143.806 25.3686C143.405 25.5644 142.945 25.6766 142.426 25.7052ZM146.932 25.3364L146.406 15.7913L147.509 15.7306L148.034 25.2757L146.932 25.3364ZM151.235 25.0995L148.383 21.8999L149.155 21.1517L152.623 25.0231L151.235 25.0995ZM147.76 22.8242L147.633 21.439L147.924 21.4229L150.713 18.2751L152.051 18.2015L148.978 21.5111L148.726 21.7856L147.76 22.8242Z" fill="#D3D8E0"/>
</g>
<path fill-rule="evenodd" clip-rule="evenodd" d="M27.8411 24.9019L28.1169 22.84L27.4262 20.9651L23.7377 22.6946L20.5902 22.8681L20.6086 22.9136L20.5904 22.8717L16.7342 21.5537L16.2532 23.4892L16.761 25.5119L16.518 25.728L16.9124 26.0124L16.6433 26.2682L17.0305 26.6142L16.8076 26.8101L17.3812 27.4556L16.7193 30.2198L17.6237 32.9552L20.2162 32.0244L20.2169 32.0257L20.7573 32.455L21.8409 33.172L23.6229 33.0739L24.6246 32.2383L25.1077 31.7565L25.1065 31.7518L25.1074 31.7549L25.1077 31.7565L27.7935 32.3954L28.3957 29.5773L27.431 26.9026L27.9301 26.1978L27.6872 26.0275L28.0375 25.641L27.7422 25.42L28.0959 25.0945L27.8376 24.9021L27.8411 24.9019Z" fill="#E78C38"/>
<path d="M21.0913 28.6985L19.143 27.9122L20.4334 26.8483L21.0964 28.6982L21.0913 28.6985ZM23.8684 28.5456L24.3291 26.6256L25.7337 27.5411L23.8689 28.5538L23.8684 28.5456Z" fill="white"/>
</g>
<g filter="url(#filter2_d_116276_57959)">
<path d="M171.44 14.1807L172.547 10.0466L177.841 19.2178L168.672 24.5105L169.807 20.2749C164.642 18.891 160.582 19.5758 157.032 22.4979C159.448 17.611 163.931 13.2752 171.44 14.1807Z" fill="#7084FF"/>
<path d="M171.681 14.2454L171.625 14.4549L171.41 14.4289C167.713 13.9831 164.776 14.8274 162.465 16.3749C160.472 17.71 158.935 19.576 157.784 21.6116C161.191 19.2221 165.077 18.7488 169.871 20.0334L170.113 20.0981L170.048 20.3396L169.07 23.9923L177.5 19.1263L172.633 10.6943L171.681 14.2454Z" stroke="white" stroke-opacity="0.1" stroke-width="0.5"/>
</g>
<rect x="180.032" y="3" width="40" height="40" rx="20" fill="#7084FF"/>
<path d="M212.872 24.6291C213.889 22.3512 208.865 15.9872 204.065 13.3358C201.04 11.2819 197.887 11.564 197.249 12.4659C195.848 14.4451 201.889 16.1222 205.929 18.0792C205.06 18.4577 204.242 19.1368 203.761 20.0054C202.254 18.3555 198.949 16.9348 195.07 18.0792C192.456 18.8504 190.283 20.6686 189.444 23.4147C189.24 23.3237 189.014 23.2732 188.776 23.2732C187.868 23.2732 187.131 24.0123 187.131 24.9242C187.131 25.836 187.868 26.5751 188.776 26.5751C188.945 26.5751 189.471 26.4618 189.471 26.4618L197.887 26.523C194.522 31.8804 191.862 32.6636 191.862 33.5918C191.862 34.5199 194.407 34.2684 195.362 33.9224C199.937 32.2662 204.851 27.1046 205.694 25.6187C209.234 26.0619 212.21 26.1144 212.872 24.6291Z" fill="url(#paint0_linear_116276_57959)"/>
<path fill-rule="evenodd" clip-rule="evenodd" d="M205.924 18.0786C205.926 18.0794 205.927 18.0801 205.929 18.0808C206.116 18.0068 206.086 17.7293 206.034 17.5114C205.916 17.0105 203.877 14.9902 201.962 14.0853C199.356 12.8536 197.436 12.9156 197.149 13.4822C197.682 14.5744 200.145 15.6 202.717 16.6712C203.815 17.1284 204.932 17.594 205.929 18.0765C205.927 18.0772 205.925 18.0779 205.924 18.0786Z" fill="url(#paint1_linear_116276_57959)"/>
<path fill-rule="evenodd" clip-rule="evenodd" d="M202.619 29.0809C202.091 28.8782 201.494 28.6923 200.815 28.5236C201.538 27.2263 201.69 25.3058 201.007 24.0915C200.05 22.3875 198.847 21.4805 196.054 21.4805C194.517 21.4805 190.38 21.9998 190.307 25.4648C190.299 25.8295 190.307 26.1637 190.333 26.471L197.887 26.5259C196.87 28.1456 195.917 29.3472 195.082 30.2611C196.084 30.5186 196.911 30.7348 197.67 30.9333C198.391 31.1221 199.052 31.2949 199.744 31.472C200.785 30.7105 201.764 29.8803 202.619 29.0809Z" fill="url(#paint2_linear_116276_57959)"/>
<path d="M189.343 26.1088C189.652 28.741 191.143 29.7725 194.189 30.0778C197.236 30.3831 198.983 30.1783 201.31 30.3907C203.253 30.5681 204.988 31.5616 205.631 31.2183C206.211 30.9093 205.887 29.7929 205.112 29.0767C204.107 28.1483 202.716 27.5028 200.27 27.2737C200.757 25.9341 200.621 24.0559 199.863 23.034C198.768 21.5564 196.747 20.8884 194.189 21.1802C191.517 21.4852 188.956 22.8054 189.343 26.1088Z" fill="url(#paint3_linear_116276_57959)"/>
<g filter="url(#filter3_d_116276_57959)">
<path d="M136.27 43.0211C135.984 42.8977 135.758 42.666 135.641 42.3767C135.525 42.0873 135.528 41.7637 135.65 41.4766C135.771 41.1894 136.002 40.962 136.29 40.8439C136.579 40.7258 136.902 40.7267 137.19 40.8463L139.138 41.595L135.295 36.5067C135.106 36.2568 135.024 35.9422 135.068 35.632C135.111 35.3218 135.276 35.0415 135.526 34.8528C135.775 34.664 136.09 34.5823 136.4 34.6256C136.71 34.6688 136.991 34.8335 137.179 35.0834L139.172 37.7218C138.983 37.4719 138.902 37.1572 138.945 36.8471C138.988 36.5369 139.153 36.2566 139.403 36.0679C139.653 35.8791 139.967 35.7974 140.277 35.8406C140.588 35.8839 140.868 36.0486 141.057 36.2985L141.626 37.0523C141.437 36.8024 141.355 36.4878 141.399 36.1776C141.442 35.8674 141.607 35.5871 141.857 35.3984C142.106 35.2097 142.421 35.1279 142.731 35.1712C143.041 35.2144 143.322 35.3791 143.511 35.629L144.791 37.3251C145.165 37.8201 145.438 38.3838 145.594 38.9842C145.75 39.5845 145.786 40.2097 145.7 40.824C145.615 41.4384 145.409 42.0298 145.095 42.5646C144.78 43.0994 144.364 43.567 143.869 43.9408C141.787 45.5129 140.386 44.796 136.27 43.0211Z" fill="white" stroke="#7084FF" stroke-width="0.849307" stroke-linecap="round" stroke-linejoin="round"/>
<path d="M131.385 35.6406L132.843 35.5232L131.385 35.6406Z" fill="white"/>
<path d="M131.385 35.6406L132.843 35.5232" stroke="#7084FF" stroke-width="0.849307" stroke-linecap="round" stroke-linejoin="round"/>
<path d="M135.406 30.9141L135.524 32.372L135.406 30.9141Z" fill="white"/>
<path d="M135.406 30.9141L135.524 32.372" stroke="#7084FF" stroke-width="0.849307" stroke-linecap="round" stroke-linejoin="round"/>
<path d="M133.553 33.4128L132.398 32.4297L133.553 33.4128Z" fill="white"/>
<path d="M133.553 33.4128L132.398 32.4297" stroke="#7084FF" stroke-width="0.849307" stroke-linecap="round" stroke-linejoin="round"/>
<path d="M137.636 33.077L138.619 31.9217L137.636 33.077Z" fill="white"/>
<path d="M137.636 33.077L138.619 31.9217" stroke="#7084FF" stroke-width="0.849307" stroke-linecap="round" stroke-linejoin="round"/>
<path d="M133.882 37.492L132.899 38.6473L133.882 37.492Z" fill="white"/>
<path d="M133.882 37.492L132.899 38.6473" stroke="#7084FF" stroke-width="0.849307" stroke-linecap="round" stroke-linejoin="round"/>
</g>
<defs>
<filter id="filter0_d_116276_57959" x="0" y="0.00390625" width="166.343" height="53.2422" filterUnits="userSpaceOnUse" color-interpolation-filters="sRGB">
<feFlood flood-opacity="0" result="BackgroundImageFix"/>
<feColorMatrix in="SourceAlpha" type="matrix" values="0 0 0 0 0 0 0 0 0 0 0 0 0 0 0 0 0 0 127 0" result="hardAlpha"/>
<feOffset dy="2"/>
<feGaussianBlur stdDeviation="2"/>
<feComposite in2="hardAlpha" operator="out"/>
<feColorMatrix type="matrix" values="0 0 0 0 0 0 0 0 0 0 0 0 0 0 0 0 0 0 0.05 0"/>
<feBlend mode="normal" in2="BackgroundImageFix" result="effect1_dropShadow_116276_57959"/>
<feBlend mode="normal" in="SourceGraphic" in2="effect1_dropShadow_116276_57959" result="shape"/>
</filter>
<filter id="filter1_f_116276_57959" x="34.5944" y="15.1766" width="118.341" height="16.8148" filterUnits="userSpaceOnUse" color-interpolation-filters="sRGB">
<feFlood flood-opacity="0" result="BackgroundImageFix"/>
<feBlend mode="normal" in="SourceGraphic" in2="BackgroundImageFix" result="shape"/>
<feGaussianBlur stdDeviation="0.15" result="effect1_foregroundBlur_116276_57959"/>
</filter>
<filter id="filter2_d_116276_57959" x="153.032" y="8.04688" width="28.809" height="22.4648" filterUnits="userSpaceOnUse" color-interpolation-filters="sRGB">
<feFlood flood-opacity="0" result="BackgroundImageFix"/>
<feColorMatrix in="SourceAlpha" type="matrix" values="0 0 0 0 0 0 0 0 0 0 0 0 0 0 0 0 0 0 127 0" result="hardAlpha"/>
<feOffset dy="2"/>
<feGaussianBlur stdDeviation="2"/>
<feComposite in2="hardAlpha" operator="out"/>
<feColorMatrix type="matrix" values="0 0 0 0 0 0 0 0 0 0 0 0 0 0 0 0 0 0 0.05 0"/>
<feBlend mode="normal" in2="BackgroundImageFix" result="effect1_dropShadow_116276_57959"/>
<feBlend mode="normal" in="SourceGraphic" in2="effect1_dropShadow_116276_57959" result="shape"/>
</filter>
<filter id="filter3_d_116276_57959" x="129.331" y="30.4883" width="18.4683" height="18.0042" filterUnits="userSpaceOnUse" color-interpolation-filters="sRGB">
<feFlood flood-opacity="0" result="BackgroundImageFix"/>
<feColorMatrix in="SourceAlpha" type="matrix" values="0 0 0 0 0 0 0 0 0 0 0 0 0 0 0 0 0 0 127 0" result="hardAlpha"/>
<feOffset dy="1.62907"/>
<feGaussianBlur stdDeviation="0.814535"/>
<feComposite in2="hardAlpha" operator="out"/>
<feColorMatrix type="matrix" values="0 0 0 0 0 0 0 0 0 0 0 0 0 0 0 0 0 0 0.25 0"/>
<feBlend mode="normal" in2="BackgroundImageFix" result="effect1_dropShadow_116276_57959"/>
<feBlend mode="normal" in="SourceGraphic" in2="effect1_dropShadow_116276_57959" result="shape"/>
</filter>
<linearGradient id="paint0_linear_116276_57959" x1="194.765" y1="22.6119" x2="212.663" y2="27.6702" gradientUnits="userSpaceOnUse">
<stop stop-color="white"/>
<stop offset="1" stop-color="white"/>
</linearGradient>
<linearGradient id="paint1_linear_116276_57959" x1="209.641" y1="22.2718" x2="196.69" y2="9.33439" gradientUnits="userSpaceOnUse">
<stop stop-color="#8697FF"/>
<stop offset="1" stop-color="#8697FF" stop-opacity="0"/>
</linearGradient>
<linearGradient id="paint2_linear_116276_57959" x1="202.978" y1="29.5329" x2="190.557" y2="22.4147" gradientUnits="userSpaceOnUse">
<stop stop-color="#8697FF"/>
<stop offset="1" stop-color="#8697FF" stop-opacity="0"/>
</linearGradient>
<linearGradient id="paint3_linear_116276_57959" x1="195.833" y1="22.4748" x2="204.249" y2="33.1317" gradientUnits="userSpaceOnUse">
<stop stop-color="white"/>
<stop offset="0.983895" stop-color="#D1D8FF"/>
</linearGradient>
</defs>
</svg>
