<svg width="16" height="16" viewBox="0 0 16 16" fill="none" xmlns="http://www.w3.org/2000/svg">
<g clip-path="url(#clip0_69768_26968)">
<path d="M8.00005 15.1998C9.98826 15.1998 11.7883 14.3939 13.0912 13.091C14.3942 11.788 15.2 9.98801 15.2 7.9998C15.2 6.0116 14.3942 4.2116 13.0912 2.90863C11.7883 1.60569 9.98826 0.799805 8.00005 0.799805C6.01184 0.799805 4.21184 1.60569 2.90888 2.90863C1.60594 4.2116 0.800049 6.0116 0.800049 7.9998C0.800049 9.98801 1.60594 11.788 2.90888 13.091C4.21184 14.3939 6.01184 15.1998 8.00005 15.1998Z" fill="#7084FF"/>
<path d="M4.66724 7.99913L7.11168 10.4436L12.0006 5.55469" stroke="white" stroke-linecap="round" stroke-linejoin="round"/>
</g>
<defs>
<clipPath id="clip0_69768_26968">
<rect width="16" height="16" fill="white"/>
</clipPath>
</defs>
</svg>
