<svg width="20" height="20" viewBox="0 0 20 20" fill="none" xmlns="http://www.w3.org/2000/svg">
<path d="M16.6668 11.2503V2.50033C16.6668 2.04009 16.2937 1.66699 15.8335 1.66699H4.16683C3.70659 1.66699 3.3335 2.04009 3.3335 2.50033V17.5003C3.3335 17.9606 3.70659 18.3337 4.16683 18.3337H8.75016" stroke="#3E495E" stroke-width="1.25" stroke-linecap="round" stroke-linejoin="round"/>
<path d="M7.0835 5H12.9168" stroke="#3E495E" stroke-width="1.25" stroke-linecap="round" stroke-linejoin="round"/>
<path d="M7.0835 8.33301H12.9168" stroke="#3E495E" stroke-width="1.25" stroke-linecap="round" stroke-linejoin="round"/>
<path d="M7.0835 11.667H9.5835" stroke="#3E495E" stroke-width="1.25" stroke-linecap="round" stroke-linejoin="round"/>
<path d="M16.25 18.333L14.8065 16.8895M14.8065 16.8895C15.1835 16.5125 15.4167 15.9916 15.4167 15.4163C15.4167 14.2658 14.4839 13.333 13.3333 13.333C12.1827 13.333 11.25 14.2658 11.25 15.4163C11.25 16.5669 12.1827 17.4997 13.3333 17.4997C13.9086 17.4997 14.4295 17.2665 14.8065 16.8895Z" stroke="#3E495E" stroke-width="1.25" stroke-linecap="round" stroke-linejoin="round"/>
</svg>
