<svg viewBox="0 0 17.9167 17.2703" fill="none" xmlns="http://www.w3.org/2000/svg">
<path id="Vector" d="M6.57658 16.6451C5.18029 16.2294 3.93742 15.4576 2.95328 14.435C3.32042 13.9999 3.54167 13.4377 3.54167 12.8238C3.54167 11.4431 2.42238 10.3238 1.04167 10.3238C0.958146 10.3238 0.875579 10.3279 0.794163 10.3359C0.683246 9.79364 0.625 9.23222 0.625 8.65714C0.625 7.78606 0.758654 6.94618 1.00658 6.15689C1.01825 6.15706 1.02995 6.15714 1.04167 6.15714C2.42238 6.15714 3.54167 5.03785 3.54167 3.65714C3.54167 3.26077 3.44942 2.88597 3.28525 2.55298C4.24896 1.65689 5.42521 0.986274 6.73004 0.625074C7.1435 1.43551 7.98612 1.99049 8.95833 1.99049C9.93054 1.99049 10.7732 1.43551 11.1866 0.625074C12.4915 0.986274 13.6677 1.65689 14.6314 2.55298C14.4672 2.88597 14.375 3.26077 14.375 3.65714C14.375 5.03785 15.4943 6.15714 16.875 6.15714C16.8867 6.15714 16.8984 6.15706 16.9101 6.15689C17.158 6.94618 17.2917 7.78606 17.2917 8.65714C17.2917 9.23222 17.2334 9.79364 17.1225 10.3359C17.0411 10.3279 16.9585 10.3238 16.875 10.3238C15.4943 10.3238 14.375 11.4431 14.375 12.8238C14.375 13.4377 14.5963 13.9999 14.9634 14.435C13.9793 15.4576 12.7364 16.2294 11.3401 16.6451C11.0178 15.6371 10.0733 14.9071 8.95833 14.9071C7.84333 14.9071 6.89883 15.6371 6.57658 16.6451Z" stroke="var(--stroke-0, #3E495E)" stroke-width="1.25" stroke-linejoin="round"/>
</svg>
