<svg width="80" height="80" viewBox="0 0 80 80" fill="none" xmlns="http://www.w3.org/2000/svg">
<g opacity="0.3">
<path d="M2.39844 40.8008V51.9117C3.57438 51.2211 5.16875 50.3058 7.08594 49.2586V40.8008H2.39844ZM69.8984 40.8008V49.2703C71.4744 50.1279 73.0371 51.0098 74.5859 51.9156V40.8008H69.8984ZM38.4156 40.8445C32.2198 40.8492 22.8853 44.482 15.2812 48.1845C8.31984 51.5742 3.28953 54.6486 2.39844 55.197V72.9883H19.6464C19.9402 67.9508 21.762 62.1898 24.7327 57.4039C27.9822 52.1688 32.7147 47.9895 38.4917 47.9883C44.2706 47.987 49.007 52.1658 52.2605 57.4014C55.2352 62.1881 57.0605 67.9498 57.3547 72.9883H74.5859V55.1984C73.6922 54.65 68.638 51.5706 61.6453 48.1781C54.0086 44.473 44.6355 40.8403 38.4156 40.8447V40.8445Z" fill="#6A7587"/>
</g>
</svg>
