<svg width="16" height="16" viewBox="0 0 16 16" fill="none" xmlns="http://www.w3.org/2000/svg">
<g clip-path="url(#clip0_103124_84032)">
<path d="M8.00078 15.2008C9.98899 15.2008 11.789 14.3949 13.0919 13.0919C14.3949 11.789 15.2008 9.98899 15.2008 8.00078C15.2008 6.01257 14.3949 4.21257 13.0919 2.90961C11.789 1.60667 9.98899 0.800781 8.00078 0.800781C6.01257 0.800781 4.21257 1.60667 2.90961 2.90961C1.60667 4.21257 0.800781 6.01257 0.800781 8.00078C0.800781 9.98899 1.60667 11.789 2.90961 13.0919C4.21257 14.3949 6.01257 15.2008 8.00078 15.2008Z" fill="currentColor"/>
<path d="M4.66797 7.99913L7.11241 10.4436L12.0013 5.55469" stroke="white" stroke-linecap="round" stroke-linejoin="round"/>
</g>
<defs>
<clipPath id="clip0_103124_84032">
<rect width="16" height="16" fill="white"/>
</clipPath>
</defs>
</svg>
