<svg width="20" height="20" viewBox="0 0 20 20" fill="none" xmlns="http://www.w3.org/2000/svg">
<path d="M16.6654 7.97359V2.37835C16.6654 1.98386 16.3456 1.66406 15.9511 1.66406H4.16536C3.70513 1.66406 3.33203 2.03716 3.33203 2.4974V17.4974C3.33203 17.9576 3.70513 18.3307 4.16536 18.3307H8.45108" stroke="currentColor" stroke-width="1.5" stroke-linecap="round" stroke-linejoin="round"/>
<path d="M10.4154 9.28125H5.83203" stroke="currentColor" stroke-width="1.5" stroke-linecap="round"/>
<path d="M14.1654 5.71875H5.83203" stroke="currentColor" stroke-width="1.5" stroke-linecap="round"/>
<path d="M15 19C17.2091 19 19 17.2091 19 15C19 12.7909 17.2091 11 15 11C12.7909 11 11 12.7909 11 15C11 17.2091 12.7909 19 15 19Z" stroke="currentColor" stroke-width="1.5"/>
<path d="M14.2852 13.5703V15.7132H16.428" stroke="currentColor" stroke-width="1.5" stroke-linecap="round" stroke-linejoin="round"/>
</svg>
