<svg width="12" height="12" viewBox="0 0 12 12" fill="none" xmlns="http://www.w3.org/2000/svg">
<path d="M12 0H0V12H12V0Z" fill="white" fill-opacity="0.01"/>
<path d="M6.00049 9C8.76191 9 11.0005 6 11.0005 6C11.0005 6 8.76191 3 6.00049 3C3.23906 3 1.00049 6 1.00049 6C1.00049 6 3.23906 9 6.00049 9Z" stroke="#707280" stroke-width="0.75" stroke-linejoin="round"/>
<path d="M6.00049 7.25195C6.69084 7.25195 7.25049 6.6923 7.25049 6.00195C7.25049 5.3116 6.69084 4.75195 6.00049 4.75195C5.31014 4.75195 4.75049 5.3116 4.75049 6.00195C4.75049 6.6923 5.31014 7.25195 6.00049 7.25195Z" stroke="#707280" stroke-width="0.75" stroke-linejoin="round"/>
</svg>
