<svg width="18" height="18" viewBox="0 0 18 18" fill="none" xmlns="http://www.w3.org/2000/svg">
<g clip-path="url(#clip0_123924_45060)">
<path d="M16.4511 10.125V17.1056C16.4511 17.5995 16.0416 18 15.5365 18H13.4215V14.4754H12.0524V18H9.8249L9.8249 14.4754H8.45353L8.45353 18H6.22491V14.4754H4.85579V18H2.74079C2.62201 18.0013 2.50413 17.9792 2.39388 17.935C2.28363 17.8908 2.18317 17.8253 2.09824 17.7422C2.0133 17.6592 1.94556 17.5602 1.89888 17.451C1.8522 17.3417 1.82749 17.2244 1.82617 17.1056V10.125H16.4511ZM10.0533 2.16004C10.1729 2.15974 10.2915 2.18302 10.4022 2.22854C10.5128 2.27406 10.6135 2.34094 10.6983 2.42534C10.7831 2.50975 10.8505 2.61004 10.8965 2.72049C10.9426 2.83093 10.9665 2.94937 10.9668 3.06903V6.61727H15.5376C15.6573 6.61697 15.7758 6.64025 15.8865 6.68577C15.9972 6.73129 16.0978 6.79816 16.1826 6.88257C16.2675 6.96698 16.3348 7.06727 16.3809 7.17771C16.427 7.28816 16.4508 7.4066 16.4511 7.52626V9.00001H1.82617V7.52626C1.82647 7.4066 1.85033 7.28816 1.8964 7.17771C1.94246 7.06727 2.00983 6.96698 2.09466 6.88257C2.17949 6.79816 2.28011 6.73129 2.39078 6.68577C2.50145 6.64025 2.62 6.61697 2.73967 6.61727H7.31053V3.06903C7.31082 2.94937 7.33469 2.83093 7.38075 2.72049C7.42682 2.61004 7.49419 2.50975 7.57902 2.42534C7.66384 2.34094 7.76446 2.27406 7.87513 2.22854C7.98581 2.18302 8.10436 2.15974 8.22403 2.16004H10.0533Z" fill="#5260D1"/>
</g>
<defs>
<clipPath id="clip0_123924_45060">
<rect width="18" height="18" fill="white"/>
</clipPath>
</defs>
</svg>
