<svg width="240" height="40" viewBox="0 0 240 40" fill="none" xmlns="http://www.w3.org/2000/svg">
    <path fill-rule="evenodd" clip-rule="evenodd"
        d="M137.004 28.723H142.219L137.081 21.7306L142.013 15.9676H136.901L132.816 21.1415H132.739V9.35938H128.5V28.723H132.739V22.6014H132.816L137.004 28.723ZM63.0358 19.6054C63.0358 21.1934 62.7404 22.5637 62.1495 23.7163C61.5586 24.8689 60.7793 25.8166 59.8116 26.5594C58.8438 27.3022 57.752 27.8486 56.5359 28.1986C55.3198 28.5487 54.0866 28.7237 52.8363 28.7237H46.0537V10.5895H52.6308C53.9153 10.5895 55.1828 10.7389 56.4331 11.0377C57.6834 11.3366 58.7967 11.8318 59.773 12.5233C60.7493 13.2149 61.5372 14.1412 62.1366 15.3024C62.7361 16.4635 63.0358 17.8978 63.0358 19.6054ZM58.4631 19.6045C58.4631 18.58 58.2961 17.7305 57.9622 17.056C57.6282 16.3815 57.1828 15.8436 56.6262 15.4423C56.0695 15.0411 55.4358 14.7551 54.725 14.5843C54.0142 14.4135 53.282 14.3282 52.5284 14.3282H50.3446V24.9321H52.4256C53.2135 24.9321 53.9714 24.8424 54.6993 24.6631C55.4273 24.4838 56.0695 24.1893 56.6262 23.7795C57.1828 23.3697 57.6282 22.8232 57.9622 22.1402C58.2961 21.4572 58.4631 20.612 58.4631 19.6045ZM73.889 19.1688C74.3087 19.6469 74.5185 20.2189 74.5185 20.8849H69.0976C69.1147 20.5604 69.2003 20.2488 69.3545 19.95C69.5086 19.6511 69.7142 19.3907 69.9711 19.1688C70.228 18.9468 70.5277 18.7718 70.8703 18.6437C71.2128 18.5156 71.5896 18.4516 72.0007 18.4516C72.84 18.4516 73.4694 18.6906 73.889 19.1688ZM78.3996 22.4996V23.0119C78.3996 23.1827 78.391 23.3449 78.3739 23.4986H69.0992C69.1335 23.8571 69.2405 24.1816 69.4204 24.4719C69.6002 24.7621 69.8314 25.014 70.114 25.2275C70.3967 25.4409 70.7135 25.6074 71.0646 25.7269C71.4158 25.8464 71.7797 25.9062 72.1565 25.9062C72.8245 25.9062 73.3897 25.7824 73.8522 25.5348C74.3146 25.2872 74.6914 24.9671 74.9826 24.5743L77.9114 26.4185C77.312 27.2893 76.5198 27.9595 75.535 28.4291C74.5501 28.8987 73.4069 29.1335 72.1051 29.1335C71.146 29.1335 70.2382 28.9841 69.3818 28.6852C68.5254 28.3864 67.7761 27.951 67.1338 27.379C66.4915 26.8069 65.9863 26.1026 65.618 25.2659C65.2498 24.4292 65.0656 23.4729 65.0656 22.3972C65.0656 21.3556 65.2455 20.4122 65.6052 19.5669C65.9649 18.7217 66.453 18.0045 67.0696 17.4154C67.6862 16.8263 68.4141 16.3695 69.2534 16.0451C70.0926 15.7207 71.0004 15.5584 71.9767 15.5584C72.9187 15.5584 73.7837 15.7164 74.5715 16.0323C75.3594 16.3482 76.036 16.8049 76.6012 17.4026C77.1664 18.0002 77.6074 18.7259 77.9243 19.5797C78.2411 20.4335 78.3996 21.4068 78.3996 22.4996ZM94.8425 25.9447C95.2365 25.2702 95.4334 24.4378 95.4334 23.4474C95.4334 22.8497 95.335 22.3119 95.138 21.8337C94.941 21.3556 94.6755 20.9373 94.3415 20.5787C94.0076 20.2201 93.6136 19.9256 93.1597 19.695C92.7058 19.4645 92.222 19.3066 91.7082 19.2212V19.17C92.5988 18.8797 93.3182 18.4058 93.8662 17.7484C94.4143 17.091 94.6884 16.2586 94.6884 15.2511C94.6884 14.329 94.5 13.5692 94.1232 12.9715C93.7464 12.3739 93.2582 11.9001 92.6587 11.55C92.0593 11.2 91.3913 10.9524 90.6548 10.8072C89.9183 10.6621 89.199 10.5895 88.4967 10.5895H81.2517V28.7237H88.4967C89.3702 28.7237 90.2223 28.6341 91.053 28.4548C91.8837 28.2755 92.6245 27.9809 93.2753 27.5711C93.9262 27.1613 94.4486 26.6192 94.8425 25.9447ZM90.4477 15.8399C90.4477 15.2252 90.2122 14.7769 89.7412 14.4952C89.2702 14.2134 88.5723 14.0726 87.6474 14.0726H85.4893V17.8121H87.8529C88.675 17.8121 89.313 17.6456 89.7669 17.3126C90.2208 16.9797 90.4477 16.4888 90.4477 15.8399ZM90.1908 21.474C90.756 21.7642 91.0386 22.285 91.0386 23.0364C91.0386 23.4803 90.9444 23.8432 90.756 24.1249C90.5676 24.4067 90.3236 24.6244 90.0238 24.7781C89.7241 24.9318 89.3901 25.0385 89.0219 25.0982C88.6536 25.158 88.2982 25.1879 87.9557 25.1879H85.4893V21.0385H87.93C88.872 21.0385 89.6256 21.1837 90.1908 21.474ZM105.658 23.1648H105.119C104.656 23.1648 104.189 23.1861 103.718 23.2288C103.247 23.2715 102.828 23.3526 102.46 23.4721C102.091 23.5917 101.787 23.7667 101.548 23.9972C101.308 24.2277 101.188 24.5308 101.188 24.9065C101.188 25.1455 101.244 25.3504 101.355 25.5212C101.466 25.692 101.607 25.8286 101.779 25.931C101.95 26.0335 102.147 26.106 102.37 26.1487C102.592 26.1914 102.806 26.2128 103.012 26.2128C103.868 26.2128 104.523 25.978 104.977 25.5084C105.431 25.0388 105.658 24.4028 105.658 23.6002V23.1648ZM100.558 16.0963C99.5562 16.4549 98.6785 16.9928 97.9248 17.71L100.057 19.9895C100.451 19.6309 100.926 19.3236 101.483 19.0675C102.04 18.8113 102.618 18.6833 103.217 18.6833C103.868 18.6833 104.416 18.8327 104.862 19.1315C105.307 19.4303 105.53 19.8956 105.53 20.5274V20.7323C104.605 20.7323 103.654 20.7835 102.678 20.886C101.701 20.9885 100.815 21.1934 100.019 21.5007C99.2223 21.8081 98.5714 22.2435 98.0661 22.807C97.5609 23.3705 97.3082 24.1133 97.3082 25.0354C97.3082 25.7867 97.4538 26.4185 97.745 26.9307C98.0362 27.443 98.4087 27.8528 98.8626 28.1602C99.3165 28.4675 99.8174 28.6895 100.366 28.8261C100.914 28.9627 101.445 29.031 101.958 29.031C102.729 29.031 103.444 28.8859 104.104 28.5956C104.763 28.3053 105.256 27.8955 105.581 27.3662H105.658V28.7237H109.512V22.2947C109.512 21.1336 109.405 20.1304 109.191 19.2852C108.976 18.4399 108.638 17.7398 108.176 17.1849C107.713 16.6299 107.11 16.2201 106.365 15.9554C105.619 15.6908 104.707 15.5584 103.628 15.5584C102.584 15.5584 101.56 15.7377 100.558 16.0963ZM121.047 28.7231V21.7562C121.047 21.3977 121.017 21.0561 120.958 20.7317C120.898 20.4073 120.799 20.1213 120.662 19.8737C120.525 19.6261 120.332 19.4297 120.084 19.2846C119.836 19.1394 119.523 19.0668 119.146 19.0668C118.769 19.0668 118.44 19.1394 118.157 19.2846C117.875 19.4297 117.639 19.6303 117.451 19.8865C117.262 20.1426 117.121 20.4372 117.027 20.7701C116.933 21.1031 116.885 21.4489 116.885 21.8075V28.7231H112.646V15.9676H116.731V17.735H116.783C116.937 17.4617 117.138 17.1928 117.386 16.9281C117.635 16.6635 117.926 16.4372 118.26 16.2494C118.594 16.0616 118.958 15.9079 119.352 15.7883C119.746 15.6688 120.165 15.6091 120.611 15.6091C121.467 15.6091 122.195 15.7627 122.794 16.0701C123.394 16.3775 123.878 16.7745 124.246 17.2611C124.614 17.7478 124.88 18.307 125.042 18.9388C125.205 19.5706 125.287 20.2024 125.287 20.8342V28.7231H121.047Z"
        fill="#19233C" />
    <path opacity="0.8" fill-rule="evenodd" clip-rule="evenodd"
        d="M32.2 24.6611C32.2 29.3148 28.6045 33.0873 24.1692 33.0873H9V27.4699H24.1692C25.6477 27.4699 26.8462 26.2124 26.8462 24.6611C26.8462 23.1099 25.6477 21.8524 24.1692 21.8524H18.8154V16.2349H24.1692C25.6477 16.2349 26.8462 14.9774 26.8462 13.4262C26.8462 11.875 25.6477 10.6175 24.1692 10.6175H9V5H24.1692C28.6045 5 32.2 8.77254 32.2 13.4262C32.2 15.5843 31.4268 17.5529 30.1551 19.0437C31.4268 20.5344 32.2 22.503 32.2 24.6611Z"
        fill="#FE815F" />
    <path opacity="0.12" fill-rule="evenodd" clip-rule="evenodd"
        d="M9 10.6175H22.0288C19.2613 7.20641 14.8551 5 9.89231 5C9.59276 5 9.29525 5.00804 9 5.02389V10.6175ZM24.7643 21.8518H19.7134V16.2344H24.7643C24.9634 17.1419 25.0678 18.0812 25.0678 19.0431C25.0678 20.005 24.9634 20.9443 24.7643 21.8518ZM9 27.4688H22.0288C19.2613 30.8798 14.8551 33.0862 9.89231 33.0862C9.59276 33.0862 9.29525 33.0782 9 33.0623V27.4688Z"
        fill="black" />
    <path
        d="M9 5C16.3921 5 22.3846 11.2876 22.3846 19.0437C22.3846 26.7998 16.3921 33.0873 9 33.0873V27.4699C13.4353 27.4699 17.0308 23.6973 17.0308 19.0437C17.0308 14.39 13.4353 10.6175 9 10.6175V5Z"
        fill="#FF6238" />
    <path
        d="M160.142 11.8266V28.3203H157.321V11.8266H160.142ZM165.319 11.8266V14.0922H152.189V11.8266H165.319ZM171.538 28.5469C170.632 28.5469 169.812 28.3996 169.08 28.1051C168.355 27.803 167.735 27.3839 167.222 26.8477C166.716 26.3115 166.327 25.6809 166.055 24.9559C165.783 24.2309 165.647 23.4492 165.647 22.6109V22.1578C165.647 21.1987 165.787 20.3302 166.066 19.5523C166.346 18.7745 166.735 18.1099 167.233 17.5586C167.732 16.9997 168.321 16.573 169 16.2785C169.68 15.984 170.416 15.8367 171.209 15.8367C172.085 15.8367 172.852 15.984 173.509 16.2785C174.166 16.573 174.71 16.9884 175.14 17.5246C175.578 18.0533 175.903 18.6839 176.114 19.4164C176.333 20.149 176.443 20.957 176.443 21.8406V23.0074H166.973V21.0477H173.747V20.8324C173.732 20.3415 173.634 19.8809 173.452 19.4504C173.279 19.0199 173.011 18.6725 172.648 18.4082C172.286 18.1439 171.802 18.0117 171.198 18.0117C170.745 18.0117 170.341 18.1099 169.986 18.3063C169.639 18.4951 169.348 18.7707 169.114 19.1332C168.88 19.4957 168.698 19.9337 168.57 20.4473C168.449 20.9533 168.389 21.5234 168.389 22.1578V22.6109C168.389 23.1471 168.46 23.6456 168.604 24.1063C168.755 24.5594 168.974 24.9559 169.261 25.2957C169.548 25.6355 169.895 25.9036 170.303 26.1C170.711 26.2888 171.175 26.3832 171.696 26.3832C172.354 26.3832 172.939 26.251 173.452 25.9867C173.966 25.7224 174.411 25.3486 174.789 24.8652L176.228 26.2586C175.963 26.6438 175.62 27.0138 175.197 27.3688C174.774 27.7161 174.257 27.9993 173.645 28.2184C173.041 28.4374 172.338 28.5469 171.538 28.5469ZM185.449 25.0012C185.449 24.7293 185.381 24.4839 185.245 24.2648C185.109 24.0383 184.848 23.8344 184.463 23.6531C184.086 23.4719 183.527 23.3057 182.787 23.1547C182.137 23.0112 181.541 22.8413 180.997 22.6449C180.461 22.441 180 22.1956 179.615 21.9086C179.23 21.6216 178.931 21.2818 178.72 20.8891C178.508 20.4964 178.403 20.0432 178.403 19.5297C178.403 19.0313 178.512 18.5592 178.731 18.1137C178.95 17.6681 179.264 17.2754 179.671 16.9355C180.079 16.5957 180.574 16.3276 181.155 16.1313C181.745 15.9349 182.402 15.8367 183.127 15.8367C184.154 15.8367 185.033 16.0104 185.766 16.3578C186.506 16.6977 187.073 17.1621 187.465 17.7512C187.858 18.3327 188.054 18.9897 188.054 19.7223H185.324C185.324 19.3975 185.241 19.0954 185.075 18.816C184.916 18.529 184.675 18.2987 184.35 18.125C184.025 17.9438 183.617 17.8531 183.127 17.8531C182.658 17.8531 182.269 17.9286 181.96 18.0797C181.658 18.2232 181.431 18.412 181.28 18.6461C181.137 18.8802 181.065 19.137 181.065 19.4164C181.065 19.6203 181.103 19.8053 181.178 19.9715C181.261 20.1301 181.397 20.2773 181.586 20.4133C181.775 20.5417 182.032 20.6625 182.356 20.7758C182.689 20.8891 183.104 20.9986 183.602 21.1043C184.539 21.3007 185.343 21.5536 186.015 21.8633C186.695 22.1654 187.216 22.5581 187.579 23.0414C187.941 23.5172 188.122 24.1214 188.122 24.8539C188.122 25.3977 188.005 25.8961 187.771 26.3492C187.545 26.7948 187.212 27.1837 186.774 27.516C186.336 27.8408 185.811 28.0938 185.2 28.275C184.595 28.4562 183.916 28.5469 183.161 28.5469C182.05 28.5469 181.11 28.3505 180.34 27.9578C179.57 27.5576 178.984 27.0478 178.584 26.4285C178.191 25.8017 177.995 25.1522 177.995 24.4801H180.634C180.665 24.9861 180.804 25.3901 181.054 25.6922C181.31 25.9867 181.627 26.202 182.005 26.3379C182.39 26.4663 182.787 26.5305 183.195 26.5305C183.685 26.5305 184.097 26.4663 184.429 26.3379C184.762 26.202 185.015 26.0207 185.188 25.7941C185.362 25.56 185.449 25.2957 185.449 25.0012ZM196.131 16.0633V18.057H189.221V16.0633H196.131ZM191.215 13.0613H193.945V24.9332C193.945 25.3108 193.998 25.6016 194.104 25.8055C194.217 26.0018 194.372 26.134 194.568 26.202C194.764 26.2699 194.995 26.3039 195.259 26.3039C195.448 26.3039 195.629 26.2926 195.803 26.2699C195.976 26.2473 196.116 26.2246 196.222 26.202L196.233 28.2863C196.007 28.3543 195.742 28.4147 195.44 28.4676C195.146 28.5204 194.806 28.5469 194.421 28.5469C193.794 28.5469 193.239 28.4374 192.755 28.2184C192.272 27.9918 191.895 27.6255 191.623 27.1195C191.351 26.6135 191.215 25.9414 191.215 25.1031V13.0613ZM200.946 18.6801V28.3203H198.216V16.0633H200.787L200.946 18.6801ZM200.459 21.7387L199.575 21.7273C199.583 20.8589 199.703 20.0621 199.937 19.3371C200.179 18.6121 200.511 17.9891 200.934 17.468C201.365 16.9469 201.878 16.5466 202.475 16.2672C203.072 15.9802 203.736 15.8367 204.469 15.8367C205.058 15.8367 205.59 15.9198 206.066 16.0859C206.549 16.2445 206.961 16.5051 207.301 16.8676C207.648 17.2301 207.912 17.7021 208.094 18.2836C208.275 18.8576 208.366 19.5637 208.366 20.402V28.3203H205.624V20.3906C205.624 19.8016 205.537 19.3371 205.364 18.9973C205.198 18.6499 204.952 18.4044 204.627 18.2609C204.31 18.1099 203.914 18.0344 203.438 18.0344C202.97 18.0344 202.551 18.1326 202.18 18.3289C201.81 18.5253 201.497 18.7934 201.24 19.1332C200.991 19.473 200.798 19.8658 200.662 20.3113C200.527 20.7569 200.459 21.2327 200.459 21.7387ZM216.556 28.5469C215.65 28.5469 214.83 28.3996 214.098 28.1051C213.373 27.803 212.753 27.3839 212.24 26.8477C211.734 26.3115 211.345 25.6809 211.073 24.9559C210.801 24.2309 210.665 23.4492 210.665 22.6109V22.1578C210.665 21.1987 210.805 20.3302 211.084 19.5523C211.364 18.7745 211.753 18.1099 212.251 17.5586C212.75 16.9997 213.339 16.573 214.018 16.2785C214.698 15.984 215.434 15.8367 216.227 15.8367C217.103 15.8367 217.87 15.984 218.527 16.2785C219.184 16.573 219.728 16.9884 220.158 17.5246C220.596 18.0533 220.921 18.6839 221.132 19.4164C221.351 20.149 221.461 20.957 221.461 21.8406V23.0074H211.991V21.0477H218.765V20.8324C218.75 20.3415 218.652 19.8809 218.47 19.4504C218.297 19.0199 218.029 18.6725 217.666 18.4082C217.304 18.1439 216.82 18.0117 216.216 18.0117C215.763 18.0117 215.359 18.1099 215.004 18.3063C214.657 18.4951 214.366 18.7707 214.132 19.1332C213.898 19.4957 213.716 19.9337 213.588 20.4473C213.467 20.9533 213.407 21.5234 213.407 22.1578V22.6109C213.407 23.1471 213.478 23.6456 213.622 24.1063C213.773 24.5594 213.992 24.9559 214.279 25.2957C214.566 25.6355 214.913 25.9036 215.321 26.1C215.729 26.2888 216.193 26.3832 216.714 26.3832C217.371 26.3832 217.957 26.251 218.47 25.9867C218.984 25.7224 219.429 25.3486 219.807 24.8652L221.246 26.2586C220.981 26.6438 220.638 27.0138 220.215 27.3688C219.792 27.7161 219.275 27.9993 218.663 28.2184C218.059 28.4374 217.356 28.5469 216.556 28.5469ZM229.209 16.0633V18.057H222.299V16.0633H229.209ZM224.293 13.0613H227.023V24.9332C227.023 25.3108 227.076 25.6016 227.182 25.8055C227.295 26.0018 227.45 26.134 227.646 26.202C227.842 26.2699 228.073 26.3039 228.337 26.3039C228.526 26.3039 228.707 26.2926 228.881 26.2699C229.055 26.2473 229.194 26.2246 229.3 26.202L229.311 28.2863C229.085 28.3543 228.82 28.4147 228.518 28.4676C228.224 28.5204 227.884 28.5469 227.499 28.5469C226.872 28.5469 226.317 28.4374 225.834 28.2184C225.35 27.9918 224.973 27.6255 224.701 27.1195C224.429 26.6135 224.293 25.9414 224.293 25.1031V13.0613Z"
        fill="#192945" />
</svg>
    