<svg width="54" height="53" viewBox="0 0 54 53" fill="none" xmlns="http://www.w3.org/2000/svg">
    <path
        d="M28 53C42.3594 53 54 41.3594 54 27C54 12.6406 42.3594 1 28 1C13.6406 1 2 12.6406 2 27C2 41.3594 13.6406 53 28 53Z"
        fill="#737791" />
    <path
        d="M51.5 26C51.5 40.0833 40.0833 51.5 26 51.5C11.9167 51.5 0.5 40.0833 0.5 26C0.5 11.9167 11.9167 0.5 26 0.5C40.0833 0.5 51.5 11.9167 51.5 26Z"
        fill="#8D91AB" stroke="url(#paint0_linear_67025_63762)" />
    <path
        d="M16.793 19.7812H19.2344V29.2832C19.2344 30.3639 19 31.2689 18.5312 31.998C18.0625 32.7272 17.4245 33.2773 16.6172 33.6484C15.8164 34.013 14.9212 34.1953 13.9316 34.1953C12.9095 34.1953 11.998 34.013 11.1973 33.6484C10.3965 33.2773 9.76497 32.7272 9.30273 31.998C8.84701 31.2689 8.61914 30.3639 8.61914 29.2832V19.7812H11.0605V29.2832C11.0605 29.9668 11.1777 30.5299 11.4121 30.9727C11.6465 31.4089 11.9785 31.7311 12.4082 31.9395C12.8379 32.1478 13.3457 32.252 13.9316 32.252C14.5176 32.252 15.0221 32.1478 15.4453 31.9395C15.875 31.7311 16.207 31.4089 16.4414 30.9727C16.6758 30.5299 16.793 29.9668 16.793 29.2832V19.7812ZM29.3809 30.3379C29.3809 30.0449 29.3353 29.7845 29.2441 29.5566C29.1595 29.3288 29.0065 29.1204 28.7852 28.9316C28.5638 28.7428 28.2513 28.5605 27.8477 28.3848C27.4505 28.2025 26.9427 28.0169 26.3242 27.8281C25.6471 27.6198 25.0221 27.3887 24.4492 27.1348C23.8828 26.8743 23.388 26.5749 22.9648 26.2363C22.5417 25.8913 22.2129 25.4974 21.9785 25.0547C21.7441 24.6055 21.627 24.0879 21.627 23.502C21.627 22.9225 21.7474 22.3952 21.9883 21.9199C22.2357 21.4447 22.584 21.0345 23.0332 20.6895C23.4889 20.3379 24.026 20.0677 24.6445 19.8789C25.263 19.6836 25.9466 19.5859 26.6953 19.5859C27.75 19.5859 28.6582 19.7812 29.4199 20.1719C30.1882 20.5625 30.7773 21.0866 31.1875 21.7441C31.6042 22.4017 31.8125 23.1276 31.8125 23.9219H29.3809C29.3809 23.4531 29.2799 23.0397 29.0781 22.6816C28.8828 22.3171 28.5833 22.0306 28.1797 21.8223C27.7826 21.6139 27.278 21.5098 26.666 21.5098C26.0866 21.5098 25.6048 21.5977 25.2207 21.7734C24.8366 21.9492 24.5501 22.1868 24.3613 22.4863C24.1725 22.7858 24.0781 23.1243 24.0781 23.502C24.0781 23.7689 24.14 24.013 24.2637 24.2344C24.3874 24.4492 24.5762 24.651 24.8301 24.8398C25.084 25.0221 25.403 25.1947 25.7871 25.3574C26.1712 25.5202 26.6237 25.6764 27.1445 25.8262C27.9323 26.0605 28.6191 26.321 29.2051 26.6074C29.791 26.8874 30.2793 27.2064 30.6699 27.5645C31.0605 27.9225 31.3535 28.3294 31.5488 28.7852C31.7441 29.2344 31.8418 29.7454 31.8418 30.3184C31.8418 30.9173 31.7214 31.4577 31.4805 31.9395C31.2396 32.4147 30.8945 32.8216 30.4453 33.1602C30.0026 33.4922 29.4688 33.7493 28.8438 33.9316C28.2253 34.1074 27.5352 34.1953 26.7734 34.1953C26.0898 34.1953 25.416 34.1042 24.752 33.9219C24.0944 33.7396 23.4954 33.4629 22.9551 33.0918C22.4147 32.7142 21.985 32.2454 21.666 31.6855C21.347 31.1191 21.1875 30.4583 21.1875 29.7031H23.6387C23.6387 30.1654 23.7168 30.5592 23.873 30.8848C24.0358 31.2103 24.2604 31.4772 24.5469 31.6855C24.8333 31.8874 25.1654 32.0371 25.543 32.1348C25.9271 32.2324 26.3372 32.2812 26.7734 32.2812C27.3464 32.2812 27.8249 32.1999 28.209 32.0371C28.5996 31.8743 28.8926 31.6465 29.0879 31.3535C29.2832 31.0605 29.3809 30.722 29.3809 30.3379ZM38.1406 34H35.1035L35.123 32.0566H38.1406C39.0195 32.0566 39.7552 31.8646 40.3477 31.4805C40.9466 31.0964 41.3958 30.5462 41.6953 29.8301C42.0013 29.1139 42.1543 28.2611 42.1543 27.2715V26.5C42.1543 25.7318 42.0664 25.0514 41.8906 24.459C41.7214 23.8665 41.4674 23.3685 41.1289 22.9648C40.7969 22.5612 40.3867 22.2552 39.8984 22.0469C39.4167 21.8385 38.86 21.7344 38.2285 21.7344H35.0449V19.7812H38.2285C39.1725 19.7812 40.0352 19.9408 40.8164 20.2598C41.5977 20.5723 42.2715 21.0247 42.8379 21.6172C43.4108 22.2096 43.8503 22.9193 44.1562 23.7461C44.4622 24.5729 44.6152 25.4974 44.6152 26.5195V27.2715C44.6152 28.2936 44.4622 29.2181 44.1562 30.0449C43.8503 30.8717 43.4108 31.5814 42.8379 32.1738C42.265 32.7598 41.5814 33.2122 40.7871 33.5312C39.9993 33.8438 39.1172 34 38.1406 34ZM36.4609 19.7812V34H34.0098V19.7812H36.4609Z"
        fill="white" />
    <defs>
        <linearGradient id="paint0_linear_67025_63762" x1="26" y1="0" x2="26" y2="52"
            gradientUnits="userSpaceOnUse">
            <stop stop-color="#E9E9E9" />
            <stop offset="1" stop-color="#D9D7D6" stop-opacity="0" />
        </linearGradient>
    </defs>
</svg>
    