<svg width="18" height="18" viewBox="0 0 18 18" fill="none" xmlns="http://www.w3.org/2000/svg">
<path d="M10.8203 3C11.7862 3.26743 12.6567 3.7644 13.3701 4.42773C13.2487 4.67421 13.1807 4.95175 13.1807 5.24512C13.1807 6.26725 14.0092 7.09547 15.0312 7.0957C15.0399 7.0957 15.049 7.09583 15.0576 7.0957C15.2412 7.68009 15.3398 8.30232 15.3398 8.94727C15.3398 9.37301 15.297 9.78896 15.2148 10.1904C15.1546 10.1845 15.0931 10.1807 15.0312 10.1807C14.0092 10.1809 13.1807 11.0101 13.1807 12.0322C13.1807 12.4866 13.3446 12.9025 13.6162 13.2246C12.8876 13.9818 11.9674 14.5535 10.9336 14.8613C10.695 14.115 9.99543 13.5742 9.16992 13.5742C8.34458 13.5743 7.64587 14.1152 7.40723 14.8613C6.37341 14.5535 5.45229 13.9818 4.72363 13.2246C4.99541 12.9025 5.16013 12.4867 5.16016 12.0322C5.16016 11.01 4.33087 10.1807 3.30859 10.1807C3.24679 10.1807 3.18525 10.1845 3.125 10.1904C3.04289 9.78896 3.00001 9.37301 3 8.94727C3 8.30232 3.09964 7.68009 3.2832 7.0957C3.29165 7.09582 3.30011 7.0957 3.30859 7.0957C4.33087 7.0957 5.16016 6.26739 5.16016 5.24512C5.16015 4.95167 5.09126 4.67427 4.96973 4.42773C5.68325 3.76427 6.55441 3.26743 7.52051 3C7.82659 3.59997 8.45021 4.01064 9.16992 4.01074C9.88974 4.01074 10.5142 3.60005 10.8203 3ZM9.17676 6.78125C7.98435 6.78142 7.01775 7.74802 7.01758 8.94043C7.01758 10.133 7.98424 11.1004 9.17676 11.1006C10.3694 11.1006 11.3369 10.1331 11.3369 8.94043C11.3367 7.74792 10.3693 6.78125 9.17676 6.78125Z" fill="currentColor"/>
</svg>
