<svg width="16" height="17" viewBox="0 0 16 17" fill="none" xmlns="http://www.w3.org/2000/svg">
<path d="M10.6667 14.9667V7.52319H11.1715C11.4458 7.52319 11.6763 7.7539 11.6763 8.03318V12.7688C11.6763 13.9831 12.642 14.9667 13.8381 14.9667C15.0343 14.9667 16 13.9831 16 12.7688V3.6618C16 3.18823 15.8025 2.7511 15.4952 2.44753L13.7284 0.662547C13.4102 0.334693 12.8944 0.334693 12.5761 0.662547C12.2579 0.9904 12.2579 1.51254 12.5761 1.84039L13.7174 3.00609L12.8724 3.90466C12.5981 4.19608 12.5981 4.6575 12.8724 4.94893C13.0041 5.09464 13.1907 5.1675 13.3772 5.1675H14.332V12.781C14.332 13.0603 14.1125 13.291 13.8272 13.291C13.5528 13.291 13.3224 13.0603 13.3224 12.781V8.04533C13.3224 6.83105 12.3567 5.84749 11.1605 5.84749H10.6667V1.79182C10.6667 1.03897 10.0741 0.443978 9.32785 0.443978H2.33745C1.60219 0.443978 0.998628 1.05111 0.998628 1.79182V14.9667H0.834019C0.373114 14.9667 0 15.3431 0 15.8167C0 16.2902 0.373114 16.6667 0.834019 16.6667H10.8313C11.2922 16.6667 11.6653 16.2902 11.6653 15.8167C11.6653 15.3431 11.2922 14.9667 10.8313 14.9667H10.6667V14.9667ZM3.40192 2.11967H8.26337C8.66941 2.11967 8.99863 2.44753 8.99863 2.86038V6.44249C8.99863 6.85534 8.66941 7.18319 8.26337 7.18319H3.40192C2.99588 7.18319 2.66667 6.85534 2.66667 6.44249V2.86038C2.66667 2.44753 2.99588 2.11967 3.40192 2.11967V2.11967Z" fill="#707280"/>
</svg>
