<svg width="25" height="24" viewBox="0 0 25 24" fill="none" xmlns="http://www.w3.org/2000/svg">
<path d="M0 0H8.5H25L0 23.5V0Z" fill="none"/>
<g clip-path="url(#clip0_13914_7270)">
<path d="M8.20424 8.98329C7.91491 8.98282 7.62853 8.92528 7.36148 8.81396C7.09443 8.70264 6.85197 8.53972 6.64799 8.33454L6.35924 8.04579L6.88986 7.51516L7.17861 7.80391C7.43998 8.06647 7.79155 8.2196 8.16182 8.23214C8.53208 8.24468 8.89321 8.11569 9.17174 7.87141L9.18861 7.85641C9.20507 7.8423 9.22072 7.82727 9.23549 7.81141L10.9527 6.0942C11.0885 5.95901 11.1963 5.79831 11.2699 5.62133C11.3434 5.44436 11.3813 5.2546 11.3813 5.06295C11.3813 4.87131 11.3434 4.68155 11.2699 4.50457C11.1963 4.3276 11.0885 4.1669 10.9527 4.0317L10.9302 4.0092C10.795 3.87337 10.6343 3.76559 10.4573 3.69204C10.2803 3.61849 10.0906 3.58063 9.89894 3.58063C9.70729 3.58063 9.51754 3.61849 9.34056 3.69204C9.16359 3.76559 9.00289 3.87337 8.86769 4.0092L8.26207 4.61483C8.2462 4.6296 8.23118 4.64525 8.21707 4.6617L7.98269 4.9542L7.39769 4.48545L7.63957 4.19108C7.67116 4.15288 7.70497 4.11657 7.74082 4.08233L8.34644 3.4767C8.55133 3.27086 8.79486 3.10752 9.06306 2.99606C9.33125 2.8846 9.61882 2.82722 9.90926 2.82722C10.1997 2.82722 10.4873 2.8846 10.7555 2.99606C11.0236 3.10752 11.2672 3.27086 11.4721 3.4767L11.4946 3.4992C11.7004 3.70409 11.8638 3.94762 11.9752 4.21582C12.0867 4.48401 12.144 4.77158 12.144 5.06202C12.144 5.35245 12.0867 5.64002 11.9752 5.90822C11.8638 6.17641 11.7004 6.41994 11.4946 6.62483L9.77736 8.34204C9.74584 8.37435 9.71267 8.40501 9.67799 8.43391C9.27316 8.79347 8.75131 8.99341 8.20986 8.99641L8.20424 8.98329Z" fill="white"/>
<path d="M5.59413 11.6082C5.30383 11.6087 5.01631 11.5516 4.74822 11.4403C4.48013 11.3289 4.23678 11.1655 4.03226 10.9595L4.00976 10.937C3.80391 10.7321 3.64057 10.4886 3.52911 10.2204C3.41765 9.95216 3.36028 9.66459 3.36028 9.37416C3.36028 9.08373 3.41765 8.79615 3.52911 8.52796C3.64057 8.25977 3.80391 8.01623 4.00976 7.81135L5.19663 6.62447C5.22815 6.59216 5.26132 6.56149 5.29601 6.5326C5.71693 6.1597 6.26433 5.96156 6.82642 5.97863C7.3885 5.99571 7.92286 6.22671 8.32038 6.62447L8.60913 6.92072L8.0785 7.45135L7.78975 7.1626C7.52839 6.90004 7.17681 6.74691 6.80655 6.73437C6.43629 6.72183 6.07516 6.85082 5.79663 7.0951L5.77975 7.1101C5.7633 7.12421 5.74765 7.13923 5.73288 7.1551L4.54601 8.34197C4.41017 8.47717 4.30239 8.63787 4.22884 8.81484C4.15529 8.99181 4.11743 9.18157 4.11743 9.37322C4.11743 9.56487 4.15529 9.75463 4.22884 9.9316C4.30239 10.1086 4.41017 10.2693 4.54601 10.4045L4.56851 10.427C4.7037 10.5628 4.8644 10.6706 5.04138 10.7441C5.21835 10.8177 5.40811 10.8555 5.59976 10.8555C5.7914 10.8555 5.98116 10.8177 6.15813 10.7441C6.33511 10.6706 6.49581 10.5628 6.631 10.427C6.71523 10.3427 6.64604 10.4119 6.938 10.12L7.46487 10.6469C7.15225 10.9595 7.24528 10.8664 7.15225 10.9595C6.94817 11.165 6.70544 11.3282 6.43802 11.4395C6.1706 11.5509 5.8838 11.6082 5.59413 11.6082Z" fill="white"/>
</g>
<defs>
<clipPath id="clip0_13914_7270">
<rect width="12" height="12" fill="none" transform="translate(-1 7.48543) rotate(-45)"/>
</clipPath>
</defs>
</svg>
