<svg width="20" height="20" viewBox="0 0 20 20" fill="none" xmlns="http://www.w3.org/2000/svg">
<path d="M1.03125 18.0378C1.03118 16.6566 1.42966 15.3047 2.17891 14.1444C2.92815 12.9841 3.9963 12.0646 5.25518 11.4964C6.51406 10.9281 7.91017 10.7353 9.27601 10.9408C10.6418 11.1464 11.9192 11.7418 12.9551 12.6554M16.2814 13.5525V18.9349M18.9726 16.2437H13.5902M12.6931 6.37596C12.6931 8.85312 10.6849 10.8613 8.20779 10.8613C5.73061 10.8613 3.72245 8.85312 3.72245 6.37596C3.72245 3.89878 5.73061 1.89062 8.20779 1.89062C10.6849 1.89062 12.6931 3.89878 12.6931 6.37596Z" stroke="currentColor" stroke-width="1.5" stroke-linecap="round" stroke-linejoin="round"/>
</svg>
