<svg width="60" height="60" viewBox="0 0 60 60" fill="none" xmlns="http://www.w3.org/2000/svg">
<rect width="60" height="60" rx="30" fill="currentColor"/>
<path d="M42.448 48.2998H19.8281V13.5H42.448C44.362 13.5 45.928 15.066 45.928 16.98V44.8198C45.928 46.7338 44.362 48.2998 42.448 48.2998Z" fill="#7084FF"/>
<path d="M32.1394 21.8017L38.0076 23.6795C38.4704 23.8282 38.7845 24.2585 38.7845 24.7436V32.0314C38.7845 35.4182 33.5489 37.3386 32.1428 37.7935C31.9159 37.8673 31.6811 37.8673 31.4542 37.7935C30.0481 37.3386 24.8125 35.4182 24.8125 32.0314V24.7448C24.8125 24.2585 25.1266 23.8282 25.5893 23.6807L31.4576 21.8028C31.6789 21.7324 31.917 21.7313 32.1394 21.8017Z" fill="white" stroke="white" stroke-opacity="0.5" stroke-width="1.82906" stroke-linecap="round" stroke-linejoin="round"/>
<path d="M31.7945 28.4171C32.8718 28.4171 33.7452 27.5437 33.7452 26.4663C33.7452 25.389 32.8718 24.5156 31.7945 24.5156C30.7171 24.5156 29.8438 25.389 29.8438 26.4663C29.8438 27.5437 30.7171 28.4171 31.7945 28.4171Z" fill="#7084FF"/>
<path d="M35.1742 33.7464C35.7842 33.5541 36.1048 32.8802 35.8459 32.2957C35.1578 30.7416 33.6051 29.6562 31.7962 29.6562C29.9874 29.6562 28.4346 30.7416 27.7465 32.2957C27.4876 32.881 27.8083 33.5541 28.4183 33.7464C29.2873 34.0202 30.4371 34.267 31.7962 34.267C33.1553 34.267 34.3052 34.0202 35.1742 33.7464Z" fill="#7084FF"/>
<path d="M18.0894 13.5625H19.8293V48.3623H18.0894C16.1754 48.3623 14.6094 46.7963 14.6094 44.8823V17.0425C14.6094 15.1285 16.1754 13.5625 18.0894 13.5625Z" fill="#5B6FEC"/>
<path d="M16.35 42.2683H12.87C12.3898 42.2683 12 41.8794 12 41.3983C12 40.9172 12.3898 40.5283 12.87 40.5283H16.35C16.8302 40.5283 17.22 40.9172 17.22 41.3983C17.22 41.8794 16.8302 42.2683 16.35 42.2683ZM16.35 37.0483H12.87C12.3898 37.0483 12 36.6595 12 36.1784C12 35.6972 12.3898 35.3084 12.87 35.3084H16.35C16.8302 35.3084 17.22 35.6972 17.22 36.1784C17.22 36.6595 16.8302 37.0483 16.35 37.0483ZM16.35 31.8284H12.87C12.3898 31.8284 12 31.4395 12 30.9584C12 30.4773 12.3898 30.0884 12.87 30.0884H16.35C16.8302 30.0884 17.22 30.4773 17.22 30.9584C17.22 31.4395 16.8302 31.8284 16.35 31.8284ZM16.35 26.6084H12.87C12.3898 26.6084 12 26.2195 12 25.7384C12 25.2573 12.3898 24.8684 12.87 24.8684H16.35C16.8302 24.8684 17.22 25.2573 17.22 25.7384C17.22 26.2195 16.8302 26.6084 16.35 26.6084ZM16.35 21.3884H12.87C12.3898 21.3884 12 20.9995 12 20.5184C12 20.0373 12.3898 19.6484 12.87 19.6484H16.35C16.8302 19.6484 17.22 20.0373 17.22 20.5184C17.22 20.9995 16.8302 21.3884 16.35 21.3884Z" fill="#6A7587"/>
<rect x="36.375" y="38.625" width="12.75" height="12.75" rx="6.375" fill="#7084FF" stroke="white" stroke-width="0.75"/>
<path d="M44.8272 44.8447H44.132V42.5855C44.132 42.2167 43.9855 41.8631 43.7248 41.6024C43.4641 41.3416 43.1104 41.1952 42.7417 41.1952C42.373 41.1952 42.0193 41.3416 41.7586 41.6024C41.4979 41.8631 41.3514 42.2167 41.3514 42.5855V44.8447H40.6562V42.5855C40.6562 42.0324 40.876 41.5019 41.2671 41.1108C41.6582 40.7197 42.1886 40.5 42.7417 40.5C43.2948 40.5 43.8252 40.7197 44.2163 41.1108C44.6074 41.5019 44.8272 42.0324 44.8272 42.5855V44.8447Z" fill="white"/>
<path d="M45.5279 43.8047H39.9667C39.8284 43.8047 39.6958 43.8596 39.598 43.9574C39.5002 44.0552 39.4453 44.1878 39.4453 44.3261V47.9756C39.4453 48.1139 39.5002 48.2465 39.598 48.3443C39.6958 48.442 39.8284 48.497 39.9667 48.497H45.5279C45.6662 48.497 45.7988 48.442 45.8966 48.3443C45.9943 48.2465 46.0493 48.1139 46.0493 47.9756V44.3261C46.0493 44.1878 45.9943 44.0552 45.8966 43.9574C45.7988 43.8596 45.6662 43.8047 45.5279 43.8047Z" fill="white"/>
<path d="M43.4984 45.6746C43.499 45.543 43.4649 45.4135 43.3996 45.2992C43.3342 45.1849 43.2399 45.0898 43.1261 45.0236C43.0123 44.9574 42.8831 44.9223 42.7514 44.9219C42.6198 44.9215 42.4903 44.9558 42.3761 45.0214C42.262 45.0869 42.1671 45.1814 42.101 45.2953C42.035 45.4092 42.0002 45.5385 42 45.6702C41.9998 45.8018 42.0344 45.9312 42.1001 46.0453C42.1659 46.1593 42.2606 46.254 42.3746 46.3199V47.3603C42.3746 47.41 42.3943 47.4576 42.4294 47.4927C42.4646 47.5279 42.5122 47.5476 42.5619 47.5476H42.9365C42.9861 47.5476 43.0338 47.5279 43.0689 47.4927C43.104 47.4576 43.1238 47.41 43.1238 47.3603V46.3199C43.2374 46.2547 43.3318 46.1607 43.3975 46.0475C43.4633 45.9342 43.4981 45.8056 43.4984 45.6746Z" fill="#7084FF"/>
</svg>
