<svg xmlns="http://www.w3.org/2000/svg" width="14" height="14" viewBox="0 0 14 14" fill="none">
  <g clip-path="url(#clip0_66713_78140)">
    <path d="M7.00521 12.8307C8.61603 12.8307 10.0744 12.1778 11.13 11.1222C12.1856 10.0665 12.8385 8.60821 12.8385 6.9974C12.8385 5.38658 12.1856 3.92825 11.13 2.87261C10.0744 1.81698 8.61603 1.16406 7.00521 1.16406C5.39439 1.16406 3.93606 1.81698 2.88042 2.87261C1.82479 3.92825 1.17188 5.38658 1.17188 6.9974C1.17188 8.60821 1.82479 10.0665 2.88042 11.1222C3.93606 12.1778 5.39439 12.8307 7.00521 12.8307Z" stroke="white" stroke-width="0.875" stroke-linejoin="round"/>
    <path fill-rule="evenodd" clip-rule="evenodd" d="M6.99479 10.7943C7.3975 10.7943 7.72396 10.4678 7.72396 10.0651C7.72396 9.6624 7.3975 9.33594 6.99479 9.33594C6.59209 9.33594 6.26562 9.6624 6.26562 10.0651C6.26562 10.4678 6.59209 10.7943 6.99479 10.7943Z" fill="white"/>
    <path d="M7 3.5V8.16667" stroke="white" stroke-width="0.875" stroke-linecap="round" stroke-linejoin="round"/>
  </g>
  <defs>
    <clipPath id="clip0_66713_78140">
      <rect width="14" height="14" fill="white"/>
    </clipPath>
  </defs>
</svg>
