<svg width="16" height="16" viewBox="0 0 16 16" fill="none" xmlns="http://www.w3.org/2000/svg">
    <path
        d="M7.85284 5.38547L6.25994 9.9767H5.29688L7.30356 4.67969H7.91875L7.85284 5.38547ZM9.18575 9.9767L7.58919 5.38547L7.51961 4.67969H8.13846L10.1525 9.9767H9.18575ZM9.10885 8.01215V8.73612H6.20867V8.01215H9.10885Z"
        fill="currentColor" stroke="currentColor" stroke-width="0.24" />
    <path fill-rule="evenodd" clip-rule="evenodd"
        d="M2.00781 2.56423C2.00781 2.29145 2.22895 2.07031 2.50173 2.07031H12.6065C12.8793 2.07031 13.1004 2.29145 13.1004 2.56423V9.47646C13.457 9.56723 13.7927 9.69542 14.1004 9.85526V2.56423C14.1004 1.73916 13.4316 1.07031 12.6065 1.07031H2.50173C1.67666 1.07031 1.00781 1.73916 1.00781 2.56423V13.8286C1.00781 14.6537 1.67666 15.3225 2.50173 15.3225H9.32893C8.88292 15.0526 8.50682 14.7124 8.22624 14.3225H2.50173C2.22895 14.3225 2.00781 14.1014 2.00781 13.8286V2.56423Z"
        fill="currentColor" />
    <path
        d="M11.5156 12.7568C11.5156 12.9513 11.5929 13.1378 11.7304 13.2753C11.8679 13.4128 12.0545 13.4901 12.249 13.4901C12.4435 13.4901 12.63 13.4128 12.7675 13.2753C12.905 13.1378 12.9823 12.9513 12.9823 12.7568C12.9823 12.5623 12.905 12.3758 12.7675 12.2382C12.63 12.1007 12.4435 12.0234 12.249 12.0234C12.0545 12.0234 11.8679 12.1007 11.7304 12.2382C11.5929 12.3758 11.5156 12.5623 11.5156 12.7568Z"
        stroke="currentColor" stroke-width="0.8" stroke-linecap="round" stroke-linejoin="round" />
    <path
        d="M15.5453 12.7547C14.6653 14.2214 13.5653 14.9547 12.2453 14.9547C10.9253 14.9547 9.82531 14.2214 8.94531 12.7547C9.82531 11.288 10.9253 10.5547 12.2453 10.5547C13.5653 10.5547 14.6653 11.288 15.5453 12.7547Z"
        stroke="currentColor" stroke-width="0.8" stroke-linecap="round" stroke-linejoin="round" />
</svg>