<svg xmlns="http://www.w3.org/2000/svg" width="20" height="20" viewBox="0 0 20 20" fill="none">
    <g clip-path="url(#clip0_69768_28258)">
        <path
            d="M1.88281 3.125C1.88281 2.95924 1.94866 2.80027 2.06587 2.68306C2.18308 2.56585 2.34205 2.5 2.50781 2.5H7.50781C7.67357 2.5 7.83254 2.56585 7.94975 2.68306C8.06696 2.80027 8.13281 2.95924 8.13281 3.125V8.125C8.13281 8.29076 8.06696 8.44973 7.94975 8.56694C7.83254 8.68415 7.67357 8.75 7.50781 8.75H2.50781C2.34205 8.75 2.18308 8.68415 2.06587 8.56694C1.94866 8.44973 1.88281 8.29076 1.88281 8.125V3.125Z"
            stroke="currentColor" stroke-width="1.25" stroke-linecap="round" stroke-linejoin="round" />
        <path
            d="M11.2578 3.125C11.2578 2.95924 11.3237 2.80027 11.4409 2.68306C11.5581 2.56585 11.7171 2.5 11.8828 2.5H16.8828C17.0486 2.5 17.2075 2.56585 17.3248 2.68306C17.442 2.80027 17.5078 2.95924 17.5078 3.125V8.125C17.5078 8.29076 17.442 8.44973 17.3248 8.56694C17.2075 8.68415 17.0486 8.75 16.8828 8.75H11.8828C11.7171 8.75 11.5581 8.68415 11.4409 8.56694C11.3237 8.44973 11.2578 8.29076 11.2578 8.125V3.125Z"
            stroke="currentColor" stroke-width="1.25" stroke-linecap="round" stroke-linejoin="round" />
        <path d="M14.6797 11.25L14.6797 16.75" stroke="currentColor" stroke-width="1.25"
            stroke-linecap="round" stroke-linejoin="round" />
        <path d="M18.1172 15.375L14.6797 18.125L11.2422 15.375" stroke="currentColor"
            stroke-width="1.25" stroke-linecap="round" stroke-linejoin="round" />
        <path
            d="M1.88281 12.5C1.88281 12.3342 1.94866 12.1753 2.06587 12.0581C2.18308 11.9408 2.34205 11.875 2.50781 11.875H7.50781C7.67357 11.875 7.83254 11.9408 7.94975 12.0581C8.06696 12.1753 8.13281 12.3342 8.13281 12.5V17.5C8.13281 17.6658 8.06696 17.8247 7.94975 17.9419C7.83254 18.0592 7.67357 18.125 7.50781 18.125H2.50781C2.34205 18.125 2.18308 18.0592 2.06587 17.9419C1.94866 17.8247 1.88281 17.6658 1.88281 17.5V12.5Z"
            stroke="currentColor" stroke-width="1.25" stroke-linecap="round" stroke-linejoin="round" />
    </g>
    <defs>
        <clipPath id="clip0_69768_28258">
            <rect width="20" height="20" fill="white" />
        </clipPath>
    </defs>
</svg>