<svg width="20" height="20" viewBox="0 0 20 20" fill="none" xmlns="http://www.w3.org/2000/svg">
<path fill-rule="evenodd" clip-rule="evenodd" d="M9.25913 1.02522C7.40848 1.02522 5.7052 1.30545 4.44191 1.77919C3.81258 2.01519 3.25986 2.31129 2.85326 2.67178C2.44738 3.03164 2.13191 3.50896 2.13191 4.08855V7.88146V11.6718V15.4674C2.13191 16.047 2.44737 16.5244 2.85326 16.8842C3.25986 17.2447 3.81258 17.5408 4.44192 17.7768C5.7052 18.2505 7.40849 18.5308 9.25913 18.5308C9.86856 18.5308 10.462 18.5004 11.029 18.4427C10.8534 18.0589 10.7231 17.6501 10.6449 17.2231C10.2012 17.2607 9.73744 17.2808 9.25913 17.2808C7.51869 17.2808 5.97087 17.0152 4.88082 16.6064C4.33348 16.4011 3.93397 16.1718 3.68252 15.9489C3.43034 15.7253 3.38191 15.5612 3.38191 15.4674V13.4753C3.6953 13.6674 4.05405 13.8357 4.44192 13.9811C5.7052 14.4549 7.40849 14.7351 9.25913 14.7351C9.79219 14.7351 10.313 14.7118 10.8147 14.6674C10.9707 14.1887 11.1942 13.7404 11.4741 13.334C10.7913 13.431 10.0448 13.4851 9.25913 13.4851C7.51869 13.4851 5.97087 13.2195 4.88082 12.8107C4.33348 12.6055 3.93397 12.3762 3.68252 12.1532C3.43034 11.9296 3.38191 11.7655 3.38191 11.6718V9.68501C3.6953 9.87712 4.05405 10.0454 4.44192 10.1908C5.7052 10.6646 7.40849 10.9448 9.25913 10.9448C11.1098 10.9448 12.8131 10.6646 14.0763 10.1908C14.4642 10.0454 14.823 9.87712 15.1363 9.68501V11.1158C15.3413 11.0913 15.5499 11.0786 15.7615 11.0786C15.973 11.0786 16.1815 11.0913 16.3863 11.1158V7.88146V4.08855C16.3863 3.50897 16.0709 3.03164 15.665 2.67178C15.2584 2.31129 14.7057 2.01519 14.0763 1.77919C12.8131 1.30545 11.1098 1.02522 9.25913 1.02522ZM3.38191 7.88146V5.89209C3.6953 6.0842 4.05405 6.25247 4.44191 6.39792C5.7052 6.87165 7.40848 7.15188 9.25913 7.15188C11.1098 7.15188 12.8131 6.87165 14.0763 6.39792C14.4642 6.25247 14.823 6.0842 15.1363 5.89209V7.88146C15.1363 7.97521 15.0879 8.13934 14.8357 8.36292C14.5843 8.58586 14.1848 8.81518 13.6374 9.02042C12.5474 9.42919 10.9996 9.69479 9.25913 9.69479C7.51869 9.69479 5.97087 9.42919 4.88082 9.02042C4.33348 8.81518 3.93397 8.58586 3.68252 8.36292C3.43034 8.13934 3.38191 7.97521 3.38191 7.88146ZM14.8357 4.57C15.0879 4.34641 15.1363 4.18229 15.1363 4.08855C15.1363 3.99481 15.0879 3.83069 14.8357 3.60711C14.5843 3.38417 14.1848 3.15485 13.6374 2.9496C12.5474 2.54083 10.9996 2.27522 9.25913 2.27522C7.51869 2.27522 5.97087 2.54083 4.88082 2.9496C4.33349 3.15485 3.93397 3.38417 3.68252 3.60711C3.43034 3.83069 3.38191 3.99482 3.38191 4.08855C3.38191 4.18229 3.43034 4.34641 3.68252 4.57C3.93397 4.79294 4.33349 5.02226 4.88082 5.22751C5.97087 5.63627 7.51869 5.90188 9.25913 5.90188C10.9996 5.90188 12.5474 5.63627 13.6374 5.22751C14.1848 5.02226 14.5843 4.79294 14.8357 4.57Z" fill="var(--r-neutral-title-1, #192945)"/>
<path d="M14.9487 12.543L14.9487 17.7447" stroke="var(--r-neutral-title-1, #192945)" stroke-width="1.25" stroke-linecap="round" stroke-linejoin="round"/>
<path d="M17.5494 16.4434L14.9485 19.0442L12.3477 16.4434" stroke="var(--r-neutral-title-1, #192945)" stroke-width="1.25" stroke-linecap="round" stroke-linejoin="round"/>
</svg>
