<svg xmlns="http://www.w3.org/2000/svg" width="20" height="20" viewBox="0 0 20 20" fill="none">
    <g clip-path="url(#clip0_69768_28251)">
        <path fill-rule="evenodd" clip-rule="evenodd"
            d="M9.53125 1.40625C7.75026 1.40625 6.11002 1.6759 4.89238 2.13251C4.28586 2.35996 3.75162 2.64586 3.35778 2.99505C2.96466 3.34358 2.65625 3.80847 2.65625 4.375V8.02078V11.6641V15.3125C2.65625 15.879 2.96466 16.3439 3.35778 16.6925C3.75162 17.0417 4.28586 17.3276 4.89238 17.555C6.11003 18.0116 7.75026 18.2812 9.53125 18.2812C10.1207 18.2812 10.6948 18.2517 11.2432 18.1956C11.0656 17.8129 10.935 17.4039 10.8589 16.9761C10.4338 17.0121 9.98953 17.0312 9.53125 17.0312C7.86046 17.0312 6.37569 16.7762 5.33128 16.3846C4.80677 16.1879 4.42573 15.9688 4.18704 15.7571C3.94762 15.5449 3.90625 15.3932 3.90625 15.3125V13.4407C4.20029 13.6171 4.5337 13.7721 4.89238 13.9066C6.11003 14.3632 7.75026 14.6328 9.53125 14.6328C10.0406 14.6328 10.5384 14.6108 11.0181 14.5686C11.1718 14.0883 11.3961 13.6396 11.6788 13.2347C11.0179 13.3297 10.2939 13.3828 9.53125 13.3828C7.86046 13.3828 6.37569 13.1278 5.33128 12.7361C4.80677 12.5395 4.42573 12.3203 4.18704 12.1087C3.94762 11.8964 3.90625 11.7448 3.90625 11.6641V9.79743C4.20029 9.97383 4.5337 10.1288 4.89238 10.2633C6.11003 10.7199 7.75026 10.9895 9.53125 10.9895C11.3123 10.9895 12.9525 10.7199 14.1701 10.2633C14.5288 10.1288 14.8622 9.97383 15.1562 9.79743V11.1324C15.361 11.1069 15.5696 11.0938 15.7812 11.0938C15.9929 11.0938 16.2015 11.1069 16.4062 11.1324V8.02078V4.375C16.4062 3.80847 16.0978 3.34358 15.7047 2.99505C15.3109 2.64586 14.7766 2.35996 14.1701 2.13251C12.9525 1.6759 11.3123 1.40625 9.53125 1.40625ZM3.90625 8.02078V6.15163C4.20029 6.32803 4.5337 6.48298 4.89238 6.61749C6.11002 7.0741 7.75026 7.34375 9.53125 7.34375C11.3123 7.34375 12.9525 7.0741 14.1701 6.61749C14.5288 6.48298 14.8622 6.32803 15.1562 6.15163V8.02078C15.1562 8.10148 15.1149 8.25316 14.8755 8.46543C14.6368 8.67705 14.2557 8.89618 13.7312 9.09287C12.6868 9.48452 11.202 9.73953 9.53125 9.73953C7.86046 9.73953 6.37569 9.48452 5.33128 9.09287C4.80677 8.89618 4.42573 8.67705 4.18704 8.46543C3.94762 8.25316 3.90625 8.10147 3.90625 8.02078ZM14.8755 4.81963C15.1149 4.60736 15.1562 4.45568 15.1562 4.375C15.1562 4.29432 15.1149 4.14264 14.8755 3.93037C14.6368 3.71875 14.2557 3.49962 13.7312 3.30293C12.6868 2.91127 11.202 2.65625 9.53125 2.65625C7.86046 2.65625 6.37569 2.91127 5.33128 3.30293C4.80677 3.49962 4.42573 3.71875 4.18703 3.93037C3.94762 4.14264 3.90625 4.29432 3.90625 4.375C3.90625 4.45568 3.94762 4.60736 4.18703 4.81963C4.42573 5.03125 4.80677 5.25038 5.33128 5.44707C6.37569 5.83873 7.86046 6.09375 9.53125 6.09375C11.202 6.09375 12.6868 5.83873 13.7312 5.44707C14.2557 5.25038 14.6368 5.03125 14.8755 4.81963Z"
            fill="currentColor" />
        <path d="M15 12.5L15 17.5" stroke="currentColor" stroke-width="1.25" stroke-linecap="round"
            stroke-linejoin="round" />
        <path d="M17.5 16.25L15 18.75L12.5 16.25" stroke="currentColor" stroke-width="1.25"
            stroke-linecap="round" stroke-linejoin="round" />
    </g>
    <defs>
        <clipPath id="clip0_69768_28251">
            <rect width="20" height="20" fill="white" />
        </clipPath>
    </defs>
</svg>