<svg width="10" height="10" viewBox="0 0 10 10" fill="none" xmlns="http://www.w3.org/2000/svg">
<path fill-rule="evenodd" clip-rule="evenodd" d="M0.208496 5.00004C0.208496 7.64641 2.3538 9.79171 5.00016 9.79171C7.64653 9.79171 9.79183 7.64641 9.79183 5.00004C9.79183 2.35368 7.64653 0.208374 5.00016 0.208374C2.3538 0.208374 0.208496 2.35368 0.208496 5.00004ZM6.35831 2.50073C6.03685 2.21142 5.61093 2.07481 5.08856 2.07481C4.49387 2.07481 4.02776 2.24357 3.6822 2.5811C3.3286 2.91862 3.15984 3.38473 3.15984 3.97942H4.07598C4.07598 3.6419 4.14027 3.3767 4.27689 3.19186C4.42958 2.96684 4.67871 2.86237 5.03231 2.86237C5.30554 2.86237 5.52253 2.9347 5.67522 3.08739C5.81987 3.24008 5.90024 3.44902 5.90024 3.71422C5.90024 3.91513 5.82791 4.108 5.68325 4.2848L5.58682 4.39731C5.06445 4.86342 4.75104 5.20095 4.64656 5.41793C4.53405 5.63491 4.48584 5.90011 4.48584 6.20549V6.318H5.41002V6.20549C5.41002 6.01262 5.4502 5.84386 5.53056 5.68313C5.60289 5.53848 5.70736 5.40186 5.85202 5.28131C6.23776 4.94379 6.47082 4.7268 6.54314 4.64644C6.73602 4.38928 6.84049 4.05979 6.84049 3.65797C6.84049 3.16775 6.67976 2.78201 6.35831 2.50073ZM5.39394 6.88055C5.2734 6.76804 5.12071 6.71179 4.94391 6.71179C4.76711 6.71179 4.62245 6.76804 4.50191 6.88055C4.38136 6.99306 4.32511 7.13771 4.32511 7.31451C4.32511 7.49131 4.38136 7.63597 4.50191 7.74848C4.62245 7.86098 4.76711 7.92528 4.94391 7.92528C5.12071 7.92528 5.26536 7.86902 5.38591 7.75651C5.50645 7.644 5.57074 7.49131 5.57074 7.31451C5.57074 7.13771 5.50645 6.99306 5.39394 6.88055Z" fill="#707280"/>
</svg>
