<svg width="44" height="44" viewBox="0 0 44 44" fill="none" xmlns="http://www.w3.org/2000/svg">
<path d="M20.6753 1.45648C21.5433 1.21242 22.4619 1.21242 23.3299 1.45648L36.5299 5.16714C37.5592 5.45653 38.4658 6.07439 39.1115 6.92662C39.7572 7.77885 40.1067 8.81876 40.1068 9.88798V24.1247C40.1069 25.8337 39.7594 27.5248 39.0856 29.0952C38.4118 30.6657 37.4256 32.0827 36.1871 33.2602L35.8269 33.6012L35.1174 34.264L34.4234 34.9011L33.7451 35.5116L33.0814 36.0964L32.4324 36.6556L31.7981 37.1891C31.0205 37.8373 30.2232 38.4615 29.4074 39.0609L28.8446 39.4642C26.0671 41.4149 23.8121 42.3921 22.0026 42.3921C20.1931 42.3921 17.9381 41.4149 15.1606 39.4642L14.5978 39.0609C13.782 38.4615 12.9847 37.8373 12.2071 37.1891L11.5728 36.6556L10.9238 36.0964L10.2601 35.5116L9.58177 34.9011L8.88785 34.264L8.53494 33.9358L7.8181 33.2602C6.57957 32.0827 5.59342 30.6657 4.91959 29.0952C4.24577 27.5248 3.89834 25.8337 3.89844 24.1247V9.88798C3.8985 8.81876 4.248 7.77885 4.89371 6.92662C5.53942 6.07439 6.44596 5.45653 7.47527 5.16714L20.6753 1.45648ZM22.4619 4.54473C22.1615 4.46024 21.8437 4.46024 21.5434 4.54473L8.34427 8.25539C7.98836 8.35552 7.67493 8.56921 7.4517 8.86393C7.22846 9.15866 7.10766 9.51826 7.10769 9.88798V24.1247C7.10757 25.3988 7.36657 26.6596 7.86895 27.8305C8.37133 29.0013 9.10659 30.0578 10.03 30.9356L10.3619 31.2491L11.0154 31.8596L11.6534 32.4462L12.2768 33.0072L12.8845 33.5444L13.4767 34.0577L13.7673 34.3043L14.3365 34.781L14.8902 35.232L15.4283 35.6591C15.6052 35.7966 15.7784 35.9314 15.9508 36.0616L16.4549 36.4392L16.7024 36.6198L17.1837 36.9608L17.6475 37.278C17.7236 37.3293 17.7997 37.3788 17.8739 37.4274L18.3139 37.7079C19.8943 38.6915 21.1354 39.1837 22.0035 39.1837C22.8716 39.1837 24.1119 38.6915 25.6931 37.7079L26.1331 37.4274C26.2074 37.3788 26.2834 37.3293 26.3595 37.278L26.8234 36.9608C26.9022 36.9058 26.9819 36.8508 27.0617 36.7931L27.5512 36.4392L27.8024 36.2531L28.3157 35.8626L28.5788 35.6591L29.1169 35.232L29.6705 34.7801L29.9529 34.5454L30.5304 34.0568C30.6275 33.9743 30.7256 33.8891 30.8237 33.8038L31.425 33.2786L32.0401 32.7295L32.6708 32.1556L33.317 31.5571L33.977 30.9346C34.9003 30.0569 35.6355 29.0006 36.1379 27.83C36.6403 26.6593 36.8993 25.3987 36.8994 24.1247V9.88798C36.8991 9.51829 36.7781 9.15881 36.5547 8.86426C36.3313 8.56971 36.0178 8.35623 35.6619 8.25631L22.4619 4.54473ZM22.0026 14.1156C22.7437 14.1149 23.4634 14.3637 24.0459 14.8218C24.6284 15.2799 25.0397 15.9208 25.2136 16.6411C25.3876 17.3615 25.314 18.1195 25.0047 18.7929C24.6954 19.4663 24.1684 20.0161 23.5087 20.3536V26.3311C23.5105 26.7098 23.3659 27.0744 23.105 27.3488C22.8441 27.6232 22.4872 27.7861 22.109 27.8034C21.7308 27.8207 21.3605 27.6911 21.0757 27.4416C20.7909 27.1921 20.6136 26.8422 20.5809 26.465L20.5744 26.3311V20.393C19.8988 20.07 19.3531 19.5269 19.027 18.8528C18.7009 18.1787 18.6137 17.4137 18.7799 16.6836C18.946 15.9534 19.3555 15.3014 19.9412 14.8348C20.5268 14.3681 21.2538 14.1145 22.0026 14.1156Z" fill="white"/>
</svg>
