<svg width="14" height="14" viewBox="0 0 14 14" fill="none" xmlns="http://www.w3.org/2000/svg">
<g id="help" clip-path="url(#clip0_120246_49801)">
<path id="Vector" d="M6.99987 12.5984C8.54625 12.5984 9.94624 11.9716 10.9596 10.9582C11.973 9.94478 12.5998 8.54479 12.5998 6.99841C12.5998 5.45203 11.973 4.05204 10.9596 3.03863C9.94624 2.02524 8.54625 1.39844 6.99987 1.39844C5.4535 1.39844 4.0535 2.02524 3.04009 3.03863C2.0267 4.05204 1.3999 5.45203 1.3999 6.99841C1.3999 8.54479 2.0267 9.94478 3.04009 10.9582C4.0535 11.9716 5.4535 12.5984 6.99987 12.5984Z" stroke="currentColor" stroke-width="1.25" stroke-linejoin="round"/>
<path id="Vector_2" d="M7 8.35026V7.18359C7.9665 7.18359 8.75 6.40009 8.75 5.43359C8.75 4.4671 7.9665 3.68359 7 3.68359C6.0335 3.68359 5.25 4.4671 5.25 5.43359" stroke="currentColor" stroke-width="1.25" stroke-linecap="round" stroke-linejoin="round"/>
<path id="Vector_3" d="M7.10409 10.2448C7.10409 10.3023 7.05744 10.349 6.99992 10.349C6.94239 10.349 6.89575 10.3023 6.89575 10.2448C6.89575 10.1873 6.94239 10.1406 6.99992 10.1406C7.05744 10.1406 7.10409 10.1873 7.10409 10.2448Z" fill="currentColor" stroke="currentColor" stroke-width="1.25"/>
</g>
<defs>
<clipPath id="clip0_120246_49801">
<rect width="14" height="14" fill="white"/>
</clipPath>
</defs>
</svg>
