<svg width="16" height="16" viewBox="0 0 16 16" fill="none" xmlns="http://www.w3.org/2000/svg">
<g id="find">
<path id="Vector" d="M13.3337 8.9987V1.9987C13.3337 1.63051 13.0352 1.33203 12.667 1.33203H3.33366C2.96547 1.33203 2.66699 1.63051 2.66699 1.9987V13.9987C2.66699 14.3669 2.96547 14.6654 3.33366 14.6654H7.00033" stroke="#6A7587" stroke-linecap="round" stroke-linejoin="round"/>
<path id="Vector_2" d="M5.66699 4H10.3337" stroke="#6A7587" stroke-linecap="round" stroke-linejoin="round"/>
<path id="Vector_3" d="M5.66699 6.66797H10.3337" stroke="#6A7587" stroke-linecap="round" stroke-linejoin="round"/>
<path id="Vector_4" d="M5.66699 9.33203H7.66699" stroke="#6A7587" stroke-linecap="round" stroke-linejoin="round"/>
<path id="Vector_5" d="M13 14.668L11.8452 13.5131M11.8452 13.5131C12.1468 13.2115 12.3333 12.7949 12.3333 12.3346C12.3333 11.4142 11.5871 10.668 10.6667 10.668C9.7462 10.668 9 11.4142 9 12.3346C9 13.2551 9.7462 14.0013 10.6667 14.0013C11.1269 14.0013 11.5436 13.8148 11.8452 13.5131Z" stroke="#6A7587" stroke-linecap="round" stroke-linejoin="round"/>
</g>
</svg>
