<svg width="14" height="14" viewBox="0 0 14 14" fill="none" xmlns="http://www.w3.org/2000/svg">
<g id="&#230;&#156;&#186;&#230;&#158;&#132;&#228;&#191;&#161;&#230;&#129;&#175; 1" clip-path="url(#clip0_120242_55368)">
<path id="Rectangle 41747" d="M0 7C0 3.13401 3.13401 0 7 0C10.866 0 14 3.13401 14 7C14 10.866 10.866 14 7 14C3.13401 14 0 10.866 0 7Z" fill="#7084FF"/>
<path id="Vector" d="M8.71129 6.87501C8.71129 6.70242 8.8512 6.56251 9.02379 6.56251H9.96129C10.1339 6.56251 10.2738 6.70242 10.2738 6.87501V9.68751H10.77C10.9426 9.68751 11.0825 9.82742 11.0825 10V10.625C11.0825 10.7976 10.9426 10.9375 10.77 10.9375H3.27004C3.09745 10.9375 2.95754 10.7976 2.95754 10.625V10C2.95754 9.82742 3.09745 9.68751 3.27004 9.68751H8.71129V6.87501ZM7.77379 7.81251V9.68751H6.21317V6.87501C6.21317 6.70242 6.35308 6.56251 6.52567 6.56251H7.46036C7.63282 6.56251 7.77268 6.70223 7.77286 6.8747L7.77379 7.81251ZM5.27379 8.12501V9.68751H3.71129V6.87501C3.71129 6.70242 3.8512 6.56251 4.02379 6.56251H4.96029C5.13278 6.56251 5.27265 6.70227 5.27279 6.87476L5.27379 8.12501ZM7.00004 2.18751C7.03336 2.18748 7.06633 2.19429 7.09692 2.20751L7.14004 2.23126L11.2788 5.18938C11.3195 5.21797 11.3497 5.25915 11.3647 5.30658C11.3798 5.35401 11.3788 5.40507 11.3619 5.45188C11.3486 5.49021 11.3257 5.5245 11.2954 5.55151C11.2651 5.57852 11.2284 5.59736 11.1888 5.60626L11.1388 5.61126H2.86129C2.81162 5.61354 2.76263 5.59906 2.72216 5.57016C2.6817 5.54126 2.65212 5.49961 2.63817 5.45188C2.62439 5.41339 2.62135 5.37188 2.62939 5.3318C2.63743 5.29172 2.65624 5.25458 2.68379 5.22438L2.72129 5.18938L6.86004 2.23126C6.901 2.20242 6.94995 2.18712 7.00004 2.18751Z" fill="white"/>
</g>
<defs>
<clipPath id="clip0_120242_55368">
<rect width="14" height="14" fill="white"/>
</clipPath>
</defs>
</svg>
