<svg width="14" height="14" viewBox="0 0 14 14" fill="none" xmlns="http://www.w3.org/2000/svg">
<g id="&#230;&#156;&#186;&#230;&#158;&#132;&#228;&#191;&#161;&#230;&#129;&#175; 2" clip-path="url(#clip0_120242_55282)">
<path id="Rectangle 41747" d="M0 7C0 3.13401 3.13401 0 7 0C10.866 0 14 3.13401 14 7C14 10.866 10.866 14 7 14C3.13401 14 0 10.866 0 7Z" fill="#7084FF"/>
<path id="Rectangle 26792 (Stroke)" d="M7.06224 2.93125C4.98786 2.93125 3.30625 4.61286 3.30625 6.68724C3.30625 7.10099 3.64166 7.4364 4.0554 7.4364C4.46915 7.4364 4.80456 7.10099 4.80456 6.68724C4.80456 5.44036 5.81536 4.42956 7.06224 4.42956C8.30913 4.42956 9.31992 5.44036 9.31992 6.68724C9.31992 7.10099 9.65533 7.4364 10.0691 7.4364C10.4828 7.4364 10.8182 7.10099 10.8182 6.68724C10.8182 4.61287 9.13662 2.93125 7.06224 2.93125Z" fill="white" stroke="white" stroke-width="0.2625" stroke-linecap="round" stroke-linejoin="round"/>
<circle id="Ellipse 292189" cx="3.95233" cy="9.87616" r="1.06366" fill="white"/>
<circle id="Ellipse 292189_2" cx="10.3508" cy="9.87616" r="1.06366" fill="white"/>
</g>
<defs>
<clipPath id="clip0_120242_55282">
<rect width="14" height="14" fill="white"/>
</clipPath>
</defs>
</svg>
