<svg width="16" height="16" viewBox="0 0 16 16" fill="none" xmlns="http://www.w3.org/2000/svg">
<g clip-path="url(#clip0_69304_49103)">
<path d="M8.00005 15.2C9.98826 15.2 11.7883 14.3942 13.0912 13.0912C14.3942 11.7883 15.2 9.98826 15.2 8.00005C15.2 6.01184 14.3942 4.21184 13.0912 2.90888C11.7883 1.60594 9.98826 0.800049 8.00005 0.800049C6.01184 0.800049 4.21184 1.60594 2.90888 2.90888C1.60594 4.21184 0.800049 6.01184 0.800049 8.00005C0.800049 9.98826 1.60594 11.7883 2.90888 13.0912C4.21184 14.3942 6.01184 15.2 8.00005 15.2Z" fill="#2ABB7F"/>
<path d="M4.66724 7.99913L7.11168 10.4436L12.0006 5.55469" stroke="white" stroke-width="1.25" stroke-linecap="round" stroke-linejoin="round"/>
</g>
<defs>
<clipPath id="clip0_69304_49103">
<rect width="16" height="16" fill="white"/>
</clipPath>
</defs>
</svg>
