<svg width="14" height="14" viewBox="0 0 14 14" fill="none" xmlns="http://www.w3.org/2000/svg">
<g clip-path="url(#clip0_69304_48979)">
<path d="M12.6 6.9999C12.6 10.0927 10.0928 12.5999 7.00002 12.5999C3.90723 12.5999 1.40002 10.0927 1.40002 6.9999C1.40002 3.90711 3.90723 1.3999 7.00002 1.3999C10.0928 1.3999 12.6 3.90711 12.6 6.9999Z" stroke="#FFB020" stroke-width="0.875" stroke-linecap="round" stroke-linejoin="round"/>
<path fill-rule="evenodd" clip-rule="evenodd" d="M6.99992 3.2085C7.40262 3.2085 7.72909 3.53496 7.72909 3.93766C7.72909 4.34037 7.40262 4.66683 6.99992 4.66683C6.59721 4.66683 6.27075 4.34037 6.27075 3.93766C6.27075 3.53496 6.59721 3.2085 6.99992 3.2085Z" fill="#FFB020"/>
<path d="M7.14583 9.91683V5.8335H6.85417H6.5625" fill="#FFB020"/>
<path d="M7.14583 9.91683V5.8335H6.85417H6.5625" stroke="#FFB020" stroke-width="0.875" stroke-linecap="round" stroke-linejoin="round"/>
<path d="M6.125 9.9165H8.16667H6.125Z" fill="#FFB020"/>
<path d="M6.125 9.9165H8.16667" stroke="#FFB020" stroke-width="0.875" stroke-linecap="round" stroke-linejoin="round"/>
</g>
<defs>
<clipPath id="clip0_69304_48979">
<rect width="14" height="14" fill="white"/>
</clipPath>
</defs>
</svg>
