<svg width="28" height="28" viewBox="0 0 28 28" fill="none" xmlns="http://www.w3.org/2000/svg">
<path d="M14 28C21.732 28 28 21.732 28 14C28 6.26801 21.732 0 14 0C6.26801 0 0 6.26801 0 14C0 21.732 6.26801 28 14 28Z" fill="white"/>
<path d="M13.6688 11.2642V2.51703C13.6688 2.51703 10.8378 3.92616 10.8378 6.92454C10.8378 9.92292 13.6688 11.2642 13.6688 11.2642Z" fill="#006E3C"/>
<path d="M13.6688 2.51703C13.6688 2.51703 16.4976 3.92616 16.4976 6.92454C16.4976 9.92292 13.6688 11.2621 13.6688 11.2621V2.51703Z" fill="#00A93C"/>
<path d="M20.2737 15.3772L24.162 13.1671C24.162 13.1671 22.8186 12.2644 21.4857 13.0188C20.1529 13.7732 20.2737 15.373 20.2737 15.373" fill="#006E3C"/>
<path d="M24.1621 13.1671C24.1621 13.1671 24.2511 14.7818 22.9182 15.5382C21.5854 16.2947 20.2737 15.3772 20.2737 15.3772L24.1621 13.1671Z" fill="#00A93C"/>
<path d="M24.3485 12.8069C24.2807 12.7687 22.6384 11.9042 21.2547 12.7052C20.1444 13.3409 19.9219 14.6335 19.8795 15.1696L19.3667 15.4641C19.1033 15.2059 18.7492 15.0613 18.3803 15.0613C18.0115 15.0613 17.6573 15.2059 17.3939 15.4641L15.0461 14.1079C15.0724 13.9961 15.0859 13.8817 15.0863 13.7668C15.086 13.4592 14.9859 13.1601 14.8009 12.9144C14.616 12.6687 14.3562 12.4896 14.0608 12.4043V11.5694C14.7452 11.1286 16.9172 9.53091 16.9172 6.98812C16.9172 4.04483 13.9993 2.2119 13.8743 2.12926L13.6624 2L13.4505 2.12926C13.3255 2.20342 10.4055 4.03635 10.4055 6.98812C10.4055 9.53091 12.5796 11.1286 13.264 11.5694V12.4043C12.9685 12.4896 12.7088 12.6687 12.5238 12.9144C12.3389 13.1601 12.2387 13.4592 12.2384 13.7668C12.2389 13.8817 12.2524 13.9961 12.2787 14.1079L9.93083 15.4641C9.67078 15.2112 9.32309 15.0684 8.96033 15.0657C8.61912 15.0669 8.28974 15.1909 8.03249 15.415C7.77523 15.6392 7.60731 15.9485 7.55945 16.2863C7.51159 16.6242 7.587 16.9679 7.77188 17.2547C7.95676 17.5415 8.23873 17.7521 8.56619 17.848V20.6662C8.23873 20.7621 7.95676 20.9727 7.77188 21.2595C7.587 21.5463 7.51159 21.8901 7.55945 22.2279C7.60731 22.5657 7.77523 22.875 8.03249 23.0992C8.28974 23.3233 8.61912 23.4473 8.96033 23.4485C9.15816 23.4486 9.35375 23.4067 9.53419 23.3256C9.71464 23.2445 9.87583 23.126 10.0071 22.9781L12.2893 24.2961C12.2627 24.4071 12.2492 24.5209 12.249 24.6351C12.2632 25.0019 12.4189 25.3489 12.6834 25.6034C12.9479 25.8579 13.3006 26 13.6677 26C14.0347 26 14.3875 25.8579 14.652 25.6034C14.9165 25.3489 15.0722 25.0019 15.0863 24.6351C15.0861 24.5209 15.0726 24.4071 15.0461 24.2961L17.3282 22.9781C17.4599 23.1253 17.6213 23.2429 17.8017 23.3233C17.9821 23.4036 18.1775 23.4449 18.375 23.4442C18.7139 23.4403 19.0403 23.3152 19.295 23.0916C19.5497 22.868 19.7161 22.5606 19.7639 22.2251C19.8118 21.8895 19.738 21.5479 19.556 21.262C19.3739 20.9761 19.0956 20.7648 18.7713 20.6662V17.848C19.0664 17.762 19.3257 17.5828 19.5106 17.3372C19.6955 17.0916 19.7959 16.7928 19.7969 16.4855C19.7962 16.3735 19.7834 16.262 19.7587 16.1528L20.2694 15.8604C20.757 16.0938 21.2886 16.2209 21.829 16.2333C22.2746 16.2382 22.7135 16.1241 23.1004 15.9027C24.4841 15.1039 24.5561 13.2497 24.5604 13.1735V12.9298L24.3485 12.8069ZM18.7713 16.9813C18.6592 17.0703 18.5203 17.1188 18.3771 17.119C18.301 17.1191 18.2255 17.1047 18.1546 17.0767C18.0937 17.0558 18.037 17.0242 17.9872 16.9834C17.8582 16.8842 17.7737 16.7379 17.752 16.5766C17.7499 16.5462 17.7499 16.5158 17.752 16.4855C17.7499 16.4587 17.7499 16.4317 17.752 16.4049C17.7722 16.251 17.848 16.1098 17.9651 16.008C18.0822 15.9061 18.2325 15.8506 18.3877 15.8519C18.4728 15.8517 18.557 15.8682 18.6357 15.9006C18.7502 15.9496 18.8478 16.0311 18.9163 16.1351C18.9849 16.2391 19.0214 16.3609 19.0213 16.4855C19.0246 16.52 19.0246 16.5547 19.0213 16.5893C18.9905 16.7468 18.9011 16.8869 18.7713 16.9813V16.9813ZM19.0107 22.0287C19.0107 22.1973 18.9437 22.359 18.8245 22.4783C18.7053 22.5975 18.5436 22.6644 18.375 22.6644C18.2584 22.6643 18.144 22.632 18.0445 22.5712C17.9521 22.5145 17.8757 22.435 17.8227 22.3404C17.7696 22.2459 17.7417 22.1393 17.7414 22.0309C17.7404 22.0253 17.7404 22.0195 17.7414 22.0139V22.0139C17.7426 21.9474 17.7547 21.8815 17.7775 21.819C17.8198 21.7061 17.8933 21.6077 17.9894 21.535C18.1014 21.4491 18.2381 21.4015 18.3793 21.3994C18.5479 21.3994 18.7096 21.4664 18.8288 21.5856C18.948 21.7048 19.015 21.8665 19.015 22.0351L19.0107 22.0287ZM17.9915 20.6726C17.8007 20.7272 17.6237 20.8219 17.4723 20.9502L15.0588 19.5538C15.0768 19.4616 15.086 19.3679 15.0863 19.2741C15.0868 19.1406 15.0675 19.0078 15.0291 18.8799L17.3982 17.511C17.5634 17.6696 17.7649 17.7853 17.9851 17.848L17.9915 20.6726ZM13.6687 25.2708C13.5161 25.2727 13.3678 25.2196 13.2511 25.1211C13.1343 25.0227 13.0569 24.8855 13.033 24.7347C13.0309 24.703 13.0309 24.6711 13.033 24.6393C13.0334 24.5132 13.0713 24.3901 13.1419 24.2856C13.2124 24.1811 13.3125 24.0999 13.4293 24.0524C13.5822 23.9905 13.7532 23.9905 13.9061 24.0524C14.0225 24.1002 14.1221 24.1815 14.1923 24.286C14.2624 24.3905 14.3 24.5135 14.3002 24.6393C14.3023 24.6711 14.3023 24.703 14.3002 24.7347C14.2766 24.8837 14.2007 25.0194 14.0862 25.1177C13.9717 25.2159 13.826 25.2702 13.6751 25.2708H13.6687ZM12.2829 19.5495L9.8715 20.9438C9.72036 20.8151 9.5433 20.7205 9.35234 20.6662V17.848C9.57502 17.7848 9.77829 17.6668 9.94354 17.5047L12.3083 18.8714C12.2681 19.0011 12.248 19.1362 12.249 19.2719C12.2495 19.3672 12.2587 19.4623 12.2766 19.5559L12.2829 19.5495ZM9.59391 22.0287C9.59368 22.1372 9.56571 22.2438 9.51268 22.3383C9.45964 22.4329 9.38329 22.5123 9.29089 22.5691C9.19135 22.6299 9.07698 22.6622 8.96033 22.6623C8.8295 22.661 8.70226 22.6194 8.59596 22.5431C8.48967 22.4669 8.4095 22.3596 8.36639 22.2361C8.32328 22.1126 8.31934 21.9788 8.3551 21.8529C8.39086 21.7271 8.46457 21.6153 8.56619 21.5329C8.67832 21.4439 8.81719 21.3954 8.96033 21.3952C8.99699 21.392 9.03385 21.392 9.07052 21.3952C9.1727 21.4129 9.26885 21.4559 9.35022 21.5202C9.44634 21.5928 9.51983 21.6913 9.56212 21.8041C9.58404 21.8676 9.59618 21.9341 9.59815 22.0012C9.59918 22.0068 9.59918 22.0125 9.59815 22.0182L9.59391 22.0287ZM8.32675 16.4749C8.32675 16.3063 8.39372 16.1446 8.51294 16.0254C8.63216 15.9061 8.79385 15.8392 8.96245 15.8392C9.04225 15.8392 9.12132 15.8543 9.19554 15.8837C9.29912 15.9248 9.39006 15.9925 9.45924 16.0799C9.52842 16.1673 9.5734 16.2714 9.58967 16.3816C9.58967 16.4113 9.58967 16.441 9.58967 16.4727C9.58967 16.5045 9.58967 16.5342 9.58967 16.5639C9.56557 16.7249 9.48063 16.8705 9.35234 16.9707C9.30484 17.0081 9.25198 17.0381 9.19554 17.0597C9.12165 17.0904 9.04245 17.1062 8.96245 17.1063C8.79385 17.1063 8.63216 17.0393 8.51294 16.9201C8.39372 16.8009 8.32675 16.6392 8.32675 16.4706V16.4749ZM13.2746 13.2688C13.362 13.2007 13.4657 13.1565 13.5755 13.1408C13.6852 13.1251 13.7971 13.1384 13.9001 13.1793C14.0031 13.2202 14.0937 13.2873 14.1627 13.374C14.2318 13.4607 14.277 13.564 14.2938 13.6735C14.2959 13.7046 14.2959 13.7357 14.2938 13.7668C14.294 13.8625 14.2725 13.9569 14.231 14.0431C14.1896 14.1294 14.1292 14.2051 14.0544 14.2647C14.0059 14.3017 13.9524 14.3317 13.8955 14.3537C13.7909 14.3954 13.6773 14.409 13.5658 14.3934C13.4544 14.3778 13.3489 14.3335 13.2598 14.2647C13.1846 14.2053 13.1238 14.1297 13.082 14.0434C13.0401 13.9572 13.0183 13.8626 13.0182 13.7668C13.0161 13.7357 13.0161 13.7046 13.0182 13.6735C13.0417 13.5139 13.1251 13.3693 13.2513 13.2688H13.2746ZM14.3002 19.2995C14.2966 19.3908 14.2734 19.4803 14.232 19.5619C14.1907 19.6434 14.1323 19.7151 14.0608 19.772C14.0317 19.7937 14.0012 19.8135 13.9696 19.8313C13.8772 19.8813 13.7738 19.9075 13.6687 19.9076C13.5653 19.9074 13.4635 19.882 13.3721 19.8335C13.3385 19.8147 13.306 19.7942 13.2746 19.772C13.202 19.7142 13.1429 19.6412 13.1016 19.5581C13.0602 19.475 13.0375 19.3838 13.0352 19.291C13.0341 19.2847 13.0341 19.2782 13.0352 19.2719C13.0355 19.2167 13.0433 19.1618 13.0585 19.1088C13.0916 18.9774 13.1659 18.8601 13.2704 18.774C13.3837 18.6875 13.5219 18.6399 13.6645 18.6384C13.7197 18.6387 13.7746 18.6465 13.8277 18.6617C13.9344 18.6887 14.032 18.7438 14.1103 18.8213C14.1885 18.8988 14.2446 18.9959 14.2727 19.1024C14.2891 19.1574 14.297 19.2146 14.296 19.2719V19.2974L14.3002 19.2995ZM16.9977 16.1422C16.9702 16.2545 16.9567 16.3698 16.9574 16.4855C16.9572 16.6027 16.9722 16.7195 17.0019 16.833L14.6096 18.2146C14.4521 18.0726 14.2644 17.9683 14.0608 17.9094V15.1378C14.2829 15.0744 14.4859 14.9572 14.652 14.7966L16.9977 16.1422ZM11.2022 6.98812C11.2022 4.90302 13.0415 3.38582 13.6687 2.93872C14.3044 3.39006 16.1331 4.89455 16.1331 6.98812C16.1331 8.73417 14.8405 9.99921 14.0608 10.6031V7.29749C14.0535 7.19823 14.0089 7.1054 13.936 7.03764C13.8631 6.96989 13.7672 6.93224 13.6677 6.93224C13.5681 6.93224 13.4723 6.96989 13.3994 7.03764C13.3265 7.1054 13.2819 7.19823 13.2746 7.29749V10.6052C12.4927 10.0013 11.2022 8.73841 11.2022 6.98812ZM12.6855 14.7881C12.85 14.9515 13.0524 15.0716 13.2746 15.1378V17.9094C13.0733 17.9673 12.8878 18.0702 12.7321 18.2103L10.3377 16.833C10.3914 16.6073 10.3914 16.3721 10.3377 16.1464L12.6855 14.7881ZM10.3546 22.2788C10.3942 22.0509 10.3782 21.8169 10.308 21.5965L12.6389 20.253C12.8129 20.4352 13.0324 20.5676 13.2746 20.6366V23.2747C13.053 23.3381 12.8501 23.4545 12.6834 23.6138L10.3546 22.2788ZM14.652 23.6138C14.486 23.4522 14.283 23.3336 14.0608 23.2684V20.6472C14.3036 20.5784 14.5233 20.4451 14.6964 20.2615L17.0273 21.6071C16.9572 21.8275 16.9412 22.0615 16.9807 22.2894L14.652 23.6138ZM22.7041 15.2162C22.4664 15.3387 22.2068 15.4131 21.9402 15.4349C21.6737 15.4567 21.4054 15.4256 21.1509 15.3433L21.9349 14.892C22.0251 14.84 22.091 14.7543 22.118 14.6538C22.145 14.5532 22.131 14.4461 22.079 14.3559C22.027 14.2657 21.9414 14.1998 21.8408 14.1728C21.7403 14.1458 21.6331 14.1598 21.5429 14.2118L20.7631 14.6674C20.8193 14.4076 20.9263 14.1616 21.078 13.9434C21.2296 13.7252 21.4229 13.5392 21.6468 13.396C22.3969 12.9616 23.3208 13.237 23.7446 13.396C23.681 13.8473 23.4585 14.7818 22.7041 15.2162" fill="black"/>
</svg>
