<svg width="28" height="28" viewBox="0 0 28 28" fill="none" xmlns="http://www.w3.org/2000/svg">
<rect width="28" height="28" rx="14" fill="white"/>
<path d="M13.9196 23.9063V23.7737C13.9196 21.7394 13.9196 19.7052 13.8975 17.6709C13.8975 17.494 13.8533 17.5383 14.0302 17.4277C14.4945 17.1624 14.8483 16.9413 15.3347 16.6538L19.0937 14.4648C19.1379 14.4427 19.16 14.4205 19.2263 14.3984V20.6117C19.2484 20.7444 19.16 20.8771 19.0494 20.9434C17.3469 21.9163 15.777 22.845 14.0523 23.84C14.008 23.8621 13.9638 23.8842 13.9196 23.9063Z" fill="#00E3CC"/>
<path d="M19.6686 20.5672V20.4124L19.6465 14.8403C19.6465 14.6413 19.6465 14.4423 19.6465 14.2655C19.6465 14.1991 19.6686 14.1328 19.7349 14.0886C20.3983 13.7127 21.0616 13.3147 21.725 12.9388L24.3783 11.391C24.5552 11.3025 24.71 11.2141 24.8869 11.1256C24.9311 11.1035 24.9753 11.1035 25.0196 11.1035C25.0196 11.1698 25.0196 11.192 25.0196 11.2362V17.3389C25.0196 17.5158 25.0417 17.4716 24.8869 17.5822L20.0224 20.4124C19.9339 20.4567 19.8455 20.5009 19.7792 20.5672C19.757 20.523 19.7349 20.5451 19.6686 20.5672Z" fill="#00E3CC"/>
<path d="M8.25889 14.022V20.1026C8.281 20.2353 8.19256 20.3458 8.082 20.3901C7.883 20.4785 7.66188 20.4785 7.44077 20.4122C7.3081 20.368 7.17543 20.3016 7.04276 20.2353L6.06986 19.6604C6.00353 19.6162 5.93719 19.5719 5.87086 19.5277L4.58839 18.798C4.38939 18.6875 4.19039 18.5769 3.99139 18.4443C3.74816 18.2895 3.54916 18.1126 3.37227 17.8694C3.2396 17.6925 3.12904 17.5156 3.04059 17.3166C2.99637 17.2281 2.95215 17.0733 2.95215 16.8965V11.6782C2.95215 11.5676 2.99637 11.5455 3.08482 11.5897C3.2396 11.6782 3.39438 11.7445 3.52705 11.8329L5.51708 12.9827L6.97643 13.823C6.99854 13.823 7.02065 13.8451 7.02065 13.8672C7.28599 14.022 7.61766 14.1104 7.92722 14.0662C8.05989 14.0662 8.14834 14.0441 8.25889 14.022Z" fill="#FBE204"/>
<path d="M13.4552 23.9061C13.3225 23.8397 13.1678 23.7734 13.0793 23.7292C12.5044 23.3975 12.0622 23.1322 11.4873 22.8005L10.05 21.9603C9.80681 21.8276 9.56359 21.6507 9.34248 21.4738C9.07714 21.2527 8.90025 20.9432 8.78969 20.6115C8.78969 20.5673 8.76758 20.523 8.76758 20.4788V14.752L8.96658 14.9067C9.20981 15.0836 9.45303 15.2384 9.69626 15.3711C10.9345 16.1007 12.1064 16.742 13.3446 17.4495C13.411 17.4717 13.4331 17.538 13.4331 17.6043V17.737V23.7292L13.4552 23.9061Z" fill="#FBE204"/>
<path d="M8.19238 7.18931L8.43561 7.05664L9.71807 6.30486C9.76229 6.28274 9.82863 6.28274 9.89496 6.32697L12.1061 7.58732C12.283 7.69788 12.482 7.80843 12.6589 7.89688C12.7031 7.91899 12.7694 7.9411 12.8137 7.9411C12.8579 7.9411 12.9021 7.91899 12.9242 7.85266C12.9463 7.80843 12.9242 7.76421 12.9021 7.7421C12.8579 7.71999 12.8137 7.67576 12.7916 7.65365L10.5141 6.32697L10.1824 6.15008C10.1603 6.12796 10.1382 6.10585 10.094 6.08374C10.1161 6.06163 10.1603 6.03952 10.1824 6.01741L11.7744 5.08873C11.8408 5.0445 11.9292 5.0445 11.9955 5.08873C12.8579 5.59729 13.7202 6.08374 14.6047 6.5923C14.6489 6.61442 14.7153 6.65864 14.7595 6.68075C14.8258 6.70286 14.9143 6.68075 14.9364 6.61442C14.9806 6.54808 14.9364 6.45964 14.87 6.43752L14.1846 6.03952L12.283 4.95606C12.2609 4.93395 12.2167 4.93395 12.2167 4.86761L12.4378 4.73495C12.8137 4.51383 13.1675 4.31483 13.5433 4.09371C13.6097 4.04949 13.6981 4.04949 13.7645 4.09371C14.1625 4.33694 14.5605 4.55805 14.9585 4.77917L15.5555 5.11084L16.4621 5.64151L17.1254 6.01741L18.231 6.65864C18.3415 6.72497 18.4521 6.79131 18.5626 6.85764C18.6069 6.90186 18.6511 6.94609 18.6953 6.99031C18.828 7.14509 18.8059 7.3662 18.6511 7.47676C18.629 7.49887 18.6069 7.49887 18.5847 7.52098C17.8108 7.96321 17.0369 8.42755 16.2409 8.86978C15.7324 9.17934 15.2017 9.46679 14.6931 9.77635C14.4057 9.95324 14.0519 10.0417 13.6981 10.0196C13.4549 10.0196 13.2338 9.99746 12.9906 9.93113C12.9242 9.90902 12.8579 9.88691 12.8137 9.86479L9.40851 7.89688C9.05473 7.69788 8.67883 7.47676 8.32505 7.25565C8.25872 7.23354 8.21449 7.21142 8.19238 7.18931Z" fill="#FF2199"/>
<path d="M6.04804 12.7383C6.07015 12.7162 6.11438 12.6941 6.13649 12.672L8.30341 11.4338L8.41396 11.3674C8.50241 11.3232 8.50241 11.279 8.45819 11.1905C8.43607 11.1242 8.36974 11.08 8.30341 11.1242C8.28129 11.1463 8.23707 11.1463 8.21496 11.1684L6.26916 12.274L5.73848 12.5836L5.22992 12.2961L4.83191 12.0529L3.61579 11.3453L3.39467 11.2127C3.19567 11.1021 3.063 10.9031 3.01878 10.7041C2.95244 10.5051 3.01878 10.284 3.17356 10.1513C3.262 10.085 3.32834 10.0186 3.41678 9.97441C3.66001 9.81963 3.90323 9.68696 4.14646 9.55429C4.52235 9.33318 4.87614 9.11206 5.25203 8.91306C5.47314 8.78039 5.71637 8.64773 5.93748 8.51506L6.7335 8.05072C6.86616 7.98438 6.99883 7.91805 7.10939 7.8296C7.28628 7.71905 7.50739 7.67482 7.7064 7.69693C7.94962 7.71905 8.19285 7.78538 8.39185 7.91805C8.59085 8.05072 8.81197 8.16127 9.01097 8.27183L9.12153 8.33817L9.03308 8.4045L6.75561 9.73118L6.71138 9.77541C6.60083 9.84174 6.57872 9.93019 6.62294 9.99652C6.66716 10.0629 6.75561 10.085 6.86616 10.0186L7.28628 9.77541L9.38687 8.58139C9.4532 8.53717 9.54165 8.53717 9.58587 8.58139C10.4482 9.08995 11.3327 9.5764 12.195 10.085C12.2835 10.1292 12.3719 10.1955 12.4825 10.2397C12.7036 10.3724 12.792 10.6599 12.6594 10.9031C12.6372 10.9252 12.6372 10.9473 12.6151 10.9694C12.5709 11.0136 12.5267 11.0579 12.4825 11.08C11.4653 11.677 10.4482 12.2519 9.43109 12.8489C9.12153 13.0258 8.83408 13.2027 8.52452 13.3796C8.36974 13.468 8.19285 13.5343 7.99385 13.5565C7.61795 13.6228 7.24206 13.5343 6.9325 13.3132C6.66716 13.1142 6.3576 12.9152 6.04804 12.7383Z" fill="#FF2199"/>
<path d="M22.255 12.0767C22.1887 12.1209 22.1666 12.143 22.1224 12.1651L20.6409 13.0053C20.265 13.2264 19.9112 13.4254 19.5353 13.6466C19.469 13.6908 19.4027 13.6908 19.3363 13.6466C18.9383 13.4033 18.5403 13.1822 18.1423 12.9611L17.5453 12.5852L16.4176 11.9219C16.2186 11.8113 15.9975 11.7008 15.7985 11.5681C15.5995 11.4354 15.3342 11.3249 15.113 11.1701C14.8698 11.0374 14.7593 10.75 14.8256 10.4846C14.8477 10.352 14.9362 10.2414 15.0467 10.153C15.8869 9.66651 16.7272 9.18006 17.5453 8.71572L19.0268 7.85337C19.1815 7.76493 19.3584 7.7207 19.5353 7.7207H19.7122C19.7564 7.7207 19.8007 7.74281 19.8449 7.74281H19.8891C20.0439 7.76493 20.1987 7.80915 20.3092 7.89759L21.5696 8.62727L22.0118 8.89261C22.2108 9.02528 22.255 9.31273 22.1224 9.51173C22.1003 9.55595 22.056 9.60017 22.0118 9.62229C21.3927 9.97607 20.7957 10.3299 20.1987 10.6836C20.1545 10.7057 20.1323 10.7279 20.0881 10.75C20.0439 10.7942 20.0218 10.8384 20.066 10.9047C20.0881 10.949 20.1323 10.9932 20.1987 10.9932C20.2429 10.9932 20.2871 10.9711 20.3313 10.949L21.3485 10.352C21.7023 10.1308 22.056 9.93184 22.4319 9.73284C22.5646 9.66651 22.7194 9.62229 22.852 9.62229C22.9184 9.62229 23.0068 9.62229 23.0732 9.62229C23.1837 9.62229 23.2722 9.6444 23.3606 9.68862L24.3777 10.2635L24.7757 10.4846C24.8642 10.5289 24.8642 10.551 24.7757 10.6173L23.6923 11.2364C23.3385 11.4354 22.9847 11.6565 22.6309 11.8555C22.5646 11.8998 22.4762 11.8998 22.4319 11.8555C22.255 11.745 22.0781 11.6565 21.9234 11.546L21.857 11.5018C21.7907 11.4796 21.7244 11.5018 21.6801 11.546C21.6359 11.6123 21.658 11.6786 21.7244 11.7229L21.8349 11.7892L22.255 12.0767ZM19.4248 10.1751C19.4027 10.153 19.4027 10.1308 19.3806 10.0866C19.3584 10.0645 19.3363 10.0424 19.3142 10.0424L18.1644 9.37906C18.1423 9.35695 18.1202 9.35695 18.0981 9.33484C18.0318 9.31272 17.9654 9.37906 17.9433 9.44539C17.9433 9.48962 17.9433 9.53384 17.9875 9.55595C18.0096 9.57806 18.0318 9.57806 18.0539 9.60017L18.8941 10.0866C19.0047 10.153 19.1373 10.2193 19.2479 10.3077C19.3142 10.3299 19.4027 10.3077 19.4248 10.2414C19.4248 10.2414 19.4248 10.2193 19.4248 10.1751Z" fill="#FF2199"/>
<path d="M17.347 14.9277L17.1701 15.0382L15.6223 15.9227C15.5781 15.9669 15.5118 15.9669 15.4454 15.9227C15.1138 15.7237 14.76 15.5247 14.4283 15.3257L12.8805 14.4412C12.8584 14.4191 12.8142 14.4191 12.7921 14.397C12.7257 14.3528 12.6373 14.3749 12.6152 14.4412C12.5709 14.5076 12.5931 14.596 12.6594 14.6181C12.9247 14.7729 13.168 14.9056 13.4333 15.0604L15.1138 16.0554C15.158 16.0775 15.1801 16.0996 15.2243 16.1217C15.2022 16.1438 15.158 16.1659 15.1138 16.188L14.1187 16.7629C13.9861 16.8514 13.8313 16.9177 13.6986 17.0062C13.6544 17.0283 13.5881 17.0283 13.5438 17.0062C12.3498 16.3207 11.1558 15.6353 9.9618 14.9498L9.25423 14.5297C9.12156 14.4633 9.01101 14.3749 8.92256 14.2643C8.85623 14.198 8.812 14.0875 8.812 13.999C8.78989 13.8663 8.87834 13.7558 8.9889 13.7116C9.29846 13.5347 9.60802 13.3578 9.91757 13.1588L12.9026 11.4562C13.0574 11.3677 13.2343 11.3235 13.4112 11.3014C13.4775 11.2793 13.5438 11.2793 13.6102 11.2793C13.8534 11.2793 14.0966 11.3235 14.3177 11.3677C14.6052 11.4562 14.8484 11.5667 15.1138 11.7215C15.4233 11.8984 15.7329 12.0753 16.0203 12.2522L18.0325 13.4241L18.8727 13.9106C18.8948 13.9327 18.939 13.9548 18.9832 13.9769L18.8948 14.0432C18.5189 14.2643 18.1209 14.4855 17.745 14.7066C17.6787 14.7508 17.5902 14.7508 17.5239 14.7066C16.6616 14.198 15.7771 13.6894 14.8926 13.1809L14.8263 13.1367C14.76 13.1145 14.6936 13.1367 14.6494 13.1809C14.6052 13.2472 14.6494 13.3357 14.6936 13.3578C14.7821 13.4241 14.8705 13.4683 14.9811 13.5347L17.2364 14.8392L17.347 14.9277Z" fill="#FF2199"/>
<path d="M13.2783 10.3737C13.4773 10.3737 13.6763 10.3737 13.8532 10.3958C14.0301 10.4179 14.2291 10.3516 14.406 10.3516C14.3839 10.5506 14.3839 10.7496 14.4502 10.9265H14.2954C14.1186 10.9043 13.9417 10.9043 13.7427 10.9043C13.6321 10.9043 13.5437 10.9043 13.4331 10.9265H13.2783C13.2783 10.838 13.2783 10.7496 13.2783 10.6611C13.3004 10.5506 13.2783 10.4621 13.2783 10.3737Z" fill="#FF2199"/>
</svg>
