<svg width="28" height="28" viewBox="0 0 28 28" fill="none" xmlns="http://www.w3.org/2000/svg">
<path d="M13.9127 24.965V24.8182C13.9127 22.5666 13.9127 20.3151 13.8883 18.0635C13.8883 17.8677 13.8393 17.9166 14.0351 17.7943C14.549 17.5006 14.9406 17.2559 15.479 16.9377L19.6395 14.5148C19.6885 14.4904 19.7129 14.4659 19.7864 14.4414V21.3185C19.8108 21.4653 19.7129 21.6122 19.5906 21.6856C17.7061 22.7624 15.9685 23.7903 14.0596 24.8916C14.0106 24.9161 13.9617 24.9406 13.9127 24.965Z" fill="white"/>
<path d="M20.2754 21.2696V21.0983L20.251 14.931C20.251 14.7107 20.251 14.4904 20.251 14.2946C20.251 14.2212 20.2755 14.1478 20.3489 14.0989C21.0831 13.6828 21.8173 13.2423 22.5515 12.8262L25.4883 11.1131C25.6841 11.0152 25.8554 10.9173 26.0512 10.8194C26.1001 10.7949 26.1491 10.7949 26.198 10.7949C26.198 10.8683 26.198 10.8928 26.198 10.9418V17.6965C26.198 17.8923 26.2225 17.8433 26.0512 17.9657L20.667 21.0983C20.5691 21.1472 20.4712 21.1962 20.3978 21.2696C20.3733 21.2207 20.3489 21.2451 20.2754 21.2696Z" fill="white"/>
<path d="M7.64709 14.0263V20.7565C7.67156 20.9033 7.57367 21.0257 7.4513 21.0747C7.23104 21.1725 6.9863 21.1725 6.74157 21.0991C6.59473 21.0502 6.44789 20.9768 6.30105 20.9033L5.22421 20.267C5.15079 20.2181 5.07737 20.1691 5.00395 20.1202L3.58448 19.3126C3.36422 19.1902 3.14396 19.0678 2.92369 18.921C2.65449 18.7497 2.43422 18.5539 2.23844 18.2847C2.09159 18.0889 1.96923 17.8931 1.87133 17.6728C1.82238 17.5749 1.77344 17.4036 1.77344 17.2078V11.4321C1.77344 11.3097 1.82238 11.2852 1.92028 11.3342C2.09159 11.4321 2.26291 11.5055 2.40975 11.6034L4.61237 12.876L6.22762 13.806C6.2521 13.806 6.27657 13.8305 6.27657 13.855C6.57025 14.0263 6.93736 14.1242 7.27999 14.0752C7.42683 14.0752 7.52472 14.0507 7.64709 14.0263Z" fill="white"/>
<path d="M13.3984 24.9641C13.2515 24.8907 13.0802 24.8172 12.9823 24.7683C12.346 24.4012 11.8565 24.1075 11.2202 23.7404L9.62943 22.8104C9.36022 22.6636 9.09101 22.4678 8.84627 22.272C8.55259 22.0273 8.3568 21.6846 8.23443 21.3175C8.23443 21.2686 8.20996 21.2196 8.20996 21.1707V14.832L8.43022 15.0033C8.69943 15.1991 8.96864 15.3704 9.23785 15.5173C10.6084 16.3249 11.9055 17.0346 13.276 17.8178C13.3494 17.8423 13.3739 17.9157 13.3739 17.9891V18.136V24.7683L13.3984 24.9641Z" fill="white"/>
<path d="M7.57324 6.46301L7.84245 6.31616L9.26192 5.48406C9.31086 5.45959 9.38428 5.45959 9.4577 5.50854L11.9051 6.90353C12.1008 7.0259 12.3211 7.14826 12.5169 7.24616C12.5658 7.27063 12.6393 7.29511 12.6882 7.29511C12.7372 7.29511 12.7861 7.27063 12.8106 7.19721C12.8351 7.14827 12.8106 7.09932 12.7861 7.07484C12.7372 7.05037 12.6882 7.00142 12.6637 6.97695L10.143 5.50854L9.77586 5.31275C9.75139 5.28828 9.72691 5.2638 9.67797 5.23933C9.70244 5.21486 9.75139 5.19038 9.77586 5.16591L11.538 4.13802C11.6114 4.08907 11.7093 4.08907 11.7827 4.13802C12.7372 4.70091 13.6916 5.23933 14.6706 5.80222C14.7195 5.82669 14.7929 5.87564 14.8419 5.90011C14.9153 5.92459 15.0132 5.90011 15.0377 5.82669C15.0866 5.75327 15.0377 5.65538 14.9642 5.63091L14.2056 5.19038L12.1008 3.99118C12.0764 3.9667 12.0274 3.9667 12.0274 3.89328L12.2722 3.74644C12.6882 3.50171 13.0798 3.28145 13.4958 3.03671C13.5693 2.98776 13.6672 2.98776 13.7406 3.03671C14.1811 3.30592 14.6216 3.55065 15.0621 3.79539L15.7229 4.16249L16.7263 4.74986L17.4605 5.16591L18.6842 5.87564C18.8066 5.94906 18.929 6.02248 19.0513 6.0959C19.1003 6.14485 19.1492 6.1938 19.1982 6.24274C19.345 6.41406 19.3205 6.65879 19.1492 6.78116C19.1247 6.80564 19.1003 6.80564 19.0758 6.83011C18.2192 7.31958 17.3627 7.83352 16.4816 8.32299C15.9187 8.66562 15.3314 8.98378 14.7685 9.32641C14.4503 9.5222 14.0587 9.62009 13.6672 9.59562C13.3979 9.59562 13.1532 9.57115 12.884 9.49773C12.8106 9.47325 12.7372 9.44878 12.6882 9.4243L8.91929 7.24616C8.52771 7.0259 8.11166 6.78116 7.72008 6.53643C7.64666 6.51195 7.59772 6.48748 7.57324 6.46301Z" fill="white"/>
<path d="M5.19958 12.6056C5.22406 12.5811 5.273 12.5567 5.29748 12.5322L7.69588 11.1617L7.81825 11.0883C7.91615 11.0393 7.91615 10.9904 7.8672 10.8925C7.84272 10.819 7.7693 10.7701 7.69588 10.819C7.67141 10.8435 7.62246 10.8435 7.59799 10.868L5.44432 12.0917L4.85695 12.4343L4.29406 12.1161L3.85354 11.8469L2.50749 11.0638L2.26276 10.9169C2.0425 10.7946 1.89566 10.5743 1.84671 10.3541C1.77329 10.1338 1.84671 9.88905 2.01802 9.74221C2.11592 9.66879 2.18934 9.59537 2.28723 9.54642C2.55644 9.37511 2.82565 9.22827 3.09486 9.08143C3.51091 8.83669 3.90249 8.59196 4.31854 8.37169C4.56327 8.22485 4.83248 8.07801 5.07722 7.93117L5.95826 7.41723C6.1051 7.34381 6.25195 7.27039 6.37431 7.17249C6.5701 7.05012 6.81484 7.00118 7.0351 7.02565C7.30431 7.05012 7.57352 7.12354 7.79378 7.27039C8.01404 7.41723 8.25877 7.53959 8.47904 7.66196L8.6014 7.73538L8.50351 7.8088L5.98274 9.27722L5.93379 9.32616C5.81142 9.39958 5.78695 9.49748 5.8359 9.5709C5.88484 9.64432 5.98274 9.66879 6.1051 9.59537L6.5701 9.32616L8.89509 8.00459C8.96851 7.95564 9.0664 7.95564 9.11535 8.00459C10.0698 8.56748 11.0488 9.1059 12.0032 9.66879C12.1011 9.71774 12.199 9.79116 12.3214 9.84011C12.5661 9.98695 12.664 10.3051 12.5172 10.5743C12.4927 10.5988 12.4927 10.6233 12.4682 10.6477C12.4193 10.6967 12.3703 10.7456 12.3214 10.7701C11.1956 11.4309 10.0698 12.0672 8.94403 12.728C8.6014 12.9238 8.28325 13.1196 7.94062 13.3153C7.7693 13.4132 7.57352 13.4867 7.35325 13.5111C6.9372 13.5846 6.52115 13.4867 6.17852 13.2419C5.88484 13.0217 5.54221 12.8014 5.19958 12.6056Z" fill="white"/>
<path d="M23.1386 11.8721C23.0652 11.921 23.0407 11.9455 22.9918 11.97L21.3521 12.9C20.936 13.1447 20.5444 13.365 20.1284 13.6097C20.055 13.6586 19.9815 13.6586 19.9081 13.6097C19.4676 13.3405 19.0271 13.0957 18.5865 12.851L17.9258 12.435L16.6776 11.7008C16.4573 11.5784 16.2126 11.456 15.9924 11.3092C15.7721 11.1623 15.4784 11.04 15.2337 10.8687C14.9645 10.7218 14.8421 10.4037 14.9155 10.11C14.94 9.96313 15.0379 9.84076 15.1603 9.74287C16.0902 9.20445 17.0202 8.66603 17.9258 8.15209L19.5655 7.19762C19.7368 7.09973 19.9326 7.05078 20.1284 7.05078H20.3242C20.3731 7.05078 20.4221 7.07525 20.471 7.07525H20.52C20.6913 7.09973 20.8626 7.14868 20.985 7.24657L22.3799 8.0542L22.8694 8.34788C23.0897 8.49472 23.1386 8.81288 22.9918 9.03314C22.9673 9.08208 22.9184 9.13103 22.8694 9.15551C22.1842 9.54708 21.5234 9.93866 20.8626 10.3302C20.8136 10.3547 20.7892 10.3792 20.7402 10.4037C20.6913 10.4526 20.6668 10.5015 20.7157 10.575C20.7402 10.6239 20.7892 10.6729 20.8626 10.6729C20.9115 10.6729 20.9605 10.6484 21.0094 10.6239L22.1352 9.96313C22.5268 9.7184 22.9184 9.49814 23.3344 9.27787C23.4813 9.20445 23.6526 9.15551 23.7994 9.15551C23.8728 9.15551 23.9707 9.15551 24.0441 9.15551C24.1665 9.15551 24.2644 9.17998 24.3623 9.22893L25.4881 9.86524L25.9286 10.11C26.0265 10.1589 26.0265 10.1834 25.9286 10.2568L24.7294 10.9421C24.3378 11.1623 23.9463 11.4071 23.5547 11.6273C23.4813 11.6763 23.3834 11.6763 23.3344 11.6273C23.1386 11.505 22.9428 11.4071 22.7715 11.2847L22.6981 11.2358C22.6247 11.2113 22.5513 11.2358 22.5023 11.2847C22.4534 11.3581 22.4778 11.4315 22.5513 11.4805L22.6736 11.5539L23.1386 11.8721ZM20.006 9.76734C19.9815 9.74287 19.9815 9.7184 19.9571 9.66945C19.9326 9.64498 19.9081 9.6205 19.8836 9.6205L18.611 8.8863C18.5865 8.86182 18.5621 8.86182 18.5376 8.83735C18.4642 8.81288 18.3908 8.8863 18.3663 8.95972C18.3663 9.00866 18.3663 9.05761 18.4152 9.08208C18.4397 9.10656 18.4642 9.10656 18.4887 9.13103L19.4186 9.66945C19.541 9.74287 19.6879 9.81629 19.8102 9.91418C19.8836 9.93866 19.9815 9.91419 20.006 9.84076C20.006 9.84076 20.006 9.81629 20.006 9.76734Z" fill="white"/>
<path d="M17.7054 15.0284L17.5096 15.1507L15.7965 16.1297C15.7476 16.1786 15.6741 16.1786 15.6007 16.1297C15.2336 15.9094 14.842 15.6892 14.4749 15.4689L12.7618 14.49C12.7373 14.4655 12.6884 14.4655 12.6639 14.441C12.5905 14.3921 12.4926 14.4165 12.4681 14.49C12.4192 14.5634 12.4436 14.6613 12.5171 14.6857C12.8107 14.8571 13.0799 15.0039 13.3736 15.1752L15.2336 16.2765C15.2826 16.301 15.307 16.3255 15.356 16.3499C15.3315 16.3744 15.2826 16.3989 15.2336 16.4234L14.1323 17.0597C13.9855 17.1576 13.8141 17.231 13.6673 17.3289C13.6184 17.3534 13.5449 17.3534 13.496 17.3289C12.1744 16.5702 10.8529 15.8115 9.53128 15.0528L8.74813 14.5878C8.60129 14.5144 8.47892 14.4165 8.38103 14.2942C8.30761 14.2207 8.25866 14.0984 8.25866 14.0005C8.23418 13.8536 8.33208 13.7313 8.45445 13.6823C8.79708 13.4865 9.1397 13.2908 9.48233 13.0705L12.7863 11.186C12.9576 11.0881 13.1534 11.0392 13.3491 11.0147C13.4226 10.9902 13.496 10.9902 13.5694 10.9902C13.8386 10.9902 14.1078 11.0392 14.3526 11.0881C14.6707 11.186 14.9399 11.3084 15.2336 11.4797C15.5762 11.6755 15.9189 11.8713 16.237 12.0671L18.4641 13.3642L19.3941 13.9026C19.4186 13.9271 19.4675 13.9515 19.5165 13.976L19.4186 14.0494C19.0025 14.2942 18.562 14.5389 18.146 14.7836C18.0725 14.8326 17.9746 14.8326 17.9012 14.7836C16.9468 14.2207 15.9678 13.6579 14.9889 13.095L14.9155 13.046C14.842 13.0215 14.7686 13.046 14.7197 13.095C14.6707 13.1684 14.7197 13.2663 14.7686 13.2907C14.8665 13.3642 14.9644 13.4131 15.0868 13.4865L17.5831 14.9305L17.7054 15.0284Z" fill="white"/>
<path d="M13.2021 9.98736C13.4224 9.98736 13.6427 9.98736 13.8385 10.0118C14.0342 10.0363 14.2545 9.96289 14.4503 9.96289C14.4258 10.1832 14.4258 10.4034 14.4992 10.5992H14.3279C14.1321 10.5747 13.9364 10.5747 13.7161 10.5747C13.5937 10.5747 13.4958 10.5747 13.3735 10.5992H13.2021C13.2021 10.5013 13.2021 10.4034 13.2021 10.3055C13.2266 10.1832 13.2021 10.0853 13.2021 9.98736Z" fill="white"/>
</svg>
