<svg xmlns="http://www.w3.org/2000/svg" width="360" height="35" viewBox="0 0 360 35" fill="none">
    <mask id="path-1-inside-1_96458_54783" fill="white">
        <path fill-rule="evenodd" clip-rule="evenodd"
            d="M124.153 7.00051H354C357.314 7.00051 360 9.6868 360 13.0005V29.0005C360 32.3142 357.314 35.0005 354 35.0005H5.99999C2.68629 35.0005 0 32.3142 0 29.0005V13.0005C0 9.6868 2.68629 7.00051 6 7.00051H115.053L118.973 1.27126C119.381 0.673814 120.27 0.695186 120.649 1.31159L124.153 7.00051Z" />
    </mask>
    <path fill-rule="evenodd" clip-rule="evenodd"
        d="M124.153 7.00051H354C357.314 7.00051 360 9.6868 360 13.0005V29.0005C360 32.3142 357.314 35.0005 354 35.0005H5.99999C2.68629 35.0005 0 32.3142 0 29.0005V13.0005C0 9.6868 2.68629 7.00051 6 7.00051H115.053L118.973 1.27126C119.381 0.673814 120.27 0.695186 120.649 1.31159L124.153 7.00051Z"
        fill="url(#paint0_linear_96458_54783)" fill-opacity="0.1" />
    <path
        d="M124.153 7.00051L123.301 7.52486L123.594 8.00051H124.153V7.00051ZM115.053 7.00051V8.00051H115.58L115.878 7.56519L115.053 7.00051ZM118.973 1.27126L119.798 1.83594V1.83594L118.973 1.27126ZM120.649 1.31159L119.798 1.83594V1.83594L120.649 1.31159ZM124.153 8.00051H354V6.00051H124.153V8.00051ZM354 8.00051C356.761 8.00051 359 10.2391 359 13.0005H361C361 9.13452 357.866 6.00051 354 6.00051V8.00051ZM359 13.0005V29.0005H361V13.0005H359ZM359 29.0005C359 31.7619 356.761 34.0005 354 34.0005V36.0005C357.866 36.0005 361 32.8665 361 29.0005H359ZM354 34.0005H5.99999V36.0005H354V34.0005ZM5.99999 34.0005C3.23857 34.0005 1 31.7619 1 29.0005H-1C-1 32.8665 2.134 36.0005 5.99999 36.0005V34.0005ZM1 29.0005V13.0005H-1V29.0005H1ZM1 13.0005C1 10.2391 3.23858 8.00051 6 8.00051V6.00051C2.13401 6.00051 -1 9.13452 -1 13.0005H1ZM6 8.00051H115.053V6.00051H6V8.00051ZM115.878 7.56519L119.798 1.83594L118.147 0.706574L114.227 6.43583L115.878 7.56519ZM119.798 1.83594V1.83594L121.501 0.787248C120.742 -0.445571 118.965 -0.488315 118.147 0.706577L119.798 1.83594ZM119.798 1.83594L123.301 7.52486L125.004 6.47616L121.501 0.787247L119.798 1.83594Z"
        fill="url(#paint1_linear_96458_54783)" mask="url(#path-1-inside-1_96458_54783)" />
    <defs>
        <linearGradient id="paint0_linear_96458_54783" x1="51" y1="7.00009" x2="267.522" y2="146.191"
            gradientUnits="userSpaceOnUse">
            <stop stop-color="#60BCFF" />
            <stop offset="1" stop-color="#9570FF" />
        </linearGradient>
        <linearGradient id="paint1_linear_96458_54783" x1="0" y1="18.8829" x2="360" y2="18.8829"
            gradientUnits="userSpaceOnUse">
            <stop stop-color="#60BCFF" />
            <stop offset="1" stop-color="#9671FF" />
        </linearGradient>
    </defs>
</svg>