<svg width="360" height="46" viewBox="0 0 360 46" fill="none" xmlns="http://www.w3.org/2000/svg">
<mask id="path-1-inside-1_96739_27410" fill="white">
<path fill-rule="evenodd" clip-rule="evenodd" d="M124.051 5.99953H354C357.314 5.99953 360 8.68583 360 11.9995V39.9995C360 43.3132 357.314 45.9995 354 45.9995H5.99999C2.68629 45.9995 0 43.3132 0 39.9995V11.9995C0 8.68582 2.68629 5.99953 6 5.99953H115.166L118.973 0.435321C119.381 -0.162123 120.27 -0.140752 120.649 0.475657L124.051 5.99953Z"/>
</mask>
<path fill-rule="evenodd" clip-rule="evenodd" d="M124.051 5.99953H354C357.314 5.99953 360 8.68583 360 11.9995V39.9995C360 43.3132 357.314 45.9995 354 45.9995H5.99999C2.68629 45.9995 0 43.3132 0 39.9995V11.9995C0 8.68582 2.68629 5.99953 6 5.99953H115.166L118.973 0.435321C119.381 -0.162123 120.27 -0.140752 120.649 0.475657L124.051 5.99953Z" fill="url(#paint0_linear_96739_27410)" fill-opacity="0.1"/>
<path d="M124.051 5.99953L123.2 6.52388L123.492 6.99953H124.051V5.99953ZM115.166 5.99953V6.99953H115.693L115.991 6.56422L115.166 5.99953ZM118.973 0.435321L119.798 1.00001V1L118.973 0.435321ZM120.649 0.475657L119.798 1V1L120.649 0.475657ZM124.051 6.99953H354V4.99953H124.051V6.99953ZM354 6.99953C356.761 6.99953 359 9.23811 359 11.9995H361C361 8.13354 357.866 4.99953 354 4.99953V6.99953ZM359 11.9995V39.9995H361V11.9995H359ZM359 39.9995C359 42.761 356.761 44.9995 354 44.9995V46.9995C357.866 46.9995 361 43.8655 361 39.9995H359ZM354 44.9995H5.99999V46.9995H354V44.9995ZM5.99999 44.9995C3.23857 44.9995 1 42.761 1 39.9995H-1C-1 43.8655 2.134 46.9995 5.99999 46.9995V44.9995ZM1 39.9995V11.9995H-1V39.9995H1ZM1 11.9995C1 9.23811 3.23858 6.99953 6 6.99953V4.99953C2.13401 4.99953 -1 8.13354 -1 11.9995H1ZM6 6.99953H115.166V4.99953H6V6.99953ZM115.991 6.56422L119.798 1.00001L118.147 -0.129363L114.34 5.43485L115.991 6.56422ZM119.798 1V1L121.501 -0.04869C120.742 -1.28151 118.965 -1.32425 118.147 -0.12936L119.798 1ZM119.798 1L123.2 6.52388L124.903 5.47519L121.501 -0.0486902L119.798 1Z" fill="url(#paint1_linear_96739_27410)" mask="url(#path-1-inside-1_96739_27410)"/>
<defs>
<linearGradient id="paint0_linear_96739_27410" x1="51" y1="6.16409" x2="267.52" y2="145.355" gradientUnits="userSpaceOnUse">
<stop stop-color="#60BCFF"/>
<stop offset="1" stop-color="#9570FF"/>
</linearGradient>
<linearGradient id="paint1_linear_96739_27410" x1="0" y1="18.0468" x2="360" y2="18.0468" gradientUnits="userSpaceOnUse">
<stop stop-color="#60BCFF"/>
<stop offset="1" stop-color="#9671FF"/>
</linearGradient>
</defs>
</svg>
