<svg xmlns="http://www.w3.org/2000/svg" width="20" height="20" viewBox="0 0 20 20" fill="none">
<path d="M12.6686 16.9719V9.52841H13.1734C13.4478 9.52841 13.6782 9.75912 13.6782 10.0384V14.7741C13.6782 15.9883 14.6439 16.9719 15.8401 16.9719C17.0362 16.9719 18.002 15.9883 18.002 14.7741V5.66702C18.002 5.19345 17.8044 4.75631 17.4972 4.45275L15.7303 2.66777C15.4121 2.33991 14.8963 2.33991 14.5781 2.66777C14.2598 2.99562 14.2598 3.51776 14.5781 3.84561L15.7194 5.01131C16.1404 5.66702 16.3339 5.88695 16.3339 7.17272V14.7862C16.3339 15.0655 16.1144 15.2962 15.8291 15.2962C15.5548 15.2962 15.3243 15.0655 15.3243 14.7862V10.0505C15.3243 8.83627 14.3586 7.85271 13.1624 7.85271H12.6686V3.79704C12.6686 3.04419 12.076 2.4492 11.3298 2.4492H4.3394C3.60415 2.4492 3.00058 3.05633 3.00058 3.79704V16.9719H2.83597C2.37507 16.9719 2.00195 17.3483 2.00195 17.8219C2.00195 18.2955 2.37507 18.6719 2.83597 18.6719H12.8332C13.2941 18.6719 13.6672 18.2955 13.6672 17.8219C13.6672 17.3483 13.2941 16.9719 12.8332 16.9719H12.6686ZM5.40387 4.12489H10.2653C10.6714 4.12489 11.0006 4.45275 11.0006 4.8656V8.4477C11.0006 8.86056 10.6714 9.18841 10.2653 9.18841H5.40387C4.99784 9.18841 4.66862 8.86056 4.66862 8.4477V4.8656C4.66862 4.45275 4.99784 4.12489 5.40387 4.12489Z" fill="currentColor"/>
</svg>
