<svg xmlns="http://www.w3.org/2000/svg" width="16" height="16" viewBox="0 0 16 16" fill="none">
    <g clip-path="url(#clip0_97031_37497)">
        <path
            d="M8.83529 7.33171H4.82096C4.5548 7.33171 4.29953 7.22597 4.11132 7.03777C3.92312 6.84956 3.81738 6.59429 3.81738 6.32813V4.32096C3.81738 4.0548 3.92312 3.79953 4.11132 3.61132C4.29953 3.42312 4.5548 3.31738 4.82096 3.31738H8.83529C9.10146 3.31738 9.35672 3.42312 9.54493 3.61132C9.73314 3.79953 9.83887 4.0548 9.83887 4.32096V6.32813C9.83887 6.59429 9.73314 6.84956 9.54493 7.03777C9.35672 7.22597 9.10146 7.33171 8.83529 7.33171V7.33171ZM4.82096 3.98644C4.73224 3.98644 4.64715 4.02168 4.58442 4.08442C4.52168 4.14715 4.48644 4.23224 4.48644 4.32096V6.32813C4.48644 6.41685 4.52168 6.50194 4.58442 6.56467C4.64715 6.62741 4.73224 6.66265 4.82096 6.66265H8.83529C8.92401 6.66265 9.0091 6.62741 9.07184 6.56467C9.13457 6.50194 9.16982 6.41685 9.16982 6.32813V4.32096C9.16982 4.23224 9.13457 4.14715 9.07184 4.08442C9.0091 4.02168 8.92401 3.98644 8.83529 3.98644H4.82096Z"
            fill="var(--r-neutral-title-1, #192945)" stroke="var(--r-neutral-title-1, #192945)"
            stroke-width="0.285714" />
        <path fill-rule="evenodd" clip-rule="evenodd"
            d="M12 15C13.6569 15 15 13.6569 15 12C15 10.3431 13.6569 9 12 9C10.3431 9 9 10.3431 9 12C9 13.6569 10.3431 15 12 15ZM12 10.125C12.2071 10.125 12.375 10.2929 12.375 10.5V12.25C12.375 12.4571 12.2071 12.625 12 12.625C11.7929 12.625 11.625 12.4571 11.625 12.25V10.5C11.625 10.2929 11.7929 10.125 12 10.125ZM12.5 13.5C12.5 13.7761 12.2761 14 12 14C11.7239 14 11.5 13.7761 11.5 13.5C11.5 13.2239 11.7239 13 12 13C12.2761 13 12.5 13.2239 12.5 13.5Z"
            fill="var(--r-neutral-title-1, #192945)" />
        <path
            d="M13.6539 4.15511L14.7244 5.99501C14.8145 6.15156 14.8608 6.32955 14.8582 6.51018V9.20246C14.656 8.99619 14.4317 8.81171 14.1891 8.65289V6.4968C14.1895 6.4382 14.1745 6.38052 14.1456 6.32954L13.0752 4.48964C13.051 4.45156 13.0347 4.40899 13.0274 4.36447C13.0201 4.31995 13.0218 4.27441 13.0325 4.23059C13.0433 4.18676 13.0628 4.14557 13.0898 4.10947C13.1169 4.07338 13.151 4.04313 13.1901 4.02055C13.2291 3.99797 13.2723 3.98353 13.3171 3.97809C13.3619 3.97265 13.4073 3.97632 13.4507 3.98889C13.494 4.00146 13.5343 4.02267 13.5693 4.05124C13.6042 4.0798 13.633 4.11513 13.6539 4.15511Z"
            fill="var(--r-neutral-title-1, #192945)" />
        <path
            d="M12.851 8.09243V6.32954C12.851 6.06337 12.7453 5.80811 12.5571 5.6199C12.3689 5.43169 12.1136 5.32596 11.8474 5.32596H11.1784V2.98427C11.1784 2.36321 10.9317 1.7676 10.4925 1.32844C10.0534 0.889291 9.45775 0.642578 8.8367 0.642578H4.82238C4.20132 0.642578 3.6057 0.889291 3.16655 1.32844C2.7274 1.7676 2.48069 2.36321 2.48069 2.98427V14.6927H1.47711C1.38838 14.6927 1.30329 14.728 1.24056 14.7907C1.17782 14.8534 1.14258 14.9385 1.14258 15.0272C1.14258 15.116 1.17782 15.2011 1.24056 15.2638C1.30329 15.3265 1.38838 15.3618 1.47711 15.3618H9.82961C9.53864 15.1733 9.27371 14.9481 9.04138 14.6927H3.14974V2.98427C3.14974 2.54066 3.32596 2.11522 3.63964 1.80154C3.95332 1.48786 4.37877 1.31163 4.82238 1.31163H8.8367C9.05635 1.31163 9.27386 1.3549 9.47679 1.43895C9.67972 1.52301 9.86411 1.64622 10.0194 1.80154C10.1748 1.95685 10.298 2.14124 10.382 2.34418C10.4661 2.54711 10.5093 2.76461 10.5093 2.98427V8.2894C10.7238 8.20315 10.9474 8.13494 11.1784 8.08665V5.99501H11.8474C11.8914 5.99501 11.9349 6.00366 11.9755 6.02048C12.016 6.03729 12.0529 6.06193 12.084 6.09299C12.1151 6.12406 12.1397 6.16093 12.1565 6.20152C12.1733 6.24211 12.182 6.28561 12.182 6.32954V8.00597C12.4105 8.01614 12.634 8.04548 12.851 8.09243Z"
            fill="var(--r-neutral-title-1, #192945)" />
        <path
            d="M13.6539 4.15511L14.7244 5.99501C14.8145 6.15156 14.8608 6.32955 14.8582 6.51018V9.20246C14.656 8.99619 14.4317 8.81171 14.1891 8.65289V6.4968C14.1895 6.4382 14.1745 6.38052 14.1456 6.32954L13.0752 4.48964C13.051 4.45156 13.0347 4.40899 13.0274 4.36447C13.0201 4.31995 13.0218 4.27441 13.0325 4.23059C13.0433 4.18676 13.0628 4.14557 13.0898 4.10947C13.1169 4.07338 13.151 4.04313 13.1901 4.02055C13.2291 3.99797 13.2723 3.98353 13.3171 3.97809C13.3619 3.97265 13.4073 3.97632 13.4507 3.98889C13.494 4.00146 13.5343 4.02267 13.5693 4.05124C13.6042 4.0798 13.633 4.11513 13.6539 4.15511Z"
            stroke="var(--r-neutral-title-1, #192945)" stroke-width="0.4" />
        <path
            d="M12.851 8.09243V6.32954C12.851 6.06337 12.7453 5.80811 12.5571 5.6199C12.3689 5.43169 12.1136 5.32596 11.8474 5.32596H11.1784V2.98427C11.1784 2.36321 10.9317 1.7676 10.4925 1.32844C10.0534 0.889291 9.45775 0.642578 8.8367 0.642578H4.82238C4.20132 0.642578 3.6057 0.889291 3.16655 1.32844C2.7274 1.7676 2.48069 2.36321 2.48069 2.98427V14.6927H1.47711C1.38838 14.6927 1.30329 14.728 1.24056 14.7907C1.17782 14.8534 1.14258 14.9385 1.14258 15.0272C1.14258 15.116 1.17782 15.2011 1.24056 15.2638C1.30329 15.3265 1.38838 15.3618 1.47711 15.3618H9.82961C9.53864 15.1733 9.27371 14.9481 9.04138 14.6927H3.14974V2.98427C3.14974 2.54066 3.32596 2.11522 3.63964 1.80154C3.95332 1.48786 4.37877 1.31163 4.82238 1.31163H8.8367C9.05635 1.31163 9.27386 1.3549 9.47679 1.43895C9.67972 1.52301 9.86411 1.64622 10.0194 1.80154C10.1748 1.95685 10.298 2.14124 10.382 2.34418C10.4661 2.54711 10.5093 2.76461 10.5093 2.98427V8.2894C10.7238 8.20315 10.9474 8.13494 11.1784 8.08665V5.99501H11.8474C11.8914 5.99501 11.9349 6.00366 11.9755 6.02048C12.016 6.03729 12.0529 6.06193 12.084 6.09299C12.1151 6.12406 12.1397 6.16093 12.1565 6.20152C12.1733 6.24211 12.182 6.28561 12.182 6.32954V8.00597C12.4105 8.01614 12.634 8.04548 12.851 8.09243Z"
            stroke="var(--r-neutral-title-1, #192945)" stroke-width="0.4" />
    </g>
    <defs>
        <clipPath id="clip0_97031_37497">
            <rect width="16" height="16" fill="var(--r-neutral-title-2)" />
        </clipPath>
    </defs>
</svg>