<svg xmlns="http://www.w3.org/2000/svg" width="16" height="16" viewBox="0 0 16 16" fill="none">
    <g clip-path="url(#clip0_107365_82668)">
        <path
            d="M8.83431 7.33464H4.81999C4.55382 7.33464 4.29856 7.2289 4.11035 7.04069C3.92214 6.85249 3.81641 6.59722 3.81641 6.33106V4.32389C3.81641 4.05773 3.92214 3.80246 4.11035 3.61425C4.29856 3.42605 4.55382 3.32031 4.81999 3.32031H8.83431C9.10048 3.32031 9.35574 3.42605 9.54395 3.61425C9.73216 3.80246 9.83789 4.05773 9.83789 4.32389V6.33106C9.83789 6.59722 9.73216 6.85249 9.54395 7.04069C9.35574 7.2289 9.10048 7.33464 8.83431 7.33464ZM4.81999 3.98937C4.73127 3.98937 4.64618 4.02461 4.58344 4.08735C4.52071 4.15008 4.48546 4.23517 4.48546 4.32389V6.33106C4.48546 6.41978 4.52071 6.50487 4.58344 6.5676C4.64618 6.63034 4.73127 6.66558 4.81999 6.66558H8.83431C8.92303 6.66558 9.00812 6.63034 9.07086 6.5676C9.13359 6.50487 9.16884 6.41978 9.16884 6.33106V4.32389C9.16884 4.23517 9.13359 4.15008 9.07086 4.08735C9.00812 4.02461 8.92303 3.98937 8.83431 3.98937H4.81999Z"
            fill="var(--r-neutral-foot, #6A7587)" stroke="var(--r-neutral-foot, #6A7587)" stroke-width="0.285714" />
        <path
            d="M12 15C13.6569 15 15 13.6569 15 12C15 10.3431 13.6569 9 12 9C10.3431 9 9 10.3431 9 12C9 13.6569 10.3431 15 12 15Z"
            fill="var(--r-neutral-foot, #6A7587)" />
        <path d="M12 12.25V10.5" stroke="var(--r-neutral-title2, #FFF)" stroke-width="0.75" stroke-linecap="round"
            stroke-linejoin="round" />
        <path
            d="M12 14C12.2761 14 12.5 13.7761 12.5 13.5C12.5 13.2239 12.2761 13 12 13C11.7239 13 11.5 13.2239 11.5 13.5C11.5 13.7761 11.7239 14 12 14Z"
            fill="var(--r-neutral-title2, #FFF)" />
        <path
            d="M13.6558 4.15316L14.7263 5.99306C14.8165 6.14961 14.8627 6.32759 14.8601 6.50823V9.20051C14.658 8.99423 14.4337 8.80976 14.1911 8.65093V6.49485C14.1915 6.43625 14.1765 6.37857 14.1476 6.32759L13.0771 4.48769C13.0529 4.44961 13.0367 4.40703 13.0293 4.36251C13.022 4.318 13.0238 4.27245 13.0345 4.22863C13.0452 4.18481 13.0647 4.14361 13.0918 4.10752C13.1189 4.07142 13.153 4.04118 13.192 4.0186C13.2311 3.99602 13.2743 3.98158 13.3191 3.97613C13.3639 3.97069 13.4093 3.97437 13.4526 3.98694C13.496 3.99951 13.5363 4.02072 13.5712 4.04928C13.6061 4.07785 13.6349 4.11318 13.6558 4.15316Z"
            fill="var(--r-neutral-foot, #6A7587)" />
        <path
            d="M12.853 8.09048V6.32759C12.853 6.06142 12.7472 5.80615 12.559 5.61795C12.3708 5.42974 12.1156 5.324 11.8494 5.324H11.1803V2.98231C11.1803 2.36126 10.9336 1.76564 10.4945 1.32649C10.0553 0.887338 9.45971 0.640625 8.83865 0.640625H4.82433C4.20327 0.640625 3.60766 0.887338 3.1685 1.32649C2.72935 1.76564 2.48264 2.36126 2.48264 2.98231V14.6908H1.47906C1.39034 14.6908 1.30525 14.726 1.24251 14.7887C1.17978 14.8515 1.14453 14.9366 1.14453 15.0253C1.14453 15.114 1.17978 15.1991 1.24251 15.2618C1.30525 15.3246 1.39034 15.3598 1.47906 15.3598H9.83156C9.5406 15.1714 9.27566 14.9462 9.04333 14.6908H3.15169V2.98231C3.15169 2.5387 3.32792 2.11326 3.6416 1.79958C3.95528 1.4859 4.38072 1.30968 4.82433 1.30968H8.83865C9.05831 1.30968 9.27581 1.35294 9.47874 1.437C9.68168 1.52106 9.86607 1.64426 10.0214 1.79958C10.1767 1.9549 10.2999 2.13929 10.384 2.34222C10.468 2.54516 10.5113 2.76266 10.5113 2.98231V8.28744C10.7257 8.20119 10.9494 8.13298 11.1803 8.0847V5.99306H11.8494C11.8933 5.99306 11.9368 6.00171 11.9774 6.01852C12.018 6.03533 12.0549 6.05998 12.0859 6.09104C12.117 6.1221 12.1416 6.15898 12.1585 6.19957C12.1753 6.24015 12.1839 6.28365 12.1839 6.32759V8.00402C12.4125 8.01418 12.636 8.04353 12.853 8.09048Z"
            fill="var(--r-neutral-foot, #6A7587)" />
        <path
            d="M13.6558 4.15316L14.7263 5.99306C14.8165 6.14961 14.8627 6.32759 14.8601 6.50823V9.20051C14.658 8.99423 14.4337 8.80976 14.1911 8.65093V6.49485C14.1915 6.43625 14.1765 6.37857 14.1476 6.32759L13.0771 4.48769C13.0529 4.44961 13.0367 4.40703 13.0293 4.36251C13.022 4.318 13.0238 4.27245 13.0345 4.22863C13.0452 4.18481 13.0647 4.14361 13.0918 4.10752C13.1189 4.07142 13.153 4.04118 13.192 4.0186C13.2311 3.99602 13.2743 3.98158 13.3191 3.97613C13.3639 3.97069 13.4093 3.97437 13.4526 3.98694C13.496 3.99951 13.5363 4.02072 13.5712 4.04928C13.6061 4.07785 13.6349 4.11318 13.6558 4.15316Z"
            stroke="var(--r-neutral-foot, #6A7587)" stroke-width="0.4" />
        <path
            d="M12.853 8.09048V6.32759C12.853 6.06142 12.7472 5.80615 12.559 5.61795C12.3708 5.42974 12.1156 5.324 11.8494 5.324H11.1803V2.98231C11.1803 2.36126 10.9336 1.76564 10.4945 1.32649C10.0553 0.887338 9.45971 0.640625 8.83865 0.640625H4.82433C4.20327 0.640625 3.60766 0.887338 3.1685 1.32649C2.72935 1.76564 2.48264 2.36126 2.48264 2.98231V14.6908H1.47906C1.39034 14.6908 1.30525 14.726 1.24251 14.7887C1.17978 14.8515 1.14453 14.9366 1.14453 15.0253C1.14453 15.114 1.17978 15.1991 1.24251 15.2618C1.30525 15.3246 1.39034 15.3598 1.47906 15.3598H9.83156C9.5406 15.1714 9.27566 14.9462 9.04333 14.6908H3.15169V2.98231C3.15169 2.5387 3.32792 2.11326 3.6416 1.79958C3.95528 1.4859 4.38072 1.30968 4.82433 1.30968H8.83865C9.05831 1.30968 9.27581 1.35294 9.47874 1.437C9.68168 1.52106 9.86607 1.64426 10.0214 1.79958C10.1767 1.9549 10.2999 2.13929 10.384 2.34222C10.468 2.54516 10.5113 2.76266 10.5113 2.98231V8.28744C10.7257 8.20119 10.9494 8.13298 11.1803 8.0847V5.99306H11.8494C11.8933 5.99306 11.9368 6.00171 11.9774 6.01852C12.018 6.03533 12.0549 6.05998 12.0859 6.09104C12.117 6.1221 12.1416 6.15898 12.1585 6.19957C12.1753 6.24015 12.1839 6.28365 12.1839 6.32759V8.00402C12.4125 8.01418 12.636 8.04353 12.853 8.09048Z"
            stroke="var(--r-neutral-foot, #6A7587)" stroke-width="0.4" />
    </g>
    <defs>
        <clipPath id="clip0_107365_82668">
            <rect width="16" height="16" fill="var(--r-neutral-title2, #FFF)" />
        </clipPath>
    </defs>
</svg>