<svg xmlns="http://www.w3.org/2000/svg" width="20" height="20" viewBox="0 0 20 20" fill="none">
    <path fill-rule="evenodd" clip-rule="evenodd"
        d="M12.4996 17.272C11.7252 17.536 10.8949 17.6793 10.0311 17.6793C5.80921 17.6793 2.38672 14.2568 2.38672 10.035C2.38672 5.81311 5.80921 2.39062 10.0311 2.39062C14.2529 2.39062 17.6754 5.81311 17.6754 10.035C17.6754 10.7674 17.5724 11.4757 17.3801 12.1463C16.9732 12.001 16.5349 11.9219 16.0781 11.9219C13.9402 11.9219 12.207 13.655 12.207 15.793C12.207 16.3168 12.3111 16.8163 12.4996 17.272Z"
        fill="#7084FF" />
    <path
        d="M12.4996 17.272L12.7013 17.8635C12.8648 17.8078 12.9979 17.6869 13.069 17.5296C13.1402 17.3723 13.1431 17.1926 13.0771 17.033L12.4996 17.272ZM17.3801 12.1463L17.1699 12.7349C17.3326 12.7929 17.5119 12.7812 17.6656 12.7023C17.8192 12.6234 17.9333 12.4845 17.9809 12.3186L17.3801 12.1463ZM10.0311 18.3043C10.9644 18.3043 11.8628 18.1495 12.7013 17.8635L12.2979 16.6804C11.5876 16.9226 10.8253 17.0543 10.0311 17.0543V18.3043ZM1.76172 10.035C1.76172 14.602 5.46403 18.3043 10.0311 18.3043V17.0543C6.15439 17.0543 3.01172 13.9117 3.01172 10.035H1.76172ZM10.0311 1.76562C5.46403 1.76562 1.76172 5.46794 1.76172 10.035H3.01172C3.01172 6.15829 6.15439 3.01562 10.0311 3.01562V1.76562ZM18.3004 10.035C18.3004 5.46794 14.5981 1.76562 10.0311 1.76562V3.01562C13.9077 3.01562 17.0504 6.15829 17.0504 10.035H18.3004ZM17.9809 12.3186C18.1891 11.5925 18.3004 10.8262 18.3004 10.035H17.0504C17.0504 10.7085 16.9557 11.3589 16.7793 11.974L17.9809 12.3186ZM16.0781 12.5469C16.4623 12.5469 16.8296 12.6133 17.1699 12.7349L17.5903 11.5577C17.1169 11.3887 16.6076 11.2969 16.0781 11.2969V12.5469ZM12.832 15.793C12.832 14.0002 14.2854 12.5469 16.0781 12.5469V11.2969C13.595 11.2969 11.582 13.3098 11.582 15.793H12.832ZM13.0771 17.033C12.9194 16.6518 12.832 16.2334 12.832 15.793H11.582C11.582 16.4002 11.7028 16.9808 11.9221 17.5109L13.0771 17.033Z"
        fill="#7084FF" />
    <path
        d="M14.6713 15.9578C15.3221 15.2453 15.8237 14.2609 16.0949 13.7266C16.5695 14.2609 17.5999 15.6015 17.9253 16.314C18.332 17.2047 17.3152 18.2734 16.0949 18.2734C14.8746 18.2734 13.8577 16.8484 14.6713 15.9578Z"
        stroke="#7084FF" stroke-width="1.25" stroke-linecap="round" stroke-linejoin="round" />
    <path
        d="M10.0007 6.08746C8.38141 6.08746 7.06641 6.96775 7.06641 8.04367C7.06641 9.11957 8.38141 9.99986 10.0007 9.99986C11.62 9.99986 12.935 10.8801 12.935 11.9561C12.935 13.032 11.62 13.9122 10.0007 13.9122M10.0007 6.08746V13.9122M10.0007 6.08746C11.0875 6.08746 12.033 6.47871 12.5438 7.06557L10.0007 6.08746ZM10.0007 6.08746V5.10938M10.0007 13.9122V14.8903M10.0007 13.9122C8.91393 13.9122 7.96844 13.521 7.45762 12.9342L10.0007 13.9122Z"
        stroke="white" stroke-width="1.25" stroke-linecap="round" stroke-linejoin="round" />
</svg>