<svg xmlns="http://www.w3.org/2000/svg" width="20" height="20" viewBox="0 0 20 20" fill="none">
    <path
        d="M13.6111 14.8462C14.3889 13.9946 14.9884 12.8183 15.3125 12.1797C15.8796 12.8183 17.1111 14.4204 17.5 15.2719C17.986 16.3363 16.7708 17.6136 15.3125 17.6136C13.8542 17.6136 12.6389 15.9105 13.6111 14.8462Z"
        stroke="currentColor" stroke-width="1.25" stroke-linecap="round" stroke-linejoin="round" />
    <path
        d="M17.6094 10.002C17.6094 5.80049 14.2034 2.39453 10.002 2.39453C5.80049 2.39453 2.39453 5.80049 2.39453 10.002C2.39453 14.2034 5.80049 17.6094 10.002 17.6094"
        stroke="currentColor" stroke-width="1.25" stroke-linecap="round" stroke-linejoin="round" />
    <path
        d="M10.0007 6.08746C8.38141 6.08746 7.06641 6.96775 7.06641 8.04367C7.06641 9.11957 8.38141 9.99986 10.0007 9.99986C11.62 9.99986 12.935 10.8801 12.935 11.9561C12.935 13.032 11.62 13.9122 10.0007 13.9122M10.0007 6.08746V13.9122M10.0007 6.08746C11.0875 6.08746 12.033 6.47871 12.5438 7.06557L10.0007 6.08746ZM10.0007 6.08746V5.10938M10.0007 13.9122V14.8903M10.0007 13.9122C8.91393 13.9122 7.96844 13.521 7.45762 12.9342L10.0007 13.9122Z"
        stroke="currentColor" stroke-width="1.25" stroke-linecap="round" stroke-linejoin="round" />
</svg>