<svg xmlns="http://www.w3.org/2000/svg" width="12" height="12" viewBox="0 0 12 12" fill="none">
    <g clip-path="url(#clip0_98663_22458)">
        <path
            d="M5.99919 10.7992C7.32466 10.7992 8.52465 10.2619 9.39328 9.39328C10.2619 8.52465 10.7992 7.32466 10.7992 5.99919C10.7992 4.67373 10.2619 3.47374 9.39328 2.6051C8.52465 1.73648 7.32466 1.19922 5.99919 1.19922C4.67373 1.19922 3.47374 1.73648 2.6051 2.6051C1.73648 3.47374 1.19922 4.67373 1.19922 5.99919C1.19922 7.32466 1.73648 8.52465 2.6051 9.39328C3.47374 10.2619 4.67373 10.7992 5.99919 10.7992Z"
            stroke="var(--r-neutral-foot, #6A7587)" stroke-width="0.75" stroke-linejoin="round" />
        <path
            d="M6 7.15625V6.15625C6.82842 6.15625 7.5 5.48467 7.5 4.65625C7.5 3.82783 6.82842 3.15625 6 3.15625C5.17158 3.15625 4.5 3.82783 4.5 4.65625"
            stroke="var(--r-neutral-foot, #6A7587)" stroke-width="0.75" stroke-linecap="round"
            stroke-linejoin="round" />
        <path
            d="M6.5 8.78125C6.5 9.05739 6.27614 9.28125 6 9.28125C5.72386 9.28125 5.5 9.05739 5.5 8.78125C5.5 8.50511 5.72386 8.28125 6 8.28125C6.27614 8.28125 6.5 8.50511 6.5 8.78125Z"
            fill="var(--r-neutral-foot, #6A7587)" stroke="var(--r-neutral-foot, #6A7587)" stroke-width="0.25" />
    </g>
    <defs>
        <clipPath id="clip0_98663_22458">
            <rect width="12" height="12" fill="white" />
        </clipPath>
    </defs>
</svg>