<svg width="40" height="40" viewBox="0 0 40 40" fill="none" xmlns="http://www.w3.org/2000/svg">
    <path
        d="M38.7672 22.3682C40.2567 19.0408 32.8932 9.74449 25.8585 5.87147C21.4243 2.87109 16.8039 3.28329 15.8682 4.60069C13.8145 7.49184 22.6684 9.94164 28.5897 12.8004C27.3168 13.3532 26.1173 14.3453 25.412 15.614C23.2044 13.204 18.3593 11.1287 12.674 12.8004C8.84279 13.9269 5.65876 16.5828 4.42816 20.5942C4.12914 20.4613 3.79808 20.3875 3.44977 20.3875C2.11783 20.3875 1.03809 21.4673 1.03809 22.7992C1.03809 24.1311 2.11783 25.2109 3.44977 25.2109C3.69665 25.2109 4.46857 25.0453 4.46857 25.0453L16.8039 25.1347C11.8708 32.9606 7.97214 34.1046 7.97214 35.4605C7.97214 36.8163 11.7024 36.4489 13.1031 35.9435C19.808 33.5242 27.0095 25.9843 28.2453 23.8137C33.4348 24.4612 37.796 24.5378 38.7672 22.3682Z"
        fill="url(#paint0_linear_96739_27442)" />
    <path fill-rule="evenodd" clip-rule="evenodd"
        d="M28.5651 12.7911C28.5738 12.7949 28.5825 12.7987 28.5912 12.8025C28.8656 12.6944 28.8212 12.289 28.7459 11.9707C28.5726 11.2391 25.5839 8.28781 22.7774 6.96593C18.9494 5.16297 16.1315 5.25774 15.7197 6.09015C16.5004 7.68614 20.1106 9.18465 23.8812 10.7497C25.4816 11.414 27.111 12.0903 28.5651 12.7911Z"
        fill="url(#paint1_linear_96739_27442)" />
    <path fill-rule="evenodd" clip-rule="evenodd"
        d="M23.7363 28.8691C22.9627 28.5733 22.0886 28.302 21.0949 28.0558C22.1539 26.1608 22.3762 23.3554 21.376 21.5817C19.9723 19.0925 18.2102 17.7676 14.1157 17.7676C11.8637 17.7676 5.80033 18.5261 5.69269 23.5877C5.68139 24.119 5.69241 24.606 5.7309 25.0538L16.804 25.134C15.3114 27.5018 13.9135 29.2579 12.6897 30.5933C14.1586 30.9697 15.3709 31.2858 16.4839 31.5759C17.5408 31.8514 18.5081 32.1036 19.5206 32.3619C21.0472 31.2497 22.4823 30.0369 23.7363 28.8691Z"
        fill="url(#paint2_linear_96739_27442)" />
    <path
        d="M4.28087 24.5347C4.73318 28.3797 6.9184 29.8866 11.3837 30.3326C15.849 30.7785 18.4103 30.4793 21.8203 30.7896C24.6684 31.0487 27.2113 32.5 28.1547 31.9985C29.0037 31.5471 28.5287 29.9164 27.3927 28.8701C25.92 27.5139 23.8819 26.571 20.2957 26.2364C21.0104 24.2796 20.8102 21.5359 19.7002 20.0432C18.0953 17.8848 15.1329 16.909 11.3837 17.3353C7.46658 17.7808 3.71322 19.7093 4.28087 24.5347Z"
        fill="url(#paint3_linear_96739_27442)" />
    <defs>
        <linearGradient id="paint0_linear_96739_27442" x1="12.2279" y1="19.4216" x2="38.4465" y2="26.8567"
            gradientUnits="userSpaceOnUse">
            <stop stop-color="#8797FF" />
            <stop offset="1" stop-color="#AAA8FF" />
        </linearGradient>
        <linearGradient id="paint1_linear_96739_27442" x1="34.0331" y1="18.9245" x2="15.1153" y2="-0.0414397"
            gradientUnits="userSpaceOnUse">
            <stop stop-color="#3B22A0" />
            <stop offset="1" stop-color="#5156D8" stop-opacity="0" />
        </linearGradient>
        <linearGradient id="paint2_linear_96739_27442" x1="24.2627" y1="29.5295" x2="6.08922" y2="19.0806"
            gradientUnits="userSpaceOnUse">
            <stop stop-color="#3B1E8F" />
            <stop offset="1" stop-color="#6A6FFB" stop-opacity="0" />
        </linearGradient>
        <linearGradient id="paint3_linear_96739_27442" x1="13.7936" y1="19.2264" x2="26.077" y2="34.8337"
            gradientUnits="userSpaceOnUse">
            <stop stop-color="#8898FF" />
            <stop offset="0.983895" stop-color="#5F47F1" />
        </linearGradient>
    </defs>
</svg>