<svg width="16" height="16" viewBox="0 0 16 16" fill="none" xmlns="http://www.w3.org/2000/svg">
<path d="M12.4019 2H3.59817C3.26781 2 3 2.22496 3 2.50246C3 4.10161 3.75626 5.63526 5.10241 6.76602L5.97326 7.49756C6.05974 7.57016 6.10298 7.60652 6.13393 7.64138C6.32277 7.85414 6.32277 8.14586 6.13393 8.35862C6.10298 8.39348 6.05974 8.42984 5.97326 8.50244L5.10241 9.23396C3.75626 10.3647 3 11.8984 3 13.4976C3 13.7751 3.26781 14 3.59817 14H12.4019C12.7322 14 13 13.7751 13 13.4976C13 11.8984 12.2437 10.3647 10.8976 9.23396L10.0267 8.50244C9.94029 8.42984 9.897 8.39348 9.86607 8.35862C9.67721 8.14586 9.67721 7.85414 9.86607 7.64138C9.897 7.60652 9.94029 7.57016 10.0267 7.49756L10.8976 6.76602C12.2437 5.63526 13 4.10161 13 2.50246C13 2.22496 12.7322 2 12.4019 2Z" stroke="currentColor" stroke-width="1.25" stroke-linecap="round" stroke-linejoin="round"/>
</svg>
