<svg xmlns="http://www.w3.org/2000/svg" width="14" height="14" viewBox="0 0 14 14" fill="none">
    <g clip-path="url(#clip0_101417_58979)">
        <path
            d="M6.99987 12.6003C8.54625 12.6003 9.94624 11.9735 10.9596 10.9601C11.973 9.94673 12.5998 8.54674 12.5998 7.00036C12.5998 5.45399 11.973 4.05399 10.9596 3.04058C9.94624 2.02719 8.54625 1.40039 6.99987 1.40039C5.4535 1.40039 4.0535 2.02719 3.04009 3.04058C2.0267 4.05399 1.3999 5.45399 1.3999 7.00036C1.3999 8.54674 2.0267 9.94673 3.04009 10.9601C4.0535 11.9735 5.4535 12.6003 6.99987 12.6003Z"
            stroke="#6A7587" stroke-linejoin="round" />
        <path
            d="M7 8.34831V7.18164C7.9665 7.18164 8.75 6.39814 8.75 5.43164C8.75 4.46514 7.9665 3.68164 7 3.68164C6.0335 3.68164 5.25 4.46514 5.25 5.43164"
            stroke="#6A7587" stroke-linecap="round" stroke-linejoin="round" />
        <path
            d="M7.22933 10.2448C7.22933 10.3714 7.12672 10.474 7.00016 10.474C6.8736 10.474 6.771 10.3714 6.771 10.2448C6.771 10.1182 6.8736 10.0156 7.00016 10.0156C7.12672 10.0156 7.22933 10.1182 7.22933 10.2448Z"
            fill="#3E495E" stroke="#6A7587" />
    </g>
    <defs>
        <clipPath id="clip0_101417_58979">
            <rect width="14" height="14" fill="white" />
        </clipPath>
    </defs>
</svg>