<svg width="84" height="24" viewBox="0 0 84 24" fill="none" xmlns="http://www.w3.org/2000/svg">
<g opacity="0.6">
<path d="M23.2618 13.4204C24.1555 11.424 19.7375 5.8464 15.5168 3.52265C12.8564 1.72247 10.0842 1.96979 9.5228 2.7602C8.29064 4.49484 13.6028 5.96468 17.1555 7.67989C16.3918 8.01157 15.6721 8.6068 15.2489 9.36802C13.9245 7.92206 11.0174 6.67687 7.60635 7.67989C5.30769 8.3558 3.39733 9.94928 2.65899 12.3561C2.47958 12.2763 2.28095 12.232 2.07197 12.232C1.27283 12.232 0.625 12.8799 0.625 13.679C0.625 14.4781 1.27283 15.126 2.07197 15.126C2.22009 15.126 2.68323 15.0266 2.68323 15.0266L10.0842 15.0802C7.12442 19.7757 4.78532 20.4621 4.78532 21.2755C4.78532 22.089 7.02342 21.8686 7.86378 21.5654C11.8867 20.1138 16.2074 15.59 16.9489 14.2877C20.0625 14.6762 22.6792 14.7221 23.2618 13.4204Z" fill="url(#paint0_linear_57316_41193)"/>
<path fill-rule="evenodd" clip-rule="evenodd" d="M17.152 7.67895C17.1524 7.67911 17.1528 7.67927 17.1532 7.67943C17.3178 7.61457 17.2912 7.37136 17.246 7.18037C17.142 6.74139 15.3489 4.97068 13.665 4.17758C11.3754 3.09921 9.68816 3.15235 9.43286 3.64746C9.89852 4.60603 12.0665 5.50591 14.3309 6.44579C15.2964 6.84654 16.2794 7.25455 17.1554 7.67749C17.1543 7.67798 17.1532 7.67846 17.152 7.67895Z" fill="url(#paint1_linear_57316_41193)"/>
<path fill-rule="evenodd" clip-rule="evenodd" d="M14.2429 17.3223C13.7784 17.1447 13.2536 16.9817 12.6569 16.8339C13.2923 15.6969 13.4257 14.0138 12.8256 12.9496C11.9834 11.4561 10.9262 10.6611 8.46953 10.6611C7.11837 10.6611 3.48044 11.1162 3.41586 14.1531C3.40908 14.4718 3.41569 14.7639 3.43877 15.0325L10.0843 15.0807C9.18857 16.5016 8.34969 17.5554 7.61529 18.3567C8.49602 18.5824 9.22298 18.7719 9.89043 18.9459C10.5249 19.1113 11.1056 19.2627 11.7135 19.4178C12.6294 18.7505 13.4905 18.023 14.2429 17.3223Z" fill="url(#paint2_linear_57316_41193)"/>
<path d="M2.56775 14.7185C2.83913 17.0255 4.15023 17.9296 6.82932 18.1971C9.50842 18.4647 11.0452 18.2852 13.0911 18.4714C14.7999 18.6268 16.3256 19.4976 16.8917 19.1967C17.4011 18.9259 17.1161 17.9474 16.4344 17.3197C15.5509 16.506 14.3281 15.9403 12.1764 15.7395C12.6052 14.5655 12.4851 12.9193 11.8191 12.0237C10.8562 10.7287 9.07882 10.1432 6.82933 10.399C4.47912 10.6663 2.22718 11.8233 2.56775 14.7185Z" fill="url(#paint3_linear_57316_41193)"/>
<path d="M36.059 4.95495C37.7457 4.95495 39.0381 5.36336 39.936 6.18018C40.8461 6.98499 41.3011 8.06607 41.3011 9.42342C41.3011 10.1802 41.1373 10.9249 40.8097 11.6577C40.4942 12.3904 39.9542 12.973 39.1897 13.4054L42.3022 18.2162H39.2261L36.4048 14H34.6393V18.2162H32V4.95495H36.059ZM36.5141 11.4775C37.048 11.4775 37.4606 11.3694 37.7518 11.1532C38.0552 10.9249 38.2675 10.6607 38.3889 10.3604C38.5102 10.048 38.5709 9.76577 38.5709 9.51351C38.5709 9.36937 38.5466 9.18919 38.4981 8.97297C38.4617 8.74474 38.3767 8.51652 38.2432 8.28829C38.1098 8.06006 37.9035 7.86787 37.6244 7.71171C37.3574 7.55556 36.9934 7.47748 36.5323 7.47748H34.6393V11.4775H36.5141Z" fill="white"/>
<path d="M46.8627 18.4324C46.1225 18.4324 45.449 18.2883 44.8423 18C44.2477 17.6997 43.7744 17.2432 43.4225 16.6306C43.0706 16.018 42.8947 15.2372 42.8947 14.2883C42.8947 13.3994 43.0767 12.6306 43.4407 11.982C43.8048 11.3333 44.2841 10.8348 44.8787 10.4865C45.4733 10.1261 46.1043 9.94595 46.7717 9.94595C47.5604 9.94595 48.155 10.0721 48.5554 10.3243C48.968 10.5766 49.2956 10.8529 49.5383 11.1532L49.7022 10.3423H52.0684V18.2162H49.5201V17.2432C49.3988 17.3634 49.2168 17.5195 48.9741 17.7117C48.7435 17.9039 48.4523 18.0721 48.1004 18.2162C47.7485 18.3604 47.3359 18.4324 46.8627 18.4324ZM47.5907 16.3784C48.4766 16.3784 49.1197 15.982 49.5201 15.1892V13.2613C49.3745 12.8769 49.1197 12.5706 48.7557 12.3423C48.4038 12.1141 47.9851 12 47.4997 12C46.9537 12 46.4804 12.2042 46.08 12.6126C45.6795 13.009 45.4793 13.5255 45.4793 14.1622C45.4793 14.5826 45.5764 14.961 45.7706 15.2973C45.9647 15.6336 46.2195 15.8979 46.535 16.0901C46.8627 16.2823 47.2146 16.3784 47.5907 16.3784Z" fill="white"/>
<path d="M59.372 18.4324C58.7653 18.4324 58.2435 18.3423 57.8067 18.1622C57.382 17.982 57.0119 17.7357 56.6964 17.4234V18.2162H54.1481V4H56.6782V10.8829C56.9937 10.6186 57.4123 10.3964 57.9341 10.2162C58.4559 10.036 59.0505 9.94595 59.7179 9.94595C60.4095 9.94595 61.0405 10.1081 61.6109 10.4324C62.1812 10.7568 62.6362 11.2312 62.976 11.8559C63.3279 12.4685 63.5039 13.2192 63.5039 14.1081C63.5039 14.997 63.3097 15.7658 62.9214 16.4144C62.5452 17.0631 62.0416 17.5616 61.4106 17.9099C60.7796 18.2583 60.1001 18.4324 59.372 18.4324ZM58.8078 16.3063C59.1839 16.3063 59.5298 16.2102 59.8453 16.018C60.1729 15.8258 60.4338 15.5616 60.628 15.2252C60.8221 14.8889 60.9192 14.5105 60.9192 14.0901C60.9192 13.6697 60.8221 13.2973 60.628 12.973C60.4338 12.6486 60.1729 12.3964 59.8453 12.2162C59.5298 12.024 59.1839 11.9279 58.8078 11.9279C58.3103 11.9279 57.8734 12.042 57.4972 12.2703C57.1211 12.4985 56.8541 12.8048 56.6964 13.1892V15.1171C57.1332 15.9099 57.837 16.3063 58.8078 16.3063Z" fill="white"/>
<path d="M70.1844 18.4324C69.5776 18.4324 69.0558 18.3423 68.619 18.1622C68.1943 17.982 67.8242 17.7357 67.5087 17.4234V18.2162H64.9604V4H67.4905V10.8829C67.806 10.6186 68.2246 10.3964 68.7464 10.2162C69.2682 10.036 69.8628 9.94595 70.5302 9.94595C71.2219 9.94595 71.8529 10.1081 72.4232 10.4324C72.9935 10.7568 73.4486 11.2312 73.7883 11.8559C74.1402 12.4685 74.3162 13.2192 74.3162 14.1081C74.3162 14.997 74.122 15.7658 73.7337 16.4144C73.3575 17.0631 72.854 17.5616 72.223 17.9099C71.592 18.2583 70.9124 18.4324 70.1844 18.4324ZM69.6201 16.3063C69.9963 16.3063 70.3421 16.2102 70.6576 16.018C70.9852 15.8258 71.2461 15.5616 71.4403 15.2252C71.6344 14.8889 71.7315 14.5105 71.7315 14.0901C71.7315 13.6697 71.6344 13.2973 71.4403 12.973C71.2461 12.6486 70.9852 12.3964 70.6576 12.2162C70.3421 12.024 69.9963 11.9279 69.6201 11.9279C69.1226 11.9279 68.6857 12.042 68.3096 12.2703C67.9334 12.4985 67.6664 12.8048 67.5087 13.1892V15.1171C67.9455 15.9099 68.6493 16.3063 69.6201 16.3063Z" fill="white"/>
<path d="M76.4098 22L78.321 17.8018L74.6442 10.3423H77.5019L79.5951 14.991L81.7066 10.3423H84L78.8671 22H76.4098Z" fill="white"/>
</g>
<defs>
<linearGradient id="paint0_linear_57316_41193" x1="7.3387" y1="11.6525" x2="23.0694" y2="16.1134" gradientUnits="userSpaceOnUse">
<stop stop-color="white"/>
<stop offset="1" stop-color="white"/>
</linearGradient>
<linearGradient id="paint1_linear_57316_41193" x1="20.4173" y1="11.3525" x2="9.06691" y2="-0.023315" gradientUnits="userSpaceOnUse">
<stop stop-color="#7258DC"/>
<stop offset="1" stop-color="#797DEA" stop-opacity="0"/>
</linearGradient>
<linearGradient id="paint2_linear_57316_41193" x1="14.5588" y1="17.7183" x2="3.65419" y2="11.4482" gradientUnits="userSpaceOnUse">
<stop stop-color="#7461EA"/>
<stop offset="1" stop-color="#BFC2FF" stop-opacity="0"/>
</linearGradient>
<linearGradient id="paint3_linear_57316_41193" x1="8.27525" y1="11.5336" x2="15.6451" y2="20.8978" gradientUnits="userSpaceOnUse">
<stop stop-color="white"/>
<stop offset="0.983895" stop-color="#D5CEFF"/>
</linearGradient>
</defs>
</svg>
