<svg width="337" height="337" viewBox="0 0 337 337" fill="none" xmlns="http://www.w3.org/2000/svg">
<g opacity="0.2">
<circle opacity="0.4" cx="3.5" cy="63.5" r="3.5" fill="white"/>
<circle opacity="0.4" cx="3.5" cy="93.5" r="3.5" fill="white"/>
<circle opacity="0.4" cx="3.5" cy="153.5" r="3.5" fill="white"/>
<circle opacity="0.4" cx="3.5" cy="183.5" r="3.5" fill="white"/>
<circle opacity="0.4" cx="3.5" cy="213.5" r="3.5" fill="white"/>
<circle opacity="0.1" cx="3.5" cy="243.5" r="3.5" fill="white"/>
<circle opacity="0.4" cx="3.5" cy="273.5" r="3.5" fill="white"/>
<circle opacity="0.9" cx="3.5" cy="333.5" r="3.5" fill="white"/>
<circle opacity="0.4" cx="33.5" cy="63.5" r="3.5" fill="white"/>
<circle opacity="0.4" cx="33.5" cy="93.5" r="3.5" fill="white"/>
<circle opacity="0.4" cx="33.5" cy="123.5" r="3.5" fill="white"/>
<circle opacity="0.4" cx="33.5" cy="153.5" r="3.5" fill="white"/>
<circle opacity="0.4" cx="33.5" cy="183.5" r="3.5" fill="white"/>
<circle opacity="0.4" cx="33.5" cy="213.5" r="3.5" fill="white"/>
<circle opacity="0.1" cx="33.5" cy="243.5" r="3.5" fill="white"/>
<circle opacity="0.4" cx="33.5" cy="273.5" r="3.5" fill="white"/>
<circle opacity="0.9" cx="33.5" cy="303.5" r="3.5" fill="white"/>
<circle opacity="0.4" cx="63.5" cy="3.5" r="3.5" fill="white"/>
<circle opacity="0.4" cx="63.5" cy="33.5" r="3.5" fill="white"/>
<circle opacity="0.4" cx="63.5" cy="63.5" r="3.5" fill="white"/>
<circle opacity="0.4" cx="63.5" cy="93.5" r="3.5" fill="white"/>
<circle opacity="0.4" cx="63.5" cy="123.5" r="3.5" fill="white"/>
<circle opacity="0.4" cx="63.5" cy="153.5" r="3.5" fill="white"/>
<circle opacity="0.4" cx="63.5" cy="183.5" r="3.5" fill="white"/>
<circle opacity="0.4" cx="63.5" cy="213.5" r="3.5" fill="white"/>
<circle opacity="0.1" cx="63.5" cy="243.5" r="3.5" fill="white"/>
<circle opacity="0.4" cx="63.5" cy="273.5" r="3.5" fill="white"/>
<circle opacity="0.5" cx="63.5" cy="303.5" r="3.5" fill="white"/>
<circle opacity="0.5" cx="63.5" cy="333.5" r="3.5" fill="white"/>
<circle opacity="0.4" cx="93.5" cy="3.5" r="3.5" fill="white"/>
<circle opacity="0.4" cx="93.5" cy="33.5" r="3.5" fill="white"/>
<circle opacity="0.4" cx="93.5" cy="93.5" r="3.5" fill="white"/>
<circle opacity="0.4" cx="93.5" cy="123.5" r="3.5" fill="white"/>
<circle opacity="0.1" cx="93.5" cy="153.5" r="3.5" fill="white"/>
<circle opacity="0.1" cx="93.5" cy="183.5" r="3.5" fill="white"/>
<circle opacity="0.1" cx="93.5" cy="213.5" r="3.5" fill="white"/>
<circle opacity="0.1" cx="93.5" cy="243.5" r="3.5" fill="white"/>
<circle opacity="0.4" cx="93.5" cy="273.5" r="3.5" fill="white"/>
<circle opacity="0.5" cx="93.5" cy="303.5" r="3.5" fill="white"/>
<circle opacity="0.5" cx="93.5" cy="333.5" r="3.5" fill="white"/>
<circle opacity="0.4" cx="123.5" cy="3.5" r="3.5" fill="white"/>
<circle opacity="0.4" cx="123.5" cy="33.5" r="3.5" fill="white"/>
<circle opacity="0.4" cx="123.5" cy="63.5" r="3.5" fill="white"/>
<circle opacity="0.4" cx="123.5" cy="93.5" r="3.5" fill="white"/>
<circle opacity="0.2" cx="123.5" cy="123.5" r="3.5" fill="white"/>
<circle opacity="0.2" cx="123.5" cy="153.5" r="3.5" fill="white"/>
<circle opacity="0.2" cx="123.5" cy="183.5" r="3.5" fill="white"/>
<circle opacity="0.2" cx="123.5" cy="213.5" r="3.5" fill="white"/>
<circle opacity="0.2" cx="123.5" cy="243.5" r="3.5" fill="white"/>
<circle opacity="0.2" cx="123.5" cy="273.5" r="3.5" fill="white"/>
<circle opacity="0.4" cx="123.5" cy="303.5" r="3.5" fill="white"/>
<circle opacity="0.4" cx="153.5" cy="33.5" r="3.5" fill="white"/>
<circle opacity="0.4" cx="153.5" cy="63.5" r="3.5" fill="white"/>
<circle opacity="0.4" cx="153.5" cy="93.5" r="3.5" fill="white"/>
<circle opacity="0.2" cx="153.5" cy="123.5" r="3.5" fill="white"/>
<circle opacity="0.2" cx="153.5" cy="153.5" r="3.5" fill="white"/>
<circle opacity="0.2" cx="153.5" cy="183.5" r="3.5" fill="white"/>
<circle opacity="0.2" cx="153.5" cy="213.5" r="3.5" fill="white"/>
<circle opacity="0.2" cx="153.5" cy="243.5" r="3.5" fill="white"/>
<circle opacity="0.2" cx="153.5" cy="273.5" r="3.5" fill="white"/>
<circle opacity="0.4" cx="153.5" cy="303.5" r="3.5" fill="white"/>
<circle opacity="0.4" cx="153.5" cy="333.5" r="3.5" fill="white"/>
<circle opacity="0.2" cx="183.5" cy="3.5" r="3.5" fill="white"/>
<circle opacity="0.2" cx="183.5" cy="33.5" r="3.5" fill="white"/>
<circle opacity="0.2" cx="183.5" cy="63.5" r="3.5" fill="white"/>
<circle opacity="0.2" cx="183.5" cy="93.5" r="3.5" fill="white"/>
<circle opacity="0.2" cx="183.5" cy="123.5" r="3.5" fill="white"/>
<circle opacity="0.2" cx="183.5" cy="153.5" r="3.5" fill="white"/>
<circle opacity="0.2" cx="183.5" cy="183.5" r="3.5" fill="white"/>
<circle opacity="0.2" cx="183.5" cy="213.5" r="3.5" fill="white"/>
<circle opacity="0.2" cx="183.5" cy="243.5" r="3.5" fill="white"/>
<circle opacity="0.2" cx="183.5" cy="273.5" r="3.5" fill="white"/>
<circle opacity="0.4" cx="183.5" cy="333.5" r="3.5" fill="white"/>
<circle opacity="0.2" cx="213.5" cy="3.5" r="3.5" fill="white"/>
<circle opacity="0.2" cx="213.5" cy="33.5" r="3.5" fill="white"/>
<circle opacity="0.2" cx="213.5" cy="63.5" r="3.5" fill="white"/>
<circle opacity="0.2" cx="213.5" cy="93.5" r="3.5" fill="white"/>
<circle opacity="0.2" cx="213.5" cy="123.5" r="3.5" fill="white"/>
<circle opacity="0.2" cx="213.5" cy="153.5" r="3.5" fill="white"/>
<circle opacity="0.2" cx="213.5" cy="183.5" r="3.5" fill="white"/>
<circle opacity="0.2" cx="213.5" cy="213.5" r="3.5" fill="white"/>
<circle opacity="0.2" cx="213.5" cy="243.5" r="3.5" fill="white"/>
<circle opacity="0.2" cx="213.5" cy="273.5" r="3.5" fill="white"/>
<circle opacity="0.8" cx="213.5" cy="303.5" r="3.5" fill="white"/>
<circle opacity="0.2" cx="243.5" cy="3.5" r="3.5" fill="white"/>
<circle opacity="0.2" cx="243.5" cy="33.5" r="3.5" fill="white"/>
<circle opacity="0.2" cx="243.5" cy="63.5" r="3.5" fill="white"/>
<circle opacity="0.2" cx="243.5" cy="93.5" r="3.5" fill="white"/>
<circle opacity="0.2" cx="243.5" cy="123.5" r="3.5" fill="white"/>
<circle opacity="0.2" cx="243.5" cy="153.5" r="3.5" fill="white"/>
<circle opacity="0.2" cx="243.5" cy="183.5" r="3.5" fill="white"/>
<circle opacity="0.2" cx="243.5" cy="213.5" r="3.5" fill="white"/>
<circle opacity="0.2" cx="243.5" cy="243.5" r="3.5" fill="white"/>
<circle opacity="0.2" cx="243.5" cy="273.5" r="3.5" fill="white"/>
<circle opacity="0.8" cx="243.5" cy="303.5" r="3.5" fill="white"/>
<circle opacity="0.4" cx="273.5" cy="3.5" r="3.5" fill="white"/>
<circle opacity="0.4" cx="273.5" cy="33.5" r="3.5" fill="white"/>
<circle opacity="0.3" cx="273.5" cy="63.5" r="3.5" fill="white"/>
<circle opacity="0.4" cx="273.5" cy="93.5" r="3.5" fill="white"/>
<circle opacity="0.4" cx="273.5" cy="123.5" r="3.5" fill="white"/>
<circle opacity="0.4" cx="273.5" cy="153.5" r="3.5" fill="white"/>
<circle opacity="0.4" cx="273.5" cy="183.5" r="3.5" fill="white"/>
<circle opacity="0.5" cx="273.5" cy="243.5" r="3.5" fill="white"/>
<circle opacity="0.5" cx="273.5" cy="273.5" r="3.5" fill="white"/>
<circle opacity="0.5" cx="273.5" cy="303.5" r="3.5" fill="white"/>
<circle opacity="0.4" cx="303.5" cy="3.5" r="3.5" fill="white"/>
<circle opacity="0.4" cx="303.5" cy="33.5" r="3.5" fill="white"/>
<circle opacity="0.3" cx="303.5" cy="63.5" r="3.5" fill="white"/>
<circle opacity="0.4" cx="303.5" cy="93.5" r="3.5" fill="white"/>
<circle opacity="0.4" cx="303.5" cy="183.5" r="3.5" fill="white"/>
<circle opacity="0.4" cx="303.5" cy="213.5" r="3.5" fill="white"/>
<circle opacity="0.5" cx="303.5" cy="243.5" r="3.5" fill="white"/>
<circle opacity="0.5" cx="303.5" cy="273.5" r="3.5" fill="white"/>
<circle opacity="0.5" cx="303.5" cy="303.5" r="3.5" fill="white"/>
<circle opacity="0.5" cx="303.5" cy="333.5" r="3.5" fill="white"/>
<circle opacity="0.4" cx="333.5" cy="3.5" r="3.5" fill="white"/>
<circle opacity="0.4" cx="333.5" cy="93.5" r="3.5" fill="white"/>
<circle opacity="0.5" cx="333.5" cy="183.5" r="3.5" fill="white"/>
<circle opacity="0.4" cx="333.5" cy="213.5" r="3.5" fill="white"/>
<circle opacity="0.5" cx="333.5" cy="273.5" r="3.5" fill="white"/>
<circle opacity="0.5" cx="333.5" cy="303.5" r="3.5" fill="white"/>
</g>
<path opacity="0.8" d="M83.368 225.2H79.88V235H77.728V225.2H74.24V223.432H83.368V225.2ZM86.4051 227.672C86.7251 227.373 87.0771 227.131 87.4611 226.944C87.8451 226.757 88.2958 226.664 88.8131 226.664C89.2611 226.664 89.6585 226.741 90.0051 226.896C90.3518 227.045 90.6398 227.259 90.8691 227.536C91.1038 227.808 91.2798 228.136 91.3971 228.52C91.5198 228.899 91.5811 229.317 91.5811 229.776V235H89.6051V229.776C89.6051 229.275 89.4905 228.888 89.2611 228.616C89.0318 228.339 88.6825 228.2 88.2131 228.2C87.8718 228.2 87.5518 228.277 87.2531 228.432C86.9545 228.587 86.6718 228.797 86.4051 229.064V235H84.4291V223.112H86.4051V227.672ZM98.7484 229.952C98.7484 229.696 98.711 229.456 98.6364 229.232C98.567 229.003 98.4604 228.803 98.3164 228.632C98.1724 228.461 97.9884 228.328 97.7644 228.232C97.5457 228.131 97.2897 228.08 96.9964 228.08C96.4257 228.08 95.975 228.243 95.6444 228.568C95.319 228.893 95.111 229.355 95.0204 229.952H98.7484ZM94.9804 231.144C95.0124 231.565 95.087 231.931 95.2044 232.24C95.3217 232.544 95.4764 232.797 95.6684 233C95.8604 233.197 96.087 233.347 96.3484 233.448C96.615 233.544 96.9084 233.592 97.2284 233.592C97.5484 233.592 97.823 233.555 98.0524 233.48C98.287 233.405 98.4897 233.323 98.6604 233.232C98.8364 233.141 98.9884 233.059 99.1164 232.984C99.2497 232.909 99.3777 232.872 99.5004 232.872C99.6657 232.872 99.7884 232.933 99.8684 233.056L100.436 233.776C100.218 234.032 99.9724 234.248 99.7004 234.424C99.4284 234.595 99.143 234.733 98.8444 234.84C98.551 234.941 98.2497 235.013 97.9404 235.056C97.6364 235.099 97.3404 235.12 97.0524 235.12C96.4817 235.12 95.951 235.027 95.4604 234.84C94.9697 234.648 94.543 234.368 94.1804 234C93.8177 233.627 93.5324 233.168 93.3244 232.624C93.1164 232.075 93.0124 231.44 93.0124 230.72C93.0124 230.16 93.103 229.635 93.2844 229.144C93.4657 228.648 93.7244 228.219 94.0604 227.856C94.4017 227.488 94.815 227.197 95.3004 226.984C95.791 226.771 96.343 226.664 96.9564 226.664C97.4737 226.664 97.951 226.747 98.3884 226.912C98.8257 227.077 99.2017 227.32 99.5164 227.64C99.831 227.955 100.076 228.344 100.252 228.808C100.434 229.267 100.524 229.792 100.524 230.384C100.524 230.683 100.492 230.885 100.428 230.992C100.364 231.093 100.242 231.144 100.06 231.144H94.9804ZM108.898 230.696C109.143 230.696 109.357 230.664 109.538 230.6C109.719 230.531 109.869 230.437 109.986 230.32C110.109 230.203 110.199 230.061 110.258 229.896C110.322 229.731 110.354 229.549 110.354 229.352C110.354 228.947 110.231 228.627 109.986 228.392C109.746 228.152 109.383 228.032 108.898 228.032C108.413 228.032 108.047 228.152 107.802 228.392C107.562 228.627 107.442 228.947 107.442 229.352C107.442 229.544 107.471 229.723 107.53 229.888C107.594 230.053 107.685 230.197 107.802 230.32C107.925 230.437 108.077 230.531 108.258 230.6C108.445 230.664 108.658 230.696 108.898 230.696ZM111.13 235.368C111.13 235.208 111.082 235.077 110.986 234.976C110.89 234.875 110.759 234.797 110.594 234.744C110.429 234.685 110.234 234.643 110.01 234.616C109.791 234.589 109.557 234.571 109.306 234.56C109.061 234.544 108.805 234.531 108.538 234.52C108.277 234.509 108.021 234.488 107.77 234.456C107.551 234.579 107.373 234.723 107.234 234.888C107.101 235.053 107.034 235.245 107.034 235.464C107.034 235.608 107.069 235.741 107.138 235.864C107.213 235.992 107.327 236.101 107.482 236.192C107.642 236.283 107.847 236.352 108.098 236.4C108.349 236.453 108.655 236.48 109.018 236.48C109.386 236.48 109.703 236.451 109.97 236.392C110.237 236.339 110.455 236.261 110.626 236.16C110.802 236.064 110.93 235.947 111.01 235.808C111.09 235.675 111.13 235.528 111.13 235.368ZM113.098 227.072V227.808C113.098 228.043 112.957 228.187 112.674 228.24L111.938 228.376C112.05 228.659 112.106 228.968 112.106 229.304C112.106 229.709 112.023 230.077 111.858 230.408C111.698 230.733 111.474 231.011 111.186 231.24C110.898 231.469 110.557 231.648 110.162 231.776C109.773 231.899 109.351 231.96 108.898 231.96C108.738 231.96 108.583 231.952 108.434 231.936C108.285 231.92 108.138 231.899 107.994 231.872C107.738 232.027 107.61 232.2 107.61 232.392C107.61 232.557 107.685 232.68 107.834 232.76C107.989 232.835 108.191 232.888 108.442 232.92C108.693 232.952 108.978 232.973 109.298 232.984C109.618 232.989 109.946 233.005 110.282 233.032C110.618 233.059 110.946 233.107 111.266 233.176C111.586 233.24 111.871 233.344 112.122 233.488C112.373 233.632 112.573 233.829 112.722 234.08C112.877 234.325 112.954 234.643 112.954 235.032C112.954 235.395 112.863 235.747 112.682 236.088C112.506 236.429 112.247 236.733 111.906 237C111.57 237.267 111.154 237.48 110.658 237.64C110.167 237.805 109.607 237.888 108.978 237.888C108.359 237.888 107.821 237.827 107.362 237.704C106.903 237.587 106.522 237.427 106.218 237.224C105.914 237.027 105.687 236.797 105.538 236.536C105.389 236.275 105.314 236.003 105.314 235.72C105.314 235.336 105.429 235.016 105.658 234.76C105.893 234.499 106.213 234.291 106.618 234.136C106.399 234.024 106.226 233.875 106.098 233.688C105.97 233.501 105.906 233.256 105.906 232.952C105.906 232.829 105.927 232.704 105.97 232.576C106.018 232.443 106.085 232.312 106.17 232.184C106.261 232.056 106.373 231.936 106.506 231.824C106.639 231.707 106.797 231.603 106.978 231.512C106.562 231.288 106.234 230.989 105.994 230.616C105.759 230.243 105.642 229.805 105.642 229.304C105.642 228.899 105.722 228.533 105.882 228.208C106.047 227.877 106.274 227.597 106.562 227.368C106.855 227.133 107.199 226.955 107.594 226.832C107.994 226.709 108.429 226.648 108.898 226.648C109.25 226.648 109.581 226.685 109.89 226.76C110.199 226.829 110.482 226.933 110.738 227.072H113.098ZM118.687 231.496C118.116 231.523 117.636 231.573 117.247 231.648C116.858 231.717 116.546 231.808 116.311 231.92C116.076 232.032 115.908 232.163 115.807 232.312C115.706 232.461 115.655 232.624 115.655 232.8C115.655 233.147 115.756 233.395 115.959 233.544C116.167 233.693 116.436 233.768 116.767 233.768C117.172 233.768 117.522 233.696 117.815 233.552C118.114 233.403 118.404 233.179 118.687 232.88V231.496ZM114.159 227.936C115.103 227.072 116.239 226.64 117.567 226.64C118.047 226.64 118.476 226.72 118.855 226.88C119.234 227.035 119.554 227.253 119.815 227.536C120.076 227.813 120.274 228.147 120.407 228.536C120.546 228.925 120.615 229.352 120.615 229.816V235H119.719C119.532 235 119.388 234.973 119.287 234.92C119.186 234.861 119.106 234.747 119.047 234.576L118.871 233.984C118.663 234.171 118.46 234.336 118.263 234.48C118.066 234.619 117.86 234.736 117.647 234.832C117.434 234.928 117.204 235 116.959 235.048C116.719 235.101 116.452 235.128 116.159 235.128C115.812 235.128 115.492 235.083 115.199 234.992C114.906 234.896 114.652 234.755 114.439 234.568C114.226 234.381 114.06 234.149 113.943 233.872C113.826 233.595 113.767 233.272 113.767 232.904C113.767 232.696 113.802 232.491 113.871 232.288C113.94 232.08 114.052 231.883 114.207 231.696C114.367 231.509 114.572 231.333 114.823 231.168C115.074 231.003 115.38 230.859 115.743 230.736C116.111 230.613 116.538 230.515 117.023 230.44C117.508 230.36 118.063 230.312 118.687 230.296V229.816C118.687 229.267 118.57 228.861 118.335 228.6C118.1 228.333 117.762 228.2 117.319 228.2C116.999 228.2 116.732 228.237 116.519 228.312C116.311 228.387 116.127 228.472 115.967 228.568C115.807 228.659 115.66 228.741 115.527 228.816C115.399 228.891 115.255 228.928 115.095 228.928C114.956 228.928 114.839 228.893 114.743 228.824C114.647 228.749 114.57 228.664 114.511 228.568L114.159 227.936ZM122.476 235V226.792H123.684C123.94 226.792 124.108 226.912 124.188 227.152L124.316 227.76C124.46 227.6 124.609 227.453 124.764 227.32C124.924 227.187 125.092 227.072 125.268 226.976C125.449 226.88 125.641 226.805 125.844 226.752C126.052 226.693 126.279 226.664 126.524 226.664C127.041 226.664 127.465 226.805 127.796 227.088C128.132 227.365 128.383 227.736 128.548 228.2C128.676 227.928 128.836 227.696 129.028 227.504C129.22 227.307 129.431 227.147 129.66 227.024C129.889 226.901 130.132 226.811 130.388 226.752C130.649 226.693 130.911 226.664 131.172 226.664C131.625 226.664 132.028 226.733 132.38 226.872C132.732 227.011 133.028 227.213 133.268 227.48C133.508 227.747 133.689 228.072 133.812 228.456C133.94 228.84 134.004 229.28 134.004 229.776V235H132.028V229.776C132.028 229.253 131.913 228.861 131.684 228.6C131.455 228.333 131.119 228.2 130.676 228.2C130.473 228.2 130.284 228.235 130.108 228.304C129.937 228.373 129.785 228.475 129.652 228.608C129.524 228.736 129.423 228.899 129.348 229.096C129.273 229.293 129.236 229.52 129.236 229.776V235H127.252V229.776C127.252 229.227 127.14 228.827 126.916 228.576C126.697 228.325 126.375 228.2 125.948 228.2C125.66 228.2 125.391 228.272 125.14 228.416C124.895 228.555 124.665 228.747 124.452 228.992V235H122.476ZM141.17 229.952C141.17 229.696 141.133 229.456 141.058 229.232C140.989 229.003 140.882 228.803 140.738 228.632C140.594 228.461 140.41 228.328 140.186 228.232C139.968 228.131 139.712 228.08 139.418 228.08C138.848 228.08 138.397 228.243 138.066 228.568C137.741 228.893 137.533 229.355 137.442 229.952H141.17ZM137.402 231.144C137.434 231.565 137.509 231.931 137.626 232.24C137.744 232.544 137.898 232.797 138.09 233C138.282 233.197 138.509 233.347 138.77 233.448C139.037 233.544 139.33 233.592 139.65 233.592C139.97 233.592 140.245 233.555 140.474 233.48C140.709 233.405 140.912 233.323 141.082 233.232C141.258 233.141 141.41 233.059 141.538 232.984C141.672 232.909 141.8 232.872 141.922 232.872C142.088 232.872 142.21 232.933 142.29 233.056L142.858 233.776C142.64 234.032 142.394 234.248 142.122 234.424C141.85 234.595 141.565 234.733 141.266 234.84C140.973 234.941 140.672 235.013 140.362 235.056C140.058 235.099 139.762 235.12 139.474 235.12C138.904 235.12 138.373 235.027 137.882 234.84C137.392 234.648 136.965 234.368 136.602 234C136.24 233.627 135.954 233.168 135.746 232.624C135.538 232.075 135.434 231.44 135.434 230.72C135.434 230.16 135.525 229.635 135.706 229.144C135.888 228.648 136.146 228.219 136.482 227.856C136.824 227.488 137.237 227.197 137.722 226.984C138.213 226.771 138.765 226.664 139.378 226.664C139.896 226.664 140.373 226.747 140.81 226.912C141.248 227.077 141.624 227.32 141.938 227.64C142.253 227.955 142.498 228.344 142.674 228.808C142.856 229.267 142.946 229.792 142.946 230.384C142.946 230.683 142.914 230.885 142.85 230.992C142.786 231.093 142.664 231.144 142.482 231.144H137.402ZM144.365 229.344H148.509V230.992H144.365V229.344ZM156.278 228.528C156.219 228.603 156.161 228.661 156.102 228.704C156.049 228.747 155.969 228.768 155.862 228.768C155.761 228.768 155.662 228.739 155.566 228.68C155.47 228.616 155.355 228.547 155.222 228.472C155.089 228.392 154.929 228.323 154.742 228.264C154.561 228.2 154.334 228.168 154.062 228.168C153.715 228.168 153.411 228.232 153.15 228.36C152.889 228.483 152.67 228.661 152.494 228.896C152.323 229.131 152.195 229.416 152.11 229.752C152.025 230.083 151.982 230.459 151.982 230.88C151.982 231.317 152.027 231.707 152.118 232.048C152.214 232.389 152.35 232.677 152.526 232.912C152.702 233.141 152.915 233.317 153.166 233.44C153.417 233.557 153.699 233.616 154.014 233.616C154.329 233.616 154.582 233.579 154.774 233.504C154.971 233.424 155.137 233.339 155.27 233.248C155.403 233.152 155.518 233.067 155.614 232.992C155.715 232.912 155.827 232.872 155.95 232.872C156.11 232.872 156.23 232.933 156.31 233.056L156.878 233.776C156.659 234.032 156.422 234.248 156.166 234.424C155.91 234.595 155.643 234.733 155.366 234.84C155.094 234.941 154.811 235.013 154.518 235.056C154.23 235.099 153.942 235.12 153.654 235.12C153.147 235.12 152.67 235.027 152.222 234.84C151.774 234.648 151.382 234.371 151.046 234.008C150.71 233.645 150.443 233.203 150.246 232.68C150.054 232.152 149.958 231.552 149.958 230.88C149.958 230.277 150.043 229.72 150.214 229.208C150.39 228.691 150.646 228.245 150.982 227.872C151.318 227.493 151.734 227.197 152.23 226.984C152.726 226.771 153.297 226.664 153.942 226.664C154.555 226.664 155.091 226.763 155.55 226.96C156.014 227.157 156.43 227.44 156.798 227.808L156.278 228.528ZM160.093 227.672C160.413 227.373 160.765 227.131 161.149 226.944C161.533 226.757 161.983 226.664 162.501 226.664C162.949 226.664 163.346 226.741 163.693 226.896C164.039 227.045 164.327 227.259 164.557 227.536C164.791 227.808 164.967 228.136 165.085 228.52C165.207 228.899 165.269 229.317 165.269 229.776V235H163.293V229.776C163.293 229.275 163.178 228.888 162.949 228.616C162.719 228.339 162.37 228.2 161.901 228.2C161.559 228.2 161.239 228.277 160.941 228.432C160.642 228.587 160.359 228.797 160.093 229.064V235H158.117V223.112H160.093V227.672ZM171.484 231.496C170.913 231.523 170.433 231.573 170.044 231.648C169.655 231.717 169.343 231.808 169.108 231.92C168.873 232.032 168.705 232.163 168.604 232.312C168.503 232.461 168.452 232.624 168.452 232.8C168.452 233.147 168.553 233.395 168.756 233.544C168.964 233.693 169.233 233.768 169.564 233.768C169.969 233.768 170.319 233.696 170.612 233.552C170.911 233.403 171.201 233.179 171.484 232.88V231.496ZM166.956 227.936C167.9 227.072 169.036 226.64 170.364 226.64C170.844 226.64 171.273 226.72 171.652 226.88C172.031 227.035 172.351 227.253 172.612 227.536C172.873 227.813 173.071 228.147 173.204 228.536C173.343 228.925 173.412 229.352 173.412 229.816V235H172.516C172.329 235 172.185 234.973 172.084 234.92C171.983 234.861 171.903 234.747 171.844 234.576L171.668 233.984C171.46 234.171 171.257 234.336 171.06 234.48C170.863 234.619 170.657 234.736 170.444 234.832C170.231 234.928 170.001 235 169.756 235.048C169.516 235.101 169.249 235.128 168.956 235.128C168.609 235.128 168.289 235.083 167.996 234.992C167.703 234.896 167.449 234.755 167.236 234.568C167.023 234.381 166.857 234.149 166.74 233.872C166.623 233.595 166.564 233.272 166.564 232.904C166.564 232.696 166.599 232.491 166.668 232.288C166.737 232.08 166.849 231.883 167.004 231.696C167.164 231.509 167.369 231.333 167.62 231.168C167.871 231.003 168.177 230.859 168.54 230.736C168.908 230.613 169.335 230.515 169.82 230.44C170.305 230.36 170.86 230.312 171.484 230.296V229.816C171.484 229.267 171.367 228.861 171.132 228.6C170.897 228.333 170.559 228.2 170.116 228.2C169.796 228.2 169.529 228.237 169.316 228.312C169.108 228.387 168.924 228.472 168.764 228.568C168.604 228.659 168.457 228.741 168.324 228.816C168.196 228.891 168.052 228.928 167.892 228.928C167.753 228.928 167.636 228.893 167.54 228.824C167.444 228.749 167.367 228.664 167.308 228.568L166.956 227.936ZM177.121 227.8C177.286 227.635 177.46 227.483 177.641 227.344C177.828 227.2 178.022 227.08 178.225 226.984C178.433 226.883 178.654 226.805 178.889 226.752C179.124 226.693 179.38 226.664 179.657 226.664C180.105 226.664 180.502 226.741 180.849 226.896C181.196 227.045 181.484 227.259 181.713 227.536C181.948 227.808 182.124 228.136 182.241 228.52C182.364 228.899 182.425 229.317 182.425 229.776V235H180.449V229.776C180.449 229.275 180.334 228.888 180.105 228.616C179.876 228.339 179.526 228.2 179.057 228.2C178.716 228.2 178.396 228.277 178.097 228.432C177.798 228.587 177.516 228.797 177.249 229.064V235H175.273V226.792H176.481C176.737 226.792 176.905 226.912 176.985 227.152L177.121 227.8ZM187.304 230.696C187.549 230.696 187.763 230.664 187.944 230.6C188.125 230.531 188.275 230.437 188.392 230.32C188.515 230.203 188.605 230.061 188.664 229.896C188.728 229.731 188.76 229.549 188.76 229.352C188.76 228.947 188.637 228.627 188.392 228.392C188.152 228.152 187.789 228.032 187.304 228.032C186.819 228.032 186.453 228.152 186.208 228.392C185.968 228.627 185.848 228.947 185.848 229.352C185.848 229.544 185.877 229.723 185.936 229.888C186 230.053 186.091 230.197 186.208 230.32C186.331 230.437 186.483 230.531 186.664 230.6C186.851 230.664 187.064 230.696 187.304 230.696ZM189.536 235.368C189.536 235.208 189.488 235.077 189.392 234.976C189.296 234.875 189.165 234.797 189 234.744C188.835 234.685 188.64 234.643 188.416 234.616C188.197 234.589 187.963 234.571 187.712 234.56C187.467 234.544 187.211 234.531 186.944 234.52C186.683 234.509 186.427 234.488 186.176 234.456C185.957 234.579 185.779 234.723 185.64 234.888C185.507 235.053 185.44 235.245 185.44 235.464C185.44 235.608 185.475 235.741 185.544 235.864C185.619 235.992 185.733 236.101 185.888 236.192C186.048 236.283 186.253 236.352 186.504 236.4C186.755 236.453 187.061 236.48 187.424 236.48C187.792 236.48 188.109 236.451 188.376 236.392C188.643 236.339 188.861 236.261 189.032 236.16C189.208 236.064 189.336 235.947 189.416 235.808C189.496 235.675 189.536 235.528 189.536 235.368ZM191.504 227.072V227.808C191.504 228.043 191.363 228.187 191.08 228.24L190.344 228.376C190.456 228.659 190.512 228.968 190.512 229.304C190.512 229.709 190.429 230.077 190.264 230.408C190.104 230.733 189.88 231.011 189.592 231.24C189.304 231.469 188.963 231.648 188.568 231.776C188.179 231.899 187.757 231.96 187.304 231.96C187.144 231.96 186.989 231.952 186.84 231.936C186.691 231.92 186.544 231.899 186.4 231.872C186.144 232.027 186.016 232.2 186.016 232.392C186.016 232.557 186.091 232.68 186.24 232.76C186.395 232.835 186.597 232.888 186.848 232.92C187.099 232.952 187.384 232.973 187.704 232.984C188.024 232.989 188.352 233.005 188.688 233.032C189.024 233.059 189.352 233.107 189.672 233.176C189.992 233.24 190.277 233.344 190.528 233.488C190.779 233.632 190.979 233.829 191.128 234.08C191.283 234.325 191.36 234.643 191.36 235.032C191.36 235.395 191.269 235.747 191.088 236.088C190.912 236.429 190.653 236.733 190.312 237C189.976 237.267 189.56 237.48 189.064 237.64C188.573 237.805 188.013 237.888 187.384 237.888C186.765 237.888 186.227 237.827 185.768 237.704C185.309 237.587 184.928 237.427 184.624 237.224C184.32 237.027 184.093 236.797 183.944 236.536C183.795 236.275 183.72 236.003 183.72 235.72C183.72 235.336 183.835 235.016 184.064 234.76C184.299 234.499 184.619 234.291 185.024 234.136C184.805 234.024 184.632 233.875 184.504 233.688C184.376 233.501 184.312 233.256 184.312 232.952C184.312 232.829 184.333 232.704 184.376 232.576C184.424 232.443 184.491 232.312 184.576 232.184C184.667 232.056 184.779 231.936 184.912 231.824C185.045 231.707 185.203 231.603 185.384 231.512C184.968 231.288 184.64 230.989 184.4 230.616C184.165 230.243 184.048 229.805 184.048 229.304C184.048 228.899 184.128 228.533 184.288 228.208C184.453 227.877 184.68 227.597 184.968 227.368C185.261 227.133 185.605 226.955 186 226.832C186.4 226.709 186.835 226.648 187.304 226.648C187.656 226.648 187.987 226.685 188.296 226.76C188.605 226.829 188.888 226.933 189.144 227.072H191.504ZM194.805 226.792V235H192.821V226.792H194.805ZM195.077 224.4C195.077 224.571 195.043 224.731 194.973 224.88C194.904 225.029 194.811 225.16 194.693 225.272C194.581 225.384 194.448 225.475 194.293 225.544C194.139 225.608 193.973 225.64 193.797 225.64C193.627 225.64 193.464 225.608 193.309 225.544C193.16 225.475 193.029 225.384 192.917 225.272C192.805 225.16 192.715 225.029 192.645 224.88C192.581 224.731 192.549 224.571 192.549 224.4C192.549 224.224 192.581 224.059 192.645 223.904C192.715 223.749 192.805 223.616 192.917 223.504C193.029 223.392 193.16 223.304 193.309 223.24C193.464 223.171 193.627 223.136 193.797 223.136C193.973 223.136 194.139 223.171 194.293 223.24C194.448 223.304 194.581 223.392 194.693 223.504C194.811 223.616 194.904 223.749 194.973 223.904C195.043 224.059 195.077 224.224 195.077 224.4ZM198.668 227.8C198.833 227.635 199.006 227.483 199.188 227.344C199.374 227.2 199.569 227.08 199.772 226.984C199.98 226.883 200.201 226.805 200.436 226.752C200.67 226.693 200.926 226.664 201.204 226.664C201.652 226.664 202.049 226.741 202.396 226.896C202.742 227.045 203.03 227.259 203.26 227.536C203.494 227.808 203.67 228.136 203.788 228.52C203.91 228.899 203.972 229.317 203.972 229.776V235H201.996V229.776C201.996 229.275 201.881 228.888 201.652 228.616C201.422 228.339 201.073 228.2 200.604 228.2C200.262 228.2 199.942 228.277 199.644 228.432C199.345 228.587 199.062 228.797 198.796 229.064V235H196.82V226.792H198.028C198.284 226.792 198.452 226.912 198.532 227.152L198.668 227.8ZM208.851 230.696C209.096 230.696 209.31 230.664 209.491 230.6C209.672 230.531 209.822 230.437 209.939 230.32C210.062 230.203 210.152 230.061 210.211 229.896C210.275 229.731 210.307 229.549 210.307 229.352C210.307 228.947 210.184 228.627 209.939 228.392C209.699 228.152 209.336 228.032 208.851 228.032C208.366 228.032 208 228.152 207.755 228.392C207.515 228.627 207.395 228.947 207.395 229.352C207.395 229.544 207.424 229.723 207.483 229.888C207.547 230.053 207.638 230.197 207.755 230.32C207.878 230.437 208.03 230.531 208.211 230.6C208.398 230.664 208.611 230.696 208.851 230.696ZM211.083 235.368C211.083 235.208 211.035 235.077 210.939 234.976C210.843 234.875 210.712 234.797 210.547 234.744C210.382 234.685 210.187 234.643 209.963 234.616C209.744 234.589 209.51 234.571 209.259 234.56C209.014 234.544 208.758 234.531 208.491 234.52C208.23 234.509 207.974 234.488 207.723 234.456C207.504 234.579 207.326 234.723 207.187 234.888C207.054 235.053 206.987 235.245 206.987 235.464C206.987 235.608 207.022 235.741 207.091 235.864C207.166 235.992 207.28 236.101 207.435 236.192C207.595 236.283 207.8 236.352 208.051 236.4C208.302 236.453 208.608 236.48 208.971 236.48C209.339 236.48 209.656 236.451 209.923 236.392C210.19 236.339 210.408 236.261 210.579 236.16C210.755 236.064 210.883 235.947 210.963 235.808C211.043 235.675 211.083 235.528 211.083 235.368ZM213.051 227.072V227.808C213.051 228.043 212.91 228.187 212.627 228.24L211.891 228.376C212.003 228.659 212.059 228.968 212.059 229.304C212.059 229.709 211.976 230.077 211.811 230.408C211.651 230.733 211.427 231.011 211.139 231.24C210.851 231.469 210.51 231.648 210.115 231.776C209.726 231.899 209.304 231.96 208.851 231.96C208.691 231.96 208.536 231.952 208.387 231.936C208.238 231.92 208.091 231.899 207.947 231.872C207.691 232.027 207.563 232.2 207.563 232.392C207.563 232.557 207.638 232.68 207.787 232.76C207.942 232.835 208.144 232.888 208.395 232.92C208.646 232.952 208.931 232.973 209.251 232.984C209.571 232.989 209.899 233.005 210.235 233.032C210.571 233.059 210.899 233.107 211.219 233.176C211.539 233.24 211.824 233.344 212.075 233.488C212.326 233.632 212.526 233.829 212.675 234.08C212.83 234.325 212.907 234.643 212.907 235.032C212.907 235.395 212.816 235.747 212.635 236.088C212.459 236.429 212.2 236.733 211.859 237C211.523 237.267 211.107 237.48 210.611 237.64C210.12 237.805 209.56 237.888 208.931 237.888C208.312 237.888 207.774 237.827 207.315 237.704C206.856 237.587 206.475 237.427 206.171 237.224C205.867 237.027 205.64 236.797 205.491 236.536C205.342 236.275 205.267 236.003 205.267 235.72C205.267 235.336 205.382 235.016 205.611 234.76C205.846 234.499 206.166 234.291 206.571 234.136C206.352 234.024 206.179 233.875 206.051 233.688C205.923 233.501 205.859 233.256 205.859 232.952C205.859 232.829 205.88 232.704 205.923 232.576C205.971 232.443 206.038 232.312 206.123 232.184C206.214 232.056 206.326 231.936 206.459 231.824C206.592 231.707 206.75 231.603 206.931 231.512C206.515 231.288 206.187 230.989 205.947 230.616C205.712 230.243 205.595 229.805 205.595 229.304C205.595 228.899 205.675 228.533 205.835 228.208C206 227.877 206.227 227.597 206.515 227.368C206.808 227.133 207.152 226.955 207.547 226.832C207.947 226.709 208.382 226.648 208.851 226.648C209.203 226.648 209.534 226.685 209.843 226.76C210.152 226.829 210.435 226.933 210.691 227.072H213.051ZM229.587 226.792L226.979 235H225.395C225.213 235 225.088 234.883 225.019 234.648L223.547 229.904C223.499 229.744 223.453 229.587 223.411 229.432C223.373 229.272 223.341 229.112 223.315 228.952C223.283 229.112 223.245 229.275 223.203 229.44C223.165 229.6 223.123 229.76 223.075 229.92L221.579 234.648C221.515 234.883 221.373 235 221.155 235H219.635L217.035 226.792H218.611C218.755 226.792 218.877 226.827 218.979 226.896C219.08 226.965 219.147 227.053 219.179 227.16L220.355 231.544C220.413 231.784 220.464 232.019 220.507 232.248C220.555 232.477 220.595 232.707 220.627 232.936C220.685 232.707 220.747 232.477 220.811 232.248C220.88 232.019 220.952 231.784 221.027 231.544L222.387 227.144C222.419 227.037 222.48 226.949 222.571 226.88C222.667 226.811 222.781 226.776 222.915 226.776H223.787C223.925 226.776 224.043 226.811 224.139 226.88C224.24 226.949 224.307 227.037 224.339 227.144L225.659 231.544C225.728 231.784 225.792 232.021 225.851 232.256C225.915 232.485 225.976 232.715 226.035 232.944C226.104 232.491 226.203 232.024 226.331 231.544L227.539 227.16C227.576 227.053 227.643 226.965 227.739 226.896C227.835 226.827 227.949 226.792 228.083 226.792H229.587ZM234.937 231.496C234.366 231.523 233.886 231.573 233.497 231.648C233.108 231.717 232.796 231.808 232.561 231.92C232.326 232.032 232.158 232.163 232.057 232.312C231.956 232.461 231.905 232.624 231.905 232.8C231.905 233.147 232.006 233.395 232.209 233.544C232.417 233.693 232.686 233.768 233.017 233.768C233.422 233.768 233.772 233.696 234.065 233.552C234.364 233.403 234.654 233.179 234.937 232.88V231.496ZM230.409 227.936C231.353 227.072 232.489 226.64 233.817 226.64C234.297 226.64 234.726 226.72 235.105 226.88C235.484 227.035 235.804 227.253 236.065 227.536C236.326 227.813 236.524 228.147 236.657 228.536C236.796 228.925 236.865 229.352 236.865 229.816V235H235.969C235.782 235 235.638 234.973 235.537 234.92C235.436 234.861 235.356 234.747 235.297 234.576L235.121 233.984C234.913 234.171 234.71 234.336 234.513 234.48C234.316 234.619 234.11 234.736 233.897 234.832C233.684 234.928 233.454 235 233.209 235.048C232.969 235.101 232.702 235.128 232.409 235.128C232.062 235.128 231.742 235.083 231.449 234.992C231.156 234.896 230.902 234.755 230.689 234.568C230.476 234.381 230.31 234.149 230.193 233.872C230.076 233.595 230.017 233.272 230.017 232.904C230.017 232.696 230.052 232.491 230.121 232.288C230.19 232.08 230.302 231.883 230.457 231.696C230.617 231.509 230.822 231.333 231.073 231.168C231.324 231.003 231.63 230.859 231.993 230.736C232.361 230.613 232.788 230.515 233.273 230.44C233.758 230.36 234.313 230.312 234.937 230.296V229.816C234.937 229.267 234.82 228.861 234.585 228.6C234.35 228.333 234.012 228.2 233.569 228.2C233.249 228.2 232.982 228.237 232.769 228.312C232.561 228.387 232.377 228.472 232.217 228.568C232.057 228.659 231.91 228.741 231.777 228.816C231.649 228.891 231.505 228.928 231.345 228.928C231.206 228.928 231.089 228.893 230.993 228.824C230.897 228.749 230.82 228.664 230.761 228.568L230.409 227.936ZM240.726 223.112V235H238.75V223.112H240.726ZM244.695 223.112V235H242.719V223.112H244.695ZM251.952 229.952C251.952 229.696 251.914 229.456 251.84 229.232C251.77 229.003 251.664 228.803 251.52 228.632C251.376 228.461 251.192 228.328 250.968 228.232C250.749 228.131 250.493 228.08 250.2 228.08C249.629 228.08 249.178 228.243 248.848 228.568C248.522 228.893 248.314 229.355 248.224 229.952H251.952ZM248.184 231.144C248.216 231.565 248.29 231.931 248.408 232.24C248.525 232.544 248.68 232.797 248.872 233C249.064 233.197 249.29 233.347 249.552 233.448C249.818 233.544 250.112 233.592 250.432 233.592C250.752 233.592 251.026 233.555 251.256 233.48C251.49 233.405 251.693 233.323 251.864 233.232C252.04 233.141 252.192 233.059 252.32 232.984C252.453 232.909 252.581 232.872 252.704 232.872C252.869 232.872 252.992 232.933 253.072 233.056L253.64 233.776C253.421 234.032 253.176 234.248 252.904 234.424C252.632 234.595 252.346 234.733 252.048 234.84C251.754 234.941 251.453 235.013 251.144 235.056C250.84 235.099 250.544 235.12 250.256 235.12C249.685 235.12 249.154 235.027 248.664 234.84C248.173 234.648 247.746 234.368 247.384 234C247.021 233.627 246.736 233.168 246.528 232.624C246.32 232.075 246.215 231.44 246.215 230.72C246.215 230.16 246.306 229.635 246.488 229.144C246.669 228.648 246.928 228.219 247.264 227.856C247.605 227.488 248.018 227.197 248.504 226.984C248.994 226.771 249.546 226.664 250.16 226.664C250.677 226.664 251.154 226.747 251.592 226.912C252.029 227.077 252.405 227.32 252.72 227.64C253.034 227.955 253.28 228.344 253.456 228.808C253.637 229.267 253.727 229.792 253.727 230.384C253.727 230.683 253.696 230.885 253.632 230.992C253.568 231.093 253.445 231.144 253.264 231.144H248.184ZM257.868 235.128C257.154 235.128 256.604 234.928 256.22 234.528C255.842 234.123 255.652 233.565 255.652 232.856V228.272H254.812C254.706 228.272 254.615 228.237 254.54 228.168C254.466 228.099 254.428 227.995 254.428 227.856V227.072L255.748 226.856L256.164 224.616C256.191 224.509 256.242 224.427 256.316 224.368C256.391 224.309 256.487 224.28 256.604 224.28H257.628V226.864H259.82V228.272H257.628V232.72C257.628 232.976 257.69 233.176 257.812 233.32C257.94 233.464 258.114 233.536 258.332 233.536C258.455 233.536 258.556 233.523 258.636 233.496C258.722 233.464 258.794 233.432 258.852 233.4C258.916 233.368 258.972 233.339 259.02 233.312C259.068 233.28 259.116 233.264 259.164 233.264C259.223 233.264 259.271 233.28 259.308 233.312C259.346 233.339 259.386 233.381 259.428 233.44L260.02 234.4C259.732 234.64 259.402 234.821 259.028 234.944C258.655 235.067 258.268 235.128 257.868 235.128ZM54.7239 259V252.28L54.0119 252.168C53.8572 252.136 53.7319 252.083 53.6359 252.008C53.5452 251.928 53.4999 251.816 53.4999 251.672V250.864H54.7239V250.256C54.7239 249.787 54.7932 249.365 54.9319 248.992C55.0759 248.619 55.2785 248.301 55.5399 248.04C55.8065 247.779 56.1292 247.579 56.5079 247.44C56.8865 247.301 57.3132 247.232 57.7879 247.232C58.1665 247.232 58.5185 247.283 58.8439 247.384L58.8039 248.376C58.7985 248.451 58.7772 248.512 58.7399 248.56C58.7025 248.603 58.6519 248.637 58.5879 248.664C58.5292 248.685 58.4599 248.701 58.3799 248.712C58.2999 248.717 58.2145 248.72 58.1239 248.72C57.8892 248.72 57.6785 248.747 57.4919 248.8C57.3105 248.848 57.1559 248.936 57.0279 249.064C56.8999 249.187 56.8012 249.352 56.7319 249.56C56.6679 249.763 56.6359 250.016 56.6359 250.32V250.864H58.7719V252.272H56.6999V259H54.7239ZM63.2955 250.664C63.9035 250.664 64.4555 250.763 64.9515 250.96C65.4528 251.157 65.8795 251.437 66.2315 251.8C66.5888 252.163 66.8635 252.605 67.0555 253.128C67.2475 253.651 67.3435 254.235 67.3435 254.88C67.3435 255.531 67.2475 256.117 67.0555 256.64C66.8635 257.163 66.5888 257.608 66.2315 257.976C65.8795 258.344 65.4528 258.627 64.9515 258.824C64.4555 259.021 63.9035 259.12 63.2955 259.12C62.6822 259.12 62.1248 259.021 61.6235 258.824C61.1222 258.627 60.6928 258.344 60.3355 257.976C59.9835 257.608 59.7088 257.163 59.5115 256.64C59.3195 256.117 59.2235 255.531 59.2235 254.88C59.2235 254.235 59.3195 253.651 59.5115 253.128C59.7088 252.605 59.9835 252.163 60.3355 251.8C60.6928 251.437 61.1222 251.157 61.6235 250.96C62.1248 250.763 62.6822 250.664 63.2955 250.664ZM63.2955 257.6C63.9782 257.6 64.4822 257.371 64.8075 256.912C65.1382 256.453 65.3035 255.781 65.3035 254.896C65.3035 254.011 65.1382 253.336 64.8075 252.872C64.4822 252.408 63.9782 252.176 63.2955 252.176C62.6022 252.176 62.0875 252.411 61.7515 252.88C61.4208 253.344 61.2555 254.016 61.2555 254.896C61.2555 255.776 61.4208 256.448 61.7515 256.912C62.0875 257.371 62.6022 257.6 63.2955 257.6ZM70.715 252.216C70.971 251.725 71.275 251.341 71.627 251.064C71.979 250.781 72.395 250.64 72.875 250.64C73.2537 250.64 73.5577 250.723 73.787 250.888L73.659 252.368C73.6323 252.464 73.5923 252.533 73.539 252.576C73.491 252.613 73.4243 252.632 73.339 252.632C73.259 252.632 73.139 252.619 72.979 252.592C72.8243 252.565 72.6723 252.552 72.523 252.552C72.3043 252.552 72.1097 252.584 71.939 252.648C71.7683 252.712 71.6137 252.805 71.475 252.928C71.3417 253.045 71.2217 253.189 71.115 253.36C71.0137 253.531 70.9177 253.725 70.827 253.944V259H68.851V250.792H70.011C70.2137 250.792 70.355 250.829 70.435 250.904C70.515 250.973 70.5683 251.101 70.595 251.288L70.715 252.216ZM80.8386 249.144V252.352H84.8866V254.008H80.8386V257.28H85.9746V259H78.6786V247.432H85.9746V249.144H80.8386ZM89.9933 259.128C89.2786 259.128 88.7293 258.928 88.3453 258.528C87.9666 258.123 87.7773 257.565 87.7773 256.856V252.272H86.9373C86.8306 252.272 86.7399 252.237 86.6653 252.168C86.5906 252.099 86.5533 251.995 86.5533 251.856V251.072L87.8733 250.856L88.2893 248.616C88.3159 248.509 88.3666 248.427 88.4413 248.368C88.5159 248.309 88.6119 248.28 88.7293 248.28H89.7533V250.864H91.9453V252.272H89.7533V256.72C89.7533 256.976 89.8146 257.176 89.9373 257.32C90.0653 257.464 90.2386 257.536 90.4573 257.536C90.5799 257.536 90.6813 257.523 90.7613 257.496C90.8466 257.464 90.9186 257.432 90.9773 257.4C91.0413 257.368 91.0973 257.339 91.1453 257.312C91.1933 257.28 91.2413 257.264 91.2893 257.264C91.3479 257.264 91.3959 257.28 91.4333 257.312C91.4706 257.339 91.5106 257.381 91.5533 257.44L92.1453 258.4C91.8573 258.64 91.5266 258.821 91.1533 258.944C90.7799 259.067 90.3933 259.128 89.9933 259.128ZM95.1864 251.672C95.5064 251.373 95.8584 251.131 96.2424 250.944C96.6264 250.757 97.077 250.664 97.5944 250.664C98.0424 250.664 98.4397 250.741 98.7864 250.896C99.133 251.045 99.421 251.259 99.6504 251.536C99.885 251.808 100.061 252.136 100.178 252.52C100.301 252.899 100.362 253.317 100.362 253.776V259H98.3864V253.776C98.3864 253.275 98.2717 252.888 98.0424 252.616C97.813 252.339 97.4637 252.2 96.9944 252.2C96.653 252.2 96.333 252.277 96.0344 252.432C95.7357 252.587 95.453 252.797 95.1864 253.064V259H93.2104V247.112H95.1864V251.672ZM107.53 253.952C107.53 253.696 107.492 253.456 107.418 253.232C107.348 253.003 107.242 252.803 107.098 252.632C106.954 252.461 106.77 252.328 106.546 252.232C106.327 252.131 106.071 252.08 105.778 252.08C105.207 252.08 104.756 252.243 104.426 252.568C104.1 252.893 103.892 253.355 103.802 253.952H107.53ZM103.762 255.144C103.794 255.565 103.868 255.931 103.986 256.24C104.103 256.544 104.258 256.797 104.45 257C104.642 257.197 104.868 257.347 105.13 257.448C105.396 257.544 105.69 257.592 106.01 257.592C106.33 257.592 106.604 257.555 106.834 257.48C107.068 257.405 107.271 257.323 107.442 257.232C107.618 257.141 107.77 257.059 107.898 256.984C108.031 256.909 108.159 256.872 108.282 256.872C108.447 256.872 108.57 256.933 108.65 257.056L109.218 257.776C108.999 258.032 108.754 258.248 108.482 258.424C108.21 258.595 107.924 258.733 107.626 258.84C107.332 258.941 107.031 259.013 106.722 259.056C106.418 259.099 106.122 259.12 105.834 259.12C105.263 259.12 104.732 259.027 104.242 258.84C103.751 258.648 103.324 258.368 102.962 258C102.599 257.627 102.314 257.168 102.106 256.624C101.898 256.075 101.794 255.44 101.794 254.72C101.794 254.16 101.884 253.635 102.066 253.144C102.247 252.648 102.506 252.219 102.842 251.856C103.183 251.488 103.596 251.197 104.082 250.984C104.572 250.771 105.124 250.664 105.738 250.664C106.255 250.664 106.732 250.747 107.17 250.912C107.607 251.077 107.983 251.32 108.298 251.64C108.612 251.955 108.858 252.344 109.034 252.808C109.215 253.267 109.306 253.792 109.306 254.384C109.306 254.683 109.274 254.885 109.21 254.992C109.146 255.093 109.023 255.144 108.842 255.144H103.762ZM112.653 252.216C112.909 251.725 113.213 251.341 113.565 251.064C113.917 250.781 114.333 250.64 114.812 250.64C115.191 250.64 115.495 250.723 115.725 250.888L115.597 252.368C115.57 252.464 115.53 252.533 115.477 252.576C115.429 252.613 115.362 252.632 115.277 252.632C115.197 252.632 115.077 252.619 114.917 252.592C114.762 252.565 114.61 252.552 114.461 252.552C114.242 252.552 114.047 252.584 113.877 252.648C113.706 252.712 113.551 252.805 113.413 252.928C113.279 253.045 113.159 253.189 113.053 253.36C112.951 253.531 112.855 253.725 112.765 253.944V259H110.789V250.792H111.949C112.151 250.792 112.293 250.829 112.373 250.904C112.453 250.973 112.506 251.101 112.533 251.288L112.653 252.216ZM121.811 253.952C121.811 253.696 121.774 253.456 121.699 253.232C121.63 253.003 121.523 252.803 121.379 252.632C121.235 252.461 121.051 252.328 120.827 252.232C120.608 252.131 120.352 252.08 120.059 252.08C119.488 252.08 119.038 252.243 118.707 252.568C118.382 252.893 118.174 253.355 118.083 253.952H121.811ZM118.043 255.144C118.075 255.565 118.15 255.931 118.267 256.24C118.384 256.544 118.539 256.797 118.731 257C118.923 257.197 119.15 257.347 119.411 257.448C119.678 257.544 119.971 257.592 120.291 257.592C120.611 257.592 120.886 257.555 121.115 257.48C121.35 257.405 121.552 257.323 121.723 257.232C121.899 257.141 122.051 257.059 122.179 256.984C122.312 256.909 122.44 256.872 122.563 256.872C122.728 256.872 122.851 256.933 122.931 257.056L123.499 257.776C123.28 258.032 123.035 258.248 122.763 258.424C122.491 258.595 122.206 258.733 121.907 258.84C121.614 258.941 121.312 259.013 121.003 259.056C120.699 259.099 120.403 259.12 120.115 259.12C119.544 259.12 119.014 259.027 118.523 258.84C118.032 258.648 117.606 258.368 117.243 258C116.88 257.627 116.595 257.168 116.387 256.624C116.179 256.075 116.075 255.44 116.075 254.72C116.075 254.16 116.166 253.635 116.347 253.144C116.528 252.648 116.787 252.219 117.123 251.856C117.464 251.488 117.878 251.197 118.363 250.984C118.854 250.771 119.406 250.664 120.019 250.664C120.536 250.664 121.014 250.747 121.451 250.912C121.888 251.077 122.264 251.32 122.579 251.64C122.894 251.955 123.139 252.344 123.315 252.808C123.496 253.267 123.587 253.792 123.587 254.384C123.587 254.683 123.555 254.885 123.491 254.992C123.427 255.093 123.304 255.144 123.123 255.144H118.043ZM132.142 250.792V259H130.934C130.672 259 130.507 258.88 130.438 258.64L130.302 257.984C129.966 258.325 129.595 258.603 129.19 258.816C128.784 259.024 128.307 259.128 127.758 259.128C127.31 259.128 126.912 259.053 126.566 258.904C126.224 258.749 125.936 258.533 125.702 258.256C125.467 257.979 125.288 257.651 125.166 257.272C125.048 256.888 124.99 256.467 124.99 256.008V250.792H126.966V256.008C126.966 256.509 127.08 256.899 127.31 257.176C127.544 257.448 127.894 257.584 128.358 257.584C128.699 257.584 129.019 257.509 129.318 257.36C129.616 257.205 129.899 256.995 130.166 256.728V250.792H132.142ZM134.101 259V250.792H135.309C135.565 250.792 135.733 250.912 135.813 251.152L135.941 251.76C136.085 251.6 136.234 251.453 136.389 251.32C136.549 251.187 136.717 251.072 136.893 250.976C137.074 250.88 137.266 250.805 137.469 250.752C137.677 250.693 137.904 250.664 138.149 250.664C138.666 250.664 139.09 250.805 139.421 251.088C139.757 251.365 140.008 251.736 140.173 252.2C140.301 251.928 140.461 251.696 140.653 251.504C140.845 251.307 141.056 251.147 141.285 251.024C141.514 250.901 141.757 250.811 142.013 250.752C142.274 250.693 142.536 250.664 142.797 250.664C143.25 250.664 143.653 250.733 144.005 250.872C144.357 251.011 144.653 251.213 144.893 251.48C145.133 251.747 145.314 252.072 145.437 252.456C145.565 252.84 145.629 253.28 145.629 253.776V259H143.653V253.776C143.653 253.253 143.538 252.861 143.309 252.6C143.08 252.333 142.744 252.2 142.301 252.2C142.098 252.2 141.909 252.235 141.733 252.304C141.562 252.373 141.41 252.475 141.277 252.608C141.149 252.736 141.048 252.899 140.973 253.096C140.898 253.293 140.861 253.52 140.861 253.776V259H138.877V253.776C138.877 253.227 138.765 252.827 138.541 252.576C138.322 252.325 138 252.2 137.573 252.2C137.285 252.2 137.016 252.272 136.765 252.416C136.52 252.555 136.29 252.747 136.077 252.992V259H134.101ZM155.734 255.496C155.163 255.523 154.683 255.573 154.294 255.648C153.905 255.717 153.593 255.808 153.358 255.92C153.123 256.032 152.955 256.163 152.854 256.312C152.753 256.461 152.702 256.624 152.702 256.8C152.702 257.147 152.803 257.395 153.006 257.544C153.214 257.693 153.483 257.768 153.814 257.768C154.219 257.768 154.569 257.696 154.862 257.552C155.161 257.403 155.451 257.179 155.734 256.88V255.496ZM151.206 251.936C152.15 251.072 153.286 250.64 154.614 250.64C155.094 250.64 155.523 250.72 155.902 250.88C156.281 251.035 156.601 251.253 156.862 251.536C157.123 251.813 157.321 252.147 157.454 252.536C157.593 252.925 157.662 253.352 157.662 253.816V259H156.766C156.579 259 156.435 258.973 156.334 258.92C156.233 258.861 156.153 258.747 156.094 258.576L155.918 257.984C155.71 258.171 155.507 258.336 155.31 258.48C155.113 258.619 154.907 258.736 154.694 258.832C154.481 258.928 154.251 259 154.006 259.048C153.766 259.101 153.499 259.128 153.206 259.128C152.859 259.128 152.539 259.083 152.246 258.992C151.953 258.896 151.699 258.755 151.486 258.568C151.273 258.381 151.107 258.149 150.99 257.872C150.873 257.595 150.814 257.272 150.814 256.904C150.814 256.696 150.849 256.491 150.918 256.288C150.987 256.08 151.099 255.883 151.254 255.696C151.414 255.509 151.619 255.333 151.87 255.168C152.121 255.003 152.427 254.859 152.79 254.736C153.158 254.613 153.585 254.515 154.07 254.44C154.555 254.36 155.11 254.312 155.734 254.296V253.816C155.734 253.267 155.617 252.861 155.382 252.6C155.147 252.333 154.809 252.2 154.366 252.2C154.046 252.2 153.779 252.237 153.566 252.312C153.358 252.387 153.174 252.472 153.014 252.568C152.854 252.659 152.707 252.741 152.574 252.816C152.446 252.891 152.302 252.928 152.142 252.928C152.003 252.928 151.886 252.893 151.79 252.824C151.694 252.749 151.617 252.664 151.558 252.568L151.206 251.936ZM161.371 251.8C161.536 251.635 161.71 251.483 161.891 251.344C162.078 251.2 162.272 251.08 162.475 250.984C162.683 250.883 162.904 250.805 163.139 250.752C163.374 250.693 163.63 250.664 163.907 250.664C164.355 250.664 164.752 250.741 165.099 250.896C165.446 251.045 165.734 251.259 165.963 251.536C166.198 251.808 166.374 252.136 166.491 252.52C166.614 252.899 166.675 253.317 166.675 253.776V259H164.699V253.776C164.699 253.275 164.584 252.888 164.355 252.616C164.126 252.339 163.776 252.2 163.307 252.2C162.966 252.2 162.646 252.277 162.347 252.432C162.048 252.587 161.766 252.797 161.499 253.064V259H159.523V250.792H160.731C160.987 250.792 161.155 250.912 161.235 251.152L161.371 251.8ZM173.706 252.888C173.482 252.616 173.237 252.424 172.97 252.312C172.709 252.2 172.426 252.144 172.122 252.144C171.823 252.144 171.554 252.2 171.314 252.312C171.074 252.424 170.869 252.595 170.698 252.824C170.527 253.048 170.397 253.336 170.306 253.688C170.215 254.035 170.17 254.445 170.17 254.92C170.17 255.4 170.207 255.808 170.282 256.144C170.362 256.475 170.474 256.747 170.618 256.96C170.762 257.168 170.938 257.32 171.146 257.416C171.354 257.507 171.586 257.552 171.842 257.552C172.253 257.552 172.602 257.467 172.89 257.296C173.178 257.125 173.45 256.883 173.706 256.568V252.888ZM175.682 247.112V259H174.474C174.213 259 174.047 258.88 173.978 258.64L173.81 257.848C173.479 258.227 173.098 258.533 172.666 258.768C172.239 259.003 171.741 259.12 171.17 259.12C170.722 259.12 170.311 259.027 169.938 258.84C169.565 258.653 169.242 258.384 168.97 258.032C168.703 257.675 168.495 257.235 168.346 256.712C168.202 256.189 168.13 255.592 168.13 254.92C168.13 254.312 168.213 253.747 168.378 253.224C168.543 252.701 168.781 252.248 169.09 251.864C169.399 251.48 169.77 251.181 170.202 250.968C170.634 250.749 171.119 250.64 171.658 250.64C172.117 250.64 172.509 250.712 172.834 250.856C173.159 251 173.45 251.195 173.706 251.44V247.112H175.682ZM185.859 255.496C185.288 255.523 184.808 255.573 184.419 255.648C184.03 255.717 183.718 255.808 183.483 255.92C183.248 256.032 183.08 256.163 182.979 256.312C182.878 256.461 182.827 256.624 182.827 256.8C182.827 257.147 182.928 257.395 183.131 257.544C183.339 257.693 183.608 257.768 183.939 257.768C184.344 257.768 184.694 257.696 184.987 257.552C185.286 257.403 185.576 257.179 185.859 256.88V255.496ZM181.331 251.936C182.275 251.072 183.411 250.64 184.739 250.64C185.219 250.64 185.648 250.72 186.027 250.88C186.406 251.035 186.726 251.253 186.987 251.536C187.248 251.813 187.446 252.147 187.579 252.536C187.718 252.925 187.787 253.352 187.787 253.816V259H186.891C186.704 259 186.56 258.973 186.459 258.92C186.358 258.861 186.278 258.747 186.219 258.576L186.043 257.984C185.835 258.171 185.632 258.336 185.435 258.48C185.238 258.619 185.032 258.736 184.819 258.832C184.606 258.928 184.376 259 184.131 259.048C183.891 259.101 183.624 259.128 183.331 259.128C182.984 259.128 182.664 259.083 182.371 258.992C182.078 258.896 181.824 258.755 181.611 258.568C181.398 258.381 181.232 258.149 181.115 257.872C180.998 257.595 180.939 257.272 180.939 256.904C180.939 256.696 180.974 256.491 181.043 256.288C181.112 256.08 181.224 255.883 181.379 255.696C181.539 255.509 181.744 255.333 181.995 255.168C182.246 255.003 182.552 254.859 182.915 254.736C183.283 254.613 183.71 254.515 184.195 254.44C184.68 254.36 185.235 254.312 185.859 254.296V253.816C185.859 253.267 185.742 252.861 185.507 252.6C185.272 252.333 184.934 252.2 184.491 252.2C184.171 252.2 183.904 252.237 183.691 252.312C183.483 252.387 183.299 252.472 183.139 252.568C182.979 252.659 182.832 252.741 182.699 252.816C182.571 252.891 182.427 252.928 182.267 252.928C182.128 252.928 182.011 252.893 181.915 252.824C181.819 252.749 181.742 252.664 181.683 252.568L181.331 251.936ZM191.648 247.112V259H189.672V247.112H191.648ZM195.617 247.112V259H193.641V247.112H195.617ZM203.948 249.144V252.352H207.996V254.008H203.948V257.28H209.084V259H201.788V247.432H209.084V249.144H203.948ZM220.903 247.432L216.231 259H214.287L209.615 247.432H211.343C211.53 247.432 211.682 247.477 211.799 247.568C211.916 247.659 212.004 247.776 212.063 247.92L214.791 254.976C214.882 255.205 214.967 255.459 215.047 255.736C215.132 256.008 215.212 256.293 215.287 256.592C215.351 256.293 215.42 256.008 215.495 255.736C215.57 255.459 215.652 255.205 215.743 254.976L218.455 247.92C218.498 247.797 218.58 247.685 218.703 247.584C218.831 247.483 218.986 247.432 219.167 247.432H220.903ZM234.645 247.432V259H232.749V251.528C232.749 251.229 232.765 250.907 232.797 250.56L229.301 257.128C229.135 257.443 228.882 257.6 228.541 257.6H228.237C227.895 257.6 227.642 257.443 227.477 257.128L223.941 250.536C223.957 250.712 223.97 250.885 223.981 251.056C223.991 251.227 223.997 251.384 223.997 251.528V259H222.101V247.432H223.725C223.821 247.432 223.903 247.435 223.973 247.44C224.042 247.445 224.103 247.459 224.157 247.48C224.215 247.501 224.266 247.536 224.309 247.584C224.357 247.632 224.402 247.696 224.445 247.776L227.909 254.2C227.999 254.371 228.082 254.547 228.157 254.728C228.237 254.909 228.314 255.096 228.389 255.288C228.463 255.091 228.541 254.901 228.621 254.72C228.701 254.533 228.786 254.355 228.877 254.184L232.293 247.776C232.335 247.696 232.381 247.632 232.429 247.584C232.477 247.536 232.527 247.501 232.581 247.48C232.639 247.459 232.703 247.445 232.773 247.44C232.842 247.435 232.925 247.432 233.021 247.432H234.645ZM246.684 252.528C246.625 252.603 246.567 252.661 246.508 252.704C246.455 252.747 246.375 252.768 246.268 252.768C246.167 252.768 246.068 252.739 245.972 252.68C245.876 252.616 245.761 252.547 245.628 252.472C245.495 252.392 245.335 252.323 245.148 252.264C244.967 252.2 244.74 252.168 244.468 252.168C244.121 252.168 243.817 252.232 243.556 252.36C243.295 252.483 243.076 252.661 242.9 252.896C242.729 253.131 242.601 253.416 242.516 253.752C242.431 254.083 242.388 254.459 242.388 254.88C242.388 255.317 242.433 255.707 242.524 256.048C242.62 256.389 242.756 256.677 242.932 256.912C243.108 257.141 243.321 257.317 243.572 257.44C243.823 257.557 244.105 257.616 244.42 257.616C244.735 257.616 244.988 257.579 245.18 257.504C245.377 257.424 245.543 257.339 245.676 257.248C245.809 257.152 245.924 257.067 246.02 256.992C246.121 256.912 246.233 256.872 246.356 256.872C246.516 256.872 246.636 256.933 246.716 257.056L247.284 257.776C247.065 258.032 246.828 258.248 246.572 258.424C246.316 258.595 246.049 258.733 245.772 258.84C245.5 258.941 245.217 259.013 244.924 259.056C244.636 259.099 244.348 259.12 244.06 259.12C243.553 259.12 243.076 259.027 242.628 258.84C242.18 258.648 241.788 258.371 241.452 258.008C241.116 257.645 240.849 257.203 240.652 256.68C240.46 256.152 240.364 255.552 240.364 254.88C240.364 254.277 240.449 253.72 240.62 253.208C240.796 252.691 241.052 252.245 241.388 251.872C241.724 251.493 242.14 251.197 242.636 250.984C243.132 250.771 243.703 250.664 244.348 250.664C244.961 250.664 245.497 250.763 245.956 250.96C246.42 251.157 246.836 251.44 247.204 251.808L246.684 252.528ZM250.499 251.672C250.819 251.373 251.171 251.131 251.555 250.944C251.939 250.757 252.39 250.664 252.907 250.664C253.355 250.664 253.752 250.741 254.099 250.896C254.446 251.045 254.734 251.259 254.963 251.536C255.198 251.808 255.374 252.136 255.491 252.52C255.614 252.899 255.675 253.317 255.675 253.776V259H253.699V253.776C253.699 253.275 253.584 252.888 253.355 252.616C253.126 252.339 252.776 252.2 252.307 252.2C251.966 252.2 251.646 252.277 251.347 252.432C251.048 252.587 250.766 252.797 250.499 253.064V259H248.523V247.112H250.499V251.672ZM261.89 255.496C261.319 255.523 260.839 255.573 260.45 255.648C260.061 255.717 259.749 255.808 259.514 255.92C259.279 256.032 259.111 256.163 259.01 256.312C258.909 256.461 258.858 256.624 258.858 256.8C258.858 257.147 258.959 257.395 259.162 257.544C259.37 257.693 259.639 257.768 259.97 257.768C260.375 257.768 260.725 257.696 261.018 257.552C261.317 257.403 261.607 257.179 261.89 256.88V255.496ZM257.362 251.936C258.306 251.072 259.442 250.64 260.77 250.64C261.25 250.64 261.679 250.72 262.058 250.88C262.437 251.035 262.757 251.253 263.018 251.536C263.279 251.813 263.477 252.147 263.61 252.536C263.749 252.925 263.818 253.352 263.818 253.816V259H262.922C262.735 259 262.591 258.973 262.49 258.92C262.389 258.861 262.309 258.747 262.25 258.576L262.074 257.984C261.866 258.171 261.663 258.336 261.466 258.48C261.269 258.619 261.063 258.736 260.85 258.832C260.637 258.928 260.407 259 260.162 259.048C259.922 259.101 259.655 259.128 259.362 259.128C259.015 259.128 258.695 259.083 258.402 258.992C258.109 258.896 257.855 258.755 257.642 258.568C257.429 258.381 257.263 258.149 257.146 257.872C257.029 257.595 256.97 257.272 256.97 256.904C256.97 256.696 257.005 256.491 257.074 256.288C257.143 256.08 257.255 255.883 257.41 255.696C257.57 255.509 257.775 255.333 258.026 255.168C258.277 255.003 258.583 254.859 258.946 254.736C259.314 254.613 259.741 254.515 260.226 254.44C260.711 254.36 261.266 254.312 261.89 254.296V253.816C261.89 253.267 261.773 252.861 261.538 252.6C261.303 252.333 260.965 252.2 260.522 252.2C260.202 252.2 259.935 252.237 259.722 252.312C259.514 252.387 259.33 252.472 259.17 252.568C259.01 252.659 258.863 252.741 258.73 252.816C258.602 252.891 258.458 252.928 258.298 252.928C258.159 252.928 258.042 252.893 257.946 252.824C257.85 252.749 257.773 252.664 257.714 252.568L257.362 251.936ZM267.727 250.792V259H265.743V250.792H267.727ZM267.999 248.4C267.999 248.571 267.964 248.731 267.895 248.88C267.826 249.029 267.732 249.16 267.615 249.272C267.503 249.384 267.37 249.475 267.215 249.544C267.06 249.608 266.895 249.64 266.719 249.64C266.548 249.64 266.386 249.608 266.231 249.544C266.082 249.475 265.951 249.384 265.839 249.272C265.727 249.16 265.636 249.029 265.567 248.88C265.503 248.731 265.471 248.571 265.471 248.4C265.471 248.224 265.503 248.059 265.567 247.904C265.636 247.749 265.727 247.616 265.839 247.504C265.951 247.392 266.082 247.304 266.231 247.24C266.386 247.171 266.548 247.136 266.719 247.136C266.895 247.136 267.06 247.171 267.215 247.24C267.37 247.304 267.503 247.392 267.615 247.504C267.732 247.616 267.826 247.749 267.895 247.904C267.964 248.059 267.999 248.224 267.999 248.4ZM271.59 251.8C271.755 251.635 271.928 251.483 272.11 251.344C272.296 251.2 272.491 251.08 272.694 250.984C272.902 250.883 273.123 250.805 273.358 250.752C273.592 250.693 273.848 250.664 274.126 250.664C274.574 250.664 274.971 250.741 275.318 250.896C275.664 251.045 275.952 251.259 276.182 251.536C276.416 251.808 276.592 252.136 276.71 252.52C276.832 252.899 276.894 253.317 276.894 253.776V259H274.918V253.776C274.918 253.275 274.803 252.888 274.574 252.616C274.344 252.339 273.995 252.2 273.526 252.2C273.184 252.2 272.864 252.277 272.566 252.432C272.267 252.587 271.984 252.797 271.718 253.064V259H269.742V250.792H270.95C271.206 250.792 271.374 250.912 271.454 251.152L271.59 251.8ZM283.781 252.392C283.728 252.477 283.672 252.539 283.613 252.576C283.554 252.608 283.48 252.624 283.389 252.624C283.293 252.624 283.189 252.597 283.077 252.544C282.97 252.491 282.845 252.432 282.701 252.368C282.557 252.299 282.392 252.237 282.205 252.184C282.024 252.131 281.808 252.104 281.557 252.104C281.168 252.104 280.861 252.187 280.637 252.352C280.418 252.517 280.309 252.733 280.309 253C280.309 253.176 280.365 253.325 280.477 253.448C280.594 253.565 280.746 253.669 280.933 253.76C281.125 253.851 281.341 253.933 281.581 254.008C281.821 254.077 282.064 254.155 282.309 254.24C282.56 254.325 282.805 254.424 283.045 254.536C283.285 254.643 283.498 254.781 283.685 254.952C283.877 255.117 284.029 255.317 284.141 255.552C284.258 255.787 284.317 256.069 284.317 256.4C284.317 256.795 284.245 257.16 284.101 257.496C283.962 257.827 283.754 258.115 283.477 258.36C283.2 258.6 282.856 258.789 282.445 258.928C282.04 259.061 281.57 259.128 281.037 259.128C280.754 259.128 280.477 259.101 280.205 259.048C279.938 259 279.68 258.931 279.429 258.84C279.184 258.749 278.954 258.643 278.741 258.52C278.533 258.397 278.349 258.264 278.189 258.12L278.645 257.368C278.704 257.277 278.773 257.208 278.853 257.16C278.933 257.112 279.034 257.088 279.157 257.088C279.28 257.088 279.394 257.123 279.501 257.192C279.613 257.261 279.741 257.336 279.885 257.416C280.029 257.496 280.197 257.571 280.389 257.64C280.586 257.709 280.834 257.744 281.133 257.744C281.368 257.744 281.568 257.717 281.733 257.664C281.904 257.605 282.042 257.531 282.149 257.44C282.261 257.349 282.341 257.245 282.389 257.128C282.442 257.005 282.469 256.88 282.469 256.752C282.469 256.56 282.41 256.403 282.293 256.28C282.181 256.157 282.029 256.051 281.837 255.96C281.65 255.869 281.434 255.789 281.189 255.72C280.949 255.645 280.701 255.565 280.445 255.48C280.194 255.395 279.946 255.296 279.701 255.184C279.461 255.067 279.245 254.92 279.053 254.744C278.866 254.568 278.714 254.352 278.597 254.096C278.485 253.84 278.429 253.531 278.429 253.168C278.429 252.832 278.496 252.512 278.629 252.208C278.762 251.904 278.957 251.64 279.213 251.416C279.474 251.187 279.797 251.005 280.181 250.872C280.57 250.733 281.018 250.664 281.525 250.664C282.09 250.664 282.605 250.757 283.069 250.944C283.533 251.131 283.92 251.376 284.229 251.68L283.781 252.392Z" fill="white"/>
<path d="M115.675 179.937H116.32C116.995 179.937 117.512 179.784 117.873 179.477C118.233 179.171 118.413 178.731 118.413 178.156C118.413 177.581 118.233 177.141 117.873 176.834C117.512 176.528 116.995 176.375 116.32 176.375H115.675V179.937ZM123.192 187.923H118.936L115.675 182.369V187.923H112.257V173.483H117.576C118.309 173.483 118.948 173.604 119.495 173.847C120.041 174.077 120.489 174.396 120.838 174.804C121.198 175.213 121.465 175.685 121.64 176.222C121.826 176.758 121.919 177.332 121.919 177.945C121.919 179.043 121.675 179.937 121.186 180.627C120.71 181.303 120 181.763 119.059 182.005L123.192 187.923Z" fill="white"/>
<path d="M126.005 182.982C126.005 183.301 126.057 183.601 126.162 183.882C126.266 184.15 126.406 184.387 126.58 184.591C126.766 184.795 126.981 184.955 127.226 185.07C127.481 185.185 127.755 185.242 128.045 185.242C128.324 185.242 128.586 185.185 128.83 185.07C129.086 184.955 129.301 184.795 129.475 184.591C129.662 184.387 129.807 184.15 129.912 183.882C130.028 183.614 130.086 183.327 130.086 183.021C130.086 182.714 130.028 182.427 129.912 182.159C129.807 181.878 129.662 181.635 129.475 181.431C129.301 181.227 129.086 181.067 128.83 180.952C128.586 180.837 128.324 180.78 128.045 180.78C127.755 180.78 127.481 180.837 127.226 180.952C126.981 181.067 126.766 181.227 126.58 181.431C126.406 181.635 126.266 181.871 126.162 182.14C126.057 182.395 126.005 182.676 126.005 182.982ZM129.981 178.098H133.156V187.923H129.981V186.832C129.307 187.764 128.394 188.23 127.243 188.23C126.592 188.23 125.993 188.102 125.447 187.847C124.9 187.579 124.423 187.208 124.016 186.736C123.61 186.264 123.29 185.708 123.057 185.07C122.836 184.431 122.726 183.736 122.726 182.982C122.726 182.28 122.836 181.616 123.057 180.99C123.278 180.352 123.586 179.797 123.982 179.324C124.377 178.852 124.848 178.482 125.394 178.213C125.941 177.933 126.545 177.792 127.208 177.792C128.324 177.792 129.249 178.22 129.981 179.075V178.098Z" fill="white"/>
<path d="M141.391 183.04C141.391 182.733 141.338 182.446 141.234 182.178C141.129 181.897 140.984 181.654 140.798 181.45C140.612 181.246 140.397 181.086 140.152 180.971C139.908 180.844 139.641 180.78 139.35 180.78C139.071 180.78 138.809 180.837 138.565 180.952C138.321 181.067 138.106 181.227 137.92 181.431C137.746 181.635 137.6 181.878 137.484 182.159C137.379 182.427 137.327 182.714 137.327 183.021C137.327 183.327 137.379 183.614 137.484 183.882C137.589 184.15 137.734 184.387 137.92 184.591C138.106 184.783 138.321 184.942 138.565 185.07C138.821 185.185 139.088 185.242 139.368 185.242C139.647 185.242 139.908 185.185 140.152 185.07C140.397 184.955 140.606 184.795 140.78 184.591C140.966 184.387 141.112 184.15 141.216 183.882C141.333 183.614 141.391 183.333 141.391 183.04ZM137.414 172.027V179.075C138.158 178.22 139.088 177.792 140.205 177.792C140.867 177.792 141.472 177.933 142.019 178.213C142.577 178.482 143.048 178.852 143.431 179.324C143.827 179.784 144.135 180.333 144.356 180.971C144.577 181.597 144.687 182.267 144.687 182.982C144.687 183.71 144.571 184.393 144.338 185.031C144.117 185.67 143.803 186.225 143.396 186.698C142.989 187.17 142.507 187.547 141.949 187.828C141.402 188.096 140.809 188.23 140.17 188.23C139.007 188.23 138.089 187.764 137.414 186.832V187.923H134.257V172.027H137.414Z" fill="white"/>
<path d="M152.573 183.04C152.573 182.733 152.521 182.446 152.416 182.178C152.312 181.897 152.166 181.654 151.98 181.45C151.794 181.246 151.579 181.086 151.335 180.971C151.091 180.844 150.823 180.78 150.533 180.78C150.254 180.78 149.992 180.837 149.748 180.952C149.504 181.067 149.289 181.227 149.103 181.431C148.928 181.635 148.783 181.878 148.667 182.159C148.562 182.427 148.51 182.714 148.51 183.021C148.51 183.327 148.562 183.614 148.667 183.882C148.771 184.15 148.917 184.387 149.103 184.591C149.289 184.783 149.504 184.942 149.748 185.07C150.004 185.185 150.271 185.242 150.55 185.242C150.829 185.242 151.091 185.185 151.335 185.07C151.579 184.955 151.789 184.795 151.963 184.591C152.149 184.387 152.294 184.15 152.399 183.882C152.515 183.614 152.573 183.333 152.573 183.04ZM148.597 172.027V179.075C149.341 178.22 150.271 177.792 151.387 177.792C152.05 177.792 152.655 177.933 153.201 178.213C153.759 178.482 154.23 178.852 154.614 179.324C155.009 179.784 155.317 180.333 155.538 180.971C155.759 181.597 155.87 182.267 155.87 182.982C155.87 183.71 155.753 184.393 155.521 185.031C155.3 185.67 154.986 186.225 154.579 186.698C154.172 187.17 153.69 187.547 153.131 187.828C152.585 188.096 151.992 188.23 151.352 188.23C150.19 188.23 149.271 187.764 148.597 186.832V187.923H145.44V172.027H148.597Z" fill="white"/>
<path d="M159.39 186.583L155.064 178.098H158.727L161.116 183.135L163.436 178.098H167.064L159.878 192.826H156.338L159.39 186.583Z" fill="white"/>
<path d="M174.482 173.483L176.749 182.81L179.54 173.483H182.261L185.051 182.81L187.318 173.483H190.894L186.97 187.923H183.481L180.9 179.554L178.319 187.923H174.831L170.906 173.483H174.482Z" fill="white"/>
<path d="M193.271 182.982C193.271 183.301 193.323 183.601 193.428 183.882C193.533 184.15 193.672 184.387 193.847 184.591C194.033 184.795 194.248 184.955 194.492 185.07C194.748 185.185 195.021 185.242 195.312 185.242C195.591 185.242 195.852 185.185 196.097 185.07C196.352 184.955 196.567 184.795 196.742 184.591C196.928 184.387 197.073 184.15 197.178 183.882C197.294 183.614 197.352 183.327 197.352 183.021C197.352 182.714 197.294 182.427 197.178 182.159C197.073 181.878 196.928 181.635 196.742 181.431C196.567 181.227 196.352 181.067 196.097 180.952C195.852 180.837 195.591 180.78 195.312 180.78C195.021 180.78 194.748 180.837 194.492 180.952C194.248 181.067 194.033 181.227 193.847 181.431C193.672 181.635 193.533 181.871 193.428 182.14C193.323 182.395 193.271 182.676 193.271 182.982ZM197.248 178.098H200.422V187.923H197.248V186.832C196.573 187.764 195.661 188.23 194.509 188.23C193.858 188.23 193.259 188.102 192.713 187.847C192.167 187.579 191.69 187.208 191.283 186.736C190.876 186.264 190.556 185.708 190.324 185.07C190.103 184.431 189.992 183.736 189.992 182.982C189.992 182.28 190.103 181.616 190.324 180.99C190.545 180.352 190.853 179.797 191.248 179.324C191.643 178.852 192.114 178.482 192.661 178.213C193.207 177.933 193.812 177.792 194.475 177.792C195.591 177.792 196.515 178.22 197.248 179.075V178.098Z" fill="white"/>
<path d="M204.681 172.027V187.923H201.524V172.027H204.681Z" fill="white"/>
<path d="M208.948 172.027V187.923H205.791V172.027H208.948Z" fill="white"/>
<path d="M216.599 181.584C216.495 181.099 216.28 180.71 215.954 180.416C215.628 180.122 215.233 179.975 214.768 179.975C214.28 179.975 213.878 180.116 213.565 180.397C213.262 180.678 213.07 181.073 212.989 181.584H216.599ZM212.902 183.595C212.902 185.089 213.541 185.836 214.82 185.836C215.506 185.836 216.024 185.529 216.373 184.917H219.425C218.808 187.164 217.268 188.287 214.803 188.287C214.047 188.287 213.355 188.166 212.727 187.923C212.1 187.668 211.559 187.311 211.105 186.851C210.664 186.391 210.321 185.842 210.076 185.204C209.832 184.565 209.71 183.85 209.71 183.059C209.71 182.242 209.826 181.508 210.059 180.856C210.291 180.192 210.623 179.631 211.053 179.171C211.483 178.711 212.001 178.36 212.605 178.118C213.222 177.862 213.913 177.735 214.681 177.735C215.437 177.735 216.117 177.862 216.721 178.118C217.326 178.36 217.838 178.718 218.256 179.19C218.675 179.663 218.995 180.244 219.215 180.933C219.436 181.61 219.547 182.376 219.547 183.231V183.595H212.902Z" fill="white"/>
<path d="M223.947 180.99V187.923H220.79V180.99H219.744V178.098H220.79V175.149H223.947V178.098H225.744V180.99H223.947Z" fill="white"/>
<path d="M214.3 126.627C217.895 118.569 200.122 96.0551 183.143 86.6754C172.44 79.4091 161.288 80.4074 159.03 83.5978C154.073 90.5996 175.443 96.5326 189.735 103.456C186.663 104.795 183.768 107.197 182.065 110.27C176.737 104.433 165.042 99.4073 151.32 103.456C142.073 106.184 134.388 112.616 131.417 122.331C130.696 122.009 129.897 121.83 129.056 121.83C125.841 121.83 123.235 124.445 123.235 127.671C123.235 130.897 125.841 133.512 129.056 133.512C129.652 133.512 131.515 133.111 131.515 133.111L161.288 133.327C149.381 152.28 139.971 155.051 139.971 158.334C139.971 161.618 148.975 160.728 152.356 159.504C168.539 153.645 185.921 135.385 188.904 130.128C201.43 131.696 211.956 131.882 214.3 126.627Z" fill="url(#paint0_linear_25695_9383)"/>
<path fill-rule="evenodd" clip-rule="evenodd" d="M189.734 103.457C189.734 103.457 189.735 103.458 189.736 103.458C190.399 103.196 190.291 102.215 190.109 101.444C189.691 99.6718 182.478 92.5244 175.704 89.3231C166.474 84.9611 159.677 85.1857 158.672 87.1958C160.552 91.0626 169.269 94.6929 178.373 98.4845C182.257 100.102 186.211 101.749 189.736 103.456C189.735 103.456 189.734 103.457 189.734 103.457Z" fill="url(#paint1_linear_25695_9383)"/>
<path fill-rule="evenodd" clip-rule="evenodd" d="M178.02 142.374C176.153 141.658 174.045 141.001 171.647 140.405C174.203 135.816 174.74 129.022 172.326 124.726C168.938 118.698 164.685 115.489 154.802 115.489C149.366 115.489 134.731 117.326 134.472 129.584C134.444 130.871 134.471 132.049 134.564 133.133L161.288 133.328C157.685 139.063 154.311 143.316 151.357 146.55C154.904 147.462 157.831 148.227 160.518 148.93C163.068 149.597 165.402 150.208 167.844 150.833C171.529 148.139 174.993 145.202 178.02 142.374Z" fill="url(#paint2_linear_25695_9383)"/>
<path d="M131.061 131.873C132.152 141.185 137.427 144.835 148.204 145.915C158.982 146.994 165.164 146.27 173.395 147.021C180.269 147.649 186.407 151.164 188.684 149.949C190.733 148.856 189.587 144.907 186.845 142.373C183.29 139.088 178.371 136.805 169.715 135.994C171.44 131.255 170.957 124.611 168.278 120.996C164.404 115.768 157.254 113.405 148.204 114.438C138.75 115.516 129.69 120.187 131.061 131.873Z" fill="url(#paint3_linear_25695_9383)"/>
<defs>
<linearGradient id="paint0_linear_25695_9383" x1="150.243" y1="119.491" x2="213.558" y2="137.386" gradientUnits="userSpaceOnUse">
<stop stop-color="white"/>
<stop offset="1" stop-color="white"/>
</linearGradient>
<linearGradient id="paint1_linear_25695_9383" x1="202.87" y1="118.284" x2="157.054" y2="72.5114" gradientUnits="userSpaceOnUse">
<stop stop-color="#8697FF"/>
<stop offset="1" stop-color="#8697FF" stop-opacity="0"/>
</linearGradient>
<linearGradient id="paint2_linear_25695_9383" x1="179.29" y1="143.974" x2="135.354" y2="118.798" gradientUnits="userSpaceOnUse">
<stop stop-color="#8697FF"/>
<stop offset="1" stop-color="#8697FF" stop-opacity="0"/>
</linearGradient>
<linearGradient id="paint3_linear_25695_9383" x1="154.021" y1="119.017" x2="183.793" y2="156.718" gradientUnits="userSpaceOnUse">
<stop stop-color="white"/>
<stop offset="0.983895" stop-color="#D1D8FF"/>
</linearGradient>
</defs>
</svg>
