<svg width="20" height="20" viewBox="0 0 20 20" fill="none" xmlns="http://www.w3.org/2000/svg">
<path d="M7.5 2.5H3.33333C2.8731 2.5 2.5 2.8731 2.5 3.33333V7.5C2.5 7.96025 2.8731 8.33333 3.33333 8.33333H7.5C7.96025 8.33333 8.33333 7.96025 8.33333 7.5V3.33333C8.33333 2.8731 7.96025 2.5 7.5 2.5Z" stroke="#13141A" stroke-width="1.25" stroke-linejoin="round"/>
<path d="M7.5 11.668H3.33333C2.8731 11.668 2.5 12.0411 2.5 12.5013V16.668C2.5 17.1282 2.8731 17.5013 3.33333 17.5013H7.5C7.96025 17.5013 8.33333 17.1282 8.33333 16.668V12.5013C8.33333 12.0411 7.96025 11.668 7.5 11.668Z" stroke="#13141A" stroke-width="1.25" stroke-linejoin="round"/>
<path d="M16.665 2.50098L12.4984 2.50098C12.0381 2.50098 11.665 2.87407 11.665 3.33431V7.50098C11.665 7.96123 12.0381 8.33431 12.4984 8.33431H16.665C17.1253 8.33431 17.4984 7.96123 17.4984 7.50098V3.33431C17.4984 2.87407 17.1253 2.50098 16.665 2.50098Z" stroke="#13141A" stroke-width="1.25" stroke-linejoin="round"/>
<path d="M16.668 11.668H12.5013C12.0411 11.668 11.668 12.0411 11.668 12.5013V16.668C11.668 17.1282 12.0411 17.5013 12.5013 17.5013H16.668C17.1282 17.5013 17.5013 17.1282 17.5013 16.668V12.5013C17.5013 12.0411 17.1282 11.668 16.668 11.668Z" stroke="#13141A" stroke-width="1.25" stroke-linejoin="round"/>
</svg>
