<svg xmlns="http://www.w3.org/2000/svg" width="28" height="28" viewBox="0 0 28 28" fill="none">
    <path opacity="0.8" fill-rule="evenodd" clip-rule="evenodd"
        d="M23 18.9492C23 22.961 19.9004 26.2132 16.0769 26.2132H3V21.3706H16.0769C17.3514 21.3706 18.3846 20.2865 18.3846 18.9492C18.3846 17.612 17.3514 16.5279 16.0769 16.5279H11.4615V11.6853H16.0769C17.3514 11.6853 18.3846 10.6012 18.3846 9.26396C18.3846 7.92671 17.3514 6.84264 16.0769 6.84264H3V2H16.0769C19.9004 2 23 5.25219 23 9.26396C23 11.1244 22.3334 12.8215 21.2372 14.1066C22.3334 15.3917 23 17.0888 23 18.9492Z"
        fill="#FE815F" />
    <path opacity="0.12" fill-rule="evenodd" clip-rule="evenodd"
        d="M3 6.84264H14.2317C11.846 3.90208 8.04752 2 3.76923 2C3.511 2 3.25453 2.00693 3 2.0206V6.84264ZM16.5906 16.5301H12.2363V11.6875H16.5906C16.7622 12.4699 16.8522 13.2796 16.8522 14.1088C16.8522 14.938 16.7622 15.7478 16.5906 16.5301ZM3 21.3711H14.2317C11.846 24.3117 8.04752 26.2137 3.76923 26.2137C3.511 26.2137 3.25453 26.2068 3 26.1931V21.3711Z"
        fill="black" />
    <path
        d="M3 2C9.37252 2 14.5385 7.42031 14.5385 14.1066C14.5385 20.7929 9.37252 26.2132 3 26.2132V21.3706C6.82351 21.3706 9.92308 18.1184 9.92308 14.1066C9.92308 10.0948 6.82351 6.84264 3 6.84264V2Z"
        fill="#FF6238" />
</svg>
    