<svg width="20" height="20" viewBox="0 0 20 20" fill="none" xmlns="http://www.w3.org/2000/svg">
<path d="M15.8334 17.5V12.5M13.3334 15H18.3334M10.0001 12.5H6.66675C5.11361 12.5 4.33704 12.5 3.72447 12.7537C2.90771 13.0921 2.2588 13.741 1.92048 14.5577C1.66675 15.1703 1.66675 15.9468 1.66675 17.5M12.9167 2.7423C14.1383 3.23679 15.0001 4.43442 15.0001 5.83333C15.0001 7.23224 14.1383 8.42992 12.9167 8.92433M11.2501 5.83333C11.2501 7.67428 9.75766 9.16667 7.91675 9.16667C6.0758 9.16667 4.58341 7.67428 4.58341 5.83333C4.58341 3.99238 6.0758 2.5 7.91675 2.5C9.75766 2.5 11.2501 3.99238 11.2501 5.83333Z" stroke="var(--r-neutral-body, #D3D8E0)" stroke-width="1.25" stroke-linecap="round" stroke-linejoin="round"/>
</svg>
