<svg width="20" height="20" viewBox="0 0 20 20" fill="none" xmlns="http://www.w3.org/2000/svg">
<g id="faucet 1">
<path id="Vector" fill-rule="evenodd" clip-rule="evenodd" d="M5.69869 17.761C5.69869 18.4443 5.17323 18.998 4.52513 18.998C3.87691 18.998 3.35156 18.4443 3.35156 17.761C3.35156 16.7313 4.05701 15.6145 4.37403 15.1649C4.44828 15.0596 4.60192 15.0596 4.67616 15.1649C4.99318 15.6145 5.69869 16.7313 5.69869 17.761Z" stroke="#13141A" stroke-width="1.25" stroke-linecap="round" stroke-linejoin="round"/>
<path id="Vector_2" d="M16.7743 8.85723C17.1373 8.85723 17.4315 8.56314 17.4315 8.2002V5.57113C17.4315 5.20819 17.1373 4.91406 16.7743 4.91406H7.82394C4.92022 4.91406 2.56641 7.26771 2.56641 10.1714V12.0808C2.56641 12.4437 2.86067 12.7378 3.22362 12.7378H5.85239C6.21532 12.7378 6.50956 12.4437 6.50956 12.0808V10.8285C6.50956 9.7396 7.39224 8.85723 8.48116 8.85723H16.7743Z" stroke="#13141A" stroke-width="1.25" stroke-linecap="round" stroke-linejoin="round"/>
<rect id="Rectangle 26032" x="8" y="1" width="8" height="1.5" rx="0.75" fill="#13141A"/>
<rect id="Rectangle 26033" x="11" y="5" width="4" height="1.5" rx="0.75" transform="rotate(-90 11 5)" fill="#13141A"/>
</g>
</svg>
