<svg width="20" height="20" viewBox="0 0 20 20" fill="none" xmlns="http://www.w3.org/2000/svg">
<g clip-path="url(#clip0_64044_81264)">
<path d="M20 0H0V20H20V0Z" fill="white" fill-opacity="0.01"/>
<path d="M16.5 10.1013C16.5 6.97711 16.5 8.1875 16.5 8.1875C16.5 7.91136 16.0523 7.6875 15.5 7.6875H4.5C3.94772 7.6875 3.5 7.91136 3.5 8.1875V17.1875C3.5 17.4636 3.94772 17.6875 4.5 17.6875H10.6" stroke="var(--r-neutral-body, #D3D8E0)" stroke-width="1.25" stroke-linecap="round" stroke-linejoin="round"/>
<path d="M15.582 14.3984V16.3984H17.582" stroke="var(--r-neutral-body, #D3D8E0)" stroke-width="0.915365" stroke-linecap="round" stroke-linejoin="round"/>
<path d="M15.8945 19.1328C17.8275 19.1328 19.3945 17.5658 19.3945 15.6328C19.3945 13.6998 17.8275 12.1328 15.8945 12.1328C13.9615 12.1328 12.3945 13.6998 12.3945 15.6328C12.3945 17.5658 13.9615 19.1328 15.8945 19.1328Z" stroke="var(--r-neutral-body, #D3D8E0)" stroke-width="0.915365"/>
<path d="M5.83594 7.6875V5.35417C5.83594 3.05298 7.70144 1.1875 10.0026 1.1875C12.3038 1.1875 14.1693 3.05298 14.1693 5.35417V7.6875" stroke="var(--r-neutral-body, #D3D8E0)" stroke-width="1.25" stroke-linecap="round" stroke-linejoin="round"/>
<path d="M10 11.5234V14.0234" stroke="var(--r-neutral-body, #D3D8E0)" stroke-width="1.25" stroke-linecap="round" stroke-linejoin="round"/>
</g>
<defs>
<clipPath id="clip0_64044_81264">
<rect width="20" height="20" fill="white"/>
</clipPath>
</defs>
</svg>
