<svg xmlns="http://www.w3.org/2000/svg" width="18" height="18" viewBox="0 0 18 18" fill="none">
  <path
    d="M4.7884 10.0327C5.35852 10.0327 5.82069 9.57057 5.82069 9.00044C5.82069 8.4303 5.35852 7.96814 4.7884 7.96814C4.21828 7.96814 3.7561 8.4303 3.7561 9.00044C3.7561 9.57057 4.21828 10.0327 4.7884 10.0327Z"
    fill="currentColor" />
  <path
    d="M9.00018 9.94505C9.5221 9.94505 9.94518 9.52198 9.94518 9.00005C9.94518 8.47813 9.5221 8.05505 9.00018 8.05505C8.47825 8.05505 8.05518 8.47813 8.05518 9.00005C8.05518 9.52198 8.47825 9.94505 9.00018 9.94505Z"
    fill="currentColor" />
  <path
    d="M13.2108 10.0327C13.7809 10.0327 14.2431 9.57057 14.2431 9.00044C14.2431 8.4303 13.7809 7.96814 13.2108 7.96814C12.6406 7.96814 12.1785 8.4303 12.1785 9.00044C12.1785 9.57057 12.6406 10.0327 13.2108 10.0327Z"
    fill="currentColor" />
  <path
    d="M14.8903 12.3677H3.10899C2.175 12.3677 1.42126 11.614 1.42126 10.68V7.31273C1.42126 6.37875 2.175 5.625 3.10899 5.625H14.8985C15.8324 5.625 16.5862 6.37875 16.5862 7.31273V10.68C16.578 11.614 15.8242 12.3677 14.8903 12.3677Z"
    stroke="currentColor" stroke-width="1.28571" stroke-linecap="round" stroke-linejoin="round" />
</svg>