<svg width="20" height="20" viewBox="0 0 20 20" fill="none" xmlns="http://www.w3.org/2000/svg">
<path fill-rule="evenodd" clip-rule="evenodd" d="M3.33341 5.00033C4.25387 5.00033 5.00008 4.25412 5.00008 3.33366C5.00008 2.41318 4.25387 1.66699 3.33341 1.66699C2.41294 1.66699 1.66675 2.41318 1.66675 3.33366C1.66675 4.25412 2.41294 5.00033 3.33341 5.00033Z" stroke="var(--r-neutral-body, #D3D8E0)" stroke-width="1.25" stroke-linecap="round" stroke-linejoin="round"/>
<path fill-rule="evenodd" clip-rule="evenodd" d="M4.16675 17.5C5.54746 17.5 6.66675 16.3807 6.66675 15C6.66675 13.6193 5.54746 12.5 4.16675 12.5C2.78604 12.5 1.66675 13.6193 1.66675 15C1.66675 16.3807 2.78604 17.5 4.16675 17.5Z" stroke="var(--r-neutral-body, #D3D8E0)" stroke-width="1.25" stroke-linecap="round" stroke-linejoin="round"/>
<path fill-rule="evenodd" clip-rule="evenodd" d="M15.8333 18.333C17.214 18.333 18.3333 17.2137 18.3333 15.833C18.3333 14.4523 17.214 13.333 15.8333 13.333C14.4525 13.333 13.3333 14.4523 13.3333 15.833C13.3333 17.2137 14.4525 18.333 15.8333 18.333Z" stroke="var(--r-neutral-body, #D3D8E0)" stroke-width="1.25" stroke-linecap="round" stroke-linejoin="round"/>
<path fill-rule="evenodd" clip-rule="evenodd" d="M9.16659 11.6667C11.0075 11.6667 12.4999 10.1743 12.4999 8.33333C12.4999 6.49237 11.0075 5 9.16659 5C7.32563 5 5.83325 6.49237 5.83325 8.33333C5.83325 10.1743 7.32563 11.6667 9.16659 11.6667Z" stroke="var(--r-neutral-body, #D3D8E0)" stroke-width="1.25" stroke-linecap="round" stroke-linejoin="round"/>
<path fill-rule="evenodd" clip-rule="evenodd" d="M14.1667 5.00033C15.0871 5.00033 15.8333 4.25412 15.8333 3.33366C15.8333 2.41318 15.0871 1.66699 14.1667 1.66699C13.2462 1.66699 12.5 2.41318 12.5 3.33366C12.5 4.25412 13.2462 5.00033 14.1667 5.00033Z" stroke="var(--r-neutral-body, #D3D8E0)" stroke-width="1.25" stroke-linecap="round" stroke-linejoin="round"/>
<path d="M4.58325 4.58301L6.24992 6.24967" stroke="var(--r-neutral-body, #D3D8E0)" stroke-width="1.25" stroke-linecap="round" stroke-linejoin="round"/>
<path d="M12.5001 5L11.6667 5.83333" stroke="var(--r-neutral-body, #D3D8E0)" stroke-width="1.25" stroke-linecap="round" stroke-linejoin="round"/>
<path d="M14.1667 13.958L11.6667 10.833" stroke="var(--r-neutral-body, #D3D8E0)" stroke-width="1.25" stroke-linecap="round" stroke-linejoin="round"/>
<path d="M5.83325 12.9167L7.49992 11.25" stroke="var(--r-neutral-body, #D3D8E0)" stroke-width="1.25" stroke-linecap="round" stroke-linejoin="round"/>
</svg>
