<svg width="20" height="20" viewBox="0 0 20 20" fill="none" xmlns="http://www.w3.org/2000/svg">
<path d="M10.0003 18.3346C12.3015 18.3346 14.3848 17.4019 15.8929 15.8938C17.4009 14.3858 18.3337 12.3025 18.3337 10.0013C18.3337 7.70014 17.4009 5.6168 15.8929 4.10874C14.3848 2.60071 12.3015 1.66797 10.0003 1.66797C7.69916 1.66797 5.61583 2.60071 4.10777 4.10874C2.59973 5.6168 1.66699 7.70014 1.66699 10.0013C1.66699 12.3025 2.59973 14.3858 4.10777 15.8938C5.61583 17.4019 7.69916 18.3346 10.0003 18.3346Z" stroke="var(--r-neutral-body, #D3D8E0)" stroke-width="1.25" stroke-linejoin="round"/>
<path fill-rule="evenodd" clip-rule="evenodd" d="M9.99967 4.58203C10.575 4.58203 11.0413 5.04841 11.0413 5.6237C11.0413 6.19899 10.575 6.66536 9.99967 6.66536C9.42438 6.66536 8.95801 6.19899 8.95801 5.6237C8.95801 5.04841 9.42438 4.58203 9.99967 4.58203Z" fill="var(--r-neutral-body, #D3D8E0)"/>
<path d="M10.2083 14.1654V8.33203H9.79167H9.375" stroke="var(--r-neutral-body, #D3D8E0)" stroke-width="1.25" stroke-linecap="round" stroke-linejoin="round"/>
<path d="M8.75 14.168H11.6667" stroke="var(--r-neutral-body, #D3D8E0)" stroke-width="1.25" stroke-linecap="round" stroke-linejoin="round"/>
</svg>
