<svg width="16" height="16" viewBox="0 0 16 16" fill="none" xmlns="http://www.w3.org/2000/svg">
<path d="M11.1953 7.14156L5.7041 12.6337C5.5372 12.8007 5.45362 12.8848 5.35742 12.9482C5.2723 13.0043 5.17998 13.0486 5.08301 13.08C4.97337 13.1155 4.85568 13.1291 4.62109 13.1552L3.54688 13.2744C3.11331 13.3225 2.74684 12.956 2.79492 12.5224L2.91406 11.4482C2.94013 11.2136 2.95377 11.0959 2.98926 10.9863C3.02074 10.8891 3.06487 10.7962 3.12109 10.7109C3.18446 10.6149 3.26808 10.5317 3.43457 10.3652L8.92676 4.873L11.1953 7.14156ZM10.9277 2.87202C11.5543 2.24583 12.5698 2.24584 13.1963 2.87202C13.823 3.49869 13.823 4.51489 13.1963 5.14156L11.7969 6.53999L9.52832 4.27144L10.9277 2.87202Z" fill="currentColor"/>
</svg>
