<svg width="16" height="16" viewBox="0 0 16 16" fill="none" xmlns="http://www.w3.org/2000/svg">
<path d="M7.90929 14.8184C4.09914 14.8184 1 11.7192 1 7.90908C1 4.09894 4.09996 1 7.90929 1C8.10742 1.00327 8.29634 1.08427 8.4353 1.22554C8.57427 1.36681 8.65215 1.55704 8.65215 1.7552C8.65215 1.95336 8.57427 2.14359 8.4353 2.28486C8.29634 2.42613 8.10742 2.50714 7.90929 2.5104C4.93258 2.5104 2.51061 4.93237 2.51061 7.90908C2.51061 10.8858 4.9334 13.3071 7.90929 13.3071C10.8852 13.3071 13.3065 10.8852 13.3065 7.90847C13.3098 7.71033 13.3908 7.52141 13.5321 7.38245C13.6733 7.24349 13.8636 7.16561 14.0617 7.16561C14.2599 7.16561 14.4501 7.24349 14.5914 7.38245C14.7327 7.52141 14.8137 7.71033 14.8169 7.90847C14.8178 11.7192 11.7186 14.8184 7.90929 14.8184Z" fill="#FF9F0A"/>
</svg>
