<svg width="16" height="16" viewBox="0 0 16 16" fill="none" xmlns="http://www.w3.org/2000/svg">
  <path d="M13.2 3.5C12.3 3.1 11.3 2.8 10.3 2.6C10.2 2.8 10 3.1 9.9 3.3C8.8 3.2 7.7 3.2 6.6 3.3C6.5 3.1 6.3 2.8 6.2 2.6C5.2 2.8 4.2 3.1 3.3 3.5C1.5 6.2 1 8.9 1.3 11.5C2.5 12.4 3.6 12.9 4.7 13.3C5 12.9 5.3 12.4 5.5 11.9C5.1 11.8 4.7 11.6 4.4 11.3C4.5 11.2 4.6 11.2 4.7 11.1C6.8 12.1 9.2 12.1 11.3 11.1C11.4 11.2 11.5 11.2 11.6 11.3C11.3 11.6 10.9 11.8 10.5 11.9C10.7 12.4 11 12.9 11.3 13.3C12.4 12.9 13.5 12.4 14.7 11.5C15 8.5 14.2 5.8 13.2 3.5ZM5.7 10C5.1 10 4.6 9.4 4.6 8.7C4.6 8 5.1 7.4 5.7 7.4C6.3 7.4 6.8 8 6.8 8.7C6.8 9.4 6.3 10 5.7 10ZM10.3 10C9.7 10 9.2 9.4 9.2 8.7C9.2 8 9.7 7.4 10.3 7.4C10.9 7.4 11.4 8 11.4 8.7C11.4 9.4 10.9 10 10.3 10Z" fill="currentColor"/>
</svg>

