<svg width="24" height="24" viewBox="0 0 24 24" fill="none" xmlns="http://www.w3.org/2000/svg">
<path d="M12.6378 18.7338C12.2354 18.5218 11.7543 18.5215 11.3516 18.7332L7.666 20.671C6.65306 21.2036 5.46915 20.3434 5.66263 19.2155L6.36674 15.1109C6.44363 14.6626 6.29486 14.2053 5.96897 13.888L2.98397 10.9824C2.16345 10.1837 2.61578 8.79086 3.749 8.62662L7.86581 8.02998C8.31573 7.96478 8.70472 7.68227 8.90591 7.2746L10.749 3.54002C11.2555 2.5138 12.7188 2.51381 13.2253 3.54002L15.0684 7.2746C15.2696 7.68227 15.6586 7.96478 16.1085 8.02998L20.2253 8.62662C21.3585 8.79086 21.8109 10.1837 20.9903 10.9824L18.0053 13.888C17.6794 14.2053 17.5307 14.6626 17.6076 15.1109L18.3111 19.2122C18.5047 20.3407 17.3196 21.2009 16.3066 20.6671L12.6378 18.7338Z" fill="#FFB020"/>
</svg>
