<svg width="17" height="21" viewBox="0 0 17 21" fill="none" xmlns="http://www.w3.org/2000/svg">
<path d="M1.09858 11.7534C1.0882 11.7534 1.07989 11.7556 1.07158 11.7556C0.479719 11.7556 0.0020752 11.2448 0 10.6172C0 10.3288 0.105913 10.0668 0.276203 9.86641V9.86421L0.234667 9.88182L6.98815 0.823486C7.32042 0.32367 7.86868 0 8.48754 0C9.08771 0 9.61935 0.306055 9.95578 0.779449L16.7363 9.87522L16.8027 9.96549V9.96769C16.9273 10.1526 17 10.3772 17 10.6194C17 11.2426 16.5265 11.749 15.9367 11.7534L15.9388 11.7556H12.263V19.4609C12.263 20.3108 11.613 21 10.8093 21H6.19484C5.38908 21 4.73906 20.313 4.73906 19.4609V11.7556H1.10066L1.09858 11.7534Z" fill="currentColor"/>
</svg>
