<svg xmlns="http://www.w3.org/2000/svg" width="12" height="12" viewBox="0 0 12 12" fill="none">
  <rect width="12" height="12" rx="6" fill="#102623"/>
  <path d="M9.65203 5.97376C9.65869 6.60652 9.53319 7.21114 9.28668 7.78882C8.93465 8.6114 8.09069 9.28401 7.31999 8.56805C6.69146 7.98451 6.57486 7.2781 5.63318 7.10468C4.3872 6.94532 4.35722 7.99153 3.54323 8.16379C2.63597 8.35831 2.33503 6.74829 2.34835 6.01711C2.36168 5.28593 2.54602 4.25828 3.33446 4.25828C4.24173 4.25828 4.30281 5.22951 5.45439 5.151C6.59486 5.06898 6.61484 4.03916 7.35997 3.39352C8.00294 2.83576 8.75919 3.2447 9.13786 3.91613C9.48878 4.53716 9.64314 5.266 9.6509 5.97376H9.65203Z" fill="#AFFAE5"/>
</svg>