<svg xmlns="http://www.w3.org/2000/svg" width="20" height="20" viewBox="0 0 20 20" fill="none">
<path d="M19.4993 9.42776C19.5167 11.0816 19.1902 12.6618 18.549 14.1717C17.6333 16.3216 15.438 18.0796 13.4333 16.2083C11.7984 14.6831 11.495 12.8368 9.04556 12.3836C5.80454 11.9671 5.72655 14.7015 3.60921 15.1517C1.24924 15.6601 0.466432 11.4521 0.501095 9.54106C0.535758 7.63001 1.01526 4.94412 3.06616 4.94412C5.42614 4.94412 5.585 7.48256 8.58049 7.27737C11.5471 7.06299 11.599 4.37142 13.5373 2.68394C15.2098 1.22615 17.1769 2.29499 18.1619 4.04985C19.0747 5.67302 19.4762 7.57794 19.4964 9.42776H19.4993Z" fill="#50D2C1"/>
</svg>
