<svg xmlns="http://www.w3.org/2000/svg" width="16" height="16" viewBox="0 0 16 16" fill="none">
  <g clip-path="url(#clip0_144678_5949)">
    <path d="M7.99855 1.99831C8.08655 1.99831 8.17389 1.99831 8.26055 1.99831C7.40411 2.79412 6.85361 3.86488 6.70475 5.02446C6.55588 6.18405 6.81806 7.35914 7.44571 8.34547C8.07336 9.3318 9.0268 10.067 10.1403 10.4233C11.2538 10.7796 12.4569 10.7344 13.5406 10.2956C13.1237 11.2986 12.4424 12.1697 11.5693 12.8158C10.6963 13.462 9.66418 13.859 8.58316 13.9646C7.50213 14.0701 6.41273 13.8803 5.43115 13.4152C4.44956 12.9502 3.61263 12.2274 3.00961 11.324C2.4066 10.4206 2.06012 9.3705 2.00714 8.28563C1.95417 7.20075 2.19667 6.12184 2.7088 5.16399C3.22093 4.20614 3.98346 3.40526 4.91506 2.8468C5.84666 2.28834 6.91239 1.99324 7.99855 1.99298V1.99831Z" stroke="currentColor" stroke-width="1.2" stroke-linecap="round" stroke-linejoin="round"/>
  </g>
  <defs>
    <clipPath id="clip0_144678_5949">
      <rect width="16" height="16" fill="white"/>
    </clipPath>
  </defs>
</svg>