<svg width="14" height="14" viewBox="0 0 14 14" fill="none" xmlns="http://www.w3.org/2000/svg">
<path d="M11.7789 8.23422H2.54688C2.24473 8.23422 2 8.47894 2 8.78109C2 8.89593 2.03555 9.00258 2.0957 9.09008C2.12168 9.1516 2.16133 9.20902 2.21055 9.25961L4.6209 11.6686C4.72754 11.7752 4.86699 11.8286 5.00781 11.8286C5.14863 11.8286 5.28809 11.7752 5.39473 11.6686C5.60801 11.4553 5.60801 11.1094 5.39473 10.8948L3.8252 9.32797H11.7775C12.0797 9.32797 12.3244 9.08324 12.3244 8.78109C12.3244 8.47894 12.0811 8.23422 11.7789 8.23422ZM2.54688 5.69672H11.7789C12.0811 5.69672 12.3258 5.45199 12.3258 5.14984C12.3258 5.035 12.2902 4.92836 12.2301 4.84086C12.2109 4.79574 12.1836 4.75199 12.1508 4.71097L10.1793 2.30199C9.98789 2.0682 9.64336 2.03402 9.40957 2.22543C9.17578 2.41683 9.1416 2.76136 9.33301 2.99515L10.6496 4.60297H2.54688C2.24473 4.60297 2 4.84769 2 5.14984C2 5.45199 2.24473 5.69672 2.54688 5.69672Z" fill="#4C65FF"/>
</svg>
