<svg xmlns="http://www.w3.org/2000/svg" width="56" height="56" viewBox="0 0 56 56" fill="none">
<path fill-rule="evenodd" clip-rule="evenodd" d="M54.5841 28.4913C54.6027 32.6778 53.7186 36.6785 52.0167 40.4854L52.0158 40.4874C50.7347 43.3447 48.5121 46.0695 45.7277 47.4424C44.3123 48.1403 42.7211 48.5005 41.0519 48.296C39.481 48.1034 37.9532 47.4241 36.5304 46.2422L36.2472 45.9991C35.0166 44.9084 34.0818 43.579 33.2931 42.2862C32.8974 41.6375 32.5244 40.9731 32.1691 40.3399C31.8084 39.6972 31.4663 39.0863 31.1115 38.4991C29.6917 36.1498 28.3052 34.5983 26.008 34.1778C24.3501 33.9842 23.2111 34.3206 22.3166 34.8721C21.3581 35.4631 20.5575 36.3744 19.7169 37.5333C18.9539 38.5853 18.0214 40.062 17.0548 41.1729C16.0231 42.3586 14.6849 43.478 12.8068 43.8575L12.8058 43.8565C10.7411 44.2775 8.9607 43.6977 7.56069 42.5381C6.22559 41.4323 5.27806 39.8439 4.60464 38.2296C3.25747 34.9999 2.75522 31.0573 2.80288 28.5587C2.80331 28.5363 2.80436 28.5137 2.80483 28.4913H6.32632C6.32524 28.5362 6.32229 28.5813 6.32143 28.626C6.28113 30.7393 6.72995 34.1812 7.85366 36.8751C8.41569 38.2222 9.08489 39.2311 9.80581 39.8282C10.4607 40.3704 11.1752 40.5987 12.1056 40.4083H12.1095C12.9205 40.2444 13.6242 39.7535 14.3996 38.8624C15.2399 37.8965 15.8806 36.8286 16.8683 35.4669C17.7786 34.2119 18.9077 32.8392 20.4699 31.876C21.9865 30.941 23.8043 30.455 26.0304 30.6426L26.4816 30.6895L26.5275 30.6944L26.5724 30.7022C30.4708 31.3875 32.5729 34.1136 34.1232 36.6788C34.513 37.3238 34.8836 37.9867 35.2374 38.6172C35.5965 39.2571 35.9405 39.8672 36.298 40.4532C37.0162 41.6304 37.7356 42.6158 38.5812 43.3653L38.5822 43.3663C39.6256 44.2914 40.606 44.6956 41.4806 44.8028C42.3616 44.9107 43.2652 44.7327 44.171 44.2862C45.9134 43.4271 47.5428 41.6232 48.6007 39.4805L48.8039 39.0479C50.2599 35.7905 51.0275 32.4056 51.0626 28.8741L51.0587 28.4913H54.5841Z" fill="#192945"/>
<path fill-rule="evenodd" clip-rule="evenodd" d="M36.5498 10.6854C39.1694 8.51629 42.1334 8.19093 44.7842 9.12099C47.348 10.0206 49.5201 12.0478 50.9346 14.4413L51.166 14.8397C53.2124 18.4592 54.2402 22.5446 54.5029 26.5565H54.5586L54.5781 28.2968C54.5788 28.3609 54.5778 28.4251 54.5781 28.4892H51.0527L51.0508 28.3358C51.0022 24.1112 50.0359 19.8319 47.9062 16.2343L47.9053 16.2323C46.8177 14.3917 45.2409 13.0114 43.6191 12.4423C42.0837 11.9036 40.4238 12.0476 38.7949 13.3964L38.7939 13.3974C37.8103 14.211 37.0053 15.3485 36.2236 16.7479C35.8353 17.4432 35.4679 18.1742 35.0869 18.9403C34.7118 19.6945 34.3197 20.4906 33.9053 21.2597C32.2559 24.3208 29.9309 27.5736 25.2012 27.8983L25.1953 27.8993C20.4524 28.2079 17.9418 25.3814 16.1035 23.1122C15.1371 21.9192 14.4207 20.9711 13.5811 20.2577C12.8159 19.6077 12.0557 19.2558 11.0723 19.2558C9.41767 19.2559 8.30852 20.1954 7.50488 22.0214C6.69262 23.8672 6.37273 26.3067 6.32031 28.4892H2.79883C2.84951 26.1036 3.18884 23.0914 4.2832 20.6044C5.41298 18.037 7.51761 15.7364 11.0723 15.7362C13.086 15.7362 14.625 16.5266 15.8594 17.5751C17.0191 18.5603 18.0041 19.8669 18.8389 20.8974C20.5483 23.0075 22.0065 24.4791 24.7021 24.3993L24.9668 24.3866C27.7689 24.1916 29.2773 22.4309 30.8076 19.5907C31.1883 18.8842 31.5505 18.1491 31.9365 17.3729C32.3167 16.6086 32.7173 15.8092 33.1514 15.0321C34.0145 13.487 35.0722 11.9078 36.5498 10.6854Z" fill="#4C65FF"/>
</svg>
