<svg width="16" height="16" viewBox="0 0 16 16" fill="none" xmlns="http://www.w3.org/2000/svg">
<path d="M15.7589 9.93524C14.6904 14.221 10.3496 16.8292 6.06335 15.7605C1.77889 14.692 -0.829339 10.351 0.239588 6.06558C1.30758 1.77935 5.64835 -0.829071 9.93329 0.239387C14.2192 1.30785 16.8273 5.64936 15.7587 9.93532L15.7588 9.93524H15.7589Z" fill="#50AF95"/>
<path fill-rule="evenodd" clip-rule="evenodd" d="M9.01192 8.90718C8.95535 8.91143 8.66309 8.92887 8.01115 8.92887C7.49262 8.92887 7.12446 8.91331 6.9953 8.90718C4.9914 8.81903 3.49567 8.4702 3.49567 8.05255C3.49567 7.63489 4.9914 7.28653 6.9953 7.19697V8.55977C7.12634 8.5692 7.50157 8.59135 8.02011 8.59135C8.64234 8.59135 8.95394 8.56542 9.01003 8.56024V7.19791C11.0097 7.287 12.5021 7.63584 12.5021 8.05255C12.5021 8.46926 11.0102 8.81809 9.01003 8.90671L9.01192 8.90718ZM9.01195 7.05668V5.83719H11.8026V3.97754H4.20468V5.83719H6.99486V7.05621C4.72699 7.16039 3.02148 7.60963 3.02148 8.14796C3.02148 8.68629 4.72699 9.13506 6.99486 9.23971V13.1476H9.01148V9.23829C11.2742 9.13411 12.9768 8.68535 12.9768 8.14749C12.9768 7.60963 11.2756 7.16086 9.01148 7.05621L9.01195 7.05668Z" fill="white"/>
</svg>
