<svg width="20" height="20" viewBox="0 0 20 20" fill="none" xmlns="http://www.w3.org/2000/svg">
<path d="M8.02795 3.63866L5.38987 6.27673C5.24575 6.42086 5.17368 6.49292 5.08958 6.54446C5.01502 6.59015 4.93374 6.62381 4.84871 6.64423C4.7528 6.66726 4.65089 6.66726 4.44707 6.66726H2.99935C2.53264 6.66726 2.29928 6.66726 2.12102 6.75808C1.96422 6.83797 1.83674 6.96546 1.75684 7.12226C1.66602 7.30052 1.66602 7.53387 1.66602 8.00059V12.0006C1.66602 12.4673 1.66602 12.7006 1.75684 12.8789C1.83674 13.0357 1.96422 13.1632 2.12102 13.2431C2.29928 13.3339 2.53264 13.3339 2.99935 13.3339H4.44707C4.65089 13.3339 4.7528 13.3339 4.84871 13.357C4.93374 13.3774 5.01502 13.4111 5.08958 13.4567C5.17368 13.5082 5.24575 13.5803 5.38987 13.7245L8.02794 16.3625C8.38493 16.7195 8.56343 16.898 8.71668 16.9101C8.8496 16.9205 8.9796 16.8666 9.06618 16.7652C9.16602 16.6484 9.16602 16.396 9.16602 15.8911V4.11006C9.16602 3.60521 9.16602 3.35279 9.06618 3.23591C8.9796 3.13449 8.8496 3.08066 8.71668 3.09113C8.56343 3.10319 8.38493 3.28168 8.02795 3.63866Z" stroke="currentColor" stroke-width="1.5" stroke-linecap="round" stroke-linejoin="round"/>
<path d="M19 7L13 13M13 7L19 13" stroke="currentColor" stroke-width="1.5" stroke-linecap="round" stroke-linejoin="round"/>
</svg>
