<svg width="20" height="20" viewBox="0 0 20 20" fill="none" xmlns="http://www.w3.org/2000/svg">
<path d="M6.87634 0C7.03415 8.22767e-05 7.18851 0.0467328 7.32052 0.134239C7.45253 0.221746 7.55646 0.34631 7.61959 0.492678L9.03225 3.76242C7.0626 3.9548 5.19343 4.73343 3.66072 6L1.5681 1.1504C1.5141 1.02557 1.49165 0.889089 1.50277 0.753281C1.5139 0.617472 1.55825 0.486601 1.63183 0.372467C1.70541 0.258333 1.8059 0.164525 1.92425 0.0995016C2.04259 0.034478 2.17506 0.00028306 2.30972 0L6.87634 0ZM17.6892 0C17.8159 9.27028e-05 17.9408 0.0302122 18.0539 0.087946C18.1671 0.14568 18.2653 0.229423 18.3407 0.332469C18.4161 0.435514 18.4666 0.554997 18.4882 0.681348C18.5097 0.807699 18.5018 0.937406 18.4649 1.06008L18.4324 1.1504L16.3374 6C14.8047 4.73343 12.9355 3.9548 10.9658 3.76242L12.3801 0.491857C12.4362 0.362482 12.5242 0.24992 12.6358 0.165052C12.7474 0.0801848 12.8787 0.0258811 13.0171 0.00739018L13.1242 0H17.6908H17.6892Z" fill="#4C65FF" fill-opacity="0.4"/>
<circle cx="10" cy="12.5" r="7.5" fill="#E0E5EC"/>
<path d="M8.29395 16C7.71777 16 7.4541 15.6777 7.4541 15.2334C7.4541 14.8965 7.5957 14.6572 7.94727 14.3545L9.95898 12.5283C10.7842 11.7764 11.0088 11.4541 11.0088 10.9951C11.0088 10.4873 10.6182 10.126 10.0566 10.126C9.59277 10.126 9.27539 10.3506 9.0166 10.8193C8.79199 11.166 8.58203 11.3076 8.2207 11.3076C7.75684 11.3076 7.47852 11.0391 7.47852 10.5996C7.47852 10.4629 7.49805 10.3359 7.55176 10.209C7.85938 9.39844 8.79688 8.77832 10.0811 8.77832C11.6875 8.77832 12.7422 9.63281 12.7422 10.8779C12.7422 11.7812 12.2832 12.2988 11.165 13.3096L9.76367 14.5889V14.623H12.2002C12.6543 14.623 12.918 14.8916 12.918 15.3115C12.918 15.7217 12.6543 16 12.2002 16H8.29395Z" fill="black"/>
</svg>
