<svg width="20" height="20" viewBox="0 0 20 20" fill="none" xmlns="http://www.w3.org/2000/svg">
<path d="M7.49935 14.1667H12.4993M7.49935 11.6667H12.4993M10.833 2.50072C10.7533 2.5 10.6638 2.5 10.5616 2.5H6.83285C5.89942 2.5 5.43237 2.5 5.07585 2.68166C4.76224 2.84144 4.50746 3.09623 4.34767 3.40983C4.16602 3.76635 4.16602 4.23341 4.16602 5.16683V14.8335C4.16602 15.7669 4.16602 16.2334 4.34767 16.5899C4.50746 16.9035 4.76224 17.1587 5.07585 17.3185C5.43202 17.5 5.89852 17.5 6.83013 17.5H13.1686C14.1002 17.5 14.566 17.5 14.9222 17.3185C15.2358 17.1587 15.4914 16.9035 15.6512 16.5899C15.8327 16.2337 15.8327 15.7679 15.8327 14.8363V7.7714C15.8327 7.66918 15.8326 7.57961 15.8318 7.5M10.833 2.50072C11.0708 2.5029 11.2208 2.51172 11.3645 2.54622C11.5346 2.58705 11.6976 2.65438 11.8467 2.74577C12.0148 2.84881 12.1592 2.99317 12.4473 3.28125L15.0518 5.88582C15.3401 6.17408 15.4834 6.3178 15.5865 6.48599C15.6778 6.63512 15.7454 6.79772 15.7863 6.96777C15.8208 7.11149 15.8297 7.26212 15.8318 7.5M10.833 2.50072L10.8327 4.83351C10.8327 5.76692 10.8327 6.23346 11.0143 6.58997C11.1741 6.90358 11.4289 7.15873 11.7425 7.31853C12.0987 7.5 12.5652 7.5 13.4968 7.5H15.8318" stroke="currentColor" stroke-width="1.5" stroke-linecap="round" stroke-linejoin="round"/>
</svg>
