<svg width="20" height="20" viewBox="0 0 20 20" fill="none" xmlns="http://www.w3.org/2000/svg">
<mask id="path-1-inside-1_143355_105015" fill="white">
<path d="M14.6 3H17.054L11.694 8.93021L18 17H13.063L9.196 12.1048L4.771 17H2.316L8.049 10.6566L2 3H7.063L10.558 7.47324L14.6 3ZM13.74 15.5788H15.1L6.323 4.3469H4.865L13.74 15.5788Z"/>
</mask>
<path d="M14.6 3H17.054L11.694 8.93021L18 17H13.063L9.196 12.1048L4.771 17H2.316L8.049 10.6566L2 3H7.063L10.558 7.47324L14.6 3ZM13.74 15.5788H15.1L6.323 4.3469H4.865L13.74 15.5788Z" fill="currentColor"/>
<path d="M14.6 3V-5H11.0466L8.66427 -2.3635L14.6 3ZM17.054 3L22.989 8.36432L35.0683 -5H17.054V3ZM11.694 8.93021L5.75901 3.56589L1.24871 8.556L5.39036 13.8561L11.694 8.93021ZM18 17V25H34.4043L24.3036 12.0741L18 17ZM13.063 17L6.78543 21.959L9.18767 25H13.063V17ZM9.196 12.1048L15.4736 7.14579L9.60736 -0.280159L3.26132 6.74016L9.196 12.1048ZM4.771 17V25H8.32346L10.7057 22.3647L4.771 17ZM2.316 17L-3.61922 11.6359L-15.6972 25H2.316V17ZM8.049 10.6566L13.9842 16.0206L18.5185 11.0035L14.3263 5.6972L8.049 10.6566ZM2 3V-5H-14.5158L-4.27733 7.95935L2 3ZM7.063 3L13.367 -1.9254L10.9648 -5H7.063V3ZM10.558 7.47324L4.254 12.3986L10.1133 19.8979L16.4937 12.8367L10.558 7.47324ZM13.74 15.5788L7.46304 20.5386L9.86528 23.5788H13.74V15.5788ZM15.1 15.5788V23.5788H31.5044L21.4036 10.6529L15.1 15.5788ZM6.323 4.3469L12.6266 -0.578991L10.2244 -3.6531H6.323V4.3469ZM4.865 4.3469V-3.6531H-11.6523L-1.41196 9.30672L4.865 4.3469ZM14.6 3V11H17.054V3V-5H14.6V3ZM17.054 3L11.119 -2.36432L5.75901 3.56589L11.694 8.93021L17.629 14.2945L22.989 8.36432L17.054 3ZM11.694 8.93021L5.39036 13.8561L11.6964 21.9259L18 17L24.3036 12.0741L17.9976 4.00434L11.694 8.93021ZM18 17V9H13.063V17V25H18V17ZM13.063 17L19.3406 12.041L15.4736 7.14579L9.196 12.1048L2.91843 17.0639L6.78543 21.959L13.063 17ZM9.196 12.1048L3.26132 6.74016L-1.16368 11.6353L4.771 17L10.7057 22.3647L15.1307 17.4695L9.196 12.1048ZM4.771 17V9H2.316V17V25H4.771V17ZM2.316 17L8.25122 22.3641L13.9842 16.0206L8.049 10.6566L2.11378 5.29249L-3.61922 11.6359L2.316 17ZM8.049 10.6566L14.3263 5.6972L8.27733 -1.95935L2 3L-4.27733 7.95935L1.77167 15.6159L8.049 10.6566ZM2 3V11H7.063V3V-5H2V3ZM7.063 3L0.758996 7.9254L4.254 12.3986L10.558 7.47324L16.862 2.54784L13.367 -1.9254L7.063 3ZM10.558 7.47324L16.4937 12.8367L20.5357 8.3635L14.6 3L8.66427 -2.3635L4.62227 2.10974L10.558 7.47324ZM13.74 15.5788V23.5788H15.1V15.5788V7.57876H13.74V15.5788ZM15.1 15.5788L21.4036 10.6529L12.6266 -0.578991L6.323 4.3469L0.0193791 9.27278L8.79638 20.5046L15.1 15.5788ZM6.323 4.3469V-3.6531H4.865V4.3469V12.3469H6.323V4.3469ZM4.865 4.3469L-1.41196 9.30672L7.46304 20.5386L13.74 15.5788L20.017 10.6189L11.142 -0.612922L4.865 4.3469Z" fill="currentColor" mask="url(#path-1-inside-1_143355_105015)"/>
</svg>
