<svg width="20" height="20" viewBox="0 0 20 20" fill="none" xmlns="http://www.w3.org/2000/svg">
<path d="M6.87634 0C7.03415 8.22767e-05 7.18851 0.0467328 7.32052 0.134239C7.45253 0.221746 7.55646 0.34631 7.61959 0.492678L9.03225 3.76242C7.0626 3.9548 5.19343 4.73343 3.66072 6L1.5681 1.1504C1.5141 1.02557 1.49165 0.889089 1.50277 0.753281C1.5139 0.617472 1.55825 0.486601 1.63183 0.372467C1.70541 0.258333 1.8059 0.164525 1.92425 0.0995016C2.04259 0.034478 2.17506 0.00028306 2.30972 0L6.87634 0ZM17.6892 0C17.8159 9.27028e-05 17.9408 0.0302122 18.0539 0.087946C18.1671 0.14568 18.2653 0.229423 18.3407 0.332469C18.4161 0.435514 18.4666 0.554997 18.4882 0.681348C18.5097 0.807699 18.5018 0.937406 18.4649 1.06008L18.4324 1.1504L16.3374 6C14.8047 4.73343 12.9355 3.9548 10.9658 3.76242L12.3801 0.491857C12.4362 0.362482 12.5242 0.24992 12.6358 0.165052C12.7474 0.0801848 12.8787 0.0258811 13.0171 0.00739018L13.1242 0H17.6908H17.6892Z" fill="#4C65FF" fill-opacity="0.4"/>
<circle cx="10" cy="12.5" r="7.5" fill="#FDAD94"/>
<path d="M10.2031 16.1758C8.7041 16.1758 7.84473 15.4922 7.56152 14.8086C7.50293 14.6719 7.47363 14.5254 7.47363 14.3984C7.47363 13.9492 7.77148 13.666 8.25977 13.666C8.60156 13.666 8.82129 13.7881 8.99707 14.0713C9.25586 14.5107 9.57324 14.7695 10.2422 14.7695C10.8574 14.7695 11.2871 14.4082 11.2871 13.9004C11.2871 13.3096 10.8477 12.9922 10.0664 12.9922H9.89551C9.4707 12.9922 9.24609 12.748 9.24609 12.3818C9.24609 12.0254 9.4707 11.7764 9.89551 11.7764H10.0566C10.7451 11.7764 11.165 11.4395 11.165 10.9268C11.165 10.4287 10.8135 10.1113 10.2031 10.1113C9.7002 10.1113 9.37305 10.3164 9.1582 10.7363C8.95801 11.1123 8.74316 11.2539 8.34766 11.2539C7.85938 11.2539 7.61035 10.9609 7.61035 10.5508C7.61035 10.3994 7.63477 10.2773 7.69824 10.126C7.97656 9.44238 8.80664 8.77832 10.1934 8.77832C11.7266 8.77832 12.8301 9.47656 12.8301 10.6729C12.8301 11.5762 12.1758 12.1523 11.3701 12.3135V12.3477C12.4346 12.4551 13.1084 13.0557 13.1084 14.0078C13.1084 15.3262 11.9707 16.1758 10.2031 16.1758Z" fill="black"/>
</svg>
