<svg xmlns="http://www.w3.org/2000/svg" width="18" height="18" viewBox="0 0 18 18" fill="none">
<path d="M9.56608 15.1795C9.16323 14.9669 8.68145 14.9667 8.2784 15.1789L4.90944 16.9527C3.89662 17.486 2.71203 16.6262 2.90528 15.4979L3.54989 11.7347C3.62659 11.2869 3.4781 10.83 3.15278 10.5129L0.418627 7.84755C-0.400877 7.04867 0.0515038 5.65687 1.1841 5.49248L4.95118 4.94573C5.40127 4.8804 5.79032 4.59761 5.99136 4.18966L7.67655 0.770025C8.18274 -0.257154 9.64734 -0.257157 10.1535 0.770023L11.8387 4.18966C12.0398 4.59761 12.4288 4.8804 12.8789 4.94573L16.646 5.49248C17.7786 5.65687 18.231 7.04867 17.4114 7.84755L14.6773 10.5129C14.352 10.83 14.2035 11.2869 14.2802 11.7347L14.9242 15.4947C15.1176 16.6235 13.9318 17.4834 12.9189 16.9489L9.56608 15.1795Z" fill="currentColor"/>
</svg>
