<svg width="16" height="16" viewBox="0 0 16 16" fill="none" xmlns="http://www.w3.org/2000/svg">
  <path d="M7.9999 3.71356C9.1175 3.71356 10.199 4.16854 10.9922 4.98011C11.3854 5.38188 11.6972 5.8592 11.9096 6.38465C12.1221 6.9101 12.2309 7.47332 12.2299 8.04195V12.5302C12.5784 12.7392 12.8068 13.1081 12.8308 13.5139V13.6H3.169C3.169 13.1573 3.39733 12.7515 3.76986 12.5302V8.04195C3.76986 5.64412 5.65655 3.71356 7.9999 3.71356ZM7.39904 8.34937C6.93037 8.34937 6.53381 8.71826 6.49776 9.19783V11.7432H8.31235V9.18553C8.28851 8.9551 8.18187 8.74194 8.0131 8.58743C7.84434 8.43292 7.6255 8.34808 7.39904 8.34937ZM3.43338 2.17649L4.2866 3.04955C4.44282 3.2094 4.51492 3.44304 4.45484 3.66438C4.40677 3.87342 4.23853 4.04557 4.02222 4.10705C3.91787 4.13224 3.80896 4.12964 3.70587 4.0995C3.60279 4.06936 3.50897 4.01269 3.43338 3.9349L2.58016 3.04955C2.33982 2.81591 2.33982 2.42242 2.58016 2.17649C2.80849 1.94286 3.19304 1.93056 3.43338 2.17649ZM12.5664 2.17649C12.7948 1.93056 13.1793 1.93056 13.4196 2.17649C13.66 2.41013 13.66 2.80362 13.4196 3.04955L12.5664 3.9349C12.4102 4.09476 12.1939 4.16854 11.9776 4.10705C11.8736 4.0792 11.7787 4.02352 11.7026 3.94572C11.6266 3.86792 11.5722 3.77081 11.545 3.66438C11.4849 3.44304 11.557 3.2217 11.7132 3.06184L12.5664 2.17649ZM7.9999 0C8.33638 0 8.60076 0.270524 8.60076 0.614828V1.85678C8.60076 2.07812 8.48059 2.28716 8.30033 2.39783C8.12007 2.5085 7.87973 2.5085 7.69947 2.39783C7.6078 2.3421 7.53188 2.2629 7.47921 2.16803C7.42653 2.07316 7.3989 1.96589 7.39904 1.85678V0.614828C7.39904 0.282821 7.66342 0 7.9999 0Z" fill="currentColor" />
</svg>
