<svg width="20" height="20" viewBox="0 0 20 20" fill="none" xmlns="http://www.w3.org/2000/svg">
<path d="M13.3333 6.66726V3.75113C13.3333 3.05801 13.3333 2.71146 13.1873 2.49848C13.0597 2.31241 12.8622 2.186 12.6398 2.14816C12.3852 2.10484 12.0706 2.25006 11.4412 2.54052L4.04918 5.95225C3.48793 6.21129 3.20729 6.34081 3.00176 6.54168C2.82005 6.71926 2.68135 6.93605 2.59625 7.17545C2.5 7.44624 2.5 7.75532 2.5 8.37349V12.5006M13.75 12.0839H13.7583M2.5 9.33391V14.8339C2.5 15.7673 2.5 16.2341 2.68166 16.5906C2.84144 16.9042 3.09641 17.1592 3.41002 17.3189C3.76653 17.5006 4.23324 17.5006 5.16667 17.5006H14.8333C15.7667 17.5006 16.2335 17.5006 16.59 17.3189C16.9036 17.1592 17.1586 16.9042 17.3183 16.5906C17.5 16.2341 17.5 15.7673 17.5 14.8339V9.33391C17.5 8.40049 17.5 7.93379 17.3183 7.57727C17.1586 7.26366 16.9036 7.0087 16.59 6.84891C16.2335 6.66726 15.7667 6.66726 14.8333 6.66726H5.16667C4.23325 6.66726 3.76653 6.66726 3.41002 6.84891C3.09642 7.0087 2.84144 7.26366 2.68166 7.57727C2.5 7.93379 2.5 8.40049 2.5 9.33391ZM14.1667 12.0839C14.1667 12.3141 13.9801 12.5006 13.75 12.5006C13.5199 12.5006 13.3333 12.3141 13.3333 12.0839C13.3333 11.8538 13.5199 11.6672 13.75 11.6672C13.9801 11.6672 14.1667 11.8538 14.1667 12.0839Z" stroke="#6A7587" stroke-width="1.15385" stroke-linecap="round" stroke-linejoin="round"/>
</svg>
