<svg width="16" height="16" viewBox="0 0 16 16" fill="none" xmlns="http://www.w3.org/2000/svg">
<path d="M8 16C12.4334 16 16 12.4334 16 8C16 3.56664 12.4334 0 8 0C3.56664 0 0 3.56664 0 8C0 12.4334 3.56664 16 8 16Z" fill="#2775CA"/>
<path d="M10.201 9.26641C10.201 8.09977 9.50101 7.69977 8.10101 7.53313C7.10101 7.39977 6.90101 7.13313 6.90101 6.66641C6.90101 6.19969 7.23437 5.89977 7.90101 5.89977C8.50101 5.89977 8.83437 6.09977 9.00101 6.59977C9.03437 6.69977 9.13437 6.76641 9.23437 6.76641H9.76765C9.90101 6.76641 10.001 6.66641 10.001 6.53313V6.49977C9.86765 5.76641 9.26765 5.19977 8.50101 5.13313V4.33313C8.50101 4.19977 8.40101 4.09977 8.23437 4.06641H7.73437C7.60101 4.06641 7.50101 4.16641 7.46765 4.33313V5.09977C6.46766 5.23313 5.83437 5.89977 5.83437 6.73313C5.83437 7.83313 6.50101 8.26641 7.90101 8.43313C8.83437 8.59977 9.13437 8.79977 9.13437 9.33313C9.13437 9.86649 8.66765 10.2331 8.03437 10.2331C7.16765 10.2331 6.86765 9.86641 6.76765 9.36641C6.73437 9.23313 6.63437 9.16641 6.53437 9.16641H5.96765C5.83438 9.16641 5.73438 9.26641 5.73438 9.39977V9.43313C5.86765 10.2664 6.40101 10.8664 7.50101 11.0331V11.8331C7.50101 11.9664 7.60101 12.0664 7.76765 12.0998H8.26765C8.40101 12.0998 8.50101 11.9998 8.53437 11.8331V11.0331C9.53437 10.8664 10.201 10.1664 10.201 9.26641Z" fill="white"/>
<path fill-rule="evenodd" clip-rule="evenodd" d="M9.53376 2.49902C9.56718 2.36589 9.70032 2.29963 9.83357 2.36621C11.6668 2.96621 13.134 4.39981 13.734 6.2998C14.7336 9.4663 13 12.8331 9.83357 13.833C9.80015 13.8661 9.73308 13.8662 9.69978 13.8662C9.56677 13.8329 9.50065 13.7327 9.50056 13.5996V13.1328C9.50056 12.9663 9.5668 12.8664 9.69978 12.7998C11.0663 12.2998 12.1665 11.2328 12.6666 9.83301C13.6333 7.26629 12.2998 4.3659 9.69978 3.43262C9.59997 3.36586 9.50069 3.23271 9.50056 3.09961V2.63281C9.50056 2.56609 9.5004 2.53238 9.53376 2.49902ZM6.30134 2.33203C6.43442 2.36541 6.50054 2.46543 6.50056 2.59863V3.06543C6.50053 3.2319 6.43438 3.33181 6.30134 3.39844C4.93475 3.89842 3.83457 4.96531 3.33454 6.36523C2.36782 8.93195 3.70134 11.8323 6.30134 12.7656C6.40119 12.8324 6.50056 12.9656 6.50056 13.0654V13.5322C6.50056 13.5987 6.50065 13.6318 6.46735 13.665C6.43408 13.7984 6.30089 13.8654 6.16755 13.7988C4.30091 13.1988 2.86716 11.7651 2.26716 9.89844C1.26738 6.73189 3.00102 3.3652 6.16755 2.36523C6.20092 2.33199 6.26799 2.33203 6.30134 2.33203Z" fill="white"/>
</svg>
