<svg width="24" height="24" viewBox="0 0 24 24" fill="none" xmlns="http://www.w3.org/2000/svg">
  <g clip-path="url(#perpsTopBarLogoClip)">
    <path d="M21.7493 12.2991C21.7678 14.0356 21.4199 15.6949 20.7364 17.2802C19.7605 19.5377 17.4207 21.3835 15.2842 19.4187C13.5417 17.8173 13.2184 14.5662 10.6077 14.0903C7.15353 13.6529 7.0704 17.8366 4.81377 18.3092C2.29853 18.8431 1.46422 14.4247 1.50117 12.4181C1.53811 10.4115 2.04916 7.59133 4.23499 7.59133C6.75023 7.59133 6.91955 11.5692 10.1121 11.3537C13.2739 11.1286 13.3292 6.98999 15.395 5.21814C17.1776 3.68746 19.2741 4.80974 20.3239 6.65234C21.2968 8.35668 21.7246 10.3569 21.7462 12.2991H21.7493Z" fill="white"/>
    <g clip-path="url(#perpsTopBarRabbyClip)">
      <circle cx="18" cy="18" r="6" fill="#131416"/>
      <path d="M22.454 18.5616C22.8075 17.7719 21.06 15.5657 19.3905 14.6466C18.3381 13.9345 17.2416 14.0323 17.0195 14.345C16.5321 15.0311 18.6334 15.6125 20.0386 16.291C19.7366 16.4221 19.4519 16.6576 19.2845 16.9587C18.7606 16.3867 17.6107 15.8942 16.2615 16.291C15.3522 16.5583 14.5966 17.1886 14.3045 18.1406C14.2336 18.1091 14.155 18.0916 14.0724 18.0916C13.7563 18.0916 13.5 18.3478 13.5 18.6639C13.5 18.98 13.7563 19.2362 14.0724 19.2362C14.1309 19.2362 14.3141 19.1969 14.3141 19.1969L17.2416 19.2182C16.0708 21.0754 15.1456 21.347 15.1456 21.6687C15.1456 21.9905 16.0309 21.9033 16.3633 21.7834C17.9546 21.2092 19.6636 19.4198 19.9569 18.9047C21.1885 19.0583 22.2235 19.0765 22.454 18.5616Z" fill="url(#perpsTopBarBodyGradient)"/>
      <path d="M16.9849 14.6959C17.0868 14.5006 17.7531 14.4798 18.6577 14.9058C19.3235 15.2194 20.0331 15.9194 20.0747 16.0933C20.0926 16.1689 20.1027 16.265 20.0376 16.2906C18.878 15.7309 17.2466 15.2368 16.9849 14.6959Z" fill="url(#perpsTopBarEarGradient)"/>
      <path d="M16.6045 17.4683C17.576 17.4683 17.9941 17.783 18.3271 18.3735C18.5645 18.7945 18.5121 19.4609 18.2607 19.9107C18.4958 19.9689 18.7026 20.0331 18.8857 20.103C18.5889 20.3795 18.2489 20.6659 17.8877 20.9292C17.3939 20.8032 16.9445 20.6867 16.2637 20.5122C16.5543 20.1952 16.8867 19.7787 17.2412 19.2163L14.6143 19.1978C14.6051 19.0916 14.6028 18.9761 14.6055 18.8501C14.631 17.6489 16.07 17.4683 16.6045 17.4683Z" fill="url(#perpsTopBarShadowLegGradient)"/>
      <path d="M14.2691 19.0747C14.3765 19.9872 14.8951 20.3449 15.9548 20.4507C17.0145 20.5565 17.6224 20.4855 18.4317 20.5592C19.1076 20.6206 19.7111 20.9651 19.935 20.8461C20.1364 20.7389 20.0237 20.3519 19.7541 20.1036C19.4046 19.7818 18.9209 19.558 18.0698 19.4786C18.2395 19.0142 18.1919 18.363 17.9285 18.0088C17.5476 17.4965 16.8446 17.265 15.9548 17.3661C15.0252 17.4719 14.1344 17.9295 14.2691 19.0747Z" fill="url(#perpsTopBarLegGradient)"/>
    </g>
  </g>
  <defs>
    <linearGradient id="perpsTopBarBodyGradient" x1="16.1556" y1="17.8623" x2="22.3779" y2="19.6268" gradientUnits="userSpaceOnUse">
      <stop stop-color="#8797FF"/>
      <stop offset="1" stop-color="#AAA8FF"/>
    </linearGradient>
    <linearGradient id="perpsTopBarEarGradient" x1="21.329" y1="17.7432" x2="16.8403" y2="13.2443" gradientUnits="userSpaceOnUse">
      <stop stop-color="#3B22A0"/>
      <stop offset="1" stop-color="#5156D8" stop-opacity="0"/>
    </linearGradient>
    <linearGradient id="perpsTopBarShadowLegGradient" x1="19.0107" y1="20.2575" x2="14.7003" y2="17.7784" gradientUnits="userSpaceOnUse">
      <stop stop-color="#3B1E8F"/>
      <stop offset="1" stop-color="#6A6FFB" stop-opacity="0"/>
    </linearGradient>
    <linearGradient id="perpsTopBarLegGradient" x1="16.5267" y1="17.8149" x2="19.4419" y2="21.5189" gradientUnits="userSpaceOnUse">
      <stop stop-color="#8898FF"/>
      <stop offset="0.983895" stop-color="#5F47F1"/>
    </linearGradient>
    <clipPath id="perpsTopBarLogoClip">
      <rect width="24" height="24" fill="white"/>
    </clipPath>
    <clipPath id="perpsTopBarRabbyClip">
      <rect width="12" height="12" fill="white" transform="translate(12 12)"/>
    </clipPath>
  </defs>
</svg>
