<svg width="18" height="18" viewBox="0 0 18 18" fill="none" xmlns="http://www.w3.org/2000/svg">
<g clip-path="url(#clip0_138762_156137)">
<path d="M8.99837 2.24819C9.09737 2.24819 9.19562 2.24819 9.29312 2.24819C8.32963 3.14347 7.71031 4.34807 7.54284 5.6526C7.37536 6.95714 7.67032 8.27911 8.37642 9.38874C9.08253 10.4984 10.1551 11.3255 11.4078 11.7263C12.6605 12.1271 14.014 12.0763 15.2331 11.5827C14.7642 12.7111 13.9977 13.691 13.0155 14.4179C12.0333 15.1448 10.8722 15.5915 9.65605 15.7102C8.4399 15.829 7.21432 15.6154 6.11004 15.0922C5.00576 14.5691 4.06421 13.756 3.38581 12.7396C2.70742 11.7233 2.31763 10.5419 2.25804 9.32142C2.19844 8.10093 2.47126 6.88716 3.0474 5.80957C3.62354 4.73199 4.48139 3.83101 5.52944 3.20274C6.5775 2.57447 7.77644 2.24248 8.99837 2.24219V2.24819Z" stroke="#717380" stroke-width="1.5" stroke-linecap="round" stroke-linejoin="round"/>
</g>
<defs>
<clipPath id="clip0_138762_156137">
<rect width="18" height="18" fill="white"/>
</clipPath>
</defs>
</svg>
