<svg width="25" height="24" viewBox="0 0 25 24" fill="none" xmlns="http://www.w3.org/2000/svg">
<path d="M20.5 13.5V3C20.5 2.44771 20.0523 2 19.5 2H5.5C4.94771 2 4.5 2.44771 4.5 3V21C4.5 21.5523 4.94771 22 5.5 22H11" stroke="#6A7587" stroke-width="1.5" stroke-linecap="round" stroke-linejoin="round"/>
<path d="M9 7H16" stroke="#6A7587" stroke-width="1.5" stroke-linecap="round" stroke-linejoin="round"/>
<path d="M9 12H12" stroke="#6A7587" stroke-width="1.5" stroke-linecap="round" stroke-linejoin="round"/>
<path d="M20 22L18.2677 20.2677M18.2677 20.2677C18.7202 19.8153 19 19.1903 19 18.5C19 17.1193 17.8807 16 16.5 16C15.1193 16 14 17.1193 14 18.5C14 19.8807 15.1193 21 16.5 21C17.1903 21 17.8153 20.7202 18.2677 20.2677Z" stroke="#6A7587" stroke-width="1.5" stroke-linecap="round" stroke-linejoin="round"/>
</svg>
