<svg width="16" height="16" viewBox="0 0 94 94" fill="none" xmlns="http://www.w3.org/2000/svg">
<path d="M46.8535 0.847656H46.8555C71.9997 0.847656 92.3836 21.2308 92.3838 46.375V46.377C92.3838 71.5213 71.9999 91.9053 46.8555 91.9053H46.8535C21.7093 91.9051 1.32617 71.5212 1.32617 46.377V46.375C1.32635 21.2309 21.7094 0.847829 46.8535 0.847656Z" fill="black" stroke="black" stroke-width="1.67719"/>
<path fill-rule="evenodd" clip-rule="evenodd" d="M39.4161 8.22266C21.5183 11.67 7.99907 27.4161 7.99902 46.3201C7.99902 65.2242 21.5183 80.971 39.4161 84.4185V80.782C23.4996 77.389 11.5615 63.2486 11.5615 46.3201C11.5616 29.3917 23.4996 15.2512 39.4161 11.8583V8.22266ZM54.2464 11.8726V8.23555C72.1112 11.7091 85.5976 27.4396 85.5977 46.3201C85.5977 65.2007 72.1112 80.9319 54.2464 84.4056V80.7677C70.1295 77.3495 82.0342 63.225 82.0342 46.3201C82.0341 29.4153 70.1295 15.2907 54.2464 11.8726Z" fill="white"/>
<path d="M52.3261 45.0239C55.2864 45.5881 57.5826 46.6762 59.2146 48.2882C60.8466 49.8599 61.6626 51.8748 61.6626 54.3331V58.2019C61.6626 61.1438 60.5999 63.5215 58.4745 65.335C56.3491 67.1082 53.5596 67.9948 50.1058 67.9948H48.9103V74.1607H44.8113V67.9948H43.5588C41.2816 67.9948 39.2701 67.491 37.5242 66.4835C35.7783 65.4357 34.412 63.985 33.4252 62.1312C32.4764 60.2371 32.002 58.0609 32.002 55.6026H36.1009C36.1009 58.1012 36.7841 60.1363 38.1504 61.708C39.5547 63.2394 41.3955 64.0051 43.6727 64.0051H49.9919C52.2312 64.0051 54.034 63.4812 55.4003 62.4334C56.7666 61.3453 57.4498 59.9348 57.4498 58.2019V54.3331C57.4498 52.9629 56.9374 51.7942 55.9127 50.8271C54.9259 49.8599 53.5596 49.2352 51.8137 48.9531L41.5662 47.1396C38.6818 46.6157 36.4425 45.5276 34.8485 43.8753C33.2544 42.223 32.4574 40.1476 32.4574 37.649V34.3847C32.4574 31.4428 33.4821 29.1054 35.5316 27.3725C37.6191 25.5994 40.3707 24.7128 43.7865 24.7128H44.8113V18.5469H48.9103V24.7128H50.2196C53.4457 24.7128 56.0455 25.7606 58.0191 27.8561C59.9927 29.9114 60.9795 32.6317 60.9795 36.0169H56.8805C56.8805 33.8004 56.2732 32.0272 55.0587 30.6973C53.8442 29.3674 52.2312 28.7024 50.2196 28.7024H43.7865C41.6232 28.7024 39.8963 29.2263 38.6059 30.2741C37.3154 31.2816 36.6702 32.6518 36.6702 34.3847V37.649C36.6702 39.0595 37.1447 40.2483 38.0935 41.2155C39.0803 42.1827 40.4276 42.8275 42.1355 43.1499L52.3261 45.0239Z" fill="white"/>
</svg>
