<svg width="13" height="12" viewBox="0 0 13 12" fill="none" xmlns="http://www.w3.org/2000/svg">
<path d="M11.3002 6.0002C11.3002 8.65114 9.15114 10.8002 6.5002 10.8002C3.84923 10.8002 1.7002 8.65114 1.7002 6.0002C1.7002 3.34923 3.84923 1.2002 6.5002 1.2002C9.15114 1.2002 11.3002 3.34923 11.3002 6.0002Z" stroke="#6A7587" stroke-width="0.75" stroke-linecap="round" stroke-linejoin="round"/>
<path fill-rule="evenodd" clip-rule="evenodd" d="M6.5 2.75C6.84517 2.75 7.125 3.02983 7.125 3.375C7.125 3.72017 6.84517 4 6.5 4C6.15483 4 5.875 3.72017 5.875 3.375C5.875 3.02983 6.15483 2.75 6.5 2.75Z" fill="#6A7587"/>
<path d="M6.625 8.5V5H6.375H6.125" fill="#6A7587"/>
<path d="M6.625 8.5V5H6.375H6.125" stroke="#6A7587" stroke-width="0.75" stroke-linecap="round" stroke-linejoin="round"/>
<path d="M5.75 8.5H7.5Z" fill="#6A7587"/>
<path d="M5.75 8.5H7.5" stroke="#6A7587" stroke-width="0.75" stroke-linecap="round" stroke-linejoin="round"/>
</svg>
