<svg width="16" height="16" viewBox="0 0 16 16" fill="none" xmlns="http://www.w3.org/2000/svg">
<path d="M5.43628 14H2.52174C2.38336 14 2.25066 13.945 2.15281 13.8472C2.05497 13.7493 2 13.6166 2 13.4783V10.5637C2.00006 10.4255 2.05495 10.293 2.15261 10.1952L10.1952 2.15269C10.293 2.05492 10.4256 2 10.564 2C10.7023 2 10.8349 2.05492 10.9328 2.15269L13.8473 5.06528C13.9451 5.16311 14 5.29577 14 5.43408C14 5.57239 13.9451 5.70505 13.8473 5.80288L5.80476 13.8474C5.70699 13.9451 5.57447 13.9999 5.43628 14Z" stroke="currentColor" stroke-width="1.25" stroke-linecap="round" stroke-linejoin="round"/>
<path d="M9 4L12 7" stroke="currentColor" stroke-width="1.25" stroke-linecap="round" stroke-linejoin="round"/>
</svg>
