<svg width="20" height="20" viewBox="0 0 20 20" fill="none" xmlns="http://www.w3.org/2000/svg">
<path d="M7.99738 3.55595L5.325 6.22832C5.17901 6.37432 5.106 6.44732 5.02081 6.49952C4.94528 6.54581 4.86294 6.57991 4.7768 6.6006C4.67965 6.62392 4.57641 6.62392 4.36994 6.62392H2.9034C2.43063 6.62392 2.19423 6.62392 2.01366 6.71593C1.85482 6.79686 1.72568 6.926 1.64474 7.08484C1.55273 7.26542 1.55273 7.5018 1.55273 7.97459V12.0266C1.55273 12.4994 1.55273 12.7357 1.64474 12.9163C1.72568 13.0752 1.85482 13.2043 2.01366 13.2852C2.19423 13.3772 2.43063 13.3772 2.9034 13.3772H4.36994C4.57641 13.3772 4.67965 13.3772 4.7768 13.4006C4.86294 13.4213 4.94528 13.4554 5.02081 13.5017C5.106 13.5538 5.17901 13.6269 5.325 13.7729L7.99737 16.4452C8.359 16.8068 8.53982 16.9876 8.69506 16.9999C8.82971 17.0104 8.9614 16.9559 9.04911 16.8532C9.15024 16.7348 9.15024 16.4791 9.15024 15.9677V4.03348C9.15024 3.52207 9.15024 3.26636 9.04911 3.14796C8.9614 3.04523 8.82971 2.9907 8.69506 3.0013C8.53982 3.01352 8.359 3.19433 7.99738 3.55595Z" stroke="currentColor" stroke-width="1.5" stroke-linecap="round" stroke-linejoin="round"/>
<path d="M15.5597 5C16.4661 6.40731 17 8.13403 17 9.99999C17 11.866 16.4661 13.5927 15.5597 15M13 7.14286C13.5058 7.95274 13.8024 8.9377 13.8024 9.99999C13.8024 11.0623 13.5058 12.0473 13 12.8571" stroke="currentColor" stroke-width="1.5" stroke-linecap="round" stroke-linejoin="round"/>
</svg>
