<svg width="20" height="20" viewBox="0 0 20 20" fill="none" xmlns="http://www.w3.org/2000/svg">
<path d="M10.5315 15.6115C10.1962 15.4348 9.79519 15.4346 9.45963 15.611L6.38833 17.2258C5.54421 17.6697 4.55762 16.9528 4.71886 16.0129L5.30562 12.5924C5.36969 12.2188 5.24572 11.8377 4.97414 11.5733L2.48664 9.15201C1.80288 8.48643 2.17982 7.32572 3.12417 7.18885L6.55485 6.69165C6.92978 6.63731 7.25394 6.40189 7.42159 6.0622L8.95757 2.95002C9.37956 2.09484 10.5991 2.09484 11.0211 2.95002L12.5571 6.0622C12.7247 6.40189 13.0489 6.63731 13.4239 6.69165L16.8545 7.18885C17.7989 7.32572 18.1758 8.48643 17.4921 9.15201L15.0046 11.5733C14.733 11.8377 14.609 12.2188 14.6731 12.5924L15.2593 16.0102C15.4207 16.9506 14.4331 17.6675 13.5887 17.2226L10.5315 15.6115Z" fill="#6A7587"/>
</svg>
