<svg width="56" height="56" viewBox="0 0 56 56" fill="none" xmlns="http://www.w3.org/2000/svg">
<path fill-rule="evenodd" clip-rule="evenodd" d="M54.5841 28.4912C54.6027 32.6777 53.7186 36.6784 52.0167 40.4854L52.0158 40.4873C50.7347 43.3446 48.5121 46.0695 45.7277 47.4424C44.3123 48.1402 42.7211 48.5004 41.0519 48.2959C39.481 48.1034 37.9532 47.424 36.5304 46.2422L36.2472 45.999C35.0166 44.9083 34.0818 43.5789 33.2931 42.2861C32.8974 41.6374 32.5244 40.9731 32.1691 40.3398C31.8084 39.6971 31.4663 39.0863 31.1115 38.499C29.6917 36.1498 28.3052 34.5983 26.008 34.1777C24.3501 33.9841 23.2111 34.3205 22.3166 34.8721C21.3581 35.4631 20.5575 36.3743 19.7169 37.5332C18.9539 38.5853 18.0214 40.0619 17.0548 41.1729C16.0231 42.3586 14.6849 43.478 12.8068 43.8574L12.8058 43.8564C10.7411 44.2775 8.9607 43.6976 7.56069 42.5381C6.22559 41.4322 5.27806 39.8438 4.60464 38.2295C3.25747 34.9998 2.75522 31.0572 2.80288 28.5586C2.80331 28.5363 2.80436 28.5136 2.80483 28.4912H6.32632C6.32524 28.5362 6.32229 28.5813 6.32143 28.626C6.28113 30.7393 6.72995 34.1811 7.85366 36.875C8.41569 38.2221 9.08489 39.231 9.80581 39.8281C10.4607 40.3704 11.1752 40.5986 12.1056 40.4082H12.1095C12.9205 40.2444 13.6242 39.7534 14.3996 38.8623C15.2399 37.8964 15.8806 36.8286 16.8683 35.4668C17.7786 34.2118 18.9077 32.8391 20.4699 31.876C21.9865 30.9409 23.8043 30.455 26.0304 30.6426L26.4816 30.6895L26.5275 30.6943L26.5724 30.7021C30.4708 31.3875 32.5729 34.1135 34.1232 36.6787C34.513 37.3237 34.8836 37.9866 35.2374 38.6172C35.5965 39.257 35.9405 39.8671 36.298 40.4531C37.0162 41.6304 37.7356 42.6157 38.5812 43.3652L38.5822 43.3662C39.6256 44.2914 40.606 44.6956 41.4806 44.8027C42.3616 44.9106 43.2652 44.7327 44.171 44.2861C45.9134 43.427 47.5428 41.6232 48.6007 39.4805L48.8039 39.0479C50.2599 35.7905 51.0275 32.4055 51.0626 28.874L51.0587 28.4912H54.5841Z" fill="#F7FAFC"/>
<path fill-rule="evenodd" clip-rule="evenodd" d="M36.5498 10.6855C39.1694 8.51635 42.1334 8.19099 44.7842 9.12105C47.348 10.0207 49.5201 12.0478 50.9346 14.4414L51.166 14.8398C53.2124 18.4593 54.2402 22.5447 54.5029 26.5566H54.5586L54.5781 28.2968C54.5788 28.361 54.5778 28.4252 54.5781 28.4892H51.0527L51.0508 28.3359C51.0022 24.1112 50.0359 19.832 47.9062 16.2343L47.9053 16.2324C46.8177 14.3918 45.2409 13.0115 43.6191 12.4423C42.0837 11.9036 40.4238 12.0477 38.7949 13.3964L38.7939 13.3974C37.8103 14.2111 37.0053 15.3485 36.2236 16.748C35.8353 17.4433 35.4679 18.1743 35.0869 18.9404C34.7118 19.6946 34.3197 20.4906 33.9053 21.2597C32.2559 24.3208 29.9309 27.5737 25.2012 27.8984L25.1953 27.8994C20.4524 28.208 17.9418 25.3815 16.1035 23.1123C15.1371 21.9193 14.4207 20.9711 13.5811 20.2578C12.8159 19.6078 12.0557 19.2558 11.0723 19.2558C9.41767 19.256 8.30852 20.1955 7.50488 22.0214C6.69262 23.8673 6.37273 26.3068 6.32031 28.4892H2.79883C2.84951 26.1037 3.18884 23.0914 4.2832 20.6044C5.41298 18.0371 7.51761 15.7365 11.0723 15.7363C13.086 15.7363 14.625 16.5266 15.8594 17.5751C17.0191 18.5604 18.0041 19.867 18.8389 20.8974C20.5483 23.0076 22.0065 24.4792 24.7021 24.3994L24.9668 24.3867C27.7689 24.1917 29.2773 22.431 30.8076 19.5908C31.1883 18.8842 31.5505 18.1492 31.9365 17.373C32.3167 16.6087 32.7173 15.8093 33.1514 15.0322C34.0145 13.487 35.0722 11.9079 36.5498 10.6855Z" fill="#4C65FF"/>
</svg>
