<svg width="24" height="24" viewBox="0 0 24 24" fill="none" xmlns="http://www.w3.org/2000/svg">
<path fill-rule="evenodd" clip-rule="evenodd" d="M9.32812 2.63116C9.91719 1.80002 12.8227 1.53973 15.6113 3.43291C20.0358 5.87708 24.667 11.744 23.7305 13.844C23.1196 15.2133 20.3763 15.1648 17.1123 14.7562C16.8511 15.2166 16.1637 16.0578 15.209 17.0325C15.7546 17.288 16.1975 17.5949 16.5791 17.9476C17.2935 18.6077 17.5922 19.6371 17.0586 19.9222C16.4653 20.2387 14.8654 19.3231 13.0742 19.1595C13.02 19.1545 12.9657 19.1513 12.9121 19.1468C11.2989 20.4823 9.41498 21.7502 7.58887 22.4114C6.70795 22.7304 4.36154 22.9622 4.36133 22.1067C4.36133 21.5013 5.58593 20.9597 7.40332 18.9466C7.11868 18.9258 6.82156 18.9017 6.50977 18.8704C3.83416 18.6023 2.46087 17.7266 2.09082 15.5462C1.95237 15.5746 1.63633 15.638 1.5166 15.638C0.67908 15.6378 0.000161459 14.9569 0 14.1165C0 13.276 0.67898 12.5942 1.5166 12.594C1.73558 12.594 1.94383 12.6411 2.13184 12.7249C2.90583 10.1934 4.90875 8.51695 7.31836 7.80596C10.894 6.75102 13.9415 8.06057 15.3301 9.58135C15.7737 8.78073 16.5286 8.15482 17.3291 7.80596C16.3793 7.34586 15.31 6.90155 14.2646 6.46612C13.9392 6.33047 13.6171 6.19329 13.3008 6.05889C13.0104 5.9356 12.7249 5.81437 12.4492 5.6917C12.4146 5.67629 12.38 5.66121 12.3457 5.64581C12.1981 5.57961 12.0537 5.51271 11.9121 5.44659C11.8496 5.41734 11.7878 5.38793 11.7266 5.3587C9.87189 4.47366 8.64768 3.59233 9.32812 2.63116Z" fill="currentColor"/>
</svg>
