<svg width="20" height="20" viewBox="0 0 20 20" fill="none" xmlns="http://www.w3.org/2000/svg">
<path d="M16.6673 11.2513V2.5013C16.6673 2.04106 16.2942 1.66797 15.834 1.66797H4.16732C3.70708 1.66797 3.33398 2.04106 3.33398 2.5013V17.5013C3.33398 17.9616 3.70708 18.3346 4.16732 18.3346H8.75065" stroke="currentColor" stroke-linecap="round" stroke-linejoin="round"/>
<path d="M7.08398 5H12.9173" stroke="currentColor" stroke-linecap="round" stroke-linejoin="round"/>
<path d="M7.08398 8.33203H12.9173" stroke="currentColor" stroke-linecap="round" stroke-linejoin="round"/>
<path d="M7.08398 11.668H9.58398" stroke="currentColor" stroke-linecap="round" stroke-linejoin="round"/>
<path d="M16.25 18.332L14.8065 16.8885M14.8065 16.8885C15.1835 16.5115 15.4167 15.9907 15.4167 15.4154C15.4167 14.2648 14.4839 13.332 13.3333 13.332C12.1827 13.332 11.25 14.2648 11.25 15.4154C11.25 16.5659 12.1827 17.4987 13.3333 17.4987C13.9086 17.4987 14.4295 17.2655 14.8065 16.8885Z" stroke="currentColor" stroke-linecap="round" stroke-linejoin="round"/>
</svg>
