<svg xmlns="http://www.w3.org/2000/svg" width="15" height="15" viewBox="0 0 15 15" fill="none">
  <path d="M7.49961 4.14766C8.37148 4.14766 9.21523 4.49453 9.83398 5.11328C10.1408 5.41959 10.384 5.78351 10.5497 6.18411C10.7154 6.58472 10.8004 7.01413 10.7996 7.44766V10.8695C11.0715 11.0289 11.2496 11.3102 11.2684 11.6195V11.6852H3.73086C3.73086 11.3477 3.90898 11.0383 4.19961 10.8695V7.44766C4.19961 5.61953 5.67148 4.14766 7.49961 4.14766ZM7.03086 7.68203C6.66523 7.68203 6.35586 7.96328 6.32773 8.32891V10.2695H7.74336V8.31953C7.72477 8.14385 7.64157 7.98134 7.50991 7.86354C7.37825 7.74574 7.20752 7.68105 7.03086 7.68203ZM3.93711 2.97578L4.60273 3.64141C4.72461 3.76328 4.78086 3.94141 4.73398 4.11016C4.69648 4.26953 4.56523 4.40078 4.39648 4.44766C4.31508 4.46686 4.23011 4.46488 4.14969 4.4419C4.06927 4.41892 3.99608 4.37572 3.93711 4.31641L3.27148 3.64141C3.08398 3.46328 3.08398 3.16328 3.27148 2.97578C3.44961 2.79766 3.74961 2.78828 3.93711 2.97578ZM11.0621 2.97578C11.2402 2.78828 11.5402 2.78828 11.7277 2.97578C11.9152 3.15391 11.9152 3.45391 11.7277 3.64141L11.0621 4.31641C10.9402 4.43828 10.7715 4.49453 10.6027 4.44766C10.5216 4.42642 10.4475 4.38397 10.3882 4.32465C10.3289 4.26534 10.2865 4.19131 10.2652 4.11016C10.2184 3.94141 10.2746 3.77266 10.3965 3.65078L11.0621 2.97578ZM7.49961 1.31641C7.76211 1.31641 7.96836 1.52266 7.96836 1.78516V2.73203C7.96836 2.90078 7.87461 3.06016 7.73398 3.14453C7.59336 3.22891 7.40586 3.22891 7.26523 3.14453C7.19372 3.10204 7.13449 3.04166 7.0934 2.96933C7.0523 2.897 7.03075 2.81522 7.03086 2.73203V1.78516C7.03086 1.53203 7.23711 1.31641 7.49961 1.31641Z" fill="currentColor"/>
</svg>