<svg width="20" height="20" viewBox="0 0 20 20" fill="none" xmlns="http://www.w3.org/2000/svg">
<path d="M6.87634 0C7.03415 8.22767e-05 7.18851 0.0467328 7.32052 0.134239C7.45253 0.221746 7.55646 0.34631 7.61959 0.492678L9.03225 3.76242C7.0626 3.9548 5.19343 4.73343 3.66072 6L1.5681 1.1504C1.5141 1.02557 1.49165 0.889089 1.50277 0.753281C1.5139 0.617472 1.55825 0.486601 1.63183 0.372467C1.70541 0.258333 1.8059 0.164525 1.92425 0.0995016C2.04259 0.034478 2.17506 0.00028306 2.30972 0L6.87634 0ZM17.6892 0C17.8159 9.27028e-05 17.9408 0.0302122 18.0539 0.087946C18.1671 0.14568 18.2653 0.229423 18.3407 0.332469C18.4161 0.435514 18.4666 0.554997 18.4882 0.681348C18.5097 0.807699 18.5018 0.937406 18.4649 1.06008L18.4324 1.1504L16.3374 6C14.8047 4.73343 12.9355 3.9548 10.9658 3.76242L12.3801 0.491857C12.4362 0.362482 12.5242 0.24992 12.6358 0.165052C12.7474 0.0801848 12.8787 0.0258811 13.0171 0.00739018L13.1242 0H17.6908H17.6892Z" fill="#4C65FF" fill-opacity="0.4"/>
<circle cx="10" cy="12.5" r="7.5" fill="#FFCA0A"/>
<path d="M10.5908 16.1123C10.0586 16.1123 9.69727 15.7656 9.69727 15.2285V10.5361H9.66309L8.78418 11.1465C8.62305 11.2588 8.51562 11.2979 8.34473 11.2979C7.99805 11.2979 7.73926 11.0391 7.73926 10.6777C7.73926 10.4189 7.8418 10.2188 8.0957 10.043L9.42871 9.13477C9.80469 8.88086 10.1074 8.8418 10.459 8.8418C11.1035 8.8418 11.4795 9.22754 11.4795 9.84277V15.2285C11.4795 15.7656 11.123 16.1123 10.5908 16.1123Z" fill="black"/>
</svg>
