<svg width="233" height="119" viewBox="0 0 233 119" fill="none" xmlns="http://www.w3.org/2000/svg">
<path d="M116.501 0C95.0574 0 74.9673 5.79417 57.71 15.9014L79.1836 52.9795C90.1277 46.5361 102.882 42.8389 116.501 42.8389C130.027 42.8389 142.702 46.4843 153.596 52.8467L175.068 15.7695C157.861 5.74325 137.852 0 116.501 0Z" fill="#FF9F0A" fill-opacity="0.1"/>
<path d="M71.8389 57.917C54.2115 71.3758 42.8389 92.6097 42.8389 116.5H0C1.39901e-05 76.8083 19.8491 41.7522 50.1631 20.7178L71.8389 57.917Z" fill="#58C669"/>
<path d="M162.709 59.377C179.278 72.8841 189.86 93.4559 189.86 116.5H232.699C232.699 77.5979 213.63 43.1513 184.331 21.9922L162.709 59.377Z" fill="#FF736B" fill-opacity="0.1"/>
<path d="M71.6394 112.48C71.3196 112.24 71.3196 111.76 71.6394 111.52L77.5398 107.091C77.9353 106.795 78.5 107.077 78.5 107.571V116.429C78.5 116.923 77.9353 117.205 77.5398 116.909L71.6394 112.48Z" fill="#58C669"/>
</svg>
