<svg width="233" height="117" viewBox="0 0 233 117" fill="none" xmlns="http://www.w3.org/2000/svg">
<path d="M116.501 0C95.0574 0 74.9673 5.79417 57.71 15.9014L79.1836 52.9795C90.1277 46.5361 102.882 42.8389 116.501 42.8389C130.027 42.8389 142.702 46.4843 153.596 52.8467L175.068 15.7695C157.861 5.74325 137.852 0 116.501 0Z" fill="#FF9F0A"/>
<path d="M71.8389 57.917C54.2115 71.3758 42.8389 92.6097 42.8389 116.5H0C1.39901e-05 76.8083 19.8491 41.7522 50.1631 20.7178L71.8389 57.917Z" fill="#58C669" fill-opacity="0.14"/>
<path d="M162.709 59.377C179.278 72.8841 189.86 93.4559 189.86 116.5H232.699C232.699 77.5979 213.63 43.1513 184.331 21.9922L162.709 59.377Z" fill="#FF736B" fill-opacity="0.1"/>
<path d="M116.52 88.6394C116.76 88.3196 117.24 88.3196 117.48 88.6394L121.909 94.5398C122.205 94.9353 121.923 95.5 121.429 95.5H112.571C112.077 95.5 111.795 94.9353 112.091 94.5398L116.52 88.6394Z" fill="#FF9F0A"/>
</svg>
