<svg width="336" height="180" viewBox="0 0 336 180" fill="none" xmlns="http://www.w3.org/2000/svg">
<g clip-path="url(#clip0_130850_45233)">
<rect x="140" y="55" width="4.00001" height="140" rx="2" transform="rotate(90 140 55)" fill="#6A7587"/>
<path d="M39.4375 48V39.5449H44.8047V40.6816H40.75V43.1484H44.5879V44.2383H40.75V46.8633H44.8047V48H39.4375ZM46.5566 48V41.6367H47.8281V42.5977H47.9277C48.084 42.2578 48.3145 41.9922 48.6191 41.8008C48.9238 41.6094 49.3086 41.5137 49.7734 41.5137C50.4883 41.5137 51.0352 41.7188 51.4141 42.1289C51.793 42.5391 51.9824 43.123 51.9824 43.8809V48H50.7051V44.1797C50.7051 43.6484 50.5938 43.2539 50.3711 42.9961C50.1523 42.7344 49.8086 42.6035 49.3398 42.6035C49.0312 42.6035 48.7637 42.6719 48.5371 42.8086C48.3105 42.9414 48.1348 43.1328 48.0098 43.3828C47.8887 43.6289 47.8281 43.9238 47.8281 44.2676V48H46.5566ZM56.1543 48.041C55.459 48.041 54.9551 47.9082 54.6426 47.6426C54.334 47.373 54.1797 46.9336 54.1797 46.3242V42.6387H53.1836V41.6367H54.1797V40.0312H55.4805V41.6367H56.8457V42.6387H55.4805V46.0137C55.4805 46.3574 55.5488 46.6055 55.6855 46.7578C55.8223 46.9062 56.0488 46.9805 56.3652 46.9805C56.459 46.9805 56.5391 46.9785 56.6055 46.9746C56.6758 46.9707 56.7559 46.9648 56.8457 46.957V47.9766C56.7441 47.9922 56.6348 48.0059 56.5176 48.0176C56.4004 48.0332 56.2793 48.041 56.1543 48.041ZM58.334 48V41.6367H59.6055V42.5977H59.7051C59.8184 42.2578 60.0176 41.9941 60.3027 41.8066C60.5918 41.6191 60.9473 41.5254 61.3691 41.5254C61.4746 41.5254 61.5781 41.5312 61.6797 41.543C61.7812 41.5547 61.8633 41.5684 61.9258 41.584V42.7559C61.8125 42.7324 61.6992 42.7148 61.5859 42.7031C61.4766 42.6914 61.3613 42.6855 61.2402 42.6855C60.916 42.6855 60.6309 42.748 60.3848 42.873C60.1426 42.998 59.9512 43.1738 59.8105 43.4004C59.6738 43.623 59.6055 43.8887 59.6055 44.1973V48H58.334ZM63.8535 50.2383C63.7754 50.2383 63.6914 50.2344 63.6016 50.2266C63.5117 50.2227 63.4258 50.2168 63.3438 50.209V49.207C63.4062 49.2148 63.4746 49.2207 63.5488 49.2246C63.627 49.2285 63.7012 49.2305 63.7715 49.2305C64.0684 49.2305 64.3086 49.1602 64.4922 49.0195C64.6758 48.8828 64.8145 48.6543 64.9082 48.334L65.002 48.0059L62.6934 41.6367H64.0703L65.8691 47.373L65.4707 46.7168H65.957L65.5645 47.373L67.3574 41.6367H68.6992L66.332 48.2402C66.1523 48.748 65.9531 49.1465 65.7344 49.4355C65.5156 49.7285 65.2559 49.9355 64.9551 50.0566C64.6543 50.1777 64.2871 50.2383 63.8535 50.2383ZM73.2637 50.1211V41.6367H74.5352V42.6387H74.6348C74.7559 42.4043 74.9121 42.2051 75.1035 42.041C75.2988 41.877 75.5215 41.75 75.7715 41.6602C76.0215 41.5703 76.2949 41.5254 76.5918 41.5254C77.127 41.5254 77.5918 41.6621 77.9863 41.9355C78.3809 42.2051 78.6855 42.5859 78.9004 43.0781C79.1191 43.5664 79.2285 44.1445 79.2285 44.8125V44.8242C79.2285 45.4961 79.1211 46.0781 78.9062 46.5703C78.6914 47.0586 78.3867 47.4375 77.9922 47.707C77.5977 47.9727 77.1309 48.1055 76.5918 48.1055C76.2988 48.1055 76.0254 48.0605 75.7715 47.9707C75.5176 47.877 75.293 47.748 75.0977 47.584C74.9023 47.4199 74.748 47.2227 74.6348 46.9922H74.5352V50.1211H73.2637ZM76.2285 47.0156C76.584 47.0156 76.8887 46.9277 77.1426 46.752C77.3965 46.5762 77.5898 46.3242 77.7227 45.9961C77.8594 45.668 77.9277 45.2773 77.9277 44.8242V44.8125C77.9277 44.3555 77.8594 43.9629 77.7227 43.6348C77.5898 43.3066 77.3965 43.0547 77.1426 42.8789C76.8887 42.7031 76.584 42.6152 76.2285 42.6152C75.877 42.6152 75.5723 42.7051 75.3145 42.8848C75.0566 43.0605 74.8594 43.3125 74.7227 43.6406C74.5859 43.9648 74.5176 44.3555 74.5176 44.8125V44.8242C74.5176 45.2734 74.5859 45.6621 74.7227 45.9902C74.8594 46.3184 75.0566 46.5723 75.3145 46.752C75.5723 46.9277 75.877 47.0156 76.2285 47.0156ZM80.752 48V41.6367H82.0234V42.5977H82.123C82.2363 42.2578 82.4355 41.9941 82.7207 41.8066C83.0098 41.6191 83.3652 41.5254 83.7871 41.5254C83.8926 41.5254 83.9961 41.5312 84.0977 41.543C84.1992 41.5547 84.2812 41.5684 84.3438 41.584V42.7559C84.2305 42.7324 84.1172 42.7148 84.0039 42.7031C83.8945 42.6914 83.7793 42.6855 83.6582 42.6855C83.334 42.6855 83.0488 42.748 82.8027 42.873C82.5605 42.998 82.3691 43.1738 82.2285 43.4004C82.0918 43.623 82.0234 43.8887 82.0234 44.1973V48H80.752ZM85.5859 48V41.6367H86.8633V48H85.5859ZM86.2305 40.5C86.0117 40.5 85.8242 40.4219 85.668 40.2656C85.5117 40.1094 85.4336 39.9219 85.4336 39.7031C85.4336 39.4844 85.5117 39.2988 85.668 39.1465C85.8242 38.9902 86.0117 38.9121 86.2305 38.9121C86.4492 38.9121 86.6367 38.9902 86.793 39.1465C86.9492 39.2988 87.0273 39.4844 87.0273 39.7031C87.0273 39.9219 86.9492 40.1094 86.793 40.2656C86.6367 40.4219 86.4492 40.5 86.2305 40.5ZM91.3867 48.123C90.7695 48.123 90.2363 47.9902 89.7871 47.7246C89.3418 47.4551 88.998 47.0723 88.7559 46.5762C88.5137 46.0801 88.3926 45.4883 88.3926 44.8008V44.7891C88.3926 44.1133 88.5117 43.5312 88.75 43.043C88.9922 42.5547 89.3359 42.1777 89.7812 41.9121C90.2305 41.6465 90.7637 41.5137 91.3809 41.5137C91.916 41.5137 92.375 41.6074 92.7578 41.7949C93.1445 41.9785 93.4512 42.2324 93.6777 42.5566C93.9082 42.877 94.0527 43.2422 94.1113 43.6523L94.1172 43.6816H92.8926L92.8867 43.6699C92.8164 43.3574 92.6543 43.0977 92.4004 42.8906C92.1465 42.6797 91.8086 42.5742 91.3867 42.5742C91.0352 42.5742 90.7324 42.6641 90.4785 42.8438C90.2246 43.0195 90.0293 43.2734 89.8926 43.6055C89.7598 43.9375 89.6934 44.332 89.6934 44.7891V44.8008C89.6934 45.2695 89.7617 45.6719 89.8984 46.0078C90.0352 46.3438 90.2305 46.6035 90.4844 46.7871C90.7383 46.9668 91.0391 47.0566 91.3867 47.0566C91.7852 47.0566 92.1074 46.9688 92.3535 46.793C92.6035 46.6172 92.7793 46.3574 92.8809 46.0137L92.8926 45.9844L94.1113 45.9785L94.0996 46.0312C94.0254 46.4453 93.875 46.8086 93.6484 47.1211C93.4219 47.4336 93.1191 47.6797 92.7402 47.8594C92.3652 48.0352 91.9141 48.123 91.3867 48.123ZM98.2246 48.123C97.6035 48.123 97.0703 47.9902 96.625 47.7246C96.1797 47.4551 95.8359 47.0742 95.5938 46.582C95.3555 46.0898 95.2363 45.5078 95.2363 44.8359V44.8301C95.2363 44.166 95.3555 43.5859 95.5938 43.0898C95.8359 42.5938 96.1758 42.207 96.6133 41.9297C97.0547 41.6523 97.5703 41.5137 98.1602 41.5137C98.7539 41.5137 99.2637 41.6465 99.6895 41.9121C100.119 42.1777 100.449 42.5508 100.68 43.0312C100.91 43.5078 101.025 44.0664 101.025 44.707V45.1523H95.8809V44.2441H100.393L99.7832 45.0879V44.5781C99.7832 44.125 99.7129 43.75 99.5723 43.4531C99.4355 43.1523 99.2461 42.9277 99.0039 42.7793C98.7617 42.6309 98.4824 42.5566 98.166 42.5566C97.8496 42.5566 97.5664 42.6348 97.3164 42.791C97.0703 42.9434 96.875 43.1699 96.7305 43.4707C96.5898 43.7715 96.5195 44.1406 96.5195 44.5781V45.0879C96.5195 45.5059 96.5898 45.8633 96.7305 46.1602C96.8711 46.457 97.0703 46.6836 97.3281 46.8398C97.5898 46.9961 97.8984 47.0742 98.2539 47.0742C98.5273 47.0742 98.7617 47.0371 98.957 46.9629C99.1562 46.8848 99.3184 46.7891 99.4434 46.6758C99.5723 46.5625 99.6602 46.4512 99.707 46.3418L99.7305 46.2949H100.961L100.949 46.3477C100.895 46.5586 100.799 46.7695 100.662 46.9805C100.525 47.1875 100.344 47.377 100.117 47.5488C99.8945 47.7207 99.625 47.8594 99.3086 47.9648C98.9961 48.0703 98.6348 48.123 98.2246 48.123Z" fill="#6A7587"/>
<path d="M63.7422 23V8.98438H63.6484L59.3125 11.9727V9.19531L63.7305 6.08984H66.7188V23H63.7422ZM69.8594 23L73.9023 16.7773L69.8945 10.5078H73.1875L75.6953 14.8906H75.7773L78.2734 10.5078H81.4609L77.4414 16.6836L81.4375 23H78.2383L75.6484 18.5469H75.5547L72.9766 23H69.8594Z" fill="var(--r-neutral-title1, #192945)"/>
<g clip-path="url(#clip1_130850_45233)">
<rect x="140" y="148" width="32" height="140" rx="2" transform="rotate(90 140 148)" fill="#E34935" fill-opacity="0.2"/>
<path d="M30.6094 168V159.545H31.9219V166.863H35.8887V168H30.6094ZM37.418 168V161.637H38.6953V168H37.418ZM38.0625 160.5C37.8438 160.5 37.6562 160.422 37.5 160.266C37.3438 160.109 37.2656 159.922 37.2656 159.703C37.2656 159.484 37.3438 159.299 37.5 159.146C37.6562 158.99 37.8438 158.912 38.0625 158.912C38.2812 158.912 38.4688 158.99 38.625 159.146C38.7812 159.299 38.8594 159.484 38.8594 159.703C38.8594 159.922 38.7812 160.109 38.625 160.266C38.4688 160.422 38.2812 160.5 38.0625 160.5ZM44.9297 170.121V167.039H44.8301C44.7207 167.262 44.5684 167.453 44.373 167.613C44.1816 167.773 43.959 167.896 43.7051 167.982C43.4512 168.064 43.1719 168.105 42.8672 168.105C42.332 168.105 41.8652 167.973 41.4668 167.707C41.0723 167.438 40.7676 167.057 40.5527 166.564C40.3379 166.072 40.2305 165.492 40.2305 164.824V164.812C40.2305 164.141 40.3379 163.559 40.5527 163.066C40.7676 162.574 41.0723 162.195 41.4668 161.93C41.8652 161.66 42.3359 161.525 42.8789 161.525C43.1641 161.525 43.4316 161.572 43.6816 161.666C43.9355 161.76 44.1621 161.895 44.3613 162.07C44.5645 162.242 44.7285 162.449 44.8535 162.691H44.9297V161.637H46.2012V170.121H44.9297ZM43.2363 167.016C43.5879 167.016 43.8906 166.928 44.1445 166.752C44.4023 166.572 44.6016 166.318 44.7422 165.99C44.8828 165.662 44.9531 165.273 44.9531 164.824V164.812C44.9531 164.359 44.8828 163.969 44.7422 163.641C44.6016 163.312 44.4023 163.061 44.1445 162.885C43.8906 162.705 43.5859 162.615 43.2305 162.615C42.8789 162.615 42.5742 162.705 42.3164 162.885C42.0625 163.061 41.8672 163.312 41.7305 163.641C41.5938 163.965 41.5254 164.355 41.5254 164.812V164.824C41.5254 165.277 41.5938 165.668 41.7305 165.996C41.8711 166.324 42.0684 166.576 42.3223 166.752C42.5762 166.928 42.8809 167.016 43.2363 167.016ZM50.1504 168.123C49.6738 168.123 49.2715 168.031 48.9434 167.848C48.6191 167.66 48.375 167.391 48.2109 167.039C48.0508 166.684 47.9707 166.256 47.9707 165.756V161.637H49.2422V165.457C49.2422 165.98 49.3457 166.373 49.5527 166.635C49.7598 166.896 50.0977 167.027 50.5664 167.027C50.8164 167.027 51.0391 166.99 51.2344 166.916C51.4297 166.838 51.5938 166.727 51.7266 166.582C51.8594 166.438 51.957 166.264 52.0195 166.061C52.0859 165.857 52.1191 165.627 52.1191 165.369V161.637H53.3965V168H52.1191V167.039H52.0254C51.9238 167.266 51.7852 167.461 51.6094 167.625C51.4336 167.785 51.2227 167.908 50.9766 167.994C50.7344 168.08 50.459 168.123 50.1504 168.123ZM55.2422 168V161.637H56.5195V168H55.2422ZM55.8867 160.5C55.668 160.5 55.4805 160.422 55.3242 160.266C55.168 160.109 55.0898 159.922 55.0898 159.703C55.0898 159.484 55.168 159.299 55.3242 159.146C55.4805 158.99 55.668 158.912 55.8867 158.912C56.1055 158.912 56.293 158.99 56.4492 159.146C56.6055 159.299 56.6836 159.484 56.6836 159.703C56.6836 159.922 56.6055 160.109 56.4492 160.266C56.293 160.422 56.1055 160.5 55.8867 160.5ZM60.6855 168.105C60.1543 168.105 59.6895 167.973 59.291 167.707C58.8965 167.438 58.5898 167.057 58.3711 166.564C58.1562 166.072 58.0488 165.492 58.0488 164.824V164.812C58.0488 164.141 58.1562 163.559 58.3711 163.066C58.5859 162.574 58.8906 162.195 59.2852 161.93C59.6797 161.66 60.1465 161.525 60.6855 161.525C60.9785 161.525 61.252 161.572 61.5059 161.666C61.7598 161.756 61.9844 161.885 62.1797 162.053C62.375 162.217 62.5293 162.414 62.6426 162.645H62.7363V159.141H64.0137V168H62.7363V166.998H62.6426C62.5176 167.229 62.3594 167.428 62.168 167.596C61.9766 167.76 61.7559 167.887 61.5059 167.977C61.2559 168.062 60.9824 168.105 60.6855 168.105ZM61.0488 167.016C61.4004 167.016 61.7051 166.928 61.9629 166.752C62.2207 166.576 62.418 166.324 62.5547 165.996C62.6914 165.664 62.7598 165.273 62.7598 164.824V164.812C62.7598 164.359 62.6895 163.969 62.5488 163.641C62.4121 163.312 62.2148 163.061 61.957 162.885C61.7031 162.705 61.4004 162.615 61.0488 162.615C60.6973 162.615 60.3926 162.705 60.1348 162.885C59.8809 163.061 59.6855 163.312 59.5488 163.641C59.416 163.965 59.3496 164.355 59.3496 164.812V164.824C59.3496 165.277 59.416 165.668 59.5488 165.996C59.6855 166.324 59.8809 166.576 60.1348 166.752C60.3926 166.928 60.6973 167.016 61.0488 167.016ZM67.6465 168.105C67.2441 168.105 66.8828 168.029 66.5625 167.877C66.2461 167.721 65.9961 167.5 65.8125 167.215C65.6289 166.93 65.5371 166.596 65.5371 166.213V166.201C65.5371 165.818 65.6289 165.492 65.8125 165.223C66 164.953 66.2695 164.742 66.6211 164.59C66.9766 164.434 67.4062 164.34 67.9102 164.309L70.2598 164.168V165.064L68.0859 165.205C67.6484 165.232 67.3262 165.326 67.1191 165.486C66.9121 165.643 66.8086 165.863 66.8086 166.148V166.16C66.8086 166.449 66.9199 166.678 67.1426 166.846C67.3652 167.01 67.6465 167.092 67.9863 167.092C68.3027 167.092 68.584 167.029 68.8301 166.904C69.0801 166.775 69.2754 166.604 69.416 166.389C69.5566 166.17 69.627 165.924 69.627 165.65V163.646C69.627 163.295 69.5176 163.027 69.2988 162.844C69.084 162.656 68.7637 162.562 68.3379 162.562C67.9824 162.562 67.6914 162.625 67.4648 162.75C67.2422 162.875 67.0938 163.051 67.0195 163.277L67.0078 163.295H65.7832L65.7891 163.254C65.8398 162.902 65.9785 162.598 66.2051 162.34C66.4355 162.078 66.7363 161.875 67.1074 161.73C67.4824 161.586 67.9102 161.514 68.3906 161.514C68.9258 161.514 69.3789 161.6 69.75 161.771C70.125 161.939 70.4082 162.184 70.5996 162.504C70.7949 162.82 70.8926 163.201 70.8926 163.646V168H69.627V167.098H69.5332C69.4082 167.312 69.252 167.496 69.0645 167.648C68.877 167.797 68.6641 167.91 68.4258 167.988C68.1875 168.066 67.9277 168.105 67.6465 168.105ZM75.0879 168.041C74.3926 168.041 73.8887 167.908 73.5762 167.643C73.2676 167.373 73.1133 166.934 73.1133 166.324V162.639H72.1172V161.637H73.1133V160.031H74.4141V161.637H75.7793V162.639H74.4141V166.014C74.4141 166.357 74.4824 166.605 74.6191 166.758C74.7559 166.906 74.9824 166.98 75.2988 166.98C75.3926 166.98 75.4727 166.979 75.5391 166.975C75.6094 166.971 75.6895 166.965 75.7793 166.957V167.977C75.6777 167.992 75.5684 168.006 75.4512 168.018C75.334 168.033 75.2129 168.041 75.0879 168.041ZM77.2852 168V161.637H78.5625V168H77.2852ZM77.9297 160.5C77.7109 160.5 77.5234 160.422 77.3672 160.266C77.2109 160.109 77.1328 159.922 77.1328 159.703C77.1328 159.484 77.2109 159.299 77.3672 159.146C77.5234 158.99 77.7109 158.912 77.9297 158.912C78.1484 158.912 78.3359 158.99 78.4922 159.146C78.6484 159.299 78.7266 159.484 78.7266 159.703C78.7266 159.922 78.6484 160.109 78.4922 160.266C78.3359 160.422 78.1484 160.5 77.9297 160.5ZM83.1035 168.123C82.4824 168.123 81.9453 167.99 81.4922 167.725C81.043 167.459 80.6973 167.08 80.4551 166.588C80.2129 166.092 80.0918 165.504 80.0918 164.824V164.812C80.0918 164.129 80.2129 163.541 80.4551 163.049C80.7012 162.557 81.0488 162.178 81.498 161.912C81.9512 161.646 82.4863 161.514 83.1035 161.514C83.7246 161.514 84.2598 161.646 84.709 161.912C85.1582 162.174 85.5039 162.553 85.7461 163.049C85.9922 163.541 86.1152 164.129 86.1152 164.812V164.824C86.1152 165.504 85.9922 166.092 85.7461 166.588C85.5039 167.08 85.1582 167.459 84.709 167.725C84.2637 167.99 83.7285 168.123 83.1035 168.123ZM83.1035 167.057C83.4668 167.057 83.7754 166.969 84.0293 166.793C84.2832 166.613 84.4766 166.357 84.6094 166.025C84.7422 165.693 84.8086 165.293 84.8086 164.824V164.812C84.8086 164.34 84.7422 163.938 84.6094 163.605C84.4766 163.273 84.2832 163.02 84.0293 162.844C83.7754 162.664 83.4668 162.574 83.1035 162.574C82.7402 162.574 82.4316 162.664 82.1777 162.844C81.9238 163.02 81.7285 163.273 81.5918 163.605C81.459 163.938 81.3926 164.34 81.3926 164.812V164.824C81.3926 165.293 81.459 165.693 81.5918 166.025C81.7285 166.357 81.9238 166.613 82.1777 166.793C82.4316 166.969 82.7402 167.057 83.1035 167.057ZM87.627 168V161.637H88.8984V162.598H88.998C89.1543 162.258 89.3848 161.992 89.6895 161.801C89.9941 161.609 90.3789 161.514 90.8438 161.514C91.5586 161.514 92.1055 161.719 92.4844 162.129C92.8633 162.539 93.0527 163.123 93.0527 163.881V168H91.7754V164.18C91.7754 163.648 91.6641 163.254 91.4414 162.996C91.2227 162.734 90.8789 162.604 90.4102 162.604C90.1016 162.604 89.834 162.672 89.6074 162.809C89.3809 162.941 89.2051 163.133 89.0801 163.383C88.959 163.629 88.8984 163.924 88.8984 164.268V168H87.627ZM98.0918 170.121V161.637H99.3633V162.639H99.4629C99.584 162.404 99.7402 162.205 99.9316 162.041C100.127 161.877 100.35 161.75 100.6 161.66C100.85 161.57 101.123 161.525 101.42 161.525C101.955 161.525 102.42 161.662 102.814 161.936C103.209 162.205 103.514 162.586 103.729 163.078C103.947 163.566 104.057 164.145 104.057 164.812V164.824C104.057 165.496 103.949 166.078 103.734 166.57C103.52 167.059 103.215 167.438 102.82 167.707C102.426 167.973 101.959 168.105 101.42 168.105C101.127 168.105 100.854 168.061 100.6 167.971C100.346 167.877 100.121 167.748 99.9258 167.584C99.7305 167.42 99.5762 167.223 99.4629 166.992H99.3633V170.121H98.0918ZM101.057 167.016C101.412 167.016 101.717 166.928 101.971 166.752C102.225 166.576 102.418 166.324 102.551 165.996C102.688 165.668 102.756 165.277 102.756 164.824V164.812C102.756 164.355 102.688 163.963 102.551 163.635C102.418 163.307 102.225 163.055 101.971 162.879C101.717 162.703 101.412 162.615 101.057 162.615C100.705 162.615 100.4 162.705 100.143 162.885C99.8848 163.061 99.6875 163.312 99.5508 163.641C99.4141 163.965 99.3457 164.355 99.3457 164.812V164.824C99.3457 165.273 99.4141 165.662 99.5508 165.99C99.6875 166.318 99.8848 166.572 100.143 166.752C100.4 166.928 100.705 167.016 101.057 167.016ZM105.58 168V161.637H106.852V162.598H106.951C107.064 162.258 107.264 161.994 107.549 161.807C107.838 161.619 108.193 161.525 108.615 161.525C108.721 161.525 108.824 161.531 108.926 161.543C109.027 161.555 109.109 161.568 109.172 161.584V162.756C109.059 162.732 108.945 162.715 108.832 162.703C108.723 162.691 108.607 162.686 108.486 162.686C108.162 162.686 107.877 162.748 107.631 162.873C107.389 162.998 107.197 163.174 107.057 163.4C106.92 163.623 106.852 163.889 106.852 164.197V168H105.58ZM110.414 168V161.637H111.691V168H110.414ZM111.059 160.5C110.84 160.5 110.652 160.422 110.496 160.266C110.34 160.109 110.262 159.922 110.262 159.703C110.262 159.484 110.34 159.299 110.496 159.146C110.652 158.99 110.84 158.912 111.059 158.912C111.277 158.912 111.465 158.99 111.621 159.146C111.777 159.299 111.855 159.484 111.855 159.703C111.855 159.922 111.777 160.109 111.621 160.266C111.465 160.422 111.277 160.5 111.059 160.5ZM116.215 168.123C115.598 168.123 115.064 167.99 114.615 167.725C114.17 167.455 113.826 167.072 113.584 166.576C113.342 166.08 113.221 165.488 113.221 164.801V164.789C113.221 164.113 113.34 163.531 113.578 163.043C113.82 162.555 114.164 162.178 114.609 161.912C115.059 161.646 115.592 161.514 116.209 161.514C116.744 161.514 117.203 161.607 117.586 161.795C117.973 161.979 118.279 162.232 118.506 162.557C118.736 162.877 118.881 163.242 118.939 163.652L118.945 163.682H117.721L117.715 163.67C117.645 163.357 117.482 163.098 117.229 162.891C116.975 162.68 116.637 162.574 116.215 162.574C115.863 162.574 115.561 162.664 115.307 162.844C115.053 163.02 114.857 163.273 114.721 163.605C114.588 163.938 114.521 164.332 114.521 164.789V164.801C114.521 165.27 114.59 165.672 114.727 166.008C114.863 166.344 115.059 166.604 115.312 166.787C115.566 166.967 115.867 167.057 116.215 167.057C116.613 167.057 116.936 166.969 117.182 166.793C117.432 166.617 117.607 166.357 117.709 166.014L117.721 165.984L118.939 165.979L118.928 166.031C118.854 166.445 118.703 166.809 118.477 167.121C118.25 167.434 117.947 167.68 117.568 167.859C117.193 168.035 116.742 168.123 116.215 168.123ZM123.053 168.123C122.432 168.123 121.898 167.99 121.453 167.725C121.008 167.455 120.664 167.074 120.422 166.582C120.184 166.09 120.064 165.508 120.064 164.836V164.83C120.064 164.166 120.184 163.586 120.422 163.09C120.664 162.594 121.004 162.207 121.441 161.93C121.883 161.652 122.398 161.514 122.988 161.514C123.582 161.514 124.092 161.646 124.518 161.912C124.947 162.178 125.277 162.551 125.508 163.031C125.738 163.508 125.854 164.066 125.854 164.707V165.152H120.709V164.244H125.221L124.611 165.088V164.578C124.611 164.125 124.541 163.75 124.4 163.453C124.264 163.152 124.074 162.928 123.832 162.779C123.59 162.631 123.311 162.557 122.994 162.557C122.678 162.557 122.395 162.635 122.145 162.791C121.898 162.943 121.703 163.17 121.559 163.471C121.418 163.771 121.348 164.141 121.348 164.578V165.088C121.348 165.506 121.418 165.863 121.559 166.16C121.699 166.457 121.898 166.684 122.156 166.84C122.418 166.996 122.727 167.074 123.082 167.074C123.355 167.074 123.59 167.037 123.785 166.963C123.984 166.885 124.146 166.789 124.271 166.676C124.4 166.562 124.488 166.451 124.535 166.342L124.559 166.295H125.789L125.777 166.348C125.723 166.559 125.627 166.77 125.49 166.98C125.354 167.188 125.172 167.377 124.945 167.549C124.723 167.721 124.453 167.859 124.137 167.965C123.824 168.07 123.463 168.123 123.053 168.123Z" fill="#E34935"/>
<g clip-path="url(#clip2_130850_45233)">
<path d="M21.2892 159.2L26.0722 167.505C26.4074 168.09 25.9743 168.812 25.2841 168.812H15.7182C15.028 168.812 14.5949 168.09 14.9301 167.505L19.7131 159.2C20.0576 158.6 20.9447 158.6 21.2892 159.2Z" stroke="#E34935" stroke-width="0.875" stroke-linecap="round" stroke-linejoin="round"/>
<path d="M20.5 164.875V162.688" stroke="#E34935" stroke-width="0.875" stroke-linecap="round" stroke-linejoin="round"/>
<path d="M20.5 167.5C20.8624 167.5 21.1562 167.206 21.1562 166.844C21.1562 166.481 20.8624 166.188 20.5 166.188C20.1376 166.188 19.8438 166.481 19.8438 166.844C19.8438 167.206 20.1376 167.5 20.5 167.5Z" fill="#E34935"/>
</g>
</g>
<rect x="336" y="55" width="4.00001" height="140" rx="2" transform="rotate(90 336 55)" fill="#6A7587"/>
<g clip-path="url(#clip3_130850_45233)">
<rect x="336" y="76" width="104" height="140" rx="2" transform="rotate(90 336 76)" fill="#E34935" fill-opacity="0.2"/>
<path d="M226.609 132V123.545H227.922V130.863H231.889V132H226.609ZM233.418 132V125.637H234.695V132H233.418ZM234.062 124.5C233.844 124.5 233.656 124.422 233.5 124.266C233.344 124.109 233.266 123.922 233.266 123.703C233.266 123.484 233.344 123.299 233.5 123.146C233.656 122.99 233.844 122.912 234.062 122.912C234.281 122.912 234.469 122.99 234.625 123.146C234.781 123.299 234.859 123.484 234.859 123.703C234.859 123.922 234.781 124.109 234.625 124.266C234.469 124.422 234.281 124.5 234.062 124.5ZM240.93 134.121V131.039H240.83C240.721 131.262 240.568 131.453 240.373 131.613C240.182 131.773 239.959 131.896 239.705 131.982C239.451 132.064 239.172 132.105 238.867 132.105C238.332 132.105 237.865 131.973 237.467 131.707C237.072 131.438 236.768 131.057 236.553 130.564C236.338 130.072 236.23 129.492 236.23 128.824V128.812C236.23 128.141 236.338 127.559 236.553 127.066C236.768 126.574 237.072 126.195 237.467 125.93C237.865 125.66 238.336 125.525 238.879 125.525C239.164 125.525 239.432 125.572 239.682 125.666C239.936 125.76 240.162 125.895 240.361 126.07C240.564 126.242 240.729 126.449 240.854 126.691H240.93V125.637H242.201V134.121H240.93ZM239.236 131.016C239.588 131.016 239.891 130.928 240.145 130.752C240.402 130.572 240.602 130.318 240.742 129.99C240.883 129.662 240.953 129.273 240.953 128.824V128.812C240.953 128.359 240.883 127.969 240.742 127.641C240.602 127.312 240.402 127.061 240.145 126.885C239.891 126.705 239.586 126.615 239.23 126.615C238.879 126.615 238.574 126.705 238.316 126.885C238.062 127.061 237.867 127.312 237.73 127.641C237.594 127.965 237.525 128.355 237.525 128.812V128.824C237.525 129.277 237.594 129.668 237.73 129.996C237.871 130.324 238.068 130.576 238.322 130.752C238.576 130.928 238.881 131.016 239.236 131.016ZM246.15 132.123C245.674 132.123 245.271 132.031 244.943 131.848C244.619 131.66 244.375 131.391 244.211 131.039C244.051 130.684 243.971 130.256 243.971 129.756V125.637H245.242V129.457C245.242 129.98 245.346 130.373 245.553 130.635C245.76 130.896 246.098 131.027 246.566 131.027C246.816 131.027 247.039 130.99 247.234 130.916C247.43 130.838 247.594 130.727 247.727 130.582C247.859 130.438 247.957 130.264 248.02 130.061C248.086 129.857 248.119 129.627 248.119 129.369V125.637H249.396V132H248.119V131.039H248.025C247.924 131.266 247.785 131.461 247.609 131.625C247.434 131.785 247.223 131.908 246.977 131.994C246.734 132.08 246.459 132.123 246.15 132.123ZM251.242 132V125.637H252.52V132H251.242ZM251.887 124.5C251.668 124.5 251.48 124.422 251.324 124.266C251.168 124.109 251.09 123.922 251.09 123.703C251.09 123.484 251.168 123.299 251.324 123.146C251.48 122.99 251.668 122.912 251.887 122.912C252.105 122.912 252.293 122.99 252.449 123.146C252.605 123.299 252.684 123.484 252.684 123.703C252.684 123.922 252.605 124.109 252.449 124.266C252.293 124.422 252.105 124.5 251.887 124.5ZM256.686 132.105C256.154 132.105 255.689 131.973 255.291 131.707C254.896 131.438 254.59 131.057 254.371 130.564C254.156 130.072 254.049 129.492 254.049 128.824V128.812C254.049 128.141 254.156 127.559 254.371 127.066C254.586 126.574 254.891 126.195 255.285 125.93C255.68 125.66 256.146 125.525 256.686 125.525C256.979 125.525 257.252 125.572 257.506 125.666C257.76 125.756 257.984 125.885 258.18 126.053C258.375 126.217 258.529 126.414 258.643 126.645H258.736V123.141H260.014V132H258.736V130.998H258.643C258.518 131.229 258.359 131.428 258.168 131.596C257.977 131.76 257.756 131.887 257.506 131.977C257.256 132.062 256.982 132.105 256.686 132.105ZM257.049 131.016C257.4 131.016 257.705 130.928 257.963 130.752C258.221 130.576 258.418 130.324 258.555 129.996C258.691 129.664 258.76 129.273 258.76 128.824V128.812C258.76 128.359 258.689 127.969 258.549 127.641C258.412 127.312 258.215 127.061 257.957 126.885C257.703 126.705 257.4 126.615 257.049 126.615C256.697 126.615 256.393 126.705 256.135 126.885C255.881 127.061 255.686 127.312 255.549 127.641C255.416 127.965 255.35 128.355 255.35 128.812V128.824C255.35 129.277 255.416 129.668 255.549 129.996C255.686 130.324 255.881 130.576 256.135 130.752C256.393 130.928 256.697 131.016 257.049 131.016ZM263.646 132.105C263.244 132.105 262.883 132.029 262.562 131.877C262.246 131.721 261.996 131.5 261.812 131.215C261.629 130.93 261.537 130.596 261.537 130.213V130.201C261.537 129.818 261.629 129.492 261.812 129.223C262 128.953 262.27 128.742 262.621 128.59C262.977 128.434 263.406 128.34 263.91 128.309L266.26 128.168V129.064L264.086 129.205C263.648 129.232 263.326 129.326 263.119 129.486C262.912 129.643 262.809 129.863 262.809 130.148V130.16C262.809 130.449 262.92 130.678 263.143 130.846C263.365 131.01 263.646 131.092 263.986 131.092C264.303 131.092 264.584 131.029 264.83 130.904C265.08 130.775 265.275 130.604 265.416 130.389C265.557 130.17 265.627 129.924 265.627 129.65V127.646C265.627 127.295 265.518 127.027 265.299 126.844C265.084 126.656 264.764 126.562 264.338 126.562C263.982 126.562 263.691 126.625 263.465 126.75C263.242 126.875 263.094 127.051 263.02 127.277L263.008 127.295H261.783L261.789 127.254C261.84 126.902 261.979 126.598 262.205 126.34C262.436 126.078 262.736 125.875 263.107 125.73C263.482 125.586 263.91 125.514 264.391 125.514C264.926 125.514 265.379 125.6 265.75 125.771C266.125 125.939 266.408 126.184 266.6 126.504C266.795 126.82 266.893 127.201 266.893 127.646V132H265.627V131.098H265.533C265.408 131.312 265.252 131.496 265.064 131.648C264.877 131.797 264.664 131.91 264.426 131.988C264.188 132.066 263.928 132.105 263.646 132.105ZM271.088 132.041C270.393 132.041 269.889 131.908 269.576 131.643C269.268 131.373 269.113 130.934 269.113 130.324V126.639H268.117V125.637H269.113V124.031H270.414V125.637H271.779V126.639H270.414V130.014C270.414 130.357 270.482 130.605 270.619 130.758C270.756 130.906 270.982 130.98 271.299 130.98C271.393 130.98 271.473 130.979 271.539 130.975C271.609 130.971 271.689 130.965 271.779 130.957V131.977C271.678 131.992 271.568 132.006 271.451 132.018C271.334 132.033 271.213 132.041 271.088 132.041ZM273.285 132V125.637H274.562V132H273.285ZM273.93 124.5C273.711 124.5 273.523 124.422 273.367 124.266C273.211 124.109 273.133 123.922 273.133 123.703C273.133 123.484 273.211 123.299 273.367 123.146C273.523 122.99 273.711 122.912 273.93 122.912C274.148 122.912 274.336 122.99 274.492 123.146C274.648 123.299 274.727 123.484 274.727 123.703C274.727 123.922 274.648 124.109 274.492 124.266C274.336 124.422 274.148 124.5 273.93 124.5ZM279.104 132.123C278.482 132.123 277.945 131.99 277.492 131.725C277.043 131.459 276.697 131.08 276.455 130.588C276.213 130.092 276.092 129.504 276.092 128.824V128.812C276.092 128.129 276.213 127.541 276.455 127.049C276.701 126.557 277.049 126.178 277.498 125.912C277.951 125.646 278.486 125.514 279.104 125.514C279.725 125.514 280.26 125.646 280.709 125.912C281.158 126.174 281.504 126.553 281.746 127.049C281.992 127.541 282.115 128.129 282.115 128.812V128.824C282.115 129.504 281.992 130.092 281.746 130.588C281.504 131.08 281.158 131.459 280.709 131.725C280.264 131.99 279.729 132.123 279.104 132.123ZM279.104 131.057C279.467 131.057 279.775 130.969 280.029 130.793C280.283 130.613 280.477 130.357 280.609 130.025C280.742 129.693 280.809 129.293 280.809 128.824V128.812C280.809 128.34 280.742 127.938 280.609 127.605C280.477 127.273 280.283 127.02 280.029 126.844C279.775 126.664 279.467 126.574 279.104 126.574C278.74 126.574 278.432 126.664 278.178 126.844C277.924 127.02 277.729 127.273 277.592 127.605C277.459 127.938 277.393 128.34 277.393 128.812V128.824C277.393 129.293 277.459 129.693 277.592 130.025C277.729 130.357 277.924 130.613 278.178 130.793C278.432 130.969 278.74 131.057 279.104 131.057ZM283.627 132V125.637H284.898V126.598H284.998C285.154 126.258 285.385 125.992 285.689 125.801C285.994 125.609 286.379 125.514 286.844 125.514C287.559 125.514 288.105 125.719 288.484 126.129C288.863 126.539 289.053 127.123 289.053 127.881V132H287.775V128.18C287.775 127.648 287.664 127.254 287.441 126.996C287.223 126.734 286.879 126.604 286.41 126.604C286.102 126.604 285.834 126.672 285.607 126.809C285.381 126.941 285.205 127.133 285.08 127.383C284.959 127.629 284.898 127.924 284.898 128.268V132H283.627ZM294.092 134.121V125.637H295.363V126.639H295.463C295.584 126.404 295.74 126.205 295.932 126.041C296.127 125.877 296.35 125.75 296.6 125.66C296.85 125.57 297.123 125.525 297.42 125.525C297.955 125.525 298.42 125.662 298.814 125.936C299.209 126.205 299.514 126.586 299.729 127.078C299.947 127.566 300.057 128.145 300.057 128.812V128.824C300.057 129.496 299.949 130.078 299.734 130.57C299.52 131.059 299.215 131.438 298.82 131.707C298.426 131.973 297.959 132.105 297.42 132.105C297.127 132.105 296.854 132.061 296.6 131.971C296.346 131.877 296.121 131.748 295.926 131.584C295.73 131.42 295.576 131.223 295.463 130.992H295.363V134.121H294.092ZM297.057 131.016C297.412 131.016 297.717 130.928 297.971 130.752C298.225 130.576 298.418 130.324 298.551 129.996C298.688 129.668 298.756 129.277 298.756 128.824V128.812C298.756 128.355 298.688 127.963 298.551 127.635C298.418 127.307 298.225 127.055 297.971 126.879C297.717 126.703 297.412 126.615 297.057 126.615C296.705 126.615 296.4 126.705 296.143 126.885C295.885 127.061 295.688 127.312 295.551 127.641C295.414 127.965 295.346 128.355 295.346 128.812V128.824C295.346 129.273 295.414 129.662 295.551 129.99C295.688 130.318 295.885 130.572 296.143 130.752C296.4 130.928 296.705 131.016 297.057 131.016ZM301.58 132V125.637H302.852V126.598H302.951C303.064 126.258 303.264 125.994 303.549 125.807C303.838 125.619 304.193 125.525 304.615 125.525C304.721 125.525 304.824 125.531 304.926 125.543C305.027 125.555 305.109 125.568 305.172 125.584V126.756C305.059 126.732 304.945 126.715 304.832 126.703C304.723 126.691 304.607 126.686 304.486 126.686C304.162 126.686 303.877 126.748 303.631 126.873C303.389 126.998 303.197 127.174 303.057 127.4C302.92 127.623 302.852 127.889 302.852 128.197V132H301.58ZM306.414 132V125.637H307.691V132H306.414ZM307.059 124.5C306.84 124.5 306.652 124.422 306.496 124.266C306.34 124.109 306.262 123.922 306.262 123.703C306.262 123.484 306.34 123.299 306.496 123.146C306.652 122.99 306.84 122.912 307.059 122.912C307.277 122.912 307.465 122.99 307.621 123.146C307.777 123.299 307.855 123.484 307.855 123.703C307.855 123.922 307.777 124.109 307.621 124.266C307.465 124.422 307.277 124.5 307.059 124.5ZM312.215 132.123C311.598 132.123 311.064 131.99 310.615 131.725C310.17 131.455 309.826 131.072 309.584 130.576C309.342 130.08 309.221 129.488 309.221 128.801V128.789C309.221 128.113 309.34 127.531 309.578 127.043C309.82 126.555 310.164 126.178 310.609 125.912C311.059 125.646 311.592 125.514 312.209 125.514C312.744 125.514 313.203 125.607 313.586 125.795C313.973 125.979 314.279 126.232 314.506 126.557C314.736 126.877 314.881 127.242 314.939 127.652L314.945 127.682H313.721L313.715 127.67C313.645 127.357 313.482 127.098 313.229 126.891C312.975 126.68 312.637 126.574 312.215 126.574C311.863 126.574 311.561 126.664 311.307 126.844C311.053 127.02 310.857 127.273 310.721 127.605C310.588 127.938 310.521 128.332 310.521 128.789V128.801C310.521 129.27 310.59 129.672 310.727 130.008C310.863 130.344 311.059 130.604 311.312 130.787C311.566 130.967 311.867 131.057 312.215 131.057C312.613 131.057 312.936 130.969 313.182 130.793C313.432 130.617 313.607 130.357 313.709 130.014L313.721 129.984L314.939 129.979L314.928 130.031C314.854 130.445 314.703 130.809 314.477 131.121C314.25 131.434 313.947 131.68 313.568 131.859C313.193 132.035 312.742 132.123 312.215 132.123ZM319.053 132.123C318.432 132.123 317.898 131.99 317.453 131.725C317.008 131.455 316.664 131.074 316.422 130.582C316.184 130.09 316.064 129.508 316.064 128.836V128.83C316.064 128.166 316.184 127.586 316.422 127.09C316.664 126.594 317.004 126.207 317.441 125.93C317.883 125.652 318.398 125.514 318.988 125.514C319.582 125.514 320.092 125.646 320.518 125.912C320.947 126.178 321.277 126.551 321.508 127.031C321.738 127.508 321.854 128.066 321.854 128.707V129.152H316.709V128.244H321.221L320.611 129.088V128.578C320.611 128.125 320.541 127.75 320.4 127.453C320.264 127.152 320.074 126.928 319.832 126.779C319.59 126.631 319.311 126.557 318.994 126.557C318.678 126.557 318.395 126.635 318.145 126.791C317.898 126.943 317.703 127.17 317.559 127.471C317.418 127.771 317.348 128.141 317.348 128.578V129.088C317.348 129.506 317.418 129.863 317.559 130.16C317.699 130.457 317.898 130.684 318.156 130.84C318.418 130.996 318.727 131.074 319.082 131.074C319.355 131.074 319.59 131.037 319.785 130.963C319.984 130.885 320.146 130.789 320.271 130.676C320.4 130.562 320.488 130.451 320.535 130.342L320.559 130.295H321.789L321.777 130.348C321.723 130.559 321.627 130.77 321.49 130.98C321.354 131.188 321.172 131.377 320.945 131.549C320.723 131.721 320.453 131.859 320.137 131.965C319.824 132.07 319.463 132.123 319.053 132.123Z" fill="#E34935"/>
<g clip-path="url(#clip4_130850_45233)">
<path d="M217.289 123.2L222.072 131.505C222.407 132.09 221.974 132.812 221.284 132.812H211.718C211.028 132.812 210.595 132.09 210.93 131.505L215.713 123.2C216.058 122.6 216.945 122.6 217.289 123.2Z" stroke="#E34935" stroke-width="0.875" stroke-linecap="round" stroke-linejoin="round"/>
<path d="M216.5 128.875V126.688" stroke="#E34935" stroke-width="0.875" stroke-linecap="round" stroke-linejoin="round"/>
<path d="M216.5 131.5C216.862 131.5 217.156 131.206 217.156 130.844C217.156 130.481 216.862 130.188 216.5 130.188C216.138 130.188 215.844 130.481 215.844 130.844C215.844 131.206 216.138 131.5 216.5 131.5Z" fill="#E34935"/>
</g>
</g>
<path d="M235.438 48V39.5449H240.805V40.6816H236.75V43.1484H240.588V44.2383H236.75V46.8633H240.805V48H235.438ZM242.557 48V41.6367H243.828V42.5977H243.928C244.084 42.2578 244.314 41.9922 244.619 41.8008C244.924 41.6094 245.309 41.5137 245.773 41.5137C246.488 41.5137 247.035 41.7188 247.414 42.1289C247.793 42.5391 247.982 43.123 247.982 43.8809V48H246.705V44.1797C246.705 43.6484 246.594 43.2539 246.371 42.9961C246.152 42.7344 245.809 42.6035 245.34 42.6035C245.031 42.6035 244.764 42.6719 244.537 42.8086C244.311 42.9414 244.135 43.1328 244.01 43.3828C243.889 43.6289 243.828 43.9238 243.828 44.2676V48H242.557ZM252.154 48.041C251.459 48.041 250.955 47.9082 250.643 47.6426C250.334 47.373 250.18 46.9336 250.18 46.3242V42.6387H249.184V41.6367H250.18V40.0312H251.48V41.6367H252.846V42.6387H251.48V46.0137C251.48 46.3574 251.549 46.6055 251.686 46.7578C251.822 46.9062 252.049 46.9805 252.365 46.9805C252.459 46.9805 252.539 46.9785 252.605 46.9746C252.676 46.9707 252.756 46.9648 252.846 46.957V47.9766C252.744 47.9922 252.635 48.0059 252.518 48.0176C252.4 48.0332 252.279 48.041 252.154 48.041ZM254.334 48V41.6367H255.605V42.5977H255.705C255.818 42.2578 256.018 41.9941 256.303 41.8066C256.592 41.6191 256.947 41.5254 257.369 41.5254C257.475 41.5254 257.578 41.5312 257.68 41.543C257.781 41.5547 257.863 41.5684 257.926 41.584V42.7559C257.812 42.7324 257.699 42.7148 257.586 42.7031C257.477 42.6914 257.361 42.6855 257.24 42.6855C256.916 42.6855 256.631 42.748 256.385 42.873C256.143 42.998 255.951 43.1738 255.811 43.4004C255.674 43.623 255.605 43.8887 255.605 44.1973V48H254.334ZM259.854 50.2383C259.775 50.2383 259.691 50.2344 259.602 50.2266C259.512 50.2227 259.426 50.2168 259.344 50.209V49.207C259.406 49.2148 259.475 49.2207 259.549 49.2246C259.627 49.2285 259.701 49.2305 259.771 49.2305C260.068 49.2305 260.309 49.1602 260.492 49.0195C260.676 48.8828 260.814 48.6543 260.908 48.334L261.002 48.0059L258.693 41.6367H260.07L261.869 47.373L261.471 46.7168H261.957L261.564 47.373L263.357 41.6367H264.699L262.332 48.2402C262.152 48.748 261.953 49.1465 261.734 49.4355C261.516 49.7285 261.256 49.9355 260.955 50.0566C260.654 50.1777 260.287 50.2383 259.854 50.2383ZM269.264 50.1211V41.6367H270.535V42.6387H270.635C270.756 42.4043 270.912 42.2051 271.104 42.041C271.299 41.877 271.521 41.75 271.771 41.6602C272.021 41.5703 272.295 41.5254 272.592 41.5254C273.127 41.5254 273.592 41.6621 273.986 41.9355C274.381 42.2051 274.686 42.5859 274.9 43.0781C275.119 43.5664 275.229 44.1445 275.229 44.8125V44.8242C275.229 45.4961 275.121 46.0781 274.906 46.5703C274.691 47.0586 274.387 47.4375 273.992 47.707C273.598 47.9727 273.131 48.1055 272.592 48.1055C272.299 48.1055 272.025 48.0605 271.771 47.9707C271.518 47.877 271.293 47.748 271.098 47.584C270.902 47.4199 270.748 47.2227 270.635 46.9922H270.535V50.1211H269.264ZM272.229 47.0156C272.584 47.0156 272.889 46.9277 273.143 46.752C273.396 46.5762 273.59 46.3242 273.723 45.9961C273.859 45.668 273.928 45.2773 273.928 44.8242V44.8125C273.928 44.3555 273.859 43.9629 273.723 43.6348C273.59 43.3066 273.396 43.0547 273.143 42.8789C272.889 42.7031 272.584 42.6152 272.229 42.6152C271.877 42.6152 271.572 42.7051 271.314 42.8848C271.057 43.0605 270.859 43.3125 270.723 43.6406C270.586 43.9648 270.518 44.3555 270.518 44.8125V44.8242C270.518 45.2734 270.586 45.6621 270.723 45.9902C270.859 46.3184 271.057 46.5723 271.314 46.752C271.572 46.9277 271.877 47.0156 272.229 47.0156ZM276.752 48V41.6367H278.023V42.5977H278.123C278.236 42.2578 278.436 41.9941 278.721 41.8066C279.01 41.6191 279.365 41.5254 279.787 41.5254C279.893 41.5254 279.996 41.5312 280.098 41.543C280.199 41.5547 280.281 41.5684 280.344 41.584V42.7559C280.23 42.7324 280.117 42.7148 280.004 42.7031C279.895 42.6914 279.779 42.6855 279.658 42.6855C279.334 42.6855 279.049 42.748 278.803 42.873C278.561 42.998 278.369 43.1738 278.229 43.4004C278.092 43.623 278.023 43.8887 278.023 44.1973V48H276.752ZM281.586 48V41.6367H282.863V48H281.586ZM282.23 40.5C282.012 40.5 281.824 40.4219 281.668 40.2656C281.512 40.1094 281.434 39.9219 281.434 39.7031C281.434 39.4844 281.512 39.2988 281.668 39.1465C281.824 38.9902 282.012 38.9121 282.23 38.9121C282.449 38.9121 282.637 38.9902 282.793 39.1465C282.949 39.2988 283.027 39.4844 283.027 39.7031C283.027 39.9219 282.949 40.1094 282.793 40.2656C282.637 40.4219 282.449 40.5 282.23 40.5ZM287.387 48.123C286.77 48.123 286.236 47.9902 285.787 47.7246C285.342 47.4551 284.998 47.0723 284.756 46.5762C284.514 46.0801 284.393 45.4883 284.393 44.8008V44.7891C284.393 44.1133 284.512 43.5312 284.75 43.043C284.992 42.5547 285.336 42.1777 285.781 41.9121C286.23 41.6465 286.764 41.5137 287.381 41.5137C287.916 41.5137 288.375 41.6074 288.758 41.7949C289.145 41.9785 289.451 42.2324 289.678 42.5566C289.908 42.877 290.053 43.2422 290.111 43.6523L290.117 43.6816H288.893L288.887 43.6699C288.816 43.3574 288.654 43.0977 288.4 42.8906C288.146 42.6797 287.809 42.5742 287.387 42.5742C287.035 42.5742 286.732 42.6641 286.479 42.8438C286.225 43.0195 286.029 43.2734 285.893 43.6055C285.76 43.9375 285.693 44.332 285.693 44.7891V44.8008C285.693 45.2695 285.762 45.6719 285.898 46.0078C286.035 46.3438 286.23 46.6035 286.484 46.7871C286.738 46.9668 287.039 47.0566 287.387 47.0566C287.785 47.0566 288.107 46.9688 288.354 46.793C288.604 46.6172 288.779 46.3574 288.881 46.0137L288.893 45.9844L290.111 45.9785L290.1 46.0312C290.025 46.4453 289.875 46.8086 289.648 47.1211C289.422 47.4336 289.119 47.6797 288.74 47.8594C288.365 48.0352 287.914 48.123 287.387 48.123ZM294.225 48.123C293.604 48.123 293.07 47.9902 292.625 47.7246C292.18 47.4551 291.836 47.0742 291.594 46.582C291.355 46.0898 291.236 45.5078 291.236 44.8359V44.8301C291.236 44.166 291.355 43.5859 291.594 43.0898C291.836 42.5938 292.176 42.207 292.613 41.9297C293.055 41.6523 293.57 41.5137 294.16 41.5137C294.754 41.5137 295.264 41.6465 295.689 41.9121C296.119 42.1777 296.449 42.5508 296.68 43.0312C296.91 43.5078 297.025 44.0664 297.025 44.707V45.1523H291.881V44.2441H296.393L295.783 45.0879V44.5781C295.783 44.125 295.713 43.75 295.572 43.4531C295.436 43.1523 295.246 42.9277 295.004 42.7793C294.762 42.6309 294.482 42.5566 294.166 42.5566C293.85 42.5566 293.566 42.6348 293.316 42.791C293.07 42.9434 292.875 43.1699 292.73 43.4707C292.59 43.7715 292.52 44.1406 292.52 44.5781V45.0879C292.52 45.5059 292.59 45.8633 292.73 46.1602C292.871 46.457 293.07 46.6836 293.328 46.8398C293.59 46.9961 293.898 47.0742 294.254 47.0742C294.527 47.0742 294.762 47.0371 294.957 46.9629C295.156 46.8848 295.318 46.7891 295.443 46.6758C295.572 46.5625 295.66 46.4512 295.707 46.3418L295.73 46.2949H296.961L296.949 46.3477C296.895 46.5586 296.799 46.7695 296.662 46.9805C296.525 47.1875 296.344 47.377 296.117 47.5488C295.895 47.7207 295.625 47.8594 295.309 47.9648C294.996 48.0703 294.635 48.123 294.225 48.123Z" fill="#6A7587"/>
<path d="M252.043 23V8.98438H251.949L247.613 11.9727V9.19531L252.031 6.08984H255.02V23H252.043ZM265.484 23.3164C264.109 23.3164 262.926 22.9609 261.934 22.25C260.949 21.5312 260.191 20.5195 259.66 19.2148C259.137 17.9023 258.875 16.3477 258.875 14.5508V14.5273C258.875 12.7305 259.137 11.1797 259.66 9.875C260.191 8.5625 260.949 7.55078 261.934 6.83984C262.926 6.12891 264.109 5.77344 265.484 5.77344C266.852 5.77344 268.027 6.12891 269.012 6.83984C270.004 7.55078 270.766 8.5625 271.297 9.875C271.828 11.1797 272.094 12.7305 272.094 14.5273V14.5508C272.094 16.3477 271.828 17.9023 271.297 19.2148C270.766 20.5195 270.004 21.5312 269.012 22.25C268.027 22.9609 266.852 23.3164 265.484 23.3164ZM265.484 20.8555C266.234 20.8555 266.875 20.6016 267.406 20.0938C267.938 19.5859 268.344 18.8633 268.625 17.9258C268.906 16.9805 269.047 15.8555 269.047 14.5508V14.5273C269.047 13.2148 268.906 12.0938 268.625 11.1641C268.344 10.2266 267.938 9.50781 267.406 9.00781C266.875 8.5 266.234 8.24609 265.484 8.24609C264.727 8.24609 264.082 8.5 263.551 9.00781C263.02 9.50781 262.613 10.2266 262.332 11.1641C262.059 12.0938 261.922 13.2148 261.922 14.5273V14.5508C261.922 15.8555 262.059 16.9805 262.332 17.9258C262.613 18.8633 263.02 19.5859 263.551 20.0938C264.082 20.6016 264.727 20.8555 265.484 20.8555ZM273.559 23L277.602 16.7773L273.594 10.5078H276.887L279.395 14.8906H279.477L281.973 10.5078H285.16L281.141 16.6836L285.137 23H281.938L279.348 18.5469H279.254L276.676 23H273.559Z" fill="var(--r-neutral-title1, #192945)"/>
<line x1="168.25" y1="40" x2="168.25" y2="140" stroke="#E0E5EC" stroke-width="0.5"/>
</g>
<defs>
<clipPath id="clip0_130850_45233">
<rect width="336" height="180" fill="white"/>
</clipPath>
<clipPath id="clip1_130850_45233">
<rect x="140" y="148" width="32" height="140" rx="2" transform="rotate(90 140 148)" fill="white"/>
</clipPath>
<clipPath id="clip2_130850_45233">
<rect width="14" height="14" fill="white" transform="translate(13.5 157)"/>
</clipPath>
<clipPath id="clip3_130850_45233">
<rect x="336" y="76" width="104" height="140" rx="2" transform="rotate(90 336 76)" fill="white"/>
</clipPath>
<clipPath id="clip4_130850_45233">
<rect width="14" height="14" fill="white" transform="translate(209.5 121)"/>
</clipPath>
</defs>
</svg>
