<svg width="336" height="180" viewBox="0 0 336 180" fill="none" xmlns="http://www.w3.org/2000/svg">
<g clip-path="url(#clip0_130850_45192)">
<path d="M63.7422 23V8.98438H63.6484L59.3125 11.9727V9.19531L63.7305 6.08984H66.7188V23H63.7422ZM69.8594 23L73.9023 16.7773L69.8945 10.5078H73.1875L75.6953 14.8906H75.7773L78.2734 10.5078H81.4609L77.4414 16.6836L81.4375 23H78.2383L75.6484 18.5469H75.5547L72.9766 23H69.8594Z" fill="#192945"/>
<rect y="140" width="40" height="40" rx="4" fill="#6A7587"/>
<path d="M6.92773 161.111V160.01H9.23633C9.80664 160.01 10.248 159.863 10.5605 159.57C10.877 159.273 11.0352 158.863 11.0352 158.34V158.328C11.0352 157.797 10.877 157.385 10.5605 157.092C10.248 156.799 9.80664 156.652 9.23633 156.652H6.92773V155.545H9.56445C10.1191 155.545 10.6055 155.662 11.0234 155.896C11.4453 156.127 11.7754 156.451 12.0137 156.869C12.252 157.283 12.3711 157.766 12.3711 158.316V158.328C12.3711 158.879 12.252 159.365 12.0137 159.787C11.7754 160.205 11.4453 160.531 11.0234 160.766C10.6055 160.996 10.1191 161.111 9.56445 161.111H6.92773ZM6.27148 164V155.545H7.58398V164H6.27148ZM13.918 164V157.637H15.1895V158.598H15.2891C15.4023 158.258 15.6016 157.994 15.8867 157.807C16.1758 157.619 16.5312 157.525 16.9531 157.525C17.0586 157.525 17.1621 157.531 17.2637 157.543C17.3652 157.555 17.4473 157.568 17.5098 157.584V158.756C17.3965 158.732 17.2832 158.715 17.1699 158.703C17.0605 158.691 16.9453 158.686 16.8242 158.686C16.5 158.686 16.2148 158.748 15.9688 158.873C15.7266 158.998 15.5352 159.174 15.3945 159.4C15.2578 159.623 15.1895 159.889 15.1895 160.197V164H13.918ZM18.752 164V157.637H20.0293V164H18.752ZM19.3965 156.5C19.1777 156.5 18.9902 156.422 18.834 156.266C18.6777 156.109 18.5996 155.922 18.5996 155.703C18.5996 155.484 18.6777 155.299 18.834 155.146C18.9902 154.99 19.1777 154.912 19.3965 154.912C19.6152 154.912 19.8027 154.99 19.959 155.146C20.1152 155.299 20.1934 155.484 20.1934 155.703C20.1934 155.922 20.1152 156.109 19.959 156.266C19.8027 156.422 19.6152 156.5 19.3965 156.5ZM24.5527 164.123C23.9355 164.123 23.4023 163.99 22.9531 163.725C22.5078 163.455 22.1641 163.072 21.9219 162.576C21.6797 162.08 21.5586 161.488 21.5586 160.801V160.789C21.5586 160.113 21.6777 159.531 21.916 159.043C22.1582 158.555 22.502 158.178 22.9473 157.912C23.3965 157.646 23.9297 157.514 24.5469 157.514C25.082 157.514 25.541 157.607 25.9238 157.795C26.3105 157.979 26.6172 158.232 26.8438 158.557C27.0742 158.877 27.2188 159.242 27.2773 159.652L27.2832 159.682H26.0586L26.0527 159.67C25.9824 159.357 25.8203 159.098 25.5664 158.891C25.3125 158.68 24.9746 158.574 24.5527 158.574C24.2012 158.574 23.8984 158.664 23.6445 158.844C23.3906 159.02 23.1953 159.273 23.0586 159.605C22.9258 159.938 22.8594 160.332 22.8594 160.789V160.801C22.8594 161.27 22.9277 161.672 23.0645 162.008C23.2012 162.344 23.3965 162.604 23.6504 162.787C23.9043 162.967 24.2051 163.057 24.5527 163.057C24.9512 163.057 25.2734 162.969 25.5195 162.793C25.7695 162.617 25.9453 162.357 26.0469 162.014L26.0586 161.984L27.2773 161.979L27.2656 162.031C27.1914 162.445 27.041 162.809 26.8145 163.121C26.5879 163.434 26.2852 163.68 25.9062 163.859C25.5312 164.035 25.0801 164.123 24.5527 164.123ZM31.3906 164.123C30.7695 164.123 30.2363 163.99 29.791 163.725C29.3457 163.455 29.002 163.074 28.7598 162.582C28.5215 162.09 28.4023 161.508 28.4023 160.836V160.83C28.4023 160.166 28.5215 159.586 28.7598 159.09C29.002 158.594 29.3418 158.207 29.7793 157.93C30.2207 157.652 30.7363 157.514 31.3262 157.514C31.9199 157.514 32.4297 157.646 32.8555 157.912C33.2852 158.178 33.6152 158.551 33.8457 159.031C34.0762 159.508 34.1914 160.066 34.1914 160.707V161.152H29.0469V160.244H33.5586L32.9492 161.088V160.578C32.9492 160.125 32.8789 159.75 32.7383 159.453C32.6016 159.152 32.4121 158.928 32.1699 158.779C31.9277 158.631 31.6484 158.557 31.332 158.557C31.0156 158.557 30.7324 158.635 30.4824 158.791C30.2363 158.943 30.041 159.17 29.8965 159.471C29.7559 159.771 29.6855 160.141 29.6855 160.578V161.088C29.6855 161.506 29.7559 161.863 29.8965 162.16C30.0371 162.457 30.2363 162.684 30.4941 162.84C30.7559 162.996 31.0645 163.074 31.4199 163.074C31.6934 163.074 31.9277 163.037 32.123 162.963C32.3223 162.885 32.4844 162.789 32.6094 162.676C32.7383 162.562 32.8262 162.451 32.873 162.342L32.8965 162.295H34.127L34.1152 162.348C34.0605 162.559 33.9648 162.77 33.8281 162.98C33.6914 163.188 33.5098 163.377 33.2832 163.549C33.0605 163.721 32.791 163.859 32.4746 163.965C32.1621 164.07 31.8008 164.123 31.3906 164.123Z" fill="white"/>
<rect x="50" y="140" width="40" height="40" rx="4" fill="#2ABB7F"/>
<path d="M55.75 161.111V160.01H58.0586C58.6289 160.01 59.0703 159.863 59.3828 159.57C59.6992 159.273 59.8574 158.863 59.8574 158.34V158.328C59.8574 157.797 59.6992 157.385 59.3828 157.092C59.0703 156.799 58.6289 156.652 58.0586 156.652H55.75V155.545H58.3867C58.9414 155.545 59.4277 155.662 59.8457 155.896C60.2676 156.127 60.5977 156.451 60.8359 156.869C61.0742 157.283 61.1934 157.766 61.1934 158.316V158.328C61.1934 158.879 61.0742 159.365 60.8359 159.787C60.5977 160.205 60.2676 160.531 59.8457 160.766C59.4277 160.996 58.9414 161.111 58.3867 161.111H55.75ZM55.0938 164V155.545H56.4062V164H55.0938ZM62.7402 164V157.637H64.0117V158.598H64.1113C64.2246 158.258 64.4238 157.994 64.709 157.807C64.998 157.619 65.3535 157.525 65.7754 157.525C65.8809 157.525 65.9844 157.531 66.0859 157.543C66.1875 157.555 66.2695 157.568 66.332 157.584V158.756C66.2188 158.732 66.1055 158.715 65.9922 158.703C65.8828 158.691 65.7676 158.686 65.6465 158.686C65.3223 158.686 65.0371 158.748 64.791 158.873C64.5488 158.998 64.3574 159.174 64.2168 159.4C64.0801 159.623 64.0117 159.889 64.0117 160.197V164H62.7402ZM70.0879 164.123C69.4668 164.123 68.9297 163.99 68.4766 163.725C68.0273 163.459 67.6816 163.08 67.4395 162.588C67.1973 162.092 67.0762 161.504 67.0762 160.824V160.812C67.0762 160.129 67.1973 159.541 67.4395 159.049C67.6855 158.557 68.0332 158.178 68.4824 157.912C68.9355 157.646 69.4707 157.514 70.0879 157.514C70.709 157.514 71.2441 157.646 71.6934 157.912C72.1426 158.174 72.4883 158.553 72.7305 159.049C72.9766 159.541 73.0996 160.129 73.0996 160.812V160.824C73.0996 161.504 72.9766 162.092 72.7305 162.588C72.4883 163.08 72.1426 163.459 71.6934 163.725C71.248 163.99 70.7129 164.123 70.0879 164.123ZM70.0879 163.057C70.4512 163.057 70.7598 162.969 71.0137 162.793C71.2676 162.613 71.4609 162.357 71.5938 162.025C71.7266 161.693 71.793 161.293 71.793 160.824V160.812C71.793 160.34 71.7266 159.938 71.5938 159.605C71.4609 159.273 71.2676 159.02 71.0137 158.844C70.7598 158.664 70.4512 158.574 70.0879 158.574C69.7246 158.574 69.416 158.664 69.1621 158.844C68.9082 159.02 68.7129 159.273 68.5762 159.605C68.4434 159.938 68.377 160.34 68.377 160.812V160.824C68.377 161.293 68.4434 161.693 68.5762 162.025C68.7129 162.357 68.9082 162.613 69.1621 162.793C69.416 162.969 69.7246 163.057 70.0879 163.057ZM75.0625 164V158.639H74.0137V157.637H75.0625V156.969C75.0625 156.543 75.1328 156.191 75.2734 155.914C75.418 155.633 75.6367 155.424 75.9297 155.287C76.2227 155.15 76.5918 155.082 77.0371 155.082C77.1777 155.082 77.3086 155.088 77.4297 155.1C77.5547 155.107 77.6738 155.121 77.7871 155.141V156.078C77.7285 156.066 77.6562 156.059 77.5703 156.055C77.4883 156.047 77.3984 156.043 77.3008 156.043C76.9492 156.043 76.6973 156.127 76.5449 156.295C76.3965 156.463 76.3223 156.707 76.3223 157.027V157.637H77.7285V158.639H76.334V164H75.0625ZM79.1758 164V157.637H80.4531V164H79.1758ZM79.8203 156.5C79.6016 156.5 79.4141 156.422 79.2578 156.266C79.1016 156.109 79.0234 155.922 79.0234 155.703C79.0234 155.484 79.1016 155.299 79.2578 155.146C79.4141 154.99 79.6016 154.912 79.8203 154.912C80.0391 154.912 80.2266 154.99 80.3828 155.146C80.5391 155.299 80.6172 155.484 80.6172 155.703C80.6172 155.922 80.5391 156.109 80.3828 156.266C80.2266 156.422 80.0391 156.5 79.8203 156.5ZM84.7012 164.041C84.0059 164.041 83.502 163.908 83.1895 163.643C82.8809 163.373 82.7266 162.934 82.7266 162.324V158.639H81.7305V157.637H82.7266V156.031H84.0273V157.637H85.3926V158.639H84.0273V162.014C84.0273 162.357 84.0957 162.605 84.2324 162.758C84.3691 162.906 84.5957 162.98 84.9121 162.98C85.0059 162.98 85.0859 162.979 85.1523 162.975C85.2227 162.971 85.3027 162.965 85.3926 162.957V163.977C85.291 163.992 85.1816 164.006 85.0645 164.018C84.9473 164.033 84.8262 164.041 84.7012 164.041Z" fill="white"/>
<rect x="100" y="140" width="40" height="40" rx="4" fill="#E34935"/>
<path d="M108.219 164V155.545H109.531V162.863H113.498V164H108.219ZM117.412 164.123C116.791 164.123 116.254 163.99 115.801 163.725C115.352 163.459 115.006 163.08 114.764 162.588C114.521 162.092 114.4 161.504 114.4 160.824V160.812C114.4 160.129 114.521 159.541 114.764 159.049C115.01 158.557 115.357 158.178 115.807 157.912C116.26 157.646 116.795 157.514 117.412 157.514C118.033 157.514 118.568 157.646 119.018 157.912C119.467 158.174 119.812 158.553 120.055 159.049C120.301 159.541 120.424 160.129 120.424 160.812V160.824C120.424 161.504 120.301 162.092 120.055 162.588C119.812 163.08 119.467 163.459 119.018 163.725C118.572 163.99 118.037 164.123 117.412 164.123ZM117.412 163.057C117.775 163.057 118.084 162.969 118.338 162.793C118.592 162.613 118.785 162.357 118.918 162.025C119.051 161.693 119.117 161.293 119.117 160.824V160.812C119.117 160.34 119.051 159.938 118.918 159.605C118.785 159.273 118.592 159.02 118.338 158.844C118.084 158.664 117.775 158.574 117.412 158.574C117.049 158.574 116.74 158.664 116.486 158.844C116.232 159.02 116.037 159.273 115.9 159.605C115.768 159.938 115.701 160.34 115.701 160.812V160.824C115.701 161.293 115.768 161.693 115.9 162.025C116.037 162.357 116.232 162.613 116.486 162.793C116.74 162.969 117.049 163.057 117.412 163.057ZM124.25 164.123C123.738 164.123 123.293 164.049 122.914 163.9C122.535 163.748 122.234 163.539 122.012 163.273C121.789 163.004 121.658 162.691 121.619 162.336V162.324H122.896V162.336C122.979 162.574 123.135 162.768 123.365 162.916C123.596 163.064 123.9 163.139 124.279 163.139C124.541 163.139 124.77 163.102 124.965 163.027C125.164 162.953 125.32 162.85 125.434 162.717C125.547 162.584 125.604 162.432 125.604 162.26V162.248C125.604 162.049 125.523 161.881 125.363 161.744C125.203 161.607 124.939 161.496 124.572 161.41L123.553 161.176C123.154 161.086 122.824 160.963 122.562 160.807C122.301 160.65 122.107 160.459 121.982 160.232C121.857 160.002 121.795 159.732 121.795 159.424V159.418C121.795 159.047 121.9 158.719 122.111 158.434C122.322 158.145 122.613 157.92 122.984 157.76C123.359 157.596 123.787 157.514 124.268 157.514C124.752 157.514 125.174 157.59 125.533 157.742C125.896 157.891 126.184 158.098 126.395 158.363C126.605 158.625 126.73 158.93 126.77 159.277V159.283H125.551V159.271C125.492 159.049 125.352 158.863 125.129 158.715C124.91 158.566 124.621 158.492 124.262 158.492C124.031 158.492 123.826 158.529 123.646 158.604C123.467 158.674 123.324 158.773 123.219 158.902C123.117 159.027 123.066 159.176 123.066 159.348V159.359C123.066 159.492 123.1 159.609 123.166 159.711C123.236 159.809 123.346 159.896 123.494 159.975C123.643 160.049 123.834 160.115 124.068 160.174L125.082 160.402C125.691 160.547 126.145 160.756 126.441 161.029C126.742 161.303 126.893 161.67 126.893 162.131V162.143C126.893 162.533 126.777 162.879 126.547 163.18C126.316 163.477 126.002 163.709 125.604 163.877C125.209 164.041 124.758 164.123 124.25 164.123ZM130.602 164.123C130.09 164.123 129.645 164.049 129.266 163.9C128.887 163.748 128.586 163.539 128.363 163.273C128.141 163.004 128.01 162.691 127.971 162.336V162.324H129.248V162.336C129.33 162.574 129.486 162.768 129.717 162.916C129.947 163.064 130.252 163.139 130.631 163.139C130.893 163.139 131.121 163.102 131.316 163.027C131.516 162.953 131.672 162.85 131.785 162.717C131.898 162.584 131.955 162.432 131.955 162.26V162.248C131.955 162.049 131.875 161.881 131.715 161.744C131.555 161.607 131.291 161.496 130.924 161.41L129.904 161.176C129.506 161.086 129.176 160.963 128.914 160.807C128.652 160.65 128.459 160.459 128.334 160.232C128.209 160.002 128.146 159.732 128.146 159.424V159.418C128.146 159.047 128.252 158.719 128.463 158.434C128.674 158.145 128.965 157.92 129.336 157.76C129.711 157.596 130.139 157.514 130.619 157.514C131.104 157.514 131.525 157.59 131.885 157.742C132.248 157.891 132.535 158.098 132.746 158.363C132.957 158.625 133.082 158.93 133.121 159.277V159.283H131.902V159.271C131.844 159.049 131.703 158.863 131.48 158.715C131.262 158.566 130.973 158.492 130.613 158.492C130.383 158.492 130.178 158.529 129.998 158.604C129.818 158.674 129.676 158.773 129.57 158.902C129.469 159.027 129.418 159.176 129.418 159.348V159.359C129.418 159.492 129.451 159.609 129.518 159.711C129.588 159.809 129.697 159.896 129.846 159.975C129.994 160.049 130.186 160.115 130.42 160.174L131.434 160.402C132.043 160.547 132.496 160.756 132.793 161.029C133.094 161.303 133.244 161.67 133.244 162.131V162.143C133.244 162.533 133.129 162.879 132.898 163.18C132.668 163.477 132.354 163.709 131.955 163.877C131.561 164.041 131.109 164.123 130.602 164.123Z" fill="white"/>
<path d="M252.043 23V8.98438H251.949L247.613 11.9727V9.19531L252.031 6.08984H255.02V23H252.043ZM265.484 23.3164C264.109 23.3164 262.926 22.9609 261.934 22.25C260.949 21.5312 260.191 20.5195 259.66 19.2148C259.137 17.9023 258.875 16.3477 258.875 14.5508V14.5273C258.875 12.7305 259.137 11.1797 259.66 9.875C260.191 8.5625 260.949 7.55078 261.934 6.83984C262.926 6.12891 264.109 5.77344 265.484 5.77344C266.852 5.77344 268.027 6.12891 269.012 6.83984C270.004 7.55078 270.766 8.5625 271.297 9.875C271.828 11.1797 272.094 12.7305 272.094 14.5273V14.5508C272.094 16.3477 271.828 17.9023 271.297 19.2148C270.766 20.5195 270.004 21.5312 269.012 22.25C268.027 22.9609 266.852 23.3164 265.484 23.3164ZM265.484 20.8555C266.234 20.8555 266.875 20.6016 267.406 20.0938C267.938 19.5859 268.344 18.8633 268.625 17.9258C268.906 16.9805 269.047 15.8555 269.047 14.5508V14.5273C269.047 13.2148 268.906 12.0938 268.625 11.1641C268.344 10.2266 267.938 9.50781 267.406 9.00781C266.875 8.5 266.234 8.24609 265.484 8.24609C264.727 8.24609 264.082 8.5 263.551 9.00781C263.02 9.50781 262.613 10.2266 262.332 11.1641C262.059 12.0938 261.922 13.2148 261.922 14.5273V14.5508C261.922 15.8555 262.059 16.9805 262.332 17.9258C262.613 18.8633 263.02 19.5859 263.551 20.0938C264.082 20.6016 264.727 20.8555 265.484 20.8555ZM273.559 23L277.602 16.7773L273.594 10.5078H276.887L279.395 14.8906H279.477L281.973 10.5078H285.16L281.141 16.6836L285.137 23H281.938L279.348 18.5469H279.254L276.676 23H273.559Z" fill="#192945"/>
<rect x="196" y="140" width="40" height="40" rx="4" fill="#6A7587"/>
<path d="M202.928 161.111V160.01H205.236C205.807 160.01 206.248 159.863 206.561 159.57C206.877 159.273 207.035 158.863 207.035 158.34V158.328C207.035 157.797 206.877 157.385 206.561 157.092C206.248 156.799 205.807 156.652 205.236 156.652H202.928V155.545H205.564C206.119 155.545 206.605 155.662 207.023 155.896C207.445 156.127 207.775 156.451 208.014 156.869C208.252 157.283 208.371 157.766 208.371 158.316V158.328C208.371 158.879 208.252 159.365 208.014 159.787C207.775 160.205 207.445 160.531 207.023 160.766C206.605 160.996 206.119 161.111 205.564 161.111H202.928ZM202.271 164V155.545H203.584V164H202.271ZM209.918 164V157.637H211.189V158.598H211.289C211.402 158.258 211.602 157.994 211.887 157.807C212.176 157.619 212.531 157.525 212.953 157.525C213.059 157.525 213.162 157.531 213.264 157.543C213.365 157.555 213.447 157.568 213.51 157.584V158.756C213.396 158.732 213.283 158.715 213.17 158.703C213.061 158.691 212.945 158.686 212.824 158.686C212.5 158.686 212.215 158.748 211.969 158.873C211.727 158.998 211.535 159.174 211.395 159.4C211.258 159.623 211.189 159.889 211.189 160.197V164H209.918ZM214.752 164V157.637H216.029V164H214.752ZM215.396 156.5C215.178 156.5 214.99 156.422 214.834 156.266C214.678 156.109 214.6 155.922 214.6 155.703C214.6 155.484 214.678 155.299 214.834 155.146C214.99 154.99 215.178 154.912 215.396 154.912C215.615 154.912 215.803 154.99 215.959 155.146C216.115 155.299 216.193 155.484 216.193 155.703C216.193 155.922 216.115 156.109 215.959 156.266C215.803 156.422 215.615 156.5 215.396 156.5ZM220.553 164.123C219.936 164.123 219.402 163.99 218.953 163.725C218.508 163.455 218.164 163.072 217.922 162.576C217.68 162.08 217.559 161.488 217.559 160.801V160.789C217.559 160.113 217.678 159.531 217.916 159.043C218.158 158.555 218.502 158.178 218.947 157.912C219.396 157.646 219.93 157.514 220.547 157.514C221.082 157.514 221.541 157.607 221.924 157.795C222.311 157.979 222.617 158.232 222.844 158.557C223.074 158.877 223.219 159.242 223.277 159.652L223.283 159.682H222.059L222.053 159.67C221.982 159.357 221.82 159.098 221.566 158.891C221.312 158.68 220.975 158.574 220.553 158.574C220.201 158.574 219.898 158.664 219.645 158.844C219.391 159.02 219.195 159.273 219.059 159.605C218.926 159.938 218.859 160.332 218.859 160.789V160.801C218.859 161.27 218.928 161.672 219.064 162.008C219.201 162.344 219.396 162.604 219.65 162.787C219.904 162.967 220.205 163.057 220.553 163.057C220.951 163.057 221.273 162.969 221.52 162.793C221.77 162.617 221.945 162.357 222.047 162.014L222.059 161.984L223.277 161.979L223.266 162.031C223.191 162.445 223.041 162.809 222.814 163.121C222.588 163.434 222.285 163.68 221.906 163.859C221.531 164.035 221.08 164.123 220.553 164.123ZM227.391 164.123C226.77 164.123 226.236 163.99 225.791 163.725C225.346 163.455 225.002 163.074 224.76 162.582C224.521 162.09 224.402 161.508 224.402 160.836V160.83C224.402 160.166 224.521 159.586 224.76 159.09C225.002 158.594 225.342 158.207 225.779 157.93C226.221 157.652 226.736 157.514 227.326 157.514C227.92 157.514 228.43 157.646 228.855 157.912C229.285 158.178 229.615 158.551 229.846 159.031C230.076 159.508 230.191 160.066 230.191 160.707V161.152H225.047V160.244H229.559L228.949 161.088V160.578C228.949 160.125 228.879 159.75 228.738 159.453C228.602 159.152 228.412 158.928 228.17 158.779C227.928 158.631 227.648 158.557 227.332 158.557C227.016 158.557 226.732 158.635 226.482 158.791C226.236 158.943 226.041 159.17 225.896 159.471C225.756 159.771 225.686 160.141 225.686 160.578V161.088C225.686 161.506 225.756 161.863 225.896 162.16C226.037 162.457 226.236 162.684 226.494 162.84C226.756 162.996 227.064 163.074 227.42 163.074C227.693 163.074 227.928 163.037 228.123 162.963C228.322 162.885 228.484 162.789 228.609 162.676C228.738 162.562 228.826 162.451 228.873 162.342L228.896 162.295H230.127L230.115 162.348C230.061 162.559 229.965 162.77 229.828 162.98C229.691 163.188 229.51 163.377 229.283 163.549C229.061 163.721 228.791 163.859 228.475 163.965C228.162 164.07 227.801 164.123 227.391 164.123Z" fill="white"/>
<rect x="246" y="40" width="40" height="140" rx="4" fill="#2ABB7F"/>
<path d="M251.75 111.111V110.01H254.059C254.629 110.01 255.07 109.863 255.383 109.57C255.699 109.273 255.857 108.863 255.857 108.34V108.328C255.857 107.797 255.699 107.385 255.383 107.092C255.07 106.799 254.629 106.652 254.059 106.652H251.75V105.545H254.387C254.941 105.545 255.428 105.662 255.846 105.896C256.268 106.127 256.598 106.451 256.836 106.869C257.074 107.283 257.193 107.766 257.193 108.316V108.328C257.193 108.879 257.074 109.365 256.836 109.787C256.598 110.205 256.268 110.531 255.846 110.766C255.428 110.996 254.941 111.111 254.387 111.111H251.75ZM251.094 114V105.545H252.406V114H251.094ZM258.74 114V107.637H260.012V108.598H260.111C260.225 108.258 260.424 107.994 260.709 107.807C260.998 107.619 261.354 107.525 261.775 107.525C261.881 107.525 261.984 107.531 262.086 107.543C262.188 107.555 262.27 107.568 262.332 107.584V108.756C262.219 108.732 262.105 108.715 261.992 108.703C261.883 108.691 261.768 108.686 261.646 108.686C261.322 108.686 261.037 108.748 260.791 108.873C260.549 108.998 260.357 109.174 260.217 109.4C260.08 109.623 260.012 109.889 260.012 110.197V114H258.74ZM266.088 114.123C265.467 114.123 264.93 113.99 264.477 113.725C264.027 113.459 263.682 113.08 263.439 112.588C263.197 112.092 263.076 111.504 263.076 110.824V110.812C263.076 110.129 263.197 109.541 263.439 109.049C263.686 108.557 264.033 108.178 264.482 107.912C264.936 107.646 265.471 107.514 266.088 107.514C266.709 107.514 267.244 107.646 267.693 107.912C268.143 108.174 268.488 108.553 268.73 109.049C268.977 109.541 269.1 110.129 269.1 110.812V110.824C269.1 111.504 268.977 112.092 268.73 112.588C268.488 113.08 268.143 113.459 267.693 113.725C267.248 113.99 266.713 114.123 266.088 114.123ZM266.088 113.057C266.451 113.057 266.76 112.969 267.014 112.793C267.268 112.613 267.461 112.357 267.594 112.025C267.727 111.693 267.793 111.293 267.793 110.824V110.812C267.793 110.34 267.727 109.938 267.594 109.605C267.461 109.273 267.268 109.02 267.014 108.844C266.76 108.664 266.451 108.574 266.088 108.574C265.725 108.574 265.416 108.664 265.162 108.844C264.908 109.02 264.713 109.273 264.576 109.605C264.443 109.938 264.377 110.34 264.377 110.812V110.824C264.377 111.293 264.443 111.693 264.576 112.025C264.713 112.357 264.908 112.613 265.162 112.793C265.416 112.969 265.725 113.057 266.088 113.057ZM271.062 114V108.639H270.014V107.637H271.062V106.969C271.062 106.543 271.133 106.191 271.273 105.914C271.418 105.633 271.637 105.424 271.93 105.287C272.223 105.15 272.592 105.082 273.037 105.082C273.178 105.082 273.309 105.088 273.43 105.1C273.555 105.107 273.674 105.121 273.787 105.141V106.078C273.729 106.066 273.656 106.059 273.57 106.055C273.488 106.047 273.398 106.043 273.301 106.043C272.949 106.043 272.697 106.127 272.545 106.295C272.396 106.463 272.322 106.707 272.322 107.027V107.637H273.729V108.639H272.334V114H271.062ZM275.176 114V107.637H276.453V114H275.176ZM275.82 106.5C275.602 106.5 275.414 106.422 275.258 106.266C275.102 106.109 275.023 105.922 275.023 105.703C275.023 105.484 275.102 105.299 275.258 105.146C275.414 104.99 275.602 104.912 275.82 104.912C276.039 104.912 276.227 104.99 276.383 105.146C276.539 105.299 276.617 105.484 276.617 105.703C276.617 105.922 276.539 106.109 276.383 106.266C276.227 106.422 276.039 106.5 275.82 106.5ZM280.701 114.041C280.006 114.041 279.502 113.908 279.189 113.643C278.881 113.373 278.727 112.934 278.727 112.324V108.639H277.73V107.637H278.727V106.031H280.027V107.637H281.393V108.639H280.027V112.014C280.027 112.357 280.096 112.605 280.232 112.758C280.369 112.906 280.596 112.98 280.912 112.98C281.006 112.98 281.086 112.979 281.152 112.975C281.223 112.971 281.303 112.965 281.393 112.957V113.977C281.291 113.992 281.182 114.006 281.064 114.018C280.947 114.033 280.826 114.041 280.701 114.041Z" fill="white"/>
<rect x="296" y="40" width="40" height="140" rx="4" fill="#E34935"/>
<path d="M304.219 114V105.545H305.531V112.863H309.498V114H304.219ZM313.412 114.123C312.791 114.123 312.254 113.99 311.801 113.725C311.352 113.459 311.006 113.08 310.764 112.588C310.521 112.092 310.4 111.504 310.4 110.824V110.812C310.4 110.129 310.521 109.541 310.764 109.049C311.01 108.557 311.357 108.178 311.807 107.912C312.26 107.646 312.795 107.514 313.412 107.514C314.033 107.514 314.568 107.646 315.018 107.912C315.467 108.174 315.812 108.553 316.055 109.049C316.301 109.541 316.424 110.129 316.424 110.812V110.824C316.424 111.504 316.301 112.092 316.055 112.588C315.812 113.08 315.467 113.459 315.018 113.725C314.572 113.99 314.037 114.123 313.412 114.123ZM313.412 113.057C313.775 113.057 314.084 112.969 314.338 112.793C314.592 112.613 314.785 112.357 314.918 112.025C315.051 111.693 315.117 111.293 315.117 110.824V110.812C315.117 110.34 315.051 109.938 314.918 109.605C314.785 109.273 314.592 109.02 314.338 108.844C314.084 108.664 313.775 108.574 313.412 108.574C313.049 108.574 312.74 108.664 312.486 108.844C312.232 109.02 312.037 109.273 311.9 109.605C311.768 109.938 311.701 110.34 311.701 110.812V110.824C311.701 111.293 311.768 111.693 311.9 112.025C312.037 112.357 312.232 112.613 312.486 112.793C312.74 112.969 313.049 113.057 313.412 113.057ZM320.25 114.123C319.738 114.123 319.293 114.049 318.914 113.9C318.535 113.748 318.234 113.539 318.012 113.273C317.789 113.004 317.658 112.691 317.619 112.336V112.324H318.896V112.336C318.979 112.574 319.135 112.768 319.365 112.916C319.596 113.064 319.9 113.139 320.279 113.139C320.541 113.139 320.77 113.102 320.965 113.027C321.164 112.953 321.32 112.85 321.434 112.717C321.547 112.584 321.604 112.432 321.604 112.26V112.248C321.604 112.049 321.523 111.881 321.363 111.744C321.203 111.607 320.939 111.496 320.572 111.41L319.553 111.176C319.154 111.086 318.824 110.963 318.562 110.807C318.301 110.65 318.107 110.459 317.982 110.232C317.857 110.002 317.795 109.732 317.795 109.424V109.418C317.795 109.047 317.9 108.719 318.111 108.434C318.322 108.145 318.613 107.92 318.984 107.76C319.359 107.596 319.787 107.514 320.268 107.514C320.752 107.514 321.174 107.59 321.533 107.742C321.896 107.891 322.184 108.098 322.395 108.363C322.605 108.625 322.73 108.93 322.77 109.277V109.283H321.551V109.271C321.492 109.049 321.352 108.863 321.129 108.715C320.91 108.566 320.621 108.492 320.262 108.492C320.031 108.492 319.826 108.529 319.646 108.604C319.467 108.674 319.324 108.773 319.219 108.902C319.117 109.027 319.066 109.176 319.066 109.348V109.359C319.066 109.492 319.1 109.609 319.166 109.711C319.236 109.809 319.346 109.896 319.494 109.975C319.643 110.049 319.834 110.115 320.068 110.174L321.082 110.402C321.691 110.547 322.145 110.756 322.441 111.029C322.742 111.303 322.893 111.67 322.893 112.131V112.143C322.893 112.533 322.777 112.879 322.547 113.18C322.316 113.477 322.002 113.709 321.604 113.877C321.209 114.041 320.758 114.123 320.25 114.123ZM326.602 114.123C326.09 114.123 325.645 114.049 325.266 113.9C324.887 113.748 324.586 113.539 324.363 113.273C324.141 113.004 324.01 112.691 323.971 112.336V112.324H325.248V112.336C325.33 112.574 325.486 112.768 325.717 112.916C325.947 113.064 326.252 113.139 326.631 113.139C326.893 113.139 327.121 113.102 327.316 113.027C327.516 112.953 327.672 112.85 327.785 112.717C327.898 112.584 327.955 112.432 327.955 112.26V112.248C327.955 112.049 327.875 111.881 327.715 111.744C327.555 111.607 327.291 111.496 326.924 111.41L325.904 111.176C325.506 111.086 325.176 110.963 324.914 110.807C324.652 110.65 324.459 110.459 324.334 110.232C324.209 110.002 324.146 109.732 324.146 109.424V109.418C324.146 109.047 324.252 108.719 324.463 108.434C324.674 108.145 324.965 107.92 325.336 107.76C325.711 107.596 326.139 107.514 326.619 107.514C327.104 107.514 327.525 107.59 327.885 107.742C328.248 107.891 328.535 108.098 328.746 108.363C328.957 108.625 329.082 108.93 329.121 109.277V109.283H327.902V109.271C327.844 109.049 327.703 108.863 327.48 108.715C327.262 108.566 326.973 108.492 326.613 108.492C326.383 108.492 326.178 108.529 325.998 108.604C325.818 108.674 325.676 108.773 325.57 108.902C325.469 109.027 325.418 109.176 325.418 109.348V109.359C325.418 109.492 325.451 109.609 325.518 109.711C325.588 109.809 325.697 109.896 325.846 109.975C325.994 110.049 326.186 110.115 326.42 110.174L327.434 110.402C328.043 110.547 328.496 110.756 328.793 111.029C329.094 111.303 329.244 111.67 329.244 112.131V112.143C329.244 112.533 329.129 112.879 328.898 113.18C328.668 113.477 328.354 113.709 327.955 113.877C327.561 114.041 327.109 114.123 326.602 114.123Z" fill="white"/>
<line x1="168.25" y1="40" x2="168.25" y2="140" stroke="#E0E5EC" stroke-width="0.5"/>
</g>
<defs>
<clipPath id="clip0_130850_45192">
<rect width="336" height="180" fill="white"/>
</clipPath>
</defs>
</svg>
