<svg width="240" height="180" viewBox="0 0 240 180" fill="none" xmlns="http://www.w3.org/2000/svg">
<path d="M105.711 72.8594H134.282" stroke="var(--r-neutral-title1, #192945)" stroke-width="6" stroke-linecap="round" stroke-linejoin="round"/>
<path d="M105.711 90H128.568" stroke="var(--r-neutral-title1, #192945)" stroke-width="6" stroke-linecap="round" stroke-linejoin="round"/>
<path d="M142.863 52.7227C148.306 52.8919 151.572 58.3449 151.572 63.3984V93.6924C149.771 92.4124 147.747 91.4247 145.572 90.7949V63.3984C145.572 60.1884 143.693 58.8061 142.696 58.7227L142.603 58.7188H97.3994C96.4318 58.7191 94.4298 60.085 94.4297 63.3984V116.61C94.4298 119.924 96.4318 121.29 97.3994 121.29H123.485C125.159 123.736 127.362 125.791 129.93 127.29H97.3994C91.8001 127.29 88.4298 121.744 88.4297 116.61V63.3984C88.4298 58.2648 91.8001 52.719 97.3994 52.7188H142.603L142.863 52.7227Z" fill="var(--r-neutral-title1, #192945)"/>
<path d="M140.816 100.614L130.611 110.818C129.484 111.946 129.484 113.773 130.611 114.9L140.816 125.105C141.943 126.232 143.771 126.232 144.898 125.105L155.102 114.9C156.23 113.773 156.23 111.946 155.102 110.818L144.898 100.614C143.771 99.4866 141.943 99.4866 140.816 100.614Z" stroke="var(--r-blue-default, #7084FF)" stroke-width="6" stroke-linejoin="round"/>
</svg>
