<svg width="240" height="180" viewBox="0 0 240 180" fill="none" xmlns="http://www.w3.org/2000/svg">
<path d="M158.245 90.4736C158.271 96.4747 157.002 102.209 154.563 107.666L154.562 107.669C152.725 111.766 149.539 115.672 145.547 117.641C143.518 118.641 141.236 119.157 138.843 118.864C136.44 118.57 134.108 117.482 131.953 115.571V115.57C130.189 114.007 128.85 112.101 127.719 110.248C127.152 109.318 126.616 108.365 126.107 107.457C125.59 106.535 125.099 105.66 124.59 104.818C122.555 101.451 120.568 99.2252 117.275 98.6221C114.898 98.3443 113.265 98.8273 111.982 99.6182C110.608 100.466 109.46 101.772 108.254 103.434C107.16 104.942 105.824 107.059 104.438 108.651C102.959 110.351 101.04 111.957 98.347 112.501L98.3461 112.5C95.3856 113.104 92.832 112.272 90.8246 110.609C88.9105 109.024 87.5537 106.746 86.5883 104.432C84.6566 99.8009 83.9359 94.1488 84.0043 90.5664C84.0049 90.5356 84.0065 90.5046 84.0072 90.4736H89.0541C89.0526 90.5369 89.0504 90.6001 89.0492 90.6631C88.9914 93.6929 89.6334 98.6269 91.2445 102.489C92.0503 104.421 93.0096 105.867 94.0433 106.724C94.9825 107.502 96.007 107.829 97.3412 107.556L97.347 107.555C98.5098 107.32 99.5195 106.618 100.631 105.34C101.836 103.955 102.754 102.423 104.17 100.471C105.475 98.6714 107.094 96.7032 109.333 95.3223C111.508 93.9817 114.114 93.2848 117.306 93.5537L117.953 93.6211L118.019 93.6289L118.083 93.6406C123.673 94.6232 126.687 98.5311 128.91 102.209C129.468 103.134 130 104.083 130.507 104.987C131.022 105.905 131.514 106.78 132.027 107.62C132.992 109.203 133.959 110.543 135.076 111.59L135.301 111.796C136.797 113.123 138.203 113.702 139.457 113.855C140.721 114.01 142.017 113.756 143.316 113.115C145.98 111.801 148.459 108.946 149.957 105.604C152.047 100.93 153.147 96.0717 153.196 91.0029L153.19 90.4736H158.245Z" fill="#192945"/>
<path d="M132.39 64.9453C136.145 61.8353 140.395 61.3697 144.195 62.7031C147.871 63.993 150.986 66.8984 153.014 70.3301L153.345 70.9023C156.279 76.0916 157.753 81.9483 158.13 87.7002H158.209L158.236 90.1953C158.237 90.2881 158.237 90.3809 158.237 90.4736H153.183L153.181 90.252C153.111 84.1946 151.725 78.0587 148.672 72.9004L148.671 72.8984C147.111 70.2591 144.85 68.2798 142.524 67.4639C140.323 66.6917 137.944 66.8984 135.608 68.832L135.607 68.833C134.197 69.9996 133.043 71.6312 131.922 73.6377C131.365 74.6344 130.839 75.6821 130.293 76.7803C129.755 77.8617 129.192 79.0036 128.598 80.1064C126.233 84.495 122.9 89.1583 116.119 89.624L116.109 89.625C109.31 90.0672 105.711 86.0161 103.075 82.7627C101.689 81.0521 100.663 79.6918 99.459 78.6689C98.3621 77.7371 97.2722 77.2325 95.8623 77.2324C93.4897 77.2326 91.8984 78.5799 90.7461 81.1982C89.5813 83.8454 89.1218 87.3441 89.0469 90.4736H84C84.0725 87.053 84.5585 82.7326 86.1279 79.166C87.7478 75.4851 90.7658 72.1867 95.8623 72.1865C98.7495 72.1866 100.956 73.3199 102.726 74.8232C104.388 76.2357 105.799 78.1086 106.996 79.5859C109.524 82.7067 111.67 84.8536 115.773 84.5898L116.145 84.5576C119.932 84.1546 122.029 81.6608 124.156 77.7129C124.702 76.7 125.221 75.6459 125.774 74.5332C126.319 73.4373 126.894 72.291 127.517 71.1768C128.754 68.9615 130.271 66.6979 132.39 64.9453Z" fill="#4C65FF"/>
</svg>
