<svg xmlns="http://www.w3.org/2000/svg" width="40" height="40" viewBox="0 0 40 40" fill="none">
  <path d="M38.9883 20.3506C39.0014 23.3404 38.3697 26.1972 37.1543 28.916V28.917C36.2393 30.9578 34.6518 32.905 32.6631 33.8857C31.6522 34.3842 30.5154 34.6411 29.3232 34.4951C28.201 34.3576 27.1092 33.8726 26.0928 33.0283L25.8906 32.8545C25.0116 32.0754 24.3446 31.1256 23.7812 30.2021C23.4985 29.7386 23.2315 29.264 22.9775 28.8115C22.7199 28.3525 22.4761 27.9165 22.2227 27.4971C21.2074 25.8171 20.2155 24.7081 18.5713 24.4092C17.3905 24.2724 16.5783 24.5131 15.9404 24.9062C15.2558 25.3284 14.6844 25.9798 14.084 26.8076C13.539 27.559 12.8721 28.6136 12.1816 29.4072C11.4451 30.2537 10.4896 31.0518 9.14941 31.3232L9.15039 31.3242C7.67432 31.6262 6.40112 31.2115 5.40039 30.3828C4.44669 29.5929 3.77009 28.4578 3.28906 27.3047C2.32683 24.9978 1.96794 22.1822 2.00195 20.3975C2.00225 20.3819 2.00357 20.3663 2.00391 20.3506H4.51855C4.5178 20.3822 4.51623 20.4138 4.51562 20.4453C4.48685 21.9548 4.80675 24.4127 5.60938 26.3369C6.01087 27.2994 6.48887 28.0197 7.00391 28.4463C7.47176 28.8338 7.98183 28.9973 8.64648 28.8613L8.64941 28.8604C9.22859 28.7433 9.73139 28.3933 10.2852 27.7568C10.8854 27.0669 11.3433 26.3038 12.0488 25.3311C12.699 24.4348 13.5055 23.4545 14.6211 22.7666C15.7043 22.0988 17.0029 21.7518 18.5928 21.8857L18.915 21.9189L18.9482 21.9229L18.9805 21.9287C21.7649 22.4183 23.2667 24.365 24.374 26.1973C24.6524 26.658 24.9172 27.1316 25.1699 27.582C25.4264 28.0391 25.6714 28.475 25.9268 28.8936C26.4398 29.7346 26.9545 30.4382 27.5586 30.9736C28.304 31.6345 29.0042 31.9235 29.6289 32C30.2582 32.077 30.9038 31.9498 31.5508 31.6309C32.8782 30.9762 34.1139 29.5536 34.8604 27.8887C35.9009 25.5603 36.4494 23.1406 36.4736 20.6162L36.4707 20.3506H38.9883Z" fill="#192945"/>
  <path d="M26.1084 7.63184C27.9794 6.08307 30.0961 5.85133 31.9893 6.51562C33.8203 7.15835 35.3716 8.60596 36.3818 10.3154L36.7061 10.8877C38.0622 13.4006 38.7499 16.2091 38.9307 18.9688H38.9707L38.9844 20.2119C38.9849 20.2582 38.9842 20.3044 38.9844 20.3506H36.4668L36.4658 20.2402C36.4311 17.2226 35.7399 14.1655 34.2188 11.5957V11.5947C33.4419 10.2799 32.3147 9.29429 31.1562 8.8877C30.0596 8.50295 28.8744 8.60593 27.7109 9.56934H27.71C27.0073 10.1505 26.4324 10.9633 25.874 11.9629C25.5967 12.4594 25.3346 12.9812 25.0625 13.5283C24.7946 14.067 24.5148 14.6362 24.2188 15.1855C23.0406 17.372 21.3792 19.6957 18.001 19.9277H17.9971C14.6094 20.1482 12.816 18.1296 11.5029 16.5088C10.8127 15.6567 10.3009 14.9793 9.70117 14.4697C9.15468 14.0055 8.61158 13.754 7.90918 13.7539C6.72716 13.7539 5.93442 14.4251 5.36035 15.7295C4.78007 17.0483 4.55196 18.7915 4.51465 20.3506H2C2.03612 18.6466 2.27788 16.4945 3.05957 14.7178C3.86658 12.8839 5.36999 11.2403 7.90918 11.2402C9.34764 11.2403 10.4474 11.8047 11.3291 12.5537C12.1572 13.2574 12.8599 14.1909 13.4561 14.9268C14.7163 16.4824 15.7859 17.552 17.833 17.4189C19.8347 17.2798 20.9127 16.0219 22.0059 13.9932C22.2777 13.4887 22.5359 12.9634 22.8115 12.4092C23.083 11.8633 23.3697 11.2923 23.6797 10.7373C24.2963 9.6334 25.0526 8.50505 26.1084 7.63184Z" fill="#4C65FF"/>
</svg>