<svg width="76" height="60" viewBox="0 0 76 60" fill="none" xmlns="http://www.w3.org/2000/svg">
<path opacity="0.1" d="M75.9975 29.7207C76.0649 36.1153 74.7935 42.2257 72.2962 48.0638C68.7298 56.3768 60.1796 63.1743 52.3717 55.9387C46.0041 50.0414 44.8228 42.9024 35.2827 41.1498C22.6598 39.5393 22.356 50.1124 14.1096 51.8532C4.91809 53.8191 1.86926 37.5481 2.00427 30.1588C2.13927 22.7694 4.00682 12.3839 11.9945 12.3839C21.186 12.3839 21.8048 22.1992 33.4714 21.4058C45.0254 20.5769 45.2278 10.1695 52.7767 3.64457C59.2907 -1.99221 66.9522 2.14064 70.7884 8.92608C74.3436 15.2023 75.9074 22.568 75.9861 29.7207H75.9975Z" fill="#2ABB7F"/>
</svg>
