<svg width="15" height="15" viewBox="0 0 15 15" fill="none" xmlns="http://www.w3.org/2000/svg">
<path d="M7.2002 0C9.18817 6.26803e-05 10.9881 0.805661 12.291 2.1084C13.594 3.41135 14.4004 5.212 14.4004 7.2002C14.4003 9.1883 13.5939 10.9881 12.291 12.291C10.9881 13.5939 9.1883 14.4003 7.2002 14.4004C5.212 14.4004 3.41135 13.594 2.1084 12.291C0.805661 10.9881 6.268e-05 9.18817 0 7.2002C0 5.212 0.805464 3.41135 2.1084 2.1084C3.41135 0.805464 5.212 0 7.2002 0ZM6.85547 5.47266C6.54925 5.47266 6.30078 5.72112 6.30078 6.02734C6.3009 6.33346 6.54932 6.58203 6.85547 6.58203H7.04004V10.6445H6.30078C5.99456 10.6445 5.74609 10.893 5.74609 11.1992C5.74621 11.5053 5.99463 11.7539 6.30078 11.7539H7.56641C7.57576 11.7544 7.58526 11.7568 7.59473 11.7568C7.60393 11.7568 7.61298 11.7544 7.62207 11.7539H8.8877C9.19384 11.7539 9.44226 11.5053 9.44238 11.1992C9.44238 10.893 9.19392 10.6445 8.8877 10.6445H8.14941V6.02734C8.14941 5.72119 7.90086 5.47276 7.59473 5.47266H6.85547ZM7.40625 2.69922C6.89611 2.69937 6.48257 3.1129 6.48242 3.62305C6.48242 4.13332 6.89601 4.5477 7.40625 4.54785C7.91662 4.54785 8.33105 4.13341 8.33105 3.62305C8.3309 3.11281 7.91652 2.69922 7.40625 2.69922Z" fill="currentColor"/>
</svg>
