<svg xmlns="http://www.w3.org/2000/svg" width="251" height="251" viewBox="0 0 251 251" fill="none">
  <path opacity="0.3" d="M245.272 112.894L219.1 86.7189V49.7208C219.1 39.8784 211.112 31.8904 201.271 31.8904H164.277L138.105 5.71539C131.134 -1.23846 119.848 -1.23846 112.895 5.71539L86.723 31.8904H49.7289C39.8876 31.8904 31.9004 39.8784 31.9004 49.7208V86.7189L5.7282 112.894C-1.24274 119.848 -1.24274 131.152 5.7282 138.106L31.9004 164.281V201.279C31.9004 211.122 39.8876 219.11 49.7289 219.11H86.723L112.895 245.285C119.866 252.238 131.152 252.238 138.105 245.285L164.277 219.11H201.271C211.112 219.11 219.1 211.122 219.1 201.279V164.281L245.272 138.106C252.243 131.152 252.243 119.848 245.272 112.894Z" fill="var(--r-blue-light1, #EDF0FF)" stroke="var(--r-blue-light2, #DBE0FF)" stroke-linecap="round" stroke-linejoin="round"/>
</svg>