<svg width="20" height="20" viewBox="0 0 20 20" fill="none" xmlns="http://www.w3.org/2000/svg">
<path d="M18 10C18 14.4182 14.4182 18 10 18C5.58172 18 2 14.4182 2 10C2 5.58172 5.58172 2 10 2C14.4182 2 18 5.58172 18 10Z" fill="#9A9CA9"/>
<path fill-rule="evenodd" clip-rule="evenodd" d="M9.99992 4.58301C10.5752 4.58301 11.0416 5.04938 11.0416 5.62467C11.0416 6.19997 10.5752 6.66634 9.99992 6.66634C9.42463 6.66634 8.95825 6.19997 8.95825 5.62467C8.95825 5.04938 9.42463 4.58301 9.99992 4.58301Z" fill="white"/>
<path d="M10.2083 14.1663V8.33301H9.79167H9.375" fill="white"/>
<path d="M10.2083 14.1663V8.33301H9.79167H9.375" stroke="white" stroke-width="1.25" stroke-linecap="round" stroke-linejoin="round"/>
<path d="M8.75 14.167H11.6667H8.75Z" fill="white"/>
<path d="M8.75 14.167H11.6667" stroke="white" stroke-width="1.25" stroke-linecap="round" stroke-linejoin="round"/>
</svg>
