<svg width="12" height="12" viewBox="0 0 12 12" fill="none" xmlns="http://www.w3.org/2000/svg">
<path d="M12 0H0V12H12V0Z" fill="white" fill-opacity="0.01"/>
<path d="M5.0099 3.125C5.33055 3.0454 5.6623 3 6.00195 3C8.76338 3 11.002 6 11.002 6C11.002 6 10.4423 6.75 9.53748 7.5M2.46642 4.5C1.5616 5.25 1.00195 6 1.00195 6C1.00195 6 3.24053 9 6.00195 9C6.34443 9 6.67885 8.95385 7.00195 8.87302L2.46642 4.5Z" stroke="#707280" stroke-width="0.75" stroke-linecap="round" stroke-linejoin="round"/>
<path d="M5.0805 5.15479C4.87648 5.37726 4.75195 5.67381 4.75195 5.99946C4.75195 6.68981 5.3116 7.24946 6.00195 7.24946C6.34263 7.24946 6.65148 7.11316 6.87695 6.89214" stroke="#707280" stroke-width="0.75" stroke-linecap="round" stroke-linejoin="round"/>
<path d="M10.5 10.5L1.5 1.5" stroke="#707280" stroke-width="0.75" stroke-linecap="round" stroke-linejoin="round"/>
</svg>
