<svg width="1234" height="696" viewBox="0 0 1234 696" fill="none" xmlns="http://www.w3.org/2000/svg">
<g opacity="0.2">
<path opacity="0.3" d="M1200.79 16.7862C1203.78 16.0934 1206.77 17.9625 1207.46 20.9591L1232.59 130.205C1233.27 133.196 1231.41 136.179 1228.42 136.871L480.739 309.793C477.743 310.486 474.754 308.617 474.065 305.621L448.942 196.375C448.254 193.383 450.119 190.4 453.11 189.709L1200.79 16.7862Z" fill="url(#paint0_linear_118955_40598)"/>
<path opacity="0.3" d="M1111.37 243.044C1114.36 242.351 1117.35 244.22 1118.04 247.217L1143.16 356.463C1143.85 359.454 1141.99 362.437 1139 363.129L391.317 536.051C388.322 536.744 385.332 534.875 384.643 531.878L359.52 422.633C358.832 419.641 360.697 416.658 363.688 415.966L1111.37 243.044Z" fill="url(#paint1_linear_118955_40598)"/>
<path opacity="0.3" d="M1027.76 234.825C1030.75 234.133 1033.74 236.005 1034.43 239.004L1043.03 276.596C1043.72 279.587 1041.85 282.566 1038.86 283.257L365.621 438.811C362.623 439.504 359.633 437.631 358.946 434.632L350.344 397.04C349.659 394.05 351.525 391.07 354.514 390.379L1027.76 234.825Z" fill="url(#paint2_linear_118955_40598)"/>
<path opacity="0.3" d="M662.772 490.333C665.77 489.64 668.76 491.513 669.447 494.512L678.05 532.104C678.734 535.094 676.868 538.074 673.879 538.765L0.637 694.319C-2.36068 695.011 -5.35126 693.139 -6.03765 690.14L-14.6405 652.548C-15.3248 649.557 -13.4592 646.578 -10.4704 645.887L662.772 490.333Z" fill="url(#paint3_linear_118955_40598)"/>
<path opacity="0.3" d="M834.319 1.25488C837.316 0.562256 840.307 2.43462 840.993 5.43376L849.596 43.026C850.28 46.0163 848.415 48.9961 845.426 49.6867L172.184 205.241C169.186 205.933 166.195 204.061 165.509 201.062L156.906 163.469C156.222 160.479 158.087 157.499 161.076 156.809L834.319 1.25488Z" fill="url(#paint4_linear_118955_40598)"/>
</g>
<defs>
<linearGradient id="paint0_linear_118955_40598" x1="1220.11" y1="75.7112" x2="284.87" y2="224.172" gradientUnits="userSpaceOnUse">
<stop stop-color="white"/>
<stop offset="1" stop-color="white" stop-opacity="0"/>
</linearGradient>
<linearGradient id="paint1_linear_118955_40598" x1="1130.69" y1="301.969" x2="195.448" y2="450.43" gradientUnits="userSpaceOnUse">
<stop stop-color="white"/>
<stop offset="1" stop-color="white" stop-opacity="0"/>
</linearGradient>
<linearGradient id="paint2_linear_118955_40598" x1="1038.79" y1="257.838" x2="195.149" y2="319.134" gradientUnits="userSpaceOnUse">
<stop stop-color="white"/>
<stop offset="1" stop-color="white" stop-opacity="0"/>
</linearGradient>
<linearGradient id="paint3_linear_118955_40598" x1="673.806" y1="513.346" x2="-169.835" y2="574.642" gradientUnits="userSpaceOnUse">
<stop stop-color="white"/>
<stop offset="1" stop-color="white" stop-opacity="0"/>
</linearGradient>
<linearGradient id="paint4_linear_118955_40598" x1="845.352" y1="24.2675" x2="1.7115" y2="85.564" gradientUnits="userSpaceOnUse">
<stop stop-color="white"/>
<stop offset="1" stop-color="white" stop-opacity="0"/>
</linearGradient>
</defs>
</svg>
