<svg width="48" height="48" viewBox="0 0 48 48" fill="none" xmlns="http://www.w3.org/2000/svg">
<rect x="0.923077" y="0.923077" width="46.1538" height="46.1538" rx="23.0769" fill="#7084FF"/>
<rect x="0.923077" y="0.923077" width="46.1538" height="46.1538" rx="23.0769" stroke="white" stroke-width="1.84615"/>
<path d="M39.6554 25.9821C40.8973 23.1984 34.7578 15.4212 28.8925 12.1811C25.1953 9.67096 21.343 10.0158 20.5627 11.1179C18.8504 13.5366 26.2326 15.5861 31.1696 17.9777C30.1084 18.4402 29.1083 19.2702 28.5201 20.3316C26.6796 18.3154 22.6398 16.5792 17.8995 17.9777C14.7051 18.9202 12.0504 21.1421 11.0243 24.498C10.775 24.3868 10.499 24.325 10.2086 24.325C9.09802 24.325 8.19775 25.2283 8.19775 26.3426C8.19775 27.4569 9.09802 28.3602 10.2086 28.3602C10.4144 28.3602 11.058 28.2217 11.058 28.2217L21.343 28.2964C17.2298 34.8436 13.9792 35.8006 13.9792 36.9349C13.9792 38.0692 17.0894 37.7618 18.2572 37.339C23.8477 35.3151 29.8522 29.0072 30.8825 27.1914C35.2094 27.733 38.8457 27.7971 39.6554 25.9821Z" fill="url(#paint0_linear_118965_1409)"/>
<path fill-rule="evenodd" clip-rule="evenodd" d="M31.0897 17.9384C31.1166 17.9501 31.1434 17.9617 31.1701 17.9734C31.3989 17.883 31.3619 17.5438 31.299 17.2775C31.1546 16.6654 28.6627 14.1965 26.3227 13.0906C23.1312 11.5823 20.7818 11.6615 20.4382 12.3578C21.0853 13.6944 24.0981 14.9492 27.2449 16.2597C28.5572 16.8062 29.8928 17.3625 31.0897 17.9384Z" fill="url(#paint1_linear_118965_1409)"/>
<path fill-rule="evenodd" clip-rule="evenodd" d="M27.1216 31.4234C26.477 31.1762 25.7489 30.9495 24.9212 30.7438C25.8042 29.1584 25.9895 26.8115 25.1556 25.3276C23.9852 23.2451 22.5161 22.1367 19.1021 22.1367C17.2245 22.1367 12.1689 22.7713 12.0792 27.0058C12.0698 27.4494 12.0789 27.8561 12.1109 28.2301L21.343 28.2972C20.0979 30.2791 18.9319 31.7487 17.9111 32.8661C19.1368 33.1812 20.1482 33.4458 21.0767 33.6886C21.957 33.9189 22.7628 34.1297 23.606 34.3456C24.879 33.4151 26.0758 32.4005 27.1216 31.4234Z" fill="url(#paint2_linear_118965_1409)"/>
<path d="M10.9008 27.8013C11.2779 31.018 13.0999 32.2786 16.823 32.6517C20.546 33.0247 22.6816 32.7745 25.5248 33.034C27.8994 33.2508 30.0197 34.465 30.8063 34.0454C31.5142 33.6678 31.1181 32.3035 30.1709 31.4282C28.9431 30.2937 27.2437 29.5048 24.2536 29.2249C24.8495 27.5878 24.6825 25.2925 23.7571 24.0437C22.419 22.238 19.949 21.4216 16.823 21.7783C13.557 22.151 10.4275 23.7643 10.9008 27.8013Z" fill="url(#paint3_linear_118965_1409)"/>
<defs>
<linearGradient id="paint0_linear_118965_1409" x1="17.5276" y1="23.517" x2="39.3989" y2="29.6984" gradientUnits="userSpaceOnUse">
<stop stop-color="white"/>
<stop offset="1" stop-color="white"/>
</linearGradient>
<linearGradient id="paint1_linear_118965_1409" x1="35.7074" y1="23.095" x2="19.8809" y2="7.28171" gradientUnits="userSpaceOnUse">
<stop stop-color="#8697FF"/>
<stop offset="1" stop-color="#8697FF" stop-opacity="0"/>
</linearGradient>
<linearGradient id="paint2_linear_118965_1409" x1="27.5604" y1="31.9761" x2="12.3839" y2="23.2803" gradientUnits="userSpaceOnUse">
<stop stop-color="#8697FF"/>
<stop offset="1" stop-color="#8697FF" stop-opacity="0"/>
</linearGradient>
<linearGradient id="paint3_linear_118965_1409" x1="18.8323" y1="23.3604" x2="29.1166" y2="36.3836" gradientUnits="userSpaceOnUse">
<stop stop-color="white"/>
<stop offset="0.983895" stop-color="#D1D8FF"/>
</linearGradient>
</defs>
</svg>
