<svg width="14" height="14" viewBox="0 0 14 14" fill="none" xmlns="http://www.w3.org/2000/svg">
<g opacity="0.5">
<path d="M14 0H0V14H14V0Z" fill="white" fill-opacity="0.01"/>
<path d="M6.99837 12.8327C8.60919 12.8327 10.0675 12.1798 11.1232 11.1241C12.1788 10.0685 12.8317 8.61017 12.8317 6.99935C12.8317 5.38853 12.1788 3.9302 11.1232 2.87456C10.0675 1.81893 8.60919 1.16602 6.99837 1.16602C5.38756 1.16602 3.92922 1.81893 2.87358 2.87456C1.81796 3.9302 1.16504 5.38853 1.16504 6.99935C1.16504 8.61017 1.81796 10.0685 2.87358 11.1241C3.92922 12.1798 5.38756 12.8327 6.99837 12.8327Z" fill="white" stroke="white" stroke-width="1.16667" stroke-linejoin="round"/>
<path fill-rule="evenodd" clip-rule="evenodd" d="M7.00163 3.20898C7.40433 3.20898 7.73079 3.53545 7.73079 3.93815C7.73079 4.34085 7.40433 4.66732 7.00163 4.66732C6.59892 4.66732 6.27246 4.34085 6.27246 3.93815C6.27246 3.53545 6.59892 3.20898 7.00163 3.20898Z" fill="#8697FF"/>
<path d="M7.14583 9.91732V5.83398H6.85417H6.5625" stroke="#8697FF" stroke-width="1.16667" stroke-linecap="round" stroke-linejoin="round"/>
<path d="M6.125 9.91602H8.16667" stroke="#8697FF" stroke-width="1.16667" stroke-linecap="round" stroke-linejoin="round"/>
</g>
</svg>
