<svg width="16" height="16" viewBox="0 0 16 16" fill="none" xmlns="http://www.w3.org/2000/svg">
    <g clip-path="url(#clip0_42181_83121)">
        <path
            d="M7.99967 14.6663C9.84061 14.6663 11.5073 13.9201 12.7137 12.7137C13.9201 11.5073 14.6663 9.84061 14.6663 7.99967C14.6663 6.15874 13.9201 4.49207 12.7137 3.28563C11.5073 2.0792 9.84061 1.33301 7.99967 1.33301C6.15874 1.33301 4.49207 2.0792 3.28563 3.28563C2.0792 4.49207 1.33301 6.15874 1.33301 7.99967C1.33301 9.84061 2.0792 11.5073 3.28563 12.7137C4.49207 13.9201 6.15874 14.6663 7.99967 14.6663Z"
            stroke="white" stroke-linejoin="round" />
        <path d="M5.33301 8L7.33301 10L11.333 6" stroke="white" stroke-linecap="round"
            stroke-linejoin="round" />
    </g>
    <defs>
        <clipPath id="clip0_42181_83121">
            <rect width="16" height="16" fill="white" />
        </clipPath>
    </defs>
</svg>