<svg width="14" height="14" viewBox="0 0 14 14" fill="none" xmlns="http://www.w3.org/2000/svg">
<path d="M5.48026 1.75H11.2829C11.5394 1.75 11.7854 1.85189 11.9667 2.03326C12.1481 2.21463 12.25 2.46061 12.25 2.71711V8.51974C12.25 8.77623 12.1481 9.02222 11.9667 9.20358C11.7854 9.38495 11.5394 9.48684 11.2829 9.48684H5.48026C5.22377 9.48684 4.97778 9.38495 4.79642 9.20358C4.61505 9.02222 4.51316 8.77623 4.51316 8.51974V2.71711C4.51316 2.46061 4.61505 2.21463 4.79642 2.03326C4.97778 1.85189 5.22377 1.75 5.48026 1.75V1.75ZM5.48026 2.57895C5.44362 2.57895 5.40848 2.5935 5.38257 2.61941C5.35666 2.64532 5.34211 2.68046 5.34211 2.71711V8.51974C5.34211 8.53788 5.34568 8.55585 5.35262 8.57261C5.35957 8.58937 5.36974 8.6046 5.38257 8.61743C5.3954 8.63026 5.41063 8.64044 5.42739 8.64738C5.44415 8.65432 5.46212 8.65789 5.48026 8.65789H11.2829C11.3195 8.65789 11.3547 8.64334 11.3806 8.61743C11.4065 8.59152 11.4211 8.55638 11.4211 8.51974V2.71711C11.4211 2.68046 11.4065 2.64532 11.3806 2.61941C11.3547 2.5935 11.3195 2.57895 11.2829 2.57895H5.48026ZM8.65789 10.3158C8.65789 10.2059 8.70156 10.1004 8.77929 10.0227C8.85702 9.94498 8.96244 9.90132 9.07237 9.90132C9.18229 9.90132 9.28772 9.94498 9.36545 10.0227C9.44318 10.1004 9.48684 10.2059 9.48684 10.3158V11.2829C9.48684 11.5394 9.38495 11.7854 9.20358 11.9667C9.02222 12.1481 8.77623 12.25 8.51974 12.25H2.71711C2.46061 12.25 2.21463 12.1481 2.03326 11.9667C1.85189 11.7854 1.75 11.5394 1.75 11.2829V5.48026C1.75 5.22377 1.85189 4.97778 2.03326 4.79642C2.21463 4.61505 2.46061 4.51316 2.71711 4.51316H3.68421C3.79414 4.51316 3.89956 4.55683 3.97729 4.63455C4.05502 4.71228 4.09868 4.81771 4.09868 4.92763C4.09868 5.03756 4.05502 5.14298 3.97729 5.22071C3.89956 5.29844 3.79414 5.34211 3.68421 5.34211H2.71711C2.68046 5.34211 2.64532 5.35666 2.61941 5.38257C2.5935 5.40848 2.57895 5.44362 2.57895 5.48026V11.2829C2.57895 11.3195 2.5935 11.3547 2.61941 11.3806C2.64532 11.4065 2.68046 11.4211 2.71711 11.4211H8.51974C8.55638 11.4211 8.59152 11.4065 8.61743 11.3806C8.64334 11.3547 8.65789 11.3195 8.65789 11.2829V10.3158Z" fill="#707880"/>
</svg>
