<svg width="52" height="16" viewBox="0 0 52 16" fill="none" xmlns="http://www.w3.org/2000/svg">
  <rect width="52" height="16" rx="4" fill="#2ABB7F" />
  <g clip-path="url(#clip0_160193_1030)">
    <path
      d="M10.5908 2.36548C10.8914 1.88388 12.1808 2.04461 13.7959 2.8313C17.2943 4.53528 17.9998 7.47152 18 8.77954C18 9.60829 17.4355 10.5507 14.6729 9.84595C14.5105 10.2626 14.312 10.6302 14.084 10.9592C14.3068 11.0958 14.4949 11.2392 14.6348 11.386C14.9993 11.7685 15.1513 12.3645 14.8789 12.5295C14.6354 12.6766 13.8362 12.271 13.0576 12.0559C12.1286 12.8137 10.9656 13.3142 9.7041 13.8333C9.25485 14.0181 8.05832 14.152 8.05762 13.6565C8.05762 13.3092 8.8375 12.9819 9.84961 11.8352C9.63236 11.8207 9.40105 11.8031 9.15137 11.7747C7.78848 11.6195 7.0884 11.113 6.89844 9.85376C6.82734 9.87035 6.66726 9.90649 6.60645 9.90649C6.17912 9.90648 6 9.51097 6 9.02368C6.00005 8.53649 6.17918 8.14186 6.60645 8.14185C6.71803 8.14185 6.8241 8.16856 6.91992 8.21704C7.31476 6.74947 8.3372 5.77763 9.56641 5.36548C11.3903 4.75416 12.9451 5.51315 13.6533 6.39478C13.8794 5.9314 14.2632 5.56878 14.6709 5.36646C14.6583 5.36021 14.6455 5.35415 14.6328 5.3479C13.3335 4.63931 11.6169 3.99571 10.8701 3.32544C10.8566 3.31331 10.844 3.30048 10.8311 3.28833C10.791 3.25053 10.7542 3.21306 10.7207 3.17505C10.6988 3.15028 10.6782 3.1257 10.6592 3.10083C10.6235 3.05372 10.5917 3.00773 10.5674 2.96021C10.5625 2.95081 10.5581 2.9413 10.5537 2.93188C10.5505 2.92496 10.5469 2.91831 10.5439 2.91138L10.5449 2.90942C10.4688 2.7319 10.4751 2.55128 10.5908 2.36548Z"
      fill="white" />
  </g>
  <path
    d="M21.7109 12H20.375L22.1738 3.54492H27.4648L27.2188 4.74023H23.2695L22.6895 7.33594H26.3164L26.0762 8.49609H22.4551L21.7109 12ZM27.1777 12L28.5312 5.61914H29.7559L29.5801 6.45703H29.6738C29.8691 6.14453 30.1055 5.91016 30.3828 5.75391C30.6602 5.59375 30.9785 5.51367 31.3379 5.51367C31.4824 5.51367 31.627 5.52344 31.7715 5.54297C31.9199 5.5625 32.0332 5.58789 32.1113 5.61914L31.8477 6.84961C31.7461 6.81836 31.6074 6.79102 31.4316 6.76758C31.2559 6.74414 31.1074 6.73242 30.9863 6.73242C30.6699 6.73242 30.3945 6.79102 30.1602 6.9082C29.9258 7.02539 29.7324 7.20312 29.5801 7.44141C29.4277 7.67578 29.3105 7.97461 29.2285 8.33789L28.4492 12H27.1777ZM33.7109 8.18555H36.916C36.9199 8.16602 36.9219 8.13086 36.9219 8.08008C36.9258 8.0293 36.9277 7.98047 36.9277 7.93359C36.9277 7.68359 36.875 7.45703 36.7695 7.25391C36.668 7.04688 36.5156 6.88086 36.3125 6.75586C36.1133 6.63086 35.8691 6.56836 35.5801 6.56836C35.2754 6.56836 34.998 6.63672 34.748 6.77344C34.502 6.90625 34.2891 7.09375 34.1094 7.33594C33.9336 7.57812 33.8008 7.86133 33.7109 8.18555ZM34.9707 12.123C34.4707 12.123 34.0176 12.0195 33.6113 11.8125C33.209 11.6016 32.8887 11.2949 32.6504 10.8926C32.416 10.4863 32.2988 9.99609 32.2988 9.42188C32.2988 8.83594 32.3809 8.30273 32.5449 7.82227C32.709 7.33789 32.9395 6.92383 33.2363 6.58008C33.5371 6.23242 33.8926 5.96484 34.3027 5.77734C34.7168 5.58984 35.1699 5.49609 35.6621 5.49609C36.123 5.49609 36.543 5.59961 36.9219 5.80664C37.3047 6.01367 37.6094 6.31445 37.8359 6.70898C38.0664 7.09961 38.1816 7.56836 38.1816 8.11523C38.1816 8.24023 38.1719 8.4043 38.1523 8.60742C38.1367 8.81055 38.1172 8.97852 38.0938 9.11133H33.5586C33.5547 9.1543 33.5508 9.19727 33.5469 9.24023C33.5469 9.2832 33.5469 9.32617 33.5469 9.36914C33.5469 9.75977 33.6191 10.0762 33.7637 10.3184C33.9121 10.5605 34.1016 10.7383 34.332 10.8516C34.5625 10.9648 34.8027 11.0215 35.0527 11.0215C35.4355 11.0215 35.7461 10.9551 35.9844 10.8223C36.2266 10.6855 36.4062 10.5059 36.5234 10.2832H37.8008C37.7109 10.6387 37.5391 10.9551 37.2852 11.2324C37.0312 11.5098 36.709 11.7285 36.3184 11.8887C35.9277 12.0449 35.4785 12.123 34.9707 12.123ZM40.7656 8.18555H43.9707C43.9746 8.16602 43.9766 8.13086 43.9766 8.08008C43.9805 8.0293 43.9824 7.98047 43.9824 7.93359C43.9824 7.68359 43.9297 7.45703 43.8242 7.25391C43.7227 7.04688 43.5703 6.88086 43.3672 6.75586C43.168 6.63086 42.9238 6.56836 42.6348 6.56836C42.3301 6.56836 42.0527 6.63672 41.8027 6.77344C41.5566 6.90625 41.3438 7.09375 41.1641 7.33594C40.9883 7.57812 40.8555 7.86133 40.7656 8.18555ZM42.0254 12.123C41.5254 12.123 41.0723 12.0195 40.666 11.8125C40.2637 11.6016 39.9434 11.2949 39.7051 10.8926C39.4707 10.4863 39.3535 9.99609 39.3535 9.42188C39.3535 8.83594 39.4355 8.30273 39.5996 7.82227C39.7637 7.33789 39.9941 6.92383 40.291 6.58008C40.5918 6.23242 40.9473 5.96484 41.3574 5.77734C41.7715 5.58984 42.2246 5.49609 42.7168 5.49609C43.1777 5.49609 43.5977 5.59961 43.9766 5.80664C44.3594 6.01367 44.6641 6.31445 44.8906 6.70898C45.1211 7.09961 45.2363 7.56836 45.2363 8.11523C45.2363 8.24023 45.2266 8.4043 45.207 8.60742C45.1914 8.81055 45.1719 8.97852 45.1484 9.11133H40.6133C40.6094 9.1543 40.6055 9.19727 40.6016 9.24023C40.6016 9.2832 40.6016 9.32617 40.6016 9.36914C40.6016 9.75977 40.6738 10.0762 40.8184 10.3184C40.9668 10.5605 41.1562 10.7383 41.3867 10.8516C41.6172 10.9648 41.8574 11.0215 42.1074 11.0215C42.4902 11.0215 42.8008 10.9551 43.0391 10.8223C43.2812 10.6855 43.4609 10.5059 43.5781 10.2832H44.8555C44.7656 10.6387 44.5938 10.9551 44.3398 11.2324C44.0859 11.5098 43.7637 11.7285 43.373 11.8887C42.9824 12.0449 42.5332 12.123 42.0254 12.123Z"
    fill="white" />
  <defs>
    <clipPath id="clip0_160193_1030">
      <rect width="12" height="12" fill="white" transform="translate(6 2)" />
    </clipPath>
  </defs>
</svg>