<svg width="100" height="100" viewBox="0 0 100 100" fill="none" xmlns="http://www.w3.org/2000/svg">
<path d="M85.6391 54.5128C88.4675 48.1729 74.4846 30.4602 61.1262 23.0807C52.7059 17.364 43.9321 18.1494 42.1551 20.6594C38.2553 26.1681 55.0683 30.8358 66.3125 36.2828C63.8954 37.3361 61.6177 39.2263 60.2782 41.6437C56.0863 37.0518 46.8856 33.0975 36.0896 36.2828C28.8143 38.4292 22.7681 43.4896 20.4312 51.1327C19.8634 50.8795 19.2347 50.7389 18.5733 50.7389C16.044 50.7389 13.9937 52.7962 13.9937 55.334C13.9937 57.8718 16.044 59.929 18.5733 59.929C19.0421 59.929 20.5079 59.6135 20.5079 59.6135L43.9321 59.7838C34.5643 74.695 27.161 76.8748 27.161 79.4581C27.161 82.0414 34.2446 81.3414 36.9043 80.3784C49.6367 75.7688 63.3119 61.4026 65.6586 57.267C75.5131 58.5007 83.7949 58.6466 85.6391 54.5128Z" fill="url(#paint0_linear_26849_7844)"/>
<path fill-rule="evenodd" clip-rule="evenodd" d="M66.3116 36.2839C66.3122 36.2841 66.3128 36.2844 66.3134 36.2846C66.8345 36.0786 66.7502 35.3063 66.6071 34.6998C66.2782 33.3057 60.6029 27.6826 55.2734 25.1639C48.0112 21.7319 42.6635 21.9089 41.8735 23.4907C43.3528 26.5328 50.2107 29.3889 57.3732 32.3719C60.4289 33.6446 63.5401 34.9403 66.3127 36.2834C66.3123 36.2836 66.312 36.2837 66.3116 36.2839Z" fill="url(#paint1_linear_26849_7844)"/>
<path fill-rule="evenodd" clip-rule="evenodd" d="M57.0958 66.8994C55.6272 66.3362 53.9682 65.8196 52.082 65.3507C54.0931 61.7401 54.5151 56.3949 52.6158 53.0153C49.9503 48.2725 46.6043 45.748 38.829 45.748C34.5526 45.7481 23.0386 47.1933 22.8342 56.8374C22.8127 57.8493 22.8336 58.7767 22.9066 59.6295L43.9321 59.7824C41.0975 64.2943 38.4429 67.6405 36.1187 70.185C38.9092 70.9024 41.2119 71.5048 43.3261 72.0577C45.3321 72.5824 47.1682 73.0627 49.09 73.5547C51.989 71.4355 54.7144 69.1247 57.0958 66.8994Z" fill="url(#paint2_linear_26849_7844)"/>
<path d="M20.1509 58.6406C21.0098 65.9667 25.1594 68.8378 33.6387 69.6875C42.118 70.5371 46.9819 69.9672 53.4573 70.5583C58.8655 71.052 63.6944 73.8173 65.4859 72.8617C67.0981 72.0016 66.1961 68.8945 64.0388 66.9011C61.2424 64.3171 57.3721 62.5205 50.5622 61.8829C51.9193 58.1545 51.539 52.9268 49.4312 50.0826C46.3836 45.9702 40.7583 44.1109 33.6387 44.9232C26.2003 45.7719 19.0729 49.4464 20.1509 58.6406Z" fill="url(#paint3_linear_26849_7844)"/>
<defs>
<linearGradient id="paint0_linear_26849_7844" x1="35.2424" y1="48.8985" x2="85.0549" y2="62.9769" gradientUnits="userSpaceOnUse">
<stop stop-color="#8697FF"/>
<stop offset="1" stop-color="#ABB7FF"/>
</linearGradient>
<linearGradient id="paint1_linear_26849_7844" x1="76.6465" y1="47.9491" x2="40.6013" y2="11.9371" gradientUnits="userSpaceOnUse">
<stop stop-color="#8697FF"/>
<stop offset="1" stop-color="#5156D8" stop-opacity="0"/>
</linearGradient>
<linearGradient id="paint2_linear_26849_7844" x1="58.0953" y1="68.1581" x2="23.5288" y2="48.3515" gradientUnits="userSpaceOnUse">
<stop stop-color="#465EED"/>
<stop offset="1" stop-color="#8697FF" stop-opacity="0"/>
</linearGradient>
<linearGradient id="paint3_linear_26849_7844" x1="38.215" y1="48.5263" x2="61.6376" y2="78.1871" gradientUnits="userSpaceOnUse">
<stop stop-color="#8898FF"/>
<stop offset="0.983895" stop-color="#6277F1"/>
</linearGradient>
</defs>
</svg>
