<svg width="20" height="20" viewBox="0 0 20 20" fill="none" xmlns="http://www.w3.org/2000/svg">
<path d="M10 9.21604L4.36009 3.39711C4.25905 3.29288 4.1391 3.21021 4.00708 3.1538C3.87506 3.09739 3.73356 3.06836 3.59067 3.06836C3.44777 3.06836 3.30628 3.09739 3.17426 3.1538C3.04224 3.21021 2.92229 3.29288 2.82125 3.39711C2.7202 3.50133 2.64005 3.62507 2.58537 3.76125C2.53068 3.89743 2.50254 4.04338 2.50254 4.19078C2.50254 4.33818 2.53068 4.48413 2.58537 4.62031C2.64005 4.75649 2.7202 4.88022 2.82125 4.98445L8.45988 10.8034L2.81871 16.621C2.71766 16.7252 2.63751 16.849 2.58283 16.9851C2.52815 17.1213 2.5 17.2673 2.5 17.4147C2.5 17.5621 2.52815 17.708 2.58283 17.8442C2.63751 17.9804 2.71766 18.1041 2.81871 18.2083C2.91975 18.3126 3.0397 18.3952 3.17172 18.4516C3.30374 18.5081 3.44524 18.5371 3.58813 18.5371C3.73103 18.5371 3.87252 18.5081 4.00454 18.4516C4.13656 18.3952 4.25651 18.3126 4.35755 18.2083L10 12.392L15.6399 18.211C15.7409 18.3152 15.8609 18.3979 15.9929 18.4543C16.1249 18.5107 16.2664 18.5397 16.4093 18.5397C16.5522 18.5397 16.6937 18.5107 16.8257 18.4543C16.9578 18.3979 17.0777 18.3152 17.1788 18.211C17.2798 18.1067 17.3599 17.983 17.4146 17.8468C17.4693 17.7106 17.4975 17.5647 17.4975 17.4173C17.4975 17.2699 17.4693 17.1239 17.4146 16.9878C17.3599 16.8516 17.2798 16.7278 17.1788 16.6236L11.5401 10.8034L17.1813 4.98576C17.2823 4.88153 17.3625 4.7578 17.4172 4.62162C17.4719 4.48544 17.5 4.33949 17.5 4.19209C17.5 4.04469 17.4719 3.89873 17.4172 3.76256C17.3625 3.62638 17.2823 3.50264 17.1813 3.39842C17.0803 3.29419 16.9603 3.21152 16.8283 3.15511C16.6963 3.0987 16.5548 3.06967 16.4119 3.06967C16.269 3.06967 16.1275 3.0987 15.9955 3.15511C15.8634 3.21152 15.7435 3.29419 15.6424 3.39842L10 9.21473V9.21604Z" fill="#707880"/>
</svg>
