<svg width="14" height="14" viewBox="0 0 14 14" fill="none" xmlns="http://www.w3.org/2000/svg">
    <g clip-path="url(#clip0_47651_21041)">
        <path d="M7.0013 12.8346C8.61212 12.8346 10.0705 12.1817 11.1261 11.1261C12.1817 10.0705 12.8346 8.61212 12.8346 7.0013C12.8346 5.39049 12.1817 3.93215 11.1261 2.87651C10.0705 1.82089 8.61212 1.16797 7.0013 1.16797C5.39049 1.16797 3.93215 1.82089 2.87651 2.87651C1.82089 3.93215 1.16797 5.39049 1.16797 7.0013C1.16797 8.61212 1.82089 10.0705 2.87651 11.1261C3.93215 12.1817 5.39049 12.8346 7.0013 12.8346Z" stroke="#707280" stroke-linejoin="round" />
        <path d="M7 8.35026V7.18359C7.9665 7.18359 8.75 6.40009 8.75 5.43359C8.75 4.4671 7.9665 3.68359 7 3.68359C6.0335 3.68359 5.25 4.4671 5.25 5.43359" stroke="#707280" stroke-linecap="round" stroke-linejoin="round" />
        <path fill-rule="evenodd" clip-rule="evenodd" d="M6.9987 10.974C7.4014 10.974 7.72786 10.6475 7.72786 10.2448C7.72786 9.84209 7.4014 9.51562 6.9987 9.51562C6.59599 9.51562 6.26953 9.84209 6.26953 10.2448C6.26953 10.6475 6.59599 10.974 6.9987 10.974Z" fill="#707280" />
    </g>
    <defs>
        <clipPath id="clip0_47651_21041">
            <rect width="14" height="14" fill="white" />
        </clipPath>
    </defs>
</svg>
    