<svg xmlns="http://www.w3.org/2000/svg" width="36" height="30" viewBox="0 0 36 30" fill="none">
    <path
        d="M34.9598 17.1523C36.3051 14.1366 29.654 5.71133 23.2999 2.20119C19.2947 -0.51808 15.1213 -0.144498 14.276 1.04946C12.421 3.66973 20.4184 5.89 25.7668 8.48091C24.6171 8.98193 23.5337 9.88106 22.8965 11.0309C20.9026 8.84672 16.5261 6.9658 11.3908 8.48091C7.93028 9.50191 5.05428 11.9089 3.94273 15.5445C3.67264 15.4241 3.3736 15.3572 3.05899 15.3572C1.85591 15.3572 0.880615 16.3357 0.880615 17.5429C0.880615 18.75 1.85591 19.7286 3.05899 19.7286C3.28199 19.7286 3.97923 19.5785 3.97923 19.5785L15.1213 19.6595C10.6653 26.7522 7.14386 27.7891 7.14386 29.0179C7.14386 30.2466 10.5133 29.9137 11.7784 29.4556C17.8347 27.263 24.3396 20.4295 25.4558 18.4624C30.1432 19.0492 34.0825 19.1186 34.9598 17.1523Z"
        fill="url(#paint0_linear_103772_895)" />
    <path fill-rule="evenodd" clip-rule="evenodd"
        d="M25.7663 8.48139C25.7666 8.48152 25.7669 8.48165 25.7672 8.48178C26.0151 8.38379 25.975 8.01641 25.9069 7.72791C25.7504 7.06481 23.0509 4.39007 20.5158 3.19204C17.0617 1.55967 14.5181 1.64373 14.1421 2.39601C14.8456 3.84306 18.1078 5.20164 21.5147 6.62056C22.9683 7.22591 24.4481 7.84224 25.767 8.48111C25.7667 8.4812 25.7665 8.4813 25.7663 8.48139Z"
        fill="url(#paint1_linear_103772_895)" />
    <path fill-rule="evenodd" clip-rule="evenodd"
        d="M21.3828 23.0448C20.6842 22.7769 19.8951 22.5312 18.9979 22.3082C19.9545 20.5907 20.1553 18.0482 19.2518 16.4407C17.9839 14.1847 16.3924 12.9839 12.6939 12.9839C10.6598 12.9839 5.183 13.6714 5.08577 18.2587C5.07557 18.74 5.08552 19.1811 5.12024 19.5868L15.1213 19.6595C13.773 21.8056 12.5103 23.3973 11.4047 24.6077C12.7321 24.9489 13.8275 25.2354 14.8331 25.4985C15.7873 25.7481 16.6606 25.9765 17.5747 26.2105C18.9537 25.2025 20.25 24.1033 21.3828 23.0448Z"
        fill="url(#paint2_linear_103772_895)" />
    <path
        d="M3.8092 19.1153C4.21776 22.6 6.19158 23.9657 10.2249 24.3699C14.2582 24.774 16.5718 24.5029 19.6519 24.7841C22.2244 25.0189 24.5213 26.3343 25.3734 25.8797C26.1403 25.4706 25.7113 23.9927 24.6851 23.0445C23.355 21.8154 21.514 20.9608 18.2748 20.6575C18.9203 18.8841 18.7394 16.3974 17.7368 15.0445C16.2872 13.0884 13.6114 12.204 10.2249 12.5904C6.68672 12.9941 3.29647 14.7419 3.8092 19.1153Z"
        fill="url(#paint3_linear_103772_895)" />
    <defs>
        <linearGradient id="paint0_linear_103772_895" x1="10.9879" y1="14.4817" x2="34.6819" y2="21.1783"
            gradientUnits="userSpaceOnUse">
            <stop stop-color="white" />
            <stop offset="1" stop-color="white" />
        </linearGradient>
        <linearGradient id="paint1_linear_103772_895" x1="30.6822" y1="14.0301" x2="13.5368" y2="-3.09935"
            gradientUnits="userSpaceOnUse">
            <stop stop-color="#8697FF" />
            <stop offset="1" stop-color="#8697FF" stop-opacity="0" />
        </linearGradient>
        <linearGradient id="paint2_linear_103772_895" x1="21.8582" y1="23.6435" x2="5.41616" y2="14.2223"
            gradientUnits="userSpaceOnUse">
            <stop stop-color="#8697FF" />
            <stop offset="1" stop-color="#8697FF" stop-opacity="0" />
        </linearGradient>
        <linearGradient id="paint3_linear_103772_895" x1="12.4017" y1="14.3043" x2="23.5429" y2="28.4128"
            gradientUnits="userSpaceOnUse">
            <stop stop-color="white" />
            <stop offset="0.983895" stop-color="#D1D8FF" />
        </linearGradient>
    </defs>
</svg>