<svg width="15" height="15" viewBox="0 0 15 15" fill="none" xmlns="http://www.w3.org/2000/svg">
<path d="M5.7132 13.4916C4.66598 13.1798 3.73382 12.601 2.99572 11.834C3.27107 11.5077 3.43701 11.086 3.43701 10.6256C3.43701 9.59008 2.59755 8.75061 1.56201 8.75061C1.49937 8.75061 1.43745 8.75371 1.37638 8.75971C1.2932 8.35299 1.24951 7.93192 1.24951 7.50061C1.24951 6.8473 1.34975 6.21739 1.5357 5.62543C1.54445 5.62555 1.55322 5.62561 1.56201 5.62561C2.59755 5.62561 3.43701 4.78614 3.43701 3.75061C3.43701 3.45333 3.36782 3.17224 3.2447 2.92249C3.96748 2.25043 4.84967 1.74746 5.82829 1.47656C6.13839 2.08439 6.77036 2.50062 7.49951 2.50062C8.22867 2.50062 8.86064 2.08439 9.17073 1.47656C10.1494 1.74746 11.0315 2.25043 11.7543 2.92249C11.6312 3.17224 11.562 3.45333 11.562 3.75061C11.562 4.78614 12.4015 5.62561 13.437 5.62561C13.4458 5.62561 13.4546 5.62555 13.4633 5.62543C13.6493 6.21739 13.7495 6.8473 13.7495 7.50061C13.7495 7.93192 13.7058 8.35299 13.6226 8.75971C13.5616 8.75371 13.4997 8.75061 13.437 8.75061C12.4015 8.75061 11.562 9.59008 11.562 10.6256C11.562 11.086 11.7279 11.5077 12.0033 11.834C11.2652 12.601 10.333 13.1798 9.28582 13.4916C9.04414 12.7356 8.33576 12.1881 7.49951 12.1881C6.66326 12.1881 5.95489 12.7356 5.7132 13.4916Z" stroke="#8697FF" stroke-width="0.9375" stroke-linejoin="round"/>
<path d="M7.50049 9.68945C8.70861 9.68945 9.68799 8.71008 9.68799 7.50195C9.68799 6.29383 8.70861 5.31445 7.50049 5.31445C6.29236 5.31445 5.31299 6.29383 5.31299 7.50195C5.31299 8.71008 6.29236 9.68945 7.50049 9.68945Z" stroke="#8697FF" stroke-width="0.9375" stroke-linejoin="round"/>
</svg>
