<svg width="20" height="20" viewBox="0 0 20 20" fill="none" xmlns="http://www.w3.org/2000/svg">
    <path d="M2.5 5.66406H5M17.5 5.66406H10M2.5 13.4974H11.9381M18.5 13.4974H17" stroke="var(--r-neutral-title-1, rgba(247, 250, 252, 1))"
        stroke-width="2" stroke-linecap="round" />
    <path
        d="M7.5 8C8.88071 8 10 6.88071 10 5.5C10 4.11929 8.88071 3 7.5 3C6.11929 3 5 4.11929 5 5.5C5 6.88071 6.11929 8 7.5 8Z"
        stroke="var(--r-neutral-title-1, rgba(247, 250, 252, 1))" stroke-width="2" stroke-linecap="round" />
    <path
        d="M14.5 16C15.8807 16 17 14.8807 17 13.5C17 12.1193 15.8807 11 14.5 11C13.1193 11 12 12.1193 12 13.5C12 14.8807 13.1193 16 14.5 16Z"
        stroke="var(--r-neutral-title-1, rgba(247, 250, 252, 1))" stroke-width="2" stroke-linecap="round" />
</svg>