<svg width="16" height="15" viewBox="0 0 16 15" fill="none" xmlns="http://www.w3.org/2000/svg">
<path d="M2.94926 8.95752C3.06779 8.95718 3.18134 8.9099 3.26503 8.82605C3.34872 8.74221 3.39572 8.62863 3.39572 8.51023V5.35207C3.39572 4.80524 3.85124 4.40837 4.47758 4.40837H12.1192L11.3609 5.16204C11.3191 5.20328 11.2859 5.2524 11.2633 5.30654C11.2406 5.36069 11.229 5.41879 11.229 5.47747C11.229 5.53615 11.2406 5.59425 11.2633 5.64839C11.2859 5.70254 11.3191 5.75165 11.3609 5.7929C11.4459 5.87413 11.559 5.91946 11.6766 5.91946C11.7943 5.91946 11.9074 5.87413 11.9924 5.7929L13.2502 4.5454C13.3278 4.46882 13.3894 4.37762 13.4314 4.2771C13.4734 4.17658 13.495 4.06873 13.495 3.95979C13.495 3.85086 13.4734 3.74301 13.4314 3.64249C13.3894 3.54196 13.3278 3.45077 13.2502 3.37418L11.9898 2.12928C11.9054 2.04604 11.7914 1.99957 11.6727 2C11.5845 2.00049 11.4984 2.02709 11.4252 2.07645C11.3521 2.12582 11.2953 2.19572 11.2619 2.27734C11.2285 2.35896 11.2201 2.44863 11.2377 2.53502C11.2553 2.62141 11.2982 2.70065 11.3609 2.76272L12.1192 3.51638H4.48405C3.981 3.50773 3.492 3.68236 3.10843 4.00762C2.9158 4.17449 2.76168 4.38109 2.65667 4.61319C2.55167 4.84529 2.49829 5.09738 2.50021 5.35207V8.51023C2.50004 8.56913 2.51154 8.62747 2.53407 8.6819C2.55659 8.73633 2.58968 8.78577 2.63143 8.82735C2.67318 8.86894 2.72276 8.90185 2.77731 8.92419C2.83186 8.94653 2.8903 8.95786 2.94926 8.95752ZM13.0587 6.04239C12.9999 6.04239 12.9417 6.05396 12.8874 6.07644C12.833 6.09892 12.7837 6.13187 12.7421 6.1734C12.7005 6.21494 12.6675 6.26424 12.645 6.31851C12.6225 6.37278 12.611 6.43094 12.611 6.48968V9.39576C12.611 10.0318 12.105 10.5915 11.5291 10.5915H3.87324L4.63158 9.83787C4.69418 9.77588 4.73701 9.69676 4.75467 9.61049C4.77233 9.52422 4.76403 9.43465 4.73082 9.35309C4.6976 9.27152 4.64096 9.2016 4.56803 9.15214C4.4951 9.10268 4.40914 9.07589 4.321 9.07516C4.26195 9.07412 4.2033 9.08504 4.14858 9.10725C4.09387 9.12947 4.04423 9.16253 4.00265 9.20443L2.74479 10.4519C2.66724 10.5285 2.60568 10.6197 2.56366 10.7202C2.52164 10.8207 2.5 10.9286 2.5 11.0375C2.5 11.1465 2.52164 11.2543 2.56366 11.3548C2.60568 11.4554 2.66724 11.5466 2.74479 11.6231L4.00265 12.8706C4.04429 12.9119 4.09365 12.9445 4.14792 12.9667C4.20219 12.9889 4.2603 13.0002 4.31894 13C4.37759 12.9998 4.43561 12.988 4.48969 12.9653C4.54378 12.9427 4.59287 12.9096 4.63417 12.868C4.67546 12.8265 4.70815 12.7771 4.73037 12.7229C4.75259 12.6687 4.76391 12.6107 4.76366 12.5521C4.76342 12.4935 4.75164 12.4355 4.72897 12.3815C4.70631 12.3275 4.67322 12.2784 4.63158 12.2372L3.87324 11.4835H11.5291C11.7976 11.4807 12.0624 11.4209 12.306 11.3081C12.5496 11.1954 12.7665 11.0322 12.9422 10.8294C13.2969 10.4354 13.4953 9.92558 13.5 9.39576V6.48968C13.5 6.37216 13.4537 6.25936 13.3712 6.17566C13.2886 6.09197 13.1763 6.04409 13.0587 6.04239Z" fill="#8697FF"/>
</svg>
