<svg width="24" height="24" viewBox="0 0 24 24" fill="none" xmlns="http://www.w3.org/2000/svg">
    <rect width="24" height="24" rx="12" fill="#FFEAF7" />
    <path fill-rule="evenodd" clip-rule="evenodd"
        d="M9.67573 9.21327C9.64085 9.34784 9.58001 9.47419 9.49659 9.58519C9.34131 9.78761 9.13581 9.94545 8.90067 10.043C8.68922 10.1345 8.46522 10.1937 8.23627 10.2185C8.18919 10.2245 8.14043 10.2282 8.09312 10.2318L8.08542 10.2324C7.94041 10.2379 7.80099 10.29 7.68754 10.3808C7.57408 10.4718 7.49259 10.5968 7.45497 10.7375C7.43776 10.8076 7.42492 10.8787 7.41664 10.9503C7.40346 11.0584 7.39669 11.1691 7.38934 11.2888C7.38409 11.3747 7.37849 11.4652 7.37009 11.5628C7.32086 11.9604 7.20635 12.3471 7.0313 12.707C6.99554 12.7827 6.95908 12.8561 6.92321 12.9281C6.7313 13.3143 6.55788 13.6631 6.60763 14.1303C6.6466 14.4902 6.83017 14.7314 7.07406 14.9802C7.1899 15.0992 7.34349 15.2009 7.50292 15.3065C7.94916 15.6019 8.44113 15.9276 8.27903 16.7482C8.14638 17.4131 7.04892 18.1109 5.50638 18.3546C5.656 18.3318 5.32642 17.7669 5.28985 17.7042L5.28763 17.7004C5.24511 17.6335 5.20153 17.5676 5.15808 17.5018C5.03255 17.3118 4.90748 17.1227 4.80995 16.9131C4.55224 16.3656 4.43277 15.7322 4.53835 15.1324C4.63402 14.5895 4.99136 14.1558 5.33535 13.7382C5.39146 13.6701 5.44717 13.6025 5.50136 13.5349C5.96149 12.9609 6.44424 12.2088 6.55105 11.4637C6.56009 11.399 6.56814 11.3284 6.5766 11.2541C6.59177 11.1212 6.60822 10.9765 6.63406 10.8323C6.67238 10.5833 6.75008 10.3419 6.86412 10.1175C6.94193 9.9703 7.04442 9.83766 7.1671 9.72537C7.23103 9.66575 7.2732 9.5863 7.28691 9.49974C7.30056 9.41323 7.28493 9.32456 7.24252 9.24797L4.78353 4.80516L8.31548 9.18358C8.35573 9.23432 8.40654 9.27557 8.46441 9.30432C8.52227 9.33308 8.58574 9.34871 8.65025 9.35011C8.71483 9.35151 8.77887 9.33862 8.83791 9.31232C8.89694 9.28607 8.9495 9.24704 8.99185 9.1981C9.03659 9.14572 9.06196 9.07939 9.06365 9.01033C9.0654 8.94132 9.04335 8.87383 9.00124 8.81923C8.83703 8.60842 8.66612 8.39475 8.49602 8.18201C8.42719 8.09597 8.35842 8.00993 8.29034 7.92447L7.40153 6.81949L5.61762 4.61319L4.53831 3L5.84646 4.41556L7.74534 6.52456L8.69266 7.5816C8.77969 7.68006 8.86672 7.77765 8.9537 7.87518C9.18096 8.12998 9.40822 8.38477 9.63548 8.65509L9.68705 8.7182L9.69837 8.81608C9.71365 8.94879 9.70601 9.08319 9.67573 9.21327ZM18.7593 10.6981L18.763 10.7038C18.7624 10.2327 18.472 9.45546 17.8843 8.70782L17.8705 8.6895C17.6894 8.46475 17.4921 8.2537 17.2802 8.05806C17.2406 8.01956 17.1979 7.98164 17.1545 7.94378C16.883 7.7059 16.5862 7.49877 16.2695 7.32622L16.2469 7.31484C15.2518 6.77055 13.957 6.4902 12.3604 6.8059C12.1459 6.54439 11.915 6.29701 11.6689 6.06525C11.2921 5.70452 10.8486 5.42161 10.3634 5.23238C9.88258 5.05558 9.36762 4.99246 8.85856 5.048C9.34925 5.09239 9.82722 5.22947 10.2672 5.45212C10.6922 5.68084 11.0749 5.98114 11.3986 6.33994C11.7268 6.70621 12.0353 7.0898 12.3227 7.48914L12.3948 7.58346C12.676 7.95137 12.9623 8.32592 13.3189 8.65923C13.5153 8.84478 13.7343 9.00455 13.9708 9.13469C14.0336 9.16689 14.0971 9.19717 14.1594 9.22371C14.2216 9.25025 14.28 9.27487 14.3429 9.29762C14.4642 9.34492 14.5899 9.38412 14.7156 9.42011C15.2185 9.56408 15.7333 9.61582 16.2362 9.64364C16.3061 9.64732 16.3759 9.65076 16.4455 9.6542C16.6251 9.66312 16.8032 9.67193 16.9785 9.68465C17.2187 9.699 17.457 9.73663 17.6901 9.79706C18.0401 9.88876 18.3483 10.0982 18.5632 10.3906C18.6362 10.488 18.7018 10.5908 18.7593 10.6981ZM17.2873 8.05881C17.2621 8.03536 17.2363 8.01215 17.2107 7.98899C17.1943 7.97411 17.1778 7.9593 17.1616 7.94448C17.1742 7.95597 17.1867 7.96758 17.1993 7.97925C17.2288 8.00661 17.2582 8.03396 17.2873 8.05881ZM16.6588 12.7091C15.0417 12.05 13.3502 11.3604 13.602 9.42519C14.1419 10.0043 14.9894 10.1257 15.9112 10.2578C16.7474 10.3776 17.6447 10.5062 18.4289 10.993C20.2794 12.141 20.0091 14.3712 19.3805 15.1921C19.4372 13.8416 18.0766 13.2871 16.6588 12.7091ZM10.1438 11.7405C10.5707 11.6994 11.4802 11.4766 11.0735 10.7573C10.986 10.611 10.8592 10.4925 10.7077 10.4153C10.5561 10.3381 10.386 10.3054 10.2168 10.321C10.0451 10.3395 9.88316 10.4107 9.75308 10.5248C9.623 10.6389 9.53095 10.7903 9.48954 10.9587C9.36319 11.4292 9.49706 11.8036 10.1438 11.7405ZM10.0212 6.05003C9.75343 5.73935 9.33793 5.57643 8.9306 5.5171C8.91537 5.61901 8.90575 5.72167 8.90172 5.82463C8.88346 6.67261 9.18329 7.604 9.76346 8.25125C9.94908 8.46049 10.1729 8.63193 10.4229 8.75641C10.5674 8.82711 10.9509 9.00263 11.0929 8.84478C11.1037 8.83032 11.1105 8.81322 11.1126 8.79526C11.1147 8.77729 11.112 8.75909 11.1049 8.74253C11.0813 8.67492 11.0359 8.61355 10.9907 8.55265C10.9587 8.50949 10.9268 8.46656 10.9031 8.4217C10.8791 8.37655 10.8533 8.33245 10.8277 8.28847C10.7794 8.20575 10.7313 8.12321 10.6944 8.03338C10.597 7.79824 10.5463 7.54823 10.4957 7.29898C10.4856 7.24916 10.4755 7.19905 10.465 7.14936C10.3877 6.76483 10.289 6.3607 10.0212 6.05003ZM15.7422 12.8146C15.3268 13.9791 15.9967 14.9626 16.6628 15.9404C17.4077 17.034 18.1478 18.1205 17.3582 19.4447C18.8926 18.8083 19.6211 16.8855 18.9843 15.36C18.5831 14.395 17.6161 13.8719 16.7185 13.3864C16.3702 13.1981 16.0324 13.0153 15.7422 12.8146ZM11.2522 15.5943C10.9742 15.7083 10.7119 15.8579 10.4721 16.0395C11.0174 15.8408 11.5898 15.7273 12.1693 15.7029C12.2743 15.6967 12.3801 15.6918 12.4867 15.6868C12.6709 15.6783 12.8583 15.6697 13.0493 15.6537C13.3625 15.6323 13.6714 15.5686 13.9676 15.4642C14.2781 15.3551 14.5606 15.1783 14.7949 14.9465C15.0316 14.7071 15.1976 14.4066 15.2745 14.0782C15.3421 13.768 15.3326 13.4458 15.2468 13.1402C15.1609 12.8345 15.0014 12.5549 14.7823 12.3259C14.888 12.5953 14.953 12.879 14.9753 13.1677C14.9944 13.4364 14.958 13.7062 14.8684 13.9601C14.7809 14.2008 14.6379 14.4172 14.451 14.5916C14.258 14.7677 14.0345 14.9067 13.7917 15.002C13.4541 15.1386 13.0724 15.1945 12.6748 15.2527C12.4934 15.2792 12.3087 15.3063 12.1234 15.3417C11.8254 15.3965 11.5335 15.4812 11.2522 15.5943ZM16.0725 20.4016L16.0458 20.4231C15.9756 20.4799 15.9042 20.5377 15.8272 20.5896C15.7292 20.6544 15.6264 20.7119 15.5199 20.7613C15.2979 20.8701 15.054 20.9256 14.807 20.9236C14.1383 20.911 13.6655 20.4109 13.389 19.8457C13.3165 19.6976 13.2526 19.5449 13.1887 19.3922C13.0865 19.1478 12.9842 18.9034 12.8465 18.6776C12.5266 18.1529 11.9791 17.7304 11.338 17.8087C11.0765 17.8415 10.8313 17.9596 10.6861 18.1876C10.3039 18.783 10.8527 19.6172 11.5523 19.4991C11.6118 19.49 11.67 19.4739 11.7258 19.4511C11.7814 19.4273 11.8332 19.3956 11.8798 19.357C11.9775 19.2752 12.0511 19.1683 12.0928 19.0476C12.1388 18.9217 12.149 18.7855 12.1224 18.6542C12.0937 18.5169 12.013 18.3963 11.8974 18.3176C12.0318 18.3809 12.1366 18.4941 12.1897 18.6333C12.2447 18.7767 12.2589 18.9326 12.2305 19.0836C12.203 19.2409 12.134 19.3879 12.0306 19.5092C11.9757 19.5716 11.9122 19.6258 11.8421 19.6702C11.7725 19.7141 11.6981 19.7495 11.6202 19.7757C11.4623 19.8299 11.2942 19.8474 11.1286 19.8268C10.8961 19.7935 10.6768 19.698 10.4938 19.5502C10.46 19.5234 10.4275 19.4953 10.3961 19.4661C10.2715 19.3582 10.1585 19.2374 10.0588 19.1057C10.0141 19.0562 9.96862 19.0074 9.92114 18.9605C9.69702 18.7242 9.4326 18.5303 9.14042 18.3878C8.93894 18.2989 8.72807 18.2332 8.51189 18.192C8.4031 18.1693 8.29314 18.1529 8.18313 18.139C8.17117 18.1378 8.14824 18.1337 8.11966 18.1288C8.02785 18.1127 7.87823 18.0867 7.85186 18.1112C8.19188 17.7967 8.56246 17.5175 8.95813 17.2776C9.36441 17.0355 9.80062 16.848 10.2556 16.7201C10.7272 16.5868 11.2205 16.5487 11.7069 16.6083C11.9573 16.6386 12.2025 16.7023 12.4361 16.7977C12.6808 16.896 12.9066 17.0361 13.1036 17.212C13.2985 17.3965 13.4561 17.6171 13.5675 17.8617C13.6681 18.0908 13.7431 18.3303 13.7912 18.5759C13.817 18.7081 13.8365 18.8533 13.8566 19.0036C13.9482 19.6886 14.0541 20.479 14.8391 20.6167C14.889 20.6264 14.9393 20.6336 14.99 20.6382L15.1465 20.642C15.2541 20.6343 15.361 20.6189 15.4664 20.5959C15.6848 20.5443 15.8977 20.4713 16.1019 20.3781L16.0725 20.4016ZM10.1001 19.1517C10.1189 19.1733 10.1379 19.1947 10.1571 19.2158C10.1493 19.207 10.1415 19.1982 10.1336 19.1894C10.1224 19.1768 10.1113 19.1643 10.1001 19.1517Z"
        fill="#F6007B" />
</svg>
    