<svg xmlns="http://www.w3.org/2000/svg" width="16" height="16" viewBox="0 0 16 16" fill="none">
    <path
        d="M10.6667 5.33224V2.99934C10.6667 2.44485 10.6667 2.1676 10.5499 1.99722C10.4478 1.84836 10.2897 1.74724 10.1119 1.71696C9.9082 1.68231 9.65647 1.79849 9.153 2.03086L3.23934 4.76024C2.79034 4.96747 2.56583 5.07108 2.40141 5.23178C2.25604 5.37385 2.14508 5.54728 2.077 5.7388C2 5.95543 2 6.2027 2 6.69723V9.9989M11 9.66556H11.0067M2 7.46556V11.8656C2 12.6123 2 12.9857 2.14533 13.2709C2.27315 13.5218 2.47713 13.7258 2.72801 13.8536C3.01323 13.9989 3.38659 13.9989 4.13333 13.9989H11.8667C12.6134 13.9989 12.9868 13.9989 13.272 13.8536C13.5229 13.7258 13.7269 13.5218 13.8547 13.2709C14 12.9857 14 12.6123 14 11.8656V7.46556C14 6.71883 14 6.34547 13.8547 6.06026C13.7269 5.80937 13.5229 5.6054 13.272 5.47756C12.9868 5.33224 12.6134 5.33224 11.8667 5.33224H4.13333C3.3866 5.33224 3.01323 5.33224 2.72801 5.47756C2.47713 5.6054 2.27315 5.80937 2.14533 6.06026C2 6.34547 2 6.71883 2 7.46556ZM11.3333 9.66556C11.3333 9.8497 11.1841 9.9989 11 9.9989C10.8159 9.9989 10.6667 9.8497 10.6667 9.66556C10.6667 9.4815 10.8159 9.33223 11 9.33223C11.1841 9.33223 11.3333 9.4815 11.3333 9.66556Z"
        stroke="currentColor" stroke-width="1.25" stroke-linecap="round" stroke-linejoin="round" />
</svg>