<svg width="40" height="40" viewBox="0 0 40 40" fill="none" xmlns="http://www.w3.org/2000/svg">
<path d="M33.3332 22.4987V4.9987C33.3332 4.07822 32.587 3.33203 31.6665 3.33203H8.33317C7.4127 3.33203 6.6665 4.07822 6.6665 4.9987V34.9987C6.6665 35.9192 7.4127 36.6654 8.33317 36.6654H17.4998" stroke="var(--r-neutral-body, #3E495E)" stroke-width="2" stroke-linecap="round" stroke-linejoin="round"/>
<path d="M14.1665 10H25.8332" stroke="var(--r-neutral-body, #3E495E)" stroke-width="2" stroke-linecap="round" stroke-linejoin="round"/>
<path d="M14.1665 16.668H25.8332" stroke="var(--r-neutral-body, #3E495E)" stroke-width="2" stroke-linecap="round" stroke-linejoin="round"/>
<path d="M14.1665 23.332H19.1665" stroke="var(--r-neutral-body, #3E495E)" stroke-width="2" stroke-linecap="round" stroke-linejoin="round"/>
<path d="M32.5 36.668L29.6129 33.7809M29.6129 33.7809C30.367 33.0269 30.8333 31.9852 30.8333 30.8346C30.8333 28.5335 28.9678 26.668 26.6667 26.668C24.3655 26.668 22.5 28.5335 22.5 30.8346C22.5 33.1358 24.3655 35.0013 26.6667 35.0013C27.8172 35.0013 28.8589 34.535 29.6129 33.7809Z" stroke="var(--r-neutral-body, #3E495E)" stroke-width="2" stroke-linecap="round" stroke-linejoin="round"/>
</svg>
