<svg width="17" height="16" viewBox="0 0 17 16" fill="none" xmlns="http://www.w3.org/2000/svg">
<path d="M9.99 8.24687L13.441 4.79584C13.7822 4.45472 13.7822 3.89385 13.441 3.55272C13.0999 3.21159 12.539 3.21159 12.1979 3.55272L8.74687 7.00375L5.29584 3.55272C4.95472 3.21159 4.39385 3.21159 4.05272 3.55272C3.71159 3.89385 3.71159 4.45472 4.05272 4.79584L7.50375 8.24687L4.05272 11.6979C3.71159 12.039 3.71159 12.5999 4.05272 12.941C4.39385 13.2822 4.95472 13.2822 5.29584 12.941L8.74687 9.49L12.1979 12.941C12.539 13.2822 13.0999 13.2822 13.441 12.941C13.7822 12.5999 13.7822 12.039 13.441 11.6979L9.99 8.24687Z" fill="#7084FF"/>
</svg>
