<svg xmlns="http://www.w3.org/2000/svg" width="100%" height="100%" viewBox="0 0 20 20" fill="none"><rect x="0.580078" y="0.579987" width="18.84" height="18.84" rx="2" fill="#C1C9DC"/><path d="M3.51962 7.172C3.57828 7.172 3.62762 7.17466 3.66762 7.18C3.70762 7.18533 3.74362 7.196 3.77562 7.212C3.80762 7.22533 3.83828 7.24533 3.86762 7.272C3.89695 7.29866 3.93028 7.33466 3.96762 7.38L6.73562 10.88C6.72495 10.768 6.71695 10.66 6.71162 10.556C6.70628 10.4493 6.70362 10.3493 6.70362 10.256V7.172H7.89562V13H7.19162C7.08762 13 6.99962 12.984 6.92762 12.952C6.85562 12.92 6.78628 12.8613 6.71962 12.776L3.97162 9.304C3.97962 9.40533 3.98628 9.50533 3.99162 9.604C3.99695 9.7 3.99962 9.79066 3.99962 9.876V13H2.80762V7.172H3.51962Z" fill="white"/><path d="M12.6065 7.172V8.212H10.2145V9.688H12.2065V10.732H10.2145V13H8.85449V7.172H12.6065Z" fill="white"/><path d="M17.5396 7.172V8.244H15.8996V13H14.5476V8.244H12.9076V7.172H17.5396Z" fill="white"/></svg>