<svg width="20" height="20" viewBox="0 0 20 20" fill="none" xmlns="http://www.w3.org/2000/svg">
<g clip-path="url(#clip0_79329_22817)">
<path d="M9.99844 19.0984C15.0242 19.0984 19.0984 15.0242 19.0984 9.99844C19.0984 4.97265 15.0242 0.898438 9.99844 0.898438C4.97265 0.898438 0.898438 4.97265 0.898438 9.99844C0.898438 15.0242 4.97265 19.0984 9.99844 19.0984Z" fill="#D3D8E0"/>
<path d="M10.001 17.1238V15.5238C10.2101 15.5238 10.4174 15.5123 10.6224 15.4894L10.7998 17.0796C10.5376 17.1088 10.2711 17.1238 10.001 17.1238ZM11.5913 16.9457L11.2356 15.3857C11.4373 15.3397 11.6357 15.2825 11.8302 15.2143L12.3598 16.7241C12.1097 16.8118 11.8532 16.886 11.5913 16.9457ZM13.1006 16.416L12.4036 14.9758C12.5896 14.8857 12.7705 14.7852 12.9454 14.6748L13.7998 16.0275C13.5749 16.1696 13.3416 16.2993 13.1006 16.416ZM14.4501 15.564L13.45 14.315C13.6118 14.1855 13.7662 14.047 13.9126 13.9002L15.0456 15.0299C14.8573 15.2188 14.6585 15.3971 14.4501 15.564ZM16.044 13.774C15.9022 14.0007 15.7479 14.2188 15.5822 14.4274L14.3293 13.4323C14.4582 13.27 14.5779 13.1007 14.6877 12.9252L16.044 13.774ZM16.4348 13.0622L14.9906 12.3736C15.0794 12.1872 15.1577 11.996 15.225 11.8005L16.7378 12.3217C16.6504 12.5753 16.5491 12.8224 16.4348 13.0622ZM16.9516 11.5676L15.3905 11.2171C15.4356 11.0161 15.4695 10.8121 15.4919 10.6056L17.0826 10.7784C17.0535 11.0462 17.0095 11.3096 16.9516 11.5676ZM17.1245 9.9733L15.5245 9.97924C15.5238 9.77034 15.5115 9.56322 15.4878 9.35841L17.0773 9.17504C17.1075 9.43706 17.1235 9.70341 17.1245 9.9733ZM16.9404 8.3838L15.3818 8.74543C15.335 8.54383 15.2769 8.34553 15.2079 8.15124L16.7157 7.61579C16.8044 7.86567 16.8796 8.12197 16.9404 8.3838ZM16.4049 6.87642L14.9674 7.57897C14.8766 7.39323 14.7754 7.21272 14.6643 7.03827L16.0138 6.17875C16.1567 6.40309 16.2874 6.63595 16.4049 6.87642ZM15.548 5.53042L14.3027 6.53512C14.1726 6.37385 14.0335 6.21991 13.8862 6.07411L15.0117 4.93686C15.2012 5.12446 15.3803 5.32263 15.548 5.53042ZM14.4072 4.40252L13.4167 5.6591C13.254 5.53085 13.0843 5.41183 12.9083 5.30266L13.752 3.94317C13.9792 4.08417 14.1979 4.23761 14.4072 4.40252ZM13.0385 3.55494L12.3554 5.00181C12.1687 4.91368 11.9772 4.83611 11.7815 4.76953L12.2969 3.25481C12.5508 3.34122 12.7983 3.44156 13.0385 3.55494ZM11.542 3.04387L11.1975 4.60633C10.9963 4.56197 10.7921 4.52884 10.5855 4.50719L10.7523 2.9159C11.0203 2.94399 11.2838 2.98692 11.542 3.04387ZM9.94741 2.87695L9.9592 4.47691C9.75026 4.47845 9.54312 4.49153 9.33831 4.51595L9.14893 2.92719C9.41099 2.89595 9.67741 2.87894 9.94741 2.87695ZM8.35831 3.0671L8.72587 4.62431C8.52452 4.67183 8.3265 4.73062 8.13252 4.80033L7.59137 3.29462C7.84086 3.20496 8.0968 3.12882 8.35831 3.0671ZM6.85292 3.60835L7.56094 5.04318C7.37554 5.13466 7.19541 5.23656 7.02138 5.34833L6.15676 4.00206C6.38056 3.85833 6.61293 3.72678 6.85292 3.60835ZM5.51038 4.47019L6.51972 5.71165C6.35894 5.84237 6.20553 5.98202 6.06028 6.12989L4.91885 5.00867C5.10575 4.81841 5.30324 4.63859 5.51038 4.47019ZM4.38632 5.61573L5.64669 6.60136C5.51909 6.76453 5.40074 6.93468 5.29227 7.11098L3.92956 6.27251C4.06968 6.04479 4.22225 5.82554 4.38632 5.61573ZM3.54418 6.98731L4.99364 7.66484C4.90624 7.85182 4.82942 8.04366 4.76359 8.23957L3.24692 7.72996C3.33236 7.4757 3.43174 7.22784 3.54418 6.98731ZM3.03884 8.48568L4.6026 8.82428C4.55901 9.0256 4.52665 9.22992 4.50577 9.43661L2.91387 9.27581C2.94095 9.00777 2.98288 8.74411 3.03884 8.48568ZM2.87793 10.0805L4.47783 10.0629C4.48014 10.2717 4.49397 10.4786 4.51913 10.6833L2.93109 10.8785C2.89889 10.6166 2.88091 10.3504 2.87793 10.0805ZM3.07406 11.6692L4.62986 11.2957C4.67813 11.4968 4.73765 11.6946 4.80808 11.8882L3.30443 12.435C3.21384 12.186 3.13676 11.9304 3.07406 11.6692ZM4.01765 13.8676C3.87298 13.6442 3.74047 13.4123 3.62107 13.1726L5.05319 12.4591C5.14544 12.6443 5.24808 12.8241 5.36059 12.9978L4.01765 13.8676ZM4.48824 14.5122L5.72583 13.4981C5.8572 13.6584 5.99749 13.8113 6.14595 13.9561L5.02914 15.1018C4.8381 14.9156 4.65748 14.7187 4.48824 14.5122ZM5.63756 15.6314L6.61847 14.3674C6.7821 14.4944 6.95267 14.6121 7.12935 14.7199L6.29599 16.0857C6.06775 15.9465 5.84796 15.7947 5.63756 15.6314ZM7.01256 16.4686L7.68455 15.0165C7.87189 15.1032 8.06404 15.1793 8.26024 15.2444L7.75646 16.763C7.50181 16.6785 7.25354 16.5801 7.01256 16.4686ZM8.84545 15.4031C9.04695 15.4459 9.25141 15.4775 9.45823 15.4976L9.30345 17.0901C9.03527 17.0641 8.77145 17.0231 8.51281 16.9682L8.84545 15.4031Z" fill="white"/>
</g>
<defs>
<clipPath id="clip0_79329_22817">
<rect width="20" height="20" fill="white"/>
</clipPath>
</defs>
</svg>
