<svg width="14" height="14" viewBox="0 0 14 14" fill="none" xmlns="http://www.w3.org/2000/svg">
<g clip-path="url(#clip0_77146_70121)">
<path d="M7.0002 13.2992C8.73988 13.2992 10.3149 12.5941 11.455 11.454C12.595 10.3139 13.3002 8.7389 13.3002 6.99922C13.3002 5.25954 12.595 3.68454 11.455 2.54444C10.3149 1.40437 8.73988 0.699219 7.0002 0.699219C5.26051 0.699219 3.68551 1.40437 2.54542 2.54444C1.40535 3.68454 0.700195 5.25954 0.700195 6.99922C0.700195 8.7389 1.40535 10.3139 2.54542 11.454C3.68551 12.5941 5.26051 13.2992 7.0002 13.2992Z" stroke="currentColor" stroke-linejoin="round"/>
<path d="M4.08398 6.99826L6.22287 9.13715L10.5007 4.85938" stroke="currentColor" stroke-linecap="round" stroke-linejoin="round"/>
</g>
<defs>
<clipPath id="clip0_77146_70121">
<rect width="14" height="14" fill="white"/>
</clipPath>
</defs>
</svg>
