<svg width="20" height="20" viewBox="0 0 20 20" fill="none" xmlns="http://www.w3.org/2000/svg">
<path d="M12.12 10.48C12.84 9.88 13.2 9.04 13.2 8.2C13.2 6.52 11.88 5.2 10.2 5.2C8.52 5.2 7.2 6.52 7.2 8.2C7.2 9.04 7.56 9.88 8.28 10.48C6.6 11.2 5.4 12.88 5.4 14.8C5.4 15.16 5.64 15.4 6 15.4C6.36 15.4 6.6 15.16 6.6 14.8C6.6 12.76 8.16 11.2 10.2 11.2C12.24 11.2 13.8 12.76 13.8 14.8C13.8 15.16 14.04 15.4 14.4 15.4C14.76 15.4 15 15.16 15 14.8C15 12.88 13.8 11.2 12.12 10.48V10.48ZM10.2 10C9.24 10 8.4 9.16 8.4 8.2C8.4 7.24 9.24 6.4 10.2 6.4C11.16 6.4 12 7.24 12 8.2C12 9.16 11.16 10 10.2 10V10ZM15 1H4.2C2.52 1 1.2 2.32 1.2 4V5.8H0.6C0.24 5.8 0 6.04 0 6.4C0 6.76 0.24 7 0.6 7H1.2V9.4H0.6C0.24 9.4 0 9.64 0 10C0 10.36 0.24 10.6 0.6 10.6H1.2V13H0.6C0.24 13 0 13.24 0 13.6C0 13.96 0.24 14.2 0.6 14.2H1.2V16C1.2 17.68 2.52 19 4.2 19H15C16.68 19 18 17.68 18 16V4C18 2.32 16.68 1 15 1ZM16.8 16C16.8 16.96 15.96 17.8 15 17.8H4.2C3.24 17.8 2.4 16.96 2.4 16V14.2H3C3.36 14.2 3.6 13.96 3.6 13.6C3.6 13.24 3.36 13 3 13H2.4V10.6H3C3.36 10.6 3.6 10.36 3.6 10C3.6 9.64 3.36 9.4 3 9.4H2.4V7H3C3.36 7 3.6 6.76 3.6 6.4C3.6 6.04 3.36 5.8 3 5.8H2.4V4C2.4 3.04 3.24 2.2 4.2 2.2H15C15.96 2.2 16.8 3.04 16.8 4V16Z" fill="#13141A"/>
</svg>
