<svg viewBox="0 0 17 19" fill="none" xmlns="http://www.w3.org/2000/svg">
<path d="M7.75171 1.10168C8.20606 0.937123 8.66093 0.937123 9.07397 1.10168L14.8562 3.56945C15.4345 3.85741 15.8474 4.43371 15.8474 5.09191V8.13586C15.8474 12.4142 12.9974 16.1988 8.86694 17.3507C8.57788 17.433 8.24782 17.4329 7.95874 17.3507C3.82831 16.1988 0.978271 12.4142 0.978271 8.13586V5.09191C0.978284 4.43371 1.39123 3.85741 1.96948 3.56945L7.75171 1.10168Z" fill="var(--r-blue-default)"/>
<path d="M7.75171 1.10168L7.41858 0.181883L7.39287 0.191197L7.36771 0.201933L7.75171 1.10168ZM9.07397 1.10168L9.45797 0.201933L9.44706 0.197274L9.43603 0.192882L9.07397 1.10168ZM14.8562 3.56945L15.2923 2.69376L15.2666 2.68097L15.2402 2.66971L14.8562 3.56945ZM15.8474 5.09191H16.8257V5.09189L15.8474 5.09191ZM8.86694 17.3507L8.60415 16.4084L8.59919 16.4098L8.86694 17.3507ZM7.95874 17.3507L8.22636 16.4097L8.22153 16.4084L7.95874 17.3507ZM0.978271 5.09191L1.06096e-05 5.09189V5.09191H0.978271ZM1.96948 3.56945L1.58548 2.66971L1.55909 2.68097L1.5334 2.69376L1.96948 3.56945ZM7.75171 1.10168L8.08484 2.02147C8.33511 1.93083 8.54152 1.94259 8.71192 2.01047L9.07397 1.10168L9.43603 0.192882C8.78034 -0.0683395 8.077 -0.0565796 7.41858 0.181883L7.75171 1.10168ZM9.07397 1.10168L8.68998 2.00142L14.4722 4.46919L14.8562 3.56945L15.2402 2.66971L9.45797 0.201933L9.07397 1.10168ZM14.8562 3.56945L14.4201 4.44514C14.716 4.59247 14.8691 4.85736 14.8692 5.09193L15.8474 5.09191L16.8257 5.09189C16.8257 4.01006 16.1529 3.12236 15.2923 2.69376L14.8562 3.56945ZM15.8474 5.09191H14.8692V8.13586H15.8474H16.8257V5.09191H15.8474ZM15.8474 8.13586H14.8692C14.8692 11.9784 12.3086 15.3753 8.60416 16.4084L8.86694 17.3507L9.12973 18.293C13.6862 17.0223 16.8257 12.8501 16.8257 8.13586H15.8474ZM8.86694 17.3507L8.59919 16.4098C8.48525 16.4422 8.34058 16.4422 8.22635 16.4098L7.95874 17.3507L7.69113 18.2916C8.15506 18.4236 8.67052 18.4237 9.13469 18.2916L8.86694 17.3507ZM7.95874 17.3507L8.22153 16.4084C4.51708 15.3753 1.95653 11.9784 1.95653 8.13586H0.978271H1.06096e-05C1.06096e-05 12.8501 3.13953 17.0223 7.69596 18.293L7.95874 17.3507ZM0.978271 8.13586H1.95653V5.09191H0.978271H1.06096e-05V8.13586H0.978271ZM0.978271 5.09191L1.95653 5.09193C1.95654 4.85736 2.10972 4.59247 2.40557 4.44514L1.96948 3.56945L1.5334 2.69376C0.672746 3.12236 3.14116e-05 4.01006 1.06096e-05 5.09189L0.978271 5.09191ZM1.96948 3.56945L2.35348 4.46919L8.13571 2.00142L7.75171 1.10168L7.36771 0.201933L1.58548 2.66971L1.96948 3.56945Z" fill="white"/>
<path d="M8.11483 4.71465C8.92618 4.71465 9.59479 5.33059 9.69633 6.12813H10.6523C10.5393 4.77807 9.4377 3.71724 8.09376 3.71724C6.74981 3.71724 5.64918 4.77807 5.53615 6.12813H6.53429C6.63391 5.33059 7.30348 4.71465 8.11483 4.71465ZM10.4703 6.71524H5.57159C4.97961 6.71524 4.49969 7.19665 4.49969 7.79049V11.2507C4.49969 11.8445 4.97961 12.3259 5.57159 12.3259H10.4713C11.0642 12.3259 11.5432 11.8445 11.5432 11.2507V7.79145C11.5432 7.19761 11.0623 6.71524 10.4703 6.71524ZM8.47692 9.61331V10.3945C8.47692 10.6588 8.2633 10.8721 8.00084 10.8721C7.73741 10.8721 7.52476 10.6578 7.52476 10.3945V9.62484C7.3964 9.50089 7.31594 9.32793 7.31594 9.13479C7.31594 8.75907 7.62055 8.45351 7.99509 8.45351C8.36963 8.45351 8.67425 8.75907 8.67425 9.13479C8.67233 9.3212 8.59761 9.49032 8.47692 9.61331Z" fill="white"/>
</svg>
