<svg xmlns="http://www.w3.org/2000/svg" width="15" height="17" viewBox="0 0 15 17" fill="none">
  <path d="M6.77344 0.123413C7.22779 -0.0411404 7.68266 -0.0411404 8.0957 0.123413L13.8779 2.59119C14.4562 2.87916 14.8691 3.45543 14.8691 4.11365V7.15759C14.8691 11.436 12.0191 15.2206 7.88867 16.3724C7.59961 16.4547 7.26954 16.4547 6.98047 16.3724C2.85003 15.2206 0 11.436 0 7.15759V4.11365C0 3.45543 0.41295 2.87916 0.991211 2.59119L6.77344 0.123413Z" fill="currentColor"/>
  <path d="M7.13662 3.73635C7.94796 3.73635 8.61658 4.35229 8.71812 5.14983H9.67411C9.56108 3.79977 8.45949 2.73894 7.11554 2.73894C5.7716 2.73894 4.67097 3.79977 4.55794 5.14983H5.55608C5.6557 4.35229 6.32527 3.73635 7.13662 3.73635ZM9.49211 5.73694H4.59338C4.00139 5.73694 3.52148 6.21835 3.52148 6.81219V10.2724C3.52148 10.8662 4.00139 11.3476 4.59338 11.3476H9.49307C10.086 11.3476 10.565 10.8662 10.565 10.2724V6.81315C10.565 6.21931 10.0841 5.73694 9.49211 5.73694ZM7.49871 8.63501V9.41623C7.49871 9.68047 7.28509 9.89379 7.02263 9.89379C6.7592 9.89379 6.54655 9.67951 6.54655 9.41623V8.64655C6.41819 8.52259 6.33773 8.34963 6.33773 8.15649C6.33773 7.78078 6.64234 7.47521 7.01688 7.47521C7.39142 7.47521 7.69604 7.78078 7.69604 8.15649C7.69412 8.3429 7.6194 8.51202 7.49871 8.63501Z" fill="white"/>
</svg>