<svg xmlns="http://www.w3.org/2000/svg" viewBox="0 0 20 20" fill="none">
  <g clip-path="url(#clip0_125420_52522)">
    <path d="M16.3289 11.4355C18.4573 13.4051 19.6217 15.1204 19.2002 15.9495C18.5084 17.2945 13.8301 15.7109 8.74881 12.4139C3.66939 9.11682 0.109154 5.35363 0.80003 4.00956C1.2309 3.17125 3.5171 3.60054 6.18867 4.75115" stroke="#3E495E" stroke-width="1.25" stroke-linecap="round" stroke-linejoin="round"/>
    <path d="M3.57141 10.0001C3.57141 10.8443 3.73769 11.6803 4.06076 12.4602C4.38382 13.2402 4.85735 13.9488 5.4543 14.5458C6.05124 15.1427 6.75992 15.6163 7.53987 15.9393C8.31982 16.2624 9.15577 16.4287 9.99998 16.4287C10.8442 16.4287 11.6801 16.2624 12.4601 15.9393C13.24 15.6163 13.9487 15.1427 14.5457 14.5458C15.1426 13.9488 15.6161 13.2402 15.9392 12.4602C16.2623 11.6803 16.4286 10.8443 16.4286 10.0001C16.4286 9.15589 16.2623 8.31995 15.9392 7.54C15.6161 6.76005 15.1426 6.05137 14.5457 5.45442C13.9487 4.85747 13.24 4.38394 12.4601 4.06088C11.6801 3.73781 10.8442 3.57153 9.99998 3.57153C9.15577 3.57153 8.31982 3.73781 7.53987 4.06088C6.75992 4.38394 6.05124 4.85747 5.4543 5.45442C4.85735 6.05137 4.38382 6.76005 4.06076 7.54C3.73769 8.31995 3.57141 9.15589 3.57141 10.0001Z" stroke="#3E495E" stroke-width="1.25" stroke-linecap="round" stroke-linejoin="round"/>
    <mask id="mask0_125420_52522" style="mask-type:alpha" maskUnits="userSpaceOnUse" x="2" y="2" width="16" height="16">
      <path d="M3.57141 10.0001C3.57141 10.8443 3.73769 11.6803 4.06076 12.4602C4.38382 13.2402 4.85735 13.9488 5.4543 14.5458C6.05124 15.1427 6.75992 15.6163 7.53987 15.9393C8.31982 16.2624 9.15577 16.4287 9.99998 16.4287C10.8442 16.4287 11.6801 16.2624 12.4601 15.9393C13.24 15.6163 13.9487 15.1427 14.5457 14.5458C15.1426 13.9488 15.6161 13.2402 15.9392 12.4602C16.2623 11.6803 16.4286 10.8443 16.4286 10.0001C16.4286 9.15589 16.2623 8.31995 15.9392 7.54C15.6161 6.76005 15.1426 6.05137 14.5457 5.45442C13.9487 4.85747 13.24 4.38394 12.4601 4.06088C11.6801 3.73781 10.8442 3.57153 9.99998 3.57153C9.15577 3.57153 8.31982 3.73781 7.53987 4.06088C6.75992 4.38394 6.05124 4.85747 5.4543 5.45442C4.85735 6.05137 4.38382 6.76005 4.06076 7.54C3.73769 8.31995 3.57141 9.15589 3.57141 10.0001Z" stroke="#192945" stroke-width="1.25" stroke-linecap="round" stroke-linejoin="round"/>
    </mask>
    <g mask="url(#mask0_125420_52522)">
      <path d="M19.2001 10.3562C21.3284 12.3258 19.6217 15.1194 19.2001 15.9485C18.5083 17.2935 13.83 15.7099 8.74875 12.4128C3.66933 9.11578 0.109093 5.35259 0.799969 4.00852C1.23084 3.17021 3.04266 0.27703 5.71423 1.42764" stroke="#3E495E" stroke-width="1.25" stroke-linecap="round" stroke-linejoin="round"/>
    </g>
    <path d="M2.43333 15.1733C2.45681 15.1123 2.54319 15.1123 2.56667 15.1733L3.003 16.3078C3.0735 16.4911 3.10875 16.5827 3.16355 16.6598C3.21215 16.7282 3.27185 16.7879 3.34017 16.8364C3.41727 16.8913 3.50892 16.9265 3.69222 16.997L4.82667 17.4333C4.88772 17.4568 4.88772 17.5432 4.82667 17.5667L3.69222 18.003C3.50892 18.0735 3.41727 18.1087 3.34017 18.1635C3.27185 18.2121 3.21215 18.2718 3.16355 18.3402C3.10875 18.4173 3.0735 18.5089 3.003 18.6922L2.56667 19.8267C2.54319 19.8877 2.45681 19.8877 2.43333 19.8267L1.99701 18.6922C1.92651 18.5089 1.89126 18.4173 1.83644 18.3402C1.78785 18.2718 1.72816 18.2121 1.65983 18.1635C1.58273 18.1087 1.49108 18.0735 1.30777 18.003L0.173333 17.5667C0.112284 17.5432 0.112284 17.4568 0.173333 17.4333L1.30777 16.997C1.49108 16.9265 1.58273 16.8913 1.65983 16.8364C1.72816 16.7879 1.78785 16.7282 1.83644 16.6598C1.89126 16.5827 1.92651 16.4911 1.99701 16.3078L2.43333 15.1733Z" fill="#3E495E"/>
    <path d="M17.0762 0.173334C17.0997 0.112284 17.186 0.112284 17.2095 0.173333L17.7177 1.4946C17.7983 1.70409 17.8386 1.80884 17.9012 1.89695C17.9567 1.97503 18.025 2.04326 18.103 2.09879C18.1912 2.16144 18.2959 2.20172 18.5054 2.2823L19.8267 2.79048C19.8877 2.81396 19.8877 2.90033 19.8267 2.92381L18.5054 3.432C18.2959 3.51257 18.1912 3.55286 18.103 3.61549C18.025 3.67103 17.9567 3.73926 17.9012 3.81734C17.8386 3.90546 17.7983 4.0102 17.7177 4.21969L17.2095 5.54095C17.186 5.602 17.0997 5.602 17.0762 5.54095L16.568 4.21969C16.4874 4.0102 16.4471 3.90546 16.3845 3.81734C16.329 3.73926 16.2607 3.67103 16.1827 3.61549C16.0945 3.55286 15.9898 3.51257 15.7803 3.432L14.459 2.92381C14.398 2.90033 14.398 2.81396 14.459 2.79048L15.7803 2.2823C15.9898 2.20172 16.0945 2.16144 16.1827 2.09879C16.2607 2.04326 16.329 1.97503 16.3845 1.89695C16.4471 1.80884 16.4874 1.70409 16.568 1.49459L17.0762 0.173334Z" fill="#3E495E"/>
  </g>
  <defs>
    <clipPath id="clip0_125420_52522">
      <rect width="20" height="20" fill="white"/>
    </clipPath>
  </defs>
</svg>