<svg width="24" height="24" viewBox="0 0 24 24" fill="none" xmlns="http://www.w3.org/2000/svg">
<g clip-path="url(#clip0_130718_2580)">
<path fill-rule="evenodd" clip-rule="evenodd" d="M19.2951 1.64353C19.2951 0.725085 18.4123 0 17.3587 0H6.9364C5.8543 0 5 0.749255 5 1.64353V22.3567C5 23.2751 5.88276 24.0003 6.9364 24.0003H17.3587C18.4408 24.0003 19.2951 23.2511 19.2951 22.3567V1.64353ZM18.1604 22.0785V1.78281C18.1604 1.42741 17.8511 1.21734 17.5069 1.12257C17.4208 1.09887 17.3061 1.09887 17.22 1.09887L17.2425 1.0957H15.9479C15.7472 1.0957 15.6037 1.21417 15.6037 1.38003C15.6037 1.71173 15.2595 1.99606 14.858 1.99606H9.52277C9.12118 1.99606 8.77698 1.71173 8.77698 1.38003C8.77698 1.21417 8.63358 1.0957 8.43278 1.0957H6.94048C6.48155 1.14309 6.16602 1.45111 6.16602 1.85389V22.0785C6.16602 22.4576 6.48155 22.7657 6.94048 22.8367H17.2138C17.3285 22.8367 17.4146 22.8367 17.5006 22.813C17.9022 22.7182 18.1604 22.4339 18.1604 22.0785Z" fill="currentColor"/>
<path d="M17.3762 12.6693C17.7911 11.7389 15.7401 9.13978 13.7806 8.05692C12.5455 7.21804 11.2586 7.33328 10.9979 7.70162C10.4259 8.50996 12.8921 9.1949 14.5414 9.99419C14.1868 10.1488 13.8527 10.4261 13.6563 10.7809C13.0414 10.107 11.6918 9.52678 10.1082 9.99419C9.0411 10.3092 8.15423 11.0517 7.81146 12.1733C7.72817 12.1361 7.63595 12.1155 7.53893 12.1155C7.16794 12.1155 6.86719 12.4174 6.86719 12.7898C6.86719 13.1622 7.16794 13.4641 7.53893 13.4641C7.6077 13.4641 7.82271 13.4178 7.82271 13.4178L11.2586 13.4427C9.88451 15.6308 8.79859 15.9507 8.79859 16.3298C8.79859 16.7088 9.83762 16.6061 10.2278 16.4648C12.0954 15.7884 14.1012 13.6803 14.4455 13.0734C15.8909 13.2545 17.1057 13.2759 17.3762 12.6693Z" fill="currentColor"/>
<path d="M10.959 8.11682C11.0821 7.88857 11.8622 7.86543 12.9209 8.36584C13.7026 8.73543 14.5357 9.56069 14.584 9.76526C14.6049 9.85412 14.6171 9.96727 14.541 9.99768L14.5381 9.9967C14.539 9.99629 14.5401 9.99614 14.541 9.99573C13.1807 9.33655 11.2676 8.75384 10.959 8.11682Z" fill="currentColor"/>
<path d="M10.5088 11.3867C11.6493 11.3867 12.1403 11.7572 12.5312 12.4531C12.8098 12.9489 12.7479 13.7329 12.4531 14.2627C12.7272 14.3309 12.9687 14.4065 13.1826 14.4883C12.8332 14.8145 12.4336 15.1527 12.0088 15.4629C11.4306 15.3148 10.9032 15.1771 10.1045 14.9717C10.4471 14.5974 10.8401 14.1051 11.2588 13.4385L8.17285 13.415C8.16273 13.2923 8.16001 13.1588 8.16309 13.0137C8.19325 11.599 9.88123 11.3868 10.5088 11.3867Z" fill="currentColor"/>
<path d="M7.76864 13.2757C7.89463 14.3508 8.5033 14.7721 9.74705 14.8968C10.9908 15.0214 11.7042 14.9378 12.6541 15.0246C13.4474 15.097 14.1557 15.5028 14.4184 15.3625C14.6549 15.2363 14.5226 14.7804 14.2062 14.4879C13.796 14.1087 13.2283 13.8451 12.2294 13.7515C12.4285 13.2044 12.3727 12.4373 12.0635 12.0199C11.6165 11.4165 10.7914 11.1436 9.74705 11.2629C8.65598 11.3874 7.61053 11.9266 7.76864 13.2757Z" fill="currentColor"/>
</g>
<defs>
<clipPath id="clip0_130718_2580">
<rect width="24" height="24" fill="white"/>
</clipPath>
</defs>
</svg>
