<svg t="1698404075740" class="icon" viewBox="0 0 1024 1024" version="1.1" xmlns="http://www.w3.org/2000/svg" p-id="1325" width="200" height="200"><path d="M808.7296 305.2928c-1.3696-34.0992-39.5904-128.0128-73.344-142.9248 32.2176-2.7392 74.0224-78.8352 75.904-98.368 0.1792 29.1328 25.5488 85.6832 68.224 94.08-34.112 19.5456-68.9024 116.7104-70.784 147.2128z m111.0528 53.2992c-0.6912-17.472-13.0304-57.7536-33.4208-66.496 15.936 2.752 27.2512-39.5776 28.1088-49.5232 0 14.912 9.6 46.4384 32.7296 46.6176-18.3424 5.1456-26.3936 53.632-27.4176 69.4016z" fill="var(--r-neutral-title-1, rgba(247, 250, 252, 1))" p-id="1326"></path><path d="M240.6784 668.16c-90.496-156.7744-38.6688-356.1472 115.776-445.312a318.1952 318.1952 0 0 1 190.0416-41.3184c25.8176 2.4704 51.2768 8.0256 75.8016 16.5248a209.7152 209.7152 0 0 0-58.5344 51.6608c-51.9552 66.8672-60.9664 162.0096-15.4624 240.832 45.504 78.8096 132.416 118.5792 216.2944 107.0208 25.344-3.4816 50.432-11.6608 74.0096-24.8704a326.4768 326.4768 0 0 1-23.6032 73.92A318.1952 318.1952 0 0 1 684.2112 790.528c-154.4448 89.1648-353.024 34.368-443.5328-122.3936z m148.5568-388.544c-123.5584 71.3344-165.0304 230.8352-92.6208 356.2368 72.4096 125.4144 231.2704 169.2544 354.816 97.92a254.1824 254.1824 0 0 0 82.0736-75.456c-93.6192-1.088-184.7936-50.816-235.5328-138.7136-50.752-87.8848-48.2304-191.7184-2.368-273.3312a254.208 254.208 0 0 0-106.368 33.344z" fill="var(--r-neutral-title-1, rgba(247, 250, 252, 1))" p-id="1327"></path></svg>
