<svg xmlns="http://www.w3.org/2000/svg" width="20" height="20" viewBox="0 0 20 20" fill="none">
  <rect width="20" height="20" rx="10" fill="black"/>
  <path d="M8.48774 3.50035C7.67962 3.5 6.87288 3.49965 6.06197 3.5007C5.57161 3.5007 5.38773 4.06783 5.75245 4.4037L11.2725 9.48911C11.4449 9.63431 11.5522 9.79202 11.5562 10C11.5522 10.208 11.4449 10.3658 11.2725 10.5109L5.75245 15.5963C5.38773 15.9322 5.57161 16.4993 6.06197 16.4993C6.87288 16.5004 7.67962 16.5 8.48774 16.4996C8.89231 16.4994 9.29726 16.4993 9.70323 16.4993C10.2343 16.4993 10.5503 16.2379 10.8341 15.9765L15.8125 11.3902C16.2097 11.0241 16.5653 10.5381 16.5605 10C16.5653 9.46187 16.2097 8.97588 15.8125 8.60984L10.8341 4.02352C10.5503 3.76211 10.2343 3.5007 9.70323 3.5007C9.29726 3.5007 8.89231 3.50058 8.48774 3.50035Z" fill="#00F0FF"/>
</svg>