<svg xmlns="http://www.w3.org/2000/svg" width="20" height="20" viewBox="0 0 20 20" fill="none">
  <g clip-path="url(#clip0_144860_4644)">
    <path d="M18.2556 18.5751L14.1631 17.3472L11.0766 19.2063L8.92335 19.2054L5.83516 17.3472L1.74436 18.5751L0.5 14.3423L1.74436 9.6445L0.5 5.67263L1.74436 0.75L8.13659 4.59818H11.8634L18.2556 0.75L19.5 5.67263L18.2556 9.6445L19.5 14.3423L18.2556 18.5751Z" fill="#FF5C16"/>
    <path d="M1.74512 0.75L8.13734 4.60089L7.88312 7.24371L1.74512 0.75Z" fill="#FF5C16"/>
    <path d="M5.83594 14.3438L8.64848 16.5026L5.83594 17.3468V14.3438Z" fill="#FF5C16"/>
    <path d="M8.42336 10.7717L7.88284 7.24219L4.42268 9.6421L4.4209 9.64124V9.64303L4.4316 12.1134L5.83475 10.7717H5.83564H8.42336Z" fill="#FF5C16"/>
    <path d="M18.2555 0.75L11.8633 4.60089L12.1166 7.24371L18.2555 0.75Z" fill="#FF5C16"/>
    <path d="M14.1641 14.3438L11.3516 16.5026L14.1641 17.3468V14.3438Z" fill="#FF5C16"/>
    <path d="M15.5787 9.64303V9.64124L15.5778 9.6421L12.1177 7.24219L11.5771 10.7717H14.1649L15.5689 12.1134L15.5787 9.64303Z" fill="#FF5C16"/>
    <path d="M5.83516 17.3468L1.74436 18.5748L0.5 14.3438H5.83516V17.3468Z" fill="#E34807"/>
    <path d="M8.42237 10.7734L9.20376 15.8758L8.12087 13.0388L4.42969 12.1161L5.83372 10.7734H8.42145H8.42237Z" fill="#E34807"/>
    <path d="M14.165 17.3468L18.2558 18.5748L19.5002 14.3438H14.165V17.3468Z" fill="#E34807"/>
    <path d="M11.5773 10.7734L10.7959 15.8758L11.8788 13.0388L15.57 12.1161L14.1651 10.7734H11.5773Z" fill="#E34807"/>
    <path d="M0.5 14.3423L1.74436 9.64453H4.42042L4.43024 12.1158L8.12139 13.0385L9.20433 15.8754L8.64769 16.5003L5.83516 14.3414H0.5V14.3423Z" fill="#FF8D5D"/>
    <path d="M19.5002 14.3423L18.2558 9.64453H15.5798L15.57 12.1158L11.8788 13.0385L10.7959 15.8754L11.3525 16.5003L14.1651 14.3414H19.5002V14.3423Z" fill="#FF8D5D"/>
    <path d="M11.864 4.60156H10.0006H8.13709L7.88379 7.24437L9.20483 15.8761H10.7962L12.1182 7.24437L11.864 4.60156Z" fill="#FF8D5D"/>
    <path d="M1.74436 0.75L0.5 5.67263L1.74436 9.6445H4.42042L7.88237 7.24371L1.74436 0.75Z" fill="#661800"/>
    <path d="M7.64972 11.7977H6.43746L5.77734 12.4497L8.12244 13.0356L7.64972 11.7969V11.7977Z" fill="#661800"/>
    <path d="M18.2552 0.75L19.4995 5.67263L18.2552 9.6445H15.5791L12.1172 7.24371L18.2552 0.75Z" fill="#661800"/>
    <path d="M12.3526 11.7977H13.5666L14.2267 12.4506L11.8789 13.0375L12.3526 11.7969V11.7977Z" fill="#661800"/>
    <path d="M11.0764 17.5201L11.353 16.4998L10.7964 15.875H9.20411L8.64746 16.4998L8.92399 17.5201" fill="#661800"/>
    <path d="M11.0763 17.5234V19.2082H8.92383V17.5234H11.0763Z" fill="#C0C4CD"/>
    <path d="M5.83594 17.3443L8.92501 19.2051V17.5203L8.64848 16.5L5.83594 17.3443Z" fill="#E7EBF6"/>
    <path d="M14.1652 17.3443L11.0762 19.2051V17.5203L11.3527 16.5L14.1652 17.3443Z" fill="#E7EBF6"/>
  </g>
  <defs>
    <clipPath id="clip0_144860_4644">
      <rect width="20" height="20" fill="white"/>
    </clipPath>
  </defs>
</svg>