<svg width="20" height="20" viewBox="0 0 20 20" fill="none" xmlns="http://www.w3.org/2000/svg">
<rect width="20" height="20" rx="10" fill="#9886E5"/>
<path fill-rule="evenodd" clip-rule="evenodd" d="M8.70442 12.887C7.96998 14.0124 6.73924 15.4367 5.10157 15.4367C4.3274 15.4367 3.58301 15.118 3.58301 13.7336C3.58301 10.2079 8.39673 4.75 12.8631 4.75C15.404 4.75 16.4164 6.51285 16.4164 8.51474C16.4164 11.0843 14.7489 14.0224 13.0914 14.0224C12.5653 14.0224 12.3073 13.7336 12.3073 13.2754C12.3073 13.1559 12.3271 13.0265 12.3669 12.887C11.8011 13.8531 10.7093 14.7495 9.68704 14.7495C8.94263 14.7495 8.56547 14.2813 8.56547 13.624C8.56547 13.385 8.6151 13.136 8.70442 12.887ZM12.5518 8.44516C12.5518 7.86182 12.2076 7.57016 11.8226 7.57016C11.4318 7.57016 11.0934 7.86182 11.0934 8.44516C11.0934 9.02847 11.4318 9.32016 11.8226 9.32016C12.2076 9.32016 12.5518 9.02847 12.5518 8.44516ZM14.7393 8.44516C14.7393 7.86182 14.3951 7.57016 14.0101 7.57016C13.6193 7.57016 13.2809 7.86182 13.2809 8.44516C13.2809 9.02847 13.6193 9.32016 14.0101 9.32016C14.3951 9.32016 14.7393 9.02847 14.7393 8.44516Z" fill="white"/>
</svg>
