<svg width="75" height="52" viewBox="0 0 75 52" fill="none" xmlns="http://www.w3.org/2000/svg">
    <path d="M0 0H71C73.2091 0 75 1.79086 75 4V48C75 50.2091 73.2091 52 71 52H0V0Z"
        fill="url(#paint0_linear_87870_45900)" />
    <path
        d="M49.3022 19.76L46.4622 34H43.3422L45.4822 23.3L42.1222 25.66L42.8222 22.12L46.1822 19.76H49.3022ZM56.5106 27.838L55.1326 29.06C54.8856 28.748 54.3396 28.592 53.9626 28.592C53.2996 28.592 53.0266 28.839 53.0266 29.125C53.0266 29.32 53.1566 29.45 53.4556 29.502L54.3396 29.658C55.5876 29.879 56.0296 30.607 56.0296 31.53C56.0296 32.323 55.6916 32.895 55.2496 33.311C54.6646 33.87 53.6766 34.078 52.7926 34.078C51.4926 34.078 50.6606 33.688 50.0366 33.012L51.4796 31.738C51.7656 32.076 52.2076 32.336 52.9226 32.336C53.6376 32.336 54.0146 32.05 54.0146 31.764C54.0146 31.517 53.8326 31.4 53.5336 31.348L52.6496 31.192C51.4796 30.984 50.9986 30.282 50.9986 29.58C50.9986 28.878 51.2456 28.241 51.7396 27.747C52.2856 27.201 53.1436 26.928 54.1316 26.928C55.1586 26.928 55.8866 27.162 56.5106 27.838ZM61.1215 27.279L60.8095 28.852H59.7695L59.1845 31.816C59.1715 31.868 59.1715 31.959 59.1715 31.972C59.1715 32.206 59.3275 32.297 59.5745 32.297H60.2115L59.8735 34H58.9245C57.7675 34 57.1045 33.285 57.1045 32.375C57.1045 32.115 57.1305 31.933 57.1565 31.803L57.7415 28.852H57.1305L57.4425 27.279H58.0535L58.4565 25.277H60.4845L60.0815 27.279H61.1215Z"
        fill="#7084FF" />
    <defs>
        <linearGradient id="paint0_linear_87870_45900" x1="73.4155" y1="21.5" x2="4.22535" y2="21.5"
            gradientUnits="userSpaceOnUse">
            <stop stop-color="#7084FF" stop-opacity="0.2" />
            <stop offset="1" stop-color="#7084FF" stop-opacity="0" />
        </linearGradient>
    </defs>
</svg>