<svg width="75" height="52" viewBox="0 0 75 52" fill="none" xmlns="http://www.w3.org/2000/svg">
    <path d="M0 0H71C73.2091 0 75 1.79086 75 4V48C75 50.2091 73.2091 52 71 52H0V0Z"
        fill="url(#paint0_linear_91017_35049)" />
    <path
        d="M46.9129 23.34C46.9129 25.42 45.3529 26.68 44.5729 27.44L40.7129 31.18H45.6129L45.0329 34H36.1529L36.7329 31.2L42.5929 25.44C43.3729 24.66 43.7529 24.24 43.7529 23.52C43.7529 22.84 43.3729 22.46 42.7329 22.46C42.0529 22.46 41.4129 22.8 41.1329 23.88H38.0129C38.4929 21.06 40.3129 19.64 43.1129 19.64C45.4529 19.64 46.9129 20.98 46.9129 23.34ZM53.5533 28.852C53.5533 29.138 53.5143 29.424 53.4623 29.658L52.5913 34H50.5633L51.4083 29.775C51.4343 29.658 51.4473 29.528 51.4473 29.424C51.4473 28.956 51.1223 28.761 50.8623 28.761C50.3943 28.761 49.9393 28.995 49.7833 29.775L48.9383 34H46.9103L48.3013 27.006H50.2383L50.1213 27.617C50.5633 27.175 51.2263 26.928 51.8373 26.928C52.5263 26.928 53.5533 27.396 53.5533 28.852ZM61.4028 24.744L59.5568 34H57.6068L57.7238 33.415C57.3468 33.831 56.7878 34.078 56.1248 34.078C54.6688 34.078 54.2918 32.96 54.2918 32.245C54.2918 31.764 54.3828 31.192 54.5258 30.503C54.8378 28.943 55.0978 28.085 55.5918 27.591C56.1248 27.058 56.7228 26.928 57.3208 26.928C57.9448 26.928 58.4778 27.149 58.8158 27.565L59.3748 24.744H61.4028ZM58.3738 29.45C58.3738 29.242 58.3478 28.761 57.7628 28.761C57.0088 28.761 56.7878 29.32 56.5538 30.503C56.4888 30.828 56.4108 31.296 56.4108 31.556C56.4108 31.764 56.4368 32.245 57.0218 32.245C57.7758 32.245 57.9968 31.686 58.2308 30.503C58.2958 30.178 58.3738 29.71 58.3738 29.45Z"
        fill="#2ABB7F" />
    <defs>
        <linearGradient id="paint0_linear_91017_35049" x1="73.4155" y1="21.5" x2="4.22535" y2="21.5"
            gradientUnits="userSpaceOnUse">
            <stop stop-color="#7BFF70" stop-opacity="0.2" />
            <stop offset="1" stop-color="#70FFA9" stop-opacity="0" />
        </linearGradient>
    </defs>
</svg>
    