<svg width="75" height="52" viewBox="0 0 75 52" fill="none" xmlns="http://www.w3.org/2000/svg">
    <path d="M0 0H71C73.2091 0 75 1.79086 75 4V48C75 50.2091 73.2091 52 71 52H0V0Z"
        fill="url(#paint0_linear_87870_45912)" />
    <path
        d="M 50.442 23.34 C 50.442 25.42 48.882 26.68 48.102 27.44 L 44.242 31.18 L 49.142 31.18 L 48.562 34 L 39.682 34 L 40.262 31.2 L 46.122 25.44 C 46.902 24.66 47.282 24.24 47.282 23.52 C 47.282 22.84 46.902 22.46 46.262 22.46 C 45.582 22.46 44.942 22.8 44.662 23.88 L 41.542 23.88 C 42.022 21.06 43.842 19.64 46.642 19.64 C 48.982 19.64 50.442 20.98 50.442 23.34 Z M 52.723 27.696 L 52.606 28.432 C 53.045 27.851 53.574 27.568 54.193 27.584 C 54.7 27.595 55.078 27.805 55.326 28.214 C 55.575 28.623 55.665 29.209 55.597 29.97 L 55.02 33.823 L 53.347 33.823 L 53.93 29.96 C 53.943 29.827 53.946 29.706 53.94 29.597 C 53.916 29.239 53.727 29.059 53.372 29.059 C 53.078 29.052 52.809 29.198 52.565 29.495 L 51.881 33.823 L 50.213 33.823 L 51.166 27.702 Z M 56.251 30.751 C 56.356 29.786 56.62 29.013 57.042 28.432 C 57.464 27.851 58.015 27.57 58.694 27.589 C 59.161 27.604 59.548 27.822 59.856 28.245 L 60.387 25.134 L 62.061 25.134 L 60.712 33.823 L 59.227 33.823 L 59.298 33.161 C 58.889 33.697 58.434 33.957 57.934 33.942 C 57.407 33.934 56.994 33.717 56.695 33.288 C 56.395 32.861 56.236 32.286 56.215 31.566 C 56.209 31.328 56.216 31.096 56.236 30.87 Z M 57.914 30.876 C 57.887 31.117 57.875 31.328 57.878 31.509 C 57.878 32.136 58.067 32.454 58.446 32.466 C 58.774 32.477 59.066 32.301 59.323 31.939 L 59.698 29.592 C 59.587 29.245 59.364 29.065 59.029 29.054 C 58.718 29.046 58.467 29.196 58.277 29.504 C 58.085 29.811 57.965 30.269 57.914 30.876 Z"
        fill="#2ABB7F" />
    <defs>
        <linearGradient id="paint0_linear_87870_45912" x1="73.4155" y1="21.5" x2="4.22535" y2="21.5"
            gradientUnits="userSpaceOnUse">
            <stop stop-color="#7BFF70" stop-opacity="0.2" />
            <stop offset="1" stop-color="#70FFA9" stop-opacity="0" />
        </linearGradient>
    </defs>
</svg>
    
