<svg width="75" height="52" viewBox="0 0 75 52" fill="none" xmlns="http://www.w3.org/2000/svg">
    <path d="M0 0H71C73.2091 0 75 1.79086 75 4V48C75 50.2091 73.2091 52 71 52H0V0Z"
        fill="url(#paint0_linear_87870_45921)" />
    <path
        d="M48.311 23.2C48.311 24.54 47.791 25.86 46.311 26.74C47.091 27.28 47.431 27.92 47.431 29.24C47.431 32.14 45.151 34.12 42.651 34.12C40.071 34.12 38.271 32.78 38.271 30.6C38.271 30.28 38.311 30.06 38.351 29.76H41.431C41.391 29.94 41.391 29.98 41.391 30.2C41.391 30.8 41.791 31.3 42.671 31.3C43.551 31.3 44.291 30.38 44.291 29.4C44.291 28.68 43.891 28.08 43.051 28.08H42.611L43.151 25.36H43.591C44.471 25.36 45.171 24.4 45.171 23.6C45.171 22.82 44.751 22.46 44.211 22.46C43.571 22.46 42.831 22.86 42.611 23.84H39.491C40.091 21 41.891 19.64 44.631 19.64C46.871 19.64 48.311 21.3 48.311 23.2ZM54.7654 27.591L52.9974 29.164C52.9064 29.073 52.7374 28.774 52.3474 28.774C51.8794 28.774 51.3984 29.151 51.2684 29.814L50.4364 34H48.4084L49.7994 27.006H51.7494L51.6324 27.604C51.9964 27.188 52.6334 26.928 53.2964 26.928C53.9594 26.928 54.3884 27.136 54.7654 27.591ZM61.4028 24.744L59.5568 34H57.6068L57.7238 33.415C57.3468 33.831 56.7878 34.078 56.1248 34.078C54.6688 34.078 54.2918 32.96 54.2918 32.245C54.2918 31.764 54.3828 31.192 54.5258 30.503C54.8378 28.943 55.0978 28.085 55.5918 27.591C56.1248 27.058 56.7228 26.928 57.3208 26.928C57.9448 26.928 58.4778 27.149 58.8158 27.565L59.3748 24.744H61.4028ZM58.3738 29.45C58.3738 29.242 58.3478 28.761 57.7628 28.761C57.0088 28.761 56.7878 29.32 56.5538 30.503C56.4888 30.828 56.4108 31.296 56.4108 31.556C56.4108 31.764 56.4368 32.245 57.0218 32.245C57.7758 32.245 57.9968 31.686 58.2308 30.503C58.2958 30.178 58.3738 29.71 58.3738 29.45Z"
        fill="#FFB020" />
    <defs>
        <linearGradient id="paint0_linear_87870_45921" x1="73.4155" y1="21.5" x2="4.22535" y2="21.5"
            gradientUnits="userSpaceOnUse">
            <stop stop-color="#FFB570" stop-opacity="0.2" />
            <stop offset="1" stop-color="#FFCE70" stop-opacity="0" />
        </linearGradient>
    </defs>
</svg>
    