<svg width="16" height="16" viewBox="0 0 16 16" fill="none" xmlns="http://www.w3.org/2000/svg">
<path d="M5.79313 13.5001H3C2.86739 13.5001 2.74021 13.4474 2.64645 13.3536C2.55268 13.2599 2.5 13.1327 2.5 13.0001V10.207C2.50006 10.0745 2.55266 9.94753 2.64625 9.85383L10.3538 2.14633C10.4475 2.05263 10.5746 2 10.7072 2C10.8397 2 10.9669 2.05263 11.0606 2.14633L13.8538 4.93758C13.9474 5.03134 14.0001 5.15847 14.0001 5.29102C14.0001 5.42357 13.9474 5.5507 13.8538 5.64446L6.14625 13.3538C6.05255 13.4474 5.92556 13.5 5.79313 13.5001Z" stroke="#8697FF" stroke-linecap="round" stroke-linejoin="round"/>
<path d="M8.5 4L12 7.5" stroke="#8697FF" stroke-linecap="round" stroke-linejoin="round"/>
</svg>
