<svg width="128" height="128" viewBox="0 0 128 128" fill="none" xmlns="http://www.w3.org/2000/svg">
<mask id="path-1-inside-1_21953_5147" fill="white">
<path d="M23.5238 61.619C22.2088 61.619 21.1428 62.685 21.1428 63.9999C21.1428 65.3149 22.2088 66.3809 23.5238 66.3809L65.9217 66.3809L53.3196 78.983C52.3898 79.9128 52.3898 81.4204 53.3196 82.3502C54.2494 83.28 55.757 83.28 56.6868 82.3502L73.2952 65.7417C73.7614 65.3071 74.0529 64.6875 74.0529 63.9999C74.0529 63.3123 73.7613 62.6927 73.2951 62.258L56.6868 45.6497C55.757 44.7199 54.2494 44.7199 53.3196 45.6497C52.3898 46.5795 52.3898 48.087 53.3196 49.0169L65.9217 61.619L23.5238 61.619Z"/>
<path d="M38.6031 30.6666C38.6031 29.3516 39.6691 28.2856 40.9841 28.2856L90.1904 28.2856C91.5054 28.2856 92.5714 29.3516 92.5714 30.6666V97.3333C92.5714 97.9647 92.3205 98.5703 91.874 99.0168C91.4275 99.4634 90.8219 99.7142 90.1904 99.7142H40.9995C39.6845 99.7142 38.6185 98.6482 38.6185 97.3333C38.6185 96.0183 39.6845 94.9523 40.9995 94.9523H87.8095V33.0475L40.9841 33.0476C39.6691 33.0476 38.6031 31.9816 38.6031 30.6666Z"/>
</mask>
<path d="M23.5238 61.619L23.5238 73.619H23.5238L23.5238 61.619ZM23.5238 66.3809L23.5238 78.3809H23.5238L23.5238 66.3809ZM65.9217 66.3809L74.407 74.8662C77.839 71.4342 78.8657 66.2728 77.0083 61.7887C75.1509 57.3046 70.7753 54.3809 65.9217 54.3809V66.3809ZM53.3196 78.983L61.8049 87.4683H61.8049L53.3196 78.983ZM53.3196 82.3502L61.8049 73.8649L61.8049 73.8649L53.3196 82.3502ZM56.6868 82.3502L48.2015 73.8649L48.2015 73.8649L56.6868 82.3502ZM73.2952 65.7417L65.1119 56.9649C65.0096 57.0603 64.9089 57.1575 64.8099 57.2564L73.2952 65.7417ZM74.0529 63.9999H86.0529H74.0529ZM73.2951 62.258L64.8099 70.7433C64.9089 70.8424 65.0097 70.9397 65.1122 71.0353L73.2951 62.258ZM56.6868 45.6497L48.2015 54.1349L48.2015 54.135L56.6868 45.6497ZM53.3196 45.6497L61.8049 54.135L61.8049 54.1349L53.3196 45.6497ZM53.3196 49.0169L61.8049 40.5316L61.8049 40.5316L53.3196 49.0169ZM65.9217 61.619V73.619C70.7753 73.619 75.1509 70.6953 77.0083 66.2112C78.8656 61.7271 77.839 56.5657 74.407 53.1337L65.9217 61.619ZM40.9841 28.2856L40.9841 16.2856L40.9841 28.2856ZM90.1904 28.2856V40.2856V28.2856ZM92.5714 30.6666L104.571 30.6666V30.6666L92.5714 30.6666ZM92.5714 97.3333H80.5714H92.5714ZM91.874 99.0168L100.359 107.502L100.359 107.502L91.874 99.0168ZM90.1904 99.7142V111.714V99.7142ZM40.9995 99.7142V87.7142V99.7142ZM38.6185 97.3333H50.6185H38.6185ZM40.9995 94.9523V82.9523V94.9523ZM87.8095 94.9523V106.952C94.4369 106.952 99.8095 101.58 99.8095 94.9523H87.8095ZM87.8095 33.0475H99.8095C99.8095 29.865 98.5452 26.8127 96.2948 24.5623C94.0443 22.3118 90.9921 21.0475 87.8095 21.0475V33.0475ZM40.9841 33.0476V45.0476V33.0476ZM33.1428 63.9999C33.1428 69.3124 28.8362 73.619 23.5238 73.619L23.5238 49.619C15.5814 49.619 9.14282 56.0576 9.14282 63.9999H33.1428ZM23.5238 54.3809C28.8362 54.3809 33.1428 58.6875 33.1428 63.9999H9.14282C9.14282 71.9423 15.5814 78.3809 23.5238 78.3809L23.5238 54.3809ZM65.9217 54.3809L23.5238 54.3809L23.5238 78.3809L65.9217 78.3809V54.3809ZM57.4364 57.8956L44.8343 70.4977L61.8049 87.4683L74.407 74.8662L57.4364 57.8956ZM44.8343 70.4977C39.2182 76.1138 39.2182 85.2194 44.8343 90.8355L61.8049 73.8649C65.5614 77.6214 65.5614 83.7118 61.8049 87.4683L44.8343 70.4977ZM44.8343 90.8355C50.4504 96.4516 59.556 96.4516 65.1721 90.8355L48.2015 73.8649C51.958 70.1084 58.0484 70.1084 61.8049 73.8649L44.8343 90.8355ZM65.1721 90.8355L81.7805 74.227L64.8099 57.2564L48.2015 73.8649L65.1721 90.8355ZM62.0529 63.9999C62.0529 61.2224 63.2456 58.705 65.1119 56.9649L81.4786 74.5186C84.2772 71.9092 86.0529 68.1527 86.0529 63.9999H62.0529ZM65.1122 71.0353C63.2458 69.2952 62.0529 66.7776 62.0529 63.9999H86.0529C86.0529 59.8469 84.2769 56.0902 81.4781 53.4808L65.1122 71.0353ZM81.7804 53.7728L65.1721 37.1644L48.2015 54.135L64.8099 70.7433L81.7804 53.7728ZM65.1721 37.1644C59.556 31.5483 50.4504 31.5483 44.8343 37.1644L61.8049 54.1349C58.0484 57.8914 51.9579 57.8914 48.2015 54.1349L65.1721 37.1644ZM44.8343 37.1644C39.2182 42.7805 39.2182 51.886 44.8343 57.5021L61.8049 40.5316C65.5614 44.288 65.5614 50.3785 61.8049 54.135L44.8343 37.1644ZM44.8343 57.5021L57.4364 70.1043L74.407 53.1337L61.8049 40.5316L44.8343 57.5021ZM23.5238 73.619L65.9217 73.619V49.619L23.5238 49.619L23.5238 73.619ZM40.9841 16.2856C33.0417 16.2856 26.6031 22.7242 26.6031 30.6666L50.6031 30.6666C50.6031 35.979 46.2965 40.2856 40.9841 40.2856L40.9841 16.2856ZM90.1904 16.2856L40.9841 16.2856L40.9841 40.2856L90.1904 40.2856V16.2856ZM104.571 30.6666C104.571 22.7242 98.1328 16.2856 90.1904 16.2856V40.2856C84.878 40.2856 80.5714 35.9791 80.5714 30.6666L104.571 30.6666ZM104.571 97.3333V30.6666H80.5714V97.3333H104.571ZM100.359 107.502C103.056 104.805 104.571 101.147 104.571 97.3333H80.5714C80.5714 94.7821 81.5848 92.3355 83.3887 90.5316L100.359 107.502ZM90.1904 111.714C94.0045 111.714 97.6623 110.199 100.359 107.502L83.3888 90.5315C85.1927 88.7276 87.6393 87.7142 90.1904 87.7142V111.714ZM40.9995 111.714H90.1904V87.7142H40.9995V111.714ZM26.6185 97.3333C26.6185 105.276 33.0571 111.714 40.9995 111.714V87.7142C46.3119 87.7142 50.6185 92.0208 50.6185 97.3333H26.6185ZM40.9995 82.9523C33.0571 82.9523 26.6185 89.3909 26.6185 97.3333H50.6185C50.6185 102.646 46.3119 106.952 40.9995 106.952V82.9523ZM87.8095 82.9523H40.9995V106.952H87.8095V82.9523ZM75.8095 33.0475V94.9523H99.8095V33.0475H75.8095ZM40.9841 45.0476L87.8095 45.0475V21.0475L40.9841 21.0476L40.9841 45.0476ZM26.6031 30.6666C26.6031 38.609 33.0417 45.0476 40.9841 45.0476L40.9841 21.0476C46.2965 21.0476 50.6031 25.3542 50.6031 30.6666L26.6031 30.6666Z" fill="white" mask="url(#path-1-inside-1_21953_5147)"/>
<g opacity="0.2">
<mask id="path-3-inside-2_21953_5147" fill="white">
<path d="M27.0953 65.1905C25.7803 65.1905 24.7144 66.2565 24.7144 67.5715C24.7144 68.8864 25.7803 69.9524 27.0953 69.9524L69.4933 69.9524L56.8911 82.5545C55.9613 83.4844 55.9613 84.9919 56.8911 85.9217C57.8209 86.8515 59.3285 86.8515 60.2583 85.9217L76.8668 69.3133C77.3329 68.8786 77.6244 68.2591 77.6244 67.5715C77.6244 66.8838 77.3329 66.2642 76.8667 65.8296L60.2583 49.2212C59.3285 48.2914 57.8209 48.2914 56.8911 49.2212C55.9613 50.151 55.9613 51.6586 56.8911 52.5884L69.4933 65.1905L27.0953 65.1905Z"/>
<path d="M42.1747 34.2381C42.1747 32.9232 43.2407 31.8572 44.5556 31.8572L93.762 31.8572C95.0769 31.8572 96.1429 32.9232 96.1429 34.2381V100.905C96.1429 101.536 95.8921 102.142 95.4456 102.588C94.999 103.035 94.3934 103.286 93.762 103.286H44.571C43.256 103.286 42.19 102.22 42.19 100.905C42.19 99.5898 43.256 98.5238 44.571 98.5238H91.381V36.6191L44.5556 36.6191C43.2407 36.6191 42.1747 35.5531 42.1747 34.2381Z"/>
</mask>
<path d="M27.0953 65.1905L27.0953 77.1905H27.0953L27.0953 65.1905ZM27.0953 69.9524L27.0953 81.9524H27.0953L27.0953 69.9524ZM69.4933 69.9524L77.9785 78.4377C81.4105 75.0057 82.4372 69.8443 80.5798 65.3602C78.7224 60.8761 74.3468 57.9524 69.4933 57.9524V69.9524ZM56.8911 82.5545L65.3764 91.0398H65.3764L56.8911 82.5545ZM56.8911 85.9217L65.3764 77.4364L65.3764 77.4364L56.8911 85.9217ZM60.2583 85.9217L51.773 77.4364L51.773 77.4364L60.2583 85.9217ZM76.8668 69.3133L68.6834 60.5364C68.5811 60.6318 68.4804 60.729 68.3815 60.828L76.8668 69.3133ZM77.6244 67.5715H89.6244H77.6244ZM76.8667 65.8296L68.3814 74.3149C68.4805 74.4139 68.5813 74.5113 68.6837 74.6068L76.8667 65.8296ZM60.2583 49.2212L51.773 57.7065L51.773 57.7065L60.2583 49.2212ZM56.8911 49.2212L65.3764 57.7065L65.3764 57.7065L56.8911 49.2212ZM56.8911 52.5884L65.3764 44.1031L65.3764 44.1031L56.8911 52.5884ZM69.4933 65.1905V77.1905C74.3468 77.1905 78.7224 74.2668 80.5798 69.7827C82.4372 65.2986 81.4105 60.1372 77.9785 56.7052L69.4933 65.1905ZM44.5556 31.8572L44.5556 19.8572L44.5556 31.8572ZM93.762 31.8572V43.8572V31.8572ZM96.1429 34.2381L108.143 34.2381V34.2381L96.1429 34.2381ZM96.1429 100.905H84.1429H96.1429ZM95.4456 102.588L103.931 111.074L103.931 111.074L95.4456 102.588ZM93.762 103.286V115.286V103.286ZM44.571 103.286V91.2857V103.286ZM42.19 100.905H54.19H42.19ZM44.571 98.5238V86.5238V98.5238ZM91.381 98.5238V110.524C98.0084 110.524 103.381 105.151 103.381 98.5238H91.381ZM91.381 36.6191H103.381C103.381 33.4365 102.117 30.3842 99.8663 28.1338C97.6159 25.8834 94.5636 24.6191 91.381 24.6191V36.6191ZM44.5556 36.6191V48.6191V36.6191ZM36.7144 67.5715C36.7144 72.8839 32.4078 77.1905 27.0953 77.1905L27.0953 53.1905C19.1529 53.1905 12.7144 59.6291 12.7144 67.5715H36.7144ZM27.0953 57.9524C32.4078 57.9524 36.7144 62.259 36.7144 67.5715H12.7144C12.7144 75.5138 19.1529 81.9524 27.0953 81.9524L27.0953 57.9524ZM69.4933 57.9524L27.0953 57.9524L27.0953 81.9524L69.4933 81.9524V57.9524ZM61.008 61.4671L48.4058 74.0693L65.3764 91.0398L77.9785 78.4377L61.008 61.4671ZM48.4058 74.0693C42.7897 79.6854 42.7897 88.7909 48.4058 94.407L65.3764 77.4364C69.1329 81.1929 69.1329 87.2834 65.3764 91.0398L48.4058 74.0693ZM48.4058 94.407C54.022 100.023 63.1275 100.023 68.7436 94.407L51.773 77.4364C55.5295 73.68 61.6199 73.68 65.3764 77.4364L48.4058 94.407ZM68.7436 94.407L85.352 77.7985L68.3815 60.828L51.773 77.4364L68.7436 94.407ZM65.6244 67.5715C65.6244 64.794 66.8172 62.2765 68.6834 60.5364L85.0501 78.0901C87.8487 75.4808 89.6244 71.7242 89.6244 67.5715H65.6244ZM68.6837 74.6068C66.8173 72.8667 65.6244 70.3491 65.6244 67.5715H89.6244C89.6244 63.4185 87.8485 59.6617 85.0496 57.0524L68.6837 74.6068ZM85.352 57.3443L68.7436 40.7359L51.773 57.7065L68.3814 74.3149L85.352 57.3443ZM68.7436 40.736C63.1275 35.1198 54.0219 35.1198 48.4058 40.736L65.3764 57.7065C61.62 61.463 55.5295 61.463 51.773 57.7065L68.7436 40.736ZM48.4059 40.7359C42.7897 46.352 42.7897 55.4576 48.4059 61.0737L65.3764 44.1031C69.1329 47.8596 69.1329 53.95 65.3764 57.7065L48.4059 40.7359ZM48.4058 61.0737L61.008 73.6758L77.9785 56.7052L65.3764 44.1031L48.4058 61.0737ZM27.0953 77.1905L69.4933 77.1905V53.1905L27.0953 53.1905L27.0953 77.1905ZM44.5556 19.8572C36.6132 19.8572 30.1747 26.2958 30.1747 34.2381L54.1747 34.2381C54.1747 39.5506 49.8681 43.8572 44.5556 43.8572L44.5556 19.8572ZM93.762 19.8572L44.5556 19.8572L44.5556 43.8572L93.762 43.8572V19.8572ZM108.143 34.2381C108.143 26.2957 101.704 19.8572 93.762 19.8572V43.8572C88.4495 43.8572 84.1429 39.5506 84.1429 34.2381L108.143 34.2381ZM108.143 100.905V34.2381H84.1429V100.905H108.143ZM103.931 111.074C106.628 108.377 108.143 104.719 108.143 100.905H84.1429C84.1429 98.3537 85.1563 95.907 86.9603 94.1031L103.931 111.074ZM93.762 115.286C97.576 115.286 101.234 113.771 103.931 111.074L86.9603 94.1031C88.7642 92.2992 91.2108 91.2857 93.762 91.2857V115.286ZM44.571 115.286H93.762V91.2857H44.571V115.286ZM30.19 100.905C30.19 108.847 36.6286 115.286 44.571 115.286V91.2857C49.8835 91.2857 54.19 95.5923 54.19 100.905H30.19ZM44.571 86.5238C36.6286 86.5238 30.19 92.9624 30.19 100.905H54.19C54.19 106.217 49.8834 110.524 44.571 110.524V86.5238ZM91.381 86.5238H44.571V110.524H91.381V86.5238ZM79.381 36.6191V98.5238H103.381V36.6191H79.381ZM44.5556 48.6191L91.381 48.6191V24.6191L44.5556 24.6191L44.5556 48.6191ZM30.1747 34.2381C30.1747 42.1805 36.6132 48.6191 44.5556 48.6191L44.5556 24.6191C49.8681 24.6191 54.1747 28.9257 54.1747 34.2381L30.1747 34.2381Z" fill="white" mask="url(#path-3-inside-2_21953_5147)"/>
</g>
<mask id="mask0_21953_5147" style="mask-type:alpha" maskUnits="userSpaceOnUse" x="21" y="28" width="72" height="72">
<mask id="path-5-inside-3_21953_5147" fill="white">
<path d="M23.524 61.6224C22.2091 61.6224 21.1431 62.6884 21.1431 64.0033C21.1431 65.3183 22.2091 66.3843 23.524 66.3843L65.922 66.3843L53.3198 78.9864C52.39 79.9162 52.39 81.4238 53.3198 82.3536C54.2497 83.2834 55.7572 83.2834 56.687 82.3536L73.2955 65.7451C73.7616 65.3105 74.0531 64.691 74.0531 64.0033C74.0531 63.3157 73.7616 62.6961 73.2954 62.2615L56.687 45.6531C55.7572 44.7233 54.2497 44.7233 53.3198 45.6531C52.39 46.5829 52.39 48.0905 53.3198 49.0203L65.922 61.6224L23.524 61.6224Z"/>
<path d="M38.6034 30.67C38.6034 29.3551 39.6694 28.2891 40.9843 28.2891L90.1907 28.2891C91.5056 28.2891 92.5716 29.3551 92.5716 30.67V97.3367C92.5716 97.9681 92.3208 98.5738 91.8743 99.0203C91.4278 99.4668 90.8221 99.7176 90.1907 99.7176H40.9997C39.6847 99.7176 38.6188 98.6516 38.6188 97.3367C38.6188 96.0217 39.6847 94.9557 40.9997 94.9557H87.8097V33.051L40.9843 33.051C39.6694 33.051 38.6034 31.985 38.6034 30.67Z"/>
</mask>
<path d="M23.524 61.6224L23.524 73.6224H23.524L23.524 61.6224ZM23.524 66.3843L23.524 78.3843H23.524L23.524 66.3843ZM65.922 66.3843L74.4073 74.8696C77.8392 71.4376 78.8659 66.2762 77.0085 61.7921C75.1511 57.308 70.7755 54.3843 65.922 54.3843V66.3843ZM53.3198 78.9864L61.8051 87.4717H61.8051L53.3198 78.9864ZM53.3198 82.3536L61.8051 73.8683L61.8051 73.8683L53.3198 82.3536ZM56.687 82.3536L48.2017 73.8683L48.2017 73.8683L56.687 82.3536ZM73.2955 65.7451L65.1121 56.9683C65.0098 57.0637 64.9091 57.1609 64.8102 57.2599L73.2955 65.7451ZM74.0531 64.0033H86.0531H74.0531ZM73.2954 62.2615L64.8101 70.7467C64.9092 70.8458 65.01 70.9431 65.1124 71.0387L73.2954 62.2615ZM56.687 45.6531L48.2017 54.1384L48.2017 54.1384L56.687 45.6531ZM53.3198 45.6531L61.8051 54.1384L61.8052 54.1384L53.3198 45.6531ZM53.3198 49.0203L61.8051 40.535L61.8051 40.535L53.3198 49.0203ZM65.922 61.6224V73.6224C70.7755 73.6224 75.1511 70.6987 77.0085 66.2146C78.8659 61.7305 77.8392 56.5691 74.4072 53.1371L65.922 61.6224ZM40.9843 28.2891L40.9843 16.2891L40.9843 28.2891ZM90.1907 28.2891V40.2891V28.2891ZM92.5716 30.67L104.572 30.67V30.67L92.5716 30.67ZM92.5716 97.3367H80.5716H92.5716ZM91.8743 99.0203L100.36 107.506L100.36 107.506L91.8743 99.0203ZM90.1907 99.7176V111.718V99.7176ZM40.9997 99.7176V87.7176V99.7176ZM38.6188 97.3367H50.6188H38.6188ZM40.9997 94.9557V82.9557V94.9557ZM87.8097 94.9557V106.956C94.4371 106.956 99.8097 101.583 99.8097 94.9557H87.8097ZM87.8097 33.051H99.8097C99.8097 29.8684 98.5454 26.8161 96.295 24.5657C94.0446 22.3152 90.9923 21.051 87.8097 21.051V33.051ZM40.9843 33.051V45.051V33.051ZM33.1431 64.0033C33.1431 69.3158 28.8365 73.6224 23.524 73.6224L23.524 49.6224C15.5816 49.6224 9.14307 56.061 9.14307 64.0033H33.1431ZM23.524 54.3843C28.8365 54.3843 33.1431 58.6909 33.1431 64.0033H9.14307C9.14307 71.9457 15.5816 78.3843 23.524 78.3843L23.524 54.3843ZM65.922 54.3843L23.524 54.3843L23.524 78.3843L65.922 78.3843V54.3843ZM57.4367 57.899L44.8346 70.5011L61.8051 87.4717L74.4073 74.8696L57.4367 57.899ZM44.8346 70.5011C39.2184 76.1173 39.2184 85.2228 44.8346 90.8389L61.8051 73.8683C65.5616 77.6248 65.5616 83.7152 61.8051 87.4717L44.8346 70.5011ZM44.8346 90.8389C50.4507 96.455 59.5562 96.455 65.1723 90.8389L48.2017 73.8683C51.9582 70.1118 58.0487 70.1118 61.8051 73.8683L44.8346 90.8389ZM65.1723 90.8389L81.7808 74.2304L64.8102 57.2599L48.2017 73.8683L65.1723 90.8389ZM62.0531 64.0033C62.0531 61.2258 63.2459 58.7084 65.1121 56.9683L81.4788 74.522C84.2774 71.9126 86.0531 68.1561 86.0531 64.0033H62.0531ZM65.1124 71.0387C63.246 69.2986 62.0531 66.781 62.0531 64.0033H86.0531C86.0531 59.8503 84.2772 56.0936 81.4783 53.4843L65.1124 71.0387ZM81.7807 53.7762L65.1723 37.1678L48.2017 54.1384L64.8101 70.7467L81.7807 53.7762ZM65.1723 37.1678C59.5562 31.5517 50.4506 31.5517 44.8345 37.1678L61.8052 54.1384C58.0487 57.8949 51.9582 57.8949 48.2017 54.1384L65.1723 37.1678ZM44.8346 37.1678C39.2184 42.7839 39.2184 51.8895 44.8346 57.5056L61.8051 40.535C65.5616 44.2915 65.5616 50.3819 61.8051 54.1384L44.8346 37.1678ZM44.8346 57.5056L57.4367 70.1077L74.4072 53.1371L61.8051 40.535L44.8346 57.5056ZM23.524 73.6224L65.922 73.6224V49.6224L23.524 49.6224L23.524 73.6224ZM40.9843 16.2891C33.0419 16.2891 26.6034 22.7276 26.6034 30.67L50.6034 30.67C50.6034 35.9825 46.2968 40.2891 40.9843 40.2891L40.9843 16.2891ZM90.1907 16.2891L40.9843 16.2891L40.9843 40.2891L90.1907 40.2891V16.2891ZM104.572 30.67C104.572 22.7276 98.133 16.2891 90.1907 16.2891V40.2891C84.8782 40.2891 80.5716 35.9825 80.5716 30.67L104.572 30.67ZM104.572 97.3367V30.67H80.5716V97.3367H104.572ZM100.36 107.506C103.057 104.809 104.572 101.151 104.572 97.3367H80.5716C80.5716 94.7856 81.5851 92.3389 83.389 90.535L100.36 107.506ZM90.1907 111.718C94.0047 111.718 97.6626 110.203 100.36 107.506L83.389 90.5349C85.1929 88.7311 87.6396 87.7176 90.1907 87.7176V111.718ZM40.9997 111.718H90.1907V87.7176H40.9997V111.718ZM26.6188 97.3367C26.6188 105.279 33.0573 111.718 40.9997 111.718V87.7176C46.3122 87.7176 50.6188 92.0242 50.6188 97.3367H26.6188ZM40.9997 82.9557C33.0573 82.9557 26.6188 89.3943 26.6188 97.3367H50.6188C50.6188 102.649 46.3122 106.956 40.9997 106.956V82.9557ZM87.8097 82.9557H40.9997V106.956H87.8097V82.9557ZM75.8097 33.051V94.9557H99.8097V33.051H75.8097ZM40.9843 45.051L87.8097 45.051V21.051L40.9843 21.051L40.9843 45.051ZM26.6034 30.67C26.6034 38.6124 33.0419 45.051 40.9843 45.051L40.9843 21.051C46.2968 21.051 50.6034 25.3576 50.6034 30.67L26.6034 30.67Z" fill="white" mask="url(#path-5-inside-3_21953_5147)"/>
</mask>
<g mask="url(#mask0_21953_5147)">
<circle opacity="0.2" cx="53.2859" cy="89.0031" r="17.8571" fill="#8697FF"/>
<circle opacity="0.2" cx="85.4288" cy="35.4317" r="14.2857" fill="#8697FF"/>
</g>
</svg>
