<svg width="360" height="180" viewBox="0 0 360 180" fill="none" xmlns="http://www.w3.org/2000/svg">
    <g clip-path="url(#clip0_108538_37472)">
        <g opacity="0.5">
            <circle cx="181" cy="-41" r="199.5" stroke="var(--r-neutral-card2, #F2F4F7)" />
            <circle cx="181" cy="-41" r="139.5" stroke="var(--r-neutral-card2, #F2F4F7)" />
            <path
                d="M74.1071 104.452C74.5486 104.579 75.2486 103.516 75.6705 102.077C76.0925 100.638 76.0766 99.3674 75.6351 99.2397C75.1936 99.1119 74.4936 100.175 74.0716 101.614C73.6497 103.054 73.6656 104.324 74.1071 104.452Z"
                fill="#D3CDD4" />
            <path
                d="M72.2289 101.269C72.3264 100.82 73.5951 100.71 75.0627 101.023C76.5303 101.337 77.641 101.955 77.5435 102.404C77.4461 102.853 76.1774 102.963 74.7098 102.649C73.2422 102.336 72.1315 101.718 72.2289 101.269Z"
                fill="#D3CDD4" />
            <path
                d="M84.1071 30.4517C84.5486 30.5795 85.2486 29.5163 85.6705 28.077C86.0925 26.6378 86.0766 25.3674 85.6351 25.2397C85.1936 25.1119 84.4936 26.1751 84.0716 27.6143C83.6497 29.0536 83.6656 30.3239 84.1071 30.4517Z"
                fill="var(--r-blue-default, #7084FF)" />
            <path
                d="M82.2289 27.2689C82.3264 26.82 83.5951 26.7101 85.0627 27.0234C86.5303 27.3368 87.641 27.9548 87.5435 28.4037C87.4461 28.8526 86.1774 28.9625 84.7098 28.6492C83.2422 28.3358 82.1315 27.7178 82.2289 27.2689Z"
                fill="var(--r-blue-default, #7084FF)" />
            <path
                d="M263.324 52.5376C263.425 52.986 264.694 53.0863 266.158 52.7618C267.622 52.4372 268.727 51.8106 268.626 51.3622C268.525 50.9138 267.256 50.8134 265.792 51.138C264.328 51.4625 263.223 52.0892 263.324 52.5376Z"
                fill="#D3CDD4" />
            <path
                d="M265.206 49.3572C265.646 49.226 266.354 50.2844 266.788 51.7211C267.221 53.1579 267.215 54.4289 266.775 54.5601C266.335 54.6912 265.627 53.6328 265.193 52.1961C264.76 50.7593 264.766 49.4883 265.206 49.3572Z"
                fill="#D3CDD4" />
        </g>
    </g>
    <defs>
        <clipPath id="clip0_108538_37472">
            <rect width="360" height="180" fill="white" />
        </clipPath>
    </defs>
</svg>