<svg width="92" height="66" viewBox="0 0 92 66" fill="none" xmlns="http://www.w3.org/2000/svg">
<path opacity="0.5" d="M0.940286 46.4158C1.80281 41.728 16.4375 45.1055 25.9855 42.6169C33.3853 40.6882 37.6972 33.1483 47.2132 32.8506C70.3504 32.1267 100.282 48.8088 87.0107 52.6293C72.5082 56.8043 59.2707 66.4748 29.9684 59.1718C15.3795 55.5357 -0.14386 52.308 0.940286 46.4158Z" fill="#EAEAFF"/>
<path d="M58.8318 43.1839C61.2375 40.5501 63.0918 36.9115 64.0942 34.9362C65.8484 36.9115 69.6575 41.8671 70.8605 44.5008C72.3639 47.793 68.605 51.7438 64.0942 51.7438C59.5836 51.7438 55.8246 46.4761 58.8318 43.1839Z" stroke="#4C65FF" stroke-width="4" stroke-linecap="round" stroke-linejoin="round"/>
<path d="M71.1951 28.2038C71.1951 15.2082 60.6601 4.67322 47.6645 4.67322C34.6689 4.67321 24.1339 15.2082 24.1339 28.2038C24.1339 41.1994 34.6689 51.7344 47.6645 51.7344" stroke="#192945" stroke-width="4" stroke-linecap="round" stroke-linejoin="round"/>
<path d="M47.6775 16.0865C42.6688 16.0865 38.6013 18.8093 38.6013 22.1373C38.6013 25.4652 42.6688 28.188 47.6775 28.188C52.6861 28.188 56.7535 30.9108 56.7535 34.2387C56.7535 37.5666 52.6861 40.2894 47.6775 40.2894M47.6775 16.0865V40.2894M47.6775 16.0865C51.039 16.0865 53.9635 17.2967 55.5434 19.1119L47.6775 16.0865ZM47.6775 16.0865V13.0612M47.6775 40.2894V43.3148M47.6775 40.2894C44.316 40.2894 41.3914 39.0793 39.8114 37.2641L47.6775 40.2894Z" stroke="#4C65FF" stroke-width="4" stroke-linecap="round" stroke-linejoin="round"/>
</svg>
