<svg xmlns="http://www.w3.org/2000/svg" width="91" height="92" viewBox="0 0 91 92" fill="none">
    <g opacity="0.5" filter="url(#filter0_f_107365_80475)">
        <path fill-rule="evenodd" clip-rule="evenodd"
            d="M52.4949 66.8003C50.1717 67.5925 47.6807 68.0223 45.0893 68.0223C32.4237 68.0223 22.1562 57.7549 22.1562 45.0893C22.1562 32.4237 32.4237 22.1562 45.0893 22.1562C57.7549 22.1562 68.0223 32.4237 68.0223 45.0893C68.0223 47.2865 67.7133 49.4115 67.1365 51.4232C65.9158 50.9874 64.6009 50.75 63.2305 50.75C56.8166 50.75 51.6172 55.9494 51.6172 62.3633C51.6172 63.9347 51.9293 65.4333 52.4949 66.8003Z"
            fill="var(--r-blue-default, #7084FF)" />
        <path
            d="M52.4949 66.8003L53.1095 68.6027C53.6075 68.4329 54.013 68.0646 54.2299 67.5853C54.4468 67.106 54.4557 66.5584 54.2545 66.0722L52.4949 66.8003ZM67.1365 51.4232L66.4961 53.2166C66.9916 53.3935 67.5381 53.3576 68.0062 53.1173C68.4742 52.877 68.822 52.4539 68.967 51.9481L67.1365 51.4232ZM45.0893 69.9266C47.8925 69.9266 50.591 69.4615 53.1095 68.6027L51.8803 64.9979C49.7524 65.7235 47.4689 66.118 45.0893 66.118V69.9266ZM20.252 45.0893C20.252 58.8066 31.372 69.9266 45.0893 69.9266V66.118C33.4754 66.118 24.0605 56.7032 24.0605 45.0893H20.252ZM45.0893 20.252C31.372 20.252 20.252 31.372 20.252 45.0893H24.0605C24.0605 33.4754 33.4754 24.0605 45.0893 24.0605V20.252ZM69.9266 45.0893C69.9266 31.372 58.8066 20.252 45.0893 20.252V24.0605C56.7032 24.0605 66.118 33.4754 66.118 45.0893H69.9266ZM68.967 51.9481C69.5923 49.7674 69.9266 47.4658 69.9266 45.0893H66.118C66.118 47.1071 65.8344 49.0555 65.3059 50.8983L68.967 51.9481ZM63.2305 52.6543C64.3796 52.6543 65.4781 52.8531 66.4961 53.2166L67.7768 49.6298C66.3536 49.1216 64.8222 48.8457 63.2305 48.8457V52.6543ZM53.5215 62.3633C53.5215 57.0012 57.8683 52.6543 63.2305 52.6543V48.8457C55.7649 48.8457 49.7129 54.8977 49.7129 62.3633H53.5215ZM54.2545 66.0722C53.7828 64.932 53.5215 63.6805 53.5215 62.3633H49.7129C49.7129 64.1889 50.0758 65.9345 50.7353 67.5283L54.2545 66.0722Z"
            fill="var(--r-blue-default, #7084FF)" />
        <path
            d="M59.0099 62.8812C60.9623 60.7436 62.4672 57.7906 63.2808 56.1875C64.7044 57.7906 67.7958 61.8124 68.7721 63.9499C69.9922 66.6218 66.9416 69.8281 63.2808 69.8281C59.62 69.8281 56.5693 65.553 59.0099 62.8812Z"
            stroke="var(--r-blue-default, #7084FF)" stroke-width="3.80859" stroke-linecap="round"
            stroke-linejoin="round" />
        <path
            d="M45.006 33.2624C40.1482 33.2624 36.2031 35.9032 36.2031 39.131C36.2031 42.3587 40.1482 44.9996 45.006 44.9996C49.8639 44.9996 53.8089 47.6404 53.8089 50.8682C53.8089 54.0959 49.8639 56.7367 45.006 56.7367M45.006 33.2624V56.7367M45.006 33.2624C48.2664 33.2624 51.1028 34.4361 52.6352 36.1967L45.006 33.2624ZM45.006 33.2624V30.3281M45.006 56.7367V59.671M45.006 56.7367C41.7457 56.7367 38.9092 55.563 37.3768 53.8025L45.006 56.7367Z"
            stroke="white" stroke-width="3.80859" stroke-linecap="round" stroke-linejoin="round" />
    </g>
    <defs>
        <filter id="filter0_f_107365_80475" x="-5" y="-5" width="100" height="100" filterUnits="userSpaceOnUse"
            color-interpolation-filters="sRGB">
            <feFlood flood-opacity="0" result="BackgroundImageFix" />
            <feBlend mode="normal" in="SourceGraphic" in2="BackgroundImageFix" result="shape" />
            <feGaussianBlur stdDeviation="10" result="effect1_foregroundBlur_107365_80475" />
        </filter>
    </defs>
</svg>