<svg xmlns="http://www.w3.org/2000/svg" width="16" height="16" viewBox="0 0 16 16" fill="none">
    <path
        d="M10.8889 11.8754C11.5111 11.1942 11.9907 10.2531 12.25 9.74219C12.7037 10.2531 13.6889 11.5348 14 12.216C14.3888 13.0675 13.4166 14.0893 12.25 14.0893C11.0833 14.0893 10.1111 12.7269 10.8889 11.8754Z"
        stroke="currentColor" stroke-linecap="round" stroke-linejoin="round" />
    <path
        d="M14.0859 8C14.0859 4.63883 11.3612 1.91406 8 1.91406C4.63883 1.91406 1.91406 4.63883 1.91406 8C1.91406 11.3612 4.63883 14.0859 8 14.0859"
        stroke="currentColor" stroke-linecap="round" stroke-linejoin="round" />
    <path
        d="M7.99979 4.86841C6.70435 4.86841 5.65234 5.57264 5.65234 6.43337C5.65234 7.2941 6.70435 7.99833 7.99979 7.99833C9.29522 7.99833 10.3472 8.70256 10.3472 9.56328C10.3472 10.424 9.29522 11.1282 7.99979 11.1282M7.99979 4.86841V11.1282M7.99979 4.86841C8.86921 4.86841 9.6256 5.18141 10.0342 5.65089L7.99979 4.86841ZM7.99979 4.86841V4.08594M7.99979 11.1282V11.9107M7.99979 11.1282C7.13037 11.1282 6.37397 10.8152 5.96532 10.3458L7.99979 11.1282Z"
        stroke="currentColor" stroke-linecap="round" stroke-linejoin="round" />
</svg>