<svg width="92" height="66" viewBox="0 0 92 66" fill="none" xmlns="http://www.w3.org/2000/svg">
<path opacity="0.5" d="M0.9405 46.4158C1.80303 41.728 16.4377 45.1055 25.9857 42.6169C33.3855 40.6882 37.6974 33.1483 47.2134 32.8506C70.3507 32.1267 100.282 48.8088 87.0109 52.6293C72.5084 56.8043 59.2709 66.4748 29.9687 59.1718C15.3797 55.5357 -0.143646 52.308 0.9405 46.4158Z" fill="#EAEAFF"/>
<path d="M31.1322 5.83287C29.2757 5.83287 27.4952 6.57037 26.1824 7.88312C24.8697 9.19588 24.1322 10.9764 24.1322 12.8329V43.1662C24.1322 45.0227 24.8697 46.8032 26.1824 48.1159C27.4952 49.4287 29.2757 50.1662 31.1322 50.1662H61.4655C63.322 50.1662 65.1025 49.4287 66.4153 48.1159C67.728 46.8032 68.4655 45.0227 68.4655 43.1662V25.539C68.4655 24.0379 67.8867 22.5947 66.8497 21.5094L53.5905 7.63653C53.046 7.06663 52.3917 6.61299 51.667 6.30299C50.9424 5.99299 50.1624 5.83306 49.3742 5.83287H31.1322ZM31.1322 10.4995H49.3742C49.5319 10.4997 49.688 10.5318 49.833 10.5939C49.978 10.6561 50.1088 10.747 50.2177 10.8612L63.4757 24.7329C63.6832 24.95 63.7989 25.2387 63.7989 25.539V43.1662C63.7989 43.785 63.553 44.3785 63.1154 44.8161C62.6779 45.2537 62.0844 45.4995 61.4655 45.4995H31.1322C30.5134 45.4995 29.9199 45.2537 29.4823 44.8161C29.0447 44.3785 28.7989 43.785 28.7989 43.1662V12.8329C28.7989 12.214 29.0447 11.6205 29.4823 11.183C29.9199 10.7454 30.5134 10.4995 31.1322 10.4995ZM46.258 23.8509C46.1963 23.8055 46.1262 23.7728 46.0518 23.7545C45.9774 23.7362 45.9001 23.7328 45.8244 23.7444C45.7487 23.756 45.676 23.7824 45.6105 23.8221C45.5449 23.8617 45.4879 23.914 45.4425 23.9757L45.1182 24.4272C41.498 29.508 39.6874 33.1655 39.6874 35.4009C39.6874 39.0455 42.4734 41.9995 45.9104 41.9995C49.3462 41.9995 52.1322 39.0455 52.1322 35.4009C52.1322 33.1014 50.2165 29.2957 46.3875 23.9815C46.3515 23.9314 46.3078 23.8873 46.258 23.8509ZM33.9777 12.7617C33.3589 12.7617 32.7654 13.0075 32.3278 13.4451C31.8902 13.8827 31.6444 14.4762 31.6444 15.095C31.6444 15.7139 31.8902 16.3074 32.3278 16.745C32.7654 17.1825 33.3589 17.4284 33.9777 17.4284H46.811C47.4299 17.4284 48.0234 17.1825 48.4609 16.745C48.8985 16.3074 49.1444 15.7139 49.1444 15.095C49.1444 14.4762 48.8985 13.8827 48.4609 13.4451C48.0234 13.0075 47.4299 12.7617 46.811 12.7617H33.9777ZM61.6662 5.06637C61.4495 4.84965 61.1922 4.67775 60.9091 4.56046C60.6259 4.44318 60.3224 4.38281 60.0159 4.38281C59.7095 4.38281 59.406 4.44318 59.1228 4.56046C58.8397 4.67775 58.5824 4.84965 58.3657 5.06637C58.149 5.28308 57.9771 5.54036 57.8598 5.82351C57.7425 6.10666 57.6821 6.41014 57.6821 6.71662C57.6821 7.0231 57.7425 7.32658 57.8598 7.60973C57.9771 7.89288 58.149 8.15015 58.3657 8.36687L65.7904 15.7915C66.0071 16.0082 66.2643 16.1802 66.5475 16.2974C66.8306 16.4147 67.1341 16.4751 67.4406 16.4751C67.7471 16.4751 68.0506 16.4147 68.3337 16.2974C68.6169 16.1802 68.8741 16.0082 69.0909 15.7915C69.3076 15.5748 69.4795 15.3175 69.5968 15.0344C69.714 14.7512 69.7744 14.4478 69.7744 14.1413C69.7744 13.8348 69.714 13.5313 69.5968 13.2482C69.4795 12.965 69.3076 12.7077 69.0909 12.491L61.6662 5.06637Z" fill="#3E495E"/>
<path d="M46.2577 23.8505C46.1959 23.8052 46.1259 23.7724 46.0515 23.7541C45.9771 23.7359 45.8998 23.7324 45.8241 23.744C45.7483 23.7556 45.6756 23.782 45.6101 23.8217C45.5446 23.8614 45.4875 23.9136 45.4422 23.9753L45.1178 24.4268C41.4977 29.5077 39.687 33.1652 39.687 35.4005C39.687 39.0452 42.473 41.9992 45.91 41.9992C49.3458 41.9992 52.1318 39.0452 52.1318 35.4005C52.1318 33.101 50.2162 29.2953 46.3872 23.9812C46.3512 23.931 46.3075 23.8869 46.2577 23.8505Z" fill="#4C65FF"/>
</svg>
