<svg xmlns="http://www.w3.org/2000/svg" width="60" height="60" viewBox="0 0 60 60" fill="none">
    <path fill-rule="evenodd" clip-rule="evenodd"
        d="M37.4949 51.8003C35.1717 52.5925 32.6807 53.0223 30.0893 53.0223C17.4237 53.0223 7.15625 42.7549 7.15625 30.0893C7.15625 17.4237 17.4237 7.15625 30.0893 7.15625C42.7549 7.15625 53.0223 17.4237 53.0223 30.0893C53.0223 32.2865 52.7133 34.4115 52.1365 36.4232C50.9158 35.9874 49.6009 35.75 48.2305 35.75C41.8166 35.75 36.6172 40.9494 36.6172 47.3633C36.6172 48.9347 36.9293 50.4333 37.4949 51.8003Z"
        fill="#7084FF" />
    <path
        d="M37.4949 51.8003L38.1095 53.6027C38.6075 53.4329 39.013 53.0646 39.2299 52.5853C39.4468 52.106 39.4557 51.5584 39.2545 51.0722L37.4949 51.8003ZM52.1365 36.4232L51.4961 38.2166C51.9916 38.3935 52.5381 38.3576 53.0062 38.1173C53.4742 37.877 53.822 37.4539 53.967 36.9481L52.1365 36.4232ZM30.0893 54.9266C32.8925 54.9266 35.591 54.4615 38.1095 53.6027L36.8803 49.9979C34.7524 50.7235 32.4689 51.118 30.0893 51.118V54.9266ZM5.25195 30.0893C5.25195 43.8066 16.372 54.9266 30.0893 54.9266V51.118C18.4754 51.118 9.06055 41.7032 9.06055 30.0893H5.25195ZM30.0893 5.25195C16.372 5.25195 5.25195 16.372 5.25195 30.0893H9.06055C9.06055 18.4754 18.4754 9.06055 30.0893 9.06055V5.25195ZM54.9266 30.0893C54.9266 16.372 43.8066 5.25195 30.0893 5.25195V9.06055C41.7032 9.06055 51.118 18.4754 51.118 30.0893H54.9266ZM53.967 36.9481C54.5923 34.7674 54.9266 32.4658 54.9266 30.0893H51.118C51.118 32.1071 50.8344 34.0555 50.3059 35.8983L53.967 36.9481ZM48.2305 37.6543C49.3796 37.6543 50.4781 37.8531 51.4961 38.2166L52.7768 34.6298C51.3536 34.1216 49.8222 33.8457 48.2305 33.8457V37.6543ZM38.5215 47.3633C38.5215 42.0012 42.8683 37.6543 48.2305 37.6543V33.8457C40.7649 33.8457 34.7129 39.8977 34.7129 47.3633H38.5215ZM39.2545 51.0722C38.7828 49.932 38.5215 48.6805 38.5215 47.3633H34.7129C34.7129 49.1889 35.0758 50.9345 35.7353 52.5283L39.2545 51.0722Z"
        fill="#7084FF" />
    <path
        d="M44.0099 47.8812C45.9623 45.7436 47.4672 42.7906 48.2808 41.1875C49.7044 42.7906 52.7958 46.8124 53.7721 48.9499C54.9922 51.6218 51.9416 54.8281 48.2808 54.8281C44.62 54.8281 41.5693 50.553 44.0099 47.8812Z"
        stroke="#7084FF" stroke-width="3.5" stroke-linecap="round" stroke-linejoin="round" />
    <path
        d="M30.006 18.2624C25.1482 18.2624 21.2031 20.9032 21.2031 24.131C21.2031 27.3587 25.1482 29.9996 30.006 29.9996C34.8639 29.9996 38.8089 32.6404 38.8089 35.8682C38.8089 39.0959 34.8639 41.7367 30.006 41.7367M30.006 18.2624V41.7367M30.006 18.2624C33.2664 18.2624 36.1028 19.4361 37.6352 21.1967L30.006 18.2624ZM30.006 18.2624V15.3281M30.006 41.7367V44.671M30.006 41.7367C26.7457 41.7367 23.9092 40.563 22.3768 38.8025L30.006 41.7367Z"
        stroke="white" stroke-width="3.80859" stroke-linecap="round" stroke-linejoin="round" />
</svg>