<svg width="92" height="54" viewBox="0 0 92 54" fill="none" xmlns="http://www.w3.org/2000/svg">
<path opacity="0.5" d="M0.940317 34.4158C1.80284 29.728 16.4375 33.1055 25.9855 30.6169C33.3853 28.6882 37.6972 21.1483 47.2132 20.8506C70.3505 20.1267 100.282 36.8088 87.0107 40.6293C72.5082 44.8043 59.2707 54.4748 29.9685 47.1718C15.3795 43.5357 -0.143829 40.308 0.940317 34.4158Z" fill="#EAEAFF"/>
<path d="M35.083 4.58318C33.6243 4.58318 32.2254 5.16264 31.1939 6.19409C30.1625 7.22554 29.583 8.62449 29.583 10.0832V33.9165C29.583 35.3752 30.1625 36.7741 31.1939 37.8056C32.2254 38.837 33.6243 39.4165 35.083 39.4165H58.9164C60.375 39.4165 61.774 38.837 62.8054 37.8056C63.8369 36.7741 64.4164 35.3752 64.4164 33.9165V20.0666C64.4163 18.8872 63.9616 17.7532 63.1468 16.9004L52.7289 6.00034C52.301 5.55256 51.7869 5.19613 51.2175 4.95256C50.6482 4.70899 50.0353 4.58333 49.416 4.58318H35.083ZM35.083 8.24984H49.416C49.54 8.24994 49.6626 8.27518 49.7765 8.32402C49.8904 8.37286 49.9932 8.4443 50.0788 8.53401L60.4958 19.4332C60.6588 19.6038 60.7497 19.8306 60.7497 20.0666V33.9165C60.7497 34.4027 60.5565 34.8691 60.2127 35.2129C59.8689 35.5567 59.4026 35.7498 58.9164 35.7498H35.083C34.5968 35.7498 34.1305 35.5567 33.7867 35.2129C33.4428 34.8691 33.2497 34.4027 33.2497 33.9165V10.0832C33.2497 9.59695 33.4428 9.13063 33.7867 8.78681C34.1305 8.443 34.5968 8.24984 35.083 8.24984ZM46.9676 18.7402C46.9191 18.7045 46.864 18.6788 46.8056 18.6645C46.7471 18.6501 46.6864 18.6474 46.6269 18.6565C46.5674 18.6656 46.5103 18.6864 46.4588 18.7175C46.4073 18.7487 46.3625 18.7897 46.3269 18.8383L46.072 19.193C43.2276 23.1851 41.8049 26.0588 41.8049 27.8152C41.8049 30.6788 43.9939 32.9998 46.6944 32.9998C49.394 32.9998 51.583 30.6788 51.583 27.8152C51.583 26.0084 50.0779 23.0183 47.0694 18.8428C47.0411 18.8035 47.0067 18.7688 46.9676 18.7402ZM37.3188 10.0273C36.8325 10.0273 36.3662 10.2204 36.0224 10.5642C35.6786 10.908 35.4854 11.3744 35.4854 11.8606C35.4854 12.3468 35.6786 12.8131 36.0224 13.157C36.3662 13.5008 36.8325 13.6939 37.3188 13.6939H47.4021C47.8883 13.6939 48.3546 13.5008 48.6985 13.157C49.0423 12.8131 49.2354 12.3468 49.2354 11.8606C49.2354 11.3744 49.0423 10.908 48.6985 10.5642C48.3546 10.2204 47.8883 10.0273 47.4021 10.0273H37.3188ZM59.074 3.98093C58.9037 3.81065 58.7016 3.67558 58.4791 3.58343C58.2566 3.49128 58.0182 3.44385 57.7774 3.44385C57.5366 3.44385 57.2981 3.49128 57.0757 3.58343C56.8532 3.67558 56.651 3.81065 56.4808 3.98093C56.3105 4.1512 56.1754 4.35335 56.0833 4.57582C55.9911 4.7983 55.9437 5.03675 55.9437 5.27755C55.9437 5.51836 55.9911 5.75681 56.0833 5.97928C56.1754 6.20176 56.3105 6.4039 56.4808 6.57418L62.3144 12.4078C62.4847 12.5781 62.6869 12.7132 62.9093 12.8053C63.1318 12.8975 63.3703 12.9449 63.6111 12.9449C63.8519 12.9449 64.0903 12.8975 64.3128 12.8053C64.5353 12.7132 64.7374 12.5781 64.9077 12.4078C65.078 12.2376 65.213 12.0354 65.3052 11.8129C65.3973 11.5905 65.4448 11.352 65.4448 11.1112C65.4448 10.8704 65.3973 10.632 65.3052 10.4095C65.213 10.187 65.078 9.98487 64.9077 9.81459L59.074 3.98093Z" fill="#3E495E"/>
<path d="M46.9675 18.7393C46.919 18.7037 46.8639 18.678 46.8054 18.6636C46.747 18.6493 46.6863 18.6466 46.6268 18.6557C46.5673 18.6648 46.5102 18.6855 46.4587 18.7167C46.4072 18.7479 46.3623 18.7889 46.3267 18.8374L46.0719 19.1922C43.2275 23.1843 41.8048 26.058 41.8048 27.8143C41.8048 30.678 43.9938 32.999 46.6943 32.999C49.3939 32.999 51.5829 30.678 51.5829 27.8143C51.5829 26.0076 50.0777 23.0174 47.0692 18.842C47.0409 18.8026 47.0066 18.768 46.9675 18.7393Z" fill="#4C65FF"/>
</svg>
