<svg xmlns="http://www.w3.org/2000/svg" width="80" height="80" viewBox="0 0 80 80" fill="none">
  <path d="M57.9033 61.6887C61.3399 57.9261 63.989 52.7281 65.421 49.9062C67.927 52.7281 73.3686 59.8075 75.087 63.57C77.2348 68.2731 71.865 73.917 65.421 73.917C58.9773 73.917 53.6072 66.3919 57.9033 61.6887Z" stroke="#4C65FF" stroke-width="5" stroke-linecap="round" stroke-linejoin="round"/>
  <path d="M75.5625 40.2599C75.5625 21.6948 60.5125 6.64477 41.9474 6.64477C23.3823 6.64477 8.33226 21.6948 8.33226 40.2599C8.33226 58.825 23.3823 73.875 41.9474 73.875" stroke="#192945" stroke-width="5" stroke-linecap="round" stroke-linejoin="round"/>
  <path d="M41.9659 22.9781C34.8107 22.9781 29 26.8679 29 31.6221C29 36.3762 34.8107 40.266 41.9659 40.266C49.1211 40.266 54.9317 44.1557 54.9317 48.9099C54.9317 53.664 49.1211 57.5537 41.9659 57.5537M41.9659 22.9781V57.5537M41.9659 22.9781C46.768 22.9781 50.9459 24.707 53.2029 27.3001L41.9659 22.9781ZM41.9659 22.9781V18.6562M41.9659 57.5537V61.8757M41.9659 57.5537C37.1637 57.5537 32.9858 55.825 30.7287 53.2318L41.9659 57.5537Z" stroke="#4C65FF" stroke-width="5" stroke-linecap="round" stroke-linejoin="round"/>
</svg>