<svg width="360" height="111" viewBox="0 0 360 111" fill="none" xmlns="http://www.w3.org/2000/svg">
<rect width="360" height="111" rx="8" fill="white"/>
<rect x="25.25" y="41.25" width="307.5" height="39.5" rx="5.75" stroke="#E0E5EC" stroke-width="0.5"/>
<path d="M48.9688 68.2075V55.0927C48.9688 54.7449 49.1069 54.4113 49.3529 54.1654C49.5988 53.9194 49.9324 53.7812 50.2802 53.7812H56.8376C57.1854 53.7812 57.519 53.9194 57.765 54.1654C58.0109 54.4113 58.1491 54.7449 58.1491 55.0927V68.2075" stroke="#3E495E" stroke-width="1.25" stroke-linecap="round" stroke-linejoin="round"/>
<path d="M47 68.2188H60.1148" stroke="#3E495E" stroke-width="1.25" stroke-linecap="round" stroke-linejoin="round"/>
<path d="M58.5391 59.9462C58.8869 59.9462 59.7451 59.8221 59.991 60.068C60.237 60.314 60.3751 60.6476 60.3751 60.9954V64.2741C60.3751 64.6219 60.5133 64.9555 60.7593 65.2014C61.0052 65.4474 61.3388 65.5856 61.6866 65.5856C62.0344 65.5856 62.368 65.4474 62.614 65.2014C62.8599 64.9555 62.9981 64.6219 62.9981 64.2741V57.6044C62.9981 57.4321 62.9642 57.2614 62.8982 57.1022C62.8322 56.943 62.7356 56.7984 62.6137 56.6765L61.0309 55.0938" stroke="#3E495E" stroke-width="1.25" stroke-linecap="round" stroke-linejoin="round"/>
<path d="M55.5243 58.6875H51.5898" stroke="#3E495E" stroke-width="1.25" stroke-linecap="round" stroke-linejoin="round"/>
<path d="M73.9736 66.2222C73.2077 66.2222 72.5475 66.0804 71.9932 65.7969C71.4388 65.5133 71.0114 65.1198 70.7109 64.6162C70.4105 64.1084 70.2603 63.5181 70.2603 62.8452V56.8403H71.6885V62.7373C71.6885 63.1774 71.7773 63.5646 71.9551 63.8989C72.137 64.2332 72.3973 64.4935 72.7358 64.6797C73.0786 64.8659 73.4912 64.959 73.9736 64.959C74.4603 64.959 74.8729 64.8659 75.2114 64.6797C75.55 64.4935 75.8081 64.2332 75.9858 63.8989C76.1636 63.5646 76.2524 63.1774 76.2524 62.7373V56.8403H77.6807V62.8452C77.6807 63.5181 77.5304 64.1084 77.23 64.6162C76.9338 65.1198 76.5085 65.5133 75.9541 65.7969C75.404 66.0804 74.7438 66.2222 73.9736 66.2222ZM82.3208 66.1333C81.7664 66.1333 81.284 66.0529 80.8735 65.8921C80.4631 65.7271 80.1372 65.5007 79.896 65.2129C79.6548 64.9209 79.513 64.5824 79.4707 64.1973V64.1846H80.8545V64.1973C80.9434 64.4554 81.1126 64.6649 81.3623 64.8257C81.612 64.9865 81.9421 65.0669 82.3525 65.0669C82.6361 65.0669 82.8836 65.0267 83.0952 64.9463C83.311 64.8659 83.4803 64.7537 83.603 64.6099C83.7257 64.466 83.7871 64.3009 83.7871 64.1147V64.1021C83.7871 63.8862 83.7004 63.7043 83.5269 63.5562C83.3534 63.408 83.0677 63.2874 82.6699 63.1943L81.5654 62.9404C81.1338 62.8431 80.7762 62.7098 80.4927 62.5405C80.2091 62.3713 79.9997 62.1639 79.8643 61.9185C79.7288 61.6688 79.6611 61.3768 79.6611 61.0425V61.0361C79.6611 60.6341 79.7754 60.2786 80.0039 59.9697C80.2324 59.6566 80.5477 59.4132 80.9497 59.2397C81.356 59.062 81.8193 58.9731 82.3398 58.9731C82.8646 58.9731 83.3216 59.0557 83.7109 59.2207C84.1045 59.3815 84.4155 59.6058 84.644 59.8936C84.8726 60.1771 85.008 60.5072 85.0503 60.8838V60.8901H83.73V60.8774C83.6665 60.6362 83.5142 60.4352 83.2729 60.2744C83.036 60.1136 82.7228 60.0332 82.3335 60.0332C82.0838 60.0332 81.8617 60.0734 81.667 60.1538C81.4723 60.23 81.3179 60.3379 81.2036 60.4775C81.0936 60.613 81.0386 60.7738 81.0386 60.96V60.9727C81.0386 61.1165 81.0745 61.2435 81.1465 61.3535C81.2227 61.4593 81.3411 61.5545 81.502 61.6392C81.6628 61.7196 81.8701 61.7915 82.124 61.855L83.2222 62.1025C83.8823 62.2591 84.3732 62.4855 84.6948 62.7817C85.0207 63.078 85.1836 63.4757 85.1836 63.9751V63.9878C85.1836 64.411 85.0588 64.7855 84.8091 65.1113C84.5594 65.4329 84.2188 65.6847 83.7871 65.8667C83.3597 66.0444 82.8709 66.1333 82.3208 66.1333ZM89.7158 66.1333C89.043 66.1333 88.4653 65.9894 87.9829 65.7017C87.5005 65.4097 87.1281 64.9971 86.8657 64.4639C86.6076 63.9307 86.4785 63.3001 86.4785 62.5723V62.5659C86.4785 61.8465 86.6076 61.2181 86.8657 60.6807C87.1281 60.1432 87.4963 59.7243 87.9702 59.4238C88.4484 59.1234 89.007 58.9731 89.646 58.9731C90.2892 58.9731 90.8415 59.117 91.3027 59.4048C91.7682 59.6925 92.1258 60.0967 92.3755 60.6172C92.6252 61.1335 92.75 61.7386 92.75 62.4326V62.915H87.1768V61.9312H92.0645L91.4043 62.8452V62.293C91.4043 61.8021 91.3281 61.3958 91.1758 61.0742C91.0277 60.7484 90.8224 60.505 90.5601 60.3442C90.2977 60.1834 89.9951 60.103 89.6523 60.103C89.3096 60.103 89.0028 60.1877 88.7319 60.3569C88.4653 60.522 88.2537 60.7674 88.0972 61.0933C87.9448 61.4191 87.8687 61.819 87.8687 62.293V62.8452C87.8687 63.298 87.9448 63.6852 88.0972 64.0068C88.2495 64.3285 88.4653 64.5739 88.7446 64.7432C89.0282 64.9124 89.3625 64.9971 89.7476 64.9971C90.0438 64.9971 90.2977 64.9569 90.5093 64.8765C90.7251 64.7918 90.9007 64.6882 91.0361 64.5654C91.1758 64.4427 91.271 64.3221 91.3218 64.2036L91.3472 64.1528H92.6802L92.6675 64.21C92.6082 64.4385 92.5046 64.667 92.3564 64.8955C92.2083 65.1198 92.0116 65.325 91.7661 65.5112C91.5249 65.6974 91.2329 65.8477 90.8901 65.9619C90.5516 66.0762 90.1602 66.1333 89.7158 66.1333ZM101.954 66.2222C101.298 66.2222 100.71 66.1121 100.189 65.8921C99.6689 65.6678 99.2246 65.3462 98.8564 64.9272C98.4883 64.5083 98.2048 64.0047 98.0059 63.4165C97.8112 62.8241 97.7139 62.1597 97.7139 61.4233V61.4106C97.7139 60.4373 97.8874 59.5931 98.2344 58.8779C98.5814 58.1585 99.0723 57.6021 99.707 57.2085C100.342 56.8149 101.084 56.6182 101.935 56.6182C102.629 56.6182 103.249 56.7409 103.795 56.9863C104.341 57.2318 104.789 57.5767 105.141 58.021C105.492 58.4611 105.722 58.9774 105.833 59.5698L105.839 59.6333H104.411L104.392 59.5698C104.231 59.0282 103.937 58.6113 103.509 58.3193C103.086 58.0273 102.561 57.8813 101.935 57.8813C101.372 57.8813 100.883 58.0252 100.469 58.313C100.054 58.6007 99.7324 59.0091 99.5039 59.5381C99.2796 60.0628 99.1675 60.6849 99.1675 61.4043V61.417C99.1675 61.9629 99.231 62.4538 99.3579 62.8896C99.4891 63.3255 99.6774 63.6979 99.9229 64.0068C100.168 64.3115 100.462 64.5464 100.805 64.7114C101.148 64.8765 101.535 64.959 101.967 64.959C102.466 64.959 102.904 64.8617 103.281 64.667C103.662 64.4681 103.958 64.193 104.169 63.8418C104.381 63.4906 104.489 63.0801 104.493 62.6104L104.5 62.4072H102.145V61.2583H105.909V62.3945C105.909 62.9743 105.816 63.499 105.629 63.9688C105.443 64.4385 105.177 64.8426 104.83 65.1812C104.483 65.5155 104.066 65.7736 103.579 65.9556C103.092 66.1333 102.551 66.2222 101.954 66.2222ZM109.571 66.1143C109.135 66.1143 108.744 66.0317 108.397 65.8667C108.054 65.6974 107.783 65.4583 107.584 65.1494C107.386 64.8405 107.286 64.4787 107.286 64.064V64.0513C107.286 63.6366 107.386 63.2832 107.584 62.9912C107.788 62.6992 108.08 62.4707 108.46 62.3057C108.846 62.1364 109.311 62.0348 109.857 62.001L112.402 61.8486V62.8198L110.047 62.9722C109.573 63.0018 109.224 63.1034 109 63.2769C108.776 63.4461 108.664 63.6852 108.664 63.9941V64.0068C108.664 64.32 108.784 64.5675 109.025 64.7495C109.267 64.9272 109.571 65.0161 109.939 65.0161C110.282 65.0161 110.587 64.9484 110.854 64.813C111.124 64.6733 111.336 64.4871 111.488 64.2544C111.641 64.0174 111.717 63.7508 111.717 63.4546V61.2837C111.717 60.9028 111.598 60.613 111.361 60.4141C111.129 60.2109 110.782 60.1094 110.32 60.1094C109.935 60.1094 109.62 60.1771 109.375 60.3125C109.133 60.4479 108.972 60.6383 108.892 60.8838L108.879 60.9028H107.553L107.559 60.8584C107.614 60.4775 107.764 60.1475 108.01 59.8682C108.259 59.5846 108.585 59.3646 108.987 59.208C109.394 59.0514 109.857 58.9731 110.377 58.9731C110.957 58.9731 111.448 59.0662 111.85 59.2524C112.256 59.4344 112.563 59.6989 112.771 60.0459C112.982 60.3887 113.088 60.8013 113.088 61.2837V66H111.717V65.0225H111.615C111.48 65.2552 111.311 65.4541 111.107 65.6191C110.904 65.7799 110.674 65.9027 110.416 65.9873C110.157 66.0719 109.876 66.1143 109.571 66.1143ZM117.538 66.1333C116.983 66.1333 116.501 66.0529 116.09 65.8921C115.68 65.7271 115.354 65.5007 115.113 65.2129C114.872 64.9209 114.73 64.5824 114.688 64.1973V64.1846H116.071V64.1973C116.16 64.4554 116.329 64.6649 116.579 64.8257C116.829 64.9865 117.159 65.0669 117.569 65.0669C117.853 65.0669 118.1 65.0267 118.312 64.9463C118.528 64.8659 118.697 64.7537 118.82 64.6099C118.943 64.466 119.004 64.3009 119.004 64.1147V64.1021C119.004 63.8862 118.917 63.7043 118.744 63.5562C118.57 63.408 118.285 63.2874 117.887 63.1943L116.782 62.9404C116.351 62.8431 115.993 62.7098 115.709 62.5405C115.426 62.3713 115.216 62.1639 115.081 61.9185C114.946 61.6688 114.878 61.3768 114.878 61.0425V61.0361C114.878 60.6341 114.992 60.2786 115.221 59.9697C115.449 59.6566 115.764 59.4132 116.167 59.2397C116.573 59.062 117.036 58.9731 117.557 58.9731C118.081 58.9731 118.538 59.0557 118.928 59.2207C119.321 59.3815 119.632 59.6058 119.861 59.8936C120.089 60.1771 120.225 60.5072 120.267 60.8838V60.8901H118.947V60.8774C118.883 60.6362 118.731 60.4352 118.49 60.2744C118.253 60.1136 117.94 60.0332 117.55 60.0332C117.301 60.0332 117.078 60.0734 116.884 60.1538C116.689 60.23 116.535 60.3379 116.42 60.4775C116.31 60.613 116.255 60.7738 116.255 60.96V60.9727C116.255 61.1165 116.291 61.2435 116.363 61.3535C116.439 61.4593 116.558 61.5545 116.719 61.6392C116.88 61.7196 117.087 61.7915 117.341 61.855L118.439 62.1025C119.099 62.2591 119.59 62.4855 119.912 62.7817C120.237 63.078 120.4 63.4757 120.4 63.9751V63.9878C120.4 64.411 120.276 64.7855 120.026 65.1113C119.776 65.4329 119.436 65.6847 119.004 65.8667C118.576 66.0444 118.088 66.1333 117.538 66.1333ZM128.062 66V58.0718H125.18V56.8403H132.366V58.0718H129.484V66H128.062ZM135.622 66.1333C134.949 66.1333 134.367 65.9894 133.876 65.7017C133.39 65.4139 133.015 65.0034 132.753 64.4702C132.491 63.9328 132.359 63.2959 132.359 62.5596V62.5469C132.359 61.8063 132.491 61.1694 132.753 60.6362C133.02 60.103 133.396 59.6925 133.883 59.4048C134.374 59.117 134.953 58.9731 135.622 58.9731C136.295 58.9731 136.875 59.117 137.361 59.4048C137.848 59.6883 138.222 60.0988 138.485 60.6362C138.751 61.1694 138.885 61.8063 138.885 62.5469V62.5596C138.885 63.2959 138.751 63.9328 138.485 64.4702C138.222 65.0034 137.848 65.4139 137.361 65.7017C136.879 65.9894 136.299 66.1333 135.622 66.1333ZM135.622 64.978C136.016 64.978 136.35 64.8828 136.625 64.6924C136.9 64.4977 137.11 64.2205 137.253 63.8608C137.397 63.5011 137.469 63.0674 137.469 62.5596V62.5469C137.469 62.0348 137.397 61.599 137.253 61.2393C137.11 60.8796 136.9 60.6045 136.625 60.4141C136.35 60.2194 136.016 60.1221 135.622 60.1221C135.229 60.1221 134.894 60.2194 134.619 60.4141C134.344 60.6045 134.132 60.8796 133.984 61.2393C133.84 61.599 133.769 62.0348 133.769 62.5469V62.5596C133.769 63.0674 133.84 63.5011 133.984 63.8608C134.132 64.2205 134.344 64.4977 134.619 64.6924C134.894 64.8828 135.229 64.978 135.622 64.978ZM140.586 66V56.4023H141.963V66H140.586ZM144.928 66L142.452 62.769L143.474 61.9121L146.61 66H144.928ZM141.83 63.6323L141.773 62.0073H142.071L144.801 59.1064H146.419L143.309 62.2549L142.776 62.6929L141.83 63.6323ZM150.399 66.1333C149.727 66.1333 149.149 65.9894 148.667 65.7017C148.184 65.4097 147.812 64.9971 147.549 64.4639C147.291 63.9307 147.162 63.3001 147.162 62.5723V62.5659C147.162 61.8465 147.291 61.2181 147.549 60.6807C147.812 60.1432 148.18 59.7243 148.654 59.4238C149.132 59.1234 149.691 58.9731 150.33 58.9731C150.973 58.9731 151.525 59.117 151.986 59.4048C152.452 59.6925 152.809 60.0967 153.059 60.6172C153.309 61.1335 153.434 61.7386 153.434 62.4326V62.915H147.86V61.9312H152.748L152.088 62.8452V62.293C152.088 61.8021 152.012 61.3958 151.859 61.0742C151.711 60.7484 151.506 60.505 151.244 60.3442C150.981 60.1834 150.679 60.103 150.336 60.103C149.993 60.103 149.686 60.1877 149.416 60.3569C149.149 60.522 148.937 60.7674 148.781 61.0933C148.628 61.4191 148.552 61.819 148.552 62.293V62.8452C148.552 63.298 148.628 63.6852 148.781 64.0068C148.933 64.3285 149.149 64.5739 149.428 64.7432C149.712 64.9124 150.046 64.9971 150.431 64.9971C150.727 64.9971 150.981 64.9569 151.193 64.8765C151.409 64.7918 151.584 64.6882 151.72 64.5654C151.859 64.4427 151.955 64.3221 152.005 64.2036L152.031 64.1528H153.364L153.351 64.21C153.292 64.4385 153.188 64.667 153.04 64.8955C152.892 65.1198 152.695 65.325 152.45 65.5112C152.208 65.6974 151.917 65.8477 151.574 65.9619C151.235 66.0762 150.844 66.1333 150.399 66.1333ZM155.071 66V59.1064H156.449V60.1475H156.557C156.726 59.7793 156.976 59.4915 157.306 59.2842C157.636 59.0768 158.053 58.9731 158.556 58.9731C159.331 58.9731 159.923 59.1953 160.333 59.6396C160.744 60.084 160.949 60.7166 160.949 61.5376V66H159.565V61.8613C159.565 61.2858 159.445 60.8584 159.204 60.5791C158.967 60.2956 158.594 60.1538 158.086 60.1538C157.752 60.1538 157.462 60.2279 157.217 60.376C156.971 60.5199 156.781 60.7272 156.646 60.998C156.514 61.2646 156.449 61.5841 156.449 61.9565V66H155.071Z" fill="#3E495E"/>
<path d="M179 47C179 44.7909 180.791 43 183 43H327C329.209 43 331 44.7909 331 47V75C331 77.2091 329.209 79 327 79H183C180.791 79 179 77.2091 179 75V47Z" fill="#EDF0FF"/>
<path fill-rule="evenodd" clip-rule="evenodd" d="M203.5 68.272C202.725 68.536 201.895 68.6793 201.031 68.6793C196.809 68.6793 193.387 65.2568 193.387 61.035C193.387 56.8131 196.809 53.3906 201.031 53.3906C205.253 53.3906 208.675 56.8131 208.675 61.035C208.675 61.7674 208.572 62.4757 208.38 63.1463C207.973 63.001 207.535 62.9219 207.078 62.9219C204.94 62.9219 203.207 64.655 203.207 66.793C203.207 67.3168 203.311 67.8163 203.5 68.272Z" fill="#4C65FF"/>
<path d="M203.5 68.272L203.701 68.8635C203.865 68.8078 203.998 68.6869 204.069 68.5296C204.14 68.3723 204.143 68.1926 204.077 68.033L203.5 68.272ZM208.38 63.1463L208.17 63.7349C208.333 63.7929 208.512 63.7812 208.666 63.7023C208.819 63.6234 208.933 63.4845 208.981 63.3186L208.38 63.1463ZM201.031 68.6793V69.3043C201.964 69.3043 202.863 69.1495 203.701 68.8635L203.5 68.272L203.298 67.6804C202.588 67.9226 201.825 68.0543 201.031 68.0543V68.6793ZM193.387 61.035H192.762C192.762 65.602 196.464 69.3043 201.031 69.3043V68.6793V68.0543C197.154 68.0543 194.012 64.9117 194.012 61.035H193.387ZM201.031 53.3906V52.7656C196.464 52.7656 192.762 56.4679 192.762 61.035H193.387H194.012C194.012 57.1583 197.154 54.0156 201.031 54.0156V53.3906ZM208.675 61.035H209.3C209.3 56.4679 205.598 52.7656 201.031 52.7656V53.3906V54.0156C204.908 54.0156 208.05 57.1583 208.05 61.035H208.675ZM208.38 63.1463L208.981 63.3186C209.189 62.5925 209.3 61.8262 209.3 61.035H208.675H208.05C208.05 61.7085 207.956 62.3589 207.779 62.974L208.38 63.1463ZM207.078 62.9219V63.5469C207.462 63.5469 207.83 63.6133 208.17 63.7349L208.38 63.1463L208.59 62.5577C208.117 62.3887 207.608 62.2969 207.078 62.2969V62.9219ZM203.207 66.793H203.832C203.832 65.0002 205.285 63.5469 207.078 63.5469V62.9219V62.2969C204.595 62.2969 202.582 64.3098 202.582 66.793H203.207ZM203.5 68.272L204.077 68.033C203.919 67.6518 203.832 67.2334 203.832 66.793H203.207H202.582C202.582 67.4002 202.703 67.9808 202.922 68.5109L203.5 68.272Z" fill="#4C65FF"/>
<path d="M205.671 66.9578C206.322 66.2453 206.824 65.2609 207.095 64.7266C207.569 65.2609 208.6 66.6015 208.925 67.314C209.332 68.2047 208.315 69.2734 207.095 69.2734C205.875 69.2734 204.858 67.8484 205.671 66.9578Z" stroke="#4C65FF" stroke-width="1.25" stroke-linecap="round" stroke-linejoin="round"/>
<path d="M201.001 57.0875C199.381 57.0875 198.066 57.9677 198.066 59.0437C198.066 60.1196 199.381 60.9999 201.001 60.9999C202.62 60.9999 203.935 61.8801 203.935 62.9561C203.935 64.032 202.62 64.9122 201.001 64.9122M201.001 57.0875V64.9122M201.001 57.0875C202.087 57.0875 203.033 57.4787 203.544 58.0656L201.001 57.0875ZM201.001 57.0875V56.1094M201.001 64.9122V65.8903M201.001 64.9122C199.914 64.9122 198.968 64.521 198.458 63.9342L201.001 64.9122Z" stroke="white" stroke-width="1.25" stroke-linecap="round" stroke-linejoin="round"/>
<path d="M220.034 66.2222C219.268 66.2222 218.608 66.0804 218.053 65.7969C217.499 65.5133 217.071 65.1198 216.771 64.6162C216.471 64.1084 216.32 63.5181 216.32 62.8452V56.8403H217.749V62.7373C217.749 63.1774 217.837 63.5646 218.015 63.8989C218.197 64.2332 218.457 64.4935 218.796 64.6797C219.139 64.8659 219.551 64.959 220.034 64.959C220.52 64.959 220.933 64.8659 221.271 64.6797C221.61 64.4935 221.868 64.2332 222.046 63.8989C222.224 63.5646 222.312 63.1774 222.312 62.7373V56.8403H223.741V62.8452C223.741 63.5181 223.59 64.1084 223.29 64.6162C222.994 65.1198 222.569 65.5133 222.014 65.7969C221.464 66.0804 220.804 66.2222 220.034 66.2222ZM228.381 66.1333C227.826 66.1333 227.344 66.0529 226.934 65.8921C226.523 65.7271 226.197 65.5007 225.956 65.2129C225.715 64.9209 225.573 64.5824 225.531 64.1973V64.1846H226.915V64.1973C227.003 64.4554 227.173 64.6649 227.422 64.8257C227.672 64.9865 228.002 65.0669 228.413 65.0669C228.696 65.0669 228.944 65.0267 229.155 64.9463C229.371 64.8659 229.54 64.7537 229.663 64.6099C229.786 64.466 229.847 64.3009 229.847 64.1147V64.1021C229.847 63.8862 229.76 63.7043 229.587 63.5562C229.413 63.408 229.128 63.2874 228.73 63.1943L227.625 62.9404C227.194 62.8431 226.836 62.7098 226.553 62.5405C226.269 62.3713 226.06 62.1639 225.924 61.9185C225.789 61.6688 225.721 61.3768 225.721 61.0425V61.0361C225.721 60.6341 225.835 60.2786 226.064 59.9697C226.292 59.6566 226.608 59.4132 227.01 59.2397C227.416 59.062 227.879 58.9731 228.4 58.9731C228.925 58.9731 229.382 59.0557 229.771 59.2207C230.165 59.3815 230.476 59.6058 230.704 59.8936C230.933 60.1771 231.068 60.5072 231.11 60.8838V60.8901H229.79V60.8774C229.727 60.6362 229.574 60.4352 229.333 60.2744C229.096 60.1136 228.783 60.0332 228.394 60.0332C228.144 60.0332 227.922 60.0734 227.727 60.1538C227.532 60.23 227.378 60.3379 227.264 60.4775C227.154 60.613 227.099 60.7738 227.099 60.96V60.9727C227.099 61.1165 227.135 61.2435 227.207 61.3535C227.283 61.4593 227.401 61.5545 227.562 61.6392C227.723 61.7196 227.93 61.7915 228.184 61.855L229.282 62.1025C229.942 62.2591 230.433 62.4855 230.755 62.7817C231.081 63.078 231.244 63.4757 231.244 63.9751V63.9878C231.244 64.411 231.119 64.7855 230.869 65.1113C230.619 65.4329 230.279 65.6847 229.847 65.8667C229.42 66.0444 228.931 66.1333 228.381 66.1333ZM235.776 66.1333C235.103 66.1333 234.525 65.9894 234.043 65.7017C233.561 65.4097 233.188 64.9971 232.926 64.4639C232.668 63.9307 232.539 63.3001 232.539 62.5723V62.5659C232.539 61.8465 232.668 61.2181 232.926 60.6807C233.188 60.1432 233.556 59.7243 234.03 59.4238C234.508 59.1234 235.067 58.9731 235.706 58.9731C236.349 58.9731 236.902 59.117 237.363 59.4048C237.828 59.6925 238.186 60.0967 238.436 60.6172C238.685 61.1335 238.81 61.7386 238.81 62.4326V62.915H233.237V61.9312H238.125L237.464 62.8452V62.293C237.464 61.8021 237.388 61.3958 237.236 61.0742C237.088 60.7484 236.882 60.505 236.62 60.3442C236.358 60.1834 236.055 60.103 235.712 60.103C235.37 60.103 235.063 60.1877 234.792 60.3569C234.525 60.522 234.314 60.7674 234.157 61.0933C234.005 61.4191 233.929 61.819 233.929 62.293V62.8452C233.929 63.298 234.005 63.6852 234.157 64.0068C234.31 64.3285 234.525 64.5739 234.805 64.7432C235.088 64.9124 235.423 64.9971 235.808 64.9971C236.104 64.9971 236.358 64.9569 236.569 64.8765C236.785 64.7918 236.961 64.6882 237.096 64.5654C237.236 64.4427 237.331 64.3221 237.382 64.2036L237.407 64.1528H238.74L238.728 64.21C238.668 64.4385 238.565 64.667 238.417 64.8955C238.268 65.1198 238.072 65.325 237.826 65.5112C237.585 65.6974 237.293 65.8477 236.95 65.9619C236.612 66.0762 236.22 66.1333 235.776 66.1333ZM248.014 66.2222C247.358 66.2222 246.77 66.1121 246.25 65.8921C245.729 65.6678 245.285 65.3462 244.917 64.9272C244.548 64.5083 244.265 64.0047 244.066 63.4165C243.871 62.8241 243.774 62.1597 243.774 61.4233V61.4106C243.774 60.4373 243.947 59.5931 244.294 58.8779C244.641 58.1585 245.132 57.6021 245.767 57.2085C246.402 56.8149 247.145 56.6182 247.995 56.6182C248.689 56.6182 249.309 56.7409 249.855 56.9863C250.401 57.2318 250.849 57.5767 251.201 58.021C251.552 58.4611 251.783 58.9774 251.893 59.5698L251.899 59.6333H250.471L250.452 59.5698C250.291 59.0282 249.997 58.6113 249.569 58.3193C249.146 58.0273 248.621 57.8813 247.995 57.8813C247.432 57.8813 246.944 58.0252 246.529 58.313C246.114 58.6007 245.792 59.0091 245.564 59.5381C245.34 60.0628 245.228 60.6849 245.228 61.4043V61.417C245.228 61.9629 245.291 62.4538 245.418 62.8896C245.549 63.3255 245.737 63.6979 245.983 64.0068C246.228 64.3115 246.522 64.5464 246.865 64.7114C247.208 64.8765 247.595 64.959 248.027 64.959C248.526 64.959 248.964 64.8617 249.341 64.667C249.722 64.4681 250.018 64.193 250.229 63.8418C250.441 63.4906 250.549 63.0801 250.553 62.6104L250.56 62.4072H248.205V61.2583H251.969V62.3945C251.969 62.9743 251.876 63.499 251.689 63.9688C251.503 64.4385 251.237 64.8426 250.89 65.1812C250.543 65.5155 250.126 65.7736 249.639 65.9556C249.153 66.1333 248.611 66.2222 248.014 66.2222ZM255.631 66.1143C255.195 66.1143 254.804 66.0317 254.457 65.8667C254.114 65.6974 253.843 65.4583 253.645 65.1494C253.446 64.8405 253.346 64.4787 253.346 64.064V64.0513C253.346 63.6366 253.446 63.2832 253.645 62.9912C253.848 62.6992 254.14 62.4707 254.521 62.3057C254.906 62.1364 255.371 62.0348 255.917 62.001L258.462 61.8486V62.8198L256.107 62.9722C255.633 63.0018 255.284 63.1034 255.06 63.2769C254.836 63.4461 254.724 63.6852 254.724 63.9941V64.0068C254.724 64.32 254.844 64.5675 255.085 64.7495C255.327 64.9272 255.631 65.0161 256 65.0161C256.342 65.0161 256.647 64.9484 256.914 64.813C257.184 64.6733 257.396 64.4871 257.548 64.2544C257.701 64.0174 257.777 63.7508 257.777 63.4546V61.2837C257.777 60.9028 257.658 60.613 257.421 60.4141C257.189 60.2109 256.842 60.1094 256.38 60.1094C255.995 60.1094 255.68 60.1771 255.435 60.3125C255.193 60.4479 255.033 60.6383 254.952 60.8838L254.939 60.9028H253.613L253.619 60.8584C253.674 60.4775 253.824 60.1475 254.07 59.8682C254.319 59.5846 254.645 59.3646 255.047 59.208C255.454 59.0514 255.917 58.9731 256.438 58.9731C257.017 58.9731 257.508 59.0662 257.91 59.2524C258.316 59.4344 258.623 59.6989 258.831 60.0459C259.042 60.3887 259.148 60.8013 259.148 61.2837V66H257.777V65.0225H257.675C257.54 65.2552 257.371 65.4541 257.167 65.6191C256.964 65.7799 256.734 65.9027 256.476 65.9873C256.217 66.0719 255.936 66.1143 255.631 66.1143ZM263.598 66.1333C263.043 66.1333 262.561 66.0529 262.15 65.8921C261.74 65.7271 261.414 65.5007 261.173 65.2129C260.932 64.9209 260.79 64.5824 260.748 64.1973V64.1846H262.131V64.1973C262.22 64.4554 262.389 64.6649 262.639 64.8257C262.889 64.9865 263.219 65.0669 263.629 65.0669C263.913 65.0669 264.16 65.0267 264.372 64.9463C264.588 64.8659 264.757 64.7537 264.88 64.6099C265.003 64.466 265.064 64.3009 265.064 64.1147V64.1021C265.064 63.8862 264.977 63.7043 264.804 63.5562C264.63 63.408 264.345 63.2874 263.947 63.1943L262.842 62.9404C262.411 62.8431 262.053 62.7098 261.77 62.5405C261.486 62.3713 261.277 62.1639 261.141 61.9185C261.006 61.6688 260.938 61.3768 260.938 61.0425V61.0361C260.938 60.6341 261.052 60.2786 261.281 59.9697C261.509 59.6566 261.825 59.4132 262.227 59.2397C262.633 59.062 263.096 58.9731 263.617 58.9731C264.141 58.9731 264.598 59.0557 264.988 59.2207C265.381 59.3815 265.692 59.6058 265.921 59.8936C266.149 60.1771 266.285 60.5072 266.327 60.8838V60.8901H265.007V60.8774C264.943 60.6362 264.791 60.4352 264.55 60.2744C264.313 60.1136 264 60.0332 263.61 60.0332C263.361 60.0332 263.139 60.0734 262.944 60.1538C262.749 60.23 262.595 60.3379 262.48 60.4775C262.37 60.613 262.315 60.7738 262.315 60.96V60.9727C262.315 61.1165 262.351 61.2435 262.423 61.3535C262.5 61.4593 262.618 61.5545 262.779 61.6392C262.94 61.7196 263.147 61.7915 263.401 61.855L264.499 62.1025C265.159 62.2591 265.65 62.4855 265.972 62.7817C266.298 63.078 266.46 63.4757 266.46 63.9751V63.9878C266.46 64.411 266.336 64.7855 266.086 65.1113C265.836 65.4329 265.496 65.6847 265.064 65.8667C264.637 66.0444 264.148 66.1333 263.598 66.1333ZM267.4 66L270.707 56.8403H271.856V58.4463H271.424L268.898 66H267.4ZM268.993 63.5244L269.393 62.3818H273.563L273.963 63.5244H268.993ZM274.052 66L271.532 58.4463V56.8403H272.25L275.55 66H274.052ZM279.505 66.1333C278.836 66.1333 278.259 65.9894 277.772 65.7017C277.29 65.4097 276.917 64.995 276.655 64.4575C276.392 63.9201 276.261 63.279 276.261 62.5342V62.5215C276.261 61.7894 276.39 61.1589 276.648 60.6299C276.911 60.1009 277.283 59.6925 277.766 59.4048C278.252 59.117 278.83 58.9731 279.499 58.9731C280.078 58.9731 280.576 59.0747 280.99 59.2778C281.409 59.4767 281.741 59.7518 281.987 60.103C282.236 60.45 282.393 60.8457 282.457 61.29L282.463 61.3218H281.136L281.13 61.3091C281.054 60.9705 280.878 60.6891 280.603 60.4648C280.328 60.2363 279.962 60.1221 279.505 60.1221C279.124 60.1221 278.796 60.2194 278.521 60.4141C278.246 60.6045 278.034 60.8796 277.886 61.2393C277.742 61.599 277.67 62.0264 277.67 62.5215V62.5342C277.67 63.042 277.744 63.4779 277.893 63.8418C278.041 64.2057 278.252 64.4871 278.527 64.686C278.802 64.8807 279.128 64.978 279.505 64.978C279.937 64.978 280.286 64.8828 280.552 64.6924C280.823 64.502 281.014 64.2205 281.124 63.8481L281.136 63.8164L282.457 63.8101L282.444 63.8672C282.363 64.3158 282.201 64.7093 281.955 65.0479C281.71 65.3864 281.382 65.653 280.971 65.8477C280.565 66.0381 280.076 66.1333 279.505 66.1333ZM286.919 66.1333C286.25 66.1333 285.673 65.9894 285.186 65.7017C284.704 65.4097 284.331 64.995 284.069 64.4575C283.806 63.9201 283.675 63.279 283.675 62.5342V62.5215C283.675 61.7894 283.804 61.1589 284.062 60.6299C284.325 60.1009 284.697 59.6925 285.18 59.4048C285.666 59.117 286.244 58.9731 286.913 58.9731C287.492 58.9731 287.99 59.0747 288.404 59.2778C288.823 59.4767 289.155 59.7518 289.401 60.103C289.651 60.45 289.807 60.8457 289.871 61.29L289.877 61.3218H288.55L288.544 61.3091C288.468 60.9705 288.292 60.6891 288.017 60.4648C287.742 60.2363 287.376 60.1221 286.919 60.1221C286.538 60.1221 286.21 60.2194 285.935 60.4141C285.66 60.6045 285.448 60.8796 285.3 61.2393C285.156 61.599 285.084 62.0264 285.084 62.5215V62.5342C285.084 63.042 285.159 63.4779 285.307 63.8418C285.455 64.2057 285.666 64.4871 285.941 64.686C286.216 64.8807 286.542 64.978 286.919 64.978C287.351 64.978 287.7 64.8828 287.966 64.6924C288.237 64.502 288.428 64.2205 288.538 63.8481L288.55 63.8164L289.871 63.8101L289.858 63.8672C289.778 64.3158 289.615 64.7093 289.369 65.0479C289.124 65.3864 288.796 65.653 288.385 65.8477C287.979 66.0381 287.49 66.1333 286.919 66.1333ZM294.352 66.1333C293.679 66.1333 293.097 65.9894 292.606 65.7017C292.12 65.4139 291.745 65.0034 291.483 64.4702C291.221 63.9328 291.089 63.2959 291.089 62.5596V62.5469C291.089 61.8063 291.221 61.1694 291.483 60.6362C291.75 60.103 292.126 59.6925 292.613 59.4048C293.104 59.117 293.683 58.9731 294.352 58.9731C295.025 58.9731 295.605 59.117 296.091 59.4048C296.578 59.6883 296.952 60.0988 297.215 60.6362C297.481 61.1694 297.615 61.8063 297.615 62.5469V62.5596C297.615 63.2959 297.481 63.9328 297.215 64.4702C296.952 65.0034 296.578 65.4139 296.091 65.7017C295.609 65.9894 295.029 66.1333 294.352 66.1333ZM294.352 64.978C294.746 64.978 295.08 64.8828 295.355 64.6924C295.63 64.4977 295.84 64.2205 295.983 63.8608C296.127 63.5011 296.199 63.0674 296.199 62.5596V62.5469C296.199 62.0348 296.127 61.599 295.983 61.2393C295.84 60.8796 295.63 60.6045 295.355 60.4141C295.08 60.2194 294.746 60.1221 294.352 60.1221C293.958 60.1221 293.624 60.2194 293.349 60.4141C293.074 60.6045 292.862 60.8796 292.714 61.2393C292.57 61.599 292.499 62.0348 292.499 62.5469V62.5596C292.499 63.0674 292.57 63.5011 292.714 63.8608C292.862 64.2205 293.074 64.4977 293.349 64.6924C293.624 64.8828 293.958 64.978 294.352 64.978ZM301.55 66.1333C301.034 66.1333 300.598 66.0339 300.243 65.835C299.891 65.6318 299.627 65.3398 299.449 64.959C299.276 64.5739 299.189 64.1105 299.189 63.5688V59.1064H300.566V63.2451C300.566 63.8122 300.679 64.2375 300.903 64.521C301.127 64.8045 301.493 64.9463 302.001 64.9463C302.272 64.9463 302.513 64.9061 302.725 64.8257C302.936 64.741 303.114 64.6204 303.258 64.4639C303.402 64.3073 303.507 64.119 303.575 63.8989C303.647 63.6789 303.683 63.4292 303.683 63.1499V59.1064H305.067V66H303.683V64.959H303.582C303.472 65.2044 303.321 65.416 303.131 65.5938C302.94 65.7673 302.712 65.9006 302.445 65.9937C302.183 66.0868 301.885 66.1333 301.55 66.1333ZM307.047 66V59.1064H308.425V60.1475H308.533C308.702 59.7793 308.952 59.4915 309.282 59.2842C309.612 59.0768 310.029 58.9731 310.532 58.9731C311.307 58.9731 311.899 59.1953 312.31 59.6396C312.72 60.084 312.925 60.7166 312.925 61.5376V66H311.542V61.8613C311.542 61.2858 311.421 60.8584 311.18 60.5791C310.943 60.2956 310.57 60.1538 310.062 60.1538C309.728 60.1538 309.438 60.2279 309.193 60.376C308.947 60.5199 308.757 60.7272 308.622 60.998C308.49 61.2646 308.425 61.5841 308.425 61.9565V66H307.047ZM317.445 66.0444C316.692 66.0444 316.146 65.9006 315.807 65.6128C315.473 65.3208 315.306 64.8447 315.306 64.1846V60.1919H314.227V59.1064H315.306V57.3672H316.715V59.1064H318.194V60.1919H316.715V63.8481C316.715 64.2205 316.789 64.4893 316.937 64.6543C317.085 64.8151 317.331 64.8955 317.673 64.8955C317.775 64.8955 317.862 64.8934 317.934 64.8892C318.01 64.8849 318.097 64.8786 318.194 64.8701V65.9746C318.084 65.9915 317.965 66.0063 317.838 66.019C317.711 66.036 317.58 66.0444 317.445 66.0444Z" fill="#4C65FF"/>
<path d="M30.4243 30.2222C29.7684 30.2222 29.1802 30.1121 28.6597 29.8921C28.1392 29.6678 27.6948 29.3462 27.3267 28.9272C26.9585 28.5083 26.675 28.0047 26.4761 27.4165C26.2814 26.8241 26.1841 26.1597 26.1841 25.4233V25.4106C26.1841 24.4373 26.3576 23.5931 26.7046 22.8779C27.0516 22.1585 27.5425 21.6021 28.1772 21.2085C28.812 20.8149 29.5547 20.6182 30.4053 20.6182C31.0993 20.6182 31.7192 20.7409 32.2651 20.9863C32.811 21.2318 33.2596 21.5767 33.6108 22.021C33.9621 22.4611 34.1927 22.9774 34.3027 23.5698L34.3091 23.6333H32.8809L32.8618 23.5698C32.701 23.0282 32.4069 22.6113 31.9795 22.3193C31.5563 22.0273 31.0316 21.8813 30.4053 21.8813C29.8424 21.8813 29.3537 22.0252 28.939 22.313C28.5243 22.6007 28.2026 23.0091 27.9741 23.5381C27.7498 24.0628 27.6377 24.6849 27.6377 25.4043V25.417C27.6377 25.9629 27.7012 26.4538 27.8281 26.8896C27.9593 27.3255 28.1476 27.6979 28.3931 28.0068C28.6385 28.3115 28.9326 28.5464 29.2754 28.7114C29.6182 28.8765 30.0054 28.959 30.437 28.959C30.9364 28.959 31.3743 28.8617 31.751 28.667C32.1318 28.4681 32.4281 28.193 32.6396 27.8418C32.8512 27.4906 32.9591 27.0801 32.9634 26.6104L32.9697 26.4072H30.6147V25.2583H34.3789V26.3945C34.3789 26.9743 34.2858 27.499 34.0996 27.9688C33.9134 28.4385 33.6468 28.8426 33.2998 29.1812C32.9528 29.5155 32.536 29.7736 32.0493 29.9556C31.5627 30.1333 31.021 30.2222 30.4243 30.2222ZM38.0415 30.1143C37.6056 30.1143 37.2142 30.0317 36.8672 29.8667C36.5244 29.6974 36.2536 29.4583 36.0547 29.1494C35.8558 28.8405 35.7563 28.4787 35.7563 28.064V28.0513C35.7563 27.6366 35.8558 27.2832 36.0547 26.9912C36.2578 26.6992 36.5498 26.4707 36.9307 26.3057C37.3158 26.1364 37.7812 26.0348 38.3271 26.001L40.8726 25.8486V26.8198L38.5176 26.9722C38.0436 27.0018 37.6945 27.1034 37.4702 27.2769C37.2459 27.4461 37.1338 27.6852 37.1338 27.9941V28.0068C37.1338 28.32 37.2544 28.5675 37.4956 28.7495C37.7368 28.9272 38.0415 29.0161 38.4097 29.0161C38.7524 29.0161 39.0571 28.9484 39.3237 28.813C39.5946 28.6733 39.8062 28.4871 39.9585 28.2544C40.1108 28.0174 40.187 27.7508 40.187 27.4546V25.2837C40.187 24.9028 40.0685 24.613 39.8315 24.4141C39.5988 24.2109 39.2518 24.1094 38.7905 24.1094C38.4054 24.1094 38.0902 24.1771 37.8447 24.3125C37.6035 24.4479 37.4427 24.6383 37.3623 24.8838L37.3496 24.9028H36.0229L36.0293 24.8584C36.0843 24.4775 36.2345 24.1475 36.48 23.8682C36.7297 23.5846 37.0555 23.3646 37.4575 23.208C37.8638 23.0514 38.3271 22.9731 38.8477 22.9731C39.4274 22.9731 39.9183 23.0662 40.3203 23.2524C40.7266 23.4344 41.0334 23.6989 41.2407 24.0459C41.4523 24.3887 41.5581 24.8013 41.5581 25.2837V30H40.187V29.0225H40.0854C39.95 29.2552 39.7808 29.4541 39.5776 29.6191C39.3745 29.7799 39.1439 29.9027 38.8857 29.9873C38.6276 30.0719 38.3462 30.1143 38.0415 30.1143ZM46.0078 30.1333C45.4535 30.1333 44.971 30.0529 44.5605 29.8921C44.1501 29.7271 43.8242 29.5007 43.583 29.2129C43.3418 28.9209 43.2 28.5824 43.1577 28.1973V28.1846H44.5415V28.1973C44.6304 28.4554 44.7996 28.6649 45.0493 28.8257C45.299 28.9865 45.6291 29.0669 46.0396 29.0669C46.3231 29.0669 46.5706 29.0267 46.7822 28.9463C46.998 28.8659 47.1673 28.7537 47.29 28.6099C47.4128 28.466 47.4741 28.3009 47.4741 28.1147V28.1021C47.4741 27.8862 47.3874 27.7043 47.2139 27.5562C47.0404 27.408 46.7547 27.2874 46.3569 27.1943L45.2524 26.9404C44.8208 26.8431 44.4632 26.7098 44.1797 26.5405C43.8962 26.3713 43.6867 26.1639 43.5513 25.9185C43.4159 25.6688 43.3481 25.3768 43.3481 25.0425V25.0361C43.3481 24.6341 43.4624 24.2786 43.6909 23.9697C43.9194 23.6566 44.2347 23.4132 44.6367 23.2397C45.043 23.062 45.5063 22.9731 46.0269 22.9731C46.5516 22.9731 47.0086 23.0557 47.3979 23.2207C47.7915 23.3815 48.1025 23.6058 48.3311 23.8936C48.5596 24.1771 48.695 24.5072 48.7373 24.8838V24.8901H47.417V24.8774C47.3535 24.6362 47.2012 24.4352 46.96 24.2744C46.723 24.1136 46.4098 24.0332 46.0205 24.0332C45.7708 24.0332 45.5487 24.0734 45.354 24.1538C45.1593 24.23 45.0049 24.3379 44.8906 24.4775C44.7806 24.613 44.7256 24.7738 44.7256 24.96V24.9727C44.7256 25.1165 44.7616 25.2435 44.8335 25.3535C44.9097 25.4593 45.0282 25.5545 45.189 25.6392C45.3498 25.7196 45.5571 25.7915 45.811 25.855L46.9092 26.1025C47.5693 26.2591 48.0602 26.4855 48.3818 26.7817C48.7077 27.078 48.8706 27.4757 48.8706 27.9751V27.9878C48.8706 28.411 48.7458 28.7855 48.4961 29.1113C48.2464 29.4329 47.9058 29.6847 47.4741 29.8667C47.0467 30.0444 46.5579 30.1333 46.0078 30.1333ZM51.5684 30.1016C51.306 30.1016 51.0838 30.0106 50.9019 29.8286C50.7241 29.6466 50.6353 29.4287 50.6353 29.1748C50.6353 28.9124 50.7241 28.6924 50.9019 28.5146C51.0838 28.3369 51.306 28.248 51.5684 28.248C51.835 28.248 52.0571 28.3369 52.2349 28.5146C52.4126 28.6924 52.5015 28.9124 52.5015 29.1748C52.5015 29.4287 52.4126 29.6466 52.2349 29.8286C52.0571 30.0106 51.835 30.1016 51.5684 30.1016ZM51.5684 25.3027C51.306 25.3027 51.0838 25.2118 50.9019 25.0298C50.7241 24.8478 50.6353 24.6299 50.6353 24.376C50.6353 24.1136 50.7241 23.8936 50.9019 23.7158C51.0838 23.5381 51.306 23.4492 51.5684 23.4492C51.835 23.4492 52.0571 23.5381 52.2349 23.7158C52.4126 23.8936 52.5015 24.1136 52.5015 24.376C52.5015 24.6299 52.4126 24.8478 52.2349 25.0298C52.0571 25.2118 51.835 25.3027 51.5684 25.3027ZM61.3818 29.8667C60.7852 29.8667 60.2393 29.7673 59.7441 29.5684C59.2533 29.3652 58.8576 29.0732 58.5571 28.6924C58.2567 28.3073 58.0959 27.8439 58.0747 27.3022V27.2959L59.395 27.2896V27.3022C59.4373 27.5731 59.5347 27.8164 59.687 28.0322C59.8394 28.248 60.0552 28.4173 60.3345 28.54C60.6138 28.6585 60.9692 28.7178 61.4009 28.7178C61.841 28.7178 62.1986 28.6628 62.4736 28.5527C62.7487 28.4385 62.9497 28.284 63.0767 28.0894C63.2078 27.8947 63.2734 27.6746 63.2734 27.4292V27.4165C63.2734 27.0907 63.1634 26.8241 62.9434 26.6167C62.7233 26.4093 62.3086 26.2337 61.6992 26.0898L60.7534 25.8677C60.2202 25.7407 59.7695 25.5736 59.4014 25.3662C59.0332 25.1546 58.7518 24.8944 58.5571 24.5854C58.3667 24.2765 58.2715 23.9084 58.2715 23.481V23.4683C58.2715 22.9562 58.4069 22.514 58.6777 22.1416C58.9486 21.7692 59.3167 21.4814 59.7822 21.2783C60.252 21.0752 60.7852 20.9736 61.3818 20.9736C61.9701 20.9736 62.4969 21.0794 62.9624 21.291C63.4279 21.5026 63.7982 21.7988 64.0732 22.1797C64.3525 22.5605 64.5028 23.0091 64.5239 23.5254L64.5176 23.5317L63.2036 23.5381V23.5254C63.174 23.2249 63.0767 22.971 62.9116 22.7637C62.7508 22.5563 62.5392 22.3976 62.2769 22.2876C62.0145 22.1776 61.7183 22.1226 61.3882 22.1226C61.0031 22.1226 60.6794 22.1818 60.417 22.3003C60.1546 22.4146 59.9557 22.5669 59.8203 22.7573C59.6891 22.9435 59.6235 23.1466 59.6235 23.3667V23.3794C59.6235 23.5741 59.6722 23.7518 59.7695 23.9126C59.8669 24.0692 60.0213 24.2088 60.2329 24.3315C60.4487 24.4543 60.7365 24.5579 61.0962 24.6426L62.042 24.8647C62.8799 25.0594 63.5189 25.3451 63.959 25.7217C64.4033 26.0941 64.6255 26.6167 64.6255 27.2896V27.3022C64.6255 27.8566 64.4774 28.3242 64.1812 28.7051C63.8892 29.0859 63.4977 29.3758 63.0068 29.5747C62.516 29.7694 61.9743 29.8667 61.3818 29.8667ZM61.001 30.9141V19.9199H61.7563V30.9141H61.001ZM68.7769 30V22.3066H68.6753L66.3711 23.9507V22.5542L68.7832 20.8403H70.2051V30H68.7769ZM73.5312 30.1016C73.2689 30.1016 73.0467 30.0106 72.8647 29.8286C72.687 29.6466 72.5981 29.4287 72.5981 29.1748C72.5981 28.9124 72.687 28.6924 72.8647 28.5146C73.0467 28.3369 73.2689 28.248 73.5312 28.248C73.7979 28.248 74.02 28.3369 74.1978 28.5146C74.3755 28.6924 74.4644 28.9124 74.4644 29.1748C74.4644 29.4287 74.3755 29.6466 74.1978 29.8286C74.02 30.0106 73.7979 30.1016 73.5312 30.1016ZM79.4155 30.1714C78.7638 30.1714 78.1947 30.0614 77.708 29.8413C77.2214 29.617 76.8363 29.3102 76.5527 28.9209C76.2692 28.5316 76.1042 28.0851 76.0576 27.5815L76.0513 27.499H77.4224L77.4287 27.5688C77.4583 27.8439 77.5578 28.0872 77.7271 28.2988C77.8963 28.5104 78.1248 28.6776 78.4126 28.8003C78.7046 28.9188 79.0389 28.978 79.4155 28.978C79.7922 28.978 80.1201 28.9146 80.3994 28.7876C80.6787 28.6564 80.8966 28.4766 81.0532 28.248C81.2098 28.0153 81.2881 27.7508 81.2881 27.4546V27.4419C81.2881 26.9256 81.1125 26.5299 80.7612 26.2549C80.41 25.9756 79.9297 25.8359 79.3203 25.8359H78.2095V24.7188H79.2759C79.6271 24.7188 79.9339 24.6574 80.1963 24.5347C80.4587 24.4077 80.6639 24.2342 80.812 24.0142C80.9601 23.7941 81.0342 23.5423 81.0342 23.2588V23.2461C81.0342 22.9499 80.9707 22.6981 80.8438 22.4907C80.7168 22.2791 80.5306 22.1183 80.2852 22.0083C80.0439 21.894 79.7498 21.8369 79.4028 21.8369C79.0643 21.8369 78.7638 21.894 78.5015 22.0083C78.2391 22.1226 78.0296 22.2855 77.873 22.4971C77.7165 22.7044 77.6234 22.9541 77.5938 23.2461L77.5874 23.3032H76.2417L76.248 23.2397C76.2988 22.7192 76.4596 22.2686 76.7305 21.8877C77.0055 21.5026 77.3695 21.2043 77.8223 20.9927C78.2793 20.7769 78.8062 20.6689 79.4028 20.6689C80.0122 20.6689 80.5433 20.7705 80.9961 20.9736C81.4489 21.1768 81.8001 21.4582 82.0498 21.8179C82.2995 22.1733 82.4243 22.5881 82.4243 23.062V23.0747C82.4243 23.4556 82.3397 23.792 82.1704 24.084C82.0054 24.3717 81.7769 24.613 81.4849 24.8076C81.1971 24.998 80.867 25.1313 80.4946 25.2075V25.2393C81.1675 25.2943 81.7091 25.5164 82.1196 25.9058C82.5301 26.2951 82.7354 26.8114 82.7354 27.4546V27.4673C82.7354 27.992 82.5936 28.4596 82.3101 28.8701C82.0265 29.2764 81.6351 29.5959 81.1357 29.8286C80.6406 30.0571 80.0672 30.1714 79.4155 30.1714ZM84.5381 30V29.0288L87.585 25.8423C87.9912 25.4191 88.3065 25.0721 88.5308 24.8013C88.755 24.5262 88.9116 24.2808 89.0005 24.0649C89.0936 23.8491 89.1401 23.6164 89.1401 23.3667V23.354C89.1401 23.0535 89.0745 22.7869 88.9434 22.5542C88.8164 22.3172 88.6323 22.1331 88.3911 22.002C88.1499 21.8665 87.8621 21.7988 87.5278 21.7988C87.1893 21.7988 86.891 21.8687 86.6328 22.0083C86.3747 22.1479 86.1737 22.3426 86.0298 22.5923C85.8859 22.842 85.814 23.134 85.814 23.4683V23.4937L84.4683 23.4873L84.4619 23.4746C84.4661 22.916 84.6016 22.423 84.8682 21.9956C85.1348 21.564 85.505 21.2275 85.979 20.9863C86.453 20.7409 86.9967 20.6182 87.6104 20.6182C88.1774 20.6182 88.6831 20.7303 89.1274 20.9546C89.576 21.1746 89.9294 21.4814 90.1875 21.875C90.4456 22.2643 90.5747 22.7108 90.5747 23.2144V23.2334C90.5747 23.5804 90.5112 23.9168 90.3843 24.2427C90.2573 24.5685 90.0373 24.9261 89.7241 25.3154C89.4152 25.7048 88.9836 26.1745 88.4292 26.7246L86.1187 29.0288L86.4868 28.3877V29.0288L86.125 28.7812H90.7207V30H84.5381Z" fill="#6A7587"/>
<g clip-path="url(#clip0_134843_50764)">
<path d="M293.864 85.0125C293.535 84.7633 293.318 84.3941 293.261 83.9856C293.203 83.577 293.309 83.1622 293.556 82.8318C293.803 82.5013 294.171 82.2819 294.579 82.2216C294.987 82.1612 295.403 82.2647 295.735 82.5096L298 84.088L294.673 76.3341C294.51 75.9532 294.505 75.5231 294.658 75.1383C294.812 74.7535 295.112 74.4455 295.493 74.2821C295.874 74.1187 296.304 74.1133 296.689 74.267C297.074 74.4208 297.382 74.7211 297.545 75.1019L299.27 79.1225C299.107 78.7417 299.101 78.3115 299.255 77.9267C299.409 77.5419 299.709 77.2339 300.09 77.0705C300.471 76.9071 300.901 76.9017 301.286 77.0555C301.671 77.2092 301.979 77.5096 302.142 77.8904L302.635 79.0391C302.472 78.6583 302.466 78.2282 302.62 77.8433C302.774 77.4585 303.074 77.1505 303.455 76.9871C303.836 76.8237 304.266 76.8183 304.651 76.9721C305.035 77.1258 305.343 77.4262 305.507 77.807L306.616 80.3916C306.939 81.1459 307.111 81.9565 307.121 82.7772C307.132 83.5979 306.98 84.4126 306.676 85.1748C306.371 85.937 305.92 86.6317 305.347 87.2193C304.774 87.807 304.091 88.276 303.336 88.5996C300.164 89.9605 298.59 88.5956 293.864 85.0125Z" fill="white" stroke="#4C65FF" stroke-width="1.25" stroke-linecap="round" stroke-linejoin="round"/>
</g>
<defs>
<clipPath id="clip0_134843_50764">
<rect width="20" height="20" fill="white" transform="translate(287 75.8857) rotate(-23.2212)"/>
</clipPath>
</defs>
</svg>
