<svg width="272" height="58" viewBox="0 0 272 58" fill="none" xmlns="http://www.w3.org/2000/svg">
<rect x="0.75" y="0.75" width="270" height="56" rx="8" stroke="#4C65FF" stroke-opacity="0.5" stroke-width="1.5" stroke-dasharray="3 3"/>
<path d="M71.7769 39.3283C70.6347 39.3283 69.6439 39.0531 68.8044 38.5026C67.965 37.9522 67.27 37.2159 66.7196 36.2939C66.1691 35.3581 65.7563 34.3191 65.481 33.1769C65.2196 32.0347 65.0888 30.8788 65.0888 29.7091C65.0888 28.5393 65.2196 27.3834 65.481 26.2412C65.7563 25.099 66.1691 24.0669 66.7196 23.1448C67.27 22.2091 67.965 21.4659 68.8044 20.9155C69.6439 20.365 70.6347 20.0898 71.7769 20.0898C72.9191 20.0898 73.9099 20.365 74.7494 20.9155C75.5888 21.4659 76.2838 22.2091 76.8343 23.1448C77.3847 24.0669 77.7907 25.099 78.0521 26.2412C78.3274 27.3834 78.465 28.5393 78.465 29.7091C78.465 30.8788 78.3274 32.0347 78.0521 33.1769C77.7907 34.3191 77.3847 35.3581 76.8343 36.2939C76.2838 37.2159 75.5888 37.9522 74.7494 38.5026C73.9099 39.0531 72.9191 39.3283 71.7769 39.3283ZM71.7769 36.6036C72.4237 36.6036 72.981 36.3971 73.4489 35.9843C73.9168 35.5714 74.2953 35.0279 74.5843 34.3536C74.8732 33.6655 75.0865 32.9155 75.2242 32.1036C75.3618 31.2916 75.4306 30.4935 75.4306 29.7091C75.4306 28.9109 75.3618 28.1127 75.2242 27.3146C75.0865 26.5026 74.8732 25.7595 74.5843 25.0852C74.2953 24.3971 73.9168 23.8467 73.4489 23.4338C72.981 23.021 72.4237 22.8146 71.7769 22.8146C71.1301 22.8146 70.5728 23.021 70.1049 23.4338C69.637 23.8467 69.2586 24.3971 68.9696 25.0852C68.6806 25.7595 68.4673 26.5026 68.3297 27.3146C68.1921 28.1127 68.1232 28.9109 68.1232 29.7091C68.1232 30.4935 68.1921 31.2916 68.3297 32.1036C68.4673 32.9155 68.6806 33.6655 68.9696 34.3536C69.2586 35.0279 69.637 35.5714 70.1049 35.9843C70.5728 36.3971 71.1301 36.6036 71.7769 36.6036ZM88.0443 38.998V20.4201H93.2254C94.4777 20.4201 95.5511 20.6747 96.4456 21.1838C97.3539 21.6792 98.0488 22.3398 98.5305 23.1655C99.0121 23.9912 99.253 24.8994 99.253 25.8902C99.253 26.8811 99.0053 27.7756 98.5099 28.5737C98.0144 29.3719 97.3195 29.9912 96.425 30.4315L101.998 38.998H98.5924L93.5764 31.1953H91.0167V38.998H88.0443ZM91.0167 28.6563H93.1842C93.9135 28.6563 94.5053 28.5187 94.9594 28.2435C95.4273 27.9682 95.7713 27.6173 95.9915 27.1907C96.2254 26.7641 96.3424 26.3306 96.3424 25.8902C96.3424 25.0921 96.0534 24.4384 95.4754 23.9292C94.8975 23.4063 94.1337 23.1448 93.1842 23.1448H91.0167V28.6563ZM108.293 39.2458C107.165 39.2458 106.132 38.9568 105.197 38.3788C104.261 37.8008 103.511 37.0233 102.947 36.0462C102.396 35.0691 102.121 33.9889 102.121 32.8054C102.121 31.6219 102.396 30.5416 102.947 29.5646C103.511 28.5875 104.261 27.81 105.197 27.232C106.132 26.654 107.165 26.365 108.293 26.365C109.119 26.365 109.882 26.5164 110.584 26.8191C111.3 27.1081 111.912 27.521 112.421 28.0577V26.6127H115.002V38.998H112.421V37.5531C111.912 38.076 111.3 38.4889 110.584 38.7916C109.882 39.0944 109.119 39.2458 108.293 39.2458ZM108.665 36.6448C109.353 36.6448 109.979 36.4728 110.543 36.1288C111.121 35.7847 111.575 35.3237 111.905 34.7458C112.249 34.1678 112.421 33.521 112.421 32.8054C112.421 32.1036 112.249 31.4636 111.905 30.8857C111.575 30.2939 111.128 29.826 110.564 29.482C109.999 29.138 109.366 28.9659 108.665 28.9659C107.976 28.9659 107.343 29.138 106.765 29.482C106.201 29.826 105.747 30.287 105.403 30.865C105.073 31.443 104.908 32.0898 104.908 32.8054C104.908 33.5072 105.073 34.154 105.403 34.7458C105.747 35.3237 106.201 35.7847 106.765 36.1288C107.33 36.4728 107.963 36.6448 108.665 36.6448ZM125.024 39.2458C124.212 39.2458 123.455 39.1013 122.753 38.8123C122.052 38.5095 121.439 38.0967 120.916 37.5737V38.998H118.336V19.1815H121.247V27.7274C121.756 27.3008 122.327 26.9705 122.96 26.7366C123.607 26.4889 124.295 26.365 125.024 26.365C126.166 26.365 127.205 26.654 128.141 27.232C129.077 27.81 129.82 28.5875 130.37 29.5646C130.935 30.5416 131.217 31.6219 131.217 32.8054C131.217 33.9889 130.935 35.0691 130.37 36.0462C129.82 37.0233 129.077 37.8008 128.141 38.3788C127.205 38.9568 126.166 39.2458 125.024 39.2458ZM124.673 36.6448C125.361 36.6448 125.987 36.4728 126.552 36.1288C127.13 35.7847 127.584 35.3237 127.914 34.7458C128.258 34.1678 128.43 33.521 128.43 32.8054C128.43 32.1036 128.258 31.4636 127.914 30.8857C127.584 30.2939 127.137 29.826 126.572 29.482C126.008 29.138 125.375 28.9659 124.673 28.9659C123.985 28.9659 123.352 29.138 122.774 29.482C122.21 29.826 121.756 30.287 121.412 30.865C121.081 31.443 120.916 32.0898 120.916 32.8054C120.916 33.5072 121.081 34.154 121.412 34.7458C121.756 35.3237 122.21 35.7847 122.774 36.1288C123.338 36.4728 123.971 36.6448 124.673 36.6448ZM140.496 39.2458C139.684 39.2458 138.927 39.1013 138.225 38.8123C137.524 38.5095 136.911 38.0967 136.388 37.5737V38.998H133.808V19.1815H136.719V27.7274C137.228 27.3008 137.799 26.9705 138.432 26.7366C139.079 26.4889 139.767 26.365 140.496 26.365C141.638 26.365 142.677 26.654 143.613 27.232C144.549 27.81 145.292 28.5875 145.842 29.5646C146.407 30.5416 146.689 31.6219 146.689 32.8054C146.689 33.9889 146.407 35.0691 145.842 36.0462C145.292 37.0233 144.549 37.8008 143.613 38.3788C142.677 38.9568 141.638 39.2458 140.496 39.2458ZM140.145 36.6448C140.833 36.6448 141.459 36.4728 142.024 36.1288C142.602 35.7847 143.056 35.3237 143.386 34.7458C143.73 34.1678 143.902 33.521 143.902 32.8054C143.902 32.1036 143.73 31.4636 143.386 30.8857C143.056 30.2939 142.608 29.826 142.044 29.482C141.48 29.138 140.847 28.9659 140.145 28.9659C139.457 28.9659 138.824 29.138 138.246 29.482C137.682 29.826 137.228 30.287 136.884 30.865C136.553 31.443 136.388 32.0898 136.388 32.8054C136.388 33.5072 136.553 34.154 136.884 34.7458C137.228 35.3237 137.682 35.7847 138.246 36.1288C138.81 36.4728 139.443 36.6448 140.145 36.6448ZM148.461 45.1907L152.527 37.037L147.387 26.6127H150.628L153.043 31.5669C153.264 32.0072 153.463 32.4338 153.642 32.8467C153.821 33.2458 153.993 33.6861 154.158 34.1678C154.323 33.6861 154.495 33.2458 154.674 32.8467C154.867 32.4338 155.073 32.0072 155.293 31.5669L157.75 26.6127H160.846L151.598 45.1907H148.461ZM169.493 38.998V20.4201H179.03V23.021H172.466V26.4889H178.411V29.0898H172.466V38.998H169.493ZM186.375 39.3283C185.04 39.3283 183.85 39.0393 182.804 38.4613C181.758 37.8834 180.94 37.0921 180.348 36.0875C179.77 35.0829 179.481 33.9476 179.481 32.6815C179.481 31.4705 179.763 30.3834 180.327 29.4201C180.905 28.4568 181.676 27.693 182.639 27.1288C183.616 26.5646 184.69 26.2825 185.859 26.2825C187.043 26.2825 188.109 26.5577 189.059 27.1081C190.022 27.6586 190.786 28.4086 191.35 29.3581C191.914 30.2939 192.196 31.3604 192.196 32.5577V33.6517H184.373C184.029 33.6517 183.685 33.638 183.341 33.6104C182.997 33.5691 182.653 33.521 182.309 33.4659C182.474 34.4155 182.928 35.2068 183.671 35.8398C184.428 36.4728 185.35 36.7893 186.437 36.7893C187.222 36.7893 187.937 36.6242 188.584 36.2939C189.231 35.9499 189.761 35.5095 190.173 34.9728L190.875 37.8627C190.27 38.3444 189.582 38.7091 188.811 38.9568C188.04 39.2045 187.229 39.3283 186.375 39.3283ZM182.247 31.6081C182.962 31.4705 183.671 31.4017 184.373 31.4017H187.511C187.855 31.4017 188.185 31.4155 188.501 31.443C188.832 31.4705 189.148 31.5049 189.451 31.5462C189.245 30.7068 188.811 30.0256 188.151 29.5026C187.504 28.9659 186.733 28.6976 185.839 28.6976C184.972 28.6976 184.208 28.9728 183.547 29.5233C182.887 30.0737 182.453 30.7687 182.247 31.6081ZM200.831 39.3283C199.496 39.3283 198.306 39.0393 197.26 38.4613C196.214 37.8834 195.396 37.0921 194.804 36.0875C194.226 35.0829 193.937 33.9476 193.937 32.6815C193.937 31.4705 194.219 30.3834 194.783 29.4201C195.361 28.4568 196.132 27.693 197.095 27.1288C198.072 26.5646 199.146 26.2825 200.315 26.2825C201.499 26.2825 202.565 26.5577 203.515 27.1081C204.478 27.6586 205.242 28.4086 205.806 29.3581C206.37 30.2939 206.652 31.3604 206.652 32.5577V33.6517H198.829C198.485 33.6517 198.141 33.638 197.797 33.6104C197.453 33.5691 197.109 33.521 196.765 33.4659C196.93 34.4155 197.384 35.2068 198.127 35.8398C198.884 36.4728 199.806 36.7893 200.893 36.7893C201.678 36.7893 202.393 36.6242 203.04 36.2939C203.687 35.9499 204.217 35.5095 204.629 34.9728L205.331 37.8627C204.726 38.3444 204.038 38.7091 203.267 38.9568C202.496 39.2045 201.685 39.3283 200.831 39.3283ZM196.703 31.6081C197.418 31.4705 198.127 31.4017 198.829 31.4017H201.967C202.311 31.4017 202.641 31.4155 202.957 31.443C203.288 31.4705 203.604 31.5049 203.907 31.5462C203.701 30.7068 203.267 30.0256 202.607 29.5026C201.96 28.9659 201.189 28.6976 200.295 28.6976C199.428 28.6976 198.664 28.9728 198.003 29.5233C197.343 30.0737 196.909 30.7687 196.703 31.6081Z" fill="#4C65FF"/>
</svg>
