<svg width="128" height="123" viewBox="0 0 128 123" fill="none" xmlns="http://www.w3.org/2000/svg">
<g clip-path="url(#clip0_135376_15500)">
<path d="M111.072 56.6037C111.072 68.062 107.221 78.6076 100.836 87.1252C97.3908 91.6882 93.033 95.6428 88.1685 98.7862C80.2638 103.958 70.8388 107 60.7045 107C32.8351 107 10.3369 84.3874 10.3369 56.6037C10.3369 28.7187 32.8351 6.10645 60.7045 6.10645C70.8388 6.10645 80.2638 9.14846 88.1685 14.2184C93.033 17.3618 97.2894 21.4178 100.836 25.9809C107.322 34.4985 111.072 45.1455 111.072 56.6037Z" fill="#E0E5EC"/>
<path d="M15.7439 14.7024C17.181 14.2351 17.9674 12.6905 17.5003 11.2525C17.0332 9.81461 15.4894 9.02779 14.0523 9.49516C12.6151 9.96253 11.8288 11.5071 12.2959 12.945C12.763 14.383 14.3067 15.1698 15.7439 14.7024Z" fill="#EAEEF9"/>
<path d="M21.6266 5.81156C22.5315 5.51743 23.0265 4.54507 22.7323 3.63974C22.438 2.7344 21.4659 2.23892 20.561 2.53305C19.6561 2.82719 19.161 3.79954 19.4553 4.70488C19.7495 5.61022 20.7217 6.10569 21.6266 5.81156Z" fill="#EAEEF9"/>
<path d="M1.72284 63.1956C2.67433 63.1956 3.44567 62.4238 3.44567 61.4718C3.44567 60.5198 2.67433 59.748 1.72284 59.748C0.77134 59.748 0 60.5198 0 61.4718C0 62.4238 0.77134 63.1956 1.72284 63.1956Z" fill="url(#paint0_linear_135376_15500)"/>
<path d="M112.552 32.9497C114.122 31.5141 114.232 29.0768 112.797 27.5058C111.362 25.9349 108.926 25.8252 107.356 27.2608C105.786 28.6964 105.676 31.1337 107.111 32.7046C108.546 34.2755 110.982 34.3853 112.552 32.9497Z" fill="#EAEEF9"/>
<path d="M111.68 16.1452C112.576 16.1452 113.302 15.4189 113.302 14.5228C113.302 13.6268 112.576 12.9004 111.68 12.9004C110.785 12.9004 110.059 13.6268 110.059 14.5228C110.059 15.4189 110.785 16.1452 111.68 16.1452Z" fill="url(#paint1_linear_135376_15500)"/>
<path d="M60.4006 9.14878C61.3521 9.14878 62.1234 8.37701 62.1234 7.42498C62.1234 6.47295 61.3521 5.70117 60.4006 5.70117C59.4491 5.70117 58.6777 6.47295 58.6777 7.42498C58.6777 8.37701 59.4491 9.14878 60.4006 9.14878Z" fill="#EAEEF9"/>
<g filter="url(#filter0_d_135376_15500)">
<path d="M92.425 11.6836H27.1599V101.22H92.425V11.6836Z" fill="white"/>
</g>
<path d="M35.7741 37.3373C35.3688 37.3373 34.9634 36.9319 34.9634 36.5266C34.9634 36.1212 35.3688 35.7158 35.7741 35.7158H83.7095C84.1149 35.7158 84.5202 36.1212 84.5202 36.5266C84.5202 36.9319 84.1149 37.3373 83.7095 37.3373H35.7741Z" fill="#DAE1ED"/>
<path d="M35.7741 43.4213C35.3688 43.4213 34.9634 43.0159 34.9634 42.6105C34.9634 42.2052 35.3688 41.7998 35.7741 41.7998H83.7095C84.1149 41.7998 84.5202 42.2052 84.5202 42.6105C84.5202 43.0159 84.1149 43.4213 83.7095 43.4213H35.7741Z" fill="#DAE1ED"/>
<path d="M35.7741 49.5053C35.3688 49.5053 34.9634 49.0999 34.9634 48.6945C34.9634 48.2892 35.3688 47.8838 35.7741 47.8838H83.7095C84.1149 47.8838 84.5202 48.2892 84.5202 48.6945C84.5202 49.0999 84.1149 49.5053 83.7095 49.5053H35.7741Z" fill="#DAE1ED"/>
<path d="M35.7741 55.6908C35.3688 55.6908 34.9634 55.2854 34.9634 54.8801C34.9634 54.4747 35.3688 54.0693 35.7741 54.0693H83.7095C84.1149 54.0693 84.5202 54.4747 84.5202 54.8801C84.5202 55.2854 84.1149 55.6908 83.7095 55.6908H35.7741Z" fill="#DAE1ED"/>
<path d="M35.7741 61.7748C35.3688 61.7748 34.9634 61.3694 34.9634 60.964C34.9634 60.5587 35.3688 60.1533 35.7741 60.1533H83.7095C84.1149 60.1533 84.5202 60.5587 84.5202 60.964C84.5202 61.3694 84.1149 61.7748 83.7095 61.7748H35.7741Z" fill="#DAE1ED"/>
<path d="M35.7741 67.8588C35.3688 67.8588 34.9634 67.4534 34.9634 67.048C34.9634 66.6427 35.3688 66.2373 35.7741 66.2373H56.8535C57.2589 66.2373 57.6643 66.6427 57.6643 67.048C57.6643 67.4534 57.2589 67.8588 56.8535 67.8588H35.7741Z" fill="#DAE1ED"/>
<path d="M70.9403 22.0264H48.5434C48.0367 22.0264 47.6313 21.6208 47.6313 21.1138C47.6313 20.6068 48.0367 20.2012 48.5434 20.2012H70.9403C71.447 20.2012 71.8524 20.6068 71.8524 21.1138C71.8524 21.6208 71.447 22.0264 70.9403 22.0264Z" fill="#CED7E2"/>
<path d="M65.2649 26.793H54.2185C53.7118 26.793 53.3064 26.3874 53.3064 25.8804C53.3064 25.3734 53.7118 24.9678 54.2185 24.9678H65.2649C65.7716 24.9678 66.177 25.3734 66.177 25.8804C66.177 26.3874 65.7716 26.793 65.2649 26.793Z" fill="#CED7E2"/>
<path d="M79.8584 86.4155C79.6557 84.9959 79.5544 83.9819 78.541 83.6777C76.9195 83.2721 76.4127 85.4015 74.8926 87.0239C74.3859 87.5309 73.6765 87.9366 73.0684 88.3422C72.8657 88.4436 72.4604 88.6462 72.359 88.2407C71.9536 87.0239 72.359 87.6323 74.0818 85.7057C74.8926 84.7931 75.3993 83.6777 75.1966 82.3595C75.0953 81.5483 74.5886 80.8385 73.7778 80.5343C72.9671 80.2301 72.1563 80.3315 71.5483 81.0413C70.1295 82.7651 70.5348 83.7791 70.4335 86.3141C70.4335 86.5169 70.3321 86.7197 70.1295 86.8212C68.7107 87.6324 67.1905 88.1394 65.4677 88.3422C65.4677 88.2408 65.4677 88.2407 65.4677 88.2407C66.3798 87.0239 68.2039 84.8945 68.6093 81.2441C68.812 79.8245 68.812 78.5063 68.1026 77.1881C66.7851 74.7545 63.2381 75.0587 61.6166 77.9993C59.9951 81.1427 60.2992 86.0099 62.5287 88.7477C62.022 89.1533 61.6166 89.559 61.1099 89.8632C60.8059 90.066 60.7045 90.573 60.9072 90.8772C61.1099 91.2828 61.718 91.3842 62.1233 91.08C63.7448 89.7618 63.6435 89.8632 63.8462 89.7618C64.1502 89.6604 64.4542 89.7618 64.7583 89.7618C65.873 89.7618 66.5824 89.6604 67.3932 89.559C67.7986 89.4576 70.5348 88.4436 70.6362 88.4436C70.6362 88.4436 70.6362 88.5449 70.7375 88.6463C71.0416 89.7618 71.6496 90.1674 72.8657 90.066C73.7778 89.9646 74.5886 89.559 75.298 88.9506C76.1087 88.1393 77.4262 86.5169 78.1356 85.6043C78.3383 86.3141 78.3383 86.9224 78.541 87.5308C78.9463 88.6463 80.0611 88.8491 80.7705 87.9366C81.5812 87.0239 81.8853 85.8071 82.7974 85.3001C83.1014 85.1987 83.3041 84.8945 83.3041 84.5903C83.3041 83.9819 82.696 83.6777 82.1893 83.8805C81.0745 84.3875 80.4665 85.4015 79.8584 86.4155ZM63.8462 87.8352C63.0354 86.8212 62.7314 85.7056 62.5287 84.4888C62.1233 82.6636 62.326 80.8385 63.0354 79.1147C63.4408 78.2021 63.9475 77.4923 64.961 77.2895C65.9744 77.0867 66.6838 77.2895 66.8865 78.3035C67.6972 81.7511 66.2784 85.0973 63.8462 87.8352ZM72.359 82.5623C72.9671 81.3455 73.6765 82.4609 73.5751 82.9679C73.3724 83.5763 73.0684 84.0833 72.7644 84.5903C72.5617 84.8945 72.359 85.0973 72.055 85.4015C71.9536 84.3875 71.9536 83.4749 72.359 82.5623Z" fill="#4C65FF"/>
<path d="M47.6971 23.8585C47.6971 29.0123 45.5409 33.6867 41.9472 36.9228C40.989 37.7618 39.9109 38.6008 38.8327 39.2001C36.1973 40.7582 33.2026 41.5973 29.8485 41.5973C26.6143 41.5973 23.4997 40.7582 20.8644 39.2001C20.5051 38.9604 20.0259 38.7207 19.6665 38.481C14.9948 35.2449 12 29.9712 12 23.8585C12.1198 14.0304 20.0259 6 29.8485 6C39.6713 6 47.6971 14.0304 47.6971 23.8585Z" fill="#D8F2E7"/>
<g filter="url(#filter1_d_135376_15500)">
<path d="M119.585 50.3177C118.166 52.3458 116.747 54.2724 115.531 56.4018C113.808 59.241 112.896 58.4298 108.539 59.748L112.39 60.6606C112.491 60.6606 112.491 60.6606 112.592 60.762C112.795 60.9648 112.896 61.269 112.694 61.4718C112.086 62.3844 111.478 63.297 110.87 64.2096C106.309 70.2936 99.6205 74.451 92.1211 75.8706C91.1077 76.0734 90.1956 76.7832 89.7902 77.6958C88.8781 79.521 88.0674 81.3462 87.1553 83.1714C86.8513 83.7798 86.2432 83.9826 85.6351 83.6784C85.0271 83.3742 84.8244 82.7658 85.1284 82.1574C85.6351 81.042 86.1419 79.9266 86.6486 78.9126C87.0539 78 86.9526 77.0874 86.6486 76.1748C86.1419 74.5524 85.7365 72.93 85.6351 71.2062C85.6351 69.5838 85.9392 67.86 86.3445 66.2376C87.0539 63.6012 88.0674 61.0662 89.5875 58.8354L89.6889 58.734C89.7902 58.734 89.9929 58.734 89.9929 58.9368C90.0943 59.3424 90.1956 59.6466 90.3983 60.1536C90.601 59.1396 90.905 58.1256 91.209 57.1116C91.3104 56.706 91.6144 56.3004 91.9184 55.8948C93.5399 54.2724 95.3641 52.8528 97.391 51.7374H97.4923C97.5936 51.7374 97.695 51.8388 97.695 51.9402C97.695 52.5486 97.695 53.2584 97.695 53.8668C98.5057 52.65 99.4178 51.636 100.431 50.5205C100.735 50.2163 101.141 49.9121 101.546 49.8107C107.221 47.7827 113.403 47.4785 119.18 49.1009C120.193 49.3037 120.193 49.5065 119.585 50.3177Z" fill="#4C65FF"/>
</g>
<path opacity="0.3" d="M109.045 54.8803C97.5934 59.1391 91.5128 68.5693 86.6483 78.8108C87.0537 77.8982 86.9524 76.9856 86.6483 76.073C86.4457 75.4646 86.3443 74.9576 86.1416 74.3492C86.243 74.3492 86.243 74.2478 86.3443 74.2478C91.3101 64.8175 97.4921 56.7055 108.235 52.6495C108.843 52.4467 109.451 52.7509 109.653 53.3593C109.856 54.0691 109.552 54.6775 109.045 54.8803Z" fill="white"/>
<path d="M39.6902 14.0002C34.8637 11.9316 29.3476 11.9316 29.3476 11.9316C29.3476 11.9316 23.8315 11.9316 19.005 14.0002C16.9365 24.3428 19.005 33.3064 29.3476 36.7539C39.6902 33.3064 41.7587 24.3428 39.6902 14.0002Z" fill="white"/>
<path d="M29.3476 35.2958C21.3576 32.4309 18.2886 25.6061 20.2186 14.9967C24.5645 13.3315 29.298 13.3115 29.3476 13.3115C29.3966 13.3115 34.1452 13.3391 38.4767 14.9967C40.4066 25.6061 37.3376 32.4309 29.3476 35.2958Z" fill="#2ABB7F"/>
<path d="M38.4767 14.9967C34.1452 13.3391 29.3966 13.3115 29.3477 13.3115V35.2958C37.3377 32.4309 40.4067 25.6061 38.4767 14.9967Z" fill="#178E5D"/>
<path d="M47.6971 23.8585C47.6971 29.0123 45.5409 33.6867 41.9472 36.9228C40.989 37.7618 39.9109 38.6008 38.8327 39.2001C36.1973 40.7584 33.2026 41.5973 29.8485 41.5973C26.6143 41.5973 23.4997 40.7584 20.8644 39.2001C20.5051 38.9604 20.0259 38.7207 19.6665 38.481C14.9948 35.2449 12 29.9712 12 23.8585C12.1198 14.0304 20.0259 6 29.8485 6C39.6713 6 47.6971 14.0304 47.6971 23.8585Z" stroke="white" stroke-width="1.5" stroke-miterlimit="10" stroke-linecap="round" stroke-linejoin="round"/>
<path d="M44.1258 90.5221C43.4164 91.2319 42.4029 91.6375 41.5922 91.0291C40.3761 90.1165 39.9707 89.9137 39.1599 89.8123C38.1465 89.7109 37.2344 89.6095 36.9304 88.4941C36.829 88.1899 36.829 87.9871 36.829 87.6829C36.7277 86.973 36.4237 86.2632 35.917 85.6548C35.2076 84.8436 34.7008 84.1338 35.2075 83.2212C35.8156 82.2072 36.4237 81.8016 36.4237 80.5848C36.4237 80.1792 36.4237 79.875 36.525 79.5708C36.7277 78.7596 37.4371 78.1512 38.2478 78.1512C38.5519 78.1512 38.8559 78.0498 39.1599 78.0498C40.1734 77.9484 40.4774 77.2386 41.7949 76.7316C42.2002 76.5288 42.6056 76.6302 43.011 76.833C43.315 77.0358 43.619 77.2386 44.0244 77.5428C44.9365 78.2526 45.5446 77.9484 46.862 78.354C47.4701 78.5568 47.7741 79.0638 47.8755 79.5708C47.8755 80.1792 48.0781 80.889 48.2808 81.396C48.7875 82.41 49.801 82.917 49.6996 84.0324C49.6996 84.2352 49.5983 84.5394 49.497 84.6408C48.9902 85.2492 48.5849 86.0605 48.2808 86.8717C48.1795 87.1759 48.1795 87.3786 48.1795 87.6829C48.1795 88.2913 47.9768 88.7983 47.5714 89.1025C46.3553 90.3193 45.2405 89.4067 44.1258 90.5221ZM37.8425 86.8717C39.464 89.2039 42.5043 89.8123 44.9365 88.2913C47.2674 86.8716 47.8755 83.7282 46.4567 81.4974C46.4567 81.4974 46.4566 81.396 46.3553 81.396C44.8352 79.0638 41.5922 78.4554 39.2613 79.9764C36.9304 81.396 36.3223 84.5394 37.7411 86.7702C37.8425 86.7702 37.8425 86.8717 37.8425 86.8717Z" fill="#DAE1ED"/>
<path d="M39.7681 80.687C41.6936 79.3688 44.3285 79.8758 45.7473 81.9038C47.0648 83.729 46.5581 86.264 44.7339 87.5822L44.6326 87.6836C42.707 89.0018 40.0721 88.3934 38.6533 86.4668C37.3358 84.6416 37.8426 82.1066 39.6667 80.7884C39.6667 80.687 39.6667 80.687 39.7681 80.687Z" fill="#DAE1ED"/>
</g>
<defs>
<filter id="filter0_d_135376_15500" x="5.15991" y="0.683594" width="109.265" height="133.536" filterUnits="userSpaceOnUse" color-interpolation-filters="sRGB">
<feFlood flood-opacity="0" result="BackgroundImageFix"/>
<feColorMatrix in="SourceAlpha" type="matrix" values="0 0 0 0 0 0 0 0 0 0 0 0 0 0 0 0 0 0 127 0" result="hardAlpha"/>
<feOffset dy="11"/>
<feGaussianBlur stdDeviation="11"/>
<feColorMatrix type="matrix" values="0 0 0 0 0.397708 0 0 0 0 0.47749 0 0 0 0 0.575 0 0 0 0.18 0"/>
<feBlend mode="normal" in2="BackgroundImageFix" result="effect1_dropShadow_135376_15500"/>
<feBlend mode="normal" in="SourceGraphic" in2="effect1_dropShadow_135376_15500" result="shape"/>
</filter>
<filter id="filter1_d_135376_15500" x="76.9888" y="45.0605" width="51.0112" height="51.7578" filterUnits="userSpaceOnUse" color-interpolation-filters="sRGB">
<feFlood flood-opacity="0" result="BackgroundImageFix"/>
<feColorMatrix in="SourceAlpha" type="matrix" values="0 0 0 0 0 0 0 0 0 0 0 0 0 0 0 0 0 0 127 0" result="hardAlpha"/>
<feOffset dy="5"/>
<feGaussianBlur stdDeviation="4"/>
<feColorMatrix type="matrix" values="0 0 0 0 0.1125 0 0 0 0 0.295916 0 0 0 0 1 0 0 0 0.22 0"/>
<feBlend mode="normal" in2="BackgroundImageFix" result="effect1_dropShadow_135376_15500"/>
<feBlend mode="normal" in="SourceGraphic" in2="effect1_dropShadow_135376_15500" result="shape"/>
</filter>
<linearGradient id="paint0_linear_135376_15500" x1="0" y1="61.5222" x2="3.3498" y2="61.5222" gradientUnits="userSpaceOnUse">
<stop stop-color="#83A6FF"/>
<stop offset="1" stop-color="#5A78FF"/>
</linearGradient>
<linearGradient id="paint1_linear_135376_15500" x1="110.133" y1="14.5444" x2="113.279" y2="14.5444" gradientUnits="userSpaceOnUse">
<stop stop-color="#FF66A9"/>
<stop offset="1" stop-color="#F53689"/>
</linearGradient>
<clipPath id="clip0_135376_15500">
<rect width="128" height="123" fill="white"/>
</clipPath>
</defs>
</svg>
