<svg xmlns="http://www.w3.org/2000/svg" width="28" height="28" viewBox="0 0 28 28" fill="none">
  <path d="M25.2359 16.4054C24.1386 21.3236 19.7486 25 14.5 25C13.1976 25 11.948 24.7738 10.7886 24.3582L11.3364 21.8266C12.0212 18.6632 14.8194 16.4055 18.0557 16.4054H25.2359Z" fill="currentColor"/>
  <path d="M6.11751 16.4054C8.82609 16.4054 10.8433 18.9061 10.2703 21.5535L9.75643 23.9276C6.7548 22.4906 4.50632 19.7319 3.76408 16.4054H6.11751Z" fill="currentColor"/>
  <path d="M12.7956 9.88485C12.1107 13.048 9.3126 15.3052 6.07633 15.3052H3.57699C3.52632 14.8769 3.5 14.441 3.5 13.9991C3.5 7.99489 8.30965 3.11402 14.2861 3L12.7956 9.88485Z" fill="currentColor"/>
  <path d="M15.4041 3.03491C21.0563 3.49482 25.5 8.22788 25.5 13.9991C25.5 14.441 25.4737 14.8769 25.423 15.3052H18.0154C15.3068 15.3052 13.2895 12.8045 13.8626 10.157L15.4041 3.03491Z" fill="currentColor"/>
</svg>