<svg xmlns="http://www.w3.org/2000/svg" width="28" height="28" viewBox="0 0 28 28" fill="none">
  <path fill-rule="evenodd" clip-rule="evenodd" d="M10.8711 4.36474C12.2886 3.26097 14.651 3.20833 16.1208 4.23861L22.6099 8.791C23.6493 9.51641 24.4998 11.1463 24.5 12.4185V20.0728C24.5 22.5016 22.5151 24.5 20.0792 24.5H7.92081C5.48491 24.5 3.50008 22.502 3.5 20.0628V12.2713C3.50014 11.0832 4.26695 9.51687 5.21184 8.78095L10.8711 4.36474ZM20.1779 11.3245C19.6653 10.812 18.8342 10.8119 18.3216 11.3245L14.5534 15.0918L13.5755 13.624C13.3574 13.2968 13.0034 13.0851 12.6122 13.0464C12.221 13.0077 11.8327 13.1459 11.5547 13.4238L7.8221 17.1573C7.30963 17.6698 7.30963 18.501 7.8221 19.0135C8.33457 19.5257 9.16495 19.5257 9.67744 19.0135L12.2786 16.4115L13.2574 17.8802C13.4755 18.2074 13.8295 18.4191 14.2207 18.4579C14.6119 18.4965 15.0002 18.3583 15.2782 18.0804L20.1779 13.1798C20.69 12.6673 20.69 11.8369 20.1779 11.3245Z" fill="currentColor"/>
</svg>