<svg xmlns="http://www.w3.org/2000/svg" width="32" height="32" viewBox="0 0 32 32" fill="none">
  <path fill-rule="evenodd" clip-rule="evenodd" d="M12.4241 4.98827C14.0441 3.72682 16.744 3.66666 18.4238 4.84413L25.8399 10.0469C27.0278 10.8759 27.9998 12.7386 28 14.1925V22.9404C28 25.7161 25.7316 28 22.9476 28H9.05236C6.26847 28 4.00009 25.7165 4 22.9289V14.0244C4.00016 12.6666 4.87651 10.8764 5.95639 10.0354L12.4241 4.98827ZM23.0605 12.9423C22.4747 12.3566 21.5248 12.3565 20.939 12.9423L16.6325 17.2478L15.5148 15.5703C15.2655 15.1964 14.8611 14.9544 14.4139 14.9101C13.9668 14.866 13.5231 15.0238 13.2054 15.3415L8.93955 19.6084C8.35386 20.1941 8.35386 21.144 8.93955 21.7298C9.52522 22.3151 10.4742 22.315 11.0599 21.7298L14.0326 18.756L15.1513 20.4346C15.4006 20.8084 15.8051 21.0504 16.2523 21.0947C16.6993 21.1388 17.1431 20.9809 17.4608 20.6633L23.0605 15.0626C23.6457 14.477 23.6457 13.5279 23.0605 12.9423Z" fill="currentColor"/>
</svg>