<svg width="32" height="32" viewBox="0 0 32 32" fill="none" xmlns="http://www.w3.org/2000/svg">
<path d="M12.4667 23.1844C14.1504 22.9111 15.2938 21.3247 15.0205 19.641C14.7471 17.9573 13.1606 16.814 11.4769 17.0872C9.79323 17.3605 8.64989 18.947 8.92318 20.6307C9.1966 22.3143 10.783 23.4577 12.4667 23.1844Z" fill="currentColor"/>
<path d="M20.5369 23.1844C22.2206 22.9111 23.3639 21.3247 23.0907 19.641C22.8174 17.9573 21.2309 16.814 19.5472 17.0872C17.8635 17.3605 16.7202 18.947 16.9935 20.6307C17.2668 22.3143 18.8532 23.4577 20.5369 23.1844Z" fill="currentColor"/>
<path d="M15.9992 7.38281C7.61318 7.38281 0.814214 14.3113 0.816407 22.8553H4.69513C4.69513 16.4522 9.71603 11.2607 15.9992 11.2607C22.2822 11.2607 27.3031 16.4522 27.3031 22.8553H31.1818C31.1833 14.3113 24.3843 7.38281 15.9992 7.38281Z" fill="currentColor"/>
</svg>
