<svg xmlns="http://www.w3.org/2000/svg" width="32" height="32" viewBox="0 0 32 32" fill="none">
  <path d="M14.178 22.9124C13.6057 23.4847 12.8296 23.8062 12.0203 23.8062C11.211 23.8062 10.4348 23.4847 9.86252 22.9124C9.29025 22.3401 8.96875 21.564 8.96875 20.7546C8.96875 19.9453 9.29025 19.1692 9.86252 18.5969C10.4348 18.0246 11.211 17.7031 12.0203 17.7031C12.8296 17.7031 13.6057 18.0246 14.178 18.5969C14.7503 19.1692 15.0718 19.9453 15.0718 20.7546C15.0718 21.564 14.7503 22.3401 14.178 22.9124Z" fill="currentColor"/>
  <path d="M22.153 22.9124C21.5808 23.4847 20.8046 23.8062 19.9953 23.8062C19.186 23.8062 18.4098 23.4847 17.8375 22.9124C17.2653 22.3401 16.9438 21.564 16.9438 20.7546C16.9438 19.9453 17.2653 19.1692 17.8375 18.5969C18.4098 18.0246 19.186 17.7031 19.9953 17.7031C20.8046 17.7031 21.5808 18.0246 22.153 18.5969C22.7253 19.1692 23.0468 19.9453 23.0468 20.7546C23.0468 21.564 22.7253 22.3401 22.153 22.9124Z" fill="currentColor"/>
  <path d="M16.0039 8.15625C7.71874 8.15625 1.00195 15.001 1.00391 23.4422H4.83601C4.83601 17.1166 9.7964 11.9877 16.0039 11.9877C22.2114 11.9877 27.1718 17.1166 27.1718 23.4422H31.0039C31.0052 15.001 24.2878 8.15625 16.0039 8.15625Z" fill="currentColor"/>
</svg>