<svg xmlns="http://www.w3.org/2000/svg" width="32" height="32" viewBox="0 0 32 32" fill="none">
  <path d="M14.1761 22.9124C13.6038 23.4847 12.8276 23.8062 12.0183 23.8062C11.209 23.8062 10.4328 23.4847 9.86057 22.9124C9.2883 22.3401 8.9668 21.564 8.9668 20.7546C8.9668 19.9453 9.2883 19.1692 9.86057 18.5969C10.4328 18.0246 11.209 17.7031 12.0183 17.7031C12.8276 17.7031 13.6038 18.0246 14.1761 18.5969C14.7483 19.1692 15.0698 19.9453 15.0698 20.7546C15.0698 21.564 14.7483 22.3401 14.1761 22.9124Z" fill="currentColor"/>
  <path d="M22.1511 22.9124C21.5788 23.4847 20.8026 23.8062 19.9933 23.8062C19.184 23.8062 18.4079 23.4847 17.8356 22.9124C17.2633 22.3401 16.9418 21.564 16.9418 20.7546C16.9418 19.9453 17.2633 19.1692 17.8356 18.5969C18.4079 18.0246 19.184 17.7031 19.9933 17.7031C20.8026 17.7031 21.5788 18.0246 22.1511 18.5969C22.7233 19.1692 23.0448 19.9453 23.0448 20.7546C23.0448 21.564 22.7233 22.3401 22.1511 22.9124Z" fill="currentColor"/>
  <path d="M16 8.15625C7.71484 8.15625 0.998042 15.001 1 23.4422H4.83211C4.83211 17.1166 9.79249 11.9877 16 11.9877C22.2075 11.9877 27.1679 17.1166 27.1679 23.4422H31C31.0013 15.001 24.2839 8.15625 16 8.15625Z" fill="currentColor"/>
</svg>