<svg xmlns="http://www.w3.org/2000/svg" width="28" height="28" viewBox="0 0 28 28" fill="none">
  <path d="M14.5413 19.5479L16.0848 19.4126L16.6368 25.7306C17.3394 25.5726 18.0265 25.3516 18.6895 25.0702V19.4662H20.5962V24.0439C21.3928 23.5169 22.1242 22.8974 22.7751 22.1983L23.0203 19.3971L24.6546 19.5398C25.5858 17.7403 26.0473 15.7345 25.9962 13.7088C25.9451 11.683 25.383 9.70306 24.3622 7.95287L24.3014 8.64858L22.3948 8.48149L22.6399 5.68216C22.0223 5.0404 21.3357 4.46895 20.5926 3.97823V8.57864H18.6859V2.95279C17.8727 2.60656 17.0234 2.35218 16.1537 2.19437L16.7048 8.49692L15.1614 8.63223L14.5821 2.01454C14.3879 2.00545 14.1917 2 13.9956 2C13.2308 2 12.4678 2.07269 11.7167 2.21708L12.8063 8.4206L11.6314 8.6277L10.551 2.50137C9.54399 2.80228 8.58112 3.23504 7.68745 3.7884L8.90404 8.32978L7.98163 8.57776L6.85038 4.35244C5.97749 4.99943 5.19598 5.7614 4.52701 6.61768L5.11624 8.23716L4.44348 8.48237L4.01948 7.31707C3.34123 8.32673 2.82077 9.43392 2.47603 10.6005L2.66669 10.5315L5.11806 17.2627L4.44529 17.5079L2.25359 11.4843C1.75163 13.827 1.96089 16.2664 2.85451 18.4894C3.74813 20.7124 5.28535 22.6175 7.26891 23.9603L6.13038 19.7096L7.05281 19.4616L8.44558 24.6624C9.39982 25.1607 10.4172 25.5274 11.4698 25.7524L10.3958 19.6288L11.5715 19.4217L12.7236 25.9613C13.1477 26.0061 13.5738 26.0286 14.0002 26.0285C14.3715 26.0285 14.7401 26.0112 15.1033 25.9776L14.5413 19.5479ZM23.0294 10.3743L24.9315 10.5406L24.3077 17.6778L22.4011 17.5115L23.0294 10.3743ZM18.6923 10.4442H20.5989V17.6078H18.6923V10.4442ZM16.0875 10.3898L16.7112 17.527L15.1678 17.6623L14.5431 10.5251L16.0875 10.3898ZM7.98976 17.6097L6.13673 10.6895L7.05918 10.4424L8.91221 17.3581L7.98976 17.6097ZM11.6396 17.6569L10.3958 10.6023L11.5715 10.3952L12.8144 17.4489L11.6396 17.6569Z" fill="currentColor"/>
</svg>