<svg xmlns="http://www.w3.org/2000/svg" width="28" height="28" viewBox="0 0 28 28" fill="none">
  <path d="M25.3742 14.349C25.3958 16.3748 24.9899 18.3107 24.1925 20.1603C23.0539 22.7939 20.3242 24.9474 17.8316 22.6552C15.7986 20.7868 15.4215 16.9939 12.3757 16.4387C8.34579 15.9284 8.2488 20.8094 5.61607 21.3608C2.68162 21.9836 1.70826 16.8288 1.75136 14.4878C1.79446 12.1467 2.39069 8.85655 4.94082 8.85655C7.87527 8.85655 8.07281 13.4974 11.7974 13.246C15.4862 12.9834 15.5508 8.15498 17.9608 6.08783C20.0405 4.30204 22.4864 5.61136 23.7112 7.76107C24.8462 9.74946 25.3454 12.083 25.3706 14.349H25.3742Z" fill="currentColor"/>
</svg>