<svg width="32" height="32" viewBox="0 0 32 32" fill="none" xmlns="http://www.w3.org/2000/svg">
<path d="M29.9056 15.548C29.9305 17.7608 29.4625 19.8753 28.5432 21.8955C27.2305 24.7722 24.0832 27.1244 21.2092 24.6206C18.8654 22.5798 18.9621 19.5962 15.4505 18.9897C10.8042 18.4324 10.1608 22.6044 7.12537 23.2068C3.74208 23.8871 2.61985 18.2566 2.66954 15.6996C2.71923 13.1425 3.40666 9.54872 6.34684 9.54872C9.73013 9.54872 10.3199 14.2466 14.6143 13.9721C18.8672 13.6853 18.5797 8.78242 21.3583 6.52451C23.756 4.57394 26.5762 6.00409 27.9882 8.35215C29.2969 10.524 29.8725 13.0729 29.9014 15.548H29.9056Z" stroke="currentColor" stroke-width="2"/>
</svg>
