<svg xmlns="http://www.w3.org/2000/svg" width="32" height="32" viewBox="0 0 32 32" fill="none">
  <path d="M26.4543 15.5399C26.473 17.2186 26.1216 18.8228 25.4312 20.3554C24.4454 22.5378 22.0819 24.3223 19.9238 22.4228C18.1636 20.8746 17.8371 17.7316 15.1999 17.2715C11.7108 16.8487 11.6268 20.8933 9.34731 21.3502C6.80661 21.8663 5.96386 17.5948 6.00118 15.6549C6.0385 13.715 6.55472 10.9886 8.76267 10.9886C11.3034 10.9886 11.4744 14.8342 14.6993 14.6259C17.8931 14.4083 17.949 10.4072 20.0357 8.69426C21.8363 7.21447 23.954 8.29944 25.0145 10.0808C25.9972 11.7285 26.4294 13.6622 26.4512 15.5399H26.4543Z" fill="currentColor"/>
</svg>