<svg xmlns="http://www.w3.org/2000/svg" width="28" height="28" viewBox="0 0 28 28" fill="none">
  <path d="M22.6221 3.51855C22.8879 3.45262 23.17 3.51287 23.3857 3.68164C23.6012 3.85045 23.7275 4.1091 23.7275 4.38281V24.2666C23.7273 24.5436 23.598 24.8052 23.3779 24.9736C23.1579 25.1419 22.8719 25.1982 22.6045 25.126L5.48828 20.4932C5.10029 20.3881 4.83049 20.0357 4.83008 19.6338V8.62988C4.83008 8.22075 5.10884 7.86432 5.50586 7.76562L22.6221 3.51855ZM8.46094 19.4512L21.9463 23.1016V15.1211L8.46094 19.4512ZM6.67383 18.1553L19.332 14.0898L6.67383 10.3379V18.1553ZM8.19727 8.93164L21.9463 13.0059V5.52051L8.19727 8.93164Z" fill="currentColor"/>
</svg>