<svg width="28" height="28" viewBox="0 0 28 28" fill="none" xmlns="http://www.w3.org/2000/svg">
<path d="M22.5342 3.16992C22.9073 3.07739 23.3026 3.16156 23.6055 3.39844C23.9081 3.63536 24.085 3.99843 24.085 4.38281V24.2666C24.0849 24.6556 23.9036 25.0223 23.5947 25.2588C23.2858 25.4952 22.8843 25.5742 22.5088 25.4727L5.39258 20.8398C4.84776 20.6924 4.46895 20.1982 4.46875 19.6338V8.62988C4.46875 8.05548 4.86047 7.55532 5.41797 7.41699L22.5342 3.16992ZM9.72461 19.4219L21.585 22.6328V15.6143L9.72461 19.4219ZM7.03125 17.6611L18.1123 14.1025L7.03125 10.8184V17.6611ZM9.56445 8.96191L21.585 12.5254V5.98047L9.56445 8.96191Z" fill="currentColor"/>
</svg>
