<svg xmlns="http://www.w3.org/2000/svg" width="32" height="32" viewBox="0 0 32 32" fill="none">
  <path d="M25.3994 3.95117C25.6977 3.87731 26.0137 3.94459 26.2559 4.13379C26.4981 4.32329 26.6396 4.61433 26.6396 4.92188V27.2471C26.6396 27.5582 26.4949 27.8518 26.248 28.041C26.0009 28.2302 25.6793 28.2941 25.3789 28.2129L6.16016 23.0107C5.72437 22.8926 5.42188 22.4965 5.42188 22.0449V9.69043C5.42194 9.23107 5.73487 8.83049 6.18066 8.71973L25.3994 3.95117ZM9.5 21.8418L24.6396 25.9404V16.9795L9.5 21.8418ZM7.49219 20.3857L21.7051 15.8213L7.49219 11.6084V20.3857ZM9.2041 10.0303L24.6396 14.6055V6.2002L9.2041 10.0303Z" fill="currentColor"/>
</svg>