<svg xmlns="http://www.w3.org/2000/svg" width="28" height="28" viewBox="0 0 28 28" fill="none">
  <path d="M18.6957 11.4395H9.30512C6.39892 11.4395 4.04297 13.7953 4.04297 16.7015C4.04297 19.6078 6.39892 21.9637 9.30512 21.9637H18.6957C21.6019 21.9637 23.9578 19.6078 23.9578 16.7015C23.9578 13.7953 21.6019 11.4395 18.6957 11.4395Z" stroke="currentColor" stroke-width="2.40626" stroke-linecap="round" stroke-linejoin="round"/>
  <path d="M26.0314 6.03662V8.44288H1.96875V6.03662H26.0314Z" fill="currentColor"/>
  <path d="M18.5425 14.3193C19.8573 14.3193 20.9248 15.3869 20.9248 16.7017C20.9248 18.0165 19.8573 19.084 18.5425 19.084C17.2277 19.084 16.1602 18.0165 16.1602 16.7017C16.1602 15.3869 17.2277 14.3193 18.5425 14.3193Z" fill="currentColor"/>
</svg>