<svg xmlns="http://www.w3.org/2000/svg" width="32" height="32" viewBox="0 0 32 32" fill="none">
  <path d="M19.4516 17.6626H29.1225C29.4987 17.6626 29.6104 17.1577 29.2681 17.0035L19.4497 12.5798V2.88702C19.4497 2.52581 18.9579 2.40728 18.7887 2.7278L14.7132 10.4463L10.1625 8.40384C9.86031 8.26818 9.55401 8.58435 9.70555 8.87546L12.5489 14.3374H2.8777C2.50136 14.3374 2.38972 14.8422 2.73199 14.9965L12.5507 19.4214L12.5506 29.113C12.5506 29.4742 13.0426 29.5927 13.2118 29.2722L17.2869 21.5544L21.8304 23.6004C22.1325 23.7364 22.4391 23.4208 22.288 23.1295L19.4516 17.6626Z" fill="currentColor"/>
</svg>