<svg xmlns="http://www.w3.org/2000/svg" width="32" height="32" viewBox="0 0 32 32" fill="none">
  <path d="M27.0466 11.7076L18.6785 26.2017C18.4255 26.6388 18.062 27.0017 17.6245 27.254C17.1869 27.5063 16.6907 27.6391 16.1857 27.6391C15.6806 27.6391 15.1844 27.5063 14.7469 27.254C14.3093 27.0017 13.9458 26.6388 13.6928 26.2017L12.2258 23.6628C12.2211 23.6564 12.2191 23.6486 12.2202 23.6408C12.2213 23.633 12.2255 23.6259 12.2318 23.6212C12.2381 23.6165 12.246 23.6144 12.2538 23.6155C12.2616 23.6167 12.2686 23.6208 12.2734 23.6271C12.535 23.8855 12.8524 24.0805 13.201 24.1973C13.5496 24.3142 13.9204 24.3498 14.2849 24.3014C14.6494 24.253 14.998 24.1218 15.304 23.9179C15.61 23.7141 15.8654 23.443 16.0505 23.1253L23.0556 10.98C23.2403 10.6594 23.3487 10.3005 23.3724 9.93124C23.3961 9.56197 23.3345 9.19219 23.1925 8.85053C23.0503 8.50888 22.8315 8.20451 22.5528 7.96101C22.2742 7.71751 21.9433 7.5414 21.5857 7.44632C21.5778 7.44632 21.5703 7.4432 21.5647 7.43763C21.5591 7.43206 21.556 7.4245 21.556 7.41663C21.556 7.40875 21.5591 7.4012 21.5647 7.39563C21.5703 7.39006 21.5778 7.38693 21.5857 7.38693H24.5552C25.0605 7.38748 25.5569 7.52097 25.9943 7.774C26.4317 8.02703 26.7949 8.39069 27.0474 8.82848C27.2998 9.26627 27.4326 9.76276 27.4325 10.2681C27.4324 10.7735 27.2993 11.2699 27.0466 11.7076ZM17.1403 7.38693H14.2391C14.2332 7.38889 14.228 7.39267 14.2244 7.39773C14.2207 7.4028 14.2187 7.40889 14.2187 7.41514C14.2187 7.4214 14.2207 7.42749 14.2244 7.43256C14.228 7.43762 14.2332 7.4414 14.2391 7.44335C14.4346 7.51883 14.6113 7.63561 14.7575 7.7857C14.9036 7.93579 15.0156 8.11567 15.0858 8.31303C15.156 8.51038 15.1828 8.72058 15.1642 8.92923C15.1457 9.13788 15.0824 9.34008 14.9786 9.522L10.75 16.8359C10.6407 17.0213 10.4918 17.1803 10.3138 17.3014C10.1358 17.4225 9.93327 17.5026 9.72063 17.5361C9.50801 17.5696 9.29061 17.5556 9.08403 17.4951C8.87745 17.4346 8.68683 17.3292 8.52585 17.1863C8.52112 17.18 8.51409 17.1758 8.50629 17.1747C8.49849 17.1736 8.49057 17.1756 8.48427 17.1804C8.47797 17.185 8.4738 17.1921 8.47269 17.1999C8.47158 17.2077 8.47361 17.2156 8.47833 17.2219L9.96308 19.7994C10.1298 20.0887 10.3697 20.3289 10.6588 20.4959C10.9479 20.663 11.2758 20.7509 11.6097 20.7509C11.9435 20.7509 12.2715 20.663 12.5605 20.4959C12.8496 20.3289 13.0896 20.0887 13.2563 19.7994L18.7885 10.2376C18.9553 9.94858 19.0431 9.62065 19.0431 9.28686C19.0429 8.95307 18.955 8.62519 18.7879 8.33622C18.6208 8.04724 18.3806 7.80736 18.0914 7.64072C17.8022 7.47408 17.4742 7.38655 17.1403 7.38693ZM7.07079 7.38693C6.57569 7.38693 6.09171 7.53375 5.68004 7.80881C5.26838 8.08388 4.94753 8.47484 4.75806 8.93226C4.56859 9.38967 4.51902 9.89299 4.61561 10.3786C4.7122 10.8642 4.95061 11.3102 5.3007 11.6603C5.65079 12.0104 6.09684 12.2488 6.58242 12.3454C7.06802 12.442 7.57134 12.3924 8.02876 12.203C8.48617 12.0135 8.87713 11.6926 9.1522 11.281C9.42726 10.8693 9.57408 10.3853 9.57408 9.89022C9.57447 9.56137 9.50998 9.23568 9.38432 8.93179C9.25866 8.6279 9.07428 8.35179 8.84175 8.11926C8.60922 7.88673 8.33311 7.70235 8.02922 7.57669C7.72533 7.45103 7.39964 7.38654 7.07079 7.38693Z" fill="currentColor"/>
</svg>