<svg xmlns="http://www.w3.org/2000/svg" width="20" height="20" viewBox="0 0 20 20" fill="none">
  <path d="M7.99933 17C6.82644 16.6367 5.78243 15.9622 4.95575 15.0686C5.26415 14.6883 5.45 14.197 5.45 13.6605C5.45 12.4539 4.5098 11.4758 3.35 11.4758C3.27984 11.4758 3.21049 11.4794 3.1421 11.4864C3.04893 11.0124 3 10.5218 3 10.0193C3 9.25801 3.11227 8.52404 3.32053 7.83428C3.33033 7.83442 3.34016 7.8345 3.35 7.8345C4.5098 7.8345 5.45 6.85634 5.45 5.64974C5.45 5.30334 5.37251 4.97581 5.23461 4.6848C6.04412 3.90171 7.03217 3.31565 8.12823 3C8.47554 3.70824 9.18334 4.19324 10 4.19324C10.8167 4.19324 11.5245 3.70824 11.8718 3C12.9678 3.31565 13.9559 3.90171 14.7654 4.6848C14.6275 4.97581 14.55 5.30334 14.55 5.64974C14.55 6.85634 15.4902 7.8345 16.65 7.8345C16.6598 7.8345 16.6697 7.83442 16.6795 7.83428C16.8877 8.52404 17 9.25801 17 10.0193C17 10.5218 16.9511 11.0124 16.8579 11.4864C16.7895 11.4794 16.7202 11.4758 16.65 11.4758C15.4902 11.4758 14.55 12.4539 14.55 13.6605C14.55 14.197 14.7359 14.6883 15.0442 15.0686C14.2176 15.9622 13.1736 16.6367 12.0007 17C11.73 16.1191 10.9366 15.4812 10 15.4812C9.0634 15.4812 8.27002 16.1191 7.99933 17Z" stroke="currentColor" stroke-width="1.25" stroke-linejoin="round"/>
  <path d="M10 12C11.1046 12 12 11.1046 12 10C12 8.89543 11.1046 8 10 8C8.89543 8 8 8.89543 8 10C8 11.1046 8.89543 12 10 12Z" stroke="currentColor" stroke-width="1.25" stroke-linejoin="round"/>
</svg>
