<svg xmlns="http://www.w3.org/2000/svg" width="20" height="20" viewBox="0 0 20 20" fill="none">
  <path d="M16.9581 13.6261H17.396C18.2815 13.6261 18.9918 12.7893 18.9918 11.7967V10.4442C18.9918 9.73386 18.6221 9.07219 18.048 8.78027L16.6078 8.03101L15.3234 5.72487C14.9536 5.05346 14.3017 4.65451 13.6108 4.66424H8.17143C7.53894 4.66424 6.94538 4.99508 6.56589 5.55945L4.91169 8.00182L2.1774 8.83865C1.4768 9.05273 1 9.77279 1 10.5902V11.787C1 12.7795 1.71033 13.6164 2.59581 13.6164H2.82935" stroke="currentColor" stroke-width="1.25" stroke-linecap="round" stroke-linejoin="round"/>
  <path d="M6.95312 13.6172H12.6942" stroke="currentColor" stroke-width="1.25" stroke-linecap="round" stroke-linejoin="round"/>
  <path d="M4.83454 15.3175C5.94696 15.3175 6.84877 14.4157 6.84877 13.3033C6.84877 12.1909 5.94696 11.2891 4.83454 11.2891C3.72211 11.2891 2.82031 12.1909 2.82031 13.3033C2.82031 14.4157 3.72211 15.3175 4.83454 15.3175Z" stroke="currentColor" stroke-width="1.25" stroke-linecap="round" stroke-linejoin="round"/>
  <path d="M14.9439 15.3175C16.0563 15.3175 16.9581 14.4157 16.9581 13.3033C16.9581 12.1909 16.0563 11.2891 14.9439 11.2891C13.8315 11.2891 12.9297 12.1909 12.9297 13.3033C12.9297 14.4157 13.8315 15.3175 14.9439 15.3175Z" stroke="currentColor" stroke-width="1.25" stroke-linecap="round" stroke-linejoin="round"/>
</svg>
