<svg xmlns="http://www.w3.org/2000/svg" width="20" height="20" viewBox="0 0 20 20" fill="none">
  <path d="M10.7605 9.29642L3.93008 16.1269M11.4927 3.93161C12.3685 4.5127 13.2102 5.19778 13.9968 5.98436C14.7901 6.77773 15.4802 7.62721 16.0646 8.51111M8.06784 7.06476L6.00084 6.37575C5.76279 6.29641 5.5006 6.3469 5.30905 6.50899L3.25477 8.24723C2.83422 8.60309 2.9537 9.28032 3.47064 9.47078L5.41709 10.1879M9.8122 14.5829L10.5293 16.5293C10.7197 17.0463 11.3969 17.1658 11.7528 16.7452L13.4911 14.6909C13.6531 14.4994 13.7036 14.2372 13.6243 13.9992L12.9353 11.9321M15.3251 3.0201L11.7973 3.60806C11.4164 3.67154 11.0671 3.85878 10.8032 4.1408L6.04849 9.22351C4.81602 10.541 4.8503 12.5984 6.12597 13.8741C7.40164 15.1498 9.45911 15.1841 10.7766 13.9516L15.8592 9.19684C16.1412 8.93304 16.3284 8.58361 16.3919 8.20268L16.9799 4.67494C17.1421 3.70167 16.2983 2.85789 15.3251 3.0201Z" stroke="currentColor" stroke-width="1.25" stroke-linecap="round" stroke-linejoin="round"/>
</svg>
