<svg xmlns="http://www.w3.org/2000/svg" width="20" height="20" viewBox="0 0 20 20" fill="none">
  <path d="M12.5645 4.82437C13.1141 4.82437 13.6413 4.60603 14.0299 4.21739C14.4185 3.82876 14.6369 3.30165 14.6369 2.75203C14.6369 2.20241 14.4185 1.6753 14.0299 1.28666C13.6413 0.898023 13.1141 0.679688 12.5645 0.679688C12.0149 0.679688 11.4878 0.898023 11.0992 1.28666C10.7105 1.6753 10.4922 2.20241 10.4922 2.75203C10.4922 3.30165 10.7105 3.82876 11.0992 4.21739C11.4878 4.60603 12.0149 4.82437 12.5645 4.82437Z" fill="currentColor"/>
  <path d="M3.75781 15.0015L8.75364 16.0007L9.50301 14.502" stroke="currentColor" stroke-width="1.5" stroke-linecap="round" stroke-linejoin="round"/>
  <path d="M14.7467 19.0009V15.0042L10.75 12.0067L11.7492 6.01172" stroke="currentColor" stroke-width="1.5" stroke-linecap="round" stroke-linejoin="round"/>
  <path d="M6.75391 10.0084V7.01088L11.7497 6.01172L14.7472 9.00921L17.7447 10.0084" stroke="currentColor" stroke-width="1.5" stroke-linecap="round" stroke-linejoin="round"/>
</svg>