<svg xmlns="http://www.w3.org/2000/svg" width="16" height="16" viewBox="0 0 16 16" fill="none">
  <path fill-rule="evenodd" clip-rule="evenodd" d="M7.55731 0.386719C7.71196 0.386713 7.90389 0.386705 8.08722 0.401979C8.3555 0.402817 8.61045 0.418935 8.86558 0.450521C10.5235 0.60793 11.9996 1.08107 12.8965 1.7882L12.9008 1.79162C13.4235 2.21315 13.8329 2.75232 13.8329 3.42925C13.8329 3.45628 13.8322 3.48312 13.8309 3.50978C13.8322 3.52457 13.8329 3.53955 13.8329 3.55469V6.88007C13.523 6.66654 13.1879 6.48705 12.8329 6.34701V5.22879C12.4127 5.53956 11.8808 5.80089 11.2787 6.00769C11.1861 6.00259 11.0929 6 10.999 6C10.1957 6 9.43669 6.18943 8.76413 6.52606C8.5449 6.5455 8.32157 6.55904 8.09475 6.5661C7.90915 6.58201 7.71409 6.582 7.55733 6.58199L7.54749 6.58199C5.90343 6.58199 4.3896 6.28799 3.2682 5.79571C2.89979 5.63399 2.56404 5.44661 2.27734 5.23397V7.10938C2.27734 7.29445 2.36067 7.50932 2.59104 7.74776C2.82386 7.98871 3.1848 8.22827 3.66946 8.44015C4.38443 8.7527 5.31956 8.98358 6.37975 9.08289C6.24027 9.41857 6.13632 9.77274 6.07259 10.1407C5.00839 10.0229 4.04484 9.77965 3.2689 9.44044C2.90034 9.27932 2.56433 9.09229 2.27734 8.87944V10.9003C2.27734 11.0854 2.36067 11.3003 2.59104 11.5387C2.82386 11.7797 3.1848 12.0192 3.66946 12.2311C4.38028 12.5418 5.30871 12.7719 6.3613 12.8721C6.51145 13.2437 6.70496 13.5931 6.93557 13.9141C5.53064 13.8517 4.24985 13.5762 3.2689 13.1474C2.70877 12.9025 2.22379 12.5978 1.87188 12.2336C1.51754 11.8668 1.27734 11.4156 1.27734 10.9003V3.55469C1.27734 3.53955 1.27802 3.52456 1.27933 3.50976C1.27801 3.4831 1.27734 3.45626 1.27734 3.42925C1.27734 2.91429 1.51726 2.46241 1.87107 2.09449C2.22262 1.72892 2.7073 1.42215 3.2675 1.17521C4.38933 0.680703 5.90349 0.386719 7.54749 0.386719H7.55731ZM7.54749 1.38672C7.7197 1.38672 7.87906 1.38709 8.01988 1.39989C8.03493 1.40126 8.05003 1.40194 8.06514 1.40194C8.30373 1.40194 8.52661 1.41593 8.74914 1.44374L8.76419 1.44539C10.3292 1.59304 11.5895 2.03232 12.2752 2.57178C12.6947 2.9107 12.8329 3.1931 12.8329 3.42925C12.8329 3.64727 12.707 3.92224 12.3345 4.22486C11.9652 4.52475 11.4064 4.8045 10.6912 5.02125C9.92582 5.25228 9.02556 5.41244 8.05022 5.44155C8.04009 5.44186 8.02997 5.44247 8.01988 5.44339C7.87906 5.45619 7.7197 5.45656 7.54749 5.45656C6.00958 5.45656 4.63834 5.17963 3.67016 4.75462C3.18529 4.54177 2.82383 4.30157 2.59063 4.06078C2.35943 3.82206 2.27734 3.60915 2.27734 3.42925C2.27734 3.24387 2.36095 3.02777 2.59186 2.78764C2.82503 2.54518 3.18626 2.30386 3.67085 2.09025C4.63861 1.66366 6.00951 1.38672 7.54749 1.38672Z" fill="currentColor"/>
  <path d="M15.0355 11.5004L7.96447 11.5004" stroke="currentColor" stroke-linejoin="round"/>
  <path d="M11.5 15C13.433 15 15 13.433 15 11.5C15 9.567 13.433 8 11.5 8C9.567 8 8 9.567 8 11.5C8 13.433 9.567 15 11.5 15Z" stroke="currentColor" stroke-linecap="round" stroke-linejoin="round"/>
</svg>
