<svg width="24" height="25" viewBox="0 0 24 25" fill="none" xmlns="http://www.w3.org/2000/svg">
<path d="M11.9971 21.0879C14.495 21.0879 16.7565 20.0754 18.3935 18.4384C20.0305 16.8014 21.043 14.5399 21.043 12.042C21.043 9.54407 20.0305 7.28259 18.3935 5.64558C16.7565 4.00859 14.495 2.99609 11.9971 2.99609C9.49915 2.99609 7.23767 4.00859 5.60066 5.64558C3.96367 7.28259 2.95117 9.54407 2.95117 12.042C2.95117 14.5399 3.96367 16.8014 5.60066 18.4384C7.23767 20.0754 9.49915 21.0879 11.9971 21.0879Z" stroke="white" stroke-width="1.21151" stroke-linejoin="round"/>
<path d="M12.0009 13.9439V12.3075C13.3565 12.3075 14.4555 11.2086 14.4555 9.85298C14.4555 8.49738 13.3565 7.39844 12.0009 7.39844C10.6453 7.39844 9.54639 8.49738 9.54639 9.85298" stroke="white" stroke-width="1.05195" stroke-linecap="round" stroke-linejoin="round"/>
<path d="M12.3212 16.593C12.3212 16.7706 12.1773 16.9145 11.9998 16.9145C11.8223 16.9145 11.6783 16.7706 11.6783 16.593C11.6783 16.4155 11.8223 16.2716 11.9998 16.2716C12.1773 16.2716 12.3212 16.4155 12.3212 16.593Z" fill="white" stroke="white" stroke-width="1.4026"/>
</svg>
