<svg xmlns="http://www.w3.org/2000/svg" width="14" height="14" viewBox="0 0 14 14" fill="none">
  <path d="M6.99846 12.2723C8.45559 12.2723 9.77479 11.6817 10.7297 10.7268C11.6846 9.77186 12.2752 8.45266 12.2752 6.99553C12.2752 5.5384 11.6846 4.21921 10.7297 3.26428C9.77479 2.30937 8.45559 1.71875 6.99846 1.71875C5.54133 1.71875 4.22214 2.30937 3.26721 3.26428C2.3123 4.21921 1.72168 5.5384 1.72168 6.99553C1.72168 8.45266 2.3123 9.77186 3.26721 10.7268C4.22214 11.6817 5.54133 12.2723 6.99846 12.2723Z" stroke="currentColor" stroke-linejoin="round"/>
  <path d="M7.00018 8.10724V7.1527C7.79095 7.1527 8.432 6.51165 8.432 5.72088C8.432 4.93011 7.79095 4.28906 7.00018 4.28906C6.20941 4.28906 5.56836 4.93011 5.56836 5.72088" stroke="currentColor" stroke-linecap="round" stroke-linejoin="round"/>
  <path d="M7.18643 9.65128C7.18643 9.75483 7.10249 9.83878 6.99893 9.83878C6.89538 9.83878 6.81143 9.75483 6.81143 9.65128C6.81143 9.54773 6.89538 9.46378 6.99893 9.46378C7.10249 9.46378 7.18643 9.54773 7.18643 9.65128Z" fill="currentColor" stroke="currentColor" stroke-width="0.818182"/>
</svg>
