<svg width="24" height="24" viewBox="0 0 24 24" fill="none" xmlns="http://www.w3.org/2000/svg">
<g opacity="0.8" clip-path="url(#clip0_78711_65963)">
<path d="M23.4059 13.4479C24.311 11.4189 19.8361 5.75029 15.561 3.38863C12.8662 1.55908 10.0583 1.81043 9.48961 2.61374C8.24156 4.37668 13.6222 5.8705 17.2207 7.61369C16.4472 7.95079 15.7183 8.55573 15.2896 9.32937C13.948 7.85981 11.0035 6.59431 7.54844 7.61369C5.22014 8.30063 3.28514 9.92011 2.53727 12.3662C2.35555 12.2851 2.15436 12.2401 1.94268 12.2401C1.13324 12.2401 0.477051 12.8985 0.477051 13.7107C0.477051 14.5229 1.13324 15.1813 1.94268 15.1813C2.09272 15.1813 2.56183 15.0803 2.56183 15.0803L10.0583 15.1348C7.0603 19.9068 4.69103 20.6044 4.69103 21.4312C4.69103 22.2579 6.958 22.0339 7.8092 21.7257C11.884 20.2505 16.2605 15.6528 17.0115 14.3293C20.1652 14.7241 22.8157 14.7708 23.4059 13.4479Z" fill="url(#paint0_linear_78711_65963)"/>
<path fill-rule="evenodd" clip-rule="evenodd" d="M17.1186 7.56548C17.1531 7.58035 17.1873 7.59523 17.2213 7.61012C17.3881 7.54419 17.3611 7.29702 17.3153 7.10291C17.21 6.65677 15.3937 4.85718 13.6881 4.05113C11.3599 2.95084 9.64653 3.00962 9.39844 3.51835C9.8695 4.49278 12.0659 5.40752 14.3599 6.36292C15.3005 6.75463 16.2574 7.15318 17.1186 7.56548Z" fill="url(#paint1_linear_78711_65963)"/>
<path fill-rule="evenodd" clip-rule="evenodd" d="M14.2683 17.4159C13.7994 17.2363 13.2698 17.0715 12.668 16.9219C13.3116 15.7664 13.4466 14.0558 12.8388 12.9742C11.9858 11.4563 10.9149 10.6484 8.42659 10.6484C7.058 10.6484 3.37315 11.111 3.30773 14.1974C3.30094 14.5179 3.30742 14.8119 3.33021 15.0825L10.0628 15.1314C9.1529 16.5798 8.30088 17.6528 7.55545 18.4681C8.45017 18.6981 9.18826 18.8912 9.86579 19.0684C10.5056 19.2357 11.0914 19.389 11.7041 19.5459C12.6325 18.8679 13.5053 18.1284 14.2683 17.4159Z" fill="url(#paint2_linear_78711_65963)"/>
<path d="M2.4487 14.7647C2.72358 17.1093 4.05158 18.0281 6.76523 18.3001C9.47888 18.572 11.0355 18.3896 13.1078 18.5787C14.8386 18.7368 16.384 19.6217 16.9573 19.3159C17.4733 19.0407 17.1847 18.0463 16.4942 17.4083C15.5993 16.5814 14.3607 16.0064 12.1813 15.8024C12.6156 14.6091 12.4939 12.9361 11.8194 12.0259C10.844 10.7098 9.04374 10.1147 6.76524 10.3747C4.38472 10.6463 2.10372 11.8223 2.4487 14.7647Z" fill="url(#paint3_linear_78711_65963)"/>
<g clip-path="url(#clip1_78711_65963)">
<path d="M18.7831 23.4811C20.0797 23.4811 21.2536 22.9556 22.1034 22.1058C22.9531 21.2561 23.4787 20.0822 23.4787 18.7855C23.4787 17.4888 22.9531 16.3149 22.1034 15.4652C21.2536 14.6154 20.0797 14.0898 18.7831 14.0898C17.4864 14.0898 16.3125 14.6154 15.4627 15.4652C14.613 16.3149 14.0874 17.4888 14.0874 18.7855C14.0874 20.0822 14.613 21.2561 15.4627 22.1058C16.3125 22.9556 17.4864 23.4811 18.7831 23.4811Z" fill="#7084FF" stroke="white" stroke-width="1.04348" stroke-linejoin="round"/>
<path d="M16.6094 18.7817L18.2036 20.3759L21.392 17.1875" stroke="white" stroke-width="1.04348" stroke-linecap="round" stroke-linejoin="round"/>
</g>
</g>
<defs>
<linearGradient id="paint0_linear_78711_65963" x1="7.27734" y1="11.6511" x2="23.2189" y2="16.1567" gradientUnits="userSpaceOnUse">
<stop stop-color="white"/>
<stop offset="1" stop-color="white"/>
</linearGradient>
<linearGradient id="paint1_linear_78711_65963" x1="20.5286" y1="11.3431" x2="8.99296" y2="-0.18361" gradientUnits="userSpaceOnUse">
<stop stop-color="#8697FF"/>
<stop offset="1" stop-color="#8697FF" stop-opacity="0"/>
</linearGradient>
<linearGradient id="paint2_linear_78711_65963" x1="14.5881" y1="17.8191" x2="3.52882" y2="11.4834" gradientUnits="userSpaceOnUse">
<stop stop-color="#8697FF"/>
<stop offset="1" stop-color="#8697FF" stop-opacity="0"/>
</linearGradient>
<linearGradient id="paint3_linear_78711_65963" x1="8.2298" y1="11.5278" x2="15.7258" y2="21.0202" gradientUnits="userSpaceOnUse">
<stop stop-color="white"/>
<stop offset="0.983895" stop-color="#D1D8FF"/>
</linearGradient>
<clipPath id="clip0_78711_65963">
<rect width="24" height="24" fill="white"/>
</clipPath>
<clipPath id="clip1_78711_65963">
<rect width="10.4348" height="10.4348" fill="white" transform="translate(13.5654 13.5664)"/>
</clipPath>
</defs>
</svg>
