<svg width="16" height="16" viewBox="0 0 16 16" fill="none" xmlns="http://www.w3.org/2000/svg">
<g clip-path="url(#clip0_31479_133896)">
<path fill-rule="evenodd" clip-rule="evenodd" d="M8 0C3.58172 0 0 3.58172 0 8C0 12.4183 3.58172 16 8 16C12.4183 16 16 12.4183 16 8C16 3.58172 12.4183 0 8 0ZM10.3129 7.50001C10.1157 7.50001 9.95576 7.65991 9.95576 7.85715V11.0714H8.88434V8.92858L8.88326 7.85679C8.88307 7.65969 8.72323 7.50001 8.52612 7.50001H7.45791C7.26066 7.50001 7.10076 7.65991 7.10076 7.85715V11.0714H6.02719V9.28572L6.02605 7.85687C6.02589 7.65973 5.86604 7.50001 5.66891 7.50001H4.59862C4.40138 7.50001 4.24148 7.65991 4.24148 7.85715V11.0714H3.73719C3.53995 11.0714 3.38005 11.2313 3.38005 11.4286V12.1429C3.38005 12.3401 3.53995 12.5 3.73719 12.5H12.3086C12.5059 12.5 12.6658 12.3401 12.6658 12.1429V11.4286C12.6658 11.2313 12.5059 11.0714 12.3086 11.0714H11.7415V7.85715C11.7415 7.65991 11.5816 7.50001 11.3843 7.50001H10.3129ZM8.11076 2.52287C8.07581 2.50776 8.03813 2.49998 8.00005 2.50001C7.94281 2.49957 7.88686 2.51705 7.84005 2.55001L3.11005 5.93072L3.06719 5.97072C3.0357 6.00523 3.01421 6.04767 3.00502 6.09348C2.99583 6.13929 2.9993 6.18674 3.01505 6.23072C3.031 6.28526 3.0648 6.33287 3.11104 6.3659C3.15729 6.39893 3.21328 6.41547 3.27005 6.41287H12.7301L12.7872 6.40715C12.8324 6.39699 12.8744 6.37545 12.909 6.34458C12.9436 6.31371 12.9698 6.27452 12.9851 6.23072C13.0043 6.17722 13.0054 6.11887 12.9883 6.06466C12.9711 6.01045 12.9366 5.96339 12.89 5.93072L8.16005 2.55001L8.11076 2.52287Z" fill="#7084FF"/>
</g>
<defs>
<clipPath id="clip0_31479_133896">
<rect width="16" height="16" fill="white"/>
</clipPath>
</defs>
</svg>
