<svg width="16" height="16" viewBox="0 0 16 16" fill="none" xmlns="http://www.w3.org/2000/svg">
<g clip-path="url(#clip0_31479_133900)">
<path fill-rule="evenodd" clip-rule="evenodd" d="M0 8C0 3.58172 3.58172 0 8 0C12.4183 0 16 3.58172 16 8C16 12.4183 12.4183 16 8 16C3.58172 16 0 12.4183 0 8ZM4.05234 6.63795C4.50133 4.83551 6.13082 3.5 8.07225 3.5C10.3601 3.5 12.2148 5.35469 12.2148 7.64256C12.2148 7.70178 12.2075 7.75929 12.1938 7.81425C12.2077 7.75905 12.215 7.70128 12.215 7.64178C12.215 5.35391 10.3603 3.49922 8.07244 3.49922C6.13074 3.49922 4.50105 4.83512 4.05234 6.63795ZM5.32104 7.81418C5.33489 7.759 5.34224 7.70125 5.34224 7.64178C5.34224 7.41368 5.37021 7.19212 5.42291 6.98033C5.37008 7.19235 5.34204 7.41418 5.34204 7.64256C5.34204 7.70175 5.33476 7.75924 5.32104 7.81418ZM8.07244 3.19922C5.61889 3.19922 3.62988 5.18822 3.62988 7.64178C3.62988 8.19748 4.08036 8.64796 4.63606 8.64796C5.19176 8.64796 5.64224 8.19748 5.64224 7.64178C5.64224 6.29961 6.73028 5.21157 8.07244 5.21157C9.41461 5.21157 10.5027 6.29961 10.5027 7.64178C10.5027 8.19748 10.9531 8.64796 11.5088 8.64796C12.0645 8.64796 12.515 8.19748 12.515 7.64178C12.515 5.18822 10.526 3.19922 8.07244 3.19922ZM5.73102 11.284C5.73102 11.9553 5.18678 12.4996 4.51541 12.4996C3.84405 12.4996 3.2998 11.9553 3.2998 11.284C3.2998 10.6126 3.84405 10.0684 4.51541 10.0684C5.18678 10.0684 5.73102 10.6126 5.73102 11.284ZM11.8299 12.4996C12.5012 12.4996 13.0455 11.9553 13.0455 11.284C13.0455 10.6126 12.5012 10.0684 11.8299 10.0684C11.1585 10.0684 10.6143 10.6126 10.6143 11.284C10.6143 11.9553 11.1585 12.4996 11.8299 12.4996Z" fill="#7084FF"/>
</g>
<defs>
<clipPath id="clip0_31479_133900">
<rect width="16" height="16" fill="white"/>
</clipPath>
</defs>
</svg>
