<svg width="14" height="14" viewBox="0 0 14 14" fill="none" xmlns="http://www.w3.org/2000/svg">
<g id="&#232;&#173;&#166;&#229;&#145;&#138; (3) 1">
<path id="Vector" d="M8.16673 1.63437C8.16673 1.69271 8.2834 1.80938 8.4584 2.10104C8.6334 2.39271 8.8084 2.68437 9.04173 3.15104C9.27507 3.61771 9.56673 4.02604 9.8584 4.55104C10.1501 5.07604 10.5001 5.60104 10.7917 6.12604C11.0834 6.65104 11.4334 7.23438 11.7251 7.75938C12.0167 8.28437 12.3084 8.80938 12.6001 9.21771C12.8334 9.68437 13.0667 10.0344 13.3001 10.3844C13.5334 10.7344 13.5917 10.9094 13.7084 11.026C13.8251 11.2594 13.9417 11.4927 13.9417 11.726C14.0001 11.9594 13.9417 12.1344 13.8834 12.3677C13.8251 12.601 13.7084 12.7177 13.5917 12.8344C13.4167 12.951 13.2417 13.0094 13.0084 13.0094H1.22507C0.875065 13.0094 0.583398 12.951 0.408398 12.8344C0.233398 12.7177 0.116732 12.5427 0.0583984 12.3677C6.51041e-05 12.1927 6.51041e-05 11.9594 0.0583984 11.7844C0.116732 11.551 0.175065 11.376 0.350065 11.1427C0.408398 11.026 0.525065 10.851 0.700065 10.501C0.875065 10.2094 1.1084 9.80104 1.40007 9.39271C1.69173 8.92604 1.9834 8.45937 2.27507 7.93437C2.56673 7.40937 2.91673 6.82604 3.26673 6.30104C3.61673 5.77604 3.9084 5.19271 4.20007 4.66771C4.49173 4.14271 4.7834 3.67604 5.01673 3.26771C5.25006 2.85937 5.4834 2.50937 5.6584 2.21771L5.95007 1.75104C6.06673 1.57604 6.24173 1.40104 6.47507 1.28438C6.7084 1.16771 6.8834 1.10938 7.11673 1.10938C7.35007 1.10938 7.52507 1.16771 7.7584 1.22604C7.87507 1.28437 8.05007 1.45937 8.16673 1.63437ZM7.81673 4.31771C7.81673 4.20104 7.81673 4.08437 7.7584 4.02604C7.70007 3.90937 7.64173 3.85104 7.5834 3.79271C7.52507 3.73438 7.4084 3.67604 7.29173 3.61771C7.17507 3.55937 7.0584 3.50104 6.94173 3.50104C6.7084 3.50104 6.5334 3.55938 6.3584 3.73438C6.1834 3.90937 6.06673 4.08437 6.06673 4.31771V7.93437C6.06673 8.16771 6.1834 8.34271 6.3584 8.51771C6.5334 8.69271 6.7084 8.75104 6.94173 8.75104C7.17507 8.75104 7.35007 8.69271 7.52507 8.51771C7.70007 8.34271 7.81673 8.16771 7.81673 7.93437V4.31771ZM6.94173 9.56771C6.7084 9.56771 6.47507 9.62604 6.3584 9.80104C6.24173 9.97604 6.12507 10.151 6.12507 10.3844C6.12507 10.6177 6.1834 10.851 6.3584 10.9677C6.5334 11.1427 6.7084 11.201 6.94173 11.201C7.17507 11.201 7.4084 11.1427 7.52507 10.9677C7.70007 10.7927 7.7584 10.6177 7.7584 10.3844C7.7584 10.151 7.70007 9.91771 7.52507 9.80104C7.4084 9.62604 7.17507 9.56771 6.94173 9.56771Z" fill="#FF453A"/>
</g>
</svg>
