<svg xmlns="http://www.w3.org/2000/svg" width="57" height="72" viewBox="0 0 57 72" fill="none">
  <g opacity="0.1">
    <path d="M41.0551 56.5123C41.0551 54.5878 42.1584 52.8533 43.7647 51.791C47.6657 49.221 50.8671 45.7223 53.0814 41.609C55.2957 37.4957 56.4535 32.8968 56.4507 28.2254C56.4507 12.6373 43.8135 0 28.2254 0C12.6373 0 4.97473e-06 12.6373 4.97473e-06 28.2254C-0.00276947 32.8968 1.155 37.4957 3.36929 41.609C5.58358 45.7223 8.78503 49.221 12.686 51.791C14.2923 52.8533 15.3957 54.5878 15.3957 56.5123V59.0167C15.3957 59.3536 15.462 59.6873 15.591 59.9986C15.7199 60.3099 15.9089 60.5928 16.1472 60.8311C16.3855 61.0693 16.6683 61.2583 16.9797 61.3873C17.291 61.5162 17.6246 61.5826 17.9616 61.5826H38.4891C38.8261 61.5826 39.1598 61.5162 39.4711 61.3873C39.7824 61.2583 40.0653 61.0693 40.3035 60.8311C40.5418 60.5928 40.7308 60.3099 40.8597 59.9986C40.9887 59.6873 41.0551 59.3536 41.0551 59.0167V56.5123Z" fill="white"/>
    <path d="M17.9644 56.4491C17.2904 56.449 16.623 56.5817 16.0003 56.8396C15.3776 57.0974 14.8118 57.4754 14.3352 57.952C13.8586 58.4285 13.4805 58.9943 13.2226 59.617C12.9647 60.2396 12.8319 60.907 12.8319 61.581C12.8319 62.255 12.9647 62.9223 13.2226 63.545C13.4805 64.1677 13.8586 64.7334 14.3352 65.21C14.8118 65.6865 15.3776 66.0645 16.0003 66.3224C16.623 66.5803 17.2904 66.7129 17.9644 66.7129C19.3808 66.7129 20.479 67.9291 21.159 69.1736C21.6008 69.9821 22.252 70.6567 23.0443 71.1267C23.8367 71.5967 24.741 71.8447 25.6622 71.8447H30.7941C31.7158 71.8452 32.6206 71.5974 33.4135 71.1273C34.2063 70.6573 34.858 69.9824 35.2999 69.1736C35.9773 67.9291 37.0755 66.7129 38.4919 66.7129C39.1659 66.7129 39.8333 66.5803 40.456 66.3224C41.0787 66.0645 41.6445 65.6865 42.1211 65.21C42.5977 64.7334 42.9758 64.1677 43.2337 63.545C43.4917 62.9223 43.6245 62.255 43.6245 61.581C43.6245 60.907 43.4917 60.2396 43.2337 59.617C42.9758 58.9943 42.5977 58.4285 42.1211 57.952C41.6445 57.4754 41.0787 57.0974 40.456 56.8396C39.8333 56.5817 39.1659 56.449 38.4919 56.4491H17.9644Z" fill="#E8ECFF"/>
    <path d="M14.887 23.3501C15.4995 22.5335 16.4113 21.9936 17.4218 21.8492C18.4323 21.7049 19.4588 21.9679 20.2755 22.5803L28.2299 28.5462L36.1843 22.5803C36.5887 22.2771 37.0488 22.0564 37.5384 21.931C38.0281 21.8055 38.5376 21.7778 39.038 21.8492C39.5383 21.9207 40.0197 22.0901 40.4546 22.3476C40.8896 22.6051 41.2695 22.9458 41.5728 23.3501C41.8761 23.7545 42.0967 24.2146 42.2221 24.7042C42.3476 25.1939 42.3754 25.7034 42.3039 26.2038C42.2324 26.7042 42.0631 27.1855 41.8055 27.6205C41.548 28.0554 41.2074 28.4353 40.803 28.7386L32.0788 35.2818V46.187C32.0788 46.6925 31.9792 47.193 31.7858 47.6599C31.5924 48.1269 31.3089 48.5512 30.9515 48.9086C30.5941 49.266 30.1698 49.5495 29.7028 49.7429C29.2358 49.9364 28.7353 50.0359 28.2299 50.0359C27.7244 50.0359 27.2239 49.9364 26.757 49.7429C26.29 49.5495 25.8657 49.266 25.5083 48.9086C25.1509 48.5512 24.8674 48.1269 24.674 47.6599C24.4805 47.193 24.381 46.6925 24.381 46.187V35.2818L15.6568 28.7386C14.8401 28.1261 14.3002 27.2143 14.1559 26.2038C14.0115 25.1933 14.2745 24.1668 14.887 23.3501Z" fill="#8697FF"/>
  </g>
</svg>