<svg width="60" height="90" viewBox="0 0 60 90" fill="none"
    xmlns="http://www.w3.org/2000/svg">
    <g opacity="0.15">
        <path d="M52.9778 52.0624C56.1506 44.9477 40.4653 25.0705 25.4804 16.7892C16.035 10.3738 6.19289 11.2552 4.19956 14.072C-0.175018 20.2538 18.685 25.492 31.2982 31.6046C28.5868 32.7866 26.0317 34.9079 24.5292 37.6207C19.8269 32.4676 9.50602 28.0301 -2.60449 31.6046C-10.7655 34.0133 -17.5479 39.6921 -20.1693 48.2693C-20.8062 47.9852 -21.5114 47.8273 -22.2534 47.8273C-25.0906 47.8273 -27.3906 50.136 -27.3906 52.9839C-27.3906 55.8319 -25.0906 58.1406 -22.2534 58.1406C-21.7275 58.1406 -20.0832 57.7865 -20.0832 57.7865L6.19289 57.9776C-4.31549 74.711 -12.6201 77.1572 -12.6201 80.0562C-12.6201 82.9551 -4.67407 82.1696 -1.69051 81.089C12.5921 75.9161 27.9323 59.7942 30.5646 55.1533C41.619 56.5377 50.9091 56.7014 52.9778 52.0624Z" fill="url(#paint0_linear_125420_52615)"/>
        <path d="M3.88531 17.248C4.77413 15.4743 10.7706 15.2767 18.9146 19.1269C24.893 21.9533 31.2595 28.2637 31.6285 29.8281C31.789 30.5086 31.8837 31.3751 31.2994 31.6064L31.2984 31.6054L30.0982 31.0341C19.8053 26.227 6.16271 21.9337 3.88531 17.248Z" fill="url(#paint1_linear_125420_52615)"/>
        <path d="M0.468418 42.2283C9.19036 42.2283 12.9442 45.0611 15.9342 50.3835C18.0647 54.1761 17.5905 60.1745 15.3346 64.2263C17.45 64.7524 19.3105 65.3337 20.9577 65.9656C18.2859 68.463 15.2267 71.0541 11.9743 73.4324C7.54783 72.2986 3.52515 71.221 -2.57455 69.6521C0.0329494 66.7965 3.0127 63.0416 6.19303 57.9773L-17.39 57.8064C-17.4719 56.8492 -17.498 55.8084 -17.474 54.6726C-17.2447 43.85 -4.32868 42.2283 0.468418 42.2283Z" fill="url(#paint2_linear_125420_52615)"/>
        <path d="M-20.484 56.6938C-19.5205 64.9152 -14.8657 68.1371 -5.35401 69.0906C4.15768 70.0442 9.61373 69.4045 16.8775 70.0679C22.9443 70.6219 28.3611 73.7251 30.3707 72.6527C32.1792 71.6876 31.1674 68.2008 28.7474 65.9637C25.6105 63.0639 21.269 61.0478 13.63 60.3323C15.1523 56.1483 14.7257 50.2817 12.3613 47.0899C8.94268 42.4749 2.63245 40.3884 -5.35399 41.3001C-13.698 42.2525 -21.6932 46.376 -20.484 56.6938Z" fill="url(#paint3_linear_125420_52615)"/>
    </g>
    <defs>
        <linearGradient id="paint0_linear_125420_52615" x1="-3.55474" y1="45.762" x2="52.3258" y2="61.549" gradientUnits="userSpaceOnUse">
            <stop stop-color="#8697FF"/>
            <stop offset="1" stop-color="#ABB7FF"/>
        </linearGradient>
        <linearGradient id="paint1_linear_125420_52615" x1="42.8894" y1="44.696" x2="2.44055" y2="4.30203" gradientUnits="userSpaceOnUse">
            <stop stop-color="#8697FF"/>
            <stop offset="1" stop-color="#5156D8" stop-opacity="0"/>
        </linearGradient>
        <linearGradient id="paint2_linear_125420_52615" x1="22.0788" y1="67.3763" x2="-16.7027" y2="45.1642" gradientUnits="userSpaceOnUse">
            <stop stop-color="#465EED"/>
            <stop offset="1" stop-color="#8697FF" stop-opacity="0"/>
        </linearGradient>
        <linearGradient id="paint3_linear_125420_52615" x1="-0.220494" y1="45.3435" x2="26.0669" y2="78.6186" gradientUnits="userSpaceOnUse">
            <stop stop-color="#8898FF"/>
            <stop offset="0.983895" stop-color="#6277F1"/>
        </linearGradient>
    </defs>
</svg>
