<svg xmlns="http://www.w3.org/2000/svg" viewBox="0 0 80 80" fill="none">
  <rect width="80" height="80" rx="40" fill="#DEE3FC"/>
  <path d="M66.8581 43.4998C68.9533 38.8014 58.5952 25.6752 48.6997 20.2065C42.4622 15.97 35.9629 16.552 34.6465 18.4121C31.7577 22.4944 44.2122 25.9535 52.5416 29.9901C50.7511 30.7706 49.0638 32.1715 48.0716 33.9629C44.9663 30.56 38.1507 27.6296 30.1534 29.9901C24.7641 31.5807 20.2852 35.3308 18.5541 40.9949C18.1335 40.8073 17.6678 40.703 17.1779 40.703C15.3043 40.703 13.7854 42.2276 13.7854 44.1083C13.7854 45.989 15.3043 47.5136 17.1779 47.5136C17.5251 47.5136 18.611 47.2797 18.611 47.2797L35.9629 47.406C29.0235 58.4562 23.5394 60.0715 23.5394 61.9859C23.5394 63.9003 28.7867 63.3815 30.7569 62.668C40.1887 59.2519 50.3188 48.6056 52.0572 45.5408C59.3571 46.4551 65.4919 46.5632 66.8581 43.4998Z" fill="url(#paint0_linear_125576_56376)"/>
  <path d="M34.4388 20.5082C35.0268 19.3374 38.9866 19.2073 44.3636 21.7494C48.3116 23.6159 52.5155 27.7837 52.7592 28.8168C52.8651 29.2661 52.9279 29.8378 52.5424 29.9906C52.5388 29.9891 52.5352 29.9873 52.5316 29.9857C45.6635 26.659 35.9996 23.7233 34.4388 20.5082Z" fill="url(#paint1_linear_125576_56376)"/>
  <path d="M32.1833 37.0049C37.9426 37.005 40.4207 38.8759 42.3952 42.3906C43.8021 44.8951 43.4904 48.8565 42.0006 51.5322C43.3972 51.8795 44.625 52.2635 45.7126 52.6807C43.9486 54.3295 41.9291 56.0402 39.7819 57.6104C36.8581 56.8615 34.2008 56.1516 30.1715 55.1152C31.8937 53.2293 33.8629 50.7502 35.9635 47.4053L20.3893 47.292C20.3352 46.6599 20.3187 45.9726 20.3346 45.2227C20.4861 38.0759 29.0154 37.0049 32.1833 37.0049Z" fill="url(#paint2_linear_125576_56376)"/>
  <path d="M18.3462 46.558C18.9825 51.9872 22.0564 54.1149 28.3376 54.7445C34.6188 55.3742 38.2218 54.9518 43.0186 55.3899C47.0248 55.7557 50.6019 57.805 51.929 57.0968C53.1233 56.4595 52.4551 54.1569 50.857 52.6796C48.7855 50.7647 45.9186 49.4333 40.8739 48.9608C41.8793 46.1978 41.5976 42.3237 40.0362 40.216C37.7786 37.1684 33.6116 35.7906 28.3376 36.3926C22.8275 37.0215 17.5477 39.7445 18.3462 46.558Z" fill="url(#paint3_linear_125576_56376)"/>
  <defs>
    <linearGradient id="paint0_linear_125576_56376" x1="29.5258" y1="39.3392" x2="66.4275" y2="49.7644" gradientUnits="userSpaceOnUse">
      <stop stop-color="#8697FF"/>
      <stop offset="1" stop-color="#ABB7FF"/>
    </linearGradient>
    <linearGradient id="paint1_linear_125576_56376" x1="60.1955" y1="38.6346" x2="33.4843" y2="11.9601" gradientUnits="userSpaceOnUse">
      <stop stop-color="#8697FF"/>
      <stop offset="1" stop-color="#5156D8" stop-opacity="0"/>
    </linearGradient>
    <linearGradient id="paint2_linear_125576_56376" x1="46.4529" y1="53.6113" x2="20.8438" y2="38.9437" gradientUnits="userSpaceOnUse">
      <stop stop-color="#465EED"/>
      <stop offset="1" stop-color="#8697FF" stop-opacity="0"/>
    </linearGradient>
    <linearGradient id="paint3_linear_125576_56376" x1="31.7276" y1="39.0627" x2="49.0869" y2="61.0365" gradientUnits="userSpaceOnUse">
      <stop stop-color="#8898FF"/>
      <stop offset="0.983895" stop-color="#6277F1"/>
    </linearGradient>
  </defs>
</svg>