<svg width="28" height="28" viewBox="0 0 28 28" fill="none" xmlns="http://www.w3.org/2000/svg">
<g opacity="0.2">
<path d="M15.1419 13.9268H18.974C19.3021 13.9268 19.5672 14.1914 19.5672 14.5189C19.5672 14.8464 19.3021 15.111 18.974 15.111H15.1419V18.9467C15.1419 19.2742 14.8768 19.5388 14.5486 19.5388C14.2205 19.5388 13.9554 19.2742 13.9554 18.9467V15.111H10.0992C9.77107 15.111 9.50596 14.8464 9.50596 14.5189C9.50596 14.1914 9.77107 13.9268 10.0992 13.9268H13.9554V10.0893C13.9554 9.76177 14.2205 9.49717 14.5486 9.49717C14.8768 9.49717 15.1419 9.76177 15.1419 10.0893V13.9268Z" fill="url(#paint0_linear_12572_5326)"/>
<path fill-rule="evenodd" clip-rule="evenodd" d="M21.9291 5.05643C22.4575 5.05643 22.9618 5.22666 23.3455 5.53381C23.7627 5.86687 24.0018 6.34055 24.0018 6.83273V22.2236C24.0018 23.2024 23.2028 23.9999 22.2221 23.9999H7.12923C6.59901 23.9999 6.09474 23.8297 5.71098 23.5225C5.29384 23.1895 5.05469 22.7158 5.05469 22.2236V6.82903C5.05469 6.33685 5.29384 5.86317 5.71098 5.53011C6.0966 5.22296 6.60086 5.05273 7.13109 5.05273L21.9291 5.05643ZM22.2221 22.8157C22.5484 22.8157 22.8153 22.5492 22.8153 22.2236V6.83273C22.8153 6.51818 22.4 6.24063 21.9273 6.24063L7.12923 6.23693C6.87154 6.23693 6.62682 6.31649 6.45255 6.45342C6.37283 6.51633 6.2412 6.64955 6.2412 6.82903V22.2236C6.2412 22.5381 6.65648 22.8157 7.12923 22.8157H22.2221Z" fill="url(#paint1_linear_12572_5326)"/>
<path d="M15.1419 13.9268H18.974C19.3021 13.9268 19.5672 14.1914 19.5672 14.5189C19.5672 14.8464 19.3021 15.111 18.974 15.111H15.1419V18.9467C15.1419 19.2742 14.8768 19.5388 14.5486 19.5388C14.2205 19.5388 13.9554 19.2742 13.9554 18.9467V15.111H10.0992C9.77107 15.111 9.50596 14.8464 9.50596 14.5189C9.50596 14.1914 9.77107 13.9268 10.0992 13.9268H13.9554V10.0893C13.9554 9.76177 14.2205 9.49717 14.5486 9.49717C14.8768 9.49717 15.1419 9.76177 15.1419 10.0893V13.9268Z" stroke="url(#paint2_linear_12572_5326)" stroke-width="0.21057"/>
<path fill-rule="evenodd" clip-rule="evenodd" d="M21.9291 5.05643C22.4575 5.05643 22.9618 5.22666 23.3455 5.53381C23.7627 5.86687 24.0018 6.34055 24.0018 6.83273V22.2236C24.0018 23.2024 23.2028 23.9999 22.2221 23.9999H7.12923C6.59901 23.9999 6.09474 23.8297 5.71098 23.5225C5.29384 23.1895 5.05469 22.7158 5.05469 22.2236V6.82903C5.05469 6.33685 5.29384 5.86317 5.71098 5.53011C6.0966 5.22296 6.60086 5.05273 7.13109 5.05273L21.9291 5.05643ZM22.2221 22.8157C22.5484 22.8157 22.8153 22.5492 22.8153 22.2236V6.83273C22.8153 6.51818 22.4 6.24063 21.9273 6.24063L7.12923 6.23693C6.87154 6.23693 6.62682 6.31649 6.45255 6.45342C6.37283 6.51633 6.2412 6.64955 6.2412 6.82903V22.2236C6.2412 22.5381 6.65648 22.8157 7.12923 22.8157H22.2221Z" stroke="url(#paint3_linear_12572_5326)" stroke-width="0.21057"/>
</g>
<path d="M14.0892 12.8741H17.9212C18.2494 12.8741 18.5145 13.1387 18.5145 13.4662C18.5145 13.7937 18.2494 14.0583 17.9212 14.0583H14.0892V17.894C14.0892 18.2215 13.8241 18.4861 13.4959 18.4861C13.1678 18.4861 12.9027 18.2215 12.9027 17.894V14.0583H9.04649C8.71834 14.0583 8.45323 13.7937 8.45323 13.4662C8.45323 13.1387 8.71834 12.8741 9.04649 12.8741H12.9027V9.03654C12.9027 8.70903 13.1678 8.44444 13.4959 8.44444C13.8241 8.44444 14.0892 8.70903 14.0892 9.03654V12.8741Z" fill="url(#paint4_linear_12572_5326)"/>
<path fill-rule="evenodd" clip-rule="evenodd" d="M20.8764 4.0037C21.4048 4.0037 21.909 4.17393 22.2928 4.48108C22.7099 4.81414 22.9491 5.28781 22.9491 5.78V21.1709C22.9491 22.1497 22.1501 22.9472 21.1693 22.9472H6.0765C5.54628 22.9472 5.04201 22.7769 4.65824 22.4698C4.24111 22.1367 4.00195 21.663 4.00195 21.1709V5.7763C4.00195 5.28411 4.24111 4.81043 4.65824 4.47738C5.04386 4.17023 5.54813 4 6.07835 4L20.8764 4.0037ZM21.1693 21.763C21.4956 21.763 21.7626 21.4965 21.7626 21.1709V5.78C21.7626 5.46544 21.3473 5.1879 20.8746 5.1879L6.0765 5.1842C5.8188 5.1842 5.57408 5.26376 5.39982 5.40068C5.3201 5.46359 5.18847 5.59682 5.18847 5.7763V21.1709C5.18847 21.4854 5.60375 21.763 6.0765 21.763H21.1693Z" fill="url(#paint5_linear_12572_5326)"/>
<path d="M14.0892 12.8741H17.9212C18.2494 12.8741 18.5145 13.1387 18.5145 13.4662C18.5145 13.7937 18.2494 14.0583 17.9212 14.0583H14.0892V17.894C14.0892 18.2215 13.8241 18.4861 13.4959 18.4861C13.1678 18.4861 12.9027 18.2215 12.9027 17.894V14.0583H9.04649C8.71834 14.0583 8.45323 13.7937 8.45323 13.4662C8.45323 13.1387 8.71834 12.8741 9.04649 12.8741H12.9027V9.03654C12.9027 8.70903 13.1678 8.44444 13.4959 8.44444C13.8241 8.44444 14.0892 8.70903 14.0892 9.03654V12.8741Z" stroke="url(#paint6_linear_12572_5326)" stroke-width="0.21057"/>
<path fill-rule="evenodd" clip-rule="evenodd" d="M20.8764 4.0037C21.4048 4.0037 21.909 4.17393 22.2928 4.48108C22.7099 4.81414 22.9491 5.28781 22.9491 5.78V21.1709C22.9491 22.1497 22.1501 22.9472 21.1693 22.9472H6.0765C5.54628 22.9472 5.04201 22.7769 4.65824 22.4698C4.24111 22.1367 4.00195 21.663 4.00195 21.1709V5.7763C4.00195 5.28411 4.24111 4.81043 4.65824 4.47738C5.04386 4.17023 5.54813 4 6.07835 4L20.8764 4.0037ZM21.1693 21.763C21.4956 21.763 21.7626 21.4965 21.7626 21.1709V5.78C21.7626 5.46544 21.3473 5.1879 20.8746 5.1879L6.0765 5.1842C5.8188 5.1842 5.57408 5.26376 5.39982 5.40068C5.3201 5.46359 5.18847 5.59682 5.18847 5.7763V21.1709C5.18847 21.4854 5.60375 21.763 6.0765 21.763H21.1693Z" stroke="url(#paint7_linear_12572_5326)" stroke-width="0.21057"/>
<mask id="mask0_12572_5326" style="mask-type:alpha" maskUnits="userSpaceOnUse" x="3" y="3" width="21" height="21">
<path d="M14.0892 12.8741H17.9212C18.2494 12.8741 18.5145 13.1387 18.5145 13.4662C18.5145 13.7937 18.2494 14.0583 17.9212 14.0583H14.0892V17.894C14.0892 18.2215 13.8241 18.4861 13.4959 18.4861C13.1678 18.4861 12.9027 18.2215 12.9027 17.894V14.0583H9.04649C8.71834 14.0583 8.45323 13.7937 8.45323 13.4662C8.45323 13.1387 8.71834 12.8741 9.04649 12.8741H12.9027V9.03654C12.9027 8.70903 13.1678 8.44444 13.4959 8.44444C13.8241 8.44444 14.0892 8.70903 14.0892 9.03654V12.8741Z" fill="url(#paint8_linear_12572_5326)"/>
<path fill-rule="evenodd" clip-rule="evenodd" d="M20.8764 4.0037C21.4048 4.0037 21.909 4.17393 22.2928 4.48108C22.7099 4.81414 22.9491 5.28781 22.9491 5.78V21.1709C22.9491 22.1497 22.1501 22.9472 21.1693 22.9472H6.0765C5.54628 22.9472 5.04201 22.7769 4.65824 22.4698C4.24111 22.1367 4.00195 21.663 4.00195 21.1709V5.7763C4.00195 5.28411 4.24111 4.81043 4.65824 4.47738C5.04386 4.17023 5.54813 4 6.07835 4L20.8764 4.0037ZM21.1693 21.763C21.4956 21.763 21.7626 21.4965 21.7626 21.1709V5.78C21.7626 5.46544 21.3473 5.1879 20.8746 5.1879L6.0765 5.1842C5.8188 5.1842 5.57408 5.26376 5.39982 5.40068C5.3201 5.46359 5.18847 5.59682 5.18847 5.7763V21.1709C5.18847 21.4854 5.60375 21.763 6.0765 21.763H21.1693Z" fill="url(#paint9_linear_12572_5326)"/>
<path d="M14.0892 12.8741H17.9212C18.2494 12.8741 18.5145 13.1387 18.5145 13.4662C18.5145 13.7937 18.2494 14.0583 17.9212 14.0583H14.0892V17.894C14.0892 18.2215 13.8241 18.4861 13.4959 18.4861C13.1678 18.4861 12.9027 18.2215 12.9027 17.894V14.0583H9.04649C8.71834 14.0583 8.45323 13.7937 8.45323 13.4662C8.45323 13.1387 8.71834 12.8741 9.04649 12.8741H12.9027V9.03654C12.9027 8.70903 13.1678 8.44444 13.4959 8.44444C13.8241 8.44444 14.0892 8.70903 14.0892 9.03654V12.8741Z" stroke="url(#paint10_linear_12572_5326)" stroke-width="0.21057"/>
<path fill-rule="evenodd" clip-rule="evenodd" d="M20.8764 4.0037C21.4048 4.0037 21.909 4.17393 22.2928 4.48108C22.7099 4.81414 22.9491 5.28781 22.9491 5.78V21.1709C22.9491 22.1497 22.1501 22.9472 21.1693 22.9472H6.0765C5.54628 22.9472 5.04201 22.7769 4.65824 22.4698C4.24111 22.1367 4.00195 21.663 4.00195 21.1709V5.7763C4.00195 5.28411 4.24111 4.81043 4.65824 4.47738C5.04386 4.17023 5.54813 4 6.07835 4L20.8764 4.0037ZM21.1693 21.763C21.4956 21.763 21.7626 21.4965 21.7626 21.1709V5.78C21.7626 5.46544 21.3473 5.1879 20.8746 5.1879L6.0765 5.1842C5.8188 5.1842 5.57408 5.26376 5.39982 5.40068C5.3201 5.46359 5.18847 5.59682 5.18847 5.7763V21.1709C5.18847 21.4854 5.60375 21.763 6.0765 21.763H21.1693Z" stroke="url(#paint11_linear_12572_5326)" stroke-width="0.21057"/>
</mask>
<g mask="url(#mask0_12572_5326)">
<circle opacity="0.2" cx="10.8433" cy="9.79055" r="4.73782" fill="white"/>
<circle opacity="0.2" cx="20.8452" cy="21.8989" r="4.21139" fill="white"/>
</g>
<defs>
<linearGradient id="paint0_linear_12572_5326" x1="5.05469" y1="5.05273" x2="26.0444" y2="7.8512" gradientUnits="userSpaceOnUse">
<stop stop-color="#8BC0FF"/>
<stop offset="1" stop-color="#8F8CFF"/>
</linearGradient>
<linearGradient id="paint1_linear_12572_5326" x1="5.05469" y1="5.05273" x2="26.0444" y2="7.8512" gradientUnits="userSpaceOnUse">
<stop stop-color="#8BC0FF"/>
<stop offset="1" stop-color="#8F8CFF"/>
</linearGradient>
<linearGradient id="paint2_linear_12572_5326" x1="5.05469" y1="5.05273" x2="26.0444" y2="7.8512" gradientUnits="userSpaceOnUse">
<stop stop-color="#8BC0FF"/>
<stop offset="1" stop-color="#8F8CFF"/>
</linearGradient>
<linearGradient id="paint3_linear_12572_5326" x1="5.05469" y1="5.05273" x2="26.0444" y2="7.8512" gradientUnits="userSpaceOnUse">
<stop stop-color="#8BC0FF"/>
<stop offset="1" stop-color="#8F8CFF"/>
</linearGradient>
<linearGradient id="paint4_linear_12572_5326" x1="4.00195" y1="4" x2="24.9916" y2="6.79847" gradientUnits="userSpaceOnUse">
<stop stop-color="#8BC0FF"/>
<stop offset="1" stop-color="#8F8CFF"/>
</linearGradient>
<linearGradient id="paint5_linear_12572_5326" x1="4.00195" y1="4" x2="24.9916" y2="6.79847" gradientUnits="userSpaceOnUse">
<stop stop-color="#8BC0FF"/>
<stop offset="1" stop-color="#8F8CFF"/>
</linearGradient>
<linearGradient id="paint6_linear_12572_5326" x1="4.00195" y1="4" x2="24.9916" y2="6.79847" gradientUnits="userSpaceOnUse">
<stop stop-color="#8BC0FF"/>
<stop offset="1" stop-color="#8F8CFF"/>
</linearGradient>
<linearGradient id="paint7_linear_12572_5326" x1="4.00195" y1="4" x2="24.9916" y2="6.79847" gradientUnits="userSpaceOnUse">
<stop stop-color="#8BC0FF"/>
<stop offset="1" stop-color="#8F8CFF"/>
</linearGradient>
<linearGradient id="paint8_linear_12572_5326" x1="4.00195" y1="4" x2="24.9916" y2="6.79847" gradientUnits="userSpaceOnUse">
<stop stop-color="#8BC0FF"/>
<stop offset="1" stop-color="#8F8CFF"/>
</linearGradient>
<linearGradient id="paint9_linear_12572_5326" x1="4.00195" y1="4" x2="24.9916" y2="6.79847" gradientUnits="userSpaceOnUse">
<stop stop-color="#8BC0FF"/>
<stop offset="1" stop-color="#8F8CFF"/>
</linearGradient>
<linearGradient id="paint10_linear_12572_5326" x1="4.00195" y1="4" x2="24.9916" y2="6.79847" gradientUnits="userSpaceOnUse">
<stop stop-color="#8BC0FF"/>
<stop offset="1" stop-color="#8F8CFF"/>
</linearGradient>
<linearGradient id="paint11_linear_12572_5326" x1="4.00195" y1="4" x2="24.9916" y2="6.79847" gradientUnits="userSpaceOnUse">
<stop stop-color="#8BC0FF"/>
<stop offset="1" stop-color="#8F8CFF"/>
</linearGradient>
</defs>
</svg>
