<svg width="20" height="20" viewBox="0 0 20 20" fill="none" xmlns="http://www.w3.org/2000/svg">
<path d="M11.5975 9.65832H8.18126V10.9779H11.5975V9.65832Z" fill="#ffffff"/>
<path d="M16.2304 3.31959C16.3347 3.31959 16.4347 3.35931 16.5085 3.43002C16.5822 3.50072 16.6237 3.59662 16.6237 3.69661V16.3034C16.6237 16.4034 16.5822 16.4993 16.5085 16.57C16.4347 16.6407 16.3347 16.6804 16.2304 16.6804H3.76959C3.66529 16.6804 3.56527 16.6407 3.49152 16.57C3.41777 16.4993 3.37634 16.4034 3.37634 16.3034V3.69661C3.37634 3.59662 3.41777 3.50072 3.49152 3.43002C3.56527 3.35931 3.66529 3.31959 3.76959 3.31959H16.2304ZM16.2304 2H3.76959C3.30026 2 2.85016 2.17875 2.5183 2.49693C2.18644 2.8151 2 3.24664 2 3.69661V16.3034C2 16.7534 2.18644 17.1849 2.5183 17.5031C2.85016 17.8212 3.30026 18 3.76959 18H16.2304C16.6997 18 17.1498 17.8212 17.4817 17.5031C17.8136 17.1849 18 16.7534 18 16.3034V3.69661C18 3.24664 17.8136 2.8151 17.4817 2.49693C17.1498 2.17875 16.6997 2 16.2304 2Z" fill="#ffffff"/>
<path d="M9.97524 5.43446C9.83424 5.43442 9.69641 5.47448 9.57916 5.54956C9.46191 5.62464 9.37052 5.73137 9.31656 5.85626L6.41641 12.5605C6.34438 12.7278 6.34456 12.9157 6.41691 13.0829C6.48925 13.2502 6.62785 13.383 6.80227 13.4524C6.88874 13.4868 6.98142 13.5045 7.07503 13.5045C7.16864 13.5046 7.26134 13.4869 7.34784 13.4526C7.43434 13.4183 7.51294 13.368 7.57916 13.3046C7.64538 13.2411 7.69791 13.1658 7.73376 13.0829L10.6327 6.37962C10.7048 6.21242 10.7048 6.02463 10.6327 5.85743C10.5606 5.69024 10.4222 5.55728 10.248 5.48772C10.1616 5.45318 10.0689 5.43446 9.97524 5.43446Z" fill="#ffffff"/>
<path d="M10.0243 5.43446C9.93067 5.43446 9.83795 5.45224 9.75151 5.48677C9.57693 5.5562 9.43826 5.68926 9.36599 5.85669C9.29372 6.02412 9.29377 6.21222 9.36613 6.37962L12.2663 13.0838C12.3389 13.251 12.4777 13.3837 12.6523 13.4528C12.8268 13.5219 13.0228 13.5217 13.1973 13.4524C13.3715 13.3828 13.5098 13.2498 13.5819 13.0827C13.654 12.9155 13.654 12.7277 13.5819 12.5605L10.6818 5.85626C10.6278 5.73137 10.5364 5.62464 10.4192 5.54956C10.3019 5.47448 10.1641 5.43442 10.0231 5.43446H10.0243Z" fill="#ffffff"/>
</svg>
