<svg width="28" height="28" viewBox="0 0 28 28" fill="none" xmlns="http://www.w3.org/2000/svg">
<g id="Frame">
<g id="Union">
<mask id="path-1-inside-1_21953_4966" fill="white">
<path d="M2.66667 13.3333C2.29848 13.3333 2 13.6318 2 14C2 14.3682 2.29848 14.6667 2.66667 14.6667L14.5381 14.6667L11.0095 18.1953C10.7491 18.4556 10.7491 18.8777 11.0095 19.1381C11.2698 19.3984 11.692 19.3984 11.9523 19.1381L16.6027 14.4877C16.7332 14.366 16.8148 14.1925 16.8148 14C16.8148 13.8075 16.7332 13.634 16.6027 13.5123L11.9523 8.86193C11.692 8.60158 11.2698 8.60158 11.0095 8.86193C10.7491 9.12228 10.7491 9.54439 11.0095 9.80474L14.5381 13.3333L2.66667 13.3333Z"/>
<path d="M6.88889 4.66667C6.88889 4.29848 7.18736 4 7.55555 4L21.3333 4C21.7015 4 22 4.29848 22 4.66667V23.3333C22 23.5101 21.9298 23.6797 21.8047 23.8047C21.6797 23.9298 21.5101 24 21.3333 24H7.55986C7.19167 24 6.89319 23.7015 6.89319 23.3333C6.89319 22.9651 7.19167 22.6667 7.55986 22.6667H20.6667V5.33333L7.55555 5.33333C7.18736 5.33333 6.88889 5.03486 6.88889 4.66667Z"/>
</mask>
<path d="M2.66667 13.3333C2.29848 13.3333 2 13.6318 2 14C2 14.3682 2.29848 14.6667 2.66667 14.6667L14.5381 14.6667L11.0095 18.1953C10.7491 18.4556 10.7491 18.8777 11.0095 19.1381C11.2698 19.3984 11.692 19.3984 11.9523 19.1381L16.6027 14.4877C16.7332 14.366 16.8148 14.1925 16.8148 14C16.8148 13.8075 16.7332 13.634 16.6027 13.5123L11.9523 8.86193C11.692 8.60158 11.2698 8.60158 11.0095 8.86193C10.7491 9.12228 10.7491 9.54439 11.0095 9.80474L14.5381 13.3333L2.66667 13.3333Z" stroke="url(#paint0_linear_21953_4966)" stroke-width="3" stroke-linecap="round" stroke-linejoin="round" mask="url(#path-1-inside-1_21953_4966)"/>
<path d="M6.88889 4.66667C6.88889 4.29848 7.18736 4 7.55555 4L21.3333 4C21.7015 4 22 4.29848 22 4.66667V23.3333C22 23.5101 21.9298 23.6797 21.8047 23.8047C21.6797 23.9298 21.5101 24 21.3333 24H7.55986C7.19167 24 6.89319 23.7015 6.89319 23.3333C6.89319 22.9651 7.19167 22.6667 7.55986 22.6667H20.6667V5.33333L7.55555 5.33333C7.18736 5.33333 6.88889 5.03486 6.88889 4.66667Z" stroke="url(#paint1_linear_21953_4966)" stroke-width="3" stroke-linecap="round" stroke-linejoin="round" mask="url(#path-1-inside-1_21953_4966)"/>
</g>
<g id="Union_2" opacity="0.2">
<mask id="path-2-inside-2_21953_4966" fill="white">
<path d="M3.66667 14.3333C3.29848 14.3333 3 14.6318 3 15C3 15.3682 3.29848 15.6667 3.66667 15.6667L15.5381 15.6667L12.0095 19.1953C11.7491 19.4556 11.7491 19.8777 12.0095 20.1381C12.2698 20.3984 12.692 20.3984 12.9523 20.1381L17.6027 15.4877C17.7332 15.366 17.8148 15.1925 17.8148 15C17.8148 14.8075 17.7332 14.634 17.6027 14.5123L12.9523 9.86193C12.692 9.60158 12.2698 9.60158 12.0095 9.86193C11.7491 10.1223 11.7491 10.5444 12.0095 10.8047L15.5381 14.3333L3.66667 14.3333Z"/>
<path d="M7.88889 5.66667C7.88889 5.29848 8.18736 5 8.55555 5L22.3333 5C22.7015 5 23 5.29848 23 5.66667V24.3333C23 24.5101 22.9298 24.6797 22.8047 24.8047C22.6797 24.9298 22.5101 25 22.3333 25H8.55986C8.19167 25 7.89319 24.7015 7.89319 24.3333C7.89319 23.9651 8.19167 23.6667 8.55986 23.6667H21.6667V6.33333L8.55555 6.33333C8.18736 6.33333 7.88889 6.03486 7.88889 5.66667Z"/>
</mask>
<path d="M3.66667 14.3333C3.29848 14.3333 3 14.6318 3 15C3 15.3682 3.29848 15.6667 3.66667 15.6667L15.5381 15.6667L12.0095 19.1953C11.7491 19.4556 11.7491 19.8777 12.0095 20.1381C12.2698 20.3984 12.692 20.3984 12.9523 20.1381L17.6027 15.4877C17.7332 15.366 17.8148 15.1925 17.8148 15C17.8148 14.8075 17.7332 14.634 17.6027 14.5123L12.9523 9.86193C12.692 9.60158 12.2698 9.60158 12.0095 9.86193C11.7491 10.1223 11.7491 10.5444 12.0095 10.8047L15.5381 14.3333L3.66667 14.3333Z" stroke="url(#paint2_linear_21953_4966)" stroke-width="3" stroke-linecap="round" stroke-linejoin="round" mask="url(#path-2-inside-2_21953_4966)"/>
<path d="M7.88889 5.66667C7.88889 5.29848 8.18736 5 8.55555 5L22.3333 5C22.7015 5 23 5.29848 23 5.66667V24.3333C23 24.5101 22.9298 24.6797 22.8047 24.8047C22.6797 24.9298 22.5101 25 22.3333 25H8.55986C8.19167 25 7.89319 24.7015 7.89319 24.3333C7.89319 23.9651 8.19167 23.6667 8.55986 23.6667H21.6667V6.33333L8.55555 6.33333C8.18736 6.33333 7.88889 6.03486 7.88889 5.66667Z" stroke="url(#paint3_linear_21953_4966)" stroke-width="3" stroke-linecap="round" stroke-linejoin="round" mask="url(#path-2-inside-2_21953_4966)"/>
</g>
<g id="Mask group">
<mask id="mask0_21953_4966" style="mask-type:alpha" maskUnits="userSpaceOnUse" x="2" y="4" width="20" height="20">
<g id="Union_3">
<mask id="path-3-inside-3_21953_4966" fill="white">
<path d="M2.66667 13.3333C2.29848 13.3333 2 13.6318 2 14C2 14.3682 2.29848 14.6667 2.66667 14.6667L14.5381 14.6667L11.0095 18.1953C10.7491 18.4556 10.7491 18.8777 11.0095 19.1381C11.2698 19.3984 11.692 19.3984 11.9523 19.1381L16.6027 14.4877C16.7332 14.366 16.8148 14.1925 16.8148 14C16.8148 13.8075 16.7332 13.634 16.6027 13.5123L11.9523 8.86193C11.692 8.60158 11.2698 8.60158 11.0095 8.86193C10.7491 9.12228 10.7491 9.54439 11.0095 9.80474L14.5381 13.3333L2.66667 13.3333Z"/>
<path d="M6.88889 4.66667C6.88889 4.29848 7.18736 4 7.55555 4L21.3333 4C21.7015 4 22 4.29848 22 4.66667V23.3333C22 23.5101 21.9298 23.6797 21.8047 23.8047C21.6797 23.9298 21.5101 24 21.3333 24H7.55986C7.19167 24 6.89319 23.7015 6.89319 23.3333C6.89319 22.9651 7.19167 22.6667 7.55986 22.6667H20.6667V5.33333L7.55555 5.33333C7.18736 5.33333 6.88889 5.03486 6.88889 4.66667Z"/>
</mask>
<path d="M2.66667 13.3333C2.29848 13.3333 2 13.6318 2 14C2 14.3682 2.29848 14.6667 2.66667 14.6667L14.5381 14.6667L11.0095 18.1953C10.7491 18.4556 10.7491 18.8777 11.0095 19.1381C11.2698 19.3984 11.692 19.3984 11.9523 19.1381L16.6027 14.4877C16.7332 14.366 16.8148 14.1925 16.8148 14C16.8148 13.8075 16.7332 13.634 16.6027 13.5123L11.9523 8.86193C11.692 8.60158 11.2698 8.60158 11.0095 8.86193C10.7491 9.12228 10.7491 9.54439 11.0095 9.80474L14.5381 13.3333L2.66667 13.3333Z" stroke="url(#paint4_linear_21953_4966)" stroke-width="3" stroke-linecap="round" stroke-linejoin="round" mask="url(#path-3-inside-3_21953_4966)"/>
<path d="M6.88889 4.66667C6.88889 4.29848 7.18736 4 7.55555 4L21.3333 4C21.7015 4 22 4.29848 22 4.66667V23.3333C22 23.5101 21.9298 23.6797 21.8047 23.8047C21.6797 23.9298 21.5101 24 21.3333 24H7.55986C7.19167 24 6.89319 23.7015 6.89319 23.3333C6.89319 22.9651 7.19167 22.6667 7.55986 22.6667H20.6667V5.33333L7.55555 5.33333C7.18736 5.33333 6.88889 5.03486 6.88889 4.66667Z" stroke="url(#paint5_linear_21953_4966)" stroke-width="3" stroke-linecap="round" stroke-linejoin="round" mask="url(#path-3-inside-3_21953_4966)"/>
</g>
</mask>
<g mask="url(#mask0_21953_4966)">
<circle id="Ellipse 184" opacity="0.2" cx="11" cy="21" r="5" fill="white"/>
<circle id="Ellipse 185" opacity="0.2" cx="20" cy="6" r="4" fill="white"/>
</g>
</g>
</g>
<defs>
<linearGradient id="paint0_linear_21953_4966" x1="5.88171" y1="6.33603" x2="20.959" y2="11.3983" gradientUnits="userSpaceOnUse">
<stop stop-color="#8BC0FF"/>
<stop offset="1" stop-color="#8F8CFF"/>
</linearGradient>
<linearGradient id="paint1_linear_21953_4966" x1="5.88171" y1="6.33603" x2="20.959" y2="11.3983" gradientUnits="userSpaceOnUse">
<stop stop-color="#8BC0FF"/>
<stop offset="1" stop-color="#8F8CFF"/>
</linearGradient>
<linearGradient id="paint2_linear_21953_4966" x1="6.88171" y1="7.33603" x2="21.959" y2="12.3983" gradientUnits="userSpaceOnUse">
<stop stop-color="#8BC0FF"/>
<stop offset="1" stop-color="#8F8CFF"/>
</linearGradient>
<linearGradient id="paint3_linear_21953_4966" x1="6.88171" y1="7.33603" x2="21.959" y2="12.3983" gradientUnits="userSpaceOnUse">
<stop stop-color="#8BC0FF"/>
<stop offset="1" stop-color="#8F8CFF"/>
</linearGradient>
<linearGradient id="paint4_linear_21953_4966" x1="5.88171" y1="6.33603" x2="20.959" y2="11.3983" gradientUnits="userSpaceOnUse">
<stop stop-color="#8BC0FF"/>
<stop offset="1" stop-color="#8F8CFF"/>
</linearGradient>
<linearGradient id="paint5_linear_21953_4966" x1="5.88171" y1="6.33603" x2="20.959" y2="11.3983" gradientUnits="userSpaceOnUse">
<stop stop-color="#8BC0FF"/>
<stop offset="1" stop-color="#8F8CFF"/>
</linearGradient>
</defs>
</svg>
