<svg width="24" height="24" viewBox="0 0 24 24" fill="none" xmlns="http://www.w3.org/2000/svg">
<path d="M16.6816 6.77344C16.7811 6.77344 16.8765 6.81295 16.9468 6.88327C17.0171 6.9536 17.0566 7.04898 17.0566 7.14844V19.6875C17.0566 19.787 17.0171 19.8823 16.9468 19.9527C16.8765 20.023 16.7811 20.0625 16.6816 20.0625H4.79883C4.69937 20.0625 4.60399 20.023 4.53366 19.9527C4.46334 19.8823 4.42383 19.787 4.42383 19.6875V7.14844C4.42383 7.04898 4.46334 6.9536 4.53366 6.88327C4.60399 6.81295 4.69937 6.77344 4.79883 6.77344H16.6816ZM16.6816 5.46094H4.79883C4.35128 5.46094 3.92205 5.63873 3.60559 5.95519C3.28912 6.27166 3.11133 6.70088 3.11133 7.14844V19.6875C3.11133 20.1351 3.28912 20.5643 3.60559 20.8807C3.92205 21.1972 4.35128 21.375 4.79883 21.375H16.6816C17.1292 21.375 17.5584 21.1972 17.8749 20.8807C18.1914 20.5643 18.3691 20.1351 18.3691 19.6875V7.14844C18.3691 6.70088 18.1914 6.27166 17.8749 5.95519C17.5584 5.63873 17.1292 5.46094 16.6816 5.46094V5.46094Z" fill="white"/>
<path d="M19.6406 2.67188H7.75781C7.31026 2.67188 6.88104 2.84966 6.56457 3.16613C6.2481 3.4826 6.07031 3.91182 6.07031 4.35938V5.64844H7.38281V4.35938C7.38281 4.25992 7.42232 4.16454 7.49265 4.09421C7.56297 4.02388 7.65836 3.98438 7.75781 3.98438H19.6406C19.7401 3.98438 19.8355 4.02388 19.9058 4.09421C19.9761 4.16454 20.0156 4.25992 20.0156 4.35938V16.8984C20.0156 16.9979 19.9761 17.0933 19.9058 17.1636C19.8355 17.2339 19.7401 17.2734 19.6406 17.2734H17.9297V18.5859H19.6406C20.0882 18.5859 20.5174 18.4081 20.8339 18.0917C21.1503 17.7752 21.3281 17.346 21.3281 16.8984V4.35938C21.3281 3.91182 21.1503 3.4826 20.8339 3.16613C20.5174 2.84966 20.0882 2.67188 19.6406 2.67188V2.67188ZM12.2637 13.0781H9.00586V14.3906H12.2637V13.0781Z" fill="white"/>
<path d="M10.7166 8.87695C10.5822 8.87691 10.4507 8.91675 10.3389 8.99143C10.2271 9.06611 10.14 9.17227 10.0885 9.29649L7.32287 15.9647C7.25419 16.1311 7.25436 16.318 7.32335 16.4844C7.39234 16.6507 7.52451 16.7828 7.69084 16.8518C7.77329 16.886 7.86168 16.9036 7.95095 16.9037C8.04021 16.9037 8.12861 16.8862 8.2111 16.852C8.29359 16.8179 8.36854 16.7679 8.43169 16.7048C8.49483 16.6417 8.54493 16.5668 8.57912 16.4843L11.3436 9.81703C11.4123 9.65073 11.4123 9.46395 11.3436 9.29765C11.2748 9.13136 11.1429 8.99911 10.9768 8.92992C10.8943 8.89557 10.8059 8.87789 10.7166 8.87789V8.87695Z" fill="white"/>
<path d="M10.7637 8.87695C10.6744 8.87695 10.5859 8.89464 10.5035 8.92898C10.337 8.99803 10.2048 9.13038 10.1359 9.29691C10.067 9.46345 10.067 9.65053 10.136 9.81703L12.9016 16.4852C12.9709 16.6515 13.1032 16.7835 13.2697 16.8522C13.4362 16.9209 13.6231 16.9208 13.7895 16.8518C13.9556 16.7826 14.0875 16.6504 14.1562 16.4841C14.225 16.3178 14.225 16.131 14.1562 15.9647L11.3906 9.29648C11.3392 9.17227 11.252 9.06611 11.1402 8.99143C11.0284 8.91675 10.897 8.87691 10.7625 8.87695H10.7637Z" fill="white"/>
</svg>
