<svg width="28" height="28" viewBox="0 0 28 28" fill="none" xmlns="http://www.w3.org/2000/svg">
<path opacity="0.2" d="M14.4341 15.1494L14.9595 14.6141C14.6658 14.3259 14.1947 14.3281 13.9038 14.619L14.4341 15.1494ZM15.7485 19.9434L15.0239 19.7499L15.0239 19.7499L15.7485 19.9434ZM12.2162 23.4571L12.4078 24.1822L12.4078 24.1822L12.2162 23.4571ZM7.39687 22.1496L6.85875 22.672L6.8644 22.6777L7.39687 22.1496ZM7.45749 15.2106L6.92857 14.6788L6.92856 14.6788L7.45749 15.2106ZM14.4332 15.1503L13.9136 15.6911C14.2081 15.974 14.6748 15.9694 14.9635 15.6806L14.4332 15.1503ZM13.9697 14.4697C13.6768 14.7626 13.6768 15.2374 13.9697 15.5303C14.2626 15.8232 14.7374 15.8232 15.0303 15.5303L13.9697 14.4697ZM23.5303 7.03033C23.8232 6.73744 23.8232 6.26256 23.5303 5.96967C23.2374 5.67678 22.7626 5.67678 22.4697 5.96967L23.5303 7.03033ZM18.1523 11.4498L17.6234 10.9181C17.4819 11.0588 17.4023 11.2502 17.4023 11.4498C17.4023 11.6494 17.4819 11.8408 17.6234 11.9815L18.1523 11.4498ZM20.8666 14.1498L20.3377 14.6815C20.6302 14.9726 21.1029 14.9726 21.3955 14.6815L20.8666 14.1498ZM24.0333 10.9998L24.5622 11.5315C24.7037 11.3908 24.7833 11.1994 24.7833 10.9998C24.7833 10.8002 24.7037 10.6088 24.5622 10.4681L24.0333 10.9998ZM21.319 8.2998L21.8479 7.76808C21.5553 7.47705 21.0826 7.47705 20.7901 7.76808L21.319 8.2998ZM13.9087 15.6846C14.9876 16.7436 15.4124 18.2949 15.0239 19.7499L16.4732 20.1368C17.0014 18.1581 16.4229 16.0505 14.9595 14.6141L13.9087 15.6846ZM15.0239 19.7499C14.6354 21.2053 13.4919 22.3444 12.0247 22.732L12.4078 24.1822C14.3925 23.6579 15.9451 22.1152 16.4732 20.1368L15.0239 19.7499ZM12.0247 22.732C10.5572 23.1196 8.99424 22.695 7.92935 21.6214L6.8644 22.6777C8.30796 24.1331 10.4234 24.7064 12.4078 24.1822L12.0247 22.732ZM7.93497 21.6271C6.33525 19.9795 6.35805 17.3621 7.98643 15.7423L6.92856 14.6788C4.71797 16.8778 4.68683 20.435 6.85878 22.672L7.93497 21.6271ZM7.98642 15.7423C9.61691 14.1204 12.2549 14.0975 13.9136 15.6911L14.9528 14.6094C12.7064 12.4512 9.13709 12.4819 6.92857 14.6788L7.98642 15.7423ZM14.9635 15.6806L14.9644 15.6797L13.9038 14.619L13.9029 14.6199L14.9635 15.6806ZM15.0303 15.5303L23.5303 7.03033L22.4697 5.96967L13.9697 14.4697L15.0303 15.5303ZM17.6234 11.9815L20.3377 14.6815L21.3955 13.6181L18.6813 10.9181L17.6234 11.9815ZM21.3955 14.6815L24.5622 11.5315L23.5044 10.4681L20.3377 13.6181L21.3955 14.6815ZM24.5622 10.4681L21.8479 7.76808L20.7901 8.83153L23.5044 11.5315L24.5622 10.4681ZM20.7901 7.76808L17.6234 10.9181L18.6813 11.9815L21.8479 8.83153L20.7901 7.76808Z" fill="url(#paint0_linear_12572_5343)"/>
<path d="M13.4341 14.1494L13.9595 13.6141C13.6658 13.3259 13.1947 13.3281 12.9038 13.619L13.4341 14.1494ZM14.7485 18.9434L14.0239 18.7499L14.0239 18.7499L14.7485 18.9434ZM11.2162 22.4571L11.4078 23.1822L11.4078 23.1822L11.2162 22.4571ZM6.39687 21.1496L5.85875 21.672L5.8644 21.6777L6.39687 21.1496ZM6.45749 14.2106L5.92857 13.6788L5.92856 13.6788L6.45749 14.2106ZM13.4332 14.1503L12.9136 14.6911C13.2081 14.974 13.6748 14.9694 13.9635 14.6806L13.4332 14.1503ZM12.9697 13.4697C12.6768 13.7626 12.6768 14.2374 12.9697 14.5303C13.2626 14.8232 13.7374 14.8232 14.0303 14.5303L12.9697 13.4697ZM22.5303 6.03033C22.8232 5.73744 22.8232 5.26256 22.5303 4.96967C22.2374 4.67678 21.7626 4.67678 21.4697 4.96967L22.5303 6.03033ZM17.1523 10.4498L16.6234 9.91808C16.4819 10.0588 16.4023 10.2502 16.4023 10.4498C16.4023 10.6494 16.4819 10.8408 16.6234 10.9815L17.1523 10.4498ZM19.8666 13.1498L19.3377 13.6815C19.6302 13.9726 20.1029 13.9726 20.3955 13.6815L19.8666 13.1498ZM23.0333 9.9998L23.5622 10.5315C23.7037 10.3908 23.7833 10.1994 23.7833 9.99981C23.7833 9.80021 23.7037 9.60884 23.5622 9.46808L23.0333 9.9998ZM20.319 7.2998L20.8479 6.76808C20.5553 6.47705 20.0826 6.47705 19.7901 6.76808L20.319 7.2998ZM12.9087 14.6846C13.9876 15.7436 14.4124 17.2949 14.0239 18.7499L15.4732 19.1368C16.0014 17.1581 15.4229 15.0505 13.9595 13.6141L12.9087 14.6846ZM14.0239 18.7499C13.6354 20.2053 12.4919 21.3444 11.0247 21.732L11.4078 23.1822C13.3925 22.6579 14.9451 21.1152 15.4732 19.1368L14.0239 18.7499ZM11.0247 21.732C9.55721 22.1196 7.99424 21.695 6.92935 20.6214L5.8644 21.6777C7.30796 23.1331 9.42339 23.7064 11.4078 23.1822L11.0247 21.732ZM6.93497 20.6271C5.33525 18.9795 5.35805 16.3621 6.98643 14.7423L5.92856 13.6788C3.71797 15.8778 3.68683 19.435 5.85878 21.672L6.93497 20.6271ZM6.98642 14.7423C8.61691 13.1204 11.2549 13.0975 12.9136 14.6911L13.9528 13.6094C11.7064 11.4512 8.13709 11.4819 5.92857 13.6788L6.98642 14.7423ZM13.9635 14.6806L13.9644 14.6797L12.9038 13.619L12.9029 13.6199L13.9635 14.6806ZM14.0303 14.5303L22.5303 6.03033L21.4697 4.96967L12.9697 13.4697L14.0303 14.5303ZM16.6234 10.9815L19.3377 13.6815L20.3955 12.6181L17.6813 9.91808L16.6234 10.9815ZM20.3955 13.6815L23.5622 10.5315L22.5044 9.46807L19.3377 12.6181L20.3955 13.6815ZM23.5622 9.46808L20.8479 6.76808L19.7901 7.83153L22.5044 10.5315L23.5622 9.46808ZM19.7901 6.76808L16.6234 9.91808L17.6813 10.9815L20.8479 7.83153L19.7901 6.76808Z" fill="url(#paint1_linear_12572_5343)"/>
<mask id="mask0_12572_5343" style="mask-type:alpha" maskUnits="userSpaceOnUse" x="4" y="4" width="20" height="20">
<path d="M13.4341 14.1494L13.9595 13.6141C13.6658 13.3259 13.1947 13.3281 12.9038 13.619L13.4341 14.1494ZM14.7485 18.9434L14.0239 18.7499L14.0239 18.7499L14.7485 18.9434ZM11.2162 22.4571L11.4078 23.1822L11.4078 23.1822L11.2162 22.4571ZM6.39687 21.1496L5.85875 21.672L5.8644 21.6777L6.39687 21.1496ZM6.45749 14.2106L5.92857 13.6788L5.92856 13.6788L6.45749 14.2106ZM13.4332 14.1503L12.9136 14.6911C13.2081 14.974 13.6748 14.9694 13.9635 14.6806L13.4332 14.1503ZM12.9697 13.4697C12.6768 13.7626 12.6768 14.2374 12.9697 14.5303C13.2626 14.8232 13.7374 14.8232 14.0303 14.5303L12.9697 13.4697ZM22.5303 6.03033C22.8232 5.73744 22.8232 5.26256 22.5303 4.96967C22.2374 4.67678 21.7626 4.67678 21.4697 4.96967L22.5303 6.03033ZM17.1523 10.4498L16.6234 9.91808C16.4819 10.0588 16.4023 10.2502 16.4023 10.4498C16.4023 10.6494 16.4819 10.8408 16.6234 10.9815L17.1523 10.4498ZM19.8666 13.1498L19.3377 13.6815C19.6302 13.9726 20.1029 13.9726 20.3955 13.6815L19.8666 13.1498ZM23.0333 9.9998L23.5622 10.5315C23.7037 10.3908 23.7833 10.1994 23.7833 9.99981C23.7833 9.80021 23.7037 9.60884 23.5622 9.46808L23.0333 9.9998ZM20.319 7.2998L20.8479 6.76808C20.5553 6.47705 20.0826 6.47705 19.7901 6.76808L20.319 7.2998ZM12.9087 14.6846C13.9876 15.7436 14.4124 17.2949 14.0239 18.7499L15.4732 19.1368C16.0014 17.1581 15.4229 15.0505 13.9595 13.6141L12.9087 14.6846ZM14.0239 18.7499C13.6354 20.2053 12.4919 21.3444 11.0247 21.732L11.4078 23.1822C13.3925 22.6579 14.9451 21.1152 15.4732 19.1368L14.0239 18.7499ZM11.0247 21.732C9.55721 22.1196 7.99424 21.695 6.92935 20.6214L5.8644 21.6777C7.30796 23.1331 9.42339 23.7064 11.4078 23.1822L11.0247 21.732ZM6.93497 20.6271C5.33525 18.9795 5.35805 16.3621 6.98643 14.7423L5.92856 13.6788C3.71797 15.8778 3.68683 19.435 5.85878 21.672L6.93497 20.6271ZM6.98642 14.7423C8.61691 13.1204 11.2549 13.0975 12.9136 14.6911L13.9528 13.6094C11.7064 11.4512 8.13709 11.4819 5.92857 13.6788L6.98642 14.7423ZM13.9635 14.6806L13.9644 14.6797L12.9038 13.619L12.9029 13.6199L13.9635 14.6806ZM14.0303 14.5303L22.5303 6.03033L21.4697 4.96967L12.9697 13.4697L14.0303 14.5303ZM16.6234 10.9815L19.3377 13.6815L20.3955 12.6181L17.6813 9.91808L16.6234 10.9815ZM20.3955 13.6815L23.5622 10.5315L22.5044 9.46807L19.3377 12.6181L20.3955 13.6815ZM23.5622 9.46808L20.8479 6.76808L19.7901 7.83153L22.5044 10.5315L23.5622 9.46808ZM19.7901 6.76808L16.6234 9.91808L17.6813 10.9815L20.8479 7.83153L19.7901 6.76808Z" fill="url(#paint2_linear_12572_5343)"/>
</mask>
<g mask="url(#mask0_12572_5343)">
<circle opacity="0.2" cx="9" cy="22" r="4" fill="white"/>
<circle opacity="0.2" cx="19" cy="4" r="4" fill="white"/>
</g>
<defs>
<linearGradient id="paint0_linear_12572_5343" x1="9.5" y1="8.5" x2="22.946" y2="13.2546" gradientUnits="userSpaceOnUse">
<stop stop-color="#8BC0FF"/>
<stop offset="1" stop-color="#8F8CFF"/>
</linearGradient>
<linearGradient id="paint1_linear_12572_5343" x1="8.5" y1="7.5" x2="21.946" y2="12.2546" gradientUnits="userSpaceOnUse">
<stop stop-color="#8BC0FF"/>
<stop offset="1" stop-color="#8F8CFF"/>
</linearGradient>
<linearGradient id="paint2_linear_12572_5343" x1="8.5" y1="7.5" x2="21.946" y2="12.2546" gradientUnits="userSpaceOnUse">
<stop stop-color="#8BC0FF"/>
<stop offset="1" stop-color="#8F8CFF"/>
</linearGradient>
</defs>
</svg>
