<svg width="20" height="20" viewBox="0 0 20 20" fill="none" xmlns="http://www.w3.org/2000/svg">
<g clip-path="url(#clip0_14008_10221)">
<path opacity="0.2" d="M15.7195 9.80101V12.9867C15.7195 12.9867 15.7195 13.6304 15.5442 14.4481C15.3689 15.2079 14.9889 16.2602 14.1413 17.1369C13.0899 18.2183 11.5401 18.7736 9.55255 18.7736C7.5944 18.7736 6.07462 18.2183 4.99319 17.1369C4.11647 16.2602 3.73647 15.1495 3.56117 14.3904C3.35647 13.5429 3.38586 12.8998 3.38586 12.8706V9.77183C5.98686 9.80101 15.7195 9.80101 15.7195 9.80101ZM15.7195 8.60264H3.38586C2.71362 8.60264 2.1875 9.12877 2.1875 9.80101V12.8693C2.1875 12.9571 2.1875 13.7169 2.39198 14.6814C2.59668 15.5875 3.09341 16.932 4.14565 18.0134C5.43156 19.3285 7.2438 20.0007 9.55277 20.0007C11.8617 20.0007 13.7027 19.3289 14.988 18.0138C16.0394 16.9324 16.5078 15.6463 16.7123 14.7696C16.9461 13.8342 16.917 13.1328 16.917 13.0159V9.83062C16.917 9.15838 16.3908 8.60307 15.7186 8.60307L15.7195 8.60264ZM16.7717 10.6486H16.0995V11.8476H16.7717C17.6776 11.8476 18.4376 11.7598 18.4376 12.6659V14.2722C18.4376 15.1783 17.6776 15.9381 16.7717 15.9381H15.7778C15.6611 16.3181 15.515 16.7273 15.3103 17.1365H16.7717C18.3499 17.1365 19.6358 15.8505 19.6358 14.2722V12.6653C19.6358 11.0869 19.139 10.6486 16.7717 10.6486ZM6.27932 7.90122C6.04544 7.90122 5.84074 7.78428 5.75319 7.57937C5.71832 7.51034 5.69746 7.43509 5.69181 7.35796C5.68617 7.28083 5.69585 7.20334 5.72031 7.12997C5.74477 7.0566 5.78351 6.9888 5.8343 6.93049C5.8851 6.87217 5.94694 6.82448 6.01626 6.79019C6.1038 6.73182 6.42544 6.52713 6.45462 6.29346C6.4838 6.0598 6.27932 5.73794 5.89932 5.41652C5.19839 4.80286 4.8769 4.15987 4.93483 3.48755C5.02238 2.522 5.89932 1.96777 5.98622 1.9094C6.27867 1.73389 6.62992 1.82164 6.80458 2.11389C6.97924 2.40613 6.89234 2.75759 6.6001 2.93225C6.6001 2.93225 6.13234 3.22449 6.10316 3.60449C6.07397 3.95531 6.3954 4.30592 6.65846 4.5398C7.38928 5.18264 7.71077 5.82563 7.62294 6.46876C7.506 7.37467 6.62928 7.842 6.54152 7.87161C6.45462 7.87204 6.36686 7.90122 6.27932 7.90122ZM9.90273 8.07652C9.66885 8.07652 9.46437 7.9598 9.37661 7.75467C9.34176 7.68564 9.32092 7.61039 9.31529 7.53327C9.30966 7.45614 9.31936 7.37866 9.34381 7.3053C9.36826 7.23194 9.407 7.16415 9.45777 7.10582C9.50855 7.0475 9.57037 6.99981 9.63967 6.96549C9.72743 6.90713 10.0489 6.70264 10.078 6.46876C10.1072 6.23488 9.90273 5.91346 9.52273 5.59182C8.82181 4.97816 8.50031 4.33524 8.55825 3.66307C8.646 2.69751 9.52273 2.14307 9.60963 2.08471C9.90187 1.9094 10.2533 1.99695 10.428 2.2894C10.6027 2.58186 10.5155 2.93311 10.2233 3.10755C10.2233 3.10755 9.75575 3.40001 9.72657 3.77979C9.69717 4.13061 10.0188 4.48122 10.2819 4.7151C11.0124 5.3588 11.3343 6.00179 11.2474 6.64407C11.1305 7.55019 10.2535 8.0173 10.166 8.04691C10.0787 8.04734 9.99092 8.07652 9.90273 8.07652ZM13.0599 8.07652C12.826 8.07652 12.6215 7.9598 12.5338 7.75467C12.4989 7.68564 12.4781 7.61039 12.4724 7.53327C12.4668 7.45614 12.4765 7.37866 12.501 7.3053C12.5254 7.23194 12.5642 7.16415 12.6149 7.10582C12.6657 7.0475 12.7275 6.99981 12.7968 6.96549C12.8846 6.90713 13.206 6.70264 13.2352 6.46876C13.2644 6.23488 13.0599 5.91346 12.6799 5.59182C11.979 4.97816 11.6575 4.33524 11.7154 3.66307C11.8032 2.69751 12.6799 2.14307 12.7668 2.08471C13.059 1.9094 13.4105 1.99695 13.5851 2.2894C13.7598 2.58186 13.6727 2.93311 13.3805 3.10755C13.3805 3.10755 12.9129 3.40001 12.8835 3.77979C12.8543 4.13061 13.176 4.48122 13.4388 4.7151C14.1696 5.3588 14.4911 6.00179 14.4033 6.64407C14.2866 7.55019 13.4096 8.0173 13.3221 8.04691C13.2352 8.04734 13.1474 8.07652 13.0599 8.07652Z" fill="url(#paint0_linear_14008_10221)"/>
<path d="M14.8043 8.89134V12.077C14.8043 12.077 14.8043 12.7207 14.629 13.5385C14.4537 14.2982 14.0737 15.3505 13.2261 16.2272C12.1747 17.3086 10.6249 17.8639 8.63738 17.8639C6.67923 17.8639 5.15944 17.3086 4.07802 16.2272C3.20129 15.3505 2.82129 14.2399 2.64599 13.4807C2.44129 12.6332 2.47069 11.9901 2.47069 11.961V8.86216C5.07168 8.89134 14.8043 8.89134 14.8043 8.89134ZM14.8043 7.69298H2.47069C1.79844 7.69298 1.27232 8.2191 1.27232 8.89134V11.9597C1.27232 12.0474 1.27232 12.8072 1.47681 13.7717C1.68151 14.6778 2.17823 16.0223 3.23047 17.1037C4.51638 18.4188 6.32862 19.0911 8.63759 19.0911C10.9466 19.0911 12.7876 18.4192 14.0728 17.1042C15.1242 16.0227 15.5926 14.7366 15.7971 13.8599C16.031 12.9246 16.0018 12.2232 16.0018 12.1062V8.92095C16.0018 8.24871 15.4757 7.69341 14.8034 7.69341L14.8043 7.69298ZM15.8565 9.73889H15.1843V10.9379H15.8565C16.7624 10.9379 17.5224 10.8501 17.5224 11.7563V13.3625C17.5224 14.2686 16.7624 15.0284 15.8565 15.0284H14.8626C14.7459 15.4084 14.5998 15.8176 14.3951 16.2268H15.8565C17.4347 16.2268 18.7206 14.9409 18.7206 13.3625V11.7556C18.7206 10.1772 18.2239 9.73889 15.8565 9.73889ZM5.36414 6.99155C5.13026 6.99155 4.92556 6.87461 4.83802 6.6697C4.80314 6.60067 4.78228 6.52542 4.77664 6.44829C4.77099 6.37116 4.78068 6.29368 4.80513 6.22031C4.82959 6.14694 4.86833 6.07914 4.91913 6.02082C4.96992 5.9625 5.03176 5.91482 5.10108 5.88052C5.18862 5.82216 5.51026 5.61746 5.53944 5.38379C5.56862 5.15013 5.36414 4.82828 4.98414 4.50685C4.28322 3.89319 3.96172 3.2502 4.01965 2.57789C4.1072 1.61233 4.98414 1.0581 5.07104 0.999735C5.3635 0.824218 5.71474 0.911977 5.8894 1.20422C6.06406 1.49646 5.97716 1.84792 5.68492 2.02258C5.68492 2.02258 5.21716 2.31482 5.18798 2.69482C5.1588 3.04564 5.48022 3.39625 5.74328 3.63013C6.4741 4.27297 6.7956 4.91596 6.70777 5.5591C6.59083 6.465 5.7141 6.93233 5.62634 6.96194C5.53944 6.96237 5.45168 6.99155 5.36414 6.99155ZM8.98755 7.16686C8.75367 7.16686 8.54919 7.05013 8.46143 6.84501C8.42658 6.77597 8.40575 6.70072 8.40012 6.6236C8.39449 6.54647 8.40418 6.469 8.42863 6.39564C8.45309 6.32228 8.49182 6.25448 8.5426 6.19616C8.59338 6.13784 8.6552 6.09014 8.72449 6.05582C8.81225 5.99746 9.13367 5.79298 9.16286 5.5591C9.19204 5.32522 8.98755 5.00379 8.60755 4.68216C7.90663 4.06849 7.58514 3.42557 7.64307 2.7534C7.73083 1.78784 8.60755 1.2334 8.69445 1.17504C8.98669 0.999735 9.33816 1.08728 9.51282 1.37974C9.68748 1.67219 9.60036 2.02344 9.30812 2.19788C9.30812 2.19788 8.84057 2.49034 8.81139 2.87013C8.782 3.22095 9.10363 3.57155 9.3667 3.80543C10.0972 4.44914 10.4191 5.09212 10.3323 5.7344C10.2153 6.64052 9.33837 7.10764 9.25083 7.13725C9.1635 7.13768 9.07574 7.16686 8.98755 7.16686ZM12.1447 7.16686C11.9108 7.16686 11.7063 7.05013 11.6186 6.84501C11.5837 6.77597 11.5629 6.70072 11.5573 6.6236C11.5516 6.54647 11.5613 6.469 11.5858 6.39564C11.6102 6.32228 11.649 6.25448 11.6998 6.19616C11.7505 6.13784 11.8124 6.09014 11.8816 6.05582C11.9694 5.99746 12.2908 5.79298 12.32 5.5591C12.3492 5.32522 12.1447 5.00379 11.7647 4.68216C11.0638 4.06849 10.7423 3.42557 10.8002 2.7534C10.888 1.78784 11.7647 1.2334 11.8516 1.17504C12.1439 0.999735 12.4953 1.08728 12.67 1.37974C12.8446 1.67219 12.7575 2.02344 12.4653 2.19788C12.4653 2.19788 11.9977 2.49034 11.9683 2.87013C11.9392 3.22095 12.2608 3.57155 12.5236 3.80543C13.2545 4.44914 13.576 5.09212 13.4881 5.7344C13.3714 6.64052 12.4945 7.10764 12.4069 7.13725C12.32 7.13768 12.2323 7.16686 12.1447 7.16686Z" fill="url(#paint1_linear_14008_10221)"/>
<mask id="mask0_14008_10221" style="mask-type:alpha" maskUnits="userSpaceOnUse" x="1" y="0" width="18" height="20">
<path d="M14.8138 8.88744V12.0731C14.8138 12.0731 14.8138 12.7168 14.6385 13.5346C14.4632 14.2943 14.0832 15.3466 13.2356 16.2233C12.1842 17.3047 10.6344 17.86 8.64686 17.86C6.68871 17.86 5.16893 17.3047 4.0875 16.2233C3.21078 15.3466 2.83078 14.236 2.65547 13.4768C2.45077 12.6293 2.48017 11.9862 2.48017 11.9571V8.85825C5.08117 8.88744 14.8138 8.88744 14.8138 8.88744ZM14.8138 7.68907H2.48017C1.80793 7.68907 1.28181 8.21519 1.28181 8.88744V11.9558C1.28181 12.0435 1.28181 12.8033 1.48629 13.7678C1.69099 14.6739 2.18771 16.0184 3.23996 17.0998C4.52586 18.4149 6.33811 19.0872 8.64708 19.0872C10.956 19.0872 12.797 18.4153 14.0823 17.1003C15.1337 16.0188 15.6021 14.7327 15.8066 13.856C16.0405 12.9207 16.0113 12.2193 16.0113 12.1023V8.91705C16.0113 8.2448 15.4852 7.6895 14.8129 7.6895L14.8138 7.68907ZM15.866 9.73498H15.1938V10.934H15.866C16.7719 10.934 17.5319 10.8462 17.5319 11.7524V13.3586C17.5319 14.2647 16.7719 15.0245 15.866 15.0245H14.8721C14.7554 15.4045 14.6093 15.8137 14.4046 16.2229H15.866C17.4442 16.2229 18.7301 14.937 18.7301 13.3586V11.7517C18.7301 10.1733 18.2333 9.73498 15.866 9.73498ZM5.37362 6.98765C5.13974 6.98765 4.93505 6.87071 4.8475 6.6658C4.81263 6.59677 4.79176 6.52152 4.78612 6.44439C4.78048 6.36726 4.79016 6.28977 4.81462 6.2164C4.83907 6.14303 4.87782 6.07523 4.92861 6.01691C4.97941 5.95859 5.04124 5.91091 5.11056 5.87661C5.19811 5.81825 5.51974 5.61355 5.54893 5.37989C5.57811 5.14622 5.37362 4.82437 4.99362 4.50295C4.2927 3.88928 3.97121 3.24629 4.02914 2.57398C4.11668 1.60842 4.99362 1.05419 5.08052 0.995829C5.37298 0.820312 5.72423 0.908071 5.89889 1.20031C6.07355 1.49255 5.98664 1.84402 5.6944 2.01868C5.6944 2.01868 5.22664 2.31092 5.19746 2.69092C5.16828 3.04174 5.4897 3.39234 5.75277 3.62622C6.48358 4.26907 6.80508 4.91206 6.71725 5.55519C6.60031 6.4611 5.72358 6.92843 5.63583 6.95804C5.54893 6.95847 5.46117 6.98765 5.37362 6.98765ZM8.99704 7.16295C8.76316 7.16295 8.55867 7.04623 8.47092 6.8411C8.43607 6.77207 8.41523 6.69682 8.4096 6.61969C8.40397 6.54257 8.41366 6.46509 8.43812 6.39173C8.46257 6.31837 8.5013 6.25057 8.55208 6.19225C8.60286 6.13393 8.66468 6.08623 8.73398 6.05192C8.82174 5.99355 9.14316 5.78907 9.17234 5.55519C9.20152 5.32131 8.99704 4.99989 8.61704 4.67825C7.91611 4.06458 7.59462 3.42167 7.65255 2.7495C7.74031 1.78394 8.61704 1.22949 8.70394 1.17113C8.99618 0.995829 9.34764 1.08337 9.5223 1.37583C9.69696 1.66829 9.60984 2.01953 9.3176 2.19398C9.3176 2.19398 8.85006 2.48644 8.82088 2.86622C8.79148 3.21704 9.11312 3.56764 9.37618 3.80152C10.1067 4.44523 10.4286 5.08822 10.3417 5.73049C10.2248 6.63662 9.34786 7.10373 9.26031 7.13334C9.17298 7.13377 9.08523 7.16295 8.99704 7.16295ZM12.1542 7.16295C11.9203 7.16295 11.7158 7.04623 11.6281 6.8411C11.5932 6.77207 11.5724 6.69682 11.5668 6.61969C11.5611 6.54257 11.5708 6.46509 11.5953 6.39173C11.6197 6.31837 11.6585 6.25057 11.7092 6.19225C11.76 6.13393 11.8218 6.08623 11.8911 6.05192C11.9789 5.99355 12.3003 5.78907 12.3295 5.55519C12.3587 5.32131 12.1542 4.99989 11.7742 4.67825C11.0733 4.06458 10.7518 3.42167 10.8097 2.7495C10.8975 1.78394 11.7742 1.22949 11.8611 1.17113C12.1533 0.995829 12.5048 1.08337 12.6795 1.37583C12.8541 1.66829 12.767 2.01953 12.4748 2.19398C12.4748 2.19398 12.0072 2.48644 11.9778 2.86622C11.9486 3.21704 12.2703 3.56764 12.5331 3.80152C13.2639 4.44523 13.5854 5.08822 13.4976 5.73049C13.3809 6.63662 12.5039 7.10373 12.4164 7.13334C12.3295 7.13377 12.2417 7.16295 12.1542 7.16295Z" fill="url(#paint2_linear_14008_10221)"/>
</mask>
<g mask="url(#mask0_14008_10221)">
<ellipse opacity="0.2" cx="4.10039" cy="6.81601" rx="4.09091" ry="4.09091" fill="white"/>
<ellipse opacity="0.2" cx="13.6458" cy="16.3615" rx="3.63636" ry="3.63636" fill="white"/>
</g>
</g>
<defs>
<linearGradient id="paint0_linear_14008_10221" x1="2.1875" y1="1.81934" x2="21.5434" y2="4.29592" gradientUnits="userSpaceOnUse">
<stop stop-color="#FF8B8B"/>
<stop offset="1" stop-color="#FFDF8C"/>
</linearGradient>
<linearGradient id="paint1_linear_14008_10221" x1="1.27232" y1="0.909668" x2="20.6282" y2="3.38625" gradientUnits="userSpaceOnUse">
<stop stop-color="#FF8B8B"/>
<stop offset="1" stop-color="#FFDF8C"/>
</linearGradient>
<linearGradient id="paint2_linear_14008_10221" x1="1.28181" y1="0.905762" x2="20.6377" y2="3.38235" gradientUnits="userSpaceOnUse">
<stop stop-color="#FF8B8B"/>
<stop offset="1" stop-color="#FFDF8C"/>
</linearGradient>
<clipPath id="clip0_14008_10221">
<rect width="20" height="20" fill="white"/>
</clipPath>
</defs>
</svg>
