<svg xmlns="http://www.w3.org/2000/svg" width="79" height="64" viewBox="0 0 79 64" fill="none">
  <path fill-rule="evenodd" clip-rule="evenodd" d="M67.5927 0C69.5679 0 71.3782 1.11403 72.285 2.8877L76.5985 11.3262C78.0317 14.1297 78.6138 17.2989 78.2714 20.4355L74.2938 56.8701C73.8508 60.9282 70.458 63.9999 66.4188 64H11.9481C7.90908 63.9998 4.51719 60.9282 4.07411 56.8701L0.0955993 20.4355C-0.246846 17.2989 0.335277 14.1297 1.76845 11.3262L6.08193 2.8877C6.98876 1.114 8.79907 0 10.7743 0H67.5927ZM44.622 22.6279H44.619C41.7264 22.6287 39.051 23.1425 37.0517 24.0186C36.0533 24.456 35.1674 25.0081 34.5136 25.6826C33.8548 26.3623 33.3759 27.2304 33.3759 28.2451V29.0283C30.6309 29.0691 28.0968 29.5767 26.1815 30.4209C25.1841 30.8606 24.2987 31.4164 23.6454 32.0957C22.9876 32.7799 22.513 33.6499 22.5116 34.665V48.3271C22.5117 48.7672 22.7392 49.1533 23.0829 49.376C23.2459 49.6295 23.4378 49.8651 23.6474 50.082C24.3015 50.759 25.1884 51.3102 26.1854 51.7461C28.1834 52.6194 30.8545 53.1269 33.7343 53.127C36.6267 53.1269 39.3051 52.6204 41.3065 51.7471C42.3053 51.3112 43.1928 50.7591 43.8476 50.082C44.0551 49.8674 44.2431 49.6333 44.4052 49.3828C44.7558 49.1614 44.9901 48.7725 44.9901 48.3271V47.5381C44.9901 47.5009 44.9874 47.4641 44.9843 47.4277V46.7168C47.7305 46.6775 50.2675 46.1779 52.1845 45.3398C53.1815 44.9039 54.0675 44.3518 54.7216 43.6748C54.9363 43.4526 55.1302 43.2097 55.2958 42.9492C55.6322 42.7253 55.8542 42.3435 55.8544 41.9092V41.1973C55.8553 41.166 55.8573 41.1341 55.8573 41.1025C55.8573 41.0842 55.8552 41.066 55.8544 41.0479V34.6523C55.8553 34.6212 55.8573 34.59 55.8573 34.5586C55.8573 34.5399 55.8552 34.5214 55.8544 34.5029V28.252C55.8544 28.1975 55.8504 28.1435 55.8436 28.0908C55.7984 27.1396 55.3394 26.321 54.7138 25.6709C54.0602 24.9919 53.1745 24.4371 52.1767 23.999C50.1784 23.1218 47.5067 22.6148 44.6249 22.6279V22.627L44.622 22.6279ZM25.0116 44.5898C25.0986 44.6423 25.1873 44.693 25.2772 44.7432C25.2868 44.7485 25.296 44.7545 25.3056 44.7598C25.3909 44.807 25.4775 44.8533 25.5653 44.8984C25.5879 44.9101 25.6109 44.9211 25.6337 44.9326C25.7086 44.9704 25.7837 45.0086 25.8602 45.0449C25.9672 45.096 26.0756 45.1463 26.1854 45.1943C26.3101 45.2488 26.4375 45.3019 26.5673 45.3535C28.2576 46.0256 30.3731 46.4505 32.6649 46.5518C32.841 46.5595 33.0181 46.5654 33.1962 46.5693L33.7343 46.5752C33.9833 46.5752 34.2308 46.5711 34.4765 46.5635C36.1973 46.5101 37.8263 46.2733 39.2362 45.9023H39.2372L39.6894 45.7764C39.7077 45.771 39.7257 45.7643 39.744 45.7588C39.8073 45.7399 39.8699 45.7197 39.9325 45.7002C40.0527 45.6627 40.1715 45.6238 40.289 45.584C40.3294 45.5702 40.3699 45.557 40.4101 45.543C41.1715 45.277 41.8726 44.9618 42.4843 44.5947V47.5088C42.4843 47.7011 42.4 47.9814 42.0497 48.3438C41.6931 48.7125 41.1165 49.1016 40.3065 49.4551C38.6899 50.1605 36.3674 50.6269 33.7343 50.627C31.1152 50.6269 28.7998 50.1613 27.1864 49.4561C26.378 49.1026 25.8017 48.7136 25.4452 48.3447C25.0949 47.9821 25.0116 47.7013 25.0116 47.5088V44.5898ZM53.3544 41.1602C53.3386 41.3493 53.2406 41.6095 52.9237 41.9375C52.5673 42.3064 51.991 42.6954 51.1825 43.0488C49.6412 43.7226 47.4596 44.1773 44.9843 44.2168V40.1729C47.7327 40.133 50.2701 39.6264 52.1864 38.7852C52.5981 38.6044 52.9894 38.4021 53.3544 38.1816V41.1602ZM42.4843 40.957C42.4843 41.199 42.3367 41.6167 41.6542 42.1367C41.0808 42.5735 40.2376 42.9885 39.161 43.3223C38.9806 43.378 38.794 43.4333 38.6005 43.4844L38.0663 43.6152C36.7898 43.9031 35.3051 44.0752 33.7343 44.0752L33.246 44.0693C31.4725 44.0298 29.8546 43.7768 28.5214 43.3838C28.279 43.3123 28.0459 43.2365 27.8231 43.1562C27.7118 43.1161 27.6032 43.0744 27.497 43.0322C27.3908 42.9901 27.2872 42.9474 27.1864 42.9033C27.0853 42.8591 26.9873 42.8147 26.8935 42.7695C26.3306 42.4985 25.8974 42.2114 25.5888 41.9316C25.5373 41.885 25.4898 41.8381 25.4452 41.792C25.4016 41.7468 25.3618 41.7028 25.3261 41.6602C25.1111 41.4036 25.0333 41.194 25.0155 41.0332L25.0116 40.957V38.291C25.3776 38.5121 25.7706 38.7153 26.1835 38.8965C28.1807 39.7731 30.8522 40.2881 33.7343 40.2881C34.0067 40.2881 34.3726 40.2884 34.7226 40.2578C36.5754 40.1974 38.2961 39.893 39.7792 39.4453L39.7811 39.4443C39.8492 39.4237 39.916 39.4003 39.9833 39.3789C40.0517 39.3571 40.1198 39.3351 40.1874 39.3125C40.2721 39.2842 40.356 39.2551 40.4394 39.2256C40.497 39.2051 40.5543 39.1842 40.6112 39.1631C41.2935 38.9111 41.9249 38.6157 42.4843 38.2783V40.957ZM33.7343 31.5254C33.9414 31.5254 34.1279 31.5282 34.2968 31.5352C34.4017 31.5638 34.5118 31.5811 34.6259 31.5811C34.7129 31.5811 34.7978 31.5716 34.8798 31.5547C35.1133 31.5607 35.3389 31.5758 35.5624 31.5986C35.6391 31.6213 35.7174 31.6399 35.7977 31.6475C38.4691 31.8995 40.5649 32.6477 41.6669 33.5166C41.7094 33.5501 41.7545 33.5799 41.8007 33.6074C42.3641 34.0984 42.4837 34.4465 42.4843 34.668L42.4774 34.7568C42.4453 34.9801 42.2848 35.3205 41.7645 35.7432C41.178 36.2195 40.2632 36.6842 39.0575 37.0498L38.5624 37.1904C38.5093 37.2046 38.455 37.2168 38.4013 37.2305C37.2612 37.5213 35.9717 37.7195 34.5917 37.7607L34.5165 37.7646C34.2938 37.7849 34.0354 37.7861 33.7343 37.7861C31.1175 37.7861 28.8026 37.314 27.1884 36.6055C26.3794 36.2504 25.8016 35.8602 25.4442 35.4912C25.1361 35.173 25.0358 34.9214 25.0155 34.7412L25.0116 34.668C25.0121 34.4748 25.0965 34.1928 25.4472 33.8281C25.8045 33.4566 26.3819 33.0653 27.1903 32.709C28.8034 31.998 31.1173 31.5254 33.7343 31.5254ZM53.3544 34.6133C53.339 34.7946 53.2435 35.0526 52.9247 35.3818C52.5673 35.7508 51.9903 36.141 51.1815 36.4961C49.6395 37.173 47.4576 37.6319 44.9843 37.6719V34.668C44.9843 34.6663 44.9833 34.6647 44.9833 34.6631C44.9828 34.3912 44.9474 34.1325 44.8856 33.8857C47.6681 33.8557 50.2406 33.3484 52.1786 32.4941C52.5931 32.3114 52.9871 32.1062 53.3544 31.8828V34.6133ZM44.6308 25.127C47.2463 25.1144 49.5598 25.5805 51.1718 26.2881C51.9794 26.6427 52.5561 27.0334 52.913 27.4043C53.264 27.7691 53.3485 28.0519 53.3485 28.2451C53.3484 28.4383 53.2635 28.7214 52.912 29.0869C52.5547 29.4584 51.978 29.8508 51.1698 30.207C49.5566 30.9181 47.242 31.3896 44.6249 31.3896C44.046 31.3896 43.482 31.3697 42.9413 31.3242L42.9003 31.2939C41.3268 30.1917 38.9836 29.4613 36.4022 29.1738C35.9823 28.7759 35.876 28.4543 35.8759 28.2451C35.8759 28.0628 35.9564 27.7862 36.3085 27.4229C36.666 27.054 37.2442 26.6638 38.0546 26.3086C39.672 25.5999 41.994 25.127 44.6249 25.127H44.6308ZM10.7743 4.00391C10.2807 4.00391 9.82824 4.28242 9.60146 4.72559L7.07119 9.67383C6.61705 10.5622 7.25574 11.6211 8.24501 11.6211H70.122C71.1112 11.6211 71.7499 10.5622 71.2958 9.67383L68.7655 4.72559C68.5387 4.28246 68.0863 4.00391 67.5927 4.00391H10.7743Z" fill="currentColor"/>
</svg>