<svg width="16" height="16" viewBox="0 0 16 16" fill="none" xmlns="http://www.w3.org/2000/svg">
<path fill-rule="evenodd" clip-rule="evenodd" d="M14.6671 8.66606C14.6671 12.3411 11.6878 15.3204 8.01274 15.3204C4.33765 15.3204 1.3584 12.3411 1.3584 8.66606C1.3584 4.99097 4.33765 2.01172 8.01274 2.01172C11.6878 2.01172 14.6671 4.99097 14.6671 8.66606Z" fill="#141414" fill-opacity="0.08"/>
<path d="M7.99999 14.6684C11.6822 14.6684 14.6672 11.6834 14.6672 8.00121C14.6672 4.319 11.6822 1.33398 7.99999 1.33398C4.31778 1.33398 1.33276 4.319 1.33276 8.00121C1.33276 11.6834 4.31778 14.6684 7.99999 14.6684Z" fill="#309256"/>
<path fill-rule="evenodd" clip-rule="evenodd" d="M7.99999 13.5572C11.0685 13.5572 13.556 11.0697 13.556 8.00121C13.556 4.9327 11.0685 2.44519 7.99999 2.44519C4.93148 2.44519 2.44397 4.9327 2.44397 8.00121C2.44397 11.0697 4.93148 13.5572 7.99999 13.5572ZM14.6672 8.00121C14.6672 11.6834 11.6822 14.6684 7.99999 14.6684C4.31778 14.6684 1.33276 11.6834 1.33276 8.00121C1.33276 4.319 4.31778 1.33398 7.99999 1.33398C11.6822 1.33398 14.6672 4.319 14.6672 8.00121Z" fill="#2A814B"/>
<path fill-rule="evenodd" clip-rule="evenodd" d="M11.032 6.36232L11.4895 6.81978C11.6158 6.94611 11.6158 7.15092 11.4895 7.27725L7.82978 10.9369C7.78119 10.9855 7.721 11.0154 7.65812 11.0266L7.62014 11.0311H7.58195C7.50565 11.0266 7.43062 10.9952 7.37232 10.9369L5.31374 8.87836C5.18741 8.75204 5.18741 8.54723 5.31374 8.4209L5.7712 7.96344C5.89752 7.83712 6.10234 7.83712 6.22866 7.96344L7.60106 9.33574L10.5746 6.36232C10.7009 6.236 10.9057 6.236 11.032 6.36232Z" fill="#141414" fill-opacity="0.2"/>
<path fill-rule="evenodd" clip-rule="evenodd" d="M10.6993 6.03029L11.1567 6.48775C11.283 6.61408 11.283 6.81889 11.1567 6.94522L7.49702 10.6049C7.44843 10.6535 7.38823 10.6834 7.32536 10.6946L7.28738 10.6991H7.24919C7.17288 10.6946 7.09786 10.6632 7.03955 10.6049L4.98097 8.54633C4.85465 8.42001 4.85465 8.2152 4.98097 8.08887L5.43844 7.63141C5.56476 7.50508 5.76957 7.50508 5.8959 7.63141L7.2683 9.0037L10.2418 6.03029C10.3681 5.90397 10.5729 5.90397 10.6993 6.03029Z" fill="white"/>
</svg>
