<svg width="16" height="16" viewBox="0 0 16 16" fill="none" xmlns="http://www.w3.org/2000/svg">
<path fill-rule="evenodd" clip-rule="evenodd" d="M14.6645 8.66439C14.6645 12.345 11.6807 15.3288 8.00008 15.3288C4.31944 15.3288 1.33569 12.345 1.33569 8.66439C1.33569 4.98375 4.31944 2 8.00008 2C11.6807 2 14.6645 4.98375 14.6645 8.66439Z" fill="#141414" fill-opacity="0.08"/>
<path d="M8.00008 14.6608C11.6807 14.6608 14.6645 11.6771 14.6645 7.99642C14.6645 4.31578 11.6807 1.33203 8.00008 1.33203C4.31944 1.33203 1.33569 4.31578 1.33569 7.99642C1.33569 11.6771 4.31944 14.6608 8.00008 14.6608Z" fill="#6A7587"/>
<path fill-rule="evenodd" clip-rule="evenodd" d="M8.00008 13.5501C11.0673 13.5501 13.5537 11.0636 13.5537 7.99642C13.5537 4.92922 11.0673 2.44276 8.00008 2.44276C4.93288 2.44276 2.44642 4.92922 2.44642 7.99642C2.44642 11.0636 4.93288 13.5501 8.00008 13.5501ZM14.6645 7.99642C14.6645 11.6771 11.6807 14.6608 8.00008 14.6608C4.31944 14.6608 1.33569 11.6771 1.33569 7.99642C1.33569 4.31578 4.31944 1.33203 8.00008 1.33203C11.6807 1.33203 14.6645 4.31578 14.6645 7.99642Z" fill="#3E495E"/>
<path fill-rule="evenodd" clip-rule="evenodd" d="M11.6668 8.4838L11.6668 9.22429C11.6668 9.42877 11.5011 9.59453 11.2966 9.59453L7.4535 9.59452C7.37486 9.59452 7.30194 9.56999 7.24198 9.52818L7.20761 9.50107L7.1767 9.47016C7.11857 9.40477 7.08326 9.31865 7.08326 9.22427L7.08324 5.36846C7.08324 5.16398 7.24901 4.99821 7.45349 4.99821L8.19397 4.99821C8.39845 4.99821 8.56422 5.16398 8.56422 5.36846L8.56432 8.11348L11.2966 8.11356C11.5011 8.11356 11.6668 8.27932 11.6668 8.4838Z" fill="#141414" fill-opacity="0.2"/>
<path fill-rule="evenodd" clip-rule="evenodd" d="M11.3336 8.14982L11.3336 8.89031C11.3336 9.09479 11.1678 9.26055 10.9633 9.26055L7.12025 9.26053C7.04161 9.26053 6.96869 9.23601 6.90872 9.1942L6.87436 9.16709L6.84345 9.13618C6.78532 9.07079 6.75001 8.98466 6.75001 8.89029L6.74999 5.03447C6.74999 4.82999 6.91575 4.66423 7.12023 4.66423L7.86072 4.66423C8.0652 4.66423 8.23097 4.82999 8.23097 5.03447L8.23107 7.77949L10.9633 7.77957C11.1678 7.77957 11.3336 7.94534 11.3336 8.14982Z" fill="white"/>
</svg>
