<svg width="16" height="16" viewBox="0 0 16 16" fill="none" xmlns="http://www.w3.org/2000/svg">
<path fill-rule="evenodd" clip-rule="evenodd" d="M14.6642 8.66439C14.6642 12.345 11.6805 15.3288 7.99984 15.3288C4.3192 15.3288 1.33545 12.345 1.33545 8.66439C1.33545 4.98375 4.3192 2 7.99984 2C11.6805 2 14.6642 4.98375 14.6642 8.66439Z" fill="#141414" fill-opacity="0.08"/>
<path d="M7.99984 14.6608C11.6805 14.6608 14.6642 11.6771 14.6642 7.99642C14.6642 4.31578 11.6805 1.33203 7.99984 1.33203C4.3192 1.33203 1.33545 4.31578 1.33545 7.99642C1.33545 11.6771 4.3192 14.6608 7.99984 14.6608Z" fill="#4C65FF"/>
<path fill-rule="evenodd" clip-rule="evenodd" d="M7.99984 13.5501C11.067 13.5501 13.5535 11.0636 13.5535 7.99642C13.5535 4.92922 11.067 2.44276 7.99984 2.44276C4.93264 2.44276 2.44618 4.92922 2.44618 7.99642C2.44618 11.0636 4.93264 13.5501 7.99984 13.5501ZM14.6642 7.99642C14.6642 11.6771 11.6805 14.6608 7.99984 14.6608C4.3192 14.6608 1.33545 11.6771 1.33545 7.99642C1.33545 4.31578 4.3192 1.33203 7.99984 1.33203C11.6805 1.33203 14.6642 4.31578 14.6642 7.99642Z" fill="#4056DD"/>
<path fill-rule="evenodd" clip-rule="evenodd" d="M11.6668 8.4838L11.6668 9.22429C11.6668 9.42877 11.5011 9.59453 11.2966 9.59453L7.4535 9.59452C7.37486 9.59452 7.30194 9.56999 7.24198 9.52818L7.20761 9.50107L7.1767 9.47016C7.11857 9.40477 7.08326 9.31865 7.08326 9.22427L7.08324 5.36846C7.08324 5.16398 7.24901 4.99821 7.45349 4.99821L8.19397 4.99821C8.39845 4.99821 8.56422 5.16398 8.56422 5.36846L8.56432 8.11348L11.2966 8.11356C11.5011 8.11356 11.6668 8.27932 11.6668 8.4838Z" fill="#141414" fill-opacity="0.2"/>
<path fill-rule="evenodd" clip-rule="evenodd" d="M11.3333 8.14982L11.3333 8.89031C11.3333 9.09479 11.1676 9.26055 10.9631 9.26055L7.12001 9.26053C7.04136 9.26053 6.96844 9.23601 6.90848 9.1942L6.87412 9.16709L6.84321 9.13618C6.78508 9.07079 6.74976 8.98466 6.74976 8.89029L6.74975 5.03447C6.74975 4.82999 6.91551 4.66423 7.11999 4.66423L7.86048 4.66423C8.06496 4.66423 8.23072 4.82999 8.23072 5.03447L8.23082 7.77949L10.9631 7.77957C11.1676 7.77957 11.3333 7.94534 11.3333 8.14982Z" fill="white"/>
</svg>
