<svg width="16" height="16" viewBox="0 0 16 16" fill="none" xmlns="http://www.w3.org/2000/svg">
<path fill-rule="evenodd" clip-rule="evenodd" d="M14.6666 8.69216C14.6666 12.3569 11.6958 15.3277 8.03105 15.3277C4.36634 15.3277 1.39551 12.3569 1.39551 8.69216C1.39551 5.02746 4.36634 2.05664 8.03105 2.05664C11.6958 2.05664 14.6666 5.02746 14.6666 8.69216Z" fill="#141414" fill-opacity="0.08"/>
<path d="M7.96908 14.6627C11.6416 14.6627 14.6188 11.6855 14.6188 8.013C14.6188 4.34046 11.6416 1.36328 7.96908 1.36328C4.29653 1.36328 1.31934 4.34046 1.31934 8.013C1.31934 11.6855 4.29653 14.6627 7.96908 14.6627Z" fill="#EE3F38"/>
<path fill-rule="evenodd" clip-rule="evenodd" d="M8.00008 13.5541C11.0683 13.5541 13.5556 11.0668 13.5556 7.9986C13.5556 4.93039 11.0683 2.44313 8.00008 2.44313C4.93187 2.44313 2.44459 4.93039 2.44459 7.9986C2.44459 11.0668 4.93187 13.5541 8.00008 13.5541ZM14.6667 7.9986C14.6667 11.6804 11.6819 14.6652 8.00008 14.6652C4.31823 14.6652 1.3335 11.6804 1.3335 7.9986C1.3335 4.31675 4.31823 1.33203 8.00008 1.33203C11.6819 1.33203 14.6667 4.31675 14.6667 7.9986Z" fill="#D7312A"/>
<path fill-rule="evenodd" clip-rule="evenodd" d="M10.3453 5.84543L10.8145 6.31463C10.9626 6.46271 10.9626 6.70279 10.8145 6.85087L9.30591 8.3592L10.8145 9.86771C10.9626 10.0158 10.9626 10.2559 10.8145 10.4039L10.3453 10.8731C10.1972 11.0212 9.95715 11.0212 9.80907 10.8731L8.30015 9.36401L6.79276 10.8726C6.64469 11.0207 6.40461 11.0207 6.25653 10.8726L5.78733 10.4034C5.63925 10.2553 5.63925 10.0152 5.78733 9.86717L7.29439 8.3592L5.78733 6.85141C5.63925 6.70334 5.63925 6.46326 5.78733 6.31518L6.25653 5.84598C6.40461 5.6979 6.64469 5.6979 6.79276 5.84598L8.30015 7.35344L9.80907 5.84543C9.95715 5.69736 10.1972 5.69736 10.3453 5.84543Z" fill="#141414" fill-opacity="0.2"/>
<path fill-rule="evenodd" clip-rule="evenodd" d="M10.0138 5.51535L10.483 5.98456C10.631 6.13263 10.631 6.37271 10.483 6.52079L8.97437 8.02912L10.483 9.53764C10.631 9.68571 10.631 9.92579 10.483 10.0739L10.0138 10.5431C9.86569 10.6911 9.62561 10.6911 9.47753 10.5431L7.96861 9.03393L6.46122 10.5425C6.31314 10.6906 6.07306 10.6906 5.92499 10.5425L5.45578 10.0733C5.30771 9.92524 5.30771 9.68516 5.45578 9.53709L6.96285 8.02912L5.45578 6.52134C5.30771 6.37326 5.30771 6.13318 5.45578 5.9851L5.92499 5.5159C6.07306 5.36783 6.31314 5.36783 6.46122 5.5159L7.96861 7.02336L9.47753 5.51535C9.62561 5.36728 9.86569 5.36728 10.0138 5.51535Z" fill="white"/>
</svg>
