<svg width="28" height="28" viewBox="0 0 28 28" fill="none" xmlns="http://www.w3.org/2000/svg">
<path d="M15.855 13.5797L17.3904 10.9743L21.5291 17.4203L21.531 18.6574L21.5175 10.1448C21.5077 9.93662 21.3972 9.74622 21.2209 9.63391L13.7698 5.34809C13.5956 5.26241 13.3745 5.26344 13.2006 5.35079C13.177 5.36263 13.155 5.37536 13.1339 5.38939L13.1079 5.40572L5.8754 9.59686L5.84736 9.60972C5.81121 9.62619 5.7748 9.64742 5.74045 9.67186C5.60331 9.77015 5.51223 9.91565 5.48277 10.0787C5.47839 10.1034 5.47505 10.1286 5.47363 10.154L5.48495 17.0909L9.33993 11.1161C9.82519 10.3239 10.8827 10.0685 11.8644 10.0825L13.0165 10.1129L6.22803 20.9996L7.02823 21.4602L13.898 10.1239L16.9345 10.1129L10.0825 21.7353L12.9379 23.3778L13.279 23.5738C13.4234 23.6325 13.5935 23.6355 13.739 23.5828L21.2948 19.2041L19.8502 20.0412L15.855 13.5797ZM16.4407 22.0172L13.5568 17.4906L15.3174 14.5032L19.1049 20.4731L16.4407 22.0172Z" fill="#2D374B"/>
<path d="M13.5576 17.4904L16.4417 22.0168L19.1057 20.4729L15.3182 14.5029L13.5576 17.4904Z" fill="#28A0F0"/>
<path d="M21.5315 18.6569L21.5295 17.4198L17.3909 10.9739L15.8555 13.5793L19.8508 20.0408L21.2954 19.2037C21.437 19.0887 21.5229 18.9198 21.5319 18.7376L21.5315 18.6569Z" fill="#28A0F0"/>
<path d="M4.18848 19.8229L6.22847 20.9984L13.0169 10.1117L11.8648 10.0813C10.8833 10.0674 9.82576 10.3227 9.34036 11.1149L5.48539 17.0898L4.18848 19.0824V19.8229Z" fill="white"/>
<path d="M16.9355 10.1124L13.899 10.1235L7.0293 21.4598L9.43054 22.8423L10.0834 21.7349L16.9355 10.1124Z" fill="white"/>
<path d="M22.811 10.0972C22.7856 9.46219 22.4417 8.88095 21.9032 8.54248L14.3545 4.20134C13.8217 3.9331 13.1562 3.93272 12.6225 4.20121C12.5594 4.23298 5.28148 8.45397 5.28148 8.45397C5.18075 8.50221 5.08375 8.55972 4.99253 8.62507C4.51177 8.96972 4.21871 9.50516 4.18848 10.0933V19.0837L5.48539 17.0911L5.47407 10.1541C5.47561 10.1287 5.47883 10.1036 5.4832 10.0791C5.51253 9.91581 5.60375 9.77031 5.74089 9.67189C5.77524 9.64744 13.1773 5.36265 13.2009 5.35082C13.3749 5.26346 13.596 5.26244 13.7701 5.34812L21.2213 9.63394C21.3975 9.74625 21.508 9.93665 21.5178 10.1448V18.7379C21.5088 18.9201 21.4367 19.089 21.2951 19.204L19.8505 20.0411L19.1051 20.4732L16.441 22.0171L13.7393 23.5827C13.5938 23.6353 13.4236 23.6324 13.2793 23.5737L10.0828 21.7352L9.42978 22.8426L12.3025 24.4965C12.3975 24.5506 12.4821 24.5984 12.5516 24.6375C12.6591 24.6979 12.7325 24.7381 12.7583 24.7507C12.9625 24.8499 13.2562 24.9076 13.521 24.9076C13.7636 24.9076 14.0003 24.8631 14.2243 24.7753L22.0718 20.2308C22.5222 19.8818 22.7872 19.3554 22.811 18.7854V10.0972Z" fill="#96BEDC"/>
</svg>
