<svg width="28" height="28" viewBox="0 0 28 28" fill="none" xmlns="http://www.w3.org/2000/svg">
<path d="M15.6295 13.6633L17.018 11.3071L20.7608 17.1365L20.7625 18.2552L20.7503 10.5569C20.7415 10.3687 20.6415 10.1965 20.4821 10.0949L13.7438 6.21909C13.5863 6.1416 13.3863 6.14253 13.229 6.22153C13.2077 6.23223 13.1878 6.24375 13.1687 6.25643L13.1452 6.27121L6.60455 10.0614L6.57919 10.0731C6.54649 10.0879 6.51357 10.1071 6.48251 10.1293C6.35848 10.2181 6.27611 10.3497 6.24947 10.4971C6.24552 10.5195 6.24249 10.5423 6.24121 10.5653L6.25145 16.8386L9.73766 11.4353C10.1765 10.7189 11.1328 10.4879 12.0207 10.5006L13.0625 10.5281L6.92345 20.3733L7.6471 20.79L13.8597 10.5381L16.6057 10.5281L10.4092 21.0387L12.9914 22.5241L13.3 22.7014C13.4305 22.7544 13.5843 22.7571 13.7159 22.7095L20.5489 18.7497L19.2425 19.5067L15.6295 13.6633ZM16.1592 21.2936L13.5511 17.2001L15.1433 14.4984L18.5685 19.8973L16.1592 21.2936Z" fill="#2D374B"/>
<path d="M13.5518 17.1999L16.1599 21.2933L18.5692 19.8971L15.1439 14.4982L13.5518 17.1999Z" fill="#28A0F0"/>
<path d="M20.7629 18.2549L20.7612 17.1361L17.0184 11.3068L15.6299 13.6629L19.243 19.5064L20.5494 18.7493C20.6775 18.6453 20.7551 18.4926 20.7633 18.3278L20.7629 18.2549Z" fill="#28A0F0"/>
<path d="M5.0791 19.3093L6.92395 20.3724L13.063 10.5271L12.0212 10.4996C11.1335 10.4871 10.1771 10.7179 9.73816 11.4343L6.25195 16.8376L5.0791 18.6397V19.3093Z" fill="white"/>
<path d="M16.6061 10.5277L13.86 10.5377L7.64746 20.7896L9.819 22.0398L10.4094 21.0383L16.6061 10.5277Z" fill="white"/>
<path d="M21.9202 10.5139C21.8973 9.93968 21.5863 9.41404 21.0993 9.10795L14.2726 5.18208C13.7908 4.9395 13.189 4.93915 12.7063 5.18196C12.6493 5.2107 6.06755 9.0279 6.06755 9.0279C5.97645 9.07153 5.88873 9.12354 5.80624 9.18264C5.37147 9.49432 5.10644 9.97854 5.0791 10.5105V18.6408L6.25195 16.8388L6.24171 10.5654C6.24311 10.5425 6.24602 10.5198 6.24998 10.4975C6.2765 10.3499 6.35899 10.2183 6.48301 10.1293C6.51407 10.1072 13.2081 6.2323 13.2294 6.2216C13.3868 6.1426 13.5867 6.14167 13.7442 6.21916L20.4825 10.095C20.6419 10.1966 20.7419 10.3688 20.7507 10.557V18.3281C20.7426 18.4929 20.6774 18.6456 20.5493 18.7496L19.2429 19.5067L18.5688 19.8973L16.1596 21.2936L13.7163 22.7095C13.5847 22.757 13.4308 22.7544 13.3003 22.7013L10.4096 21.0387L9.81902 22.0401L12.417 23.5358C12.5028 23.5847 12.5794 23.628 12.6422 23.6634C12.7395 23.7179 12.8058 23.7543 12.8292 23.7657C13.0138 23.8554 13.2794 23.9076 13.5188 23.9076C13.7383 23.9076 13.9523 23.8673 14.1549 23.788L21.2517 19.6782C21.659 19.3625 21.8987 18.8866 21.9202 18.371V10.5139Z" fill="#96BEDC"/>
</svg>
