<svg width="28" height="28" viewBox="0 0 28 28" fill="none" xmlns="http://www.w3.org/2000/svg">
<path d="M14 4.52778C14.4129 4.52646 14.8178 4.64076 15.1691 4.85776C15.5203 5.07475 15.8038 5.38575 15.9874 5.75556L22.2371 18.2556C22.4067 18.5944 22.4868 18.9709 22.4698 19.3494C22.4529 19.7279 22.3395 20.0958 22.1403 20.4181C21.9412 20.7404 21.663 21.0064 21.3321 21.1909C21.0012 21.3754 20.6286 21.4723 20.2497 21.4722H7.75027C7.37142 21.4723 6.99884 21.3754 6.66795 21.1909C6.33705 21.0064 6.05882 20.7404 5.85968 20.4181C5.66054 20.0958 5.54711 19.7279 5.53016 19.3494C5.51322 18.9709 5.59332 18.5944 5.76285 18.2556L12.0126 5.75556C12.1962 5.38575 12.4797 5.07475 12.8309 4.85776C13.1822 4.64076 13.5871 4.52646 14 4.52778ZM14 3C13.3037 2.99992 12.6211 3.19374 12.0287 3.55973C11.4363 3.92573 10.9575 4.44945 10.646 5.07222L4.39625 17.5722C4.11022 18.144 3.97512 18.7794 4.00377 19.4181C4.03242 20.0567 4.22387 20.6775 4.55994 21.2213C4.896 21.7652 5.36553 22.2141 5.9239 22.5254C6.48228 22.8367 7.11098 23.0001 7.75027 23H20.2497C20.889 23.0001 21.5177 22.8367 22.0761 22.5254C22.6345 22.2141 23.104 21.7652 23.4401 21.2213C23.7761 20.6775 23.9676 20.0567 23.9962 19.4181C24.0249 18.7794 23.8898 18.144 23.6038 17.5722L17.354 5.07222C17.0425 4.44945 16.5637 3.92573 15.9713 3.55973C15.3789 3.19374 14.6963 2.99992 14 3Z" fill="#70D44B"/>
</svg>
