<svg width="28" height="28" viewBox="0 0 28 28" fill="none" xmlns="http://www.w3.org/2000/svg">
<path d="M14 5.52778C14.4129 5.52646 14.8178 5.64076 15.1691 5.85776C15.5203 6.07475 15.8038 6.38575 15.9874 6.75556L22.2371 19.2556C22.4067 19.5944 22.4868 19.9709 22.4698 20.3494C22.4529 20.7279 22.3395 21.0958 22.1403 21.4181C21.9412 21.7404 21.663 22.0064 21.3321 22.1909C21.0012 22.3754 20.6286 22.4723 20.2497 22.4722H7.75027C7.37142 22.4723 6.99884 22.3754 6.66795 22.1909C6.33705 22.0064 6.05882 21.7404 5.85968 21.4181C5.66054 21.0958 5.54711 20.7279 5.53016 20.3494C5.51322 19.9709 5.59332 19.5944 5.76285 19.2556L12.0126 6.75556C12.1962 6.38575 12.4797 6.07475 12.8309 5.85776C13.1822 5.64076 13.5871 5.52646 14 5.52778ZM14 4C13.3037 3.99992 12.6211 4.19374 12.0287 4.55973C11.4363 4.92573 10.9575 5.44945 10.646 6.07222L4.39625 18.5722C4.11022 19.144 3.97512 19.7794 4.00377 20.4181C4.03242 21.0567 4.22387 21.6775 4.55994 22.2213C4.896 22.7652 5.36553 23.2141 5.9239 23.5254C6.48228 23.8367 7.11098 24.0001 7.75027 24H20.2497C20.889 24.0001 21.5177 23.8367 22.0761 23.5254C22.6345 23.2141 23.104 22.7652 23.4401 22.2213C23.7761 21.6775 23.9676 21.0567 23.9962 20.4181C24.0249 19.7794 23.8898 19.144 23.6038 18.5722L17.354 6.07222C17.0425 5.44945 16.5637 4.92573 15.9713 4.55973C15.3789 4.19374 14.6963 3.99992 14 4Z" fill="#70D44B"/>
</svg>
