<svg width="28" height="28" viewBox="0 0 28 28" fill="none" xmlns="http://www.w3.org/2000/svg">
<path d="M18.979 15.6586C19.468 14.7572 20.2571 14.7572 20.7461 15.6586L23.7913 21.3633C24.2803 22.2647 23.8802 23 22.9022 23H16.7673C15.8004 23 15.4003 22.2647 15.8782 21.3633L18.979 15.6586ZM13.0887 4.67603C13.5777 3.77466 14.3556 3.77466 14.8447 4.67603L15.5226 5.98065L17.123 8.98127C17.512 9.83521 17.512 10.8433 17.123 11.6973L11.755 21.6242C11.266 22.4307 10.4547 22.9407 9.55446 23H5.09781C4.1198 23 3.7197 22.2765 4.20871 21.3633L13.0887 4.67603Z" fill="#E84142"/>
</svg>
