<svg width="28" height="28" viewBox="0 0 28 28" fill="none" xmlns="http://www.w3.org/2000/svg">
<path d="M10.116 12.404L14 8.52L17.886 12.406L20.146 10.146L14 4L7.856 10.144L10.116 12.404ZM4 14L6.26 11.74L8.52 14L6.26 16.26L4 14ZM10.116 15.596L14 19.48L17.886 15.594L20.146 17.853L14 24L7.856 17.856L7.853 17.853L10.116 15.596ZM19.48 14L21.74 11.74L24 14L21.74 16.26L19.48 14ZM16.292 13.998H16.294V14L14 16.294L11.709 14.004L11.705 14L11.709 13.997L12.11 13.595L12.305 13.4L14 11.706L16.293 13.999L16.292 13.998Z" fill="#F3BA2F"/>
</svg>
