<svg width="28" height="28" viewBox="0 0 28 28" fill="none" xmlns="http://www.w3.org/2000/svg">
<path d="M23.862 11.944C23.7291 11.2982 23.5325 10.6671 23.2752 10.0599C23.0216 9.4619 22.7114 8.88954 22.3487 8.35068C21.989 7.8183 21.5788 7.32191 21.1237 6.86844C20.67 6.41329 20.1733 6.00306 19.6406 5.64346C19.101 5.2826 18.5291 4.97244 17.9322 4.71696C16.698 4.19348 15.371 3.92371 14.0303 3.92371C12.6896 3.92371 11.3627 4.19348 10.1284 4.71696C8.93491 5.22037 7.8509 5.95142 6.93692 6.86928C6.48185 7.32249 6.07163 7.81859 5.71195 8.35068C5.35104 8.89062 5.04088 9.4628 4.78544 10.0599C4.26196 11.2942 3.99219 12.6212 3.99219 13.9618C3.99219 15.3025 4.26196 16.6295 4.78544 17.8637C5.03262 18.4607 5.35211 19.0265 5.71195 19.5721C6.0716 20.1048 6.48183 20.6014 6.93692 21.0552C7.39066 21.5104 7.88733 21.9206 8.42 22.2802C8.95471 22.64 9.53147 22.9494 10.1284 23.2067C11.3627 23.7302 12.6896 24 14.0303 24C15.371 24 16.698 23.7302 17.9322 23.2067C18.5292 22.9595 19.095 22.64 19.6406 22.2802C20.1733 21.9206 20.67 21.5104 21.1237 21.0552C21.5789 20.6015 21.9891 20.1048 22.3487 19.5721C22.7085 19.0374 23.0179 18.4607 23.2752 17.8637C24.0672 15.9958 24.2719 13.9311 23.862 11.944ZM14.0396 22.7435C9.19096 22.7435 5.26887 18.8104 5.26887 13.9719C5.26887 9.13341 9.20189 5.20039 14.0396 5.20039C18.8781 5.20039 22.8111 9.13341 22.8111 13.9719C22.8111 18.8104 18.8789 22.7435 14.0396 22.7435Z" fill="black"/>
<path d="M14.1948 21.9817H14.4319C14.4731 21.9817 14.5135 21.9817 14.5547 21.9707H14.5656C14.6068 21.9707 14.6371 21.9707 14.6783 21.9607H14.7094C14.7405 21.9607 14.7716 21.9607 14.8019 21.9506H14.833C14.8641 21.9506 14.8952 21.9405 14.9364 21.9405H14.9566C14.9978 21.9405 15.039 21.9295 15.0802 21.9295C15.1214 21.9295 15.1525 21.9195 15.1937 21.9094H15.2138C15.2449 21.9094 15.2761 21.8993 15.3063 21.8993H15.3273C15.3685 21.8883 15.3996 21.8883 15.4408 21.8783C15.5224 21.8682 15.6048 21.8472 15.6771 21.827H15.6981C15.7284 21.8169 15.7696 21.8169 15.8007 21.806H15.8108C15.8932 21.7858 15.9655 21.7648 16.0479 21.7446C15.2767 21.769 14.5056 21.6964 13.7526 21.5285C12.6193 21.2813 11.5389 20.8391 10.6225 20.0765C9.90004 19.4753 9.32024 18.721 8.92503 17.8682C8.52982 17.0154 8.32909 16.0854 8.33735 15.1455C8.34477 13.7434 8.8437 12.3882 9.74729 11.3159C10.921 9.92618 12.589 9.19473 14.2974 9.15353H14.5345V7.78479H14.2672C13.7474 7.79431 13.23 7.85628 12.7227 7.96975C12.2122 8.08519 11.7154 8.25428 11.2405 8.4742C10.7562 8.70121 10.303 8.97865 9.88097 9.29814C9.44483 9.62967 9.0477 10.0096 8.69719 10.4306C8.36717 10.8203 8.08073 11.2449 7.84299 11.6968C7.60779 12.1325 7.41791 12.5911 7.27633 13.0655C7.13744 13.5326 7.04452 14.0122 6.99888 14.4973L6.96777 14.9497V15.217C6.97786 15.7425 7.04008 16.257 7.15274 16.7615C7.26624 17.2768 7.44111 17.7704 7.65719 18.2445C7.9153 18.8104 8.37855 19.6444 9.06796 20.2724C10.4756 21.3821 12.2166 21.9844 14.009 21.9817H14.1948Z" fill="black"/>
<path d="M16.4391 20.6634C15.9314 20.6453 15.4256 20.5902 14.9258 20.4986C12.8054 20.1178 10.9827 18.8205 10.3143 16.8649C9.50044 14.4864 10.7464 11.9129 13.114 11.131C13.5652 10.9798 14.038 10.9031 14.5138 10.904C15.1217 10.904 15.7287 11.0276 16.2853 11.2537L16.8612 10.0288C16.688 9.95933 16.5131 9.89429 16.3366 9.83371C15.7467 9.64858 15.132 9.55474 14.5138 9.55542C13.8945 9.55658 13.2793 9.65736 12.6919 9.85389C11.9423 10.1011 11.2519 10.5007 10.664 11.0276C10.3805 11.2801 10.1221 11.5594 9.89223 11.8616C9.66502 12.1603 9.46842 12.4811 9.30539 12.8192C8.97342 13.4989 8.7775 14.2369 8.72864 14.9917C8.67735 15.7736 8.77992 16.5555 9.03719 17.297C9.29933 18.0599 9.7206 18.7583 10.2731 19.3459C10.7775 19.8916 11.3644 20.3036 12.074 20.6844C12.8155 21.0754 13.7319 21.2813 14.6887 21.4159C15.3067 21.4974 16.1306 21.5184 16.614 21.5184C17.0361 21.3637 17.211 21.2914 17.438 21.199C17.6338 21.1065 17.8289 21.014 18.0248 20.9005C18.2207 20.787 18.2518 20.766 18.5805 20.5507C18.6098 20.5325 18.6374 20.5117 18.6629 20.4885C17.5304 20.6844 17.2421 20.6735 16.4391 20.6634Z" fill="black"/>
<path d="M18.9725 19.1299C18.653 19.1501 18.1998 19.1804 17.6853 19.1804C16.7689 19.1804 15.6465 19.0988 14.6897 18.7793C13.2066 18.2858 11.8068 17.0196 11.8068 15.4542C11.8064 15.0837 11.8792 14.7167 12.0208 14.3743C12.1624 14.032 12.3702 13.7209 12.6322 13.4589C12.8942 13.1969 13.2053 12.9891 13.5476 12.8475C13.89 12.7059 14.257 12.6331 14.6275 12.6335C15.6877 12.6335 16.6041 13.2203 17.0883 14.0745L18.3133 13.4675C18.1212 13.1059 17.8745 12.7761 17.5819 12.4897C17.1941 12.1012 16.7335 11.7931 16.2265 11.5828C15.7194 11.3725 15.1759 11.2643 14.627 11.2643C14.0782 11.2643 13.5347 11.3725 13.0276 11.5828C12.5206 11.7931 12.06 12.1012 11.6722 12.4897C11.2839 12.8775 10.9758 13.338 10.7656 13.8449C10.5555 14.3519 10.4473 14.8953 10.4473 15.4441C10.45 16.0192 10.5732 16.5874 10.8088 17.1121C11.024 17.5855 11.3233 18.0285 11.7042 18.4405C12.3734 19.1602 13.289 19.7369 14.2676 20.0665C15.2042 20.3751 16.5839 20.4886 17.9224 20.3961C18.2923 20.365 18.5706 20.3339 19.0439 20.2313C19.5007 19.8708 19.9153 19.4599 20.2798 19.0063C19.9603 19.0374 19.3735 19.0988 18.9725 19.1299Z" fill="black"/>
</svg>
