<svg width="28" height="28" viewBox="0 0 28 28" fill="none" xmlns="http://www.w3.org/2000/svg">
<path d="M16.1057 17.6842C19.3031 17.6842 21.8951 15.0922 21.8951 11.8947C21.8951 8.69726 19.3031 6.10526 16.1057 6.10526C12.9082 6.10526 10.3162 8.69726 10.3162 11.8947C10.3162 15.0922 12.9082 17.6842 16.1057 17.6842ZM16.1057 19.7895C11.7457 19.7895 8.21094 16.2547 8.21094 11.8947C8.21094 7.53474 11.7457 4 16.1057 4C20.4657 4 24.0004 7.53474 24.0004 11.8947C24.0004 16.2547 20.4657 19.7895 16.1057 19.7895Z" fill="#35D07F"/>
<path d="M11.8947 21.8948C15.0922 21.8948 17.6842 19.3028 17.6842 16.1053C17.6842 12.9078 15.0922 10.3158 11.8947 10.3158C8.69726 10.3158 6.10526 12.9078 6.10526 16.1053C6.10526 19.3028 8.69726 21.8948 11.8947 21.8948ZM11.8947 24C7.53474 24 4 20.4653 4 16.1053C4 11.7453 7.53474 8.21057 11.8947 8.21057C16.2547 8.21057 19.7895 11.7453 19.7895 16.1053C19.7895 20.4653 16.2547 24 11.8947 24Z" fill="#FBCC5C"/>
<path d="M16.3645 19.7852C16.9117 19.1223 17.3038 18.3455 17.5123 17.5116C18.3462 17.3031 19.123 16.911 19.786 16.364C19.7558 17.3295 19.5478 18.2812 19.1725 19.1714C18.2823 19.5468 17.3304 19.7549 16.3647 19.7852H16.3645ZM10.4885 10.488C9.65464 10.6965 8.87784 11.0885 8.21484 11.6356C8.24507 10.67 8.45304 9.71833 8.82832 8.82819C9.71859 8.45287 10.6704 8.2449 11.6361 8.21472C11.0891 8.8776 10.6971 9.65425 10.4885 10.488Z" fill="#ECFF8F"/>
</svg>
