<svg width="28" height="28" viewBox="0 0 28 28" fill="none" xmlns="http://www.w3.org/2000/svg">
<path d="M13.2076 6.16218C13.6379 5.94594 14.2927 5.94594 14.7231 6.16218L19.1143 8.36867C19.3768 8.50058 19.5194 8.69798 19.5422 8.90105L19.5455 8.90102V20.041L19.5448 20.041C19.5339 20.257 19.3904 20.47 19.1143 20.61L14.7231 22.8364C14.2928 23.0545 13.638 23.0545 13.2076 22.8364L8.81646 20.61C8.53583 20.4678 8.40115 20.2472 8.39448 20.0276L8.39509 20.041H8.39394V8.90102L8.39571 8.90107C8.41245 8.6956 8.54839 8.50335 8.81642 8.36867L13.2076 6.16218ZM9.06061 15.1081V19.993L13.2076 22.0844C13.447 22.2072 13.6958 22.3269 13.9384 22.336L13.9654 22.3365C14.1851 22.3372 14.3992 22.2417 14.615 22.1403L14.6928 22.1038L18.8788 19.9752V15.1512L14.7723 17.2098C14.3489 17.4221 13.7088 17.426 13.2774 17.2216L13.2532 17.2098L9.06061 15.1081ZM7.69252 19.8089C7.69252 20.2328 7.74453 20.5114 7.84781 20.7077C7.9334 20.8704 8.06184 20.9947 8.29634 21.146L8.30973 21.1546C8.3612 21.1874 8.41789 21.2219 8.4869 21.2623L8.56828 21.3095L8.81818 21.4524L8.45976 22.0137L8.18005 21.8536L8.13304 21.8263C8.05216 21.779 7.98513 21.7384 7.92261 21.6985C7.25425 21.2717 7.00499 20.8063 7.00007 19.8384L7 19.8089H7.69252ZM14.3334 12.1534V16.6726C14.3752 16.6605 14.4141 16.6457 14.4487 16.6284L18.8503 14.4219C18.8549 14.4196 18.8593 14.4173 18.8635 14.415L18.8672 14.413L18.8603 14.4092L18.8503 14.404L14.4487 12.1975C14.4141 12.1802 14.3752 12.1655 14.3334 12.1534ZM13.6666 12.1612C13.6345 12.1716 13.6043 12.1838 13.5768 12.1975L9.17524 14.404C9.17062 14.4064 9.16622 14.4087 9.16203 14.4109L9.1583 14.413L9.16521 14.4167L9.17524 14.4219L13.5768 16.6284C13.6043 16.6422 13.6345 16.6543 13.6666 16.6648V12.1612ZM9.06061 9.67212V13.7178L13.0911 11.6973L9.06061 9.67212ZM18.8788 9.66771L14.8868 11.6735L18.8788 13.6747V9.66771ZM14.4003 6.74362C14.1719 6.62888 13.7588 6.62888 13.5304 6.74362L9.13922 8.95012C9.13461 8.95244 9.13022 8.95473 9.12603 8.95699L9.12232 8.95904L9.12921 8.9628L9.13922 8.96797L13.5304 11.1745C13.7588 11.2892 14.1719 11.2892 14.4003 11.1745L18.7915 8.96797C18.7961 8.96565 18.8005 8.96336 18.8046 8.9611L18.8084 8.95904L18.8015 8.95529L18.7915 8.95012L14.4003 6.74362ZM19.5402 6.98635L19.8199 7.14636L19.867 7.1737C19.9478 7.22098 20.0149 7.2616 20.0774 7.30153C20.7457 7.72833 20.995 8.19365 20.9999 9.16164L21 9.19113H20.3075C20.3075 8.76722 20.2555 8.48861 20.1522 8.29232C20.0666 8.12963 19.9382 8.0053 19.7037 7.85402L19.6903 7.84543C19.6388 7.81256 19.5821 7.77813 19.5131 7.73767L19.4317 7.69046L19.1818 7.54761L19.5402 6.98635Z" fill="#0062F9"/>
</svg>
