<svg width="28" height="28" viewBox="0 0 28 28" fill="none" xmlns="http://www.w3.org/2000/svg">
<path d="M13.1147 5.18126C13.5956 4.93958 14.3275 4.93958 14.8084 5.18126L19.7162 7.64734C20.0096 7.79477 20.1691 8.01538 20.1945 8.24235L20.1981 8.24232V20.6928L20.1974 20.6929C20.1852 20.9342 20.0248 21.1724 19.7162 21.3289L14.8084 23.8171C14.3275 24.061 13.5957 24.061 13.1147 23.8171L8.20692 21.3289C7.89327 21.1699 7.74275 20.9234 7.73529 20.6779L7.73598 20.6928H7.73469V8.24232L7.73667 8.24237C7.75537 8.01273 7.90732 7.79786 8.20687 7.64734L13.1147 5.18126ZM8.47979 15.1796V20.6392L13.1147 22.9767C13.3823 23.1139 13.6603 23.2477 13.9315 23.2579L13.9616 23.2585C14.2072 23.2593 14.4464 23.1524 14.6877 23.0392L14.7746 22.9983L19.4531 20.6194V15.2278L14.8634 17.5286C14.3903 17.7658 13.6749 17.7702 13.1927 17.5418L13.1657 17.5286L8.47979 15.1796ZM6.95075 20.4334C6.95075 20.9072 7.00888 21.2186 7.12431 21.438C7.21997 21.6198 7.36351 21.7588 7.62561 21.9279L7.64058 21.9375C7.69809 21.9742 7.76146 22.0127 7.83859 22.0579L7.92954 22.1107L8.20884 22.2703L7.80825 22.8976L7.49564 22.7188L7.44309 22.6882C7.3527 22.6354 7.27779 22.59 7.20791 22.5453C6.46092 22.0683 6.18234 21.5483 6.17684 20.4664L6.17676 20.4334H6.95075ZM14.373 11.8773V16.9282C14.4197 16.9146 14.4631 16.8982 14.5018 16.8788L19.4212 14.4127C19.4264 14.4101 19.4313 14.4076 19.436 14.405L19.4401 14.4027L19.4324 14.3985L19.4212 14.3928L14.5018 11.9267C14.4631 11.9073 14.4197 11.8908 14.373 11.8773ZM13.6277 11.886C13.5917 11.8977 13.558 11.9113 13.5273 11.9267L8.60791 14.3928C8.60275 14.3953 8.59783 14.3979 8.59314 14.4004L8.58897 14.4027L8.5967 14.4069L8.60791 14.4127L13.5273 16.8788C13.558 16.8942 13.5917 16.9077 13.6277 16.9194V11.886ZM8.47979 9.10413V13.6257L12.9844 11.3676L8.47979 9.10413ZM19.4531 9.0992L14.9915 11.341L19.4531 13.5776V9.0992ZM14.4476 5.83111C14.1924 5.70286 13.7307 5.70286 13.4754 5.83111L8.56765 8.29719C8.5625 8.29978 8.55759 8.30234 8.55291 8.30487L8.54876 8.30717L8.55646 8.31136L8.56765 8.31714L13.4754 10.7832C13.7307 10.9115 14.1924 10.9115 14.4476 10.7832L19.3554 8.31714C19.3606 8.31455 19.3655 8.31199 19.3702 8.30946L19.3743 8.30717L19.3666 8.30297L19.3554 8.29719L14.4476 5.83111ZM20.1923 6.10239L20.5049 6.28122L20.5575 6.31178C20.6479 6.36463 20.7228 6.41003 20.7927 6.45465C21.5397 6.93166 21.8182 7.45173 21.8237 8.5336L21.8238 8.56655H21.0498C21.0498 8.09278 20.9917 7.78138 20.8763 7.56201C20.7806 7.38018 20.6371 7.24122 20.375 7.07214L20.36 7.06254C20.3025 7.02581 20.2391 6.98732 20.162 6.9421L20.071 6.88934L19.7917 6.72969L20.1923 6.10239Z" fill="#0062F9"/>
</svg>
