<svg width="28" height="28" viewBox="0 0 28 28" fill="none" xmlns="http://www.w3.org/2000/svg">
<path d="M13.7865 14.461C13.719 14.4397 13.6336 14.4183 13.5368 14.3941C13.2782 14.3295 12.9374 14.2444 12.6342 14.0839C10.6072 13.0173 8.5922 11.9274 6.57683 10.8373L5.61676 10.3181C4.80207 9.87844 4.79902 9.21116 5.62209 8.69721L5.99339 8.46543C8.15664 7.11497 10.3202 5.76431 12.5001 4.4354C13.4283 3.86904 14.4053 3.86825 15.377 4.35717C15.7467 4.54289 16.1098 4.74136 16.4733 4.94005C16.6028 5.01085 16.7324 5.08167 16.8623 5.15196C18.6817 6.13554 20.5001 7.11989 22.3174 8.10503C22.3394 8.1171 22.362 8.12831 22.3847 8.13953C22.4193 8.15668 22.4539 8.17388 22.4866 8.19421C23.1321 8.59786 23.1649 9.21899 22.5385 9.65706C22.2051 9.89072 21.8568 10.1016 21.5086 10.3126C21.3649 10.3996 21.2209 10.4868 21.0783 10.5754C20.549 10.9043 20.0192 11.2322 19.4894 11.5602L19.488 11.561C18.2248 12.3429 16.9615 13.1249 15.7055 13.9189C15.1796 14.2506 14.624 14.4172 13.7865 14.461Z" fill="url(#paint0_linear_16406_3455)"/>
<path d="M13.5243 23.8874C13.231 23.8111 12.9377 23.7347 12.6753 23.5963C10.7003 22.5543 8.73669 21.4904 6.77209 20.4259L5.69297 19.8414C5.55755 19.7708 5.42982 19.6856 5.31192 19.5872C4.93544 19.2665 4.87752 18.7713 5.26086 18.4733C5.79887 18.0535 6.39036 17.7021 6.97762 17.3531L7.02512 17.3249C7.11505 17.2709 7.3132 17.3585 7.43818 17.4258C8.092 17.7751 8.74302 18.1283 9.39379 18.4814C10.336 18.9926 11.2776 19.5035 12.2265 20.0018C13.442 20.6401 14.6964 20.6339 15.8762 19.9502C17.1899 19.1912 18.4757 18.3811 19.7626 17.5702C20.0672 17.3783 20.3723 17.1861 20.6774 16.9948C20.8801 16.8688 21.0272 16.8641 21.2299 16.9893C21.4644 17.1332 21.708 17.2613 21.9521 17.3897C22.0928 17.4638 22.2337 17.5379 22.3731 17.6151C23.1977 18.0743 23.2114 18.7353 22.399 19.2375C20.3789 20.4892 18.3571 21.7408 16.3334 22.9924C16.2356 23.053 16.1385 23.1153 16.0415 23.1777C15.5262 23.5089 15.0109 23.8402 14.3741 23.8928C14.2924 23.8997 14.2107 23.9075 14.1288 23.9152C14.0717 23.9206 14.0145 23.926 13.9572 23.9312L13.9298 24C13.7967 23.9583 13.6605 23.9229 13.5243 23.8874Z" fill="url(#paint1_linear_16406_3455)"/>
<path d="M12.2903 18.5204C12.8093 18.8043 13.3181 19.0825 13.8116 19.0357C14.5433 19.0412 15.0828 18.9012 15.5873 18.5812C16.6304 17.9228 17.679 17.2734 18.7273 16.6241C19.0914 16.3986 19.4555 16.1731 19.8193 15.9473L19.9321 15.8782C20.7878 15.3536 21.6444 14.8284 22.4927 14.2889C23.1786 13.8485 23.1649 13.2078 22.4714 12.7901C22.3152 12.6963 22.1539 12.6112 21.9927 12.5261C21.815 12.4323 21.6372 12.3385 21.4662 12.2331C21.2635 12.1071 21.1118 12.1298 20.9137 12.2534C19.8579 12.9144 18.7984 13.5689 17.7388 14.2235C17.222 14.5428 16.7051 14.8622 16.1886 15.1823C14.7818 16.0553 13.3704 16.056 11.9277 15.2605C10.3403 14.3851 8.73986 13.5332 7.13944 12.6868C7.06436 12.6505 6.98284 12.6303 6.89989 12.6275C6.81694 12.6247 6.7343 12.6393 6.65703 12.6704C6.2626 12.8814 5.88086 13.1165 5.51388 13.3744C4.80665 13.8626 4.84476 14.4931 5.60076 14.903C7.76716 16.0759 9.93407 17.2474 12.1015 18.4177C12.1646 18.4517 12.2275 18.4861 12.2903 18.5204Z" fill="url(#paint2_linear_16406_3455)"/>
<defs>
<linearGradient id="paint0_linear_16406_3455" x1="14" y1="4" x2="14" y2="24" gradientUnits="userSpaceOnUse">
<stop stop-color="#B9FAB6"/>
<stop offset="1" stop-color="#F5FB8D"/>
</linearGradient>
<linearGradient id="paint1_linear_16406_3455" x1="14" y1="4" x2="14" y2="24" gradientUnits="userSpaceOnUse">
<stop stop-color="#B9FAB6"/>
<stop offset="1" stop-color="#F5FB8D"/>
</linearGradient>
<linearGradient id="paint2_linear_16406_3455" x1="14" y1="4" x2="14" y2="24" gradientUnits="userSpaceOnUse">
<stop stop-color="#B9FAB6"/>
<stop offset="1" stop-color="#F5FB8D"/>
</linearGradient>
</defs>
</svg>
