<svg width="28" height="28" viewBox="0 0 28 28" fill="none" xmlns="http://www.w3.org/2000/svg">
<path d="M9.47249 15.5112C10.129 15.5112 10.735 15.2925 11.2232 14.9139L7.21676 10.9089C6.83799 11.3885 6.61918 11.9943 6.61918 12.659C6.61074 14.2324 7.89012 15.5112 9.47249 15.5112Z" fill="#04795B"/>
<path d="M21.3911 12.6506C21.3911 11.9943 21.1723 11.3885 20.7935 10.9005L16.7871 14.9055C17.2668 15.2841 17.8729 15.5028 18.5378 15.5028C20.1118 15.5113 21.3911 14.2324 21.3911 12.6506Z" fill="#04795B"/>
<path d="M23.4107 8.30066L21.6348 10.0759C22.224 10.7827 22.5775 11.6746 22.5775 12.6674C22.5775 14.897 20.7678 16.706 18.5374 16.706C17.5526 16.706 16.652 16.3526 15.945 15.7636L14.0007 17.7072L12.0564 15.7636C11.3495 16.3526 10.4572 16.706 9.46405 16.706C7.2336 16.706 5.42403 14.897 5.42403 12.6674C5.42403 11.683 5.77752 10.7827 6.36671 10.0759L5.45765 9.16727L4.59076 8.30066C3.58074 9.9666 3 11.9102 3 13.9968C3 20.0714 7.9238 24.9851 13.9923 24.9851C20.0609 24.9851 24.9847 20.0631 24.9847 13.9968C25.0015 11.9017 24.4207 9.95815 23.4107 8.30066Z" fill="#04795B"/>
<path d="M21.9545 6.40755C19.9598 4.31256 17.1317 3 14.0007 3C10.8696 3 8.04998 4.31256 6.04678 6.40755C5.77747 6.69364 5.51655 6.99652 5.27246 7.30784L13.9922 16.0245L22.7121 7.29945C22.4932 6.99652 22.2323 6.6852 21.9545 6.40755ZM14.0007 4.43035C16.5762 4.43035 18.9666 5.42315 20.7594 7.2321L14.0007 13.9883L7.24199 7.2321C9.04317 5.42315 11.4251 4.43035 14.0007 4.43035Z" fill="#04795B"/>
</svg>
