<svg width="28" height="28" viewBox="0 0 28 28" fill="none" xmlns="http://www.w3.org/2000/svg">
<path d="M9.88772 15.3816C10.4849 15.3816 11.0362 15.1826 11.4803 14.8382L7.83565 11.1948C7.49108 11.6311 7.29203 12.1822 7.29203 12.7869C7.28435 14.2182 8.44822 15.3816 9.88772 15.3816Z" fill="#04795B"/>
<path d="M20.7303 12.7792C20.7303 12.1822 20.5312 11.6311 20.1867 11.1871L16.542 14.8305C16.9784 15.1749 17.5297 15.3739 18.1346 15.3739C19.5665 15.3816 20.7303 14.2182 20.7303 12.7792Z" fill="#04795B"/>
<path d="M22.5679 8.82202L20.9523 10.437C21.4882 11.08 21.8098 11.8913 21.8098 12.7945C21.8098 14.8228 20.1636 16.4684 18.1345 16.4684C17.2387 16.4684 16.4194 16.1469 15.7762 15.6111L14.0075 17.3792L12.2387 15.6111C11.5956 16.1469 10.7839 16.4684 9.88042 16.4684C7.85135 16.4684 6.20517 14.8228 6.20517 12.7945C6.20517 11.8989 6.52674 11.08 7.06273 10.437L6.23575 9.61038L5.44713 8.82202C4.52831 10.3375 4 12.1056 4 14.0038C4 19.53 8.47923 23.9999 13.9998 23.9999C19.5204 23.9999 23.9997 19.5224 23.9997 14.0038C24.015 12.0979 23.4867 10.3299 22.5679 8.82202Z" fill="#04795B"/>
<path d="M21.2433 7.09987C19.4286 5.19404 16.8559 4 14.0075 4C11.1592 4 8.59413 5.19404 6.77179 7.09987C6.5268 7.36013 6.28943 7.63566 6.06738 7.91887L13.9999 15.8484L21.9324 7.91123C21.7333 7.63566 21.4959 7.35245 21.2433 7.09987ZM14.0075 5.3012C16.3506 5.3012 18.5251 6.20435 20.156 7.84997L14.0075 13.9961L7.85909 7.84997C9.49763 6.20435 11.6645 5.3012 14.0075 5.3012Z" fill="#04795B"/>
</svg>
