<svg width="28" height="28" viewBox="0 0 28 28" fill="none" xmlns="http://www.w3.org/2000/svg">
<path d="M19.6856 4C18.5432 3.99911 17.4472 4.45276 16.6381 5.26137C15.829 6.06998 15.3729 7.16747 15.37 8.31293V13.0949C14.9256 13.125 14.4711 13.1439 14 13.1439C13.5289 13.1439 13.0767 13.1629 12.63 13.1896V8.31293C12.6118 7.1774 12.1492 6.09454 11.342 5.29797C10.5347 4.50139 9.44756 4.05495 8.315 4.05495C7.18244 4.05495 6.09526 4.50139 5.28802 5.29797C4.48078 6.09454 4.01817 7.1774 4 8.31293V19.742C4.01817 20.8776 4.48078 21.9604 5.28802 22.757C6.09526 23.5536 7.18244 24 8.315 24C9.44756 24 10.5347 23.5536 11.342 22.757C12.1492 21.9604 12.6118 20.8776 12.63 19.742V14.96C13.0744 14.9299 13.5289 14.911 14 14.911C14.4711 14.911 14.9233 14.8921 15.37 14.8653V19.742C15.3882 20.8776 15.8508 21.9604 16.658 22.757C17.4653 23.5536 18.5524 24 19.685 24C20.8176 24 21.9047 23.5536 22.712 22.757C23.5192 21.9604 23.9818 20.8776 24 19.742V8.31293C23.9971 7.16766 23.5411 6.07034 22.7323 5.26176C21.9234 4.45319 20.8277 3.99941 19.6856 4ZM8.31444 5.76707C8.98861 5.76677 9.63536 6.03465 10.1128 6.51193C10.5902 6.98921 10.8593 7.63692 10.8611 8.31293V13.3768C9.59865 13.5602 8.36581 13.9098 7.19444 14.4163C6.68693 14.6397 6.20917 14.9256 5.77222 15.2675V8.31293C5.77398 7.63769 6.0425 6.99066 6.51897 6.5135C6.99544 6.03635 7.64105 5.76795 8.31444 5.76707ZM10.8611 19.742C10.8611 20.4193 10.5928 21.0688 10.1152 21.5477C9.63762 22.0266 8.98986 22.2957 8.31444 22.2957C7.63903 22.2957 6.99127 22.0266 6.51368 21.5477C6.03609 21.0688 5.76778 20.4193 5.76778 19.742V18.5955C5.76778 17.5828 6.56778 16.6235 7.90889 16.0263C8.85386 15.6175 9.84537 15.3267 10.8611 15.1606V19.742ZM19.6856 22.2879C19.0114 22.2882 18.3646 22.0203 17.8872 21.543C17.4098 21.0657 17.1407 20.418 17.1389 19.742V14.6781C18.4014 14.4947 19.6342 14.1452 20.8056 13.6386C21.3131 13.4153 21.7908 13.1293 22.2278 12.7874V19.742C22.226 20.4173 21.9575 21.0643 21.481 21.5414C21.0046 22.0186 20.3589 22.287 19.6856 22.2879ZM20.0911 12.022C19.1461 12.4308 18.1546 12.7215 17.1389 12.8877V8.31293C17.1389 7.63566 17.4072 6.98612 17.8848 6.50722C18.3624 6.02831 19.0101 5.75927 19.6856 5.75927C20.361 5.75927 21.0087 6.02831 21.4863 6.50722C21.9639 6.98612 22.2322 7.63566 22.2322 8.31293V9.4594C22.2322 10.4677 21.4322 11.427 20.0911 12.022Z" fill="url(#paint0_linear_16396_3369)"/>
<defs>
<linearGradient id="paint0_linear_16396_3369" x1="5.26667" y1="22.5099" x2="22.667" y2="5.10994" gradientUnits="userSpaceOnUse">
<stop stop-color="#00AEE9"/>
<stop offset="1" stop-color="#69FABD"/>
</linearGradient>
</defs>
</svg>
