<svg width="28" height="28" viewBox="0 0 28 28" fill="none" xmlns="http://www.w3.org/2000/svg">
<path fill-rule="evenodd" clip-rule="evenodd" d="M9.73828 5C10.2664 5 10.6946 5.41357 10.6946 5.92375V8.48983C8.71327 9.25126 6.99764 10.8575 6 12.6583V5H9.73828ZM11.8893 16.6638C11.8893 15.5043 12.8624 14.5643 14.0627 14.5643H14.9808C16.8053 14.5643 18.2844 13.1356 18.2844 11.3732V5H22.0226C22.5508 5 22.9789 5.41357 22.9789 5.92375V11.3732C22.9789 15.6401 19.398 19.0991 14.9808 19.0991H11.8893V16.6638ZM17.1107 11.3362C17.1107 12.4957 16.1376 13.4357 14.9373 13.4357H14.0192C12.1947 13.4357 10.7156 14.8644 10.7156 16.6268V23H6.9774C6.44924 23 6.02107 22.5864 6.02107 22.0763V16.6268C6.02107 12.3599 9.60198 8.90091 14.0192 8.90091H17.1107V11.3362ZM19.2617 23C18.7336 23 18.3054 22.5864 18.3054 22.0763V19.5102C20.2867 18.7487 22.0024 17.1425 23 15.3416V23H19.2617Z" fill="#00943E"/>
</svg>
