<svg width="28" height="28" viewBox="0 0 28 28" fill="none" xmlns="http://www.w3.org/2000/svg">
<path fill-rule="evenodd" clip-rule="evenodd" d="M10.8587 7C11.2626 7 11.59 7.32167 11.59 7.71847V9.71431C10.0749 10.3065 8.7629 11.5559 8 12.9565V7H10.8587ZM12.5036 16.0718C12.5036 15.17 13.2477 14.4389 14.1656 14.4389H14.8677C16.2629 14.4389 17.3939 13.3277 17.3939 11.9569V7H20.2526C20.6565 7 20.9839 7.32167 20.9839 7.71847V11.9569C20.9839 15.2756 18.2455 17.966 14.8677 17.966H12.5036V16.0718ZM16.4964 11.9282C16.4964 12.83 15.7523 13.5611 14.8344 13.5611H14.1323C12.7371 13.5611 11.6061 14.6723 11.6061 16.0431V21H8.74742C8.34354 21 8.01611 20.6783 8.01611 20.2815V16.0431C8.01611 12.7244 10.7545 10.034 14.1323 10.034H16.4964V11.9282ZM18.1413 21C17.7374 21 17.41 20.6783 17.41 20.2815V18.2857C18.9251 17.6935 20.2371 16.4441 21 15.0435V21H18.1413Z" fill="#00943E"/>
</svg>
