<svg width="28" height="28" viewBox="0 0 28 28" fill="none" xmlns="http://www.w3.org/2000/svg">
<path d="M9.32479 17.3443L14.3912 4.0105C15.3763 3.93006 17.9376 4.27597 20.302 6.3032C17.5516 9.05444 11.8379 14.8103 9.32479 17.3443Z" fill="url(#paint0_linear_16579_4104)"/>
<path d="M11.7374 5.69986L4.01716 13.4226C3.91663 14.8706 4.21016 18.2614 6.18846 20.2404C7.39474 16.9099 10.3903 9.15902 11.7374 5.69986Z" fill="url(#paint1_linear_16579_4104)"/>
<path d="M20.4226 21.6281C15.2114 25.9239 9.68668 23.418 7.57568 21.6281L13.969 15.293C15.4165 16.741 18.7338 20.0353 20.4226 21.6281Z" fill="url(#paint2_linear_16579_4104)"/>
<path d="M21.6289 20.3007C23.4182 18.189 25.9232 12.6624 21.6289 7.44955C20.0366 9.1389 16.7434 12.4573 15.2959 13.9053L21.6289 20.3007Z" fill="url(#paint3_linear_16579_4104)"/>
<mask id="mask0_16579_4104" style="mask-type:alpha" maskUnits="userSpaceOnUse" x="4" y="4" width="20" height="20">
<path d="M9.32479 17.3443L14.3912 4.0105C15.3763 3.93006 17.9376 4.27597 20.302 6.3032C17.5516 9.05444 11.8379 14.8103 9.32479 17.3443Z" fill="url(#paint4_linear_16579_4104)"/>
<path d="M11.7374 5.69986L4.01716 13.4226C3.91663 14.8706 4.21016 18.2614 6.18846 20.2404C7.39474 16.9099 10.3903 9.15902 11.7374 5.69986Z" fill="url(#paint5_linear_16579_4104)"/>
<path d="M20.4226 21.6281C15.2114 25.9239 9.68668 23.418 7.57568 21.6281L13.969 15.293C15.4165 16.741 18.7338 20.0353 20.4226 21.6281Z" fill="url(#paint6_linear_16579_4104)"/>
<path d="M21.6289 20.3007C23.4182 18.189 25.9232 12.6624 21.6289 7.44955C20.0366 9.1389 16.7434 12.4573 15.2959 13.9053L21.6289 20.3007Z" fill="url(#paint7_linear_16579_4104)"/>
</mask>
<g mask="url(#mask0_16579_4104)">
<g filter="url(#filter0_f_16579_4104)">
<ellipse rx="4.94096" ry="4.94092" transform="matrix(-0.697187 0.716889 -0.716657 -0.697426 18.7506 20.3451)" fill="url(#paint8_linear_16579_4104)"/>
</g>
</g>
<defs>
<filter id="filter0_f_16579_4104" x="12.1305" y="13.7233" width="13.2399" height="13.2435" filterUnits="userSpaceOnUse" color-interpolation-filters="sRGB">
<feFlood flood-opacity="0" result="BackgroundImageFix"/>
<feBlend mode="normal" in="SourceGraphic" in2="BackgroundImageFix" result="shape"/>
<feGaussianBlur stdDeviation="0.84" result="effect1_foregroundBlur_16579_4104"/>
</filter>
<linearGradient id="paint0_linear_16579_4104" x1="20.3" y1="6" x2="10.6518" y2="21.2556" gradientUnits="userSpaceOnUse">
<stop stop-color="#FB8C05"/>
<stop offset="0.479167" stop-color="#FE3400"/>
<stop offset="1" stop-color="#B6022F"/>
</linearGradient>
<linearGradient id="paint1_linear_16579_4104" x1="20.3" y1="6" x2="10.6518" y2="21.2556" gradientUnits="userSpaceOnUse">
<stop stop-color="#FB8C05"/>
<stop offset="0.479167" stop-color="#FE3400"/>
<stop offset="1" stop-color="#B6022F"/>
</linearGradient>
<linearGradient id="paint2_linear_16579_4104" x1="20.3" y1="6" x2="10.6518" y2="21.2556" gradientUnits="userSpaceOnUse">
<stop stop-color="#FB8C05"/>
<stop offset="0.479167" stop-color="#FE3400"/>
<stop offset="1" stop-color="#B6022F"/>
</linearGradient>
<linearGradient id="paint3_linear_16579_4104" x1="20.3" y1="6" x2="10.6518" y2="21.2556" gradientUnits="userSpaceOnUse">
<stop stop-color="#FB8C05"/>
<stop offset="0.479167" stop-color="#FE3400"/>
<stop offset="1" stop-color="#B6022F"/>
</linearGradient>
<linearGradient id="paint4_linear_16579_4104" x1="20.3" y1="6" x2="10.6518" y2="21.2556" gradientUnits="userSpaceOnUse">
<stop stop-color="#FB8C05"/>
<stop offset="0.479167" stop-color="#FE3400"/>
<stop offset="1" stop-color="#B6022F"/>
</linearGradient>
<linearGradient id="paint5_linear_16579_4104" x1="20.3" y1="6" x2="10.6518" y2="21.2556" gradientUnits="userSpaceOnUse">
<stop stop-color="#FB8C05"/>
<stop offset="0.479167" stop-color="#FE3400"/>
<stop offset="1" stop-color="#B6022F"/>
</linearGradient>
<linearGradient id="paint6_linear_16579_4104" x1="20.3" y1="6" x2="10.6518" y2="21.2556" gradientUnits="userSpaceOnUse">
<stop stop-color="#FB8C05"/>
<stop offset="0.479167" stop-color="#FE3400"/>
<stop offset="1" stop-color="#B6022F"/>
</linearGradient>
<linearGradient id="paint7_linear_16579_4104" x1="20.3" y1="6" x2="10.6518" y2="21.2556" gradientUnits="userSpaceOnUse">
<stop stop-color="#FB8C05"/>
<stop offset="0.479167" stop-color="#FE3400"/>
<stop offset="1" stop-color="#B6022F"/>
</linearGradient>
<linearGradient id="paint8_linear_16579_4104" x1="5.4104e-08" y1="4.04257" x2="8.45952" y2="5.61471" gradientUnits="userSpaceOnUse">
<stop stop-color="#D4016A" stop-opacity="0"/>
<stop offset="1" stop-color="#D4016A"/>
</linearGradient>
</defs>
</svg>
