<svg width="28" height="28" viewBox="0 0 28 28" fill="none" xmlns="http://www.w3.org/2000/svg">
<path d="M11.0976 20.7736C11.2429 20.4405 11.4036 20.1197 11.5152 19.7822C11.5482 19.6827 11.471 19.514 11.3973 19.4116C10.8078 18.5947 10.5916 17.6919 10.7762 16.6904C10.7919 16.608 10.814 16.527 10.8422 16.4482C10.8679 16.3942 10.8977 16.3423 10.9313 16.2931C11.6619 17.0185 11.8542 17.9169 11.9258 18.8997C12.1567 18.4671 12.3995 18.0344 12.6066 17.5852C12.6417 17.5095 12.5427 17.3487 12.4774 17.2463C11.8816 16.309 11.751 15.3205 12.1363 14.1834C12.8592 14.9282 13.0206 15.8064 13.0789 16.7726C13.3337 16.3811 13.5975 15.9954 13.8355 15.593C13.8734 15.5289 13.8081 15.3904 13.773 15.2924C13.4333 14.3363 13.4761 13.4076 13.9534 12.5085C14.0067 12.4075 14.0804 12.3181 14.1716 12.1825C14.6285 12.9937 14.6194 13.8034 14.4454 14.6341L14.5492 14.6838C14.7127 14.3954 14.9303 14.1315 15.0293 13.8243C15.39 12.6988 16.0687 11.8776 17.1144 11.3815C17.2751 11.3183 17.4391 11.2644 17.6057 11.22C17.5862 11.3873 17.5564 11.5533 17.5165 11.7168C17.1762 12.7911 16.515 13.5958 15.5086 14.0428C15.0735 14.2368 14.8398 14.5713 14.5962 14.9578C15.4033 14.5973 16.2168 14.3673 17.1614 14.6961C16.9832 14.8655 16.8554 15.0169 16.701 15.1287C15.9999 15.6543 15.2117 15.8706 14.3513 15.7192C14.098 15.6745 13.9639 15.7466 13.839 15.9564C13.6284 16.3133 13.3968 16.658 13.1933 17.0553C14.0972 16.6702 14.9963 16.4784 16.0301 16.924C15.7458 17.1245 15.5388 17.3091 15.3016 17.4288C14.6281 17.7842 13.8508 17.8722 13.1182 17.6761C12.914 17.6227 12.7968 17.6429 12.6971 17.8462C12.4866 18.2846 12.2507 18.7115 12.0451 19.1924C12.942 18.7432 13.8453 18.4872 14.8075 18.8456L14.9247 18.9999C14.8019 19.0616 14.6827 19.1305 14.5675 19.2061C13.8137 19.7534 12.9856 19.9726 12.076 19.7829C11.8282 19.7303 11.7124 19.801 11.6254 20.0302C11.3201 20.8364 11.0113 21.641 10.6857 22.4385C10.5509 22.7694 10.3684 23.0795 10.2133 23.4025C10.0982 23.6412 9.95928 23.6909 9.71224 23.5619C6.99337 22.158 5.14476 19.9863 4.3538 16.9608C2.94032 11.5531 5.87817 6.07326 11.0955 4.4567C17.1586 2.57626 23.0125 6.73083 23.8884 12.737C24.5902 17.5629 21.9233 22.2085 17.5187 23.8863C17.2674 23.9815 17.0274 24.1077 16.7824 23.8351C16.5375 23.5626 16.6077 23.3044 16.7123 23.0038C17.0632 21.9756 17.4141 20.9445 17.7327 19.9033C17.9278 19.2688 18.1047 19.098 18.7637 19.0381C19.3581 18.9855 19.9526 18.9314 20.5421 18.8449C21.0783 18.7663 21.2397 18.5521 21.2439 17.9984C21.2551 17.8534 21.2444 17.7075 21.2124 17.5658C21.1366 17.3148 21.2067 17.1202 21.371 16.9428C21.5352 16.7654 21.5689 16.6147 21.3808 16.4157C21.3204 16.3515 21.3211 16.1194 21.3808 16.0603C21.6033 15.8439 21.5731 15.6348 21.4236 15.4185C21.265 15.1892 21.312 15.0321 21.5331 14.8864C21.6892 14.7792 21.8361 14.6586 21.9724 14.5259C22.2356 14.2764 22.2125 14.1164 21.931 13.8928C21.4805 13.5323 21.0341 13.1718 20.6018 12.7882C20.321 12.5423 20.2361 12.2114 20.3281 11.8393C20.4775 11.2366 20.3035 10.7145 19.9975 10.1976C19.7409 9.75747 19.5167 9.29834 19.3266 8.82399C19.0283 8.08854 18.5545 7.55353 17.7924 7.36678C17.0779 7.19229 16.3508 7.07044 15.6265 6.94354C15.1352 6.85629 14.6313 6.81159 14.1366 6.72723C12.7933 6.50299 11.6254 6.88081 10.5804 7.75758C10.2705 8.01121 9.93555 8.23065 9.581 8.41228C9.29548 8.54814 9.06494 8.78192 8.929 9.07346C8.79878 9.3364 8.60556 9.56095 8.36754 9.726C7.83766 10.0865 7.3148 10.4261 6.95687 10.9965C6.83967 11.1846 6.60175 11.2993 6.40804 11.4291C5.8515 11.8054 5.6599 12.2597 5.86764 12.9144C6.00297 13.3227 6.02508 13.7615 5.9315 14.182C5.86926 14.5228 5.86096 14.8717 5.90694 15.2152C5.95607 15.6666 6.22417 15.991 6.63824 16.1525C6.94985 16.273 7.10426 16.4813 7.14917 16.813C7.21093 17.2687 7.43341 17.617 7.76116 17.9486C8.0657 18.275 8.31015 18.6554 8.48264 19.0713C8.6988 19.5637 8.98725 19.9033 9.49678 20.0858C9.97964 20.2581 10.4351 20.5126 10.9004 20.7282C10.9649 20.7486 11.0309 20.7638 11.0976 20.7736V20.7736Z" fill="#00DACC"/>
</svg>
