<svg width="28" height="28" viewBox="0 0 28 28" fill="none" xmlns="http://www.w3.org/2000/svg">
<path d="M4.00212 15.1541C4.0276 15.1159 4.05095 15.0766 4.07855 15.04C4.10907 14.997 4.1482 14.9607 4.19347 14.9336C4.23874 14.9065 4.28916 14.8891 4.34151 14.8825C4.39387 14.8759 4.44703 14.8803 4.49761 14.8953C4.54818 14.9104 4.59508 14.9358 4.63531 14.97C4.67593 15.004 4.70921 15.0459 4.73312 15.0932C4.75703 15.1404 4.77108 15.1921 4.7744 15.2449C4.77773 15.2978 4.77027 15.3508 4.75247 15.4007C4.73467 15.4506 4.70691 15.4964 4.67087 15.5352C4.63338 15.575 4.58788 15.6064 4.53736 15.6274C4.48684 15.6483 4.43246 15.6583 4.37779 15.6567C4.32313 15.6551 4.26942 15.642 4.22022 15.6181C4.17102 15.5942 4.12744 15.5602 4.09235 15.5182C4.05891 15.4789 4.03078 15.4344 4 15.3924L4.00212 15.1541Z" fill="#E0157B"/>
<path d="M16.0966 12.0084H10.2212C9.83112 12.0084 9.74354 11.9203 9.75257 11.527C9.80564 8.51664 12.0348 5.91013 15.0011 5.42609C17.2372 5.06146 19.1665 5.70738 20.7332 7.33944C21.782 8.43119 22.3441 9.75965 22.4359 11.2781C22.4438 11.4034 22.4624 11.5292 22.4582 11.6539C22.4502 11.8747 22.3303 11.9909 22.11 12.0074C22.0569 12.0111 22.0038 12.0074 21.9508 12.0074L16.0966 12.0084Z" fill="#53CAC7"/>
<path d="M16.0991 13.9H8.94937C8.88302 13.9 8.81668 13.9 8.75087 13.9C8.52742 13.8857 8.37563 13.7307 8.37404 13.5195C8.37244 13.3082 8.52636 13.148 8.74556 13.132C8.81137 13.1262 8.87772 13.1294 8.94406 13.1294H23.2594C23.3387 13.1261 23.4182 13.1284 23.4972 13.1363C23.5888 13.1509 23.672 13.1982 23.7315 13.2695C23.791 13.3407 23.8227 13.431 23.8207 13.5238C23.8188 13.6165 23.7833 13.7055 23.7209 13.7741C23.6586 13.8428 23.5734 13.8866 23.4813 13.8974C23.4152 13.9022 23.349 13.9037 23.2828 13.9016L16.0991 13.9Z" fill="#E0147B"/>
<path d="M15.2378 16.6297H21.5665C21.6325 16.6269 21.6987 16.6287 21.7644 16.635C21.8537 16.6478 21.9359 16.6909 21.9971 16.7571C22.0584 16.8233 22.095 16.9086 22.1009 16.9986C22.1031 17.0885 22.0749 17.1765 22.021 17.2485C21.9671 17.3205 21.8906 17.3723 21.8037 17.3956C21.7259 17.4103 21.6467 17.416 21.5675 17.4125C17.3474 17.4125 13.1274 17.4125 8.90759 17.4125C8.84812 17.415 8.78856 17.4138 8.72925 17.4088C8.62965 17.3966 8.5381 17.3479 8.47232 17.2721C8.40654 17.1964 8.3712 17.0989 8.37312 16.9986C8.37953 16.9019 8.42126 16.811 8.49036 16.7432C8.55947 16.6754 8.65111 16.6354 8.74783 16.6307C8.80674 16.626 8.86672 16.6307 8.92616 16.6307L15.2378 16.6297Z" fill="#E0147B"/>
<path d="M11.1511 14.8777C12.9117 14.8777 14.6722 14.8777 16.4325 14.8777C16.7807 14.8777 16.9813 15.1261 16.8662 15.4084C16.8416 15.4741 16.7993 15.5316 16.7441 15.5747C16.6888 15.6178 16.6227 15.6448 16.553 15.6526C16.4873 15.6595 16.4211 15.6616 16.355 15.6589C12.8804 15.6589 9.4056 15.6589 5.93061 15.6589C5.84497 15.6621 5.75927 15.6549 5.67532 15.6377C5.58862 15.6145 5.51269 15.5619 5.46055 15.4889C5.40842 15.4158 5.38334 15.3269 5.38962 15.2374C5.3959 15.1479 5.43314 15.0633 5.49496 14.9983C5.55677 14.9332 5.63931 14.8917 5.72839 14.8809C5.79442 14.8755 5.8607 14.874 5.9269 14.8766L11.1511 14.8777Z" fill="#E0147B"/>
<path d="M18.5979 18.3822H23.7993C23.8455 18.3822 23.8922 18.3795 23.9383 18.3822C24.1618 18.3997 24.321 18.5536 24.3284 18.7574C24.3359 18.9612 24.1644 19.139 23.9415 19.1602C23.8826 19.1661 23.8226 19.1629 23.7632 19.1629H13.283C12.9975 19.1586 12.8117 18.9984 12.8165 18.7611C12.8213 18.5239 12.9954 18.3816 13.2793 18.3816C15.0531 18.3813 16.8259 18.3815 18.5979 18.3822Z" fill="#E0147B"/>
<path d="M18.6565 20.9122C17.5775 20.9122 16.4985 20.9122 15.419 20.9122C15.247 20.9122 15.1037 20.8639 15.0098 20.7174C14.9779 20.6668 14.9586 20.6093 14.9535 20.5497C14.9484 20.4902 14.9576 20.4302 14.9804 20.3749C15.0031 20.3196 15.0387 20.2705 15.0843 20.2318C15.1298 20.1931 15.184 20.1658 15.2422 20.1522C15.3268 20.1367 15.4127 20.1304 15.4986 20.1336H21.8145C21.8538 20.1336 21.8936 20.1336 21.9334 20.1336C22.1818 20.149 22.3474 20.3103 22.341 20.529C22.3346 20.7477 22.1542 20.9085 21.9132 20.909C21.0062 20.9122 20.0996 20.909 19.1926 20.909L18.6565 20.9122Z" fill="#E0147B"/>
<path d="M14.6091 21.8909H17.8227C18.1237 21.8909 18.2956 22.0316 18.2951 22.2746C18.2951 22.5071 18.1014 22.6716 17.8201 22.6716C15.678 22.6716 13.5357 22.6716 11.3933 22.6716C11.3211 22.6764 11.2487 22.6657 11.181 22.6403C10.9856 22.5554 10.8843 22.3893 10.9188 22.2019C10.9533 22.0146 11.0987 21.892 11.3179 21.8914C12.1443 21.8888 12.9712 21.8914 13.7975 21.8914L14.6091 21.8909Z" fill="#E0147B"/>
<path d="M9.10498 18.3822C9.91278 18.3822 10.7202 18.3822 11.5273 18.3822C11.6 18.3811 11.6726 18.3865 11.7444 18.3981C11.9248 18.4305 12.0183 18.5521 12.0411 18.7251C12.0535 18.801 12.0409 18.8789 12.0052 18.9471C11.9695 19.0152 11.9126 19.0699 11.8431 19.103C11.7543 19.148 11.6554 19.169 11.556 19.164H6.65185C6.55228 19.1711 6.45262 19.1515 6.36313 19.1072C6.21027 19.0212 6.12801 18.8901 6.1572 18.7134C6.1654 18.6334 6.20028 18.5585 6.25621 18.5008C6.31215 18.443 6.38588 18.4057 6.46556 18.395C6.53088 18.385 6.59696 18.381 6.663 18.3828L9.10498 18.3822Z" fill="#E0147B"/>
<path d="M7.37017 17.4119C7.29275 17.4109 7.21738 17.3868 7.15362 17.3429C7.08986 17.299 7.04057 17.2371 7.01199 17.1652C6.98342 17.0932 6.97684 17.0144 6.99309 16.9387C7.00935 16.863 7.0477 16.7938 7.1033 16.7399C7.1589 16.686 7.22924 16.6499 7.30542 16.636C7.38159 16.6221 7.46017 16.6311 7.5312 16.6619C7.60224 16.6928 7.66253 16.744 7.70444 16.8091C7.74635 16.8742 7.768 16.9502 7.76664 17.0277C7.76242 17.1303 7.71893 17.2275 7.64514 17.299C7.57136 17.3705 7.47292 17.4109 7.37017 17.4119Z" fill="#E0167C"/>
<path d="M7.76709 13.5227C7.76189 13.6248 7.71684 13.7208 7.64161 13.7901C7.56639 13.8594 7.46698 13.8965 7.36475 13.8933C7.26252 13.8901 7.16562 13.8469 7.09487 13.773C7.02412 13.6992 6.98516 13.6005 6.98636 13.4982C6.99155 13.3961 7.0366 13.3001 7.11183 13.2308C7.18706 13.1615 7.28646 13.1244 7.38869 13.1276C7.49092 13.1308 7.58782 13.174 7.65857 13.2479C7.72932 13.3217 7.76829 13.4204 7.76709 13.5227Z" fill="#E0157C"/>
<path d="M14.3431 20.5254C14.3425 20.5761 14.3319 20.6262 14.312 20.6729C14.292 20.7196 14.263 20.7618 14.2267 20.7973C14.1905 20.8327 14.1475 20.8607 14.1004 20.8796C14.0533 20.8984 14.003 20.9078 13.9522 20.9073C13.9015 20.9067 13.8513 20.8961 13.8047 20.8761C13.758 20.8562 13.7158 20.8272 13.6803 20.7909C13.6449 20.7546 13.6169 20.7117 13.598 20.6646C13.5792 20.6175 13.5697 20.5671 13.5703 20.5164C13.5733 20.4162 13.6146 20.3211 13.6857 20.2506C13.7569 20.18 13.8523 20.1395 13.9525 20.1374C14.0038 20.1364 14.0549 20.1457 14.1025 20.1648C14.1502 20.184 14.1935 20.2125 14.23 20.2486C14.2664 20.2848 14.2952 20.328 14.3146 20.3755C14.3341 20.4231 14.3438 20.474 14.3431 20.5254Z" fill="#E0157B"/>
<path d="M10.3035 22.2747C10.3035 22.3257 10.2934 22.3763 10.2739 22.4235C10.2543 22.4707 10.2256 22.5136 10.1895 22.5498C10.1534 22.5859 10.1105 22.6145 10.0633 22.6341C10.0161 22.6536 9.96552 22.6637 9.91443 22.6637C9.86334 22.6637 9.81275 22.6536 9.76555 22.6341C9.71835 22.6145 9.67546 22.5859 9.63934 22.5498C9.60321 22.5136 9.57456 22.4707 9.555 22.4235C9.53545 22.3763 9.52539 22.3257 9.52539 22.2747C9.52539 22.1715 9.56638 22.0725 9.63934 21.9996C9.7123 21.9266 9.81125 21.8856 9.91443 21.8856C10.0176 21.8856 10.1166 21.9266 10.1895 21.9996C10.2625 22.0725 10.3035 22.1715 10.3035 22.2747Z" fill="#E0157B"/>
<path d="M5.54413 18.7729C5.5418 18.8763 5.49937 18.9748 5.4258 19.0476C5.35223 19.1204 5.25326 19.1618 5.14978 19.163C5.0466 19.163 4.94765 19.122 4.87469 19.049C4.80173 18.9761 4.76074 18.8771 4.76074 18.7739C4.76074 18.6707 4.80173 18.5718 4.87469 18.4988C4.94765 18.4259 5.0466 18.3849 5.14978 18.3849C5.25319 18.3851 5.35238 18.4259 5.4261 18.4984C5.49981 18.571 5.54218 18.6695 5.54413 18.7729Z" fill="#E0167C"/>
</svg>
