<svg width="28" height="28" viewBox="0 0 28 28" fill="none" xmlns="http://www.w3.org/2000/svg">
<path d="M7.32967 13.8475C7.16019 12.5845 7.22025 11.3643 7.7132 10.1869C8.57245 8.13545 10.0632 6.77553 12.2068 6.21895C15.4541 5.37516 18.7532 7.03181 20.0376 10.1501C20.524 11.3304 20.6013 12.5464 20.4372 13.791C20.4105 13.9131 20.3406 14.0214 20.2403 14.0961C19.0653 14.9648 17.7619 15.1384 16.3592 14.8233C15.5267 14.6372 14.8791 14.1347 14.2137 13.6602C13.5971 13.2208 12.9614 12.8188 12.2122 12.6672C10.7351 12.3698 9.32406 12.503 8.04977 13.3914C7.83927 13.5381 7.62738 13.6832 7.4141 13.8267C7.38692 13.8371 7.35856 13.8441 7.32967 13.8475Z" fill="#F2B705"/>
<path d="M17.3945 16.6803C16.46 16.6442 15.556 16.3381 14.7917 15.7991C14.2536 15.4144 13.7214 14.9951 13.1268 14.718C11.5563 13.9849 9.99068 14.0372 8.48863 14.9523C8.19132 15.1307 7.91838 15.3448 7.62879 15.5333C7.39094 15.6855 7.18163 15.6522 7.0633 15.4512C6.93604 15.2318 7.00978 15.0552 7.20304 14.9119C8.10034 14.2489 9.03094 13.6667 10.1762 13.5294C11.5022 13.37 12.7569 13.543 13.8992 14.275C14.3571 14.5682 14.8013 14.8822 15.2484 15.1914C16.6119 16.1339 18.5677 16.1541 19.9508 15.2372C20.0988 15.139 20.2433 15.0344 20.3932 14.9398C20.596 14.8096 20.7969 14.8066 20.9355 15.0231C21.0663 15.2288 21.0068 15.4138 20.813 15.566C19.8699 16.3045 18.8031 16.6857 17.3945 16.6803Z" fill="#57C8C4"/>
<path d="M11.0237 19.4644C11.0237 18.2264 11.0237 16.9882 11.0237 15.7498C11.0237 15.6409 10.9946 15.5054 11.0469 15.4299C11.1331 15.3038 11.2705 15.1421 11.3948 15.1325C11.519 15.123 11.6873 15.264 11.7706 15.3841C11.8401 15.4846 11.83 15.6511 11.83 15.7884C11.83 18.2351 11.8279 20.682 11.8235 23.1292C11.8235 23.2856 11.8372 23.4693 11.764 23.5906C11.6909 23.7119 11.5083 23.8386 11.3853 23.8285C11.2622 23.8183 11.1355 23.653 11.0493 23.5311C11.0017 23.4633 11.0303 23.3391 11.0303 23.2404C11.0303 21.9821 11.0303 20.7239 11.0303 19.4656L11.0237 19.4644Z" fill="#57C8C4"/>
<path d="M16.7233 19.8016C16.7233 20.4348 16.7233 21.0681 16.7233 21.7044C16.7233 22.0445 16.5829 22.2152 16.3219 22.2128C16.084 22.2128 15.9241 22.0308 15.9235 21.7222C15.9187 20.4457 15.9187 19.1689 15.9235 17.8916C15.9235 17.495 16.2291 17.2672 16.5098 17.4587C16.6228 17.536 16.7102 17.7298 16.7149 17.8749C16.7358 18.5142 16.7233 19.1582 16.7233 19.8016Z" fill="#57C8C4"/>
<path d="M9.37612 17.5711C9.37612 17.0066 9.37612 16.4424 9.37612 15.8787C9.37295 15.7794 9.37792 15.6799 9.39099 15.5814C9.42905 15.3519 9.56105 15.183 9.79891 15.1866C10.0278 15.1901 10.1307 15.3739 10.1753 15.582C10.1854 15.6409 10.1892 15.7007 10.1866 15.7604C10.1866 16.9871 10.1902 18.2145 10.1866 19.4418C10.1866 19.7736 10.0332 19.9769 9.80188 19.9817C9.55511 19.9859 9.38088 19.7754 9.37791 19.4406C9.37137 18.8174 9.37791 18.1919 9.37791 17.5705L9.37612 17.5711Z" fill="#57C8C4"/>
<path d="M17.5595 19.6232C17.5595 19.088 17.5595 18.5528 17.5595 18.0212C17.5595 17.7239 17.7272 17.5402 17.9693 17.5455C18.2006 17.5521 18.3552 17.7239 18.3564 18.0141C18.3611 19.1213 18.3611 20.2289 18.3564 21.3369C18.3564 21.6015 18.2006 21.7531 17.9591 21.7573C17.7177 21.7615 17.5631 21.6069 17.5595 21.3411C17.553 20.7678 17.5595 20.194 17.5595 19.6202V19.6232Z" fill="#57C8C4"/>
<path d="M13.4551 17.6318C13.4551 18.0575 13.4592 18.4833 13.4551 18.909C13.4503 19.2373 13.2963 19.4323 13.0543 19.4359C12.8224 19.4395 12.6505 19.2379 12.6482 18.9108C12.6418 18.0387 12.6438 17.1666 12.6541 16.2944C12.6583 15.9507 12.8188 15.7724 13.0644 15.7842C13.31 15.7961 13.4503 15.9882 13.4545 16.3194C13.4586 16.76 13.4551 17.1959 13.4551 17.6318Z" fill="#57C8C4"/>
<path d="M8.54365 17.8695C8.54365 18.3155 8.549 18.7615 8.54365 19.2075C8.53829 19.5149 8.3831 19.6998 8.14762 19.707C7.91215 19.7141 7.751 19.5417 7.74743 19.22C7.73911 18.3185 7.74069 17.4168 7.75219 16.515C7.75576 16.2105 7.90739 16.0559 8.14821 16.0625C8.37418 16.0684 8.51986 16.2408 8.54186 16.5322C8.54186 16.5619 8.54186 16.5917 8.54186 16.6214C8.54365 17.0377 8.54305 17.4533 8.54365 17.8695Z" fill="#57C8C4"/>
<path d="M20.0191 18.2942C20.0191 18.5213 20.0256 18.7485 20.0191 18.975C20.009 19.2319 19.8241 19.4329 19.6106 19.4365C19.3971 19.44 19.2187 19.2527 19.2146 18.9792C19.2086 18.5154 19.2146 18.0516 19.2146 17.5884C19.2146 17.3297 19.3436 17.1721 19.607 17.1721C19.8704 17.1721 20.0001 17.3339 20.0108 17.5884C20.0209 17.8262 20.0108 18.0641 20.0108 18.2984L20.0191 18.2942Z" fill="#57C8C4"/>
<path d="M15.0702 17.5419C15.0702 17.6697 15.0797 17.7982 15.0702 17.9254C15.0688 17.9728 15.0581 18.0194 15.0387 18.0626C15.0193 18.1057 14.9916 18.1447 14.9571 18.1772C14.9227 18.2096 14.8821 18.235 14.8379 18.2518C14.7936 18.2686 14.7465 18.2765 14.6991 18.2751C14.4803 18.2816 14.3186 18.1508 14.3031 17.9183C14.2831 17.6437 14.2845 17.3679 14.3073 17.0935C14.3263 16.8854 14.4672 16.7594 14.689 16.7635C14.9108 16.7677 15.0458 16.8825 15.0684 17.0977C15.0774 17.2456 15.078 17.3939 15.0702 17.5419Z" fill="#57C8C4"/>
</svg>
