<svg width="28" height="28" viewBox="0 0 28 28" fill="none" xmlns="http://www.w3.org/2000/svg">
<path d="M5.42339 13.6835C5.20559 12.1251 5.28278 10.6194 5.91632 9.16658C7.02064 6.63514 8.93657 4.95706 11.6916 4.27027C15.8651 3.22908 20.1051 5.2733 21.7558 9.12109C22.381 10.5776 22.4803 12.0781 22.2694 13.6138C22.2351 13.7645 22.1452 13.8982 22.0164 13.9903C20.5063 15.0623 18.8311 15.2765 17.0283 14.8876C15.9583 14.658 15.1261 14.038 14.2709 13.4524C13.4784 12.9102 12.6614 12.4142 11.6985 12.2271C9.80016 11.8602 7.98663 12.0245 6.34888 13.1208C6.07834 13.3018 5.80602 13.4808 5.53192 13.6579C5.49698 13.6707 5.46053 13.6793 5.42339 13.6835Z" fill="#F2B705"/>
<path d="M18.3591 17.179C17.1581 17.1344 15.9963 16.7567 15.0141 16.0916C14.3225 15.6169 13.6385 15.0996 12.8742 14.7577C10.8559 13.8529 8.84367 13.9175 6.91322 15.0468C6.5311 15.2669 6.18032 15.531 5.80814 15.7636C5.50244 15.9515 5.23343 15.9104 5.08135 15.6624C4.9178 15.3916 5.01257 15.1737 5.26094 14.9969C6.41417 14.1787 7.6102 13.4604 9.08211 13.2909C10.7864 13.0943 12.3989 13.3078 13.867 14.211C14.4554 14.5728 15.0263 14.9602 15.601 15.3417C17.3534 16.5047 19.867 16.5297 21.6446 15.3982C21.8349 15.2772 22.0206 15.148 22.2132 15.0314C22.4738 14.8707 22.7321 14.867 22.9101 15.1341C23.0783 15.388 23.0019 15.6162 22.7527 15.804C21.5406 16.7153 20.1696 17.1856 18.3591 17.179Z" fill="#57C8C4"/>
<path d="M10.1715 20.6145C10.1715 19.0868 10.1715 17.5589 10.1715 16.0308C10.1715 15.8965 10.1341 15.7292 10.2013 15.636C10.3121 15.4804 10.4887 15.2809 10.6484 15.2691C10.8081 15.2574 11.0244 15.4313 11.1314 15.5795C11.2208 15.7035 11.2078 15.9089 11.2078 16.0784C11.2078 19.0976 11.205 22.117 11.1994 25.1366C11.1994 25.3296 11.217 25.5563 11.123 25.706C11.029 25.8557 10.7944 26.012 10.6362 25.9995C10.478 25.987 10.3152 25.783 10.2044 25.6326C10.1433 25.549 10.1799 25.3956 10.1799 25.2738C10.1799 23.7212 10.1799 22.1686 10.1799 20.616L10.1715 20.6145Z" fill="#57C8C4"/>
<path d="M17.4963 21.0305C17.4963 21.8119 17.4963 22.5934 17.4963 23.3785C17.4963 23.7982 17.316 24.0088 16.9805 24.0058C16.6748 24.0058 16.4692 23.7813 16.4685 23.4005C16.4623 21.8254 16.4623 20.2498 16.4685 18.6737C16.4685 18.1843 16.8613 17.9032 17.222 18.1395C17.3672 18.2349 17.4795 18.4741 17.4856 18.6531C17.5124 19.4419 17.4963 20.2366 17.4963 21.0305Z" fill="#57C8C4"/>
<path d="M8.0532 18.2781C8.0532 17.5815 8.0532 16.8854 8.0532 16.1898C8.04913 16.0673 8.05552 15.9446 8.07231 15.823C8.12122 15.5397 8.29088 15.3314 8.59657 15.3358C8.8908 15.3402 9.02301 15.5669 9.08033 15.8237C9.09327 15.8964 9.09814 15.9702 9.09485 16.0438C9.09485 17.5576 9.09944 19.072 9.09485 20.5865C9.09485 20.9959 8.89768 21.2469 8.60039 21.2527C8.28324 21.2579 8.05932 20.9981 8.05549 20.585C8.04709 19.816 8.05549 19.0441 8.05549 18.2774L8.0532 18.2781Z" fill="#57C8C4"/>
<path d="M18.5711 20.8103C18.5711 20.1499 18.5711 19.4896 18.5711 18.8336C18.5711 18.4667 18.7866 18.24 19.0977 18.2466C19.395 18.2547 19.5937 18.4667 19.5952 18.8248C19.6013 20.191 19.6013 21.5578 19.5952 22.925C19.5952 23.2515 19.395 23.4386 19.0847 23.4438C18.7744 23.4489 18.5757 23.2581 18.5711 22.9301C18.5627 22.2228 18.5711 21.5147 18.5711 20.8067V20.8103Z" fill="#57C8C4"/>
<path d="M13.2956 18.3531C13.2956 18.8784 13.301 19.4038 13.2956 19.9292C13.2895 20.3342 13.0916 20.5749 12.7805 20.5793C12.4825 20.5837 12.2616 20.3349 12.2586 19.9314C12.2504 18.8552 12.253 17.779 12.2662 16.7029C12.2716 16.2788 12.4779 16.0586 12.7935 16.0733C13.1092 16.088 13.2895 16.325 13.2949 16.7337C13.3002 17.2774 13.2956 17.8152 13.2956 18.3531Z" fill="#57C8C4"/>
<path d="M6.98317 18.6465C6.98317 19.1968 6.99005 19.7471 6.98317 20.2974C6.9763 20.6768 6.77683 20.905 6.47419 20.9138C6.17156 20.9226 5.96445 20.7098 5.95987 20.3128C5.94917 19.2005 5.9512 18.0879 5.96598 16.975C5.97056 16.5993 6.16544 16.4086 6.47496 16.4166C6.76537 16.424 6.9526 16.6368 6.98088 16.9963C6.98088 17.033 6.98088 17.0697 6.98088 17.1064C6.98317 17.62 6.98241 18.1329 6.98317 18.6465Z" fill="#57C8C4"/>
<path d="M21.7327 19.1705C21.7327 19.4508 21.7411 19.7311 21.7327 20.0106C21.7197 20.3276 21.482 20.5756 21.2077 20.58C20.9333 20.5844 20.7041 20.3533 20.6987 20.0158C20.6911 19.4434 20.6987 18.8711 20.6987 18.2995C20.6987 17.9803 20.8645 17.7859 21.2031 17.7859C21.5417 17.7859 21.7083 17.9855 21.722 18.2995C21.735 18.593 21.722 18.8865 21.722 19.1756L21.7327 19.1705Z" fill="#57C8C4"/>
<path d="M15.3721 18.2422C15.3721 18.4 15.3843 18.5585 15.3721 18.7155C15.3703 18.7739 15.3565 18.8314 15.3316 18.8847C15.3067 18.938 15.271 18.986 15.2268 19.0261C15.1825 19.0662 15.1304 19.0975 15.0735 19.1182C15.0166 19.1389 14.956 19.1487 14.8952 19.1469C14.614 19.155 14.4061 18.9936 14.3862 18.7067C14.3605 18.3678 14.3623 18.0276 14.3916 17.689C14.416 17.4322 14.5971 17.2766 14.8822 17.2817C15.1673 17.2869 15.3407 17.4285 15.3698 17.6941C15.3814 17.8766 15.3821 18.0596 15.3721 18.2422Z" fill="#57C8C4"/>
</svg>
