<svg width="28" height="28" viewBox="0 0 28 28" fill="none" xmlns="http://www.w3.org/2000/svg">
<path opacity="0.2" d="M13.3108 13.3126C13.8929 13.452 14.4995 13.452 15.0734 13.3126C15.4014 11.9681 16.4508 10.9187 17.7953 10.5907C18.279 8.59854 17.0656 6.58993 15.0734 6.10623C13.0812 5.62252 11.0808 6.83588 10.5889 8.82809C10.4495 9.41018 10.4495 10.0169 10.5889 10.5907C11.9334 10.9269 12.9828 11.9763 13.3108 13.3126Z" fill="#0058E3"/>
<path opacity="0.6" d="M15.081 15.0834C14.4989 14.944 13.8922 14.944 13.3183 15.0834C12.9904 16.4279 11.941 17.4773 10.5965 17.8053C10.1128 19.7975 11.3261 21.8061 13.3183 22.2898C15.3105 22.7735 17.3191 21.5601 17.8028 19.5679C17.9422 18.9858 17.9422 18.3874 17.8028 17.8053C16.4583 17.4691 15.4089 16.4197 15.081 15.0834Z" fill="#0058E3"/>
<path opacity="0.4" d="M18.6806 10.4841C18.3854 10.4841 18.0903 10.5169 17.7951 10.5907C17.4672 11.9352 16.4178 12.9846 15.0733 13.3126C14.9339 13.8947 14.9339 14.5013 15.0733 15.0752C16.4178 15.4032 17.4672 16.4526 17.7951 17.7971C19.7874 18.2808 21.796 17.0674 22.2797 15.0752C22.7634 13.083 21.55 11.0744 19.5578 10.5907C19.2791 10.5251 18.9839 10.4841 18.6806 10.4841Z" fill="#0058E3"/>
<path opacity="0.8" d="M13.3107 15.0838C13.45 14.5017 13.45 13.895 13.3107 13.3212C11.9743 12.985 10.9249 11.9356 10.5888 10.5911C8.59658 10.1074 6.58798 11.3207 6.10427 13.313C5.62057 15.3052 6.83393 17.3138 8.82614 17.8057C9.40823 17.9451 10.0067 17.9451 10.5888 17.8057C10.9249 16.4611 11.9661 15.4117 13.3107 15.0838Z" fill="#0058E3"/>
<path opacity="0.6" d="M15.0811 13.3124C16.4256 12.9845 17.475 11.9351 17.8029 10.5906C16.4584 10.9267 15.409 11.9761 15.0811 13.3124Z" fill="#0058E3"/>
<path opacity="0.8" d="M15.0811 15.0833C15.409 16.4278 16.4584 17.4772 17.8029 17.8051C17.4668 16.4606 16.4256 15.4112 15.0811 15.0833Z" fill="#0058E3"/>
<path opacity="0.9" d="M13.3107 13.3124C12.9828 11.9761 11.9334 10.9267 10.5889 10.5906C10.925 11.9351 11.9744 12.9845 13.3107 13.3124Z" fill="#0058E3"/>
<path opacity="0.9" d="M13.3107 15.0833C11.9662 15.4112 10.9168 16.4606 10.5889 17.8051C11.9334 17.469 12.9828 16.4196 13.3107 15.0833Z" fill="#0058E3"/>
</svg>
