<svg width="28" height="28" viewBox="0 0 28 28" fill="none" xmlns="http://www.w3.org/2000/svg">
<path d="M16.67 16.87L11.35 16.8756L11.2744 16.7923C11.2744 15.159 11.2756 13.5256 11.2779 11.8923C11.2779 11.4436 11.3115 11.4093 11.7525 11.4093C13.2456 11.4093 14.7387 11.4093 16.2325 11.4128C16.3809 11.4253 16.528 11.4506 16.6721 11.4884L16.6609 11.4772C16.6966 11.5475 16.7214 11.6228 16.7344 11.7005C16.7344 13.4113 16.7295 15.1223 16.7197 16.8336C16.704 16.8469 16.6874 16.859 16.67 16.87Z" fill="black"/>
<path d="M8.59419 11.48C7.80249 11.48 7.01009 11.4737 6.21839 11.4849C5.97479 11.4884 5.88379 11.3862 5.88379 11.1615C5.88379 9.55385 5.88379 7.94641 5.88379 6.33921C5.88379 6.04101 6.09869 6.02001 6.32059 6.02001H9.60569C10.06 6.02001 10.5157 6.02631 10.9686 6.02001C11.2318 6.01581 11.3466 6.12711 11.3459 6.39311C11.3417 7.98911 11.3417 9.58511 11.3459 11.1811C11.3459 11.4093 11.2654 11.4877 11.0393 11.4849C10.2238 11.4744 9.40969 11.48 8.59419 11.48Z" fill="black"/>
<path d="M16.6675 11.4891C16.6324 11.2872 16.6091 11.0834 16.5975 10.8787C16.5912 9.43393 16.594 7.98913 16.5975 6.54503C16.5975 6.10473 16.6794 6.02283 17.1253 6.02283C18.6051 6.02283 20.0847 6.02283 21.564 6.02283C22.0085 6.02283 22.0652 6.08163 22.0652 6.52753C22.0652 8.05353 22.0603 9.57953 22.0694 11.1062C22.0694 11.3862 21.977 11.5066 21.69 11.5038C20.01 11.4905 18.3356 11.4856 16.6584 11.4786L16.6675 11.4891Z" fill="black"/>
<path d="M11.2742 16.7924L11.3554 16.8736C11.3526 18.5069 11.35 20.1402 11.3477 21.7736C11.3477 22.1936 11.284 22.2636 10.8675 22.2636C9.37413 22.2636 7.8808 22.2636 6.38746 22.2636C5.94996 22.2636 5.88696 22.1936 5.88696 21.761C5.88696 20.256 5.89606 18.751 5.87996 17.2467C5.87646 16.8967 5.98636 16.7903 6.33986 16.7938C7.98416 16.8057 9.62636 16.7938 11.2742 16.7924Z" fill="black"/>
<path d="M16.6702 16.87C16.6861 16.8598 16.7013 16.8486 16.7157 16.8364C16.8182 16.8199 16.9215 16.8089 17.0251 16.8035C18.5763 16.8035 20.1282 16.8084 21.6794 16.7965C21.9664 16.7965 22.0693 16.8777 22.0672 17.171C22.0574 18.7343 22.0574 20.2977 22.0672 21.861C22.0672 22.1676 21.9398 22.2677 21.6472 22.2663C20.1184 22.2593 18.5901 22.2593 17.0622 22.2663C16.75 22.2663 16.5904 22.148 16.5918 21.8218C16.5953 20.2699 16.5918 18.718 16.5967 17.1668C16.6094 17.0653 16.6341 16.9657 16.6702 16.87Z" fill="black"/>
</svg>
