<svg width="28" height="28" viewBox="0 0 28 28" fill="none" xmlns="http://www.w3.org/2000/svg">
<path d="M17.0076 17.2123L11.0197 17.2186L10.9346 17.1249C10.9346 15.2865 10.9359 13.4481 10.9385 11.6097C10.9385 11.1046 10.9763 11.066 11.4727 11.066C13.1533 11.066 14.8338 11.066 16.5152 11.07C16.6822 11.0841 16.8478 11.1125 17.0099 11.1551L16.9973 11.1425C17.0376 11.2215 17.0655 11.3063 17.0801 11.3938C17.0801 13.3194 17.0746 15.2452 17.0635 17.1714C17.0458 17.1863 17.0271 17.2 17.0076 17.2123Z" fill="black"/>
<path d="M7.91885 11.1456C7.02776 11.1456 6.13587 11.1385 5.24477 11.1511C4.97059 11.1551 4.86816 11.0401 4.86816 10.7871C4.86816 8.97763 4.86816 7.16839 4.86816 5.3594C4.86816 5.02377 5.11004 5.00013 5.3598 5.00013H9.05735C9.56868 5.00013 10.0816 5.00722 10.5914 5.00013C10.8876 4.9954 11.0168 5.12068 11.016 5.42007C11.0113 7.21645 11.0113 9.01283 11.016 10.8092C11.016 11.0661 10.9254 11.1543 10.6709 11.1511C9.75305 11.1393 8.83674 11.1456 7.91885 11.1456Z" fill="black"/>
<path d="M17.0059 11.1559C16.9664 10.9286 16.9401 10.6992 16.9271 10.4689C16.92 8.84266 16.9231 7.21646 16.9271 5.59106C16.9271 5.09548 17.0193 5.0033 17.5211 5.0033C19.1867 5.0033 20.852 5.0033 22.5171 5.0033C23.0174 5.0033 23.0812 5.06948 23.0812 5.57136C23.0812 7.28895 23.0757 9.00654 23.086 10.7249C23.086 11.0401 22.982 11.1756 22.6589 11.1724C20.768 11.1575 18.8834 11.1519 16.9956 11.1441L17.0059 11.1559Z" fill="black"/>
<path d="M10.9348 17.1249L11.0262 17.2163C11.0231 19.0547 11.0202 20.8931 11.0175 22.7315C11.0175 23.2042 10.9458 23.283 10.4771 23.283C8.79623 23.283 7.11541 23.283 5.43459 23.283C4.94216 23.283 4.87125 23.2042 4.87125 22.7173C4.87125 21.0233 4.88149 19.3294 4.86337 17.6362C4.85943 17.2423 4.98313 17.1225 5.38101 17.1265C7.23175 17.1398 9.08013 17.1265 10.9348 17.1249Z" fill="black"/>
<path d="M17.0082 17.2124C17.026 17.2008 17.0431 17.1882 17.0594 17.1745C17.1747 17.1559 17.291 17.1436 17.4076 17.1375C19.1536 17.1375 20.9003 17.143 22.6463 17.1296C22.9693 17.1296 23.0851 17.221 23.0828 17.5512C23.0717 19.3108 23.0717 21.0704 23.0828 22.83C23.0828 23.1751 22.9394 23.2877 22.61 23.2862C20.8893 23.2783 19.1691 23.2783 17.4494 23.2862C17.098 23.2862 16.9184 23.153 16.9199 22.7859C16.9239 21.0391 16.9199 19.2924 16.9254 17.5464C16.9397 17.4322 16.9675 17.3201 17.0082 17.2124Z" fill="black"/>
</svg>
