<svg width="28" height="28" viewBox="0 0 28 28" fill="none" xmlns="http://www.w3.org/2000/svg">
<path fill-rule="evenodd" clip-rule="evenodd" d="M12.5538 10.3648C12.0966 9.99671 11.5598 9.78219 10.9057 9.70482C10.7146 9.68255 10.295 9.67317 10.1062 9.68723C8.6867 9.79274 7.5227 10.5219 6.75491 11.7879C6.41145 12.3541 6.16881 13.0352 6.04104 13.7925C5.97657 14.1782 5.96602 14.313 5.96484 14.7397C5.96484 15.1722 5.97774 15.3282 6.04104 15.6423C6.30947 16.981 7.16518 17.8602 8.43937 18.1087C8.71952 18.1627 8.90356 18.1791 9.24702 18.1779C9.67956 18.1779 9.94799 18.1451 10.3372 18.0454C11.7016 17.6973 12.8011 16.6376 13.3193 15.1734C13.6662 14.1911 13.7706 13.0903 13.6006 12.2228C13.4494 11.4527 13.0719 10.781 12.5538 10.3648ZM10.1133 11.094C9.86946 11.1174 9.60923 11.1901 9.3994 11.2921C8.6574 11.6543 8.12991 12.537 7.92243 13.7608C7.82865 14.3165 7.79349 15.0116 7.84037 15.3821C7.93532 16.1405 8.27995 16.5954 8.87074 16.7395C9.12628 16.8017 9.49904 16.804 9.77803 16.7442C10.7263 16.5438 11.3992 15.674 11.6723 14.2942C11.7145 14.0785 11.7684 13.6823 11.7977 13.3681C11.827 13.0387 11.8247 12.5944 11.7907 12.3846C11.7309 12.0071 11.602 11.7117 11.4039 11.496C11.2187 11.2932 10.9737 11.1643 10.6736 11.1115C10.5482 11.0893 10.2575 11.0799 10.1133 11.094Z" fill="#FC252E"/>
<path fill-rule="evenodd" clip-rule="evenodd" d="M21.4098 10.5336C20.9316 10.053 20.3056 9.78219 19.4921 9.70482C19.3538 9.69193 18.9482 9.68606 17.6084 9.6802L15.9004 9.672L15.8934 9.70013C15.8899 9.71537 15.5418 11.6144 15.1198 13.9191C14.8379 15.4582 14.5885 16.8185 14.4529 17.5583L14.3449 18.1474L14.3379 18.1861H16.1443L16.156 18.124C16.1806 18.0032 16.6964 15.2062 16.6964 15.1969C16.6964 15.1898 17.1125 15.1863 17.7256 15.1887C18.8474 15.191 18.9013 15.1887 19.3104 15.1195C20.0864 14.9894 20.7428 14.6752 21.2398 14.1969C21.6923 13.762 21.9467 13.2497 22.0381 12.5944C22.0662 12.3858 22.0662 11.9673 22.0381 11.7914C21.9537 11.2792 21.7544 10.8794 21.4098 10.5336ZM17.2364 12.2298L17.2367 12.2286L17.2371 12.2263L17.2373 12.2252C17.3503 11.6141 17.4387 11.1362 17.4419 11.1256C17.4478 11.1068 17.4993 11.1057 18.3175 11.1057C18.8802 11.1057 19.2248 11.1104 19.2928 11.1186C19.5718 11.1526 19.8215 11.271 19.9786 11.4421C20.0958 11.5699 20.172 11.7094 20.22 11.8852C20.2505 11.9942 20.2552 12.3002 20.2306 12.4608C20.1274 13.1208 19.6539 13.5862 18.94 13.7304C18.7173 13.7749 18.5836 13.7796 17.7479 13.7714L16.9531 13.7632L16.959 13.7327C16.9625 13.7163 17.0715 13.1266 17.2004 12.4245L17.2364 12.2298Z" fill="#FC252E"/>
</svg>
