<svg width="28" height="28" viewBox="0 0 28 28" fill="none" xmlns="http://www.w3.org/2000/svg">
<path fill-rule="evenodd" clip-rule="evenodd" d="M12.0067 8.97646C11.3818 8.45766 10.6479 8.15531 9.75382 8.04626C9.49264 8.01487 8.91901 8.00165 8.66103 8.02148C6.72061 8.17018 5.1295 9.19785 4.07997 10.9822C3.61049 11.7803 3.27881 12.7402 3.10415 13.8075C3.01602 14.3511 3.0016 14.5411 3 15.1425C3 15.7522 3.01763 15.9719 3.10415 16.4147C3.47109 18.3015 4.64079 19.5407 6.38252 19.891C6.76548 19.967 7.01704 19.9901 7.48653 19.9884C8.07778 19.9884 8.44472 19.9422 8.97669 19.8017C10.8418 19.311 12.3448 17.8174 13.053 15.7538C13.5273 14.3693 13.6699 12.8178 13.4376 11.5952C13.2309 10.5097 12.7149 9.56299 12.0067 8.97646ZM8.67065 10.0041C8.33737 10.0372 7.98165 10.1396 7.69483 10.2834C6.68056 10.7939 5.95951 12.038 5.6759 13.7629C5.54771 14.5461 5.49964 15.5258 5.56373 16.0479C5.69352 17.1169 6.16461 17.7579 6.97218 17.9612C7.32149 18.0487 7.83103 18.052 8.21238 17.9678C9.50867 17.6852 10.4284 16.4593 10.8017 14.5147C10.8594 14.2107 10.9331 13.6522 10.9732 13.2094C11.0133 12.7451 11.01 12.119 10.9636 11.8232C10.8819 11.2912 10.7056 10.8748 10.4348 10.5708C10.1816 10.285 9.84676 10.1033 9.43656 10.0289C9.26511 9.99753 8.86774 9.98431 8.67065 10.0041Z" fill="#FC252E"/>
<path fill-rule="evenodd" clip-rule="evenodd" d="M24.1123 9.21437C23.4586 8.53697 22.6029 8.15531 21.4909 8.04626C21.3018 8.02809 20.7474 8.01983 18.9159 8.01156L16.5814 8L16.5717 8.03965C16.5669 8.06113 16.091 10.7377 15.5142 13.986C15.129 16.1552 14.7881 18.0724 14.6026 19.1152L14.4551 19.9455L14.4454 20H16.9146L16.9307 19.9124C16.9643 19.7423 17.6693 15.8001 17.6693 15.7869C17.6693 15.777 18.2382 15.772 19.0762 15.7753C20.6096 15.7786 20.6833 15.7753 21.2425 15.6778C22.3033 15.4944 23.2006 15.0516 23.88 14.3775C24.4985 13.7646 24.8462 13.0425 24.9712 12.119C25.0096 11.8249 25.0096 11.235 24.9712 10.9872C24.8558 10.2652 24.5834 9.70177 24.1123 9.21437ZM18.4076 11.605L18.4079 11.6033L18.4085 11.6001L18.4087 11.5986C18.5632 10.7372 18.6841 10.0637 18.6884 10.0487C18.6964 10.0223 18.7669 10.0207 19.8854 10.0207C20.6545 10.0207 21.1256 10.0273 21.2185 10.0388C21.5999 10.0867 21.9412 10.2536 22.1559 10.4948C22.3161 10.6749 22.4203 10.8715 22.4859 11.1194C22.5276 11.273 22.534 11.7043 22.5004 11.9306C22.3594 12.8608 21.712 13.5167 20.7362 13.7199C20.4318 13.7827 20.2491 13.7893 19.1066 13.7778L18.0203 13.7662L18.0283 13.7233C18.0331 13.7001 18.1821 12.8691 18.3583 11.8794L18.4076 11.605Z" fill="#FC252E"/>
</svg>
