<svg width="28" height="28" viewBox="0 0 28 28" fill="none" xmlns="http://www.w3.org/2000/svg">
<path d="M19.1436 10.8902C18.7781 10.7003 18.3081 10.7003 17.8903 10.8902L14.9661 12.457L12.9817 13.454L10.1097 15.0208C9.74412 15.2107 9.27415 15.2107 8.8564 15.0208L6.61097 13.7863C6.24543 13.5964 5.98433 13.2166 5.98433 12.7893V10.4154C5.98433 10.0356 6.19321 9.65579 6.61097 9.4184L8.8564 8.23145C9.22193 8.04154 9.69191 8.04154 10.1097 8.23145L12.3551 9.46588C12.7206 9.65579 12.9817 10.0356 12.9817 10.4629V12.0297L14.9661 10.9852V9.37092C14.9661 8.9911 14.7572 8.61128 14.3394 8.37389L10.1619 6.14243C9.79634 5.95252 9.32637 5.95252 8.90862 6.14243L4.62663 8.42136C4.20888 8.61128 4 8.9911 4 9.37092V13.8338C4 14.2136 4.20888 14.5935 4.62663 14.8309L8.8564 17.0623C9.22193 17.2522 9.69191 17.2522 10.1097 17.0623L12.9817 15.543L14.9661 14.4985L17.8381 12.9792C18.2037 12.7893 18.6736 12.7893 19.0914 12.9792L21.3368 14.1662C21.7023 14.3561 21.9634 14.7359 21.9634 15.1632V17.5371C21.9634 17.9169 21.7546 18.2967 21.3368 18.5341L19.1436 19.7211C18.7781 19.911 18.3081 19.911 17.8903 19.7211L15.6449 18.5341C15.2794 18.3442 15.0183 17.9644 15.0183 17.5371V16.0178L13.0339 17.0623V18.6291C13.0339 19.0089 13.2428 19.3887 13.6606 19.6261L17.8903 21.8576C18.2559 22.0475 18.7258 22.0475 19.1436 21.8576L23.3734 19.6261C23.7389 19.4362 24 19.0564 24 18.6291V14.1187C24 13.7389 23.7911 13.3591 23.3734 13.1217L19.1436 10.8902Z" fill="#8247E5"/>
</svg>
