<svg width="28" height="28" viewBox="0 0 28 28" fill="none" xmlns="http://www.w3.org/2000/svg">
<path fill-rule="evenodd" clip-rule="evenodd" d="M21.1525 12.2067C21.2534 12.3238 21.3608 12.4348 21.4683 12.5459C21.6269 12.7099 21.7855 12.8738 21.9232 13.0571C23.5245 15.1966 23.0091 17.6268 21.1035 19.2319C20.1312 20.051 18.9811 20.45 17.7001 20.4838C17.6081 20.4862 17.5256 20.5067 17.447 20.5368C17.3801 20.5624 17.316 20.5951 17.2515 20.6296C16.764 20.8917 16.2758 21.1527 15.7877 21.4138C14.6955 21.9977 13.6033 22.5818 12.518 23.1777C11.573 23.6966 10.5771 24.0236 9.49262 23.9987C7.62597 23.9564 6.10693 23.2185 5.02759 21.6979C3.83898 20.0236 3.92742 18.0278 5.23929 16.4376C5.37016 16.279 5.5108 16.1283 5.65135 15.9778L5.66142 15.967C5.72162 15.9025 5.78182 15.8379 5.84114 15.7728C5.8749 15.6526 5.97231 15.5873 6.06647 15.524C6.08009 15.5148 6.09361 15.5058 6.10693 15.4965C6.11581 15.4903 6.1246 15.4841 6.13318 15.4778C7.05185 14.8 8.0782 14.407 9.23334 14.3662C9.43695 14.3563 9.63188 14.2822 9.7892 14.1548C10.2754 13.9155 10.7532 13.6598 11.2305 13.4043L11.2358 13.4014C11.4349 13.2948 11.6338 13.1883 11.8333 13.0829C12.0333 12.9777 12.2321 12.8706 12.4311 12.7635C12.7701 12.5811 13.1092 12.3986 13.4534 12.2251C13.6261 12.1337 13.7974 12.039 13.9687 11.9444L13.9758 11.9406C14.6811 11.5508 15.3866 11.161 16.1922 10.9877C17.9351 10.6125 19.5274 10.9265 20.959 11.9903C20.9718 12.0001 20.9851 12.0097 20.9985 12.0192C21.0652 12.067 21.1336 12.116 21.1525 12.2067ZM12.6644 19.6773C12.4044 19.8161 12.1482 19.9526 11.8919 20.0888C11.374 20.3634 10.862 20.6495 10.3345 20.9058C9.12172 21.4944 7.60574 20.9123 7.20799 19.7161C6.91289 18.8329 7.46579 17.8065 8.4491 17.4273C9.0924 17.1785 9.74173 17.1855 10.3562 17.4955C11.144 17.8904 11.9235 18.3031 12.7238 18.7267L12.7283 18.729L12.7683 18.7503C13.0392 18.8934 13.3125 19.0381 13.5893 19.1837L12.6644 19.6773ZM15.982 14.3817L13.509 15.6943C13.534 15.71 13.5539 15.7236 13.5714 15.7356C13.5935 15.7508 13.6118 15.7633 13.6318 15.7739C14.6515 16.3168 15.6621 16.8765 16.694 17.3955C17.4394 17.7701 18.2059 17.7468 18.9372 17.3288C20.098 16.6646 20.2803 15.237 19.3233 14.3722C18.9698 14.0553 18.5267 13.852 18.053 13.7893C17.5792 13.7265 17.0973 13.8073 16.6713 14.0209C16.4368 14.1369 16.211 14.2603 15.982 14.3817Z" fill="#74DC54"/>
<path fill-rule="evenodd" clip-rule="evenodd" d="M21.1519 12.2068C20.5759 11.7748 19.973 11.3927 19.2722 11.1788C17.6753 10.6912 16.1477 10.8414 14.6858 11.6436C14.4855 11.753 14.2844 11.86 14.0832 11.9663C13.8783 12.0746 13.6732 12.1819 13.4685 12.2904C13.443 12.2595 13.4134 12.2315 13.3806 12.2078C12.3518 11.6659 11.3259 11.1191 10.291 10.5896C9.7887 10.333 9.24804 10.2882 8.69771 10.416C7.81132 10.6215 7.09527 11.3918 7.05037 12.1789C7.00339 13.0014 7.56675 13.7726 8.44653 14.096C8.90182 14.263 9.3652 14.2577 9.834 14.1775C9.76156 14.2549 9.67392 14.3171 9.57631 14.3603C9.47781 14.4038 9.37122 14.427 9.26314 14.4284C8.07158 14.4713 7.01543 14.8713 6.08413 15.5977C6.0634 15.6139 6.04228 15.6297 6.02096 15.6451C6.0028 15.6581 5.98454 15.6711 5.96619 15.6838L5.92385 15.713C5.89611 15.7322 5.86838 15.7513 5.84104 15.7709C4.76525 14.8231 4.10428 13.6707 4.1255 12.2177C4.14168 11.1335 4.58029 10.1936 5.29327 9.38155C6.31656 8.2108 7.62942 7.60769 9.19287 7.52508C9.25791 7.52042 9.32207 7.50915 9.38434 7.49156C9.45846 7.47057 9.52992 7.44063 9.59713 7.40225C10.468 6.93762 11.3384 6.47222 12.2096 6.00846C13.0233 5.57523 13.8376 5.14355 14.6535 4.71536C16.8168 3.57688 19.2393 3.79981 21.0978 5.36619C22.2061 6.29661 22.8468 7.5072 22.7942 8.97504C22.7473 10.2807 22.1363 11.3435 21.1519 12.2068ZM16.0689 7.38728C15.1977 7.852 14.3214 8.30779 13.4028 8.79098C13.7513 8.97494 14.0951 9.15881 14.4364 9.34132C15.1911 9.74482 15.9334 10.1417 16.6864 10.5186C17.3822 10.8669 18.1018 10.8275 18.7931 10.4643C19.5015 10.0917 19.9634 9.31935 19.8684 8.64025C19.7179 7.5625 18.6768 6.79719 17.5227 6.8624C16.9968 6.89204 16.5504 7.13023 16.1017 7.36979L16.0689 7.38728Z" fill="#C6E251"/>
</svg>
