<svg width="28" height="28" viewBox="0 0 28 28" fill="none" xmlns="http://www.w3.org/2000/svg">
<path fill-rule="evenodd" clip-rule="evenodd" d="M20.3872 12.386C20.478 12.4914 20.5746 12.5913 20.6713 12.6913C20.8141 12.8388 20.9568 12.9864 21.0807 13.1514C22.522 15.077 22.0581 17.2641 20.343 18.7087C19.468 19.4458 18.4329 19.805 17.28 19.8354C17.1972 19.8376 17.123 19.856 17.0522 19.8831C16.9919 19.9062 16.9343 19.9356 16.8762 19.9666C16.4375 20.2025 15.9982 20.4374 15.5588 20.6724C14.5759 21.1979 13.5929 21.7236 12.6161 22.2599C11.7656 22.727 10.8693 23.0212 9.89326 22.9988C8.21328 22.9608 6.84614 22.2966 5.87473 20.9281C4.80499 19.4212 4.88458 17.625 6.06526 16.1938C6.18305 16.051 6.30963 15.9155 6.43612 15.78L6.44518 15.7703C6.49936 15.7122 6.55354 15.6541 6.60693 15.5955C6.63731 15.4873 6.72498 15.4286 6.80972 15.3715C6.82198 15.3633 6.83415 15.3552 6.84614 15.3469C6.85413 15.3413 6.86204 15.3357 6.86977 15.33C7.69657 14.72 8.62028 14.3663 9.65991 14.3296C9.84316 14.3207 10.0186 14.2539 10.1602 14.1393C10.5977 13.9239 11.0278 13.6938 11.4573 13.4639L11.4621 13.4612C11.6413 13.3653 11.8204 13.2694 11.9999 13.1746C12.1798 13.0799 12.3588 12.9835 12.5379 12.8871C12.843 12.723 13.1481 12.5587 13.458 12.4026C13.6134 12.3203 13.7675 12.2351 13.9217 12.1499L13.9281 12.1465C14.5629 11.7957 15.1978 11.4449 15.9229 11.2889C17.4915 10.9512 18.9246 11.2338 20.213 12.1913C20.2245 12.2001 20.2365 12.2087 20.2485 12.2172C20.3086 12.2603 20.3701 12.3044 20.3872 12.386ZM12.7479 19.1096C12.5138 19.2344 12.2833 19.3573 12.0526 19.4799C11.5865 19.727 11.1257 19.9845 10.651 20.2152C9.55945 20.7449 8.19507 20.221 7.83709 19.1444C7.5715 18.3496 8.06911 17.4258 8.95409 17.0845C9.53307 16.8606 10.1175 16.8669 10.6705 17.1459C11.3795 17.5014 12.0811 17.8727 12.8014 18.254L12.8054 18.2561L12.8413 18.2752C13.0852 18.4041 13.3311 18.5343 13.5803 18.6653L12.7479 19.1096ZM15.7337 14.3435L13.508 15.5249C13.5305 15.5389 13.5484 15.5512 13.5641 15.562C13.584 15.5757 13.6005 15.587 13.6185 15.5965C14.5362 16.0851 15.4458 16.5889 16.3745 17.0559C17.0453 17.3931 17.7353 17.3721 18.3934 16.9959C19.4381 16.3981 19.6022 15.1133 18.7409 14.335C18.4227 14.0498 18.0239 13.8668 17.5976 13.8103C17.1712 13.7538 16.7375 13.8266 16.3541 14.0188C16.143 14.1232 15.9398 14.2342 15.7337 14.3435Z" fill="#74DC54"/>
<path fill-rule="evenodd" clip-rule="evenodd" d="M20.3867 12.3861C19.8683 11.9974 19.3257 11.6535 18.6949 11.4609C17.2578 11.0221 15.8829 11.1573 14.5672 11.8792C14.3869 11.9777 14.206 12.074 14.0249 12.1697C13.8405 12.2671 13.6559 12.3637 13.4717 12.4614C13.4487 12.4335 13.4221 12.4084 13.3925 12.387C12.4666 11.8993 11.5433 11.4072 10.6119 10.9307C10.1598 10.6997 9.67324 10.6593 9.17794 10.7744C8.38019 10.9593 7.73575 11.6526 7.69533 12.361C7.65305 13.1012 8.16007 13.7954 8.95188 14.0864C9.36163 14.2367 9.77868 14.232 10.2006 14.1597C10.1354 14.2294 10.0565 14.2854 9.96868 14.3242C9.88003 14.3634 9.78409 14.3843 9.68683 14.3856C8.61442 14.4241 7.66389 14.7841 6.82572 15.4379C6.80706 15.4525 6.78805 15.4667 6.76887 15.4806C6.75252 15.4923 6.73609 15.504 6.71957 15.5154L6.68146 15.5417C6.6565 15.559 6.63154 15.5762 6.60694 15.5938C5.63872 14.7407 5.04385 13.7036 5.06295 12.3959C5.07751 11.4202 5.47226 10.5742 6.11395 9.84339C7.0349 8.78972 8.21648 8.24692 9.62358 8.17258C9.68212 8.16838 9.73986 8.15823 9.79591 8.1424C9.86262 8.12351 9.92693 8.09657 9.98742 8.06202C10.7712 7.64386 11.5546 7.22499 12.3387 6.80762C13.071 6.4177 13.8039 6.02919 14.5381 5.64383C16.4851 4.61919 18.6654 4.81983 20.3381 6.22957C21.3355 7.06695 21.9122 8.15648 21.8648 9.47753C21.8225 10.6526 21.2727 11.6091 20.3867 12.3861ZM15.812 8.04855C15.0279 8.4668 14.2393 8.87701 13.4125 9.31188C13.7261 9.47745 14.0356 9.64293 14.3428 9.80718C15.0219 10.1703 15.6901 10.5275 16.3678 10.8667C16.994 11.1802 17.6416 11.1448 18.2638 10.8178C18.9014 10.4825 19.3171 9.78742 19.2315 9.17622C19.0961 8.20625 18.1591 7.51747 17.1204 7.57616C16.6471 7.60284 16.2454 7.81721 15.8416 8.03281L15.812 8.04855Z" fill="#C6E251"/>
</svg>
