<svg width="28" height="28" viewBox="0 0 28 28" fill="none" xmlns="http://www.w3.org/2000/svg">
<path d="M14 28C21.732 28 28 21.732 28 14C28 6.26801 21.732 0 14 0C6.26801 0 0 6.26801 0 14C0 21.732 6.26801 28 14 28Z" fill="white"/>
<path fill-rule="evenodd" clip-rule="evenodd" d="M6.70898 20.9571L8.81579 19.733L14.0325 22.7934L19.1851 19.733L21.3561 20.9571L14.0325 25.375L6.70898 20.9571Z" fill="#2FBDF4"/>
<path fill-rule="evenodd" clip-rule="evenodd" d="M4.375 8.68085L7.22721 9.90501V16.7874L14 12.6848L20.838 16.7874V9.90501L23.625 8.68085V21.6527L14 15.8948L4.375 21.6527V8.68085Z" fill="#0F68AA"/>
<path fill-rule="evenodd" clip-rule="evenodd" d="M4.69922 8.15108L14.0002 2.625L23.3664 8.15108L20.8382 9.21059L14.0002 5.20658L7.22739 9.21059L4.69922 8.15108Z" fill="#2FBDF4"/>
</svg>
