<svg width="16" height="16" viewBox="0 0 16 16" fill="none" xmlns="http://www.w3.org/2000/svg">
  <rect y="16" width="16" height="16" rx="8" transform="rotate(-90 0 16)" fill="#EBEDF0"/>
  <path d="M8.39453 4.38672C8.39453 4.12119 8.6162 3.91231 8.88281 3.91211C9.14989 3.91211 9.37207 4.12232 9.37207 4.3877V10.5L10.3662 9.53809H10.3672C10.5583 9.35469 10.8652 9.35427 11.0557 9.53809C11.1512 9.63043 11.2001 9.75211 11.2002 9.875C11.2002 9.99803 11.1513 10.1204 11.0557 10.2129L9.29492 11.915L9.29395 11.916C9.25419 11.9534 9.20817 11.9841 9.1582 12.0068L9.09668 12.041C9.03214 12.0716 8.95924 12.0889 8.88281 12.0889C8.61591 12.0887 8.39453 11.8785 8.39453 11.6133V4.38672ZM4.02246 6.11719C3.87142 5.93872 3.87711 5.6862 4.02148 5.51465L4.0918 5.44629L5.85254 4.05371H5.85352C5.88405 4.03011 5.91756 4.00947 5.95312 3.99316L6.01465 3.95898C6.07926 3.92835 6.15197 3.91113 6.22852 3.91113C6.49559 3.91114 6.7168 4.12135 6.7168 4.38672V11.6133C6.7168 11.8787 6.49559 12.0889 6.22852 12.0889C5.96144 12.0889 5.74023 11.8787 5.74023 11.6133V5.36719L4.70801 6.18359C4.49997 6.34797 4.19369 6.31927 4.02246 6.11719Z" fill="#192945" stroke="#192945" stroke-width="0.177778"/>
</svg>
