<svg width="16" height="16" viewBox="0 0 16 16" fill="none" xmlns="http://www.w3.org/2000/svg">
<rect width="16" height="16" rx="8" fill="currentColor"/>
<path d="M10.2976 7.78592H9.53186V5.29724C9.53186 4.89107 9.37051 4.50152 9.0833 4.21431C8.79609 3.9271 8.40655 3.76575 8.00037 3.76575C7.59419 3.76575 7.20465 3.9271 6.91744 4.21431C6.63023 4.50152 6.46887 4.89107 6.46887 5.29724V7.78592H5.70312V5.29724C5.70312 4.68798 5.94516 4.10366 6.37597 3.67285C6.80679 3.24203 7.3911 3 8.00037 3C8.60964 3 9.19395 3.24203 9.62476 3.67285C10.0556 4.10366 10.2976 4.68798 10.2976 5.29724V7.78592Z" fill="white"/>
<path d="M11.0597 6.64062H4.93369C4.78137 6.64063 4.63529 6.70113 4.52759 6.80884C4.41988 6.91654 4.35938 7.06262 4.35938 7.21494V11.2351C4.35938 11.3874 4.41988 11.5335 4.52759 11.6412C4.63529 11.7489 4.78137 11.8094 4.93369 11.8094H11.0597C11.212 11.8094 11.3581 11.7489 11.4658 11.6412C11.5735 11.5335 11.634 11.3874 11.634 11.2351V7.21494C11.634 7.06262 11.5735 6.91654 11.4658 6.80884C11.3581 6.70113 11.212 6.64063 11.0597 6.64062Z" fill="white"/>
<path d="M8.76586 8.73815C8.7665 8.60358 8.73167 8.47122 8.66487 8.3544C8.59807 8.23757 8.50167 8.14042 8.38537 8.07272C8.26907 8.00501 8.13698 7.96916 8.00241 7.96875C7.86784 7.96835 7.73554 8.00342 7.61884 8.07043C7.50213 8.13743 7.40515 8.23401 7.33765 8.35043C7.27016 8.46685 7.23454 8.59901 7.23438 8.73358C7.23421 8.86815 7.26952 9.00039 7.33673 9.11697C7.40395 9.23355 7.5007 9.33036 7.61724 9.39765V10.4611C7.61724 10.5119 7.63741 10.5605 7.67331 10.5964C7.70921 10.6323 7.75791 10.6525 7.80868 10.6525H8.19155C8.24232 10.6525 8.29102 10.6323 8.32692 10.5964C8.36282 10.5605 8.38299 10.5119 8.38299 10.4611V9.39765C8.49909 9.33102 8.59561 9.23499 8.66282 9.11922C8.73003 9.00345 8.76557 8.87202 8.76586 8.73815Z" fill="currentColor"/>
</svg>
