<svg width="34" height="16" viewBox="0 0 34 16" fill="none" xmlns="http://www.w3.org/2000/svg">
<rect width="34" height="16" rx="2" fill="#8697FF" fill-opacity="0.1"/>
<path d="M5.57236 4H6.82932L9.19172 10.1703L11.5485 4H12.8055L9.68553 12H8.6867L5.57236 4ZM5 4H6.19523L6.40285 9.34066V12H5V4ZM12.1826 4H13.3834V12H11.975V9.34066L12.1826 4Z" fill="#8697FF"/>
<path d="M18.3383 5.06593L15.8974 12H14.4216L17.4966 4H18.4393L18.3383 5.06593ZM20.3809 12L17.9343 5.06593L17.8277 4H18.776L21.8623 12H20.3809ZM20.263 9.03297V10.1264H15.8188V9.03297H20.263Z" fill="#8697FF"/>
<path d="M23.8487 4L25.5827 6.91758L27.3166 4H28.9383L26.4693 7.96154L29 12H27.3615L25.5827 9.02747L23.8038 12H22.1597L24.696 7.96154L22.2214 4H23.8487Z" fill="#8697FF"/>
</svg>
