<svg width="12" height="12" viewBox="0 0 12 12" fill="none" xmlns="http://www.w3.org/2000/svg">
<rect width="12" height="12" rx="6" fill="currentColor"/>
<path d="M7.72321 5.83944H7.1489V3.97293C7.1489 3.6683 7.02788 3.37614 6.81247 3.16073C6.59707 2.94533 6.30491 2.82431 6.00028 2.82431C5.69564 2.82431 5.40349 2.94533 5.18808 3.16073C4.97267 3.37614 4.85165 3.6683 4.85165 3.97293V5.83944H4.27734V3.97293C4.27734 3.51598 4.45887 3.07775 4.78198 2.75464C5.10509 2.43152 5.54333 2.25 6.00028 2.25C6.45723 2.25 6.89546 2.43152 7.21857 2.75464C7.54169 3.07775 7.72321 3.51598 7.72321 3.97293V5.83944Z" fill="white"/>
<path d="M8.29475 4.98047H3.70026C3.58603 4.98047 3.47647 5.02585 3.39569 5.10663C3.31491 5.18741 3.26953 5.29696 3.26953 5.4112V8.42633C3.26953 8.54057 3.31491 8.65013 3.39569 8.73091C3.47647 8.81169 3.58603 8.85707 3.70026 8.85707H8.29475C8.40899 8.85707 8.51855 8.81169 8.59932 8.73091C8.6801 8.65013 8.72548 8.54057 8.72548 8.42633V5.4112C8.72548 5.29696 8.6801 5.18741 8.59932 5.10663C8.51855 5.02585 8.40899 4.98047 8.29475 4.98047Z" fill="white"/>
<path d="M6.5744 6.55361C6.57488 6.45268 6.54875 6.35341 6.49865 6.2658C6.44856 6.17818 6.37625 6.10531 6.28903 6.05454C6.2018 6.00376 6.10273 5.97687 6.00181 5.97657C5.90088 5.97626 5.80165 6.00257 5.71413 6.05282C5.6266 6.10308 5.55386 6.17551 5.50324 6.26282C5.45262 6.35014 5.4259 6.44925 5.42578 6.55018C5.42566 6.65111 5.45214 6.75029 5.50255 6.83773C5.55296 6.92516 5.62552 6.99777 5.71293 7.04824V7.84581C5.71293 7.88389 5.72806 7.92041 5.75498 7.94734C5.78191 7.97426 5.81843 7.98939 5.85651 7.98939H6.14366C6.18174 7.98939 6.21826 7.97426 6.24519 7.94734C6.27211 7.92041 6.28724 7.88389 6.28724 7.84581V7.04824C6.37432 6.99826 6.44671 6.92624 6.49711 6.83941C6.54752 6.75258 6.57418 6.65401 6.5744 6.55361Z" fill="#7084FF"/>
</svg>
