<svg width="120" height="30" viewBox="0 0 120 30" fill="none" xmlns="http://www.w3.org/2000/svg">
<path d="M3.92643 8.19338H2.87943V6.405C2.87943 4.78969 4.19361 3.4755 5.80892 3.4755H9.15636V4.5225H5.80892C4.77092 4.5225 3.92643 5.367 3.92643 6.405V8.19338V8.19338Z" fill="#FFF9E0"/>
<path d="M9.33899 26.7405H5.80893C4.19361 26.7405 2.87943 25.4263 2.87943 23.811V21.963H3.92643V23.811C3.92643 24.849 4.77092 25.6935 5.80893 25.6935H9.33899V26.7405Z" fill="#FFF9E0"/>
<path d="M25.9177 8.19338H24.8707V6.405C24.8707 5.367 24.0262 4.5225 22.9882 4.5225H19.6408V3.4755H22.9882C24.6036 3.4755 25.9177 4.78969 25.9177 6.405V8.19338Z" fill="#FFF9E0"/>
<path d="M22.9883 26.7405H19.4582V25.6935H22.9883C24.0263 25.6935 24.8708 24.849 24.8708 23.811V21.963H25.9178V23.811C25.9178 25.4263 24.6036 26.7405 22.9883 26.7405Z" fill="#FFF9E0"/>
<path d="M19.5146 17.9338V17.0601H17.2984L17.2537 16.719C17.2134 16.4117 16.9494 16.1799 16.6395 16.1799H14.6604V19.2559H18.1924C18.9214 19.2559 19.5146 18.6628 19.5146 17.9336V17.9338Z" fill="#FFF9E0"/>
<path d="M17.9016 6.62325H14.6604V15.3956H16.6395C17.2213 15.3956 17.7319 15.756 17.9417 16.2758H20.2989V17.9338C20.2989 19.0954 19.3539 20.0402 18.1924 20.0402H14.6604V23.3768H17.9016C20.5956 23.3768 22.7794 21.1928 22.7794 18.4989V11.5011C22.7794 8.80706 20.5956 6.62325 17.9016 6.62325V6.62325ZM19.5861 13.2291C19.5356 13.9104 18.9679 14.4482 18.2736 14.4482C17.5459 14.4482 16.956 13.8583 16.956 13.1306C16.956 12.4029 17.5459 11.8131 18.2736 11.8131C18.4959 11.8131 18.705 11.8688 18.8887 11.9661C19.3063 12.1871 19.5911 12.6253 19.5911 13.1306C19.5911 13.164 19.5885 13.1964 19.5861 13.2293V13.2291Z" fill="#FFF9E0"/>
<path d="M10.605 20.0402C9.44341 20.0402 8.49841 19.0952 8.49841 17.9338V16.2758H10.8557C11.0655 15.756 11.576 15.3956 12.1579 15.3956H14.1369V6.62325H11.0104C8.31635 6.62325 6.13254 8.80706 6.13254 11.5011V18.4989C6.13254 21.1929 8.31654 23.3768 11.0104 23.3768H14.1369V20.0402H10.605ZM10.5236 11.8127C10.746 11.8127 10.9552 11.8684 11.1388 11.9657C11.5564 12.1868 11.8412 12.6249 11.8412 13.1303C11.8412 13.1636 11.8387 13.1961 11.8363 13.2289C11.7857 13.9103 11.2181 14.448 10.5236 14.448C9.79591 14.448 9.20604 13.8581 9.20604 13.1304C9.20604 12.4028 9.79591 11.8129 10.5236 11.8129V11.8127Z" fill="#FFF9E0"/>
<path d="M11.5436 16.719L11.499 17.0601H9.28271V17.9338C9.28271 18.6628 9.87597 19.2561 10.605 19.2561H14.1369V16.1801H12.1578C11.8479 16.1801 11.5841 16.4119 11.5436 16.7192V16.719Z" fill="#FFF9E0"/>
<path d="M14.1369 23.3768V23.9468V26.7405H14.6604V23.9468V23.3768H14.1369Z" fill="#FFF9E0"/>
<path d="M14.1369 3.2595V3.8295V6.62325H14.6604V3.8295V3.2595H14.1369Z" fill="#FFF9E0"/>
<path d="M32.619 19.7029V10.3196H36.1215C36.8964 10.3196 37.575 10.4432 38.1566 10.6899C38.7379 10.9367 39.2248 11.2712 39.6171 11.6942C40.0087 12.1172 40.3041 12.6126 40.5026 13.1809C40.7006 13.7492 40.8 14.3554 40.8 14.9981C40.8 15.7119 40.6897 16.3573 40.4694 16.9346C40.2491 17.5114 39.9343 18.0049 39.5242 18.4144C39.1147 18.8244 38.6212 19.1415 38.0445 19.3659C37.4672 19.5907 36.8263 19.7031 36.1215 19.7031H32.619V19.7029ZM38.5926 14.9981C38.5926 14.5841 38.5374 14.2074 38.4277 13.8682C38.3175 13.5292 38.1568 13.2358 37.9453 12.9891C37.7338 12.7429 37.4737 12.5533 37.1655 12.4207C36.8572 12.2887 36.5092 12.2227 36.1215 12.2227H34.7867V17.7997H36.1215C36.5181 17.7997 36.87 17.7298 37.1788 17.5882C37.4871 17.4478 37.7447 17.2511 37.9517 17.0004C38.1587 16.7492 38.3175 16.4539 38.4277 16.1149C38.5374 15.7759 38.5926 15.4035 38.5926 14.9979V14.9981Z" fill="#FFF9E0"/>
<path d="M44.0111 19.8349C43.2973 19.8349 42.7573 19.6125 42.3919 19.1677C42.0261 18.723 41.8434 18.0688 41.8434 17.205V12.7648H43.9581V16.7424C43.9581 17.1654 44.0419 17.4894 44.2093 17.7139C44.3766 17.9387 44.6143 18.051 44.9231 18.051C45.2046 18.051 45.4781 17.9766 45.7421 17.8266C46.0067 17.6766 46.2399 17.4165 46.4426 17.0467V12.7648H48.5573V17.3241C48.5573 17.5356 48.5904 17.6829 48.6564 17.7667C48.7224 17.8506 48.8391 17.9012 49.0063 17.9186V19.7027C48.8038 19.7469 48.6321 19.7756 48.4911 19.7886C48.3501 19.8019 48.222 19.8084 48.1078 19.8084C47.3498 19.8084 46.9185 19.5135 46.8128 18.9229L46.773 18.4999C46.4558 18.9585 46.0613 19.2951 45.5901 19.5111C45.1185 19.7271 44.5924 19.8347 44.0111 19.8347V19.8349Z" fill="#FFF9E0"/>
<path d="M49.7867 16.2272C49.7867 15.7517 49.8701 15.2955 50.0379 14.8596C50.2052 14.4232 50.4474 14.04 50.7647 13.7094C51.0819 13.3792 51.4721 13.1173 51.9341 12.9231C52.3967 12.7296 52.9234 12.6322 53.5136 12.6322C54.3154 12.6322 54.9894 12.8019 55.5354 13.1411C56.082 13.4807 56.4915 13.9234 56.7645 14.4694L54.7029 15.0904C54.4299 14.6501 54.0289 14.4296 53.5001 14.4296C53.0599 14.4296 52.692 14.5929 52.3967 14.9186C52.1014 15.2447 51.954 15.681 51.954 16.2272C51.954 16.5007 51.9938 16.7494 52.0731 16.9738C52.1526 17.1986 52.2623 17.3902 52.4036 17.5491C52.5441 17.7075 52.7094 17.8311 52.899 17.9188C53.0882 18.0071 53.2886 18.0508 53.5001 18.0508C53.7647 18.0508 54.0069 17.9872 54.2272 17.8592C54.4472 17.7317 54.6105 17.5663 54.7162 17.3638L56.7778 17.9981C56.5222 18.5357 56.1146 18.9759 55.5551 19.3194C54.9956 19.6629 54.3152 19.8347 53.5134 19.8347C52.9316 19.8347 52.41 19.7359 51.9473 19.5373C51.4847 19.3393 51.0924 19.0751 50.7709 18.7446C50.4493 18.414 50.205 18.0307 50.0378 17.595C49.8699 17.1587 49.7865 16.7031 49.7865 16.227L49.7867 16.2272Z" fill="#FFF9E0"/>
<path d="M62.3946 19.7029L60.5837 16.9146L59.8436 17.6811V19.7029H57.729V10.0554H59.8436V15.6457L62.1831 12.7646H64.4297L61.9318 15.7513L64.6412 19.7025H62.3946V19.7029Z" fill="#FFF9E0"/>
<path d="M65.302 20.7472C65.4782 20.8087 65.643 20.853 65.7973 20.8792C65.9516 20.9055 66.0902 20.919 66.2138 20.919C66.469 20.919 66.6675 20.8307 66.8085 20.6544C66.9495 20.4782 67.077 20.1609 67.1918 19.7029L64.5486 12.7648H66.7292L68.3415 17.8926L69.7294 12.7648H71.7115L69.0686 20.8262C68.8836 21.399 68.5528 21.8636 68.0773 22.2206C67.6013 22.5774 67.0375 22.7557 66.3857 22.7557C66.2095 22.7557 66.0308 22.7404 65.8506 22.7096C65.6698 22.6789 65.4872 22.6282 65.3021 22.5577V20.7474L65.302 20.7472Z" fill="#FFF9E0"/>
<path d="M78.1078 10.3329H80.1034L81.0549 13.3326L82.0065 10.3329H84.0154L82.4422 14.6942L83.3938 17.2183L85.7462 10.3194H88.1121L84.3589 19.7027H82.548L81.0549 16.0288L79.5746 19.7027H77.7508L74.0106 10.3194H76.3629L78.7288 17.2183L79.6541 14.6942L78.1078 10.3329V10.3329Z" fill="#FFF9E0"/>
<path d="M90.0677 19.8349C89.7242 19.8349 89.405 19.7797 89.1095 19.6701C88.8142 19.5598 88.5611 19.4055 88.3496 19.2075C88.1381 19.0089 87.9708 18.7757 87.8473 18.507C87.7241 18.2385 87.6626 17.9451 87.6626 17.6278C87.6626 17.2843 87.7352 16.9716 87.8805 16.6896C88.0258 16.4076 88.2309 16.1653 88.4949 15.9628C88.7595 15.7603 89.0717 15.6015 89.4332 15.4867C89.7945 15.3726 90.1952 15.315 90.636 15.315C90.9268 15.315 91.2088 15.3394 91.4818 15.3879C91.7548 15.4361 91.9925 15.5091 92.1956 15.6058V15.2886C92.1956 14.4868 91.733 14.0857 90.8077 14.0857C90.429 14.0857 90.0677 14.1499 89.7242 14.2774C89.3807 14.4054 89.0194 14.5971 88.6406 14.8522L88.0196 13.5309C88.4773 13.2317 88.9533 13.0067 89.4467 12.8569C89.94 12.7071 90.4642 12.6321 91.0192 12.6321C92.0675 12.6321 92.8783 12.8792 93.4511 13.3721C94.0239 13.866 94.3104 14.5882 94.3104 15.5398V17.3239C94.3104 17.5354 94.3432 17.6827 94.4092 17.7666C94.4752 17.8504 94.5919 17.901 94.7597 17.9184V19.7025C94.5746 19.7467 94.4072 19.7754 94.2573 19.7884C94.1073 19.8017 93.9709 19.8082 93.8479 19.8082C93.4513 19.8082 93.1515 19.7314 92.949 19.5769C92.7465 19.4229 92.6188 19.2051 92.5657 18.9227L92.526 18.6054C92.2177 19.002 91.8499 19.3063 91.4225 19.5178C90.9952 19.7287 90.5439 19.8345 90.0679 19.8345L90.0677 19.8349ZM90.6892 18.3154C90.918 18.3154 91.1404 18.2756 91.3564 18.1963C91.5724 18.117 91.7505 18.0112 91.8915 17.8791C92.0945 17.7206 92.1958 17.5534 92.1958 17.3767V16.716C92.0107 16.6455 91.8101 16.5904 91.5941 16.5506C91.3781 16.5114 91.178 16.4916 90.993 16.4916C90.6052 16.4916 90.2861 16.5795 90.0349 16.7556C89.7836 16.9316 89.6582 17.1611 89.6582 17.4431C89.6582 17.6987 89.7549 17.9077 89.949 18.0705C90.1425 18.2338 90.3892 18.3152 90.689 18.3152L90.6892 18.3154Z" fill="#FFF9E0"/>
<path d="M95.817 10.0554H97.9316V17.2318C97.9316 17.7604 98.1564 18.0246 98.6056 18.0246C98.7114 18.0246 98.828 18.0092 98.9555 17.9784C99.083 17.9477 99.2002 17.9016 99.306 17.8395L99.5835 19.4254C99.3189 19.5489 99.0152 19.6457 98.6717 19.7162C98.3282 19.7867 98.0064 19.8219 97.7066 19.8219C97.0991 19.8219 96.6318 19.6631 96.3058 19.3459C95.9797 19.0286 95.8168 18.5709 95.8168 17.9719V10.0554H95.817Z" fill="#FFF9E0"/>
<path d="M100.244 10.0554H102.359V17.2318C102.359 17.7604 102.584 18.0246 103.033 18.0246C103.139 18.0246 103.255 18.0092 103.383 17.9784C103.51 17.9477 103.628 17.9016 103.733 17.8395L104.011 19.4254C103.746 19.5489 103.442 19.6457 103.099 19.7162C102.755 19.7867 102.434 19.8219 102.134 19.8219C101.526 19.8219 101.059 19.6631 100.733 19.3459C100.407 19.0286 100.244 18.5709 100.244 17.9719V10.0554H100.244Z" fill="#FFF9E0"/>
<path d="M108.015 19.8349C107.433 19.8349 106.912 19.7406 106.449 19.551C105.986 19.3618 105.594 19.1038 105.273 18.7781C104.951 18.4521 104.707 18.0752 104.539 17.6479C104.372 17.2209 104.288 16.7737 104.288 16.3067C104.288 15.8044 104.372 15.3307 104.539 14.886C104.707 14.4412 104.949 14.0511 105.266 13.7166C105.583 13.3815 105.974 13.1175 106.436 12.9232C106.898 12.7297 107.425 12.6324 108.015 12.6324C108.605 12.6324 109.129 12.7297 109.588 12.9232C110.046 13.1173 110.434 13.3794 110.751 13.7096C111.068 14.0402 111.308 14.4214 111.471 14.8528C111.634 15.2846 111.716 15.7384 111.716 16.2144C111.716 16.3376 111.711 16.4587 111.702 16.5778C111.693 16.6965 111.681 16.8002 111.663 16.8881H106.535C106.57 17.3552 106.74 17.7101 107.044 17.9524C107.348 18.1946 107.693 18.3157 108.081 18.3157C108.389 18.3157 108.687 18.2407 108.973 18.0909C109.26 17.9415 109.451 17.7384 109.548 17.4829L111.345 17.9852C111.072 18.5317 110.649 18.9765 110.077 19.32C109.504 19.6635 108.817 19.8352 108.015 19.8352L108.015 19.8349ZM109.482 15.5797C109.438 15.1389 109.279 14.7909 109.006 14.5354C108.733 14.2802 108.394 14.1521 107.989 14.1521C107.574 14.1521 107.233 14.2822 106.964 14.5423C106.696 14.802 106.54 15.1479 106.495 15.5797H109.482Z" fill="#FFF9E0"/>
<path d="M117.121 19.3329C116.83 19.4565 116.497 19.5707 116.123 19.6764C115.749 19.7822 115.372 19.8349 114.993 19.8349C114.729 19.8349 114.48 19.8021 114.246 19.7361C114.013 19.6701 113.808 19.5643 113.632 19.4188C113.455 19.2733 113.317 19.0817 113.215 18.8439C113.114 18.6056 113.064 18.3197 113.064 17.9846V14.3634H112.178V12.7646H113.064V10.5572H115.178V12.7646H116.592V14.3634H115.178V17.2579C115.178 17.4872 115.235 17.652 115.35 17.7532C115.464 17.8545 115.61 17.9051 115.786 17.9051C115.945 17.9051 116.107 17.8789 116.275 17.8262C116.442 17.7731 116.587 17.7159 116.711 17.6544L117.12 19.3327L117.121 19.3329Z" fill="#FFF9E0"/>
</svg>
