<svg width="728" height="176" viewBox="0 0 728 176" fill="none" xmlns="http://www.w3.org/2000/svg">
<path d="M219.952 122.294V54.365H245.199C250.219 54.2588 255.209 55.1699 259.87 57.0437C263.818 58.6466 267.374 61.0884 270.293 64.2015C273.212 67.3146 275.425 71.0253 276.782 75.0787C278.23 79.311 278.954 83.7588 278.925 88.2339C278.991 93.013 278.184 97.7639 276.543 102.251C275.057 106.268 272.735 109.921 269.731 112.966C266.694 115.986 263.059 118.333 259.061 119.854C254.633 121.529 249.931 122.357 245.199 122.294H219.952ZM263.014 88.2339C263.048 85.4613 262.646 82.7007 261.824 80.0535C261.097 77.722 259.915 75.5592 258.347 73.691C256.815 71.9012 254.891 70.4929 252.726 69.5771C250.34 68.5889 247.779 68.1006 245.199 68.1421H235.577V108.517H245.199C247.82 108.566 250.42 108.044 252.821 106.986C254.979 106.015 256.886 104.558 258.394 102.729C259.93 100.829 261.094 98.6536 261.825 96.3186C262.642 93.7031 263.043 90.9748 263.013 88.2339H263.014Z" fill="#0A0D10"/>
<path d="M302.074 123.251C299.889 123.402 297.7 123.045 295.675 122.207C293.651 121.369 291.847 120.073 290.403 118.42C287.766 115.2 286.449 110.464 286.45 104.212V72.0647H301.692V100.863C301.532 103.342 302.166 105.807 303.503 107.896C304.094 108.697 304.873 109.338 305.77 109.763C306.668 110.189 307.656 110.386 308.647 110.336C310.724 110.324 312.762 109.763 314.554 108.709C316.726 107.335 318.474 105.38 319.603 103.065V72.0647H334.846V105.073C334.743 106.19 334.993 107.312 335.561 108.278C335.888 108.621 336.279 108.895 336.712 109.085C337.146 109.274 337.613 109.374 338.085 109.379V122.295C336.86 122.575 335.62 122.783 334.37 122.917C333.354 123.012 332.433 123.06 331.608 123.06C326.145 123.06 323.033 120.923 322.271 116.65L321.985 113.588C319.863 116.765 316.914 119.296 313.458 120.907C309.878 122.508 305.993 123.307 302.074 123.251Z" fill="#0A0D10"/>
<path d="M343.707 97.1316C343.696 93.7469 344.31 90.3895 345.517 87.2294C346.688 84.1287 348.471 81.2974 350.758 78.9054C353.147 76.4441 356.017 74.5059 359.189 73.2128C362.806 71.7565 366.677 71.0409 370.573 71.1081C375.68 70.934 380.732 72.2107 385.149 74.7915C388.945 77.0945 392.017 80.4277 394.009 84.4072L379.147 88.9035C378.272 87.3892 377.003 86.1434 375.475 85.3004C373.947 84.4574 372.219 84.0492 370.477 84.1197C368.974 84.0907 367.483 84.3926 366.109 85.0042C364.735 85.6158 363.511 86.5223 362.522 87.66C360.297 90.2941 359.156 93.6815 359.331 97.1316C359.308 98.9693 359.598 100.797 360.188 102.537C360.704 104.067 361.513 105.481 362.57 106.699C363.563 107.832 364.78 108.744 366.143 109.378C367.5 110.015 368.98 110.341 370.477 110.335C372.316 110.353 374.126 109.874 375.717 108.949C377.212 108.119 378.437 106.873 379.242 105.361L394.105 109.952C392.171 113.944 389.105 117.272 385.293 119.519C380.83 122.12 375.73 123.412 370.573 123.25C366.703 123.312 362.861 122.58 359.283 121.098C356.106 119.769 353.223 117.817 350.805 115.357C348.493 112.976 346.693 110.143 345.517 107.033C344.31 103.873 343.696 100.516 343.707 97.1316Z" fill="#0A0D10"/>
<path d="M434.595 122.294L421.542 102.107L416.207 107.656V122.294H400.964V52.4508H416.207V92.9215L433.07 72.064H449.266L431.26 93.6868L450.79 122.294L434.595 122.294Z" fill="#0A0D10"/>
<path d="M455.552 129.853C456.715 130.27 457.91 130.59 459.125 130.809C460.116 130.99 461.12 131.086 462.127 131.097C462.941 131.139 463.753 130.988 464.498 130.655C465.243 130.323 465.899 129.818 466.413 129.183C467.774 127.09 468.712 124.75 469.176 122.294L450.122 72.0647H465.842L477.465 109.187L487.469 72.0647H501.76L482.705 130.427C481.432 134.55 478.855 138.143 475.365 140.664C471.876 143.184 467.663 144.494 463.366 144.395C462.073 144.393 460.782 144.281 459.507 144.061C458.157 143.823 456.833 143.455 455.553 142.96L455.552 129.853Z" fill="#0A0D10"/>
<path d="M549.584 74.2653C548.981 73.7027 548.308 73.2204 547.583 72.8303C546.202 72.0058 544.77 71.2707 543.296 70.6297C541.473 69.8256 539.594 69.1541 537.675 68.6204C535.692 68.0534 533.64 67.7637 531.577 67.7593C525.988 67.7593 523.193 69.6409 523.194 73.4042C523.156 74.4372 523.476 75.4514 524.099 76.2746C524.832 77.1429 525.741 77.8443 526.766 78.3317C528.185 79.0321 529.669 79.5927 531.196 80.0058C532.974 80.5174 535.038 81.0915 537.389 81.7281C540.363 82.5332 543.289 83.5075 546.153 84.6463C548.56 85.5808 550.797 86.906 552.775 88.569C554.58 90.1265 556.013 92.0721 556.967 94.2616C558.011 96.808 558.513 99.5453 558.443 102.298C558.549 105.664 557.812 109.003 556.3 112.009C554.947 114.57 553.003 116.768 550.631 118.42C548.174 120.094 545.428 121.294 542.533 121.96C539.443 122.698 536.277 123.067 533.101 123.061C530.55 123.055 528.003 122.863 525.48 122.487C522.903 122.11 520.356 121.551 517.858 120.812C515.407 120.089 513.005 119.211 510.665 118.181C508.418 117.201 506.266 116.016 504.235 114.641L511.094 100.96C511.847 101.66 512.678 102.27 513.571 102.777C515.228 103.807 516.965 104.703 518.763 105.457C521.008 106.413 523.315 107.213 525.67 107.849C528.183 108.547 530.779 108.901 533.387 108.901C538.913 108.901 541.675 107.211 541.675 103.83C541.694 103.247 541.594 102.666 541.381 102.123C541.168 101.58 540.847 101.087 540.437 100.673C539.434 99.7264 538.273 98.9652 537.006 98.4244C535.324 97.6745 533.589 97.0509 531.814 96.5587C529.813 95.9844 527.638 95.3466 525.288 94.6455C522.513 93.8192 519.806 92.7795 517.19 91.5358C515.105 90.5595 513.191 89.251 511.522 87.661C510.055 86.2353 508.917 84.5046 508.187 82.5904C507.417 80.444 507.046 78.1738 507.091 75.8927C507.026 72.6231 507.711 69.3823 509.092 66.4207C510.378 63.7395 512.231 61.3724 514.522 59.4846C516.878 57.5665 519.578 56.121 522.477 55.227C525.577 54.2576 528.806 53.7735 532.052 53.7918C534.386 53.7907 536.715 54.0151 539.007 54.4617C541.233 54.8925 543.429 55.4678 545.581 56.1839C547.585 56.8486 549.542 57.6476 551.44 58.5756C553.25 59.4696 554.917 60.3626 556.442 61.2547L549.584 74.2653Z" fill="#0A0D10"/>
<path d="M563.397 97.1316C563.386 93.7469 564 90.3895 565.207 87.2294C566.378 84.1287 568.16 81.2974 570.447 78.9054C572.836 76.4442 575.707 74.5061 578.878 73.2128C582.496 71.7565 586.366 71.041 590.263 71.1081C595.37 70.934 600.422 72.2107 604.838 74.7915C608.635 77.0944 611.706 80.4277 613.699 84.4072L598.836 88.9035C597.962 87.3892 596.692 86.1434 595.164 85.3004C593.637 84.4574 591.909 84.0491 590.167 84.1197C588.664 84.0907 587.173 84.3926 585.799 85.0042C584.424 85.6158 583.2 86.5223 582.212 87.66C579.987 90.2941 578.845 93.6815 579.021 97.1316C578.998 98.9693 579.288 100.797 579.877 102.537C580.394 104.067 581.203 105.481 582.26 106.699C583.252 107.832 584.469 108.744 585.832 109.378C587.189 110.015 588.669 110.341 590.167 110.335C592.006 110.353 593.816 109.874 595.407 108.949C596.902 108.119 598.126 106.873 598.932 105.361L613.794 109.953C611.86 113.945 608.794 117.273 604.982 119.521C600.519 122.121 595.419 123.413 590.262 123.251C586.392 123.314 582.55 122.581 578.972 121.099C575.795 119.77 572.912 117.818 570.494 115.358C568.181 112.977 566.381 110.144 565.206 107.034C563.999 103.874 563.385 100.516 563.397 97.1316Z" fill="#0A0D10"/>
<path d="M634.849 123.251C632.494 123.272 630.155 122.867 627.943 122.055C625.912 121.318 624.049 120.18 622.464 118.707C620.939 117.271 619.708 115.548 618.844 113.636C617.943 111.638 617.488 109.467 617.51 107.273C617.48 104.915 618.02 102.584 619.082 100.48C620.15 98.4167 621.663 96.6189 623.512 95.2184C625.55 93.6834 627.839 92.5178 630.276 91.7742C633.086 90.9151 636.01 90.4957 638.946 90.5306C640.99 90.5266 643.03 90.7028 645.043 91.0572C646.821 91.3493 648.551 91.8803 650.188 92.6359V90.3396C650.188 84.5364 646.854 81.6341 640.185 81.6329C637.519 81.6216 634.873 82.0911 632.372 83.0191C629.614 84.093 626.992 85.4901 624.56 87.1814L620.082 77.6138C623.263 75.5033 626.728 73.8602 630.372 72.7342C634.05 71.6325 637.871 71.0844 641.709 71.1078C649.266 71.1078 655.109 72.8937 659.239 76.4656C663.368 80.0376 665.432 85.2678 665.43 92.1564V105.072C665.327 106.19 665.577 107.311 666.145 108.278C666.472 108.621 666.863 108.895 667.297 109.084C667.73 109.273 668.197 109.373 668.669 109.378V122.295C667.479 122.589 666.27 122.797 665.05 122.917C663.969 123.012 662.985 123.059 662.096 123.059C659.813 123.218 657.541 122.631 655.618 121.385C654.126 120.221 653.137 118.525 652.855 116.649L652.569 114.353C650.453 117.134 647.732 119.392 644.614 120.955C641.582 122.474 638.238 123.26 634.849 123.251ZM639.327 112.249C640.969 112.25 642.598 111.959 644.138 111.387C645.565 110.891 646.878 110.11 647.997 109.091C648.618 108.698 649.14 108.164 649.52 107.533C649.901 106.902 650.129 106.191 650.189 105.456V100.672C648.783 100.142 647.332 99.7416 645.853 99.476C644.425 99.2012 642.974 99.0571 641.519 99.0455C639.074 98.9454 636.659 99.6143 634.611 100.959C633.775 101.488 633.086 102.222 632.611 103.093C632.136 103.963 631.89 104.941 631.896 105.934C631.875 106.802 632.054 107.663 632.417 108.451C632.781 109.239 633.32 109.933 633.992 110.479C635.499 111.697 637.394 112.326 639.327 112.249Z" fill="#0A0D10"/>
<path d="M724.689 122.294H709.446V94.071C709.661 91.5212 709.006 88.9738 707.588 86.8474C706.998 86.118 706.249 85.5354 705.397 85.1453C704.546 84.7553 703.617 84.5683 702.681 84.5991C701.568 84.6062 700.468 84.8338 699.442 85.2687C698.315 85.7439 697.257 86.3717 696.298 87.1347C695.269 87.9463 694.355 88.8959 693.583 89.9569C692.791 91.037 692.165 92.2302 691.726 93.4967V122.295H676.483V72.0647H690.202V80.4841C692.076 77.4565 694.792 75.0456 698.014 73.548C701.654 71.8622 705.628 71.028 709.637 71.1081C712.352 70.9836 715.05 71.5949 717.449 72.8781C719.343 73.9853 720.919 75.5678 722.022 77.4705C723.11 79.377 723.836 81.4692 724.166 83.6415C724.508 85.7933 724.683 87.9685 724.689 90.1475V122.294Z" fill="#0A0D10"/>
<path d="M114.012 20.5946H85.9758V155.405H114.012C119.144 155.405 124.227 154.39 128.969 152.417C133.711 150.445 138.019 147.554 141.649 143.909C145.278 140.264 148.157 135.937 150.121 131.175C152.085 126.413 153.096 121.309 153.096 116.155V59.845C153.096 54.6905 152.085 49.5866 150.121 44.8245C148.157 40.0624 145.278 35.7355 141.649 32.0908C138.019 28.446 133.711 25.5549 128.969 23.5824C124.227 21.6099 119.144 20.5946 114.012 20.5946Z" fill="white"/>
<path d="M58.7954 155.405H86.8315V20.5946H58.7954C53.6628 20.5946 48.5805 21.6098 43.8386 23.5823C39.0967 25.5548 34.7881 28.446 31.1588 32.0907C27.5295 35.7354 24.6506 40.0623 22.6865 44.8244C20.7223 49.5864 19.7114 54.6904 19.7114 59.8448V116.155C19.7114 121.309 20.7223 126.413 22.6865 131.175C24.6506 135.937 27.5295 140.264 31.1588 143.909C34.7881 147.554 39.0967 150.445 43.8386 152.417C48.5805 154.39 53.6628 155.405 58.7954 155.405Z" fill="#FFD523"/>
<path d="M119.49 65.2573C117.618 64.2618 115.476 63.8998 113.383 64.2251C111.29 64.5504 109.357 65.5456 107.872 67.0627C106.387 68.5798 105.43 70.5378 105.143 72.6453C104.855 74.7527 105.253 76.8971 106.276 78.7594C107.3 80.6216 108.895 82.1022 110.824 82.9809C112.753 83.8596 114.913 84.0894 116.982 83.6362C119.052 83.1829 120.92 82.0709 122.31 80.4654C123.7 78.8599 124.536 76.8468 124.694 74.7257C124.713 74.481 124.732 74.2364 124.732 73.9871C124.732 72.1907 124.244 70.4283 123.32 68.89C122.396 67.3516 121.072 66.0956 119.49 65.2573Z" fill="#0A0D10"/>
<path d="M7.81422 36.982H0V23.577C0.00660862 17.7553 2.3124 12.174 6.41153 8.05752C10.5107 3.94101 16.0684 1.62548 21.8654 1.6189H46.8503V9.46631H21.8654C18.1402 9.47073 14.5688 10.9588 11.9346 13.6041C9.3005 16.2494 7.81868 19.8359 7.81422 23.577V36.982Z" fill="#0A0D10"/>
<path d="M48.2124 176H21.8654C16.0684 175.993 10.5107 173.678 6.41161 169.562C2.31248 165.445 0.00666234 159.864 0 154.042V140.191H7.81422V154.042C7.81874 157.783 9.30058 161.37 11.9347 164.015C14.5689 166.66 18.1402 168.148 21.8654 168.153H48.2124V176Z" fill="#0A0D10"/>
<path d="M171.952 36.982H164.138V23.577C164.133 19.8359 162.652 16.2494 160.017 13.6041C157.383 10.9588 153.812 9.47073 150.087 9.46631H125.102V1.6189H150.087C155.884 1.62548 161.441 3.94101 165.541 8.05752C169.64 12.174 171.945 17.7553 171.952 23.577V36.982Z" fill="#0A0D10"/>
<path d="M150.087 176H123.739V168.153H150.087C153.812 168.148 157.383 166.66 160.017 164.015C162.651 161.37 164.133 157.783 164.138 154.042V140.191H171.952V154.042C171.945 159.864 169.639 165.445 165.54 169.562C161.441 173.678 155.884 175.993 150.087 176Z" fill="#0A0D10"/>
<path d="M110.186 100.502C109.947 98.6777 109.056 97.0028 107.679 95.7891C106.302 94.5755 104.533 93.9059 102.7 93.905H85.9758V122.84H114.291C117.684 122.84 120.939 121.486 123.339 119.076C125.738 116.667 127.086 113.398 127.086 109.99V100.502H110.186Z" fill="#E5E5E5"/>
<path d="M85.9758 103.441H110.186C109.947 101.617 109.056 99.942 107.679 98.7283C106.302 97.5147 104.533 96.8451 102.7 96.8442H85.9758V103.441Z" fill="#C6C6C6"/>
<path d="M112.42 97.563C111.636 95.618 110.292 93.9517 108.561 92.7767C106.83 91.6017 104.79 90.9713 102.7 90.9658H85.9758V96.8436H102.7C103.822 96.8464 104.904 97.2573 105.747 98.0001C106.59 98.7429 107.136 99.7674 107.284 100.884L107.618 103.441H124.159V109.99C124.156 112.617 123.115 115.136 121.265 116.994C119.415 118.852 116.907 119.897 114.29 119.9H85.9758V125.779H114.291C118.459 125.774 122.456 124.109 125.403 121.149C128.351 118.189 130.009 114.176 130.013 109.99V97.5622L112.42 97.563Z" fill="#0A0D10"/>
<path d="M61.7655 100.502C62.0044 98.6777 62.8953 97.0028 64.2725 95.7891C65.6496 94.5755 67.4191 93.9059 69.2513 93.905H85.9758V122.84H57.6611C54.2675 122.84 51.0129 121.486 48.6132 119.076C46.2136 116.667 44.8655 113.398 44.8655 109.99V100.502H61.7655Z" fill="#F4901E"/>
<path d="M85.9759 103.441H61.7656C62.0045 101.617 62.8954 99.942 64.2726 98.7283C65.6497 97.5147 67.4192 96.8451 69.2514 96.8442H85.9759V103.441Z" fill="#D1690B"/>
<path d="M59.5318 97.563C60.3159 95.618 61.6592 93.9517 63.3903 92.7767C65.1214 91.6017 67.1619 90.9713 69.2513 90.9658H85.9758V96.8436H69.2513C68.1299 96.8464 67.0476 97.2573 66.2047 98.0001C65.3619 98.7429 64.8157 99.7674 64.6674 100.884L64.3337 103.441H47.7921V109.99C47.7951 112.617 48.8358 115.136 50.686 116.994C52.5361 118.852 55.0445 119.897 57.6609 119.9H85.9758V125.779H57.6609C53.4925 125.774 49.4962 124.109 46.5486 121.149C43.6011 118.189 41.9432 114.176 41.9385 109.99V97.5622L59.5318 97.563Z" fill="#0A0D10"/>
<path d="M114.012 20.5946H85.9749V28.442H114.011C122.301 28.4515 130.25 31.763 136.112 37.6502C141.974 43.5373 145.272 51.5193 145.281 59.845V116.155C145.272 124.481 141.974 132.463 136.112 138.35C130.25 144.237 122.301 147.548 114.011 147.558H85.9749V155.405H114.011C119.144 155.405 124.226 154.39 128.968 152.417C133.71 150.445 138.018 147.554 141.648 143.909C145.277 140.264 148.156 135.937 150.12 131.175C152.084 126.413 153.095 121.309 153.095 116.155V59.845C153.095 49.4353 148.978 39.4519 141.648 32.0911C134.318 24.7302 124.377 20.5948 114.012 20.5946Z" fill="#0A0D10"/>
<path d="M57.9408 20.5946H85.9768V28.442H57.9408C49.6503 28.4514 41.7021 31.7629 35.8398 37.6501C29.9775 43.5373 26.68 51.5193 26.6707 59.845V116.155C26.6801 124.481 29.9776 132.463 35.8399 138.35C41.7022 144.237 49.6503 147.548 57.9408 147.558H85.9768V155.405H57.9408C52.8082 155.405 47.7258 154.39 42.9839 152.417C38.242 150.445 33.9333 147.554 30.304 143.909C26.6747 140.264 23.7958 135.938 21.8316 131.175C19.8674 126.413 18.8564 121.309 18.8564 116.155V59.845C18.8564 49.4351 22.9743 39.4516 30.304 32.0908C37.6337 24.7299 47.575 20.5946 57.9408 20.5946Z" fill="#0A0D10"/>
<path d="M84.0232 0V29.8228V175.999H87.9289V29.8228V0H84.0232Z" fill="#0A0D10"/>
<path d="M61.6468 65.2572C59.7749 64.2617 57.633 63.8995 55.5398 64.2248C53.4465 64.55 51.5137 65.5452 50.029 67.0623C48.5442 68.5794 47.5869 70.5374 47.2993 72.6448C47.0118 74.7523 47.4094 76.8967 48.433 78.759C49.4567 80.6213 51.0516 82.1019 52.9806 82.9806C54.9096 83.8594 57.0695 84.0892 59.1391 83.636C61.2086 83.1828 63.0771 82.0707 64.4667 80.4653C65.8563 78.8598 66.6926 76.8467 66.8512 74.7255C66.8695 74.4809 66.8886 74.2363 66.8886 73.9872C66.8886 72.1908 66.4004 70.4284 65.4767 68.89C64.553 67.3517 63.2288 66.0956 61.6468 65.2572Z" fill="#0A0D10"/>
</svg>
