<svg width="600" height="600" viewBox="0 0 600 600" fill="none" xmlns="http://www.w3.org/2000/svg">
<path d="M25.001 486.514V413.003H52.4599C57.92 412.888 63.3473 413.874 68.4176 415.901C72.7114 417.636 76.5786 420.278 79.7538 423.647C82.9289 427.016 85.3368 431.032 86.8119 435.419C88.3869 439.999 89.1749 444.812 89.1427 449.655C89.2153 454.826 88.3373 459.968 86.5521 464.823C84.9361 469.171 82.4102 473.124 79.143 476.419C75.839 479.688 71.8852 482.227 67.5374 483.874C62.7204 485.686 57.6066 486.582 52.4599 486.514L25.001 486.514ZM71.8396 449.654C71.8755 446.654 71.4386 443.666 70.5451 440.802C69.7538 438.279 68.4679 435.938 66.7624 433.916C65.097 431.98 63.0043 430.455 60.649 429.464C58.0544 428.395 55.2685 427.866 52.4622 427.911H41.9961V471.604H52.4599C55.3105 471.657 58.1387 471.092 60.7498 469.948C63.0973 468.897 65.1715 467.321 66.8118 465.341C68.4825 463.285 69.7484 460.931 70.5428 458.404C71.4321 455.573 71.8694 452.621 71.8386 449.654H71.8396Z" fill="#0A0D10"/>
<path d="M114.324 487.549C111.948 487.712 109.566 487.326 107.364 486.419C105.163 485.512 103.2 484.109 101.63 482.321C98.4617 477.846 96.9419 472.413 97.3283 466.946V432.156H113.908V463.321C113.734 466.003 114.424 468.67 115.877 470.932C116.52 471.798 117.367 472.491 118.343 472.952C119.319 473.412 120.394 473.625 121.472 473.571C123.732 473.559 125.948 472.952 127.898 471.811C130.26 470.324 132.162 468.209 133.39 465.703V432.156H149.969V467.878C149.857 469.087 150.129 470.301 150.747 471.346C151.102 471.718 151.528 472.014 151.999 472.219C152.471 472.423 152.979 472.531 153.493 472.537V486.515C152.16 486.817 150.81 487.042 149.451 487.188C148.346 487.291 147.344 487.343 146.446 487.343C140.505 487.343 137.12 485.031 136.292 480.406L135.98 477.093C133.672 480.53 130.464 483.27 126.706 485.013C122.811 486.745 118.586 487.61 114.324 487.549Z" fill="#0A0D10"/>
<path d="M159.608 459.283C159.596 455.62 160.264 451.987 161.577 448.567C162.85 445.211 164.789 442.148 167.277 439.559C169.875 436.896 172.998 434.798 176.447 433.399C180.382 431.823 184.592 431.048 188.83 431.121C194.385 430.933 199.881 432.314 204.685 435.107C208.814 437.599 212.155 441.207 214.322 445.513L198.157 450.379C197.205 448.741 195.825 447.393 194.163 446.48C192.502 445.568 190.623 445.126 188.728 445.202C187.094 445.171 185.472 445.497 183.977 446.159C182.482 446.821 181.151 447.802 180.076 449.033C177.656 451.884 176.414 455.55 176.605 459.283C176.58 461.272 176.895 463.25 177.537 465.133C178.098 466.789 178.979 468.319 180.128 469.637C181.208 470.863 182.531 471.85 184.014 472.536C185.49 473.225 187.1 473.579 188.728 473.572C190.729 473.591 192.697 473.072 194.428 472.07C196.054 471.173 197.386 469.825 198.261 468.188L214.427 473.158C212.323 477.478 208.989 481.08 204.842 483.512C199.988 486.326 194.441 487.724 188.832 487.549C184.622 487.617 180.444 486.824 176.552 485.22C173.096 483.782 169.961 481.67 167.33 479.008C164.815 476.431 162.857 473.365 161.579 470C160.265 466.58 159.596 462.947 159.608 459.283Z" fill="#0A0D10"/>
<path d="M258.467 486.514L244.269 464.667L238.466 470.673V486.514H221.887V410.931H238.466V454.728L256.807 432.156H274.424L254.839 455.556L276.082 486.514H258.467Z" fill="#0A0D10"/>
<path d="M281.261 494.693C282.526 495.145 283.825 495.491 285.147 495.729C286.225 495.923 287.317 496.027 288.412 496.038C289.297 496.084 290.181 495.92 290.991 495.56C291.801 495.2 292.515 494.655 293.074 493.967C294.554 491.702 295.575 489.17 296.079 486.513L275.354 432.155H292.453L305.095 472.327L315.976 432.155H331.521L310.796 495.312C309.41 499.773 306.607 503.662 302.812 506.39C299.016 509.117 294.435 510.535 289.761 510.428C288.354 510.426 286.949 510.305 285.563 510.066C284.094 509.809 282.653 509.41 281.262 508.875L281.261 494.693Z" fill="#0A0D10"/>
<path d="M383.539 434.538C382.883 433.929 382.151 433.407 381.362 432.985C379.86 432.093 378.303 431.297 376.699 430.603C374.716 429.733 372.673 429.007 370.586 428.429C368.428 427.816 366.197 427.502 363.953 427.497C357.874 427.497 354.835 429.533 354.835 433.606C354.794 434.724 355.142 435.822 355.819 436.712C356.617 437.652 357.606 438.411 358.72 438.938C360.263 439.696 361.877 440.303 363.537 440.75C365.471 441.303 367.716 441.925 370.273 442.614C373.508 443.485 376.69 444.539 379.805 445.772C382.422 446.783 384.855 448.217 387.007 450.017C388.97 451.702 390.529 453.808 391.566 456.177C392.702 458.933 393.249 461.896 393.173 464.875C393.287 468.518 392.486 472.131 390.842 475.384C389.37 478.155 387.255 480.534 384.675 482.321C382.002 484.133 379.015 485.433 375.867 486.152C372.506 486.951 369.062 487.351 365.608 487.343C362.833 487.337 360.063 487.13 357.319 486.722C354.516 486.315 351.745 485.709 349.028 484.91C346.363 484.127 343.749 483.176 341.205 482.062C338.761 481.002 336.419 479.72 334.21 478.231L341.671 463.426C342.489 464.184 343.394 464.844 344.365 465.393C346.168 466.507 348.056 467.476 350.013 468.292C352.454 469.327 354.964 470.192 357.525 470.881C360.259 471.637 363.082 472.02 365.919 472.019C371.929 472.019 374.934 470.19 374.934 466.532C374.954 465.901 374.846 465.272 374.614 464.685C374.382 464.097 374.033 463.563 373.588 463.115C372.497 462.091 371.234 461.267 369.857 460.682C368.027 459.871 366.139 459.196 364.209 458.663C362.033 458.042 359.667 457.351 357.111 456.593C354.092 455.699 351.147 454.573 348.302 453.227C346.034 452.17 343.952 450.754 342.137 449.033C340.542 447.49 339.304 445.617 338.51 443.545C337.672 441.223 337.268 438.766 337.318 436.298C337.247 432.759 337.992 429.252 339.495 426.047C340.893 423.146 342.909 420.584 345.4 418.541C347.963 416.466 350.9 414.902 354.053 413.934C357.424 412.885 360.937 412.361 364.468 412.381C367.007 412.38 369.54 412.623 372.032 413.106C374.453 413.572 376.842 414.195 379.183 414.97C381.363 415.689 383.492 416.554 385.556 417.558C387.524 418.526 389.338 419.492 390.996 420.457L383.539 434.538Z" fill="#0A0D10"/>
<path d="M398.563 459.283C398.551 455.62 399.218 451.987 400.532 448.567C401.805 445.211 403.744 442.148 406.232 439.559C408.83 436.896 411.953 434.798 415.402 433.399C419.337 431.823 423.547 431.048 427.785 431.121C433.34 430.933 438.836 432.314 443.64 435.107C447.769 437.599 451.11 441.207 453.277 445.513L437.112 450.379C436.16 448.741 434.78 447.393 433.118 446.48C431.457 445.568 429.578 445.126 427.683 445.202C426.049 445.171 424.427 445.497 422.932 446.159C421.437 446.821 420.106 447.802 419.031 449.033C416.61 451.884 415.369 455.55 415.56 459.283C415.535 461.272 415.85 463.25 416.492 465.133C417.053 466.789 417.933 468.319 419.083 469.637C420.163 470.863 421.486 471.85 422.969 472.536C424.445 473.225 426.055 473.579 427.683 473.572C429.683 473.591 431.652 473.072 433.383 472.07C435.009 471.173 436.34 469.825 437.216 468.188L453.382 473.158C451.278 477.478 447.944 481.08 443.797 483.512C438.943 486.326 433.396 487.724 427.787 487.549C423.577 487.617 419.398 486.824 415.507 485.22C412.05 483.782 408.916 481.67 406.285 479.008C403.77 476.431 401.812 473.365 400.534 470C399.219 466.58 398.551 462.947 398.563 459.283Z" fill="#0A0D10"/>
<path d="M476.282 487.549C473.72 487.572 471.175 487.133 468.769 486.255C466.56 485.457 464.534 484.225 462.811 482.631C461.151 481.077 459.813 479.213 458.873 477.144C457.893 474.982 457.398 472.632 457.422 470.258C457.39 467.706 457.976 465.184 459.132 462.907C460.293 460.674 461.939 458.728 463.949 457.213C466.166 455.551 468.656 454.29 471.307 453.485C474.362 452.556 477.542 452.102 480.735 452.139C482.958 452.135 485.177 452.325 487.366 452.709C489.3 453.025 491.182 453.599 492.963 454.417V451.932C492.963 445.652 489.336 442.512 482.082 442.512C479.182 442.5 476.303 443.008 473.583 444.013C470.583 445.175 467.731 446.687 465.086 448.517L460.215 438.163C463.675 435.879 467.444 434.101 471.407 432.882C475.408 431.69 479.564 431.097 483.738 431.122C490.587 430.685 497.362 432.745 502.806 436.921C505.125 439.07 506.933 441.71 508.099 444.648C509.264 447.586 509.757 450.748 509.541 453.901V467.878C509.428 469.087 509.7 470.301 510.318 471.347C510.674 471.718 511.099 472.015 511.571 472.219C512.042 472.424 512.55 472.532 513.064 472.537V486.515C511.77 486.833 510.454 487.058 509.127 487.188C507.952 487.291 506.881 487.343 505.914 487.343C503.431 487.515 500.959 486.88 498.868 485.532C497.246 484.271 496.17 482.436 495.863 480.406L495.552 477.921C493.25 480.931 490.291 483.375 486.899 485.066C483.602 486.709 479.966 487.559 476.282 487.549ZM481.152 475.642C482.938 475.644 484.71 475.328 486.385 474.71C487.937 474.173 489.365 473.328 490.583 472.225C491.259 471.8 491.826 471.222 492.24 470.539C492.653 469.856 492.902 469.087 492.966 468.291V463.114C491.438 462.54 489.86 462.107 488.252 461.82C486.698 461.523 485.12 461.367 483.538 461.354C480.879 461.246 478.252 461.97 476.024 463.425C475.114 463.997 474.366 464.792 473.849 465.734C473.332 466.676 473.064 467.734 473.071 468.809C473.049 469.748 473.243 470.68 473.638 471.532C474.034 472.385 474.62 473.135 475.352 473.725C476.989 475.044 479.05 475.726 481.152 475.644L481.152 475.642Z" fill="#0A0D10"/>
<path d="M574 486.514H557.42V455.97C557.654 453.211 556.941 450.454 555.399 448.153C554.758 447.363 553.942 446.733 553.016 446.311C552.09 445.889 551.079 445.687 550.062 445.72C548.851 445.728 547.654 445.974 546.539 446.445C545.312 446.959 544.162 447.638 543.119 448.464C542 449.342 541.006 450.37 540.166 451.518C539.305 452.687 538.624 453.978 538.145 455.349V486.514H521.565V432.156H536.487V441.267C538.526 437.991 541.48 435.381 544.984 433.761C548.944 431.936 553.266 431.034 557.626 431.12C560.579 430.986 563.514 431.647 566.123 433.036C568.184 434.234 569.898 435.947 571.097 438.006C572.281 440.069 573.071 442.333 573.429 444.684C573.801 447.013 573.992 449.366 573.999 451.725L574 486.514Z" fill="#0A0D10"/>
<path d="M343.998 117.522H299.5V330.408H343.998C360.451 330.408 376.229 323.878 387.863 312.254C399.497 300.63 406.032 284.865 406.033 268.427V179.504C406.033 171.364 404.428 163.304 401.31 155.784C398.193 148.264 393.624 141.432 387.863 135.676C382.103 129.92 375.264 125.355 367.738 122.24C360.211 119.125 352.145 117.522 343.998 117.522Z" fill="white"/>
<path d="M256.359 330.408H300.858V117.522H256.359C248.212 117.522 240.146 119.125 232.619 122.24C225.093 125.355 218.254 129.921 212.494 135.676C206.734 141.432 202.164 148.265 199.047 155.784C195.93 163.304 194.325 171.364 194.325 179.504V268.427C194.325 284.865 200.861 300.63 212.494 312.254C224.128 323.878 239.907 330.408 256.359 330.408Z" fill="#FFD523"/>
<path d="M352.692 188.051C349.721 186.479 346.321 185.907 342.999 186.421C339.677 186.935 336.609 188.506 334.252 190.902C331.896 193.298 330.377 196.39 329.92 199.718C329.464 203.045 330.095 206.432 331.72 209.372C333.345 212.313 335.876 214.651 338.938 216.039C341.999 217.426 345.427 217.789 348.712 217.073C351.997 216.358 354.962 214.602 357.168 212.066C359.373 209.531 360.701 206.352 360.952 203.003C360.981 202.616 361.012 202.23 361.012 201.837C361.012 199 360.237 196.217 358.771 193.788C357.305 191.358 355.203 189.375 352.692 188.051Z" fill="#0A0D10"/>
<path d="M175.442 143.4H163.039V122.232C163.05 113.038 166.709 104.225 173.216 97.724C179.722 91.2235 188.543 87.5668 197.744 87.5564H237.4V99.9486H197.744C191.831 99.9552 186.163 102.305 181.982 106.482C177.801 110.66 175.449 116.324 175.442 122.232V143.4Z" fill="#0A0D10"/>
<path d="M239.562 362.93H197.744C188.543 362.919 179.722 359.263 173.216 352.763C166.71 346.262 163.05 337.448 163.039 328.255V306.383H175.442V328.256C175.449 334.164 177.801 339.827 181.982 344.005C186.163 348.182 191.831 350.532 197.744 350.538H239.562V362.93Z" fill="#0A0D10"/>
<path d="M435.961 143.4H423.558V122.232C423.551 116.324 421.199 110.66 417.018 106.482C412.837 102.305 407.169 99.9552 401.256 99.9486H361.6V87.5564H401.256C410.457 87.5668 419.278 91.2235 425.784 97.724C432.291 104.225 435.95 113.038 435.961 122.232V143.4Z" fill="#0A0D10"/>
<path d="M401.256 362.93H359.437V350.538H401.256C407.169 350.531 412.838 348.182 417.019 344.004C421.2 339.827 423.552 334.163 423.558 328.255V306.383H435.961V328.256C435.95 337.449 432.29 346.262 425.784 352.763C419.278 359.263 410.457 362.919 401.256 362.93Z" fill="#0A0D10"/>
<path d="M337.926 243.707C337.547 240.826 336.133 238.182 333.947 236.265C331.761 234.349 328.953 233.291 326.045 233.29H299.5V278.982H344.441C347.108 278.982 349.749 278.457 352.213 277.437C354.677 276.417 356.916 274.922 358.802 273.038C360.687 271.154 362.183 268.917 363.204 266.455C364.225 263.993 364.75 261.354 364.75 258.689V243.707H337.926Z" fill="#E5E5E5"/>
<path d="M299.5 248.349H337.926C337.547 245.468 336.133 242.823 333.947 240.906C331.761 238.99 328.953 237.932 326.045 237.931H299.5V248.349Z" fill="#C6C6C6"/>
<path d="M341.471 239.066C340.227 235.994 338.095 233.363 335.347 231.508C332.6 229.652 329.361 228.657 326.045 228.648H299.5V237.931H326.045C327.825 237.936 329.543 238.585 330.88 239.758C332.218 240.931 333.085 242.549 333.321 244.312L333.85 248.349H360.105V258.691C360.1 262.84 358.448 266.818 355.511 269.752C352.575 272.686 348.594 274.336 344.441 274.341H299.5V283.624H344.441C351.057 283.617 357.4 280.988 362.079 276.313C366.757 271.639 369.388 265.301 369.396 258.691V239.066H341.471Z" fill="#0A0D10"/>
<path d="M261.073 243.707C261.452 240.826 262.867 238.182 265.052 236.265C267.238 234.349 270.047 233.291 272.955 233.29H299.5V278.982H254.559C251.892 278.982 249.251 278.457 246.787 277.437C244.323 276.417 242.084 274.922 240.198 273.038C238.312 271.154 236.816 268.917 235.795 266.455C234.775 263.993 234.25 261.354 234.25 258.689V243.707H261.073Z" fill="#F4901E"/>
<path d="M299.5 248.349H261.073C261.452 245.468 262.867 242.823 265.052 240.906C267.238 238.99 270.047 237.933 272.955 237.931H299.5V248.349Z" fill="#D1690B"/>
<path d="M257.528 239.066C258.773 235.994 260.905 233.363 263.652 231.508C266.4 229.652 269.638 228.657 272.955 228.648H299.5V237.931H272.956C271.176 237.936 269.458 238.585 268.12 239.758C266.783 240.931 265.916 242.549 265.68 244.312L265.151 248.349H238.896V258.691C238.901 262.84 240.553 266.818 243.49 269.752C246.426 272.686 250.408 274.337 254.56 274.341H299.501V283.624H254.559C247.943 283.617 241.599 280.988 236.921 276.313C232.243 271.639 229.611 265.301 229.604 258.691V239.066H257.528Z" fill="#0A0D10"/>
<path d="M343.998 117.522H299.5V129.914H343.998C357.157 129.929 369.773 135.158 379.077 144.455C388.382 153.752 393.616 166.356 393.63 179.504V268.427C393.616 281.574 388.382 294.179 379.077 303.476C369.773 312.773 357.157 318.002 343.999 318.017H299.5V330.409H343.998C360.451 330.409 376.23 323.878 387.863 312.255C399.497 300.631 406.033 284.865 406.033 268.427V179.504C406.033 163.065 399.497 147.3 387.863 135.676C376.23 124.052 360.451 117.522 343.998 117.522Z" fill="#0A0D10"/>
<path d="M255.001 117.522H299.5V129.914H255.001C241.843 129.929 229.227 135.158 219.923 144.455C210.618 153.752 205.385 166.356 205.37 179.504V268.427C205.385 281.574 210.618 294.179 219.923 303.476C229.227 312.773 241.843 318.002 255.001 318.017H299.5V330.409H255.001C246.855 330.409 238.788 328.806 231.262 325.691C223.736 322.576 216.897 318.01 211.136 312.255C205.376 306.499 200.807 299.666 197.689 292.146C194.572 284.626 192.967 276.566 192.967 268.427V179.504C192.967 163.065 199.503 147.3 211.137 135.676C222.77 124.052 238.549 117.522 255.001 117.522Z" fill="#0A0D10"/>
<path d="M296.398 85V132.094V362.931H302.599V132.094V85H296.398Z" fill="#0A0D10"/>
<path d="M260.885 188.051C257.914 186.479 254.514 185.907 251.192 186.421C247.869 186.935 244.802 188.506 242.446 190.902C240.089 193.298 238.57 196.39 238.113 199.718C237.657 203.045 238.288 206.432 239.913 209.372C241.537 212.313 244.069 214.651 247.131 216.039C250.192 217.426 253.62 217.789 256.905 217.073C260.19 216.358 263.155 214.602 265.361 212.066C267.566 209.531 268.894 206.352 269.145 203.003C269.174 202.616 269.204 202.23 269.204 201.837C269.205 199 268.43 196.217 266.964 193.788C265.498 191.358 263.396 189.375 260.885 188.051Z" fill="#0A0D10"/>
</svg>
