<svg width="306" height="93" viewBox="0 0 306 93" fill="none" xmlns="http://www.w3.org/2000/svg">
<g clip-path="url(#clip0_89869_80223)">
<path d="M-0.000515996 45.8454C-0.000515728 39.7035 2.43933 33.8132 6.78227 29.4703C11.1252 25.1273 17.0155 22.6875 23.1574 22.6875L54.7363 22.6875L54.7363 69.0033L23.1574 69.0033C20.1162 69.0033 17.1049 68.4043 14.2952 67.2405C11.4856 66.0767 8.93268 64.3709 6.78227 62.2205C4.63186 60.0701 2.92607 57.5172 1.76227 54.7075C0.598481 51.8979 -0.000516129 48.8865 -0.000515996 45.8454V45.8454Z" fill="#8B93A7"/>
<path d="M80 31.1053L80 60.5789C80 61.1373 79.7782 61.6728 79.3834 62.0676C78.9886 62.4624 78.4531 62.6842 77.8947 62.6842L54.7368 62.6842L54.7368 29L77.8947 29C78.4531 29 78.9886 29.2218 79.3834 29.6166C79.7782 30.0114 80 30.5469 80 31.1053V31.1053Z" fill="#D2DFFE"/>
<path d="M71.5781 37.4256L71.5781 41.6361C71.5781 43.0396 70.8764 43.7414 69.4729 43.7414L65.2623 43.7414C63.8588 43.7414 63.1571 43.0396 63.1571 41.6361L63.1571 37.4256C63.1571 36.0221 63.8588 35.3203 65.2623 35.3203L69.4729 35.3203C70.8764 35.3203 71.5781 36.0221 71.5781 37.4256Z" fill="#8B93A7"/>
<path d="M71.5781 50.0506L71.5781 54.2611C71.5781 55.6646 70.8764 56.3664 69.4729 56.3664L65.2623 56.3664C63.8588 56.3664 63.1571 55.6646 63.1571 54.2611L63.1571 50.0506C63.1571 48.6471 63.8588 47.9453 65.2623 47.9453L69.4729 47.9453C70.8764 47.9453 71.5781 48.6471 71.5781 50.0506Z" fill="#8B93A7"/>
<g clip-path="url(#clip1_89869_80223)">
<circle cx="31" cy="46" r="14" fill="white"/>
<path d="M29.7837 38.7299L29.7845 45.2751C29.7845 45.3038 29.7966 45.3255 29.8209 45.3401C30.898 45.9752 31.9509 46.5884 32.9795 47.1797C33.5564 47.5107 33.9656 47.7858 34.2071 48.0049C36.0266 49.6538 36.3735 52.343 34.9988 54.3871C33.4106 56.7485 30.1039 57.2004 27.9302 55.3884C27.2466 54.8183 26.7541 54.1052 26.4528 53.2494C25.9158 51.7222 26.1875 50.1026 27.1207 48.7782C27.4903 48.254 28.0321 48.0098 28.637 48.3652C29.0348 48.5995 29.4653 48.8532 29.9284 49.1264C29.9314 49.1281 29.9339 49.1304 29.9358 49.1332C29.9377 49.136 29.9389 49.1392 29.9394 49.1425C29.9399 49.1458 29.9396 49.1492 29.9385 49.1523C29.9374 49.1554 29.9356 49.1582 29.9333 49.1604C29.6357 49.4737 29.3122 49.7999 29.0567 50.1318C28.682 50.6181 28.5057 51.1604 28.5278 51.7588C28.6079 53.8994 31.1576 54.9649 32.7086 53.4791C33.6807 52.5475 33.7445 51.0503 32.8607 50.0165C32.7162 49.8472 32.386 49.6097 31.87 49.3041C30.6543 48.5835 29.4389 47.8629 28.2238 47.1423C27.6097 46.7783 27.1547 46.4564 26.8587 46.1767C25.1799 44.5903 24.4925 42.323 25.0837 40.055C25.5503 38.2633 26.8304 36.7888 28.4947 36.0407C31.6703 34.6133 35.357 36.1137 36.6816 39.3466C37.1054 40.3812 37.2404 41.6154 37.0213 42.7669C36.756 44.1594 36.0768 45.3433 34.9834 46.3187C34.3777 46.8583 33.9063 46.7585 33.2763 46.3714C32.7313 46.036 32.1445 45.6966 31.5158 45.353C31.4936 45.3407 31.475 45.3227 31.462 45.3009C31.4491 45.279 31.4423 45.2542 31.4423 45.2289V42.6338C31.4423 42.6062 31.456 42.5924 31.4835 42.5924L32.3957 42.5933C32.4243 42.5933 32.4385 42.5786 32.4385 42.5494L32.441 39.8781C32.441 39.866 32.4362 39.8545 32.4277 39.846C32.4192 39.8374 32.4077 39.8326 32.3957 39.8326L31.4843 39.8367C31.4734 39.8367 31.4629 39.8323 31.4551 39.8246C31.4474 39.8168 31.4431 39.8063 31.4431 39.7953V38.7299C31.4431 38.7163 31.4377 38.7033 31.4281 38.6937C31.4186 38.6841 31.4056 38.6787 31.3921 38.6787L29.8338 38.6795C29.8004 38.6795 29.7837 38.6963 29.7837 38.7299Z" fill="#2A3330"/>
</g>
</g>
<path d="M135.667 47.8428H112.333" stroke="#707280" stroke-width="3.33333" stroke-linecap="round" stroke-linejoin="round"/>
<path d="M135.667 47.8428L129 41.1761" stroke="#707280" stroke-width="3.33333" stroke-linecap="round" stroke-linejoin="round"/>
<path d="M135.667 47.8431L129 54.5098" stroke="#707280" stroke-width="3.33333" stroke-linecap="round" stroke-linejoin="round"/>
<path d="M175.715 0H292.286C296.857 0 299.143 2.28571 299.143 6.85714V75.4286C299.143 80 296.857 82.2857 292.286 82.2857H175.715C171.143 82.2857 168.857 80 168.857 75.4286V6.85714C168.857 2.28571 171.143 0 175.715 0V0Z" fill="#8B93A7"/>
<path d="M175.714 3.42969H292.285C294.571 3.42969 295.714 4.57254 295.714 6.85826V72.0011C295.714 74.2868 294.571 75.4297 292.285 75.4297H175.714C173.428 75.4297 172.285 74.2868 172.285 72.0011V6.85826C172.285 4.57254 173.428 3.42969 175.714 3.42969V3.42969Z" fill="#D2DFFE"/>
<path d="M165.429 85.7188H302.571C304.857 85.7188 306 86.8616 306 89.1473C306 91.433 304.857 92.5759 302.571 92.5759H165.429C163.143 92.5759 162 91.433 162 89.1473C162 86.8616 163.143 85.7188 165.429 85.7188V85.7188Z" fill="#8B93A7"/>
<path d="M249.014 41.7377C250.206 39.0758 244.315 31.6388 238.687 28.5403C235.14 26.14 231.444 26.4698 230.695 27.5237C229.052 29.8366 236.135 31.7965 240.872 34.0835C239.854 34.5257 238.894 35.3194 238.33 36.3344C236.564 34.4064 232.688 32.7461 228.14 34.0835C225.075 34.9847 222.528 37.1094 221.543 40.3185C221.304 40.2122 221.039 40.1532 220.76 40.1532C219.695 40.1532 218.831 41.017 218.831 42.0825C218.831 43.1481 219.695 44.0119 220.76 44.0119C220.958 44.0119 221.575 43.8794 221.575 43.8794L231.444 43.9509C227.497 50.2117 224.378 51.1269 224.378 52.2115C224.378 53.2962 227.363 53.0023 228.483 52.598C233.847 50.6625 239.608 44.6306 240.597 42.8942C244.748 43.4121 248.237 43.4734 249.014 41.7377Z" fill="url(#paint0_linear_89869_80223)"/>
<path fill-rule="evenodd" clip-rule="evenodd" d="M240.872 34.0835C240.872 34.0836 240.872 34.0837 240.873 34.0838C241.092 33.9973 241.057 33.673 240.996 33.4184C240.858 32.833 238.467 30.472 236.222 29.4145C233.162 27.9736 230.909 28.0478 230.576 28.7119C231.2 29.9892 234.089 31.1884 237.106 32.4409C238.394 32.9752 239.704 33.5193 240.872 34.0832C240.872 34.0833 240.872 34.0834 240.872 34.0835Z" fill="url(#paint1_linear_89869_80223)"/>
<path fill-rule="evenodd" clip-rule="evenodd" d="M236.99 46.9394C236.371 46.703 235.672 46.486 234.878 46.2892C235.725 44.7732 235.903 42.5289 235.102 41.1099C233.98 39.1185 232.57 38.0586 229.294 38.0586C227.493 38.0586 222.642 38.6654 222.556 42.7147C222.547 43.1396 222.556 43.529 222.586 43.8871L231.444 43.9513C230.25 45.8456 229.132 47.2506 228.153 48.319C229.328 48.6202 230.298 48.8731 231.189 49.1052C232.034 49.3256 232.808 49.5272 233.617 49.7338C234.838 48.844 235.987 47.8738 236.99 46.9394Z" fill="url(#paint2_linear_89869_80223)"/>
<path d="M221.425 43.4709C221.787 46.547 223.535 47.7525 227.107 48.1092C230.68 48.466 232.729 48.2266 235.457 48.4748C237.735 48.6821 239.769 49.8432 240.524 49.442C241.203 49.0809 240.823 47.7763 239.914 46.9393C238.736 45.8543 237.106 45.1 234.237 44.8323C234.809 43.2668 234.648 41.0719 233.76 39.8777C232.477 38.151 230.107 37.3703 227.107 37.7114C223.974 38.0678 220.971 39.6106 221.425 43.4709Z" fill="url(#paint3_linear_89869_80223)"/>
<defs>
<linearGradient id="paint0_linear_89869_80223" x1="227.783" y1="39.3804" x2="248.758" y2="45.3285" gradientUnits="userSpaceOnUse">
<stop stop-color="#8797FF"/>
<stop offset="1" stop-color="#AAA8FF"/>
</linearGradient>
<linearGradient id="paint1_linear_89869_80223" x1="245.226" y1="38.9814" x2="230.091" y2="23.8101" gradientUnits="userSpaceOnUse">
<stop stop-color="#3B22A0"/>
<stop offset="1" stop-color="#5156D8" stop-opacity="0"/>
</linearGradient>
<linearGradient id="paint2_linear_89869_80223" x1="237.411" y1="47.4679" x2="222.873" y2="39.1094" gradientUnits="userSpaceOnUse">
<stop stop-color="#3B1E8F"/>
<stop offset="1" stop-color="#6A6FFB" stop-opacity="0"/>
</linearGradient>
<linearGradient id="paint3_linear_89869_80223" x1="229.035" y1="39.2243" x2="238.862" y2="51.7101" gradientUnits="userSpaceOnUse">
<stop stop-color="#8898FF"/>
<stop offset="0.983895" stop-color="#5F47F1"/>
</linearGradient>
<clipPath id="clip0_89869_80223">
<rect width="80" height="80" fill="white" transform="translate(80 5.84375) rotate(90)"/>
</clipPath>
<clipPath id="clip1_89869_80223">
<rect width="28" height="28" fill="white" transform="translate(17 32)"/>
</clipPath>
</defs>
</svg>
