<svg width="309" height="128" viewBox="0 0 309 128" fill="none" xmlns="http://www.w3.org/2000/svg">
<path d="M178.717 0H295.288C299.859 0 302.145 2.28571 302.145 6.85714V75.4286C302.145 80 299.859 82.2857 295.288 82.2857H178.717C174.145 82.2857 171.859 80 171.859 75.4286V6.85714C171.859 2.28571 174.145 0 178.717 0V0Z" fill="#8B93A7"/>
<path d="M178.714 3.42969H295.285C297.571 3.42969 298.714 4.57254 298.714 6.85826V72.0011C298.714 74.2868 297.571 75.4297 295.285 75.4297H178.714C176.428 75.4297 175.285 74.2868 175.285 72.0011V6.85826C175.285 4.57254 176.428 3.42969 178.714 3.42969Z" fill="#D2DFFE"/>
<path d="M168.429 85.7188H305.571C307.857 85.7188 309 86.8616 309 89.1473C309 91.433 307.857 92.5759 305.571 92.5759H168.429C166.143 92.5759 165 91.433 165 89.1473C165 86.8616 166.143 85.7188 168.429 85.7188Z" fill="#8B93A7"/>
<path d="M252.014 41.7377C253.206 39.0758 247.315 31.6388 241.687 28.5403C238.14 26.14 234.444 26.4698 233.695 27.5237C232.052 29.8366 239.135 31.7965 243.872 34.0835C242.854 34.5257 241.894 35.3194 241.33 36.3344C239.564 34.4064 235.688 32.7461 231.14 34.0835C228.075 34.9847 225.528 37.1094 224.543 40.3185C224.304 40.2122 224.039 40.1532 223.76 40.1532C222.695 40.1532 221.831 41.017 221.831 42.0825C221.831 43.1481 222.695 44.0119 223.76 44.0119C223.958 44.0119 224.575 43.8794 224.575 43.8794L234.444 43.9509C230.497 50.2117 227.378 51.1269 227.378 52.2115C227.378 53.2962 230.363 53.0023 231.483 52.598C236.847 50.6625 242.608 44.6306 243.597 42.8942C247.748 43.4121 251.237 43.4734 252.014 41.7377Z" fill="url(#paint0_linear_500_2796)"/>
<path fill-rule="evenodd" clip-rule="evenodd" d="M243.872 34.0835C243.872 34.0836 243.872 34.0837 243.872 34.0838C244.092 33.9973 244.056 33.673 243.996 33.4184C243.858 32.833 241.467 30.472 239.221 29.4145C236.162 27.9736 233.909 28.0478 233.576 28.7119C234.199 29.9892 237.088 31.1884 240.106 32.4409C241.393 32.9752 242.704 33.5193 243.872 34.0832C243.872 34.0833 243.872 34.0834 243.872 34.0835Z" fill="url(#paint1_linear_500_2796)"/>
<path fill-rule="evenodd" clip-rule="evenodd" d="M239.99 46.9394C239.371 46.703 238.672 46.486 237.877 46.2892C238.725 44.7732 238.902 42.5289 238.102 41.1099C236.979 39.1185 235.57 38.0586 232.294 38.0586C230.492 38.0586 225.642 38.6654 225.556 42.7147C225.547 43.1396 225.555 43.529 225.586 43.8871L234.444 43.9513C233.25 45.8456 232.131 47.2506 231.152 48.319C232.328 48.6202 233.298 48.8731 234.189 49.1052C235.034 49.3256 235.807 49.5272 236.617 49.7338C237.838 48.844 238.986 47.8738 239.99 46.9394Z" fill="url(#paint2_linear_500_2796)"/>
<path d="M224.425 43.4709C224.787 46.547 226.535 47.7525 230.107 48.1092C233.679 48.466 235.728 48.2266 238.456 48.4748C240.735 48.6821 242.769 49.8432 243.524 49.442C244.203 49.0809 243.823 47.7763 242.914 46.9393C241.736 45.8543 240.106 45.1 237.237 44.8323C237.808 43.2668 237.648 41.0719 236.76 39.8777C235.476 38.151 233.106 37.3703 230.107 37.7114C226.973 38.0678 223.971 39.6106 224.425 43.4709Z" fill="url(#paint3_linear_500_2796)"/>
<path d="M6.81818 0H43.1818C47.7273 0 50 2.27778 50 6.83333V75.1667C50 79.7222 47.7273 82 43.1818 82H6.81818C2.27273 82 -7.37572e-08 79.7222 0 75.1667V6.83333C0 2.27778 2.27273 0 6.81818 0Z" fill="#8B93A7"/>
<rect x="3" y="3" width="44" height="73" rx="3" fill="#D2DFFE"/>
<path d="M17.4757 31H26.3301L20.4272 43.5437H16L17.4757 31Z" fill="black"/>
<path d="M32.2328 47.2332H23.3784L29.2814 34.6895H33.7086L32.2328 47.2332Z" fill="#1F5AFF"/>
<rect x="21" y="82" width="8" height="12" fill="#585B6D"/>
<rect x="153" y="86.5" width="12" height="5" fill="#585B6D"/>
<path d="M153 89C129.242 89 121.784 101.496 104 107C86.797 112.324 68.8605 107.884 67 93C65.75 83 76 76 87 76C98 76 116.342 85.7812 113 105.5C108 135 25 134.615 25 93.9915" stroke="#8B93A7" stroke-width="2"/>
<defs>
<linearGradient id="paint0_linear_500_2796" x1="230.783" y1="39.3804" x2="251.758" y2="45.3285" gradientUnits="userSpaceOnUse">
<stop stop-color="#8797FF"/>
<stop offset="1" stop-color="#AAA8FF"/>
</linearGradient>
<linearGradient id="paint1_linear_500_2796" x1="248.225" y1="38.9814" x2="233.091" y2="23.8101" gradientUnits="userSpaceOnUse">
<stop stop-color="#3B22A0"/>
<stop offset="1" stop-color="#5156D8" stop-opacity="0"/>
</linearGradient>
<linearGradient id="paint2_linear_500_2796" x1="240.411" y1="47.4679" x2="225.873" y2="39.1094" gradientUnits="userSpaceOnUse">
<stop stop-color="#3B1E8F"/>
<stop offset="1" stop-color="#6A6FFB" stop-opacity="0"/>
</linearGradient>
<linearGradient id="paint3_linear_500_2796" x1="232.035" y1="39.2243" x2="241.862" y2="51.7101" gradientUnits="userSpaceOnUse">
<stop stop-color="#8898FF"/>
<stop offset="0.983895" stop-color="#5F47F1"/>
</linearGradient>
</defs>
</svg>
