<?xml version="1.0" encoding="UTF-8"?><svg id="Layer_1" xmlns="http://www.w3.org/2000/svg" width="156" height="152" xmlns:xlink="http://www.w3.org/1999/xlink" viewBox="0 0 156 152"><defs><style>.cls-1{fill:url(#linear-gradient);}.cls-2{fill:#e6e6e6;}.cls-3{fill:#fff6e1;}.cls-4{fill:url(#linear-gradient-3);}.cls-5{fill:url(#linear-gradient-4);}.cls-6{fill:url(#linear-gradient-2);}</style><linearGradient id="linear-gradient" x1="40.0964" y1="18.0098" x2="88.9224" y2="18.0098" gradientTransform="translate(-15.6738 -.4471)" gradientUnits="userSpaceOnUse"><stop offset="0" stop-color="#ffce46"/><stop offset="1" stop-color="#ffdc81"/></linearGradient><linearGradient id="linear-gradient-2" x1="40.3799" y1="8.0533" x2="50.1816" y2="4.909" gradientTransform="matrix(1, 0, 0, 1, 0, 0)" xlink:href="#linear-gradient"/><linearGradient id="linear-gradient-3" x1="80.0497" y1="36.8481" x2="128.8756" y2="36.8481" gradientTransform="matrix(1, 0, 0, 1, 0, 0)" xlink:href="#linear-gradient"/><linearGradient id="linear-gradient-4" x1="99.3159" y1="25.2104" x2="109.6095" y2="25.2104" gradientTransform="matrix(1, 0, 0, 1, 0, 0)" xlink:href="#linear-gradient"/></defs><g><path class="cls-2" d="M53.8197,136.1078l-15.1677,4.8655c-1.7064,.5474-3.54-.3956-4.0873-2.102L.9064,33.9464c-.5474-1.7064,.3956-3.54,2.102-4.0873L93.2642,.9064c1.7065-.5474,3.54,.3956,4.0874,2.102l10.1816,31.7399h.7877L98.0657,2.7792c-.6748-2.1035-2.927-3.2618-5.0306-2.587L2.7792,29.1448c-2.1035,.6747-3.2618,2.9271-2.587,5.0306l33.6582,104.925c.6747,2.1035,2.9271,3.2618,5.0306,2.587l14.9386-4.7921v-.7876Z"/><path class="cls-2" d="M53.8197,37.9983c0-1.7921,1.4579-3.25,3.25-3.25h42.0357l-8.5505-26.6553c-.3374-1.0518-1.4636-1.6309-2.5153-1.2935L10.6862,31.6132c-1.0518,.3374-1.6309,1.4635-1.2935,2.5153l29.7974,92.8893c.3374,1.0518,1.4636,1.6309,2.5153,1.2935l12.1144-3.8861V37.9983Z"/><rect class="cls-1" x="24.4226" y="9.9627" width="48.8259" height="15.2001" rx="2" ry="2" transform="translate(-3.0306 15.7563) rotate(-17.7854)"/><g><circle class="cls-3" cx="45.2808" cy="6.4812" r="5.1468"/><path class="cls-6" d="M45.2823,3.3329c1.3717,0,2.5754,.879,2.9949,2.187,.2568,.8004,.1865,1.6528-.1979,2.4003s-1.0369,1.3006-1.8373,1.5573c-.314,.1007-.6378,.1518-.9624,.1518-1.3719,0-2.5756-.8789-2.9952-2.187-.2568-.8004-.1865-1.6528,.1979-2.4003,.3844-.7475,1.0369-1.3006,1.8373-1.5573,.3138-.1007,.6378-.1517,.9627-.1518m-.0003-2c-.5208,0-1.0508,.0797-1.5733,.2473-2.7067,.8683-4.197,3.7663-3.3287,6.473,.7006,2.1841,2.7227,3.5761,4.8997,3.5761,.5208,0,1.0508-.0797,1.5733-.2474,2.7067-.8683,4.197-3.7663,3.3287-6.473-.7006-2.1841-2.7227-3.5762-4.8997-3.5761h0Z"/></g></g><g><path class="cls-2" d="M151.8556,34.5587c1.7921,0,3.25,1.4579,3.25,3.25v110.1913c0,1.7921-1.4579,3.25-3.25,3.25H57.0697c-1.7921,0-3.25-1.4579-3.25-3.25V37.8087c0-1.7921,1.4579-3.25,3.25-3.25h94.7859m0-.75H57.0697c-2.2091,0-4,1.7909-4,4v110.1913c0,2.2091,1.7909,4,4,4h94.7859c2.2092,0,4-1.7909,4-4V37.8087c0-2.2091-1.7908-4-4-4h0Z"/><rect class="cls-2" x="61.8447" y="38.5743" width="85.2359" height="101.5516" rx="2" ry="2"/><rect class="cls-4" x="80.0497" y="29.2481" width="48.8259" height="15.2001" rx="2" ry="2"/><g><circle class="cls-3" cx="104.4627" cy="25.2104" r="5.1468"/><path class="cls-5" d="M104.4626,22.0635c1.7352,0,3.1469,1.4117,3.1469,3.1468s-1.4117,3.1469-3.1469,3.1469-3.1468-1.4117-3.1468-3.1469,1.4116-3.1468,3.1468-3.1468m0-2c-2.8425,0-5.1468,2.3043-5.1468,5.1468s2.3043,5.1469,5.1468,5.1469,5.1469-2.3043,5.1469-5.1469-2.3043-5.1468-5.1469-5.1468h0Z"/></g></g></svg>