<?xml version="1.0" encoding="UTF-8"?><svg id="Layer_1" xmlns="http://www.w3.org/2000/svg" width="100" height="100" viewBox="0 0 100 100"><defs><style>.cls-1{fill:#ffdc81;}.cls-2{fill:#ffb600;}.cls-3{fill:#ffce46;}</style></defs><polygon class="cls-2" points="22.3824 38.4269 66.0687 31.558 66.0687 50.3194 33.7615 56.1046 22.3824 38.4269"/><polygon class="cls-3" points="78.8119 46.4098 66.0687 31.558 66.0687 50.3194 78.8119 46.4098"/><polygon class="cls-1" points="22.3824 38.4269 16.6125 23.7274 58.1008 16.9959 66.0687 31.558 22.3824 38.4269"/><polygon class="cls-1" points="33.7615 82.8055 33.7615 56.1046 21.6558 50 20.8602 67.1576 33.7615 82.8055"/><polygon class="cls-3" points="79.8873 72.8598 79.8873 48.0617 33.7615 56.1046 33.7615 82.8055 79.8873 72.8598"/><polygon class="cls-1" points="6.0637 35.0235 22.3824 38.4269 33.7615 56.1046 13.6037 51.7961 6.0637 35.0235"/><polygon class="cls-1" points="66.0687 31.558 79.5163 20.0432 93.706 33.3271 78.8119 46.4098 66.0687 31.558"/><polygon class="cls-1" points="33.7615 56.1046 78.8119 46.4098 92.0958 47.0136 39.7652 59.2912 33.7615 56.1046"/></svg>