<svg width="228" height="192" viewBox="0 0 228 192" fill="none" xmlns="http://www.w3.org/2000/svg">
<mask id="path-1-inside-1_5_1237" fill="white">
<path d="M132 0C185.019 0 228 42.9807 228 96C228 149.019 185.019 192 132 192C85.133 192 46.1109 158.415 37.6855 114H0L36.752 83.9297C42.6884 36.608 83.0688 0 132 0Z"/>
</mask>
<path d="M132 0C185.019 0 228 42.9807 228 96C228 149.019 185.019 192 132 192C85.133 192 46.1109 158.415 37.6855 114H0L36.752 83.9297C42.6884 36.608 83.0688 0 132 0Z" fill="white"/>
<path d="M37.6855 114L38.668 113.814L38.5137 113H37.6855V114ZM0 114L-0.633245 113.226L-2.80137 115H0V114ZM36.752 83.9297L37.3852 84.7036L37.6944 84.4506L37.7442 84.0542L36.752 83.9297ZM132 0V1C184.467 1 227 43.5329 227 96H228H229C229 42.4284 185.572 -1 132 -1V0ZM228 96H227C227 148.467 184.467 191 132 191V192V193C185.572 193 229 149.572 229 96H228ZM132 192V191C85.6224 191 47.0055 157.766 38.668 113.814L37.6855 114L36.7031 114.186C45.2163 159.065 84.6437 193 132 193V192ZM37.6855 114V113H0V114V115H37.6855V114ZM0 114L0.633245 114.774L37.3852 84.7036L36.752 83.9297L36.1187 83.1557L-0.633245 113.226L0 114ZM36.752 83.9297L37.7442 84.0542C43.6186 37.2264 83.5793 1 132 1V0V-1C82.5584 -1 41.7581 35.9896 35.7597 83.8052L36.752 83.9297Z" fill="black" fill-opacity="0.1" mask="url(#path-1-inside-1_5_1237)"/>
</svg>
