<svg width="337" height="337" viewBox="0 0 337 337" fill="none" xmlns="http://www.w3.org/2000/svg">
<path d="M136.306 167.496C137.625 167.496 138.801 167.668 139.834 168.012C140.866 168.337 141.726 168.815 142.415 169.446C143.122 170.058 143.657 170.803 144.021 171.683C144.384 172.543 144.566 173.518 144.566 174.608C144.566 175.468 144.432 176.329 144.164 177.189C143.916 178.05 143.495 178.833 142.902 179.541C142.329 180.248 141.564 180.822 140.608 181.262C139.652 181.682 138.466 181.893 137.052 181.893H134.069V188.604H129.91V167.496H136.306ZM137.023 177.877C137.654 177.877 138.18 177.772 138.6 177.562C139.021 177.352 139.346 177.084 139.575 176.759C139.824 176.434 139.996 176.099 140.092 175.755C140.206 175.392 140.264 175.057 140.264 174.751C140.264 174.522 140.225 174.235 140.149 173.891C140.092 173.528 139.958 173.165 139.747 172.801C139.537 172.438 139.212 172.132 138.772 171.884C138.352 171.635 137.778 171.511 137.052 171.511H134.069V177.877H137.023ZM140.923 180.459L146.143 188.604H141.296L135.962 180.573L140.923 180.459ZM153.328 188.948C152.162 188.948 151.101 188.718 150.145 188.259C149.208 187.781 148.463 187.055 147.908 186.08C147.354 185.105 147.076 183.862 147.076 182.351C147.076 180.937 147.363 179.713 147.937 178.68C148.51 177.648 149.266 176.855 150.202 176.3C151.139 175.727 152.133 175.44 153.185 175.44C154.428 175.44 155.365 175.65 155.996 176.071C156.646 176.472 157.181 176.922 157.602 177.419L157.43 177.906L157.802 176.071H161.531V188.604H157.516V185.879L157.831 186.739C157.793 186.739 157.678 186.854 157.487 187.084C157.296 187.294 157.009 187.552 156.627 187.858C156.263 188.145 155.804 188.393 155.25 188.604C154.715 188.833 154.074 188.948 153.328 188.948ZM154.476 185.678C154.954 185.678 155.384 185.611 155.766 185.477C156.149 185.325 156.483 185.114 156.77 184.847C157.057 184.56 157.305 184.206 157.516 183.785V180.717C157.363 180.296 157.133 179.942 156.827 179.656C156.521 179.35 156.158 179.12 155.737 178.967C155.317 178.795 154.848 178.709 154.332 178.709C153.759 178.709 153.223 178.862 152.726 179.168C152.248 179.455 151.866 179.856 151.579 180.373C151.292 180.889 151.149 181.482 151.149 182.151C151.149 182.82 151.302 183.422 151.608 183.957C151.914 184.493 152.315 184.913 152.812 185.219C153.328 185.525 153.883 185.678 154.476 185.678ZM173.038 188.948C171.987 188.948 171.098 188.776 170.371 188.431C169.664 188.068 169.042 187.6 168.507 187.026L168.823 186.166V188.604H164.808V165.976H168.794V178.222V176.931C169.291 176.51 169.951 176.157 170.773 175.87C171.595 175.583 172.532 175.44 173.583 175.44C174.673 175.44 175.667 175.698 176.566 176.214C177.465 176.73 178.182 177.486 178.717 178.48C179.271 179.455 179.549 180.65 179.549 182.065C179.549 183.479 179.243 184.703 178.631 185.736C178.038 186.768 177.245 187.562 176.251 188.116C175.256 188.67 174.186 188.948 173.038 188.948ZM172.149 185.564C172.742 185.564 173.287 185.411 173.784 185.105C174.3 184.799 174.711 184.378 175.017 183.843C175.323 183.307 175.476 182.705 175.476 182.036C175.476 181.367 175.323 180.774 175.017 180.258C174.711 179.742 174.3 179.34 173.784 179.053C173.287 178.747 172.742 178.594 172.149 178.594C171.633 178.594 171.146 178.68 170.687 178.853C170.247 179.006 169.865 179.235 169.54 179.541C169.234 179.828 168.995 180.181 168.823 180.602V183.671C169.052 184.091 169.32 184.445 169.626 184.732C169.951 184.999 170.324 185.21 170.744 185.363C171.165 185.497 171.633 185.564 172.149 185.564ZM190.075 188.948C189.023 188.948 188.134 188.776 187.407 188.431C186.7 188.068 186.079 187.6 185.543 187.026L185.859 186.166V188.604H181.844V165.976H185.83V178.222V176.931C186.327 176.51 186.987 176.157 187.809 175.87C188.631 175.583 189.568 175.44 190.62 175.44C191.709 175.44 192.704 175.698 193.602 176.214C194.501 176.73 195.218 177.486 195.753 178.48C196.308 179.455 196.585 180.65 196.585 182.065C196.585 183.479 196.279 184.703 195.667 185.736C195.074 186.768 194.281 187.562 193.287 188.116C192.292 188.67 191.222 188.948 190.075 188.948ZM189.186 185.564C189.778 185.564 190.323 185.411 190.82 185.105C191.337 184.799 191.748 184.378 192.053 183.843C192.359 183.307 192.512 182.705 192.512 182.036C192.512 181.367 192.359 180.774 192.053 180.258C191.748 179.742 191.337 179.34 190.82 179.053C190.323 178.747 189.778 178.594 189.186 178.594C188.669 178.594 188.182 178.68 187.723 178.853C187.283 179.006 186.901 179.235 186.576 179.541C186.27 179.828 186.031 180.181 185.859 180.602V183.671C186.088 184.091 186.356 184.445 186.662 184.732C186.987 184.999 187.36 185.21 187.78 185.363C188.201 185.497 188.669 185.564 189.186 185.564ZM199.884 194.626L208.229 176.071H211.843L203.755 194.626H199.884ZM203.239 188.661L197.102 176.071H201.604L206.336 186.653L203.239 188.661Z" fill="white"/>
<path d="M211.774 120.644C215.147 113.11 198.475 92.0627 182.548 83.2938C172.509 76.5007 162.048 77.434 159.929 80.4167C155.279 86.9625 175.325 92.509 188.731 98.9815C185.85 100.233 183.134 102.479 181.537 105.352C176.539 99.8954 165.569 95.1966 152.697 98.9815C144.023 101.532 136.814 107.545 134.028 116.627C133.351 116.327 132.601 116.159 131.813 116.159C128.797 116.159 126.352 118.604 126.352 121.62C126.352 124.635 128.797 127.08 131.813 127.08C132.371 127.08 134.119 126.705 134.119 126.705L162.048 126.907C150.878 144.626 142.052 147.216 142.052 150.286C142.052 153.356 150.497 152.524 153.668 151.38C168.849 145.902 185.154 128.831 187.952 123.917C199.701 125.383 209.575 125.556 211.774 120.644Z" fill="url(#paint0_linear_14843_5003)"/>
<path fill-rule="evenodd" clip-rule="evenodd" d="M188.731 98.9831C188.731 98.9834 188.732 98.9837 188.733 98.984C189.354 98.7392 189.253 97.8214 189.083 97.1007C188.691 95.4442 181.924 88.7623 175.57 85.7694C166.911 81.6913 160.535 81.9015 159.593 83.7811C161.357 87.396 169.534 90.7899 178.073 94.3346C181.717 95.8469 185.426 97.3865 188.732 98.9825C188.731 98.9827 188.731 98.9829 188.731 98.9831Z" fill="url(#paint1_linear_14843_5003)"/>
<path fill-rule="evenodd" clip-rule="evenodd" d="M177.742 135.365C175.991 134.696 174.013 134.082 171.765 133.525C174.162 129.234 174.665 122.883 172.401 118.867C169.223 113.231 165.234 110.231 155.963 110.231C150.864 110.231 137.136 111.949 136.893 123.409C136.867 124.611 136.892 125.713 136.979 126.726L162.048 126.907C158.668 132.269 155.502 136.246 152.731 139.269C156.058 140.122 158.804 140.838 161.325 141.495C163.716 142.118 165.905 142.689 168.197 143.273C171.653 140.755 174.903 138.009 177.742 135.365Z" fill="url(#paint2_linear_14843_5003)"/>
<path d="M133.693 125.548C134.717 134.254 139.665 137.666 149.774 138.675C159.884 139.685 165.683 139.008 173.404 139.71C179.852 140.297 185.61 143.583 187.746 142.447C189.668 141.425 188.592 137.733 186.02 135.364C182.686 132.294 178.072 130.159 169.952 129.401C171.57 124.971 171.117 118.759 168.604 115.379C164.97 110.492 158.263 108.283 149.775 109.248C140.906 110.257 132.408 114.623 133.693 125.548Z" fill="url(#paint3_linear_14843_5003)"/>
<g opacity="0.2">
<circle opacity="0.4" cx="3.5" cy="63.5" r="3.5" fill="white"/>
<circle opacity="0.4" cx="3.5" cy="93.5" r="3.5" fill="white"/>
<circle opacity="0.4" cx="3.5" cy="153.5" r="3.5" fill="white"/>
<circle opacity="0.4" cx="3.5" cy="183.5" r="3.5" fill="white"/>
<circle opacity="0.4" cx="3.5" cy="213.5" r="3.5" fill="white"/>
<circle opacity="0.1" cx="3.5" cy="243.5" r="3.5" fill="white"/>
<circle opacity="0.4" cx="3.5" cy="273.5" r="3.5" fill="white"/>
<circle opacity="0.9" cx="3.5" cy="333.5" r="3.5" fill="white"/>
<circle opacity="0.4" cx="33.5" cy="63.5" r="3.5" fill="white"/>
<circle opacity="0.4" cx="33.5" cy="93.5" r="3.5" fill="white"/>
<circle opacity="0.4" cx="33.5" cy="123.5" r="3.5" fill="white"/>
<circle opacity="0.4" cx="33.5" cy="153.5" r="3.5" fill="white"/>
<circle opacity="0.4" cx="33.5" cy="183.5" r="3.5" fill="white"/>
<circle opacity="0.4" cx="33.5" cy="213.5" r="3.5" fill="white"/>
<circle opacity="0.1" cx="33.5" cy="243.5" r="3.5" fill="white"/>
<circle opacity="0.4" cx="33.5" cy="273.5" r="3.5" fill="white"/>
<circle opacity="0.9" cx="33.5" cy="303.5" r="3.5" fill="white"/>
<circle opacity="0.4" cx="63.5" cy="3.5" r="3.5" fill="white"/>
<circle opacity="0.4" cx="63.5" cy="33.5" r="3.5" fill="white"/>
<circle opacity="0.4" cx="63.5" cy="63.5" r="3.5" fill="white"/>
<circle opacity="0.4" cx="63.5" cy="93.5" r="3.5" fill="white"/>
<circle opacity="0.4" cx="63.5" cy="123.5" r="3.5" fill="white"/>
<circle opacity="0.4" cx="63.5" cy="153.5" r="3.5" fill="white"/>
<circle opacity="0.4" cx="63.5" cy="183.5" r="3.5" fill="white"/>
<circle opacity="0.4" cx="63.5" cy="213.5" r="3.5" fill="white"/>
<circle opacity="0.1" cx="63.5" cy="243.5" r="3.5" fill="white"/>
<circle opacity="0.4" cx="63.5" cy="273.5" r="3.5" fill="white"/>
<circle opacity="0.5" cx="63.5" cy="303.5" r="3.5" fill="white"/>
<circle opacity="0.5" cx="63.5" cy="333.5" r="3.5" fill="white"/>
<circle opacity="0.4" cx="93.5" cy="3.5" r="3.5" fill="white"/>
<circle opacity="0.4" cx="93.5" cy="33.5" r="3.5" fill="white"/>
<circle opacity="0.4" cx="93.5" cy="93.5" r="3.5" fill="white"/>
<circle opacity="0.4" cx="93.5" cy="123.5" r="3.5" fill="white"/>
<circle opacity="0.1" cx="93.5" cy="153.5" r="3.5" fill="white"/>
<circle opacity="0.1" cx="93.5" cy="183.5" r="3.5" fill="white"/>
<circle opacity="0.1" cx="93.5" cy="213.5" r="3.5" fill="white"/>
<circle opacity="0.1" cx="93.5" cy="243.5" r="3.5" fill="white"/>
<circle opacity="0.4" cx="93.5" cy="273.5" r="3.5" fill="white"/>
<circle opacity="0.5" cx="93.5" cy="303.5" r="3.5" fill="white"/>
<circle opacity="0.5" cx="93.5" cy="333.5" r="3.5" fill="white"/>
<circle opacity="0.4" cx="123.5" cy="3.5" r="3.5" fill="white"/>
<circle opacity="0.4" cx="123.5" cy="33.5" r="3.5" fill="white"/>
<circle opacity="0.4" cx="123.5" cy="63.5" r="3.5" fill="white"/>
<circle opacity="0.4" cx="123.5" cy="93.5" r="3.5" fill="white"/>
<circle opacity="0.2" cx="123.5" cy="123.5" r="3.5" fill="white"/>
<circle opacity="0.2" cx="123.5" cy="153.5" r="3.5" fill="white"/>
<circle opacity="0.2" cx="123.5" cy="183.5" r="3.5" fill="white"/>
<circle opacity="0.2" cx="123.5" cy="213.5" r="3.5" fill="white"/>
<circle opacity="0.2" cx="123.5" cy="243.5" r="3.5" fill="white"/>
<circle opacity="0.2" cx="123.5" cy="273.5" r="3.5" fill="white"/>
<circle opacity="0.4" cx="123.5" cy="303.5" r="3.5" fill="white"/>
<circle opacity="0.4" cx="153.5" cy="33.5" r="3.5" fill="white"/>
<circle opacity="0.4" cx="153.5" cy="63.5" r="3.5" fill="white"/>
<circle opacity="0.4" cx="153.5" cy="93.5" r="3.5" fill="white"/>
<circle opacity="0.2" cx="153.5" cy="123.5" r="3.5" fill="white"/>
<circle opacity="0.2" cx="153.5" cy="153.5" r="3.5" fill="white"/>
<circle opacity="0.2" cx="153.5" cy="183.5" r="3.5" fill="white"/>
<circle opacity="0.2" cx="153.5" cy="213.5" r="3.5" fill="white"/>
<circle opacity="0.2" cx="153.5" cy="243.5" r="3.5" fill="white"/>
<circle opacity="0.2" cx="153.5" cy="273.5" r="3.5" fill="white"/>
<circle opacity="0.4" cx="153.5" cy="303.5" r="3.5" fill="white"/>
<circle opacity="0.4" cx="153.5" cy="333.5" r="3.5" fill="white"/>
<circle opacity="0.2" cx="183.5" cy="3.5" r="3.5" fill="white"/>
<circle opacity="0.2" cx="183.5" cy="33.5" r="3.5" fill="white"/>
<circle opacity="0.2" cx="183.5" cy="63.5" r="3.5" fill="white"/>
<circle opacity="0.2" cx="183.5" cy="93.5" r="3.5" fill="white"/>
<circle opacity="0.2" cx="183.5" cy="123.5" r="3.5" fill="white"/>
<circle opacity="0.2" cx="183.5" cy="153.5" r="3.5" fill="white"/>
<circle opacity="0.2" cx="183.5" cy="183.5" r="3.5" fill="white"/>
<circle opacity="0.2" cx="183.5" cy="213.5" r="3.5" fill="white"/>
<circle opacity="0.2" cx="183.5" cy="243.5" r="3.5" fill="white"/>
<circle opacity="0.2" cx="183.5" cy="273.5" r="3.5" fill="white"/>
<circle opacity="0.4" cx="183.5" cy="333.5" r="3.5" fill="white"/>
<circle opacity="0.2" cx="213.5" cy="3.5" r="3.5" fill="white"/>
<circle opacity="0.2" cx="213.5" cy="33.5" r="3.5" fill="white"/>
<circle opacity="0.2" cx="213.5" cy="63.5" r="3.5" fill="white"/>
<circle opacity="0.2" cx="213.5" cy="93.5" r="3.5" fill="white"/>
<circle opacity="0.2" cx="213.5" cy="123.5" r="3.5" fill="white"/>
<circle opacity="0.2" cx="213.5" cy="153.5" r="3.5" fill="white"/>
<circle opacity="0.2" cx="213.5" cy="183.5" r="3.5" fill="white"/>
<circle opacity="0.2" cx="213.5" cy="213.5" r="3.5" fill="white"/>
<circle opacity="0.2" cx="213.5" cy="243.5" r="3.5" fill="white"/>
<circle opacity="0.2" cx="213.5" cy="273.5" r="3.5" fill="white"/>
<circle opacity="0.8" cx="213.5" cy="303.5" r="3.5" fill="white"/>
<circle opacity="0.2" cx="243.5" cy="3.5" r="3.5" fill="white"/>
<circle opacity="0.2" cx="243.5" cy="33.5" r="3.5" fill="white"/>
<circle opacity="0.2" cx="243.5" cy="63.5" r="3.5" fill="white"/>
<circle opacity="0.2" cx="243.5" cy="93.5" r="3.5" fill="white"/>
<circle opacity="0.2" cx="243.5" cy="123.5" r="3.5" fill="white"/>
<circle opacity="0.2" cx="243.5" cy="153.5" r="3.5" fill="white"/>
<circle opacity="0.2" cx="243.5" cy="183.5" r="3.5" fill="white"/>
<circle opacity="0.2" cx="243.5" cy="213.5" r="3.5" fill="white"/>
<circle opacity="0.2" cx="243.5" cy="243.5" r="3.5" fill="white"/>
<circle opacity="0.2" cx="243.5" cy="273.5" r="3.5" fill="white"/>
<circle opacity="0.8" cx="243.5" cy="303.5" r="3.5" fill="white"/>
<circle opacity="0.4" cx="273.5" cy="3.5" r="3.5" fill="white"/>
<circle opacity="0.4" cx="273.5" cy="33.5" r="3.5" fill="white"/>
<circle opacity="0.3" cx="273.5" cy="63.5" r="3.5" fill="white"/>
<circle opacity="0.4" cx="273.5" cy="93.5" r="3.5" fill="white"/>
<circle opacity="0.4" cx="273.5" cy="123.5" r="3.5" fill="white"/>
<circle opacity="0.4" cx="273.5" cy="153.5" r="3.5" fill="white"/>
<circle opacity="0.4" cx="273.5" cy="183.5" r="3.5" fill="white"/>
<circle opacity="0.5" cx="273.5" cy="243.5" r="3.5" fill="white"/>
<circle opacity="0.5" cx="273.5" cy="273.5" r="3.5" fill="white"/>
<circle opacity="0.5" cx="273.5" cy="303.5" r="3.5" fill="white"/>
<circle opacity="0.4" cx="303.5" cy="3.5" r="3.5" fill="white"/>
<circle opacity="0.4" cx="303.5" cy="33.5" r="3.5" fill="white"/>
<circle opacity="0.3" cx="303.5" cy="63.5" r="3.5" fill="white"/>
<circle opacity="0.4" cx="303.5" cy="93.5" r="3.5" fill="white"/>
<circle opacity="0.4" cx="303.5" cy="183.5" r="3.5" fill="white"/>
<circle opacity="0.4" cx="303.5" cy="213.5" r="3.5" fill="white"/>
<circle opacity="0.5" cx="303.5" cy="243.5" r="3.5" fill="white"/>
<circle opacity="0.5" cx="303.5" cy="273.5" r="3.5" fill="white"/>
<circle opacity="0.5" cx="303.5" cy="303.5" r="3.5" fill="white"/>
<circle opacity="0.5" cx="303.5" cy="333.5" r="3.5" fill="white"/>
<circle opacity="0.4" cx="333.5" cy="3.5" r="3.5" fill="white"/>
<circle opacity="0.4" cx="333.5" cy="93.5" r="3.5" fill="white"/>
<circle opacity="0.5" cx="333.5" cy="183.5" r="3.5" fill="white"/>
<circle opacity="0.4" cx="333.5" cy="213.5" r="3.5" fill="white"/>
<circle opacity="0.5" cx="333.5" cy="273.5" r="3.5" fill="white"/>
<circle opacity="0.5" cx="333.5" cy="303.5" r="3.5" fill="white"/>
</g>
<path d="M39.461 233H37.797C37.6103 233 37.4557 232.955 37.333 232.864C37.2157 232.768 37.1303 232.651 37.077 232.512L36.213 230.152H31.421L30.557 232.512C30.5143 232.635 30.429 232.747 30.301 232.848C30.1783 232.949 30.0263 233 29.845 233H28.173L32.717 221.432H34.917L39.461 233ZM31.973 228.632H35.661L34.253 224.784C34.189 224.613 34.117 224.413 34.037 224.184C33.9623 223.949 33.8877 223.696 33.813 223.424C33.7383 223.696 33.6637 223.949 33.589 224.184C33.5197 224.419 33.4503 224.624 33.381 224.8L31.973 228.632ZM43.6581 233V221.112H45.6341V225.8C45.9595 225.453 46.3275 225.179 46.7381 224.976C47.1488 224.768 47.6288 224.664 48.1781 224.664C48.6261 224.664 49.0341 224.757 49.4021 224.944C49.7755 225.125 50.0955 225.392 50.3621 225.744C50.6341 226.096 50.8421 226.531 50.9861 227.048C51.1355 227.565 51.2101 228.16 51.2101 228.832C51.2101 229.445 51.1275 230.013 50.9621 230.536C50.7968 231.059 50.5595 231.512 50.2501 231.896C49.9461 232.28 49.5755 232.581 49.1381 232.8C48.7061 233.013 48.2208 233.12 47.6821 233.12C47.4315 233.12 47.2021 233.093 46.9941 233.04C46.7861 232.992 46.5968 232.923 46.4261 232.832C46.2555 232.741 46.0955 232.632 45.9461 232.504C45.8021 232.371 45.6635 232.224 45.5301 232.064L45.4421 232.616C45.4101 232.755 45.3541 232.853 45.2741 232.912C45.1995 232.971 45.0955 233 44.9621 233H43.6581ZM47.4981 226.2C47.0875 226.2 46.7355 226.288 46.4421 226.464C46.1541 226.635 45.8848 226.877 45.6341 227.192V230.872C45.8581 231.149 46.1008 231.344 46.3621 231.456C46.6288 231.563 46.9168 231.616 47.2261 231.616C47.5248 231.616 47.7941 231.56 48.0341 231.448C48.2741 231.336 48.4768 231.165 48.6421 230.936C48.8128 230.707 48.9435 230.419 49.0341 230.072C49.1248 229.72 49.1701 229.307 49.1701 228.832C49.1701 228.352 49.1301 227.947 49.0501 227.616C48.9755 227.28 48.8661 227.008 48.7221 226.8C48.5781 226.592 48.4021 226.44 48.1941 226.344C47.9915 226.248 47.7595 226.2 47.4981 226.2ZM56.1511 224.664C56.6685 224.664 57.1431 224.747 57.5751 224.912C58.0125 225.077 58.3885 225.32 58.7031 225.64C59.0178 225.955 59.2631 226.344 59.4391 226.808C59.6151 227.267 59.7031 227.792 59.7031 228.384C59.7031 228.533 59.6951 228.659 59.6791 228.76C59.6685 228.856 59.6445 228.933 59.6071 228.992C59.5751 229.045 59.5298 229.085 59.4711 229.112C59.4125 229.133 59.3378 229.144 59.2471 229.144H54.1751C54.2338 229.987 54.4605 230.605 54.8551 231C55.2498 231.395 55.7725 231.592 56.4231 231.592C56.7431 231.592 57.0178 231.555 57.2471 231.48C57.4818 231.405 57.6845 231.323 57.8551 231.232C58.0311 231.141 58.1831 231.059 58.3111 230.984C58.4445 230.909 58.5725 230.872 58.6951 230.872C58.7751 230.872 58.8445 230.888 58.9031 230.92C58.9618 230.952 59.0125 230.997 59.0551 231.056L59.6311 231.776C59.4125 232.032 59.1671 232.248 58.8951 232.424C58.6231 232.595 58.3378 232.733 58.0391 232.84C57.7458 232.941 57.4445 233.013 57.1351 233.056C56.8311 233.099 56.5351 233.12 56.2471 233.12C55.6765 233.12 55.1458 233.027 54.6551 232.84C54.1645 232.648 53.7378 232.368 53.3751 232C53.0125 231.627 52.7271 231.168 52.5191 230.624C52.3111 230.075 52.2071 229.44 52.2071 228.72C52.2071 228.16 52.2978 227.635 52.4791 227.144C52.6605 226.648 52.9191 226.219 53.2551 225.856C53.5965 225.488 54.0098 225.197 54.4951 224.984C54.9858 224.771 55.5378 224.664 56.1511 224.664ZM56.1911 226.08C55.6151 226.08 55.1645 226.243 54.8391 226.568C54.5138 226.893 54.3058 227.355 54.2151 227.952H57.9271C57.9271 227.696 57.8925 227.456 57.8231 227.232C57.7538 227.003 57.6471 226.803 57.5031 226.632C57.3591 226.461 57.1778 226.328 56.9591 226.232C56.7405 226.131 56.4845 226.08 56.1911 226.08ZM64.002 233.128C63.2927 233.128 62.746 232.928 62.362 232.528C61.978 232.123 61.786 231.565 61.786 230.856V226.272H60.954C60.8473 226.272 60.754 226.237 60.674 226.168C60.5993 226.099 60.562 225.995 60.562 225.856V225.072L61.882 224.856L62.298 222.616C62.3193 222.509 62.3673 222.427 62.442 222.368C62.522 222.309 62.6207 222.28 62.738 222.28H63.762V224.864H65.922V226.272H63.762V230.72C63.762 230.976 63.826 231.176 63.954 231.32C64.082 231.464 64.2527 231.536 64.466 231.536C64.5887 231.536 64.69 231.523 64.77 231.496C64.8553 231.464 64.9273 231.432 64.986 231.4C65.05 231.368 65.106 231.339 65.154 231.312C65.202 231.28 65.25 231.264 65.298 231.264C65.3567 231.264 65.4047 231.28 65.442 231.312C65.4793 231.339 65.5193 231.381 65.562 231.44L66.154 232.4C65.866 232.64 65.5353 232.821 65.162 232.944C64.7887 233.067 64.402 233.128 64.002 233.128ZM70.1895 233.128C69.4802 233.128 68.9335 232.928 68.5495 232.528C68.1655 232.123 67.9735 231.565 67.9735 230.856V226.272H67.1415C67.0348 226.272 66.9415 226.237 66.8615 226.168C66.7868 226.099 66.7495 225.995 66.7495 225.856V225.072L68.0695 224.856L68.4855 222.616C68.5068 222.509 68.5548 222.427 68.6295 222.368C68.7095 222.309 68.8082 222.28 68.9255 222.28H69.9495V224.864H72.1095V226.272H69.9495V230.72C69.9495 230.976 70.0135 231.176 70.1415 231.32C70.2695 231.464 70.4402 231.536 70.6535 231.536C70.7762 231.536 70.8775 231.523 70.9575 231.496C71.0428 231.464 71.1148 231.432 71.1735 231.4C71.2375 231.368 71.2935 231.339 71.3415 231.312C71.3895 231.28 71.4375 231.264 71.4855 231.264C71.5442 231.264 71.5922 231.28 71.6295 231.312C71.6668 231.339 71.7068 231.381 71.7495 231.44L72.3415 232.4C72.0535 232.64 71.7228 232.821 71.3495 232.944C70.9762 233.067 70.5895 233.128 70.1895 233.128ZM77.073 224.664C77.5903 224.664 78.065 224.747 78.497 224.912C78.9343 225.077 79.3103 225.32 79.625 225.64C79.9397 225.955 80.185 226.344 80.361 226.808C80.537 227.267 80.625 227.792 80.625 228.384C80.625 228.533 80.617 228.659 80.601 228.76C80.5903 228.856 80.5663 228.933 80.529 228.992C80.497 229.045 80.4517 229.085 80.393 229.112C80.3343 229.133 80.2597 229.144 80.169 229.144H75.097C75.1557 229.987 75.3823 230.605 75.777 231C76.1717 231.395 76.6943 231.592 77.345 231.592C77.665 231.592 77.9397 231.555 78.169 231.48C78.4037 231.405 78.6063 231.323 78.777 231.232C78.953 231.141 79.105 231.059 79.233 230.984C79.3663 230.909 79.4943 230.872 79.617 230.872C79.697 230.872 79.7663 230.888 79.825 230.92C79.8837 230.952 79.9343 230.997 79.977 231.056L80.553 231.776C80.3343 232.032 80.089 232.248 79.817 232.424C79.545 232.595 79.2597 232.733 78.961 232.84C78.6677 232.941 78.3663 233.013 78.057 233.056C77.753 233.099 77.457 233.12 77.169 233.12C76.5983 233.12 76.0677 233.027 75.577 232.84C75.0863 232.648 74.6597 232.368 74.297 232C73.9343 231.627 73.649 231.168 73.441 230.624C73.233 230.075 73.129 229.44 73.129 228.72C73.129 228.16 73.2197 227.635 73.401 227.144C73.5823 226.648 73.841 226.219 74.177 225.856C74.5183 225.488 74.9317 225.197 75.417 224.984C75.9077 224.771 76.4597 224.664 77.073 224.664ZM77.113 226.08C76.537 226.08 76.0863 226.243 75.761 226.568C75.4357 226.893 75.2277 227.355 75.137 227.952H78.849C78.849 227.696 78.8143 227.456 78.745 227.232C78.6757 227.003 78.569 226.803 78.425 226.632C78.281 226.461 78.0997 226.328 77.881 226.232C77.6623 226.131 77.4063 226.08 77.113 226.08ZM82.2279 233V224.792H83.3879C83.5905 224.792 83.7319 224.829 83.8119 224.904C83.8919 224.979 83.9452 225.107 83.9719 225.288L84.0919 226.28C84.3852 225.773 84.7292 225.373 85.1239 225.08C85.5185 224.787 85.9612 224.64 86.4519 224.64C86.8572 224.64 87.1932 224.733 87.4599 224.92L87.2039 226.4C87.1879 226.496 87.1532 226.565 87.0999 226.608C87.0465 226.645 86.9745 226.664 86.8839 226.664C86.8039 226.664 86.6945 226.645 86.5559 226.608C86.4172 226.571 86.2332 226.552 86.0039 226.552C85.5932 226.552 85.2412 226.667 84.9479 226.896C84.6545 227.12 84.4065 227.451 84.2039 227.888V233H82.2279ZM95.2449 224.664C95.7622 224.664 96.2369 224.747 96.6689 224.912C97.1062 225.077 97.4822 225.32 97.7969 225.64C98.1115 225.955 98.3569 226.344 98.5329 226.808C98.7089 227.267 98.7969 227.792 98.7969 228.384C98.7969 228.533 98.7889 228.659 98.7729 228.76C98.7622 228.856 98.7382 228.933 98.7009 228.992C98.6689 229.045 98.6235 229.085 98.5649 229.112C98.5062 229.133 98.4315 229.144 98.3409 229.144H93.2689C93.3275 229.987 93.5542 230.605 93.9489 231C94.3435 231.395 94.8662 231.592 95.5169 231.592C95.8369 231.592 96.1115 231.555 96.3409 231.48C96.5755 231.405 96.7782 231.323 96.9489 231.232C97.1249 231.141 97.2769 231.059 97.4049 230.984C97.5382 230.909 97.6662 230.872 97.7889 230.872C97.8689 230.872 97.9382 230.888 97.9969 230.92C98.0555 230.952 98.1062 230.997 98.1489 231.056L98.7249 231.776C98.5062 232.032 98.2609 232.248 97.9889 232.424C97.7169 232.595 97.4315 232.733 97.1329 232.84C96.8395 232.941 96.5382 233.013 96.2289 233.056C95.9249 233.099 95.6289 233.12 95.3409 233.12C94.7702 233.12 94.2395 233.027 93.7489 232.84C93.2582 232.648 92.8315 232.368 92.4689 232C92.1062 231.627 91.8209 231.168 91.6129 230.624C91.4049 230.075 91.3009 229.44 91.3009 228.72C91.3009 228.16 91.3915 227.635 91.5729 227.144C91.7542 226.648 92.0129 226.219 92.3489 225.856C92.6902 225.488 93.1035 225.197 93.5889 224.984C94.0795 224.771 94.6315 224.664 95.2449 224.664ZM95.2849 226.08C94.7089 226.08 94.2582 226.243 93.9329 226.568C93.6075 226.893 93.3995 227.355 93.3089 227.952H97.0209C97.0209 227.696 96.9862 227.456 96.9169 227.232C96.8475 227.003 96.7409 226.803 96.5969 226.632C96.4529 226.461 96.2715 226.328 96.0529 226.232C95.8342 226.131 95.5782 226.08 95.2849 226.08ZM101.859 228.768L99.1634 224.792H101.067C101.211 224.792 101.318 224.813 101.387 224.856C101.457 224.893 101.518 224.957 101.571 225.048L103.291 227.792C103.318 227.701 103.35 227.611 103.387 227.52C103.43 227.429 103.481 227.339 103.539 227.248L104.923 225.088C104.987 224.987 105.054 224.912 105.123 224.864C105.193 224.816 105.278 224.792 105.379 224.792H107.195L104.491 228.68L107.307 233H105.403C105.259 233 105.142 232.963 105.051 232.888C104.966 232.813 104.894 232.728 104.835 232.632L103.091 229.776C103.043 229.968 102.977 230.128 102.891 230.256L101.355 232.632C101.297 232.723 101.225 232.808 101.139 232.888C101.054 232.963 100.947 233 100.819 233H99.0514L101.859 228.768ZM111.252 233.128C110.543 233.128 109.996 232.928 109.612 232.528C109.228 232.123 109.036 231.565 109.036 230.856V226.272H108.204C108.097 226.272 108.004 226.237 107.924 226.168C107.849 226.099 107.812 225.995 107.812 225.856V225.072L109.132 224.856L109.548 222.616C109.569 222.509 109.617 222.427 109.692 222.368C109.772 222.309 109.871 222.28 109.988 222.28H111.012V224.864H113.172V226.272H111.012V230.72C111.012 230.976 111.076 231.176 111.204 231.32C111.332 231.464 111.503 231.536 111.716 231.536C111.839 231.536 111.94 231.523 112.02 231.496C112.105 231.464 112.177 231.432 112.236 231.4C112.3 231.368 112.356 231.339 112.404 231.312C112.452 231.28 112.5 231.264 112.548 231.264C112.607 231.264 112.655 231.28 112.692 231.312C112.729 231.339 112.769 231.381 112.812 231.44L113.404 232.4C113.116 232.64 112.785 232.821 112.412 232.944C112.039 233.067 111.652 233.128 111.252 233.128ZM118.136 224.664C118.653 224.664 119.128 224.747 119.56 224.912C119.997 225.077 120.373 225.32 120.688 225.64C121.002 225.955 121.248 226.344 121.424 226.808C121.6 227.267 121.688 227.792 121.688 228.384C121.688 228.533 121.68 228.659 121.664 228.76C121.653 228.856 121.629 228.933 121.592 228.992C121.56 229.045 121.514 229.085 121.456 229.112C121.397 229.133 121.322 229.144 121.232 229.144H116.16C116.218 229.987 116.445 230.605 116.84 231C117.234 231.395 117.757 231.592 118.408 231.592C118.728 231.592 119.002 231.555 119.232 231.48C119.466 231.405 119.669 231.323 119.84 231.232C120.016 231.141 120.168 231.059 120.296 230.984C120.429 230.909 120.557 230.872 120.68 230.872C120.76 230.872 120.829 230.888 120.888 230.92C120.946 230.952 120.997 230.997 121.04 231.056L121.616 231.776C121.397 232.032 121.152 232.248 120.88 232.424C120.608 232.595 120.322 232.733 120.024 232.84C119.73 232.941 119.429 233.013 119.12 233.056C118.816 233.099 118.52 233.12 118.232 233.12C117.661 233.12 117.13 233.027 116.64 232.84C116.149 232.648 115.722 232.368 115.36 232C114.997 231.627 114.712 231.168 114.504 230.624C114.296 230.075 114.192 229.44 114.192 228.72C114.192 228.16 114.282 227.635 114.464 227.144C114.645 226.648 114.904 226.219 115.24 225.856C115.581 225.488 115.994 225.197 116.48 224.984C116.97 224.771 117.522 224.664 118.136 224.664ZM118.176 226.08C117.6 226.08 117.149 226.243 116.824 226.568C116.498 226.893 116.29 227.355 116.2 227.952H119.912C119.912 227.696 119.877 227.456 119.808 227.232C119.738 227.003 119.632 226.803 119.488 226.632C119.344 226.461 119.162 226.328 118.944 226.232C118.725 226.131 118.469 226.08 118.176 226.08ZM123.29 233V224.792H124.498C124.754 224.792 124.922 224.912 125.002 225.152L125.138 225.8C125.304 225.629 125.477 225.475 125.658 225.336C125.845 225.197 126.04 225.077 126.242 224.976C126.45 224.875 126.672 224.797 126.906 224.744C127.141 224.691 127.397 224.664 127.674 224.664C128.122 224.664 128.52 224.741 128.866 224.896C129.213 225.045 129.501 225.259 129.73 225.536C129.965 225.808 130.141 226.136 130.258 226.52C130.381 226.899 130.442 227.317 130.442 227.776V233H128.466V227.776C128.466 227.275 128.349 226.888 128.114 226.616C127.885 226.339 127.538 226.2 127.074 226.2C126.733 226.2 126.413 226.277 126.114 226.432C125.816 226.587 125.533 226.797 125.266 227.064V233H123.29ZM137.256 226.392C137.203 226.477 137.147 226.539 137.088 226.576C137.029 226.608 136.955 226.624 136.864 226.624C136.768 226.624 136.664 226.597 136.552 226.544C136.445 226.491 136.32 226.432 136.176 226.368C136.032 226.299 135.867 226.237 135.68 226.184C135.499 226.131 135.283 226.104 135.032 226.104C134.643 226.104 134.336 226.187 134.112 226.352C133.888 226.517 133.776 226.733 133.776 227C133.776 227.176 133.832 227.325 133.944 227.448C134.061 227.565 134.213 227.669 134.4 227.76C134.592 227.851 134.808 227.933 135.048 228.008C135.288 228.077 135.533 228.155 135.784 228.24C136.035 228.325 136.28 228.424 136.52 228.536C136.76 228.643 136.973 228.781 137.16 228.952C137.352 229.117 137.504 229.317 137.616 229.552C137.733 229.787 137.792 230.069 137.792 230.4C137.792 230.795 137.72 231.16 137.576 231.496C137.432 231.827 137.221 232.115 136.944 232.36C136.667 232.6 136.323 232.789 135.912 232.928C135.507 233.061 135.04 233.128 134.512 233.128C134.229 233.128 133.952 233.101 133.68 233.048C133.413 233 133.155 232.931 132.904 232.84C132.659 232.749 132.429 232.643 132.216 232.52C132.008 232.397 131.824 232.264 131.664 232.12L132.12 231.368C132.179 231.277 132.248 231.208 132.328 231.16C132.408 231.112 132.509 231.088 132.632 231.088C132.755 231.088 132.869 231.123 132.976 231.192C133.088 231.261 133.216 231.336 133.36 231.416C133.504 231.496 133.672 231.571 133.864 231.64C134.061 231.709 134.309 231.744 134.608 231.744C134.843 231.744 135.043 231.717 135.208 231.664C135.379 231.605 135.517 231.531 135.624 231.44C135.736 231.349 135.816 231.245 135.864 231.128C135.917 231.005 135.944 230.88 135.944 230.752C135.944 230.56 135.885 230.403 135.768 230.28C135.656 230.157 135.504 230.051 135.312 229.96C135.125 229.869 134.909 229.789 134.664 229.72C134.424 229.645 134.176 229.565 133.92 229.48C133.669 229.395 133.421 229.296 133.176 229.184C132.936 229.067 132.72 228.92 132.528 228.744C132.341 228.568 132.189 228.352 132.072 228.096C131.96 227.84 131.904 227.531 131.904 227.168C131.904 226.832 131.971 226.512 132.104 226.208C132.237 225.904 132.432 225.64 132.688 225.416C132.949 225.187 133.272 225.005 133.656 224.872C134.045 224.733 134.493 224.664 135 224.664C135.565 224.664 136.08 224.757 136.544 224.944C137.008 225.131 137.395 225.376 137.704 225.68L137.256 226.392ZM141.473 224.792V233H139.497V224.792H141.473ZM141.769 222.4C141.769 222.571 141.734 222.731 141.665 222.88C141.595 223.029 141.502 223.16 141.385 223.272C141.273 223.384 141.139 223.475 140.985 223.544C140.83 223.608 140.665 223.64 140.489 223.64C140.318 223.64 140.155 223.608 140.001 223.544C139.851 223.475 139.721 223.384 139.609 223.272C139.497 223.16 139.406 223.029 139.337 222.88C139.273 222.731 139.241 222.571 139.241 222.4C139.241 222.224 139.273 222.059 139.337 221.904C139.406 221.749 139.497 221.616 139.609 221.504C139.721 221.392 139.851 221.304 140.001 221.24C140.155 221.171 140.318 221.136 140.489 221.136C140.665 221.136 140.83 221.171 140.985 221.24C141.139 221.304 141.273 221.392 141.385 221.504C141.502 221.616 141.595 221.749 141.665 221.904C141.734 222.059 141.769 222.224 141.769 222.4ZM147.216 224.664C147.83 224.664 148.384 224.763 148.88 224.96C149.382 225.157 149.808 225.437 150.16 225.8C150.512 226.163 150.784 226.605 150.976 227.128C151.168 227.651 151.264 228.235 151.264 228.88C151.264 229.531 151.168 230.117 150.976 230.64C150.784 231.163 150.512 231.608 150.16 231.976C149.808 232.344 149.382 232.627 148.88 232.824C148.384 233.021 147.83 233.12 147.216 233.12C146.603 233.12 146.046 233.021 145.544 232.824C145.043 232.627 144.614 232.344 144.256 231.976C143.904 231.608 143.63 231.163 143.432 230.64C143.24 230.117 143.144 229.531 143.144 228.88C143.144 228.235 143.24 227.651 143.432 227.128C143.63 226.605 143.904 226.163 144.256 225.8C144.614 225.437 145.043 225.157 145.544 224.96C146.046 224.763 146.603 224.664 147.216 224.664ZM147.216 231.6C147.899 231.6 148.403 231.371 148.728 230.912C149.059 230.453 149.224 229.781 149.224 228.896C149.224 228.011 149.059 227.336 148.728 226.872C148.403 226.408 147.899 226.176 147.216 226.176C146.523 226.176 146.011 226.411 145.68 226.88C145.35 227.344 145.184 228.016 145.184 228.896C145.184 229.776 145.35 230.448 145.68 230.912C146.011 231.371 146.523 231.6 147.216 231.6ZM152.806 233V224.792H154.014C154.27 224.792 154.438 224.912 154.518 225.152L154.654 225.8C154.819 225.629 154.993 225.475 155.174 225.336C155.361 225.197 155.555 225.077 155.758 224.976C155.966 224.875 156.187 224.797 156.422 224.744C156.657 224.691 156.913 224.664 157.19 224.664C157.638 224.664 158.035 224.741 158.382 224.896C158.729 225.045 159.017 225.259 159.246 225.536C159.481 225.808 159.657 226.136 159.774 226.52C159.897 226.899 159.958 227.317 159.958 227.776V233H157.982V227.776C157.982 227.275 157.865 226.888 157.63 226.616C157.401 226.339 157.054 226.2 156.59 226.2C156.249 226.2 155.929 226.277 155.63 226.432C155.331 226.587 155.049 226.797 154.782 227.064V233H152.806ZM163.994 224.792H165.562C165.711 224.792 165.836 224.827 165.938 224.896C166.039 224.965 166.103 225.053 166.13 225.16L167.306 229.544C167.37 229.784 167.42 230.019 167.458 230.248C167.5 230.477 167.54 230.707 167.578 230.936C167.636 230.707 167.698 230.477 167.762 230.248C167.831 230.019 167.903 229.784 167.977 229.544L169.338 225.144C169.37 225.037 169.434 224.949 169.53 224.88C169.626 224.811 169.738 224.776 169.866 224.776H170.738C170.882 224.776 171.002 224.811 171.098 224.88C171.194 224.949 171.258 225.037 171.29 225.144L172.634 229.624C172.703 229.853 172.764 230.077 172.818 230.296C172.876 230.509 172.932 230.725 172.986 230.944C173.023 230.715 173.063 230.485 173.106 230.256C173.154 230.027 173.212 229.789 173.282 229.544L174.498 225.16C174.524 225.053 174.588 224.965 174.69 224.896C174.791 224.827 174.908 224.792 175.042 224.792H176.538L173.938 233H172.345C172.175 233 172.052 232.883 171.977 232.648L170.498 227.904C170.45 227.749 170.404 227.595 170.362 227.44C170.324 227.28 170.292 227.123 170.266 226.968C170.234 227.128 170.199 227.288 170.162 227.448C170.124 227.603 170.082 227.76 170.034 227.92L168.538 232.648C168.463 232.883 168.319 233 168.106 233H166.594L163.994 224.792ZM184.082 233H183.194C183.007 233 182.86 232.973 182.754 232.92C182.647 232.861 182.567 232.747 182.514 232.576L182.338 231.992C182.13 232.179 181.924 232.344 181.722 232.488C181.524 232.627 181.319 232.744 181.106 232.84C180.892 232.936 180.666 233.008 180.426 233.056C180.186 233.104 179.919 233.128 179.626 233.128C179.279 233.128 178.959 233.083 178.666 232.992C178.372 232.896 178.119 232.755 177.906 232.568C177.698 232.381 177.535 232.149 177.418 231.872C177.3 231.595 177.242 231.272 177.242 230.904C177.242 230.595 177.322 230.291 177.482 229.992C177.647 229.688 177.919 229.416 178.298 229.176C178.676 228.931 179.18 228.728 179.81 228.568C180.439 228.408 181.22 228.317 182.154 228.296V227.816C182.154 227.267 182.036 226.861 181.802 226.6C181.572 226.333 181.236 226.2 180.794 226.2C180.474 226.2 180.207 226.237 179.994 226.312C179.78 226.387 179.594 226.472 179.434 226.568C179.279 226.659 179.135 226.741 179.002 226.816C178.868 226.891 178.722 226.928 178.562 226.928C178.428 226.928 178.314 226.893 178.218 226.824C178.122 226.755 178.044 226.669 177.986 226.568L177.626 225.936C178.57 225.072 179.708 224.64 181.042 224.64C181.522 224.64 181.948 224.72 182.322 224.88C182.7 225.035 183.02 225.253 183.282 225.536C183.543 225.813 183.74 226.147 183.874 226.536C184.012 226.925 184.082 227.352 184.082 227.816V233ZM180.242 231.768C180.444 231.768 180.631 231.749 180.802 231.712C180.972 231.675 181.132 231.619 181.282 231.544C181.436 231.469 181.583 231.379 181.722 231.272C181.866 231.16 182.01 231.029 182.154 230.88V229.496C181.578 229.523 181.095 229.573 180.706 229.648C180.322 229.717 180.012 229.808 179.778 229.92C179.543 230.032 179.375 230.163 179.274 230.312C179.178 230.461 179.13 230.624 179.13 230.8C179.13 231.147 179.231 231.395 179.434 231.544C179.642 231.693 179.911 231.768 180.242 231.768ZM188.129 221.112V233H186.153V221.112H188.129ZM192.473 221.112V233H190.497V221.112H192.473ZM198.104 224.664C198.622 224.664 199.096 224.747 199.528 224.912C199.966 225.077 200.342 225.32 200.656 225.64C200.971 225.955 201.216 226.344 201.392 226.808C201.568 227.267 201.656 227.792 201.656 228.384C201.656 228.533 201.648 228.659 201.632 228.76C201.622 228.856 201.598 228.933 201.56 228.992C201.528 229.045 201.483 229.085 201.424 229.112C201.366 229.133 201.291 229.144 201.2 229.144H196.128C196.187 229.987 196.414 230.605 196.808 231C197.203 231.395 197.726 231.592 198.376 231.592C198.696 231.592 198.971 231.555 199.2 231.48C199.435 231.405 199.638 231.323 199.808 231.232C199.984 231.141 200.136 231.059 200.264 230.984C200.398 230.909 200.526 230.872 200.648 230.872C200.728 230.872 200.798 230.888 200.856 230.92C200.915 230.952 200.966 230.997 201.008 231.056L201.584 231.776C201.366 232.032 201.12 232.248 200.848 232.424C200.576 232.595 200.291 232.733 199.992 232.84C199.699 232.941 199.398 233.013 199.088 233.056C198.784 233.099 198.488 233.12 198.2 233.12C197.63 233.12 197.099 233.027 196.608 232.84C196.118 232.648 195.691 232.368 195.328 232C194.966 231.627 194.68 231.168 194.472 230.624C194.264 230.075 194.16 229.44 194.16 228.72C194.16 228.16 194.251 227.635 194.432 227.144C194.614 226.648 194.872 226.219 195.208 225.856C195.55 225.488 195.963 225.197 196.448 224.984C196.939 224.771 197.491 224.664 198.104 224.664ZM198.144 226.08C197.568 226.08 197.118 226.243 196.792 226.568C196.467 226.893 196.259 227.355 196.168 227.952H199.88C199.88 227.696 199.846 227.456 199.776 227.232C199.707 227.003 199.6 226.803 199.456 226.632C199.312 226.461 199.131 226.328 198.912 226.232C198.694 226.131 198.438 226.08 198.144 226.08ZM205.955 233.128C205.246 233.128 204.699 232.928 204.315 232.528C203.931 232.123 203.739 231.565 203.739 230.856V226.272H202.907C202.8 226.272 202.707 226.237 202.627 226.168C202.552 226.099 202.515 225.995 202.515 225.856V225.072L203.835 224.856L204.251 222.616C204.272 222.509 204.32 222.427 204.395 222.368C204.475 222.309 204.574 222.28 204.691 222.28H205.715V224.864H207.875V226.272H205.715V230.72C205.715 230.976 205.779 231.176 205.907 231.32C206.035 231.464 206.206 231.536 206.419 231.536C206.542 231.536 206.643 231.523 206.723 231.496C206.808 231.464 206.88 231.432 206.939 231.4C207.003 231.368 207.059 231.339 207.107 231.312C207.155 231.28 207.203 231.264 207.251 231.264C207.31 231.264 207.358 231.28 207.395 231.312C207.432 231.339 207.472 231.381 207.515 231.44L208.107 232.4C207.819 232.64 207.488 232.821 207.115 232.944C206.742 233.067 206.355 233.128 205.955 233.128ZM212.892 233V226.28L212.18 226.168C212.026 226.141 211.9 226.088 211.804 226.008C211.714 225.928 211.668 225.816 211.668 225.672V224.864H212.892V224.256C212.892 223.787 212.962 223.365 213.1 222.992C213.244 222.619 213.447 222.301 213.708 222.04C213.975 221.779 214.298 221.579 214.676 221.44C215.055 221.301 215.482 221.232 215.956 221.232C216.335 221.232 216.687 221.283 217.012 221.384L216.972 222.376C216.962 222.531 216.89 222.627 216.756 222.664C216.623 222.701 216.468 222.72 216.292 222.72C216.058 222.72 215.847 222.747 215.66 222.8C215.479 222.848 215.324 222.936 215.196 223.064C215.068 223.187 214.97 223.352 214.9 223.56C214.836 223.763 214.804 224.016 214.804 224.32V224.864H216.94V226.272H214.868V233H212.892ZM221.654 224.664C222.267 224.664 222.822 224.763 223.318 224.96C223.819 225.157 224.246 225.437 224.598 225.8C224.95 226.163 225.222 226.605 225.414 227.128C225.606 227.651 225.702 228.235 225.702 228.88C225.702 229.531 225.606 230.117 225.414 230.64C225.222 231.163 224.95 231.608 224.598 231.976C224.246 232.344 223.819 232.627 223.318 232.824C222.822 233.021 222.267 233.12 221.654 233.12C221.04 233.12 220.483 233.021 219.982 232.824C219.48 232.627 219.051 232.344 218.694 231.976C218.342 231.608 218.067 231.163 217.87 230.64C217.678 230.117 217.582 229.531 217.582 228.88C217.582 228.235 217.678 227.651 217.87 227.128C218.067 226.605 218.342 226.163 218.694 225.8C219.051 225.437 219.48 225.157 219.982 224.96C220.483 224.763 221.04 224.664 221.654 224.664ZM221.654 231.6C222.336 231.6 222.84 231.371 223.166 230.912C223.496 230.453 223.662 229.781 223.662 228.896C223.662 228.011 223.496 227.336 223.166 226.872C222.84 226.408 222.336 226.176 221.654 226.176C220.96 226.176 220.448 226.411 220.118 226.88C219.787 227.344 219.622 228.016 219.622 228.896C219.622 229.776 219.787 230.448 220.118 230.912C220.448 231.371 220.96 231.6 221.654 231.6ZM227.243 233V224.792H228.404C228.606 224.792 228.748 224.829 228.828 224.904C228.908 224.979 228.961 225.107 228.988 225.288L229.108 226.28C229.401 225.773 229.745 225.373 230.14 225.08C230.534 224.787 230.977 224.64 231.468 224.64C231.873 224.64 232.209 224.733 232.476 224.92L232.22 226.4C232.204 226.496 232.169 226.565 232.116 226.608C232.062 226.645 231.99 226.664 231.9 226.664C231.82 226.664 231.71 226.645 231.572 226.608C231.433 226.571 231.249 226.552 231.02 226.552C230.609 226.552 230.257 226.667 229.964 226.896C229.67 227.12 229.422 227.451 229.22 227.888V233H227.243ZM247.253 227.216C247.253 228.064 247.111 228.843 246.829 229.552C246.546 230.261 246.149 230.872 245.637 231.384C245.125 231.896 244.509 232.293 243.789 232.576C243.069 232.859 242.271 233 241.397 233H236.981V221.432H241.397C242.271 221.432 243.069 221.576 243.789 221.864C244.509 222.147 245.125 222.544 245.637 223.056C246.149 223.563 246.546 224.171 246.829 224.88C247.111 225.589 247.253 226.368 247.253 227.216ZM245.053 227.216C245.053 226.581 244.967 226.013 244.797 225.512C244.626 225.005 244.383 224.579 244.069 224.232C243.754 223.88 243.37 223.611 242.917 223.424C242.469 223.237 241.962 223.144 241.397 223.144H239.149V231.288H241.397C241.962 231.288 242.469 231.195 242.917 231.008C243.37 230.821 243.754 230.555 244.069 230.208C244.383 229.856 244.626 229.429 244.797 228.928C244.967 228.421 245.053 227.851 245.053 227.216ZM252.214 224.664C252.731 224.664 253.206 224.747 253.638 224.912C254.075 225.077 254.451 225.32 254.766 225.64C255.08 225.955 255.326 226.344 255.502 226.808C255.678 227.267 255.766 227.792 255.766 228.384C255.766 228.533 255.758 228.659 255.742 228.76C255.731 228.856 255.707 228.933 255.67 228.992C255.638 229.045 255.592 229.085 255.534 229.112C255.475 229.133 255.4 229.144 255.31 229.144H250.238C250.296 229.987 250.523 230.605 250.918 231C251.312 231.395 251.835 231.592 252.486 231.592C252.806 231.592 253.08 231.555 253.31 231.48C253.544 231.405 253.747 231.323 253.918 231.232C254.094 231.141 254.246 231.059 254.374 230.984C254.507 230.909 254.635 230.872 254.758 230.872C254.838 230.872 254.907 230.888 254.966 230.92C255.024 230.952 255.075 230.997 255.118 231.056L255.694 231.776C255.475 232.032 255.23 232.248 254.958 232.424C254.686 232.595 254.4 232.733 254.102 232.84C253.808 232.941 253.507 233.013 253.198 233.056C252.894 233.099 252.598 233.12 252.31 233.12C251.739 233.12 251.208 233.027 250.718 232.84C250.227 232.648 249.8 232.368 249.438 232C249.075 231.627 248.79 231.168 248.582 230.624C248.374 230.075 248.27 229.44 248.27 228.72C248.27 228.16 248.36 227.635 248.542 227.144C248.723 226.648 248.982 226.219 249.318 225.856C249.659 225.488 250.072 225.197 250.558 224.984C251.048 224.771 251.6 224.664 252.214 224.664ZM252.254 226.08C251.678 226.08 251.227 226.243 250.902 226.568C250.576 226.893 250.368 227.355 250.278 227.952H253.99C253.99 227.696 253.955 227.456 253.886 227.232C253.816 227.003 253.71 226.803 253.566 226.632C253.422 226.461 253.24 226.328 253.022 226.232C252.803 226.131 252.547 226.08 252.254 226.08ZM264.777 221.432V223.144H259.649V226.568H263.977V228.288H259.649V233H257.481V221.432H264.777ZM268.457 224.792V233H266.481V224.792H268.457ZM268.753 222.4C268.753 222.571 268.718 222.731 268.649 222.88C268.58 223.029 268.486 223.16 268.369 223.272C268.257 223.384 268.124 223.475 267.969 223.544C267.814 223.608 267.649 223.64 267.473 223.64C267.302 223.64 267.14 223.608 266.985 223.544C266.836 223.475 266.705 223.384 266.593 223.272C266.481 223.16 266.39 223.029 266.321 222.88C266.257 222.731 266.225 222.571 266.225 222.4C266.225 222.224 266.257 222.059 266.321 221.904C266.39 221.749 266.481 221.616 266.593 221.504C266.705 221.392 266.836 221.304 266.985 221.24C267.14 221.171 267.302 221.136 267.473 221.136C267.649 221.136 267.814 221.171 267.969 221.24C268.124 221.304 268.257 221.392 268.369 221.504C268.486 221.616 268.58 221.749 268.649 221.904C268.718 222.059 268.753 222.224 268.753 222.4ZM275.598 224.792V230.008C275.598 230.509 275.713 230.899 275.942 231.176C276.177 231.448 276.526 231.584 276.99 231.584C277.332 231.584 277.652 231.509 277.95 231.36C278.249 231.205 278.532 230.995 278.798 230.728V224.792H280.774V233H279.566C279.31 233 279.142 232.88 279.062 232.64L278.926 231.984C278.756 232.155 278.58 232.312 278.398 232.456C278.217 232.595 278.022 232.715 277.814 232.816C277.612 232.912 277.39 232.987 277.15 233.04C276.916 233.099 276.662 233.128 276.39 233.128C275.942 233.128 275.545 233.053 275.198 232.904C274.857 232.749 274.569 232.533 274.334 232.256C274.1 231.979 273.921 231.651 273.798 231.272C273.681 230.888 273.622 230.467 273.622 230.008V224.792H275.598ZM287.756 226.392C287.703 226.477 287.647 226.539 287.588 226.576C287.529 226.608 287.455 226.624 287.364 226.624C287.268 226.624 287.164 226.597 287.052 226.544C286.945 226.491 286.82 226.432 286.676 226.368C286.532 226.299 286.367 226.237 286.18 226.184C285.999 226.131 285.783 226.104 285.532 226.104C285.143 226.104 284.836 226.187 284.612 226.352C284.388 226.517 284.276 226.733 284.276 227C284.276 227.176 284.332 227.325 284.444 227.448C284.561 227.565 284.713 227.669 284.9 227.76C285.092 227.851 285.308 227.933 285.548 228.008C285.788 228.077 286.033 228.155 286.284 228.24C286.535 228.325 286.78 228.424 287.02 228.536C287.26 228.643 287.473 228.781 287.66 228.952C287.852 229.117 288.004 229.317 288.116 229.552C288.233 229.787 288.292 230.069 288.292 230.4C288.292 230.795 288.22 231.16 288.076 231.496C287.932 231.827 287.721 232.115 287.444 232.36C287.167 232.6 286.823 232.789 286.412 232.928C286.007 233.061 285.54 233.128 285.012 233.128C284.729 233.128 284.452 233.101 284.18 233.048C283.913 233 283.655 232.931 283.404 232.84C283.159 232.749 282.929 232.643 282.716 232.52C282.508 232.397 282.324 232.264 282.164 232.12L282.62 231.368C282.679 231.277 282.748 231.208 282.828 231.16C282.908 231.112 283.009 231.088 283.132 231.088C283.255 231.088 283.369 231.123 283.476 231.192C283.588 231.261 283.716 231.336 283.86 231.416C284.004 231.496 284.172 231.571 284.364 231.64C284.561 231.709 284.809 231.744 285.108 231.744C285.343 231.744 285.543 231.717 285.708 231.664C285.879 231.605 286.017 231.531 286.124 231.44C286.236 231.349 286.316 231.245 286.364 231.128C286.417 231.005 286.444 230.88 286.444 230.752C286.444 230.56 286.385 230.403 286.268 230.28C286.156 230.157 286.004 230.051 285.812 229.96C285.625 229.869 285.409 229.789 285.164 229.72C284.924 229.645 284.676 229.565 284.42 229.48C284.169 229.395 283.921 229.296 283.676 229.184C283.436 229.067 283.22 228.92 283.028 228.744C282.841 228.568 282.689 228.352 282.572 228.096C282.46 227.84 282.404 227.531 282.404 227.168C282.404 226.832 282.471 226.512 282.604 226.208C282.737 225.904 282.932 225.64 283.188 225.416C283.449 225.187 283.772 225.005 284.156 224.872C284.545 224.733 284.993 224.664 285.5 224.664C286.065 224.664 286.58 224.757 287.044 224.944C287.508 225.131 287.895 225.376 288.204 225.68L287.756 226.392ZM293.261 224.664C293.778 224.664 294.253 224.747 294.685 224.912C295.122 225.077 295.498 225.32 295.813 225.64C296.127 225.955 296.373 226.344 296.549 226.808C296.725 227.267 296.812 227.792 296.812 228.384C296.812 228.533 296.805 228.659 296.789 228.76C296.778 228.856 296.754 228.933 296.717 228.992C296.685 229.045 296.639 229.085 296.581 229.112C296.522 229.133 296.447 229.144 296.357 229.144H291.285C291.343 229.987 291.57 230.605 291.965 231C292.359 231.395 292.882 231.592 293.533 231.592C293.853 231.592 294.127 231.555 294.357 231.48C294.591 231.405 294.794 231.323 294.965 231.232C295.141 231.141 295.293 231.059 295.421 230.984C295.554 230.909 295.682 230.872 295.805 230.872C295.885 230.872 295.954 230.888 296.013 230.92C296.071 230.952 296.122 230.997 296.165 231.056L296.741 231.776C296.522 232.032 296.277 232.248 296.005 232.424C295.733 232.595 295.447 232.733 295.149 232.84C294.855 232.941 294.554 233.013 294.245 233.056C293.941 233.099 293.645 233.12 293.357 233.12C292.786 233.12 292.255 233.027 291.765 232.84C291.274 232.648 290.847 232.368 290.485 232C290.122 231.627 289.837 231.168 289.629 230.624C289.421 230.075 289.317 229.44 289.317 228.72C289.317 228.16 289.407 227.635 289.589 227.144C289.77 226.648 290.029 226.219 290.365 225.856C290.706 225.488 291.119 225.197 291.605 224.984C292.095 224.771 292.647 224.664 293.261 224.664ZM293.301 226.08C292.725 226.08 292.274 226.243 291.949 226.568C291.623 226.893 291.415 227.355 291.325 227.952H295.037C295.037 227.696 295.002 227.456 294.933 227.232C294.863 227.003 294.757 226.803 294.613 226.632C294.469 226.461 294.287 226.328 294.069 226.232C293.85 226.131 293.594 226.08 293.301 226.08ZM298.415 233V224.792H299.575C299.778 224.792 299.919 224.829 299.999 224.904C300.079 224.979 300.133 225.107 300.159 225.288L300.279 226.28C300.573 225.773 300.917 225.373 301.311 225.08C301.706 224.787 302.149 224.64 302.639 224.64C303.045 224.64 303.381 224.733 303.647 224.92L303.391 226.4C303.375 226.496 303.341 226.565 303.287 226.608C303.234 226.645 303.162 226.664 303.071 226.664C302.991 226.664 302.882 226.645 302.743 226.608C302.605 226.571 302.421 226.552 302.191 226.552C301.781 226.552 301.429 226.667 301.135 226.896C300.842 227.12 300.594 227.451 300.391 227.888V233H298.415ZM309.819 226.392C309.765 226.477 309.709 226.539 309.651 226.576C309.592 226.608 309.517 226.624 309.427 226.624C309.331 226.624 309.227 226.597 309.115 226.544C309.008 226.491 308.883 226.432 308.739 226.368C308.595 226.299 308.429 226.237 308.243 226.184C308.061 226.131 307.845 226.104 307.595 226.104C307.205 226.104 306.899 226.187 306.675 226.352C306.451 226.517 306.339 226.733 306.339 227C306.339 227.176 306.395 227.325 306.507 227.448C306.624 227.565 306.776 227.669 306.963 227.76C307.155 227.851 307.371 227.933 307.611 228.008C307.851 228.077 308.096 228.155 308.347 228.24C308.597 228.325 308.843 228.424 309.083 228.536C309.323 228.643 309.536 228.781 309.723 228.952C309.915 229.117 310.067 229.317 310.179 229.552C310.296 229.787 310.355 230.069 310.355 230.4C310.355 230.795 310.283 231.16 310.139 231.496C309.995 231.827 309.784 232.115 309.507 232.36C309.229 232.6 308.885 232.789 308.475 232.928C308.069 233.061 307.603 233.128 307.075 233.128C306.792 233.128 306.515 233.101 306.243 233.048C305.976 233 305.717 232.931 305.467 232.84C305.221 232.749 304.992 232.643 304.779 232.52C304.571 232.397 304.387 232.264 304.227 232.12L304.683 231.368C304.741 231.277 304.811 231.208 304.891 231.16C304.971 231.112 305.072 231.088 305.195 231.088C305.317 231.088 305.432 231.123 305.539 231.192C305.651 231.261 305.779 231.336 305.923 231.416C306.067 231.496 306.235 231.571 306.427 231.64C306.624 231.709 306.872 231.744 307.171 231.744C307.405 231.744 307.605 231.717 307.771 231.664C307.941 231.605 308.08 231.531 308.187 231.44C308.299 231.349 308.379 231.245 308.427 231.128C308.48 231.005 308.507 230.88 308.507 230.752C308.507 230.56 308.448 230.403 308.331 230.28C308.219 230.157 308.067 230.051 307.875 229.96C307.688 229.869 307.472 229.789 307.227 229.72C306.987 229.645 306.739 229.565 306.483 229.48C306.232 229.395 305.984 229.296 305.739 229.184C305.499 229.067 305.283 228.92 305.091 228.744C304.904 228.568 304.752 228.352 304.635 228.096C304.523 227.84 304.467 227.531 304.467 227.168C304.467 226.832 304.533 226.512 304.667 226.208C304.8 225.904 304.995 225.64 305.251 225.416C305.512 225.187 305.835 225.005 306.219 224.872C306.608 224.733 307.056 224.664 307.563 224.664C308.128 224.664 308.643 224.757 309.107 224.944C309.571 225.131 309.957 225.376 310.267 225.68L309.819 226.392Z" fill="white"/>
<defs>
<linearGradient id="paint0_linear_14843_5003" x1="151.687" y1="113.973" x2="211.048" y2="130.806" gradientUnits="userSpaceOnUse">
<stop stop-color="white"/>
<stop offset="1" stop-color="white"/>
</linearGradient>
<linearGradient id="paint1_linear_14843_5003" x1="201.052" y1="112.845" x2="158.221" y2="69.9082" gradientUnits="userSpaceOnUse">
<stop stop-color="#7258DC"/>
<stop offset="1" stop-color="#797DEA" stop-opacity="0"/>
</linearGradient>
<linearGradient id="paint2_linear_14843_5003" x1="178.934" y1="136.861" x2="137.789" y2="113.206" gradientUnits="userSpaceOnUse">
<stop stop-color="#7461EA"/>
<stop offset="1" stop-color="#BFC2FF" stop-opacity="0"/>
</linearGradient>
<linearGradient id="paint3_linear_14843_5003" x1="155.231" y1="113.53" x2="183.041" y2="148.866" gradientUnits="userSpaceOnUse">
<stop stop-color="white"/>
<stop offset="0.983895" stop-color="#D5CEFF"/>
</linearGradient>
</defs>
</svg>
