<svg width="337" height="337" viewBox="0 0 337 337" fill="none" xmlns="http://www.w3.org/2000/svg">
<path opacity="0.4" d="M3.5 67C5.433 67 7 65.433 7 63.5C7 61.567 5.433 60 3.5 60C1.567 60 0 61.567 0 63.5C0 65.433 1.567 67 3.5 67Z" fill="white"/>
<path opacity="0.4" d="M3.5 97C5.433 97 7 95.433 7 93.5C7 91.567 5.433 90 3.5 90C1.567 90 0 91.567 0 93.5C0 95.433 1.567 97 3.5 97Z" fill="white"/>
<path opacity="0.4" d="M3.5 157C5.433 157 7 155.433 7 153.5C7 151.567 5.433 150 3.5 150C1.567 150 0 151.567 0 153.5C0 155.433 1.567 157 3.5 157Z" fill="white"/>
<path opacity="0.4" d="M3.5 187C5.433 187 7 185.433 7 183.5C7 181.567 5.433 180 3.5 180C1.567 180 0 181.567 0 183.5C0 185.433 1.567 187 3.5 187Z" fill="white"/>
<path opacity="0.4" d="M3.5 217C5.433 217 7 215.433 7 213.5C7 211.567 5.433 210 3.5 210C1.567 210 0 211.567 0 213.5C0 215.433 1.567 217 3.5 217Z" fill="white"/>
<path opacity="0.1" d="M3.5 247C5.433 247 7 245.433 7 243.5C7 241.567 5.433 240 3.5 240C1.567 240 0 241.567 0 243.5C0 245.433 1.567 247 3.5 247Z" fill="white"/>
<path opacity="0.4" d="M3.5 277C5.433 277 7 275.433 7 273.5C7 271.567 5.433 270 3.5 270C1.567 270 0 271.567 0 273.5C0 275.433 1.567 277 3.5 277Z" fill="white"/>
<path opacity="0.9" d="M3.5 337C5.433 337 7 335.433 7 333.5C7 331.567 5.433 330 3.5 330C1.567 330 0 331.567 0 333.5C0 335.433 1.567 337 3.5 337Z" fill="white"/>
<path opacity="0.4" d="M33.5 67C35.433 67 37 65.433 37 63.5C37 61.567 35.433 60 33.5 60C31.567 60 30 61.567 30 63.5C30 65.433 31.567 67 33.5 67Z" fill="white"/>
<path opacity="0.4" d="M33.5 97C35.433 97 37 95.433 37 93.5C37 91.567 35.433 90 33.5 90C31.567 90 30 91.567 30 93.5C30 95.433 31.567 97 33.5 97Z" fill="white"/>
<path opacity="0.4" d="M33.5 127C35.433 127 37 125.433 37 123.5C37 121.567 35.433 120 33.5 120C31.567 120 30 121.567 30 123.5C30 125.433 31.567 127 33.5 127Z" fill="white"/>
<path opacity="0.4" d="M33.5 157C35.433 157 37 155.433 37 153.5C37 151.567 35.433 150 33.5 150C31.567 150 30 151.567 30 153.5C30 155.433 31.567 157 33.5 157Z" fill="white"/>
<path opacity="0.4" d="M33.5 187C35.433 187 37 185.433 37 183.5C37 181.567 35.433 180 33.5 180C31.567 180 30 181.567 30 183.5C30 185.433 31.567 187 33.5 187Z" fill="white"/>
<path opacity="0.4" d="M33.5 217C35.433 217 37 215.433 37 213.5C37 211.567 35.433 210 33.5 210C31.567 210 30 211.567 30 213.5C30 215.433 31.567 217 33.5 217Z" fill="white"/>
<path opacity="0.1" d="M33.5 247C35.433 247 37 245.433 37 243.5C37 241.567 35.433 240 33.5 240C31.567 240 30 241.567 30 243.5C30 245.433 31.567 247 33.5 247Z" fill="white"/>
<path opacity="0.4" d="M33.5 277C35.433 277 37 275.433 37 273.5C37 271.567 35.433 270 33.5 270C31.567 270 30 271.567 30 273.5C30 275.433 31.567 277 33.5 277Z" fill="white"/>
<path opacity="0.9" d="M33.5 307C35.433 307 37 305.433 37 303.5C37 301.567 35.433 300 33.5 300C31.567 300 30 301.567 30 303.5C30 305.433 31.567 307 33.5 307Z" fill="white"/>
<path opacity="0.4" d="M63.5 7C65.433 7 67 5.433 67 3.5C67 1.567 65.433 0 63.5 0C61.567 0 60 1.567 60 3.5C60 5.433 61.567 7 63.5 7Z" fill="white"/>
<path opacity="0.4" d="M63.5 37C65.433 37 67 35.433 67 33.5C67 31.567 65.433 30 63.5 30C61.567 30 60 31.567 60 33.5C60 35.433 61.567 37 63.5 37Z" fill="white"/>
<path opacity="0.4" d="M63.5 67C65.433 67 67 65.433 67 63.5C67 61.567 65.433 60 63.5 60C61.567 60 60 61.567 60 63.5C60 65.433 61.567 67 63.5 67Z" fill="white"/>
<path opacity="0.4" d="M63.5 97C65.433 97 67 95.433 67 93.5C67 91.567 65.433 90 63.5 90C61.567 90 60 91.567 60 93.5C60 95.433 61.567 97 63.5 97Z" fill="white"/>
<path opacity="0.4" d="M63.5 127C65.433 127 67 125.433 67 123.5C67 121.567 65.433 120 63.5 120C61.567 120 60 121.567 60 123.5C60 125.433 61.567 127 63.5 127Z" fill="white"/>
<path opacity="0.4" d="M63.5 157C65.433 157 67 155.433 67 153.5C67 151.567 65.433 150 63.5 150C61.567 150 60 151.567 60 153.5C60 155.433 61.567 157 63.5 157Z" fill="white"/>
<path opacity="0.4" d="M63.5 187C65.433 187 67 185.433 67 183.5C67 181.567 65.433 180 63.5 180C61.567 180 60 181.567 60 183.5C60 185.433 61.567 187 63.5 187Z" fill="white"/>
<path opacity="0.4" d="M63.5 217C65.433 217 67 215.433 67 213.5C67 211.567 65.433 210 63.5 210C61.567 210 60 211.567 60 213.5C60 215.433 61.567 217 63.5 217Z" fill="white"/>
<path opacity="0.1" d="M63.5 247C65.433 247 67 245.433 67 243.5C67 241.567 65.433 240 63.5 240C61.567 240 60 241.567 60 243.5C60 245.433 61.567 247 63.5 247Z" fill="white"/>
<path opacity="0.4" d="M63.5 277C65.433 277 67 275.433 67 273.5C67 271.567 65.433 270 63.5 270C61.567 270 60 271.567 60 273.5C60 275.433 61.567 277 63.5 277Z" fill="white"/>
<path opacity="0.5" d="M63.5 307C65.433 307 67 305.433 67 303.5C67 301.567 65.433 300 63.5 300C61.567 300 60 301.567 60 303.5C60 305.433 61.567 307 63.5 307Z" fill="white"/>
<path opacity="0.5" d="M63.5 337C65.433 337 67 335.433 67 333.5C67 331.567 65.433 330 63.5 330C61.567 330 60 331.567 60 333.5C60 335.433 61.567 337 63.5 337Z" fill="white"/>
<path opacity="0.4" d="M93.5 7C95.433 7 97 5.433 97 3.5C97 1.567 95.433 0 93.5 0C91.567 0 90 1.567 90 3.5C90 5.433 91.567 7 93.5 7Z" fill="white"/>
<path opacity="0.4" d="M93.5 37C95.433 37 97 35.433 97 33.5C97 31.567 95.433 30 93.5 30C91.567 30 90 31.567 90 33.5C90 35.433 91.567 37 93.5 37Z" fill="white"/>
<path opacity="0.4" d="M93.5 97C95.433 97 97 95.433 97 93.5C97 91.567 95.433 90 93.5 90C91.567 90 90 91.567 90 93.5C90 95.433 91.567 97 93.5 97Z" fill="white"/>
<path opacity="0.4" d="M93.5 127C95.433 127 97 125.433 97 123.5C97 121.567 95.433 120 93.5 120C91.567 120 90 121.567 90 123.5C90 125.433 91.567 127 93.5 127Z" fill="white"/>
<path opacity="0.1" d="M93.5 157C95.433 157 97 155.433 97 153.5C97 151.567 95.433 150 93.5 150C91.567 150 90 151.567 90 153.5C90 155.433 91.567 157 93.5 157Z" fill="white"/>
<path opacity="0.1" d="M93.5 187C95.433 187 97 185.433 97 183.5C97 181.567 95.433 180 93.5 180C91.567 180 90 181.567 90 183.5C90 185.433 91.567 187 93.5 187Z" fill="white"/>
<path opacity="0.1" d="M93.5 217C95.433 217 97 215.433 97 213.5C97 211.567 95.433 210 93.5 210C91.567 210 90 211.567 90 213.5C90 215.433 91.567 217 93.5 217Z" fill="white"/>
<path opacity="0.1" d="M93.5 247C95.433 247 97 245.433 97 243.5C97 241.567 95.433 240 93.5 240C91.567 240 90 241.567 90 243.5C90 245.433 91.567 247 93.5 247Z" fill="white"/>
<path opacity="0.4" d="M93.5 277C95.433 277 97 275.433 97 273.5C97 271.567 95.433 270 93.5 270C91.567 270 90 271.567 90 273.5C90 275.433 91.567 277 93.5 277Z" fill="white"/>
<path opacity="0.5" d="M93.5 307C95.433 307 97 305.433 97 303.5C97 301.567 95.433 300 93.5 300C91.567 300 90 301.567 90 303.5C90 305.433 91.567 307 93.5 307Z" fill="white"/>
<path opacity="0.5" d="M93.5 337C95.433 337 97 335.433 97 333.5C97 331.567 95.433 330 93.5 330C91.567 330 90 331.567 90 333.5C90 335.433 91.567 337 93.5 337Z" fill="white"/>
<path opacity="0.4" d="M123.5 7C125.433 7 127 5.433 127 3.5C127 1.567 125.433 0 123.5 0C121.567 0 120 1.567 120 3.5C120 5.433 121.567 7 123.5 7Z" fill="white"/>
<path opacity="0.4" d="M123.5 37C125.433 37 127 35.433 127 33.5C127 31.567 125.433 30 123.5 30C121.567 30 120 31.567 120 33.5C120 35.433 121.567 37 123.5 37Z" fill="white"/>
<path opacity="0.4" d="M123.5 67C125.433 67 127 65.433 127 63.5C127 61.567 125.433 60 123.5 60C121.567 60 120 61.567 120 63.5C120 65.433 121.567 67 123.5 67Z" fill="white"/>
<path opacity="0.4" d="M123.5 97C125.433 97 127 95.433 127 93.5C127 91.567 125.433 90 123.5 90C121.567 90 120 91.567 120 93.5C120 95.433 121.567 97 123.5 97Z" fill="white"/>
<path opacity="0.2" d="M123.5 127C125.433 127 127 125.433 127 123.5C127 121.567 125.433 120 123.5 120C121.567 120 120 121.567 120 123.5C120 125.433 121.567 127 123.5 127Z" fill="white"/>
<path opacity="0.2" d="M123.5 157C125.433 157 127 155.433 127 153.5C127 151.567 125.433 150 123.5 150C121.567 150 120 151.567 120 153.5C120 155.433 121.567 157 123.5 157Z" fill="white"/>
<path opacity="0.2" d="M123.5 187C125.433 187 127 185.433 127 183.5C127 181.567 125.433 180 123.5 180C121.567 180 120 181.567 120 183.5C120 185.433 121.567 187 123.5 187Z" fill="white"/>
<path opacity="0.2" d="M123.5 217C125.433 217 127 215.433 127 213.5C127 211.567 125.433 210 123.5 210C121.567 210 120 211.567 120 213.5C120 215.433 121.567 217 123.5 217Z" fill="white"/>
<path opacity="0.2" d="M123.5 247C125.433 247 127 245.433 127 243.5C127 241.567 125.433 240 123.5 240C121.567 240 120 241.567 120 243.5C120 245.433 121.567 247 123.5 247Z" fill="white"/>
<path opacity="0.2" d="M123.5 277C125.433 277 127 275.433 127 273.5C127 271.567 125.433 270 123.5 270C121.567 270 120 271.567 120 273.5C120 275.433 121.567 277 123.5 277Z" fill="white"/>
<path opacity="0.4" d="M123.5 307C125.433 307 127 305.433 127 303.5C127 301.567 125.433 300 123.5 300C121.567 300 120 301.567 120 303.5C120 305.433 121.567 307 123.5 307Z" fill="white"/>
<path opacity="0.4" d="M153.5 37C155.433 37 157 35.433 157 33.5C157 31.567 155.433 30 153.5 30C151.567 30 150 31.567 150 33.5C150 35.433 151.567 37 153.5 37Z" fill="white"/>
<path opacity="0.4" d="M153.5 67C155.433 67 157 65.433 157 63.5C157 61.567 155.433 60 153.5 60C151.567 60 150 61.567 150 63.5C150 65.433 151.567 67 153.5 67Z" fill="white"/>
<path opacity="0.4" d="M153.5 97C155.433 97 157 95.433 157 93.5C157 91.567 155.433 90 153.5 90C151.567 90 150 91.567 150 93.5C150 95.433 151.567 97 153.5 97Z" fill="white"/>
<path opacity="0.2" d="M153.5 127C155.433 127 157 125.433 157 123.5C157 121.567 155.433 120 153.5 120C151.567 120 150 121.567 150 123.5C150 125.433 151.567 127 153.5 127Z" fill="white"/>
<path opacity="0.2" d="M153.5 157C155.433 157 157 155.433 157 153.5C157 151.567 155.433 150 153.5 150C151.567 150 150 151.567 150 153.5C150 155.433 151.567 157 153.5 157Z" fill="white"/>
<path opacity="0.2" d="M153.5 187C155.433 187 157 185.433 157 183.5C157 181.567 155.433 180 153.5 180C151.567 180 150 181.567 150 183.5C150 185.433 151.567 187 153.5 187Z" fill="white"/>
<path opacity="0.2" d="M153.5 217C155.433 217 157 215.433 157 213.5C157 211.567 155.433 210 153.5 210C151.567 210 150 211.567 150 213.5C150 215.433 151.567 217 153.5 217Z" fill="white"/>
<path opacity="0.2" d="M153.5 247C155.433 247 157 245.433 157 243.5C157 241.567 155.433 240 153.5 240C151.567 240 150 241.567 150 243.5C150 245.433 151.567 247 153.5 247Z" fill="white"/>
<path opacity="0.2" d="M153.5 277C155.433 277 157 275.433 157 273.5C157 271.567 155.433 270 153.5 270C151.567 270 150 271.567 150 273.5C150 275.433 151.567 277 153.5 277Z" fill="white"/>
<path opacity="0.4" d="M153.5 307C155.433 307 157 305.433 157 303.5C157 301.567 155.433 300 153.5 300C151.567 300 150 301.567 150 303.5C150 305.433 151.567 307 153.5 307Z" fill="white"/>
<path opacity="0.4" d="M153.5 337C155.433 337 157 335.433 157 333.5C157 331.567 155.433 330 153.5 330C151.567 330 150 331.567 150 333.5C150 335.433 151.567 337 153.5 337Z" fill="white"/>
<path opacity="0.2" d="M183.5 7C185.433 7 187 5.433 187 3.5C187 1.567 185.433 0 183.5 0C181.567 0 180 1.567 180 3.5C180 5.433 181.567 7 183.5 7Z" fill="white"/>
<path opacity="0.2" d="M183.5 37C185.433 37 187 35.433 187 33.5C187 31.567 185.433 30 183.5 30C181.567 30 180 31.567 180 33.5C180 35.433 181.567 37 183.5 37Z" fill="white"/>
<path opacity="0.2" d="M183.5 67C185.433 67 187 65.433 187 63.5C187 61.567 185.433 60 183.5 60C181.567 60 180 61.567 180 63.5C180 65.433 181.567 67 183.5 67Z" fill="white"/>
<path opacity="0.2" d="M183.5 97C185.433 97 187 95.433 187 93.5C187 91.567 185.433 90 183.5 90C181.567 90 180 91.567 180 93.5C180 95.433 181.567 97 183.5 97Z" fill="white"/>
<path opacity="0.2" d="M183.5 127C185.433 127 187 125.433 187 123.5C187 121.567 185.433 120 183.5 120C181.567 120 180 121.567 180 123.5C180 125.433 181.567 127 183.5 127Z" fill="white"/>
<path opacity="0.2" d="M183.5 157C185.433 157 187 155.433 187 153.5C187 151.567 185.433 150 183.5 150C181.567 150 180 151.567 180 153.5C180 155.433 181.567 157 183.5 157Z" fill="white"/>
<path opacity="0.2" d="M183.5 187C185.433 187 187 185.433 187 183.5C187 181.567 185.433 180 183.5 180C181.567 180 180 181.567 180 183.5C180 185.433 181.567 187 183.5 187Z" fill="white"/>
<path opacity="0.2" d="M183.5 217C185.433 217 187 215.433 187 213.5C187 211.567 185.433 210 183.5 210C181.567 210 180 211.567 180 213.5C180 215.433 181.567 217 183.5 217Z" fill="white"/>
<path opacity="0.2" d="M183.5 247C185.433 247 187 245.433 187 243.5C187 241.567 185.433 240 183.5 240C181.567 240 180 241.567 180 243.5C180 245.433 181.567 247 183.5 247Z" fill="white"/>
<path opacity="0.2" d="M183.5 277C185.433 277 187 275.433 187 273.5C187 271.567 185.433 270 183.5 270C181.567 270 180 271.567 180 273.5C180 275.433 181.567 277 183.5 277Z" fill="white"/>
<path opacity="0.4" d="M183.5 337C185.433 337 187 335.433 187 333.5C187 331.567 185.433 330 183.5 330C181.567 330 180 331.567 180 333.5C180 335.433 181.567 337 183.5 337Z" fill="white"/>
<path opacity="0.2" d="M213.5 7C215.433 7 217 5.433 217 3.5C217 1.567 215.433 0 213.5 0C211.567 0 210 1.567 210 3.5C210 5.433 211.567 7 213.5 7Z" fill="white"/>
<path opacity="0.2" d="M213.5 37C215.433 37 217 35.433 217 33.5C217 31.567 215.433 30 213.5 30C211.567 30 210 31.567 210 33.5C210 35.433 211.567 37 213.5 37Z" fill="white"/>
<path opacity="0.2" d="M213.5 67C215.433 67 217 65.433 217 63.5C217 61.567 215.433 60 213.5 60C211.567 60 210 61.567 210 63.5C210 65.433 211.567 67 213.5 67Z" fill="white"/>
<path opacity="0.2" d="M213.5 97C215.433 97 217 95.433 217 93.5C217 91.567 215.433 90 213.5 90C211.567 90 210 91.567 210 93.5C210 95.433 211.567 97 213.5 97Z" fill="white"/>
<path opacity="0.2" d="M213.5 127C215.433 127 217 125.433 217 123.5C217 121.567 215.433 120 213.5 120C211.567 120 210 121.567 210 123.5C210 125.433 211.567 127 213.5 127Z" fill="white"/>
<path opacity="0.2" d="M213.5 157C215.433 157 217 155.433 217 153.5C217 151.567 215.433 150 213.5 150C211.567 150 210 151.567 210 153.5C210 155.433 211.567 157 213.5 157Z" fill="white"/>
<path opacity="0.2" d="M213.5 187C215.433 187 217 185.433 217 183.5C217 181.567 215.433 180 213.5 180C211.567 180 210 181.567 210 183.5C210 185.433 211.567 187 213.5 187Z" fill="white"/>
<path opacity="0.2" d="M213.5 217C215.433 217 217 215.433 217 213.5C217 211.567 215.433 210 213.5 210C211.567 210 210 211.567 210 213.5C210 215.433 211.567 217 213.5 217Z" fill="white"/>
<path opacity="0.2" d="M213.5 247C215.433 247 217 245.433 217 243.5C217 241.567 215.433 240 213.5 240C211.567 240 210 241.567 210 243.5C210 245.433 211.567 247 213.5 247Z" fill="white"/>
<path opacity="0.2" d="M213.5 277C215.433 277 217 275.433 217 273.5C217 271.567 215.433 270 213.5 270C211.567 270 210 271.567 210 273.5C210 275.433 211.567 277 213.5 277Z" fill="white"/>
<path opacity="0.8" d="M213.5 307C215.433 307 217 305.433 217 303.5C217 301.567 215.433 300 213.5 300C211.567 300 210 301.567 210 303.5C210 305.433 211.567 307 213.5 307Z" fill="white"/>
<path opacity="0.2" d="M243.5 7C245.433 7 247 5.433 247 3.5C247 1.567 245.433 0 243.5 0C241.567 0 240 1.567 240 3.5C240 5.433 241.567 7 243.5 7Z" fill="white"/>
<path opacity="0.2" d="M243.5 37C245.433 37 247 35.433 247 33.5C247 31.567 245.433 30 243.5 30C241.567 30 240 31.567 240 33.5C240 35.433 241.567 37 243.5 37Z" fill="white"/>
<path opacity="0.2" d="M243.5 67C245.433 67 247 65.433 247 63.5C247 61.567 245.433 60 243.5 60C241.567 60 240 61.567 240 63.5C240 65.433 241.567 67 243.5 67Z" fill="white"/>
<path opacity="0.2" d="M243.5 97C245.433 97 247 95.433 247 93.5C247 91.567 245.433 90 243.5 90C241.567 90 240 91.567 240 93.5C240 95.433 241.567 97 243.5 97Z" fill="white"/>
<path opacity="0.2" d="M243.5 127C245.433 127 247 125.433 247 123.5C247 121.567 245.433 120 243.5 120C241.567 120 240 121.567 240 123.5C240 125.433 241.567 127 243.5 127Z" fill="white"/>
<path opacity="0.2" d="M243.5 157C245.433 157 247 155.433 247 153.5C247 151.567 245.433 150 243.5 150C241.567 150 240 151.567 240 153.5C240 155.433 241.567 157 243.5 157Z" fill="white"/>
<path opacity="0.2" d="M243.5 187C245.433 187 247 185.433 247 183.5C247 181.567 245.433 180 243.5 180C241.567 180 240 181.567 240 183.5C240 185.433 241.567 187 243.5 187Z" fill="white"/>
<path opacity="0.2" d="M243.5 217C245.433 217 247 215.433 247 213.5C247 211.567 245.433 210 243.5 210C241.567 210 240 211.567 240 213.5C240 215.433 241.567 217 243.5 217Z" fill="white"/>
<path opacity="0.2" d="M243.5 247C245.433 247 247 245.433 247 243.5C247 241.567 245.433 240 243.5 240C241.567 240 240 241.567 240 243.5C240 245.433 241.567 247 243.5 247Z" fill="white"/>
<path opacity="0.2" d="M243.5 277C245.433 277 247 275.433 247 273.5C247 271.567 245.433 270 243.5 270C241.567 270 240 271.567 240 273.5C240 275.433 241.567 277 243.5 277Z" fill="white"/>
<path opacity="0.8" d="M243.5 307C245.433 307 247 305.433 247 303.5C247 301.567 245.433 300 243.5 300C241.567 300 240 301.567 240 303.5C240 305.433 241.567 307 243.5 307Z" fill="white"/>
<path opacity="0.4" d="M273.5 7C275.433 7 277 5.433 277 3.5C277 1.567 275.433 0 273.5 0C271.567 0 270 1.567 270 3.5C270 5.433 271.567 7 273.5 7Z" fill="white"/>
<path opacity="0.4" d="M273.5 37C275.433 37 277 35.433 277 33.5C277 31.567 275.433 30 273.5 30C271.567 30 270 31.567 270 33.5C270 35.433 271.567 37 273.5 37Z" fill="white"/>
<path opacity="0.3" d="M273.5 67C275.433 67 277 65.433 277 63.5C277 61.567 275.433 60 273.5 60C271.567 60 270 61.567 270 63.5C270 65.433 271.567 67 273.5 67Z" fill="white"/>
<path opacity="0.4" d="M273.5 97C275.433 97 277 95.433 277 93.5C277 91.567 275.433 90 273.5 90C271.567 90 270 91.567 270 93.5C270 95.433 271.567 97 273.5 97Z" fill="white"/>
<path opacity="0.4" d="M273.5 127C275.433 127 277 125.433 277 123.5C277 121.567 275.433 120 273.5 120C271.567 120 270 121.567 270 123.5C270 125.433 271.567 127 273.5 127Z" fill="white"/>
<path opacity="0.4" d="M273.5 157C275.433 157 277 155.433 277 153.5C277 151.567 275.433 150 273.5 150C271.567 150 270 151.567 270 153.5C270 155.433 271.567 157 273.5 157Z" fill="white"/>
<path opacity="0.4" d="M273.5 187C275.433 187 277 185.433 277 183.5C277 181.567 275.433 180 273.5 180C271.567 180 270 181.567 270 183.5C270 185.433 271.567 187 273.5 187Z" fill="white"/>
<path opacity="0.5" d="M273.5 247C275.433 247 277 245.433 277 243.5C277 241.567 275.433 240 273.5 240C271.567 240 270 241.567 270 243.5C270 245.433 271.567 247 273.5 247Z" fill="white"/>
<path opacity="0.5" d="M273.5 277C275.433 277 277 275.433 277 273.5C277 271.567 275.433 270 273.5 270C271.567 270 270 271.567 270 273.5C270 275.433 271.567 277 273.5 277Z" fill="white"/>
<path opacity="0.5" d="M273.5 307C275.433 307 277 305.433 277 303.5C277 301.567 275.433 300 273.5 300C271.567 300 270 301.567 270 303.5C270 305.433 271.567 307 273.5 307Z" fill="white"/>
<path opacity="0.4" d="M303.5 7C305.433 7 307 5.433 307 3.5C307 1.567 305.433 0 303.5 0C301.567 0 300 1.567 300 3.5C300 5.433 301.567 7 303.5 7Z" fill="white"/>
<path opacity="0.4" d="M303.5 37C305.433 37 307 35.433 307 33.5C307 31.567 305.433 30 303.5 30C301.567 30 300 31.567 300 33.5C300 35.433 301.567 37 303.5 37Z" fill="white"/>
<path opacity="0.3" d="M303.5 67C305.433 67 307 65.433 307 63.5C307 61.567 305.433 60 303.5 60C301.567 60 300 61.567 300 63.5C300 65.433 301.567 67 303.5 67Z" fill="white"/>
<path opacity="0.4" d="M303.5 97C305.433 97 307 95.433 307 93.5C307 91.567 305.433 90 303.5 90C301.567 90 300 91.567 300 93.5C300 95.433 301.567 97 303.5 97Z" fill="white"/>
<path opacity="0.4" d="M303.5 187C305.433 187 307 185.433 307 183.5C307 181.567 305.433 180 303.5 180C301.567 180 300 181.567 300 183.5C300 185.433 301.567 187 303.5 187Z" fill="white"/>
<path opacity="0.4" d="M303.5 217C305.433 217 307 215.433 307 213.5C307 211.567 305.433 210 303.5 210C301.567 210 300 211.567 300 213.5C300 215.433 301.567 217 303.5 217Z" fill="white"/>
<path opacity="0.5" d="M303.5 247C305.433 247 307 245.433 307 243.5C307 241.567 305.433 240 303.5 240C301.567 240 300 241.567 300 243.5C300 245.433 301.567 247 303.5 247Z" fill="white"/>
<path opacity="0.5" d="M303.5 277C305.433 277 307 275.433 307 273.5C307 271.567 305.433 270 303.5 270C301.567 270 300 271.567 300 273.5C300 275.433 301.567 277 303.5 277Z" fill="white"/>
<path opacity="0.5" d="M303.5 307C305.433 307 307 305.433 307 303.5C307 301.567 305.433 300 303.5 300C301.567 300 300 301.567 300 303.5C300 305.433 301.567 307 303.5 307Z" fill="white"/>
<path opacity="0.5" d="M303.5 337C305.433 337 307 335.433 307 333.5C307 331.567 305.433 330 303.5 330C301.567 330 300 331.567 300 333.5C300 335.433 301.567 337 303.5 337Z" fill="white"/>
<path opacity="0.4" d="M333.5 7C335.433 7 337 5.433 337 3.5C337 1.567 335.433 0 333.5 0C331.567 0 330 1.567 330 3.5C330 5.433 331.567 7 333.5 7Z" fill="white"/>
<path opacity="0.4" d="M333.5 97C335.433 97 337 95.433 337 93.5C337 91.567 335.433 90 333.5 90C331.567 90 330 91.567 330 93.5C330 95.433 331.567 97 333.5 97Z" fill="white"/>
<path opacity="0.5" d="M333.5 187C335.433 187 337 185.433 337 183.5C337 181.567 335.433 180 333.5 180C331.567 180 330 181.567 330 183.5C330 185.433 331.567 187 333.5 187Z" fill="white"/>
<path opacity="0.4" d="M333.5 217C335.433 217 337 215.433 337 213.5C337 211.567 335.433 210 333.5 210C331.567 210 330 211.567 330 213.5C330 215.433 331.567 217 333.5 217Z" fill="white"/>
<path opacity="0.5" d="M333.5 277C335.433 277 337 275.433 337 273.5C337 271.567 335.433 270 333.5 270C331.567 270 330 271.567 330 273.5C330 275.433 331.567 277 333.5 277Z" fill="white"/>
<path opacity="0.5" d="M333.5 307C335.433 307 337 305.433 337 303.5C337 301.567 335.433 300 333.5 300C331.567 300 330 301.567 330 303.5C330 305.433 331.567 307 333.5 307Z" fill="white"/>
<path d="M181.432 84.3232H168.5V146.244H181.432C191.389 146.244 199.46 138.172 199.46 128.215V102.351C199.46 92.3947 191.389 84.3231 181.432 84.3231V84.3232Z" fill="white"/>
<path d="M155.962 146.244H168.895V84.3232H155.962C146.006 84.3232 137.934 92.3947 137.934 102.352V128.216C137.934 138.172 146.006 146.244 155.962 146.244V146.244Z" fill="#FFD523"/>
<path d="M183.958 104.838C183.326 104.503 182.606 104.311 181.84 104.311C179.335 104.311 177.304 106.342 177.304 108.847C177.304 111.352 179.335 113.383 181.84 113.383C184.231 113.383 186.185 111.533 186.359 109.187C186.368 109.074 186.376 108.962 186.376 108.847C186.376 107.108 185.396 105.599 183.958 104.838L183.958 104.838Z" fill="#211F1F"/>
<path d="M132.447 91.8502H128.842V85.6931C128.842 80.1317 133.367 75.6074 138.928 75.6074H150.453V79.2118H138.928C135.354 79.2118 132.447 82.1193 132.447 85.6931V91.8502Z" fill="#211F1F"/>
<path d="M151.081 155.703H138.928C133.367 155.703 128.842 151.179 128.842 145.618V139.256H132.447V145.618C132.447 149.191 135.354 152.099 138.928 152.099H151.081V155.703V155.703Z" fill="#211F1F"/>
<path d="M208.158 91.8502H204.553V85.6931C204.553 82.1193 201.646 79.2118 198.072 79.2118H186.547V75.6074H198.072C203.633 75.6074 208.158 80.1318 208.158 85.6931V91.8502Z" fill="#211F1F"/>
<path d="M198.072 155.703H185.919V152.099H198.072C201.646 152.099 204.553 149.192 204.553 145.618V139.256H208.158V145.618C208.158 151.179 203.633 155.704 198.072 155.704V155.703Z" fill="#211F1F"/>
<path d="M179.667 121.026C179.443 119.317 177.985 117.996 176.214 117.996H168.5V131.286H181.561C184.82 131.286 187.463 128.644 187.463 125.384V121.026H179.667V121.026Z" fill="#E5E5E5"/>
<path d="M168.5 122.376H179.667C179.443 120.667 177.985 119.346 176.214 119.346H168.5V122.376Z" fill="#C6C6C6"/>
<path d="M180.698 119.676C179.975 117.887 178.218 116.646 176.214 116.646H168.5V119.346H176.214C177.281 119.346 178.19 120.144 178.329 121.202L178.483 122.376H186.113V125.384C186.113 127.894 184.07 129.936 181.561 129.936H168.5V132.636H181.561C185.559 132.636 188.813 129.383 188.813 125.384V119.676H180.698L180.698 119.676Z" fill="#211F1F"/>
<path d="M157.333 121.026C157.556 119.317 159.015 117.996 160.786 117.996H168.5V131.286H155.439C152.18 131.286 149.537 128.644 149.537 125.384V121.026H157.333V121.026Z" fill="#F4901E"/>
<path d="M168.5 122.376H157.333C157.556 120.667 159.015 119.346 160.786 119.346H168.5V122.376Z" fill="#D1690B"/>
<path d="M156.302 119.676C157.025 117.887 158.782 116.646 160.786 116.646H168.5V119.346H160.786C159.719 119.346 158.81 120.144 158.671 121.202L158.517 122.376H150.887V125.384C150.887 127.894 152.929 129.936 155.439 129.936H168.5V132.636H155.439C151.44 132.636 148.187 129.383 148.187 125.384V119.676H156.302L156.302 119.676Z" fill="#211F1F"/>
<path d="M181.432 84.3232H168.5V87.9276H181.432C189.385 87.9276 195.856 94.3981 195.856 102.351V128.215C195.856 136.169 189.385 142.639 181.432 142.639H168.5V146.244H181.432C191.389 146.244 199.46 138.172 199.46 128.215V102.351C199.46 92.3945 191.389 84.323 181.432 84.323V84.3232Z" fill="#211F1F"/>
<path d="M155.568 84.3232H168.5V87.9276H155.568C147.615 87.9276 141.144 94.3981 141.144 102.351V128.215C141.144 136.169 147.615 142.639 155.568 142.639H168.5V146.244H155.568C145.611 146.244 137.54 138.172 137.54 128.215V102.351C137.54 92.3945 145.611 84.323 155.568 84.323V84.3232Z" fill="#211F1F"/>
<path d="M167.599 74.8638V88.562V155.703H169.401V88.562V74.8638H167.599Z" fill="#211F1F"/>
<path d="M157.278 104.838C156.645 104.503 155.925 104.311 155.16 104.311C152.654 104.311 150.623 106.342 150.623 108.847C150.623 111.352 152.654 113.383 155.16 113.383C157.55 113.383 159.504 111.533 159.678 109.187C159.687 109.074 159.696 108.962 159.696 108.847C159.696 107.108 158.715 105.599 157.278 104.838V104.838Z" fill="#211F1F"/>
<path d="M86.1729 188.604V170.143H93.0635C94.5879 170.143 95.9229 170.387 97.0674 170.872C98.211 171.357 99.169 172.016 99.9404 172.848C100.711 173.68 101.292 174.654 101.683 175.772C102.072 176.891 102.268 178.083 102.268 179.348C102.268 180.752 102.051 182.021 101.617 183.157C101.184 184.292 100.564 185.263 99.7578 186.068C98.9521 186.875 97.9814 187.499 96.8467 187.94C95.711 188.383 94.4502 188.604 93.0635 188.604H86.1729ZM97.9249 179.348C97.9249 178.533 97.8165 177.792 97.6007 177.125C97.3839 176.458 97.0675 175.881 96.6515 175.395C96.2355 174.911 95.7238 174.538 95.1173 174.277C94.5109 174.017 93.8263 173.888 93.0636 173.888H90.4376V184.859H93.0636C93.8439 184.859 94.5363 184.722 95.1437 184.443C95.7501 184.167 96.257 183.78 96.6642 183.287C97.0714 182.793 97.3839 182.212 97.6007 181.545C97.8165 180.878 97.9249 180.145 97.9249 179.348V179.348Z" fill="black"/>
<path d="M108.585 188.863C107.181 188.863 106.118 188.426 105.4 187.551C104.68 186.676 104.32 185.389 104.32 183.689V174.954H108.481V182.779C108.481 183.611 108.646 184.249 108.975 184.69C109.304 185.133 109.772 185.354 110.379 185.354C110.933 185.354 111.471 185.207 111.99 184.912C112.511 184.617 112.97 184.105 113.368 183.378V174.954H117.528V183.924C117.528 184.34 117.594 184.63 117.724 184.795C117.854 184.96 118.083 185.06 118.412 185.094V188.604C118.014 188.69 117.676 188.747 117.399 188.772C117.121 188.799 116.869 188.811 116.645 188.811C115.153 188.811 114.305 188.231 114.097 187.069L114.019 186.237C113.395 187.14 112.618 187.802 111.692 188.227C110.764 188.651 109.729 188.863 108.585 188.863H108.585Z" fill="black"/>
<path d="M119.947 181.766C119.947 180.83 120.111 179.933 120.441 179.075C120.771 178.217 121.247 177.463 121.871 176.812C122.495 176.163 123.263 175.647 124.172 175.266C125.082 174.885 126.118 174.693 127.279 174.693C128.856 174.693 130.183 175.027 131.257 175.694C132.332 176.362 133.138 177.233 133.675 178.308L129.619 179.529C129.082 178.663 128.293 178.23 127.253 178.23C126.387 178.23 125.663 178.551 125.082 179.191C124.501 179.833 124.211 180.691 124.211 181.766C124.211 182.304 124.289 182.793 124.445 183.234C124.602 183.677 124.817 184.054 125.096 184.366C125.372 184.678 125.697 184.921 126.07 185.094C126.442 185.268 126.837 185.354 127.253 185.354C127.773 185.354 128.25 185.229 128.684 184.977C129.116 184.726 129.438 184.4 129.646 184.002L133.701 185.25C133.198 186.307 132.397 187.174 131.296 187.85C130.195 188.525 128.856 188.863 127.279 188.863C126.135 188.863 125.108 188.669 124.198 188.278C123.288 187.889 122.517 187.369 121.884 186.719C121.251 186.068 120.77 185.314 120.441 184.457C120.111 183.598 119.947 182.702 119.947 181.766L119.947 181.766Z" fill="black"/>
<path d="M144.751 188.604L141.189 183.118L139.732 184.626V188.603H135.572V169.624H139.732V180.622L144.335 174.954H148.755L143.841 180.83L149.171 188.603H144.751L144.751 188.604Z" fill="black"/>
<path d="M150.471 190.658C150.817 190.779 151.142 190.866 151.445 190.918C151.749 190.97 152.022 190.996 152.265 190.996C152.767 190.996 153.157 190.822 153.434 190.476C153.712 190.129 153.963 189.505 154.188 188.604L148.988 174.954H153.278L156.45 185.042L159.181 174.954H163.08L157.881 190.814C157.516 191.941 156.866 192.855 155.931 193.557C154.994 194.259 153.885 194.609 152.602 194.609C152.256 194.609 151.904 194.579 151.55 194.519C151.194 194.458 150.835 194.358 150.471 194.22V190.658V190.658Z" fill="black"/>
<path d="M175.664 170.17H179.59L181.462 176.071L183.334 170.17H187.286L184.191 178.75L186.064 183.716L190.691 170.143H195.346L187.962 188.604H184.4L181.462 181.376L178.55 188.604H174.962L167.604 170.143H172.232L176.886 183.716L178.706 178.75L175.664 170.17V170.17Z" fill="black"/>
<path d="M199.193 188.863C198.518 188.863 197.89 188.755 197.309 188.539C196.727 188.322 196.23 188.019 195.814 187.629C195.398 187.238 195.068 186.779 194.825 186.251C194.583 185.723 194.462 185.145 194.462 184.521C194.462 183.846 194.604 183.23 194.891 182.676C195.177 182.121 195.58 181.645 196.1 181.246C196.62 180.848 197.234 180.535 197.945 180.31C198.656 180.085 199.444 179.972 200.311 179.972C200.884 179.972 201.439 180.02 201.976 180.115C202.513 180.21 202.98 180.354 203.38 180.544V179.92C203.38 178.343 202.47 177.554 200.649 177.554C199.904 177.554 199.193 177.68 198.518 177.931C197.842 178.183 197.131 178.56 196.386 179.062L195.164 176.462C196.064 175.873 197.001 175.431 197.972 175.136C198.942 174.841 199.974 174.693 201.066 174.693C203.128 174.693 204.723 175.18 205.85 176.15C206.977 177.121 207.54 178.542 207.54 180.414V183.924C207.54 184.34 207.605 184.63 207.734 184.795C207.864 184.96 208.094 185.06 208.424 185.094V188.604C208.06 188.691 207.73 188.747 207.436 188.773C207.141 188.799 206.872 188.812 206.63 188.812C205.85 188.812 205.26 188.66 204.861 188.357C204.463 188.054 204.212 187.625 204.107 187.069L204.029 186.445C203.423 187.226 202.699 187.824 201.858 188.24C201.018 188.655 200.13 188.863 199.193 188.863V188.863ZM200.416 185.874C200.866 185.874 201.304 185.796 201.729 185.64C202.153 185.483 202.504 185.275 202.781 185.016C203.181 184.704 203.38 184.375 203.38 184.027V182.727C203.016 182.589 202.621 182.48 202.196 182.402C201.772 182.325 201.378 182.286 201.014 182.286C200.251 182.286 199.623 182.459 199.129 182.806C198.635 183.152 198.388 183.603 198.388 184.158C198.388 184.661 198.578 185.072 198.96 185.392C199.341 185.714 199.826 185.874 200.416 185.874V185.874Z" fill="black"/>
<path d="M210.504 169.624H214.664V183.742C214.664 184.782 215.106 185.302 215.99 185.302C216.198 185.302 216.428 185.271 216.679 185.211C216.93 185.15 217.16 185.06 217.368 184.938L217.914 188.058C217.394 188.301 216.796 188.491 216.12 188.63C215.445 188.769 214.812 188.838 214.222 188.838C213.027 188.838 212.108 188.526 211.466 187.902C210.824 187.278 210.504 186.377 210.504 185.198V169.624L210.504 169.624Z" fill="black"/>
<path d="M219.214 169.624H223.374V183.742C223.374 184.782 223.817 185.302 224.7 185.302C224.908 185.302 225.138 185.271 225.389 185.211C225.64 185.15 225.87 185.06 226.078 184.938L226.624 188.058C226.104 188.301 225.506 188.491 224.83 188.63C224.155 188.769 223.522 188.838 222.932 188.838C221.737 188.838 220.818 188.526 220.176 187.902C219.534 187.278 219.214 186.377 219.214 185.198V169.624L219.214 169.624Z" fill="black"/>
<path d="M234.502 188.863C233.358 188.863 232.331 188.678 231.421 188.305C230.511 187.933 229.739 187.425 229.106 186.784C228.474 186.143 227.993 185.401 227.664 184.561C227.334 183.721 227.17 182.841 227.17 181.922C227.17 180.934 227.334 180.002 227.664 179.127C227.993 178.252 228.47 177.484 229.094 176.826C229.718 176.167 230.485 175.648 231.395 175.266C232.305 174.885 233.341 174.693 234.502 174.693C235.663 174.693 236.694 174.885 237.596 175.266C238.497 175.648 239.26 176.163 239.884 176.813C240.508 177.463 240.98 178.213 241.301 179.062C241.621 179.911 241.782 180.804 241.782 181.74C241.782 181.983 241.773 182.221 241.756 182.455C241.738 182.689 241.713 182.893 241.678 183.066H231.59C231.659 183.984 231.993 184.683 232.591 185.159C233.189 185.636 233.869 185.874 234.632 185.874C235.238 185.874 235.823 185.727 236.387 185.432C236.95 185.138 237.327 184.738 237.518 184.235L241.054 185.224C240.517 186.299 239.685 187.174 238.558 187.85C237.431 188.526 236.079 188.863 234.502 188.863L234.502 188.863ZM237.388 180.492C237.301 179.625 236.989 178.94 236.452 178.438C235.914 177.936 235.247 177.684 234.45 177.684C233.635 177.684 232.964 177.94 232.435 178.451C231.906 178.962 231.599 179.643 231.512 180.492H237.388Z" fill="black"/>
<path d="M252.415 187.876C251.844 188.119 251.189 188.344 250.452 188.552C249.716 188.76 248.975 188.863 248.229 188.863C247.71 188.863 247.22 188.799 246.761 188.669C246.301 188.539 245.898 188.331 245.552 188.045C245.204 187.759 244.931 187.382 244.732 186.914C244.533 186.445 244.433 185.883 244.433 185.224V178.1H242.691V174.954H244.433V170.611H248.594V174.954H251.376V178.1H248.594V183.794C248.594 184.245 248.706 184.569 248.932 184.769C249.156 184.968 249.442 185.067 249.789 185.067C250.101 185.067 250.422 185.016 250.752 184.912C251.081 184.808 251.366 184.695 251.609 184.574L252.415 187.876V187.876Z" fill="black"/>
<path d="M34.6621 219.862H36.6142L40.9345 231.223H38.662L37.6063 228.391H33.6375L32.5975 231.223H30.326L34.6619 219.862H34.6621ZM37.206 226.839L35.6376 222.374L34.0058 226.839H37.206V226.839Z" fill="black"/>
<path d="M50.0859 231.383C49.4453 231.383 48.875 231.238 48.374 230.95C47.872 230.662 47.4775 230.268 47.1894 229.767V231.223H45.3173V219.542H47.4618V224.311C47.7606 223.799 48.1522 223.401 48.6376 223.118C49.123 222.836 49.6913 222.694 50.3417 222.694C50.8856 222.694 51.3817 222.812 51.83 223.047C52.2773 223.281 52.664 223.596 52.9902 223.99C53.3154 224.385 53.5654 224.85 53.7422 225.383C53.918 225.916 54.0059 226.476 54.0059 227.063C54.0059 227.671 53.9073 228.236 53.71 228.759C53.5127 229.281 53.2383 229.737 52.8858 230.126C52.5342 230.516 52.1182 230.822 51.6378 231.047C51.1583 231.271 50.6407 231.383 50.086 231.383L50.0859 231.383ZM49.4941 229.559C49.8349 229.559 50.1494 229.492 50.4375 229.358C50.7256 229.226 50.9707 229.047 51.1738 228.822C51.3759 228.599 51.5342 228.337 51.6455 228.038C51.7578 227.74 51.8135 227.42 51.8135 227.078C51.8135 226.737 51.7608 226.412 51.6533 226.102C51.5469 225.793 51.3955 225.521 51.1982 225.286C51 225.052 50.7685 224.865 50.5019 224.726C50.2353 224.588 49.9414 224.518 49.622 224.518C49.1415 224.518 48.7118 224.676 48.3339 224.99C47.955 225.305 47.664 225.692 47.4618 226.15V228.15C47.536 228.364 47.6454 228.556 47.7899 228.727C47.9335 228.897 48.0965 229.044 48.2772 229.166C48.4588 229.289 48.6561 229.385 48.87 229.454C49.0829 229.523 49.2909 229.559 49.494 229.559L49.4941 229.559Z" fill="black"/>
<path d="M59.3506 231.383C58.6787 231.383 58.0703 231.268 57.5264 231.038C56.9825 230.81 56.5186 230.497 56.1348 230.103C55.75 229.708 55.4541 229.249 55.2461 228.727C55.0381 228.204 54.9346 227.654 54.9346 227.078C54.9346 226.482 55.0352 225.918 55.2383 225.391C55.4404 224.862 55.7344 224.398 56.1182 223.998C56.502 223.599 56.9688 223.281 57.5186 223.047C58.0674 222.812 58.6836 222.694 59.3663 222.694C60.049 222.694 60.6593 222.812 61.1983 223.047C61.7374 223.281 62.1954 223.596 62.5743 223.99C62.9532 224.385 63.2413 224.844 63.4386 225.366C63.6359 225.89 63.7345 226.434 63.7345 226.998C63.7345 227.137 63.7316 227.271 63.7267 227.398C63.7208 227.526 63.7081 227.633 63.6867 227.719H57.2062C57.2384 228.049 57.3185 228.343 57.4464 228.599C57.5743 228.855 57.7394 229.073 57.9425 229.255C58.1446 229.436 58.3741 229.574 58.63 229.671C58.8868 229.767 59.1525 229.814 59.4308 229.814C59.8566 229.814 60.2599 229.71 60.6388 229.502C61.0167 229.294 61.2755 229.02 61.4142 228.679L63.254 229.191C62.9454 229.83 62.4513 230.355 61.7745 230.767C61.0968 231.177 60.2891 231.383 59.3507 231.383L59.3506 231.383ZM61.5264 226.326C61.4727 225.697 61.2412 225.193 60.8301 224.814C60.4199 224.436 59.9209 224.246 59.334 224.246C59.0459 224.246 58.7764 224.297 58.5264 224.398C58.2754 224.5 58.0547 224.642 57.8623 224.822C57.6699 225.004 57.5127 225.223 57.3906 225.478C57.2676 225.734 57.1953 226.017 57.1748 226.326H61.5264V226.326Z" fill="black"/>
<path d="M70.0059 230.79C69.7178 230.918 69.3663 231.047 68.9502 231.175C68.5341 231.303 68.0967 231.366 67.6377 231.366C67.3389 231.366 67.0596 231.329 66.7979 231.255C66.5362 231.18 66.3067 231.06 66.1094 230.894C65.9121 230.729 65.7549 230.516 65.6377 230.255C65.5205 229.993 65.4619 229.676 65.4619 229.303V224.486H64.3574V222.839H65.4619V220.118H67.6055V222.839H69.3662V224.486H67.6055V228.582C67.6055 228.881 67.6836 229.092 67.8379 229.215C67.9922 229.337 68.1817 229.398 68.4063 229.398C68.6299 229.398 68.8487 229.361 69.0616 229.286C69.2755 229.212 69.4464 229.147 69.5743 229.095L70.0059 230.79V230.79Z" fill="black"/>
<path d="M76.1494 230.79C75.8613 230.918 75.5098 231.047 75.0937 231.175C74.6776 231.303 74.2402 231.366 73.7812 231.366C73.4824 231.366 73.2031 231.329 72.9414 231.255C72.6797 231.18 72.4502 231.06 72.2529 230.894C72.0556 230.729 71.8984 230.516 71.7812 230.255C71.664 229.993 71.6054 229.676 71.6054 229.303V224.486H70.5009V222.839H71.6054V220.118H73.749V222.839H75.5097V224.486H73.749V228.582C73.749 228.881 73.8271 229.092 73.9814 229.215C74.1357 229.337 74.3252 229.398 74.5498 229.398C74.7734 229.398 74.9922 229.361 75.2051 229.286C75.419 229.212 75.5899 229.147 75.7178 229.095L76.1494 230.79V230.79Z" fill="black"/>
<path d="M80.9502 231.383C80.2783 231.383 79.6699 231.268 79.126 231.038C78.5821 230.81 78.1182 230.497 77.7344 230.103C77.3496 229.708 77.0537 229.249 76.8457 228.727C76.6377 228.204 76.5342 227.654 76.5342 227.078C76.5342 226.482 76.6348 225.918 76.8379 225.391C77.04 224.862 77.334 224.398 77.7178 223.998C78.1016 223.599 78.5684 223.281 79.1182 223.047C79.667 222.812 80.2832 222.694 80.9659 222.694C81.6486 222.694 82.2589 222.812 82.7979 223.047C83.337 223.281 83.795 223.596 84.1739 223.99C84.5528 224.385 84.8409 224.844 85.0382 225.366C85.2355 225.89 85.3341 226.434 85.3341 226.998C85.3341 227.137 85.3312 227.271 85.3263 227.398C85.3204 227.526 85.3077 227.633 85.2863 227.719H78.8058C78.838 228.049 78.9181 228.343 79.046 228.599C79.1739 228.855 79.339 229.073 79.5421 229.255C79.7442 229.436 79.9737 229.574 80.2296 229.671C80.4864 229.767 80.7521 229.814 81.0304 229.814C81.4562 229.814 81.8595 229.71 82.2384 229.502C82.6163 229.294 82.8751 229.02 83.0138 228.679L84.8536 229.191C84.545 229.83 84.0509 230.355 83.3741 230.767C82.6964 231.177 81.8887 231.383 80.9503 231.383L80.9502 231.383ZM83.126 226.326C83.0723 225.697 82.8408 225.193 82.4297 224.814C82.0195 224.436 81.5205 224.246 80.9336 224.246C80.6455 224.246 80.376 224.297 80.126 224.398C79.875 224.5 79.6543 224.642 79.4619 224.822C79.2695 225.004 79.1123 225.223 78.9902 225.478C78.8672 225.734 78.7949 226.017 78.7744 226.326H83.126V226.326Z" fill="black"/>
<path d="M91.6377 224.694C90.9873 224.705 90.4063 224.83 89.8936 225.07C89.3819 225.31 89.0137 225.671 88.7901 226.15V231.223H86.6456V222.839H88.6144V224.631C88.7628 224.343 88.9396 224.084 89.1417 223.854C89.3448 223.625 89.5636 223.425 89.7979 223.255C90.0323 223.084 90.2696 222.953 90.5098 222.862C90.75 222.771 90.9815 222.727 91.2061 222.727H91.4698C91.5284 222.727 91.5841 222.731 91.6378 222.742V224.694H91.6377Z" fill="black"/>
<path d="M100.182 231.383C99.5097 231.383 98.9013 231.268 98.3574 231.038C97.8135 230.81 97.3496 230.497 96.9658 230.103C96.581 229.708 96.2851 229.249 96.0771 228.727C95.8691 228.204 95.7656 227.654 95.7656 227.078C95.7656 226.482 95.8662 225.918 96.0693 225.391C96.2714 224.862 96.5654 224.398 96.9492 223.998C97.333 223.599 97.7998 223.281 98.3496 223.047C98.8984 222.812 99.5146 222.694 100.197 222.694C100.88 222.694 101.49 222.812 102.029 223.047C102.568 223.281 103.026 223.596 103.405 223.99C103.784 224.385 104.072 224.844 104.27 225.366C104.467 225.89 104.566 226.434 104.566 226.998C104.566 227.137 104.563 227.271 104.558 227.398C104.552 227.526 104.539 227.633 104.518 227.719H98.0372C98.0694 228.049 98.1495 228.343 98.2774 228.599C98.4053 228.855 98.5704 229.073 98.7735 229.255C98.9756 229.436 99.2051 229.574 99.461 229.671C99.7178 229.767 99.9835 229.814 100.262 229.814C100.688 229.814 101.091 229.71 101.47 229.502C101.848 229.294 102.107 229.02 102.245 228.679L104.085 229.191C103.776 229.83 103.282 230.355 102.606 230.767C101.928 231.177 101.12 231.383 100.182 231.383L100.182 231.383ZM102.357 226.326C102.304 225.697 102.072 225.193 101.661 224.814C101.251 224.436 100.752 224.246 100.165 224.246C99.8769 224.246 99.6074 224.297 99.3574 224.398C99.1064 224.5 98.8857 224.642 98.6933 224.822C98.5009 225.004 98.3437 225.223 98.2216 225.478C98.0986 225.734 98.0263 226.017 98.0058 226.326H102.357V226.326Z" fill="black"/>
<path d="M106.901 222.839L108.71 225.463L108.838 225.75L108.998 225.463L110.79 222.839H112.998L110.006 227.047L113.046 231.223H110.838L108.981 228.614L108.838 228.343L108.71 228.614L106.87 231.223H104.662L107.686 227.047L104.71 222.839H106.901V222.839Z" fill="black"/>
<path d="M119.094 230.79C118.806 230.918 118.454 231.047 118.038 231.175C117.622 231.303 117.185 231.366 116.726 231.366C116.427 231.366 116.148 231.329 115.886 231.255C115.624 231.18 115.395 231.06 115.197 230.894C115 230.729 114.843 230.516 114.726 230.255C114.608 229.993 114.55 229.676 114.55 229.303V224.486H113.445V222.839H114.55V220.118H116.693V222.839H118.454V224.486H116.693V228.582C116.693 228.881 116.771 229.092 116.926 229.215C117.08 229.337 117.27 229.398 117.494 229.398C117.718 229.398 117.937 229.361 118.149 229.286C118.363 229.212 118.534 229.147 118.662 229.095L119.094 230.79V230.79Z" fill="black"/>
<path d="M123.894 231.383C123.222 231.383 122.613 231.268 122.069 231.038C121.525 230.81 121.062 230.497 120.678 230.103C120.293 229.708 119.997 229.249 119.789 228.727C119.581 228.204 119.478 227.654 119.478 227.078C119.478 226.482 119.578 225.918 119.781 225.391C119.983 224.862 120.277 224.398 120.661 223.998C121.045 223.599 121.512 223.281 122.062 223.047C122.61 222.812 123.227 222.694 123.909 222.694C124.592 222.694 125.202 222.812 125.741 223.047C126.28 223.281 126.738 223.596 127.117 223.99C127.496 224.385 127.784 224.844 127.982 225.366C128.179 225.89 128.277 226.434 128.277 226.998C128.277 227.137 128.275 227.271 128.27 227.398C128.264 227.526 128.251 227.633 128.23 227.719H121.749C121.781 228.049 121.862 228.343 121.989 228.599C122.117 228.855 122.282 229.073 122.485 229.255C122.688 229.436 122.917 229.574 123.173 229.671C123.43 229.767 123.696 229.814 123.974 229.814C124.4 229.814 124.803 229.71 125.182 229.502C125.56 229.294 125.818 229.02 125.957 228.679L127.797 229.191C127.488 229.83 126.994 230.355 126.317 230.767C125.64 231.177 124.832 231.383 123.894 231.383L123.894 231.383ZM126.069 226.326C126.016 225.697 125.784 225.193 125.373 224.814C124.963 224.436 124.464 224.246 123.877 224.246C123.589 224.246 123.319 224.297 123.069 224.398C122.818 224.5 122.598 224.642 122.405 224.822C122.213 225.004 122.056 225.223 121.934 225.478C121.811 225.734 121.738 226.017 121.718 226.326H126.069V226.326Z" fill="black"/>
<path d="M137.381 231.223H135.237V226.519C135.237 225.847 135.12 225.355 134.886 225.047C134.65 224.737 134.325 224.582 133.909 224.582C133.695 224.582 133.477 224.625 133.253 224.71C133.029 224.796 132.818 224.916 132.621 225.07C132.424 225.226 132.245 225.409 132.085 225.622C131.925 225.836 131.808 226.07 131.733 226.326V231.223H129.589V222.839H131.525V224.391C131.835 223.858 132.282 223.442 132.869 223.143C133.456 222.844 134.117 222.695 134.854 222.695C135.376 222.695 135.803 222.79 136.133 222.983C136.464 223.175 136.72 223.425 136.902 223.735C137.083 224.044 137.208 224.396 137.277 224.79C137.347 225.186 137.381 225.585 137.381 225.991V231.223L137.381 231.223Z" fill="black"/>
<path d="M142.421 231.383C141.718 231.383 141.029 231.27 140.357 231.047C139.686 230.822 139.109 230.502 138.629 230.086L139.43 228.742C139.941 229.105 140.439 229.38 140.926 229.566C141.41 229.753 141.894 229.847 142.373 229.847C142.8 229.847 143.136 229.767 143.381 229.606C143.627 229.446 143.749 229.217 143.749 228.918C143.749 228.62 143.606 228.401 143.318 228.263C143.03 228.124 142.56 227.964 141.909 227.782C141.365 227.633 140.902 227.489 140.518 227.351C140.134 227.212 139.824 227.055 139.589 226.878C139.355 226.702 139.184 226.5 139.077 226.27C138.971 226.041 138.917 225.767 138.917 225.446C138.917 225.019 139 224.636 139.165 224.294C139.331 223.953 139.563 223.662 139.861 223.423C140.16 223.183 140.51 222.998 140.909 222.87C141.31 222.742 141.744 222.679 142.213 222.679C142.843 222.679 143.432 222.77 143.982 222.95C144.53 223.132 145.034 223.425 145.493 223.83L144.629 225.126C144.202 224.807 143.789 224.572 143.39 224.423C142.989 224.274 142.592 224.198 142.197 224.198C141.835 224.198 141.53 224.274 141.285 224.423C141.04 224.572 140.917 224.812 140.917 225.143C140.917 225.292 140.946 225.414 141.005 225.511C141.063 225.607 141.157 225.692 141.285 225.767C141.413 225.841 141.581 225.913 141.789 225.983C141.997 226.052 142.256 226.124 142.566 226.198C143.142 226.348 143.635 226.497 144.045 226.647C144.456 226.796 144.792 226.967 145.054 227.158C145.315 227.351 145.507 227.572 145.629 227.822C145.752 228.073 145.814 228.374 145.814 228.727C145.814 229.548 145.51 230.196 144.902 230.671C144.293 231.146 143.467 231.383 142.421 231.383L142.421 231.383Z" fill="black"/>
<path d="M147.205 221.671V219.542H149.35V221.671H147.205ZM147.205 231.223V222.839H149.35V231.223H147.205Z" fill="black"/>
<path d="M155.156 231.383C154.474 231.383 153.86 231.265 153.316 231.03C152.773 230.796 152.312 230.478 151.933 230.078C151.554 229.679 151.263 229.217 151.061 228.694C150.857 228.172 150.757 227.622 150.757 227.047C150.757 226.46 150.857 225.905 151.061 225.383C151.263 224.86 151.554 224.398 151.933 223.998C152.312 223.599 152.772 223.281 153.316 223.047C153.86 222.811 154.474 222.694 155.156 222.694C155.839 222.694 156.45 222.811 156.988 223.047C157.527 223.281 157.986 223.599 158.364 223.998C158.743 224.398 159.034 224.86 159.236 225.383C159.439 225.905 159.541 226.46 159.541 227.047C159.541 227.622 159.439 228.172 159.236 228.694C159.034 229.217 158.746 229.679 158.373 230.078C157.999 230.479 157.541 230.796 156.997 231.03C156.452 231.265 155.839 231.383 155.156 231.383V231.383ZM152.965 227.047C152.965 227.42 153.02 227.759 153.133 228.062C153.244 228.366 153.399 228.631 153.597 228.854C153.794 229.078 154.025 229.252 154.293 229.374C154.56 229.497 154.847 229.559 155.156 229.559C155.466 229.559 155.754 229.497 156.021 229.374C156.287 229.252 156.52 229.078 156.717 228.854C156.914 228.631 157.069 228.364 157.181 228.055C157.293 227.745 157.349 227.404 157.349 227.03C157.349 226.668 157.293 226.332 157.181 226.022C157.069 225.713 156.914 225.446 156.717 225.223C156.52 224.998 156.287 224.825 156.021 224.702C155.754 224.58 155.466 224.519 155.156 224.519C154.847 224.519 154.56 224.582 154.293 224.71C154.025 224.839 153.794 225.015 153.597 225.238C153.399 225.463 153.244 225.729 153.133 226.038C153.02 226.348 152.965 226.684 152.965 227.047Z" fill="black"/>
<path d="M168.773 231.223H166.629V226.519C166.629 225.847 166.512 225.355 166.277 225.047C166.042 224.737 165.717 224.582 165.301 224.582C165.087 224.582 164.869 224.625 164.645 224.71C164.421 224.796 164.21 224.916 164.013 225.07C163.815 225.226 163.637 225.409 163.477 225.622C163.316 225.836 163.199 226.07 163.125 226.326V231.223H160.98V222.839H162.917V224.391C163.227 223.858 163.674 223.442 164.261 223.143C164.848 222.844 165.509 222.695 166.245 222.695C166.768 222.695 167.194 222.79 167.525 222.983C167.856 223.175 168.111 223.425 168.293 223.735C168.475 224.044 168.6 224.396 168.669 224.79C168.738 225.186 168.773 225.585 168.773 225.991V231.223L168.773 231.223Z" fill="black"/>
<path d="M184.452 222.839H186.484L182.98 231.223H181.22L179.78 227.542L178.356 231.223H176.596L173.108 222.839H175.124L177.62 229.206L178.645 226.486L177.172 222.855H178.9L179.78 225.431L180.676 222.855H182.404L180.948 226.486L181.956 229.206L184.452 222.839H184.452Z" fill="black"/>
<path d="M189.557 231.383C189.151 231.383 188.773 231.315 188.421 231.183C188.069 231.049 187.765 230.862 187.509 230.622C187.253 230.383 187.053 230.103 186.909 229.782C186.765 229.463 186.693 229.11 186.693 228.727C186.693 228.332 186.781 227.967 186.957 227.631C187.133 227.294 187.378 227.009 187.693 226.774C188.008 226.54 188.384 226.356 188.821 226.223C189.258 226.089 189.738 226.022 190.261 226.022C190.634 226.022 190.999 226.055 191.357 226.118C191.714 226.183 192.031 226.273 192.309 226.391V225.91C192.309 225.355 192.152 224.929 191.837 224.631C191.523 224.332 191.056 224.183 190.437 224.183C189.989 224.183 189.552 224.263 189.125 224.423C188.698 224.582 188.261 224.817 187.813 225.126L187.157 223.767C188.234 223.052 189.397 222.694 190.645 222.694C191.851 222.694 192.786 222.99 193.453 223.582C194.119 224.175 194.453 225.03 194.453 226.15V228.759C194.453 228.982 194.493 229.143 194.573 229.238C194.653 229.334 194.783 229.388 194.965 229.398V231.223C194.603 231.297 194.287 231.334 194.021 231.334C193.615 231.334 193.304 231.244 193.085 231.062C192.866 230.881 192.731 230.642 192.677 230.343L192.629 229.878C192.256 230.369 191.802 230.742 191.269 230.998C190.735 231.255 190.165 231.383 189.557 231.383L189.557 231.383ZM190.165 229.814C190.527 229.814 190.871 229.75 191.197 229.622C191.522 229.494 191.775 229.324 191.957 229.11C192.191 228.929 192.309 228.726 192.309 228.502V227.542C192.053 227.446 191.775 227.369 191.477 227.31C191.178 227.252 190.891 227.223 190.613 227.223C190.059 227.223 189.604 227.348 189.253 227.599C188.901 227.85 188.725 228.166 188.725 228.551C188.725 228.913 188.863 229.215 189.141 229.454C189.418 229.694 189.76 229.814 190.165 229.814V229.814Z" fill="black"/>
<path d="M196.436 219.542H198.58V228.534C198.58 228.844 198.655 229.084 198.805 229.255C198.954 229.425 199.167 229.511 199.444 229.511C199.572 229.511 199.714 229.489 199.868 229.446C200.023 229.404 200.17 229.351 200.309 229.286L200.597 230.918C200.309 231.057 199.973 231.164 199.589 231.238C199.204 231.312 198.857 231.35 198.549 231.35C197.877 231.35 197.356 231.172 196.988 230.814C196.62 230.457 196.436 229.948 196.436 229.286V219.542V219.542Z" fill="black"/>
<path d="M201.509 219.542H203.652V228.534C203.652 228.844 203.728 229.084 203.877 229.255C204.026 229.425 204.239 229.511 204.517 229.511C204.645 229.511 204.786 229.489 204.94 229.446C205.096 229.404 205.242 229.351 205.381 229.286L205.669 230.918C205.381 231.057 205.045 231.164 204.661 231.238C204.276 231.312 203.93 231.35 203.621 231.35C202.949 231.35 202.429 231.172 202.061 230.814C201.692 230.457 201.509 229.948 201.509 229.286V219.542V219.542Z" fill="black"/>
<path d="M210.484 231.383C209.813 231.383 209.204 231.268 208.66 231.038C208.116 230.81 207.652 230.497 207.269 230.103C206.884 229.708 206.588 229.249 206.38 228.727C206.172 228.204 206.068 227.654 206.068 227.078C206.068 226.482 206.169 225.918 206.372 225.391C206.574 224.862 206.868 224.398 207.252 223.998C207.636 223.599 208.103 223.281 208.652 223.047C209.201 222.812 209.817 222.694 210.5 222.694C211.183 222.694 211.793 222.812 212.332 223.047C212.871 223.281 213.329 223.596 213.708 223.99C214.087 224.385 214.375 224.844 214.572 225.366C214.77 225.89 214.868 226.434 214.868 226.998C214.868 227.137 214.865 227.271 214.861 227.398C214.855 227.526 214.842 227.633 214.82 227.719H208.34C208.372 228.049 208.452 228.343 208.58 228.599C208.708 228.855 208.873 229.073 209.076 229.255C209.278 229.436 209.508 229.574 209.764 229.671C210.021 229.767 210.286 229.814 210.565 229.814C210.99 229.814 211.394 229.71 211.773 229.502C212.15 229.294 212.409 229.02 212.548 228.679L214.388 229.191C214.079 229.83 213.585 230.355 212.908 230.767C212.231 231.177 211.423 231.383 210.484 231.383L210.484 231.383ZM212.66 226.326C212.607 225.697 212.375 225.193 211.964 224.814C211.554 224.436 211.055 224.246 210.468 224.246C210.18 224.246 209.91 224.297 209.66 224.398C209.409 224.5 209.188 224.642 208.996 224.822C208.804 225.004 208.646 225.223 208.524 225.478C208.401 225.734 208.329 226.017 208.309 226.326H212.66V226.326Z" fill="black"/>
<path d="M221.141 230.79C220.852 230.918 220.501 231.047 220.085 231.175C219.669 231.303 219.231 231.366 218.772 231.366C218.474 231.366 218.194 231.329 217.933 231.255C217.671 231.18 217.441 231.06 217.244 230.894C217.047 230.729 216.89 230.516 216.772 230.255C216.655 229.993 216.597 229.676 216.597 229.303V224.486H215.492V222.839H216.597V220.118H218.74V222.839H220.501V224.486H218.74V228.582C218.74 228.881 218.818 229.092 218.973 229.215C219.127 229.337 219.316 229.398 219.541 229.398C219.765 229.398 219.983 229.361 220.196 229.286C220.41 229.212 220.581 229.147 220.709 229.095L221.141 230.79V230.79Z" fill="black"/>
<path d="M226.308 231.223V219.862H230.435C231.364 219.862 232.178 220.012 232.876 220.311C233.574 220.609 234.158 221.015 234.628 221.526C235.098 222.038 235.449 222.639 235.684 223.326C235.919 224.015 236.036 224.748 236.036 225.526C236.036 226.391 235.905 227.172 235.643 227.87C235.383 228.569 235.007 229.166 234.516 229.662C234.025 230.158 233.435 230.542 232.748 230.814C232.059 231.086 231.289 231.223 230.435 231.223H226.308V231.223ZM233.812 225.526C233.812 224.982 233.737 224.482 233.588 224.023C233.438 223.564 233.22 223.169 232.932 222.839C232.644 222.508 232.289 222.252 231.868 222.07C231.446 221.89 230.97 221.799 230.436 221.799H228.516V229.286H230.436C230.98 229.286 231.463 229.19 231.884 228.998C232.306 228.807 232.657 228.542 232.94 228.206C233.223 227.87 233.438 227.474 233.588 227.015C233.737 226.556 233.812 226.06 233.812 225.526V225.526Z" fill="black"/>
<path d="M241.444 231.383C240.772 231.383 240.164 231.268 239.62 231.038C239.076 230.81 238.612 230.497 238.228 230.103C237.844 229.708 237.548 229.249 237.34 228.727C237.132 228.204 237.028 227.654 237.028 227.078C237.028 226.482 237.129 225.918 237.332 225.391C237.534 224.862 237.828 224.398 238.212 223.998C238.596 223.599 239.062 223.281 239.612 223.047C240.161 222.812 240.777 222.694 241.46 222.694C242.143 222.694 242.753 222.812 243.292 223.047C243.831 223.281 244.289 223.596 244.668 223.99C245.047 224.385 245.335 224.844 245.532 225.366C245.73 225.89 245.828 226.434 245.828 226.998C245.828 227.137 245.825 227.271 245.82 227.398C245.814 227.526 245.802 227.633 245.78 227.719H239.3C239.332 228.049 239.412 228.343 239.54 228.599C239.668 228.855 239.833 229.073 240.036 229.255C240.238 229.436 240.468 229.574 240.724 229.671C240.98 229.767 241.246 229.814 241.524 229.814C241.95 229.814 242.354 229.71 242.732 229.502C243.11 229.294 243.369 229.02 243.508 228.679L245.348 229.191C245.039 229.83 244.545 230.355 243.868 230.767C243.19 231.177 242.383 231.383 241.444 231.383L241.444 231.383ZM243.62 226.326C243.566 225.697 243.335 225.193 242.924 224.814C242.514 224.436 242.015 224.246 241.428 224.246C241.14 224.246 240.87 224.297 240.62 224.398C240.369 224.5 240.148 224.642 239.956 224.822C239.764 225.004 239.606 225.223 239.484 225.478C239.361 225.734 239.289 226.017 239.268 226.326H243.62V226.326Z" fill="black"/>
<path d="M247.268 231.223V219.862H254.9V221.799H249.476V224.727H253.988V226.518H249.476V231.223H247.268V231.223Z" fill="black"/>
<path d="M256.243 221.671V219.542H258.388V221.671H256.243ZM256.243 231.223V222.839H258.388V231.223H256.243Z" fill="black"/>
<path d="M266.724 231.383C265.859 231.383 265.203 231.105 264.756 230.551C264.308 229.996 264.084 229.175 264.084 228.086V222.839H266.228V227.622C266.228 228.913 266.691 229.559 267.619 229.559C268.035 229.559 268.438 229.434 268.827 229.183C269.217 228.932 269.534 228.551 269.779 228.038V222.839H271.924V228.759C271.924 228.982 271.964 229.143 272.044 229.238C272.123 229.334 272.254 229.388 272.435 229.398V231.223C272.221 231.265 272.044 231.292 271.899 231.303C271.756 231.313 271.625 231.318 271.508 231.318C271.123 231.318 270.811 231.23 270.571 231.055C270.331 230.878 270.19 230.636 270.147 230.326L270.099 229.654C269.725 230.23 269.246 230.662 268.659 230.95C268.072 231.238 267.428 231.383 266.724 231.383V231.383Z" fill="black"/>
<path d="M277.219 231.383C276.516 231.383 275.827 231.27 275.155 231.047C274.483 230.822 273.907 230.502 273.427 230.086L274.228 228.742C274.739 229.105 275.237 229.38 275.724 229.566C276.208 229.753 276.691 229.847 277.171 229.847C277.598 229.847 277.934 229.767 278.179 229.606C278.425 229.446 278.547 229.217 278.547 228.918C278.547 228.62 278.403 228.401 278.115 228.263C277.827 228.124 277.358 227.964 276.707 227.782C276.163 227.633 275.699 227.489 275.316 227.351C274.932 227.212 274.622 227.055 274.387 226.878C274.153 226.702 273.982 226.5 273.875 226.27C273.769 226.041 273.715 225.767 273.715 225.446C273.715 225.019 273.798 224.636 273.963 224.294C274.129 223.953 274.361 223.662 274.659 223.423C274.958 223.183 275.308 222.998 275.707 222.87C276.108 222.742 276.542 222.679 277.011 222.679C277.641 222.679 278.23 222.77 278.78 222.95C279.328 223.132 279.832 223.425 280.291 223.83L279.427 225.126C279 224.807 278.587 224.572 278.188 224.423C277.787 224.274 277.39 224.198 276.995 224.198C276.633 224.198 276.328 224.274 276.083 224.423C275.838 224.572 275.715 224.812 275.715 225.143C275.715 225.292 275.744 225.414 275.803 225.511C275.861 225.607 275.955 225.692 276.083 225.767C276.211 225.841 276.379 225.913 276.587 225.983C276.795 226.052 277.054 226.124 277.363 226.198C277.94 226.348 278.433 226.497 278.843 226.647C279.254 226.796 279.59 226.967 279.852 227.158C280.112 227.351 280.305 227.572 280.427 227.822C280.55 228.073 280.612 228.374 280.612 228.727C280.612 229.548 280.308 230.196 279.699 230.671C279.091 231.146 278.265 231.383 277.219 231.383L277.219 231.383Z" fill="black"/>
<path d="M285.892 231.383C285.22 231.383 284.611 231.268 284.067 231.038C283.524 230.81 283.06 230.497 282.676 230.103C282.291 229.708 281.995 229.249 281.787 228.727C281.579 228.204 281.476 227.654 281.476 227.078C281.476 226.482 281.576 225.918 281.779 225.391C281.981 224.862 282.275 224.398 282.659 223.998C283.043 223.599 283.51 223.281 284.06 223.047C284.608 222.812 285.225 222.694 285.907 222.694C286.59 222.694 287.2 222.812 287.739 223.047C288.278 223.281 288.736 223.596 289.115 223.99C289.494 224.385 289.782 224.844 289.98 225.366C290.177 225.89 290.276 226.434 290.276 226.998C290.276 227.137 290.273 227.271 290.268 227.398C290.262 227.526 290.249 227.633 290.228 227.719H283.747C283.779 228.049 283.859 228.343 283.987 228.599C284.115 228.855 284.28 229.073 284.483 229.255C284.686 229.436 284.915 229.574 285.171 229.671C285.428 229.767 285.694 229.814 285.972 229.814C286.398 229.814 286.801 229.71 287.18 229.502C287.558 229.294 287.817 229.02 287.955 228.679L289.795 229.191C289.486 229.83 288.992 230.355 288.315 230.767C287.638 231.177 286.83 231.383 285.892 231.383L285.892 231.383ZM288.067 226.326C288.014 225.697 287.782 225.193 287.371 224.814C286.961 224.436 286.462 224.246 285.875 224.246C285.587 224.246 285.317 224.297 285.067 224.398C284.816 224.5 284.596 224.642 284.403 224.822C284.211 225.004 284.054 225.223 283.932 225.478C283.809 225.734 283.736 226.017 283.716 226.326H288.067V226.326Z" fill="black"/>
<path d="M296.579 224.694C295.929 224.705 295.348 224.83 294.835 225.07C294.323 225.31 293.955 225.671 293.732 226.15V231.223H291.587V222.839H293.556V224.631C293.704 224.343 293.881 224.084 294.083 223.854C294.286 223.625 294.505 223.425 294.739 223.255C294.974 223.084 295.211 222.953 295.451 222.862C295.691 222.771 295.923 222.727 296.147 222.727H296.411C296.47 222.727 296.525 222.731 296.579 222.742V224.694H296.579Z" fill="black"/>
<path d="M300.946 231.383C300.243 231.383 299.555 231.27 298.883 231.047C298.211 230.822 297.635 230.502 297.154 230.086L297.955 228.742C298.467 229.105 298.965 229.38 299.451 229.566C299.936 229.753 300.419 229.847 300.898 229.847C301.325 229.847 301.661 229.767 301.906 229.606C302.152 229.446 302.275 229.217 302.275 228.918C302.275 228.62 302.131 228.401 301.843 228.263C301.555 228.124 301.085 227.964 300.435 227.782C299.891 227.633 299.427 227.489 299.043 227.351C298.659 227.212 298.35 227.055 298.114 226.878C297.88 226.702 297.709 226.5 297.603 226.27C297.496 226.041 297.443 225.767 297.443 225.446C297.443 225.019 297.525 224.636 297.69 224.294C297.856 223.953 298.088 223.662 298.387 223.423C298.686 223.183 299.035 222.998 299.435 222.87C299.835 222.742 300.27 222.679 300.738 222.679C301.368 222.679 301.957 222.77 302.507 222.95C303.056 223.132 303.56 223.425 304.019 223.83L303.154 225.126C302.728 224.807 302.315 224.572 301.915 224.423C301.515 224.274 301.117 224.198 300.723 224.198C300.36 224.198 300.056 224.274 299.811 224.423C299.566 224.572 299.442 224.812 299.442 225.143C299.442 225.292 299.472 225.414 299.53 225.511C299.589 225.607 299.683 225.692 299.811 225.767C299.939 225.841 300.107 225.913 300.315 225.983C300.523 226.052 300.781 226.124 301.091 226.198C301.667 226.348 302.16 226.497 302.57 226.647C302.982 226.796 303.317 226.967 303.579 227.158C303.84 227.351 304.032 227.572 304.154 227.822C304.277 228.073 304.339 228.374 304.339 228.727C304.339 229.548 304.035 230.196 303.427 230.671C302.819 231.146 301.992 231.383 300.946 231.383L300.946 231.383Z" fill="black"/>
</svg>
