<svg xmlns="http://www.w3.org/2000/svg" width="16" height="16" viewBox="0 0 16 16" fill="none">
  <g clip-path="url(#clip0_141910_73756)">
    <path d="M8 2C11.8574 2 14.9852 5.12698 14.9854 8.98438L14.9756 9.34375C14.9593 9.66511 14.9206 9.9806 14.8623 10.2891H13.3281C13.4302 9.87082 13.4854 9.43403 13.4854 8.98438C13.4852 5.95541 11.029 3.5 8 3.5C4.97114 3.50018 2.5158 5.95552 2.51562 8.98438C2.51562 9.43403 2.57079 9.87081 2.67285 10.2891H1.13867C1.05878 9.86631 1.01562 9.43035 1.01562 8.98438C1.0158 5.12709 4.14272 2.00018 8 2Z" fill="currentColor"/>
    <circle cx="1.99805" cy="11" r="2" fill="currentColor"/>
    <circle cx="13.998" cy="11" r="2" fill="currentColor"/>
  </g>
  <defs>
    <clipPath id="clip0_141910_73756">
      <rect width="16" height="16" fill="white"/>
    </clipPath>
  </defs>
</svg>