<svg xmlns="http://www.w3.org/2000/svg" width="16" height="16" viewBox="0 0 16 16" fill="none">
  <path d="M3 9.25C3.69036 9.25 4.25 8.69036 4.25 8C4.25 7.30964 3.69036 6.75 3 6.75C2.30964 6.75 1.75 7.30964 1.75 8C1.75 8.69036 2.30964 9.25 3 9.25Z" fill="currentColor"/>
  <path d="M8 9.25C8.69036 9.25 9.25 8.69036 9.25 8C9.25 7.30964 8.69036 6.75 8 6.75C7.30964 6.75 6.75 7.30964 6.75 8C6.75 8.69036 7.30964 9.25 8 9.25Z" fill="currentColor"/>
  <path d="M13 9.25C13.6904 9.25 14.25 8.69036 14.25 8C14.25 7.30964 13.6904 6.75 13 6.75C12.3096 6.75 11.75 7.30964 11.75 8C11.75 8.69036 12.3096 9.25 13 9.25Z" fill="currentColor"/>
</svg>