<svg xmlns="http://www.w3.org/2000/svg" width="14" height="14" viewBox="0 0 14 14" fill="none">
  <path d="M4.33182 5.13206H6.99849M4.33182 6.99873H8.59849M4.33182 10.1987V11.4443C4.33182 11.7285 4.33182 11.8706 4.39008 11.9436C4.44074 12.0071 4.51756 12.044 4.59877 12.0439C4.69216 12.0438 4.80311 11.955 5.02503 11.7775L6.29726 10.7597C6.55715 10.5518 6.68713 10.4479 6.83182 10.3739C6.96019 10.3083 7.09683 10.2604 7.23806 10.2314C7.39726 10.1987 7.56366 10.1987 7.89646 10.1987H9.23849C10.1346 10.1987 10.5826 10.1987 10.9249 10.0243C11.226 9.87094 11.4707 9.6262 11.6241 9.32513C11.7985 8.98284 11.7985 8.53484 11.7985 7.63873V4.75873C11.7985 3.86265 11.7985 3.4146 11.6241 3.07235C11.4707 2.77129 11.226 2.52652 10.9249 2.37312C10.5826 2.19873 10.1346 2.19873 9.23849 2.19873H4.75849C3.8624 2.19873 3.41436 2.19873 3.0721 2.37312C2.77104 2.52652 2.52627 2.77129 2.37288 3.07235C2.19849 3.4146 2.19849 3.86265 2.19849 4.75873V8.0654C2.19849 8.5614 2.19849 8.8094 2.253 9.01286C2.40095 9.56497 2.83223 9.99628 3.38437 10.1442C3.58784 10.1987 3.83584 10.1987 4.33182 10.1987Z" stroke="#7084FF" stroke-linecap="round" stroke-linejoin="round"/>
</svg>