<svg width="28" height="28" viewBox="0 0 28 28" fill="none" xmlns="http://www.w3.org/2000/svg">
<path d="M14 28C21.732 28 28 21.732 28 14C28 6.26801 21.732 0 14 0C6.26801 0 0 6.26801 0 14C0 21.732 6.26801 28 14 28Z" fill="#2C374B"/>
<path fill-rule="evenodd" clip-rule="evenodd" d="M21.5807 9.04817C21.4448 8.9181 15.4026 5.40038 14.7049 5.04565C14.3975 4.88603 13.8299 4.84464 13.5048 4.95697C13.1264 5.08113 6.72946 8.81168 6.46933 9.05408C6.33926 9.17823 6.17963 9.38516 6.1146 9.51522C6.00227 9.7458 5.99636 9.90542 5.97862 14.1681L5.9668 18.5785L6.78267 19.0574C7.23199 19.3175 7.63402 19.5363 7.66358 19.5481C7.72861 19.5659 13.5343 10.3193 13.5343 10.1951C13.5343 10.1064 12.2218 10.1242 11.7548 10.2188C11.27 10.3252 10.8443 10.538 10.6019 10.7982C10.5014 10.9046 9.69144 12.1225 8.80462 13.5059C7.9178 14.8894 7.17287 16.0422 7.14331 16.0718C7.11375 16.1073 7.0901 14.8243 7.0901 13.0684V10.0059L7.25564 9.85813C7.53942 9.59799 13.824 5.99751 13.9896 5.99751C14.1492 5.99751 14.2379 6.0448 15.6923 6.88433C16.183 7.16811 17.4955 7.92486 18.6188 8.56337C19.7421 9.20779 20.7176 9.79901 20.7944 9.87587L20.9245 10.0237V16.3848L17.8044 11.5941C17.6623 11.3622 17.514 11.1321 17.434 11.0253L17.4227 11.008L17.4214 11.0088C17.3989 10.98 17.3834 10.9637 17.3772 10.9637C17.3536 10.9696 17.1939 11.2297 16.4786 12.4358C16.3899 12.5836 16.2598 12.8083 16.1948 12.9324L16.0706 13.1571L16.0717 13.159L16.0685 13.161L16.1582 13.3087L16.2243 13.4231C16.2453 13.4591 16.267 13.4927 16.2882 13.5227L16.4952 13.8632C16.5207 13.9193 16.556 13.9827 16.5968 14.0439C16.6914 14.1858 16.8156 14.3868 16.8747 14.4932C16.8896 14.5201 16.9057 14.5444 16.9219 14.5653L19.4792 18.7737L19.1745 18.951C19.0011 19.0492 18.9182 19.093 18.8657 19.0955L15.667 14.1227L15.5858 13.9907L15.2961 14.4637L15.2743 14.4999L14.0253 16.5302L14.0219 16.5327L16.5203 20.4601C16.2027 20.7091 14.0918 22.1568 13.9553 22.1568C13.8016 22.1568 11.0394 20.2576 11.0749 20.1925C11.0875 20.1673 11.9395 18.7218 12.9743 16.9663L12.9759 16.9636C13.8826 15.4253 14.9293 13.6495 15.6745 12.3826C16.5613 10.8809 16.9279 10.2129 16.8688 10.1951C16.8274 10.1774 16.2362 10.1715 15.5622 10.1833L14.3325 10.201L11.4946 14.8775C10.4498 16.6031 9.50565 18.1591 8.97431 19.0347L8.97309 19.0368C8.71149 19.4679 8.55016 19.7338 8.52675 19.7728L8.39668 19.9856L10.596 21.2508C11.808 21.9484 12.9609 22.6047 13.1678 22.717C13.5994 22.9476 14.096 23.0245 14.4448 22.9062C14.6754 22.8353 21.1728 19.0929 21.498 18.8505C21.5985 18.7736 21.7699 18.5431 21.8704 18.3361L22.0478 17.9696L22.036 13.8606L22.0182 9.75171L21.8763 9.47384C21.7995 9.32012 21.6635 9.12502 21.5807 9.04817ZM20.9194 16.4663L20.9245 16.4738V16.463L20.9194 16.4663Z" fill="white"/>
<path d="M21.0442 16.5533L17.3808 10.9346L16.0088 13.1366L19.5511 18.9825L21.1039 18.236L21.0442 16.5533Z" fill="#24A2EE"/>
<path d="M19.2591 19.6188L15.5957 14L14.0195 16.5138L16.9599 21.2211L18.84 20.4578L19.2591 19.6188Z" fill="#24A2EE"/>
<path fill-rule="evenodd" clip-rule="evenodd" d="M7.15275 10.0575L14.0003 6.11246L20.8479 10.0575V17.9428L14.0003 21.8878L8.97356 18.9918L8.30384 20.0851L13.8122 23.2585C13.9286 23.3256 14.072 23.3256 14.1885 23.2585L21.9408 18.7923C22.0576 18.725 22.1296 18.6005 22.1296 18.4657V9.5346C22.1296 9.3998 22.0576 9.27526 21.9408 9.20797L14.1885 4.74173C14.072 4.67463 13.9286 4.67463 13.8122 4.74173L6.05987 9.20797C5.94307 9.27526 5.87109 9.3998 5.87109 9.5346V18.4657C5.87109 18.6005 5.94307 18.725 6.05987 18.7923L7.60939 19.685L8.29967 18.6035L7.15275 17.9428V10.0575Z" fill="#98BCDC"/>
<path d="M16.9783 10.1445L14.3332 10.1822L8.30273 20.0894L10.4303 21.3212L16.9783 10.1445Z" fill="white"/>
<path d="M10.4098 11.0483C11.0139 10.0602 12.7435 10.0643 13.5329 10.1899L7.60688 19.6839C7.40564 19.568 6.90657 19.281 6.52018 19.0595C6.00963 18.7669 5.9253 18.7591 5.87109 18.4882V17.9627C7.13233 16.0696 9.80582 12.0364 10.4098 11.0483Z" fill="white"/>
</svg>
