<svg width="20" height="20" viewBox="0 0 20 20" fill="none" xmlns="http://www.w3.org/2000/svg">
<path d="M9.47433 6.80993C7.92338 9.45293 6.18746 12.1305 4.57653 14.6403L3.51114 14.0265C3.35622 13.9372 3.26074 13.772 3.26074 13.5932V6.40604C3.26074 6.22724 3.35622 6.06205 3.51114 5.9728L5.84726 4.62692C6.93495 3.98708 8.18928 3.26275 8.93826 2.84614L9.75035 2.37828C9.90485 2.28927 10.0951 2.28927 10.2495 2.37828L10.7213 2.65005C11.3141 2.9737 13.1647 4.04336 14.5706 4.8677L16.4888 5.9728C16.6437 6.06205 16.7392 6.22724 16.7392 6.40604V13.5932C16.7392 13.772 16.6437 13.9372 16.4888 14.0265L10.2495 17.621C10.0951 17.71 9.90485 17.71 9.75035 17.621L5.33354 15.0764C6.14121 13.5994 7.04748 12.1734 7.92285 10.7277L10.2754 6.85085L11.2949 6.83615C11.8536 6.82634 12.3437 6.83125 12.378 6.84595C12.4271 6.86065 12.1232 7.41449 11.388 8.65939C10.7703 9.7095 9.90269 11.1814 9.15109 12.4566L9.14901 12.4601L9.14849 12.461C8.55328 13.4708 7.896 14.513 7.39184 15.5213C7.36022 15.5793 9.88503 16.9919 10.0221 16.9919C10.1453 16.9919 12.4506 15.5283 12.6982 15.3235L10.4736 11.8089L11.364 10.073L14.0228 14.2242C14.1084 14.3385 14.2109 14.5491 14.2109 14.5491L14.8014 14.1539C13.7797 12.4874 12.8535 10.9163 11.8319 9.24989C12.1814 8.68538 12.5021 8.10269 12.8488 7.53608L16.1722 12.6513V6.4538L16.1577 6.43737L9.99991 2.88976L3.84006 6.43855L3.83918 6.43934V9.16973C3.83918 10.7352 3.81371 12.3338 3.84006 12.3022L7.18277 7.34587C7.38372 7.13022 7.73661 6.95378 8.13851 6.86555C8.44036 6.80442 9.16816 6.78201 9.47433 6.80993Z" fill="white"/>
</svg>
