<svg width="20" height="20" viewBox="0 0 20 20" fill="none" xmlns="http://www.w3.org/2000/svg">
<path d="M10.008 17.0616C6.30124 17.1455 3.02869 14.0217 2.99151 10.1063C2.95613 6.29883 6.06016 3.04787 9.90961 3.0005C13.6913 2.95492 17.0064 6.04036 17.0136 10.0769C17.0202 13.9749 13.7513 17.1419 10.008 17.0616ZM15.3741 10.9099C15.404 10.5975 15.446 10.3798 15.443 10.1621C15.4154 7.82326 14.3606 6.12072 12.2646 5.08444C11.6691 4.78999 11.0466 4.79659 10.4397 5.05686C9.37408 5.51563 8.9405 6.43196 8.73781 7.50002C8.69583 7.72011 8.85775 7.68713 8.98728 7.67274C9.72311 7.58938 10.4565 7.58638 11.1864 7.73271C11.2535 7.7459 11.3393 7.79747 11.4047 7.70212C11.3183 7.59657 11.1894 7.61037 11.0802 7.57678C10.7813 7.48337 10.5308 7.27675 10.3822 7.00109C10.2336 6.72542 10.1987 6.40257 10.285 6.10153C10.3697 5.80048 10.57 5.54511 10.8422 5.39109C11.1144 5.23708 11.4364 5.19691 11.7381 5.27935C12.3924 5.45926 12.688 5.9648 12.8775 6.5579C13.0304 7.03286 13.0208 7.52581 12.9975 8.01456C12.9861 8.27243 13.0616 8.43075 13.2889 8.57408C13.7697 8.87972 14.2003 9.25779 14.5657 9.69491C14.8655 10.0463 15.0904 10.4421 15.3717 10.9099H15.3741ZM6.65686 14.3282C6.69824 14.3552 6.74261 14.3785 6.78099 14.4091C8.58788 15.834 11.4814 15.8268 13.2679 14.3887C13.53 14.1858 13.7426 13.9259 13.8896 13.6288C14.0365 13.3317 14.1141 13.0051 14.1165 12.6736C14.1399 11.6685 13.6367 10.9111 12.9171 10.2664C12.7186 10.0865 12.634 10.1273 12.5441 10.3594C12.278 11.0396 11.8944 11.6676 11.4107 12.2148C11.3693 12.2616 11.2955 12.3066 11.3507 12.3947C11.4706 12.387 11.503 12.2748 11.5726 12.2118C12.1051 11.7255 12.9135 11.7783 13.3501 12.3318C13.4526 12.4645 13.5267 12.6169 13.5677 12.7796C13.6087 12.9422 13.6157 13.1115 13.5883 13.277C13.5609 13.4424 13.4996 13.6005 13.4084 13.7412C13.3172 13.8819 13.1979 14.0023 13.058 14.0949C12.5915 14.4151 12.0847 14.4073 11.5666 14.2778C11.0388 14.1459 10.5621 13.8988 10.1129 13.5965C9.99777 13.5186 9.90002 13.485 9.75909 13.5612C8.80317 14.0835 7.78009 14.321 6.65446 14.33L6.65686 14.3282ZM7.31652 9.99656C7.23377 10.0979 7.31652 10.1873 7.33751 10.2754C7.50003 10.9165 7.14561 11.5792 6.54112 11.7561C6.38832 11.8046 6.22728 11.8217 6.06771 11.8062C5.90815 11.7908 5.75336 11.7432 5.61269 11.6663C5.47202 11.5894 5.34839 11.4848 5.24925 11.3588C5.15011 11.2329 5.07753 11.0881 5.03588 10.9333C4.87036 10.363 5.05327 9.87063 5.42388 9.43405C5.81009 8.98187 6.29344 8.64664 6.82957 8.38758C7.00168 8.30362 7.07365 8.19507 7.08504 7.99717C7.14501 7.00467 7.39568 6.06795 7.92462 5.21698C7.9576 5.1636 8.02716 5.11083 7.96839 5.03707C7.90123 5.00708 7.84846 5.04367 7.79568 5.06645C5.7735 5.92342 4.40979 8.19387 4.5903 10.3948C4.68865 11.5942 5.45267 12.4493 6.62927 12.6352C7.24036 12.7324 7.83826 12.6352 8.42057 12.4253C8.62326 12.3534 8.60048 12.2742 8.48773 12.1255C8.02122 11.5375 7.66173 10.8721 7.42567 10.1597C7.40528 10.1009 7.40648 10.017 7.31652 9.99836V9.99656ZM10.023 9.19776C9.70392 9.18997 9.39148 9.25174 9.07663 9.28952C8.89013 9.31231 8.85655 9.39507 8.90872 9.57198C9.09642 10.2053 9.44005 10.7462 9.85084 11.2511C9.96179 11.3873 10.0379 11.3459 10.1363 11.2421C10.5885 10.7624 10.8991 10.2029 11.1216 9.58757C11.1774 9.43225 11.1402 9.34769 10.9651 9.31531C10.6526 9.26493 10.3426 9.19177 10.023 9.19956V9.19776Z" fill="white"/>
</svg>
