<svg width="28" height="28" viewBox="0 0 28 28" fill="none" xmlns="http://www.w3.org/2000/svg">
<path d="M14 28C21.732 28 28 21.732 28 14C28 6.26801 21.732 0 14 0C6.26801 0 0 6.26801 0 14C0 21.732 6.26801 28 14 28Z" fill="#13171F"/>
<path d="M14 7.06944C14.289 7.06852 14.5725 7.14854 14.8184 7.30043C15.0642 7.45232 15.2627 7.67003 15.3912 7.92889L19.766 16.6789C19.8847 16.9161 19.9407 17.1796 19.9289 17.4446C19.917 17.7095 19.8376 17.967 19.6982 18.1927C19.5588 18.4183 19.3641 18.6045 19.1324 18.7336C18.9008 18.8628 18.64 18.9306 18.3748 18.9306H9.62519C9.35999 18.9306 9.09919 18.8628 8.86756 18.7336C8.63593 18.6045 8.44117 18.4183 8.30177 18.1927C8.16238 17.967 8.08298 17.7095 8.07111 17.4446C8.05925 17.1796 8.11532 16.9161 8.234 16.6789L12.6088 7.92889C12.7373 7.67003 12.9358 7.45232 13.1816 7.30043C13.4275 7.14854 13.711 7.06852 14 7.06944ZM14 6C13.5126 5.99994 13.0348 6.13562 12.6201 6.39181C12.2054 6.64801 11.8703 7.01462 11.6522 7.45056L7.27737 16.2006C7.07716 16.6008 6.98258 17.0456 7.00264 17.4926C7.02269 17.9397 7.15671 18.3742 7.39195 18.7549C7.6272 19.1356 7.95587 19.4499 8.34673 19.6678C8.7376 19.8857 9.17769 20.0001 9.62519 20H18.3748C18.8223 20.0001 19.2624 19.8857 19.6533 19.6678C20.0441 19.4499 20.3728 19.1356 20.608 18.7549C20.8433 18.3742 20.9773 17.9397 20.9974 17.4926C21.0174 17.0456 20.9228 16.6008 20.7226 16.2006L16.3478 7.45056C16.1297 7.01462 15.7946 6.64801 15.3799 6.39181C14.9652 6.13562 14.4874 5.99994 14 6Z" fill="#70D44B"/>
</svg>
