<svg width="20" height="20" viewBox="0 0 20 20" fill="none" xmlns="http://www.w3.org/2000/svg">
<path d="M7.32202 12.274C7.0218 12.274 6.76828 12.0595 6.71777 11.7631L5.00891 1.7158C4.98127 1.55378 5.01844 1.39175 5.11374 1.25832C5.20905 1.12489 5.35011 1.03625 5.51118 1.00862C5.84475 0.952384 6.16213 1.17731 6.21931 1.51089L7.92818 11.5582C7.95582 11.7202 7.91865 11.8823 7.82334 12.0157C7.72803 12.1491 7.58698 12.2378 7.42591 12.2654C7.39255 12.2711 7.35728 12.274 7.32202 12.274Z" fill="white"/>
<path d="M7.32202 12.274C7.0218 12.274 6.76828 12.0595 6.71777 11.7631L5.00891 1.7158C4.98127 1.55378 5.01844 1.39175 5.11374 1.25832C5.20905 1.12489 5.35011 1.03625 5.51118 1.00862C5.84475 0.952384 6.16213 1.17731 6.21931 1.51089L7.92818 11.5582C7.95582 11.7202 7.91865 11.8823 7.82334 12.0157C7.72803 12.1491 7.58698 12.2378 7.42591 12.2654C7.39255 12.2711 7.35728 12.274 7.32202 12.274Z" fill="white"/>
<path d="M10.1861 7.64062C9.20915 7.64062 8.30087 7.93322 7.54127 8.43549L7.74809 9.65161C8.40094 9.08263 9.25395 8.73666 10.1861 8.73666C12.2361 8.73666 13.904 10.4045 13.904 12.4546C13.904 14.5047 12.2361 16.1726 10.1861 16.1726C8.13599 16.1726 6.46811 14.5047 6.46811 12.4546C6.46811 12.1811 6.49861 11.9152 6.55484 11.6588L6.22507 9.7231C5.68754 10.4999 5.37207 11.4415 5.37207 12.4556C5.37207 15.1099 7.53174 17.2696 10.1861 17.2696C12.8404 17.2696 15 15.1099 15 12.4556C15 9.80125 12.8413 7.64062 10.1861 7.64062Z" fill="white"/>
<path d="M9.92329 15.2626C10.2854 15.2626 10.579 14.969 10.579 14.6069C10.579 14.2447 10.2854 13.9512 9.92329 13.9512C9.56115 13.9512 9.26758 14.2447 9.26758 14.6069C9.26758 14.969 9.56115 15.2626 9.92329 15.2626Z" fill="white"/>
<path d="M11.9711 14.4989C12.3333 14.4989 12.6269 14.2054 12.6269 13.8432C12.6269 13.4811 12.3333 13.1875 11.9711 13.1875C11.609 13.1875 11.3154 13.4811 11.3154 13.8432C11.3154 14.2054 11.609 14.4989 11.9711 14.4989Z" fill="white"/>
<path d="M10.3618 13.0946C10.7239 13.0946 11.0175 12.8011 11.0175 12.4389C11.0175 12.0768 10.7239 11.7832 10.3618 11.7832C9.99963 11.7832 9.70605 12.0768 9.70605 12.4389C9.70605 12.8011 9.99963 13.0946 10.3618 13.0946Z" fill="white"/>
<path d="M8.32564 13.7646C8.68778 13.7646 8.98135 13.471 8.98135 13.1088C8.98135 12.7467 8.68778 12.4531 8.32564 12.4531C7.9635 12.4531 7.66992 12.7467 7.66992 13.1088C7.66992 13.471 7.9635 13.7646 8.32564 13.7646Z" fill="white"/>
<path d="M12.3901 12.4228C12.7522 12.4228 13.0458 12.1292 13.0458 11.767C13.0458 11.4049 12.7522 11.1113 12.3901 11.1113C12.0279 11.1113 11.7344 11.4049 11.7344 11.767C11.7344 12.1292 12.0279 12.4228 12.3901 12.4228Z" fill="white"/>
<path d="M10.7993 10.9247C11.1614 10.9247 11.455 10.6311 11.455 10.269C11.455 9.90686 11.1614 9.61328 10.7993 9.61328C10.4371 9.61328 10.1436 9.90686 10.1436 10.269C10.1436 10.6311 10.4371 10.9247 10.7993 10.9247Z" fill="white"/>
<path d="M8.74361 11.6864C9.10575 11.6864 9.39932 11.3929 9.39932 11.0307C9.39932 10.6686 9.10575 10.375 8.74361 10.375C8.38146 10.375 8.08789 10.6686 8.08789 11.0307C8.08789 11.3929 8.38146 11.6864 8.74361 11.6864Z" fill="white"/>
</svg>
