<svg width="20" height="20" viewBox="0 0 20 20" fill="none" xmlns="http://www.w3.org/2000/svg">
<path d="M7.5725 9.0025L10 6.575L12.4287 9.00375L13.8412 7.59125L10 3.75L6.16 7.59L7.5725 9.0025ZM3.75 10L5.1625 8.5875L6.575 10L5.1625 11.4125L3.75 10ZM7.5725 10.9975L10 13.425L12.4287 10.9962L13.8412 12.4081L10 16.25L6.16 12.41L6.15812 12.4081L7.5725 10.9975ZM13.425 10L14.8375 8.5875L16.25 10L14.8375 11.4125L13.425 10ZM11.4325 9.99875H11.4338V10L10 11.4338L8.56812 10.0025L8.56562 10L8.56812 9.99812L8.81875 9.74688L8.94063 9.625L10 8.56625L11.4331 9.99937L11.4325 9.99875Z" fill="white"/>
</svg>
