<svg width="28" height="28" viewBox="0 0 28 28" fill="none" xmlns="http://www.w3.org/2000/svg">
<path d="M14 28C21.732 28 28 21.732 28 14C28 6.26801 21.732 0 14 0C6.26801 0 0 6.26801 0 14C0 21.732 6.26801 28 14 28Z" fill="black"/>
<path d="M23.7873 11.9594C23.6553 11.3184 23.4602 10.6921 23.2049 10.0896C22.9532 9.49613 22.6453 8.92811 22.2854 8.39334C21.9285 7.86501 21.5214 7.37239 21.0697 6.92236C20.6194 6.47067 20.1266 6.06355 19.5979 5.70669C19.0624 5.34857 18.4948 5.04077 17.9025 4.78723C16.6776 4.26772 15.3607 4 14.0302 4C12.6997 4 11.3828 4.26772 10.158 4.78723C8.97354 5.28681 7.89776 6.01231 6.99072 6.92319C6.53911 7.37296 6.132 7.8653 5.77505 8.39334C5.41688 8.92918 5.10908 9.49702 4.85559 10.0896C4.33608 11.3145 4.06836 12.6314 4.06836 13.9619C4.06836 15.2924 4.33608 16.6093 4.85559 17.8341C5.10089 18.4265 5.41795 18.9881 5.77505 19.5296C6.13198 20.0581 6.53909 20.551 6.99072 21.0014C7.44101 21.4531 7.93391 21.8602 8.46253 22.2171C8.99319 22.5742 9.56556 22.8812 10.158 23.1365C11.3828 23.656 12.6997 23.9237 14.0302 23.9237C15.3607 23.9237 16.6776 23.656 17.9025 23.1365C18.4949 22.8912 19.0564 22.5742 19.5979 22.2171C20.1266 21.8602 20.6194 21.4531 21.0697 21.0014C21.5214 20.5511 21.9285 20.0582 22.2854 19.5296C22.6425 18.9989 22.9496 18.4265 23.2049 17.8341C23.9909 15.9804 24.194 13.9314 23.7873 11.9594ZM14.0394 22.6768C9.22764 22.6768 5.33535 18.7736 5.33535 13.9719C5.33535 9.17013 9.23849 5.26699 14.0394 5.26699C18.8412 5.26699 22.7443 9.17013 22.7443 13.9719C22.7443 18.7736 18.842 22.6768 14.0394 22.6768Z" fill="white"/>
<path d="M14.1937 21.9208H14.429C14.4698 21.9208 14.5099 21.9208 14.5508 21.91H14.5616C14.6025 21.91 14.6325 21.91 14.6734 21.9H14.7043C14.7352 21.9 14.766 21.9 14.7961 21.89H14.8269C14.8578 21.89 14.8887 21.8799 14.9296 21.8799H14.9496C14.9905 21.8799 15.0314 21.8691 15.0722 21.8691C15.1131 21.8691 15.144 21.8591 15.1849 21.8491H15.2049C15.2358 21.8491 15.2666 21.8391 15.2967 21.8391H15.3175C15.3584 21.8282 15.3893 21.8282 15.4302 21.8182C15.5111 21.8082 15.5929 21.7873 15.6646 21.7673H15.6855C15.7155 21.7573 15.7564 21.7573 15.7873 21.7464H15.7973C15.8791 21.7264 15.9508 21.7056 16.0326 21.6855C15.2673 21.7098 14.5021 21.6378 13.7548 21.4711C12.6301 21.2258 11.5579 20.7869 10.6485 20.0302C9.93148 19.4335 9.35608 18.6849 8.96387 17.8386C8.57166 16.9923 8.37246 16.0694 8.38066 15.1366C8.38802 13.7451 8.88316 12.4002 9.77989 11.3361C10.9447 9.95691 12.6 9.23101 14.2955 9.19013H14.5307V7.83179H14.2654C13.7496 7.84124 13.2361 7.90273 12.7327 8.01535C12.2261 8.1299 11.733 8.29771 11.2617 8.51596C10.7811 8.74124 10.3314 9.01658 9.91255 9.33364C9.47973 9.66265 9.08561 10.0397 8.73777 10.4575C8.41025 10.8442 8.12599 11.2656 7.89005 11.7141C7.65664 12.1464 7.4682 12.6016 7.32769 13.0724C7.18987 13.536 7.09765 14.0119 7.05236 14.4933L7.02148 14.9422V15.2075C7.0315 15.729 7.09324 16.2397 7.20504 16.7403C7.31768 17.2517 7.49123 17.7415 7.70566 18.2121C7.96181 18.7736 8.42154 19.6013 9.10572 20.2246C10.5027 21.3258 12.2304 21.9235 14.0093 21.9208H14.1937Z" fill="white"/>
<path d="M16.4205 20.6125C15.9166 20.5945 15.4146 20.5398 14.9187 20.4489C12.8144 20.071 11.0055 18.7835 10.3422 16.8428C9.53452 14.4824 10.771 11.9284 13.1206 11.1525C13.5684 11.0024 14.0376 10.9263 14.5098 10.9272C15.1131 10.9272 15.7155 11.0498 16.2678 11.2743L16.8394 10.0586C16.6675 9.9897 16.4939 9.92516 16.3187 9.86505C15.7334 9.68132 15.1233 9.58819 14.5098 9.58887C13.8952 9.59002 13.2847 9.69003 12.7018 9.88507C11.9578 10.1304 11.2726 10.527 10.6893 11.0498C10.4079 11.3005 10.1514 11.5776 9.92334 11.8775C9.69785 12.174 9.50274 12.4924 9.34095 12.8279C9.01151 13.5024 8.81707 14.2348 8.76858 14.9839C8.71768 15.7598 8.81948 16.5358 9.07479 17.2717C9.33493 18.0287 9.75301 18.7218 10.3013 19.305C10.8019 19.8465 11.3843 20.2554 12.0885 20.6333C12.8244 21.0213 13.7339 21.2257 14.6834 21.3592C15.2966 21.4402 16.1143 21.461 16.5941 21.461C17.0129 21.3075 17.1865 21.2357 17.4117 21.144C17.6061 21.0522 17.7997 20.9604 17.9941 20.8478C18.1885 20.7351 18.2194 20.7143 18.5456 20.5007C18.5747 20.4826 18.6021 20.4619 18.6274 20.4389C17.5035 20.6333 17.2173 20.6225 16.4205 20.6125Z" fill="white"/>
<path d="M18.935 19.0908C18.618 19.1108 18.1683 19.1409 17.6576 19.1409C16.7482 19.1409 15.6343 19.0599 14.6848 18.7429C13.213 18.2531 11.8238 16.9966 11.8238 15.443C11.8234 15.0753 11.8956 14.7111 12.0362 14.3713C12.1767 14.0316 12.3829 13.7228 12.6429 13.4628C12.9029 13.2028 13.2117 12.9967 13.5514 12.8561C13.8912 12.7155 14.2554 12.6434 14.6231 12.6437C15.6752 12.6437 16.5846 13.2261 17.0652 14.0738L18.2809 13.4714C18.0903 13.1125 17.8454 12.7852 17.555 12.501C17.1702 12.1155 16.7131 11.8097 16.2099 11.601C15.7067 11.3923 15.1674 11.2849 14.6226 11.2849C14.0779 11.2849 13.5385 11.3923 13.0354 11.601C12.5322 11.8097 12.0751 12.1155 11.6903 12.501C11.3049 12.8858 10.9992 13.3429 10.7906 13.846C10.582 14.3491 10.4746 14.8883 10.4746 15.433C10.4773 16.0037 10.5995 16.5676 10.8334 17.0883C11.047 17.5581 11.344 17.9978 11.722 18.4066C12.3861 19.1208 13.2948 19.6932 14.2659 20.0203C15.1954 20.3265 16.5646 20.4391 17.8929 20.3473C18.26 20.3165 18.5362 20.2856 19.006 20.1838C19.4593 19.8261 19.8707 19.4183 20.2325 18.9681C19.9154 18.999 19.333 19.0599 18.935 19.0908Z" fill="white"/>
</svg>
