<svg width="20" height="20" viewBox="0 0 20 20" fill="none" xmlns="http://www.w3.org/2000/svg">
<path d="M16.8561 8.59291C16.7633 8.14252 16.6263 7.70242 16.4468 7.27903C16.27 6.86201 16.0537 6.46288 15.8007 6.08711C15.55 5.71586 15.2639 5.36971 14.9465 5.05348C14.6301 4.73609 14.2838 4.45002 13.9123 4.19926C13.536 3.94761 13.1372 3.73133 12.721 3.55317C11.8603 3.18812 10.9349 3 10 3C9.06509 3 8.13973 3.18812 7.27903 3.55317C6.44677 3.90422 5.69084 4.41401 5.05348 5.05407C4.73615 5.37011 4.45008 5.71606 4.19926 6.08711C3.94758 6.46363 3.73129 6.86264 3.55317 7.27903C3.18812 8.13973 3 9.06509 3 10C3 10.9349 3.18812 11.8603 3.55317 12.721C3.72554 13.1372 3.94833 13.5318 4.19926 13.9123C4.45006 14.2837 4.73613 14.6301 5.05348 14.9465C5.36989 15.2639 5.71624 15.55 6.08769 15.8007C6.46057 16.0517 6.86277 16.2674 7.27903 16.4468C8.13973 16.8119 9.06509 17 10 17C10.9349 17 11.8603 16.8119 12.721 16.4468C13.1372 16.2745 13.5318 16.0517 13.9123 15.8007C14.2838 15.55 14.6301 15.2639 14.9465 14.9465C15.2639 14.6301 15.55 14.2838 15.8007 13.9123C16.0517 13.5394 16.2674 13.1372 16.4468 12.721C16.9991 11.4184 17.1419 9.97856 16.8561 8.59291ZM10.0064 16.1238C6.62532 16.1238 3.89028 13.3811 3.89028 10.007C3.89028 6.63294 6.63294 3.89028 10.0064 3.89028C13.3805 3.89028 16.1232 6.63294 16.1232 10.007C16.1232 13.3811 13.3811 16.1238 10.0064 16.1238Z" fill="white"/>
<path d="M10.1149 15.5927H10.2803C10.309 15.5927 10.3371 15.5927 10.3659 15.5851H10.3735C10.4022 15.5851 10.4233 15.5851 10.452 15.578H10.4737C10.4954 15.578 10.5171 15.578 10.5382 15.571H10.5599C10.5816 15.571 10.6033 15.564 10.632 15.564H10.6461C10.6748 15.564 10.7036 15.5563 10.7323 15.5563C10.761 15.5563 10.7827 15.5493 10.8114 15.5423H10.8255C10.8472 15.5423 10.8689 15.5352 10.89 15.5352H10.9047C10.9334 15.5276 10.9551 15.5276 10.9838 15.5206C11.0407 15.5135 11.0981 15.4989 11.1486 15.4848H11.1632C11.1843 15.4778 11.2131 15.4778 11.2347 15.4702H11.2418C11.2992 15.4561 11.3497 15.4414 11.4071 15.4274C10.8694 15.4444 10.3316 15.3938 9.80655 15.2767C9.01623 15.1043 8.26285 14.7959 7.62379 14.2642C7.11999 13.8449 6.71566 13.3189 6.44007 12.7242C6.16447 12.1295 6.0245 11.481 6.03026 10.8256C6.03543 9.84778 6.38336 8.90276 7.01347 8.15504C7.83192 7.1859 8.99512 6.67583 10.1865 6.64711H10.3518V5.69263H10.1654C9.80292 5.69927 9.44209 5.74248 9.08834 5.82161C8.73236 5.90211 8.38589 6.02002 8.05471 6.17338C7.71701 6.33168 7.401 6.52516 7.10669 6.74795C6.80255 6.97914 6.52562 7.24407 6.28119 7.53768C6.05105 7.80941 5.85131 8.10548 5.68552 8.42063C5.52151 8.72444 5.3891 9.04427 5.29036 9.37511C5.19351 9.70083 5.12871 10.0352 5.09689 10.3736L5.0752 10.689V10.8754C5.08223 11.2418 5.12562 11.6007 5.20418 11.9524C5.28333 12.3118 5.40528 12.656 5.55595 12.9866C5.73594 13.3812 6.05899 13.9628 6.53974 14.4008C7.52137 15.1746 8.7354 15.5946 9.98536 15.5927H10.1149Z" fill="white"/>
<path d="M11.6797 14.6733C11.3256 14.6606 10.9729 14.6222 10.6244 14.5584C9.1458 14.2928 7.87472 13.3882 7.40862 12.0244C6.8411 10.3658 7.70998 8.5712 9.36097 8.02595C9.6756 7.92052 10.0053 7.86705 10.3371 7.86766C10.761 7.86766 11.1843 7.95384 11.5724 8.11155L11.9741 7.25733C11.8533 7.20891 11.7313 7.16355 11.6082 7.12131C11.1969 6.99221 10.7682 6.92677 10.3371 6.92725C9.90522 6.92806 9.47625 6.99833 9.06665 7.13538C8.54389 7.3078 8.06244 7.58646 7.65252 7.95384C7.45483 8.12994 7.27459 8.32471 7.11431 8.53544C6.95586 8.74376 6.81876 8.96747 6.70508 9.20322C6.47358 9.67718 6.33696 10.1918 6.30288 10.7182C6.26712 11.2634 6.33865 11.8087 6.51805 12.3258C6.70085 12.8577 6.99462 13.3448 7.3799 13.7546C7.73167 14.1351 8.1409 14.4224 8.63573 14.688C9.15283 14.9606 9.79189 15.1042 10.4591 15.198C10.89 15.2549 11.4646 15.2696 11.8017 15.2696C12.096 15.1617 12.218 15.1113 12.3762 15.0468C12.5129 14.9823 12.6489 14.9178 12.7855 14.8386C12.9221 14.7595 12.9438 14.7448 13.173 14.5947C13.1934 14.582 13.2127 14.5675 13.2305 14.5513C12.4407 14.688 12.2396 14.6803 11.6797 14.6733Z" fill="white"/>
<path d="M13.4459 13.6039C13.2232 13.618 12.9071 13.6391 12.5483 13.6391C11.9093 13.6391 11.1266 13.5822 10.4594 13.3594C9.42518 13.0153 8.44901 12.1323 8.44901 11.0407C8.44877 10.7823 8.49949 10.5264 8.59826 10.2877C8.69703 10.0489 8.84191 9.83198 9.02461 9.64928C9.20731 9.46658 9.42424 9.3217 9.66299 9.22294C9.90174 9.12417 10.1576 9.07345 10.416 9.07368C11.1553 9.07368 11.7944 9.48291 12.1321 10.0786L12.9863 9.65528C12.8524 9.40311 12.6803 9.17312 12.4762 8.97342C12.2058 8.70254 11.8846 8.48763 11.5311 8.341C11.1775 8.19437 10.7985 8.1189 10.4157 8.1189C10.0329 8.1189 9.65394 8.19437 9.30037 8.341C8.94681 8.48763 8.62562 8.70254 8.3552 8.97342C8.0844 9.24384 7.86957 9.56498 7.723 9.9185C7.57642 10.272 7.50098 10.6509 7.50098 11.0336C7.50289 11.4347 7.58877 11.831 7.75308 12.1968C7.90317 12.5269 8.11189 12.8359 8.37748 13.1232C8.84416 13.625 9.48263 14.0272 10.1651 14.2571C10.8182 14.4722 11.7803 14.5514 12.7137 14.4869C12.9716 14.4652 13.1657 14.4435 13.4958 14.372C13.8143 14.1206 14.1034 13.834 14.3576 13.5177C14.1348 13.5394 13.7256 13.5822 13.4459 13.6039Z" fill="white"/>
</svg>
