<svg width="28" height="28" viewBox="0 0 28 28" fill="none" xmlns="http://www.w3.org/2000/svg">
<circle cx="14" cy="14" r="14" fill="white"/>
<path d="M18.5569 25H9.44315L3 18.5569V9.44315L9.44315 3H18.5558L25 9.44315V18.5558L18.5569 25ZM10.0135 23.625H17.9875L23.626 17.9865V10.0135L17.9865 4.375H10.0135L4.375 10.0135V17.9875L10.0135 23.625V23.625Z" fill="#FFC629"/>
<path d="M20.4635 12.7533V16.6777L17.2032 19.938L16.4312 18.0731L18.5986 15.9057V15.3261H17.2236V15.3363L15.3353 17.2246H12.6647L10.7764 15.3363V12.6647L12.6647 10.7764H15.3353L17.2236 12.6647V12.682H18.5986V12.0954L16.4312 9.92797L17.2032 8.06306L18.2268 9.08667C18.179 9.23436 18.1515 9.39223 18.1515 9.55723C18.1515 10.3955 18.8308 11.0748 19.6691 11.0748C20.5073 11.0748 21.1867 10.3955 21.1867 9.55723C21.1867 8.71899 20.5073 8.03964 19.6691 8.03964C19.5051 8.03964 19.3472 8.06612 19.1985 8.11501L17.246 6.16251H10.7529L6.16147 10.753V17.246L10.7529 21.8375H17.246L21.8375 17.246V12.7533H20.4635V12.7533ZM12.8389 18.5986H15.1601L15.9321 20.4635H12.0668L12.8389 18.5986ZM11.5688 18.072L10.7967 19.9369L8.06304 17.2032L9.92795 16.4312L11.5688 18.072ZM9.40138 12.8389V15.1601L7.53647 15.9321V12.0669L9.40138 12.8389V12.8389ZM9.92693 11.5688L8.06202 10.7968L10.7957 8.06306L11.5678 9.92797L9.92693 11.5688ZM12.0668 7.53649H15.9331L15.1611 9.40139H12.8389L12.0668 7.53649V7.53649Z" fill="#80BC00"/>
</svg>
