<svg width="16" height="16" viewBox="0 0 16 16" fill="none" xmlns="http://www.w3.org/2000/svg">
<circle cx="8" cy="8" r="8" fill="#F5F6FA"/>
<path d="M7.26005 9.14999C7.31725 9.19999 7.37444 9.22499 7.46023 9.22499C7.54602 9.22499 7.60322 9.19999 7.66041 9.14999C7.7748 9.04999 7.7748 8.89999 7.66041 8.79999C7.43164 8.59999 7.28865 8.32499 7.28865 8.02499C7.28865 7.72499 7.43164 7.44999 7.66041 7.24999L9.29044 5.825C9.51921 5.625 9.83378 5.5 10.1769 5.5C10.5201 5.5 10.8347 5.625 11.0634 5.825C11.5496 6.25 11.5496 6.94999 11.0634 7.37499L10.3199 8.02499C10.2055 8.12499 10.2055 8.27499 10.3199 8.37499C10.4343 8.47499 10.6059 8.47499 10.7203 8.37499L11.4638 7.72499C12.1787 7.09999 12.1787 6.1 11.4638 5.475C11.1206 5.175 10.6631 5 10.1769 5C9.6908 5 9.23324 5.175 8.89008 5.475L7.26005 6.89999C6.91689 7.19999 6.71671 7.59999 6.71671 8.02499C6.71671 8.44999 6.91689 8.84999 7.26005 9.14999Z" fill="#B4BDCC"/>
<path d="M4.54334 11.525C4.88651 11.85 5.37265 12 5.83021 12C6.28776 12 6.77391 11.825 7.11707 11.525L8.7471 10.1C9.09026 9.80001 9.29044 9.40001 9.29044 8.97501C9.29044 8.55001 9.09026 8.15001 8.7471 7.85001C8.63271 7.75001 8.46113 7.75001 8.34674 7.85001C8.23235 7.95001 8.23235 8.10001 8.34674 8.20001C8.57551 8.40001 8.7185 8.67501 8.7185 8.97501C8.7185 9.27501 8.57551 9.55001 8.34674 9.75001L6.71671 11.175C6.23056 11.6 5.42985 11.6 4.9437 11.175C4.71492 10.975 4.57194 10.7 4.57194 10.4C4.57194 10.1 4.71492 9.82501 4.9437 9.62501L5.68722 8.97501C5.80161 8.87501 5.80161 8.72501 5.68722 8.62501C5.57283 8.52501 5.40125 8.52501 5.28686 8.62501L4.54334 9.27501C4.20018 9.57501 4 9.97501 4 10.4C4 10.825 4.20018 11.225 4.54334 11.525Z" fill="#B4BDCC"/>
</svg>
