<svg width="28" height="28" viewBox="0 0 28 28" fill="none" xmlns="http://www.w3.org/2000/svg">
<path d="M0 14C0 6.26801 6.26801 0 14 0C21.732 0 28 6.26801 28 14C28 21.732 21.732 28 14 28C6.26801 28 0 21.732 0 14Z" fill="#2D2925"/>
<path d="M11.7312 8.12475C8.1986 9.48745 7.87501 12.9773 6.86208 14.6072C5.83715 16.2564 3.48908 17.1663 3.81018 18.0067C4.13127 18.8472 6.48213 17.9445 8.342 18.4808C10.1798 19.0106 12.7441 21.3867 16.2766 20.024C18.0762 19.3299 19.3794 17.9011 19.9785 16.2087C20.043 16.027 19.9225 15.8328 19.7314 15.8148C19.6125 15.8036 19.4985 15.8661 19.4449 15.9732C18.9029 17.0581 17.9731 17.9515 16.7562 18.4208C14.7474 19.1956 12.5494 18.5873 11.1995 17.0615C10.8929 16.715 10.6306 16.3205 10.4236 15.8846C10.3667 15.7646 10.3126 15.6427 10.2646 15.5166C10.2164 15.3904 10.1754 15.2634 10.1377 15.1359C11.1995 14.6386 12.4247 14.1118 13.8137 13.5761C15.1756 13.0508 16.415 12.6246 17.5186 12.2838C18.2652 12.0533 18.9495 11.8616 19.5673 11.7049C19.6119 11.6937 19.6561 11.6824 19.6998 11.6715C19.7933 11.6482 19.8892 11.6984 19.9239 11.7887L19.9245 11.7904C19.9448 11.8439 19.9623 11.8977 19.9814 11.9516C20.1036 12.2989 20.195 12.6499 20.2556 13.0017C20.2821 13.1556 20.4495 13.2394 20.5867 13.1654C21.0938 12.8918 21.5578 12.6249 21.9723 12.3681C23.517 11.4122 24.3734 10.6015 24.1976 10.142C24.0222 9.68228 22.846 9.65592 21.0615 9.98391C20.4943 10.0882 19.8656 10.2284 19.188 10.4019C19.0708 10.4319 18.9522 10.463 18.8323 10.495C18.2621 10.6469 17.6607 10.821 17.0343 11.0158C15.8697 11.3783 14.6201 11.8125 13.3302 12.3101C12.1234 12.7757 10.9796 13.2585 9.93072 13.7395C9.91788 11.6979 11.1462 9.76778 13.155 8.99294C14.3716 8.52366 15.6576 8.56207 16.7829 9.00415C16.894 9.04788 17.0204 9.0176 17.1016 8.92931C17.2315 8.78773 17.1916 8.56235 17.0228 8.4704C15.4506 7.61622 13.5308 7.43064 11.7312 8.12475Z" fill="#FAF1E4"/>
</svg>
