<svg width="32" height="32" viewBox="0 0 32 32" fill="none" xmlns="http://www.w3.org/2000/svg">
<path d="M16 32C24.8366 32 32 24.8366 32 16C32 7.16344 24.8366 0 16 0C7.16344 0 0 7.16344 0 16C0 24.8366 7.16344 32 16 32Z" fill="#0062F9"/>
<path d="M15.0944 7.04277C15.5862 6.79564 16.3346 6.79564 16.8264 7.04277L21.8449 9.56448C22.1449 9.71523 22.3079 9.94082 22.334 10.1729L22.3377 10.1729V22.9042L22.3369 22.9042C22.3245 23.1511 22.1604 23.3946 21.8449 23.5546L16.8264 26.099C16.3346 26.3483 15.5862 26.3483 15.0944 26.099L10.076 23.5546C9.75523 23.392 9.60131 23.1399 9.59369 22.889L9.59439 22.9042H9.59307V10.1729L9.59509 10.1729C9.61422 9.93811 9.76959 9.71839 10.0759 9.56448L15.0944 7.04277ZM10.355 17.2666V22.8494L15.0944 25.2396C15.368 25.3799 15.6523 25.5167 15.9296 25.5271L15.9604 25.5277C16.2116 25.5285 16.4562 25.4193 16.7029 25.3035L16.7918 25.2617L21.5758 22.8291V17.316L16.8826 19.6687C16.3988 19.9112 15.6672 19.9157 15.1742 19.6821L15.1466 19.6687L10.355 17.2666ZM8.79145 22.639C8.79145 23.1235 8.8509 23.4419 8.96892 23.6662C9.06675 23.8521 9.21353 23.9942 9.48154 24.1671L9.49684 24.1769C9.55565 24.2145 9.62044 24.2538 9.69931 24.3001L9.79232 24.354L10.0779 24.5173L9.66829 25.1587L9.34863 24.9759L9.2949 24.9446C9.20247 24.8906 9.12587 24.8442 9.05441 24.7985C8.29058 24.3108 8.00571 23.779 8.00009 22.6727L8 22.639H8.79145ZM16.3811 13.8898V19.0547C16.4289 19.0408 16.4733 19.024 16.5128 19.0042L21.5432 16.4824C21.5485 16.4798 21.5535 16.4772 21.5583 16.4746L21.5625 16.4722L21.5546 16.468L21.5432 16.462L16.5128 13.9403C16.4733 13.9205 16.4289 13.9037 16.3811 13.8898ZM15.619 13.8988C15.5822 13.9107 15.5478 13.9246 15.5163 13.9403L10.486 16.462C10.4807 16.4647 10.4757 16.4673 10.4709 16.4699L10.4666 16.4722L10.4745 16.4765L10.486 16.4824L15.5163 19.0042C15.5478 19.0199 15.5822 19.0338 15.619 19.0457V13.8988ZM10.355 11.0541V15.6777L14.9612 13.3686L10.355 11.0541ZM21.5758 11.0491L17.0135 13.3415L21.5758 15.6285V11.0491ZM16.4575 7.70728C16.1965 7.57614 15.7243 7.57614 15.4633 7.70728L10.4448 10.229C10.4396 10.2316 10.4345 10.2343 10.4298 10.2368L10.4255 10.2392L10.4334 10.2435L10.4448 10.2494L15.4633 12.7711C15.7243 12.9022 16.1965 12.9022 16.4575 12.7711L21.4759 10.2494C21.4812 10.2467 21.4862 10.2441 21.491 10.2415L21.4953 10.2392L21.4874 10.2349L21.4759 10.229L16.4575 7.70728ZM22.3317 7.98468L22.6514 8.16754L22.7051 8.19879C22.7975 8.25283 22.8741 8.29926 22.9456 8.34489C23.7094 8.83266 23.9943 9.36445 23.9999 10.4707L24 10.5044H23.2085C23.2085 10.02 23.1491 9.70154 23.0311 9.47722C22.9333 9.29129 22.7865 9.1492 22.5185 8.9763L22.5032 8.96648C22.4443 8.92892 22.3796 8.88957 22.3007 8.84333L22.2077 8.78938L21.9221 8.62612L22.3317 7.98468Z" fill="white"/>
</svg>
