<svg width="20" height="20" viewBox="0 0 20 20" fill="none" xmlns="http://www.w3.org/2000/svg">
<path fill-rule="evenodd" clip-rule="evenodd" d="M10.8 7.85427L13.2 6.37688V9.33166L10.8 7.85427ZM13.2 14.1859L10 16.1558L6.8 14.1859V10.7387L10 12.7085L13.2 10.7387V14.1859ZM6.8 6.37688L9.2 7.85427L6.8 9.33166V6.37688ZM10.4 8.55779L12.8 10.0352L10.4 11.5126V8.55779ZM9.6 11.5126L7.2 10.0352L9.6 8.55779V11.5126ZM12.8 5.67337L10 7.36181L7.2 5.67337L10 3.91457L12.8 5.67337ZM6 5.39196V14.608L10 17L14 14.608V5.39196L10 3L6 5.39196Z" fill="white"/>
</svg>
