<svg width="28" height="28" viewBox="0 0 28 28" fill="none" xmlns="http://www.w3.org/2000/svg">
<path d="M28 14C28 6.26801 21.732 0 14 0C6.26801 0 0 6.26801 0 14C0 21.732 6.26801 28 14 28C21.732 28 28 21.732 28 14Z" fill="#04795B"/>
<path d="M10.1963 15.268C10.7477 15.268 11.2567 15.0843 11.6667 14.7663L8.30174 11.4026C7.98361 11.8054 7.79984 12.3142 7.79984 12.8724C7.79275 14.1939 8.86729 15.268 10.1963 15.268Z" fill="#EFEFEF"/>
<path d="M20.2057 12.8654C20.2057 12.3142 20.0219 11.8054 19.7038 11.3955L16.3389 14.7592C16.7418 15.0772 17.2508 15.2609 17.8092 15.2609C19.1312 15.268 20.2057 14.1939 20.2057 12.8654Z" fill="#EFEFEF"/>
<path d="M21.9026 9.21191L20.411 10.703C20.9058 11.2966 21.2027 12.0457 21.2027 12.8795C21.2027 14.7521 19.6828 16.2715 17.8095 16.2715C16.9824 16.2715 16.226 15.9747 15.6322 15.48L13.9992 17.1124L12.3662 15.48C11.7724 15.9747 11.023 16.2715 10.1889 16.2715C8.31553 16.2715 6.79569 14.7521 6.79569 12.8795C6.79569 12.0527 7.09259 11.2966 7.58744 10.703L6.82393 9.93977L6.09583 9.21191C5.24753 10.6111 4.75977 12.2435 4.75977 13.996C4.75977 19.0981 8.89523 23.225 13.9921 23.225C19.089 23.225 23.2245 19.0911 23.2245 13.996C23.2386 12.2364 22.7509 10.604 21.9026 9.21191Z" fill="#EFEFEF"/>
<path d="M20.6801 7.62199C19.0047 5.86242 16.6294 4.76001 13.9997 4.76001C11.37 4.76001 9.00177 5.86242 7.31929 7.62199C7.0931 7.86227 6.87395 8.11665 6.66895 8.37813L13.9926 15.6992L21.3164 8.37108C21.1325 8.11665 20.9134 7.85518 20.6801 7.62199ZM13.9997 5.96135C16.1629 5.96135 18.1706 6.79519 19.6763 8.31452L13.9997 13.989L8.32314 8.31452C9.83593 6.79519 11.8365 5.96135 13.9997 5.96135Z" fill="#EFEFEF"/>
</svg>
