<svg width="20" height="20" viewBox="0 0 20 20" fill="none" xmlns="http://www.w3.org/2000/svg">
<path d="M9.97644 10.1716C9.93272 10.1582 9.87746 10.1447 9.81472 10.1294C9.64727 10.0887 9.42658 10.035 9.23019 9.93371C7.91749 9.26075 6.61251 8.57309 5.30732 7.88532L4.68556 7.55775C4.15795 7.28038 4.15598 6.85938 4.68901 6.53511L4.92947 6.38888C6.33044 5.53684 7.73161 4.68468 9.14333 3.84624C9.74447 3.4889 10.3772 3.48841 11.0065 3.79688C11.2459 3.91405 11.4811 4.03927 11.7165 4.16463C11.8004 4.2093 11.8843 4.25399 11.9684 4.29833C13.1467 4.91889 14.3243 5.53995 15.5013 6.16149C15.5155 6.1691 15.5302 6.17618 15.5448 6.18326C15.5672 6.19408 15.5897 6.20493 15.6108 6.21776C16.0289 6.47243 16.0501 6.86431 15.6444 7.1407C15.4285 7.28812 15.203 7.4212 14.9774 7.55429C14.8844 7.60919 14.7911 7.66422 14.6988 7.72013C14.356 7.9276 14.0129 8.13451 13.6698 8.34142L13.6688 8.34197C12.8508 8.83529 12.0326 9.32867 11.2192 9.82958C10.8787 10.0388 10.5189 10.144 9.97644 10.1716Z" fill="white"/>
<path d="M9.80665 16.119C9.61667 16.0708 9.42673 16.0226 9.25684 15.9353C7.97776 15.2778 6.70609 14.6066 5.43377 13.935L4.73492 13.5663C4.64721 13.5217 4.56449 13.4679 4.48814 13.4059C4.24432 13.2035 4.20681 12.8911 4.45507 12.703C4.8035 12.4382 5.18656 12.2165 5.56688 11.9963L5.59765 11.9785C5.65588 11.9445 5.78421 11.9997 5.86515 12.0422C6.28858 12.2626 6.71019 12.4854 7.13164 12.7082C7.74182 13.0307 8.35165 13.353 8.96614 13.6674C9.75336 14.0702 10.5657 14.0662 11.3298 13.6349C12.1806 13.156 13.0133 12.6449 13.8467 12.1333C14.044 12.0122 14.2416 11.8909 14.4391 11.7702C14.5704 11.6908 14.6657 11.6878 14.797 11.7668C14.9488 11.8576 15.1066 11.9384 15.2647 12.0194C15.3558 12.0661 15.4471 12.1129 15.5373 12.1616C16.0713 12.4513 16.0802 12.8684 15.5541 13.1852C14.2458 13.9749 12.9364 14.7646 11.6259 15.5543C11.5625 15.5925 11.4997 15.6318 11.4368 15.6712C11.1031 15.8801 10.7694 16.0892 10.357 16.1224C10.3041 16.1267 10.2512 16.1316 10.1981 16.1365C10.1612 16.1399 10.1241 16.1433 10.087 16.1466L10.0692 16.19C9.98303 16.1637 9.89482 16.1413 9.80665 16.119Z" fill="white"/>
<path d="M9.00746 12.7328C9.3436 12.9119 9.67308 13.0874 9.99273 13.0579C10.4665 13.0614 10.816 12.973 11.1427 12.7712C11.8182 12.3557 12.4973 11.946 13.1762 11.5364C13.412 11.3941 13.6478 11.2519 13.8834 11.1094L13.9564 11.0657C14.5106 10.7348 15.0654 10.4034 15.6148 10.063C16.059 9.78516 16.0501 9.38094 15.601 9.11739C15.4998 9.05823 15.3954 9.00454 15.2909 8.95085C15.1758 8.89167 15.0607 8.83249 14.95 8.76598C14.8187 8.68652 14.7205 8.70083 14.5921 8.77881C13.9084 9.1958 13.2223 9.60878 12.5361 10.0218C12.2013 10.2233 11.8666 10.4247 11.5321 10.6267C10.621 11.1775 9.70696 11.178 8.77267 10.676C7.7446 10.1237 6.70814 9.58626 5.67168 9.05224C5.62305 9.02934 5.57026 9.0166 5.51654 9.01482C5.46282 9.01304 5.4093 9.02225 5.35926 9.04187C5.10382 9.17499 4.85659 9.32332 4.61893 9.48607C4.16092 9.79405 4.18559 10.1919 4.6752 10.4505C6.0782 11.1905 7.48154 11.9297 8.8852 12.668C8.92605 12.6894 8.9668 12.7111 9.00746 12.7328Z" fill="white"/>
</svg>
