<svg width="28" height="28" viewBox="0 0 28 28" fill="none" xmlns="http://www.w3.org/2000/svg">
<path d="M14 28C21.732 28 28 21.732 28 14C28 6.26801 21.732 0 14 0C6.26801 0 0 6.26801 0 14C0 21.732 6.26801 28 14 28Z" fill="url(#paint0_linear_16406_3378)"/>
<path d="M13.9664 14.2401C13.9052 14.2213 13.8279 14.2024 13.74 14.1811C13.5056 14.124 13.1966 14.0488 12.9217 13.9071C11.0839 12.9649 9.25693 12.0022 7.42967 11.0393L6.5592 10.5807C5.82055 10.1924 5.81778 9.60298 6.56403 9.14901L6.90067 8.94428C8.86203 7.75143 10.8237 6.5584 12.8001 5.38459C13.6417 4.88432 14.5275 4.88363 15.4085 5.31549C15.7437 5.47953 16.0729 5.65484 16.4025 5.83034C16.5199 5.89287 16.6374 5.95543 16.7552 6.01752C18.4048 6.8863 20.0534 7.75578 21.7012 8.62594C21.7211 8.6366 21.7416 8.6465 21.7621 8.65641C21.7935 8.67156 21.8249 8.68676 21.8546 8.70471C22.4398 9.06126 22.4696 9.60989 21.9016 9.99683C21.5993 10.2032 21.2836 10.3895 20.9678 10.5759C20.8375 10.6527 20.707 10.7298 20.5777 10.808C20.0978 11.0985 19.6174 11.3882 19.1371 11.6778L19.1358 11.6786C17.9905 12.3693 16.8451 13.06 15.7063 13.7613C15.2295 14.0542 14.7258 14.2014 13.9664 14.2401Z" fill="url(#paint1_linear_16406_3378)"/>
<path d="M13.7287 22.5664C13.4628 22.499 13.1968 22.4315 12.959 22.3093C11.1683 21.3888 9.38794 20.4491 7.6067 19.5089L6.6283 18.9926C6.50551 18.9302 6.3897 18.8549 6.28281 18.7681C5.94147 18.4848 5.88895 18.0474 6.23651 17.7841C6.72431 17.4134 7.2606 17.1029 7.79305 16.7947L7.83612 16.7698C7.91765 16.7221 8.09731 16.7995 8.21062 16.8589C8.80342 17.1674 9.39368 17.4794 9.98372 17.7913C10.838 18.2428 11.6917 18.6941 12.552 19.1343C13.6541 19.6981 14.7915 19.6926 15.8611 19.0887C17.0522 18.4183 18.218 17.7027 19.3848 16.9865C19.661 16.817 19.9376 16.6472 20.2142 16.4782C20.398 16.3669 20.5314 16.3628 20.7152 16.4733C20.9277 16.6004 21.1486 16.7136 21.37 16.8271C21.4975 16.8924 21.6253 16.9579 21.7516 17.0261C22.4993 17.4317 22.5117 18.0156 21.7751 18.4592C19.9436 19.5648 18.1104 20.6703 16.2757 21.7759C16.1869 21.8293 16.0989 21.8844 16.0109 21.9395C15.5438 22.232 15.0765 22.5247 14.4992 22.5712C14.4251 22.5773 14.351 22.5841 14.2768 22.5909C14.225 22.5957 14.1732 22.6005 14.1212 22.605L14.0963 22.6658C13.9757 22.629 13.8522 22.5977 13.7287 22.5664Z" fill="url(#paint2_linear_16406_3378)"/>
<path d="M12.6099 17.8258C13.0805 18.0765 13.5417 18.3222 13.9892 18.2809C14.6526 18.2858 15.1418 18.1621 15.5992 17.8795C16.5449 17.2979 17.4956 16.7243 18.4462 16.1508C18.7763 15.9516 19.1063 15.7524 19.4362 15.553L19.5384 15.4919C20.3143 15.0285 21.091 14.5647 21.8601 14.0881C22.482 13.6991 22.4696 13.1332 21.8408 12.7642C21.6991 12.6814 21.5529 12.6062 21.4067 12.531C21.2456 12.4482 21.0844 12.3653 20.9294 12.2722C20.7456 12.161 20.6081 12.181 20.4284 12.2902C19.4712 12.874 18.5106 13.4521 17.5499 14.0304C17.0813 14.3124 16.6127 14.5945 16.1444 14.8772C14.8688 15.6483 13.5892 15.649 12.2812 14.9463C10.8419 14.1731 9.39081 13.4206 7.93977 12.673C7.87169 12.6409 7.79778 12.6231 7.72257 12.6206C7.64736 12.6181 7.57243 12.631 7.50238 12.6585C7.14476 12.8448 6.79865 13.0525 6.46592 13.2804C5.8247 13.7115 5.85924 14.2684 6.54469 14.6305C8.5089 15.6665 10.4736 16.7014 12.4387 17.7351C12.4959 17.765 12.5529 17.7954 12.6099 17.8258Z" fill="url(#paint3_linear_16406_3378)"/>
<defs>
<linearGradient id="paint0_linear_16406_3378" x1="7" y1="0.5" x2="19" y2="29.5" gradientUnits="userSpaceOnUse">
<stop stop-color="#293145"/>
<stop offset="1" stop-color="#12161F"/>
</linearGradient>
<linearGradient id="paint1_linear_16406_3378" x1="14.16" y1="5" x2="14.16" y2="22.6658" gradientUnits="userSpaceOnUse">
<stop stop-color="#B9FAB6"/>
<stop offset="1" stop-color="#F5FB8D"/>
</linearGradient>
<linearGradient id="paint2_linear_16406_3378" x1="14.16" y1="5" x2="14.16" y2="22.6658" gradientUnits="userSpaceOnUse">
<stop stop-color="#B9FAB6"/>
<stop offset="1" stop-color="#F5FB8D"/>
</linearGradient>
<linearGradient id="paint3_linear_16406_3378" x1="14.16" y1="5" x2="14.16" y2="22.6658" gradientUnits="userSpaceOnUse">
<stop stop-color="#B9FAB6"/>
<stop offset="1" stop-color="#F5FB8D"/>
</linearGradient>
</defs>
</svg>
