<svg width="28" height="28" viewBox="0 0 28 28" fill="none" xmlns="http://www.w3.org/2000/svg">
<path d="M0 14C0 6.26801 6.26801 0 14 0V0C21.732 0 28 6.26801 28 14V14C28 21.732 21.732 28 14 28V28C6.26801 28 0 21.732 0 14V14Z" fill="url(#paint0_linear_16396_3353)"/>
<path d="M18.5484 6C17.6346 5.99929 16.7578 6.36221 16.1105 7.0091C15.4632 7.65598 15.0984 8.53397 15.096 9.45034V13.2759C14.7404 13.3 14.3769 13.3152 14 13.3152C13.6231 13.3152 13.2613 13.3303 12.904 13.3517V9.45034C12.8895 8.54192 12.5194 7.67564 11.8736 7.03838C11.2278 6.40112 10.3581 6.04396 9.452 6.04396C8.54595 6.04396 7.67621 6.40112 7.03042 7.03838C6.38462 7.67564 6.01454 8.54192 6 9.45034V18.5936C6.01454 19.502 6.38462 20.3683 7.03042 21.0056C7.67621 21.6428 8.54595 22 9.452 22C10.3581 22 11.2278 21.6428 11.8736 21.0056C12.5194 20.3683 12.8895 19.502 12.904 18.5936V14.768C13.2596 14.744 13.6231 14.7288 14 14.7288C14.3769 14.7288 14.7387 14.7137 15.096 14.6923V18.5936C15.1105 19.502 15.4806 20.3683 16.1264 21.0056C16.7722 21.6428 17.6419 22 18.548 22C19.4541 22 20.3238 21.6428 20.9696 21.0056C21.6154 20.3683 21.9855 19.502 22 18.5936V9.45034C21.9976 8.53413 21.6329 7.65627 20.9858 7.00941C20.3387 6.36255 19.4622 5.99953 18.5484 6V6ZM9.45156 7.41365C9.99089 7.41341 10.5083 7.62772 10.8902 8.00954C11.2722 8.39137 11.4875 8.90953 11.4889 9.45034V13.5014C10.4789 13.6482 9.49264 13.9278 8.55556 14.3331C8.14954 14.5117 7.76733 14.7405 7.41778 15.014V9.45034C7.41919 8.91015 7.634 8.39253 8.01518 8.0108C8.39636 7.62908 8.91284 7.41436 9.45156 7.41365V7.41365ZM11.4889 18.5936C11.4889 19.1354 11.2742 19.6551 10.8922 20.0382C10.5101 20.4213 9.99189 20.6365 9.45156 20.6365C8.91122 20.6365 8.39302 20.4213 8.01094 20.0382C7.62887 19.6551 7.41422 19.1354 7.41422 18.5936V17.6764C7.41422 16.8662 8.05422 16.0988 9.12711 15.621C9.88309 15.294 10.6763 15.0614 11.4889 14.9285V18.5936V18.5936ZM18.5484 20.6303C18.0091 20.6305 17.4917 20.4162 17.1098 20.0344C16.7278 19.6526 16.5125 19.1344 16.5111 18.5936V14.5425C17.5211 14.3958 18.5074 14.1162 19.4444 13.7109C19.8505 13.5322 20.2327 13.3035 20.5822 13.0299V18.5936C20.5808 19.1338 20.366 19.6514 19.9848 20.0332C19.6036 20.4149 19.0872 20.6296 18.5484 20.6303V20.6303ZM18.8729 12.4176C18.1169 12.7446 17.3237 12.9772 16.5111 13.1101V9.45034C16.5111 8.90852 16.7258 8.3889 17.1078 8.00577C17.4899 7.62265 18.0081 7.40741 18.5484 7.40741C19.0888 7.40741 19.607 7.62265 19.9891 8.00577C20.3711 8.3889 20.5858 8.90852 20.5858 9.45034V10.3675C20.5858 11.1742 19.9458 11.9416 18.8729 12.4176Z" fill="white"/>
<defs>
<linearGradient id="paint0_linear_16396_3353" x1="1.77333" y1="25.9139" x2="26.1338" y2="1.55391" gradientUnits="userSpaceOnUse">
<stop stop-color="#00AEE9"/>
<stop offset="1" stop-color="#69FABD"/>
</linearGradient>
</defs>
</svg>
