<svg width="20" height="20" viewBox="0 0 20 20" fill="none" xmlns="http://www.w3.org/2000/svg">
<path fill-rule="evenodd" clip-rule="evenodd" d="M7.20755 4C7.51944 4 7.77228 4.25283 7.77228 4.56472V6.13347C6.60226 6.59896 5.58912 7.58094 5 8.68185V4H7.20755ZM8.47779 11.1305C8.47779 10.4217 9.05241 9.84704 9.76125 9.84704H10.3034C11.3808 9.84704 12.2543 8.97361 12.2543 7.89618V4H14.4618C14.7737 4 15.0265 4.25283 15.0265 4.56472V7.89618C15.0265 10.5047 12.9119 12.6193 10.3034 12.6193H8.47779V11.1305ZM11.5612 7.87359C11.5612 8.58243 10.9866 9.15706 10.2777 9.15706H9.73558C8.65815 9.15706 7.78472 10.0305 7.78472 11.1079V15.0041H5.57716C5.26528 15.0041 5.01244 14.7513 5.01244 14.4394V11.1079C5.01244 8.4994 7.12706 6.38478 9.73558 6.38478H11.5612V7.87359ZM12.8314 15.0041C12.5195 15.0041 12.2667 14.7513 12.2667 14.4394V12.8706C13.4367 12.4051 14.4499 11.4232 15.039 10.3223V15.0041H12.8314Z" fill="white"/>
</svg>
