<svg width="32" height="32" viewBox="0 0 32 32" fill="none" xmlns="http://www.w3.org/2000/svg">
<path d="M16 32C24.8366 32 32 24.8366 32 16C32 7.16344 24.8366 0 16 0C7.16344 0 0 7.16344 0 16C0 24.8366 7.16344 32 16 32Z" fill="white"/>
<path fill-rule="evenodd" clip-rule="evenodd" d="M16 32C24.8366 32 32 24.8366 32 16C32 7.16344 24.8366 0 16 0C7.16344 0 0 7.16344 0 16C0 24.8366 7.16344 32 16 32ZM12.4885 8.29271C12.4885 7.8067 12.0945 7.41271 11.6085 7.41271H8.1685V14.7084C9.08652 12.9928 10.6653 11.4626 12.4885 10.7373V8.29271ZM15.5879 16.5241C14.4833 16.5241 13.5879 17.4195 13.5879 18.5241V20.8441H16.4327C20.4975 20.8441 23.7927 17.5489 23.7927 13.4841V8.29271C23.7927 7.8067 23.3987 7.41271 22.9127 7.41271H19.4727V13.4841C19.4727 15.163 18.1117 16.5241 16.4327 16.5241H15.5879ZM16.3927 15.4489C17.4973 15.4489 18.3927 14.5534 18.3927 13.4489V11.1289H15.5479C11.4831 11.1289 8.18789 14.4241 8.18789 18.4889V23.6803C8.18789 24.1663 8.58188 24.5603 9.06789 24.5603H12.5079V18.4889C12.5079 16.8099 13.8689 15.4489 15.5479 15.4489H16.3927ZM19.4921 23.6803C19.4921 24.1663 19.8861 24.5603 20.3721 24.5603H23.8121V17.2646C22.8941 18.9801 21.3153 20.5103 19.4921 21.2357V23.6803Z" fill="#00943E"/>
</svg>
