<svg id="Layer_1" data-name="Layer 1" xmlns="http://www.w3.org/2000/svg" viewBox="0 0 713.3 714.84"
  style="background-color:rgba(255,255,255,0)">
  <defs>
    <style>
      .cls-1 {
        fill: #ffffff;
      }
    </style>
  </defs>
  <title>JFIN Chain</title>
  <path class="cls-1"
    d="M226.77,690.11A356.59,356.59,0,0,0,630.61,129.68a37.93,37.93,0,1,0-58.3,48.54,280.68,280.68,0,1,1-247.4-99.07,37.93,37.93,0,0,0-8.68-75.37A356.24,356.24,0,0,0,24.73,228.11a356.54,356.54,0,0,0,202,462Z" />
  <path class="cls-1" d="M427.77,100.46a58.79,58.79,0,1,0-.27-83.07l-.32.31A58.44,58.44,0,0,0,427.77,100.46Z" />
  <path class="cls-1"
    d="M417.74,143H526.39V433.35c0,46.58-15.95,85.51-47.22,115.5-31.91,30-72.75,45.31-121.89,45.31-49.77,0-90.61-15.32-122.52-45.31s-47.86-68.92-47.86-115.5V418.67H294.75v18.51c0,35.73,25.52,60,61.9,60s61.26-24.25,61.26-60V238.72Z" />
</svg>