<svg width="28" height="28" viewBox="0 0 28 28" fill="none" xmlns="http://www.w3.org/2000/svg">
<path d="M24.5135 12.5307L23.9138 11.5262L20.6304 6.00899H20.6154L20.5105 5.81409H19.3111L14.6484 14.015L19.3861 22.1709H20.5855L20.6154 22.1259L24.5285 15.4243H22.1147L20.0307 19.1274L17.0622 14L19.9708 8.87256L22.0847 12.5157L24.5135 12.5307Z" fill="white"/>
<path d="M6.26792 11.1964L8.45683 7.46327L7.72219 6.27886L7.21245 5.43928L3.46432 12.051L3.35938 12.2309L3.95908 13.2804H13.3894L18.142 5.13943L17.4823 4L10.8856 4.01499H10.7807L9.73119 4L10.2859 5.04948L10.8406 6.09895L15.1585 6.08396L12.19 11.1964H6.26792Z" fill="white"/>
<path d="M10.9306 6.87854C10.7657 6.87854 10.5857 6.90853 10.4058 6.9685C10.2109 7.02847 10.016 7.11842 9.83612 7.22337C9.32637 7.53821 8.96655 7.98798 8.90658 8.40777C8.8766 8.60268 8.92157 8.76759 9.02652 8.88753C9.04151 8.91752 9.0715 8.93251 9.08649 8.9625C9.10148 8.97749 9.11648 8.97749 9.13147 8.99248C9.14646 9.00747 9.14646 9.00747 9.16145 9.02247C9.19144 9.03746 9.20643 9.05245 9.23642 9.06744C9.55126 9.21737 10.046 9.18738 10.5258 8.9625L10.5408 8.9475C10.5857 8.93251 10.6307 8.90253 10.6757 8.88753C10.7207 8.87254 10.7507 8.84256 10.7956 8.81257C10.8406 8.78259 10.8856 8.7526 10.9306 8.72262C10.9755 8.69263 11.0055 8.66265 11.0505 8.63266L11.0805 8.61767C11.1105 8.58768 11.1405 8.57269 11.1704 8.54271C11.1854 8.52771 11.1854 8.52771 11.2004 8.51272C11.2304 8.49773 11.2454 8.46774 11.2604 8.45275C11.2754 8.43776 11.2904 8.42277 11.3054 8.39278C11.3204 8.3628 11.3504 8.3478 11.3654 8.31782C11.3803 8.30283 11.3803 8.30283 11.3953 8.28783C11.4103 8.25785 11.4403 8.24286 11.4553 8.21287L11.4853 8.18289C11.5003 8.1529 11.5153 8.13791 11.5303 8.10792C11.5303 8.10792 11.5303 8.10792 11.5303 8.09293L11.5453 8.06295C11.5752 8.03296 11.5902 7.98798 11.6052 7.958C11.6202 7.92801 11.6352 7.88304 11.6502 7.85305L11.6652 7.83806C11.6652 7.82307 11.6802 7.80807 11.6802 7.80807C11.6802 7.79308 11.6802 7.79308 11.6952 7.77809C11.6952 7.7481 11.7102 7.73311 11.7102 7.70313C11.7102 7.67314 11.7252 7.67314 11.7252 7.65815C11.7252 7.64316 11.7252 7.62816 11.7252 7.62816C11.7252 7.59818 11.7252 7.58319 11.7252 7.56819V7.53821C11.7252 7.50822 11.7252 7.49323 11.7252 7.46325C11.7252 7.44825 11.7252 7.44825 11.7252 7.43326C11.7252 7.41827 11.7252 7.40328 11.7252 7.40328C11.7252 7.38828 11.7252 7.38828 11.7252 7.37329V7.3583C11.7252 7.32831 11.7102 7.31332 11.6952 7.28334C11.6802 7.25335 11.6652 7.23836 11.6502 7.20837C11.5453 6.98349 11.2604 6.87854 10.9306 6.87854Z" fill="white"/>
<path d="M12.0251 7.97302C12.0251 8.00301 12.0101 8.018 11.9951 8.04799C11.9951 8.06298 11.9951 8.06298 11.9801 8.07797C11.9651 8.12295 11.9501 8.15293 11.9202 8.19791C11.7552 8.51275 11.4854 8.8126 11.1555 9.05248C11.1106 9.08247 11.0656 9.11245 11.0206 9.14244C10.9756 9.17242 10.9307 9.20241 10.8857 9.2174H10.8707C10.8557 9.23239 10.8407 9.23239 10.8257 9.24739C10.7957 9.26238 10.7807 9.27737 10.7507 9.29236H10.7358C10.7208 9.29236 10.7058 9.30736 10.6908 9.30736C10.6608 9.32235 10.6308 9.33734 10.6008 9.33734L10.5708 9.35233C10.5708 9.35233 10.5708 9.35233 10.5558 9.35233C10.5409 9.35233 10.5259 9.36733 10.5109 9.36733C10.4809 9.38232 10.4509 9.38232 10.4209 9.39731L10.3909 9.4123H10.3759C10.346 9.4273 10.316 9.4273 10.286 9.44229C10.271 9.44229 10.256 9.45728 10.226 9.45728H10.211C10.181 9.45728 10.151 9.47227 10.1361 9.47227C10.1211 9.47227 10.0911 9.47227 10.0761 9.48727H10.0611C10.0461 9.48727 10.0311 9.48727 10.0161 9.50226C10.0011 9.50226 9.98613 9.50226 9.97114 9.50226C9.92616 9.50226 9.86619 9.51725 9.82121 9.51725H9.80622C9.76124 9.51725 9.71627 9.51725 9.67129 9.51725C9.6563 9.51725 9.6413 9.51725 9.6413 9.51725H9.62631C9.59633 9.51725 9.56634 9.51725 9.53636 9.50226C9.52136 9.50226 9.50637 9.50226 9.49138 9.48727C9.46139 9.48727 9.43141 9.47227 9.40142 9.47227C9.38643 9.47227 9.37144 9.45728 9.35645 9.45728L10.181 10.7916L11.9501 10.7766L12.8647 9.15743L12.0401 7.80811C12.0401 7.8231 12.0401 7.83809 12.0251 7.85308C12.0251 7.86808 12.0251 7.86808 12.0251 7.88307C12.0251 7.89806 12.0101 7.91305 12.0101 7.94304C12.0251 7.95803 12.0251 7.97302 12.0251 7.97302Z" fill="white"/>
<path d="M21.4251 12.8456C21.5151 12.9805 21.5751 13.1455 21.62 13.3404C21.665 13.5353 21.695 13.7452 21.695 13.955C21.695 14.5547 21.5001 15.0945 21.1703 15.3643C21.0203 15.4843 20.8554 15.5443 20.6905 15.5143C20.6605 15.5143 20.6305 15.4993 20.6006 15.4993C20.5856 15.4993 20.5706 15.4843 20.5556 15.4843C20.5406 15.4843 20.5256 15.4693 20.5106 15.4693C20.4806 15.4543 20.4506 15.4393 20.4356 15.4243C20.1358 15.2294 19.9109 14.7946 19.8509 14.2699V14.2549C19.8509 14.2099 19.8359 14.1649 19.8359 14.105C19.8359 14.06 19.8359 14.015 19.8359 13.97C19.8359 13.9101 19.8359 13.8651 19.8359 13.8051C19.8359 13.7601 19.8359 13.7152 19.8509 13.6702V13.6402C19.8509 13.6102 19.8659 13.5652 19.8659 13.5353C19.8659 13.5203 19.8659 13.5053 19.8659 13.4903C19.8659 13.4603 19.8809 13.4303 19.8809 13.4003C19.8809 13.3703 19.8959 13.3553 19.8959 13.3254C19.9109 13.2954 19.9109 13.2654 19.9259 13.2354C19.9259 13.2204 19.9409 13.2054 19.9409 13.1904C19.9559 13.1604 19.9559 13.1305 19.9709 13.1005L19.9859 13.0555C20.0009 13.0255 20.0158 13.0105 20.0158 12.9805C20.0158 12.9805 20.0158 12.9805 20.0158 12.9655L20.0308 12.9356C20.0458 12.8906 20.0758 12.8606 20.0908 12.8306C20.1058 12.8006 20.1358 12.7706 20.1508 12.7407L20.1658 12.7257C20.1808 12.7107 20.1808 12.7107 20.1958 12.6957C20.2108 12.6807 20.2108 12.6807 20.2108 12.6657C20.2257 12.6507 20.2407 12.6357 20.2557 12.6207C20.2707 12.6057 20.2857 12.5907 20.2857 12.5907C20.3007 12.5757 20.3007 12.5757 20.3157 12.5607C20.3307 12.5458 20.3457 12.5308 20.3607 12.5158L20.3907 12.5008C20.4057 12.4858 20.4356 12.4708 20.4506 12.4558C20.4656 12.4558 20.4656 12.4558 20.4806 12.4408C20.4956 12.4408 20.5106 12.4258 20.5106 12.4258C20.5106 12.4258 20.5256 12.4258 20.5256 12.4108H20.5406C20.5706 12.4108 20.5856 12.3958 20.6155 12.3958C20.6455 12.3958 20.6755 12.3958 20.7055 12.3958C21.0203 12.3808 21.2452 12.5607 21.4251 12.8456Z" fill="white"/>
<path d="M19.9108 12.4857C19.8958 12.5007 19.8808 12.5307 19.8658 12.5457C19.8658 12.5607 19.8508 12.5607 19.8508 12.5757C19.8208 12.6057 19.8059 12.6507 19.7759 12.6806C19.581 12.9805 19.476 13.3703 19.446 13.7751C19.446 13.8351 19.446 13.88 19.446 13.94C19.446 13.985 19.446 14.045 19.446 14.0899V14.1049C19.446 14.1199 19.446 14.1499 19.446 14.1649C19.446 14.1949 19.446 14.2249 19.461 14.2549V14.2699C19.461 14.2848 19.461 14.2998 19.461 14.3148C19.461 14.3448 19.476 14.3748 19.476 14.4048V14.4348C19.476 14.4348 19.476 14.4348 19.476 14.4498C19.476 14.4648 19.476 14.4797 19.491 14.4947C19.491 14.5247 19.506 14.5547 19.506 14.5847L19.521 14.6147V14.6297C19.521 14.6597 19.536 14.6896 19.551 14.7196C19.551 14.7346 19.566 14.7496 19.566 14.7646V14.7796C19.581 14.8096 19.581 14.8246 19.596 14.8546C19.596 14.8695 19.611 14.8845 19.6259 14.9145V14.9295C19.6259 14.9445 19.6409 14.9595 19.6409 14.9745C19.6559 14.9895 19.6559 15.0045 19.6559 15.0045C19.6709 15.0495 19.7009 15.0944 19.7309 15.1394L19.7459 15.1544C19.7759 15.1994 19.7909 15.2294 19.8208 15.2594C19.8208 15.2743 19.8358 15.2743 19.8358 15.2893L19.8508 15.3043C19.8658 15.3343 19.8958 15.3493 19.9108 15.3793C19.9258 15.3943 19.9258 15.4093 19.9408 15.4093C19.9708 15.4393 19.9858 15.4543 20.0008 15.4842C20.0157 15.4992 20.0307 15.4992 20.0307 15.5142H18.4565L17.542 14L18.4415 12.3808H20.0157C20.0008 12.3958 20.0008 12.3958 19.9858 12.4108L19.9708 12.4258C19.9558 12.4408 19.9408 12.4558 19.9108 12.4857C19.9258 12.4857 19.9108 12.4857 19.9108 12.4857Z" fill="white"/>
<path d="M10.9306 21.1064C10.7657 21.1064 10.5857 21.0765 10.4058 21.0165C10.2109 20.9565 10.016 20.8666 9.83612 20.7616C9.32637 20.4468 8.96655 19.997 8.90658 19.5772C8.8766 19.3823 8.92157 19.2174 9.02652 19.0974C9.04151 19.0675 9.0715 19.0525 9.08649 19.0225C9.10148 19.0075 9.11648 19.0075 9.13147 18.9925C9.14646 18.9775 9.14646 18.9775 9.16145 18.9625C9.19144 18.9475 9.20643 18.9325 9.23642 18.9175C9.55126 18.7676 10.046 18.7976 10.5258 19.0225L10.5408 19.0375C10.5857 19.0525 10.6307 19.0825 10.6757 19.0974C10.7207 19.1124 10.7507 19.1424 10.7956 19.1724C10.8406 19.2024 10.8856 19.2324 10.9306 19.2624C10.9755 19.2923 11.0055 19.3223 11.0505 19.3523L11.0805 19.3673C11.1105 19.3973 11.1405 19.4123 11.1704 19.4423C11.1854 19.4573 11.1854 19.4573 11.2004 19.4723C11.2304 19.4872 11.2454 19.5172 11.2604 19.5322C11.2754 19.5472 11.2904 19.5622 11.3054 19.5922C11.3204 19.6222 11.3504 19.6372 11.3654 19.6672C11.3803 19.6822 11.3803 19.6822 11.3953 19.6971C11.4103 19.7271 11.4403 19.7421 11.4553 19.7721L11.4853 19.8021C11.5003 19.8321 11.5153 19.8471 11.5303 19.8771V19.892L11.5453 19.922C11.5752 19.952 11.5902 19.997 11.6052 20.027C11.6202 20.057 11.6352 20.1019 11.6502 20.1319L11.6652 20.1469C11.6652 20.1619 11.6802 20.1769 11.6802 20.1769C11.6802 20.1919 11.6802 20.1919 11.6952 20.2069C11.6952 20.2369 11.7102 20.2519 11.7102 20.2819C11.7102 20.3118 11.7252 20.3118 11.7252 20.3268C11.7252 20.3418 11.7252 20.3568 11.7252 20.3568C11.7252 20.3868 11.7252 20.4018 11.7252 20.4168V20.4468C11.7252 20.4768 11.7252 20.4917 11.7252 20.5217C11.7252 20.5367 11.7252 20.5367 11.7252 20.5517C11.7252 20.5667 11.7252 20.5817 11.7252 20.5817C11.7252 20.5967 11.7252 20.5967 11.7252 20.6117V20.6267C11.7252 20.6567 11.7102 20.6717 11.6952 20.7016C11.6802 20.7316 11.6652 20.7466 11.6502 20.7766C11.5453 21.0015 11.2604 21.1214 10.9306 21.1064Z" fill="white"/>
<path d="M12.0251 20.012C12.0251 19.982 12.0101 19.967 11.9951 19.937C11.9951 19.9221 11.9951 19.9221 11.9801 19.9071C11.9651 19.8621 11.9501 19.8321 11.9202 19.7871C11.7552 19.4723 11.4854 19.1724 11.1555 18.9325C11.1106 18.9026 11.0656 18.8726 11.0206 18.8426C10.9756 18.8126 10.9307 18.7826 10.8857 18.7676H10.8707C10.8557 18.7526 10.8407 18.7526 10.8257 18.7376C10.7957 18.7227 10.7807 18.7077 10.7507 18.6927H10.7358C10.7208 18.6927 10.7058 18.6777 10.6908 18.6777C10.6608 18.6627 10.6308 18.6477 10.6008 18.6477L10.5708 18.6327C10.5708 18.6327 10.5708 18.6327 10.5558 18.6327C10.5409 18.6327 10.5259 18.6177 10.5109 18.6177C10.4809 18.6027 10.4509 18.6027 10.4209 18.5877L10.3909 18.5727H10.3759C10.346 18.5577 10.316 18.5577 10.286 18.5427C10.271 18.5427 10.256 18.5278 10.226 18.5278H10.211C10.181 18.5278 10.151 18.5128 10.1361 18.5128C10.1211 18.5128 10.0911 18.5128 10.0761 18.4978H10.0611C10.0461 18.4978 10.0311 18.4978 10.0161 18.4828C10.0011 18.4828 9.98613 18.4828 9.97114 18.4828C9.92616 18.4828 9.86619 18.4678 9.82121 18.4678H9.80622C9.76124 18.4678 9.71627 18.4678 9.67129 18.4678C9.6563 18.4678 9.6413 18.4678 9.6413 18.4678H9.62631C9.59633 18.4678 9.56634 18.4678 9.53636 18.4828C9.52136 18.4828 9.50637 18.4828 9.49138 18.4978C9.46139 18.4978 9.43141 18.5128 9.40142 18.5128C9.38643 18.5128 9.37144 18.5278 9.35645 18.5278L10.181 17.1934L11.9501 17.2084L12.8647 18.8276L12.0401 20.1769C12.0401 20.1619 12.0401 20.1469 12.0251 20.1319C12.0251 20.117 12.0251 20.117 12.0251 20.102C12.0251 20.087 12.0101 20.072 12.0101 20.042C12.0251 20.027 12.0251 20.012 12.0251 20.012Z" fill="white"/>
<path d="M15.1585 21.901L10.8406 21.8861L10.181 23.1304L9.73119 23.985L10.8856 23.97V23.985L17.4823 24L18.142 22.8606L13.3894 14.7196L3.95908 14.7047L3.35938 15.7541L3.47932 15.949H3.46432L7.21245 22.5457L8.45683 20.5217L6.26792 16.8036H12.19L15.1585 21.901Z" fill="white"/>
</svg>
