<svg width="28" height="28" viewBox="0 0 28 28" fill="none" xmlns="http://www.w3.org/2000/svg">
<path d="M14 28C21.732 28 28 21.732 28 14C28 6.26801 21.732 0 14 0C6.26801 0 0 6.26801 0 14C0 21.732 6.26801 28 14 28Z" fill="#12192C"/>
<path d="M23.8136 12.628L23.2536 11.69L20.1876 6.53796H20.1736L20.0756 6.35596H18.9556L14.6016 14.014L19.0256 21.63H20.1456L20.1736 21.588L23.8276 15.33H21.5736L19.6276 18.788L16.8556 14L19.5716 9.21196L21.5456 12.614L23.8136 12.628Z" fill="#41E6AF"/>
<path d="M6.77557 11.382L8.81957 7.89599L8.13357 6.78999L7.65757 6.00599L4.15757 12.18L4.05957 12.348L4.61957 13.328H13.4256L17.8636 5.72599L17.2476 4.66199L11.0876 4.67599H10.9896L10.0096 4.66199L10.5276 5.64199L11.0456 6.62199L15.0776 6.60799L12.3056 11.382H6.77557Z" fill="#41E6AF"/>
<path d="M11.13 7.34998C10.976 7.34998 10.808 7.37798 10.64 7.43398C10.458 7.48998 10.276 7.57398 10.108 7.67198C9.63196 7.96598 9.29596 8.38598 9.23996 8.77797C9.21196 8.95997 9.25396 9.11397 9.35196 9.22597C9.36596 9.25397 9.39396 9.26797 9.40796 9.29597C9.42196 9.30997 9.43596 9.30997 9.44996 9.32397C9.46396 9.33797 9.46396 9.33797 9.47796 9.35197C9.50596 9.36597 9.51996 9.37997 9.54796 9.39397C9.84196 9.53397 10.304 9.50597 10.752 9.29597L10.766 9.28197C10.808 9.26797 10.85 9.23997 10.892 9.22597C10.934 9.21197 10.962 9.18397 11.004 9.15597C11.046 9.12797 11.088 9.09997 11.13 9.07197C11.172 9.04397 11.2 9.01597 11.242 8.98797L11.27 8.97397C11.298 8.94597 11.326 8.93197 11.354 8.90397C11.368 8.88997 11.368 8.88997 11.382 8.87597C11.41 8.86197 11.424 8.83397 11.438 8.81997C11.452 8.80597 11.466 8.79197 11.48 8.76397C11.494 8.73597 11.522 8.72197 11.536 8.69397C11.55 8.67997 11.55 8.67997 11.564 8.66597C11.578 8.63797 11.606 8.62397 11.62 8.59598L11.648 8.56797C11.662 8.53997 11.676 8.52597 11.69 8.49797C11.69 8.49797 11.69 8.49797 11.69 8.48397L11.704 8.45598C11.732 8.42798 11.746 8.38598 11.76 8.35798C11.774 8.32998 11.788 8.28797 11.802 8.25998L11.816 8.24598C11.816 8.23198 11.83 8.21798 11.83 8.21798C11.83 8.20398 11.83 8.20398 11.844 8.18998C11.844 8.16198 11.858 8.14798 11.858 8.11998C11.858 8.09198 11.872 8.09198 11.872 8.07798C11.872 8.06398 11.872 8.04998 11.872 8.04998C11.872 8.02198 11.872 8.00797 11.872 7.99397V7.96598C11.872 7.93798 11.872 7.92398 11.872 7.89598C11.872 7.88198 11.872 7.88198 11.872 7.86798C11.872 7.85398 11.872 7.83998 11.872 7.83998C11.872 7.82598 11.872 7.82598 11.872 7.81198V7.79798C11.872 7.76998 11.858 7.75598 11.844 7.72798C11.83 7.69998 11.816 7.68598 11.802 7.65798C11.704 7.44798 11.438 7.34998 11.13 7.34998Z" fill="#41E6AF"/>
<path d="M12.1512 8.37202C12.1512 8.40002 12.1372 8.41402 12.1232 8.44202C12.1232 8.45602 12.1232 8.45602 12.1092 8.47002C12.0952 8.51202 12.0812 8.54002 12.0532 8.58202C11.8992 8.87602 11.6472 9.15602 11.3392 9.38002C11.2972 9.40802 11.2552 9.43602 11.2132 9.46402C11.1712 9.49202 11.1292 9.52002 11.0872 9.53402H11.0732C11.0592 9.54802 11.0452 9.54802 11.0312 9.56202C11.0032 9.57602 10.9892 9.59002 10.9612 9.60402H10.9472C10.9332 9.60402 10.9192 9.61802 10.9052 9.61802C10.8772 9.63202 10.8492 9.64602 10.8212 9.64602L10.7932 9.66002C10.7932 9.66002 10.7932 9.66002 10.7792 9.66002C10.7652 9.66002 10.7512 9.67402 10.7372 9.67402C10.7092 9.68802 10.6812 9.68802 10.6532 9.70202L10.6252 9.71602H10.6112C10.5832 9.73002 10.5552 9.73002 10.5272 9.74402C10.5132 9.74402 10.4992 9.75802 10.4712 9.75802H10.4572C10.4292 9.75802 10.4012 9.77202 10.3872 9.77202C10.3732 9.77202 10.3452 9.77202 10.3312 9.78602H10.3172C10.3032 9.78602 10.2892 9.78602 10.2752 9.80002C10.2612 9.80002 10.2472 9.80002 10.2332 9.80002C10.1912 9.80002 10.1352 9.81402 10.0932 9.81402H10.0792C10.0372 9.81402 9.99518 9.81402 9.95318 9.81402C9.93918 9.81402 9.92518 9.81402 9.92518 9.81402H9.91118C9.88318 9.81402 9.85518 9.81402 9.82718 9.80002C9.81318 9.80002 9.79918 9.80002 9.78518 9.78602C9.75718 9.78602 9.72918 9.77202 9.70118 9.77202C9.68718 9.77202 9.67318 9.75802 9.65918 9.75802L10.4292 11.004L12.0812 10.99L12.9352 9.47802L12.1652 8.21802C12.1652 8.23202 12.1652 8.24602 12.1512 8.26002C12.1512 8.27402 12.1512 8.27402 12.1512 8.28802C12.1512 8.30202 12.1372 8.31602 12.1372 8.34402C12.1512 8.35802 12.1512 8.37202 12.1512 8.37202Z" fill="#41E6AF"/>
<path d="M20.9293 12.922C21.0133 13.048 21.0693 13.202 21.1113 13.384C21.1533 13.566 21.1813 13.762 21.1813 13.958C21.1813 14.518 20.9993 15.022 20.6913 15.274C20.5513 15.386 20.3973 15.442 20.2433 15.414C20.2153 15.414 20.1873 15.4 20.1593 15.4C20.1453 15.4 20.1313 15.386 20.1173 15.386C20.1033 15.386 20.0893 15.372 20.0753 15.372C20.0473 15.358 20.0193 15.344 20.0053 15.33C19.7253 15.148 19.5153 14.742 19.4593 14.252V14.238C19.4593 14.196 19.4453 14.154 19.4453 14.098C19.4453 14.056 19.4453 14.014 19.4453 13.972C19.4453 13.916 19.4453 13.874 19.4453 13.818C19.4453 13.776 19.4453 13.734 19.4593 13.692V13.664C19.4593 13.636 19.4733 13.594 19.4733 13.566C19.4733 13.552 19.4733 13.538 19.4733 13.524C19.4733 13.496 19.4873 13.468 19.4873 13.44C19.4873 13.412 19.5013 13.398 19.5013 13.37C19.5153 13.342 19.5153 13.314 19.5293 13.286C19.5293 13.272 19.5433 13.258 19.5433 13.244C19.5573 13.216 19.5573 13.188 19.5713 13.16L19.5853 13.118C19.5993 13.09 19.6133 13.076 19.6133 13.048C19.6133 13.048 19.6133 13.048 19.6133 13.034L19.6273 13.006C19.6413 12.964 19.6693 12.936 19.6833 12.908C19.6973 12.88 19.7253 12.852 19.7393 12.824L19.7533 12.81C19.7673 12.796 19.7673 12.796 19.7813 12.782C19.7953 12.768 19.7953 12.768 19.7953 12.754C19.8093 12.74 19.8233 12.726 19.8373 12.712C19.8513 12.698 19.8653 12.684 19.8653 12.684C19.8793 12.67 19.8793 12.67 19.8933 12.656C19.9073 12.642 19.9213 12.628 19.9353 12.614L19.9633 12.6C19.9773 12.586 20.0053 12.572 20.0193 12.558C20.0333 12.558 20.0333 12.558 20.0473 12.544C20.0613 12.544 20.0753 12.53 20.0753 12.53C20.0753 12.53 20.0893 12.53 20.0893 12.516H20.1033C20.1313 12.516 20.1453 12.502 20.1733 12.502C20.2013 12.502 20.2293 12.502 20.2573 12.502C20.5513 12.488 20.7613 12.656 20.9293 12.922Z" fill="#41E6AF"/>
<path d="M19.5157 12.586C19.5017 12.6 19.4877 12.628 19.4737 12.642C19.4737 12.656 19.4597 12.656 19.4597 12.67C19.4317 12.698 19.4177 12.74 19.3897 12.768C19.2077 13.048 19.1097 13.412 19.0817 13.79C19.0817 13.846 19.0817 13.888 19.0817 13.944C19.0817 13.986 19.0817 14.042 19.0817 14.084V14.098C19.0817 14.112 19.0817 14.14 19.0817 14.154C19.0817 14.182 19.0817 14.21 19.0957 14.238V14.252C19.0957 14.266 19.0957 14.28 19.0957 14.294C19.0957 14.322 19.1097 14.35 19.1097 14.378V14.406C19.1097 14.406 19.1097 14.406 19.1097 14.42C19.1097 14.434 19.1097 14.448 19.1237 14.462C19.1237 14.49 19.1377 14.518 19.1377 14.546L19.1517 14.574V14.588C19.1517 14.616 19.1657 14.644 19.1797 14.672C19.1797 14.686 19.1937 14.7 19.1937 14.714V14.728C19.2077 14.756 19.2077 14.77 19.2217 14.798C19.2217 14.812 19.2357 14.826 19.2497 14.854V14.868C19.2497 14.882 19.2637 14.896 19.2637 14.91C19.2777 14.924 19.2777 14.938 19.2777 14.938C19.2917 14.98 19.3197 15.022 19.3477 15.064L19.3617 15.078C19.3897 15.12 19.4037 15.148 19.4317 15.176C19.4317 15.19 19.4457 15.19 19.4457 15.204L19.4597 15.218C19.4737 15.246 19.5017 15.26 19.5157 15.288C19.5297 15.302 19.5297 15.316 19.5437 15.316C19.5717 15.344 19.5857 15.358 19.5997 15.386C19.6137 15.4 19.6277 15.4 19.6277 15.414H18.1577L17.3037 14L18.1437 12.488H19.6137C19.5997 12.502 19.5997 12.502 19.5857 12.516L19.5717 12.53C19.5577 12.544 19.5437 12.558 19.5157 12.586C19.5157 12.586 19.5297 12.586 19.5157 12.586Z" fill="#41E6AF"/>
<path d="M11.13 20.636C10.976 20.636 10.808 20.608 10.64 20.552C10.458 20.496 10.276 20.412 10.108 20.314C9.63196 20.02 9.29596 19.6 9.23996 19.208C9.21196 19.026 9.25396 18.872 9.35196 18.76C9.36596 18.732 9.39396 18.718 9.40796 18.69C9.42196 18.676 9.43596 18.676 9.44996 18.662C9.46396 18.648 9.46396 18.648 9.47796 18.634C9.50596 18.62 9.51996 18.606 9.54796 18.592C9.84196 18.452 10.304 18.48 10.752 18.69L10.766 18.704C10.808 18.718 10.85 18.746 10.892 18.76C10.934 18.774 10.962 18.802 11.004 18.83C11.046 18.858 11.088 18.886 11.13 18.914C11.172 18.942 11.2 18.97 11.242 18.998L11.27 19.012C11.298 19.04 11.326 19.054 11.354 19.082C11.368 19.096 11.368 19.096 11.382 19.11C11.41 19.124 11.424 19.152 11.438 19.166C11.452 19.18 11.466 19.194 11.48 19.222C11.494 19.25 11.522 19.264 11.536 19.292C11.55 19.306 11.55 19.306 11.564 19.32C11.578 19.348 11.606 19.362 11.62 19.39L11.648 19.418C11.662 19.446 11.676 19.46 11.69 19.488V19.502L11.704 19.53C11.732 19.558 11.746 19.6 11.76 19.628C11.774 19.656 11.788 19.698 11.802 19.726L11.816 19.74C11.816 19.754 11.83 19.768 11.83 19.768C11.83 19.782 11.83 19.782 11.844 19.796C11.844 19.824 11.858 19.838 11.858 19.866C11.858 19.894 11.872 19.894 11.872 19.908C11.872 19.922 11.872 19.936 11.872 19.936C11.872 19.964 11.872 19.978 11.872 19.992V20.02C11.872 20.048 11.872 20.062 11.872 20.09C11.872 20.104 11.872 20.104 11.872 20.118C11.872 20.132 11.872 20.146 11.872 20.146C11.872 20.16 11.872 20.16 11.872 20.174V20.188C11.872 20.216 11.858 20.23 11.844 20.258C11.83 20.286 11.816 20.3 11.802 20.328C11.704 20.538 11.438 20.65 11.13 20.636Z" fill="#41E6AF"/>
<path d="M12.1512 19.614C12.1512 19.586 12.1372 19.572 12.1232 19.544C12.1232 19.53 12.1232 19.53 12.1092 19.516C12.0952 19.474 12.0812 19.446 12.0532 19.404C11.8992 19.11 11.6472 18.83 11.3392 18.606C11.2972 18.578 11.2552 18.55 11.2132 18.522C11.1712 18.494 11.1292 18.466 11.0872 18.452H11.0732C11.0592 18.438 11.0452 18.438 11.0312 18.424C11.0032 18.41 10.9892 18.396 10.9612 18.382H10.9472C10.9332 18.382 10.9192 18.368 10.9052 18.368C10.8772 18.354 10.8492 18.34 10.8212 18.34L10.7932 18.326C10.7932 18.326 10.7932 18.326 10.7792 18.326C10.7652 18.326 10.7512 18.312 10.7372 18.312C10.7092 18.298 10.6812 18.298 10.6532 18.284L10.6252 18.27H10.6112C10.5832 18.256 10.5552 18.256 10.5272 18.242C10.5132 18.242 10.4992 18.228 10.4712 18.228H10.4572C10.4292 18.228 10.4012 18.214 10.3872 18.214C10.3732 18.214 10.3452 18.214 10.3312 18.2H10.3172C10.3032 18.2 10.2892 18.2 10.2752 18.186C10.2612 18.186 10.2472 18.186 10.2332 18.186C10.1912 18.186 10.1352 18.172 10.0932 18.172H10.0792C10.0372 18.172 9.99518 18.172 9.95318 18.172C9.93918 18.172 9.92518 18.172 9.92518 18.172H9.91118C9.88318 18.172 9.85518 18.172 9.82718 18.186C9.81318 18.186 9.79918 18.186 9.78518 18.2C9.75718 18.2 9.72918 18.214 9.70118 18.214C9.68718 18.214 9.67318 18.228 9.65918 18.228L10.4292 16.982L12.0812 16.996L12.9352 18.508L12.1652 19.768C12.1652 19.754 12.1652 19.74 12.1512 19.726C12.1512 19.712 12.1512 19.712 12.1512 19.698C12.1512 19.684 12.1372 19.67 12.1372 19.642C12.1512 19.628 12.1512 19.614 12.1512 19.614Z" fill="#41E6AF"/>
<path d="M15.0776 21.378L11.0456 21.364L10.4296 22.526L10.0096 23.324L11.0876 23.31V23.324L17.2476 23.338L17.8636 22.274L13.4256 14.672L4.61957 14.658L4.05957 15.638L4.17157 15.82H4.15757L7.65757 21.98L8.81957 20.09L6.77557 16.618H12.3056L15.0776 21.378Z" fill="#41E6AF"/>
</svg>
