<svg width="20" height="20" viewBox="0 0 20 20" fill="none" xmlns="http://www.w3.org/2000/svg">
<path d="M6.74617 12.3325L10.3003 2.98173C10.9914 2.92532 12.7882 3.1679 14.4468 4.58956C12.5174 6.51895 8.50914 10.5554 6.74617 12.3325Z" fill="white"/>
<path d="M8.43862 4.16645L3.02278 9.58229C2.95226 10.5978 3.15817 12.9757 4.54598 14.3635C5.39221 12.0279 7.49367 6.59229 8.43862 4.16645Z" fill="white"/>
<path d="M14.5314 15.3366C10.8757 18.3492 7.00004 16.5919 5.51914 15.3366L10.0041 10.8939C11.0196 11.9094 13.3467 14.2196 14.5314 15.3366Z" fill="white"/>
<path d="M15.3777 14.4058C16.6329 12.9249 18.3902 9.04917 15.3777 5.39347C14.2607 6.57819 11.9505 8.90531 10.935 9.92078L15.3777 14.4058Z" fill="white"/>
</svg>
