<svg width="20" height="20" viewBox="0 0 20 20" fill="none" xmlns="http://www.w3.org/2000/svg">
<path d="M7.32323 14.7415C7.43219 14.5084 7.55273 14.2838 7.63642 14.0475C7.66116 13.9779 7.60326 13.8598 7.54799 13.7881C7.10584 13.2163 6.94372 12.5844 7.08216 11.8833C7.09396 11.8256 7.1105 11.7689 7.13164 11.7137C7.15092 11.6759 7.17327 11.6396 7.19848 11.6052C7.74644 12.113 7.89066 12.7418 7.94435 13.4298C8.11753 13.1269 8.29965 12.8241 8.45493 12.5097C8.48125 12.4567 8.40703 12.3441 8.35808 12.2724C7.91119 11.6163 7.81328 10.9243 8.10226 10.1284C8.64442 10.6498 8.76549 11.2645 8.80917 11.9408C9.00025 11.6668 9.19816 11.3968 9.3766 11.1151C9.40502 11.0702 9.35607 10.9733 9.32975 10.9046C9.07499 10.2354 9.1071 9.58531 9.46503 8.95592C9.50504 8.88526 9.5603 8.82267 9.62873 8.72778C9.9714 9.2956 9.96456 9.8624 9.83402 10.4438L9.91192 10.4787C10.0346 10.2768 10.1977 10.092 10.272 9.87703C10.5425 9.08916 11.0515 8.51429 11.8358 8.16704C11.9563 8.12282 12.0793 8.08508 12.2043 8.05398C12.1896 8.17113 12.1673 8.28728 12.1374 8.40173C11.8821 9.15377 11.3863 9.71704 10.6315 10.03C10.3051 10.1657 10.1298 10.3999 9.94719 10.6705C10.5525 10.4181 11.1626 10.2571 11.8711 10.4872C11.7374 10.6059 11.6416 10.7118 11.5258 10.7901C10.9999 11.158 10.4088 11.3094 9.76348 11.2034C9.57346 11.1721 9.47293 11.2226 9.37923 11.3695C9.22132 11.6193 9.04762 11.8606 8.89497 12.1387C9.57294 11.8692 10.2472 11.7349 11.0226 12.0468C10.8094 12.1871 10.6541 12.3164 10.4762 12.4001C9.97111 12.6489 9.38813 12.7106 8.83865 12.5733C8.68548 12.5359 8.59757 12.55 8.52283 12.6924C8.36492 12.9992 8.18806 13.298 8.03383 13.6347C8.70653 13.3202 9.38397 13.1411 10.1056 13.3919L10.1935 13.4999C10.1014 13.5431 10.012 13.5913 9.9256 13.6443C9.36028 14.0274 8.73917 14.1808 8.05699 14.0481C7.87118 14.0112 7.78433 14.0607 7.71906 14.2212C7.49009 14.7855 7.25849 15.3487 7.01426 15.9069C6.91319 16.1386 6.77634 16.3556 6.66001 16.5818C6.57368 16.7488 6.46946 16.7836 6.28418 16.6933C4.24502 15.7106 2.85857 14.1904 2.26535 12.0726C1.20524 8.28716 3.40862 4.45128 7.32165 3.31969C11.869 2.00338 16.2594 4.91158 16.9163 9.11591C17.4427 12.494 15.4425 15.7459 12.139 16.9204C11.9505 16.987 11.7705 17.0754 11.5868 16.8846C11.4031 16.6938 11.4558 16.5131 11.5342 16.3026C11.7974 15.5829 12.0606 14.8612 12.2995 14.1323C12.4459 13.6882 12.5785 13.5686 13.0728 13.5267C13.5186 13.4898 13.9644 13.452 14.4066 13.3914C14.8087 13.3364 14.9298 13.1865 14.933 12.7989C14.9413 12.6974 14.9333 12.5952 14.9093 12.496C14.8524 12.3204 14.9051 12.1841 15.0282 12.06C15.1514 11.9358 15.1767 11.8303 15.0356 11.691C14.9903 11.6461 14.9909 11.4836 15.0356 11.4422C15.2025 11.2908 15.1798 11.1444 15.0677 10.993C14.9487 10.8325 14.984 10.7224 15.1498 10.6205C15.2669 10.5454 15.3771 10.461 15.4793 10.3681C15.6767 10.1935 15.6593 10.0814 15.4483 9.92498C15.1103 9.67262 14.7756 9.42026 14.4513 9.15175C14.2408 8.97964 14.1771 8.74797 14.246 8.48754C14.3582 8.06559 14.2276 7.70017 13.9981 7.33829C13.8057 7.03023 13.6375 6.70884 13.4949 6.37679C13.2712 5.86198 12.9159 5.48747 12.3443 5.35675C11.8084 5.23461 11.2631 5.14931 10.7199 5.06048C10.3514 4.99941 9.9735 4.96811 9.60241 4.90906C8.59494 4.75209 7.71906 5.01657 6.9353 5.63031C6.7029 5.80785 6.45166 5.96145 6.18575 6.0886C5.97161 6.18369 5.79871 6.34735 5.69675 6.55142C5.59908 6.73548 5.45417 6.89267 5.27566 7.0082C4.87825 7.26056 4.4861 7.49828 4.21765 7.89752C4.12975 8.02925 3.95131 8.1095 3.80603 8.20035C3.38862 8.46381 3.24492 8.78179 3.40073 9.24008C3.50223 9.52586 3.51881 9.83308 3.44863 10.1274C3.40194 10.3659 3.39572 10.6102 3.43021 10.8506C3.46705 11.1666 3.66812 11.3937 3.97868 11.5068C4.21239 11.5911 4.32819 11.7369 4.36188 11.9691C4.4082 12.2881 4.57506 12.5319 4.82087 12.764C5.04928 12.9925 5.23261 13.2587 5.36198 13.5499C5.5241 13.8946 5.74044 14.1323 6.12259 14.26C6.48473 14.3807 6.82634 14.5588 7.17532 14.7097C7.22369 14.724 7.27314 14.7346 7.32323 14.7415Z" fill="white"/>
</svg>
