<svg width="20" height="20" viewBox="0 0 20 20" fill="none" xmlns="http://www.w3.org/2000/svg">
<g opacity="0.9">
<path d="M4.29273 8.96707C4.14227 7.84575 4.19559 6.76244 4.63324 5.71715C5.3961 3.89579 6.71961 2.68842 8.6228 2.19428C11.5058 1.44515 14.4348 2.91596 15.5751 5.68441C16.0069 6.73235 16.0756 7.81197 15.9299 8.91692C15.9061 9.0253 15.8441 9.12148 15.7551 9.18775C14.7119 9.95905 13.5547 10.1132 12.3093 9.8334C11.5702 9.66816 10.9953 9.22206 10.4046 8.80078C9.85709 8.41064 9.29274 8.05376 8.62755 7.91914C7.31617 7.65517 6.0634 7.77343 4.93205 8.56215C4.74516 8.69237 4.55704 8.82119 4.36769 8.9486C4.34356 8.95782 4.31838 8.96403 4.29273 8.96707Z" fill="white"/>
<path d="M13.2284 11.4826C12.3988 11.4505 11.5962 11.1788 10.9177 10.7002C10.4399 10.3586 9.96741 9.98646 9.43948 9.74044C8.04522 9.08951 6.65519 9.13597 5.32164 9.94845C5.05768 10.1068 4.81536 10.2969 4.55826 10.4642C4.34708 10.5994 4.16125 10.5698 4.0562 10.3914C3.94322 10.1966 4.00868 10.0398 4.18026 9.91255C4.9769 9.32391 5.80311 8.80707 6.8199 8.68511C7.99718 8.54363 9.11111 8.69726 10.1253 9.34714C10.5318 9.60741 10.9261 9.88615 11.3231 10.1607C12.5337 10.9974 14.27 11.0154 15.498 10.2013C15.6294 10.1142 15.7577 10.0213 15.8908 9.93736C16.0708 9.82174 16.2492 9.8191 16.3722 10.0113C16.4884 10.1939 16.4356 10.3581 16.2635 10.4933C15.4262 11.149 14.4791 11.4874 13.2284 11.4826Z" fill="white"/>
<path d="M7.57261 13.9538C7.57261 12.8546 7.57261 11.7553 7.57261 10.6558C7.57261 10.5592 7.54674 10.4388 7.5932 10.3718C7.66975 10.2599 7.7917 10.1163 7.90204 10.1078C8.01238 10.0994 8.16178 10.2245 8.23569 10.3311C8.29746 10.4204 8.28848 10.5682 8.28848 10.6901C8.28848 12.8624 8.28655 15.0348 8.28267 17.2074C8.28267 17.3463 8.29482 17.5094 8.22988 17.6171C8.16495 17.7248 8.00287 17.8372 7.89359 17.8283C7.78431 17.8193 7.67186 17.6725 7.59531 17.5643C7.55308 17.5041 7.57842 17.3938 7.57842 17.3061C7.57842 16.189 7.57842 15.0719 7.57842 13.9548L7.57261 13.9538Z" fill="white"/>
<path d="M12.6322 14.2545C12.6322 14.8168 12.6322 15.379 12.6322 15.9439C12.6322 16.2459 12.5076 16.3974 12.2758 16.3953C12.0647 16.3953 11.9226 16.2337 11.9221 15.9597C11.9179 14.8264 11.9179 13.6928 11.9221 12.5588C11.9221 12.2067 12.1935 12.0045 12.4427 12.1745C12.543 12.2431 12.6206 12.4152 12.6248 12.544C12.6433 13.1115 12.6322 13.6833 12.6322 14.2545Z" fill="white"/>
<path d="M6.1094 12.2733C6.1094 11.7721 6.1094 11.2713 6.1094 10.7708C6.10658 10.6826 6.11099 10.5943 6.12259 10.5068C6.15638 10.3031 6.27358 10.1531 6.48475 10.1563C6.68801 10.1595 6.77934 10.3226 6.81893 10.5074C6.82787 10.5597 6.83124 10.6128 6.82896 10.6657C6.82896 11.7549 6.83213 12.8445 6.82896 13.9342C6.82896 14.2287 6.69276 14.4093 6.48739 14.4135C6.2683 14.4172 6.11362 14.2303 6.11098 13.9331C6.10517 13.3798 6.11098 12.8245 6.11098 12.2728L6.1094 12.2733Z" fill="white"/>
<path d="M13.3747 14.0947C13.3747 13.6195 13.3747 13.1444 13.3747 12.6724C13.3747 12.4085 13.5235 12.2453 13.7384 12.2501C13.9438 12.2559 14.081 12.4085 14.0821 12.6661C14.0863 13.6491 14.0863 14.6325 14.0821 15.6162C14.0821 15.8511 13.9438 15.9857 13.7294 15.9894C13.5151 15.9931 13.3778 15.8559 13.3747 15.6199C13.3688 15.1109 13.3747 14.6015 13.3747 14.092V14.0947Z" fill="white"/>
<path d="M9.73134 12.3263C9.73134 12.7043 9.73503 13.0823 9.73134 13.4603C9.72711 13.7517 9.59038 13.9249 9.37551 13.9281C9.16962 13.9312 9.01705 13.7523 9.01494 13.4619C9.00931 12.6876 9.01107 11.9133 9.02022 11.139C9.02391 10.8339 9.16645 10.6755 9.38449 10.686C9.60252 10.6966 9.72711 10.8671 9.73081 11.1612C9.7345 11.5524 9.73134 11.9393 9.73134 12.3263Z" fill="white"/>
<path d="M5.36976 12.5381C5.36976 12.9341 5.37451 13.33 5.36976 13.726C5.365 13.9989 5.22722 14.1631 5.01816 14.1694C4.8091 14.1758 4.66603 14.0227 4.66286 13.7371C4.65547 12.9367 4.65688 12.1362 4.66708 11.3355C4.67025 11.0652 4.80487 10.928 5.01868 10.9338C5.2193 10.939 5.34864 11.0921 5.36817 11.3508C5.36817 11.3772 5.36817 11.4036 5.36817 11.43C5.36976 11.7996 5.36923 12.1686 5.36976 12.5381Z" fill="white"/>
<path d="M15.5584 12.9161C15.5584 13.1178 15.5642 13.3195 15.5584 13.5206C15.5495 13.7487 15.3853 13.9271 15.1957 13.9303C15.0062 13.9334 14.8478 13.7671 14.8441 13.5243C14.8389 13.1125 14.8441 12.7007 14.8441 12.2895C14.8441 12.0598 14.9587 11.9199 15.1926 11.9199C15.4264 11.9199 15.5415 12.0635 15.551 12.2895C15.56 12.5006 15.551 12.7118 15.551 12.9198L15.5584 12.9161Z" fill="white"/>
<path d="M11.1652 12.2478C11.1652 12.3613 11.1736 12.4753 11.1652 12.5883C11.1639 12.6303 11.1544 12.6717 11.1372 12.71C11.12 12.7484 11.0954 12.783 11.0648 12.8118C11.0342 12.8406 10.9982 12.8631 10.9589 12.878C10.9196 12.893 10.8778 12.9 10.8357 12.8987C10.6415 12.9045 10.4979 12.7884 10.4841 12.582C10.4664 12.3382 10.4676 12.0933 10.4878 11.8497C10.5047 11.665 10.6299 11.553 10.8268 11.5567C11.0237 11.5604 11.1435 11.6623 11.1636 11.8534C11.1716 11.9847 11.1721 12.1164 11.1652 12.2478Z" fill="white"/>
</g>
</svg>
