<svg width="28" height="28" viewBox="0 0 28 28" fill="none" xmlns="http://www.w3.org/2000/svg">
<path d="M14 28C21.732 28 28 21.732 28 14C28 6.26801 21.732 0 14 0C6.26801 0 0 6.26801 0 14C0 21.732 6.26801 28 14 28Z" fill="#0E122F"/>
<path d="M7.32967 13.8474C7.16019 12.5844 7.22025 11.3642 7.7132 10.1868C8.57245 8.13533 10.0632 6.7754 12.2068 6.21883C15.4541 5.37504 18.7532 7.03169 20.0376 10.1499C20.524 11.3303 20.6013 12.5463 20.4372 13.7909C20.4105 13.913 20.3406 14.0213 20.2403 14.0959C19.0653 14.9647 17.7619 15.1383 16.3592 14.8232C15.5267 14.637 14.8791 14.1346 14.2137 13.6601C13.5971 13.2206 12.9614 12.8187 12.2122 12.667C10.7351 12.3697 9.32406 12.5029 8.04977 13.3913C7.83927 13.538 7.62738 13.6831 7.4141 13.8266C7.38692 13.837 7.35856 13.8439 7.32967 13.8474Z" fill="#F2B705"/>
<path d="M17.3945 16.6801C16.46 16.6439 15.556 16.3378 14.7917 15.7988C14.2536 15.4141 13.7214 14.9949 13.1268 14.7178C11.5563 13.9846 9.99068 14.0369 8.48863 14.9521C8.19132 15.1305 7.91838 15.3445 7.62879 15.533C7.39094 15.6853 7.18163 15.652 7.0633 15.451C6.93604 15.2316 7.00978 15.0549 7.20304 14.9116C8.10034 14.2486 9.03094 13.6665 10.1762 13.5291C11.5022 13.3698 12.7569 13.5428 13.8992 14.2748C14.3571 14.5679 14.8013 14.8819 15.2484 15.1911C16.6119 16.1336 18.5677 16.1538 19.9508 15.2369C20.0988 15.1388 20.2433 15.0341 20.3932 14.9396C20.596 14.8094 20.7969 14.8064 20.9355 15.0228C21.0663 15.2286 21.0068 15.4135 20.813 15.5657C19.8699 16.3043 18.8031 16.6854 17.3945 16.6801Z" fill="#57C8C4"/>
<path d="M11.0237 19.4632C11.0237 18.2252 11.0237 16.987 11.0237 15.7485C11.0237 15.6397 10.9946 15.5042 11.0469 15.4286C11.1331 15.3026 11.2705 15.1408 11.3948 15.1313C11.519 15.1218 11.6873 15.2627 11.7706 15.3828C11.8401 15.4833 11.83 15.6498 11.83 15.7872C11.83 18.2339 11.8279 20.6808 11.8235 23.1279C11.8235 23.2843 11.8372 23.4681 11.764 23.5894C11.6909 23.7107 11.5083 23.8373 11.3853 23.8272C11.2622 23.8171 11.1355 23.6518 11.0493 23.5299C11.0017 23.4621 11.0303 23.3378 11.0303 23.2391C11.0303 21.9809 11.0303 20.7227 11.0303 19.4644L11.0237 19.4632Z" fill="#57C8C4"/>
<path d="M16.7233 19.8005C16.7233 20.4337 16.7233 21.067 16.7233 21.7033C16.7233 22.0434 16.5829 22.2141 16.3219 22.2117C16.084 22.2117 15.9241 22.0297 15.9235 21.7211C15.9187 20.4446 15.9187 19.1678 15.9235 17.8905C15.9235 17.4939 16.2291 17.2661 16.5098 17.4576C16.6228 17.5349 16.7102 17.7287 16.7149 17.8738C16.7358 18.5131 16.7233 19.1571 16.7233 19.8005Z" fill="#57C8C4"/>
<path d="M9.37612 17.5701C9.37612 17.0056 9.37612 16.4415 9.37612 15.8778C9.37295 15.7784 9.37792 15.679 9.39099 15.5804C9.42905 15.3509 9.56105 15.182 9.79891 15.1856C10.0278 15.1892 10.1307 15.3729 10.1753 15.581C10.1854 15.6399 10.1892 15.6997 10.1866 15.7594C10.1866 16.9862 10.1902 18.2135 10.1866 19.4408C10.1866 19.7726 10.0332 19.976 9.80188 19.9807C9.55511 19.9849 9.38088 19.7744 9.37791 19.4396C9.37137 18.8164 9.37791 18.1909 9.37791 17.5695L9.37612 17.5701Z" fill="#57C8C4"/>
<path d="M17.5595 19.6227C17.5595 19.0875 17.5595 18.5523 17.5595 18.0207C17.5595 17.7234 17.7272 17.5397 17.9693 17.545C18.2006 17.5516 18.3552 17.7234 18.3564 18.0136C18.3611 19.1208 18.3611 20.2284 18.3564 21.3364C18.3564 21.601 18.2006 21.7527 17.9591 21.7568C17.7177 21.761 17.5631 21.6064 17.5595 21.3406C17.553 20.7674 17.5595 20.1935 17.5595 19.6197V19.6227Z" fill="#57C8C4"/>
<path d="M13.4551 17.6313C13.4551 18.057 13.4592 18.4828 13.4551 18.9086C13.4503 19.2368 13.2963 19.4318 13.0543 19.4354C12.8224 19.439 12.6505 19.2374 12.6482 18.9103C12.6418 18.0382 12.6438 17.1661 12.6541 16.294C12.6583 15.9503 12.8188 15.7719 13.0644 15.7838C13.31 15.7957 13.4503 15.9877 13.4545 16.3189C13.4586 16.7596 13.4551 17.1954 13.4551 17.6313Z" fill="#57C8C4"/>
<path d="M8.54365 17.8698C8.54365 18.3158 8.549 18.7617 8.54365 19.2077C8.53829 19.5151 8.3831 19.7001 8.14762 19.7072C7.91215 19.7143 7.751 19.5419 7.74743 19.2202C7.73911 18.3187 7.74069 17.4171 7.75219 16.5152C7.75576 16.2108 7.90739 16.0562 8.14821 16.0627C8.37418 16.0686 8.51986 16.2411 8.54186 16.5325C8.54186 16.5622 8.54186 16.5919 8.54186 16.6217C8.54365 17.0379 8.54305 17.4535 8.54365 17.8698Z" fill="#57C8C4"/>
<path d="M20.0191 18.2939C20.0191 18.5211 20.0256 18.7482 20.0191 18.9748C20.009 19.2317 19.8241 19.4327 19.6106 19.4362C19.3971 19.4398 19.2187 19.2525 19.2146 18.979C19.2086 18.5152 19.2146 18.0513 19.2146 17.5881C19.2146 17.3295 19.3436 17.1719 19.607 17.1719C19.8704 17.1719 20.0001 17.3336 20.0108 17.5881C20.0209 17.826 20.0108 18.0638 20.0108 18.2981L20.0191 18.2939Z" fill="#57C8C4"/>
<path d="M15.0702 17.5421C15.0702 17.67 15.0797 17.7984 15.0702 17.9257C15.0688 17.973 15.0581 18.0196 15.0387 18.0628C15.0193 18.106 14.9916 18.1449 14.9571 18.1774C14.9227 18.2099 14.8821 18.2352 14.8379 18.252C14.7936 18.2688 14.7465 18.2768 14.6991 18.2753C14.4803 18.2819 14.3186 18.1511 14.3031 17.9185C14.2831 17.6439 14.2845 17.3682 14.3073 17.0938C14.3263 16.8857 14.4672 16.7596 14.689 16.7638C14.9108 16.7679 15.0458 16.8827 15.0684 17.098C15.0774 17.2459 15.078 17.3942 15.0702 17.5421Z" fill="#57C8C4"/>
</svg>
