<svg width="28" height="28" viewBox="0 0 28 28" fill="none" xmlns="http://www.w3.org/2000/svg">
<path d="M14 28C21.732 28 28 21.732 28 14C28 6.26801 21.732 0 14 0C6.26801 0 0 6.26801 0 14C0 21.732 6.26801 28 14 28Z" fill="#0058E3"/>
<rect width="28" height="28" rx="14" fill="black"/>
<path d="M16.67 16.8699L11.35 16.8755L11.2744 16.7922C11.2744 15.1588 11.2756 13.5255 11.2779 11.8922C11.2779 11.4435 11.3115 11.4092 11.7525 11.4092C13.2456 11.4092 14.7387 11.4092 16.2325 11.4127C16.3809 11.4252 16.528 11.4505 16.6721 11.4883L16.6609 11.4771C16.6966 11.5473 16.7214 11.6226 16.7344 11.7004C16.7344 13.4112 16.7295 15.1222 16.7197 16.8335C16.704 16.8467 16.6874 16.8589 16.67 16.8699Z" fill="white"/>
<path d="M8.59419 11.4799C7.80249 11.4799 7.01009 11.4736 6.21839 11.4848C5.97479 11.4883 5.88379 11.3861 5.88379 11.1614C5.88379 9.55372 5.88379 7.94629 5.88379 6.33909C5.88379 6.04089 6.09869 6.01989 6.32059 6.01989H9.60569C10.06 6.01989 10.5157 6.02619 10.9686 6.01989C11.2318 6.01569 11.3466 6.12699 11.3459 6.39299C11.3417 7.98899 11.3417 9.58499 11.3459 11.181C11.3459 11.4092 11.2654 11.4876 11.0393 11.4848C10.2238 11.4743 9.40969 11.4799 8.59419 11.4799Z" fill="white"/>
<path d="M16.6675 11.489C16.6324 11.2871 16.6091 11.0832 16.5975 10.8786C16.5912 9.43381 16.594 7.989 16.5975 6.54491C16.5975 6.10461 16.6794 6.02271 17.1253 6.02271C18.6051 6.02271 20.0847 6.02271 21.564 6.02271C22.0085 6.02271 22.0652 6.08151 22.0652 6.52741C22.0652 8.05341 22.0603 9.57941 22.0694 11.1061C22.0694 11.3861 21.977 11.5065 21.69 11.5037C20.01 11.4904 18.3356 11.4855 16.6584 11.4785L16.6675 11.489Z" fill="white"/>
<path d="M11.2742 16.7922L11.3554 16.8734C11.3526 18.5068 11.35 20.1401 11.3477 21.7734C11.3477 22.1934 11.284 22.2634 10.8675 22.2634C9.37413 22.2634 7.8808 22.2634 6.38746 22.2634C5.94996 22.2634 5.88696 22.1934 5.88696 21.7608C5.88696 20.2558 5.89606 18.7508 5.87996 17.2465C5.87646 16.8965 5.98636 16.7901 6.33986 16.7936C7.98416 16.8055 9.62636 16.7936 11.2742 16.7922Z" fill="white"/>
<path d="M16.6702 16.8699C16.6861 16.8597 16.7013 16.8484 16.7157 16.8363C16.8182 16.8198 16.9215 16.8088 17.0251 16.8034C18.5763 16.8034 20.1282 16.8083 21.6794 16.7964C21.9664 16.7964 22.0693 16.8776 22.0672 17.1709C22.0574 18.7342 22.0574 20.2976 22.0672 21.8609C22.0672 22.1675 21.9398 22.2676 21.6472 22.2662C20.1184 22.2592 18.5901 22.2592 17.0622 22.2662C16.75 22.2662 16.5904 22.1479 16.5918 21.8217C16.5953 20.2698 16.5918 18.7179 16.5967 17.1667C16.6094 17.0652 16.6341 16.9656 16.6702 16.8699Z" fill="white"/>
</svg>
