<svg width="20" height="20" viewBox="0 0 20 20" fill="none" xmlns="http://www.w3.org/2000/svg">
<path d="M11.9077 12.0499L8.10771 12.0539L8.05371 11.9944C8.05371 10.8277 8.05454 9.66108 8.05621 8.49441C8.05621 8.17391 8.08021 8.14941 8.39521 8.14941C9.46171 8.14941 10.5282 8.14941 11.5952 8.15191C11.7012 8.16085 11.8063 8.17892 11.9092 8.20591L11.9012 8.19791C11.9267 8.2481 11.9444 8.30188 11.9537 8.35741C11.9537 9.57941 11.9502 10.8016 11.9432 12.0239C11.932 12.0334 11.9201 12.0421 11.9077 12.0499Z" fill="white"/>
<path d="M6.13913 8.19989C5.57363 8.19989 5.00762 8.19539 4.44212 8.20339C4.26812 8.20589 4.20312 8.13289 4.20312 7.97239C4.20312 6.82405 4.20312 5.67589 4.20312 4.52789C4.20312 4.31489 4.35662 4.29989 4.51512 4.29989H6.86162C7.18613 4.29989 7.51163 4.30439 7.83512 4.29989C8.02312 4.29689 8.10512 4.37639 8.10462 4.56639C8.10162 5.70639 8.10162 6.84639 8.10462 7.98639C8.10462 8.14939 8.04712 8.20539 7.88562 8.20339C7.30312 8.19589 6.72163 8.19989 6.13913 8.19989Z" fill="white"/>
<path d="M11.9062 8.2065C11.8812 8.06225 11.8645 7.91668 11.8562 7.7705C11.8517 6.7385 11.8537 5.7065 11.8562 4.675C11.8562 4.3605 11.9147 4.302 12.2332 4.302C13.2902 4.302 14.347 4.302 15.4037 4.302C15.7212 4.302 15.7617 4.344 15.7617 4.6625C15.7617 5.7525 15.7582 6.8425 15.7647 7.933C15.7647 8.133 15.6987 8.219 15.4937 8.217C14.2937 8.2075 13.0977 8.204 11.8997 8.199L11.9062 8.2065Z" fill="white"/>
<path d="M8.05325 11.9944L8.11125 12.0524C8.10925 13.2191 8.10742 14.3857 8.10575 15.5524C8.10575 15.8524 8.06025 15.9024 7.76275 15.9024C6.69609 15.9024 5.62942 15.9024 4.56275 15.9024C4.25025 15.9024 4.20525 15.8524 4.20525 15.5434C4.20525 14.4684 4.21175 13.3934 4.20025 12.3189C4.19775 12.0689 4.27625 11.9929 4.52875 11.9954C5.70325 12.0039 6.87625 11.9954 8.05325 11.9944Z" fill="white"/>
<path d="M11.9076 12.0498C11.9189 12.0425 11.9297 12.0345 11.9401 12.0258C12.0133 12.014 12.087 12.0062 12.1611 12.0023C13.2691 12.0023 14.3776 12.0058 15.4856 11.9973C15.6906 11.9973 15.7641 12.0553 15.7626 12.2648C15.7556 13.3815 15.7556 14.4981 15.7626 15.6148C15.7626 15.8338 15.6716 15.9053 15.4626 15.9043C14.3706 15.8993 13.2789 15.8993 12.1876 15.9043C11.9646 15.9043 11.8506 15.8198 11.8516 15.5868C11.8541 14.4783 11.8516 13.3698 11.8551 12.2618C11.8641 12.1893 11.8817 12.1182 11.9076 12.0498Z" fill="white"/>
</svg>
