<svg width="20" height="20" viewBox="0 0 20 20" fill="none" xmlns="http://www.w3.org/2000/svg">
<path d="M9.41913 9.42062C9.93021 9.54299 10.4629 9.54299 10.9668 9.42062C11.2547 8.24009 12.1761 7.3187 13.3566 7.03077C13.7813 5.28157 12.716 3.51797 10.9668 3.09327C9.21758 2.66857 7.46118 3.73392 7.02928 5.48312C6.90691 5.9942 6.90691 6.52688 7.02928 7.03077C8.20981 7.3259 9.1312 8.24729 9.41913 9.42062Z" fill="#7ABDF7"/>
<path d="M10.9731 10.9756C10.4621 10.8532 9.92939 10.8532 9.4255 10.9756C9.13757 12.1561 8.21618 13.0775 7.03565 13.3654C6.61095 15.1146 7.6763 16.8782 9.4255 17.3029C11.1747 17.7276 12.9383 16.6623 13.363 14.9131C13.4854 14.402 13.4854 13.8765 13.363 13.3654C12.1825 13.0703 11.2611 12.1489 10.9731 10.9756Z" fill="#0D74F5"/>
<path d="M14.1331 6.9375C13.8739 6.9375 13.6148 6.96629 13.3557 7.03108C13.0677 8.21161 12.1463 9.133 10.9658 9.42093C10.8434 9.93201 10.8434 10.4647 10.9658 10.9686C12.1463 11.2565 13.0677 12.1779 13.3557 13.3584C15.1049 13.7831 16.8685 12.7178 17.2932 10.9686C17.7179 9.21938 16.6525 7.45578 14.9033 7.03108C14.6586 6.97349 14.3994 6.9375 14.1331 6.9375Z" fill="#4494F7"/>
<path d="M9.41867 10.9755C9.54104 10.4644 9.54104 9.9317 9.41867 9.42782C8.24533 9.13269 7.32395 8.2113 7.02881 7.03077C5.27961 6.60607 3.51602 7.67142 3.09131 9.42062C2.66661 11.1698 3.73197 12.9334 5.48117 13.3653C5.99225 13.4877 6.51773 13.4877 7.02881 13.3653C7.32395 12.1848 8.23814 11.2634 9.41867 10.9755Z" fill="#005CF4"/>
<path d="M10.9727 9.4211C12.1532 9.13317 13.0746 8.21178 13.3625 7.03125C12.182 7.32638 11.2606 8.24777 10.9727 9.4211Z" fill="#186EF9"/>
<path d="M10.9727 10.9746C11.2606 12.1551 12.182 13.0765 13.3625 13.3645C13.0674 12.1839 12.1532 11.2625 10.9727 10.9746Z" fill="#0246F2"/>
<path d="M9.41915 9.4211C9.13122 8.24777 8.20983 7.32638 7.0293 7.03125C7.32443 8.21178 8.24582 9.13317 9.41915 9.4211Z" fill="#0046F8"/>
<path d="M9.41915 10.9746C8.23862 11.2625 7.31723 12.1839 7.0293 13.3645C8.20983 13.0693 9.13122 12.1479 9.41915 10.9746Z" fill="#0729F1"/>
<path opacity="0.2" d="M9.41913 9.42062C9.93021 9.54299 10.4629 9.54299 10.9668 9.42062C11.2547 8.24009 12.1761 7.3187 13.3566 7.03077C13.7813 5.28157 12.716 3.51797 10.9668 3.09327C9.21758 2.66857 7.46118 3.73392 7.02928 5.48312C6.90691 5.9942 6.90691 6.52688 7.02928 7.03077C8.20981 7.3259 9.1312 8.24729 9.41913 9.42062Z" fill="white"/>
<path opacity="0.6" d="M10.9731 10.9756C10.4621 10.8532 9.92939 10.8532 9.4255 10.9756C9.13757 12.1561 8.21618 13.0775 7.03565 13.3654C6.61095 15.1146 7.6763 16.8782 9.4255 17.3029C11.1747 17.7276 12.9383 16.6623 13.363 14.9131C13.4854 14.402 13.4854 13.8765 13.363 13.3654C12.1825 13.0703 11.2611 12.1489 10.9731 10.9756Z" fill="white"/>
<path opacity="0.4" d="M14.1331 6.9375C13.8739 6.9375 13.6148 6.96629 13.3557 7.03108C13.0677 8.21161 12.1463 9.133 10.9658 9.42093C10.8434 9.93201 10.8434 10.4647 10.9658 10.9686C12.1463 11.2565 13.0677 12.1779 13.3557 13.3584C15.1049 13.7831 16.8685 12.7178 17.2932 10.9686C17.7179 9.21938 16.6525 7.45578 14.9033 7.03108C14.6586 6.97349 14.3994 6.9375 14.1331 6.9375Z" fill="white"/>
<path opacity="0.8" d="M9.41867 10.9755C9.54104 10.4644 9.54104 9.9317 9.41867 9.42782C8.24533 9.13269 7.32395 8.2113 7.02881 7.03077C5.27961 6.60607 3.51602 7.67142 3.09131 9.42062C2.66661 11.1698 3.73197 12.9334 5.48117 13.3653C5.99225 13.4877 6.51773 13.4877 7.02881 13.3653C7.32395 12.1848 8.23814 11.2634 9.41867 10.9755Z" fill="white"/>
<path opacity="0.9" d="M10.9727 9.4211C12.1532 9.13317 13.0746 8.21178 13.3625 7.03125C12.182 7.32638 11.2606 8.24777 10.9727 9.4211Z" fill="white"/>
<path opacity="0.9" d="M10.9727 10.9746C11.2606 12.1551 12.182 13.0765 13.3625 13.3645C13.0674 12.1839 12.1532 11.2625 10.9727 10.9746Z" fill="white"/>
<path opacity="0.9" d="M9.41915 9.4211C9.13122 8.24777 8.20983 7.32638 7.0293 7.03125C7.32443 8.21178 8.24582 9.13317 9.41915 9.4211Z" fill="white"/>
<path opacity="0.9" d="M9.41915 10.9746C8.23862 11.2625 7.31723 12.1839 7.0293 13.3645C8.20983 13.0693 9.13122 12.1479 9.41915 10.9746Z" fill="white"/>
</svg>
