<svg width="28" height="28" viewBox="0 0 28 28" fill="none" xmlns="http://www.w3.org/2000/svg">
<path d="M14 28C21.732 28 28 21.732 28 14C28 6.26801 21.732 0 14 0C6.26801 0 0 6.26801 0 14C0 21.732 6.26801 28 14 28Z" fill="#0058E3"/>
<path d="M13.3108 13.3126C13.8929 13.452 14.4995 13.452 15.0734 13.3126C15.4014 11.9681 16.4508 10.9187 17.7953 10.5907C18.279 8.59854 17.0656 6.58993 15.0734 6.10623C13.0812 5.62252 11.0808 6.83588 10.5889 8.82809C10.4495 9.41018 10.4495 10.0169 10.5889 10.5907C11.9334 10.9269 12.9828 11.9763 13.3108 13.3126Z" fill="#7ABDF7"/>
<path d="M15.081 15.083C14.4989 14.9437 13.8922 14.9437 13.3183 15.083C12.9904 16.4276 11.941 17.477 10.5965 17.8049C10.1128 19.7971 11.3261 21.8057 13.3183 22.2894C15.3105 22.7731 17.3191 21.5598 17.8028 19.5676C17.9422 18.9855 17.9422 18.387 17.8028 17.8049C16.4583 17.4688 15.4089 16.4194 15.081 15.083Z" fill="#0D74F5"/>
<path d="M18.6806 10.4844C18.3854 10.4844 18.0903 10.5172 17.7951 10.591C17.4672 11.9355 16.4178 12.9849 15.0733 13.3128C14.9339 13.8949 14.9339 14.5016 15.0733 15.0755C16.4178 15.4034 17.4672 16.4528 17.7951 17.7973C19.7874 18.281 21.796 17.0677 22.2797 15.0755C22.7634 13.0833 21.55 11.0747 19.5578 10.591C19.2791 10.5254 18.9839 10.4844 18.6806 10.4844Z" fill="#4494F7"/>
<path d="M13.3107 15.0833C13.45 14.5012 13.45 13.8946 13.3107 13.3207C11.9743 12.9845 10.9249 11.9351 10.5888 10.5906C8.59658 10.1069 6.58798 11.3203 6.10427 13.3125C5.62057 15.3047 6.83393 17.3133 8.82614 17.8052C9.40823 17.9446 10.0067 17.9446 10.5888 17.8052C10.9249 16.4607 11.9661 15.4113 13.3107 15.0833Z" fill="#005CF4"/>
<path d="M15.0811 13.3127C16.4256 12.9848 17.475 11.9354 17.8029 10.5908C16.4584 10.927 15.409 11.9763 15.0811 13.3127Z" fill="#186EF9"/>
<path d="M15.0811 15.083C15.409 16.4275 16.4584 17.4769 17.8029 17.8049C17.4668 16.4603 16.4256 15.4109 15.0811 15.083Z" fill="#0246F2"/>
<path d="M13.3107 13.3127C12.9828 11.9763 11.9334 10.927 10.5889 10.5908C10.925 11.9354 11.9744 12.9848 13.3107 13.3127Z" fill="#0046F8"/>
<path d="M13.3107 15.083C11.9662 15.4109 10.9168 16.4603 10.5889 17.8049C11.9334 17.4687 12.9828 16.4193 13.3107 15.083Z" fill="#0729F1"/>
<path opacity="0.2" d="M13.3108 13.3126C13.8929 13.452 14.4995 13.452 15.0734 13.3126C15.4014 11.9681 16.4508 10.9187 17.7953 10.5907C18.279 8.59854 17.0656 6.58993 15.0734 6.10623C13.0812 5.62252 11.0808 6.83588 10.5889 8.82809C10.4495 9.41018 10.4495 10.0169 10.5889 10.5907C11.9334 10.9269 12.9828 11.9763 13.3108 13.3126Z" fill="white"/>
<path opacity="0.6" d="M15.081 15.083C14.4989 14.9437 13.8922 14.9437 13.3183 15.083C12.9904 16.4276 11.941 17.477 10.5965 17.8049C10.1128 19.7971 11.3261 21.8057 13.3183 22.2894C15.3105 22.7731 17.3191 21.5598 17.8028 19.5676C17.9422 18.9855 17.9422 18.387 17.8028 17.8049C16.4583 17.4688 15.4089 16.4194 15.081 15.083Z" fill="white"/>
<path opacity="0.4" d="M18.6806 10.4844C18.3854 10.4844 18.0903 10.5172 17.7951 10.591C17.4672 11.9355 16.4178 12.9849 15.0733 13.3128C14.9339 13.8949 14.9339 14.5016 15.0733 15.0755C16.4178 15.4034 17.4672 16.4528 17.7951 17.7973C19.7874 18.281 21.796 17.0677 22.2797 15.0755C22.7634 13.0833 21.55 11.0747 19.5578 10.591C19.2791 10.5254 18.9839 10.4844 18.6806 10.4844Z" fill="white"/>
<path opacity="0.8" d="M13.3107 15.0833C13.45 14.5012 13.45 13.8946 13.3107 13.3207C11.9743 12.9845 10.9249 11.9351 10.5888 10.5906C8.59658 10.1069 6.58798 11.3203 6.10427 13.3125C5.62057 15.3047 6.83393 17.3133 8.82614 17.8052C9.40823 17.9446 10.0067 17.9446 10.5888 17.8052C10.9249 16.4607 11.9661 15.4113 13.3107 15.0833Z" fill="white"/>
<path opacity="0.9" d="M15.0811 13.3127C16.4256 12.9848 17.475 11.9354 17.8029 10.5908C16.4584 10.927 15.409 11.9763 15.0811 13.3127Z" fill="white"/>
<path opacity="0.9" d="M15.0811 15.083C15.409 16.4275 16.4584 17.4769 17.8029 17.8049C17.4668 16.4603 16.4256 15.4109 15.0811 15.083Z" fill="white"/>
<path opacity="0.9" d="M13.3107 13.3127C12.9828 11.9763 11.9334 10.927 10.5889 10.5908C10.925 11.9354 11.9744 12.9848 13.3107 13.3127Z" fill="white"/>
<path opacity="0.9" d="M13.3107 15.083C11.9662 15.4109 10.9168 16.4603 10.5889 17.8049C11.9334 17.4687 12.9828 16.4193 13.3107 15.083Z" fill="white"/>
</svg>
