<svg width="20" height="20" viewBox="0 0 20 20" fill="none" xmlns="http://www.w3.org/2000/svg">
<path fill-rule="evenodd" clip-rule="evenodd" d="M8.95972 6.73234C8.47684 6.34325 7.90976 6.11648 7.21886 6.0347C7.01704 6.01115 6.57378 6.00124 6.37443 6.01611C4.87502 6.12763 3.64552 6.89839 2.83452 8.23668C2.47174 8.83519 2.21544 9.55514 2.08048 10.3556C2.01238 10.7633 2.00124 10.9058 2 11.3569C2 11.8141 2.01362 11.9789 2.08048 12.311C2.36402 13.7261 3.26788 14.6555 4.61377 14.9182C4.90969 14.9752 5.10408 14.9926 5.46686 14.9913C5.92374 14.9913 6.20728 14.9566 6.61835 14.8513C8.05958 14.4833 9.22098 13.3631 9.76824 11.8154C10.1347 10.777 10.2449 9.61338 10.0654 8.69641C9.90568 7.88228 9.50699 7.17224 8.95972 6.73234ZM6.38187 7.5031C6.12433 7.52788 5.84946 7.60471 5.62782 7.71252C4.84407 8.09542 4.28689 9.0285 4.06774 10.3222C3.96869 10.9095 3.93154 11.6444 3.98107 12.0359C4.08136 12.8377 4.44538 13.3185 5.06941 13.4709C5.33933 13.5366 5.73307 13.539 6.02775 13.4758C7.02942 13.2639 7.74013 12.3445 8.02862 10.886C8.0732 10.658 8.13015 10.2392 8.16111 9.90706C8.19206 9.55886 8.18958 9.08922 8.15368 8.86741C8.09053 8.4684 7.95433 8.15614 7.74508 7.92813C7.54945 7.71376 7.29068 7.57745 6.97371 7.52169C6.84122 7.49814 6.53416 7.48823 6.38187 7.5031Z" fill="white"/>
<path fill-rule="evenodd" clip-rule="evenodd" d="M18.3141 6.91078C17.8089 6.40273 17.1477 6.11648 16.2884 6.0347C16.1423 6.02107 15.7139 6.01487 14.2987 6.00867L12.4947 6L12.4873 6.02974C12.4835 6.04585 12.1158 8.05328 11.6701 10.4895C11.3724 12.1164 11.109 13.5543 10.9657 14.3364L10.8516 14.9591L10.8442 15H12.7522L12.7646 14.9343C12.7906 14.8067 13.3354 11.8501 13.3354 11.8401C13.3354 11.8327 13.7749 11.829 14.4225 11.8315C15.6074 11.834 15.6644 11.8315 16.0965 11.7584C16.9162 11.6208 17.6095 11.2887 18.1345 10.7831C18.6125 10.3234 18.8811 9.78191 18.9777 9.08922C19.0074 8.86865 19.0074 8.42627 18.9777 8.2404C18.8886 7.69888 18.6781 7.27633 18.3141 6.91078ZM13.9069 8.69827C14.0262 8.05258 14.1195 7.54775 14.1229 7.53656C14.1291 7.51673 14.1835 7.51549 15.0478 7.51549C15.6421 7.51549 16.0061 7.52045 16.0779 7.52912C16.3726 7.56506 16.6363 7.69021 16.8023 7.87113C16.9261 8.0062 17.0066 8.15366 17.0573 8.33953C17.0895 8.45477 17.0945 8.77819 17.0685 8.94796C16.9595 9.6456 16.4593 10.1375 15.7053 10.29C15.47 10.337 15.3288 10.342 14.446 10.3333L13.6066 10.3247L13.6128 10.2924C13.6165 10.2751 13.7316 9.6518 13.8678 8.90954L13.9069 8.69827Z" fill="white"/>
</svg>
