<svg width="28" height="28" viewBox="0 0 28 28" fill="none" xmlns="http://www.w3.org/2000/svg">
<circle cx="14" cy="14" r="14" fill="white"/>
<mask id="mask0" mask-type="alpha" maskUnits="userSpaceOnUse" x="0" y="0" width="28" height="28">
<circle cx="14" cy="14" r="14" fill="white"/>
</mask>
<g mask="url(#mask0)">
<path d="M10.113 11.0939C9.86915 11.1174 9.60892 11.1901 9.3991 11.292C8.65709 11.6543 8.1296 12.537 7.92212 13.7608C7.82835 14.3165 7.79318 15.0116 7.84007 15.382C7.93502 16.1405 8.27964 16.5953 8.87043 16.7395C9.12597 16.8017 9.49874 16.804 9.77772 16.7442C10.726 16.5438 11.3989 15.6739 11.672 14.2942C11.7142 14.0785 11.7681 13.6823 11.7974 13.3681C11.8267 13.0387 11.8244 12.5944 11.7904 12.3846C11.7306 12.0071 11.6017 11.7117 11.4036 11.496C11.2184 11.2932 10.9734 11.1643 10.6733 11.1115C10.5479 11.0892 10.2572 11.0799 10.113 11.0939Z" fill="#FE0420"/>
<path d="M17.2361 12.2297C17.3496 11.6164 17.4384 11.1362 17.4416 11.1256C17.4475 11.1068 17.499 11.1056 18.3172 11.1056C18.8799 11.1056 19.2245 11.1103 19.2925 11.1185C19.5715 11.1525 19.8212 11.2709 19.9782 11.4421C20.0955 11.5699 20.1717 11.7094 20.2197 11.8852C20.2502 11.9942 20.2549 12.3002 20.2303 12.4608C20.1271 13.1208 19.6535 13.5861 18.9397 13.7303C18.717 13.7749 18.5833 13.7796 17.7475 13.7714L16.9528 13.7632L16.9587 13.7327C16.9622 13.7163 17.0712 13.1266 17.2001 12.4244L17.2361 12.2297Z" fill="#FE0420"/>
<path fill-rule="evenodd" clip-rule="evenodd" d="M13.5253 -3.99775C12.5312 -3.96375 11.6896 -3.87818 10.794 -3.71758C7.67361 -3.15841 4.73372 -1.76342 2.31898 0.302099C1.9216 0.642055 1.72819 0.82141 1.27455 1.27507C0.718922 1.8319 0.383671 2.20233 -0.0476999 2.74157C-2.32647 5.58547 -3.68388 9.02488 -3.95114 12.6354C-4.00037 13.3001 -4.01444 14.2942 -3.98396 14.8686C-3.8937 16.5098 -3.63465 17.9563 -3.16576 19.4416C-2.51285 21.5118 -1.44614 23.5128 -0.0922437 25.2056C0.628662 26.1082 1.4703 26.9769 2.33656 27.7166C5.22839 30.183 8.8505 31.6729 12.6344 31.9531C13.1396 31.9906 13.4057 32 13.9941 32C14.5861 32 14.878 31.9894 15.3656 31.9531C18.9795 31.6823 22.4059 30.333 25.2403 28.0659C25.7842 27.631 26.164 27.2887 26.7255 26.7272C27.2811 26.1704 27.6163 25.7999 28.0477 25.2607C30.3265 22.4168 31.6839 18.9774 31.9511 15.3668C32.0004 14.7021 32.0144 13.7081 31.984 13.1337C31.8937 11.4925 31.6346 10.0459 31.1658 8.56067C30.5128 6.49046 29.4461 4.48941 28.0922 2.79667C27.3713 1.89403 26.5297 1.02538 25.6634 0.285687C23.598 -1.47622 21.1223 -2.76101 18.4954 -3.43624C17.3185 -3.73868 16.1885 -3.90983 14.8967 -3.98134C14.6705 -3.99423 13.7386 -4.00478 13.5253 -3.99775ZM10.9054 9.70479C11.5595 9.78216 12.0963 9.99669 12.5535 10.3648C13.0716 10.7809 13.4491 11.4526 13.6003 12.2228C13.7702 13.0903 13.6659 14.191 13.3189 15.1734C12.8008 16.6375 11.7013 17.6973 10.3369 18.0454C9.94769 18.1451 9.67925 18.1779 9.24671 18.1779C8.90325 18.1791 8.71922 18.1626 8.43906 18.1087C7.16487 17.8602 6.30917 16.981 6.04073 15.6423C5.97743 15.3281 5.96454 15.1722 5.96454 14.7396C5.96571 14.3129 5.97626 14.1781 6.04073 13.7925C6.1685 13.0352 6.41115 12.3541 6.7546 11.7879C7.5224 10.5219 8.6864 9.79271 10.1059 9.68721C10.2947 9.67314 10.7143 9.68252 10.9054 9.70479ZM19.4918 9.70479C20.3053 9.78216 20.9312 10.053 21.4095 10.5336C21.7541 10.8794 21.9534 11.2791 22.0378 11.7914C22.0659 11.9673 22.0659 12.3857 22.0378 12.5944C21.9464 13.2497 21.692 13.762 21.2395 14.1969C20.7425 14.6752 20.0861 14.9893 19.3101 15.1195C18.901 15.1886 18.8471 15.191 17.7253 15.1886C17.1122 15.1863 16.6961 15.1898 16.6961 15.1968C16.6961 15.2062 16.1803 18.0032 16.1557 18.124L16.144 18.1861H14.3376L14.3446 18.1474C14.3458 18.1408 14.3844 17.9302 14.4507 17.5684L14.4526 17.5583C14.5882 16.8184 14.8376 15.4582 15.1195 13.9191C15.5414 11.6144 15.8896 9.71534 15.8931 9.7001L15.9001 9.67197L17.608 9.68017C18.9479 9.68604 19.3535 9.6919 19.4918 9.70479Z" fill="#FE0420"/>
</g>
</svg>
