<svg width="28" height="28" viewBox="0 0 28 28" fill="none" xmlns="http://www.w3.org/2000/svg">
<path d="M12.6135 13.8042C10.8988 13.5897 9.16304 13.3917 7.41405 13.332C6.21818 13.2921 5.02342 13.2048 3.83309 13.0964C2.99565 13.0201 2.35071 12.6075 2.10401 11.7691C1.86285 10.9573 2.09184 10.2461 2.75781 9.68871C3.29877 9.23634 4.20922 9.18104 4.93271 9.64004C5.6562 10.099 6.35978 10.6255 7.07 11.1166C7.35652 11.3168 7.63087 11.538 7.92846 11.7205C8.38534 12.0003 8.89643 11.882 9.13206 11.4672C9.35331 11.0856 9.19844 10.5824 8.73934 10.3446C7.64193 9.77277 6.53568 9.23413 5.43495 8.66895C4.73027 8.30286 3.99129 8.01529 3.33306 7.56182C2.93006 7.2982 2.59941 6.93798 2.37122 6.51396C2.14303 6.08994 2.02456 5.61559 2.02657 5.13409C2.02657 4.85759 2.02657 4.58108 2.02657 4.30457C2.03432 3.29588 2.63944 2.38783 3.48905 2.10911C4.43379 1.79168 5.60974 2.18764 6.19274 3.02711C7.85323 5.41723 9.6332 7.71887 11.3579 10.0637C11.7716 10.6277 12.1831 11.1951 12.6057 11.7526C12.6986 11.8753 12.7628 12.0545 13.0106 12.0534C13.0737 11.7614 12.8579 11.5822 12.7263 11.3898C11.5835 9.74069 10.4142 8.10598 9.28805 6.44252C8.44176 5.19382 8.66412 3.66308 9.77591 2.69199C10.6189 1.95537 11.9763 1.78726 12.9332 2.30266C14.0394 2.89771 14.6456 3.98161 14.4819 5.1717C14.3215 6.31975 14.1113 7.46117 13.9288 8.60591C13.8967 8.80167 13.868 8.99855 13.827 9.26399C14.0804 9.13016 14.0726 8.93219 14.1158 8.77624C14.4985 7.4114 14.8968 6.04988 15.2508 4.6762C15.6357 3.15099 17.1712 1.96422 18.7045 2.02616C20.1581 2.08588 21.6195 2.09252 23.072 2.02616C24.28 1.96754 25.5279 3.07467 25.8465 4.0336C26.2248 5.1717 25.8963 6.55202 24.9438 7.29858C23.0189 8.80831 21.063 10.2937 19.1238 11.7846C18.1912 12.5047 17.2597 13.2225 16.3404 13.9646C16.1944 14.0752 15.8592 14.2168 16.0617 14.4524C16.2254 14.6437 16.4101 14.3683 16.5584 14.2511C18.4125 12.7933 20.2533 11.3256 22.1184 9.87673C22.5134 9.5524 23.0031 9.36525 23.5137 9.3435C24.0244 9.32176 24.5282 9.4666 24.9493 9.75618C25.779 10.3092 26.1662 11.35 25.9273 12.3874C25.7259 13.2579 24.8022 14.0265 23.7844 14.1261C22.1903 14.282 20.594 14.4137 18.9988 14.5552C18.9248 14.5553 18.8508 14.5605 18.7775 14.5707C18.6492 14.6006 18.4302 14.5431 18.4578 14.7643C18.4777 14.9224 18.6669 14.8881 18.7897 14.8826C19.8749 14.8339 20.9635 14.814 22.0454 14.7156C24.0853 14.5298 25.9593 16.1789 25.9715 18.2317C25.9826 20.1119 25.977 21.9921 25.9715 23.8724C25.9715 24.8866 25.2912 25.7681 24.4017 25.9396C23.2955 26.153 22.3673 25.6708 21.9104 24.6665C21.3695 23.4764 20.8042 22.2952 20.2688 21.1029C20.0475 20.6185 19.709 20.3154 19.168 20.3342C18.741 20.3497 18.3759 20.5311 18.21 20.9624C18.0109 21.4845 18.1536 21.9324 18.5297 22.3273C18.8616 22.6723 19.2233 22.9854 19.4037 23.4532C19.8816 24.6942 19.0474 25.9174 17.7244 25.9871C15.6125 26.0977 14.7563 25.5259 14.5162 23.1269C14.3016 20.9481 13.9631 18.7802 13.6788 16.608C13.6644 16.4919 13.7009 16.3459 13.5383 16.2463C13.4354 16.4731 13.5449 16.681 13.5704 16.8834C13.7817 18.5834 14.0062 20.2811 14.2175 21.9811C14.472 24.0283 12.7882 25.9628 10.7184 25.9727C8.85661 25.9849 6.99477 25.9727 5.13184 25.9617C3.73463 25.9495 2.45912 24.8932 2.10291 23.4919C1.73452 22.0408 2.38168 20.4371 3.62069 19.7679C5.14622 18.945 6.79454 18.3953 8.36653 17.6731C9.35442 17.2196 10.3666 16.8193 11.3634 16.3868C11.5946 16.2862 11.9165 16.1744 11.7627 15.8471C11.609 15.5197 11.3202 15.7055 11.0879 15.8095C9.33193 16.6205 7.57777 17.4361 5.82546 18.256C4.38733 18.9196 2.83857 18.4219 2.24672 17.1002C1.46017 15.3505 2.65825 13.4503 4.613 13.4636C6.54563 13.4768 8.47716 13.6118 10.4087 13.6958C11.1443 13.7279 11.8789 13.7677 12.6135 13.8042Z" fill="#4D286D"/>
<mask id="mask0_18438_6601" style="mask-type:alpha" maskUnits="userSpaceOnUse" x="2" y="2" width="24" height="24">
<path d="M12.6135 13.8042C10.8988 13.5897 9.16304 13.3917 7.41405 13.332C6.21818 13.2921 5.02342 13.2048 3.83309 13.0964C2.99565 13.0201 2.35071 12.6075 2.10401 11.7691C1.86285 10.9573 2.09184 10.2461 2.75781 9.68871C3.29877 9.23634 4.20922 9.18104 4.93271 9.64004C5.6562 10.099 6.35978 10.6255 7.07 11.1166C7.35652 11.3168 7.63087 11.538 7.92846 11.7205C8.38534 12.0003 8.89643 11.882 9.13206 11.4672C9.35331 11.0856 9.19844 10.5824 8.73934 10.3446C7.64193 9.77277 6.53568 9.23413 5.43495 8.66895C4.73027 8.30286 3.99129 8.01529 3.33306 7.56182C2.93006 7.2982 2.59941 6.93798 2.37122 6.51396C2.14303 6.08994 2.02456 5.61559 2.02657 5.13409C2.02657 4.85759 2.02657 4.58108 2.02657 4.30457C2.03432 3.29588 2.63944 2.38783 3.48905 2.10911C4.43379 1.79168 5.60974 2.18764 6.19274 3.02711C7.85323 5.41723 9.6332 7.71887 11.3579 10.0637C11.7716 10.6277 12.1831 11.1951 12.6057 11.7526C12.6986 11.8753 12.7628 12.0545 13.0106 12.0534C13.0737 11.7614 12.8579 11.5822 12.7263 11.3898C11.5835 9.74069 10.4142 8.10598 9.28805 6.44252C8.44176 5.19382 8.66412 3.66308 9.77591 2.69199C10.6189 1.95537 11.9763 1.78726 12.9332 2.30266C14.0394 2.89771 14.6456 3.98161 14.4819 5.1717C14.3215 6.31975 14.1113 7.46117 13.9288 8.60591C13.8967 8.80167 13.868 8.99855 13.827 9.26399C14.0804 9.13016 14.0726 8.93219 14.1158 8.77624C14.4985 7.4114 14.8968 6.04988 15.2508 4.6762C15.6357 3.15099 17.1712 1.96422 18.7045 2.02616C20.1581 2.08588 21.6195 2.09252 23.072 2.02616C24.28 1.96754 25.5279 3.07467 25.8465 4.0336C26.2248 5.1717 25.8963 6.55202 24.9438 7.29858C23.0189 8.80831 21.063 10.2937 19.1238 11.7846C18.1912 12.5047 17.2597 13.2225 16.3404 13.9646C16.1944 14.0752 15.8592 14.2168 16.0617 14.4524C16.2254 14.6437 16.4101 14.3683 16.5584 14.2511C18.4125 12.7933 20.2533 11.3256 22.1184 9.87673C22.5134 9.5524 23.0031 9.36525 23.5137 9.3435C24.0244 9.32176 24.5282 9.4666 24.9493 9.75618C25.779 10.3092 26.1662 11.35 25.9273 12.3874C25.7259 13.2579 24.8022 14.0265 23.7844 14.1261C22.1903 14.282 20.594 14.4137 18.9988 14.5552C18.9248 14.5553 18.8508 14.5605 18.7775 14.5707C18.6492 14.6006 18.4302 14.5431 18.4578 14.7643C18.4777 14.9224 18.6669 14.8881 18.7897 14.8826C19.8749 14.8339 20.9635 14.814 22.0454 14.7156C24.0853 14.5298 25.9593 16.1789 25.9715 18.2317C25.9826 20.1119 25.977 21.9921 25.9715 23.8724C25.9715 24.8866 25.2912 25.7681 24.4017 25.9396C23.2955 26.153 22.3673 25.6708 21.9104 24.6665C21.3695 23.4764 20.8042 22.2952 20.2688 21.1029C20.0475 20.6185 19.709 20.3154 19.168 20.3342C18.741 20.3497 18.3759 20.5311 18.21 20.9624C18.0109 21.4845 18.1536 21.9324 18.5297 22.3273C18.8616 22.6723 19.2233 22.9854 19.4037 23.4532C19.8816 24.6942 19.0474 25.9174 17.7244 25.9871C15.6125 26.0977 14.7563 25.5259 14.5162 23.1269C14.3016 20.9481 13.9631 18.7802 13.6788 16.608C13.6644 16.4919 13.7009 16.3459 13.5383 16.2463C13.4354 16.4731 13.5449 16.681 13.5704 16.8834C13.7817 18.5834 14.0062 20.2811 14.2175 21.9811C14.472 24.0283 12.7882 25.9628 10.7184 25.9727C8.85661 25.9849 6.99477 25.9727 5.13184 25.9617C3.73463 25.9495 2.45912 24.8932 2.10291 23.4919C1.73452 22.0408 2.38168 20.4371 3.62069 19.7679C5.14622 18.945 6.79454 18.3953 8.36653 17.6731C9.35442 17.2196 10.3666 16.8193 11.3634 16.3868C11.5946 16.2862 11.9165 16.1744 11.7627 15.8471C11.609 15.5197 11.3202 15.7055 11.0879 15.8095C9.33193 16.6205 7.57777 17.4361 5.82546 18.256C4.38733 18.9196 2.83857 18.4219 2.24672 17.1002C1.46017 15.3505 2.65825 13.4503 4.613 13.4636C6.54563 13.4768 8.47716 13.6118 10.4087 13.6958C11.1443 13.7279 11.8789 13.7677 12.6135 13.8042Z" fill="#4D286D"/>
</mask>
<g mask="url(#mask0_18438_6601)">
<rect x="1.28003" y="-5.67969" width="8.88" height="40.8" fill="url(#paint0_radial_18438_6601)"/>
<rect x="1.28003" y="-5.67969" width="8.88" height="40.8" fill="url(#paint1_radial_18438_6601)"/>
<rect x="16.3999" y="-5.67969" width="8.88" height="22.08" fill="url(#paint2_radial_18438_6601)"/>
<rect opacity="0.4" x="19.04" y="1.04004" width="8.88" height="27.72" fill="url(#paint3_radial_18438_6601)"/>
</g>
<defs>
<radialGradient id="paint0_radial_18438_6601" cx="0" cy="0" r="1" gradientUnits="userSpaceOnUse" gradientTransform="translate(5.77923 14.0603) rotate(90.1327) scale(25.5601 3.88973)">
<stop stop-color="#FFE600"/>
<stop offset="1" stop-color="#FFE600" stop-opacity="0"/>
</radialGradient>
<radialGradient id="paint1_radial_18438_6601" cx="0" cy="0" r="1" gradientUnits="userSpaceOnUse" gradientTransform="translate(5.77923 14.0603) rotate(90.1327) scale(25.5601 3.88973)">
<stop stop-color="#FFC700"/>
<stop offset="1" stop-color="#FFE600" stop-opacity="0"/>
</radialGradient>
<radialGradient id="paint2_radial_18438_6601" cx="0" cy="0" r="1" gradientUnits="userSpaceOnUse" gradientTransform="translate(20.8399 2.42031) rotate(90) scale(13.56 3.81305)">
<stop stop-color="#FFC700"/>
<stop offset="1" stop-color="#FFE600" stop-opacity="0"/>
</radialGradient>
<radialGradient id="paint3_radial_18438_6601" cx="0" cy="0" r="1" gradientUnits="userSpaceOnUse" gradientTransform="translate(23.48 11.2091) rotate(90) scale(17.0237 3.81305)">
<stop stop-color="#FFC700"/>
<stop offset="1" stop-color="#FFE600" stop-opacity="0"/>
</radialGradient>
</defs>
</svg>
