<svg width="28" height="28" viewBox="0 0 28 28" fill="none" xmlns="http://www.w3.org/2000/svg">
<circle cx="14" cy="14" r="14" fill="white"/>
<path d="M12.8445 13.8369C11.4156 13.6581 9.9692 13.4931 8.51171 13.4433C7.51515 13.4101 6.51952 13.3373 5.52758 13.247C4.82971 13.1834 4.29226 12.8396 4.08668 12.141C3.88571 11.4644 4.07654 10.8718 4.63151 10.4073C5.08231 10.0303 5.84102 9.9842 6.44393 10.3667C7.04684 10.7492 7.63315 11.1879 8.225 11.5972C8.46377 11.764 8.69239 11.9483 8.94038 12.1004C9.32112 12.3336 9.74703 12.235 9.94339 11.8893C10.1278 11.5713 9.9987 11.152 9.61612 10.9538C8.70161 10.4773 7.77973 10.0284 6.86246 9.55746C6.27522 9.25238 5.65941 9.01274 5.11089 8.63485C4.77505 8.41517 4.49951 8.11498 4.30935 7.76163C4.11919 7.40828 4.02046 7.01299 4.02214 6.61174C4.02214 6.38132 4.02214 6.1509 4.02214 5.92048C4.0286 5.0799 4.53287 4.32319 5.24087 4.09092C6.02816 3.8264 7.00812 4.15636 7.49395 4.85593C8.87769 6.8477 10.361 8.76573 11.7982 10.7197C12.143 11.1898 12.4859 11.6626 12.8381 12.1271C12.9155 12.2294 12.969 12.3787 13.1755 12.3778C13.228 12.1345 13.0483 11.9852 12.9386 11.8248C11.9863 10.4506 11.0118 9.08832 10.0734 7.7021C9.36813 6.66151 9.55343 5.3859 10.4799 4.57665C11.1824 3.96281 12.3135 3.82271 13.111 4.25222C14.0329 4.74809 14.538 5.65134 14.4016 6.64308C14.2679 7.59979 14.0928 8.55098 13.9407 9.50492C13.9139 9.66806 13.89 9.83212 13.8558 10.0533C14.067 9.9418 14.0605 9.77682 14.0965 9.64686C14.4154 8.5095 14.7473 7.3749 15.0423 6.23016C15.3631 4.95916 16.6427 3.97018 17.9204 4.0218C19.1318 4.07157 20.3496 4.0771 21.56 4.0218C22.5667 3.97295 23.6066 4.89556 23.8721 5.69466C24.1874 6.64308 23.9136 7.79335 23.1198 8.41549C21.5158 9.67359 19.8859 10.9114 18.2698 12.1539C17.4927 12.7539 16.7164 13.3521 15.9504 13.9705C15.8287 14.0627 15.5493 14.1806 15.718 14.377C15.8545 14.5364 16.0084 14.3069 16.132 14.2092C17.677 12.9944 19.2111 11.7714 20.7653 10.5639C21.0945 10.2937 21.5026 10.1377 21.9281 10.1196C22.3536 10.1015 22.7735 10.2222 23.1244 10.4635C23.8159 10.9243 24.1385 11.7916 23.9394 12.6562C23.7716 13.3815 23.0018 14.0221 22.1537 14.1051C20.8253 14.235 19.495 14.3447 18.1656 14.4627C18.104 14.4628 18.0424 14.4671 17.9813 14.4756C17.8743 14.5005 17.6918 14.4525 17.7148 14.6369C17.7314 14.7687 17.8891 14.7401 17.9914 14.7355C18.8958 14.695 19.8029 14.6784 20.7045 14.5963C22.4045 14.4415 23.9661 15.8157 23.9763 17.5264C23.9855 19.0932 23.9809 20.6601 23.9763 22.227C23.9763 23.0722 23.4093 23.8068 22.6681 23.9496C21.7462 24.1275 20.9728 23.7257 20.592 22.8888C20.1412 21.897 19.6702 20.9127 19.224 19.9191C19.0396 19.5154 18.7575 19.2628 18.3067 19.2785C17.9508 19.2914 17.6466 19.4426 17.5083 19.802C17.3424 20.2371 17.4613 20.6103 17.7748 20.9394C18.0513 21.227 18.3528 21.4878 18.5031 21.8777C18.9013 22.9118 18.2062 23.9312 17.1036 23.9893C15.3438 24.0814 14.6302 23.6049 14.4302 21.6058C14.2513 19.79 13.9692 17.9835 13.7323 16.1733C13.7203 16.0766 13.7508 15.9549 13.6152 15.8719C13.5295 16.0609 13.6208 16.2342 13.642 16.4028C13.8181 17.8195 14.0052 19.2343 14.1813 20.6509C14.3933 22.3569 12.9902 23.969 11.2654 23.9773C9.71384 23.9874 8.16231 23.9773 6.60986 23.9681C5.44553 23.9579 4.3826 23.0777 4.08575 21.9099C3.77877 20.7007 4.31807 19.3642 5.35058 18.8066C6.62185 18.1209 7.99545 17.6628 9.30544 17.0609C10.1287 16.683 10.9722 16.3494 11.8028 15.989C11.9955 15.9051 12.2638 15.812 12.1356 15.5392C12.0075 15.2664 11.7669 15.4212 11.5733 15.5079C10.1099 16.1838 8.64814 16.8634 7.18788 17.5467C5.98944 18.0997 4.69881 17.6849 4.2056 16.5835C3.55014 15.1254 4.54854 13.5419 6.1775 13.553C7.78803 13.564 9.39763 13.6765 11.0072 13.7465C11.6203 13.7733 12.2324 13.8064 12.8445 13.8369Z" fill="#4D286D"/>
<mask id="mask0_1004_117" style="mask-type:alpha" maskUnits="userSpaceOnUse" x="4" y="4" width="20" height="20">
<path d="M12.8445 13.8369C11.4156 13.6581 9.9692 13.4931 8.51171 13.4433C7.51515 13.4101 6.51952 13.3373 5.52758 13.247C4.82971 13.1834 4.29226 12.8396 4.08668 12.141C3.88571 11.4644 4.07654 10.8718 4.63151 10.4073C5.08231 10.0303 5.84102 9.9842 6.44393 10.3667C7.04684 10.7492 7.63315 11.1879 8.225 11.5972C8.46377 11.764 8.69239 11.9483 8.94038 12.1004C9.32112 12.3336 9.74703 12.235 9.94339 11.8893C10.1278 11.5713 9.9987 11.152 9.61612 10.9538C8.70161 10.4773 7.77973 10.0284 6.86246 9.55746C6.27522 9.25238 5.65941 9.01274 5.11089 8.63485C4.77505 8.41517 4.49951 8.11498 4.30935 7.76163C4.11919 7.40828 4.02046 7.01299 4.02214 6.61174C4.02214 6.38132 4.02214 6.1509 4.02214 5.92048C4.0286 5.0799 4.53287 4.32319 5.24087 4.09092C6.02816 3.8264 7.00812 4.15636 7.49395 4.85593C8.87769 6.8477 10.361 8.76573 11.7982 10.7197C12.143 11.1898 12.4859 11.6626 12.8381 12.1271C12.9155 12.2294 12.969 12.3787 13.1755 12.3778C13.228 12.1345 13.0483 11.9852 12.9386 11.8248C11.9863 10.4506 11.0118 9.08832 10.0734 7.7021C9.36813 6.66151 9.55343 5.3859 10.4799 4.57665C11.1824 3.96281 12.3135 3.82271 13.111 4.25222C14.0329 4.74809 14.538 5.65134 14.4016 6.64308C14.2679 7.59979 14.0928 8.55098 13.9407 9.50492C13.9139 9.66806 13.89 9.83212 13.8558 10.0533C14.067 9.9418 14.0605 9.77682 14.0965 9.64686C14.4154 8.5095 14.7473 7.3749 15.0423 6.23016C15.3631 4.95916 16.6427 3.97018 17.9204 4.0218C19.1318 4.07157 20.3496 4.0771 21.56 4.0218C22.5667 3.97295 23.6066 4.89556 23.8721 5.69466C24.1874 6.64308 23.9136 7.79335 23.1198 8.41549C21.5158 9.67359 19.8859 10.9114 18.2698 12.1539C17.4927 12.7539 16.7164 13.3521 15.9504 13.9705C15.8287 14.0627 15.5493 14.1806 15.718 14.377C15.8545 14.5364 16.0084 14.3069 16.132 14.2092C17.677 12.9944 19.2111 11.7714 20.7653 10.5639C21.0945 10.2937 21.5026 10.1377 21.9281 10.1196C22.3536 10.1015 22.7735 10.2222 23.1244 10.4635C23.8159 10.9243 24.1385 11.7916 23.9394 12.6562C23.7716 13.3815 23.0018 14.0221 22.1537 14.1051C20.8253 14.235 19.495 14.3447 18.1656 14.4627C18.104 14.4628 18.0424 14.4671 17.9813 14.4756C17.8743 14.5005 17.6918 14.4525 17.7148 14.6369C17.7314 14.7687 17.8891 14.7401 17.9914 14.7355C18.8958 14.695 19.8029 14.6784 20.7045 14.5963C22.4045 14.4415 23.9661 15.8157 23.9763 17.5264C23.9855 19.0932 23.9809 20.6601 23.9763 22.227C23.9763 23.0722 23.4093 23.8068 22.6681 23.9496C21.7462 24.1275 20.9728 23.7257 20.592 22.8888C20.1412 21.897 19.6702 20.9127 19.224 19.9191C19.0396 19.5154 18.7575 19.2628 18.3067 19.2785C17.9508 19.2914 17.6466 19.4426 17.5083 19.802C17.3424 20.2371 17.4613 20.6103 17.7748 20.9394C18.0513 21.227 18.3528 21.4878 18.5031 21.8777C18.9013 22.9118 18.2062 23.9312 17.1036 23.9893C15.3438 24.0814 14.6302 23.6049 14.4302 21.6058C14.2513 19.79 13.9692 17.9835 13.7323 16.1733C13.7203 16.0766 13.7508 15.9549 13.6152 15.8719C13.5295 16.0609 13.6208 16.2342 13.642 16.4028C13.8181 17.8195 14.0052 19.2343 14.1813 20.6509C14.3933 22.3569 12.9902 23.969 11.2654 23.9773C9.71384 23.9874 8.16231 23.9773 6.60986 23.9681C5.44553 23.9579 4.3826 23.0777 4.08575 21.9099C3.77877 20.7007 4.31807 19.3642 5.35058 18.8066C6.62185 18.1209 7.99545 17.6628 9.30544 17.0609C10.1287 16.683 10.9722 16.3494 11.8028 15.989C11.9955 15.9051 12.2638 15.812 12.1356 15.5392C12.0075 15.2664 11.7669 15.4212 11.5733 15.5079C10.1099 16.1838 8.64814 16.8634 7.18788 17.5467C5.98944 18.0997 4.69881 17.6849 4.2056 16.5835C3.55014 15.1254 4.54854 13.5419 6.1775 13.553C7.78803 13.564 9.39763 13.6765 11.0072 13.7465C11.6203 13.7733 12.2324 13.8064 12.8445 13.8369Z" fill="#4D286D"/>
</mask>
<g mask="url(#mask0_1004_117)">
<rect x="3.39999" y="-2.40002" width="7.4" height="34" fill="url(#paint0_radial_1004_117)"/>
<rect x="3.39999" y="-2.40002" width="7.4" height="34" fill="url(#paint1_radial_1004_117)"/>
<rect x="16" y="-2.40002" width="7.4" height="18.4" fill="url(#paint2_radial_1004_117)"/>
<rect opacity="0.4" x="18.2" y="3.20001" width="7.4" height="23.1" fill="url(#paint3_radial_1004_117)"/>
</g>
<defs>
<radialGradient id="paint0_radial_1004_117" cx="0" cy="0" r="1" gradientUnits="userSpaceOnUse" gradientTransform="translate(7.14933 14.05) rotate(90.1327) scale(21.3001 3.24144)">
<stop stop-color="#FFE600"/>
<stop offset="1" stop-color="#FFE600" stop-opacity="0"/>
</radialGradient>
<radialGradient id="paint1_radial_1004_117" cx="0" cy="0" r="1" gradientUnits="userSpaceOnUse" gradientTransform="translate(7.14933 14.05) rotate(90.1327) scale(21.3001 3.24144)">
<stop stop-color="#FFC700"/>
<stop offset="1" stop-color="#FFE600" stop-opacity="0"/>
</radialGradient>
<radialGradient id="paint2_radial_1004_117" cx="0" cy="0" r="1" gradientUnits="userSpaceOnUse" gradientTransform="translate(19.7 4.34997) rotate(90) scale(11.3 3.17754)">
<stop stop-color="#FFC700"/>
<stop offset="1" stop-color="#FFE600" stop-opacity="0"/>
</radialGradient>
<radialGradient id="paint3_radial_1004_117" cx="0" cy="0" r="1" gradientUnits="userSpaceOnUse" gradientTransform="translate(21.9 11.6742) rotate(90) scale(14.1864 3.17754)">
<stop stop-color="#FFC700"/>
<stop offset="1" stop-color="#FFE600" stop-opacity="0"/>
</radialGradient>
</defs>
</svg>
