<?xml version="1.0" standalone="no"?>
<!DOCTYPE svg PUBLIC "-//W3C//DTD SVG 20010904//EN"
 "http://www.w3.org/TR/2001/REC-SVG-20010904/DTD/svg10.dtd">
<svg version="1.0" xmlns="http://www.w3.org/2000/svg"
 width="50.000000pt" height="50.000000pt" viewBox="0 0 50.000000 50.000000"
 preserveAspectRatio="xMidYMid meet">

<g transform="translate(0.000000,50.000000) scale(0.100000,-0.100000)"
fill="#000000" stroke="none">
<path d="M114 448 c-98 -67 -132 -190 -81 -301 33 -73 81 -109 152 -115 71 -6
97 2 141 41 95 83 103 256 14 302 -16 8 -31 15 -33 15 -2 0 6 -21 19 -47 74
-145 -42 -319 -171 -257 -114 54 -126 240 -21 349 51 53 45 57 -20 13z"/>
<path d="M205 452 c-93 -60 -136 -192 -91 -280 13 -26 60 -62 79 -62 2 0 -6
21 -19 47 -61 120 6 270 120 267 152 -3 197 -229 72 -359 -51 -53 -45 -57 20
-13 62 42 106 123 106 196 0 68 -38 151 -87 188 -50 38 -153 46 -200 16z"/>
</g>
</svg>
