<svg width="28" height="28" viewBox="0 0 28 28" fill="none" xmlns="http://www.w3.org/2000/svg">
<path d="M13.6689 11.2642V2.51703C13.6689 2.51703 10.8379 3.92616 10.8379 6.92454C10.8379 9.92292 13.6689 11.2642 13.6689 11.2642Z" fill="white" fill-opacity="0.8"/>
<path d="M13.6689 2.51703C13.6689 2.51703 16.4978 3.92616 16.4978 6.92454C16.4978 9.92292 13.6689 11.2621 13.6689 11.2621V2.51703Z" fill="white" fill-opacity="0.4"/>
<path d="M20.2743 15.3772L24.1627 13.1671C24.1627 13.1671 22.8192 12.2644 21.4864 13.0188C20.1535 13.7732 20.2743 15.373 20.2743 15.373" fill="white" fill-opacity="0.8"/>
<path d="M24.1628 13.1671C24.1628 13.1671 24.2518 14.7818 22.9189 15.5383C21.5861 16.2948 20.2744 15.3772 20.2744 15.3772L24.1628 13.1671Z" fill="white" fill-opacity="0.4"/>
<path d="M24.349 12.8069C24.2812 12.7687 22.6389 11.9042 21.2552 12.7052C20.1449 13.3409 19.9224 14.6335 19.88 15.1696L19.3672 15.4641C19.1038 15.2059 18.7497 15.0613 18.3808 15.0613C18.012 15.0613 17.6578 15.2059 17.3944 15.4641L15.0466 14.1079C15.0729 13.9961 15.0864 13.8817 15.0868 13.7668C15.0865 13.4592 14.9864 13.1601 14.8014 12.9144C14.6164 12.6687 14.3567 12.4896 14.0612 12.4043V11.5694C14.7457 11.1286 16.9176 9.53091 16.9176 6.98812C16.9176 4.04483 13.9998 2.2119 13.8748 2.12926L13.6629 2L13.451 2.12926C13.3259 2.20342 10.406 4.03636 10.406 6.98812C10.406 9.53091 12.5801 11.1286 13.2645 11.5694V12.4043C12.969 12.4896 12.7093 12.6687 12.5243 12.9144C12.3394 13.1601 12.2392 13.4592 12.2389 13.7668C12.2394 13.8817 12.2529 13.9961 12.2792 14.1079L9.93132 15.4641C9.67127 15.2112 9.32358 15.0684 8.96082 15.0657C8.61961 15.0669 8.29023 15.1909 8.03298 15.415C7.77572 15.6392 7.60779 15.9485 7.55994 16.2863C7.51208 16.6242 7.58749 16.9679 7.77237 17.2547C7.95725 17.5415 8.23922 17.7521 8.56668 17.848V20.6662C8.23922 20.7621 7.95725 20.9727 7.77237 21.2595C7.58749 21.5463 7.51208 21.8901 7.55994 22.2279C7.60779 22.5657 7.77572 22.875 8.03298 23.0992C8.29023 23.3233 8.61961 23.4473 8.96082 23.4485C9.15864 23.4486 9.35424 23.4067 9.53468 23.3256C9.71513 23.2445 9.87631 23.126 10.0076 22.9781L12.2898 24.2961C12.2632 24.4071 12.2497 24.5209 12.2495 24.6351C12.2637 25.0019 12.4193 25.3489 12.6838 25.6034C12.9483 25.8579 13.3011 26 13.6682 26C14.0352 26 14.388 25.8579 14.6525 25.6034C14.917 25.3489 15.0727 25.0019 15.0868 24.6351C15.0866 24.5209 15.0731 24.4071 15.0466 24.2961L17.3287 22.9781C17.4604 23.1253 17.6218 23.2429 17.8022 23.3233C17.9826 23.4036 18.178 23.4449 18.3755 23.4442C18.7144 23.4403 19.0408 23.3152 19.2955 23.0916C19.5502 22.868 19.7166 22.5606 19.7644 22.2251C19.8123 21.8895 19.7385 21.5479 19.5565 21.262C19.3744 20.9761 19.0961 20.7648 18.7718 20.6662V17.848C19.0669 17.762 19.3262 17.5828 19.5111 17.3372C19.6959 17.0916 19.7964 16.7928 19.7974 16.4855C19.7967 16.3735 19.7839 16.262 19.7592 16.1528L20.2699 15.8604C20.7575 16.0938 21.2891 16.2209 21.8295 16.2333C22.2751 16.2382 22.714 16.1241 23.1009 15.9027C24.4846 15.1039 24.5566 13.2497 24.5609 13.1735V12.9298L24.349 12.8069ZM18.7718 16.9813C18.6596 17.0703 18.5208 17.1188 18.3776 17.119C18.3015 17.1191 18.226 17.1047 18.1551 17.0767C18.0942 17.0558 18.0375 17.0242 17.9877 16.9834C17.8587 16.8842 17.7742 16.7379 17.7525 16.5766C17.7503 16.5462 17.7503 16.5158 17.7525 16.4855C17.7503 16.4587 17.7503 16.4317 17.7525 16.4049C17.7727 16.251 17.8485 16.1098 17.9656 16.008C18.0827 15.9061 18.233 15.8506 18.3882 15.8519C18.4733 15.8517 18.5575 15.8682 18.6362 15.9006C18.7507 15.9496 18.8482 16.0311 18.9168 16.1351C18.9854 16.2391 19.0219 16.3609 19.0218 16.4855C19.025 16.52 19.025 16.5547 19.0218 16.5893C18.991 16.7468 18.9016 16.8869 18.7718 16.9813ZM19.0112 22.0287C19.0112 22.1973 18.9442 22.359 18.825 22.4783C18.7058 22.5975 18.5441 22.6644 18.3755 22.6644C18.2589 22.6643 18.1445 22.632 18.045 22.5712C17.9526 22.5145 17.8762 22.435 17.8232 22.3404C17.7701 22.2459 17.7422 22.1393 17.7419 22.0309C17.7409 22.0253 17.7409 22.0195 17.7419 22.0139C17.743 21.9474 17.7552 21.8815 17.778 21.819C17.8203 21.7061 17.8937 21.6077 17.9899 21.535C18.1019 21.4491 18.2386 21.4015 18.3798 21.3994C18.5484 21.3994 18.71 21.4664 18.8293 21.5856C18.9485 21.7048 19.0155 21.8665 19.0155 22.0351L19.0112 22.0287ZM17.992 20.6726C17.8012 20.7272 17.6242 20.8219 17.4728 20.9502L15.0593 19.5538C15.0773 19.4616 15.0865 19.3679 15.0868 19.2741C15.0873 19.1406 15.068 19.0078 15.0296 18.8799L17.3987 17.511C17.5639 17.6696 17.7654 17.7852 17.9856 17.848L17.992 20.6726ZM13.6692 25.2708C13.5165 25.2727 13.3683 25.2196 13.2516 25.1211C13.1348 25.0227 13.0574 24.8855 13.0335 24.7347C13.0314 24.703 13.0314 24.6711 13.0335 24.6393C13.0339 24.5132 13.0718 24.3901 13.1423 24.2856C13.2129 24.1811 13.313 24.0999 13.4298 24.0524C13.5827 23.9905 13.7536 23.9905 13.9066 24.0524C14.023 24.1002 14.1226 24.1815 14.1927 24.286C14.2629 24.3905 14.3005 24.5135 14.3007 24.6393C14.3028 24.6711 14.3028 24.703 14.3007 24.7347C14.2771 24.8837 14.2012 25.0194 14.0867 25.1177C13.9722 25.2159 13.8264 25.2702 13.6756 25.2708H13.6692ZM12.2834 19.5495L9.87198 20.9438C9.72085 20.8151 9.54379 20.7205 9.35283 20.6662V17.848C9.57551 17.7848 9.77878 17.6668 9.94403 17.5047L12.3088 18.8714C12.2685 19.0011 12.2485 19.1362 12.2495 19.2719C12.25 19.3672 12.2592 19.4623 12.277 19.5559L12.2834 19.5495ZM9.5944 22.0287C9.59417 22.1372 9.5662 22.2438 9.51316 22.3383C9.46013 22.4329 9.38378 22.5123 9.29138 22.5691C9.19183 22.6299 9.07747 22.6622 8.96082 22.6623C8.82999 22.661 8.70275 22.6194 8.59645 22.5431C8.49016 22.4669 8.40998 22.3596 8.36688 22.2361C8.32377 22.1126 8.31983 21.9788 8.35559 21.8529C8.39134 21.7271 8.46506 21.6153 8.56668 21.5329C8.67881 21.4439 8.81768 21.3954 8.96082 21.3952C8.99748 21.392 9.03434 21.392 9.071 21.3952C9.17319 21.4129 9.26934 21.4559 9.35071 21.5202C9.44683 21.5928 9.52031 21.6913 9.56261 21.8041C9.58453 21.8676 9.59667 21.9341 9.59863 22.0012C9.59967 22.0068 9.59967 22.0125 9.59863 22.0182L9.5944 22.0287ZM8.32724 16.4749C8.32724 16.3063 8.39421 16.1446 8.51343 16.0254C8.63265 15.9061 8.79434 15.8392 8.96294 15.8392C9.04274 15.8392 9.12181 15.8543 9.19602 15.8837C9.29961 15.9248 9.39055 15.9925 9.45973 16.0799C9.52891 16.1673 9.57389 16.2714 9.59016 16.3816C9.59016 16.4113 9.59016 16.441 9.59016 16.4727C9.59016 16.5045 9.59016 16.5342 9.59016 16.5639C9.56606 16.7249 9.48112 16.8705 9.35283 16.9707C9.30533 17.0081 9.25247 17.0381 9.19602 17.0597C9.12213 17.0904 9.04294 17.1062 8.96294 17.1063C8.79434 17.1063 8.63265 17.0393 8.51343 16.9201C8.39421 16.8009 8.32724 16.6392 8.32724 16.4706V16.4749ZM13.2751 13.2688C13.3625 13.2007 13.4662 13.1565 13.5759 13.1408C13.6857 13.1251 13.7976 13.1384 13.9006 13.1793C14.0036 13.2202 14.0942 13.2873 14.1632 13.374C14.2323 13.4607 14.2775 13.564 14.2943 13.6735C14.2964 13.7046 14.2964 13.7357 14.2943 13.7668C14.2945 13.8625 14.273 13.9569 14.2315 14.0431C14.1901 14.1294 14.1297 14.2051 14.0549 14.2647C14.0063 14.3017 13.9528 14.3317 13.896 14.3537C13.7914 14.3954 13.6778 14.409 13.5663 14.3934C13.4549 14.3778 13.3494 14.3335 13.2603 14.2647C13.1851 14.2053 13.1243 14.1297 13.0824 14.0434C13.0406 13.9572 13.0188 13.8626 13.0187 13.7668C13.0166 13.7357 13.0166 13.7046 13.0187 13.6735C13.0422 13.5139 13.1255 13.3693 13.2518 13.2688H13.2751ZM14.3007 19.2995C14.2971 19.3908 14.2739 19.4803 14.2325 19.5619C14.1912 19.6434 14.1328 19.7151 14.0612 19.772C14.0322 19.7937 14.0017 19.8135 13.9701 19.8313C13.8777 19.8813 13.7743 19.9075 13.6692 19.9076C13.5658 19.9074 13.4639 19.882 13.3726 19.8335C13.339 19.8147 13.3065 19.7942 13.2751 19.772C13.2025 19.7142 13.1434 19.6412 13.102 19.5581C13.0607 19.475 13.038 19.3838 13.0356 19.291C13.0346 19.2847 13.0346 19.2782 13.0356 19.2719C13.036 19.2167 13.0438 19.1618 13.059 19.1088C13.0921 18.9774 13.1664 18.8601 13.2709 18.774C13.3842 18.6875 13.5224 18.6399 13.665 18.6384C13.7202 18.6387 13.7751 18.6465 13.8281 18.6617C13.9349 18.6887 14.0325 18.7438 14.1108 18.8213C14.189 18.8988 14.2451 18.9959 14.2731 19.1024C14.2896 19.1574 14.2975 19.2146 14.2964 19.2719V19.2974L14.3007 19.2995ZM16.9982 16.1422C16.9707 16.2545 16.9572 16.3698 16.9579 16.4855C16.9577 16.6027 16.9727 16.7195 17.0024 16.833L14.6101 18.2146C14.4526 18.0726 14.2649 17.9683 14.0612 17.9094V15.1378C14.2834 15.0744 14.4864 14.9572 14.6524 14.7966L16.9982 16.1422ZM11.2027 6.98812C11.2027 4.90302 13.042 3.38582 13.6692 2.93872C14.3049 3.39006 16.1336 4.89455 16.1336 6.98812C16.1336 8.73417 14.841 9.99921 14.0612 10.6031V7.29749C14.0539 7.19823 14.0094 7.1054 13.9365 7.03764C13.8635 6.96989 13.7677 6.93224 13.6682 6.93224C13.5686 6.93224 13.4728 6.96989 13.3999 7.03764C13.327 7.1054 13.2824 7.19823 13.2751 7.29749V10.6052C12.4932 10.0013 11.2027 8.73841 11.2027 6.98812ZM12.686 14.7881C12.8505 14.9515 13.0529 15.0716 13.2751 15.1378V17.9094C13.0738 17.9673 12.8883 18.0702 12.7326 18.2103L10.3382 16.833C10.3919 16.6073 10.3919 16.3721 10.3382 16.1464L12.686 14.7881ZM10.3551 22.2788C10.3946 22.0509 10.3787 21.8169 10.3085 21.5965L12.6394 20.253C12.8134 20.4352 13.0328 20.5676 13.2751 20.6366V23.2747C13.0535 23.3381 12.8506 23.4545 12.6839 23.6138L10.3551 22.2788ZM14.6524 23.6138C14.4864 23.4522 14.2835 23.3336 14.0612 23.2684V20.6472C14.3041 20.5784 14.5238 20.4451 14.6969 20.2615L17.0278 21.6071C16.9577 21.8275 16.9417 22.0615 16.9812 22.2894L14.6524 23.6138ZM22.7046 15.2162C22.4669 15.3387 22.2073 15.4131 21.9407 15.4349C21.6741 15.4567 21.4059 15.4256 21.1514 15.3433L21.9354 14.892C22.0256 14.84 22.0915 14.7543 22.1185 14.6538C22.1455 14.5532 22.1315 14.4461 22.0795 14.3559C22.0275 14.2657 21.9418 14.1998 21.8413 14.1728C21.7408 14.1458 21.6336 14.1598 21.5434 14.2118L20.7636 14.6674C20.8198 14.4076 20.9268 14.1616 21.0785 13.9434C21.2301 13.7252 21.4234 13.5392 21.6472 13.396C22.3974 12.9616 23.3213 13.237 23.7451 13.396C23.6815 13.8473 23.459 14.7818 22.7046 15.2162Z" fill="white"/>
</svg>
