<svg width="28" height="28" viewBox="0 0 28 28" fill="none" xmlns="http://www.w3.org/2000/svg">
<path d="M13.6679 11.2642V2.51703C13.6679 2.51703 10.8369 3.92616 10.8369 6.92454C10.8369 9.92292 13.6679 11.2642 13.6679 11.2642Z" fill="#006E3C"/>
<path d="M13.668 2.51703C13.668 2.51703 16.4968 3.92616 16.4968 6.92454C16.4968 9.92292 13.668 11.2621 13.668 11.2621V2.51703Z" fill="#00A93C"/>
<path d="M20.2734 15.3772L24.1617 13.1671C24.1617 13.1671 22.8183 12.2644 21.4854 13.0188C20.1526 13.7732 20.2734 15.373 20.2734 15.373" fill="#006E3C"/>
<path d="M24.1618 13.1671C24.1618 13.1671 24.2508 14.7818 22.9179 15.5383C21.5851 16.2948 20.2734 15.3772 20.2734 15.3772L24.1618 13.1671Z" fill="#00A93C"/>
<path d="M24.348 12.8069C24.2802 12.7687 22.638 11.9042 21.2543 12.7052C20.1439 13.3409 19.9214 14.6335 19.879 15.1696L19.3662 15.4641C19.1028 15.2059 18.7487 15.0613 18.3798 15.0613C18.011 15.0613 17.6568 15.2059 17.3934 15.4641L15.0456 14.1079C15.0719 13.9961 15.0854 13.8817 15.0859 13.7668C15.0856 13.4592 14.9854 13.1601 14.8004 12.9144C14.6155 12.6687 14.3557 12.4896 14.0603 12.4043V11.5694C14.7447 11.1286 16.9167 9.53091 16.9167 6.98812C16.9167 4.04483 13.9988 2.2119 13.8738 2.12926L13.6619 2L13.45 2.12926C13.325 2.20342 10.405 4.03636 10.405 6.98812C10.405 9.53091 12.5791 11.1286 13.2635 11.5694V12.4043C12.9681 12.4896 12.7083 12.6687 12.5234 12.9144C12.3384 13.1601 12.2382 13.4592 12.2379 13.7668C12.2384 13.8817 12.2519 13.9961 12.2782 14.1079L9.93034 15.4641C9.67029 15.2112 9.3226 15.0684 8.95984 15.0657C8.61863 15.0669 8.28926 15.1909 8.032 15.415C7.77474 15.6392 7.60682 15.9485 7.55896 16.2863C7.5111 16.6242 7.58651 16.9679 7.77139 17.2547C7.95627 17.5415 8.23825 17.7521 8.56571 17.848V20.6662C8.23825 20.7621 7.95627 20.9727 7.77139 21.2595C7.58651 21.5463 7.5111 21.8901 7.55896 22.2279C7.60682 22.5657 7.77474 22.875 8.032 23.0992C8.28926 23.3233 8.61863 23.4473 8.95984 23.4485C9.15767 23.4486 9.35326 23.4067 9.53371 23.3256C9.71415 23.2445 9.87534 23.126 10.0066 22.9781L12.2888 24.2961C12.2622 24.4071 12.2487 24.5209 12.2485 24.6351C12.2627 25.0019 12.4184 25.3489 12.6829 25.6034C12.9474 25.8579 13.3001 26 13.6672 26C14.0342 26 14.387 25.8579 14.6515 25.6034C14.916 25.3489 15.0717 25.0019 15.0859 24.6351C15.0856 24.5209 15.0721 24.4071 15.0456 24.2961L17.3278 22.9781C17.4594 23.1253 17.6208 23.2429 17.8012 23.3233C17.9816 23.4036 18.177 23.4449 18.3745 23.4442C18.7135 23.4403 19.0398 23.3152 19.2945 23.0916C19.5492 22.868 19.7156 22.5606 19.7634 22.2251C19.8113 21.8895 19.7375 21.5479 19.5555 21.262C19.3734 20.9761 19.0951 20.7648 18.7708 20.6662V17.848C19.0659 17.762 19.3253 17.5828 19.5101 17.3372C19.695 17.0916 19.7954 16.7928 19.7964 16.4855C19.7957 16.3735 19.7829 16.262 19.7582 16.1528L20.2689 15.8604C20.7565 16.0938 21.2881 16.2209 21.8285 16.2333C22.2742 16.2382 22.7131 16.1241 23.0999 15.9027C24.4836 15.1039 24.5556 13.2497 24.5599 13.1735V12.9298L24.348 12.8069ZM18.7708 16.9813C18.6587 17.0703 18.5198 17.1188 18.3767 17.119C18.3005 17.1191 18.225 17.1047 18.1542 17.0767C18.0933 17.0558 18.0366 17.0242 17.9868 16.9834C17.8577 16.8842 17.7732 16.7379 17.7516 16.5766C17.7494 16.5462 17.7494 16.5158 17.7516 16.4855C17.7494 16.4587 17.7494 16.4317 17.7516 16.4049C17.7717 16.251 17.8475 16.1098 17.9646 16.008C18.0817 15.9061 18.232 15.8506 18.3873 15.8519C18.4723 15.8517 18.5565 15.8682 18.6352 15.9006C18.7497 15.9496 18.8473 16.0311 18.9158 16.1351C18.9844 16.2391 19.0209 16.3609 19.0208 16.4855C19.0241 16.52 19.0241 16.5547 19.0208 16.5893C18.99 16.7468 18.9006 16.8869 18.7708 16.9813ZM19.0102 22.0287C19.0102 22.1973 18.9433 22.359 18.824 22.4783C18.7048 22.5975 18.5431 22.6644 18.3745 22.6644C18.2579 22.6643 18.1435 22.632 18.044 22.5712C17.9516 22.5145 17.8752 22.435 17.8222 22.3404C17.7692 22.2459 17.7412 22.1393 17.741 22.0309C17.7399 22.0253 17.7399 22.0195 17.741 22.0139C17.7421 21.9474 17.7542 21.8815 17.777 21.819C17.8193 21.7061 17.8928 21.6077 17.9889 21.535C18.1009 21.4491 18.2376 21.4015 18.3788 21.3994C18.5474 21.3994 18.7091 21.4664 18.8283 21.5856C18.9475 21.7048 19.0145 21.8665 19.0145 22.0351L19.0102 22.0287ZM17.991 20.6726C17.8002 20.7272 17.6232 20.8219 17.4718 20.9502L15.0583 19.5538C15.0763 19.4616 15.0855 19.3679 15.0859 19.2741C15.0863 19.1406 15.067 19.0078 15.0286 18.8799L17.3977 17.511C17.5629 17.6696 17.7644 17.7852 17.9846 17.848L17.991 20.6726ZM13.6682 25.2708C13.5156 25.2727 13.3673 25.2196 13.2506 25.1211C13.1339 25.0227 13.0565 24.8855 13.0325 24.7347C13.0305 24.703 13.0305 24.6711 13.0325 24.6393C13.0329 24.5132 13.0708 24.3901 13.1414 24.2856C13.2119 24.1811 13.312 24.0999 13.4288 24.0524C13.5817 23.9905 13.7527 23.9905 13.9056 24.0524C14.022 24.1002 14.1216 24.1815 14.1918 24.286C14.2619 24.3905 14.2995 24.5135 14.2997 24.6393C14.3018 24.6711 14.3018 24.703 14.2997 24.7347C14.2761 24.8837 14.2002 25.0194 14.0857 25.1177C13.9712 25.2159 13.8255 25.2702 13.6746 25.2708H13.6682ZM12.2824 19.5495L9.87101 20.9438C9.71987 20.8151 9.54281 20.7205 9.35185 20.6662V17.848C9.57453 17.7848 9.7778 17.6668 9.94305 17.5047L12.3079 18.8714C12.2676 19.0011 12.2476 19.1362 12.2485 19.2719C12.249 19.3672 12.2582 19.4623 12.2761 19.5559L12.2824 19.5495ZM9.59342 22.0287C9.59319 22.1372 9.56522 22.2438 9.51219 22.3383C9.45915 22.4329 9.3828 22.5123 9.2904 22.5691C9.19086 22.6299 9.07649 22.6622 8.95984 22.6623C8.82901 22.661 8.70177 22.6194 8.59547 22.5431C8.48918 22.4669 8.40901 22.3596 8.3659 22.2361C8.32279 22.1126 8.31885 21.9788 8.35461 21.8529C8.39037 21.7271 8.46409 21.6153 8.56571 21.5329C8.67783 21.4439 8.8167 21.3954 8.95984 21.3952C8.9965 21.392 9.03337 21.392 9.07003 21.3952C9.17222 21.4129 9.26836 21.4559 9.34973 21.5202C9.44585 21.5928 9.51934 21.6913 9.56163 21.8041C9.58355 21.8676 9.5957 21.9341 9.59766 22.0012C9.59869 22.0068 9.59869 22.0125 9.59766 22.0182L9.59342 22.0287ZM8.32626 16.4749C8.32626 16.3063 8.39324 16.1446 8.51245 16.0254C8.63167 15.9061 8.79336 15.8392 8.96196 15.8392C9.04176 15.8392 9.12083 15.8543 9.19505 15.8837C9.29863 15.9248 9.38958 15.9925 9.45875 16.0799C9.52793 16.1673 9.57291 16.2714 9.58918 16.3816C9.58918 16.4113 9.58918 16.441 9.58918 16.4727C9.58918 16.5045 9.58918 16.5342 9.58918 16.5639C9.56508 16.7249 9.48014 16.8705 9.35185 16.9707C9.30435 17.0081 9.25149 17.0381 9.19505 17.0597C9.12116 17.0904 9.04196 17.1062 8.96196 17.1063C8.79336 17.1063 8.63167 17.0393 8.51245 16.9201C8.39324 16.8009 8.32626 16.6392 8.32626 16.4706V16.4749ZM13.2741 13.2688C13.3615 13.2007 13.4652 13.1565 13.575 13.1408C13.6847 13.1251 13.7966 13.1384 13.8996 13.1793C14.0027 13.2202 14.0932 13.2873 14.1623 13.374C14.2313 13.4607 14.2765 13.564 14.2934 13.6735C14.2955 13.7046 14.2955 13.7357 14.2934 13.7668C14.2935 13.8625 14.272 13.9569 14.2306 14.0431C14.1891 14.1294 14.1287 14.2051 14.0539 14.2647C14.0054 14.3017 13.9519 14.3317 13.895 14.3537C13.7904 14.3954 13.6768 14.409 13.5653 14.3934C13.4539 14.3778 13.3484 14.3335 13.2593 14.2647C13.1841 14.2053 13.1233 14.1297 13.0815 14.0434C13.0396 13.9572 13.0178 13.8626 13.0177 13.7668C13.0156 13.7357 13.0156 13.7046 13.0177 13.6735C13.0412 13.5139 13.1246 13.3693 13.2508 13.2688H13.2741ZM14.2997 19.2995C14.2961 19.3908 14.2729 19.4803 14.2316 19.5619C14.1902 19.6434 14.1318 19.7151 14.0603 19.772C14.0312 19.7937 14.0008 19.8135 13.9691 19.8313C13.8767 19.8813 13.7733 19.9075 13.6682 19.9076C13.5648 19.9074 13.463 19.882 13.3716 19.8335C13.338 19.8147 13.3055 19.7942 13.2741 19.772C13.2015 19.7142 13.1424 19.6412 13.1011 19.5581C13.0597 19.475 13.037 19.3838 13.0347 19.291C13.0336 19.2847 13.0336 19.2782 13.0347 19.2719C13.035 19.2167 13.0428 19.1618 13.058 19.1088C13.0911 18.9774 13.1654 18.8601 13.2699 18.774C13.3832 18.6875 13.5214 18.6399 13.664 18.6384C13.7192 18.6387 13.7741 18.6465 13.8272 18.6617C13.9339 18.6887 14.0315 18.7438 14.1098 18.8213C14.188 18.8988 14.2441 18.9959 14.2722 19.1024C14.2886 19.1574 14.2965 19.2146 14.2955 19.2719V19.2974L14.2997 19.2995ZM16.9972 16.1422C16.9697 16.2545 16.9562 16.3698 16.9569 16.4855C16.9567 16.6027 16.9717 16.7195 17.0014 16.833L14.6091 18.2146C14.4516 18.0726 14.2639 17.9683 14.0603 17.9094V15.1378C14.2824 15.0744 14.4854 14.9572 14.6515 14.7966L16.9972 16.1422ZM11.2017 6.98812C11.2017 4.90302 13.041 3.38582 13.6682 2.93872C14.3039 3.39006 16.1326 4.89455 16.1326 6.98812C16.1326 8.73417 14.8401 9.99921 14.0603 10.6031V7.29749C14.053 7.19823 14.0084 7.1054 13.9355 7.03764C13.8626 6.96989 13.7667 6.93224 13.6672 6.93224C13.5677 6.93224 13.4718 6.96989 13.3989 7.03764C13.326 7.1054 13.2814 7.19823 13.2741 7.29749V10.6052C12.4922 10.0013 11.2017 8.73841 11.2017 6.98812ZM12.685 14.7881C12.8495 14.9515 13.0519 15.0716 13.2741 15.1378V17.9094C13.0728 17.9673 12.8873 18.0702 12.7317 18.2103L10.3372 16.833C10.3909 16.6073 10.3909 16.3721 10.3372 16.1464L12.685 14.7881ZM10.3541 22.2788C10.3937 22.0509 10.3777 21.8169 10.3075 21.5965L12.6384 20.253C12.8124 20.4352 13.0319 20.5676 13.2741 20.6366V23.2747C13.0525 23.3381 12.8496 23.4545 12.6829 23.6138L10.3541 22.2788ZM14.6515 23.6138C14.4855 23.4522 14.2825 23.3336 14.0603 23.2684V20.6472C14.3031 20.5784 14.5228 20.4451 14.696 20.2615L17.0269 21.6071C16.9567 21.8275 16.9407 22.0615 16.9802 22.2894L14.6515 23.6138ZM22.7036 15.2162C22.4659 15.3387 22.2063 15.4131 21.9397 15.4349C21.6732 15.4567 21.4049 15.4256 21.1504 15.3433L21.9345 14.892C22.0246 14.84 22.0905 14.7543 22.1175 14.6538C22.1445 14.5532 22.1305 14.4461 22.0785 14.3559C22.0266 14.2657 21.9409 14.1998 21.8403 14.1728C21.7398 14.1458 21.6326 14.1598 21.5424 14.2118L20.7626 14.6674C20.8188 14.4076 20.9258 14.1616 21.0775 13.9434C21.2291 13.7252 21.4224 13.5392 21.6463 13.396C22.3964 12.9616 23.3203 13.237 23.7441 13.396C23.6805 13.8473 23.458 14.7818 22.7036 15.2162Z" fill="black"/>
</svg>
