<svg width="20" height="20" viewBox="0 0 20 20" fill="none" xmlns="http://www.w3.org/2000/svg">
<path opacity="0.6" d="M14.0669 2.54457L14.4058 2.85707C13.5246 3.00606 12.6961 3.17503 11.8994 3.46118C10.2824 4.04167 8.78347 4.82383 7.52347 6.02297C6.06998 7.40197 6.06998 9.05532 7.17736 10.6106C7.30545 10.7922 7.54073 10.9158 7.51711 11.1856C6.7622 10.5025 6.0836 9.77662 5.86285 8.72374C5.6312 7.61636 6.04454 6.70793 6.69316 5.87671C7.70879 4.56947 9.12413 3.83727 10.6285 3.25679C11.5312 2.92012 12.4557 2.64514 13.3956 2.43374C13.659 2.37197 13.8625 2.38741 14.0669 2.54457Z" fill="white"/>
<path opacity="0.6" d="M5.97656 17.4383L5.54688 17.0414C6.28271 16.8597 7.00037 16.7743 7.69169 16.539C9.44678 15.9394 11.0883 15.15 12.4392 13.8428C13.79 12.5355 13.9199 10.8386 12.7889 9.32875C12.6554 9.14707 12.5236 8.96538 12.3919 8.79005C12.3919 8.79005 12.4037 8.75825 12.4137 8.75553C12.4437 8.74941 12.474 8.74576 12.5046 8.74463C13.0124 9.27879 13.5574 9.78933 13.8672 10.4779C14.435 11.7497 14.107 12.9025 13.3076 13.9463C12.2938 15.2717 10.8658 16.0148 9.35685 16.6171C8.40286 16.9899 7.41755 17.2769 6.41261 17.4747C6.24455 17.5047 6.11374 17.5237 5.97656 17.4383Z" fill="white"/>
<path opacity="0.8" d="M15.9398 4.15155C15.7018 4.91645 15.0314 4.96096 14.4019 5.08633C12.2789 5.50693 10.333 6.30817 8.686 7.75349C7.95199 8.39938 7.40602 9.16156 7.41419 10.2726C7.27053 10.0665 7.18192 9.82714 7.1568 9.5772C7.13168 9.32726 7.17087 9.07505 7.27066 8.84452C7.61496 7.94517 8.27902 7.31926 9.01667 6.75512C10.7699 5.40609 12.7858 4.67026 14.9106 4.19879L15.7836 4.00256C15.8744 4.01256 15.9535 4.03345 15.9398 4.15155Z" fill="white"/>
<path d="M12.0592 10.4553C12.0799 10.4196 12.0926 10.3829 12.1006 10.3454C12.2814 9.84426 12.3437 9.35016 11.9602 8.88367C11.9769 9.19445 11.9462 9.50597 11.8693 9.80754L11.8738 9.80924C11.8733 9.81202 11.8727 9.81479 11.8722 9.81756L11.4982 10.5249C11.4956 10.5269 11.4931 10.5288 11.4905 10.5307C11.0345 11.0848 10.454 11.4891 9.8626 11.8788C8.71979 12.6328 7.51611 13.2342 6.17617 13.5412C6.10293 13.5634 6.02976 13.5889 5.9564 13.6145C5.78956 13.6726 5.62168 13.7311 5.44943 13.752C4.9516 13.811 4.80171 14.1644 4.63184 14.5877C7.15365 14.2262 9.36841 13.2968 11.2416 11.6217C11.5904 11.3065 11.9366 10.9494 12.0592 10.4553Z" fill="white"/>
<path d="M9.91102 7.31118C9.0898 7.86987 8.26403 8.44309 7.87431 9.42602C7.67446 9.96109 7.56997 10.4898 7.97059 10.9885L7.97695 10.3635C7.97693 10.3635 7.97697 10.3635 7.97695 10.3635C8.18434 9.67935 8.59999 9.0769 9.16611 8.64022C10.7368 7.4529 12.4528 6.55082 14.4005 6.16837C14.911 6.06845 15.1272 5.76321 15.3089 5.32626C15.2418 5.32159 15.1744 5.32159 15.1073 5.32626C13.2323 5.61332 11.4835 6.24287 9.91102 7.31118Z" fill="white"/>
<path opacity="0.7" d="M8.42471 5.83952C7.73975 6.42364 7.09022 7.06863 6.78408 7.96071C6.78408 7.96074 6.78408 7.96069 6.78408 7.96071C6.61332 8.45034 6.62877 8.98998 6.82407 9.2952C6.89139 9.19755 6.88763 9.08664 6.88391 8.9772C6.88306 8.95225 6.88221 8.92738 6.88221 8.90275C6.88117 8.90112 6.88014 8.89948 6.87912 8.89785C6.87954 8.89827 6.87995 8.8987 6.88037 8.89912C7.31097 7.72361 8.08223 6.80973 9.10785 6.11114C10.2552 5.3317 11.5107 4.77938 12.8324 4.37058C13.6782 4.10804 14.5367 3.88911 15.3988 3.69471C15.3937 3.58755 15.3285 3.53861 15.2666 3.49218C15.2172 3.45516 15.17 3.41974 15.1571 3.35768L14.9545 3.1987C14.8994 3.1987 14.8436 3.19516 14.7879 3.19163C14.6766 3.18457 14.5654 3.17751 14.4594 3.1987C12.2583 3.64293 10.1634 4.35695 8.42471 5.83952Z" fill="white"/>
<path opacity="0.7" d="M13.2039 11.8007C13.2039 11.8007 13.2039 11.8007 13.2039 11.8007C13.0594 12.4129 12.6524 12.8663 12.25 13.3123C10.8047 14.9121 8.94149 15.7869 6.90297 16.3465C6.79535 16.376 6.68559 16.3986 6.57595 16.4212C6.41903 16.4535 6.26237 16.4858 6.11263 16.5382C5.54667 16.7344 5.00797 16.7943 4.52832 16.3401C4.53728 16.1044 4.69526 16.1003 4.83922 16.0966C4.88501 16.0955 4.92939 16.0943 4.96709 16.0858C6.46873 15.7387 7.93949 15.3091 9.33212 14.6323C10.9609 13.8437 12.3418 12.8018 13.0449 11.0549C13.0456 11.0554 13.0462 11.0559 13.0469 11.0564C13.0526 11.0199 13.0521 10.982 13.0516 10.9433C13.0503 10.8376 13.049 10.7259 13.173 10.6224C13.2927 11.0047 13.3034 11.4127 13.2039 11.8007Z" fill="white"/>
<path opacity="0.8" d="M12.4537 10.3519C12.4644 10.2622 12.4749 10.1727 12.4858 10.0802C12.5015 9.9461 12.5179 9.80589 12.5366 9.65039C12.6946 9.88293 12.7855 10.1009 12.7746 10.358C12.7746 10.358 12.7746 10.358 12.7746 10.358C12.7846 11.0511 12.4558 11.6117 12.027 12.105C11.1921 13.0661 10.1393 13.7474 9.01462 14.3216C7.45303 15.1173 5.78514 15.5706 4.00098 15.8732C4.02266 15.8252 4.04319 15.7781 4.06324 15.732C4.23638 15.3348 4.3737 15.0197 4.90941 14.9293C6.55277 14.6568 8.14888 14.1817 9.59602 13.3186C10.3627 12.8644 11.0968 12.3593 11.7 11.6835C12.0399 11.2964 12.2963 10.8433 12.453 10.3526C12.4533 10.3524 12.4535 10.3521 12.4537 10.3519Z" fill="white"/>
</svg>
