<svg width="28" height="28" viewBox="0 0 28 28" fill="none" xmlns="http://www.w3.org/2000/svg">
<path d="M21.5175 0.266697L22.1426 0.843273C20.5168 1.11815 18.9882 1.4299 17.5183 1.95787C14.5349 3.0289 11.7693 4.47201 9.44457 6.68445C6.76282 9.22876 6.76282 12.2792 8.80598 15.1487C9.0423 15.4839 9.47641 15.7119 9.43283 16.2097C8.04 14.9493 6.78796 13.6101 6.38067 11.6675C5.95327 9.62431 6.71589 7.94822 7.91262 6.4146C9.78649 4.0027 12.3978 2.65177 15.1734 1.58075C16.8389 0.959599 18.5446 0.452253 20.2788 0.0622143C20.7649 -0.0517599 21.1403 -0.0232665 21.5175 0.266697Z" fill="#BAA7DA"/>
<path d="M6.59015 27.7462L5.79736 27.0138C7.155 26.6786 8.47911 26.521 9.75461 26.0869C12.9928 24.9807 16.0215 23.5242 18.5139 21.1123C21.0062 18.7004 21.2459 15.5694 19.1592 12.7838C18.9128 12.4486 18.6697 12.1133 18.4267 11.7899C18.4267 11.7899 18.4485 11.7312 18.4669 11.7262C18.5222 11.7149 18.5782 11.7081 18.6345 11.7061C19.5715 12.6916 20.5771 13.6336 21.1487 14.904C22.1962 17.2506 21.5912 19.3775 20.1162 21.3034C18.2457 23.7488 15.6109 25.1198 12.8269 26.2311C11.0667 26.9188 9.24882 27.4483 7.39468 27.8133C7.0846 27.8686 6.84324 27.9038 6.59015 27.7462Z" fill="#BAA6DD"/>
<path d="M24.9718 3.23191C24.5327 4.64318 23.2957 4.72531 22.1342 4.95661C18.2172 5.73264 14.627 7.21095 11.5882 9.87761C10.2339 11.0693 9.22662 12.4756 9.2417 14.5254C8.97663 14.1452 8.81315 13.7036 8.7668 13.2424C8.72045 12.7813 8.79277 12.3159 8.97688 11.8906C9.61212 10.2313 10.8373 9.07644 12.1983 8.03559C15.4332 5.54659 19.1524 4.18896 23.0728 3.31907L24.6835 2.95703C24.8511 2.97547 24.997 3.01402 24.9718 3.23191Z" fill="#764FBC"/>
<path d="M16.3029 17.0146C16.9465 16.433 17.5851 15.7743 17.8114 14.8625C17.8496 14.7968 17.8731 14.7291 17.8877 14.6599C18.2214 13.7353 18.3363 12.8236 17.6287 11.9629C17.6595 12.5363 17.603 13.1111 17.4611 13.6675L17.4693 13.6706C17.4683 13.6757 17.4674 13.6809 17.4664 13.686L16.7763 14.9911C16.7716 14.9946 16.7669 14.9981 16.7622 15.0016C15.9208 16.0241 14.8497 16.7699 13.7586 17.489C11.6501 18.8801 9.42925 19.9897 6.95702 20.5562C6.82188 20.5972 6.68689 20.6442 6.55153 20.6914C6.2437 20.7987 5.93397 20.9066 5.61615 20.9451C4.69765 21.054 4.42109 21.706 4.10767 22.4871C8.76049 21.82 12.8468 20.1053 16.3029 17.0146Z" fill="#592CA7"/>
<path d="M13.8493 9.0613C12.3341 10.0921 10.8106 11.1497 10.0915 12.9632C10.0915 12.9633 10.0915 12.9632 10.0915 12.9632C9.7228 13.9504 9.53006 14.926 10.2692 15.8461L10.2809 14.693C10.2809 14.693 10.281 14.693 10.2809 14.693C10.6636 13.4306 11.4304 12.3191 12.4749 11.5134C15.3729 9.32277 18.539 7.65841 22.1326 6.95278C23.0745 6.76841 23.4734 6.20524 23.8087 5.39904C23.6848 5.39042 23.5604 5.39042 23.4366 5.39904C19.9771 5.92868 16.7506 7.09021 13.8493 9.0613Z" fill="#582CA7"/>
<path d="M11.1072 6.34574C9.84343 7.42346 8.64503 8.61349 8.08018 10.2594C7.76507 11.1628 7.79357 12.1584 8.15393 12.7216C8.27814 12.5414 8.27118 12.3368 8.26432 12.1349C8.26276 12.0888 8.2612 12.0429 8.2612 11.9975C8.25924 11.9944 8.2573 11.9914 8.25539 11.9883L8.25785 11.9908C9.05232 9.82195 10.4753 8.1358 12.3676 6.84689C14.4845 5.4088 16.8009 4.38974 19.2396 3.6355C20.8 3.15111 22.3839 2.74717 23.9746 2.38848C23.9652 2.19078 23.8449 2.10048 23.7307 2.01482C23.6396 1.94651 23.5525 1.88116 23.5287 1.76665L23.1549 1.47334C23.0532 1.47334 22.9503 1.46681 22.8475 1.46029C22.6421 1.44726 22.437 1.43424 22.2415 1.47334C18.1803 2.29295 14.3152 3.61035 11.1072 6.34574Z" fill="#774EBD"/>
<path d="M19.9234 17.3448C19.6569 18.4745 18.906 19.3108 18.1635 20.1338C15.4969 23.0854 12.0592 24.6995 8.29805 25.7319C7.81534 25.8644 7.30916 25.9213 6.83985 26.0856C5.79565 26.4476 4.80172 26.5583 3.91675 25.7202C3.93854 25.147 4.43801 25.3163 4.7263 25.2509C7.49688 24.6106 10.2105 23.8179 12.7799 22.5692C15.7851 21.1143 18.3328 19.1918 19.6301 15.9687C20.138 16.3492 19.7843 16.8956 19.9234 17.3448Z" fill="#774EBD"/>
<path d="M19.9234 17.3448C19.6921 16.9157 19.9485 16.3844 19.6334 15.9737C19.6737 15.7223 19.553 15.4324 19.8664 15.1709C20.0872 15.8761 20.107 16.629 19.9234 17.3448Z" fill="#774EBD"/>
<path d="M19.1323 14.6826C19.1524 14.2083 18.9848 13.806 18.6931 13.377C18.6588 13.6638 18.6284 13.9224 18.5994 14.1697C18.5794 14.3404 18.56 14.5057 18.5403 14.6711L18.5389 14.6726C18.2497 15.578 17.7767 16.4139 17.1494 17.128C16.0365 18.3751 14.6822 19.307 13.2676 20.145C10.5976 21.7373 7.65272 22.6139 4.62067 23.1167C3.63227 23.2835 3.37891 23.8648 3.05947 24.5978C3.02247 24.6827 2.98459 24.7696 2.94458 24.8582C6.23642 24.3 9.31372 23.4637 12.1949 21.9954C14.2699 20.9361 16.2125 19.6791 17.7528 17.9057C18.544 16.9956 19.1507 15.9615 19.1323 14.6826Z" fill="#764FBC"/>
</svg>
