<svg width="28" height="28" viewBox="0 0 28 28" fill="none" xmlns="http://www.w3.org/2000/svg">
<rect x="0.5" y="0.5" width="27" height="27" rx="13.5" stroke="black"/>
<path d="M19.6949 3.56235L20.1692 3.99986C18.9356 4.20843 17.7757 4.44499 16.6603 4.84561C14.3965 5.65829 12.298 6.75332 10.534 8.4321C8.49914 10.3627 8.49914 12.6774 10.0495 14.8547C10.2288 15.1091 10.5582 15.2821 10.5251 15.6598C9.46825 14.7034 8.51821 13.6872 8.20917 12.2132C7.88485 10.6629 8.46353 9.39105 9.3716 8.22734C10.7935 6.39721 12.775 5.37214 14.8811 4.55945C16.1448 4.08812 17.4391 3.70315 18.755 3.40719C19.1238 3.32071 19.4087 3.34233 19.6949 3.56235Z" fill="#BAA7DA"/>
<path d="M8.36817 24.4136L7.7666 23.8578C8.79677 23.6035 9.80149 23.4839 10.7693 23.1545C13.2265 22.3151 15.5246 21.2099 17.4158 19.3798C19.307 17.5497 19.4888 15.1739 17.9054 13.0602C17.7185 12.8058 17.5341 12.5515 17.3497 12.306C17.3497 12.306 17.3662 12.2615 17.3802 12.2577C17.4221 12.2491 17.4646 12.244 17.5074 12.2424C18.2183 12.9903 18.9814 13.705 19.4151 14.669C20.21 16.4496 19.7508 18.0635 18.6317 19.5248C17.2123 21.3804 15.213 22.4207 13.1006 23.2639C11.765 23.7858 10.3855 24.1875 8.97863 24.4645C8.74335 24.5065 8.56021 24.5332 8.36817 24.4136Z" fill="#BAA6DD"/>
<path d="M22.3154 5.81221C21.9822 6.88308 21.0436 6.94539 20.1622 7.1209C17.19 7.70975 14.4658 8.83149 12.16 10.8549C11.1324 11.7592 10.368 12.8262 10.3795 14.3817C10.1783 14.0932 10.0543 13.758 10.0191 13.4081C9.98396 13.0582 10.0388 12.7051 10.1785 12.3824C10.6606 11.1233 11.5902 10.247 12.6229 9.45721C15.0775 7.56858 17.8997 6.53842 20.8744 5.87835L22.0966 5.60364C22.2238 5.61763 22.3345 5.64688 22.3154 5.81221Z" fill="#764FBC"/>
<path d="M15.738 16.2702C16.2264 15.8289 16.711 15.3291 16.8827 14.6372C16.9117 14.5874 16.9295 14.536 16.9406 14.4835C17.1938 13.7819 17.281 13.0901 16.744 12.437C16.7674 12.8721 16.7245 13.3082 16.6169 13.7304L16.6231 13.7328C16.6224 13.7367 16.6216 13.7406 16.6209 13.7445L16.0973 14.7348C16.0937 14.7375 16.0901 14.7401 16.0865 14.7428C15.4481 15.5186 14.6354 16.0846 13.8074 16.6302C12.2075 17.6858 10.5224 18.5277 8.64645 18.9576C8.5439 18.9886 8.44147 19.0243 8.33876 19.0601C8.10519 19.1416 7.87016 19.2235 7.629 19.2526C6.93205 19.3353 6.7222 19.83 6.48438 20.4227C10.0149 19.9165 13.1156 18.6155 15.738 16.2702Z" fill="#592CA7"/>
<path d="M13.8756 10.2356C12.7259 11.0177 11.5698 11.8203 11.0242 13.1964C11.0242 13.1964 11.0242 13.1963 11.0242 13.1964C10.7444 13.9454 10.5982 14.6856 11.159 15.3839L11.1679 14.5089C11.1679 14.5088 11.168 14.5089 11.1679 14.5089C11.4583 13.551 12.0402 12.7076 12.8327 12.0962C15.0317 10.434 17.4341 9.17108 20.1609 8.63565C20.8756 8.49575 21.1783 8.06842 21.4327 7.45668C21.3387 7.45015 21.2443 7.45015 21.1503 7.45668C18.5253 7.85858 16.0771 8.73994 13.8756 10.2356Z" fill="#582CA7"/>
<path d="M11.7952 8.17518C10.8363 8.99295 9.92693 9.89594 9.49833 11.1448C9.25923 11.8304 9.28085 12.5858 9.55429 13.0131C9.64854 12.8764 9.64326 12.7212 9.63806 12.5679C9.63687 12.533 9.63568 12.4982 9.63568 12.4637C9.6342 12.4614 9.63273 12.459 9.63128 12.4567L9.63314 12.4586C10.236 10.8129 11.3157 9.53347 12.7516 8.55545C14.3579 7.46424 16.1155 6.69098 17.966 6.11867C19.1501 5.75112 20.3519 5.44461 21.5589 5.17244C21.5518 5.02243 21.4605 4.95391 21.3738 4.88891C21.3047 4.83708 21.2386 4.78749 21.2206 4.7006L20.937 4.47804C20.8598 4.47804 20.7817 4.47308 20.7037 4.46813C20.5478 4.45825 20.3922 4.44837 20.2438 4.47804C17.1622 5.09995 14.2295 6.09959 11.7952 8.17518Z" fill="#774EBD"/>
<path d="M18.4846 16.5207C18.2824 17.3779 17.7126 18.0126 17.1492 18.637C15.1258 20.8767 12.5173 22.1014 9.66337 22.8849C9.29709 22.9853 8.91301 23.0286 8.5569 23.1532C7.76456 23.4279 7.01038 23.5119 6.33887 22.876C6.3554 22.441 6.7344 22.5695 6.95315 22.5199C9.05545 22.034 11.1145 21.4325 13.0642 20.485C15.3445 19.381 17.2777 17.9223 18.2621 15.4766C18.6474 15.7653 18.3791 16.1799 18.4846 16.5207Z" fill="#774EBD"/>
<path d="M18.4846 16.5207C18.3091 16.1952 18.5037 15.792 18.2646 15.4804C18.2951 15.2896 18.2035 15.0696 18.4414 14.8712C18.6089 15.4063 18.6239 15.9776 18.4846 16.5207Z" fill="#774EBD"/>
<path d="M17.8847 14.5011C17.8999 14.1412 17.7728 13.836 17.5515 13.5104C17.5254 13.728 17.5023 13.9243 17.4803 14.1119C17.4651 14.2414 17.4504 14.3669 17.4355 14.4924L17.4345 14.4935C17.215 15.1805 16.8561 15.8148 16.3801 16.3567C15.5356 17.3029 14.508 18.01 13.4346 18.6459C11.4086 19.8541 9.17407 20.5193 6.87337 20.9008C6.12338 21.0274 5.93113 21.4685 5.68874 22.0247C5.66067 22.0891 5.63192 22.1551 5.60156 22.2223C8.09939 21.7987 10.4344 21.1641 12.6207 20.05C14.1952 19.2462 15.6692 18.2924 16.838 16.9468C17.4383 16.2562 17.8987 15.4715 17.8847 14.5011Z" fill="#764FBC"/>
</svg>
