<svg width="20" height="20" viewBox="0 0 20 20" fill="none" xmlns="http://www.w3.org/2000/svg">
<path fill-rule="evenodd" clip-rule="evenodd" d="M14.999 8.74465C15.0696 8.82655 15.1448 8.90431 15.2201 8.98206C15.3311 9.09683 15.4421 9.21159 15.5385 9.33989C16.6594 10.8376 16.2986 12.5387 14.9647 13.6623C14.2841 14.2356 13.479 14.5149 12.5824 14.5386C12.518 14.5403 12.4602 14.5546 12.4052 14.5757C12.3583 14.5936 12.3135 14.6165 12.2683 14.6406C11.9271 14.8241 11.5854 15.0068 11.2437 15.1895C10.4791 15.5983 9.71461 16.0072 8.95485 16.4243C8.29341 16.7876 7.59625 17.0164 6.83711 16.999C5.53046 16.9694 4.46714 16.4529 3.71159 15.3885C2.87957 14.2164 2.94148 12.8194 3.85979 11.7062C3.9514 11.5952 4.04985 11.4897 4.14823 11.3844L4.15527 11.3768C4.19742 11.3317 4.23956 11.2865 4.28108 11.2409C4.30471 11.1568 4.3729 11.111 4.43881 11.0667C4.44834 11.0603 4.45781 11.054 4.46714 11.0475C4.47335 11.0432 4.4795 11.0388 4.48551 11.0344C5.12858 10.56 5.84702 10.2849 6.65562 10.2563C6.79815 10.2493 6.9346 10.1974 7.04472 10.1083C7.38505 9.94077 7.7195 9.76179 8.05361 9.58295L8.05734 9.58091C8.19669 9.50628 8.33597 9.43172 8.47559 9.35798C8.61556 9.28431 8.75477 9.20934 8.89405 9.13438C9.13137 9.00669 9.36869 8.87893 9.60966 8.75751C9.73057 8.69349 9.85043 8.62723 9.97037 8.56098L9.97534 8.55832C10.469 8.28546 10.9629 8.01261 11.5268 7.89132C12.7469 7.62866 13.8614 7.84846 14.8636 8.59315C14.8725 8.60002 14.8819 8.60669 14.8912 8.61336C14.9379 8.64683 14.9858 8.68111 14.999 8.74465ZM9.05738 13.974C8.87533 14.0712 8.69605 14.1668 8.51663 14.2621C8.15406 14.4543 7.7957 14.6546 7.42643 14.834C6.57748 15.246 5.5163 14.8385 5.23788 14.0012C5.0313 13.3829 5.41833 12.6644 6.10665 12.399C6.55696 12.2249 7.01149 12.2297 7.44163 12.4468C7.99309 12.7232 8.53874 13.0121 9.09897 13.3086L9.10208 13.3102L9.13006 13.3251C9.3197 13.4253 9.51101 13.5266 9.7048 13.6285L9.05738 13.974ZM11.3797 10.2671L9.64856 11.1859C9.66611 11.1969 9.67999 11.2064 9.69222 11.2149C9.7077 11.2255 9.72055 11.2342 9.7345 11.2417C10.4483 11.6217 11.1558 12.0135 11.8781 12.3768C12.3998 12.639 12.9364 12.6227 13.4483 12.3301C14.2608 11.8651 14.3885 10.8658 13.7186 10.2605C13.4711 10.0387 13.161 9.89635 12.8293 9.8524C12.4977 9.80846 12.1604 9.86506 11.8622 10.0146C11.698 10.0957 11.54 10.1821 11.3797 10.2671Z" fill="white"/>
<path fill-rule="evenodd" clip-rule="evenodd" d="M14.9989 8.74477C14.5957 8.44239 14.1737 8.1749 13.6831 8.02518C12.5653 7.68382 11.496 7.78899 10.4726 8.35048C10.3324 8.42708 10.1917 8.50198 10.0508 8.5764C9.90737 8.65218 9.76381 8.72735 9.62052 8.80327C9.6027 8.78164 9.58197 8.76205 9.55897 8.74545C8.8388 8.36613 8.1207 7.98334 7.39625 7.61273C7.04467 7.43307 6.6662 7.40171 6.28097 7.49123C5.6605 7.63504 5.15927 8.17422 5.12783 8.72524C5.09495 9.30096 5.4893 9.84082 6.10514 10.0672C6.42385 10.1841 6.74821 10.1804 7.07638 10.1242C7.02567 10.1784 6.96432 10.222 6.89599 10.2522C6.82704 10.2827 6.75242 10.2989 6.67677 10.2999C5.84268 10.3299 5.10338 10.6099 4.45147 11.1184C4.43696 11.1297 4.42217 11.1408 4.40725 11.1516C4.39454 11.1607 4.38176 11.1697 4.36891 11.1786L4.33927 11.1991C4.31985 11.2125 4.30044 11.2259 4.2813 11.2396C3.52825 10.5761 3.06557 9.76946 3.08043 8.75239C3.09176 7.99347 3.39878 7.33552 3.89787 6.76708C4.61417 5.94756 5.53317 5.52538 6.62758 5.46756C6.67311 5.46429 6.71802 5.4564 6.76161 5.44409C6.8135 5.42939 6.86352 5.40844 6.91057 5.38157C7.52019 5.05633 8.12948 4.73055 8.73931 4.40592C9.30887 4.10266 9.87891 3.80048 10.45 3.50075C11.9643 2.70381 13.6601 2.85987 14.9611 3.95633C15.7368 4.60762 16.1854 5.45504 16.1485 6.48252C16.1156 7.39647 15.688 8.14041 14.9989 8.74477ZM11.4408 5.37109C10.8309 5.6964 10.2176 6.01545 9.57451 6.35368C9.81846 6.48245 10.0592 6.61116 10.2981 6.73892C10.8263 7.02137 11.346 7.29919 11.8731 7.563C12.3601 7.80681 12.8638 7.77926 13.3477 7.52497C13.8436 7.26415 14.167 6.72354 14.1004 6.24817C13.9951 5.49375 13.2663 4.95803 12.4584 5.00368C12.0903 5.02443 11.7778 5.19116 11.4638 5.35885L11.4408 5.37109Z" fill="white"/>
</svg>
