<svg width="16" height="16" viewBox="0 0 16 16" fill="none" xmlns="http://www.w3.org/2000/svg">
<path d="M7.99999 14C4.68629 14 2 11.3136 2 7.9999C2 4.68625 4.68629 2 7.99999 2C11.3137 2 14 4.68625 14 7.9999C14 11.3136 11.3137 14 7.99999 14ZM7.99999 2.74996C5.10047 2.74996 2.75001 5.10043 2.75001 7.9999C2.75001 10.8994 5.10047 13.2499 7.99999 13.2499C10.8995 13.2499 13.25 10.8994 13.25 7.9999C13.25 5.10043 10.8995 2.74996 7.99999 2.74996ZM10.25 8.37497H8.37502V10.2499C8.37502 10.4569 8.20712 10.6249 8.00001 10.6249C7.79291 10.6249 7.62504 10.4569 7.62504 10.2499V8.37497H5.75002C5.54291 8.37497 5.37501 8.20706 5.37501 7.9999C5.37501 7.79288 5.54294 7.62498 5.75002 7.62498H7.62504V5.74991C7.62504 5.54292 7.79294 5.37507 8.00001 5.37507C8.20715 5.37507 8.37502 5.54289 8.37502 5.74991V7.62498H10.25C10.4571 7.62498 10.625 7.79288 10.625 7.9999C10.625 8.20706 10.4571 8.37497 10.25 8.37497Z" fill="#8697FF"/>
</svg>
