<svg width="15" height="16" viewBox="0 0 15 16" fill="none" xmlns="http://www.w3.org/2000/svg">
<g clip-path="url(#clip0_14_69)">
<path d="M7.70508 15.2947C7.29098 15.2947 6.95508 14.9588 6.95508 14.5447V1.45529C6.95508 1.04119 7.29098 0.705292 7.70508 0.705292C8.11918 0.705292 8.45508 1.04119 8.45508 1.45529V14.5447C8.45508 14.9588 8.11918 15.2947 7.70508 15.2947Z" fill="#DC9E00"/>
<path d="M14.25 8.74969H1.16016C0.746056 8.74969 0.410156 8.41379 0.410156 7.99969C0.410156 7.58559 0.746056 7.24969 1.16016 7.24969H14.25C14.6641 7.24969 15 7.58559 15 7.99969C15 8.41379 14.6641 8.74969 14.25 8.74969Z" fill="#DC9E00"/>
</g>
<defs>
<clipPath id="clip0_14_69">
<rect width="14.5898" height="14.5894" fill="white" transform="translate(0.410156 0.705292)"/>
</clipPath>
</defs>
</svg>
