<svg width="20" height="20" viewBox="0 0 20 20" fill="none" xmlns="http://www.w3.org/2000/svg">
<path d="M13.4 11.8065C12.6 12.3871 11.6 12.6774 10.5 12.6774C9.4 12.6774 8.5 12.3871 7.6 11.8065C7.6 11.9032 7.5 11.9032 7.4 11.9032C5.4 13.0645 4 15.1935 4 17.5161C4 17.8065 3.8 18 3.5 18C3.2 18 3 17.8065 3 17.5161C3 14.8065 4.5 12.3871 6.9 11.129C6 10.2581 5.5 9.09677 5.5 7.83871C5.5 5.12903 7.7 3 10.5 3C13.3 3 15.5 5.12903 15.5 7.83871C15.5 9.09677 15 10.2581 14.1 11.129C16.5 12.3871 18 14.8065 18 17.5161C18 17.8065 17.8 18 17.5 18C17.2 18 17 17.8065 17 17.5161C17 15.1935 15.6 13.0645 13.5 11.9032C13.5 11.9032 13.4 11.9032 13.4 11.8065ZM10.5 11.7097C12.7 11.7097 14.5 9.96774 14.5 7.83871C14.5 5.70968 12.7 3.96774 10.5 3.96774C8.3 3.96774 6.5 5.70968 6.5 7.83871C6.5 9.96774 8.3 11.7097 10.5 11.7097Z" fill="#707280"/>
</svg>
