<svg width="20" height="20" viewBox="0 0 20 20" fill="none" xmlns="http://www.w3.org/2000/svg">
<path d="M7.51184 3.00007H12.4882C12.8434 3.00011 13.1924 3.0961 13.5001 3.27841C13.8077 3.46071 14.0632 3.72291 14.2407 4.03863L16.7289 8.46162C16.9065 8.77735 17 9.13546 17 9.5C17 9.86454 16.9065 10.2227 16.7289 10.5384L14.2407 14.9615C14.0632 15.2772 13.8077 15.5394 13.5001 15.7217C13.1924 15.904 12.8434 16 12.4882 16H7.51184C7.15657 16 6.80757 15.904 6.49992 15.7217C6.19228 15.5394 5.93683 15.2772 5.75925 14.9614L3.2711 10.5384C3.0935 10.2227 3 9.86454 3 9.5C3 9.13546 3.0935 8.77735 3.2711 8.46162L5.75925 4.03856C5.93683 3.72284 6.19228 3.46064 6.49992 3.27834C6.80757 3.09603 7.15657 3.00003 7.51184 3V3.00007ZM7.51184 4.07741C7.34092 4.07743 7.173 4.12362 7.02499 4.21133C6.87697 4.29904 6.75406 4.42519 6.66862 4.57709L4.18047 9.00029C4.09499 9.15227 4.04998 9.32464 4.04998 9.50011C4.04998 9.67557 4.09499 9.84795 4.18047 9.99992L6.66869 14.4229C6.75412 14.5748 6.87703 14.701 7.02504 14.7887C7.17306 14.8764 7.34098 14.9226 7.51191 14.9227H12.4882C12.6592 14.9226 12.8271 14.8764 12.9751 14.7887C13.1231 14.701 13.246 14.5748 13.3314 14.4229L15.8196 9.99985C15.9051 9.84788 15.9501 9.6755 15.9501 9.50004C15.9501 9.32457 15.9051 9.15219 15.8196 9.00022L13.3313 4.57709C13.2459 4.42519 13.123 4.29904 12.9749 4.21133C12.8269 4.12362 12.659 4.07743 12.4881 4.07741H7.51177H7.51184ZM9.965 11.9716C8.6119 11.9716 7.51499 10.8461 7.51499 9.4578C7.51499 8.06947 8.6119 6.94401 9.965 6.94401C11.3181 6.94401 12.415 8.06947 12.415 9.4578C12.415 10.8461 11.3181 11.9716 9.965 11.9716ZM9.965 10.8943C10.7382 10.8943 11.365 10.2512 11.365 9.4578C11.365 8.66445 10.7382 8.02135 9.965 8.02135C9.19178 8.02135 8.565 8.66445 8.565 9.4578C8.565 10.2512 9.19178 10.8943 9.965 10.8943Z" fill="#707280"/>
</svg>
