<svg width="14" height="14" viewBox="0 0 14 14" fill="none" xmlns="http://www.w3.org/2000/svg">
<path d="M14 0H0V14H14V0Z" fill="white" fill-opacity="0.01"/>
<path d="M7.00008 12.8327C8.6109 12.8327 10.0692 12.1798 11.1249 11.1241C12.1805 10.0685 12.8334 8.61017 12.8334 6.99935C12.8334 5.38853 12.1805 3.9302 11.1249 2.87456C10.0692 1.81893 8.6109 1.16602 7.00008 1.16602C5.38927 1.16602 3.93093 1.81893 2.87529 2.87456C1.81967 3.9302 1.16675 5.38853 1.16675 6.99935C1.16675 8.61017 1.81967 10.0685 2.87529 11.1241C3.93093 12.1798 5.38927 12.8327 7.00008 12.8327Z" stroke="#FFB020" stroke-width="0.875" stroke-linejoin="round"/>
<path fill-rule="evenodd" clip-rule="evenodd" d="M6.99992 10.7923C7.40262 10.7923 7.72909 10.4659 7.72909 10.0632C7.72909 9.66045 7.40262 9.33398 6.99992 9.33398C6.59721 9.33398 6.27075 9.66045 6.27075 10.0632C6.27075 10.4659 6.59721 10.7923 6.99992 10.7923Z" fill="#FFB020"/>
<path d="M7 3.5V8.16667" stroke="#FFB020" stroke-width="0.875" stroke-linecap="round" stroke-linejoin="round"/>
</svg>
