<svg width="14" height="14" viewBox="0 0 14 14" fill="none" xmlns="http://www.w3.org/2000/svg">
<path d="M14 0H0V14H14V0Z" fill="white" fill-opacity="0.01"/>
<path d="M7 12.8337C8.61081 12.8337 10.0691 12.1807 11.1248 11.1251C12.1804 10.0695 12.8333 8.61114 12.8333 7.00033C12.8333 5.38951 12.1804 3.93118 11.1248 2.87553C10.0691 1.81991 8.61081 1.16699 7 1.16699C5.38918 1.16699 3.93085 1.81991 2.87521 2.87553C1.81958 3.93118 1.16666 5.38951 1.16666 7.00033C1.16666 8.61114 1.81958 10.0695 2.87521 11.1251C3.93085 12.1807 5.38918 12.8337 7 12.8337Z" fill="#EC5151" stroke="#EC5151" stroke-width="0.875" stroke-linejoin="round"/>
<path d="M7.58334 10.0622C7.58334 10.3843 7.32217 10.6455 7.00001 10.6455C6.67785 10.6455 6.41668 10.3843 6.41668 10.0622C6.41668 9.74001 6.67785 9.47884 7.00001 9.47884C7.32217 9.47884 7.58334 9.74001 7.58334 10.0622Z" fill="white" stroke="white" stroke-width="0.291667"/>
<path d="M7 3.5V8.16667V3.5Z" fill="white"/>
<path d="M7 3.5V8.16667" stroke="white" stroke-width="0.875" stroke-linecap="round" stroke-linejoin="round"/>
</svg>
