<svg width="90" height="34" viewBox="0 0 90 34" fill="none" xmlns="http://www.w3.org/2000/svg">
<path d="M12.5 33.5L7 27.5H12.5V33.5Z" fill="#4452A9"/>
<rect width="90" height="28" rx="2" fill="#8697FF"/>
<path d="M11.1683 9.59998C11.9843 9.59998 12.6003 9.77998 13.0163 10.14C13.4323 10.5 13.6403 11.024 13.6403 11.712C13.6403 12.088 13.5483 12.424 13.3643 12.72C13.1883 13.016 12.9243 13.248 12.5723 13.416C12.8363 13.504 13.0803 13.64 13.3043 13.824C13.5363 14 13.7243 14.228 13.8683 14.508C14.0123 14.788 14.0843 15.128 14.0843 15.528C14.0843 16.016 14.0003 16.42 13.8323 16.74C13.6643 17.06 13.4443 17.312 13.1723 17.496C12.9003 17.68 12.6003 17.812 12.2723 17.892C11.9443 17.964 11.6163 18 11.2883 18H7.66428V9.59998H11.1683ZM10.9523 10.848H8.96028V13.08H11.0963C11.4243 13.072 11.7123 12.972 11.9603 12.78C12.2163 12.588 12.3443 12.316 12.3443 11.964C12.3443 11.564 12.2083 11.28 11.9363 11.112C11.6723 10.936 11.3443 10.848 10.9523 10.848ZM11.1563 14.328H8.96028V16.752H11.2163C11.6723 16.752 12.0443 16.652 12.3323 16.452C12.6203 16.244 12.7643 15.928 12.7643 15.504C12.7643 15.2 12.6803 14.964 12.5123 14.796C12.3443 14.628 12.1363 14.508 11.8883 14.436C11.6483 14.364 11.4043 14.328 11.1563 14.328Z" fill="white"/>
<path d="M20.9205 17.172H20.9085C20.6525 17.42 20.3005 17.64 19.8525 17.832C19.4045 18.024 18.9365 18.12 18.4485 18.12C17.7925 18.12 17.2125 17.984 16.7085 17.712C16.2125 17.432 15.8245 17.052 15.5445 16.572C15.2645 16.084 15.1245 15.532 15.1245 14.916C15.1245 14.212 15.2725 13.612 15.5685 13.116C15.8645 12.612 16.2565 12.228 16.7445 11.964C17.2325 11.692 17.7645 11.556 18.3405 11.556C18.8685 11.556 19.3485 11.688 19.7805 11.952C20.2125 12.208 20.5565 12.564 20.8125 13.02C21.0685 13.476 21.1965 14.008 21.1965 14.616L21.1845 15.144H16.3605C16.4325 15.712 16.6645 16.164 17.0565 16.5C17.4565 16.828 17.9605 16.992 18.5685 16.992C19.0085 16.992 19.3645 16.912 19.6365 16.752C19.9085 16.584 20.1325 16.424 20.3085 16.272L20.9205 17.172ZM18.3405 12.696C17.8685 12.696 17.4565 12.808 17.1045 13.032C16.7525 13.248 16.5205 13.624 16.4085 14.16H19.9365V14.076C19.9125 13.804 19.8205 13.564 19.6605 13.356C19.5085 13.148 19.3165 12.988 19.0845 12.876C18.8525 12.756 18.6045 12.696 18.3405 12.696Z" fill="white"/>
<path d="M26.1758 13.356C25.9518 13.132 25.6958 12.948 25.4078 12.804C25.1278 12.66 24.8678 12.588 24.6278 12.588C24.4598 12.588 24.2918 12.608 24.1238 12.648C23.9638 12.688 23.8278 12.764 23.7158 12.876C23.6038 12.98 23.5478 13.136 23.5478 13.344C23.5558 13.632 23.6838 13.836 23.9318 13.956C24.1878 14.076 24.5038 14.184 24.8798 14.28C25.2078 14.368 25.5278 14.48 25.8398 14.616C26.1518 14.744 26.4078 14.936 26.6078 15.192C26.8158 15.44 26.9198 15.792 26.9198 16.248C26.9198 16.64 26.8078 16.976 26.5838 17.256C26.3678 17.536 26.0838 17.752 25.7318 17.904C25.3878 18.048 25.0238 18.12 24.6398 18.12C24.1838 18.12 23.7318 18.04 23.2838 17.88C22.8438 17.712 22.4678 17.428 22.1558 17.028L22.9958 16.308C23.2118 16.556 23.4558 16.752 23.7278 16.896C24.0078 17.032 24.3478 17.1 24.7478 17.1C24.8998 17.1 25.0518 17.076 25.2038 17.028C25.3558 16.972 25.4838 16.888 25.5878 16.776C25.6998 16.656 25.7558 16.496 25.7558 16.296C25.7558 16.104 25.6958 15.956 25.5758 15.852C25.4638 15.74 25.3118 15.652 25.1198 15.588C24.9278 15.516 24.7158 15.452 24.4838 15.396C24.1398 15.3 23.7998 15.184 23.4638 15.048C23.1358 14.904 22.8598 14.704 22.6358 14.448C22.4198 14.184 22.3118 13.828 22.3118 13.38C22.3118 13.004 22.4158 12.684 22.6238 12.42C22.8398 12.148 23.1198 11.94 23.4638 11.796C23.8078 11.644 24.1758 11.568 24.5678 11.568C24.9438 11.568 25.3518 11.648 25.7918 11.808C26.2318 11.968 26.5958 12.224 26.8838 12.576L26.1758 13.356Z" fill="white"/>
<path d="M30.298 18H29.062V12.9H27.754V11.7H29.062V10.092H30.298V11.7H31.762V12.9H30.298V18Z" fill="white"/>
<path d="M43.7747 18.576L42.7427 19.32L41.6147 17.844C41.1347 18.028 40.6227 18.12 40.0787 18.12C39.4787 18.12 38.9267 18.012 38.4227 17.796C37.9187 17.572 37.4827 17.264 37.1147 16.872C36.7467 16.48 36.4627 16.024 36.2627 15.504C36.0627 14.976 35.9627 14.408 35.9627 13.8C35.9627 13.192 36.0627 12.628 36.2627 12.108C36.4627 11.58 36.7467 11.12 37.1147 10.728C37.4827 10.336 37.9187 10.032 38.4227 9.81598C38.9267 9.59198 39.4787 9.47998 40.0787 9.47998C40.6787 9.47998 41.2267 9.59198 41.7227 9.81598C42.2267 10.032 42.6627 10.336 43.0307 10.728C43.4067 11.12 43.6947 11.58 43.8947 12.108C44.0947 12.628 44.1947 13.192 44.1947 13.8C44.1947 14.496 44.0627 15.136 43.7987 15.72C43.5347 16.304 43.1707 16.792 42.7067 17.184L43.7747 18.576ZM42.8747 13.8C42.8747 13.216 42.7547 12.696 42.5147 12.24C42.2747 11.776 41.9427 11.412 41.5187 11.148C41.1027 10.876 40.6227 10.74 40.0787 10.74C39.5267 10.74 39.0387 10.876 38.6147 11.148C38.1987 11.412 37.8707 11.776 37.6307 12.24C37.3987 12.696 37.2827 13.216 37.2827 13.8C37.2827 14.384 37.3987 14.908 37.6307 15.372C37.8707 15.828 38.1987 16.192 38.6147 16.464C39.0387 16.728 39.5267 16.86 40.0787 16.86C40.3267 16.86 40.5667 16.828 40.7987 16.764L39.5627 15.156C39.5627 15.156 39.6147 15.12 39.7187 15.048C39.8307 14.976 39.9547 14.896 40.0907 14.808C40.2347 14.712 40.3587 14.628 40.4627 14.556C40.5747 14.484 40.6307 14.448 40.6307 14.448L41.9267 16.152C42.2227 15.872 42.4547 15.532 42.6227 15.132C42.7907 14.724 42.8747 14.28 42.8747 13.8Z" fill="white"/>
<path d="M49.9334 15.492V11.7H51.1694V18H49.9334V16.992C49.7494 17.288 49.4774 17.552 49.1174 17.784C48.7654 18.008 48.3414 18.12 47.8454 18.12C47.1894 18.12 46.6574 17.896 46.2494 17.448C45.8414 17 45.6374 16.38 45.6374 15.588V11.7H46.8734V15.252C46.8734 15.572 46.9214 15.868 47.0174 16.14C47.1214 16.412 47.2814 16.632 47.4974 16.8C47.7214 16.96 48.0054 17.04 48.3494 17.04C48.7814 17.04 49.1534 16.904 49.4654 16.632C49.7774 16.36 49.9334 15.98 49.9334 15.492Z" fill="white"/>
<path d="M58.9391 14.844C58.9391 15.484 58.7951 16.052 58.5071 16.548C58.2271 17.036 57.8431 17.42 57.3551 17.7C56.8751 17.98 56.3351 18.12 55.7351 18.12C55.1351 18.12 54.5911 17.98 54.1031 17.7C53.6151 17.42 53.2271 17.036 52.9391 16.548C52.6591 16.052 52.5191 15.484 52.5191 14.844C52.5191 14.204 52.6591 13.64 52.9391 13.152C53.2271 12.656 53.6151 12.268 54.1031 11.988C54.5911 11.708 55.1351 11.568 55.7351 11.568C56.3351 11.568 56.8751 11.708 57.3551 11.988C57.8431 12.268 58.2271 12.656 58.5071 13.152C58.7951 13.64 58.9391 14.204 58.9391 14.844ZM57.6791 14.844C57.6871 14.42 57.6031 14.048 57.4271 13.728C57.2591 13.4 57.0271 13.148 56.7311 12.972C56.4351 12.788 56.1031 12.696 55.7351 12.696C55.3671 12.696 55.0311 12.788 54.7271 12.972C54.4311 13.148 54.1951 13.4 54.0191 13.728C53.8511 14.048 53.7711 14.42 53.7791 14.844C53.7711 15.26 53.8511 15.632 54.0191 15.96C54.1951 16.28 54.4311 16.532 54.7271 16.716C55.0311 16.9 55.3671 16.992 55.7351 16.992C56.1031 16.992 56.4351 16.9 56.7311 16.716C57.0271 16.532 57.2591 16.28 57.4271 15.96C57.6031 15.632 57.6871 15.26 57.6791 14.844Z" fill="white"/>
<path d="M62.3019 18H61.0659V12.9H59.7579V11.7H61.0659V10.092H62.3019V11.7H63.7659V12.9H62.3019V18Z" fill="white"/>
<path d="M70.2447 17.172H70.2327C69.9767 17.42 69.6247 17.64 69.1767 17.832C68.7287 18.024 68.2607 18.12 67.7727 18.12C67.1167 18.12 66.5367 17.984 66.0327 17.712C65.5367 17.432 65.1487 17.052 64.8687 16.572C64.5887 16.084 64.4487 15.532 64.4487 14.916C64.4487 14.212 64.5967 13.612 64.8927 13.116C65.1887 12.612 65.5807 12.228 66.0687 11.964C66.5567 11.692 67.0887 11.556 67.6647 11.556C68.1927 11.556 68.6727 11.688 69.1047 11.952C69.5367 12.208 69.8807 12.564 70.1367 13.02C70.3927 13.476 70.5207 14.008 70.5207 14.616L70.5087 15.144H65.6847C65.7567 15.712 65.9887 16.164 66.3807 16.5C66.7807 16.828 67.2847 16.992 67.8927 16.992C68.3327 16.992 68.6887 16.912 68.9607 16.752C69.2327 16.584 69.4567 16.424 69.6327 16.272L70.2447 17.172ZM67.6647 12.696C67.1927 12.696 66.7807 12.808 66.4287 13.032C66.0767 13.248 65.8447 13.624 65.7327 14.16H69.2607V14.076C69.2367 13.804 69.1447 13.564 68.9847 13.356C68.8327 13.148 68.6407 12.988 68.4087 12.876C68.1767 12.756 67.9287 12.696 67.6647 12.696Z" fill="white"/>
</svg>
