<svg width="28" height="28" viewBox="0 0 28 28" fill="none" xmlns="http://www.w3.org/2000/svg">
<path d="M8.93277 4.69721L8.93277 4.70973L8.93027 4.70973L8.93027 6.064L8.92778 6.064L8.92778 14.4349C8.87038 14.7003 8.65578 14.9055 8.38628 14.9456L5.02249 14.9456C5.00502 14.9456 4.99005 14.9456 4.97258 14.9481C4.96509 14.9481 4.95761 14.9481 4.94763 14.9506C4.94014 14.9506 4.93016 14.9506 4.92267 14.9531C4.91269 14.9531 4.90271 14.9556 4.89273 14.9556C4.88524 14.9556 4.88025 14.9581 4.87276 14.9581C4.86278 14.9606 4.8503 14.9606 4.84032 14.9631C4.83533 14.9631 4.83034 14.9656 4.82286 14.9656C4.81287 14.9681 4.8004 14.9706 4.79042 14.9731C4.78542 14.9731 4.78043 14.9756 4.77544 14.9756L4.7455 14.9831C4.74051 14.9856 4.73302 14.9856 4.72803 14.9881C4.71805 14.9906 4.70807 14.9931 4.70058 14.9981C4.6931 15.0007 4.6881 15.0032 4.68062 15.0057C4.67313 15.0082 4.66315 15.0132 4.65566 15.0157L4.63321 15.0232C4.62572 15.0257 4.61823 15.0307 4.61075 15.0332C4.60326 15.0357 4.59328 15.0407 4.58579 15.0432C4.5808 15.0457 4.57332 15.0482 4.56833 15.0532C4.55834 15.0582 4.55086 15.0632 4.54088 15.0657C4.53589 15.0682 4.53089 15.0707 4.5259 15.0758C4.51592 15.0808 4.50844 15.0858 4.49845 15.0908C4.49346 15.0933 4.48847 15.0958 4.48348 15.1008C4.4735 15.1058 4.46601 15.1133 4.45603 15.1183C4.45104 15.1208 4.44605 15.1258 4.44106 15.1283C4.43108 15.1333 4.42359 15.1408 4.41361 15.1483C4.40862 15.1534 4.40363 15.1559 4.39864 15.1609C4.39115 15.1659 4.38367 15.1734 4.37618 15.1784C4.36869 15.1834 4.3637 15.1909 4.35622 15.1959C4.35123 15.2009 4.34374 15.2059 4.33875 15.2109C4.32627 15.2234 4.3138 15.2335 4.30132 15.246C4.28884 15.2585 4.27886 15.271 4.26638 15.2835C4.26139 15.2885 4.2564 15.296 4.25141 15.301C4.24642 15.3086 4.23893 15.3136 4.23394 15.3211C4.22646 15.3286 4.22147 15.3361 4.21648 15.3436C4.21148 15.3486 4.20899 15.3536 4.204 15.3586C4.19651 15.3686 4.19152 15.3761 4.18403 15.3862C4.18154 15.3912 4.17655 15.3962 4.17405 15.4012C4.16906 15.4112 4.16158 15.4187 4.15659 15.4287C4.15409 15.4337 4.15159 15.4387 4.1466 15.4437C4.14161 15.4537 4.13662 15.4613 4.13163 15.4713C4.12914 15.4763 4.12664 15.4813 4.12165 15.4863C4.11666 15.4963 4.11167 15.5038 4.10917 15.5138C4.10668 15.5188 4.10418 15.5263 4.09919 15.5313C4.0942 15.5389 4.09171 15.5489 4.08921 15.5564C4.08671 15.5639 4.08172 15.5714 4.07923 15.5789L4.07174 15.6014C4.06925 15.6089 4.06426 15.619 4.06176 15.6265C4.05926 15.634 4.05677 15.639 4.05427 15.6465C4.05178 15.6565 4.04679 15.6665 4.04429 15.674C4.0418 15.679 4.0418 15.6865 4.0393 15.6916L4.03182 15.7216C4.02932 15.7266 4.02932 15.7316 4.02683 15.7391C4.02433 15.7491 4.02183 15.7616 4.01934 15.7717C4.01934 15.7767 4.01684 15.7817 4.01684 15.7892C4.01435 15.7992 4.01185 15.8117 4.01185 15.8217C4.01185 15.8292 4.00936 15.8342 4.00936 15.8417C4.00686 15.8518 4.00686 15.8618 4.00686 15.8718C4.00686 15.8793 4.00437 15.8893 4.00437 15.8968C4.00437 15.9043 4.00187 15.9118 4.00187 15.9194C3.99938 15.9519 3.99938 15.9869 4.00187 16.022C4.00187 16.0295 4.00187 16.037 4.00437 16.0445C4.00437 16.052 4.00437 16.062 4.00686 16.0695C4.00686 16.0796 4.00936 16.0896 4.00936 16.0996C4.00936 16.1071 4.01185 16.1121 4.01185 16.1196C4.01435 16.1296 4.01435 16.1421 4.01684 16.1522C4.01684 16.1572 4.01934 16.1622 4.01934 16.1697C4.02183 16.1797 4.02433 16.1922 4.02683 16.2022C4.02932 16.2072 4.02932 16.2122 4.03182 16.2197L4.0393 16.2498C4.0418 16.2548 4.0418 16.2623 4.04429 16.2673C4.04679 16.2773 4.04928 16.2873 4.05427 16.2948C4.05677 16.3024 4.05927 16.3074 4.06176 16.3149C4.06426 16.3224 4.06925 16.3324 4.07174 16.3399C4.07424 16.3474 4.07673 16.3549 4.08172 16.3624C4.08422 16.3699 4.08921 16.3774 4.09171 16.385C4.0942 16.3925 4.09919 16.4025 4.10169 16.41C4.10418 16.415 4.10668 16.4225 4.11167 16.4275C4.11666 16.4375 4.12165 16.445 4.12664 16.455C4.12914 16.4601 4.13163 16.4651 4.13662 16.4701C4.14161 16.4801 4.1466 16.4901 4.15159 16.4976C4.15409 16.5026 4.15659 16.5076 4.16158 16.5126C4.16657 16.5226 4.17405 16.5327 4.17904 16.5402C4.18154 16.5452 4.18653 16.5502 4.18903 16.5552C4.19402 16.5652 4.2015 16.5727 4.20899 16.5827C4.21398 16.5877 4.21648 16.5927 4.22147 16.5977C4.22646 16.6052 4.23394 16.6128 4.23893 16.6228C4.24392 16.6303 4.24891 16.6353 4.2564 16.6428C4.26139 16.6478 4.26638 16.6553 4.27137 16.6603C4.28136 16.6728 4.29383 16.6853 4.30631 16.6954L13.2548 25.6771L13.2772 25.6996C13.4769 25.8999 13.7389 26 14.0009 26C14.2629 26 14.5249 25.8999 14.7246 25.6996L14.747 25.6771L23.7005 16.6954C23.9026 16.4926 24.0025 16.2247 24 15.9594L24 15.9494C24 15.3837 23.5433 14.9231 22.9768 14.9231L18.9817 14.9231L18.9817 4.34175C18.8395 3.64584 18.2705 3.10263 17.5643 3L10.4575 3C9.60153 3.09012 8.93277 3.81606 8.93277 4.69721Z" fill="#E5E9EF"/>
</svg>
