<svg xmlns="http://www.w3.org/2000/svg" width="24" height="24" viewBox="0 0 24 24" fill="none">
  <path d="M6.93277 3.47584L6.93277 3.48672L6.93027 3.48672L6.93027 4.66434L6.92778 4.66434L6.92778 11.9434C6.87038 12.1741 6.65578 12.3526 6.38628 12.3875L3.02249 12.3875C3.00502 12.3875 2.99005 12.3875 2.97258 12.3896C2.96509 12.3896 2.95761 12.3896 2.94763 12.3918C2.94014 12.3918 2.93016 12.3918 2.92267 12.394C2.91269 12.394 2.90271 12.3962 2.89273 12.3962C2.88524 12.3962 2.88025 12.3983 2.87276 12.3983C2.86278 12.4005 2.85031 12.4005 2.84032 12.4027C2.83533 12.4027 2.83034 12.4049 2.82286 12.4049C2.81287 12.4071 2.8004 12.4092 2.79042 12.4114C2.78542 12.4114 2.78043 12.4136 2.77544 12.4136L2.7455 12.4201C2.74051 12.4223 2.73302 12.4223 2.72803 12.4245C2.71805 12.4266 2.70807 12.4288 2.70058 12.4332C2.6931 12.4354 2.6881 12.4375 2.68062 12.4397C2.67313 12.4419 2.66315 12.4462 2.65566 12.4484L2.63321 12.4549C2.62572 12.4571 2.61823 12.4615 2.61075 12.4636C2.60326 12.4658 2.59328 12.4702 2.58579 12.4724C2.5808 12.4745 2.57332 12.4767 2.56833 12.4811C2.55834 12.4854 2.55086 12.4898 2.54088 12.4919C2.53589 12.4941 2.53089 12.4963 2.5259 12.5007C2.51592 12.505 2.50844 12.5094 2.49845 12.5137C2.49346 12.5159 2.48847 12.5181 2.48348 12.5224C2.4735 12.5268 2.46601 12.5333 2.45603 12.5377C2.45104 12.5398 2.44605 12.5442 2.44106 12.5464C2.43108 12.5507 2.42359 12.5572 2.41361 12.5638C2.40862 12.5681 2.40363 12.5703 2.39864 12.5747C2.39115 12.579 2.38367 12.5855 2.37618 12.5899C2.36869 12.5943 2.3637 12.6008 2.35622 12.6051C2.35123 12.6095 2.34374 12.6138 2.33875 12.6182C2.32627 12.6291 2.3138 12.6378 2.30132 12.6487C2.28884 12.6596 2.27886 12.6704 2.26638 12.6813C2.26139 12.6857 2.2564 12.6922 2.25141 12.6966C2.24642 12.7031 2.23893 12.7074 2.23394 12.714C2.22646 12.7205 2.22147 12.727 2.21648 12.7336C2.21148 12.7379 2.20899 12.7423 2.204 12.7466C2.19651 12.7553 2.19152 12.7619 2.18403 12.7706C2.18154 12.7749 2.17655 12.7793 2.17405 12.7836C2.16906 12.7923 2.16158 12.7989 2.15659 12.8076C2.15409 12.8119 2.15159 12.8163 2.1466 12.8206C2.14161 12.8293 2.13662 12.8359 2.13163 12.8446C2.12914 12.8489 2.12664 12.8533 2.12165 12.8576C2.11666 12.8663 2.11167 12.8729 2.10917 12.8816C2.10668 12.8859 2.10418 12.8925 2.09919 12.8968C2.0942 12.9034 2.09171 12.9121 2.08921 12.9186C2.08671 12.9251 2.08172 12.9316 2.07923 12.9382L2.07174 12.9578C2.06925 12.9643 2.06426 12.973 2.06176 12.9795C2.05926 12.9861 2.05677 12.9904 2.05427 12.997C2.05178 13.0057 2.04679 13.0144 2.04429 13.0209C2.0418 13.0253 2.0418 13.0318 2.0393 13.0361L2.03182 13.0623C2.02932 13.0666 2.02932 13.071 2.02683 13.0775C2.02433 13.0862 2.02183 13.0971 2.01934 13.1058C2.01934 13.1101 2.01684 13.1145 2.01684 13.121C2.01435 13.1297 2.01185 13.1406 2.01185 13.1493C2.01185 13.1559 2.00936 13.1602 2.00936 13.1667C2.00686 13.1754 2.00686 13.1842 2.00686 13.1929C2.00686 13.1994 2.00437 13.2081 2.00437 13.2146C2.00437 13.2212 2.00187 13.2277 2.00187 13.2342C1.99938 13.2625 1.99938 13.293 2.00187 13.3235C2.00187 13.33 2.00187 13.3365 2.00437 13.3431C2.00437 13.3496 2.00437 13.3583 2.00686 13.3648C2.00686 13.3735 2.00936 13.3822 2.00936 13.3909C2.00936 13.3975 2.01185 13.4018 2.01185 13.4084C2.01435 13.4171 2.01435 13.4279 2.01684 13.4367C2.01684 13.441 2.01934 13.4454 2.01934 13.4519C2.02183 13.4606 2.02433 13.4715 2.02683 13.4802C2.02932 13.4845 2.02932 13.4889 2.03182 13.4954L2.0393 13.5216C2.0418 13.5259 2.0418 13.5324 2.04429 13.5368C2.04679 13.5455 2.04928 13.5542 2.05427 13.5607C2.05677 13.5673 2.05927 13.5716 2.06176 13.5781C2.06426 13.5847 2.06925 13.5934 2.07174 13.5999C2.07424 13.6064 2.07673 13.613 2.08172 13.6195C2.08422 13.626 2.08921 13.6326 2.09171 13.6391C2.0942 13.6456 2.09919 13.6543 2.10169 13.6609C2.10418 13.6652 2.10668 13.6717 2.11167 13.6761C2.11666 13.6848 2.12165 13.6913 2.12664 13.7C2.12914 13.7044 2.13163 13.7087 2.13662 13.7131C2.14161 13.7218 2.1466 13.7305 2.15159 13.737C2.15409 13.7414 2.15659 13.7458 2.16158 13.7501C2.16657 13.7588 2.17405 13.7675 2.17904 13.7741C2.18154 13.7784 2.18653 13.7828 2.18903 13.7871C2.19402 13.7958 2.2015 13.8024 2.20899 13.8111C2.21398 13.8154 2.21648 13.8198 2.22147 13.8241C2.22646 13.8306 2.23394 13.8372 2.23893 13.8459C2.24392 13.8524 2.24892 13.8568 2.2564 13.8633C2.26139 13.8677 2.26638 13.8742 2.27137 13.8785C2.28136 13.8894 2.29383 13.9003 2.30631 13.909L11.2548 21.7192L11.2773 21.7388C11.4769 21.9129 11.7389 22 12.0009 22C12.2629 22 12.5249 21.9129 12.7246 21.7388L12.747 21.7192L21.7005 13.909C21.9026 13.7327 22.0025 13.4998 22 13.269L22 13.2603C22 12.7684 21.5433 12.3679 20.9768 12.3679L16.9817 12.3679L16.9817 3.16674C16.8395 2.5616 16.2705 2.08925 15.5643 2L8.45745 2C7.60153 2.07836 6.93277 2.70962 6.93277 3.47584Z" fill="var(--r-neutral-foot,#6A7587)"/>
</svg>