<svg width="24" height="24" viewBox="0 0 24 24" fill="none" xmlns="http://www.w3.org/2000/svg">
<path d="M13.2557 12L16.7416 8.51411C17.0861 8.16954 17.0861 7.603 16.7416 7.25843C16.397 6.91386 15.8305 6.91386 15.4859 7.25843L12 10.7443L8.51411 7.25843C8.16954 6.91386 7.603 6.91386 7.25843 7.25843C6.91386 7.603 6.91386 8.16954 7.25843 8.51411L10.7443 12L7.25843 15.4859C6.91386 15.8305 6.91386 16.397 7.25843 16.7416C7.603 17.0861 8.16954 17.0861 8.51411 16.7416L12 13.2557L15.4859 16.7416C15.8305 17.0861 16.397 17.0861 16.7416 16.7416C17.0861 16.397 17.0861 15.8305 16.7416 15.4859L13.2557 12Z" fill="#818A99"/>
</svg>
