<svg width="20" height="20" viewBox="0 0 20 20" fill="none" xmlns="http://www.w3.org/2000/svg">
  <path d="M11.2557 10L14.7416 6.51411C15.0861 6.16954 15.0861 5.603 14.7416 5.25843C14.397 4.91386 13.8305 4.91386 13.4859 5.25843L10 8.74432L6.51411 5.25843C6.16954 4.91386 5.603 4.91386 5.25843 5.25843C4.91386 5.603 4.91386 6.16954 5.25843 6.51411L8.74432 10L5.25843 13.4859C4.91386 13.8305 4.91386 14.397 5.25843 14.7416C5.603 15.0861 6.16954 15.0861 6.51411 14.7416L10 11.2557L13.4859 14.7416C13.8305 15.0861 14.397 15.0861 14.7416 14.7416C15.0861 14.397 15.0861 13.8305 14.7416 13.4859L11.2557 10Z" fill="var(--r-neutral-title-1, #F7FAFC)" />
</svg>
  