<svg width="12" height="12" viewBox="0 0 12 12" fill="none" xmlns="http://www.w3.org/2000/svg">
<path d="M10.5098 4.52073H7.45594V0.510121C7.45594 0.228394 7.21451 0 6.91667 0H5.08333C4.7855 0 4.54406 0.228394 4.54406 0.510121V4.52073H1.49022C1.21947 4.52073 1 4.74912 1 5.03085V11.4899C1 11.7716 1.21948 12 1.49022 12H10.5098C10.7805 12 11 11.7716 11 11.4899V5.03085C11 4.74911 10.7805 4.52073 10.5098 4.52073ZM10.3797 11.3623H8.82696V10.0798C8.82696 9.85442 8.68029 9.67171 8.49937 9.67171C8.31844 9.67171 8.17178 9.85442 8.17178 10.0798V11.3623H6.32759V9.58244C6.32759 9.39226 6.18093 9.2381 6 9.2381C5.81908 9.2381 5.67241 9.39226 5.67241 9.58244V11.3623H3.82822V10.0798C3.82822 9.85442 3.68156 9.67171 3.50063 9.67171C3.31971 9.67171 3.17304 9.85442 3.17304 10.0798V11.3623H1.60664V8.26036H10.3797V11.3623ZM10.3797 7.62271H1.60664V5.15838H5.14801V0.637651H6.82014V5.15838H10.3797V7.62271H10.3797Z" fill="#4B4D59"/>
</svg>
