<svg width="16" height="16" viewBox="0 0 16 16" fill="none" xmlns="http://www.w3.org/2000/svg">
<path d="M8.77377 8.00086L12.8456 3.92812C13.0514 3.72225 13.0514 3.38429 12.8456 3.17841L12.8233 3.15611C12.6175 2.95025 12.2796 2.95025 12.0738 3.15611L8.00193 7.23401L3.93007 3.1544C3.72424 2.94853 3.38635 2.94853 3.18053 3.1544L3.15822 3.1767C2.94726 3.38257 2.94726 3.72053 3.15822 3.9264L7.2301 8.00086L3.15822 12.0736C2.9524 12.2795 2.9524 12.6174 3.15822 12.8233L3.18053 12.8456C3.38635 13.0515 3.72424 13.0515 3.93007 12.8456L8.00193 8.77285L12.0738 12.8456C12.2796 13.0515 12.6175 13.0515 12.8233 12.8456L12.8456 12.8233C13.0515 12.6174 13.0515 12.2795 12.8456 12.0736L8.77377 8.00086Z" fill="#B4BDCC"/>
</svg>
