<svg width="20" height="20" viewBox="0 0 20 20" fill="none" xmlns="http://www.w3.org/2000/svg">
<path d="M15.3539 14.5038C16.3806 13.2853 17 11.7139 17 10C17 6.14109 13.8589 3 10 3C6.14109 3 3 6.14109 3 10C3 13.8589 6.14109 17 10 17C12.0533 17 13.903 16.1108 15.1842 14.6989L15.2301 14.7244L15.3539 14.5038ZM10 7.44097C10.487 7.44097 10.9707 7.41042 11.4492 7.35103C11.6206 8.15709 11.7207 8.99879 11.7411 9.86085H8.36242C8.38279 9.00388 8.48121 8.16558 8.65091 7.36291C9.09552 7.41552 9.54691 7.44097 10 7.44097ZM8.81042 6.6977C9.09721 5.63879 9.51467 4.65455 10.0509 3.78909C10.5855 4.65115 11.0012 5.6303 11.288 6.68582C10.8621 6.73503 10.4327 6.76049 10 6.76049C9.59952 6.76049 9.20412 6.74012 8.81042 6.6977ZM12.4216 9.86085C12.4012 8.96655 12.2994 8.08921 12.1229 7.24752C13.1632 7.05576 14.1644 6.72315 15.0909 6.25818C15.8376 7.27127 16.2907 8.51515 16.3195 9.86085H12.4216ZM7.68194 9.86085H3.68218C3.71103 8.51515 4.16412 7.27127 4.91079 6.25818C5.86788 6.73842 6.90133 7.07782 7.97721 7.26618C7.80073 8.10109 7.7023 8.97164 7.68194 9.86085ZM7.68194 10.5413C7.70061 11.3355 7.78376 12.1195 7.928 12.8798C6.89794 13.0647 5.90521 13.3888 4.98545 13.8419C4.27103 12.912 3.80945 11.7767 3.70424 10.543H7.68194V10.5413ZM8.36242 10.5413H11.7411C11.7224 11.3067 11.641 12.0618 11.5001 12.7898C11.0063 12.727 10.5057 12.6931 10 12.6931C9.52994 12.6931 9.06327 12.7219 8.6017 12.7762C8.46085 12.0533 8.38109 11.3033 8.36242 10.5413ZM12.4216 10.5413H16.2958C16.1905 11.775 15.729 12.9103 15.0145 13.8402C14.1236 13.4024 13.1665 13.0851 12.1721 12.8967C12.3181 12.1331 12.4029 11.3423 12.4216 10.5413ZM14.6446 5.71855C13.8046 6.12412 12.9018 6.4143 11.9651 6.584C11.6936 5.55733 11.305 4.59345 10.8095 3.73139C12.3181 3.92655 13.6621 4.65285 14.6446 5.71855ZM9.30085 3.71952C8.79855 4.59176 8.40485 5.56412 8.13164 6.60267C7.15927 6.43636 6.22424 6.13939 5.3537 5.71855C6.3617 4.62739 7.74812 3.89091 9.30085 3.71952ZM5.44364 14.3748C6.27006 13.9862 7.15418 13.7079 8.07055 13.545C8.30473 14.5088 8.63903 15.4218 9.06497 16.2499C7.65309 16.0395 6.39055 15.3607 5.44364 14.3748ZM9.87612 16.3178C9.384 15.4575 9.00558 14.4834 8.74764 13.4465C9.1617 13.399 9.57915 13.3753 10 13.3753C10.4548 13.3753 10.9079 13.4024 11.3525 13.4584C11.0962 14.4902 10.7161 15.4592 10.2274 16.3161C10.151 16.3195 10.0764 16.3195 10 16.3195C9.95927 16.3195 9.91685 16.3195 9.87612 16.3178ZM11.0453 16.233C11.4645 15.4133 11.7954 14.5122 12.0279 13.5619C12.9103 13.7265 13.7605 13.9998 14.5564 14.3748C13.6349 15.3336 12.4131 16.0039 11.0453 16.233Z" fill="#707280" stroke="#707280" stroke-width="0.3"/>
</svg>
