<svg width="28" height="28" viewBox="0 0 28 28" fill="none" xmlns="http://www.w3.org/2000/svg">
<rect width="28" height="28" rx="4" fill="#C16827"/>
<path d="M17.3529 6C17.6806 6 17.9948 6.12826 18.2264 6.35657C18.4581 6.58487 18.5882 6.89452 18.5882 7.21739V10.5217H18.7647C19.0923 10.5217 19.4065 10.65 19.6382 10.8783C19.8699 11.1066 20 11.4163 20 11.7391V20.7826C20 21.1055 19.8699 21.4151 19.6382 21.6434C19.4065 21.8717 19.0923 22 18.7647 22H9.23529C8.90767 22 8.59347 21.8717 8.36181 21.6434C8.13015 21.4151 8 21.1055 8 20.7826V11.7391C8 11.4163 8.13015 11.1066 8.36181 10.8783C8.59347 10.65 8.90767 10.5217 9.23529 10.5217H9.41176V7.21739C9.41176 6.89452 9.54191 6.58487 9.77357 6.35657C10.0052 6.12826 10.3194 6 10.6471 6H17.3529ZM18.7647 11.5652H9.23529C9.18849 11.5652 9.14361 11.5835 9.11051 11.6162C9.07742 11.6488 9.05882 11.693 9.05882 11.7391V20.7826C9.05882 20.8287 9.07742 20.873 9.11051 20.9056C9.14361 20.9382 9.18849 20.9565 9.23529 20.9565H18.7647C18.8115 20.9565 18.8564 20.9382 18.8895 20.9056C18.9226 20.873 18.9412 20.8287 18.9412 20.7826V11.7391C18.9412 11.693 18.9226 11.6488 18.8895 11.6162C18.8564 11.5835 18.8115 11.5652 18.7647 11.5652ZM17.3529 7.04348H10.6471C10.6003 7.04348 10.5554 7.0618 10.5223 7.09442C10.4892 7.12703 10.4706 7.17127 10.4706 7.21739V10.5217H17.5294V7.21739C17.5294 7.17127 17.5108 7.12703 17.4777 7.09442C17.4446 7.0618 17.3997 7.04348 17.3529 7.04348ZM15.4118 8.21913H16.1176C16.2646 8.21943 16.4058 8.27548 16.5119 8.37563C16.618 8.47578 16.6809 8.61235 16.6876 8.75701C16.6943 8.90167 16.6442 9.04331 16.5477 9.15254C16.4513 9.26177 16.3158 9.33021 16.1695 9.34365L16.1176 9.34609H15.4118C15.2648 9.34578 15.1236 9.28974 15.0175 9.18959C14.9114 9.08944 14.8485 8.95286 14.8418 8.8082C14.8351 8.66355 14.8852 8.52191 14.9817 8.41268C15.0781 8.30345 15.2136 8.23501 15.3599 8.22157L15.4118 8.21913H16.1176H15.4118ZM12.5882 8.21913C12.6633 8.21913 12.7377 8.23371 12.807 8.26202C12.8764 8.29034 12.9394 8.33185 12.9925 8.38417C13.0456 8.43649 13.0877 8.49861 13.1165 8.56697C13.1452 8.63534 13.16 8.70861 13.16 8.78261C13.16 8.85661 13.1452 8.92988 13.1165 8.99824C13.0877 9.06661 13.0456 9.12872 12.9925 9.18105C12.9394 9.23337 12.8764 9.27488 12.807 9.30319C12.7377 9.33151 12.6633 9.34609 12.5882 9.34609H11.8824C11.8073 9.34609 11.7329 9.33151 11.6635 9.30319C11.5942 9.27488 11.5311 9.23337 11.4781 9.18105C11.425 9.12872 11.3828 9.06661 11.3541 8.99824C11.3254 8.92988 11.3106 8.85661 11.3106 8.78261C11.3106 8.70861 11.3254 8.63534 11.3541 8.56697C11.3828 8.49861 11.425 8.43649 11.4781 8.38417C11.5311 8.33185 11.5942 8.29034 11.6635 8.26202C11.7329 8.23371 11.8073 8.21913 11.8824 8.21913H12.5882Z" fill="white"/>
</svg>
