<svg width="20" height="20" viewBox="0 0 20 20" fill="none" xmlns="http://www.w3.org/2000/svg">
<path d="M3.15625 2.49935C3.15625 2.03911 3.58777 1.66602 4.12012 1.66602H17.6143C18.1466 1.66602 18.5781 2.03911 18.5781 2.49935V17.4993C18.5781 17.9596 18.1466 18.3327 17.6143 18.3327H4.12012C3.58777 18.3327 3.15625 17.9596 3.15625 17.4993V2.49935Z" stroke="currentColor" stroke-width="1.5" stroke-linejoin="round"/>
<path d="M11.1732 10.2546C12.5233 10.2546 13.6178 9.16003 13.6178 7.8099C13.6178 6.45975 12.5233 5.36523 11.1732 5.36523C9.82303 5.36523 8.72852 6.45975 8.72852 7.8099C8.72852 9.16003 9.82303 10.2546 11.1732 10.2546ZM11.1732 10.2546C12.2105 10.2546 13.2055 10.6667 13.939 11.4002C14.6725 12.1337 15.0846 13.1286 15.0846 14.166M11.1732 10.2546C10.1358 10.2546 9.1409 10.6667 8.40736 11.4002C7.67382 12.1337 7.26172 13.1286 7.26172 14.166" stroke="currentColor" stroke-width="1.5" stroke-linecap="round" stroke-linejoin="round"/>
<path d="M1.78125 5.83398H4.52865" stroke="currentColor" stroke-width="1.5" stroke-linecap="round" stroke-linejoin="round"/>
<path d="M1.78125 10H4.52865" stroke="currentColor" stroke-width="1.5" stroke-linecap="round" stroke-linejoin="round"/>
<path d="M1.78125 14.166H4.52865" stroke="currentColor" stroke-width="1.5" stroke-linecap="round" stroke-linejoin="round"/>
</svg>
