<svg width="18" height="18" viewBox="0 0 18 18" fill="none" xmlns="http://www.w3.org/2000/svg">
<circle opacity="0.2" cx="9" cy="9" r="9" fill="white"/>
<path d="M7.84211 5H12.2632C12.4586 5 12.646 5.07763 12.7842 5.21582C12.9224 5.354 13 5.54142 13 5.73684V10.1579C13 10.3533 12.9224 10.5407 12.7842 10.6789C12.646 10.8171 12.4586 10.8947 12.2632 10.8947H7.84211C7.64668 10.8947 7.45926 10.8171 7.32108 10.6789C7.18289 10.5407 7.10526 10.3533 7.10526 10.1579V5.73684C7.10526 5.54142 7.18289 5.354 7.32108 5.21582C7.45926 5.07763 7.64668 5 7.84211 5ZM7.84211 5.63158C7.81419 5.63158 7.78741 5.64267 7.76767 5.66241C7.74793 5.68215 7.73684 5.70892 7.73684 5.73684V10.1579C7.73684 10.1717 7.73957 10.1854 7.74485 10.1982C7.75014 10.2109 7.7579 10.2226 7.76767 10.2323C7.77745 10.2421 7.78905 10.2499 7.80182 10.2551C7.81459 10.2604 7.82828 10.2632 7.84211 10.2632H12.2632C12.2911 10.2632 12.3179 10.2521 12.3376 10.2323C12.3573 10.2126 12.3684 10.1858 12.3684 10.1579V5.73684C12.3684 5.70892 12.3573 5.68215 12.3376 5.66241C12.3179 5.64267 12.2911 5.63158 12.2632 5.63158H7.84211ZM10.2632 11.5263C10.2632 11.4426 10.2964 11.3622 10.3557 11.303C10.4149 11.2438 10.4952 11.2105 10.5789 11.2105C10.6627 11.2105 10.743 11.2438 10.8022 11.303C10.8615 11.3622 10.8947 11.4426 10.8947 11.5263V12.2632C10.8947 12.4586 10.8171 12.646 10.6789 12.7842C10.5407 12.9224 10.3533 13 10.1579 13H5.73684C5.54142 13 5.354 12.9224 5.21582 12.7842C5.07763 12.646 5 12.4586 5 12.2632V7.84211C5 7.64668 5.07763 7.45926 5.21582 7.32108C5.354 7.18289 5.54142 7.10526 5.73684 7.10526H6.47368C6.55744 7.10526 6.63776 7.13853 6.69698 7.19776C6.7562 7.25698 6.78947 7.3373 6.78947 7.42105C6.78947 7.50481 6.7562 7.58513 6.69698 7.64435C6.63776 7.70357 6.55744 7.73684 6.47368 7.73684H5.73684C5.70892 7.73684 5.68215 7.74793 5.66241 7.76767C5.64267 7.78741 5.63158 7.81419 5.63158 7.84211V12.2632C5.63158 12.2911 5.64267 12.3179 5.66241 12.3376C5.68215 12.3573 5.70892 12.3684 5.73684 12.3684H10.1579C10.1858 12.3684 10.2126 12.3573 10.2323 12.3376C10.2521 12.3179 10.2632 12.2911 10.2632 12.2632V11.5263Z" fill="white"/>
</svg>
