<svg width="18" height="18" viewBox="0 0 18 18" fill="none" xmlns="http://www.w3.org/2000/svg">
<circle opacity="0.2" cx="9" cy="9" r="9" fill="white"/>
<path fill-rule="evenodd" clip-rule="evenodd" d="M7.32536 6.08525C7.32536 5.48588 7.85137 5 8.50023 5H10.8093C11.0969 5 11.3745 5.09744 11.5895 5.27385L12.6053 6.10733C12.8564 6.31328 13 6.60859 13 6.91872V10.2593C13 10.8586 12.474 11.3445 11.8251 11.3445H10.6746V11.7346C10.6746 12.4335 10.0613 13 9.30474 13H6.3699C5.61333 13 5 12.4335 5 11.7346V7.92089C5 7.22203 5.61333 6.65549 6.3699 6.65549H7.32536V6.08525ZM8.50023 11.3445H9.89139V11.7346C9.89139 12.0339 9.62874 12.2765 9.30474 12.2765H6.3699C6.0459 12.2765 5.78325 12.0339 5.78325 11.7346V7.92089C5.78325 7.62161 6.0459 7.37899 6.3699 7.37899H7.32536V10.2593C7.32536 10.8586 7.85137 11.3445 8.50023 11.3445ZM8.50023 5.7235C8.28394 5.7235 8.10861 5.88546 8.10861 6.08525V10.2593C8.10861 10.4591 8.28394 10.621 8.50023 10.621H11.8251C12.0414 10.621 12.2168 10.4591 12.2168 10.2593V7.57828H10.7275C10.3382 7.57828 10.0226 7.28675 10.0226 6.92714V5.7235H8.50023ZM10.8058 5.7235V6.85479H12.2106C12.1952 6.7755 12.1514 6.70256 12.0852 6.64826L11.0693 5.81478C10.9977 5.75598 10.9051 5.7235 10.8093 5.7235H10.8058Z" fill="white" stroke="#B5ABFE" stroke-width="0.2"/>
</svg>
