<svg width="28" height="28" viewBox="0 0 28 28" fill="none" xmlns="http://www.w3.org/2000/svg">
<rect width="28" height="28" rx="4" fill="#27C193"/>
<path d="M14.5182 13.4937H17.7542C18.0313 13.4937 18.2552 13.7172 18.2552 13.9937C18.2552 14.2703 18.0313 14.4937 17.7542 14.4937H14.5182V17.7328C14.5182 18.0094 14.2943 18.2328 14.0172 18.2328C13.7401 18.2328 13.5162 18.0094 13.5162 17.7328V14.4937H10.2599C9.98277 14.4937 9.7589 14.2703 9.7589 13.9937C9.7589 13.7172 9.98277 13.4937 10.2599 13.4937H13.5162V10.2531C13.5162 9.97656 13.7401 9.75312 14.0172 9.75312C14.2943 9.75312 14.5182 9.97656 14.5182 10.2531V13.4937Z" fill="white"/>
<path fill-rule="evenodd" clip-rule="evenodd" d="M20.2497 6.00313C20.6959 6.00313 21.1217 6.14687 21.4458 6.40625C21.798 6.6875 22 7.0875 22 7.50312V20.5C22 21.3266 21.3252 22 20.4971 22H7.75186C7.30411 22 6.87828 21.8562 6.55421 21.5969C6.20196 21.3156 6 20.9156 6 20.5V7.5C6 7.08438 6.20196 6.68437 6.55421 6.40312C6.87984 6.14375 7.30568 6 7.75342 6L20.2497 6.00313ZM20.4971 21C20.7726 21 20.998 20.775 20.998 20.5V7.50312C20.998 7.2375 20.6474 7.00312 20.2481 7.00312L7.75186 7C7.53425 7 7.32759 7.06719 7.18043 7.18281C7.11311 7.23594 7.00196 7.34844 7.00196 7.5V20.5C7.00196 20.7656 7.35264 21 7.75186 21H20.4971Z" fill="white"/>
</svg>
