<svg width="8" height="9" viewBox="0 0 8 9" fill="none" xmlns="http://www.w3.org/2000/svg">
<path d="M4 3.88415L1.74404 1.62749C1.70362 1.58707 1.65564 1.55501 1.60283 1.53313C1.55002 1.51126 1.49343 1.5 1.43627 1.5C1.37911 1.5 1.32251 1.51126 1.2697 1.53313C1.2169 1.55501 1.16892 1.58707 1.1285 1.62749C1.08808 1.66791 1.05602 1.7159 1.03415 1.76871C1.01227 1.82152 1.00102 1.87813 1.00102 1.93529C1.00102 1.99245 1.01227 2.04906 1.03415 2.10187C1.05602 2.15468 1.08808 2.20266 1.1285 2.24309L3.38395 4.49975L1.12748 6.7559C1.08707 6.79632 1.05501 6.84431 1.03313 6.89712C1.01126 6.94993 1 7.00653 1 7.0637C1 7.12086 1.01126 7.17746 1.03313 7.23027C1.05501 7.28308 1.08707 7.33107 1.12748 7.37149C1.1679 7.41191 1.21588 7.44397 1.26869 7.46585C1.3215 7.48773 1.37809 7.49898 1.43525 7.49898C1.49241 7.49898 1.54901 7.48773 1.60182 7.46585C1.65462 7.44397 1.7026 7.41191 1.74302 7.37149L4 5.11585L6.25596 7.37251C6.29638 7.41293 6.34436 7.44499 6.39717 7.46687C6.44998 7.48874 6.50657 7.5 6.56373 7.5C6.62089 7.5 6.67749 7.48874 6.7303 7.46687C6.7831 7.44499 6.83108 7.41293 6.8715 7.37251C6.91192 7.33209 6.94398 7.2841 6.96585 7.23129C6.98773 7.17848 6.99898 7.12187 6.99898 7.06471C6.99898 7.00755 6.98773 6.95094 6.96585 6.89813C6.94398 6.84532 6.91192 6.79734 6.8715 6.75692L4.61605 4.49975L6.87252 2.24359C6.91293 2.20317 6.94499 2.15519 6.96687 2.10238C6.98874 2.04956 7 1.99296 7 1.9358C7 1.87863 6.98874 1.82203 6.96687 1.76922C6.94499 1.71641 6.91293 1.66842 6.87252 1.628C6.8321 1.58758 6.78412 1.55552 6.73131 1.53364C6.6785 1.51177 6.62191 1.50051 6.56475 1.50051C6.50759 1.50051 6.45099 1.51177 6.39818 1.53364C6.34538 1.55552 6.29739 1.58758 6.25698 1.628L4 3.88365V3.88415Z" fill="#B4BDCC"/>
</svg>
