<svg width="28" height="28" viewBox="0 0 28 28" fill="none" xmlns="http://www.w3.org/2000/svg">
<path d="M28 0H0V28H28V0Z" fill="white" fill-opacity="0.01"/>
<path d="M10.5 3.5H4.66667C4.02233 3.5 3.5 4.02233 3.5 4.66667V10.5C3.5 11.1443 4.02233 11.6667 4.66667 11.6667H10.5C11.1443 11.6667 11.6667 11.1443 11.6667 10.5V4.66667C11.6667 4.02233 11.1443 3.5 10.5 3.5Z" stroke="#13141A" stroke-width="1.75" stroke-linejoin="round"/>
<path d="M10.5 16.333H4.66667C4.02233 16.333 3.5 16.8553 3.5 17.4997V23.333C3.5 23.9773 4.02233 24.4997 4.66667 24.4997H10.5C11.1443 24.4997 11.6667 23.9773 11.6667 23.333V17.4997C11.6667 16.8553 11.1443 16.333 10.5 16.333Z" stroke="#13141A" stroke-width="1.75" stroke-linejoin="round"/>
<path d="M20.4154 11.6667C22.6705 11.6667 24.4987 9.8385 24.4987 7.58333C24.4987 5.32817 22.6705 3.5 20.4154 3.5C18.1602 3.5 16.332 5.32817 16.332 7.58333C16.332 9.8385 18.1602 11.6667 20.4154 11.6667Z" stroke="#8697FF" stroke-width="1.75" stroke-linejoin="round"/>
<path d="M23.332 16.333H17.4987C16.8544 16.333 16.332 16.8553 16.332 17.4997V23.333C16.332 23.9773 16.8544 24.4997 17.4987 24.4997H23.332C23.9764 24.4997 24.4987 23.9773 24.4987 23.333V17.4997C24.4987 16.8553 23.9764 16.333 23.332 16.333Z" stroke="#13141A" stroke-width="1.75" stroke-linejoin="round"/>
</svg>
