<svg width="20" height="20" viewBox="0 0 20 20" fill="none" xmlns="http://www.w3.org/2000/svg">
    <path d="M9.58398 18.7859V9.94556" stroke="#707280" stroke-width="1.25" stroke-linejoin="round" />
    <path
        d="M1.94336 5.57617V14.4198C1.94336 14.6039 2.03572 14.7881 2.22045 14.8917L8.77753 18.5748C9.27764 18.8556 9.88921 18.8556 10.3892 18.5748L16.9459 14.8917C17.1307 14.7881 17.2231 14.6039 17.2231 14.4198V5.5773"
        stroke="#707280" stroke-width="1.25" stroke-linecap="round" stroke-linejoin="round" />
    <path
        d="M2.22051 6.05086L8.77752 9.7339C9.27763 10.0148 9.8892 10.0148 10.3892 9.7339L16.9459 6.05086C17.3155 5.84337 17.3155 5.31465 16.9459 5.10707L10.3892 1.42404C9.8892 1.14312 9.27763 1.1432 8.77752 1.42404L2.22051 5.10707C1.85097 5.31465 1.85097 5.84337 2.22051 6.05086Z"
        stroke="#707280" stroke-width="1.25" stroke-linecap="round" stroke-linejoin="round" />
</svg>
    