<svg width="14" height="14" viewBox="0 0 14 14" fill="none" xmlns="http://www.w3.org/2000/svg">
<path d="M11.7962 6.18533H7.45137V2.20266C7.45137 1.95351 7.24789 1.75 6.99877 1.75C6.74965 1.75 6.54616 1.95351 6.54616 2.20266V6.18533H2.20261C1.95349 6.18533 1.75 6.38885 1.75 6.63799C1.75 6.88714 1.95349 7.09066 2.20261 7.09066H6.54739V11.7973C6.54739 12.0465 6.75088 12.25 7 12.25C7.24912 12.25 7.45261 12.0465 7.45261 11.7973V7.09066H11.7974C12.0465 7.09066 12.25 6.88714 12.25 6.63799C12.2488 6.38885 12.0453 6.18533 11.7962 6.18533Z" fill="#8697FF" stroke="#8697FF" stroke-width="0.5"/>
</svg>
