<svg width="48" height="48" viewBox="0 0 48 48" fill="none" xmlns="http://www.w3.org/2000/svg">
<rect width="48" height="48" rx="4" fill="#FD7558"/>
<path opacity="0.8" fill-rule="evenodd" clip-rule="evenodd" d="M35.3642 28.7964C35.3642 33.0087 31.8982 36.4234 27.6227 36.4234H13V31.3388H27.6227C29.0479 31.3388 30.2032 30.2005 30.2032 28.7964C30.2032 27.3923 29.0479 26.2541 27.6227 26.2541H22.4618V21.1694H27.6227C29.0479 21.1694 30.2032 20.0311 30.2032 18.627C30.2032 17.2229 29.0479 16.0847 27.6227 16.0847H13V11H27.6227C31.8982 11 35.3642 14.4147 35.3642 18.627C35.3642 20.5805 34.6188 22.3624 33.3929 23.7117C34.6188 25.0611 35.3642 26.843 35.3642 28.7964Z" fill="white"/>
<path opacity="0.12" fill-rule="evenodd" clip-rule="evenodd" d="M13 16.0847H25.5594C22.8916 12.9971 18.6442 11 13.8602 11C13.5714 11 13.2846 11.0073 13 11.0216V16.0847ZM28.1904 26.2541H23.3219V21.1694H28.1904C28.3822 21.9908 28.4829 22.8411 28.4829 23.7117C28.4829 24.5824 28.3822 25.4326 28.1904 26.2541ZM13 31.3388H25.5594C22.8916 34.4263 18.6442 36.4234 13.8602 36.4234C13.5714 36.4234 13.2846 36.4162 13 36.4018V31.3388Z" fill="black"/>
<path d="M13 11C20.1258 11 25.9024 16.6912 25.9024 23.7117C25.9024 30.7322 20.1258 36.4234 13 36.4234V31.3388C17.2755 31.3388 20.7414 27.924 20.7414 23.7117C20.7414 19.4994 17.2755 16.0847 13 16.0847V11Z" fill="white"/>
</svg>
