<svg xmlns="http://www.w3.org/2000/svg" width="20" height="20" viewBox="0 0 20 20" fill="none">
  <path d="M16.2377 4.16111C15.0902 3.62448 13.8602 3.22784 12.574 3.00229C12.5626 3.00001 12.5507 3.00148 12.5401 3.0065C12.5295 3.01152 12.5206 3.01983 12.5148 3.03029C12.3573 3.31727 12.1818 3.69136 12.0588 3.9869C10.6947 3.77554 9.3078 3.77554 7.94366 3.9869C7.80666 3.65937 7.65218 3.34 7.48092 3.03029C7.47512 3.0197 7.46634 3.0112 7.45575 3.00592C7.44516 3.00064 7.43328 2.99883 7.42167 3.00074C6.13621 3.22628 4.90625 3.62292 3.75803 4.16033C3.74815 4.16463 3.73978 4.17195 3.73403 4.18133C1.4001 7.73943 0.760367 11.2096 1.07461 14.6363C1.07548 14.6447 1.07799 14.6528 1.08199 14.6602C1.08599 14.6675 1.09139 14.674 1.09786 14.6791C2.46011 15.7076 3.97953 16.491 5.59248 16.9967C5.60372 17.0003 5.61575 17.0003 5.62699 16.9967C5.63823 16.9931 5.64815 16.986 5.65548 16.9765C6.00256 16.4951 6.31013 15.9844 6.57495 15.4498C6.57862 15.4425 6.58074 15.4345 6.58116 15.4262C6.58158 15.418 6.58029 15.4098 6.57737 15.4021C6.57445 15.3944 6.56998 15.3875 6.56426 15.3818C6.55854 15.376 6.5517 15.3717 6.5442 15.3689C6.05972 15.1797 5.59029 14.9514 5.14024 14.6861C5.13215 14.6813 5.12534 14.6745 5.12041 14.6663C5.11548 14.6581 5.11259 14.6488 5.11199 14.6392C5.1114 14.6295 5.11312 14.6199 5.117 14.6111C5.12088 14.6023 5.12681 14.5947 5.13424 14.5889C5.22874 14.5165 5.32324 14.4411 5.41323 14.3657C5.42133 14.3589 5.43109 14.3546 5.44142 14.3532C5.45175 14.3518 5.46224 14.3534 5.47173 14.3579C8.4169 15.7298 11.6066 15.7298 14.5172 14.3579C14.5267 14.3532 14.5373 14.3513 14.5478 14.3526C14.5583 14.3538 14.5682 14.3581 14.5765 14.3649C14.6665 14.4411 14.7602 14.5165 14.8555 14.5889C14.863 14.5946 14.869 14.6021 14.873 14.6108C14.877 14.6195 14.8789 14.6291 14.8784 14.6387C14.878 14.6484 14.8752 14.6577 14.8704 14.666C14.8656 14.6743 14.859 14.6812 14.851 14.6861C14.4025 14.9536 13.936 15.1799 13.4462 15.3681C13.4387 15.371 13.4319 15.3754 13.4262 15.3812C13.4204 15.387 13.416 15.394 13.413 15.4018C13.4101 15.4095 13.4089 15.4178 13.4093 15.4261C13.4097 15.4343 13.4118 15.4424 13.4155 15.4498C13.6855 15.9841 13.9945 16.4927 14.3342 16.9757C14.3413 16.9856 14.3511 16.993 14.3624 16.9969C14.3737 17.0008 14.3858 17.001 14.3972 16.9975C16.0129 16.4932 17.5348 15.7094 18.8986 14.6791C18.9052 14.6743 18.9108 14.668 18.915 14.6608C18.9191 14.6535 18.9217 14.6455 18.9226 14.6371C19.2976 10.6753 18.2941 7.23313 16.2609 4.18288C16.2559 4.17297 16.2477 4.16524 16.2377 4.16111ZM7.01519 12.5497C6.12871 12.5497 5.39748 11.7183 5.39748 10.6987C5.39748 9.6783 6.11446 8.84769 7.01519 8.84769C7.92266 8.84769 8.64714 9.6853 8.63289 10.6987C8.63289 11.7191 7.91591 12.5497 7.01519 12.5497ZM12.9963 12.5497C12.109 12.5497 11.3786 11.7183 11.3786 10.6987C11.3786 9.6783 12.0948 8.84769 12.9963 8.84769C13.9037 8.84769 14.6282 9.6853 14.614 10.6987C14.614 11.7191 13.9045 12.5497 12.9963 12.5497Z" fill="var(--r-neutral-foot, #6A7587)"/>
</svg>