<svg width="20" height="20" viewBox="0 0 20 20" fill="none" xmlns="http://www.w3.org/2000/svg">
<path d="M7.85029 3L7.34821 3.05948C7.34821 3.05948 5.09564 3.30183 3.45057 4.60217H3.43129L3.41071 4.62115C3.04171 4.95525 2.881 5.36592 2.62707 5.96642C2.32775 6.68889 2.07293 7.42846 1.864 8.18111C1.387 9.87882 1 11.9353 1 13.8165V13.9747L1.08036 14.1329C1.67564 15.1612 2.7325 15.8161 3.71221 16.2685C4.69129 16.7209 5.53793 16.9608 6.12293 16.9804L6.50479 17L6.70536 16.664L7.40864 15.4377C8.15436 15.6035 9.01321 15.7148 10 15.7148C10.9868 15.7148 11.8456 15.6035 12.5914 15.4377L13.2946 16.664L13.4959 17L13.8771 16.9804C14.4621 16.9608 15.3087 16.7209 16.2878 16.2685C17.2675 15.8161 18.3244 15.1612 18.9196 14.1329L19 13.9747V13.8165C19 11.9353 18.613 9.87882 18.136 8.18111C17.9271 7.42846 17.6723 6.68889 17.3729 5.96642C17.119 5.36529 16.9583 4.95525 16.5893 4.62179L16.5694 4.60154H16.5488C14.905 3.30183 12.6518 3.05948 12.6518 3.05948L12.1497 3L11.9684 3.45496C11.9684 3.45496 11.7826 3.91688 11.6676 4.44398C11.1149 4.36892 10.5579 4.32919 10 4.32502C9.65607 4.32502 9.06143 4.34716 8.33243 4.44398C8.21671 3.91688 8.03093 3.45496 8.03093 3.45496L7.85029 3ZM6.96636 4.44398C6.994 4.53256 7.02164 4.60913 7.04671 4.68127C6.2155 4.88375 5.329 5.19254 4.51579 5.68927L5.1985 6.75738C6.86607 5.73862 9.26136 5.59055 10 5.59055C10.738 5.59055 13.1339 5.73862 14.8015 6.75738L15.4842 5.68927C14.671 5.19254 13.7845 4.88375 12.9533 4.68063C12.9784 4.60913 13.006 4.53256 13.0336 4.44334C13.6334 4.5623 14.779 4.8344 15.7253 5.57094C15.7201 5.57347 15.9664 5.93921 16.1875 6.46061C16.4138 6.9972 16.6645 7.71159 16.8908 8.51711C17.3254 10.0617 17.6667 11.9429 17.6944 13.5989C17.2894 14.207 16.5391 14.7556 15.7452 15.1219C15.2473 15.3535 14.7206 15.5195 14.1786 15.6155L13.8571 15.0821C14.0481 15.0125 14.2364 14.9365 14.3997 14.8644C15.3891 14.4367 15.9265 13.9747 15.9265 13.9747L15.0824 13.0256C15.0824 13.0256 14.7211 13.3521 13.8771 13.7178C13.0343 14.0836 11.7454 14.4493 10 14.4493C8.25464 14.4493 6.96636 14.0836 6.12293 13.7178C5.27886 13.3521 4.91757 13.0256 4.91757 13.0256L4.0735 13.9747C4.0735 13.9747 4.61093 14.4367 5.60029 14.8644C5.76357 14.9365 5.95193 15.0131 6.14286 15.0821L5.82143 15.6161C5.27916 15.5198 4.75219 15.3534 4.25414 15.1213C3.46086 14.7556 2.71 14.207 2.30629 13.5989C2.33329 11.9429 2.67464 10.0617 3.10986 8.51711C3.30217 7.81842 3.5368 7.13169 3.8125 6.46061C4.03364 5.93921 4.27986 5.57347 4.27471 5.57094C5.221 4.8344 6.36657 4.56231 6.96636 4.44398ZM7.75 8.7544C7.25307 8.7544 6.81336 9.03345 6.54464 9.38716C6.27593 9.74088 6.14286 10.1756 6.14286 10.6527C6.14286 11.1298 6.27593 11.5645 6.54464 11.9182C6.81336 12.272 7.25307 12.551 7.75 12.551C8.24693 12.551 8.68664 12.272 8.95536 11.9182C9.22407 11.5645 9.35714 11.1298 9.35714 10.6527C9.35714 10.1756 9.22407 9.74088 8.95536 9.38716C8.68664 9.03345 8.24693 8.7544 7.75 8.7544ZM12.25 8.7544C11.7531 8.7544 11.3134 9.03345 11.0446 9.38716C10.7759 9.74088 10.6429 10.1756 10.6429 10.6527C10.6429 11.1298 10.7759 11.5645 11.0446 11.9182C11.3134 12.272 11.7531 12.551 12.25 12.551C12.7469 12.551 13.1866 12.272 13.4554 11.9182C13.7241 11.5645 13.8571 11.1298 13.8571 10.6527C13.8571 10.1756 13.7241 9.74088 13.4554 9.38716C13.1866 9.03345 12.7469 8.7544 12.25 8.7544ZM7.75 10.0199C7.78536 10.0199 7.83036 10.0326 7.91071 10.1389C7.99107 10.2446 8.07143 10.43 8.07143 10.6527C8.07143 10.8754 7.99107 11.0608 7.91071 11.1671C7.83036 11.2728 7.78536 11.2855 7.75 11.2855C7.71464 11.2855 7.66964 11.2728 7.58929 11.1665C7.48297 11.0157 7.42682 10.8362 7.42857 10.6527C7.42857 10.43 7.50893 10.2446 7.58929 10.1383C7.66964 10.0326 7.71464 10.0199 7.75 10.0199ZM12.25 10.0199C12.2854 10.0199 12.3304 10.0326 12.4107 10.1389C12.4911 10.2446 12.5714 10.43 12.5714 10.6527C12.5714 10.8754 12.4911 11.0608 12.4107 11.1671C12.3304 11.2728 12.2854 11.2855 12.25 11.2855C12.2146 11.2855 12.1696 11.2728 12.0893 11.1665C11.983 11.0157 11.9268 10.8362 11.9286 10.6527C11.9286 10.43 12.0089 10.2446 12.0893 10.1383C12.1696 10.0326 12.2146 10.0199 12.25 10.0199Z" fill="black"/>
</svg>
