<svg width="18" height="20" viewBox="0 0 18 20" fill="none" xmlns="http://www.w3.org/2000/svg">
<path d="M11.6997 3.28931H8.97455V16.7107H11.6997C13.7978 16.7107 15.4987 14.9612 15.4987 12.803V7.19695C15.4987 5.03882 13.7978 3.28931 11.6997 3.28931Z" fill="white"/>
<path d="M6.33263 16.7106H9.05776V3.28931H6.33263C4.23449 3.28931 2.53363 5.03882 2.53363 7.19695V12.803C2.53363 14.9612 4.23449 16.7107 6.33263 16.7107V16.7106Z" fill="#FFD523"/>
<path d="M12.4687 7.56925C12.3256 7.49133 12.1626 7.44678 11.9895 7.44678C11.4228 7.44678 10.9633 7.91935 10.9633 8.50228C10.9633 9.08521 11.4228 9.55778 11.9895 9.55778C12.5303 9.55778 12.9724 9.12715 13.0118 8.58122C13.0136 8.55507 13.0157 8.52893 13.0157 8.50228C13.0157 8.09747 12.7939 7.74633 12.4687 7.56925H12.4687Z" fill="#211F1F"/>
<path d="M0.815413 4.54723H0V3.1145C0 1.82044 1.02356 0.767639 2.28165 0.767639H4.88881V1.60637H2.28165C1.47316 1.60637 0.815413 2.28292 0.815413 3.11452V4.54725V4.54723Z" fill="#FFD523"/>
<path d="M5.03095 19.4054H2.28165C1.02358 19.4054 0 18.3526 0 17.0585V15.5781H0.815413V17.0585C0.815413 17.8901 1.47316 18.5667 2.28165 18.5667H5.03095V19.4054Z" fill="#FFD523"/>
<path d="M17.9431 4.54723H17.1277V3.1145C17.1277 2.2829 16.47 1.60634 15.6615 1.60634H13.0543V0.767639H15.6615C16.9196 0.767639 17.9431 1.82044 17.9431 3.11452V4.54725V4.54723Z" fill="#FFD523"/>
<path d="M15.6615 19.4054H12.9121V18.5667H15.6615C16.47 18.5667 17.1277 17.8901 17.1277 17.0585V15.5781H17.9431V17.0585C17.9431 18.3526 16.9196 19.4054 15.6615 19.4054Z" fill="#FFD523"/>
<path d="M11.4979 11.3362C11.4472 10.9385 11.1173 10.6312 10.7167 10.6312H8.97156V13.7237H11.9262C12.6636 13.7237 13.2614 13.1088 13.2614 12.3503V11.3362H11.4979H11.4979Z" fill="#E5E5E5"/>
<path d="M8.97156 11.6504H11.4979C11.4472 11.2526 11.1173 10.9453 10.7167 10.9453H8.97156V11.6504Z" fill="#C6C6C6"/>
<path d="M11.731 11.0221C11.5675 10.6058 11.1699 10.317 10.7167 10.317H8.97156V10.9453H10.7167C10.9581 10.9453 11.1637 11.1309 11.1951 11.3771L11.2299 11.6504H12.956V12.3503C12.956 12.9344 12.494 13.4096 11.9262 13.4096H8.97156V14.0379H11.9262C12.8309 14.0379 13.5668 13.2809 13.5668 12.3503V11.0221H11.731H11.731Z" fill="#211F1F"/>
<path d="M6.44522 11.3362C6.49586 10.9385 6.82585 10.6312 7.22636 10.6312H8.97155V13.7237H6.01692C5.27948 13.7237 4.6817 13.1088 4.6817 12.3503V11.3362H6.44524H6.44522Z" fill="#F4901E"/>
<path d="M8.97158 11.6504H6.44525C6.4959 11.2526 6.82589 10.9453 7.22639 10.9453H8.97158V11.6504Z" fill="#D1690B"/>
<path d="M6.21212 11.0221C6.37556 10.6058 6.77319 10.317 7.22635 10.317H8.97154V10.9453H7.22635C6.98501 10.9453 6.77941 11.1309 6.74802 11.3771L6.7132 11.6504H4.98709V12.3503C4.98709 12.9344 5.44909 13.4096 6.01689 13.4096H8.97154V14.0379H6.01689C5.11224 14.0379 4.37628 13.2809 4.37628 12.3503V11.0221H6.21214H6.21212Z" fill="#211F1F"/>
<path d="M11.8971 2.79578H8.97156V3.6345H11.8971C13.6964 3.6345 15.1601 5.14013 15.1601 6.99083V13.0092C15.1601 14.8599 13.6964 16.3655 11.8971 16.3655H8.97156V17.2043H11.8971C14.1496 17.2043 15.9755 15.3261 15.9755 13.0092V6.99083C15.9755 4.67397 14.1496 2.79578 11.8971 2.79578Z" fill="#211F1F"/>
<path d="M6.04603 2.79578H8.97157V3.6345H6.04603C4.24678 3.6345 2.783 5.14013 2.783 6.99083V13.0092C2.783 14.8599 4.24678 16.3655 6.04603 16.3655H8.97157V17.2043H6.04603C3.79357 17.2043 1.96759 15.3261 1.96759 13.0092V6.99083C1.96759 4.67397 3.79357 2.79578 6.04603 2.79578Z" fill="#211F1F"/>
<path d="M8.7677 0.594604V3.78207V19.4054H9.17536V3.78207V0.594604H8.7677Z" fill="#FFD523"/>
<path d="M6.43281 7.56925C6.28972 7.49133 6.12678 7.44678 5.95361 7.44678C5.38689 7.44678 4.92743 7.91935 4.92743 8.50228C4.92743 9.08521 5.38689 9.55778 5.95361 9.55778C6.49441 9.55778 6.93652 9.12715 6.9759 8.5812C6.97778 8.55505 6.97977 8.5289 6.97977 8.50226C6.97977 8.09745 6.75797 7.7463 6.43279 7.56923L6.43281 7.56925Z" fill="#211F1F"/>
</svg>
