<svg width="120" height="30" viewBox="0 0 120 30" fill="none" xmlns="http://www.w3.org/2000/svg">
<path d="M3.92639 8.19334H2.87939V6.40496C2.87939 4.78965 4.19358 3.47546 5.80889 3.47546H9.15633V4.52246H5.80889C4.77089 4.52246 3.92639 5.36696 3.92639 6.40496V8.19334Z" fill="#FFF9E0"/>
<path d="M9.33896 26.7405H5.80889C4.19358 26.7405 2.87939 25.4263 2.87939 23.811V21.963H3.92639V23.811C3.92639 24.849 4.77089 25.6935 5.80889 25.6935H9.33896V26.7405Z" fill="#FFF9E0"/>
<path d="M25.9177 8.19334H24.8707V6.40496C24.8707 5.36696 24.0262 4.52246 22.9882 4.52246H19.6407V3.47546H22.9882C24.6035 3.47546 25.9177 4.78965 25.9177 6.40496V8.19334Z" fill="#FFF9E0"/>
<path d="M22.9882 26.7405H19.4581V25.6935H22.9882C24.0262 25.6935 24.8707 24.849 24.8707 23.811V21.963H25.9177V23.811C25.9177 25.4263 24.6035 26.7405 22.9882 26.7405Z" fill="#FFF9E0"/>
<path d="M19.5146 17.9338V17.0601H17.2983L17.2537 16.719C17.2134 16.4117 16.9494 16.1799 16.6395 16.1799H14.6604V19.2559H18.1923C18.9213 19.2559 19.5146 18.6628 19.5146 17.9336V17.9338Z" fill="#FFF9E0"/>
<path d="M17.9015 6.62329H14.6604V15.3957H16.6395C17.2213 15.3957 17.7318 15.756 17.9416 16.2758H20.2989V17.9339C20.2989 19.0954 19.3539 20.0402 18.1923 20.0402H14.6604V23.3768H17.9015C20.5955 23.3768 22.7793 21.1928 22.7793 18.499V11.5011C22.7793 8.8071 20.5955 6.62329 17.9015 6.62329ZM19.586 13.2291C19.5356 13.9105 18.9678 14.4482 18.2735 14.4482C17.5458 14.4482 16.956 13.8584 16.956 13.1307C16.956 12.403 17.5458 11.8131 18.2735 11.8131C18.4959 11.8131 18.705 11.8688 18.8887 11.9661C19.3063 12.1872 19.5911 12.6254 19.5911 13.1307C19.5911 13.164 19.5885 13.1965 19.586 13.2293V13.2291Z" fill="#FFF9E0"/>
<path d="M10.605 20.0402C9.44344 20.0402 8.49844 19.0952 8.49844 17.9339V16.2758H10.8557C11.0655 15.756 11.5761 15.3957 12.1579 15.3957H14.1369V6.62329H11.0104C8.31638 6.62329 6.13257 8.8071 6.13257 11.5011V18.499C6.13257 21.193 8.31657 23.3768 11.0104 23.3768H14.1369V20.0402H10.605ZM10.5236 11.8127C10.746 11.8127 10.9553 11.8684 11.1388 11.9657C11.5564 12.1868 11.8412 12.625 11.8412 13.1303C11.8412 13.1637 11.8388 13.1961 11.8363 13.2289C11.7857 13.9103 11.2181 14.448 10.5236 14.448C9.79594 14.448 9.20607 13.8582 9.20607 13.1305C9.20607 12.4028 9.79594 11.8129 10.5236 11.8129V11.8127Z" fill="#FFF9E0"/>
<path d="M11.5436 16.719L11.499 17.0601H9.28271V17.9339C9.28271 18.6629 9.87597 19.2561 10.605 19.2561H14.1369V16.1802H12.1578C11.8479 16.1802 11.5841 16.4119 11.5436 16.7192V16.719Z" fill="#FFF9E0"/>
<path d="M14.1368 23.3768V23.9468V26.7406H14.6603V23.9468V23.3768H14.1368Z" fill="#FFF9E0"/>
<path d="M14.1368 3.25952V3.82952V6.62327H14.6603V3.82952V3.25952H14.1368Z" fill="#FFF9E0"/>
<path d="M32.619 19.7028V10.3196H36.1215C36.8965 10.3196 37.575 10.4431 38.1566 10.6899C38.7379 10.9366 39.2248 11.2711 39.6171 11.6941C40.0088 12.1171 40.3041 12.6125 40.5026 13.1808C40.7006 13.7491 40.8 14.3553 40.8 14.9981C40.8 15.7119 40.6898 16.3573 40.4695 16.9346C40.2491 17.5113 39.9343 18.0048 39.5243 18.4143C39.1148 18.8244 38.6213 19.1415 38.0445 19.3659C37.4672 19.5907 36.8263 19.703 36.1215 19.703H32.619V19.7028ZM38.5926 14.9981C38.5926 14.5841 38.5375 14.2074 38.4278 13.8682C38.3175 13.5292 38.1568 13.2358 37.9453 12.989C37.7338 12.7428 37.4738 12.5533 37.1655 12.4207C36.8573 12.2887 36.5093 12.2227 36.1215 12.2227H34.7867V17.7997H36.1215C36.5181 17.7997 36.87 17.7298 37.1788 17.5882C37.4871 17.4478 37.7447 17.2511 37.9517 17.0004C38.1587 16.7491 38.3175 16.4538 38.4278 16.1148C38.5375 15.7758 38.5926 15.4035 38.5926 14.9979V14.9981Z" fill="#FFF9E0"/>
<path d="M44.0112 19.8348C43.2974 19.8348 42.7574 19.6125 42.3919 19.1677C42.0261 18.723 41.8435 18.0688 41.8435 17.205V12.7648H43.9581V16.7424C43.9581 17.1654 44.0419 17.4894 44.2094 17.7138C44.3766 17.9386 44.6144 18.051 44.9232 18.051C45.2046 18.051 45.4782 17.9765 45.7422 17.8265C46.0068 17.6765 46.24 17.4165 46.4427 17.0467V12.7648H48.5573V17.324C48.5573 17.5355 48.5905 17.6829 48.6565 17.7667C48.7225 17.8505 48.8391 17.9011 49.0064 17.9186V19.7026C48.8039 19.7469 48.6321 19.7756 48.4911 19.7885C48.3501 19.8018 48.2221 19.8084 48.1079 19.8084C47.3498 19.8084 46.9186 19.5135 46.8128 18.9228L46.7731 18.4998C46.4558 18.9585 46.0613 19.295 45.5901 19.511C45.1186 19.727 44.5924 19.8346 44.0112 19.8346V19.8348Z" fill="#FFF9E0"/>
<path d="M49.7867 16.2271C49.7867 15.7516 49.8701 15.2955 50.0379 14.8595C50.2052 14.4232 50.4474 14.04 50.7647 13.7094C51.0819 13.3792 51.4721 13.1173 51.9341 12.923C52.3967 12.7295 52.9234 12.6322 53.5136 12.6322C54.3154 12.6322 54.9894 12.8019 55.5354 13.1411C56.082 13.4806 56.4915 13.9233 56.7645 14.4693L54.7029 15.0903C54.4299 14.6501 54.0289 14.4296 53.5001 14.4296C53.0599 14.4296 52.692 14.5929 52.3967 14.9186C52.1014 15.2446 51.954 15.681 51.954 16.2271C51.954 16.5007 51.9938 16.7493 52.0731 16.9738C52.1526 17.1986 52.2623 17.3902 52.4036 17.549C52.5441 17.7075 52.7094 17.831 52.899 17.9188C53.0882 18.0071 53.2886 18.0508 53.5001 18.0508C53.7647 18.0508 54.0069 17.9872 54.2272 17.8591C54.4472 17.7316 54.6105 17.5663 54.7162 17.3638L56.7778 17.9981C56.5222 18.5356 56.1146 18.9759 55.5551 19.3194C54.9956 19.6629 54.3152 19.8346 53.5134 19.8346C52.9316 19.8346 52.41 19.7358 51.9473 19.5373C51.4847 19.3393 51.0924 19.0751 50.7709 18.7445C50.4493 18.414 50.205 18.0307 50.0378 17.595C49.8699 17.1586 49.7865 16.703 49.7865 16.227L49.7867 16.2271Z" fill="#FFF9E0"/>
<path d="M62.3946 19.7029L60.5837 16.9145L59.8436 17.681V19.7029H57.729V10.0554H59.8436V15.6457L62.1831 12.7646H64.4297L61.9318 15.7513L64.6412 19.7025H62.3946V19.7029Z" fill="#FFF9E0"/>
<path d="M65.302 20.7472C65.4782 20.8087 65.643 20.853 65.7973 20.8792C65.9516 20.9055 66.0902 20.919 66.2138 20.919C66.469 20.919 66.6675 20.8306 66.8085 20.6544C66.9495 20.4781 67.077 20.1609 67.1918 19.7028L64.5486 12.7648H66.7292L68.3415 17.8925L69.7294 12.7648H71.7115L69.0686 20.8261C68.8836 21.399 68.5528 21.8636 68.0773 22.2206C67.6013 22.5774 67.0375 22.7557 66.3857 22.7557C66.2095 22.7557 66.0308 22.7403 65.8506 22.7096C65.6698 22.6788 65.4872 22.6282 65.3021 22.5577V20.7474L65.302 20.7472Z" fill="#FFF9E0"/>
<path d="M78.1079 10.333H80.1034L81.055 13.3326L82.0066 10.333H84.0154L82.4423 14.6942L83.3939 17.2183L85.7462 10.3195H88.1121L84.3589 19.7027H82.5481L81.055 16.0288L79.5747 19.7027H77.7509L74.0106 10.3195H76.363L78.7289 17.2183L79.6542 14.6942L78.1079 10.333Z" fill="#FFF9E0"/>
<path d="M90.0677 19.8349C89.7242 19.8349 89.405 19.7798 89.1095 19.6701C88.8142 19.5598 88.5611 19.4055 88.3496 19.2075C88.1381 19.009 87.9708 18.7757 87.8473 18.507C87.7241 18.2385 87.6626 17.9451 87.6626 17.6278C87.6626 17.2843 87.7352 16.9716 87.8805 16.6896C88.0258 16.4076 88.2309 16.1653 88.4949 15.9628C88.7595 15.7603 89.0717 15.6015 89.4332 15.4868C89.7945 15.3726 90.1952 15.315 90.636 15.315C90.9268 15.315 91.2088 15.3394 91.4818 15.388C91.7548 15.4361 91.9925 15.5091 92.1956 15.6058V15.2886C92.1956 14.4868 91.733 14.0858 90.8077 14.0858C90.429 14.0858 90.0677 14.1499 89.7242 14.2774C89.3807 14.4055 89.0194 14.5971 88.6406 14.8523L88.0196 13.531C88.4773 13.2317 88.9533 13.0067 89.4467 12.8569C89.94 12.7071 90.4642 12.6321 91.0192 12.6321C92.0675 12.6321 92.8783 12.8792 93.4511 13.3721C94.0239 13.866 94.3104 14.5883 94.3104 15.5398V17.3239C94.3104 17.5354 94.3432 17.6828 94.4092 17.7666C94.4752 17.8504 94.5919 17.901 94.7597 17.9185V19.7025C94.5746 19.7468 94.4072 19.7755 94.2573 19.7884C94.1073 19.8017 93.9709 19.8083 93.8479 19.8083C93.4513 19.8083 93.1515 19.7314 92.949 19.5769C92.7465 19.423 92.6188 19.2051 92.5657 18.9227L92.526 18.6055C92.2177 19.002 91.8499 19.3063 91.4225 19.5178C90.9952 19.7288 90.5439 19.8345 90.0679 19.8345L90.0677 19.8349ZM90.6892 18.3154C90.918 18.3154 91.1404 18.2756 91.3564 18.1963C91.5724 18.117 91.7505 18.0113 91.8915 17.8791C92.0945 17.7206 92.1958 17.5534 92.1958 17.3768V16.716C92.0107 16.6455 91.8101 16.5904 91.5941 16.5506C91.3781 16.5115 91.178 16.4916 90.993 16.4916C90.6052 16.4916 90.2861 16.5795 90.0349 16.7556C89.7836 16.9316 89.6582 17.1611 89.6582 17.4431C89.6582 17.6987 89.7549 17.9078 89.949 18.0705C90.1425 18.2338 90.3892 18.3152 90.689 18.3152L90.6892 18.3154Z" fill="#FFF9E0"/>
<path d="M95.8171 10.0554H97.9317V17.2318C97.9317 17.7604 98.1565 18.0245 98.6058 18.0245C98.7115 18.0245 98.8281 18.0092 98.9556 17.9784C99.0831 17.9477 99.2003 17.9015 99.3061 17.8395L99.5836 19.4254C99.319 19.5489 99.0153 19.6457 98.6718 19.7162C98.3283 19.7867 98.0065 19.8219 97.7067 19.8219C97.0992 19.8219 96.632 19.6631 96.3059 19.3459C95.9798 19.0286 95.8169 18.5709 95.8169 17.9719V10.0554H95.8171Z" fill="#FFF9E0"/>
<path d="M100.244 10.0554H102.359V17.2318C102.359 17.7604 102.584 18.0245 103.033 18.0245C103.139 18.0245 103.255 18.0092 103.383 17.9784C103.51 17.9477 103.628 17.9015 103.733 17.8395L104.011 19.4254C103.746 19.5489 103.443 19.6457 103.099 19.7162C102.756 19.7867 102.434 19.8219 102.134 19.8219C101.526 19.8219 101.059 19.6631 100.733 19.3459C100.407 19.0286 100.244 18.5709 100.244 17.9719V10.0554H100.244Z" fill="#FFF9E0"/>
<path d="M108.015 19.8349C107.433 19.8349 106.912 19.7406 106.449 19.551C105.987 19.3618 105.594 19.1038 105.273 18.7781C104.951 18.4521 104.707 18.0752 104.54 17.6479C104.372 17.2209 104.288 16.7738 104.288 16.3067C104.288 15.8044 104.372 15.3308 104.54 14.886C104.707 14.4413 104.949 14.0511 105.266 13.7166C105.584 13.3815 105.974 13.1175 106.436 12.9233C106.898 12.7298 107.425 12.6324 108.015 12.6324C108.606 12.6324 109.13 12.7298 109.588 12.9233C110.046 13.1173 110.434 13.3794 110.751 13.7096C111.068 14.0402 111.308 14.4214 111.471 14.8528C111.634 15.2846 111.716 15.7384 111.716 16.2144C111.716 16.3376 111.711 16.4588 111.702 16.5778C111.693 16.6965 111.681 16.8002 111.663 16.8881H106.535C106.57 17.3552 106.74 17.7101 107.044 17.9524C107.348 18.1946 107.694 18.3158 108.081 18.3158C108.39 18.3158 108.687 18.2408 108.973 18.0909C109.26 17.9415 109.451 17.7384 109.548 17.4829L111.345 17.9852C111.072 18.5318 110.649 18.9765 110.077 19.32C109.504 19.6635 108.817 19.8353 108.015 19.8353L108.015 19.8349ZM109.482 15.5798C109.438 15.1389 109.28 14.7909 109.007 14.5354C108.733 14.2802 108.394 14.1521 107.989 14.1521C107.574 14.1521 107.234 14.2823 106.965 14.5423C106.696 14.802 106.54 15.1479 106.495 15.5798H109.482Z" fill="#FFF9E0"/>
<path d="M117.121 19.3329C116.83 19.4564 116.498 19.5706 116.123 19.6764C115.749 19.7821 115.372 19.8348 114.993 19.8348C114.729 19.8348 114.48 19.802 114.246 19.736C114.013 19.67 113.808 19.5643 113.632 19.4188C113.455 19.2733 113.317 19.0816 113.216 18.8439C113.114 18.6056 113.064 18.3196 113.064 17.9846V14.3634H112.178V12.7646H113.064V10.5571H115.178V12.7646H116.592V14.3634H115.178V17.2578C115.178 17.4871 115.235 17.6519 115.35 17.7532C115.464 17.8544 115.61 17.9051 115.786 17.9051C115.945 17.9051 116.108 17.8788 116.275 17.8261C116.442 17.7731 116.587 17.7159 116.711 17.6544L117.12 19.3327L117.121 19.3329Z" fill="#FFF9E0"/>
</svg>
