<svg width="14" height="14" viewBox="0 0 14 14" fill="none" xmlns="http://www.w3.org/2000/svg">
<path d="M5.54366 1.39941C4.97775 1.39941 4.51901 1.83076 4.51901 2.36285V6.15093H1.72449C1.1586 6.15093 0.699829 6.58228 0.699829 7.11437V11.625C0.699829 12.1571 1.1586 12.5885 1.72449 12.5885H5.38869C5.43923 12.5957 5.49099 12.5994 5.54366 12.5994H11.5635C11.8494 12.5994 12.108 12.4893 12.2939 12.3117C12.4827 12.137 12.5998 11.8939 12.5998 11.625V7.11437C12.5998 7.06484 12.5959 7.01619 12.5882 6.96865V2.36285C12.5882 1.83076 12.1294 1.39941 11.5635 1.39941H5.54366ZM8.45504 8.46909V5.64875C8.45504 5.35168 8.71094 5.11085 9.0266 5.11085C9.34227 5.11085 9.59818 5.35168 9.59818 5.64875V9.54487H5.97098L6.33959 9.89145C6.56285 10.1014 6.56277 10.4417 6.33945 10.6517C6.11615 10.8617 5.75414 10.8617 5.53089 10.6519L3.78545 9.01067L5.53151 7.36894C5.75483 7.15896 6.11683 7.1589 6.34007 7.36879C6.5633 7.5787 6.56325 7.91908 6.33993 8.12905L5.97828 8.46909H8.45504Z" fill="#B4BDCC"/>
</svg>
