<svg xmlns="http://www.w3.org/2000/svg" width="40" height="40" viewBox="0 0 40 40" fill="none">
  <path d="M20 27.6384C20 26.4991 20.5496 25.6452 21.5 25.6452C22.4651 25.6452 23 26.5531 23 27.6036C23 28.7445 22.4577 29.5968 21.5074 29.5968C20.5717 29.5968 20 28.788 20 27.6384Z" fill="var(--r-neutral-foot, #6A7587)"/>
  <path fill-rule="evenodd" clip-rule="evenodd" d="M8.75 2.5H23.75L35 13V34C35 34.4596 34.903 34.9148 34.7145 35.3394C34.5261 35.764 34.2499 36.1499 33.9017 36.4749C33.5534 36.7999 33.14 37.0577 32.6851 37.2336C32.2301 37.4095 31.7425 37.5 31.25 37.5H8.75C8.25754 37.5 7.76991 37.4095 7.31494 37.2336C6.85997 37.0577 6.44657 36.7999 6.09835 36.4749C5.75013 36.1499 5.47391 35.764 5.28545 35.3394C5.097 34.9148 5 34.4596 5 34V6C5 5.54037 5.097 5.08525 5.28545 4.66061C5.47391 4.23597 5.75013 3.85013 6.09835 3.52513C6.44657 3.20012 6.85997 2.94231 7.31494 2.76642C7.76991 2.59053 8.25754 2.5 8.75 2.5ZM10.2912 30.5C11.6769 30.5 12.5413 29.9138 12.5413 28.232H12.5431V24.5028H11.1163V28.2163C11.1163 29.135 10.7394 29.3888 10.1413 29.3888C9.85625 29.3888 9.60313 29.345 9.40813 29.2838L9.24687 30.36C9.53 30.4493 9.96125 30.5 10.2912 30.5ZM13.4862 30.1325C13.8406 30.3162 14.555 30.4913 15.2769 30.4913C17.0131 30.4913 17.8325 29.6513 17.8306 28.6608C17.8306 27.8278 17.3056 27.2853 16.1881 26.9003C15.3688 26.6115 15.0125 26.4435 15.0125 26.0673C15.0125 25.761 15.3144 25.4985 15.9331 25.4985C16.5519 25.4985 17.0019 25.6648 17.255 25.7785L17.5775 24.7022C17.1988 24.543 16.6756 24.403 15.9631 24.403C14.4706 24.403 13.5687 25.1748 13.5687 26.1828C13.5687 27.0403 14.2531 27.5845 15.3069 27.9257C16.0662 28.1795 16.3644 28.3895 16.3644 28.7588C16.3644 29.142 16.0194 29.3975 15.3631 29.3975C14.7537 29.3975 14.1594 29.212 13.7769 29.0283L13.4862 30.1325ZM18.5019 27.497C18.5019 29.1788 19.5988 30.5 21.4756 30.5C23.3244 30.5 24.5806 29.3275 24.5825 27.3903C24.5825 25.761 23.5213 24.403 21.5806 24.403C19.7131 24.403 18.5019 25.726 18.5019 27.497ZM29.2475 30.4038H30.7531V24.5028H29.4369V26.2265C29.4369 27.112 29.465 27.9083 29.5588 28.687H29.5325C29.2475 28.022 28.8725 27.2852 28.4975 26.6658L27.1831 24.5028H25.5125V30.4055H26.8269V28.6275C26.8269 27.6633 26.8081 26.8302 26.7688 26.0515L26.7987 26.0428C27.1251 26.7544 27.4912 27.4495 27.8956 28.1252L29.2475 30.4038ZM21.875 14.75H31.25L21.875 6V14.75Z" fill="var(--r-neutral-foot, #6A7587)"/>
</svg>