<svg xmlns="http://www.w3.org/2000/svg" width="16" height="16" viewBox="0 0 16 16" fill="none">
  <path d="M10.1349 13.5775V7.62273H10.5387C10.7582 7.62273 10.9426 7.8073 10.9426 8.03072V11.8193C10.9426 12.7907 11.7151 13.5775 12.6721 13.5775C13.629 13.5775 14.4016 12.7907 14.4016 11.8193V4.53362C14.4016 4.15476 14.2435 3.80505 13.9977 3.5622L12.5843 2.13421C12.3297 1.87193 11.9171 1.87193 11.6625 2.13421C11.4079 2.3965 11.4079 2.81421 11.6625 3.07649L12.5755 4.00905C12.9123 4.53362 13.0671 4.70956 13.0671 5.73817V11.829C13.0671 12.0524 12.8915 12.237 12.6633 12.237C12.4438 12.237 12.2594 12.0524 12.2594 11.829V8.04044C12.2594 7.06902 11.4869 6.28217 10.53 6.28217H10.1349V3.03763C10.1349 2.43535 9.66082 1.95936 9.06384 1.95936H3.47152C2.88332 1.95936 2.40047 2.44507 2.40047 3.03763V13.5775H2.26878C1.90005 13.5775 1.60156 13.8787 1.60156 14.2575C1.60156 14.6364 1.90005 14.9375 2.26878 14.9375H10.2666C10.6353 14.9375 10.9338 14.6364 10.9338 14.2575C10.9338 13.8787 10.6353 13.5775 10.2666 13.5775H10.1349ZM4.3231 3.29991H8.21226C8.53709 3.29991 8.80047 3.5622 8.80047 3.89248V6.75816C8.80047 7.08845 8.53709 7.35073 8.21226 7.35073H4.3231C3.99827 7.35073 3.7349 7.08845 3.7349 6.75816V3.89248C3.7349 3.5622 3.99827 3.29991 4.3231 3.29991Z" fill="currentColor"/>
</svg>