<svg xmlns="http://www.w3.org/2000/svg" width="16" height="16" viewBox="0 0 16 16" fill="none">
  <path d="M3.66664 1.66674C3.13621 1.66674 2.6275 1.87746 2.25243 2.25253C1.87735 2.6276 1.66664 3.13631 1.66664 3.66674V12.3334C1.66664 12.8638 1.87735 13.3726 2.25243 13.7476C2.6275 14.1227 3.13621 14.3334 3.66664 14.3334H12.3333C12.8637 14.3334 13.3724 14.1227 13.7475 13.7476C14.1226 13.3726 14.3333 12.8638 14.3333 12.3334V7.29708C14.3333 6.86819 14.1679 6.45583 13.8716 6.14574L10.0833 2.18208C9.92774 2.01925 9.74079 1.88963 9.53374 1.80106C9.32669 1.71249 9.10384 1.6668 8.87864 1.66674H3.66664ZM3.66664 3.00008H8.87864C8.92371 3.00011 8.96831 3.00929 9.00973 3.02705C9.05115 3.04481 9.08854 3.07079 9.11964 3.10341L12.9076 7.06674C12.9669 7.12878 13 7.21128 13 7.29708V12.3334C13 12.5102 12.9297 12.6798 12.8047 12.8048C12.6797 12.9298 12.5101 13.0001 12.3333 13.0001H3.66664C3.48983 13.0001 3.32026 12.9298 3.19524 12.8048C3.07021 12.6798 2.99997 12.5102 2.99997 12.3334V3.66674C2.99997 3.48993 3.07021 3.32036 3.19524 3.19534C3.32026 3.07031 3.48983 3.00008 3.66664 3.00008ZM7.98831 6.81474C7.97067 6.80178 7.95065 6.79243 7.92939 6.78721C7.90813 6.78199 7.88606 6.781 7.86442 6.78432C7.84278 6.78763 7.82201 6.79517 7.80329 6.80651C7.78457 6.81785 7.76826 6.83277 7.75531 6.85041L7.66264 6.97941C6.62831 8.43108 6.11097 9.47608 6.11097 10.1147C6.11097 11.1561 6.90697 12.0001 7.88897 12.0001C8.87064 12.0001 9.66664 11.1561 9.66664 10.1147C9.66664 9.45774 9.11931 8.37041 8.02531 6.85208C8.01503 6.83775 8.00254 6.82515 7.98831 6.81474ZM4.47964 3.64641C4.30283 3.64641 4.13326 3.71665 4.00824 3.84167C3.88321 3.9667 3.81297 4.13627 3.81297 4.31308C3.81297 4.48989 3.88321 4.65946 4.00824 4.78448C4.13326 4.90951 4.30283 4.97974 4.47964 4.97974H8.14631C8.32312 4.97974 8.49269 4.90951 8.61771 4.78448C8.74274 4.65946 8.81297 4.48989 8.81297 4.31308C8.81297 4.13627 8.74274 3.9667 8.61771 3.84167C8.49269 3.71665 8.32312 3.64641 8.14631 3.64641H4.47964ZM12.3906 1.44774C12.3287 1.38582 12.2552 1.33671 12.1743 1.3032C12.0934 1.26969 12.0067 1.25244 11.9191 1.25244C11.8316 1.25244 11.7449 1.26969 11.664 1.3032C11.5831 1.33671 11.5096 1.38582 11.4476 1.44774C11.3857 1.50966 11.3366 1.58317 11.3031 1.66407C11.2696 1.74497 11.2523 1.83168 11.2523 1.91924C11.2523 2.00681 11.2696 2.09352 11.3031 2.17442C11.3366 2.25532 11.3857 2.32882 11.4476 2.39074L13.569 4.51208C13.6309 4.57399 13.7044 4.62311 13.7853 4.65662C13.8662 4.69013 13.9529 4.70738 14.0405 4.70738C14.128 4.70738 14.2147 4.69013 14.2956 4.65662C14.3765 4.62311 14.4501 4.57399 14.512 4.51208C14.5739 4.45016 14.623 4.37665 14.6565 4.29575C14.69 4.21485 14.7073 4.12814 14.7073 4.04058C14.7073 3.95301 14.69 3.8663 14.6565 3.7854C14.623 3.7045 14.5739 3.63099 14.512 3.56908L12.3906 1.44774Z" fill="currentColor"/>
  <path d="M7.98842 6.81457C7.97077 6.80161 7.95075 6.79226 7.9295 6.78704C7.90824 6.78182 7.88616 6.78083 7.86453 6.78415C7.84289 6.78746 7.82212 6.795 7.8034 6.80634C7.78468 6.81768 7.76837 6.8326 7.75541 6.85024L7.66275 6.97924C6.62841 8.43091 6.11108 9.47591 6.11108 10.1146C6.11108 11.1559 6.90708 11.9999 7.88908 11.9999C8.87075 11.9999 9.66675 11.1559 9.66675 10.1146C9.66675 9.45757 9.11941 8.37024 8.02541 6.85191C8.01513 6.83758 8.00265 6.82498 7.98842 6.81457Z" fill="#2ABB7F"/>
</svg>