<svg xmlns="http://www.w3.org/2000/svg" width="20" height="20" viewBox="0 0 20 20" fill="none">
  <path d="M4.58324 2.08331C3.9202 2.08331 3.28431 2.3467 2.81547 2.81554C2.34663 3.28438 2.08324 3.92027 2.08324 4.58331V15.4166C2.08324 16.0797 2.34663 16.7156 2.81547 17.1844C3.28431 17.6532 3.9202 17.9166 4.58324 17.9166H15.4166C16.0796 17.9166 16.7155 17.6532 17.1843 17.1844C17.6532 16.7156 17.9166 16.0797 17.9166 15.4166V9.12122C17.9165 8.58512 17.7099 8.06966 17.3395 7.68206L12.6041 2.72747C12.4096 2.52394 12.1759 2.36192 11.9171 2.25121C11.6583 2.14049 11.3797 2.08338 11.0982 2.08331H4.58324ZM4.58324 3.74997H11.0982C11.1546 3.75002 11.2103 3.76149 11.2621 3.78369C11.3139 3.80589 11.3606 3.83836 11.3995 3.87914L16.1345 8.83331C16.2086 8.91085 16.2499 9.01397 16.2499 9.12122V15.4166C16.2499 15.6377 16.1621 15.8496 16.0058 16.0059C15.8495 16.1622 15.6376 16.25 15.4166 16.25H4.58324C4.36223 16.25 4.15026 16.1622 3.99398 16.0059C3.8377 15.8496 3.74991 15.6377 3.74991 15.4166V4.58331C3.74991 4.36229 3.8377 4.15033 3.99398 3.99405C4.15026 3.83777 4.36223 3.74997 4.58324 3.74997ZM9.98532 8.51831C9.96327 8.50211 9.93825 8.49041 9.91168 8.48389C9.88511 8.47736 9.85751 8.47613 9.83046 8.48027C9.80342 8.48441 9.77745 8.49384 9.75405 8.50802C9.73065 8.52219 9.71027 8.54084 9.69407 8.56289L9.57824 8.72414C8.28532 10.5387 7.63866 11.845 7.63866 12.6433C7.63866 13.945 8.63366 15 9.86116 15C11.0882 15 12.0832 13.945 12.0832 12.6433C12.0832 11.8221 11.3991 10.4629 10.0316 8.56497C10.0187 8.54707 10.0031 8.53132 9.98532 8.51831ZM5.59949 4.55789C5.37848 4.55789 5.16651 4.64569 5.01023 4.80197C4.85395 4.95825 4.76616 5.17021 4.76616 5.39122C4.76616 5.61224 4.85395 5.8242 5.01023 5.98048C5.16651 6.13676 5.37848 6.22456 5.59949 6.22456H10.1828C10.4038 6.22456 10.6158 6.13676 10.7721 5.98048C10.9284 5.8242 11.0162 5.61224 11.0162 5.39122C11.0162 5.17021 10.9284 4.95825 10.7721 4.80197C10.6158 4.64569 10.4038 4.55789 10.1828 4.55789H5.59949ZM15.4882 1.80956C15.4108 1.73216 15.319 1.67076 15.2178 1.62888C15.1167 1.58699 15.0083 1.56543 14.8989 1.56543C14.7894 1.56543 14.681 1.58699 14.5799 1.62888C14.4788 1.67076 14.3869 1.73216 14.3095 1.80956C14.2321 1.88695 14.1707 1.97884 14.1288 2.07996C14.0869 2.18109 14.0654 2.28947 14.0654 2.39893C14.0654 2.50839 14.0869 2.61677 14.1288 2.7179C14.1707 2.81902 14.2321 2.91091 14.3095 2.98831L16.9612 5.63997C17.0386 5.71737 17.1304 5.77877 17.2316 5.82065C17.3327 5.86254 17.4411 5.8841 17.5505 5.8841C17.66 5.8841 17.7684 5.86254 17.8695 5.82065C17.9706 5.77877 18.0625 5.71737 18.1399 5.63997C18.2173 5.56258 18.2787 5.47069 18.3206 5.36957C18.3625 5.26844 18.384 5.16006 18.384 5.0506C18.384 4.94114 18.3625 4.83276 18.3206 4.73163C18.2787 4.63051 18.2173 4.53862 18.1399 4.46122L15.4882 1.80956Z" fill="currentColor"/>
  <path d="M9.98558 8.51797C9.96353 8.50177 9.9385 8.49008 9.91193 8.48355C9.88536 8.47703 9.85777 8.4758 9.83072 8.47994C9.80367 8.48408 9.77771 8.4935 9.75431 8.50768C9.73091 8.52186 9.71052 8.5405 9.69433 8.56255L9.5785 8.7238C8.28558 10.5384 7.63891 11.8446 7.63891 12.643C7.63891 13.9446 8.63391 14.9996 9.86141 14.9996C11.0885 14.9996 12.0835 13.9446 12.0835 12.643C12.0835 11.8217 11.3993 10.4626 10.0318 8.56464C10.019 8.54673 10.0034 8.53098 9.98558 8.51797Z" fill="#FF7C60"/>
</svg>