<svg xmlns="http://www.w3.org/2000/svg" width="20" height="20" viewBox="0 0 20 20" fill="none">
  <path d="M14 2L17 6" stroke="currentColor" stroke-width="1.25" stroke-linecap="round" stroke-linejoin="round"/>
  <path d="M5 4H10" stroke="currentColor" stroke-width="1.25" stroke-linecap="round" stroke-linejoin="round"/>
  <path d="M3 3.5C3 2.67157 3.67157 2 4.5 2H10.9333C11.227 2 11.5035 2.1386 11.6792 2.37393L16.7019 9.10079C16.8954 9.35997 17 9.67476 17 9.99822V15.5C17 16.3284 16.3284 17 15.5 17H4.5C3.67157 17 3 16.3284 3 15.5V3.5Z" stroke="currentColor" stroke-width="1.25"/>
  <path d="M9.84642 7.51797C9.82437 7.50177 9.79934 7.49008 9.77277 7.48355C9.7462 7.47703 9.71861 7.4758 9.69156 7.47994C9.66451 7.48408 9.63855 7.4935 9.61515 7.50768C9.59175 7.52186 9.57136 7.5405 9.55517 7.56255L9.43934 7.7238C8.14642 9.53839 7.49975 10.8446 7.49975 11.643C7.49975 12.9446 8.49475 13.9996 9.72225 13.9996C10.9493 13.9996 11.9443 12.9446 11.9443 11.643C11.9443 10.8217 11.2602 9.46255 9.89267 7.56464C9.87982 7.54673 9.86421 7.53098 9.84642 7.51797Z" fill="#2ABB7F"/>
</svg>