<svg width="16" height="16" viewBox="0 0 16 16" fill="none" xmlns="http://www.w3.org/2000/svg">
<path fill-rule="evenodd" clip-rule="evenodd" d="M9.96584 13.2416H10.6212V14.5523H1.44629V13.2416H2.10164V2.75601C2.10164 2.03513 2.69145 1.44531 3.41234 1.44531H8.65514C9.37902 1.44531 9.96584 2.03213 9.96584 2.75601V13.2416ZM3.41237 2.75581V6.68791H8.65517V2.75581H3.41237ZM9.96583 7.99884H10.6212C11.3451 7.99884 11.9319 8.58566 11.9319 9.30954V11.2756C11.9319 11.6375 12.2253 11.9309 12.5872 11.9309C12.9492 11.9309 13.2426 11.6375 13.2426 11.2756V7.99884L11.9319 6.68814V5.37744L10.6212 4.06674L11.2765 3.41139L14.5533 6.68814V11.2756C14.5533 12.3614 13.6731 13.2416 12.5872 13.2416C11.5014 13.2416 10.6212 12.3614 10.6212 11.2756V9.30954H9.96583V7.99884Z" fill="#707280"/>
</svg>
