<svg width="24" height="24" viewBox="0 0 24 24" fill="none" xmlns="http://www.w3.org/2000/svg">
<rect width="24" height="24" rx="4" fill="#D8F2E7"/>
<g clip-path="url(#clip0_129122_2183)">
<path d="M12.0003 8.50033V17.8337M12.0003 8.50033H9.93783C9.63393 8.50033 9.34248 8.37741 9.1276 8.15861C8.91271 7.93982 8.79199 7.64308 8.79199 7.33366C8.79199 7.02424 8.91271 6.72749 9.1276 6.5087C9.34248 6.28991 9.63393 6.16699 9.93783 6.16699C11.542 6.16699 12.0003 8.50033 12.0003 8.50033ZM12.0003 8.50033H14.0628C14.3667 8.50033 14.6582 8.37741 14.8731 8.15861C15.0879 7.93982 15.2087 7.64308 15.2087 7.33366C15.2087 7.02424 15.0879 6.72749 14.8731 6.5087C14.6582 6.28991 14.3667 6.16699 14.0628 6.16699C12.4587 6.16699 12.0003 8.50033 12.0003 8.50033ZM16.667 11.417V15.967C16.667 16.6204 16.667 16.9471 16.5398 17.1967C16.428 17.4162 16.2495 17.5947 16.03 17.7065C15.7804 17.8337 15.4537 17.8337 14.8003 17.8337H9.20033C8.54693 17.8337 8.22023 17.8337 7.97067 17.7065C7.75114 17.5947 7.57267 17.4162 7.46082 17.1967C7.33366 16.9471 7.33366 16.6204 7.33366 15.967V11.417M6.16699 9.43366V10.4837C6.16699 10.8104 6.16699 10.9737 6.23057 11.0985C6.2865 11.2083 6.37574 11.2975 6.4855 11.3534C6.61028 11.417 6.77363 11.417 7.10033 11.417H16.9003C17.2271 11.417 17.3904 11.417 17.5152 11.3534C17.6249 11.2975 17.7141 11.2083 17.7701 11.0985C17.8337 10.9737 17.8337 10.8104 17.8337 10.4837V9.43366C17.8337 9.10696 17.8337 8.94361 17.7701 8.81883C17.7141 8.70907 17.6249 8.61983 17.5152 8.5639C17.3904 8.50033 17.2271 8.50033 16.9003 8.50033H7.10033C6.77363 8.50033 6.61028 8.50033 6.4855 8.5639C6.37574 8.61983 6.2865 8.70907 6.23057 8.81883C6.16699 8.94361 6.16699 9.10696 6.16699 9.43366Z" stroke="#2ABB7F" stroke-linecap="round" stroke-linejoin="round"/>
</g>
<defs>
<clipPath id="clip0_129122_2183">
<rect width="14" height="14" fill="white" transform="translate(5 5)"/>
</clipPath>
</defs>
</svg>
