<svg width="14" height="14" viewBox="0 0 14 14" fill="none" xmlns="http://www.w3.org/2000/svg">
<path d="M6.99988 3.99995V11.9998M6.99988 3.99995H5.23207C4.97159 3.99995 4.72179 3.8946 4.53761 3.70707C4.35342 3.51953 4.24995 3.26519 4.24995 2.99998C4.24995 2.73477 4.35342 2.48042 4.53761 2.29289C4.72179 2.10535 4.97159 2 5.23207 2C6.60704 2 6.99988 3.99995 6.99988 3.99995ZM6.99988 3.99995H8.76769C9.02819 3.99995 9.27798 3.8946 9.46218 3.70707C9.64632 3.51953 9.74982 3.26519 9.74982 2.99998C9.74982 2.73477 9.64632 2.48042 9.46218 2.29289C9.27798 2.10535 9.02819 2 8.76769 2C7.39272 2 6.99988 3.99995 6.99988 3.99995ZM10.9998 6.49989V10.3998C10.9998 10.9598 10.9998 11.2399 10.8908 11.4538C10.7949 11.6419 10.6419 11.7949 10.4538 11.8908C10.2399 11.9998 9.95986 11.9998 9.39983 11.9998H4.59994C4.0399 11.9998 3.75988 11.9998 3.54597 11.8908C3.35781 11.7949 3.20484 11.6419 3.10897 11.4538C2.99998 11.2399 2.99998 10.9598 2.99998 10.3998V6.49989M2 4.79993V5.69991C2 5.97993 2 6.11995 2.05449 6.2269C2.10243 6.321 2.17892 6.39745 2.273 6.4454C2.37995 6.49989 2.51996 6.49989 2.79998 6.49989H11.1998C11.4798 6.49989 11.6198 6.49989 11.7268 6.4454C11.8209 6.39745 11.8973 6.321 11.9453 6.2269C11.9998 6.11995 11.9998 5.97993 11.9998 5.69991V4.79993C11.9998 4.51992 11.9998 4.3799 11.9453 4.27295C11.8973 4.17887 11.8209 4.10239 11.7268 4.05445C11.6198 3.99995 11.4798 3.99995 11.1998 3.99995H2.79998C2.51996 3.99995 2.37995 3.99995 2.273 4.05445C2.17892 4.10239 2.10243 4.17887 2.05449 4.27295C2 4.3799 2 4.51992 2 4.79993Z" stroke="currentColor" stroke-linecap="round" stroke-linejoin="round"/>
</svg> 