<svg width="18" height="18" viewBox="0 0 18 18" fill="none" xmlns="http://www.w3.org/2000/svg">
<g clip-path="url(#clip0_129121_1517)">
<path d="M9 4.5V16.5M9 4.5H6.34822C5.95749 4.5 5.58277 4.34197 5.3065 4.06066C5.03021 3.77935 4.875 3.39782 4.875 3C4.875 2.60218 5.03021 2.22064 5.3065 1.93934C5.58277 1.65803 5.95749 1.5 6.34822 1.5C8.41072 1.5 9 4.5 9 4.5ZM9 4.5H11.6518C12.0425 4.5 12.4172 4.34197 12.6935 4.06066C12.9697 3.77935 13.125 3.39782 13.125 3C13.125 2.60218 12.9697 2.22064 12.6935 1.93934C12.4172 1.65803 12.0425 1.5 11.6518 1.5C9.58927 1.5 9 4.5 9 4.5ZM15 8.25V14.1C15 14.9401 15 15.3601 14.8365 15.681C14.6927 15.9632 14.4632 16.1927 14.181 16.3365C13.8601 16.5 13.4401 16.5 12.6 16.5H5.4C4.55992 16.5 4.13988 16.5 3.81901 16.3365C3.53677 16.1927 3.3073 15.9632 3.16349 15.681C3 15.3601 3 14.9401 3 14.1V8.25M1.5 5.7V7.05C1.5 7.47004 1.5 7.68007 1.58174 7.8405C1.65365 7.98165 1.76839 8.09632 1.90951 8.16825C2.06994 8.25 2.27996 8.25 2.7 8.25H15.3C15.7201 8.25 15.9301 8.25 16.0905 8.16825C16.2316 8.09632 16.3463 7.98165 16.4182 7.8405C16.5 7.68007 16.5 7.47004 16.5 7.05V5.7C16.5 5.27996 16.5 5.06994 16.4182 4.90951C16.3463 4.76839 16.2316 4.65365 16.0905 4.58174C15.9301 4.5 15.7201 4.5 15.3 4.5H2.7C2.27996 4.5 2.06994 4.5 1.90951 4.58174C1.76839 4.65365 1.65365 4.76839 1.58174 4.90951C1.5 5.06994 1.5 5.27996 1.5 5.7Z" stroke="white" stroke-width="1.125" stroke-linecap="round" stroke-linejoin="round"/>
</g>
<defs>
<clipPath id="clip0_129121_1517">
<rect width="18" height="18" fill="white"/>
</clipPath>
</defs>
</svg>
