<svg width="12" height="13" viewBox="0 0 12 13" fill="none" xmlns="http://www.w3.org/2000/svg">
<path d="M6.57581 7.07359C7.32097 6.54672 7.8629 5.56827 7.8629 4.51454C7.8629 2.85869 6.64355 1.50391 5.15323 1.50391C3.6629 1.50391 2.44355 2.85869 2.44355 4.51454C2.44355 5.56827 2.91774 6.54672 3.73064 7.07359C1.96935 7.75098 0.75 9.55736 0.75 11.6648C0.75 11.8906 0.885484 12.0411 1.08871 12.0411C1.29194 12.0411 1.42742 11.8906 1.42742 11.6648C1.42742 9.40683 3.12097 7.52518 5.15323 7.52518C7.18548 7.52518 8.87903 9.40683 8.87903 11.6648C8.87903 11.8906 9.01452 12.0411 9.21774 12.0411C9.42097 12.0411 9.55645 11.8906 9.55645 11.6648C9.55645 9.55736 8.3371 7.75098 6.57581 7.07359ZM5.15323 6.77252C4.00161 6.77252 3.12097 5.79406 3.12097 4.51454C3.12097 3.23502 4.00161 2.25657 5.15323 2.25657C6.30484 2.25657 7.18548 3.23502 7.18548 4.51454C7.18548 5.79406 6.30484 6.77252 5.15323 6.77252ZM9.42097 6.32093C9.89516 5.86933 10.2339 5.2672 10.2339 4.51454C10.2339 3.23502 9.35323 2.25657 8.20161 2.25657C7.99839 2.25657 7.8629 2.4071 7.8629 2.6329C7.8629 2.85869 7.99839 3.00923 8.20161 3.00923C8.94677 3.00923 9.55645 3.68662 9.55645 4.51454C9.55645 5.34247 8.94677 6.01986 8.20161 6.01986C7.99839 6.01986 7.8629 6.17039 7.8629 6.39619C7.8629 6.62199 7.99839 6.77252 8.20161 6.77252C9.48871 6.77252 10.5726 7.97678 10.5726 9.40683C10.5726 9.63263 10.7081 9.78316 10.9113 9.78316C11.1145 9.78316 11.25 9.63263 11.25 9.40683C11.25 8.05204 10.5048 6.84779 9.42097 6.32093Z" fill="#707280"/>
</svg>
