<svg width="20" height="20" viewBox="0 0 20 20" fill="none" xmlns="http://www.w3.org/2000/svg">
<path d="M15.6603 4.337C12.6919 1.3673 7.95568 1.2295 4.81509 3.91088V2.80744C4.81509 2.43906 4.51647 2.14032 4.14825 2.14032C3.78004 2.14032 3.48142 2.43906 3.48142 2.80744V5.47589C3.48142 5.84427 3.78004 6.14301 4.14825 6.14301H6.8156C7.18382 6.14301 7.48243 5.84427 7.48243 5.47589C7.48243 5.10752 7.18382 4.80878 6.8156 4.80878H5.81222C8.42851 2.69194 12.2859 2.84788 14.7174 5.28035C17.317 7.88147 17.317 12.1141 14.7174 14.715C12.1172 17.3157 7.88691 17.3157 5.28667 14.715C4.02718 13.455 3.33367 11.7797 3.33367 9.99768C3.33367 9.62931 3.03505 9.33057 2.66684 9.33057C2.29862 9.33057 2 9.62931 2 9.99768C2 12.1362 2.83229 14.1467 4.34372 15.6584C5.9037 17.219 7.95276 17.9995 10.002 17.9995C12.0511 17.9995 14.1004 17.219 15.6603 15.6584C18.7799 12.5371 18.7799 7.45827 15.6603 4.337ZM10.002 5.32788C9.63381 5.32788 9.3352 5.62662 9.3352 5.99499V9.85967C9.3352 10.1267 9.43939 10.3784 9.62819 10.5672L12.1978 13.1379C12.328 13.2682 12.4987 13.3335 12.6692 13.3335C12.8396 13.3335 13.0105 13.2684 13.1405 13.1379C13.401 12.8773 13.401 12.4552 13.1405 12.1946L10.6689 9.72145V5.99499C10.6689 5.62662 10.3702 5.32788 10.002 5.32788Z" fill="white" stroke="#8175FE" stroke-width="0.5"/>
</svg>
