<svg width="14" height="14" viewBox="0 0 14 14" fill="none" xmlns="http://www.w3.org/2000/svg">
<rect width="14" height="14" rx="7" fill="#4C65FF"/>
<path d="M11.5661 7.5794C11.9283 6.76749 10.1376 4.49915 8.42688 3.55411C7.34856 2.822 6.22495 2.92258 5.99738 3.24403C5.49796 3.94949 7.65109 4.54725 9.09106 5.2448C8.78152 5.37969 8.48983 5.62177 8.31829 5.93135C7.78146 5.34329 6.60319 4.83689 5.22061 5.2448C4.28892 5.51969 3.51461 6.16774 3.21535 7.14654C3.14263 7.11412 3.06212 7.0961 2.97741 7.0961C2.65351 7.0961 2.39093 7.35957 2.39093 7.68456C2.39093 8.00956 2.65351 8.27303 2.97741 8.27303C3.03745 8.27303 3.22517 8.23262 3.22517 8.23262L6.22495 8.25443C5.02527 10.164 4.07719 10.4432 4.07719 10.774C4.07719 11.1048 4.98434 11.0152 5.32495 10.8918C6.9555 10.3015 8.7068 8.46174 9.00732 7.93212C10.2693 8.09011 11.3299 8.10879 11.5661 7.5794Z" fill="url(#paint0_linear_139888_13660)"/>
<path d="M5.96133 3.60547C6.0645 3.40396 6.74893 3.38265 7.67715 3.82129C8.35909 4.14356 9.08508 4.86269 9.12833 5.04199C9.14664 5.11962 9.15783 5.21867 9.09122 5.24512C7.90308 4.66956 6.22985 4.16171 5.96133 3.60547Z" fill="url(#paint1_linear_139888_13660)"/>
<path d="M5.57187 6.45703C6.5673 6.45712 6.99619 6.7804 7.33749 7.3877C7.5806 7.8205 7.52664 8.50545 7.26913 8.96777C7.51013 9.0277 7.72201 9.09406 7.90976 9.16602C7.60558 9.4502 7.25742 9.74489 6.8873 10.0156C6.38089 9.88598 5.92039 9.76542 5.22226 9.58594C5.52006 9.25999 5.86191 8.83215 6.22519 8.25391L3.53281 8.23438C3.52348 8.12525 3.5203 8.00641 3.52304 7.87695C3.54938 6.6421 5.02425 6.45703 5.57187 6.45703Z" fill="url(#paint2_linear_139888_13660)"/>
<path d="M3.1794 8.10805C3.2894 9.04626 3.82081 9.41394 4.9067 9.52275C5.99259 9.63157 6.61547 9.55857 7.44474 9.63427C8.13733 9.6975 8.75574 10.0516 8.98516 9.92925C9.19163 9.81911 9.07612 9.4212 8.79984 9.16592C8.44172 8.835 7.94609 8.60492 7.07398 8.52327C7.24778 8.0458 7.19908 7.37632 6.92915 7.01209C6.53886 6.48544 5.81846 6.24733 4.9067 6.35136C3.95412 6.46005 3.04136 6.93061 3.1794 8.10805Z" fill="url(#paint3_linear_139888_13660)"/>
<defs>
<linearGradient id="paint0_linear_139888_13660" x1="5.11212" y1="6.86041" x2="11.4913" y2="8.66334" gradientUnits="userSpaceOnUse">
<stop stop-color="white"/>
<stop offset="1" stop-color="white"/>
</linearGradient>
<linearGradient id="paint1_linear_139888_13660" x1="10.414" y1="6.73895" x2="5.7982" y2="2.12761" gradientUnits="userSpaceOnUse">
<stop stop-color="#8697FF"/>
<stop offset="1" stop-color="#8697FF" stop-opacity="0"/>
</linearGradient>
<linearGradient id="paint2_linear_139888_13660" x1="8.0377" y1="9.32498" x2="3.613" y2="6.7885" gradientUnits="userSpaceOnUse">
<stop stop-color="#8697FF"/>
<stop offset="1" stop-color="#8697FF" stop-opacity="0"/>
</linearGradient>
<linearGradient id="paint3_linear_139888_13660" x1="5.49276" y1="6.81279" x2="8.49233" y2="10.6112" gradientUnits="userSpaceOnUse">
<stop stop-color="white"/>
<stop offset="0.983895" stop-color="#D1D8FF"/>
</linearGradient>
</defs>
</svg>
