<svg width="24" height="24" viewBox="0 0 24 24" fill="none" xmlns="http://www.w3.org/2000/svg">
<g id="basic / cross">
<path id="Vector" fill-rule="evenodd" clip-rule="evenodd" d="M12 6C12.4345 6 12.8587 6.04344 13.2682 6.12572C13.2446 6.23925 13.2323 6.35663 13.2323 6.47674C13.2323 7.45687 14.0536 8.25151 15.0666 8.25151C15.5717 8.25151 16.0289 8.05406 16.3607 7.73441C17.0513 8.39532 17.5822 9.21178 17.8924 10.1252C17.7789 10.1622 17.6675 10.2107 17.5598 10.2709C16.6824 10.7609 16.3818 11.8464 16.8884 12.6952C17.1413 13.1191 17.5475 13.4036 18 13.5215C17.7477 14.4555 17.2684 15.3008 16.6228 15.9988C16.5334 15.9227 16.4348 15.8539 16.3277 15.7941C15.4504 15.304 14.3283 15.5948 13.8218 16.4436C13.569 16.8673 13.5172 17.3498 13.6379 17.7881C13.1161 17.9258 12.567 18 11.9999 18C11.5653 18 11.141 17.9566 10.7317 17.8743C10.7553 17.7608 10.7676 17.6434 10.7676 17.5233C10.7676 16.5431 9.94632 15.7483 8.9333 15.7483C8.42821 15.7483 7.97095 15.9459 7.63943 16.2654C6.94885 15.6045 6.41813 14.788 6.10771 13.8745C6.2212 13.8376 6.33254 13.7893 6.44025 13.7291C7.31758 13.2391 7.61824 12.1536 7.11156 11.3046C6.85873 10.8809 6.4525 10.5962 6 10.4782C6.25227 9.54428 6.73163 8.69917 7.37719 8.00119C7.46665 8.07721 7.56518 8.1461 7.67232 8.20588C8.54965 8.696 9.67174 8.4052 10.1782 7.55637C10.431 7.13272 10.4826 6.65016 10.3621 6.21193C10.8839 6.07393 11.4328 6 12 6ZM12 9.83547C13.2355 9.83547 14.237 10.8045 14.237 11.9999C14.237 13.1953 13.2354 14.1643 12 14.1643C10.7644 14.1643 9.76291 13.1952 9.76291 11.9999C9.76291 10.8044 10.7645 9.83547 12 9.83547Z" fill="#666666"/>
</g>
</svg>
