<svg width="14" height="14" viewBox="0 0 14 14" fill="none" xmlns="http://www.w3.org/2000/svg">
<g clip-path="url(#clip0_133672_60202)">
<path d="M12.5999 6.99844C12.5999 10.0912 10.0927 12.5984 6.9999 12.5984C3.90711 12.5984 1.3999 10.0912 1.3999 6.99844C1.3999 3.90564 3.90711 1.39844 6.9999 1.39844C10.0927 1.39844 12.5999 3.90564 12.5999 6.99844Z" stroke="#6A7587" stroke-linecap="round" stroke-linejoin="round"/>
<path fill-rule="evenodd" clip-rule="evenodd" d="M6.99967 3.21094C7.40238 3.21094 7.72884 3.5374 7.72884 3.9401C7.72884 4.34281 7.40238 4.66927 6.99967 4.66927C6.59697 4.66927 6.27051 4.34281 6.27051 3.9401C6.27051 3.5374 6.59697 3.21094 6.99967 3.21094Z" fill="#6A7587"/>
<path d="M7.14583 9.91927V5.83594H6.85417H6.5625" fill="#6A7587"/>
<path d="M7.14583 9.91927V5.83594H6.85417H6.5625" stroke="#6A7587" stroke-linecap="round" stroke-linejoin="round"/>
<path d="M6.125 9.91406H8.16667Z" fill="#6A7587"/>
<path d="M6.125 9.91406H8.16667" stroke="#6A7587" stroke-linecap="round" stroke-linejoin="round"/>
</g>
<defs>
<clipPath id="clip0_133672_60202">
<rect width="14" height="14" fill="white"/>
</clipPath>
</defs>
</svg>
