<svg xmlns="http://www.w3.org/2000/svg" width="64" height="64" viewBox="0 0 64 64" fill="none">
  <path d="M31.9889 58.6585C39.3527 58.6585 46.0193 55.6737 50.8451 50.848C55.6708 46.0223 58.6556 39.3556 58.6556 31.9919C58.6556 24.6281 55.6708 17.9615 50.8451 13.1357C46.0193 8.30997 39.3527 5.3252 31.9889 5.3252C24.6252 5.3252 17.9585 8.30997 13.1327 13.1357C8.30704 17.9615 5.32227 24.6281 5.32227 31.9919C5.32227 39.3556 8.30704 46.0223 13.1327 50.848C17.9585 55.6737 24.6252 58.6585 31.9889 58.6585Z" stroke="#EC5151" stroke-width="3" stroke-linejoin="round"/>
  <path fill-rule="evenodd" clip-rule="evenodd" d="M32.012 49.0163C33.6734 49.0163 35.0202 47.6695 35.0202 46.0081C35.0202 44.3468 33.6734 43 32.012 43C30.3507 43 29.0039 44.3468 29.0039 46.0081C29.0039 47.6695 30.3507 49.0163 32.012 49.0163Z" fill="#EC5151"/>
  <path d="M32 16V37.3333" stroke="#EC5151" stroke-width="3" stroke-linecap="round" stroke-linejoin="round"/>
</svg>