<svg width="32" height="32" viewBox="0 0 32 32" fill="none" xmlns="http://www.w3.org/2000/svg">
<g opacity="0.4">
<path d="M12.0882 4L11.0588 7H14.3529V13.4H18.0588V4H12.0882Z" fill="#4B4D59"/>
<path fill-rule="evenodd" clip-rule="evenodd" d="M23 21.2C23 24.9555 19.866 28 16 28C12.134 28 9 24.9555 9 21.2C9 17.4445 12.134 14.4 16 14.4C19.866 14.4 23 17.4445 23 21.2ZM19.7059 21.2C19.7059 23.1882 18.0467 24.8 16 24.8C13.9533 24.8 12.2941 23.1882 12.2941 21.2C12.2941 19.2118 13.9533 17.6 16 17.6C18.0467 17.6 19.7059 19.2118 19.7059 21.2Z" fill="#4B4D59"/>
</g>
</svg>
