<svg width="20" height="20" viewBox="0 0 20 20" fill="none" xmlns="http://www.w3.org/2000/svg">
<path d="M9.9974 18.3307C12.2986 18.3307 14.3819 17.398 15.8899 15.8899C17.398 14.3819 18.3307 12.2986 18.3307 9.9974C18.3307 7.69623 17.398 5.6129 15.8899 4.10484C14.3819 2.5968 12.2986 1.66406 9.9974 1.66406C7.69623 1.66406 5.6129 2.5968 4.10484 4.10484C2.5968 5.6129 1.66406 7.69623 1.66406 9.9974C1.66406 12.2986 2.5968 14.3819 4.10484 15.8899C5.6129 17.398 7.69623 18.3307 9.9974 18.3307Z" fill="#FFB020" stroke="#FFB020" stroke-width="1.25" stroke-linejoin="round"/>
<path fill-rule="evenodd" clip-rule="evenodd" d="M10.0026 15.4193C10.5779 15.4193 11.0443 14.9529 11.0443 14.3776C11.0443 13.8023 10.5779 13.3359 10.0026 13.3359C9.42731 13.3359 8.96094 13.8023 8.96094 14.3776C8.96094 14.9529 9.42731 15.4193 10.0026 15.4193Z" fill="white"/>
<path d="M10 5V11.6667" stroke="white" stroke-width="1.25" stroke-linecap="round" stroke-linejoin="round"/>
</svg>
