<svg width="84" height="84" viewBox="0 0 84 84" fill="none" xmlns="http://www.w3.org/2000/svg">
<path fill-rule="evenodd" clip-rule="evenodd" d="M42 84C65.196 84 84 65.196 84 42C84 18.804 65.196 0 42 0C18.804 0 0 18.804 0 42C0 65.196 18.804 84 42 84ZM50.7188 19C49.8438 18.1042 48.7604 17.6562 47.4688 17.6562C46.1979 17.6562 45.1146 18.1042 44.2188 19C43.3438 19.8958 42.9062 20.9792 42.9062 22.25C42.9062 23.5208 43.3542 24.6042 44.25 25.5C45.1458 26.3958 46.2188 26.8438 47.4688 26.8438C48.7396 26.8438 49.8229 26.3958 50.7188 25.5C51.6146 24.6042 52.0625 23.5208 52.0625 22.25C52.0625 20.9792 51.6146 19.8958 50.7188 19ZM43 54.25L49.4062 32.0312H47.5312L36.9375 33.75L36.5312 35C36.9688 34.9792 37.3438 34.9688 37.6562 34.9688C38.3438 34.9688 38.8854 35.1458 39.2812 35.5C39.6771 35.8542 39.875 36.2604 39.875 36.7188C39.875 37.4479 39.6667 38.5312 39.25 39.9688L34.9062 54.9062C34.5521 56.0938 34.375 57.0729 34.375 57.8438C34.375 59.0104 34.7708 59.9792 35.5625 60.75C36.375 61.5 37.4583 61.875 38.8125 61.875C42.3542 61.875 45.6979 59.1354 48.8438 53.6562L47.7812 53.0312C46.4688 55.0521 45.3438 56.4479 44.4062 57.2188C44.0521 57.5312 43.6979 57.6875 43.3438 57.6875C43.1354 57.6875 42.9375 57.5938 42.75 57.4062C42.5625 57.1979 42.4688 56.9792 42.4688 56.75C42.4688 56.3542 42.6458 55.5208 43 54.25Z" fill="#B4BDCC"/>
</svg>
