<svg width="32" height="32" viewBox="0 0 32 32" fill="none" xmlns="http://www.w3.org/2000/svg">
<path d="M31.0158 17.8891C32.2074 15.2272 26.3166 7.79012 20.6889 4.69171C17.1415 2.2914 13.4452 2.62117 12.6966 3.67508C11.0537 5.988 18.1367 7.94784 22.8738 10.2348C21.8555 10.6771 20.8959 11.4708 20.3316 12.4858C18.5656 10.5577 14.6895 8.89745 10.1412 10.2348C7.07628 11.1361 4.52906 13.2608 3.54458 16.4699C3.30536 16.3636 3.04051 16.3045 2.76186 16.3045C1.69632 16.3045 0.83252 17.1683 0.83252 18.2339C0.83252 19.2994 1.69632 20.1632 2.76186 20.1632C2.95937 20.1632 3.57691 20.0307 3.57691 20.0307L13.4452 20.1023C9.49865 26.363 6.37977 27.2782 6.37977 28.3629C6.37977 29.4475 9.36398 29.1536 10.4845 28.7493C15.8485 26.8139 21.6097 20.7819 22.5983 19.0455C26.7499 19.5635 30.2389 19.6248 31.0158 17.8891Z" fill="url(#paint0_linear_24101_9724)"/>
<path fill-rule="evenodd" clip-rule="evenodd" d="M22.8669 10.2253C22.8698 10.2265 22.8727 10.2278 22.8756 10.2291C23.0952 10.1426 23.0597 9.81829 22.9994 9.56363C22.8608 8.97831 20.4698 6.61731 18.2246 5.5598C15.1716 4.12185 12.9217 4.1928 12.5815 4.85309C13.2078 6.12923 16.0948 7.32753 19.1098 8.579C20.3972 9.11334 21.7079 9.65738 22.876 10.2213C22.8729 10.2226 22.8699 10.2239 22.8669 10.2253Z" fill="url(#paint1_linear_24101_9724)"/>
<path fill-rule="evenodd" clip-rule="evenodd" d="M18.9902 23.0786C18.3715 22.8422 17.6725 22.6252 16.8779 22.4283C17.7251 20.9123 17.9029 18.668 17.1027 17.2491C15.9798 15.2577 14.5702 14.1978 11.2945 14.1978C9.49293 14.1978 4.64222 14.8046 4.5561 18.8538C4.54706 19.2789 4.55588 19.6685 4.58668 20.0267L13.444 20.0909C12.25 21.985 11.1318 23.3898 10.1528 24.4581C11.3284 24.7594 12.2985 25.0122 13.1891 25.2444C14.0343 25.4648 14.8079 25.6664 15.6176 25.873C16.8389 24.9832 17.987 24.0129 18.9902 23.0786Z" fill="url(#paint2_linear_24101_9724)"/>
<path d="M3.42284 19.6101C3.78469 22.6861 5.53287 23.8916 9.10509 24.2484C12.6773 24.6051 14.7264 24.3658 17.4544 24.614C19.7328 24.8213 21.7672 25.9823 22.5219 25.5811C23.2011 25.22 22.8211 23.9154 21.9123 23.0784C20.7342 21.9935 19.1037 21.2392 16.2347 20.9715C16.8065 19.406 16.6463 17.211 15.7583 16.0168C14.4744 14.2902 12.1045 13.5095 9.1051 13.8506C5.97141 14.2069 2.96872 15.7497 3.42284 19.6101Z" fill="url(#paint3_linear_24101_9724)"/>
<g clip-path="url(#clip0_24101_9724)">
<path d="M30.0509 13.7095L23.0771 18.8694L24.3737 15.8284L30.0516 13.7095H30.0509Z" fill="#E17726"/>
<path d="M30.1275 13.6986C30.1376 13.717 30.1406 13.7385 30.1362 13.759C30.1317 13.7795 30.12 13.7977 30.1033 13.8103L23.1288 18.9709C23.1134 18.9821 23.0947 18.9879 23.0756 18.9875C23.0566 18.987 23.0382 18.9804 23.0232 18.9685C23.0083 18.9566 22.9977 18.9402 22.993 18.9217C22.9882 18.9033 22.9897 18.8838 22.9971 18.8662L24.2937 15.8251C24.2983 15.8142 24.3051 15.8043 24.3137 15.7961C24.3223 15.7878 24.3324 15.7815 24.3436 15.7773L30.0208 13.6584C30.0404 13.6512 30.062 13.6513 30.0816 13.6587C30.1012 13.6661 30.1175 13.6802 30.1275 13.6986ZM24.4393 15.9278L23.2834 18.6388L29.5 14.0391L24.4393 15.9278Z" fill="#E17726"/>
<path d="M13.9563 13.7095L20.8676 18.9179L19.6335 15.8284L13.9563 13.7095Z" fill="#E27625"/>
<path d="M13.8887 13.6983C13.8989 13.6798 13.9154 13.6657 13.9351 13.6584C13.9548 13.6512 13.9765 13.6513 13.9962 13.6587L19.6734 15.7776C19.6963 15.7866 19.715 15.8047 19.7233 15.8269L20.9582 18.9164C20.965 18.9341 20.9659 18.9534 20.9607 18.9716C20.9556 18.9897 20.9448 19.0058 20.9298 19.0172C20.9148 19.0287 20.8965 19.035 20.8776 19.0352C20.8587 19.0354 20.8403 19.0295 20.825 19.0184L13.9123 13.8099C13.8958 13.7972 13.8844 13.7791 13.8801 13.7588C13.8758 13.7384 13.8788 13.7172 13.8887 13.699V13.6983ZM14.4989 14.0325L20.6801 18.6911L19.5756 15.9281L14.4982 14.0325H14.4989Z" fill="#E27625"/>
<path d="M27.5495 25.7002L25.6941 28.5346L29.667 29.6287L30.8055 25.7619L27.5495 25.6995V25.7002Z" fill="#E27625"/>
<path d="M27.468 25.665C27.4761 25.6526 27.4873 25.6425 27.5004 25.6356C27.5134 25.6287 27.5281 25.6252 27.5429 25.6255L30.7989 25.6879C30.8122 25.6882 30.8253 25.6915 30.8372 25.6976C30.8491 25.7037 30.8594 25.7124 30.8674 25.7231C30.8753 25.7338 30.8807 25.7462 30.8832 25.7594C30.8856 25.7725 30.885 25.786 30.8814 25.7988L29.7429 29.6664C29.7364 29.6883 29.7217 29.7068 29.7017 29.718C29.6817 29.7291 29.6582 29.732 29.6361 29.726L25.6632 28.6319C25.6499 28.6283 25.6377 28.6216 25.6275 28.6124C25.6173 28.6032 25.6094 28.5917 25.6044 28.5789C25.5995 28.566 25.5977 28.5522 25.5991 28.5385C25.6005 28.5249 25.6051 28.5117 25.6126 28.5001L27.4687 25.6643L27.468 25.665ZM27.588 25.8009L25.8248 28.4953L29.5994 29.5346L30.681 25.8599L27.5887 25.8009H27.588Z" fill="#E27625"/>
<path d="M13.2434 25.7612L14.3743 29.628L18.3409 28.5339L16.4925 25.6995L13.2434 25.7612Z" fill="#E27625"/>
<path d="M16.4906 25.6255C16.5211 25.6248 16.5495 25.6394 16.5655 25.665L18.4147 28.4995C18.4221 28.511 18.4268 28.5241 18.4282 28.5377C18.4297 28.5513 18.4279 28.5651 18.4231 28.578C18.4182 28.5908 18.4104 28.6023 18.4003 28.6115C18.3901 28.6208 18.378 28.6275 18.3647 28.6312L14.3981 29.726C14.376 29.732 14.3525 29.7291 14.3325 29.718C14.3125 29.7068 14.2977 29.6883 14.2913 29.6664L13.1597 25.7995C13.1562 25.7867 13.1555 25.7733 13.1579 25.7602C13.1603 25.7471 13.1657 25.7348 13.1735 25.7241C13.1814 25.7134 13.1917 25.7046 13.2035 25.6985C13.2152 25.6923 13.2283 25.689 13.2416 25.6886L16.4906 25.6262V25.6255ZM13.3594 25.8599L14.4341 29.5346L18.2025 28.4946L16.4455 25.8009L13.3601 25.8599H13.3594Z" fill="#E27625"/>
<path d="M18.1121 20.9217L17.0083 22.5864L20.9396 22.7653L20.81 18.5352L18.1128 20.9224L18.1121 20.9217Z" fill="#E27625"/>
<path d="M20.8441 18.4556C20.8753 18.4695 20.8954 18.4993 20.8968 18.5332L21.0279 22.7648C21.0283 22.7768 21.0262 22.7888 21.0217 22.8001C21.0172 22.8113 21.0105 22.8214 21.0019 22.8299C20.9933 22.8384 20.983 22.8449 20.9717 22.8493C20.9604 22.8536 20.9484 22.8555 20.9363 22.8549L17.005 22.6753C16.9896 22.6747 16.9746 22.6699 16.9616 22.6616C16.9486 22.6533 16.9381 22.6416 16.931 22.6279C16.924 22.6142 16.9207 22.5988 16.9215 22.5834C16.9223 22.568 16.9272 22.553 16.9357 22.5401L18.0395 20.8747C18.0436 20.8685 18.0485 20.863 18.0541 20.858L20.7512 18.4701C20.7637 18.4591 20.7791 18.4519 20.7955 18.4493C20.812 18.4467 20.8289 18.4489 20.8441 18.4556ZM18.1789 20.9808L17.1666 22.5082L20.8504 22.6753L20.7276 18.7246L18.1789 20.9808Z" fill="#E27625"/>
<path d="M25.9053 20.9318L23.1666 18.4961L23.0771 22.7762L27.0085 22.5973L25.9053 20.9318Z" fill="#E27625"/>
<path d="M23.1317 18.3948C23.147 18.3879 23.164 18.3857 23.1806 18.3882C23.1972 18.3908 23.2127 18.3981 23.2253 18.4093L25.964 20.8451C25.9696 20.85 25.9745 20.8556 25.9786 20.8617L27.0824 22.5271C27.0909 22.54 27.0958 22.555 27.0966 22.5704C27.0974 22.5858 27.0941 22.6012 27.0871 22.6149C27.0801 22.6287 27.0695 22.6403 27.0565 22.6486C27.0435 22.6569 27.0285 22.6617 27.0131 22.6623L23.0818 22.8412C23.0698 22.8418 23.0579 22.8399 23.0467 22.8357C23.0356 22.8315 23.0254 22.825 23.0168 22.8167C23.0082 22.8084 23.0014 22.7984 22.9969 22.7873C22.9923 22.7763 22.99 22.7644 22.9902 22.7525L23.0804 18.4731C23.0807 18.4564 23.0857 18.4402 23.0949 18.4263C23.1042 18.4125 23.1171 18.4015 23.1324 18.3948H23.1317ZM23.2503 18.6652L23.1671 22.663L26.8515 22.4952L25.8392 20.9678L23.2509 18.6659L23.2503 18.6652Z" fill="#E27625"/>
<path d="M18.3298 28.5321L20.7101 27.3832L18.6613 25.7864L18.3298 28.5321Z" fill="#E27625"/>
<path d="M18.6276 25.7062C18.6419 25.7002 18.6575 25.6982 18.6729 25.7002C18.6883 25.7023 18.7028 25.7084 18.715 25.718L20.7638 27.3141C20.7756 27.3232 20.7848 27.3351 20.7907 27.3488C20.7966 27.3624 20.7988 27.3774 20.7973 27.3922C20.7958 27.4069 20.7905 27.4211 20.782 27.4333C20.7734 27.4455 20.762 27.4553 20.7486 27.4618L18.3683 28.6106C18.3542 28.6174 18.3386 28.6204 18.323 28.619C18.3074 28.6177 18.2924 28.6123 18.2797 28.6032C18.2669 28.5941 18.2568 28.5818 18.2505 28.5675C18.2441 28.5532 18.2417 28.5374 18.2435 28.5219L18.5749 25.7762C18.5769 25.7611 18.5828 25.7467 18.592 25.7345C18.6013 25.7223 18.6135 25.7128 18.6276 25.7069V25.7062ZM18.7295 25.9509L18.4363 28.3846L20.5454 27.3654L18.7295 25.9509Z" fill="#E27625"/>
<path d="M23.3118 27.3832L25.6851 28.5321L25.3606 25.7864L23.3118 27.3832Z" fill="#E27625"/>
<path d="M25.3947 25.7062C25.409 25.7122 25.4214 25.722 25.4307 25.7344C25.4399 25.7468 25.4457 25.7615 25.4474 25.7769L25.7719 28.5226C25.7736 28.5381 25.7711 28.5537 25.7647 28.5679C25.7582 28.5821 25.7482 28.5943 25.7354 28.6033C25.7227 28.6123 25.7078 28.6177 25.6923 28.619C25.6767 28.6203 25.6611 28.6174 25.6471 28.6106L23.2745 27.4617C23.261 27.4553 23.2495 27.4456 23.2409 27.4334C23.2323 27.4213 23.227 27.4071 23.2254 27.3923C23.2238 27.3776 23.226 27.3626 23.2318 27.3489C23.2376 27.3352 23.2468 27.3232 23.2585 27.3141L25.3074 25.718C25.3196 25.7084 25.3341 25.7023 25.3495 25.7002C25.3648 25.6982 25.3804 25.7002 25.3947 25.7062ZM23.4769 27.3661L25.5799 28.3839L25.2921 25.9509L23.4769 27.3654V27.3661Z" fill="#E27625"/>
<path d="M25.6851 28.5483L23.3118 27.3994L23.5052 28.9407L23.4844 29.5946L25.6851 28.5483Z" fill="#D5BFB2"/>
<path d="M23.2616 27.3112C23.2743 27.3021 23.2893 27.2966 23.3049 27.2952C23.3205 27.2939 23.3362 27.2968 23.3503 27.3036L25.7237 28.4525C25.7384 28.4597 25.7509 28.4709 25.7596 28.4849C25.7682 28.4988 25.7728 28.5149 25.7727 28.5314C25.7727 28.5478 25.768 28.5639 25.7591 28.5778C25.7503 28.5917 25.7378 28.6028 25.723 28.6099L23.5223 29.6554C23.5088 29.6618 23.4939 29.6647 23.479 29.6637C23.4641 29.6627 23.4497 29.6579 23.4372 29.6498C23.4247 29.6416 23.4144 29.6304 23.4075 29.6172C23.4005 29.604 23.3971 29.5892 23.3975 29.5743L23.4183 28.9274L23.2255 27.393C23.2236 27.3774 23.2259 27.3616 23.2323 27.3472C23.2386 27.3328 23.2487 27.3203 23.2616 27.3112ZM23.419 27.531L23.5923 28.9122C23.5926 28.9168 23.5926 28.9214 23.5923 28.926L23.577 29.4363L25.4838 28.5301L23.419 27.531Z" fill="#D5BFB2"/>
<path d="M18.3298 28.5483L20.5375 29.5946L20.5236 28.9407L20.7101 27.3994L18.3298 28.5483Z" fill="#D5BFB2"/>
<path d="M20.7607 27.3115C20.7734 27.3206 20.7834 27.3329 20.7898 27.3471C20.7961 27.3614 20.7985 27.3771 20.7967 27.3926L20.6109 28.9277L20.6248 29.5753C20.625 29.5902 20.6215 29.6048 20.6145 29.618C20.6075 29.6311 20.5973 29.6422 20.5848 29.6502C20.5723 29.6583 20.5579 29.663 20.5431 29.664C20.5282 29.6649 20.5134 29.6621 20.5 29.6557L18.2923 28.6101C18.2775 28.603 18.265 28.5918 18.2563 28.5779C18.2476 28.564 18.2429 28.5479 18.2429 28.5315C18.2429 28.515 18.2476 28.4989 18.2563 28.485C18.265 28.4711 18.2775 28.4599 18.2923 28.4528L20.6719 27.3039C20.686 27.297 20.7016 27.294 20.7173 27.2952C20.7329 27.2964 20.7479 27.3018 20.7607 27.3108V27.3115ZM18.5322 28.5304L20.4473 29.4373L20.4362 28.9256L20.4369 28.9131L20.6033 27.5306L18.5322 28.5304Z" fill="#D5BFB2"/>
<path d="M20.572 24.8005L18.5994 24.2222L19.993 23.5823L20.572 24.7998V24.8005Z" fill="#233447"/>
<path d="M19.9564 23.495C19.9773 23.4853 20.0012 23.4842 20.0228 23.492C20.0445 23.4998 20.0623 23.5158 20.0722 23.5366L20.6511 24.7548C20.6583 24.77 20.661 24.787 20.6588 24.8037C20.6566 24.8204 20.6496 24.8361 20.6387 24.8489C20.6278 24.8617 20.6134 24.8711 20.5973 24.8759C20.5812 24.8808 20.564 24.8809 20.5478 24.8762L18.5752 24.2979C18.5582 24.2929 18.5431 24.2829 18.5319 24.2691C18.5208 24.2553 18.5141 24.2384 18.5127 24.2207C18.5114 24.2031 18.5154 24.1854 18.5244 24.1701C18.5333 24.1547 18.5467 24.1425 18.5627 24.135L19.9564 23.495ZM18.8484 24.196L20.4098 24.6536L19.9508 23.6898L18.8484 24.196Z" fill="#233447"/>
<path d="M23.4516 24.8005L24.0306 23.5823L25.4311 24.2222L23.4509 24.7998L23.4516 24.8005Z" fill="#233447"/>
<path d="M23.9522 23.5363C23.9621 23.5157 23.9797 23.4998 24.0012 23.492C24.0228 23.4842 24.0465 23.4852 24.0673 23.4947L25.4679 24.1347C25.4839 24.1422 25.4974 24.1544 25.5064 24.1696C25.5154 24.1849 25.5195 24.2026 25.5182 24.2202C25.5169 24.2379 25.5103 24.2548 25.4992 24.2686C25.4881 24.2824 25.4731 24.2926 25.4561 24.2976L23.4766 24.8759C23.4604 24.8808 23.4431 24.8808 23.4268 24.8761C23.4106 24.8713 23.3961 24.862 23.385 24.8491C23.374 24.8362 23.367 24.8205 23.3648 24.8037C23.3625 24.7869 23.3653 24.7698 23.3726 24.7546L23.9522 23.5363ZM24.0735 23.6889L23.6145 24.6533L25.1815 24.1957L24.0735 23.6896V23.6889Z" fill="#233447"/>
<path d="M18.335 28.5339L18.6803 25.6995L16.4866 25.7612L18.335 28.5346V28.5339Z" fill="#CC6228"/>
<path d="M18.7367 25.6546C18.7451 25.6639 18.7515 25.6749 18.7553 25.6869C18.7592 25.6988 18.7604 25.7115 18.7589 25.724L18.4136 28.5584C18.4115 28.5761 18.404 28.5928 18.3921 28.6062C18.3802 28.6195 18.3645 28.6289 18.3471 28.6331C18.3297 28.6372 18.3115 28.6359 18.2949 28.6294C18.2782 28.6229 18.264 28.6114 18.2541 28.5965L16.4056 25.8238C16.3969 25.8108 16.3919 25.7958 16.391 25.7802C16.3901 25.7646 16.3934 25.7491 16.4006 25.7352C16.4077 25.7213 16.4185 25.7096 16.4317 25.7013C16.4449 25.693 16.46 25.6884 16.4756 25.6879L18.6694 25.6255C18.6821 25.6252 18.6946 25.6277 18.7062 25.6327C18.7178 25.6378 18.7282 25.6452 18.7367 25.6546ZM16.6386 25.8585L18.2687 28.3032L18.573 25.8037L16.6386 25.8585Z" fill="#CC6228"/>
<path d="M25.3464 25.7002L25.6848 28.5346L27.5402 25.7619L25.3464 25.6995V25.7002Z" fill="#CC6228"/>
<path d="M25.2909 25.654C25.2994 25.6446 25.3098 25.6373 25.3214 25.6324C25.333 25.6275 25.3455 25.6251 25.3581 25.6255L27.5519 25.6879C27.5673 25.6886 27.5823 25.6933 27.5953 25.7017C27.6083 25.71 27.6189 25.7216 27.6259 25.7354C27.633 25.7491 27.6363 25.7645 27.6354 25.7799C27.6346 25.7953 27.6297 25.8102 27.6212 25.8231L25.7665 28.5965C25.7566 28.6114 25.7423 28.6229 25.7256 28.6294C25.7089 28.6359 25.6906 28.6371 25.6732 28.6329C25.6558 28.6287 25.6401 28.6192 25.6283 28.6057C25.6165 28.5923 25.609 28.5755 25.607 28.5577L25.2687 25.7233C25.2672 25.7108 25.2684 25.6982 25.2722 25.6862C25.2761 25.6742 25.2824 25.6632 25.2909 25.654ZM25.4545 25.803L25.7527 28.3026L27.389 25.8578L25.4545 25.8023V25.803Z" fill="#CC6228"/>
<path d="M27.0091 22.5955L23.0771 22.7743L23.4425 24.7906L24.0222 23.5724L25.4228 24.2124L27.0091 22.5955Z" fill="#CC6228"/>
<path d="M27.0894 22.5562C27.0967 22.5723 27.0989 22.5901 27.0958 22.6074C27.0927 22.6248 27.0844 22.6407 27.0721 22.6533L25.4857 24.2702C25.4731 24.2831 25.4567 24.2917 25.439 24.2949C25.4212 24.2982 25.4029 24.2958 25.3866 24.2882L24.0643 23.6843L23.5221 24.8242C23.5142 24.8409 23.5012 24.8547 23.4849 24.8636C23.4686 24.8724 23.4499 24.8759 23.4315 24.8734C23.4131 24.8709 23.396 24.8627 23.3826 24.8498C23.3693 24.837 23.3603 24.8202 23.3571 24.802L22.9917 22.7864C22.9894 22.7741 22.9898 22.7615 22.9928 22.7494C22.9958 22.7373 23.0014 22.7259 23.0091 22.7161C23.0169 22.7063 23.0266 22.6983 23.0377 22.6926C23.0489 22.6869 23.0611 22.6837 23.0735 22.6831L27.0055 22.5042C27.0416 22.5028 27.0749 22.5236 27.0887 22.5562H27.0894ZM23.1817 22.8537L23.4805 24.5038L23.9437 23.5311C23.9536 23.5104 23.9712 23.4945 23.9927 23.4867C24.0143 23.479 24.038 23.4799 24.0588 23.4895L25.4039 24.1038L26.7913 22.6893L23.1817 22.8537Z" fill="#CC6228"/>
<path d="M18.6016 24.2124L19.9953 23.5724L20.5742 24.7906L20.9403 22.7743L17.0083 22.5955L18.6016 24.2124Z" fill="#CC6228"/>
<path d="M16.9291 22.5562C16.9362 22.5402 16.9479 22.5267 16.9627 22.5174C16.9775 22.5082 16.9948 22.5036 17.0123 22.5042L20.945 22.6831C20.9575 22.6837 20.9697 22.6869 20.9808 22.6926C20.9919 22.6983 21.0017 22.7063 21.0094 22.7161C21.0172 22.7259 21.0227 22.7373 21.0257 22.7494C21.0287 22.7615 21.0291 22.7741 21.0268 22.7864L20.6614 24.802C20.6582 24.8202 20.6492 24.837 20.6359 24.8498C20.6225 24.8627 20.6054 24.8709 20.587 24.8734C20.5686 24.8759 20.5499 24.8724 20.5337 24.8636C20.5174 24.8547 20.5043 24.8409 20.4964 24.8242L19.9535 23.6843L18.6389 24.2875C18.6226 24.2952 18.6043 24.2977 18.5866 24.2946C18.5688 24.2915 18.5525 24.2829 18.5397 24.2702L16.9464 22.6533C16.9341 22.6407 16.9258 22.6247 16.9227 22.6074C16.9197 22.5901 16.9219 22.5723 16.9291 22.5562ZM17.2272 22.6893L18.6209 24.1038L19.959 23.4895C19.9799 23.4797 20.0038 23.4786 20.0255 23.4864C20.0472 23.4942 20.0649 23.5103 20.0748 23.5311L20.5373 24.5045L20.8368 22.8537L17.2272 22.6893Z" fill="#CC6228"/>
<path d="M17.0083 22.5955L18.6571 25.8085L18.6016 24.2124L17.0083 22.5955Z" fill="#E27525"/>
<path d="M16.9575 22.5204C16.9922 22.4955 17.0407 22.4996 17.0712 22.5301L18.6645 24.147C18.6799 24.1626 18.6888 24.1834 18.6895 24.2053L18.745 25.8014C18.7457 25.8212 18.7396 25.8407 18.7277 25.8566C18.7159 25.8726 18.6989 25.884 18.6797 25.889C18.6605 25.894 18.6401 25.8923 18.622 25.8842C18.6039 25.8761 18.589 25.862 18.58 25.8443L16.9312 22.6314C16.9215 22.6128 16.9189 22.5914 16.9238 22.571C16.9286 22.5506 16.9406 22.5327 16.9575 22.5204ZM17.3472 23.0592L18.5564 25.4166L18.5162 24.2448L17.3472 23.0592Z" fill="#E27525"/>
<path d="M25.4174 24.2124L25.355 25.8085L27.0038 22.5955L25.4174 24.2124Z" fill="#E27525"/>
<path d="M27.0644 22.5207C27.099 22.5464 27.1108 22.5929 27.0907 22.6317L25.4419 25.8447C25.4329 25.8623 25.418 25.8764 25.3999 25.8845C25.3818 25.8926 25.3614 25.8943 25.3422 25.8893C25.323 25.8843 25.306 25.8729 25.2942 25.857C25.2823 25.841 25.2762 25.8215 25.2769 25.8017L25.3393 24.2049C25.3402 24.1833 25.3491 24.1628 25.3643 24.1474L26.9507 22.5305C26.9653 22.5155 26.9848 22.5062 27.0057 22.5045C27.0266 22.5027 27.0474 22.5085 27.0644 22.5207ZM25.5126 24.2458L25.4669 25.4134L26.6733 23.0629L25.5126 24.2458Z" fill="#E27525"/>
<path d="M20.9472 22.7563L20.5818 24.7726L21.0436 27.1529L21.1476 24.0155L20.9472 22.7563Z" fill="#E27525"/>
<path d="M20.9404 22.6694C20.9827 22.6701 21.0187 22.7013 21.0257 22.7436L21.2254 24.0028C21.2264 24.0082 21.2268 24.0138 21.2267 24.0194L21.1227 27.1568C21.1224 27.1785 21.1139 27.1993 21.0991 27.2151C21.0842 27.2309 21.064 27.2406 21.0424 27.2423C21.0207 27.2441 20.9992 27.2377 20.9821 27.2245C20.9649 27.2112 20.9532 27.192 20.9494 27.1707L20.4876 24.7897C20.4856 24.779 20.4856 24.7679 20.4876 24.7571L20.853 22.7416C20.8566 22.7211 20.8674 22.7026 20.8834 22.6894C20.8994 22.6762 20.9196 22.6691 20.9404 22.6694ZM20.6624 24.7724L20.9744 26.3768L21.0513 24.0215L20.9335 23.2782L20.6624 24.7724Z" fill="#E27525"/>
<path d="M23.0968 22.7563L22.9033 24.0085L23.0004 27.1529L23.4622 24.7726L23.0968 22.7563Z" fill="#E27525"/>
<path d="M23.0782 22.6694C23.1212 22.6694 23.158 22.6992 23.1656 22.7415L23.531 24.7571C23.5331 24.7679 23.5331 24.7789 23.531 24.7897L23.0692 27.17C23.0654 27.1913 23.0538 27.2105 23.0366 27.2237C23.0194 27.237 22.9979 27.2434 22.9763 27.2416C22.9547 27.2399 22.9344 27.2302 22.9196 27.2144C22.9047 27.1986 22.8963 27.1778 22.8959 27.1561L22.7988 24.0118C22.7988 24.0069 22.7988 24.0014 22.8002 23.9958L22.9937 22.7436C22.9968 22.7232 23.0071 22.7045 23.0227 22.6909C23.0383 22.6773 23.0582 22.6697 23.0789 22.6694H23.0782ZM23.0866 23.2851L22.9742 24.0145L23.0464 26.3692L23.3563 24.7724L23.0866 23.2851Z" fill="#E27525"/>
<path d="M23.4439 24.7916L22.9814 27.1719L23.3122 27.4055L25.361 25.8094L25.4234 24.2126L23.4432 24.7909L23.4439 24.7916Z" fill="#F5841F"/>
<path d="M25.4942 24.1438C25.5164 24.1611 25.5289 24.1882 25.5282 24.2159L25.4658 25.8127C25.4653 25.8253 25.462 25.8377 25.4563 25.8489C25.4506 25.8602 25.4424 25.8701 25.4325 25.8779L23.3837 27.474C23.3689 27.4855 23.3508 27.492 23.3321 27.4925C23.3134 27.493 23.295 27.4875 23.2796 27.4767L22.9482 27.2431C22.9346 27.2333 22.9241 27.2198 22.9179 27.2041C22.9118 27.1885 22.9103 27.1715 22.9136 27.155L23.3753 24.774C23.3784 24.7583 23.3857 24.7437 23.3964 24.7319C23.4072 24.72 23.421 24.7113 23.4363 24.7068L25.4166 24.1292C25.4297 24.1254 25.4436 24.1247 25.4571 24.1272C25.4706 24.1298 25.4833 24.1354 25.4942 24.1438ZM23.5376 24.8607L23.0959 27.1335L23.3282 27.2972L25.2938 25.7655L25.3493 24.3317L23.5369 24.8607H23.5376Z" fill="#F5841F"/>
<path d="M18.5994 24.2126L18.6548 25.8094L20.7037 27.4055L21.0344 27.1719L20.5726 24.7909L18.5994 24.2126Z" fill="#F5841F"/>
<path d="M18.5465 24.1439C18.5574 24.1355 18.5703 24.1297 18.5839 24.1272C18.5975 24.1247 18.6115 24.1254 18.6248 24.1294L20.5974 24.7069C20.6286 24.716 20.6529 24.7416 20.6584 24.7742L21.1209 27.1552C21.1241 27.1717 21.1225 27.1888 21.1162 27.2044C21.1099 27.22 21.0993 27.2335 21.0855 27.2432L20.7541 27.4769C20.7388 27.4877 20.7205 27.4934 20.7018 27.493C20.683 27.4926 20.6649 27.4862 20.6501 27.4748L18.6012 25.878C18.5912 25.8701 18.5831 25.8601 18.5773 25.8488C18.5716 25.8374 18.5684 25.8249 18.568 25.8121L18.5125 24.216C18.512 24.2022 18.5149 24.1884 18.5208 24.1759C18.5267 24.1634 18.5355 24.1524 18.5465 24.1439ZM18.6921 24.3311L18.7406 25.7657L20.7063 27.2966L20.9385 27.133L20.4976 24.8595L18.6914 24.3311H18.6921Z" fill="#F5841F"/>
<path d="M23.4905 29.5883L23.5106 28.9352L23.331 28.7833H20.6962L20.5236 28.9352L20.5375 29.5883L18.3298 28.5427L19.1029 29.1758L20.6685 30.256H23.3518L24.9243 29.1758L25.6905 28.5427L23.4898 29.5883H23.4905Z" fill="#C0AC9D"/>
<path d="M18.256 28.5098C18.2673 28.4916 18.285 28.4783 18.3056 28.4723C18.3261 28.4662 18.3482 28.468 18.3676 28.4772L20.4476 29.4625L20.4366 28.9501C20.4366 28.9244 20.447 28.9002 20.4664 28.8828L20.639 28.7317C20.6549 28.7175 20.6753 28.7097 20.6966 28.7095H23.3313C23.3521 28.7095 23.3722 28.7164 23.3881 28.7303L23.567 28.8815C23.5878 28.8988 23.5989 28.9244 23.5982 28.9508L23.5823 29.4618L25.6533 28.4772C25.6726 28.4682 25.6944 28.4665 25.7148 28.4725C25.7352 28.4784 25.7528 28.4916 25.7642 28.5095C25.7755 28.5274 25.78 28.5489 25.7767 28.5699C25.7734 28.5909 25.7626 28.6099 25.7462 28.6235L24.9745 29.2614L23.402 30.3416C23.3873 30.3517 23.3699 30.357 23.3521 30.3569H20.6688C20.651 30.3571 20.6336 30.3517 20.6189 30.3416L19.0471 29.2572L18.2747 28.6242C18.2582 28.6106 18.2473 28.5915 18.244 28.5704C18.2407 28.5494 18.2452 28.5278 18.2567 28.5098H18.256ZM18.9368 28.9404L19.1552 29.1193L20.6959 30.1822H23.3251L24.8726 29.1193L25.0924 28.9369L23.5275 29.6809C23.514 29.6873 23.4991 29.6901 23.4842 29.6891C23.4693 29.6881 23.4549 29.6834 23.4424 29.6752C23.4299 29.6671 23.4197 29.6559 23.4127 29.6427C23.4058 29.6295 23.4023 29.6147 23.4027 29.5998L23.4221 28.9882L23.2994 28.8842H20.7291L20.612 28.9875L20.6251 29.6005C20.6254 29.6153 20.6219 29.63 20.6149 29.6431C20.6078 29.6562 20.5976 29.6673 20.5851 29.6754C20.5726 29.6834 20.5583 29.6882 20.5434 29.6891C20.5286 29.6901 20.5138 29.6873 20.5003 29.6809L18.9368 28.9404Z" fill="#C0AC9D"/>
<path d="M23.3057 27.4033L22.975 27.1689H21.0294L20.6987 27.4033L20.5122 28.9446L20.6849 28.7928H23.3196L23.4992 28.9446L23.3057 27.4033Z" fill="#161616"/>
<path d="M20.9966 27.0855C21.0113 27.0748 21.029 27.069 21.0472 27.0688H22.9927C23.0107 27.0688 23.0281 27.0751 23.0433 27.0855L23.3741 27.3191C23.3942 27.333 23.4073 27.3552 23.4101 27.3795L23.6036 28.9208C23.6057 28.9382 23.6026 28.9559 23.5945 28.9714C23.5865 28.987 23.574 28.9999 23.5586 29.0082C23.5432 29.0166 23.5256 29.0202 23.5081 29.0184C23.4907 29.0167 23.4742 29.0097 23.4607 28.9984L23.3054 28.8674H20.7352L20.5875 28.9971C20.5742 29.0087 20.5576 29.016 20.5401 29.0181C20.5225 29.0201 20.5048 29.0168 20.4891 29.0085C20.4735 29.0002 20.4608 28.9874 20.4526 28.9718C20.4444 28.9561 20.4411 28.9383 20.4433 28.9208L20.6291 27.3802C20.6306 27.368 20.6346 27.3563 20.641 27.3457C20.6473 27.3352 20.6558 27.3262 20.6658 27.3191L20.9966 27.0855ZM21.0749 27.2436L20.7983 27.4391L20.6443 28.7149C20.6604 28.7006 20.6811 28.6927 20.7026 28.6927H23.3373C23.3581 28.6927 23.3782 28.6996 23.3942 28.7135L23.4025 28.7204L23.2416 27.4398L22.9643 27.2436H21.0749Z" fill="#161616"/>
<path d="M30.3472 19.2064L30.9338 16.3581L30.0512 13.7095L23.3118 18.6974L25.9049 20.8857L29.5679 21.952L30.3749 21.0091L30.0234 20.7546L30.5823 20.2457L30.1545 19.9157L30.7133 19.4893L30.3472 19.2071V19.2064Z" fill="#763E1A"/>
<path d="M30.0784 13.6578C30.0914 13.662 30.1033 13.6692 30.1131 13.6788C30.1228 13.6884 30.1302 13.7002 30.1345 13.7132L31.0179 16.3618C31.0226 16.3766 31.0233 16.3924 31.0199 16.4076L30.4445 19.2018L30.7676 19.4514C30.7782 19.4596 30.7868 19.4701 30.7928 19.4821C30.7987 19.4941 30.8018 19.5073 30.8018 19.5208C30.8018 19.5342 30.7987 19.5474 30.7928 19.5594C30.7868 19.5714 30.7782 19.5819 30.7676 19.5901L30.2989 19.9472L30.6365 20.2079C30.6466 20.2157 30.6549 20.2256 30.6608 20.2369C30.6667 20.2482 30.67 20.2607 30.6705 20.2735C30.6711 20.2862 30.6688 20.299 30.6639 20.3107C30.659 20.3225 30.6515 20.3331 30.6421 20.3417L30.1623 20.7785L30.4271 20.9699C30.437 20.9769 30.4453 20.986 30.4515 20.9964C30.4577 21.0069 30.4617 21.0185 30.4631 21.0306C30.4645 21.0427 30.4634 21.0549 30.4599 21.0666C30.4563 21.0782 30.4503 21.0889 30.4424 21.0981L29.6353 22.0411C29.6243 22.0537 29.6099 22.0629 29.5938 22.0676C29.5777 22.0723 29.5606 22.0722 29.5445 22.0674L25.8815 21.0011C25.8698 20.9976 25.8589 20.9917 25.8496 20.9837L23.2565 18.7962C23.2463 18.7878 23.2382 18.7771 23.2327 18.7651C23.2272 18.7531 23.2245 18.7399 23.2249 18.7267C23.2252 18.7135 23.2285 18.7005 23.2346 18.6888C23.2407 18.677 23.2494 18.6668 23.26 18.6589L29.9993 13.6709C30.0104 13.6625 30.0234 13.6568 30.0372 13.6544C30.0509 13.652 30.0651 13.6529 30.0784 13.6571V13.6578ZM23.4534 18.7331L25.9481 20.8381L29.5396 21.8837L30.2482 21.0558L29.973 20.8568C29.9625 20.8492 29.9538 20.8394 29.9476 20.828C29.9414 20.8166 29.9378 20.804 29.9371 20.791C29.9363 20.7781 29.9385 20.7652 29.9434 20.7532C29.9483 20.7411 29.9558 20.7304 29.9654 20.7216L30.4472 20.2827L30.102 20.0165C30.0913 20.0083 30.0827 19.9978 30.0768 19.9858C30.0708 19.9738 30.0677 19.9606 30.0677 19.9472C30.0677 19.9338 30.0708 19.9205 30.0768 19.9085C30.0827 19.8965 30.0913 19.886 30.102 19.8778L30.5707 19.5201L30.2947 19.3072C30.2818 19.2972 30.272 19.2837 30.2664 19.2684C30.2607 19.2531 30.2595 19.2365 30.2628 19.2205L30.8445 16.3951L30.007 13.8824L23.4527 18.7338L23.4534 18.7331Z" fill="#763E1A"/>
<path d="M13.0869 16.3581L13.6797 19.2064L13.3005 19.4886L13.8662 19.915L13.4384 20.2457L13.9973 20.7546L13.6451 21.0091L14.4521 21.952L18.1151 20.8857L20.7089 18.6974L13.9696 13.7095L13.0869 16.3581Z" fill="#763E1A"/>
<path d="M13.9448 13.657C13.9579 13.6529 13.9717 13.652 13.9852 13.6543C13.9987 13.6566 14.0114 13.662 14.0224 13.6701L20.7618 18.6581C20.7725 18.6659 20.7813 18.676 20.7875 18.6877C20.7937 18.6994 20.7971 18.7124 20.7976 18.7256C20.7981 18.7388 20.7955 18.752 20.7902 18.7641C20.7848 18.7761 20.7768 18.7869 20.7667 18.7954L18.1735 20.9829C18.164 20.991 18.1529 20.9969 18.141 21.0003L14.478 22.0659C14.4619 22.0705 14.4449 22.0704 14.429 22.0656C14.413 22.0608 14.3987 22.0515 14.3878 22.0389L13.5801 21.0959C13.5722 21.0868 13.5664 21.0761 13.5629 21.0645C13.5594 21.053 13.5583 21.0408 13.5598 21.0288C13.5612 21.0168 13.5651 21.0053 13.5712 20.9949C13.5773 20.9845 13.5856 20.9754 13.5953 20.9684L13.8602 20.777L13.3811 20.3402C13.3716 20.3316 13.3641 20.3211 13.3591 20.3094C13.3542 20.2976 13.3518 20.2849 13.3523 20.2722C13.3528 20.2594 13.356 20.2469 13.3618 20.2355C13.3676 20.2242 13.3759 20.2142 13.3859 20.2064L13.7236 19.9464L13.2494 19.5886C13.2385 19.5805 13.2296 19.5699 13.2235 19.5577C13.2174 19.5456 13.2142 19.5322 13.2142 19.5186C13.2142 19.505 13.2174 19.4916 13.2235 19.4794C13.2296 19.4672 13.2385 19.4567 13.2494 19.4485L13.5842 19.1996L13.0018 16.4061C12.9987 16.3909 12.9996 16.3751 13.0046 16.3603L13.8879 13.7117C13.8924 13.6987 13.8998 13.6868 13.9097 13.6772C13.9196 13.6675 13.9316 13.6604 13.9448 13.6563V13.657ZM14.0155 13.8816L13.1779 16.3943L13.7666 19.2197C13.77 19.2361 13.7687 19.253 13.7628 19.2686C13.7569 19.2842 13.7467 19.2978 13.7333 19.3078L13.4477 19.52L13.9198 19.8763C13.9305 19.8844 13.9392 19.8949 13.9452 19.9069C13.9512 19.9189 13.9543 19.9321 13.9544 19.9455C13.9545 19.9589 13.9514 19.9722 13.9456 19.9842C13.9397 19.9963 13.9311 20.0068 13.9205 20.015L13.5752 20.282L14.0571 20.7208C14.0667 20.7295 14.0743 20.7403 14.0792 20.7522C14.0842 20.7642 14.0864 20.7771 14.0857 20.7901C14.0851 20.803 14.0815 20.8157 14.0754 20.8271C14.0692 20.8385 14.0606 20.8484 14.0502 20.856L13.7749 21.055L14.4835 21.8829L18.0744 20.8373L20.5691 18.733L14.0155 13.8816Z" fill="#763E1A"/>
<path d="M29.5629 21.9621L25.9 20.8958L27.0038 22.5605L25.355 25.7742L27.5349 25.7464H30.7909L29.5636 21.9621H29.5629Z" fill="#F5841F"/>
<path d="M25.8393 20.8703C25.8499 20.856 25.8646 20.8453 25.8814 20.8396C25.8983 20.8339 25.9165 20.8334 25.9336 20.8384L29.5965 21.9047C29.6243 21.9131 29.6465 21.9339 29.6555 21.9616L30.8827 25.7459C30.887 25.759 30.8881 25.7729 30.886 25.7864C30.8838 25.8 30.8785 25.8129 30.8705 25.8241C30.8625 25.8352 30.8519 25.8443 30.8397 25.8506C30.8275 25.8569 30.8139 25.8602 30.8002 25.8603H27.5449L25.3657 25.888C25.3506 25.8883 25.3357 25.8846 25.3224 25.8774C25.3091 25.8701 25.2979 25.8596 25.29 25.8467C25.282 25.8338 25.2775 25.8191 25.2769 25.804C25.2763 25.7889 25.2797 25.7739 25.2867 25.7605L26.9119 22.5925L25.8372 20.9701C25.8273 20.9552 25.8222 20.9377 25.8226 20.9199C25.8229 20.902 25.8288 20.8847 25.8393 20.8703ZM26.1138 21.0727L27.0859 22.5392C27.0945 22.5521 27.0994 22.5671 27.1003 22.5825C27.1011 22.598 27.0978 22.6134 27.0908 22.6272L25.5085 25.7112L27.5442 25.6856H30.6803L29.5036 22.0594L26.1138 21.0727Z" fill="#F5841F"/>
<path d="M18.1274 20.8958L14.4644 21.9621L13.2434 25.7464H16.4918L18.6717 25.7742L17.0229 22.5605L18.1267 20.8958H18.1274Z" fill="#F5841F"/>
<path d="M18.198 20.8703C18.2202 20.9001 18.2209 20.9396 18.2008 20.9708L17.1254 22.5932L18.7506 25.7605C18.7576 25.7739 18.7609 25.7889 18.7603 25.804C18.7598 25.8191 18.7553 25.8338 18.7473 25.8467C18.7393 25.8596 18.7282 25.8701 18.7149 25.8774C18.7016 25.8846 18.6867 25.8883 18.6715 25.888L16.4923 25.8603H13.244C13.2302 25.8603 13.2166 25.8571 13.2043 25.8508C13.192 25.8446 13.1813 25.8355 13.1732 25.8243C13.1651 25.8132 13.1597 25.8002 13.1576 25.7866C13.1554 25.773 13.1565 25.759 13.1608 25.7459L14.3811 21.9616C14.3856 21.9479 14.3934 21.9356 14.4038 21.9257C14.4142 21.9158 14.4269 21.9086 14.4407 21.9047L18.1037 20.8384C18.1208 20.8334 18.139 20.8339 18.1558 20.8396C18.1727 20.8453 18.1874 20.856 18.198 20.8703ZM14.5336 22.0594L13.3639 25.6856H16.4937L18.5287 25.7112L16.9465 22.6272C16.9394 22.6134 16.9361 22.598 16.937 22.5825C16.9378 22.5671 16.9428 22.5521 16.9513 22.5392L17.9234 21.0727L14.5336 22.0594Z" fill="#F5841F"/>
<path d="M23.0784 22.7581L23.3127 18.7263L24.375 15.8572H19.6428L20.7057 18.7263L20.9401 22.7581L21.0302 24.0242L21.0372 27.1547H22.982L22.9889 24.0242L23.0784 22.7581Z" fill="#F5841F"/>
<path d="M19.5715 15.8077C19.5795 15.7962 19.5902 15.7868 19.6026 15.7803C19.615 15.7737 19.6289 15.7703 19.6429 15.7703H24.375C24.3892 15.7702 24.4032 15.7735 24.4157 15.78C24.4283 15.7865 24.4391 15.7959 24.4472 15.8075C24.4554 15.8191 24.4605 15.8325 24.4623 15.8466C24.4641 15.8606 24.4625 15.8749 24.4575 15.8881L23.3995 18.7447L23.1658 22.7648L23.0757 24.0281L23.0688 27.1551C23.0688 27.2036 23.0299 27.2432 22.9821 27.2432H21.0365C21.0134 27.2432 20.9911 27.234 20.9748 27.2176C20.9584 27.2012 20.9492 27.179 20.9492 27.1558L20.9422 24.0281L20.8528 22.7648V22.7641L20.6191 18.7447L19.5611 15.8881C19.5562 15.8749 19.5546 15.8606 19.5564 15.8466C19.5582 15.8326 19.5634 15.8193 19.5715 15.8077ZM19.7684 15.945L20.7876 18.6962C20.7905 18.7045 20.7921 18.7131 20.7925 18.7219L21.0275 22.753V22.7537L21.1177 24.0246L21.1239 27.0684H22.8947L22.9017 24.0184L22.9918 22.7537V22.7523L23.2255 18.7219C23.2261 18.7135 23.2282 18.7045 23.231 18.6962L24.2502 15.945H19.7691H19.7684Z" fill="#F5841F"/>
</g>
<defs>
<linearGradient id="paint0_linear_24101_9724" x1="9.78436" y1="15.5318" x2="30.7592" y2="21.4799" gradientUnits="userSpaceOnUse">
<stop stop-color="#C6C6C6"/>
<stop offset="1" stop-color="#BCBCBC"/>
</linearGradient>
<linearGradient id="paint1_linear_24101_9724" x1="27.228" y1="15.1266" x2="12.0937" y2="-0.0416429" gradientUnits="userSpaceOnUse">
<stop stop-color="#A4A4A4"/>
<stop offset="1" stop-color="#A5A5A5" stop-opacity="0"/>
</linearGradient>
<linearGradient id="paint2_linear_24101_9724" x1="19.4113" y1="23.6071" x2="4.87304" y2="15.2486" gradientUnits="userSpaceOnUse">
<stop stop-color="#969696"/>
<stop offset="1" stop-color="#969696" stop-opacity="0"/>
</linearGradient>
<linearGradient id="paint3_linear_24101_9724" x1="11.033" y1="15.3634" x2="20.8597" y2="27.8493" gradientUnits="userSpaceOnUse">
<stop stop-color="#D5D5D5"/>
<stop offset="0.983895" stop-color="#ABABAB"/>
</linearGradient>
<clipPath id="clip0_24101_9724">
<rect x="12" y="12" width="19.9967" height="19.9967" rx="9.99833" fill="white"/>
</clipPath>
</defs>
</svg>
