<svg width="32" height="32" viewBox="0 0 32 32" fill="none" xmlns="http://www.w3.org/2000/svg">
<g opacity="0.4">
<path d="M23.6582 4.7998H13.3223V18.6248H27.1932V8.39605C27.1998 6.45574 25.6073 4.7998 23.6582 4.7998ZM10.1482 4.7998H8.41355C6.46668 4.7998 4.7998 6.38137 4.7998 8.40262V10.1307H10.1482V4.7998ZM4.7998 13.3682H10.1482V18.6992H4.7998V13.3682ZM21.8514 27.1932H23.5839C25.5329 27.1932 27.1998 25.6117 27.1998 23.5904V21.8689H21.8514V27.1932ZM13.3223 21.8667H18.6707V27.1998H13.3223V21.8667ZM4.7998 21.8689V23.597C4.7998 25.5395 6.38574 27.1998 8.41355 27.1998H10.1482V21.8689H4.7998Z" fill="#4B4D59"/>
</g>
</svg>
