<svg width="16" height="16" viewBox="0 0 16 16" fill="none" xmlns="http://www.w3.org/2000/svg">
<path d="M13.8446 2.1567C12.3024 0.614434 9.80699 0.614434 8.2667 2.1567L6.50038 3.92319L7.43003 4.85292L9.19635 3.08643C10.177 2.10565 11.8322 2.00174 12.9149 3.08643C13.9995 4.17112 13.8956 5.82458 12.9149 6.80536L11.1486 8.57185L12.0801 9.50341L13.8464 7.73692C15.3848 6.19465 15.3848 3.69896 13.8446 2.1567ZM6.80662 12.9161C5.82594 13.8969 4.17081 14.0008 3.08805 12.9161C2.00347 11.8314 2.10737 10.1779 3.08805 9.19714L4.85437 7.43065L3.9229 6.4991L2.15658 8.26559C0.614472 9.80785 0.614472 12.3035 2.15658 13.844C3.6987 15.3844 6.19415 15.3862 7.73444 13.844L9.50076 12.0775L8.57112 11.1478L6.80662 12.9161ZM3.41251 2.48484C3.356 2.42832 3.26304 2.42832 3.20653 2.48484L2.48469 3.20675C2.42819 3.26326 2.42819 3.35623 2.48469 3.41275L12.5905 13.5195C12.647 13.576 12.7399 13.576 12.7964 13.5195L13.5183 12.7976C13.5748 12.7411 13.5748 12.6481 13.5183 12.5916L3.41251 2.48484Z" fill="var(--r-neutral-body, #BABEC5)"/>
</svg>
