<svg width="16" height="16" viewBox="0 0 16 16" fill="none" xmlns="http://www.w3.org/2000/svg">
<g clip-path="url(#clip0_127821_321)">
<path d="M8.00078 15.1998C9.98899 15.1998 11.789 14.3939 13.0919 13.091C14.3949 11.788 15.2008 9.98801 15.2008 7.9998C15.2008 6.0116 14.3949 4.2116 13.0919 2.90863C11.789 1.60569 9.98899 0.799805 8.00078 0.799805C6.01257 0.799805 4.21257 1.60569 2.90961 2.90863C1.60667 4.2116 0.800781 6.0116 0.800781 7.9998C0.800781 9.98801 1.60667 11.788 2.90961 13.091C4.21257 14.3939 6.01257 15.1998 8.00078 15.1998Z" stroke="#2ABB7F" stroke-width="1.5" stroke-linejoin="round"/>
<path d="M4.66797 7.99913L7.11241 10.4436L12.0013 5.55469" stroke="#2ABB7F" stroke-width="1.5" stroke-linecap="round" stroke-linejoin="round"/>
</g>
<defs>
<clipPath id="clip0_127821_321">
<rect width="16" height="16" fill="white"/>
</clipPath>
</defs>
</svg>
