<svg width="100" height="100" viewBox="0 0 100 100" fill="none" xmlns="http://www.w3.org/2000/svg">
<rect width="100" height="100" fill="white"/>
<path d="M51.72 54.64C51.8 54.56 51.858 54.46 51.9 54.358C52.1 53.98 52.038 53.498 51.72 53.178L44.48 45.94L51.64 38.78C52.06 38.36 52.06 37.722 51.64 37.302C51.44 37.1 51.18 37 50.92 37H40C37.8 37 36 38.8 36 41V59C36 61.2 37.8 63 40 63H43.02C43.302 63 43.562 62.9 43.76 62.7L45.44 61L51.642 54.76C51.68 54.72 51.68 54.68 51.72 54.64ZM42.5 61H40C38.9 61 38 60.1 38 59V41C38 39.9 38.9 39 40 39H48.48L42.28 45.18C41.96 45.5 41.9 45.98 42.1 46.36C42.14 46.46 42.2 46.56 42.28 46.64C42.32 46.68 42.32 46.72 42.36 46.76L49.54 53.94L42.5 61ZM60 37H56.92C56.64 37 56.378 37.1 56.18 37.3L54.48 39L48.28 45.18C47.764 45.742 47.86 46.228 48.36 46.76L55.54 53.94L48.28 61.22C47.88 61.62 47.88 62.278 48.28 62.698C48.48 62.9 48.76 63 49.02 63H60C62.2 63 64 61.2 64 59V41C64 38.8 62.2 37 60 37ZM62 59C62 60.1 61.1 61 60 61H51.44L57.642 54.76C58.118 54.296 58.102 53.592 57.722 53.18L50.48 45.94L57.42 39H60C61.1 39 62 39.9 62 41V59Z" fill="#DCDEDF"/>
</svg>
