<svg width="100" height="100" viewBox="0 0 100 100" fill="none" xmlns="http://www.w3.org/2000/svg">
<rect width="100" height="100" rx="50" fill="white"/>
<path d="M65.0434 28H44.7406V55.1562H71.9871V35.0641C72 31.2527 68.8719 28 65.0434 28ZM38.5059 28H35.0984C31.2742 28 28 31.1066 28 35.077V38.4715H38.5059V28ZM28 44.8309H38.5059V55.3023H28V44.8309ZM61.4941 71.9871H64.8973C68.7258 71.9871 72 68.8805 72 64.9102V61.5285H61.4941V71.9871ZM44.7406 61.5242H55.2465V72H44.7406V61.5242ZM28 61.5285V64.923C28 68.7387 31.1152 72 35.0984 72H38.5059V61.5285H28Z" fill="#4B4D59"/>
</svg>
