<svg width="28" height="28" viewBox="0 0 28 28" fill="none" xmlns="http://www.w3.org/2000/svg">
<rect width="28" height="28" rx="4" fill="#278AC1"/>
<path d="M20.8525 17.2531C20.8475 16.9369 21.1058 16.6772 21.4262 16.6723C21.5802 16.6747 21.7267 16.736 21.8335 16.8463C21.9428 16.9541 22.0024 17.1011 21.9999 17.2531C21.9999 17.2678 21.9999 17.2825 21.9974 17.2972V18.6867C21.9974 19.9634 20.9742 21 19.7124 21H8.28499C7.02328 21 6 19.9634 6 18.6867V8.31335C6 7.0366 7.02328 6 8.28499 6H12.6066L12.6091 6.00245C12.7755 5.99755 12.9643 6.05881 13.0959 6.29162L14.5687 8.87208H19.7124C20.9742 8.87208 21.9974 9.90867 21.9974 11.1854V12.5872C21.9999 12.6019 21.9999 12.6166 21.9999 12.6313C21.9999 12.9523 21.7441 13.2121 21.4262 13.2121C21.1083 13.2121 20.85 12.9523 20.85 12.6313V11.1854C20.85 10.5483 20.3383 10.0288 19.7075 10.0288H14.3055C14.0844 10.0533 13.8609 9.94788 13.7417 9.74204L12.2663 7.15177H8.29245C7.66159 7.15177 7.14995 7.6713 7.14995 8.30845V18.7112C7.14995 19.3483 7.66159 19.8678 8.29245 19.8678H19.71C20.3408 19.8678 20.8525 19.3483 20.8525 18.7112V17.2531Z" fill="white"/>
<path d="M12.7328 11.3571C12.8603 11.3571 12.9785 11.4118 13.0643 11.5068C13.2474 11.7111 13.2474 12.0271 13.0643 12.229L11.8727 13.5333H17.2743C17.527 13.5333 17.7333 13.7589 17.7333 14.0345C17.7333 14.3101 17.527 14.5358 17.2743 14.5358H11.8518L13.0457 15.8424C13.2242 16.0443 13.2242 16.3532 13.0457 16.5551L13.0365 16.567C12.953 16.662 12.8348 16.7143 12.7096 16.7143C12.5844 16.7119 12.4662 16.6596 12.3827 16.5646L10.4005 14.398C10.222 14.1961 10.222 13.8872 10.4005 13.6853L10.4121 13.6734H10.4145L10.4261 13.6615L12.4012 11.5068C12.487 11.4118 12.6076 11.3571 12.7328 11.3571Z" fill="white"/>
</svg>
