<svg width="95" height="12" viewBox="0 0 95 12" fill="none" xmlns="http://www.w3.org/2000/svg">
<path d="M0 6H95V12H0V6Z" fill="#EAECFB"/>
<path d="M5.83105 9H4.89355V1.89062H5.83105V9Z" fill="#8697FF"/>
<path d="M8.2627 3.7168L8.29199 4.38086C8.69564 3.87305 9.22298 3.61914 9.87402 3.61914C10.9906 3.61914 11.5537 4.24902 11.5635 5.50879V9H10.6602V5.50391C10.6569 5.12305 10.569 4.84147 10.3965 4.65918C10.2272 4.47689 9.96191 4.38574 9.60059 4.38574C9.30762 4.38574 9.05046 4.46387 8.8291 4.62012C8.60775 4.77637 8.43522 4.98145 8.31152 5.23535V9H7.4082V3.7168H8.2627Z" fill="#8697FF"/>
<path d="M14.1514 2.4375V3.7168H15.1377V4.41504H14.1514V7.69141C14.1514 7.90299 14.1953 8.0625 14.2832 8.16992C14.3711 8.27409 14.5208 8.32617 14.7324 8.32617C14.8366 8.32617 14.9798 8.30664 15.1621 8.26758V9C14.9245 9.0651 14.6934 9.09766 14.4688 9.09766C14.0651 9.09766 13.7607 8.97559 13.5557 8.73145C13.3506 8.4873 13.248 8.14062 13.248 7.69141V4.41504H12.2861V3.7168H13.248V2.4375H14.1514Z" fill="#8697FF"/>
<path d="M18.3896 9.09766C17.6735 9.09766 17.0908 8.86328 16.6416 8.39453C16.1924 7.92253 15.9678 7.29264 15.9678 6.50488V6.33887C15.9678 5.81478 16.0671 5.34766 16.2656 4.9375C16.4674 4.52409 16.7474 4.20182 17.1055 3.9707C17.4668 3.73633 17.8574 3.61914 18.2773 3.61914C18.9642 3.61914 19.498 3.84538 19.8789 4.29785C20.2598 4.75033 20.4502 5.39811 20.4502 6.24121V6.61719H16.8711C16.8841 7.13802 17.0355 7.55957 17.3252 7.88184C17.6182 8.20085 17.9893 8.36035 18.4385 8.36035C18.7575 8.36035 19.0277 8.29525 19.249 8.16504C19.4704 8.03483 19.6641 7.8623 19.8301 7.64746L20.3818 8.07715C19.9391 8.75749 19.2751 9.09766 18.3896 9.09766ZM18.2773 4.36133C17.9128 4.36133 17.6068 4.49479 17.3594 4.76172C17.112 5.02539 16.959 5.39648 16.9004 5.875H19.5469V5.80664C19.5208 5.34766 19.3971 4.99284 19.1758 4.74219C18.9544 4.48828 18.6549 4.36133 18.2773 4.36133Z" fill="#8697FF"/>
<path d="M24.0537 4.52734C23.917 4.50456 23.7689 4.49316 23.6094 4.49316C23.0169 4.49316 22.6149 4.74544 22.4033 5.25V9H21.5V3.7168H22.3789L22.3936 4.32715C22.6898 3.85514 23.1097 3.61914 23.6533 3.61914C23.8291 3.61914 23.9626 3.64193 24.0537 3.6875V4.52734Z" fill="#8697FF"/>
<path d="M25.7432 3.7168L25.7725 4.38086C26.1761 3.87305 26.7035 3.61914 27.3545 3.61914C28.471 3.61914 29.0342 4.24902 29.0439 5.50879V9H28.1406V5.50391C28.1374 5.12305 28.0495 4.84147 27.877 4.65918C27.7077 4.47689 27.4424 4.38574 27.0811 4.38574C26.7881 4.38574 26.5309 4.46387 26.3096 4.62012C26.0882 4.77637 25.9157 4.98145 25.792 5.23535V9H24.8887V3.7168H25.7432Z" fill="#8697FF"/>
<path d="M33.668 9C33.6159 8.89583 33.5736 8.71029 33.541 8.44336C33.1211 8.87956 32.6198 9.09766 32.0371 9.09766C31.5163 9.09766 31.0882 8.95117 30.7529 8.6582C30.4209 8.36198 30.2549 7.98763 30.2549 7.53516C30.2549 6.98503 30.4632 6.55859 30.8799 6.25586C31.2998 5.94987 31.889 5.79688 32.6475 5.79688H33.5264V5.38184C33.5264 5.06608 33.432 4.81543 33.2432 4.62988C33.0544 4.44108 32.776 4.34668 32.4082 4.34668C32.0859 4.34668 31.8158 4.42806 31.5977 4.59082C31.3796 4.75358 31.2705 4.95052 31.2705 5.18164H30.3623C30.3623 4.91797 30.4551 4.66406 30.6406 4.41992C30.8294 4.17253 31.0833 3.97721 31.4023 3.83398C31.7246 3.69076 32.0778 3.61914 32.4619 3.61914C33.0706 3.61914 33.5475 3.77214 33.8926 4.07812C34.2376 4.38086 34.4167 4.79915 34.4297 5.33301V7.76465C34.4297 8.24967 34.4915 8.63542 34.6152 8.92188V9H33.668ZM32.1689 8.31152C32.4521 8.31152 32.7207 8.23828 32.9746 8.0918C33.2285 7.94531 33.4124 7.75488 33.5264 7.52051V6.43652H32.8184C31.7116 6.43652 31.1582 6.76042 31.1582 7.4082C31.1582 7.69141 31.2526 7.91276 31.4414 8.07227C31.6302 8.23177 31.8727 8.31152 32.1689 8.31152Z" fill="#8697FF"/>
<path d="M36.8271 9H35.9238V1.5H36.8271V9Z" fill="#8697FF"/>
<path d="M41.9834 2.4375V3.7168H42.9697V4.41504H41.9834V7.69141C41.9834 7.90299 42.0273 8.0625 42.1152 8.16992C42.2031 8.27409 42.3529 8.32617 42.5645 8.32617C42.6686 8.32617 42.8118 8.30664 42.9941 8.26758V9C42.7565 9.0651 42.5254 9.09766 42.3008 9.09766C41.8971 9.09766 41.5928 8.97559 41.3877 8.73145C41.1826 8.4873 41.0801 8.14062 41.0801 7.69141V4.41504H40.1182V3.7168H41.0801V2.4375H41.9834Z" fill="#8697FF"/>
<path d="M46.583 4.52734C46.4463 4.50456 46.2982 4.49316 46.1387 4.49316C45.5462 4.49316 45.1442 4.74544 44.9326 5.25V9H44.0293V3.7168H44.9082L44.9229 4.32715C45.2191 3.85514 45.639 3.61914 46.1826 3.61914C46.3584 3.61914 46.4919 3.64193 46.583 3.6875V4.52734Z" fill="#8697FF"/>
<path d="M50.4844 9C50.4323 8.89583 50.39 8.71029 50.3574 8.44336C49.9375 8.87956 49.4362 9.09766 48.8535 9.09766C48.3327 9.09766 47.9046 8.95117 47.5693 8.6582C47.2373 8.36198 47.0713 7.98763 47.0713 7.53516C47.0713 6.98503 47.2796 6.55859 47.6963 6.25586C48.1162 5.94987 48.7054 5.79688 49.4639 5.79688H50.3428V5.38184C50.3428 5.06608 50.2484 4.81543 50.0596 4.62988C49.8708 4.44108 49.5924 4.34668 49.2246 4.34668C48.9023 4.34668 48.6322 4.42806 48.4141 4.59082C48.196 4.75358 48.0869 4.95052 48.0869 5.18164H47.1787C47.1787 4.91797 47.2715 4.66406 47.457 4.41992C47.6458 4.17253 47.8997 3.97721 48.2188 3.83398C48.541 3.69076 48.8942 3.61914 49.2783 3.61914C49.887 3.61914 50.3639 3.77214 50.709 4.07812C51.054 4.38086 51.2331 4.79915 51.2461 5.33301V7.76465C51.2461 8.24967 51.3079 8.63542 51.4316 8.92188V9H50.4844ZM48.9854 8.31152C49.2686 8.31152 49.5371 8.23828 49.791 8.0918C50.0449 7.94531 50.2288 7.75488 50.3428 7.52051V6.43652H49.6348C48.528 6.43652 47.9746 6.76042 47.9746 7.4082C47.9746 7.69141 48.069 7.91276 48.2578 8.07227C48.4466 8.23177 48.6891 8.31152 48.9854 8.31152Z" fill="#8697FF"/>
<path d="M53.5166 3.7168L53.5459 4.38086C53.9495 3.87305 54.4769 3.61914 55.1279 3.61914C56.2445 3.61914 56.8076 4.24902 56.8174 5.50879V9H55.9141V5.50391C55.9108 5.12305 55.8229 4.84147 55.6504 4.65918C55.4811 4.47689 55.2158 4.38574 54.8545 4.38574C54.5615 4.38574 54.3044 4.46387 54.083 4.62012C53.8617 4.77637 53.6891 4.98145 53.5654 5.23535V9H52.6621V3.7168H53.5166Z" fill="#8697FF"/>
<path d="M61.2559 7.59863C61.2559 7.35449 61.1631 7.16569 60.9775 7.03223C60.7952 6.89551 60.4746 6.77832 60.0156 6.68066C59.5599 6.58301 59.1969 6.46582 58.9268 6.3291C58.6598 6.19238 58.4613 6.02962 58.3311 5.84082C58.2041 5.65202 58.1406 5.42741 58.1406 5.16699C58.1406 4.73405 58.3229 4.36784 58.6875 4.06836C59.0553 3.76888 59.5241 3.61914 60.0938 3.61914C60.6927 3.61914 61.1777 3.77376 61.5488 4.08301C61.9232 4.39225 62.1104 4.78776 62.1104 5.26953H61.2021C61.2021 5.02214 61.0964 4.80892 60.8848 4.62988C60.6764 4.45085 60.4128 4.36133 60.0938 4.36133C59.765 4.36133 59.5078 4.43294 59.3223 4.57617C59.1367 4.7194 59.0439 4.90658 59.0439 5.1377C59.0439 5.35579 59.1302 5.52018 59.3027 5.63086C59.4753 5.74154 59.7861 5.84733 60.2354 5.94824C60.6878 6.04915 61.054 6.1696 61.334 6.30957C61.6139 6.44954 61.8206 6.61881 61.9541 6.81738C62.0908 7.0127 62.1592 7.25195 62.1592 7.53516C62.1592 8.00716 61.9704 8.38639 61.5928 8.67285C61.2152 8.95605 60.7253 9.09766 60.123 9.09766C59.6999 9.09766 59.3255 9.02279 59 8.87305C58.6745 8.72331 58.4189 8.51497 58.2334 8.24805C58.0511 7.97786 57.96 7.68652 57.96 7.37402H58.8633C58.8796 7.67676 59 7.91764 59.2246 8.09668C59.4525 8.27246 59.752 8.36035 60.123 8.36035C60.4648 8.36035 60.7383 8.29199 60.9434 8.15527C61.1517 8.0153 61.2559 7.82975 61.2559 7.59863Z" fill="#8697FF"/>
<path d="M66.5977 9C66.5456 8.89583 66.5033 8.71029 66.4707 8.44336C66.0508 8.87956 65.5495 9.09766 64.9668 9.09766C64.446 9.09766 64.0179 8.95117 63.6826 8.6582C63.3506 8.36198 63.1846 7.98763 63.1846 7.53516C63.1846 6.98503 63.3929 6.55859 63.8096 6.25586C64.2295 5.94987 64.8187 5.79688 65.5771 5.79688H66.4561V5.38184C66.4561 5.06608 66.3617 4.81543 66.1729 4.62988C65.9841 4.44108 65.7057 4.34668 65.3379 4.34668C65.0156 4.34668 64.7454 4.42806 64.5273 4.59082C64.3092 4.75358 64.2002 4.95052 64.2002 5.18164H63.292C63.292 4.91797 63.3848 4.66406 63.5703 4.41992C63.7591 4.17253 64.013 3.97721 64.332 3.83398C64.6543 3.69076 65.0075 3.61914 65.3916 3.61914C66.0003 3.61914 66.4772 3.77214 66.8223 4.07812C67.1673 4.38086 67.3464 4.79915 67.3594 5.33301V7.76465C67.3594 8.24967 67.4212 8.63542 67.5449 8.92188V9H66.5977ZM65.0986 8.31152C65.3818 8.31152 65.6504 8.23828 65.9043 8.0918C66.1582 7.94531 66.3421 7.75488 66.4561 7.52051V6.43652H65.748C64.6413 6.43652 64.0879 6.76042 64.0879 7.4082C64.0879 7.69141 64.1823 7.91276 64.3711 8.07227C64.5599 8.23177 64.8024 8.31152 65.0986 8.31152Z" fill="#8697FF"/>
<path d="M70.8945 8.36035C71.2168 8.36035 71.4984 8.2627 71.7393 8.06738C71.9801 7.87207 72.1136 7.62793 72.1396 7.33496H72.9941C72.9779 7.6377 72.8737 7.92578 72.6816 8.19922C72.4896 8.47266 72.2324 8.69076 71.9102 8.85352C71.5911 9.01628 71.2526 9.09766 70.8945 9.09766C70.1751 9.09766 69.6022 8.8584 69.1758 8.37988C68.7526 7.89811 68.541 7.24056 68.541 6.40723V6.25586C68.541 5.74154 68.6354 5.28418 68.8242 4.88379C69.013 4.4834 69.2832 4.17253 69.6348 3.95117C69.9896 3.72982 70.4079 3.61914 70.8896 3.61914C71.4821 3.61914 71.9736 3.79655 72.3643 4.15137C72.7581 4.50618 72.9681 4.9668 72.9941 5.5332H72.1396C72.1136 5.19141 71.9834 4.91146 71.749 4.69336C71.5179 4.47201 71.2314 4.36133 70.8896 4.36133C70.4307 4.36133 70.0742 4.52734 69.8203 4.85938C69.5697 5.18815 69.4443 5.66504 69.4443 6.29004V6.46094C69.4443 7.06966 69.5697 7.53841 69.8203 7.86719C70.071 8.19596 70.429 8.36035 70.8945 8.36035Z" fill="#8697FF"/>
<path d="M75.2354 2.4375V3.7168H76.2217V4.41504H75.2354V7.69141C75.2354 7.90299 75.2793 8.0625 75.3672 8.16992C75.4551 8.27409 75.6048 8.32617 75.8164 8.32617C75.9206 8.32617 76.0638 8.30664 76.2461 8.26758V9C76.0085 9.0651 75.7773 9.09766 75.5527 9.09766C75.1491 9.09766 74.8447 8.97559 74.6396 8.73145C74.4346 8.4873 74.332 8.14062 74.332 7.69141V4.41504H73.3701V3.7168H74.332V2.4375H75.2354Z" fill="#8697FF"/>
<path d="M78.2627 9H77.3594V3.7168H78.2627V9ZM77.2861 2.31543C77.2861 2.16895 77.3301 2.04525 77.418 1.94434C77.5091 1.84342 77.6426 1.79297 77.8184 1.79297C77.9941 1.79297 78.1276 1.84342 78.2188 1.94434C78.3099 2.04525 78.3555 2.16895 78.3555 2.31543C78.3555 2.46191 78.3099 2.58398 78.2188 2.68164C78.1276 2.7793 77.9941 2.82812 77.8184 2.82812C77.6426 2.82812 77.5091 2.7793 77.418 2.68164C77.3301 2.58398 77.2861 2.46191 77.2861 2.31543Z" fill="#8697FF"/>
<path d="M79.4736 6.30957C79.4736 5.79199 79.5745 5.3265 79.7764 4.91309C79.9814 4.49967 80.2646 4.18066 80.626 3.95605C80.9906 3.73145 81.4056 3.61914 81.8711 3.61914C82.5905 3.61914 83.1715 3.86816 83.6143 4.36621C84.0602 4.86426 84.2832 5.52669 84.2832 6.35352V6.41699C84.2832 6.93131 84.1839 7.39355 83.9854 7.80371C83.79 8.21061 83.5085 8.52799 83.1406 8.75586C82.776 8.98372 82.3561 9.09766 81.8809 9.09766C81.1647 9.09766 80.5837 8.84863 80.1377 8.35059C79.695 7.85254 79.4736 7.19336 79.4736 6.37305V6.30957ZM80.3818 6.41699C80.3818 7.00293 80.5169 7.47331 80.7871 7.82812C81.0605 8.18294 81.4251 8.36035 81.8809 8.36035C82.3398 8.36035 82.7044 8.18131 82.9746 7.82324C83.2448 7.46191 83.3799 6.95736 83.3799 6.30957C83.3799 5.73014 83.2415 5.26139 82.9648 4.90332C82.6914 4.54199 82.3268 4.36133 81.8711 4.36133C81.4251 4.36133 81.0654 4.53874 80.792 4.89355C80.5186 5.24837 80.3818 5.75619 80.3818 6.41699Z" fill="#8697FF"/>
<path d="M86.2705 3.7168L86.2998 4.38086C86.7035 3.87305 87.2308 3.61914 87.8818 3.61914C88.9984 3.61914 89.5615 4.24902 89.5713 5.50879V9H88.668V5.50391C88.6647 5.12305 88.5768 4.84147 88.4043 4.65918C88.235 4.47689 87.9697 4.38574 87.6084 4.38574C87.3154 4.38574 87.0583 4.46387 86.8369 4.62012C86.6156 4.77637 86.443 4.98145 86.3193 5.23535V9H85.416V3.7168H86.2705Z" fill="#8697FF"/>
</svg>
