<svg width="16" height="16" viewBox="0 0 16 16" fill="none" xmlns="http://www.w3.org/2000/svg">
<path d="M12.2835 11.6034C13.1049 10.6287 13.6004 9.37154 13.6004 8.00039C13.6004 4.91326 11.0875 2.40039 8.00039 2.40039C4.91326 2.40039 2.40039 4.91326 2.40039 8.00039C2.40039 11.0875 4.91326 13.6004 8.00039 13.6004C9.64306 13.6004 11.1228 12.889 12.1478 11.7595L12.1844 11.7799L12.2835 11.6034ZM8.00039 5.95317C8.39001 5.95317 8.77692 5.92873 9.15976 5.88121C9.29688 6.52606 9.37697 7.19942 9.39326 7.88907H6.69033C6.70662 7.20349 6.78536 6.53285 6.92112 5.89072C7.2768 5.9328 7.63792 5.95317 8.00039 5.95317ZM7.04873 5.35855C7.27816 4.51142 7.61212 3.72403 8.04112 3.03166C8.46875 3.72131 8.80136 4.50463 9.03079 5.34905C8.69004 5.38841 8.34657 5.40878 8.00039 5.40878C7.68 5.40878 7.36369 5.39249 7.04873 5.35855ZM9.93765 7.88907C9.92136 7.17363 9.83991 6.47176 9.69872 5.7984C10.5309 5.645 11.3319 5.37891 12.0731 5.00694C12.6705 5.81741 13.0329 6.81251 13.056 7.88907H9.93765ZM6.14594 7.88907H2.94614C2.96921 6.81251 3.33169 5.81741 3.92902 5.00694C4.69469 5.39113 5.52146 5.66264 6.38216 5.81334C6.24097 6.48126 6.16223 7.1777 6.14594 7.88907ZM6.14594 8.43346C6.16088 9.0688 6.2274 9.696 6.34279 10.3042C5.51874 10.4522 4.72456 10.7115 3.98875 11.0739C3.41721 10.33 3.04795 9.42177 2.96378 8.43481H6.14594V8.43346ZM6.69033 8.43346H9.39326C9.37833 9.04572 9.31317 9.64985 9.20049 10.2322C8.80543 10.182 8.40495 10.1549 8.00039 10.1549C7.62434 10.1549 7.25101 10.1779 6.88175 10.2214C6.76907 9.64306 6.70526 9.04301 6.69033 8.43346ZM9.93765 8.43346H13.037C12.9528 9.42041 12.5836 10.3286 12.012 11.0726C11.2993 10.7223 10.5336 10.4685 9.73809 10.3178C9.85484 9.70686 9.92272 9.07423 9.93765 8.43346ZM11.7161 4.57523C11.0441 4.89969 10.3218 5.13183 9.57246 5.26759C9.35525 4.44626 9.04437 3.67515 8.64795 2.98551C9.85484 3.14163 10.93 3.72267 11.7161 4.57523ZM7.44107 2.976C7.03923 3.6738 6.72427 4.45169 6.5057 5.28252C5.72781 5.14948 4.97978 4.91191 4.28335 4.57523C5.08975 3.70231 6.19889 3.11312 7.44107 2.976ZM4.3553 11.5002C5.01644 11.1893 5.72374 10.9667 6.45683 10.8364C6.64417 11.6075 6.91161 12.3378 7.25237 13.0003C6.12286 12.832 5.11283 12.289 4.3553 11.5002ZM7.90129 13.0546C7.50759 12.3664 7.20485 11.5871 6.9985 10.7576C7.32975 10.7196 7.66371 10.7006 8.00039 10.7006C8.36422 10.7006 8.72669 10.7223 9.08238 10.7671C8.87738 11.5925 8.57329 12.3677 8.18231 13.0533C8.12121 13.056 8.06148 13.056 8.00039 13.056C7.96781 13.056 7.93387 13.056 7.90129 13.0546ZM8.83666 12.9868C9.17198 12.3311 9.43671 11.6102 9.62269 10.8499C10.3286 10.9816 11.0088 11.2002 11.6455 11.5002C10.9083 12.2673 9.93086 12.8035 8.83666 12.9868Z" fill="#707280" stroke="#707280" stroke-width="0.3"/>
</svg>
