<svg width="16" height="17" viewBox="0 0 16 17" fill="none" xmlns="http://www.w3.org/2000/svg">
<path fill-rule="evenodd" clip-rule="evenodd" d="M7.81064 0.833984C5.73184 0.833984 4.04664 2.51918 4.04664 4.59798C4.04664 5.89039 4.698 7.03066 5.69036 7.70842C3.50298 8.44513 1.80228 10.2926 1.30965 12.6288C1.2748 12.7941 1.24724 13.0409 1.22372 13.3812C1.16083 14.2914 1.84771 15.0803 2.75792 15.1432L2.81482 15.1461L12.7505 15.1471C13.6629 15.1471 14.4025 14.4075 14.4025 13.4951C14.4025 13.4576 14.4012 13.42 14.3987 13.3826L14.3784 13.1216C14.3605 12.9221 14.3403 12.767 14.3165 12.6522C13.8305 10.3055 12.1259 8.4477 9.93092 7.70842C10.9233 7.03066 11.5746 5.89039 11.5746 4.59798C11.5746 2.51918 9.88944 0.833984 7.81064 0.833984ZM7.81064 1.83398C9.33715 1.83398 10.5746 3.07147 10.5746 4.59798C10.5746 6.1245 9.33715 7.36198 7.81064 7.36198C6.28412 7.36198 5.04664 6.1245 5.04664 4.59798C5.04664 3.07147 6.28412 1.83398 7.81064 1.83398ZM7.81064 8.36198C10.4988 8.36198 12.799 10.2559 13.3373 12.855C13.3529 12.9301 13.3687 13.0549 13.3836 13.2251L13.4022 13.4729L13.4025 13.4951C13.4025 13.8552 13.1106 14.1471 12.7505 14.1471H2.87179C2.8568 14.1471 2.84181 14.1466 2.82685 14.1455C2.46762 14.1207 2.19652 13.8094 2.22134 13.4502L2.23957 13.2172C2.2552 13.0415 2.27178 12.9127 2.28813 12.8352C2.83418 10.2456 5.12991 8.36198 7.81064 8.36198Z" fill="#8697FF"/>
</svg>
