<svg width="128" height="128" viewBox="0 0 128 128" fill="none" xmlns="http://www.w3.org/2000/svg">
<rect width="128" height="128" rx="64" fill="white"/>
<path d="M84.5137 34H56.8281V71.0312H93.9824V43.6328C94 38.4355 89.7344 34 84.5137 34ZM48.3262 34H43.6797C38.4648 34 34 38.2363 34 43.6504V48.2793H48.3262V34ZM34 56.9512H48.3262V71.2305H34V56.9512ZM79.6738 93.9824H84.3145C89.5352 93.9824 94 89.7461 94 84.332V79.7207H79.6738V93.9824ZM56.8281 79.7148H71.1543V94H56.8281V79.7148ZM34 79.7207V84.3496C34 89.5527 38.248 94 43.6797 94H48.3262V79.7207H34Z" fill="#525966"/>
</svg>
