<svg width="23" height="23" viewBox="0 0 23 23" fill="none" xmlns="http://www.w3.org/2000/svg">
<path d="M18.2077 9.58333C18.2077 5.89375 15.1889 2.875 11.4993 2.875C7.80977 2.875 4.79102 5.89375 4.79102 9.58333C4.79102 11.9792 6.03685 14.0396 7.9056 15.2375C8.33685 15.7646 8.62435 16.4354 8.62435 17.1062V17.25H14.3743V17.2021C14.3743 16.4833 14.6139 15.8125 15.0452 15.2854C16.9618 14.0875 18.2077 11.9792 18.2077 9.58333Z" fill="#FBC02D"/>
<path d="M12.4583 21.0835H10.5417C9.4875 21.0835 8.625 20.221 8.625 19.1668V16.771H14.375V19.1668C14.375 20.221 13.5125 21.0835 12.4583 21.0835Z" fill="#9FA8DA"/>
<path d="M12.8417 21.0354C12.6979 21.6104 12.1229 22.0417 11.5 22.0417C10.8771 22.0417 10.3021 21.6104 10.1583 21.0354C10.2542 21.0833 10.3979 21.0833 10.5417 21.0833H12.4583C12.6021 21.0833 12.7458 21.0833 12.8417 21.0354ZM14.375 19.1667L8.81667 19.9333C8.96042 20.2687 9.24792 20.6042 9.58333 20.7958L14.0875 20.1729C14.2792 19.8854 14.375 19.55 14.375 19.1667ZM8.625 18.0646V19.0229L14.375 18.2083V17.25L8.625 18.0646Z" fill="#5C6BC0"/>
<path d="M14.6622 8.72064L13.2247 7.7623C13.0809 7.66647 12.8413 7.66647 12.6976 7.7623L11.4997 8.52897L10.3497 7.7623C10.2059 7.66647 9.96634 7.66647 9.82259 7.7623L8.38509 8.72064C8.28925 8.81647 8.19342 8.9123 8.19342 9.05605C8.19342 9.1998 8.19342 9.34355 8.28925 9.43939L10.1101 11.6915V16.7706H11.0684V11.4998C11.0684 11.404 11.0205 11.3081 10.9726 11.2123L9.39134 9.24772L10.1101 8.76855L11.2601 9.53522C11.4038 9.63105 11.6434 9.63105 11.7872 9.53522L12.9372 8.76855L13.6559 9.24772L12.0747 11.2123C12.0268 11.3081 11.9788 11.404 11.9788 11.4998V16.7706H12.9372V11.6915L14.758 9.43939C14.8538 9.34355 14.9018 9.1998 14.8538 9.05605C14.8059 8.9123 14.758 8.76855 14.6622 8.72064Z" fill="#FFF59D"/>
<path d="M5.22292 15.5252C5.03125 15.3335 5.03125 15.046 5.22292 14.8543C5.41458 14.6627 5.70208 14.6627 5.89375 14.8543C6.08542 15.046 6.08542 15.3335 5.84583 15.5252C5.75 15.621 5.65417 15.6689 5.51042 15.6689C5.4625 15.6689 5.31875 15.621 5.22292 15.5252ZM17.1062 15.5252C16.9146 15.3335 16.9146 15.046 17.1062 14.8543C17.2979 14.6627 17.5854 14.6627 17.7771 14.8064C17.9687 14.9981 17.9687 15.2856 17.7771 15.4772C17.6812 15.5731 17.5375 15.621 17.4417 15.621C17.2979 15.6689 17.2021 15.621 17.1062 15.5252ZM4.025 13.896C3.88125 13.6564 3.97708 13.3689 4.21667 13.2252C4.45625 13.0814 4.74375 13.1772 4.8875 13.4168C5.03125 13.6564 4.93542 13.9439 4.69583 14.0877C4.6 14.1356 4.55208 14.1356 4.45625 14.1356C4.26458 14.1356 4.12083 14.0397 4.025 13.896ZM18.3042 14.0877C18.0646 13.9439 18.0167 13.6564 18.1125 13.4168C18.2562 13.1772 18.5437 13.0814 18.7833 13.2252C19.0229 13.3689 19.0708 13.6564 18.975 13.896C18.8792 14.0397 18.7354 14.1356 18.5437 14.1356C18.4479 14.1356 18.4 14.0877 18.3042 14.0877ZM3.25833 12.0752C3.1625 11.8356 3.30625 11.5481 3.59375 11.5002C3.83333 11.4043 4.12083 11.5481 4.16875 11.8356C4.21667 12.0752 4.12083 12.3627 3.83333 12.4106C3.78542 12.4106 3.7375 12.4106 3.68958 12.4106C3.49792 12.4106 3.30625 12.2668 3.25833 12.0752ZM19.1667 12.3627C18.9271 12.2668 18.7833 12.0272 18.8312 11.7877C18.9271 11.5481 19.1667 11.4043 19.4542 11.4522C19.6937 11.5002 19.8375 11.7877 19.7896 12.0272C19.7417 12.2189 19.55 12.3627 19.3104 12.3627C19.2625 12.4106 19.2146 12.4106 19.1667 12.3627ZM2.875 10.1106C2.875 10.0627 2.875 10.0627 2.875 10.1106C2.875 9.82308 3.06667 9.5835 3.35417 9.5835C3.64167 9.5835 3.83333 9.77516 3.88125 10.0147C3.88125 10.2543 3.68958 10.4939 3.45 10.5418C3.45 10.5418 3.45 10.5418 3.40208 10.5418C3.11458 10.5418 2.92292 10.3502 2.875 10.1106ZM19.5979 10.5418C19.3104 10.5418 19.1187 10.3022 19.1187 10.0147C19.1187 9.77516 19.3583 9.53558 19.6458 9.5835C19.8854 9.5835 20.125 9.82308 20.0771 10.1106C20.0771 10.3502 19.8854 10.5418 19.5979 10.5418ZM19.0708 8.24183C19.0229 8.00225 19.2146 7.71475 19.4542 7.66683C19.6937 7.61891 19.9812 7.81058 20.0292 8.05016C20.0771 8.33766 19.8854 8.57725 19.6458 8.62516C19.5979 8.62516 19.5979 8.62516 19.55 8.62516C19.3104 8.62516 19.0708 8.48141 19.0708 8.24183ZM3.40208 8.62516C3.1625 8.57725 2.97083 8.33766 3.01875 8.05016C3.06667 7.81058 3.30625 7.61891 3.54583 7.66683C3.83333 7.71475 3.97708 7.95433 3.92917 8.24183C3.88125 8.48141 3.68958 8.62516 3.45 8.62516H3.40208ZM18.5437 6.56475C18.4479 6.32516 18.5437 6.03766 18.7833 5.94183C19.0229 5.846 19.3104 5.94183 19.4062 6.18141C19.5021 6.421 19.4062 6.7085 19.1667 6.80433C19.1187 6.80433 19.0229 6.85225 18.975 6.85225C18.7833 6.85225 18.6396 6.7085 18.5437 6.56475ZM3.83333 6.75641C3.59375 6.66058 3.49792 6.37308 3.59375 6.1335C3.68958 5.89391 3.97708 5.79808 4.21667 5.89391C4.45625 5.98975 4.55208 6.27725 4.45625 6.51683C4.36042 6.7085 4.21667 6.80433 4.025 6.80433C3.97708 6.80433 3.88125 6.80433 3.83333 6.75641ZM17.6333 4.9835C17.4896 4.79183 17.5375 4.50433 17.7292 4.31266C17.9208 4.16891 18.2562 4.21683 18.4 4.4085C18.5437 4.60016 18.4958 4.93558 18.3042 5.07933C18.2083 5.12725 18.1125 5.17516 18.0167 5.17516C17.8729 5.17516 17.7292 5.12725 17.6333 4.9835ZM4.69583 5.07933C4.50417 4.93558 4.45625 4.64808 4.6 4.4085C4.74375 4.21683 5.07917 4.16891 5.27083 4.31266C5.4625 4.45641 5.51042 4.79183 5.36667 4.9835C5.27083 5.12725 5.12708 5.17516 4.98333 5.17516C4.8875 5.17516 4.79167 5.17516 4.69583 5.07933ZM16.4354 3.73766C16.2437 3.546 16.1958 3.2585 16.3875 3.06683C16.5792 2.87516 16.8667 2.82725 17.0583 3.01891C17.25 3.21058 17.2979 3.49808 17.1062 3.68975C17.0104 3.78558 16.8667 3.8335 16.7229 3.8335C16.6271 3.8335 16.5312 3.78558 16.4354 3.73766ZM5.89375 3.64183C5.70208 3.45016 5.75 3.16266 5.94167 2.971C6.13333 2.77933 6.46875 2.82725 6.6125 3.01891C6.80417 3.21058 6.75625 3.49808 6.56458 3.68975C6.46875 3.78558 6.37292 3.8335 6.27708 3.8335C6.13333 3.8335 5.98958 3.73766 5.89375 3.64183ZM14.95 2.73141C14.7104 2.63558 14.6146 2.30016 14.7583 2.1085C14.9021 1.86891 15.1417 1.77308 15.3812 1.91683C15.6208 2.06058 15.7167 2.34808 15.5729 2.53975C15.4771 2.73141 15.3333 2.82725 15.1417 2.82725C15.0937 2.77933 14.9979 2.77933 14.95 2.73141ZM7.42708 2.49183C7.33125 2.25225 7.42708 1.96475 7.66667 1.86891C7.90625 1.72516 8.19375 1.821 8.28958 2.06058C8.43333 2.30016 8.28958 2.58766 8.09792 2.6835C8.05 2.73141 7.95417 2.73141 7.85833 2.73141C7.66667 2.77933 7.52292 2.6835 7.42708 2.49183ZM13.2729 2.1085C13.0333 2.06058 12.8417 1.77308 12.8896 1.5335C12.9375 1.29391 13.225 1.10225 13.4646 1.15016C13.7042 1.19808 13.8958 1.48558 13.8 1.72516C13.7521 1.96475 13.5604 2.1085 13.3208 2.1085C13.3687 2.15641 13.3208 2.1085 13.2729 2.1085ZM9.15208 1.77308C9.10417 1.5335 9.24792 1.246 9.53542 1.19808C9.775 1.15016 10.0625 1.29391 10.1104 1.5335C10.1583 1.77308 10.0146 2.06058 9.775 2.1085C9.72708 2.1085 9.67917 2.1085 9.67917 2.1085C9.39167 2.1085 9.2 1.96475 9.15208 1.77308ZM11.0208 1.43766C11.0208 1.15016 11.2125 0.958496 11.5 0.958496C11.7396 0.958496 11.9792 1.15016 11.9792 1.43766C11.9792 1.67725 11.7396 1.91683 11.5 1.91683C11.2604 1.91683 11.0208 1.67725 11.0208 1.43766Z" fill="#FFEA00"/>
</svg>
