<svg width="64" height="23" viewBox="0 0 64 23" fill="none" xmlns="http://www.w3.org/2000/svg">
<g opacity="0.6">
<path d="M27.615 7.84117C28.7673 7.84117 29.6502 8.11905 30.2637 8.67482C30.8854 9.22242 31.1963 9.95799 31.1963 10.8816C31.1963 11.3965 31.0844 11.9032 30.8606 12.4017C30.645 12.9003 30.2761 13.2967 29.7538 13.5909L31.8802 16.8642H29.7787L27.8512 13.9955H26.645V16.8642H24.8419V7.84117H27.615ZM27.9259 12.2791C28.2906 12.2791 28.5725 12.2056 28.7714 12.0585C28.9787 11.9032 29.1238 11.7234 29.2067 11.5191C29.2896 11.3066 29.331 11.1145 29.331 10.9428C29.331 10.8448 29.3145 10.7222 29.2813 10.5751C29.2564 10.4198 29.1984 10.2645 29.1072 10.1092C29.016 9.95391 28.8751 9.82314 28.6844 9.71689C28.502 9.61064 28.2533 9.55751 27.9383 9.55751H26.645V12.2791H27.9259Z" fill="#8697FF"/>
<path d="M34.9959 17.0114C34.4902 17.0114 34.0301 16.9133 33.6155 16.7171C33.2093 16.5128 32.886 16.2022 32.6456 15.7854C32.4052 15.3686 32.285 14.8373 32.285 14.1916C32.285 13.5868 32.4093 13.0638 32.658 12.6224C32.9067 12.1811 33.2342 11.8419 33.6404 11.6049C34.0466 11.3597 34.4777 11.2371 34.9337 11.2371C35.4725 11.2371 35.8788 11.3229 36.1523 11.4945C36.4342 11.6662 36.658 11.8541 36.8238 12.0585L36.9357 11.5068H38.5523V16.8642H36.8114V16.2022C36.7285 16.284 36.6041 16.3902 36.4383 16.521C36.2808 16.6517 36.0819 16.7662 35.8414 16.8642C35.601 16.9623 35.3192 17.0114 34.9959 17.0114ZM35.4933 15.6138C36.0984 15.6138 36.5378 15.3441 36.8114 14.8046V13.4928C36.7119 13.2313 36.5378 13.0229 36.2891 12.8676C36.0487 12.7123 35.7627 12.6347 35.4311 12.6347C35.058 12.6347 34.7347 12.7736 34.4611 13.0515C34.1876 13.3212 34.0508 13.6727 34.0508 14.1058C34.0508 14.3919 34.1171 14.6493 34.2497 14.8782C34.3824 15.107 34.5565 15.2868 34.772 15.4176C34.9959 15.5484 35.2363 15.6138 35.4933 15.6138Z" fill="#8697FF"/>
<path d="M43.5421 17.0114C43.1275 17.0114 42.7711 16.9501 42.4726 16.8275C42.1825 16.7049 41.9296 16.5373 41.7141 16.3248V16.8642H39.9731V7.19141H41.7016V11.8746C41.9172 11.6948 42.2032 11.5436 42.5597 11.421C42.9161 11.2984 43.3224 11.2371 43.7783 11.2371C44.2509 11.2371 44.6819 11.3474 45.0716 11.5681C45.4612 11.7888 45.7721 12.1116 46.0042 12.5366C46.2446 12.9534 46.3648 13.4642 46.3648 14.0691C46.3648 14.6739 46.2322 15.1969 45.9669 15.6383C45.7099 16.0796 45.3659 16.4188 44.9348 16.6558C44.5037 16.8928 44.0395 17.0114 43.5421 17.0114ZM43.1566 15.5647C43.4136 15.5647 43.6498 15.4993 43.8654 15.3686C44.0892 15.2378 44.2674 15.058 44.4001 14.8291C44.5327 14.6003 44.599 14.3428 44.599 14.0568C44.599 13.7707 44.5327 13.5174 44.4001 13.2967C44.2674 13.076 44.0892 12.9044 43.8654 12.7818C43.6498 12.651 43.4136 12.5856 43.1566 12.5856C42.8167 12.5856 42.5182 12.6633 42.2612 12.8186C42.0042 12.9739 41.8218 13.1823 41.7141 13.4438V14.7556C42.0125 15.295 42.4933 15.5647 43.1566 15.5647Z" fill="#8697FF"/>
<path d="M50.9289 17.0114C50.5144 17.0114 50.1579 16.9501 49.8594 16.8275C49.5693 16.7049 49.3164 16.5373 49.1009 16.3248V16.8642H47.36V7.19141H49.0884V11.8746C49.304 11.6948 49.59 11.5436 49.9465 11.421C50.303 11.2984 50.7092 11.2371 51.1651 11.2371C51.6377 11.2371 52.0688 11.3474 52.4584 11.5681C52.848 11.7888 53.1589 12.1116 53.391 12.5366C53.6314 12.9534 53.7517 13.4642 53.7517 14.0691C53.7517 14.6739 53.619 15.1969 53.3537 15.6383C53.0967 16.0796 52.7527 16.4188 52.3216 16.6558C51.8905 16.8928 51.4263 17.0114 50.9289 17.0114ZM50.5434 15.5647C50.8004 15.5647 51.0366 15.4993 51.2522 15.3686C51.476 15.2378 51.6542 15.058 51.7869 14.8291C51.9195 14.6003 51.9859 14.3428 51.9859 14.0568C51.9859 13.7707 51.9195 13.5174 51.7869 13.2967C51.6542 13.076 51.476 12.9044 51.2522 12.7818C51.0366 12.651 50.8004 12.5856 50.5434 12.5856C50.2035 12.5856 49.905 12.6633 49.648 12.8186C49.391 12.9739 49.2087 13.1823 49.1009 13.4438V14.7556C49.3993 15.295 49.8802 15.5647 50.5434 15.5647Z" fill="#8697FF"/>
<path d="M55.182 19.4388L56.4877 16.5823L53.9758 11.5068H55.9281L57.3582 14.6698L58.8006 11.5068H60.3675L56.8607 19.4388H55.182Z" fill="#8697FF"/>
<g clip-path="url(#clip0_13914_8029)">
<path d="M20.3446 12.8397C20.9968 11.4329 17.7724 7.50245 14.6919 5.86496C12.7502 4.59642 10.727 4.7707 10.3172 5.32768C9.41791 6.55004 13.295 7.58581 15.8879 8.79447C15.3305 9.0282 14.8052 9.44764 14.4964 9.98406C13.5297 8.96512 11.408 8.08767 8.91848 8.79447C7.24082 9.27077 5.84655 10.3937 5.30768 12.0897C5.17674 12.0335 5.03177 12.0023 4.87924 12.0023C4.296 12.0023 3.82318 12.4588 3.82318 13.0219C3.82318 13.585 4.296 14.0415 4.87924 14.0415C4.98735 14.0415 5.32537 13.9715 5.32537 13.9715L10.727 14.0093C8.56675 17.3181 6.85957 17.8018 6.85957 18.375C6.85957 18.9482 8.49304 18.7929 9.10637 18.5792C12.0424 17.5564 15.1959 14.3685 15.7371 13.4509C18.0095 13.7246 19.9193 13.757 20.3446 12.8397Z" fill="url(#paint0_linear_13914_8029)"/>
<path fill-rule="evenodd" clip-rule="evenodd" d="M15.8876 8.79463C15.8878 8.79469 15.8879 8.79475 15.8881 8.79481C16.0082 8.7491 15.9888 8.57771 15.9558 8.44313C15.8799 8.13379 14.5712 6.88602 13.3422 6.32714C11.6676 5.56561 10.4345 5.60485 10.2523 5.95582C10.5934 6.63086 12.1748 7.26464 13.8265 7.92656C14.5311 8.20895 15.2486 8.49647 15.8879 8.79451C15.8878 8.79455 15.8877 8.79459 15.8876 8.79463Z" fill="url(#paint1_linear_13914_8029)"/>
<path fill-rule="evenodd" clip-rule="evenodd" d="M13.7625 15.5885C13.4238 15.4636 13.0412 15.3489 12.6063 15.2449C13.0701 14.4437 13.1674 13.2576 12.7294 12.5077C12.1147 11.4552 11.3431 10.8951 9.55017 10.8951C8.56403 10.8951 5.9089 11.2158 5.86177 13.3558C5.85682 13.5803 5.86164 13.7861 5.87848 13.9754L10.7269 14.0093C10.0733 15.0105 9.46113 15.753 8.92519 16.3176C9.56866 16.4768 10.0997 16.6105 10.5872 16.7332C11.0498 16.8496 11.4732 16.9562 11.9164 17.0653C12.5849 16.5951 13.2133 16.0823 13.7625 15.5885Z" fill="url(#paint2_linear_13914_8029)"/>
<path d="M5.24301 13.7555C5.44107 15.3812 6.39797 16.0183 8.35329 16.2068C10.3086 16.3953 11.4302 16.2689 12.9234 16.4C14.1706 16.5096 15.2841 17.1232 15.6972 16.9111C16.069 16.7203 15.861 16.0308 15.3635 15.5885C14.7187 15.0151 13.8262 14.6165 12.2558 14.475C12.5688 13.6476 12.4811 12.4876 11.995 11.8565C11.2923 10.944 9.99507 10.5314 8.3533 10.7116C6.63801 10.9 4.99444 11.7153 5.24301 13.7555Z" fill="url(#paint3_linear_13914_8029)"/>
</g>
</g>
<defs>
<linearGradient id="paint0_linear_13914_8029" x1="8.72314" y1="11.5939" x2="20.1423" y2="14.9478" gradientUnits="userSpaceOnUse">
<stop stop-color="#8797FF"/>
<stop offset="1" stop-color="#AAA8FF"/>
</linearGradient>
<linearGradient id="paint1_linear_13914_8029" x1="18.2709" y1="11.3831" x2="10.2781" y2="3.08466" gradientUnits="userSpaceOnUse">
<stop stop-color="white"/>
<stop offset="1" stop-color="#1E1E1E" stop-opacity="0"/>
</linearGradient>
<linearGradient id="paint2_linear_13914_8029" x1="13.993" y1="15.8678" x2="6.17643" y2="11.2134" gradientUnits="userSpaceOnUse">
<stop stop-opacity="0.21"/>
<stop offset="1" stop-opacity="0"/>
</linearGradient>
<linearGradient id="paint3_linear_13914_8029" x1="9.40859" y1="11.5112" x2="14.5563" y2="18.2855" gradientUnits="userSpaceOnUse">
<stop stop-color="#9FA3FF"/>
<stop offset="0.983895" stop-color="#7A7FF3"/>
</linearGradient>
<clipPath id="clip0_13914_8029">
<rect width="17.5158" height="16.9118" fill="white" transform="translate(3.36841 3.38281)"/>
</clipPath>
</defs>
</svg>
