<svg width="191" height="24" viewBox="0 0 191 24" fill="none" xmlns="http://www.w3.org/2000/svg">
<g id="logo" clip-path="url(#clip0_3967_3545)">
<g id="Group">
<path id="Vector" d="M9.0722 0.0336914C10.7458 0.0336914 12.9296 0.383595 15.7119 2.43664L13.5619 5.88087C11.981 4.45596 10.1177 4.26626 9.29563 4.26626C6.54277 4.26626 4.70894 6.00313 4.70894 8.46931C4.70894 10.9355 6.54277 12.6724 9.29563 12.6724C10.1177 12.6724 11.9852 12.4827 13.5619 11.062L15.7119 14.5062C12.9296 16.5635 10.7458 16.9092 9.0722 16.9092C3.50747 16.9176 0 13.2836 0 8.47775C0 3.67184 3.50747 0.0336914 9.0722 0.0336914Z" fill="white"/>
<path id="Vector_2" d="M26.0529 0.0336914C30.7956 0.0336914 34.9691 3.44841 34.9691 8.47353C34.9691 13.4986 30.7956 16.9471 26.0529 16.9471C21.3103 16.9471 17.1367 13.5619 17.1367 8.47353C17.1367 3.38518 21.3398 0.0336914 26.0529 0.0336914ZM26.0529 12.9C28.3926 12.9 30.3825 11.003 30.3825 8.47353C30.3825 5.94411 28.3926 4.08077 26.0529 4.08077C23.7132 4.08077 21.7234 5.94411 21.7234 8.47353C21.7234 11.003 23.7469 12.9 26.0529 12.9Z" fill="white"/>
<path id="Vector_3" d="M52.8017 7.90863V16.6014H48.1223V7.8749C48.1223 5.66166 47.4899 3.92057 45.4031 3.92057C43.3164 3.92057 42.7177 5.72489 42.7177 7.90441V16.5972H38.0088V0.383595H42.7177V2.59684C43.759 0.982225 45.2767 0.0336914 47.0473 0.0336914C49.5134 0.0336914 51.1871 1.1087 52.0091 2.75282C53.2443 0.383595 55.5841 0.0336914 57.1312 0.0336914C61.6842 0.0336914 62.9152 3.66763 62.9152 7.78216V16.6014H58.2062V7.8749C58.2062 5.66166 57.5739 3.92057 55.4871 3.92057C53.4003 3.92057 52.7975 5.72489 52.7975 7.90441L52.8017 7.90863Z" fill="white"/>
<path id="Vector_4" d="M66.7769 24V0.383595H71.4858V2.75282C72.6536 1.07919 74.2049 0.0336914 76.5742 0.0336914C81.5065 0.0336914 84.4786 3.82782 84.4786 8.57049C84.4786 13.3132 81.73 16.9471 76.6711 16.9471C74.4916 16.9471 72.5945 15.8721 71.4858 14.3839V23.9958H66.7769V24ZM75.5961 3.86155C73.2901 3.86155 71.3593 5.34548 71.3593 8.28804C71.3593 11.2306 73.1594 13.1235 75.7226 13.1235C78.2857 13.1235 79.7697 11.0367 79.7697 8.54098C79.7697 6.04529 78.1888 3.86155 75.5961 3.86155Z" fill="white"/>
<path id="Vector_5" d="M104.334 0.383595V16.6014H99.6254V14.2322C98.4535 15.9058 96.9063 16.9513 94.5329 16.9513C89.6005 16.9513 86.6284 13.1572 86.6284 8.41451C86.6284 3.67184 89.3813 0.0336914 94.4401 0.0336914C96.6196 0.0336914 98.5167 1.1087 99.6254 2.59684V0.383595H104.334ZM95.5151 13.1235C97.8211 13.1235 99.7519 11.6395 99.7519 8.69696C99.7519 5.7544 97.9476 3.86155 95.3886 3.86155C92.8297 3.86155 91.3416 5.94832 91.3416 8.44402C91.3416 10.9397 92.9225 13.1235 95.5151 13.1235Z" fill="white"/>
<path id="Vector_6" d="M108.386 0.383595H113.095V2.59684C114.452 0.699773 116.159 0.0336914 118.12 0.0336914C122.673 0.0336914 123.904 3.66763 123.904 7.78216V16.6014H119.195V7.8749C119.195 5.62793 118.373 3.92057 116.193 3.92057C114.014 3.92057 113.095 5.65744 113.095 7.90441V16.5972H108.386V0.383595Z" fill="white"/>
<path id="Vector_7" d="M138.579 0.383545H143.764L133.267 23.9999H128.524L132.221 15.2439L125.552 0.383545H130.864L134.721 10.5307L138.579 0.383545Z" fill="white"/>
<path id="Vector_8" d="M174.771 0.383595H179.479V2.59684C180.837 0.699773 182.544 0.0336914 184.505 0.0336914C189.058 0.0336914 190.289 3.66763 190.289 7.78216V16.6014H185.58V7.8749C185.58 5.62793 184.758 3.92057 182.578 3.92057C180.398 3.92057 179.479 5.65744 179.479 7.90441V16.5972H174.771V0.383595Z" fill="white"/>
</g>
<path id="Vector_9" d="M163.666 0H153.241C148.57 0 144.78 3.7857 144.78 8.46092C144.78 13.1319 148.565 16.9218 153.241 16.9218H163.666C168.337 16.9218 172.127 13.1361 172.127 8.46092C172.127 3.78992 168.341 0 163.666 0ZM163.51 12.8705C161.086 12.8705 159.122 10.906 159.122 8.482C159.122 6.05797 161.086 4.09345 163.51 4.09345C165.934 4.09345 167.899 6.05797 167.899 8.482C167.899 10.906 165.934 12.8705 163.51 12.8705Z" fill="white"/>
</g>
<defs>
<clipPath id="clip0_3967_3545">
<rect width="190.293" height="24" fill="white"/>
</clipPath>
</defs>
</svg>
