<svg xmlns="http://www.w3.org/2000/svg" width="152" height="44" viewBox="0 0 152 44" fill="none">
  <path d="M49.1182 22.1613H49.7017C50.3115 22.1613 50.7794 22.0224 51.1053 21.7447C51.4313 21.467 51.5942 21.0677 51.5942 20.5469C51.5942 20.0262 51.4313 19.6269 51.1053 19.3492C50.7794 19.0715 50.3115 18.9326 49.7017 18.9326H49.1182V22.1613ZM55.9155 29.3999H52.0674L49.1182 24.3658V29.3999H46.0271V16.3114H50.8372C51.4996 16.3114 52.0779 16.4214 52.572 16.6413C53.0662 16.8496 53.471 17.1389 53.7864 17.5092C54.1123 17.8795 54.3541 18.3077 54.5119 18.7937C54.6801 19.2798 54.7642 19.8005 54.7642 20.356C54.7642 21.3512 54.5434 22.1613 54.1018 22.7862C53.6707 23.3996 53.0294 23.8162 52.1778 24.036L55.9155 29.3999Z" fill="#4C65FF"/>
  <path d="M58.4588 24.9213C58.4588 25.2106 58.5061 25.4826 58.6007 25.7372C58.6953 25.9802 58.8215 26.1943 58.9792 26.3794C59.1474 26.5646 59.3419 26.7093 59.5627 26.8134C59.794 26.9176 60.0411 26.9696 60.304 26.9696C60.5563 26.9696 60.7929 26.9176 61.0137 26.8134C61.245 26.7093 61.4395 26.5646 61.5972 26.3794C61.7654 26.1943 61.8968 25.9802 61.9915 25.7372C62.0966 25.4942 62.1492 25.2338 62.1492 24.956C62.1492 24.6783 62.0966 24.4179 61.9915 24.1749C61.8968 23.9203 61.7654 23.7004 61.5972 23.5153C61.4395 23.3301 61.245 23.1855 61.0137 23.0813C60.7929 22.9772 60.5563 22.9251 60.304 22.9251C60.0411 22.9251 59.794 22.9772 59.5627 23.0813C59.3419 23.1855 59.1474 23.3301 58.9792 23.5153C58.8215 23.7004 58.6953 23.9145 58.6007 24.1575C58.5061 24.389 58.4588 24.6436 58.4588 24.9213ZM62.0545 20.4949H64.9248V29.3999H62.0545V28.4104C61.4447 29.2552 60.6194 29.6776 59.5785 29.6776C58.9897 29.6776 58.4483 29.5619 57.9541 29.3304C57.4599 29.0874 57.0289 28.7518 56.6609 28.3236C56.2929 27.8954 56.0038 27.392 55.7935 26.8134C55.5937 26.2348 55.4938 25.6041 55.4938 24.9213C55.4938 24.2848 55.5937 23.6831 55.7935 23.116C55.9932 22.5374 56.2719 22.034 56.6293 21.6058C56.9868 21.1776 57.4126 20.842 57.9068 20.599C58.4009 20.3444 58.9477 20.2171 59.547 20.2171C60.5563 20.2171 61.3922 20.6048 62.0545 21.3802V20.4949Z" fill="#4C65FF"/>
  <path d="M72.3714 24.9734C72.3714 24.6957 72.3241 24.4353 72.2295 24.1923C72.1349 23.9377 72.0034 23.7178 71.8352 23.5326C71.667 23.3475 71.4725 23.2028 71.2517 23.0987C71.0309 22.9829 70.7891 22.9251 70.5262 22.9251C70.2739 22.9251 70.0373 22.9772 69.8165 23.0813C69.5957 23.1855 69.4012 23.3301 69.233 23.5153C69.0753 23.7004 68.9439 23.9203 68.8387 24.1749C68.7441 24.4179 68.6968 24.6783 68.6968 24.956C68.6968 25.2338 68.7441 25.4942 68.8387 25.7372C68.9334 25.9802 69.0648 26.1943 69.233 26.3794C69.4012 26.553 69.5957 26.6977 69.8165 26.8134C70.0478 26.9176 70.2897 26.9696 70.542 26.9696C70.7943 26.9696 71.0309 26.9176 71.2517 26.8134C71.4725 26.7093 71.6617 26.5646 71.8194 26.3794C71.9877 26.1943 72.1191 25.9802 72.2137 25.7372C72.3189 25.4942 72.3714 25.2396 72.3714 24.9734ZM68.7757 14.9922V21.3802C69.4486 20.6048 70.2897 20.2171 71.299 20.2171C71.8983 20.2171 72.445 20.3444 72.9392 20.599C73.4438 20.842 73.8697 21.1776 74.2166 21.6058C74.5741 22.0224 74.8527 22.52 75.0525 23.0987C75.2522 23.6657 75.3521 24.2733 75.3521 24.9213C75.3521 25.581 75.247 26.2001 75.0367 26.7787C74.8369 27.3573 74.5531 27.8607 74.1851 28.2889C73.8171 28.7171 73.3808 29.0585 72.8761 29.3131C72.3819 29.5561 71.8457 29.6776 71.2675 29.6776C70.2161 29.6776 69.3855 29.2552 68.7757 28.4104V29.3999H65.9211V14.9922H68.7757Z" fill="#4C65FF"/>
  <path d="M82.4833 24.9734C82.4833 24.6957 82.436 24.4353 82.3414 24.1923C82.2467 23.9377 82.1153 23.7178 81.9471 23.5326C81.7789 23.3475 81.5843 23.2028 81.3636 23.0987C81.1428 22.9829 80.9009 22.9251 80.6381 22.9251C80.3858 22.9251 80.1492 22.9772 79.9284 23.0813C79.7076 23.1855 79.5131 23.3301 79.3449 23.5153C79.1872 23.7004 79.0557 23.9203 78.9506 24.1749C78.856 24.4179 78.8087 24.6783 78.8087 24.956C78.8087 25.2338 78.856 25.4942 78.9506 25.7372C79.0452 25.9802 79.1767 26.1943 79.3449 26.3794C79.5131 26.553 79.7076 26.6977 79.9284 26.8134C80.1597 26.9176 80.4015 26.9696 80.6539 26.9696C80.9062 26.9696 81.1428 26.9176 81.3636 26.8134C81.5843 26.7093 81.7736 26.5646 81.9313 26.3794C82.0995 26.1943 82.231 25.9802 82.3256 25.7372C82.4307 25.4942 82.4833 25.2396 82.4833 24.9734ZM78.8875 14.9922V21.3802C79.5604 20.6048 80.4015 20.2171 81.4109 20.2171C82.0102 20.2171 82.5569 20.3444 83.051 20.599C83.5557 20.842 83.9815 21.1776 84.3285 21.6058C84.686 22.0224 84.9646 22.52 85.1643 23.0987C85.3641 23.6657 85.464 24.2733 85.464 24.9213C85.464 25.581 85.3589 26.2001 85.1486 26.7787C84.9488 27.3573 84.6649 27.8607 84.2969 28.2889C83.929 28.7171 83.4926 29.0585 82.988 29.3131C82.4938 29.5561 81.9576 29.6776 81.3793 29.6776C80.3279 29.6776 79.4973 29.2552 78.8875 28.4104V29.3999H76.033V14.9922H78.8875Z" fill="#4C65FF"/>
  <path d="M88.647 28.1847L84.7358 20.4949H88.0477L90.2083 25.0602L92.3059 20.4949H95.5862L89.0886 33.8437H85.8871L88.647 28.1847Z" fill="#4C65FF"/>
  <path d="M102.294 16.3114L104.344 24.7651L106.867 16.3114H109.328L111.851 24.7651L113.901 16.3114H117.134L113.586 29.3999H110.432L108.098 21.8141L105.763 29.3999H102.609L99.0609 16.3114H102.294Z" fill="#4C65FF"/>
  <path d="M119.284 24.9213C119.284 25.2106 119.331 25.4826 119.426 25.7372C119.521 25.9802 119.647 26.1943 119.804 26.3794C119.973 26.5646 120.167 26.7093 120.388 26.8134C120.619 26.9176 120.866 26.9696 121.129 26.9696C121.382 26.9696 121.618 26.9176 121.839 26.8134C122.07 26.7093 122.265 26.5646 122.422 26.3794C122.591 26.1943 122.722 25.9802 122.817 25.7372C122.922 25.4942 122.974 25.2338 122.974 24.956C122.974 24.6783 122.922 24.4179 122.817 24.1749C122.722 23.9203 122.591 23.7004 122.422 23.5153C122.265 23.3301 122.07 23.1855 121.839 23.0813C121.618 22.9772 121.382 22.9251 121.129 22.9251C120.866 22.9251 120.619 22.9772 120.388 23.0813C120.167 23.1855 119.973 23.3301 119.804 23.5153C119.647 23.7004 119.521 23.9145 119.426 24.1575C119.331 24.389 119.284 24.6436 119.284 24.9213ZM122.88 20.4949H125.75V29.3999H122.88V28.4104C122.27 29.2552 121.445 29.6776 120.404 29.6776C119.815 29.6776 119.273 29.5619 118.779 29.3304C118.285 29.0874 117.854 28.7518 117.486 28.3236C117.118 27.8954 116.829 27.392 116.619 26.8134C116.419 26.2348 116.319 25.6041 116.319 24.9213C116.319 24.2848 116.419 23.6831 116.619 23.116C116.818 22.5374 117.097 22.034 117.455 21.6058C117.812 21.1776 118.238 20.842 118.732 20.599C119.226 20.3444 119.773 20.2171 120.372 20.2171C121.382 20.2171 122.217 20.6048 122.88 21.3802V20.4949Z" fill="#4C65FF"/>
  <path d="M129.601 14.9922V29.3999H126.746V14.9922H129.601Z" fill="#4C65FF"/>
  <path d="M133.46 14.9922V29.3999H130.605V14.9922H133.46Z" fill="#4C65FF"/>
  <path d="M140.378 23.6541C140.284 23.2144 140.089 22.8614 139.795 22.5953C139.5 22.3291 139.143 22.196 138.722 22.196C138.281 22.196 137.918 22.3233 137.634 22.5779C137.361 22.8325 137.187 23.1912 137.114 23.6541H140.378ZM137.035 25.4768C137.035 26.8308 137.613 27.5078 138.77 27.5078C139.39 27.5078 139.858 27.23 140.173 26.6745H142.933C142.376 28.7113 140.983 29.7297 138.754 29.7297C138.071 29.7297 137.445 29.6197 136.877 29.3999C136.309 29.1684 135.821 28.8444 135.41 28.4278C135.011 28.0112 134.701 27.5135 134.48 26.9349C134.259 26.3563 134.149 25.7082 134.149 24.9908C134.149 24.2501 134.254 23.5847 134.464 22.9945C134.674 22.3928 134.974 21.8836 135.363 21.467C135.752 21.0503 136.22 20.7321 136.767 20.5122C137.324 20.2808 137.95 20.1651 138.644 20.1651C139.327 20.1651 139.942 20.2808 140.489 20.5122C141.035 20.7321 141.498 21.0561 141.877 21.4843C142.255 21.9125 142.544 22.439 142.744 23.064C142.944 23.6773 143.044 24.3716 143.044 25.147V25.4768H137.035Z" fill="#4C65FF"/>
  <path d="M147.023 23.116V29.3999H144.168V23.116H143.222V20.4949H144.168V17.8216H147.023V20.4949H148.647V23.116H147.023Z" fill="#4C65FF"/>
  <path d="M38.5895 23.9842C39.9618 20.9068 33.1774 12.3091 26.6959 8.72718C22.6103 5.95228 18.3533 6.33351 17.4911 7.55189C15.5989 10.2258 23.7566 12.4915 29.2122 15.1354C28.0395 15.6467 26.9343 16.5642 26.2844 17.7376C24.2505 15.5087 19.7863 13.5893 14.5481 15.1354C11.0181 16.1773 8.08449 18.6336 6.95065 22.3435C6.67514 22.2206 6.37011 22.1523 6.04919 22.1523C4.82199 22.1523 3.82715 23.1509 3.82715 24.3828C3.82715 25.6146 4.82199 26.6132 6.04919 26.6132C6.27666 26.6132 6.98788 26.46 6.98788 26.46L18.3533 26.5427C13.808 33.7805 10.216 34.8386 10.216 36.0925C10.216 37.3464 13.6529 37.0067 14.9434 36.5393C21.1212 34.3018 27.7564 27.3285 28.895 25.3211C33.6764 25.9199 37.6947 25.9907 38.5895 23.9842Z" fill="url(#paint0_linear_146342_64766)"/>
  <path fill-rule="evenodd" clip-rule="evenodd" d="M17.3547 8.92472C17.7395 8.15769 20.3335 8.07302 23.8557 9.7382C26.4413 10.9606 29.1955 13.689 29.3557 14.3661C29.4251 14.6604 29.4656 15.0355 29.2131 15.1357C29.2103 15.1344 29.2072 15.133 29.2043 15.1318C24.7059 12.9531 18.377 11.0304 17.3547 8.92472Z" fill="url(#paint1_linear_146342_64766)"/>
  <path fill-rule="evenodd" clip-rule="evenodd" d="M15.8773 19.7305C19.6497 19.7305 21.2734 20.9557 22.5667 23.2578C23.4882 24.8981 23.2835 27.4925 22.3079 29.2451C23.2225 29.4726 24.0264 29.7249 24.7386 29.998C23.5832 31.078 22.2602 32.1981 20.8538 33.2266C18.9389 32.7361 17.1982 32.2716 14.5589 31.5928C15.6869 30.3575 16.9769 28.734 18.3528 26.543L8.15265 26.4678C8.11727 26.054 8.10612 25.6042 8.11652 25.1133C8.2157 20.4321 13.8023 19.7305 15.8773 19.7305Z" fill="url(#paint2_linear_146342_64766)"/>
  <path d="M6.81442 25.9876C7.23117 29.5436 9.24456 30.9373 13.3587 31.3497C17.4729 31.7621 19.8328 31.4855 22.9747 31.7724C25.5988 32.012 27.9418 33.3543 28.811 32.8904C29.5932 32.473 29.1556 30.9648 28.1089 29.9972C26.752 28.7429 24.8742 27.8709 21.57 27.5614C22.2285 25.7516 22.044 23.2141 21.0213 21.8336C19.5426 19.8374 16.8132 18.9349 13.3587 19.3292C9.74963 19.7412 6.29141 21.5247 6.81442 25.9876Z" fill="url(#paint3_linear_146342_64766)"/>
  <defs>
    <linearGradient id="paint0_linear_146342_64766" x1="14.1371" y1="21.259" x2="38.3075" y2="28.0875" gradientUnits="userSpaceOnUse">
      <stop stop-color="#4C65FE"/>
      <stop offset="1" stop-color="#8F9FFF"/>
    </linearGradient>
    <linearGradient id="paint1_linear_146342_64766" x1="34.2267" y1="20.7973" x2="16.7311" y2="3.32423" gradientUnits="userSpaceOnUse">
      <stop stop-color="#4C65FE"/>
      <stop offset="1" stop-color="#5156D8" stop-opacity="0"/>
    </linearGradient>
    <linearGradient id="paint2_linear_146342_64766" x1="25.2235" y1="30.6073" x2="8.45009" y2="21.0003" gradientUnits="userSpaceOnUse">
      <stop stop-color="#2D46E2"/>
      <stop offset="1" stop-color="#8697FF" stop-opacity="0"/>
    </linearGradient>
    <linearGradient id="paint3_linear_146342_64766" x1="15.5792" y1="21.0782" x2="26.9494" y2="35.4709" gradientUnits="userSpaceOnUse">
      <stop stop-color="#4C65FE"/>
      <stop offset="1" stop-color="#4C65FE"/>
    </linearGradient>
  </defs>
</svg>