<svg width="100" height="29" viewBox="0 0 100 29" fill="none" xmlns="http://www.w3.org/2000/svg">
<g opacity="0.6">
<path d="M26.8273 16.0149C27.6908 14.0793 23.4218 8.6716 19.3435 6.41864C16.7728 4.6733 14.0941 4.91309 13.5516 5.67942C12.361 7.36122 17.494 8.78628 20.9269 10.4492C20.1889 10.7708 19.4935 11.3479 19.0846 12.0859C17.8048 10.684 14.9958 9.47678 11.6998 10.4492C9.47863 11.1046 7.63269 12.6495 6.91925 14.983C6.7459 14.9057 6.55396 14.8627 6.35203 14.8627C5.57984 14.8627 4.95386 15.4908 4.95386 16.2656C4.95386 17.0404 5.57984 17.6685 6.35203 17.6685C6.49516 17.6685 6.94268 17.5722 6.94268 17.5722L14.0941 17.6241C11.2341 22.1766 8.97388 22.842 8.97388 23.6307C8.97388 24.4194 11.1365 24.2057 11.9485 23.9117C15.8357 22.5044 20.0108 18.1184 20.7272 16.8558C23.7358 17.2324 26.2643 17.2769 26.8273 16.0149Z" fill="url(#paint0_linear_25937_5368)"/>
<path fill-rule="evenodd" clip-rule="evenodd" d="M20.9266 10.4503C20.9268 10.4504 20.9269 10.4505 20.9271 10.4506C21.0862 10.3877 21.0605 10.1519 21.0168 9.96672C20.9164 9.54111 19.1837 7.82435 17.5566 7.05541C15.3394 6.0076 13.7067 6.06164 13.4656 6.54459C13.9172 7.47335 16.0109 8.34533 18.1976 9.25604C19.1306 9.64458 20.0804 10.0402 20.9269 10.4502C20.9268 10.4503 20.9267 10.4503 20.9266 10.4503Z" fill="url(#paint1_linear_25937_5368)"/>
<path fill-rule="evenodd" clip-rule="evenodd" d="M18.1129 19.7974C17.6646 19.6254 17.1581 19.4677 16.5822 19.3246C17.1962 18.2222 17.3251 16.5903 16.7452 15.5586C15.9314 14.1106 14.9099 13.3398 12.5361 13.3398C11.2305 13.3398 7.71524 13.7811 7.65283 16.7254C7.64628 17.0343 7.65267 17.3175 7.67495 17.5778L14.0941 17.6245C13.2287 19.002 12.4182 20.0236 11.7086 20.8005C12.5605 21.0195 13.2636 21.2034 13.9091 21.3722C14.5215 21.5324 15.082 21.679 15.6687 21.8293C16.5538 21.1822 17.3859 20.4767 18.1129 19.7974Z" fill="url(#paint2_linear_25937_5368)"/>
<path d="M6.83359 17.2757C7.09582 19.5124 8.3627 20.3889 10.9514 20.6483C13.5402 20.9077 15.0251 20.7337 17.0021 20.9142C18.6532 21.0649 20.1275 21.9092 20.6744 21.6174C21.1667 21.3548 20.8913 20.4062 20.2326 19.7976C19.3789 19.0087 18.1973 18.4602 16.1182 18.2656C16.5325 17.1273 16.4164 15.5313 15.7729 14.6629C14.8425 13.4074 13.1251 12.8398 10.9514 13.0878C8.6805 13.3469 6.5045 14.4687 6.83359 17.2757Z" fill="url(#paint3_linear_25937_5368)"/>
<path d="M33.7449 14.8667H34.112C34.4956 14.8667 34.79 14.7796 34.995 14.6053C35.2001 14.4309 35.3026 14.1804 35.3026 13.8535C35.3026 13.5267 35.2001 13.2761 34.995 13.1018C34.79 12.9275 34.4956 12.8403 34.112 12.8403H33.7449V14.8667ZM38.0211 19.4099H35.6002L33.7449 16.2504V19.4099H31.8003V11.1952H34.8264C35.2431 11.1952 35.6069 11.2642 35.9177 11.4022C36.2286 11.5329 36.4833 11.7145 36.6817 11.9469C36.8867 12.1794 37.0389 12.4481 37.1381 12.7531C37.2439 13.0582 37.2968 13.385 37.2968 13.7337C37.2968 14.3583 37.1579 14.8667 36.8801 15.259C36.6089 15.6439 36.2055 15.9054 35.6697 16.0434L38.0211 19.4099Z" fill="#8697FF"/>
<path d="M39.6211 16.599C39.6211 16.7806 39.6509 16.9513 39.7104 17.1111C39.7699 17.2636 39.8493 17.398 39.9485 17.5142C40.0543 17.6304 40.1767 17.7212 40.3156 17.7865C40.4611 17.8519 40.6166 17.8846 40.7819 17.8846C40.9407 17.8846 41.0895 17.8519 41.2284 17.7865C41.3739 17.7212 41.4963 17.6304 41.5955 17.5142C41.7013 17.398 41.784 17.2636 41.8435 17.1111C41.9097 16.9585 41.9427 16.7951 41.9427 16.6208C41.9427 16.4465 41.9097 16.2831 41.8435 16.1305C41.784 15.9707 41.7013 15.8327 41.5955 15.7165C41.4963 15.6003 41.3739 15.5095 41.2284 15.4442C41.0895 15.3788 40.9407 15.3461 40.7819 15.3461C40.6166 15.3461 40.4611 15.3788 40.3156 15.4442C40.1767 15.5095 40.0543 15.6003 39.9485 15.7165C39.8493 15.8327 39.7699 15.9671 39.7104 16.1196C39.6509 16.2649 39.6211 16.4247 39.6211 16.599ZM41.8832 13.8208H43.6889V19.4099H41.8832V18.7889C41.4996 19.3191 40.9803 19.5842 40.3255 19.5842C39.9551 19.5842 39.6145 19.5116 39.3036 19.3663C38.9927 19.2138 38.7215 19.0031 38.49 18.7344C38.2585 18.4657 38.0766 18.1497 37.9444 17.7865C37.8187 17.4234 37.7558 17.0275 37.7558 16.599C37.7558 16.1995 37.8187 15.8219 37.9444 15.466C38.07 15.1028 38.2453 14.7868 38.4702 14.5181C38.6951 14.2494 38.963 14.0387 39.2738 13.8862C39.5847 13.7264 39.9287 13.6465 40.3057 13.6465C40.9407 13.6465 41.4665 13.8898 41.8832 14.3765V13.8208Z" fill="#8697FF"/>
<path d="M48.3736 16.6317C48.3736 16.4574 48.3438 16.294 48.2843 16.1414C48.2248 15.9816 48.1421 15.8436 48.0363 15.7274C47.9304 15.6112 47.8081 15.5204 47.6692 15.4551C47.5303 15.3824 47.3781 15.3461 47.2128 15.3461C47.054 15.3461 46.9052 15.3788 46.7663 15.4442C46.6274 15.5095 46.505 15.6003 46.3992 15.7165C46.3 15.8327 46.2173 15.9707 46.1512 16.1305C46.0916 16.2831 46.0619 16.4465 46.0619 16.6208C46.0619 16.7951 46.0916 16.9585 46.1512 17.1111C46.2107 17.2636 46.2934 17.398 46.3992 17.5142C46.505 17.6231 46.6274 17.7139 46.7663 17.7865C46.9118 17.8519 47.064 17.8846 47.2227 17.8846C47.3814 17.8846 47.5303 17.8519 47.6692 17.7865C47.8081 17.7212 47.9271 17.6304 48.0263 17.5142C48.1322 17.398 48.2149 17.2636 48.2744 17.1111C48.3405 16.9585 48.3736 16.7988 48.3736 16.6317ZM46.1115 10.3672V14.3765C46.5348 13.8898 47.064 13.6465 47.6989 13.6465C48.076 13.6465 48.4199 13.7264 48.7308 13.8862C49.0483 14.0387 49.3161 14.2494 49.5344 14.5181C49.7593 14.7796 49.9346 15.0919 50.0603 15.4551C50.1859 15.811 50.2488 16.1923 50.2488 16.599C50.2488 17.013 50.1826 17.4016 50.0503 17.7648C49.9247 18.1279 49.7461 18.4439 49.5146 18.7126C49.2831 18.9813 49.0086 19.1956 48.6911 19.3554C48.3802 19.5079 48.0429 19.5842 47.6791 19.5842C47.0177 19.5842 46.4951 19.3191 46.1115 18.7889V19.4099H44.3157V10.3672H46.1115Z" fill="#8697FF"/>
<path d="M54.735 16.6317C54.735 16.4574 54.7052 16.294 54.6457 16.1414C54.5862 15.9816 54.5035 15.8436 54.3977 15.7274C54.2918 15.6112 54.1695 15.5204 54.0306 15.4551C53.8917 15.3824 53.7395 15.3461 53.5742 15.3461C53.4154 15.3461 53.2666 15.3788 53.1277 15.4442C52.9888 15.5095 52.8665 15.6003 52.7606 15.7165C52.6614 15.8327 52.5787 15.9707 52.5126 16.1305C52.4531 16.2831 52.4233 16.4465 52.4233 16.6208C52.4233 16.7951 52.4531 16.9585 52.5126 17.1111C52.5721 17.2636 52.6548 17.398 52.7606 17.5142C52.8665 17.6231 52.9888 17.7139 53.1277 17.7865C53.2732 17.8519 53.4254 17.8846 53.5841 17.8846C53.7429 17.8846 53.8917 17.8519 54.0306 17.7865C54.1695 17.7212 54.2885 17.6304 54.3878 17.5142C54.4936 17.398 54.5763 17.2636 54.6358 17.1111C54.7019 16.9585 54.735 16.7988 54.735 16.6317ZM52.4729 10.3672V14.3765C52.8962 13.8898 53.4254 13.6465 54.0603 13.6465C54.4374 13.6465 54.7813 13.7264 55.0922 13.8862C55.4097 14.0387 55.6776 14.2494 55.8958 14.5181C56.1207 14.7796 56.296 15.0919 56.4217 15.4551C56.5473 15.811 56.6102 16.1923 56.6102 16.599C56.6102 17.013 56.544 17.4016 56.4117 17.7648C56.2861 18.1279 56.1075 18.4439 55.876 18.7126C55.6445 18.9813 55.37 19.1956 55.0525 19.3554C54.7416 19.5079 54.4043 19.5842 54.0405 19.5842C53.3791 19.5842 52.8565 19.3191 52.4729 18.7889V19.4099H50.6771V10.3672H52.4729Z" fill="#8697FF"/>
<path d="M58.6126 18.6472L56.1521 13.8208H58.2356L59.5949 16.6862L60.9144 13.8208H62.9781L58.8904 22.1989H56.8764L58.6126 18.6472Z" fill="#8697FF"/>
<path d="M67.1979 11.1952L68.4877 16.501L70.0752 11.1952H71.6229L73.2104 16.501L74.5002 11.1952H76.5341L74.3017 19.4099H72.3174L70.8491 14.6488L69.3807 19.4099H67.3964L65.164 11.1952H67.1979Z" fill="#8697FF"/>
<path d="M77.8864 16.599C77.8864 16.7806 77.9162 16.9513 77.9757 17.1111C78.0353 17.2636 78.1146 17.398 78.2139 17.5142C78.3197 17.6304 78.442 17.7212 78.581 17.7865C78.7265 17.8519 78.8819 17.8846 79.0473 17.8846C79.206 17.8846 79.3548 17.8519 79.4937 17.7865C79.6392 17.7212 79.7616 17.6304 79.8608 17.5142C79.9667 17.398 80.0493 17.2636 80.1089 17.1111C80.175 16.9585 80.2081 16.7951 80.2081 16.6208C80.2081 16.4465 80.175 16.2831 80.1089 16.1305C80.0493 15.9707 79.9667 15.8327 79.8608 15.7165C79.7616 15.6003 79.6392 15.5095 79.4937 15.4442C79.3548 15.3788 79.206 15.3461 79.0473 15.3461C78.8819 15.3461 78.7265 15.3788 78.581 15.4442C78.442 15.5095 78.3197 15.6003 78.2139 15.7165C78.1146 15.8327 78.0353 15.9671 77.9757 16.1196C77.9162 16.2649 77.8864 16.4247 77.8864 16.599ZM80.1486 13.8208H81.9543V19.4099H80.1486V18.7889C79.7649 19.3191 79.2457 19.5842 78.5909 19.5842C78.2205 19.5842 77.8798 19.5116 77.569 19.3663C77.2581 19.2138 76.9869 19.0031 76.7554 18.7344C76.5239 18.4657 76.342 18.1497 76.2097 17.7865C76.084 17.4234 76.0212 17.0275 76.0212 16.599C76.0212 16.1995 76.084 15.8219 76.2097 15.466C76.3354 15.1028 76.5107 14.7868 76.7355 14.5181C76.9604 14.2494 77.2283 14.0387 77.5392 13.8862C77.8501 13.7264 78.194 13.6465 78.571 13.6465C79.206 13.6465 79.7318 13.8898 80.1486 14.3765V13.8208Z" fill="#8697FF"/>
<path d="M84.3768 10.3672V19.4099H82.581V10.3672H84.3768Z" fill="#8697FF"/>
<path d="M86.8045 10.3672V19.4099H85.0087V10.3672H86.8045Z" fill="#8697FF"/>
<path d="M91.157 15.8037C91.0974 15.5277 90.9751 15.3062 90.7899 15.1391C90.6047 14.9721 90.3798 14.8885 90.1152 14.8885C89.8374 14.8885 89.6092 14.9684 89.4306 15.1282C89.2586 15.288 89.1495 15.5132 89.1032 15.8037H91.157ZM89.0536 16.9476C89.0536 17.7974 89.4174 18.2223 90.145 18.2223C90.5352 18.2223 90.8296 18.048 91.028 17.6994H92.7643C92.4137 18.9777 91.5373 19.6169 90.135 19.6169C89.7051 19.6169 89.3116 19.5479 88.9544 19.4099C88.5972 19.2646 88.2896 19.0612 88.0317 18.7998C87.7803 18.5383 87.5852 18.226 87.4463 17.8628C87.3074 17.4997 87.238 17.0929 87.238 16.6426C87.238 16.1777 87.3041 15.7601 87.4364 15.3897C87.5687 15.012 87.7572 14.6924 88.0019 14.4309C88.2466 14.1695 88.541 13.9697 88.8849 13.8317C89.2355 13.6865 89.629 13.6138 90.0656 13.6138C90.4955 13.6138 90.8825 13.6865 91.2264 13.8317C91.5704 13.9697 91.8614 14.1731 92.0995 14.4418C92.3376 14.7106 92.5195 15.0411 92.6452 15.4333C92.7709 15.8182 92.8337 16.254 92.8337 16.7406V16.9476H89.0536Z" fill="#8697FF"/>
<path d="M95.3369 15.466V19.4099H93.5411V15.466H92.9458V13.8208H93.5411V12.143H95.3369V13.8208H96.3588V15.466H95.3369Z" fill="#8697FF"/>
</g>
<defs>
<linearGradient id="paint0_linear_25937_5368" x1="11.4411" y1="14.3008" x2="26.6489" y2="18.599" gradientUnits="userSpaceOnUse">
<stop stop-color="#8697FF"/>
<stop offset="1" stop-color="#ABB7FF"/>
</linearGradient>
<linearGradient id="paint1_linear_25937_5368" x1="24.0818" y1="14.0118" x2="13.0772" y2="3.01725" gradientUnits="userSpaceOnUse">
<stop stop-color="#8697FF"/>
<stop offset="1" stop-color="#5156D8" stop-opacity="0"/>
</linearGradient>
<linearGradient id="paint2_linear_25937_5368" x1="18.4181" y1="20.1816" x2="7.86489" y2="14.1347" gradientUnits="userSpaceOnUse">
<stop stop-color="#465EED"/>
<stop offset="1" stop-color="#8697FF" stop-opacity="0"/>
</linearGradient>
<linearGradient id="paint3_linear_25937_5368" x1="12.3486" y1="14.1878" x2="19.4995" y2="23.2433" gradientUnits="userSpaceOnUse">
<stop stop-color="#8898FF"/>
<stop offset="0.983895" stop-color="#6277F1"/>
</linearGradient>
</defs>
</svg>
