<svg width="16" height="16" viewBox="0 0 16 16" fill="none" xmlns="http://www.w3.org/2000/svg">
<g clip-path="url(#clip0_139188_11805)">
<path d="M15 6.5V7C15.2761 7 15.5 6.77614 15.5 6.5H15ZM15 9.5H15.5C15.5 9.22386 15.2761 9 15 9V9.5ZM15 13V13.5C15.2761 13.5 15.5 13.2761 15.5 13H15ZM1 13H0.5C0.5 13.2761 0.723858 13.5 1 13.5V13ZM1 9.5V9C0.723858 9 0.5 9.22386 0.5 9.5H1ZM1 6.5H0.5C0.5 6.77614 0.723858 7 1 7V6.5ZM1 3V2.5C0.723858 2.5 0.5 2.72386 0.5 3H1ZM15 3H15.5C15.5 2.72386 15.2761 2.5 15 2.5V3ZM15 6.5V6C13.8954 6 13 6.89543 13 8H13.5H14C14 7.44772 14.4477 7 15 7V6.5ZM13.5 8H13C13 9.10457 13.8954 10 15 10V9.5V9C14.4477 9 14 8.55228 14 8H13.5ZM15 9.5H14.5V13H15H15.5V9.5H15ZM15 13V12.5H1V13V13.5H15V13ZM1 13H1.5V9.5H1H0.5V13H1ZM1 9.5V10C2.10457 10 3 9.10457 3 8H2.5H2C2 8.55228 1.55228 9 1 9V9.5ZM2.5 8H3C3 6.89543 2.10457 6 1 6V6.5V7C1.55228 7 2 7.44772 2 8H2.5ZM1 6.5H1.5V3H1H0.5V6.5H1ZM1 3V3.5H15V3V2.5H1V3ZM15 3H14.5V6.5H15H15.5V3H15Z" fill="currentColor"/>
<line x1="5.6" y1="6.4" x2="10.4" y2="6.4" stroke="currentColor" stroke-width="1.2" stroke-linecap="round"/>
<line x1="5.6" y1="9.4" x2="10.4" y2="9.4" stroke="currentColor" stroke-width="1.2" stroke-linecap="round"/>
</g>
<defs>
<clipPath id="clip0_139188_11805">
<rect width="16" height="16" fill="white"/>
</clipPath>
</defs>
</svg>
