<svg width="16" height="16" viewBox="0 0 16 16" fill="none" xmlns="http://www.w3.org/2000/svg">
<path fill-rule="evenodd" clip-rule="evenodd" d="M13.9894 5.75297C13.958 5.5995 13.8547 5.46391 13.7004 5.39968L8.09192 3.03779C8.02918 3.01122 7.96404 2.99915 7.90011 3.00005C7.83618 2.99915 7.77105 3.01122 7.7083 3.03779L2.30203 5.31276C2.15849 5.37323 2.05903 5.49507 2.02086 5.63568C1.94922 5.87352 2.06707 6.13234 2.29836 6.23027L7.90808 8.59092C8.03582 8.64501 8.17345 8.639 8.29072 8.58587L13.7016 6.30738C13.92 6.21494 14.0372 5.97915 13.9894 5.75297ZM7.90016 4.01864L3.73343 5.77296L8.09132 7.60819L12.2594 5.85306L7.90016 4.01864Z" fill="#8697FF"/>
<path d="M8.29768 12.9539C8.17892 13.01 8.03836 13.0174 7.90808 12.9622L2.29836 10.6016C2.052 10.4972 1.93434 10.2104 2.0373 9.96079C2.14025 9.71119 2.42337 9.59198 2.66972 9.69629L8.09098 11.9793L13.3303 9.77311C13.5766 9.6688 13.8598 9.78801 13.9627 10.0376C14.0657 10.2872 13.948 10.5741 13.7016 10.6784L8.29768 12.9539Z" fill="#8697FF"/>
<path d="M7.90808 10.851C8.03698 10.9056 8.17594 10.899 8.2939 10.8445L13.7016 8.56733C13.948 8.46302 14.0657 8.17616 13.9627 7.92656C13.8598 7.67696 13.5766 7.55775 13.3303 7.66206L8.09119 9.8682L2.66972 7.58507C2.42337 7.48076 2.14025 7.59997 2.0373 7.84957C1.93434 8.09917 2.052 8.38602 2.29836 8.49034L7.90808 10.851Z" fill="#8697FF"/>
</svg>
