<svg width="16" height="16" viewBox="0 0 16 16" fill="none" xmlns="http://www.w3.org/2000/svg">
<rect width="16" height="16" rx="7.99999" fill="white"/>
<path fill-rule="evenodd" clip-rule="evenodd" d="M12.6728 6.32759L13 4.60753L12.5062 3L9.32657 4.28281L6.67342 4.28298L6.68681 4.32206L6.67342 4.28603L3.49376 3L3 4.60432L3.33313 6.32759L3.11898 6.49799L3.43724 6.75519L3.19929 6.95774L3.50863 7.26639L3.31231 7.42071L3.76443 7.98978L3.08037 10.2821L3.71387 12.6227L5.9356 11.9604L5.93613 11.9615L6.37039 12.3473L7.24785 13L8.74993 13L9.63036 12.3441L10.0587 11.9615L10.0578 11.9575L10.0584 11.9602L10.0587 11.9615L12.2861 12.6227L12.9226 10.2823L12.2356 7.98994L12.6877 7.42071L12.4914 7.26639L12.8037 6.95774L12.5657 6.75841L12.878 6.50121L12.6698 6.32759L12.6728 6.32759Z" fill="#6A7587"/>
<path d="M6.87202 9.16197L5.33447 8.44079L6.42322 7.63949L6.87618 9.16197H6.87202ZM9.12017 9.16197L9.57728 7.63281L10.6702 8.43412L9.12017 9.16865V9.16197Z" fill="white"/>
</svg>
