<?xml version="1.0" encoding="UTF-8"?><svg id="Layer_1" xmlns="http://www.w3.org/2000/svg" width="128" height="128" xmlns:xlink="http://www.w3.org/1999/xlink" viewBox="0 0 128 128"><defs><style>.cls-1{fill:url(#linear-gradient);}.cls-2{mask:url(#mask);}.cls-3,.cls-4{fill:#fff;}.cls-4{opacity:.4;}.cls-4,.cls-5,.cls-6{isolation:isolate;}.cls-5{fill:#ffd523;opacity:.1;}</style><mask id="mask" x="30" y="23" width="67" height="69.3079" maskUnits="userSpaceOnUse"><g id="mask0"><path class="cls-3" d="M37.7885,30h46.7309c5.1923,0,7.7885,2.5962,7.7885,7.7885v46.7309c0,5.1923-2.5962,7.7885-7.7885,7.7885H37.7885c-5.1923,0-7.7885-2.5962-7.7885-7.7885V37.7885c0-5.1923,2.5962-7.7885,7.7885-7.7885Z"/></g></mask><linearGradient id="linear-gradient" x1="45.2754" y1="61.564" x2="76.3078" y2="61.564" gradientTransform="matrix(1, 0, 0, 1, 0, 0)" gradientUnits="userSpaceOnUse"><stop offset="0" stop-color="#ffce46"/><stop offset="1" stop-color="#ffdc81"/></linearGradient></defs><rect class="cls-4" x="37.0771" y="36.1924" width="61.9231" height="62.8077" rx="6" ry="6"/><path class="cls-3" d="M37.7885,30h46.7309c5.1923,0,7.7885,2.5962,7.7885,7.7885v46.7309c0,5.1923-2.5962,7.7885-7.7885,7.7885H37.7885c-5.1923,0-7.7885-2.5962-7.7885-7.7885V37.7885c0-5.1923,2.5962-7.7885,7.7885-7.7885Z"/><g class="cls-2"><g class="cls-6"><circle class="cls-5" cx="77.5" cy="42.5" r="19.5"/></g></g><path class="cls-1" d="M72.9993,78.8598c.9112,0,1.6916-.3224,2.3381-.9689s.9704-1.3583,.9704-2.134c0-.7446-.3427-1.9393-1.0281-3.5827l-8.7386-21.585c-.3274-.8678-.6659-1.7314-1.0157-2.5905-.2616-.6375-.5906-1.2454-.9813-1.8131-.3968-.5716-.9196-1.0443-1.5281-1.3817-.6309-.3583-1.4175-.5358-2.3615-.5358-.9284,0-1.7072,.1791-2.3396,.5358-.6309,.3583-1.1403,.8256-1.5281,1.4035-.4423,.6855-.8094,1.4166-1.0951,2.1808l-.8785,2.2462-8.5565,21.722c-.3504,.8677-.6012,1.5453-.7539,2.0313-.1471,.4572-.2238,.9341-.2274,1.4144,0,.7913,.3271,1.4985,.9813,2.1231,.6543,.6231,1.4066,.9346,2.2587,.9346,1.0032,0,1.7259-.2928,2.1668-.8785,.4423-.5857,.9735-1.7135,1.5982-3.388l1.5966-4.2899h13.5987l1.5982,4.198c.2134,.5172,.4673,1.1153,.7632,1.7913,.2976,.6776,.5764,1.1792,.8334,1.5063,.2583,.3267,.5861,.5917,.9596,.7758,.38,.19,.8364,.285,1.3692,.285Zm-7.3477-13.6454h-9.9957l4.9503-13.8043,5.0439,13.8043h.0015Z"/></svg>