<svg width="16" height="16" viewBox="0 0 16 16" fill="none" xmlns="http://www.w3.org/2000/svg">
<path d="M8 16C12.4183 16 16 12.4183 16 8C16 3.58172 12.4183 0 8 0C3.58172 0 0 3.58172 0 8C0 12.4183 3.58172 16 8 16Z" fill="#B4BDCC"/>
<path d="M3.94737 9C3.42417 9 3 8.55227 3 8C3 7.44773 3.42417 7 3.94737 7C4.47057 7 4.89474 7.44773 4.89474 8C4.89474 8.55227 4.47057 9 3.94737 9ZM8 9C7.4768 9 7.05263 8.55227 7.05263 8C7.05263 7.44773 7.4768 7 8 7C8.5232 7 8.94737 7.44773 8.94737 8C8.94737 8.55227 8.5232 9 8 9ZM12.0526 9C11.5294 9 11.1053 8.55227 11.1053 8C11.1053 7.44773 11.5294 7 12.0526 7C12.5758 7 13 7.44773 13 8C13 8.55227 12.5758 9 12.0526 9Z" fill="white"/>
</svg>
