<svg width="140" height="140" viewBox="0 0 140 140" fill="none" xmlns="http://www.w3.org/2000/svg">
<g opacity="0.6">
<path d="M70 122.5C98.9949 122.5 122.5 98.9949 122.5 70C122.5 41.0051 98.9949 17.5 70 17.5C41.0051 17.5 17.5 41.0051 17.5 70C17.5 98.9949 41.0051 122.5 70 122.5Z" fill="url(#paint0_linear)"/>
<path fill-rule="evenodd" clip-rule="evenodd" d="M70 119.656C91.7462 119.656 109.375 116.037 109.375 113.433C109.375 110.829 91.7462 108.719 70 108.719C48.2538 108.719 30.625 110.829 30.625 113.433C30.625 116.037 48.2538 119.656 70 119.656Z" fill="#F7FAFE"/>
<path d="M100.625 110.25L67.8125 104.925L67.8125 64.9688L100.438 70.8453L100.625 110.25Z" fill="url(#paint1_linear)"/>
<path d="M39.375 111.125L67.8125 104.953L67.8125 64.9688L39.375 71.146L39.375 111.125Z" fill="url(#paint2_linear)"/>
<path d="M71.9687 117.031L39.375 111.141L39.375 71.0938L71.9688 76.9789L71.9687 117.031Z" fill="url(#paint3_linear)"/>
<path d="M44.2889 100.574L66.3986 104.382C66.9628 104.479 67.375 104.968 67.375 105.54C67.375 106.001 67.0013 106.375 66.5403 106.375C66.4928 106.375 66.4454 106.371 66.3986 106.363L44.2889 102.556C43.7247 102.459 43.3125 101.969 43.3125 101.397C43.3125 100.936 43.6862 100.562 44.1472 100.562C44.1947 100.562 44.2421 100.566 44.2889 100.574Z" fill="#C2D9FF"/>
<path fill-rule="evenodd" clip-rule="evenodd" d="M44.3282 87.0092L66.4571 90.614C66.9863 90.7002 67.375 91.1573 67.375 91.6935V100.908C67.375 101.392 66.9832 101.783 66.5 101.783C66.4529 101.783 66.4058 101.78 66.3593 101.772L44.2304 98.1672C43.7012 98.081 43.3125 97.6239 43.3125 97.0877V87.8728C43.3125 87.3896 43.7043 86.9978 44.1875 86.9978C44.2346 86.9978 44.2817 87.0016 44.3282 87.0092Z" fill="#C2D9FF"/>
<path d="M44.2889 105.606L66.3986 109.413C66.9628 109.51 67.375 109.999 67.375 110.572C67.375 111.033 67.0013 111.406 66.5403 111.406C66.4928 111.406 66.4454 111.402 66.3986 111.394L44.2889 107.587C43.7247 107.49 43.3125 107.001 43.3125 106.428C43.3125 105.967 43.6862 105.594 44.1472 105.594C44.1947 105.594 44.2421 105.598 44.2889 105.606Z" fill="#C2D9FF"/>
<path d="M63.3452 86.625L30.625 80.7617L39.4673 71.0938L72.1875 76.9514L63.3452 86.625Z" fill="url(#paint4_linear)"/>
<path fill-rule="evenodd" clip-rule="evenodd" d="M71.9688 77.0973L100.625 70.6562L100.625 110.289L72.0575 117.031L71.9688 77.0973Z" fill="url(#paint5_linear)"/>
<path d="M109.375 80.4165L100.574 70.6562L72.1875 76.8648L80.9883 86.625L109.375 80.4165Z" fill="url(#paint6_linear)"/>
<path d="M53.4687 54.5029C53.0551 54.5758 52.6294 54.6416 52.2033 54.6982C52.1195 54.7093 52.0428 54.6509 52.0316 54.5676C52.0203 54.4843 52.0859 54.4042 52.1631 54.3965C52.5852 54.3403 53.0067 54.2752 53.4158 54.2031L53.6646 54.158C53.6649 54.1579 53.6655 54.1578 53.6658 54.1578C53.7483 54.1432 53.8274 54.1975 53.8425 54.2798C53.8577 54.3624 53.8031 54.4418 53.7198 54.4571L53.4687 54.5029ZM55.2123 54.138C55.1335 54.1519 55.0568 54.1027 55.0374 54.0243C55.0174 53.9426 55.0678 53.8602 55.15 53.8405C55.6449 53.7201 56.1372 53.5846 56.6135 53.4379C56.6952 53.4136 56.7797 53.458 56.8047 53.5382C56.8297 53.6184 56.7842 53.7036 56.7036 53.7287C56.2214 53.8773 55.7229 54.0146 55.222 54.1363C55.2187 54.1369 55.2157 54.1374 55.2123 54.138ZM50.6906 54.8627C50.6861 54.8635 50.6816 54.8643 50.6769 54.8645C50.1748 54.9073 49.6598 54.9401 49.1455 54.9616C49.0611 54.9651 48.99 54.8998 48.9867 54.816C48.9834 54.7323 49.0488 54.6609 49.1332 54.6577C49.6432 54.6364 50.1539 54.604 50.6514 54.5614C50.7355 54.5543 50.8095 54.6163 50.8165 54.7C50.8229 54.7789 50.7676 54.8491 50.6906 54.8627ZM58.1288 53.2355C58.0581 53.248 57.9864 53.2094 57.9599 53.1402C57.9296 53.0619 57.9694 52.9739 58.0482 52.9437C58.5256 52.761 58.9952 52.5621 59.444 52.3523C59.52 52.3169 59.6116 52.349 59.6471 52.4255C59.6829 52.5016 59.6498 52.5921 59.5733 52.6278C59.1179 52.8406 58.6414 53.0426 58.1572 53.2277C58.1479 53.2312 58.1384 53.2338 58.1288 53.2355ZM47.6379 54.9924C47.6291 54.994 47.6203 54.9949 47.6113 54.9949C47.1089 54.9958 46.5931 54.9873 46.0781 54.9691C45.9938 54.9661 45.928 54.8958 45.9312 54.8119C45.9344 54.7279 46.0052 54.6614 46.0894 54.6654C46.601 54.6833 47.1131 54.6918 47.6114 54.6907C47.6958 54.6907 47.7642 54.7586 47.7642 54.8426C47.764 54.9174 47.7098 54.9797 47.6379 54.9924ZM44.5846 54.8865C44.5722 54.8887 44.5599 54.8893 44.5471 54.8885C44.2803 54.8701 44.0109 54.849 43.7388 54.8253C43.6547 54.8179 43.5926 54.7443 43.6 54.6608C43.6075 54.577 43.682 54.5154 43.7655 54.5223C44.0359 54.5456 44.3035 54.5667 44.5687 54.5851C44.6529 54.591 44.7163 54.6635 44.71 54.7474C44.7054 54.8186 44.652 54.8747 44.5846 54.8865ZM60.8919 51.9401C60.8299 51.951 60.7653 51.9232 60.7325 51.8656C60.6908 51.7927 60.7164 51.6999 60.79 51.6582C61.2333 51.4067 61.665 51.137 62.0733 50.8565C62.1424 50.8082 62.2378 50.8263 62.2859 50.8953C62.3338 50.9644 62.3163 51.0589 62.2466 51.107C61.8314 51.3927 61.3918 51.6669 60.9409 51.9225C60.9251 51.9314 60.9084 51.9372 60.8919 51.9401ZM63.4022 50.2096C63.3501 50.2187 63.2949 50.201 63.2587 50.1577C63.2042 50.0934 63.2127 49.9974 63.2774 49.9434C63.6682 49.6163 64.0403 49.2709 64.3832 48.9167C64.4421 48.8563 64.5386 48.8544 64.5994 48.9126C64.6603 48.9707 64.6617 49.0671 64.6032 49.1278C64.2529 49.4894 63.8731 49.8421 63.4739 50.1762C63.4526 50.1942 63.4278 50.205 63.4022 50.2096ZM65.515 48.0179C65.4746 48.025 65.4312 48.016 65.3961 47.9895C65.3606 47.9627 65.34 47.9234 65.3362 47.8827C65.1637 47.8936 64.9943 47.8991 64.8282 47.899C64.7438 47.8991 64.6754 47.8312 64.6758 47.7471C64.6755 47.6631 64.7444 47.5945 64.8287 47.5951C65.0549 47.5947 65.2877 47.5842 65.5258 47.5636C65.774 47.223 65.9994 46.8747 66.1987 46.5249C66.2405 46.452 66.3334 46.4261 66.4071 46.4674C66.4805 46.5088 66.5062 46.6016 66.4644 46.6747C66.3028 46.9584 66.1244 47.2409 65.9312 47.5196C66.0604 47.5027 66.1907 47.4828 66.322 47.4602C66.4052 47.4459 66.4842 47.5014 66.4985 47.5842C66.5127 47.6666 66.457 47.7453 66.3742 47.7599C66.3739 47.7599 66.3739 47.7599 66.3736 47.76C66.1429 47.7997 65.9146 47.8307 65.6908 47.8535C65.6643 47.8894 65.6373 47.9247 65.6103 47.96C65.5858 47.9918 65.5514 48.0115 65.515 48.0179ZM67.8592 47.4032C67.784 47.4165 67.7094 47.3722 67.6867 47.2977C67.6623 47.2174 67.7078 47.1325 67.7888 47.1077C68.2484 46.9683 68.7274 46.7961 69.2124 46.5966C69.2908 46.564 69.3799 46.6011 69.4119 46.6788C69.4439 46.7566 69.4069 46.8456 69.329 46.8775C68.8347 47.0808 68.3467 47.2564 67.8774 47.3988C67.8715 47.4007 67.8653 47.4021 67.8592 47.4032ZM63.3405 47.7315C63.3206 47.735 63.2995 47.7347 63.2787 47.7297C62.7458 47.6044 62.2566 47.409 61.8241 47.1492C61.7518 47.1057 61.7288 47.0122 61.7726 46.9402C61.8161 46.868 61.9104 46.8452 61.9827 46.8887C62.3878 47.1323 62.8478 47.3155 63.3498 47.4336C63.4317 47.4529 63.4825 47.535 63.463 47.6166C63.448 47.6776 63.3986 47.7212 63.3405 47.7315ZM70.6858 46.2513C70.6208 46.2628 70.5534 46.2311 70.5227 46.1695C70.4852 46.0942 70.516 46.003 70.5913 45.9653C71.0516 45.7365 71.5063 45.5078 71.9552 45.2791C72.0303 45.2403 72.1225 45.2703 72.1608 45.3451C72.1991 45.4199 72.1694 45.5116 72.0942 45.5499C71.6445 45.779 71.1886 46.0085 70.7277 46.2374C70.7141 46.2445 70.6999 46.2488 70.6858 46.2513ZM73.4094 44.864C73.3455 44.8752 73.2791 44.8449 73.2473 44.7848C73.2085 44.7104 73.2373 44.6185 73.312 44.5794C73.7705 44.3401 74.2208 44.1026 74.6626 43.8669C74.7375 43.8274 74.8293 43.8548 74.8693 43.9289C74.9091 44.0028 74.881 44.0952 74.8066 44.1349C74.3641 44.371 73.9129 44.609 73.4535 44.8488C73.4394 44.8565 73.4244 44.8613 73.4094 44.864ZM67.0065 45.3731C66.9806 45.3777 66.9533 45.3757 66.927 45.3658C66.848 45.3365 66.8077 45.2491 66.8373 45.1704C67.0196 44.683 67.1493 44.199 67.2222 43.7325C67.2352 43.6496 67.3135 43.5919 67.3966 43.6054C67.4802 43.6181 67.537 43.6958 67.524 43.7787C67.4478 44.2656 67.3129 44.7694 67.1235 45.2762C67.1039 45.3288 67.058 45.364 67.0065 45.3731ZM60.7955 46.1656C60.741 46.1752 60.6838 46.1551 60.6476 46.1086C60.3235 45.6889 60.0883 45.2159 59.9476 44.703C59.9255 44.6219 59.9735 44.5384 60.0549 44.516C60.1373 44.4938 60.2202 44.5416 60.2425 44.6225C60.3724 45.0969 60.5905 45.5347 60.8903 45.9231C60.9414 45.9898 60.9291 46.0852 60.862 46.1363C60.8415 46.1519 60.8187 46.1615 60.7955 46.1656ZM76.1065 43.4251C76.0439 43.4362 75.9782 43.4073 75.9458 43.3484C75.9055 43.2746 75.9327 43.1824 76.0066 43.1419C76.4645 42.8925 76.9109 42.6464 77.3442 42.4054C77.4174 42.3644 77.511 42.3905 77.5519 42.4639C77.5931 42.5373 77.5665 42.6297 77.4928 42.6708C77.0589 42.9122 76.6117 43.1588 76.1529 43.4086C76.1383 43.417 76.1224 43.4223 76.1065 43.4251ZM78.7777 41.9396C78.7156 41.9505 78.6511 41.9226 78.6183 41.8651C78.5766 41.7922 78.6021 41.6993 78.6758 41.6576C79.1369 41.3963 79.5791 41.1426 80.0007 40.8984C80.0742 40.8557 80.1671 40.8808 80.2097 40.9532C80.2519 41.0258 80.2271 41.1191 80.1542 41.1613C79.7317 41.4057 79.2886 41.6598 78.827 41.9219C78.8112 41.9309 78.7945 41.9366 78.7777 41.9396ZM81.4232 40.4088C81.3624 40.4195 81.2983 40.3925 81.2652 40.3366C81.2221 40.2645 81.2462 40.171 81.3191 40.1282C81.7939 39.8477 82.2325 39.586 82.6307 39.3463C82.7031 39.3026 82.7968 39.3256 82.8405 39.3976C82.8843 39.4695 82.861 39.5629 82.7886 39.6066C82.3896 39.8468 81.9501 40.109 81.4745 40.3899C81.4582 40.3995 81.4409 40.4057 81.4232 40.4088ZM67.4341 42.3906C67.4317 42.391 67.4296 42.3914 67.4272 42.3918C67.3434 42.4025 67.267 42.3441 67.256 42.2607C67.2477 42.1977 67.2383 42.1357 67.2275 42.0743C67.1488 41.6277 67.0007 41.2316 66.7871 40.8968C66.742 40.826 66.763 40.7318 66.8342 40.6868C66.9052 40.6422 67 40.6625 67.0451 40.7333C67.2805 41.102 67.4432 41.5353 67.5288 42.0212C67.5404 42.0868 67.5506 42.1535 67.5594 42.2211C67.5696 42.3018 67.5139 42.3765 67.4341 42.3906ZM60.0084 43.3052C59.9942 43.3077 59.9791 43.3082 59.9639 43.3066C59.8803 43.2969 59.8201 43.2214 59.8302 43.1377C59.8929 42.606 60.0562 42.1031 60.3149 41.6427C60.356 41.5694 60.4491 41.5428 60.5231 41.5841C60.5967 41.6248 60.623 41.7175 60.5819 41.7908C60.3428 42.2163 60.192 42.6811 60.1337 43.1729C60.1256 43.2413 60.0734 43.2938 60.0084 43.3052ZM84.0421 38.8309C83.9825 38.8414 83.9196 38.8157 83.8857 38.7611C83.8412 38.6899 83.8635 38.5961 83.9355 38.5519C84.7675 38.0389 85.229 37.7417 85.2299 37.7412C85.3006 37.6954 85.3951 37.7155 85.4411 37.7861C85.4867 37.8565 85.4664 37.9509 85.3956 37.9964C85.3956 37.9964 84.9318 38.295 84.0959 38.8106C84.0788 38.821 84.0607 38.8276 84.0421 38.8309ZM65.8064 39.9838C65.7775 39.9889 65.7468 39.9857 65.7179 39.9732C65.3055 39.7908 64.8269 39.7115 64.2954 39.7373C64.2111 39.7413 64.1397 39.6764 64.1355 39.5925C64.1316 39.5089 64.1983 39.44 64.2812 39.4331C64.861 39.405 65.3862 39.4934 65.8424 39.6949C65.9194 39.7289 65.9539 39.8188 65.9196 39.8956C65.8984 39.9438 65.8549 39.9753 65.8064 39.9838ZM61.4671 40.7224C61.4129 40.732 61.3554 40.7121 61.3196 40.6657C61.2681 40.5991 61.2805 40.5036 61.3472 40.4523C61.6691 40.2047 62.0336 40.0027 62.4306 39.8514C62.5374 39.811 62.6428 39.7733 62.7463 39.739C62.8258 39.7129 62.9127 39.7553 62.9395 39.8349C62.9663 39.9145 62.9228 40.0006 62.8428 40.0274C62.7431 40.0604 62.642 40.0964 62.5394 40.1356C62.1702 40.276 61.8321 40.4635 61.5339 40.6927C61.5137 40.7086 61.4906 40.7183 61.4671 40.7224Z" fill="#D1DDF3"/>
<path d="M79.3703 32.7289L84.2058 34.2104L96.4503 25.8271L79.3703 32.7289Z" fill="url(#paint7_linear)"/>
<path fill-rule="evenodd" clip-rule="evenodd" d="M85.6105 37.8526L84.206 34.2104L96.4505 25.8271L85.6105 37.8526Z" fill="url(#paint8_linear)"/>
<path d="M85.6105 37.8527L86.5572 34.5738L90.1212 33.1674L85.6105 37.8527Z" fill="url(#paint9_linear)"/>
<path d="M86.5568 34.5737L90.5199 35.4307L96.4501 25.8271L86.5568 34.5737Z" fill="url(#paint10_linear)"/>
</g>
<defs>
<linearGradient id="paint0_linear" x1="70" y1="17.5" x2="70" y2="86.5744" gradientUnits="userSpaceOnUse">
<stop stop-color="#FCFDFE"/>
<stop offset="1" stop-color="#E6F1FD" stop-opacity="0"/>
</linearGradient>
<linearGradient id="paint1_linear" x1="75.6038" y1="87.6121" x2="92.8337" y2="87.6107" gradientUnits="userSpaceOnUse">
<stop stop-color="#E0EDFF"/>
<stop offset="1" stop-color="#E1EBFB"/>
</linearGradient>
<linearGradient id="paint2_linear" x1="39.375" y1="88.0497" x2="86.634" y2="88.0497" gradientUnits="userSpaceOnUse">
<stop stop-color="#DFEDF8"/>
<stop offset="1" stop-color="#D1E1FC"/>
</linearGradient>
<linearGradient id="paint3_linear" x1="56.8776" y1="107.834" x2="61.6451" y2="75.8661" gradientUnits="userSpaceOnUse">
<stop stop-color="#D4E4FF"/>
<stop offset="1" stop-color="#D0E2FF"/>
</linearGradient>
<linearGradient id="paint4_linear" x1="81.2843" y1="78.8594" x2="42.7395" y2="78.8594" gradientUnits="userSpaceOnUse">
<stop stop-color="white"/>
<stop offset="1" stop-color="#E0ECFB"/>
</linearGradient>
<linearGradient id="paint5_linear" x1="86.2969" y1="77.4769" x2="86.2969" y2="116.69" gradientUnits="userSpaceOnUse">
<stop stop-color="#CCDCFA"/>
<stop offset="1" stop-color="#C0DBFF"/>
</linearGradient>
<linearGradient id="paint6_linear" x1="77.8585" y1="78.8619" x2="106.837" y2="77.6636" gradientUnits="userSpaceOnUse">
<stop stop-color="#DBE8FE"/>
<stop offset="1" stop-color="#F6FAFF"/>
</linearGradient>
<linearGradient id="paint7_linear" x1="81.9526" y1="31.5497" x2="95.7069" y2="28.6572" gradientUnits="userSpaceOnUse">
<stop stop-color="#D5E5FF"/>
<stop offset="1" stop-color="#F6FAFF"/>
</linearGradient>
<linearGradient id="paint8_linear" x1="90.0504" y1="28.4432" x2="91.5257" y2="36.8096" gradientUnits="userSpaceOnUse">
<stop stop-color="#CCDDFC"/>
<stop offset="1" stop-color="#BDD8FB"/>
</linearGradient>
<linearGradient id="paint9_linear" x1="86.0938" y1="35.9778" x2="92.1019" y2="30.2248" gradientUnits="userSpaceOnUse">
<stop stop-color="#A7C5F6"/>
<stop offset="1" stop-color="#E9F1FB"/>
</linearGradient>
<linearGradient id="paint10_linear" x1="87.844" y1="31.9837" x2="96.3692" y2="29.8389" gradientUnits="userSpaceOnUse">
<stop stop-color="#D4E4FD"/>
<stop offset="1" stop-color="#F6FAFF"/>
</linearGradient>
</defs>
</svg>
