<svg width="16" height="16" viewBox="0 0 16 16" fill="none" xmlns="http://www.w3.org/2000/svg">
<path d="M4.88571 15.3714C5.87321 15.7893 6.91964 16 8 16C9.08036 16 10.1268 15.7893 11.1143 15.3714C12.0679 14.9679 12.9232 14.3911 13.6571 13.6571C14.3911 12.9232 14.9679 12.0679 15.3714 11.1143C15.7893 10.1268 16 9.08036 16 8C16 6.91964 15.7893 5.87321 15.3714 4.88571C14.9679 3.93214 14.3911 3.07679 13.6571 2.34286C12.9232 1.60893 12.0679 1.03214 11.1143 0.628571C10.1268 0.210714 9.08036 0 8 0C6.91964 0 5.87321 0.210714 4.88571 0.628571C3.93214 1.03214 3.07679 1.60893 2.34286 2.34286C1.60893 3.07679 1.03214 3.93214 0.628571 4.88571C0.210714 5.87321 0 6.91964 0 8C0 9.08036 0.210714 10.1268 0.628571 11.1143C1.03214 12.0679 1.60893 12.9232 2.34286 13.6571C3.07679 14.3911 3.93214 14.9679 4.88571 15.3714Z" fill="#B4BDCC"/>
<path d="M7.36783 11H7.36449C7.21781 10.9984 7.07779 10.9422 6.97778 10.8422L4.14407 8.0015C3.94238 7.79994 3.95405 7.48275 4.16907 7.29524C4.3841 7.10618 4.72248 7.11711 4.92251 7.31868L7.37283 9.77341L11.0833 6.15303C11.2867 5.95459 11.6251 5.94834 11.8367 6.13897C12.0484 6.3296 12.0551 6.64679 11.8517 6.84523L7.75121 10.8453C7.65286 10.9453 7.51285 11 7.36783 11Z" fill="white"/>
</svg>
