<svg width="16" height="16" viewBox="0 0 16 16" fill="none" xmlns="http://www.w3.org/2000/svg">
<path d="M13.1839 2.18086C10.9437 2.18086 9.0934 1.35498 7.55039 0H7.48596C5.94294 1.35659 4.09099 2.18086 1.85246 2.18086C1.565 2.18086 1.28085 2.16635 1 2.14054V9.21061C1 13.1723 6.40386 16 7.51735 16C8.57136 16 14 13.19 14 9.72356V2.14376C13.7307 2.16796 13.4598 2.18086 13.1839 2.18086ZM11.1453 6.62163L7.25963 10.4156C7.25467 10.4204 7.25137 10.4252 7.24641 10.4301L7.19024 10.4849C7.15059 10.5236 7.10598 10.5559 7.05808 10.5801C6.85487 10.6849 6.5955 10.6527 6.42534 10.4865L6.36917 10.4317C6.35595 10.4188 6.34439 10.4059 6.33282 10.393L4.11742 8.22986C3.90761 8.025 3.90761 7.68948 4.11742 7.48463L4.17359 7.42978C4.3834 7.22492 4.72703 7.22492 4.93684 7.42978L6.80696 9.25577L10.3242 5.82155C10.534 5.6167 10.8776 5.6167 11.0874 5.82155L11.1436 5.8764C11.3551 6.08126 11.3551 6.41678 11.1453 6.62163Z" fill="#B4BDCC"/>
</svg>
