<svg width="14" height="11" viewBox="0 0 14 11" fill="none" xmlns="http://www.w3.org/2000/svg">
<path d="M7.01031 6.8751C6.2743 6.8751 5.60487 7.1502 5.1029 7.59664C5.01085 7.67956 4.89178 7.72539 4.76839 7.72539C4.645 7.72539 4.52593 7.67956 4.43387 7.59664C4.19944 7.39071 4.23293 7.01225 4.46736 6.80632C4.93584 6.39368 5.5044 6.11858 6.14033 5.94684L7.01031 6.8751ZM4.03237 3.81561C3.43187 4.12187 2.87932 4.51568 2.3925 4.98439C2.29587 5.08609 2.24192 5.22155 2.24192 5.36245C2.24192 5.50335 2.29587 5.63881 2.3925 5.74051C2.59345 5.91225 2.89447 5.91225 3.06193 5.74051C3.55901 5.26257 4.13697 4.87843 4.76839 4.60632L4.03237 3.81561ZM1.82355 1.54684C1.22111 1.9249 0.652551 2.40632 0.150582 2.92194C0.053951 3.02364 0 3.1591 0 3.3C0 3.4409 0.053951 3.57636 0.150582 3.67806C0.351136 3.8498 0.652551 3.8498 0.819615 3.67806C1.32197 3.16245 1.89053 2.68142 2.52647 2.30297L1.82355 1.54684ZM13.8373 2.92194C12.0962 1.1 9.68722 0 7.01031 0C6.00598 0 5.00243 0.17174 4.09858 0.446838L4.90196 1.27213C5.57099 1.1 6.27391 0.997034 7.00992 0.997034C9.41929 0.997034 11.5946 1.99368 13.1671 3.60929C13.3681 3.81561 13.6695 3.81561 13.8369 3.60929C14.0375 3.47174 14.0706 3.12826 13.8369 2.92154L13.8373 2.92194ZM7.0107 3.09368H6.67579L7.71322 4.15949C8.91783 4.32421 10.0412 4.86508 10.926 5.70632C11.018 5.78924 11.1371 5.83507 11.2605 5.83507C11.3839 5.83507 11.503 5.78924 11.595 5.70632C11.8291 5.5 11.8291 5.15613 11.595 4.9498C10.3901 3.81561 8.78414 3.09368 7.01031 3.09368H7.0107ZM7.0107 8.93755C6.44175 8.93755 6.00637 9.38439 6.00637 9.96877C6.00637 10.5532 6.44175 11 7.01031 11C7.57926 11 8.01425 10.5532 8.01425 9.96877C8.01425 9.38439 7.54577 8.93755 7.01031 8.93755H7.0107ZM9.75459 7.25316L8.81763 6.29032L6.70928 4.1249L5.80582 3.19703L4.16634 1.51265L3.39644 0.721936L2.82788 0.137549C2.72938 0.0542327 2.60495 0.00857106 2.47642 0.00857106C2.3479 0.00857106 2.22347 0.0542327 2.12497 0.137549C2.02834 0.239255 1.97439 0.374709 1.97439 0.515613C1.97439 0.656516 2.02834 0.79197 2.12497 0.893676L2.42599 1.20297L3.16201 1.95949L5.16989 4.02194L5.50479 4.36542L9.48666 8.45652C9.68761 8.66245 9.98902 8.66245 10.1896 8.45652C10.2373 8.40951 10.2753 8.35334 10.3012 8.29132C10.3271 8.22929 10.3404 8.16266 10.3404 8.09536C10.3404 8.02805 10.3271 7.96142 10.3012 7.89939C10.2753 7.83737 10.2373 7.7812 10.1896 7.73419L9.75459 7.25316Z" fill="white"/>
</svg>
