<svg xmlns="http://www.w3.org/2000/svg" width="40" height="40" viewBox="0 0 40 40" fill="none">
  <rect x="9.00415" y="2.26715" width="23.4959" height="34.7178" rx="2.10411" fill="#2E2E30"/>
  <mask id="mask0_152724_166372" style="mask-type:alpha" maskUnits="userSpaceOnUse" x="9" y="2" width="24" height="35">
    <rect x="9.00391" y="2.2699" width="23.4959" height="34.7178" rx="2.10411" fill="#2E2E30"/>
  </mask>
  <g mask="url(#mask0_152724_166372)">
    <path opacity="0.3" d="M37.0296 26.5118C36.5314 29.8455 37.0211 34.4257 35.4269 35.593C34.7504 36.0884 32.0174 34.7943 31.4485 34.5331C25.4208 31.7653 29.8336 30.2908 30.5433 25.5424C31.2529 20.794 29.1374 16.1203 30.9286 16.388C32.7198 16.6557 37.7393 21.7634 37.0296 26.5118Z" fill="url(#paint0_linear_152724_166372)"/>
    <path opacity="0.1" d="M12.6242 25.3202C12.5403 28.7567 11.8486 33.0454 10.4103 34.4284C9.79997 35.0153 8.49518 33.9063 7.95576 33.8931C6.14524 33.8489 5.9483 30.0551 6.06771 25.1603C6.18713 20.2655 7.75165 16.3333 9.56216 16.3775C11.3727 16.4216 12.7436 20.4255 12.6242 25.3202Z" fill="url(#paint1_linear_152724_166372)"/>
    <path opacity="0.3" d="M19.5243 4.31638C15.3345 4.62358 10.6133 4.65891 7.77623 4.02354C7.01616 3.71197 8.7633 2.69006 8.73904 2.35923C8.65762 1.24884 13.2616 0.732863 19.2294 0.29529C25.1972 -0.142284 30.1012 0.403142 30.1826 1.51354C30.264 2.62393 25.4921 3.87881 19.5243 4.31638Z" fill="url(#paint2_linear_152724_166372)"/>
    <path opacity="0.3" d="M7.56847 15.0844C7.69196 10.8852 6.16089 5.72843 7.07463 4.02198C7.07471 4.02315 10.5816 4.37383 11.1076 4.54917C12.2205 4.5819 11.7745 9.22161 11.5986 15.2029C11.4227 21.1842 10.3779 26.0064 9.26504 25.9737C8.15215 25.941 7.39257 21.0657 7.56847 15.0844Z" fill="url(#paint3_linear_152724_166372)"/>
  </g>
  <rect x="10.408" y="3.66852" width="20.6904" height="30.8603" rx="0.70137" fill="#101010"/>
  <rect x="10.4255" y="3.68605" width="20.6554" height="30.8252" rx="0.683836" stroke="white" stroke-opacity="0.5" stroke-width="0.0350685"/>
  <rect x="12.5957" y="5.60242" width="16.4058" height="23.3327" fill="#D2DFFE"/>
  <path d="M20.6589 21.2155C22.6819 21.2155 24.0763 20.474 24.0763 17.6447C24.0763 14.8139 22.6819 14.0738 20.6589 14.0738C18.6359 14.0738 17.241 14.8139 17.241 17.6447C17.241 20.474 18.6359 21.2155 20.6589 21.2155Z" fill="#3B7EFF"/>
  <path d="M22.1885 16.4432L20.398 14.6406V17.0327L19.4136 16.0257L19.0557 16.3866L20.2914 17.6349L19.0557 18.8835L19.4134 19.2444L20.398 18.252V20.6292L22.1881 18.8263L21.0062 17.6347L22.1885 16.4432ZM20.9205 15.808L21.4731 16.3819L20.9205 16.9597V15.808ZM21.4731 18.8206L20.9205 19.3984V18.2466L21.4731 18.8206Z" fill="white"/>
  <path d="M24.6348 33.2412C24.6132 33.2412 24.5907 33.2408 24.5673 33.2399C24.5439 33.239 24.5209 33.2382 24.4984 33.2373V32.9514C24.5114 32.9532 24.5266 32.954 24.5439 32.954C24.5621 32.9549 24.5798 32.9553 24.5972 32.9553C24.6647 32.9553 24.7184 32.9419 24.7583 32.915C24.7981 32.8882 24.8246 32.847 24.8376 32.7916L24.8506 32.737L24.3477 31.3063H24.7648L25.1066 32.5408L25.0195 32.39H25.1325L25.0494 32.5408L25.3911 31.3063H25.7914L25.3041 32.7357C25.2625 32.8613 25.2118 32.9609 25.152 33.0346C25.0931 33.1091 25.0217 33.1619 24.9376 33.1931C24.8536 33.2252 24.7527 33.2412 24.6348 33.2412Z" fill="white"/>
  <path d="M23.5314 32.7646C23.3867 32.7646 23.262 32.7347 23.1571 32.6749C23.0532 32.6143 22.9731 32.5285 22.9167 32.4176C22.8604 32.3067 22.8323 32.1746 22.8323 32.0213V32.02C22.8323 31.8684 22.86 31.7367 22.9154 31.6249C22.9718 31.5132 23.051 31.4265 23.1532 31.365C23.2563 31.3035 23.3772 31.2728 23.5158 31.2728C23.6553 31.2728 23.7757 31.3027 23.8771 31.3624C23.9784 31.4222 24.0564 31.5058 24.111 31.6132C24.1655 31.7207 24.1928 31.8467 24.1928 31.9914V32.1096H23.022V31.8718H24.0109L23.8329 32.0966V31.9446C23.8329 31.8588 23.8194 31.7874 23.7926 31.7302C23.7666 31.673 23.7302 31.6301 23.6834 31.6015C23.6375 31.5721 23.5838 31.5574 23.5223 31.5574C23.4617 31.5574 23.4075 31.5725 23.3599 31.6028C23.3131 31.6323 23.2758 31.676 23.2481 31.7341C23.2213 31.7913 23.2078 31.8614 23.2078 31.9446V32.0979C23.2078 32.1785 23.2213 32.2474 23.2481 32.3046C23.275 32.3617 23.3131 32.4055 23.3625 32.4358C23.4118 32.4661 23.4708 32.4813 23.5392 32.4813C23.5946 32.4813 23.6419 32.4731 23.6808 32.4566C23.7198 32.4401 23.751 32.4211 23.7744 32.3994C23.7987 32.3769 23.8151 32.3565 23.8238 32.3383L23.8277 32.3305H24.1811L24.1785 32.3435C24.1673 32.3886 24.1469 32.4358 24.1175 32.4852C24.088 32.5337 24.0473 32.5792 23.9953 32.6216C23.9442 32.6641 23.8801 32.6987 23.803 32.7256C23.7268 32.7516 23.6362 32.7646 23.5314 32.7646Z" fill="white"/>
  <path d="M21.3994 32.7357V30.7579H21.7789V32.7357H21.3994ZM22.3 32.7357L21.8607 32.1146L22.144 31.8872L22.7483 32.7357H22.3ZM21.7529 32.2835L21.7399 31.8703H21.8023L22.2805 31.305H22.7106L22.1219 31.9548L21.9192 32.1068L21.7529 32.2835Z" fill="white"/>
  <path d="M20.4154 32.7646C20.2708 32.7646 20.146 32.7347 20.0412 32.6749C19.9372 32.6143 19.8571 32.5285 19.8008 32.4176C19.7445 32.3067 19.7163 32.1746 19.7163 32.0213V32.02C19.7163 31.8684 19.744 31.7367 19.7995 31.6249C19.8558 31.5132 19.9351 31.4265 20.0373 31.365C20.1404 31.3035 20.2612 31.2728 20.3998 31.2728C20.5393 31.2728 20.6597 31.3027 20.7611 31.3624C20.8625 31.4222 20.9404 31.5058 20.995 31.6132C21.0496 31.7207 21.0769 31.8467 21.0769 31.9914V32.1096H19.906V31.8718H20.8949L20.7169 32.0966V31.9446C20.7169 31.8588 20.7035 31.7874 20.6766 31.7302C20.6506 31.673 20.6143 31.6301 20.5675 31.6015C20.5216 31.5721 20.4678 31.5574 20.4063 31.5574C20.3457 31.5574 20.2915 31.5725 20.2439 31.6028C20.1971 31.6323 20.1599 31.676 20.1321 31.7341C20.1053 31.7913 20.0919 31.8614 20.0919 31.9446V32.0979C20.0919 32.1785 20.1053 32.2474 20.1321 32.3046C20.159 32.3617 20.1971 32.4055 20.2465 32.4358C20.2959 32.4661 20.3548 32.4813 20.4232 32.4813C20.4787 32.4813 20.5259 32.4731 20.5649 32.4566C20.6039 32.4401 20.635 32.4211 20.6584 32.3994C20.6827 32.3769 20.6992 32.3565 20.7078 32.3383L20.7117 32.3305H21.0652L21.0626 32.3435C21.0513 32.3886 21.031 32.4358 21.0015 32.4852C20.972 32.5337 20.9313 32.5792 20.8793 32.6216C20.8282 32.6641 20.7641 32.6987 20.687 32.7256C20.6108 32.7516 20.5203 32.7646 20.4154 32.7646Z" fill="white"/>
  <path d="M18.1155 32.7347V31.304H18.4949V31.5249H18.5183C18.5512 31.4469 18.6024 31.3854 18.6717 31.3403C18.741 31.2953 18.8267 31.2728 18.929 31.2728C19.0884 31.2728 19.2096 31.3195 19.2928 31.4131C19.3768 31.5058 19.4189 31.6379 19.4189 31.8095V32.7347H19.0394V31.8952C19.0394 31.7939 19.0182 31.7172 18.9757 31.6652C18.9333 31.6132 18.867 31.5872 18.7769 31.5872C18.7189 31.5872 18.6686 31.6007 18.6262 31.6275C18.5846 31.6535 18.5521 31.6903 18.5287 31.738C18.5062 31.7856 18.4949 31.8419 18.4949 31.9069V32.7347H18.1155Z" fill="white"/>
  <path d="M16.877 32.7841C16.6916 32.7841 16.5314 32.7442 16.3962 32.6645C16.2611 32.5839 16.1567 32.47 16.083 32.3227C16.0103 32.1755 15.9739 32.0009 15.9739 31.7991V31.7965C15.9739 31.5937 16.0107 31.4192 16.0843 31.2728C16.1588 31.1255 16.2637 31.012 16.3988 30.9323C16.534 30.8526 16.6934 30.8127 16.877 30.8127C17.0615 30.8127 17.2209 30.8526 17.3552 30.9323C17.4904 31.012 17.5948 31.1255 17.6684 31.2728C17.742 31.42 17.7789 31.5946 17.7789 31.7965V31.7991C17.7789 32.0009 17.742 32.1755 17.6684 32.3227C17.5956 32.47 17.4917 32.5839 17.3565 32.6645C17.2214 32.7442 17.0615 32.7841 16.877 32.7841ZM16.877 32.4514C16.9784 32.4514 17.0667 32.4245 17.1421 32.3708C17.2175 32.3171 17.2755 32.2413 17.3162 32.1434C17.3578 32.0455 17.3786 31.9307 17.3786 31.7991V31.7965C17.3786 31.6639 17.3578 31.5491 17.3162 31.4521C17.2755 31.3542 17.2175 31.2788 17.1421 31.226C17.0667 31.1723 16.9784 31.1454 16.877 31.1454C16.7757 31.1454 16.6873 31.1723 16.6119 31.226C16.5366 31.2788 16.4781 31.3542 16.4365 31.4521C16.3949 31.5491 16.3741 31.6639 16.3741 31.7965V31.7991C16.3741 31.9307 16.3945 32.0455 16.4352 32.1434C16.4768 32.2413 16.5348 32.3171 16.6093 32.3708C16.6847 32.4245 16.7739 32.4514 16.877 32.4514Z" fill="white"/>
  <defs>
    <linearGradient id="paint0_linear_152724_166372" x1="34.8559" y1="17.5535" x2="33.0901" y2="36.5636" gradientUnits="userSpaceOnUse">
      <stop stop-color="white" stop-opacity="0"/>
      <stop offset="1" stop-color="white"/>
    </linearGradient>
    <linearGradient id="paint1_linear_152724_166372" x1="9.36332" y1="16.5307" x2="9.99476" y2="35.9894" gradientUnits="userSpaceOnUse">
      <stop stop-color="white" stop-opacity="0"/>
      <stop offset="1" stop-color="white"/>
    </linearGradient>
    <linearGradient id="paint2_linear_152724_166372" x1="30.0901" y1="1.39985" x2="6.81653" y2="5.77483" gradientUnits="userSpaceOnUse">
      <stop stop-color="white" stop-opacity="0"/>
      <stop offset="1" stop-color="white"/>
    </linearGradient>
    <linearGradient id="paint3_linear_152724_166372" x1="9.39066" y1="25.7853" x2="7.42216" y2="2.18609" gradientUnits="userSpaceOnUse">
      <stop stop-color="white" stop-opacity="0"/>
      <stop offset="1" stop-color="white"/>
    </linearGradient>
  </defs>
</svg>