<svg width="128" height="128" viewBox="0 0 128 128" fill="none" xmlns="http://www.w3.org/2000/svg">
<rect width="128" height="128" rx="64"/>
<path d="M52.2647 28L49.1765 37H59.0588V56.2H70.1765V28H52.2647Z" fill="#525966"/>
<path fill-rule="evenodd" clip-rule="evenodd" d="M85 79.6C85 90.8666 75.598 100 64 100C52.402 100 43 90.8666 43 79.6C43 68.3334 52.402 59.2 64 59.2C75.598 59.2 85 68.3334 85 79.6ZM75.1176 79.6C75.1176 85.5647 70.1401 90.4 64 90.4C57.8599 90.4 52.8824 85.5647 52.8824 79.6C52.8824 73.6353 57.8599 68.8 64 68.8C70.1401 68.8 75.1176 73.6353 75.1176 79.6Z" fill="#525966"/>
</svg>
