<svg width="10" height="10" viewBox="0 0 10 10" fill="none" xmlns="http://www.w3.org/2000/svg">
<g opacity="0.6">
<path d="M4.6875 0.625C4.77038 0.625 4.84987 0.657924 4.90847 0.716529C4.96708 0.775134 5 0.85462 5 0.9375C5 1.02038 4.96708 1.09987 4.90847 1.15847C4.84987 1.21708 4.77038 1.25 4.6875 1.25H1.875C1.70924 1.25 1.55027 1.31585 1.43306 1.43306C1.31585 1.55027 1.25 1.70924 1.25 1.875V8.125C1.25 8.29076 1.31585 8.44973 1.43306 8.56694C1.55027 8.68415 1.70924 8.75 1.875 8.75H8.125C8.29076 8.75 8.44973 8.68415 8.56694 8.56694C8.68415 8.44973 8.75 8.29076 8.75 8.125V5.3125C8.75 5.22962 8.78292 5.15013 8.84153 5.09153C8.90013 5.03292 8.97962 5 9.0625 5C9.14538 5 9.22487 5.03292 9.28347 5.09153C9.34208 5.15013 9.375 5.22962 9.375 5.3125V8.125C9.375 8.45652 9.2433 8.77446 9.00888 9.00888C8.77446 9.2433 8.45652 9.375 8.125 9.375H1.875C1.54348 9.375 1.22554 9.2433 0.991117 9.00888C0.756696 8.77446 0.625 8.45652 0.625 8.125V1.875C0.625 1.54348 0.756696 1.22554 0.991117 0.991117C1.22554 0.756696 1.54348 0.625 1.875 0.625H4.6875ZM8.125 0.625C8.45652 0.625 8.77446 0.756696 9.00888 0.991117C9.2433 1.22554 9.375 1.54348 9.375 1.875V3.4375C9.375 3.52038 9.34208 3.59987 9.28347 3.65847C9.22487 3.71708 9.14538 3.75 9.0625 3.75C8.97962 3.75 8.90013 3.71708 8.84153 3.65847C8.78292 3.59987 8.75 3.52038 8.75 3.4375V1.875C8.75 1.82375 8.74375 1.77375 8.73187 1.72625L4.60063 5.85312C4.5718 5.88297 4.53732 5.90678 4.49919 5.92316C4.46106 5.93953 4.42006 5.94815 4.37856 5.94852C4.33707 5.94888 4.29592 5.94097 4.25751 5.92526C4.21911 5.90954 4.18422 5.88634 4.15488 5.857C4.12554 5.82766 4.10233 5.79277 4.08662 5.75436C4.07091 5.71596 4.063 5.67481 4.06336 5.63331C4.06372 5.59182 4.07234 5.55081 4.08872 5.51269C4.1051 5.47456 4.1289 5.44008 4.15875 5.41125L8.29875 1.27438C8.24227 1.25812 8.18377 1.24991 8.125 1.25H6.5625C6.47962 1.25 6.40013 1.21708 6.34153 1.15847C6.28292 1.09987 6.25 1.02038 6.25 0.9375C6.25 0.85462 6.28292 0.775134 6.34153 0.716529C6.40013 0.657924 6.47962 0.625 6.5625 0.625H8.125Z" fill="white"/>
</g>
</svg>
