<svg width="26" height="26" viewBox="0 0 26 26" fill="none" xmlns="http://www.w3.org/2000/svg">
<path d="M0.999999 12.9997C1 6.38282 6.38282 0.999999 12.9997 0.999999C19.6166 1 25 6.38282 25 12.9997C25 13.476 24.6136 13.8625 24.1372 13.8625C23.6609 13.8625 23.2744 13.476 23.2744 12.9997C23.2744 7.33436 18.6651 2.72555 12.9997 2.72555C7.33438 2.72555 2.72558 7.33436 2.72558 12.9997C2.72558 18.6651 7.33438 23.2744 12.9997 23.2744C15.8476 23.2744 18.496 22.1358 20.4558 20.0688C20.7838 19.7233 21.3298 19.7087 21.6758 20.0362C22.0224 20.3637 22.0359 20.9102 21.7084 21.2562C19.4189 23.6704 16.3261 25 12.9997 25C6.38282 25 0.999999 19.6166 0.999999 12.9997Z" fill="url(#paint0_linear)" stroke="#9399FF" stroke-width="0.5"/>
<defs>
<linearGradient id="paint0_linear" x1="21" y1="7" x2="11.5" y2="35" gradientUnits="userSpaceOnUse">
<stop stop-color="white"/>
<stop offset="1" stop-color="white" stop-opacity="0"/>
</linearGradient>
</defs>
</svg>
