<svg width="165" height="125" viewBox="0 0 165 125" fill="none" xmlns="http://www.w3.org/2000/svg">
<g opacity="0.5" clip-path="url(#clip0)">
<path d="M126 50.2346H125.019V23.4831C125.019 21.4498 124.617 19.4365 123.836 17.558C123.054 15.6795 121.909 13.9726 120.465 12.5349C119.021 11.0972 117.307 9.95668 115.42 9.17858C113.534 8.40049 111.512 8 109.47 8H52.5496C48.4256 7.99999 44.4705 9.63123 41.5544 12.5349C38.6383 15.4385 37 19.3767 37 23.483V170.244C37 172.277 37.4022 174.291 38.1836 176.169C38.9651 178.048 40.1104 179.755 41.5543 181.192C42.9983 182.63 44.7124 183.771 46.599 184.549C48.4855 185.327 50.5075 185.727 52.5495 185.727H109.47C113.594 185.727 117.549 184.096 120.465 181.192C123.381 178.289 125.019 174.351 125.019 170.244V69.2768H126V50.2346Z" fill="#3F3D56"/>
<path d="M110.043 11.2578H102.613C102.955 12.0919 103.085 12.9969 102.993 13.8931C102.9 14.7892 102.588 15.649 102.083 16.3966C101.579 17.1443 100.897 17.757 100.099 18.1806C99.3004 18.6042 98.4096 18.8258 97.5049 18.8259H64.8961C63.9914 18.8258 63.1006 18.6042 62.3022 18.1806C61.5037 17.757 60.8222 17.1443 60.3176 16.3967C59.8129 15.649 59.5007 14.7892 59.4084 13.8931C59.3161 12.9969 59.4465 12.0919 59.7882 11.2578H52.8486C51.3236 11.2578 49.8136 11.5569 48.4048 12.138C46.9959 12.719 45.7158 13.5707 44.6375 14.6444C43.5592 15.7181 42.7038 16.9927 42.1203 18.3956C41.5367 19.7984 41.2363 21.302 41.2363 22.8204V169.366C41.2363 170.885 41.5367 172.388 42.1203 173.791C42.7038 175.194 43.5592 176.468 44.6375 177.542C45.7158 178.616 46.9959 179.468 48.4047 180.049C49.8136 180.63 51.3236 180.929 52.8486 180.929H110.043C111.568 180.929 113.078 180.63 114.487 180.049C115.896 179.468 117.176 178.616 118.254 177.542C119.332 176.468 120.188 175.194 120.771 173.791C121.355 172.388 121.655 170.885 121.655 169.366V22.8204C121.655 21.302 121.355 19.7984 120.771 18.3956C120.188 16.9927 119.332 15.7181 118.254 14.6444C117.176 13.5707 115.896 12.719 114.487 12.138C113.078 11.5569 111.568 11.2578 110.043 11.2578Z" fill="white"/>
<rect opacity="0.4" x="64.0469" y="58.7754" width="34.2151" height="29.3272" fill="#8697FF"/>
<path d="M60.9043 53.4548C60.9043 52.8584 61.3877 52.3749 61.9842 52.3749H74.4041V49H60.877C59.0281 49 57.5293 50.4988 57.5293 52.3477V65.8748H60.9043V53.4548ZM101.431 49H87.9038V52.375H100.324C100.92 52.375 101.404 52.8584 101.404 53.4549V65.8748H104.779V52.3477C104.779 50.4988 103.28 49 101.431 49ZM60.9043 91.7945V79.3746H57.5294V92.9016C57.5294 94.7506 59.0282 96.2494 60.8771 96.2494H74.4041V92.8744H61.9842C61.3878 92.8744 60.9043 92.3909 60.9043 91.7945ZM101.404 91.7945C101.404 92.3909 100.92 92.8744 100.324 92.8744H87.9039V96.2494H101.431C103.28 96.2494 104.779 94.7506 104.779 92.9016V79.3746H101.404V91.7945H101.404ZM64.2792 72.0171V73.2323C64.2792 73.8287 64.7627 74.3122 65.3591 74.3122H96.9488C97.5452 74.3122 98.0287 73.8287 98.0287 73.2323V72.0171C98.0287 71.4207 97.5452 70.9372 96.9488 70.9372H65.3591C64.7627 70.9372 64.2792 71.4207 64.2792 72.0171Z" fill="#9F9EAA"/>
<path d="M140.343 110.769C140.551 110.435 140.795 110.124 141.072 109.844C141.186 109.726 141.306 109.615 141.431 109.507C142.185 108.838 143.106 108.381 144.096 108.184C145.087 107.986 146.113 108.055 147.068 108.383C148.023 108.712 148.874 109.287 149.531 110.051C150.189 110.815 150.631 111.739 150.811 112.729C151.645 109.659 149.474 106.635 147.292 104.312C145.109 101.99 142.614 99.4428 142.626 96.2609C142.632 94.4905 143.502 92.911 144.815 91.74C144.856 91.7045 144.896 91.6691 144.938 91.6349C146.525 90.2801 148.567 89.5715 150.656 89.6505C154.537 89.8575 157.926 92.4548 160.28 95.5357C164.068 100.493 165.728 107.451 163.076 113.094C160.743 118.057 155.768 121.005 150.691 123.374C149.982 123.705 149.274 124.026 148.568 124.337C148.564 124.338 148.558 124.341 148.554 124.342C148.52 124.357 148.486 124.372 148.454 124.388C148.308 124.452 148.162 124.516 148.018 124.579L148.085 124.622L148.294 124.757C148.221 124.713 148.15 124.671 148.077 124.627C148.056 124.614 148.033 124.602 148.011 124.588C145.518 123.099 142.989 121.522 141.267 119.196C139.48 116.781 138.761 113.322 140.343 110.769Z" fill="#F1F1F1"/>
<path d="M156.981 105.16C157.533 106.411 157.899 107.735 158.068 109.091C158.2 110.3 158.15 111.522 157.92 112.717C157.425 115.172 156.345 117.472 154.771 119.424C153.584 120.907 152.213 122.234 150.691 123.374C149.982 123.705 149.275 124.026 148.568 124.336C148.564 124.338 148.559 124.341 148.554 124.342C148.52 124.357 148.486 124.372 148.454 124.387C148.308 124.451 148.163 124.515 148.018 124.579L148.085 124.622L148.294 124.757C148.221 124.713 148.15 124.671 148.077 124.627C148.056 124.614 148.033 124.601 148.012 124.588C148.56 122.677 148.641 120.662 148.247 118.713C147.853 116.765 146.995 114.938 145.746 113.387C144.49 111.856 142.889 110.642 141.072 109.844C141.186 109.726 141.307 109.615 141.431 109.507C142.131 109.827 142.801 110.208 143.433 110.645C145.694 112.202 147.393 114.442 148.276 117.034C149.065 119.386 149.163 121.913 148.56 124.318C148.685 124.237 148.811 124.153 148.933 124.07C151.256 122.51 153.397 120.637 155.01 118.339C156.401 116.397 157.291 114.145 157.602 111.78C157.911 109.197 157.262 106.657 156.104 104.352C154.825 101.886 153.213 99.6054 151.313 97.5742C149.405 95.487 147.248 93.6401 144.89 92.0746C144.837 92.0389 144.799 91.9842 144.785 91.9219C144.772 91.8596 144.783 91.7944 144.816 91.7398C144.841 91.69 144.885 91.6523 144.938 91.6346C144.965 91.6278 144.993 91.6271 145.021 91.6326C145.048 91.6381 145.073 91.6496 145.096 91.6664C145.387 91.8599 145.675 92.055 145.961 92.256C148.336 93.9306 150.493 95.8924 152.382 98.0965C154.208 100.221 155.869 102.582 156.981 105.16Z" fill="white"/>
<path d="M106.138 7.89171C108.14 7.89171 109.764 6.27549 109.764 4.28179C109.764 2.28809 108.14 0.671875 106.138 0.671875C104.136 0.671875 102.513 2.28809 102.513 4.28179C102.513 6.27549 104.136 7.89171 106.138 7.89171Z" fill="#F1F1F1"/>
<path d="M151.218 56.2026C152.439 56.2026 153.428 55.2172 153.428 54.0017C153.428 52.7862 152.439 51.8008 151.218 51.8008C149.997 51.8008 149.008 52.7862 149.008 54.0017C149.008 55.2172 149.997 56.2026 151.218 56.2026Z" fill="#F1F1F1"/>
<path d="M17.2104 43.4018C18.4311 43.4018 19.4207 42.4164 19.4207 41.2009C19.4207 39.9854 18.4311 39 17.2104 39C15.9896 39 15 39.9854 15 41.2009C15 42.4164 15.9896 43.4018 17.2104 43.4018Z" fill="#F1F1F1"/>
<path d="M5.4047 125H159.595C159.703 125 159.806 124.947 159.881 124.854C159.957 124.76 160 124.633 160 124.5C160 124.367 159.957 124.24 159.881 124.146C159.806 124.053 159.703 124 159.595 124H5.4047C5.29737 124 5.19444 124.053 5.11854 124.146C5.04264 124.24 5 124.367 5 124.5C5 124.633 5.04264 124.76 5.11854 124.854C5.19444 124.947 5.29737 125 5.4047 125Z" fill="#CBCBCB"/>
</g>
<defs>
<clipPath id="clip0">
<rect width="165" height="125" fill="white"/>
</clipPath>
</defs>
</svg>
