<svg width="16" height="16" viewBox="0 0 16 16" fill="none" xmlns="http://www.w3.org/2000/svg">
<path d="M5.75222 1.82031H2.80256C2.25954 1.82031 1.81934 2.26052 1.81934 2.80353V5.7532C1.81934 6.29621 2.25954 6.73642 2.80256 6.73642H5.75222C6.29524 6.73642 6.73544 6.29621 6.73544 5.7532V2.80353C6.73544 2.26052 6.29524 1.82031 5.75222 1.82031Z" stroke="currentColor" stroke-linecap="round" stroke-linejoin="round"/>
<path d="M13.1267 1.82031H10.1771C9.63405 1.82031 9.19385 2.26052 9.19385 2.80353V5.7532C9.19385 6.29621 9.63405 6.73642 10.1771 6.73642H13.1267C13.6697 6.73642 14.11 6.29621 14.11 5.7532V2.80353C14.11 2.26052 13.6697 1.82031 13.1267 1.82031Z" stroke="currentColor" stroke-linecap="round" stroke-linejoin="round"/>
<path d="M5.75222 9.1875H2.80256C2.25954 9.1875 1.81934 9.6277 1.81934 10.1707V13.1204C1.81934 13.6634 2.25954 14.1036 2.80256 14.1036H5.75222C6.29524 14.1036 6.73544 13.6634 6.73544 13.1204V10.1707C6.73544 9.6277 6.29524 9.1875 5.75222 9.1875Z" stroke="currentColor" stroke-linecap="round" stroke-linejoin="round"/>
<path d="M5.01487 3.53857H3.54004V5.01341H5.01487V3.53857Z" fill="currentColor"/>
<path d="M12.3889 3.53857H10.9141V5.01341H12.3889V3.53857Z" fill="currentColor"/>
<path d="M5.01487 10.9131H3.54004V12.3879H5.01487V10.9131Z" fill="currentColor"/>
<path d="M14.8474 13.3765H13.3726V14.8513H14.8474V13.3765Z" fill="currentColor"/>
<path d="M13.3723 11.894H11.8975V13.3689H13.3723V11.894Z" fill="currentColor"/>
<path d="M14.8474 10.4189H13.3726V11.8938H14.8474V10.4189Z" fill="currentColor"/>
<path d="M11.8976 13.3765H9.93115V14.8513H11.8976V13.3765Z" fill="currentColor"/>
<path d="M9.93089 10.4189H8.45605V13.3686H9.93089V10.4189Z" fill="currentColor"/>
<path d="M13.3724 8.94434H9.93115V10.4192H13.3724V8.94434Z" fill="currentColor"/>
</svg>
