<svg width="80" height="80" viewBox="0 0 80 80" fill="none" xmlns="http://www.w3.org/2000/svg">
<rect width="80" height="80" rx="8" fill="black" fill-opacity="0.6"/>
<path d="M61.915 34.0326C61.1227 33.4727 60.016 33.6637 59.4562 34.4666L58.0351 36.5107C56.4074 27.8827 48.8801 21.3335 39.8543 21.3335C29.64 21.3335 21.3334 29.7098 21.3334 40.0002C21.3334 50.2905 29.64 58.6668 39.8543 58.6668C44.1347 58.6668 48.3117 57.1608 51.6103 54.4222C52.3639 53.7973 52.4715 52.6775 51.8514 51.918C51.2313 51.1585 50.1203 51.05 49.3667 51.675C46.6969 53.8884 43.3165 55.108 39.85 55.108C31.5864 55.1123 24.8602 48.3331 24.8602 40.0002C24.8602 31.6672 31.5864 24.888 39.8543 24.888C47.2998 24.888 53.4749 30.3869 54.6332 37.5654L52.0883 35.7642C51.2959 35.2044 50.1892 35.3953 49.6294 36.1983C49.0739 36.9968 49.2634 38.1122 50.06 38.6764L55.8347 42.7648C56.627 43.3247 57.7337 43.1337 58.2935 42.3308L62.3499 36.5107C62.9054 35.7078 62.7117 34.5968 61.915 34.0326Z" fill="white"/>
</svg>
