<svg width="12" height="12" viewBox="0 0 12 12" fill="none" xmlns="http://www.w3.org/2000/svg">
<path d="M6 0C2.675 0 0 2.675 0 6C0 9.325 2.675 12 6 12C9.325 12 12 9.325 12 6C12 2.675 9.325 0 6 0ZM5.825 9C5.7 9 5.575 8.9 5.575 8.75C5.575 8.625 5.675 8.5 5.825 8.5C5.95 8.5 6.075 8.6 6.075 8.75C6.075 8.9 5.95 9 5.825 9ZM7.025 5.975C6.25 6.65 6.05 6.95 6.05 7.8C6.05 7.925 5.95 8.05 5.8 8.05C5.675 8.05 5.55 7.95 5.55 7.8C5.55 6.725 5.9 6.3 6.7 5.6C7.05 5.35 7.25 4.95 7.25 4.55C7.25 3.925 6.775 3.475 6.075 3.475C4.9 3.475 4.725 4.425 4.725 5C4.725 5.125 4.625 5.25 4.475 5.25C4.35 5.25 4.225 5.15 4.225 5C4.225 3.75 4.9 3 6.075 3C7.05 3 7.725 3.65 7.725 4.55C7.75 5.1 7.475 5.65 7.025 5.975Z" fill="#B4BDCC"/>
</svg>
