<svg width="10" height="10" viewBox="0 0 10 10" fill="none" xmlns="http://www.w3.org/2000/svg">
<path fill-rule="evenodd" clip-rule="evenodd" d="M0.208328 5.00004C0.208328 7.64641 2.35363 9.79171 5 9.79171C7.64636 9.79171 9.79166 7.64641 9.79166 5.00004C9.79166 2.35368 7.64636 0.208374 5 0.208374C2.35363 0.208374 0.208328 2.35368 0.208328 5.00004ZM6.35814 2.50073C6.03669 2.21142 5.61076 2.07481 5.0884 2.07481C4.4937 2.07481 4.0276 2.24357 3.68203 2.5811C3.32843 2.91862 3.15967 3.38473 3.15967 3.97942H4.07581C4.07581 3.6419 4.1401 3.3767 4.27672 3.19186C4.42941 2.96684 4.67854 2.86237 5.03214 2.86237C5.30538 2.86237 5.52236 2.9347 5.67505 3.08739C5.8197 3.24008 5.90007 3.44902 5.90007 3.71422C5.90007 3.91513 5.82774 4.10801 5.68309 4.2848L5.58665 4.39731C5.06429 4.86342 4.75087 5.20095 4.6464 5.41793C4.53389 5.63491 4.48567 5.90011 4.48567 6.2055V6.318H5.40985V6.2055C5.40985 6.01262 5.45003 5.84386 5.5304 5.68313C5.60272 5.53848 5.7072 5.40186 5.85185 5.28131C6.2376 4.94379 6.47065 4.7268 6.54298 4.64644C6.73585 4.38928 6.84032 4.05979 6.84032 3.65797C6.84032 3.16775 6.67959 2.78201 6.35814 2.50073ZM5.39378 6.88055C5.27323 6.76804 5.12054 6.71179 4.94374 6.71179C4.76694 6.71179 4.62229 6.76804 4.50174 6.88055C4.38119 6.99306 4.32494 7.13771 4.32494 7.31451C4.32494 7.49131 4.38119 7.63597 4.50174 7.74848C4.62229 7.86098 4.76694 7.92527 4.94374 7.92527C5.12054 7.92527 5.26519 7.86902 5.38574 7.75651C5.50628 7.644 5.57058 7.49131 5.57058 7.31451C5.57058 7.13771 5.50628 6.99306 5.39378 6.88055Z" fill="white"/>
</svg>
