<svg width="10" height="10" viewBox="0 0 10 10" fill="none" xmlns="http://www.w3.org/2000/svg">
<path fill-rule="evenodd" clip-rule="evenodd" d="M0.208374 5.00016C0.208374 7.64653 2.35368 9.79183 5.00004 9.79183C7.64641 9.79183 9.79171 7.64653 9.79171 5.00016C9.79171 2.3538 7.64641 0.208496 5.00004 0.208496C2.35368 0.208496 0.208374 2.3538 0.208374 5.00016ZM6.35819 2.50085C6.03673 2.21155 5.6108 2.07493 5.08844 2.07493C4.49375 2.07493 4.02764 2.24369 3.68208 2.58122C3.32848 2.91875 3.15971 3.38485 3.15971 3.97955H4.07586C4.07586 3.64202 4.14015 3.37682 4.27677 3.19198C4.42946 2.96696 4.67859 2.86249 5.03219 2.86249C5.30542 2.86249 5.5224 2.93482 5.6751 3.08751C5.81975 3.2402 5.90011 3.44915 5.90011 3.71435C5.90011 3.91525 5.82779 4.10813 5.68313 4.28493L5.5867 4.39744C5.06433 4.86354 4.75091 5.20107 4.64644 5.41805C4.53393 5.63504 4.48571 5.90024 4.48571 6.20562V6.31813H5.4099V6.20562C5.4099 6.01274 5.45008 5.84398 5.53044 5.68325C5.60277 5.5386 5.70724 5.40198 5.8519 5.28144C6.23764 4.94391 6.4707 4.72693 6.54302 4.64656C6.7359 4.3894 6.84037 4.05991 6.84037 3.65809C6.84037 3.16787 6.67964 2.78213 6.35819 2.50085ZM5.39382 6.88067C5.27328 6.76816 5.12059 6.71191 4.94379 6.71191C4.76699 6.71191 4.62233 6.76816 4.50179 6.88067C4.38124 6.99318 4.32499 7.13783 4.32499 7.31463C4.32499 7.49143 4.38124 7.63609 4.50179 7.7486C4.62233 7.86111 4.76699 7.9254 4.94379 7.9254C5.12059 7.9254 5.26524 7.86914 5.38579 7.75663C5.50633 7.64412 5.57062 7.49143 5.57062 7.31463C5.57062 7.13783 5.50633 6.99318 5.39382 6.88067Z" fill="#6F7780"/>
</svg>
