<svg xmlns="http://www.w3.org/2000/svg" width="56" height="48" viewBox="0 0 56 48" fill="none">
  <path d="M55.0054 27.4648C57.1769 22.5954 46.4417 8.99108 36.1858 3.32325C29.7212 -1.06755 22.9851 -0.464331 21.6208 1.46356C18.6268 5.69451 31.5349 9.27959 40.1675 13.4631C38.3119 14.2721 36.5631 15.724 35.5348 17.5806C32.3164 14.0538 25.2526 11.0167 16.964 13.4631C11.3785 15.1117 6.73651 18.9984 4.9424 24.8687C4.50646 24.6743 4.0238 24.5662 3.516 24.5662C1.57417 24.5662 0 26.1463 0 28.0955C0 30.0447 1.57417 31.6248 3.516 31.6248C3.87593 31.6248 5.00131 31.3825 5.00131 31.3825L22.9851 31.5133C15.793 42.9659 10.1092 44.6401 10.1092 46.6242C10.1092 48.6083 15.5476 48.0706 17.5896 47.3311C27.3648 43.7906 37.8639 32.7566 39.6655 29.5802C47.2313 30.5277 53.5895 30.6398 55.0054 27.4648Z" fill="url(#paint0_linear_149790_146518)"/>
  <path fill-rule="evenodd" clip-rule="evenodd" d="M21.4052 3.63982C22.0141 2.42616 26.1189 2.291 31.6923 4.92595C35.7836 6.86025 40.1403 11.179 40.3934 12.2502C40.5033 12.716 40.5679 13.3097 40.1678 13.4679C40.1668 13.4675 40.166 13.4665 40.1649 13.466H40.1669C33.0489 10.0165 23.0254 6.97309 21.4052 3.63982Z" fill="url(#paint1_linear_149790_146518)"/>
  <path fill-rule="evenodd" clip-rule="evenodd" d="M19.0675 20.7344C25.0368 20.7344 27.6061 22.6737 29.6525 26.3164C31.1103 28.9121 30.7861 33.017 29.2423 35.79C30.6907 36.1502 31.9642 36.5488 33.0919 36.9814C31.2639 38.6903 29.1708 40.4632 26.9454 42.0908C23.9147 41.3146 21.1606 40.579 16.9845 39.5049C18.7688 37.5506 20.8093 34.982 22.9855 31.5166L6.84486 31.3984C6.78865 30.7428 6.77077 30.03 6.78724 29.252C6.94418 21.8448 15.7843 20.7344 19.0675 20.7344Z" fill="url(#paint2_linear_149790_146518)"/>
  <path d="M4.7269 30.6314C5.38633 36.2583 8.57217 38.4635 15.0821 39.1161C21.5921 39.7687 25.3263 39.3309 30.2978 39.7849C34.4499 40.1641 38.1573 42.288 39.5327 41.554C40.7704 40.8935 40.0779 38.507 38.4217 36.976C36.2747 34.9913 33.3034 33.6114 28.075 33.1217C29.117 30.2581 28.825 26.2429 27.2068 24.0584C24.867 20.8999 20.5482 19.4718 15.0821 20.0958C9.37135 20.7476 3.89933 23.5698 4.7269 30.6314Z" fill="url(#paint3_linear_149790_146518)"/>
  <defs>
    <linearGradient id="paint0_linear_149790_146518" x1="16.3137" y1="23.1527" x2="54.5592" y2="33.9576" gradientUnits="userSpaceOnUse">
      <stop stop-color="#4C65FE"/>
      <stop offset="1" stop-color="#8F9FFF"/>
    </linearGradient>
    <linearGradient id="paint1_linear_149790_146518" x1="48.1007" y1="22.4273" x2="20.4149" y2="-5.21951" gradientUnits="userSpaceOnUse">
      <stop stop-color="#4C65FE"/>
      <stop offset="1" stop-color="#5156D8" stop-opacity="0"/>
    </linearGradient>
    <linearGradient id="paint2_linear_149790_146518" x1="33.8593" y1="37.946" x2="7.31596" y2="22.7423" gradientUnits="userSpaceOnUse">
      <stop stop-color="#2D46E2"/>
      <stop offset="1" stop-color="#8697FF" stop-opacity="0"/>
    </linearGradient>
    <linearGradient id="paint3_linear_149790_146518" x1="18.5956" y1="22.8632" x2="36.5871" y2="45.6372" gradientUnits="userSpaceOnUse">
      <stop stop-color="#4C65FE"/>
      <stop offset="1" stop-color="#4C65FE"/>
    </linearGradient>
  </defs>
</svg>