<svg width="68" height="24" viewBox="0 0 68 24" fill="none" xmlns="http://www.w3.org/2000/svg">
<g opacity="0.5">
<path d="M32.1877 8.06413C33.4044 8.06413 34.3367 8.37013 34.9845 8.98213C35.641 9.58513 35.9693 10.3951 35.9693 11.4121C35.9693 11.9791 35.8511 12.5371 35.6148 13.0861C35.3872 13.6351 34.9976 14.0716 34.4461 14.3956L36.6915 18.0001H34.4724L32.4372 14.8411H31.1635V18.0001H29.2595V8.06413H32.1877ZM32.5159 12.9511C32.9011 12.9511 33.1987 12.8701 33.4088 12.7081C33.6277 12.5371 33.7809 12.3391 33.8684 12.1141C33.9559 11.8801 33.9997 11.6686 33.9997 11.4796C33.9997 11.3716 33.9822 11.2366 33.9472 11.0746C33.9209 10.9036 33.8596 10.7326 33.7634 10.5616C33.6671 10.3906 33.5182 10.2466 33.3169 10.1296C33.1243 10.0126 32.8617 9.95413 32.5291 9.95413H31.1635V12.9511H32.5159Z" fill="white"/>
<path d="M39.9813 18.1621C39.4474 18.1621 38.9615 18.0541 38.5238 17.8381C38.0949 17.6131 37.7535 17.2711 37.4996 16.8121C37.2458 16.3531 37.1189 15.7681 37.1189 15.0571C37.1189 14.3911 37.2502 13.8151 37.5128 13.3291C37.7754 12.8431 38.1212 12.4696 38.5501 12.2086C38.979 11.9386 39.4342 11.8036 39.9157 11.8036C40.4847 11.8036 40.9136 11.8981 41.2025 12.0871C41.5001 12.2761 41.7365 12.4831 41.9116 12.7081L42.0297 12.1006H43.7367V18.0001H41.8984V17.2711C41.8109 17.3611 41.6796 17.4781 41.5045 17.6221C41.3382 17.7661 41.1281 17.8921 40.8742 18.0001C40.6204 18.1081 40.3227 18.1621 39.9813 18.1621ZM40.5066 16.6231C41.1456 16.6231 41.6096 16.3261 41.8984 15.7321V14.2876C41.7934 13.9996 41.6096 13.7701 41.3469 13.5991C41.0931 13.4281 40.7911 13.3426 40.4409 13.3426C40.047 13.3426 39.7056 13.4956 39.4167 13.8016C39.1279 14.0986 38.9834 14.4856 38.9834 14.9626C38.9834 15.2776 39.0534 15.5611 39.1935 15.8131C39.3336 16.0651 39.5174 16.2631 39.745 16.4071C39.9813 16.5511 40.2352 16.6231 40.5066 16.6231Z" fill="white"/>
<path d="M49.0055 18.1621C48.5678 18.1621 48.1914 18.0946 47.8763 17.9596C47.5699 17.8246 47.3029 17.6401 47.0753 17.4061V18.0001H45.237V7.34863H47.0622V12.5056C47.2898 12.3076 47.5918 12.1411 47.9682 12.0061C48.3446 11.8711 48.7735 11.8036 49.255 11.8036C49.754 11.8036 50.2092 11.9251 50.6206 12.1681C51.032 12.4111 51.3603 12.7666 51.6054 13.2346C51.8593 13.6936 51.9862 14.2561 51.9862 14.9221C51.9862 15.5881 51.8461 16.1641 51.566 16.6501C51.2946 17.1361 50.9314 17.5096 50.4762 17.7706C50.021 18.0316 49.5308 18.1621 49.0055 18.1621ZM48.5985 16.5691C48.8698 16.5691 49.1193 16.4971 49.3469 16.3531C49.5833 16.2091 49.7715 16.0111 49.9115 15.7591C50.0516 15.5071 50.1216 15.2236 50.1216 14.9086C50.1216 14.5936 50.0516 14.3146 49.9115 14.0716C49.7715 13.8286 49.5833 13.6396 49.3469 13.5046C49.1193 13.3606 48.8698 13.2886 48.5985 13.2886C48.2396 13.2886 47.9244 13.3741 47.6531 13.5451C47.3817 13.7161 47.1891 13.9456 47.0753 14.2336V15.6781C47.3904 16.2721 47.8982 16.5691 48.5985 16.5691Z" fill="white"/>
<path d="M56.8055 18.1621C56.3678 18.1621 55.9914 18.0946 55.6762 17.9596C55.3698 17.8246 55.1028 17.6401 54.8752 17.4061V18.0001H53.037V7.34863H54.8621V12.5056C55.0897 12.3076 55.3917 12.1411 55.7681 12.0061C56.1446 11.8711 56.5735 11.8036 57.0549 11.8036C57.5539 11.8036 58.0091 11.9251 58.4205 12.1681C58.832 12.4111 59.1602 12.7666 59.4053 13.2346C59.6592 13.6936 59.7861 14.2561 59.7861 14.9221C59.7861 15.5881 59.6461 16.1641 59.3659 16.6501C59.0946 17.1361 58.7313 17.5096 58.2761 17.7706C57.8209 18.0316 57.3307 18.1621 56.8055 18.1621ZM56.3984 16.5691C56.6698 16.5691 56.9193 16.4971 57.1469 16.3531C57.3832 16.2091 57.5714 16.0111 57.7115 15.7591C57.8515 15.5071 57.9216 15.2236 57.9216 14.9086C57.9216 14.5936 57.8515 14.3146 57.7115 14.0716C57.5714 13.8286 57.3832 13.6396 57.1469 13.5046C56.9193 13.3606 56.6698 13.2886 56.3984 13.2886C56.0395 13.2886 55.7244 13.3741 55.453 13.5451C55.1816 13.7161 54.989 13.9456 54.8752 14.2336V15.6781C55.1904 16.2721 55.6981 16.5691 56.3984 16.5691Z" fill="white"/>
<path d="M61.2965 20.8351L62.6752 17.6896L60.0228 12.1006H62.0843L63.5943 15.5836L65.1175 12.1006H66.772L63.0691 20.8351H61.2965Z" fill="white"/>
<path d="M22.6239 13.4204C23.4931 11.424 19.196 5.8464 15.0908 3.52265C12.5031 1.72247 9.80681 1.96979 9.26072 2.7602C8.06227 4.49484 13.2291 5.96468 16.6846 7.67989C15.9418 8.01157 15.2418 8.6068 14.8302 9.36802C13.542 7.92206 10.7145 6.67687 7.39669 7.67989C5.16092 8.3558 3.30282 9.94928 2.58467 12.3561C2.41017 12.2763 2.21697 12.232 2.01371 12.232C1.23643 12.232 0.606323 12.8799 0.606323 13.679C0.606323 14.4781 1.23643 15.126 2.01371 15.126C2.15778 15.126 2.60825 15.0266 2.60825 15.0266L9.80681 15.0802C6.92795 19.7757 4.65284 20.4621 4.65284 21.2755C4.65284 22.089 6.82971 21.8686 7.64708 21.5654C11.5599 20.1138 15.7625 15.59 16.4837 14.2877C19.5121 14.6762 22.0572 14.7221 22.6239 13.4204Z" fill="url(#paint0_linear_20789_5609)"/>
<path fill-rule="evenodd" clip-rule="evenodd" d="M16.6843 7.68015C16.6845 7.68023 16.6846 7.68032 16.6848 7.6804C16.845 7.61554 16.8191 7.37233 16.7751 7.18134C16.674 6.74236 14.9299 4.97166 13.2921 4.17855C11.0605 3.09792 9.41717 3.15356 9.17419 3.65156C9.62873 4.60952 11.7363 5.50892 13.9375 6.44826C14.8765 6.849 15.8326 7.25702 16.6847 7.67996C16.6846 7.68002 16.6844 7.68009 16.6843 7.68015Z" fill="url(#paint1_linear_20789_5609)"/>
<path fill-rule="evenodd" clip-rule="evenodd" d="M13.8521 17.3216C13.4008 17.1442 12.891 16.9815 12.3114 16.8339C12.9294 15.6969 13.0591 14.0138 12.4754 12.9496C11.6563 11.4561 10.628 10.6611 8.23856 10.6611C6.92436 10.6611 3.38595 11.1162 3.32314 14.1531C3.31654 14.4717 3.32297 14.7638 3.3454 15.0323L9.80677 15.0804C8.93566 16.5012 8.11984 17.5549 7.4056 18.3562C8.26316 18.5821 8.97085 18.7718 9.62056 18.9459C10.237 19.1111 10.8013 19.2624 11.3918 19.4173C12.2828 18.7499 13.1203 18.0223 13.8521 17.3216Z" fill="url(#paint2_linear_20789_5609)"/>
<path d="M2.49846 14.72C2.76242 17.027 4.03765 17.9311 6.64345 18.1986C9.24926 18.4662 10.744 18.2867 12.734 18.4728C14.396 18.6283 15.88 19.4991 16.4305 19.1981C16.926 18.9273 16.6488 17.9489 15.9858 17.3212C15.1264 16.5075 13.9371 15.9418 11.8443 15.741C12.2613 14.5669 12.1445 12.9208 11.4967 12.0251C10.5601 10.7302 8.83141 10.1447 6.64346 10.4005C4.35755 10.6677 2.1672 11.8248 2.49846 14.72Z" fill="url(#paint3_linear_20789_5609)"/>
</g>
<defs>
<linearGradient id="paint0_linear_20789_5609" x1="7.13636" y1="11.6525" x2="22.4984" y2="15.8897" gradientUnits="userSpaceOnUse">
<stop stop-color="white"/>
<stop offset="1" stop-color="white"/>
</linearGradient>
<linearGradient id="paint1_linear_20789_5609" x1="19.8603" y1="11.3535" x2="8.51352" y2="0.290125" gradientUnits="userSpaceOnUse">
<stop stop-color="#8697FF"/>
<stop offset="1" stop-color="#8697FF" stop-opacity="0"/>
</linearGradient>
<linearGradient id="paint2_linear_20789_5609" x1="14.1593" y1="17.7179" x2="3.41019" y2="11.707" gradientUnits="userSpaceOnUse">
<stop stop-color="#8697FF"/>
<stop offset="1" stop-color="#8697FF" stop-opacity="0"/>
</linearGradient>
<linearGradient id="paint3_linear_20789_5609" x1="8.04982" y1="11.5351" x2="15.4651" y2="20.6993" gradientUnits="userSpaceOnUse">
<stop stop-color="white"/>
<stop offset="0.983895" stop-color="#D1D8FF"/>
</linearGradient>
</defs>
</svg>
