<svg width="33" height="32" viewBox="0 0 33 32" fill="none" xmlns="http://www.w3.org/2000/svg">
<rect x="0.5" width="32" height="32" rx="16" fill="#7084FF"/>
<path d="M26.9367 17.3244C27.7647 15.4686 23.6717 10.2838 19.7614 8.12371C17.2967 6.45032 14.7284 6.68021 14.2083 7.41496C13.0668 9.02743 17.9882 10.3938 21.2795 11.9882C20.572 12.2965 19.9053 12.8498 19.5132 13.5574C18.2862 12.2133 15.593 11.0558 12.4328 11.9882C10.3032 12.6165 8.53338 14.0977 7.84934 16.335C7.68313 16.2609 7.49911 16.2197 7.3055 16.2197C6.56514 16.2197 5.96497 16.8219 5.96497 17.5648C5.96497 18.3076 6.56514 18.9098 7.3055 18.9098C7.44273 18.9098 7.8718 18.8175 7.8718 18.8175L14.7284 18.8673C11.9863 23.2321 9.81927 23.8701 9.81927 24.6263C9.81927 25.3825 11.8927 25.1775 12.6713 24.8957C16.3983 23.5464 20.4012 19.3412 21.0881 18.1306C23.9727 18.4917 26.3969 18.5344 26.9367 17.3244Z" fill="url(#paint0_linear_117833_39906)"/>
<path fill-rule="evenodd" clip-rule="evenodd" d="M21.2792 11.9883C21.2794 11.9884 21.2796 11.9885 21.2798 11.9885C21.4323 11.9282 21.4076 11.7022 21.3657 11.5246C21.2695 11.1166 19.6082 9.47057 18.0482 8.73332C15.9225 7.72879 14.3573 7.78051 14.1259 8.24346C14.5588 9.13394 16.5663 9.97 18.6629 10.8432C19.5573 11.2157 20.468 11.595 21.2796 11.9881C21.2795 11.9882 21.2794 11.9882 21.2792 11.9883Z" fill="url(#paint1_linear_117833_39906)"/>
<path fill-rule="evenodd" clip-rule="evenodd" d="M18.5817 20.9505C18.1518 20.7856 17.6662 20.6344 17.1141 20.4972C17.7028 19.4403 17.8263 17.8757 17.2703 16.8864C16.4901 15.4981 15.5107 14.7592 13.2347 14.7592C11.9829 14.7592 8.61259 15.1822 8.55275 18.0052C8.54648 18.3014 8.5526 18.5728 8.57396 18.8225L14.7285 18.8672C13.8987 20.1879 13.1217 21.1674 12.4414 21.9122C13.2582 22.1223 13.9322 22.2986 14.5511 22.4604C15.1383 22.614 15.6757 22.7546 16.2382 22.8986C17.0868 22.2783 17.8846 21.6019 18.5817 20.9505Z" fill="url(#paint2_linear_117833_39906)"/>
<path d="M7.7672 18.5324C8.01862 20.6769 9.23328 21.5173 11.7153 21.766C14.1973 22.0147 15.6211 21.8479 17.5165 22.0209C19.0996 22.1654 20.5131 22.9749 21.0375 22.6952C21.5094 22.4434 21.2454 21.5339 20.6139 20.9504C19.7954 20.194 18.6625 19.6681 16.6691 19.4815C17.0664 18.3901 16.955 16.8599 16.3381 16.0274C15.446 14.8236 13.7993 14.2793 11.7153 14.5171C9.53798 14.7656 7.45167 15.8411 7.7672 18.5324Z" fill="url(#paint3_linear_117833_39906)"/>
<defs>
<linearGradient id="paint0_linear_117833_39906" x1="12.1848" y1="15.681" x2="26.7657" y2="19.802" gradientUnits="userSpaceOnUse">
<stop stop-color="white"/>
<stop offset="1" stop-color="white"/>
</linearGradient>
<linearGradient id="paint1_linear_117833_39906" x1="24.3044" y1="15.4029" x2="13.7534" y2="4.86169" gradientUnits="userSpaceOnUse">
<stop stop-color="#8697FF"/>
<stop offset="1" stop-color="#8697FF" stop-opacity="0"/>
</linearGradient>
<linearGradient id="paint2_linear_117833_39906" x1="18.8743" y1="21.3189" x2="8.75607" y2="15.5212" gradientUnits="userSpaceOnUse">
<stop stop-color="#8697FF"/>
<stop offset="1" stop-color="#8697FF" stop-opacity="0"/>
</linearGradient>
<linearGradient id="paint3_linear_117833_39906" x1="13.0549" y1="15.5718" x2="19.911" y2="24.254" gradientUnits="userSpaceOnUse">
<stop stop-color="white"/>
<stop offset="0.983895" stop-color="#D1D8FF"/>
</linearGradient>
</defs>
</svg>
