<svg width="16" height="16" viewBox="0 0 16 16" fill="none" xmlns="http://www.w3.org/2000/svg">
<path d="M13.4375 6.3125H11C10.6891 6.3125 10.4375 6.06055 10.4375 5.74999C10.4375 5.43945 10.6891 5.1875 11 5.1875H11.9785C11.0959 3.94028 9.64441 3.12501 8.00002 3.12501C5.30762 3.12501 3.12502 5.30764 3.12502 7.99999C3.12502 10.6924 5.30764 12.875 8.00002 12.875C10.6924 12.875 12.875 10.6924 12.875 7.99999C12.875 7.68946 13.1265 7.43751 13.4375 7.43751C13.748 7.43751 14 7.68946 14 7.99999C14 11.3137 11.3134 14 8.00001 14C4.68652 14 2 11.3137 2 7.99999C2 4.68631 4.68652 2 8.00001 2C10.011 2 11.7872 2.99148 12.875 4.51054V3.5C12.875 3.18944 13.1265 2.9375 13.4375 2.9375C13.748 2.9375 14 3.18944 14 3.5V5.75C14 6.06055 13.748 6.3125 13.4375 6.3125Z" fill="#8697FF"/>
</svg>
