<svg width="28" height="28" viewBox="0 0 28 28" fill="none" xmlns="http://www.w3.org/2000/svg">
<path opacity="0.4" d="M22.85 11.443C22.5178 11.2031 22.0538 11.2849 21.8191 11.629L21.2233 12.5049C20.5408 8.80779 17.3847 6.00146 13.6003 6.00146C9.31762 6.00146 5.83477 9.59073 5.83477 14.0001C5.83477 18.4095 9.31762 21.9988 13.6003 21.9988C15.395 21.9988 17.1464 21.3535 18.5294 20.18C18.8454 19.9122 18.8905 19.4324 18.6305 19.1069C18.3705 18.7815 17.9047 18.735 17.5887 19.0028C16.4693 19.9512 15.052 20.4738 13.5985 20.4738C10.1337 20.4757 7.31349 17.5708 7.31349 14.0001C7.31349 10.4295 10.1337 7.52458 13.6003 7.52458C16.7221 7.52458 19.3112 9.88085 19.7969 12.9568L18.7298 12.185C18.3976 11.9451 17.9336 12.027 17.6989 12.371C17.466 12.7132 17.5454 13.1912 17.8794 13.4329L20.3006 15.1848C20.6329 15.4247 21.0969 15.3429 21.3316 14.9988L23.0324 12.5049C23.2653 12.1609 23.1841 11.6848 22.85 11.443Z" fill="#8697FF"/>
<path fill-rule="evenodd" clip-rule="evenodd" d="M21.8193 11.6275C22.054 11.2835 22.518 11.2016 22.8502 11.4415C23.1842 11.6833 23.2655 12.1594 23.0326 12.5034L21.3318 14.9973C21.097 15.3414 20.633 15.4232 20.3008 15.1833L17.8796 13.4315C17.5456 13.1897 17.4661 12.7117 17.699 12.3695C17.9338 12.0255 18.3978 11.9437 18.73 12.1836L19.7971 12.9554C19.3114 9.87938 16.7223 7.52311 13.6005 7.52311C10.4104 7.52311 7.76774 9.98302 7.3664 13.158L5.92086 12.8075C6.48093 8.9607 9.71083 6 13.6005 6C17.3849 6 20.5409 8.80632 21.2234 12.5034L21.8193 11.6275Z" fill="#8697FF"/>
</svg>
