<svg width="15" height="15" viewBox="0 0 15 15" fill="none" xmlns="http://www.w3.org/2000/svg">
<path d="M2.44926 8.95752C2.56779 8.95718 2.68134 8.9099 2.76503 8.82605C2.84872 8.74221 2.89572 8.62863 2.89572 8.51023V5.35207C2.89572 4.80524 3.35124 4.40837 3.97758 4.40837H11.6192L10.8609 5.16204C10.8191 5.20328 10.7859 5.2524 10.7633 5.30654C10.7406 5.36069 10.729 5.41879 10.729 5.47747C10.729 5.53615 10.7406 5.59425 10.7633 5.64839C10.7859 5.70254 10.8191 5.75165 10.8609 5.7929C10.9459 5.87413 11.059 5.91946 11.1766 5.91946C11.2943 5.91946 11.4074 5.87413 11.4924 5.7929L12.7502 4.5454C12.8278 4.46882 12.8894 4.37762 12.9314 4.2771C12.9734 4.17658 12.995 4.06873 12.995 3.95979C12.995 3.85086 12.9734 3.74301 12.9314 3.64249C12.8894 3.54196 12.8278 3.45077 12.7502 3.37418L11.4898 2.12928C11.4054 2.04604 11.2914 1.99957 11.1727 2C11.0845 2.00049 10.9984 2.02709 10.9252 2.07645C10.8521 2.12582 10.7953 2.19572 10.7619 2.27734C10.7285 2.35896 10.7201 2.44863 10.7377 2.53502C10.7553 2.62141 10.7982 2.70065 10.8609 2.76272L11.6192 3.51638H3.98405C3.481 3.50773 2.992 3.68236 2.60843 4.00762C2.4158 4.17449 2.26168 4.38109 2.15667 4.61319C2.05167 4.84529 1.99829 5.09738 2.00021 5.35207V8.51023C2.00004 8.56913 2.01154 8.62747 2.03407 8.6819C2.05659 8.73633 2.08968 8.78577 2.13143 8.82735C2.17318 8.86894 2.22276 8.90185 2.27731 8.92419C2.33186 8.94653 2.3903 8.95786 2.44926 8.95752ZM12.5587 6.04239C12.4999 6.04239 12.4417 6.05396 12.3874 6.07644C12.333 6.09892 12.2837 6.13187 12.2421 6.1734C12.2005 6.21494 12.1675 6.26424 12.145 6.31851C12.1225 6.37278 12.111 6.43094 12.111 6.48968V9.39576C12.111 10.0318 11.605 10.5915 11.0291 10.5915H3.37324L4.13158 9.83787C4.19418 9.77588 4.23701 9.69676 4.25467 9.61049C4.27233 9.52422 4.26403 9.43465 4.23082 9.35309C4.1976 9.27152 4.14096 9.2016 4.06803 9.15214C3.9951 9.10268 3.90914 9.07589 3.821 9.07516C3.76195 9.07412 3.7033 9.08504 3.64858 9.10725C3.59387 9.12947 3.54423 9.16253 3.50265 9.20443L2.24479 10.4519C2.16724 10.5285 2.10568 10.6197 2.06366 10.7202C2.02164 10.8207 2 10.9286 2 11.0375C2 11.1465 2.02164 11.2543 2.06366 11.3548C2.10568 11.4554 2.16724 11.5466 2.24479 11.6231L3.50265 12.8706C3.54429 12.9119 3.59365 12.9445 3.64792 12.9667C3.70219 12.9889 3.7603 13.0002 3.81894 13C3.87759 12.9998 3.93561 12.988 3.98969 12.9653C4.04378 12.9427 4.09287 12.9096 4.13417 12.868C4.17546 12.8265 4.20815 12.7771 4.23037 12.7229C4.25259 12.6687 4.26391 12.6107 4.26366 12.5521C4.26342 12.4935 4.25164 12.4355 4.22897 12.3815C4.20631 12.3275 4.17322 12.2784 4.13158 12.2372L3.37324 11.4835H11.0291C11.2976 11.4807 11.5624 11.4209 11.806 11.3081C12.0496 11.1954 12.2665 11.0322 12.4422 10.8294C12.7969 10.4354 12.9953 9.92558 13 9.39576V6.48968C13 6.37216 12.9537 6.25936 12.8712 6.17566C12.7886 6.09197 12.6763 6.04409 12.5587 6.04239Z" fill="#8697FF"/>
</svg>
