<svg width="16" height="16" viewBox="0 0 16 16" fill="none" xmlns="http://www.w3.org/2000/svg">
<path d="M12.196 6.8353C12.196 8.19874 11.6761 9.44751 10.8149 10.409C10.8149 10.409 13.9047 13.3619 14.4853 13.9047C14.9625 14.3503 14.4152 15.0424 13.7986 14.4164C13.4275 14.0393 10.1889 11.0072 10.1889 11.0072C9.17984 11.8365 7.86717 12.3376 6.43132 12.3376C3.24752 12.3376 0.666626 9.87353 0.666626 6.83528C0.666626 3.79701 3.24752 1.33337 6.43132 1.33337C9.61513 1.33337 12.196 3.79703 12.196 6.83528V6.8353ZM6.4313 2.20549C3.75291 2.20549 1.58078 4.27859 1.58078 6.8349C1.58078 9.39202 3.75291 11.4651 6.4313 11.4651C9.11053 11.4651 11.2827 9.392 11.2827 6.8349C11.2827 4.27859 9.11055 2.20549 6.4313 2.20549Z" fill="currentColor"/>
</svg>
