<svg width="20" height="20" viewBox="0 0 20 20" fill="none" xmlns="http://www.w3.org/2000/svg">
<path d="M20 0H0V20H20V0Z" fill="white" fill-opacity="0.01"/>
<path d="M20 0H0V20H20V0Z" fill="white" fill-opacity="0.01"/>
<path d="M18.3333 1.66699H1.66666V8.33366H18.3333V1.66699Z" stroke="var(--r-neutral-body, #D3D8E0)" stroke-width="1.25" stroke-linejoin="round"/>
<path d="M18.3333 11.667H1.66666V18.3337H18.3333V11.667Z" stroke="var(--r-neutral-body, #D3D8E0)" stroke-width="1.25" stroke-linejoin="round"/>
<path d="M5.41666 4.16699H4.58332C4.3532 4.16699 4.16666 4.35353 4.16666 4.58366V5.41699C4.16666 5.64712 4.3532 5.83366 4.58332 5.83366H5.41666C5.64678 5.83366 5.83332 5.64712 5.83332 5.41699V4.58366C5.83332 4.35353 5.64678 4.16699 5.41666 4.16699Z" fill="var(--r-neutral-body, #D3D8E0)"/>
<path d="M5.41666 14.167H4.58332C4.3532 14.167 4.16666 14.3535 4.16666 14.5837V15.417C4.16666 15.6471 4.3532 15.8337 4.58332 15.8337H5.41666C5.64678 15.8337 5.83332 15.6471 5.83332 15.417V14.5837C5.83332 14.3535 5.64678 14.167 5.41666 14.167Z" fill="var(--r-neutral-body, #D3D8E0)"/>
<path d="M8.75 4.16699H7.91667C7.68654 4.16699 7.5 4.35353 7.5 4.58366V5.41699C7.5 5.64712 7.68654 5.83366 7.91667 5.83366H8.75C8.98012 5.83366 9.16667 5.64712 9.16667 5.41699V4.58366C9.16667 4.35353 8.98012 4.16699 8.75 4.16699Z" fill="var(--r-neutral-body, #D3D8E0)"/>
<path d="M8.75 14.167H7.91667C7.68654 14.167 7.5 14.3535 7.5 14.5837V15.417C7.5 15.6471 7.68654 15.8337 7.91667 15.8337H8.75C8.98012 15.8337 9.16667 15.6471 9.16667 15.417V14.5837C9.16667 14.3535 8.98012 14.167 8.75 14.167Z" fill="var(--r-neutral-body, #D3D8E0)"/>
</svg>
