<svg width="20" height="20" viewBox="0 0 20 20" fill="none" xmlns="http://www.w3.org/2000/svg">
<path fill-rule="evenodd" clip-rule="evenodd" d="M9.99982 0.714891C8.41244 0.714891 7.12562 2.00176 7.12562 3.58909C7.12562 5.92438 9.99982 7.90039 9.99982 7.90039C9.99982 7.90039 12.874 5.92438 12.874 3.58909C12.874 2.00171 11.5872 0.714891 9.99982 0.714891Z" stroke="#13141A" stroke-width="1.25" stroke-linecap="round" stroke-linejoin="round"/>
<path fill-rule="evenodd" clip-rule="evenodd" d="M9.99982 19.2851C8.41244 19.2851 7.12562 17.9982 7.12562 16.4109C7.12562 14.0756 9.99982 12.0996 9.99982 12.0996C9.99982 12.0996 12.874 14.0756 12.874 16.4109C12.874 17.9983 11.5872 19.2851 9.99982 19.2851Z" stroke="#13141A" stroke-width="1.25" stroke-linecap="round" stroke-linejoin="round"/>
<path fill-rule="evenodd" clip-rule="evenodd" d="M19.2861 10.0012C19.2861 11.5885 17.9992 12.8754 16.4119 12.8754C14.0766 12.8754 12.1006 10.0012 12.1006 10.0012C12.1006 10.0012 14.0766 7.12695 16.4119 7.12695C17.9993 7.12695 19.2861 8.41377 19.2861 10.0012Z" stroke="#13141A" stroke-width="1.25" stroke-linecap="round" stroke-linejoin="round"/>
<path fill-rule="evenodd" clip-rule="evenodd" d="M0.713915 10.0012C0.713915 11.5885 2.00078 12.8754 3.58811 12.8754C5.9234 12.8754 7.89941 10.0012 7.89941 10.0012C7.89941 10.0012 5.9234 7.12695 3.58811 7.12695C2.00073 7.12695 0.713914 8.41377 0.713915 10.0012Z" stroke="#13141A" stroke-width="1.25" stroke-linecap="round" stroke-linejoin="round"/>
</svg>
