<svg width="20" height="20" viewBox="0 0 20 20" fill="none" xmlns="http://www.w3.org/2000/svg">
<path d="M18.5725 7.14258V16.3092C18.5725 16.7695 18.1462 17.1426 17.6202 17.1426H2.38207C1.85608 17.1426 1.42969 16.7695 1.42969 16.3092V7.14258" stroke="#4B4D59" stroke-width="1.25" stroke-linecap="round" stroke-linejoin="round"/>
<path d="M1.42969 2.97591C1.42969 2.51567 1.85608 2.14258 2.38207 2.14258H17.6202C18.1462 2.14258 18.5725 2.51567 18.5725 2.97591V7.14258H1.42969V2.97591Z" stroke="#4B4D59" stroke-width="1.25" stroke-linejoin="round"/>
<path fill-rule="evenodd" clip-rule="evenodd" d="M4.28646 5.83366C4.74671 5.83366 5.11979 5.46058 5.11979 5.00033C5.11979 4.54008 4.74671 4.16699 4.28646 4.16699C3.82621 4.16699 3.45312 4.54008 3.45312 5.00033C3.45312 5.46058 3.82621 5.83366 4.28646 5.83366Z" fill="#4B4D59"/>
<path fill-rule="evenodd" clip-rule="evenodd" d="M6.78646 5.83366C7.24671 5.83366 7.61979 5.46058 7.61979 5.00033C7.61979 4.54008 7.24671 4.16699 6.78646 4.16699C6.32621 4.16699 5.95312 4.54008 5.95312 5.00033C5.95312 5.46058 6.32621 5.83366 6.78646 5.83366Z" fill="#4B4D59"/>
<path fill-rule="evenodd" clip-rule="evenodd" d="M9.28646 5.83366C9.74671 5.83366 10.1198 5.46058 10.1198 5.00033C10.1198 4.54008 9.74671 4.16699 9.28646 4.16699C8.82621 4.16699 8.45312 4.54008 8.45312 5.00033C8.45312 5.46058 8.82621 5.83366 9.28646 5.83366Z" fill="#4B4D59"/>
</svg>
