<svg width="20" height="20" viewBox="0 0 20 20" fill="none" xmlns="http://www.w3.org/2000/svg">
<path d="M15.981 2.7619C16.6667 2.7619 17.2381 3.33333 17.2381 4.01905V15.981C17.2381 16.6667 16.6667 17.2381 15.981 17.2381H4.01905C3.33333 17.2381 2.7619 16.6667 2.7619 15.981V4.01905C2.7619 3.33333 3.33333 2.7619 4.01905 2.7619H15.981ZM15.981 2H4.01905C2.91429 2 2 2.91429 2 4.01905V15.981C2 17.0857 2.91429 18 4.01905 18H15.981C17.0857 18 18 17.0857 18 15.981V4.01905C17.9619 2.91429 17.0476 2 15.981 2ZM13.6952 8.01905H7.48571L8.89524 6.60952C9.00952 6.49524 9.00952 6.34286 8.89524 6.26667L8.55238 5.92381C8.51429 5.80952 8.28571 5.80952 8.20952 5.92381L6.11429 8.01905C6.07619 8.05714 6.0381 8.09524 6.0381 8.17143C6 8.20952 6 8.24762 6 8.28571V8.78095C6 8.93333 6.11429 9.04762 6.26667 9.04762H13.7714C13.9238 9.04762 14.0381 8.93333 14.0381 8.78095V8.28571C13.9619 8.09524 13.8476 8.01905 13.6952 8.01905ZM13.7714 10H6.26667C6.11429 10 6 10.1143 6 10.1905V10.6857C6 10.8381 6 10.9905 6.49524 10.9905H12.3619L11.1048 12.2095C10.9905 12.3238 10.9905 12.4762 11.1048 12.5524L11.4476 12.8952C11.5619 13.0095 11.7143 13.0095 11.7905 12.8952L13.8476 10.9524C14 10.8762 14 10.7619 14 10.7238V10.2286C13.9619 10.1143 13.8476 10 13.7714 10Z" fill="white"/>
</svg>
