<svg width="28" height="28" viewBox="0 0 28 28" fill="none" xmlns="http://www.w3.org/2000/svg">
<path d="M14.7735 20.5674L19.7148 15.842C19.8051 15.7565 19.8769 15.6547 19.9258 15.5426C19.9748 15.4304 20 15.31 20 15.1885C20 15.0669 19.9748 14.9466 19.9258 14.8344C19.8769 14.7222 19.8051 14.6205 19.7148 14.535C19.6303 14.4456 19.5272 14.3742 19.412 14.3254C19.2969 14.2765 19.1724 14.2512 19.0464 14.2512C18.9205 14.2512 18.7959 14.2765 18.6808 14.3254C18.5657 14.3742 18.4625 14.4456 18.3781 14.535L14.9537 17.7667V9.03392C14.9707 8.90454 14.9588 8.77318 14.9186 8.64856C14.8785 8.52394 14.811 8.40892 14.7208 8.31113C14.6306 8.21335 14.5197 8.13503 14.3954 8.08139C14.2711 8.02774 14.1364 8 14 8C13.8636 8 13.7289 8.02774 13.6046 8.08139C13.4803 8.13503 13.3694 8.21335 13.2792 8.31113C13.189 8.40892 13.1215 8.52394 13.0814 8.64856C13.0412 8.77318 13.0293 8.90454 13.0463 9.03392V17.7667L9.62194 14.4057C9.40678 14.2989 9.16197 14.2595 8.92211 14.293C8.68226 14.3265 8.45947 14.4312 8.28524 14.5924C8.19487 14.6779 8.12313 14.7797 8.07417 14.8919C8.02521 15.004 8 15.1244 8 15.2459C8 15.3675 8.02521 15.4878 8.07417 15.6C8.12313 15.7122 8.19487 15.814 8.28524 15.8995L13.0613 20.5674C13.1564 20.7008 13.2841 20.8098 13.4333 20.8852C13.5825 20.9606 13.7487 21 13.9174 21C14.0861 21 14.2523 20.9606 14.4015 20.8852C14.5507 20.8098 14.6784 20.7008 14.7735 20.5674Z" fill="#8697FF"/>
</svg>
