<svg width="33" height="16" viewBox="0 0 33 16" fill="none" xmlns="http://www.w3.org/2000/svg">
<path d="M10.2925 8.10596L12.3335 4.17969H13.5044L10.8081 9.0835V12H9.77686V9.0835L7.08057 4.17969H8.26221L10.2925 8.10596ZM13.7407 9.04053C13.7407 8.47119 13.8517 7.95915 14.0737 7.50439C14.2993 7.04964 14.6108 6.69873 15.0083 6.45166C15.4093 6.20459 15.8659 6.08105 16.3779 6.08105C17.1693 6.08105 17.8084 6.35498 18.2954 6.90283C18.786 7.45068 19.0312 8.17936 19.0312 9.08887V9.15869C19.0312 9.72445 18.922 10.2329 18.7036 10.6841C18.4888 11.1317 18.179 11.4808 17.7744 11.7314C17.3734 11.9821 16.9115 12.1074 16.3887 12.1074C15.6009 12.1074 14.9618 11.8335 14.4712 11.2856C13.9842 10.7378 13.7407 10.0127 13.7407 9.11035V9.04053ZM14.7397 9.15869C14.7397 9.80322 14.8883 10.3206 15.1855 10.7109C15.4863 11.1012 15.8874 11.2964 16.3887 11.2964C16.8936 11.2964 17.2946 11.0994 17.5918 10.7056C17.889 10.3081 18.0376 9.75309 18.0376 9.04053C18.0376 8.40316 17.8854 7.88753 17.5811 7.49365C17.2803 7.09619 16.8792 6.89746 16.3779 6.89746C15.8874 6.89746 15.4917 7.09261 15.1909 7.48291C14.8901 7.87321 14.7397 8.4318 14.7397 9.15869ZM23.8652 11.4253C23.4785 11.88 22.911 12.1074 22.1626 12.1074C21.5431 12.1074 21.0705 11.9284 20.7446 11.5703C20.4224 11.2087 20.2594 10.6751 20.2559 9.96973V6.18848H21.2495V9.94287C21.2495 10.8237 21.6076 11.2642 22.3237 11.2642C23.0828 11.2642 23.5877 10.9813 23.8384 10.4155V6.18848H24.832V12H23.8867L23.8652 11.4253Z" fill="#8697FF"/>
<rect x="0.25" y="0.25" width="32.5" height="15.5" rx="7.75" stroke="#8697FF" stroke-width="0.5"/>
</svg>
