<svg width="128" height="128" viewBox="0 0 128 128" fill="none" xmlns="http://www.w3.org/2000/svg">
<rect width="128" height="128" rx="64" fill="white"/>
<path d="M63.5385 28C53.7708 28 45.8669 35.9938 45.8669 45.8717V52.5718C42.4404 53.1975 39 54.0342 39 55.1239V90.0728C39 90.0728 39 91.0431 40.0721 91.5C43.968 93.096 59.2783 98.5798 62.8028 99.8313C63.2512 100 63.3844 100 63.4965 100C63.6647 100 63.7487 100 64.1972 99.8313C67.7147 98.5728 83.0671 93.096 86.963 91.5C87.5375 91.268 87.9369 90.7337 88 90.115V55.1169C88 54.0271 84.6086 53.1554 81.1682 52.5648V45.8647C81.2172 35.9938 73.2643 28 63.5385 28ZM63.5385 35.0306C69.8308 35.0306 73.6356 38.9114 73.6356 45.3233V51.7422C66.9229 51.236 60.1752 51.236 53.4625 51.7422V45.3233C53.4555 38.8974 57.2603 35.0306 63.5385 35.0306ZM63.4895 57.5073C73.5095 57.5073 81.9179 58.2666 81.9179 59.6305V86.0443C81.9179 86.4521 81.8689 86.5013 81.4975 86.649C81.1401 86.8036 64.4004 92.7304 64.4004 92.7304C64.4004 92.7304 63.7277 92.9343 63.5315 92.9343C63.3213 92.9343 62.6557 92.6812 62.6557 92.6812C62.6557 92.6812 45.9229 86.7544 45.5656 86.5997C45.2082 86.4451 45.1451 86.3959 45.1451 85.9951V59.5883C45.0541 58.2244 53.4695 57.5073 63.4895 57.5073Z" fill="#525966"/>
</svg>
