<svg width="20" height="20" viewBox="0 0 20 20" fill="none" xmlns="http://www.w3.org/2000/svg">
<path d="M2.08398 14.8983C2.88768 15.3426 8.7054 18.6963 12.8423 16.1116C16.9791 13.5269 16.7509 9.07377 16.7509 7.03323C17.1257 6.24814 17.9173 5.84902 17.9173 3.72398C17.1397 4.44231 16.3668 4.68673 15.5986 4.45723C14.8459 3.30972 13.8104 2.80217 12.4921 2.93462C10.5145 3.13329 9.79103 5.07344 10.0039 7.58352C6.95478 9.12548 4.56378 6.46573 3.33156 4.45723C2.91985 6.03902 2.52286 7.93806 3.33156 10.0389C3.87069 11.4394 5.16669 12.6234 7.21957 13.591C5.13911 14.7186 3.42724 15.1543 2.08398 14.8983Z" stroke="#4B4D59" stroke-width="1.25" stroke-linejoin="round"/>
</svg>
