<svg width="16" height="16" viewBox="0 0 16 16" fill="none" xmlns="http://www.w3.org/2000/svg">
    <path
        d="M1.66895 11.9185C2.3119 12.2739 6.96608 14.9568 10.2756 12.8891C13.585 10.8213 13.4025 7.25882 13.4025 5.62639C13.7023 4.99832 14.3356 4.67902 14.3356 2.97899C13.7135 3.55365 13.0952 3.74919 12.4806 3.56559C11.8785 2.64758 11.0501 2.24154 9.99541 2.3475C8.41338 2.50643 7.83458 4.05855 8.00491 6.06662C5.56558 7.30019 3.65278 5.17239 2.66701 3.56559C2.33764 4.83102 2.02005 6.35025 2.66701 8.03089C3.09831 9.15129 4.13511 10.0985 5.77741 10.8726C4.11304 11.7747 2.74355 12.1233 1.66895 11.9185Z"
        fill="#1B87EB" stroke="#1B87EB" stroke-linejoin="round" />
</svg>