<svg width="36" height="36" viewBox="0 0 36 36" fill="none" xmlns="http://www.w3.org/2000/svg">
<circle cx="18" cy="18" r="18" fill="#E5E9EF"/>
<path d="M17.8115 10C14.9291 10.3081 13.3277 11.5113 13.0074 13.6083C12.9433 14.287 13.2955 14.6572 14.0644 14.7187C14.4484 14.7806 14.7687 14.503 15.025 13.886C15.4094 12.5907 16.337 11.943 17.8115 11.943C19.604 12.0662 20.5649 12.9298 20.6942 14.5336C20.6942 16.0143 19.6507 16.2556 19.0839 16.702C18.3657 17.2679 17.8959 17.8419 17.321 18.8148C16.8378 19.6322 16.7545 21.3809 16.7545 21.3809C16.7545 22.1211 17.1059 22.4913 17.8115 22.4913C18.451 22.4913 18.8044 22.1211 18.8687 21.3809C18.8687 21.3809 18.9533 19.4184 19.7761 18.5507C20.7086 17.5672 22.9359 16.8777 23 14.3487C22.7437 11.6962 21.0142 10.2466 17.8115 10ZM17.8115 23.4245C17.0728 23.4245 16.4744 24.0012 16.4744 24.7121C16.4744 25.4234 17.0728 26 17.8115 26C18.5501 26 19.1488 25.4235 19.1488 24.7121C19.1488 24.0012 18.5501 23.4245 17.8115 23.4245Z" fill="#B4BDCC"/>
</svg>
