<svg width="9" height="12" viewBox="0 0 9 12" fill="none" xmlns="http://www.w3.org/2000/svg">
<path d="M4.38658 10.3849L1.03911 7.47436C0.791934 7.25854 0.403514 7.25854 0.177524 7.47436C-0.0484662 7.69019 -0.0696462 8.02933 0.177524 8.22665L3.95579 11.5256C4.20297 11.7415 4.59139 11.7415 4.81738 11.5256L8.5956 8.22665C8.8428 8.01083 8.8428 7.67168 8.5956 7.47436C8.3485 7.27704 7.96 7.25854 7.7341 7.47436L4.38658 10.3849Z" fill="#0A0D10"/>
<path d="M4.37891 1.61512L7.7146 4.52563C7.9609 4.74146 8.3479 4.74146 8.5731 4.52563C8.7983 4.30981 8.8194 3.97067 8.5731 3.77334L4.80818 0.474365C4.56188 0.258545 4.17483 0.258545 3.94964 0.474365L0.184732 3.77334C-0.0615775 3.98917 -0.0615775 4.32831 0.184732 4.52563C0.431032 4.72296 0.818083 4.74146 1.04327 4.52563L4.37891 1.61512Z" fill="#0A0D10"/>
</svg>
