<svg xmlns="http://www.w3.org/2000/svg" width="40" height="40" viewBox="0 0 40 40" fill="none">
  <path d="M25.884 21.2769L20.884 16.379C20.6496 16.1494 20.3317 16.0204 20.0002 16.0204C19.6687 16.0204 19.3508 16.1494 19.1164 16.379L14.1164 21.2769C13.9975 21.39 13.9028 21.5251 13.8377 21.6744C13.7727 21.8236 13.7385 21.9841 13.7373 22.1464C13.7361 22.3087 13.7678 22.4696 13.8307 22.6198C13.8935 22.77 13.9862 22.9064 14.1034 23.0212C14.2206 23.1359 14.3598 23.2267 14.5131 23.2883C14.6665 23.3499 14.8307 23.381 14.9964 23.3798C15.1621 23.3786 15.3259 23.3451 15.4783 23.2814C15.6306 23.2176 15.7685 23.1249 15.884 23.0084L18.75 20.2009V33.7755C18.75 34.1003 18.8817 34.4117 19.1161 34.6414C19.3505 34.871 19.6685 35 20 35C20.3315 35 20.6495 34.871 20.8839 34.6414C21.1183 34.4117 21.25 34.1003 21.25 33.7755V20.2009L24.116 23.0084C24.2315 23.1249 24.3694 23.2176 24.5217 23.2814C24.6741 23.3451 24.8379 23.3786 25.0036 23.3798C25.1693 23.381 25.3335 23.3499 25.4869 23.2883C25.6402 23.2267 25.7794 23.1359 25.8966 23.0212C26.0138 22.9064 26.1065 22.77 26.1693 22.6198C26.2322 22.4696 26.2639 22.3087 26.2627 22.1464C26.2615 21.9841 26.2273 21.8236 26.1623 21.6744C26.0972 21.5251 26.0025 21.39 25.8836 21.2769H25.884ZM29.375 29.4898H25C24.6685 29.4898 24.3505 29.3608 24.1161 29.1312C23.8817 28.9015 23.75 28.5901 23.75 28.2653C23.75 27.9406 23.8817 27.6291 24.1161 27.3995C24.3505 27.1698 24.6685 27.0408 25 27.0408H29.375C32.4766 27.0408 35 24.5689 35 21.5306C35 20.1457 34.4677 18.8116 33.509 17.7937C32.5502 16.7759 31.2354 16.1491 29.8262 16.038C29.5389 16.0158 29.2683 15.897 29.0601 15.7017C28.852 15.5065 28.7191 15.2468 28.684 14.9666C28.1484 10.6809 24.4141 7.44898 20 7.44898C15.5859 7.44898 11.8516 10.6809 11.316 14.9662C11.2809 15.2464 11.148 15.5061 10.9399 15.7013C10.7317 15.8966 10.4611 16.0154 10.1738 16.0376C8.76455 16.1487 7.44965 16.7756 6.4909 17.7935C5.53215 18.8114 4.99986 20.1456 5 21.5306C5 24.5689 7.52344 27.0408 10.625 27.0408H15C15.3315 27.0408 15.6495 27.1698 15.8839 27.3995C16.1183 27.6291 16.25 27.9406 16.25 28.2653C16.25 28.5901 16.1183 28.9015 15.8839 29.1312C15.6495 29.3608 15.3315 29.4898 15 29.4898H10.625C6.14492 29.4898 2.5 25.9193 2.5 21.5306C2.50034 19.6972 3.1466 17.92 4.32963 16.4993C5.51266 15.0785 7.15997 14.1013 8.99336 13.7325C10.0781 8.6926 14.6484 5 20 5C25.3516 5 29.9219 8.6926 31.0066 13.7325C32.84 14.1013 34.4873 15.0785 35.6704 16.4993C36.8534 17.92 37.4997 19.6972 37.5 21.5306C37.5 25.9193 33.8551 29.4898 29.375 29.4898Z" fill="var(--r-neutral-body, #3E495E)"/>
</svg>