<svg xmlns="http://www.w3.org/2000/svg" width="60" height="60" viewBox="0 0 60 60" fill="none">
    <path
        d="M14.743 4C13.8059 4.67269 13.0465 5.5634 12.5306 6.59522C12.0147 7.62704 11.7577 8.76894 11.7819 9.9223C11.7577 11.0757 12.0147 12.2176 12.5306 13.2494C13.0465 14.2812 13.8059 15.1719 14.743 15.8446"
        stroke="white" stroke-width="4.06167" stroke-linecap="round" stroke-linejoin="round" />
    <path
        d="M25.8309 4C24.8937 4.67269 24.1344 5.5634 23.6184 6.59522C23.1025 7.62704 22.8456 8.76894 22.8697 9.9223C22.8458 11.0756 23.1029 12.2174 23.6188 13.2492C24.1347 14.281 24.8939 15.1717 25.8309 15.8446"
        stroke="white" stroke-width="4.06167" stroke-linecap="round" stroke-linejoin="round" />
    <path
        d="M37.284 4C36.3468 4.67269 35.5875 5.5634 35.0716 6.59522C34.5556 7.62704 34.2987 8.76894 34.3228 9.9223C34.2989 11.0756 34.556 12.2174 35.0719 13.2492C35.5878 14.281 36.347 15.1717 37.284 15.8446"
        stroke="white" stroke-width="4.06167" stroke-linecap="round" stroke-linejoin="round" />
    <path
        d="M45.2386 44.6423C46.5611 45.2494 48.0124 45.5223 49.465 45.4371C50.9177 45.3519 52.3271 44.9111 53.5695 44.1536C54.8119 43.3961 55.8492 42.3449 56.5902 41.0926C57.3312 39.8403 57.7532 38.4251 57.8192 36.9715C57.8851 35.5178 57.593 34.0703 56.9684 32.756C56.3438 31.4417 55.406 30.301 54.2373 29.4341C53.0686 28.5671 51.7048 28.0006 50.2659 27.7842C48.8269 27.5678 47.3568 27.7082 45.9849 28.1931"
        stroke="white" stroke-width="4.06167" stroke-linecap="round" stroke-linejoin="round" />
    <path
        d="M4.51559 24.739H45.9717V39.5447C45.9717 44.2568 44.0998 48.7759 40.7679 52.1078C37.4359 55.4397 32.9169 57.3116 28.2048 57.3116H22.2825C17.5704 57.3116 13.0513 55.4397 9.7194 52.1078C6.38746 48.7759 4.51559 44.2568 4.51559 39.5447V24.739Z"
        fill="white" stroke="white" stroke-width="4.06167" stroke-linecap="round" stroke-linejoin="round" />
</svg>