<svg width="20" height="20" viewBox="0 0 20 20" fill="none" xmlns="http://www.w3.org/2000/svg">
<path fill-rule="evenodd" clip-rule="evenodd" d="M16.0503 2.58594C16.8647 2.58594 17.525 3.36401 17.525 4.32382V7.31458H12.8094C11.5624 7.31458 10.5492 8.49394 10.5291 9.95778L10.5288 10.0022C10.5288 11.4717 11.5295 12.6658 12.7717 12.6895L12.8094 12.6899H17.525V15.6806C17.525 16.6404 16.8647 17.4185 16.0503 17.4185H2.57234C1.7579 17.4185 1.09766 16.6404 1.09766 15.6806V4.32382C1.09766 3.36401 1.7579 2.58594 2.57234 2.58594H16.0503ZM18.2792 8.07812C18.6201 8.07812 18.8965 8.40383 18.8965 8.80561V11.1901C18.8965 11.5919 18.6201 11.9176 18.2792 11.9176H12.9806C12.0809 11.9176 11.3516 11.0581 11.3516 9.99787C11.3516 8.93763 12.0809 8.07812 12.9806 8.07812H18.2792Z" fill="currentColor"/>
</svg>
