<svg xmlns="http://www.w3.org/2000/svg" width="28" height="28" viewBox="0 0 28 28" fill="none">
  <rect width="28" height="28" rx="14" fill="#F2F4F7"/>
  <path d="M14.0014 12.2685C15.9179 12.2685 17.4716 10.7148 17.4716 8.79829C17.4716 6.88177 15.9179 5.32812 14.0014 5.32812C12.0849 5.32812 10.5312 6.88177 10.5312 8.79829C10.5312 10.7148 12.0849 12.2685 14.0014 12.2685Z" fill="#6A7587"/>
  <path d="M20.0144 21.7447C21.0996 21.4028 21.67 20.204 21.2094 19.1642C19.9854 16.3994 17.2231 14.4688 14.0053 14.4688C10.7875 14.4688 8.02527 16.3994 6.80125 19.1642C6.34066 20.2053 6.91103 21.4028 7.99625 21.7447C9.54205 22.2318 11.5876 22.671 14.0053 22.671C16.4231 22.671 18.4686 22.2318 20.0144 21.7447Z" fill="#6A7587"/>
</svg>