<svg width="14" height="13" viewBox="0 0 14 13" fill="none" xmlns="http://www.w3.org/2000/svg">
<path d="M13.8411 6.90826C14.3875 5.68345 11.6862 2.26154 9.10545 0.835902C7.47874 -0.268523 5.78372 -0.116794 5.44043 0.368132C4.68703 1.43235 7.93513 2.33411 10.1074 3.3864C9.64044 3.58989 9.2004 3.95507 8.94164 4.42209C8.1318 3.53497 6.35431 2.77104 4.26862 3.3864C2.86312 3.80108 1.69504 4.77869 1.24358 6.25527C1.13388 6.20636 1.01243 6.17918 0.884651 6.17918C0.396021 6.17918 -9.15527e-05 6.57663 -9.15527e-05 7.06691C-9.15527e-05 7.55718 0.396021 7.95463 0.884651 7.95463C0.975221 7.95463 1.25841 7.89368 1.25841 7.89368L5.78372 7.92658C3.97395 10.8073 2.54372 11.2284 2.54372 11.7275C2.54372 12.2265 3.91219 12.0913 4.42603 11.9053C6.8858 11.0147 9.52772 8.23931 9.98107 7.44036C11.8849 7.67869 13.4848 7.70688 13.8411 6.90826Z" fill="#8697FF"/>
<path fill-rule="evenodd" clip-rule="evenodd" d="M10.0987 3.38021C10.1021 3.3817 10.1055 3.38318 10.1089 3.38467C10.2096 3.34488 10.1933 3.19566 10.1657 3.07849C10.1021 2.80917 9.00568 1.72283 7.97607 1.23626C6.57884 0.575946 5.54845 0.607144 5.38928 0.909264C5.67984 1.4952 7.00133 2.04557 8.38134 2.62031C8.97168 2.86617 9.57273 3.11649 10.1084 3.37597C10.1051 3.37737 10.1019 3.37879 10.0987 3.38021Z" fill="#8697FF"/>
<path fill-rule="evenodd" clip-rule="evenodd" d="M8.32657 9.30239C8.04263 9.19346 7.72184 9.09354 7.35709 9.00287C7.7456 8.30533 7.82713 7.27268 7.4602 6.61979C6.94526 5.70352 6.29884 5.21582 4.79673 5.21582C3.97057 5.21582 1.74617 5.49504 1.70668 7.35817C1.70253 7.55406 1.7066 7.73356 1.72077 7.89861L5.78274 7.92814C5.23543 8.79932 4.72283 9.44555 4.274 9.93702C4.81269 10.0755 5.2573 10.1918 5.66551 10.2986C6.05345 10.4001 6.40851 10.4929 6.78019 10.5881C7.34018 10.1787 7.8666 9.73224 8.32657 9.30239Z" fill="#8697FF"/>
<path d="M1.18993 7.70627C1.35586 9.1216 2.15752 9.67627 3.79564 9.84042C5.43376 10.0046 6.37341 9.89445 7.6244 10.0087C8.66922 10.104 9.60212 10.6383 9.94821 10.4536C10.2597 10.2875 10.0854 9.68722 9.66865 9.30211C9.12841 8.80291 8.38071 8.45583 7.0651 8.33265C7.32728 7.61236 7.25381 6.60242 6.84661 6.05295C6.25784 5.25847 5.17109 4.89927 3.79565 5.05621C2.35863 5.22017 0.981682 5.93004 1.18993 7.70627Z" fill="#8697FF"/>
</svg>
