<svg width="14" height="13" viewBox="0 0 14 13" fill="none" xmlns="http://www.w3.org/2000/svg">
<path d="M13.8411 6.90826C14.3875 5.68345 11.6861 2.26154 9.10542 0.835902C7.47871 -0.268523 5.78369 -0.116794 5.44039 0.368132C4.687 1.43235 7.9351 2.33411 10.1074 3.3864C9.64041 3.58989 9.20037 3.95507 8.94161 4.42209C8.13177 3.53497 6.35428 2.77104 4.26859 3.3864C2.86309 3.80108 1.69501 4.77869 1.24355 6.25527C1.13385 6.20636 1.0124 6.17918 0.88462 6.17918C0.39599 6.17918 -0.00012207 6.57663 -0.00012207 7.06691C-0.00012207 7.55718 0.39599 7.95463 0.88462 7.95463C0.975191 7.95463 1.25837 7.89368 1.25837 7.89368L5.78369 7.92658C3.97392 10.8073 2.54369 11.2284 2.54369 11.7275C2.54369 12.2265 3.91216 12.0913 4.426 11.9053C6.88577 11.0147 9.52769 8.23931 9.98104 7.44036C11.8848 7.67869 13.4848 7.70688 13.8411 6.90826Z" fill="#D9DEE5"/>
<path fill-rule="evenodd" clip-rule="evenodd" d="M10.0987 3.38021C10.1021 3.3817 10.1055 3.38318 10.1089 3.38467C10.2096 3.34488 10.1933 3.19566 10.1656 3.07849C10.1021 2.80917 9.00565 1.72283 7.97604 1.23626C6.57881 0.575946 5.54842 0.607144 5.38925 0.909264C5.67981 1.4952 7.0013 2.04557 8.38131 2.62031C8.97165 2.86617 9.5727 3.11649 10.1083 3.37597C10.1051 3.37737 10.1019 3.37879 10.0987 3.38021Z" fill="#D9DEE5"/>
<path fill-rule="evenodd" clip-rule="evenodd" d="M8.32654 9.30239C8.0426 9.19346 7.72181 9.09354 7.35706 9.00287C7.74557 8.30533 7.8271 7.27268 7.46017 6.61979C6.94523 5.70352 6.29881 5.21582 4.7967 5.21582C3.97054 5.21582 1.74614 5.49504 1.70665 7.35817C1.7025 7.55406 1.70657 7.73356 1.72074 7.89861L5.78271 7.92814C5.2354 8.79932 4.72279 9.44555 4.27397 9.93702C4.81266 10.0755 5.25727 10.1918 5.66548 10.2986C6.05342 10.4001 6.40848 10.4929 6.78016 10.5881C7.34015 10.1787 7.86657 9.73224 8.32654 9.30239Z" fill="#D9DEE5"/>
<path d="M1.1899 7.70627C1.35583 9.1216 2.15749 9.67627 3.79561 9.84042C5.43373 10.0046 6.37338 9.89445 7.62437 10.0087C8.66919 10.104 9.60209 10.6383 9.94818 10.4536C10.2596 10.2875 10.0854 9.68722 9.66862 9.30211C9.12838 8.80291 8.38068 8.45583 7.06507 8.33265C7.32725 7.61236 7.25378 6.60242 6.84658 6.05295C6.25781 5.25847 5.17106 4.89927 3.79562 5.05621C2.3586 5.22017 0.981651 5.93004 1.1899 7.70627Z" fill="#D9DEE5"/>
</svg>
