<svg xmlns="http://www.w3.org/2000/svg" width="24" height="24" viewBox="0 0 24 24" fill="none">
  <path d="M10.5992 16.5289C10.1605 16.9677 9.56544 17.2141 8.94497 17.2141C8.32449 17.2141 7.72943 16.9677 7.29069 16.5289C6.85195 16.0902 6.60547 15.4951 6.60547 14.8747C6.60547 14.2542 6.85195 13.6591 7.29069 13.2204C7.72943 12.7816 8.32449 12.5352 8.94497 12.5352C9.56544 12.5352 10.1605 12.7816 10.5992 13.2204C11.038 13.6591 11.2845 14.2542 11.2845 14.8747C11.2845 15.4951 11.038 16.0902 10.5992 16.5289Z" fill="#4C65FF"/>
  <path d="M16.7134 16.5289C16.2747 16.9677 15.6796 17.2141 15.0591 17.2141C14.4387 17.2141 13.8436 16.9677 13.4049 16.5289C12.9661 16.0902 12.7196 15.4951 12.7196 14.8747C12.7196 14.2542 12.9661 13.6591 13.4049 13.2204C13.8436 12.7816 14.4387 12.5352 15.0591 12.5352C15.6796 12.5352 16.2747 12.7816 16.7134 13.2204C17.1522 13.6591 17.3986 14.2542 17.3986 14.8747C17.3986 15.4951 17.1522 16.0902 16.7134 16.5289Z" fill="#4C65FF"/>
  <path d="M12 5.21875C5.64804 5.21875 0.498499 10.4664 0.5 16.938H3.43795C3.43795 12.0883 7.24091 8.1562 12 8.1562C16.7591 8.1562 20.562 12.0883 20.562 16.938H23.5C23.501 10.4664 18.351 5.21875 12 5.21875Z" fill="currentColor"/>
</svg>