<svg width="24" height="24" viewBox="0 0 24 24" fill="none" xmlns="http://www.w3.org/2000/svg">
<path d="M11.3361 10.8871C13.4035 10.8871 15.0794 9.21111 15.0794 7.14372C15.0794 5.07634 13.4035 3.40039 11.3361 3.40039C9.26872 3.40039 7.59277 5.07634 7.59277 7.14372C7.59277 9.21111 9.26872 10.8871 11.3361 10.8871Z" stroke="currentColor" stroke-width="2" stroke-linecap="round" stroke-linejoin="round"/>
<path d="M9.25342 13.5381C9.14976 14.1174 9.27096 14.8105 9.43799 15.5361C8.44293 15.5369 7.71335 15.5421 7.12939 15.5898C6.47811 15.6431 6.09628 15.7433 5.80322 15.8926C5.18642 16.2069 4.68489 16.7084 4.37061 17.3252C4.22131 17.6182 4.12111 18.0001 4.06787 18.6514C4.01918 19.2473 4.01577 19.9949 4.01514 21.0215H10.0327C10.1528 21.8918 10.4119 22.5607 10.9683 23.0215H3.01318C2.4609 23.0215 2.01318 22.5738 2.01318 22.0215V21.3799C2.01318 20.1987 2.01236 19.2527 2.07471 18.4893C2.13805 17.714 2.27144 17.039 2.58838 16.417C3.0944 15.4239 3.90189 14.6164 4.89502 14.1104C5.51705 13.7934 6.19207 13.66 6.96729 13.5967C7.59579 13.5454 8.34808 13.5395 9.25342 13.5381Z" fill="currentColor"/>
<path d="M6.67755 14.5527C8.6761 14.5529 8.36586 14.5527 13.6045 14.5527" stroke="currentColor" stroke-width="2" stroke-linecap="round" stroke-linejoin="round"/>
<path d="M5.40151 22.0253C7.40005 22.0251 7.63347 22.0252 12.0615 22.0256" stroke="currentColor" stroke-width="2" stroke-linecap="round" stroke-linejoin="round"/>
<path d="M18.848 13.6261L20.0922 12.5201C20.194 12.4297 20.332 12.3789 20.4759 12.3789C20.6198 12.3789 20.7577 12.4297 20.8595 12.5201L22.2628 13.7675C22.3645 13.8579 22.4216 13.9806 22.4216 14.1085C22.4216 14.2364 22.3645 14.359 22.2628 14.4495L21.0185 15.5555M18.848 13.6261L13.5806 18.3082C13.4789 18.3987 13.4217 18.5213 13.4216 18.6492V19.8966C13.4216 20.0245 13.4788 20.1472 13.5806 20.2376C13.6823 20.3281 13.8203 20.3789 13.9643 20.3789H15.3675C15.5114 20.3789 15.6494 20.328 15.7512 20.2376L21.0185 15.5555M18.848 13.6261L21.0185 15.5555" stroke="#4C65FF" stroke-linecap="round" stroke-linejoin="round"/>
</svg>
