<svg xmlns="http://www.w3.org/2000/svg" width="24" height="24" viewBox="0 0 24 24" fill="none">
  <path d="M3.6181 14.9577C5.97861 14.9577 7.73659 17.0465 7.2372 19.2578L6.78939 21.2407C4.17349 20.0405 2.21395 17.7363 1.56709 14.9577H3.6181Z" stroke="currentColor" stroke-width="1.8375" stroke-linejoin="round"/>
  <path d="M9.60104 8.27565C9.00415 10.9177 6.56565 12.803 3.74526 12.803H1.56709C1.52294 12.4453 1.5 12.0813 1.5 11.7121C1.5 6.69705 5.69159 2.62026 10.9 2.52502L9.60104 8.27565Z" stroke="currentColor" stroke-width="1.8375" stroke-linejoin="round"/>
  <path d="M13.7015 2.64833C18.6273 3.03247 22.5 6.9858 22.5 11.8063C22.5 12.1754 22.4771 12.5394 22.4329 12.8972H15.9772C13.6167 12.8972 11.8586 10.8084 12.3581 8.5971L13.7015 2.64833Z" stroke="currentColor" stroke-width="1.8375" stroke-linejoin="round"/>
  <path d="M21.7143 15.2963C20.758 19.4043 16.9321 22.475 12.358 22.475C11.223 22.475 10.134 22.2861 9.12354 21.9389L9.60098 19.8244C10.1977 17.1821 12.6364 15.2964 15.4568 15.2963H21.7143Z" stroke="#4C65FF" stroke-width="1.8375" stroke-linejoin="round"/>
</svg>