<svg xmlns="http://www.w3.org/2000/svg" width="24" height="24" viewBox="0 0 24 24" fill="none">
  <path d="M12.5916 2.41406C18.1271 2.69487 22.5291 7.27256 22.5291 12.8779L22.5154 13.417C22.4803 14.1084 22.3783 14.782 22.2156 15.4316H20.1375C20.3918 14.6257 20.529 13.7679 20.5291 12.8779C20.5291 8.19634 16.734 4.40065 12.0525 4.40039C7.37093 4.40062 3.57495 8.19632 3.57495 12.8779C3.57501 13.7679 3.71313 14.6257 3.96753 15.4316H1.89038C1.72759 14.7819 1.62371 14.1085 1.58862 13.417L1.57495 12.8779C1.57495 7.09175 6.26637 2.40062 12.0525 2.40039L12.5916 2.41406Z" fill="currentColor"/>
  <circle cx="3.00146" cy="16.4971" r="2.5" fill="#4C65FF"/>
  <circle cx="21.0015" cy="16.4971" r="2.5" fill="#4C65FF"/>
</svg>