<svg xmlns="http://www.w3.org/2000/svg" width="24" height="24" viewBox="0 0 24 24" fill="none">
  <path d="M14.6331 12.9509L16.0411 12.4384C15.8906 12.0254 15.7076 11.6294 15.4901 11.2539L14.1921 12.0034C14.3661 12.3034 14.5126 12.6204 14.6331 12.9509Z" fill="#4C65FF"/>
  <path d="M13.5945 11.1458L14.743 10.1818C14.4625 9.84781 14.153 9.53831 13.819 9.25781L12.855 10.4063C13.1225 10.6313 13.37 10.8788 13.5945 11.1458Z" fill="#4C65FF"/>
  <path d="M11.9975 9.80603L12.747 8.50803C12.3715 8.29103 11.9755 8.10753 11.5625 7.95703L11.05 9.36503C11.3805 9.48553 11.6975 9.63203 11.9975 9.80603Z" fill="#4C65FF"/>
  <path d="M9.36698 11.0508L7.95898 11.5633C8.10948 11.9763 8.29248 12.3723 8.50998 12.7478L9.80798 11.9983C9.63398 11.6983 9.48748 11.3813 9.36698 11.0508Z" fill="currentColor"/>
  <path d="M10.4056 12.8555L9.25708 13.8195C9.53758 14.1535 9.84708 14.463 10.1811 14.7435L11.1451 13.595C10.8776 13.37 10.6301 13.1225 10.4056 12.8555Z" fill="currentColor"/>
  <path d="M12.0024 14.1914L11.2529 15.4894C11.6284 15.7064 12.0244 15.8899 12.4374 16.0404L12.9499 14.6324C12.6194 14.5119 12.3024 14.3654 12.0024 14.1914Z" fill="currentColor"/>
  <path d="M15 1.5C11.348 1.5 8.2755 4.095 7.626 7.626C4.095 8.2755 1.5 11.348 1.5 15C1.5 19.1355 4.8645 22.5 9 22.5C12.652 22.5 15.7245 19.905 16.374 16.374C19.905 15.7245 22.5 12.652 22.5 9C22.5 4.8645 19.1355 1.5 15 1.5ZM16.4905 14.807C16.4795 14.4305 16.443 14.06 16.3795 13.699L14.9035 13.9595C14.963 14.2975 15 14.6445 15 15C14.6445 15 14.2975 14.963 13.959 14.904L13.6985 16.38C14.06 16.4435 14.43 16.4795 14.8065 16.491C14.1415 19.1125 11.7845 21 9 21C5.6915 21 3 18.3085 3 15C3 12.2155 4.8875 9.8585 7.5095 9.193C7.5205 9.5695 7.557 9.94 7.6205 10.301L9.0965 10.0405C9.037 9.7025 9 9.3555 9 9C9.3555 9 9.7025 9.037 10.041 9.096L10.3015 7.62C9.94 7.5565 9.57 7.5205 9.1935 7.509C9.8585 4.8875 12.2155 3 15 3C18.3085 3 21 5.6915 21 9C21 11.7845 19.1125 14.1415 16.4905 14.807Z" fill="currentColor"/>
  <path d="M15 1.5C19.1355 1.5 22.5 4.8645 22.5 9C22.5 12.5152 20.0955 15.4916 16.7666 16.2891V15.9688C16.7666 15.5562 16.7355 15.1508 16.6787 14.7539C19.2021 14.0255 21 11.7173 21 9C21 5.6915 18.3085 3 15 3C12.2156 3.00006 9.8584 4.8874 9.19336 7.50879C9.56986 7.52029 9.94026 7.55662 10.3018 7.62012L10.2852 7.71191C9.638 7.55425 8.96229 7.46875 8.2666 7.46875H7.65918C8.36992 4.01851 11.4026 1.50006 15 1.5Z" fill="#4C65FF"/>
</svg>