<svg xmlns="http://www.w3.org/2000/svg" width="24" height="24" viewBox="0 0 24 24" fill="none">
  <g clip-path="url(#clip0_135415_2493)">
    <path d="M17.3716 18.5064C18.4026 17.3776 19.1973 15.8182 19.6269 14.9717C20.3787 15.8182 22.0112 17.9421 22.5267 19.0708C23.1711 20.4817 21.5601 22.1749 19.6269 22.1749C17.6938 22.1749 16.0828 19.9174 17.3716 18.5064Z" stroke="#4C65FF" stroke-width="2" stroke-linecap="round" stroke-linejoin="round"/>
    <path d="M22.6689 12.0873C22.6689 6.5178 18.1539 2.00281 12.5844 2.00281C7.01487 2.00281 2.49988 6.5178 2.49988 12.0873C2.49987 17.6569 7.01487 22.1719 12.5844 22.1719" stroke="currentColor" stroke-width="2" stroke-linecap="round" stroke-linejoin="round"/>
    <path d="M12.5909 6.89325C10.4444 6.89325 8.70117 8.06017 8.70117 9.48643C8.70117 10.9127 10.4444 12.0796 12.5909 12.0796C14.7375 12.0796 16.4807 13.2465 16.4807 14.6728C16.4807 16.099 14.7375 17.2659 12.5909 17.2659M12.5909 6.89325V17.2659M12.5909 6.89325C14.0316 6.89325 15.2849 7.4119 15.9621 8.18985L12.5909 6.89325ZM12.5909 6.89325V5.59668M12.5909 17.2659V18.5625M12.5909 17.2659C11.1503 17.2659 9.89692 16.7473 9.21978 15.9693L12.5909 17.2659Z" stroke="#4C65FF" stroke-width="2" stroke-linecap="round" stroke-linejoin="round"/>
  </g>
  <defs>
    <clipPath id="clip0_135415_2493">
      <rect width="24" height="24" fill="white"/>
    </clipPath>
  </defs>
</svg>