<svg width="20" height="20" viewBox="0 0 20 20" fill="none" xmlns="http://www.w3.org/2000/svg">
<path d="M14.4758 15.4222C15.335 14.4815 15.9973 13.182 16.3553 12.4766C16.9818 13.182 18.3421 14.9519 18.7718 15.8925C19.3087 17.0683 17.9663 18.4793 16.3553 18.4793C14.7443 18.4793 13.4018 16.598 14.4758 15.4222Z" stroke="#4C65FF" stroke-width="1.75" stroke-linecap="round" stroke-linejoin="round"/>
<path d="M18.8906 10.065C18.8906 5.42369 15.1281 1.66119 10.4868 1.66119C5.84556 1.66119 2.08307 5.42369 2.08307 10.065C2.08306 14.7063 5.84556 18.4687 10.4868 18.4687" stroke="currentColor" stroke-width="1.75" stroke-linecap="round" stroke-linejoin="round"/>
<path d="M10.4915 5.74454C8.70267 5.74454 7.25 6.71697 7.25 7.90552C7.25 9.09405 8.70267 10.0665 10.4915 10.0665C12.2803 10.0665 13.7329 11.0389 13.7329 12.2275C13.7329 13.416 12.2803 14.3884 10.4915 14.3884M10.4915 5.74454V14.3884M10.4915 5.74454C11.692 5.74454 12.7365 6.17674 13.3007 6.82503L10.4915 5.74454ZM10.4915 5.74454V4.66406M10.4915 14.3884V15.4689M10.4915 14.3884C9.29093 14.3884 8.24646 13.9562 7.68217 13.3079L10.4915 14.3884Z" stroke="#4C65FF" stroke-width="1.75" stroke-linecap="round" stroke-linejoin="round"/>
</svg>
