<svg xmlns="http://www.w3.org/2000/svg" width="14" height="14" viewBox="0 0 14 14" fill="none">
  <path d="M6.18336 1.83367C4.7542 2.13117 3.5992 3.28032 3.29586 4.71532C3.0392 5.92865 3.35421 7.14781 4.16504 8.05781C4.56171 8.50115 4.7892 9.09031 4.7892 9.66781V10.2978C4.7892 10.7236 5.06336 11.0795 5.44252 11.202C5.57086 11.937 6.21253 12.532 7.00003 12.532C7.79336 12.532 8.43503 11.937 8.55753 11.202C8.9367 11.0736 9.21086 10.7236 9.21086 10.2978V9.66781C9.21086 9.08448 9.43836 8.50698 9.85253 8.02865C10.4592 7.34031 10.7917 6.45365 10.7917 5.532C10.7917 3.152 8.59836 1.332 6.18336 1.83367Z" stroke="currentColor" stroke-width="0.875" stroke-linecap="round" stroke-linejoin="round"/>
  <path d="M6.99414 3.54871C8.09664 3.54871 8.99497 4.44705 8.99497 5.54372" stroke="currentColor" stroke-width="0.875" stroke-linecap="round" stroke-linejoin="round"/>
  <path d="M4.90454 8.94458H9.12517" stroke="currentColor" stroke-width="0.875" stroke-linecap="round" stroke-linejoin="round"/>
</svg>