<svg xmlns="http://www.w3.org/2000/svg" width="24" height="24" viewBox="0 0 24 24" fill="none">
  <path d="M17.8328 0.897461C18.44 0.897522 19.0018 1.06839 19.4148 1.35254C19.8275 1.63651 20.0994 2.0406 20.0994 2.50391V21.4902C20.0994 21.9418 19.8362 22.3458 19.4275 22.6328C19.0184 22.9201 18.4562 23.0966 17.8328 23.0967H6.16675C5.55948 23.0966 4.99766 22.9258 4.58472 22.6416C4.17202 22.3576 3.90015 21.9535 3.90015 21.4902V2.50391C3.90015 2.0524 4.1633 1.64833 4.57202 1.36133C4.98115 1.07406 5.54328 0.897528 6.16675 0.897461H17.8328ZM6.00562 2.12695C5.62218 2.20889 5.40512 2.4408 5.40503 2.69629V21.2354C5.40503 21.3721 5.47387 21.5027 5.60815 21.6104C5.74238 21.7179 5.9389 21.7989 6.17944 21.8301H17.6707C17.8014 21.8301 17.8862 21.8303 17.9695 21.8115L17.9724 21.8105C18.4011 21.7277 18.6296 21.4906 18.6296 21.2354V2.63086C18.6295 2.50908 18.5665 2.40636 18.449 2.31934C18.3296 2.23099 18.1614 2.16578 17.9763 2.12402C17.8932 2.10527 17.7771 2.10449 17.6775 2.10449V2.10156H16.2537C16.1565 2.10156 16.0809 2.12496 16.033 2.15723C15.9867 2.18851 15.9686 2.22532 15.9685 2.26172C15.9685 2.35507 15.9378 2.48389 15.8904 2.61719C15.842 2.75306 15.7721 2.90383 15.6882 3.04492C15.6048 3.18522 15.5046 3.31997 15.3923 3.4209C15.2809 3.52096 15.147 3.59668 14.9998 3.59668H9.02808C8.87993 3.59661 8.75016 3.52026 8.64429 3.41895C8.53786 3.31708 8.44571 3.18162 8.37085 3.04102C8.29557 2.89957 8.23481 2.7479 8.19312 2.6123C8.15213 2.47891 8.12769 2.35234 8.12769 2.26172C8.12757 2.22536 8.10939 2.1885 8.06323 2.15723C8.01531 2.12481 7.93903 2.10156 7.84155 2.10156H6.18042L6.00562 2.12695Z" fill="currentColor" stroke="currentColor" stroke-width="0.2"/>
  <path d="M16.5701 12.7799C16.9478 11.933 15.0806 9.56676 13.2968 8.58095C12.1724 7.81725 11.0008 7.92217 10.7635 8.25749C10.2427 8.99339 12.4878 9.61695 13.9893 10.3446C13.6666 10.4853 13.3624 10.7378 13.1836 11.0608C12.6238 10.4473 11.3952 9.91908 9.95351 10.3446C8.98202 10.6313 8.17462 11.3074 7.86257 12.3284C7.78675 12.2946 7.7028 12.2758 7.61447 12.2758C7.27673 12.2758 7.00293 12.5506 7.00293 12.8896C7.00293 13.2287 7.27673 13.5035 7.61447 13.5035C7.67708 13.5035 7.87282 13.4613 7.87282 13.4613L11.0008 13.4841C9.74983 15.4761 8.76124 15.7673 8.76124 16.1124C8.76124 16.4575 9.70715 16.3639 10.0623 16.2353C11.7625 15.6195 13.5887 13.7003 13.902 13.1479C15.2179 13.3127 16.3239 13.3322 16.5701 12.7799Z" fill="#4C65FF"/>
  <path d="M10.7253 8.64453C10.8283 8.4319 11.5435 8.40768 12.5154 8.86719C13.227 9.20366 13.9851 9.9544 14.0291 10.1406C14.0481 10.2216 14.0594 10.325 13.99 10.3525C13.9668 10.3424 13.9424 10.3334 13.9187 10.3232C12.6957 9.73974 11.0211 9.22029 10.7214 8.65527C10.7229 8.65182 10.7237 8.64798 10.7253 8.64453Z" fill="#4C65FF"/>
  <path d="M10.3225 11.6191C11.3608 11.6191 11.8084 11.9563 12.1643 12.5898C12.4179 13.0413 12.3615 13.756 12.093 14.2383C12.3384 14.2993 12.555 14.3664 12.7473 14.4395C12.4282 14.7369 12.0635 15.0449 11.676 15.3271C11.1524 15.1929 10.6727 15.0666 9.94653 14.8799C10.2599 14.5383 10.6194 14.0877 11.0032 13.4766L8.19556 13.4561C8.18697 13.347 8.18405 13.2289 8.18677 13.1006C8.21406 11.8125 9.75115 11.6192 10.3225 11.6191Z" fill="#4C65FF"/>
  <path d="M7.82634 13.3127C7.94103 14.2914 8.49515 14.6749 9.62744 14.7885C10.7597 14.902 11.4092 14.8258 12.2739 14.9048C12.9961 14.9707 13.6409 15.3401 13.8802 15.2125C14.0955 15.0976 13.975 14.6825 13.6869 14.4162C13.3135 14.071 12.7967 13.831 11.8873 13.7458C12.0686 13.2478 12.0178 12.5494 11.7363 12.1694C11.3293 11.6201 10.5782 11.3717 9.62744 11.4802C8.63416 11.5936 7.6824 12.0845 7.82634 13.3127Z" fill="#4C65FF"/>
</svg>