<svg width="24" height="24" viewBox="0 0 24 24" fill="none" xmlns="http://www.w3.org/2000/svg">
<path d="M17.833 0.900391C18.4403 0.900452 19.0021 1.07132 19.415 1.35547C19.8277 1.63944 20.0996 2.04353 20.0996 2.50684V21.4932C20.0996 21.9447 19.8365 22.3487 19.4277 22.6357C19.0186 22.923 18.4565 23.0995 17.833 23.0996H6.16699C5.55972 23.0995 4.99791 22.9287 4.58496 22.6445C4.17226 22.3605 3.90039 21.9565 3.90039 21.4932V2.50684C3.90039 2.05533 4.16355 1.65126 4.57227 1.36426C4.9814 1.07698 5.54352 0.900458 6.16699 0.900391H17.833ZM6.00586 2.12988C5.62243 2.21182 5.40537 2.44373 5.40527 2.69922V21.2383C5.40527 21.3751 5.47411 21.5056 5.6084 21.6133C5.74263 21.7208 5.93915 21.8018 6.17969 21.833H17.6709C17.8017 21.833 17.8864 21.8333 17.9697 21.8145L17.9727 21.8135C18.4013 21.7306 18.6299 21.4936 18.6299 21.2383V2.63379C18.6297 2.51201 18.5668 2.40929 18.4492 2.32227C18.3299 2.23392 18.1617 2.16871 17.9766 2.12695C17.8934 2.1082 17.7773 2.10742 17.6777 2.10742V2.10449H16.2539C16.1567 2.10449 16.0811 2.12789 16.0332 2.16016C15.987 2.19144 15.9689 2.22825 15.9688 2.26465C15.9688 2.358 15.9381 2.48682 15.8906 2.62012C15.8422 2.75599 15.7723 2.90676 15.6885 3.04785C15.6051 3.18815 15.5049 3.3229 15.3926 3.42383C15.2811 3.52389 15.1473 3.59961 15 3.59961H9.02832C8.88018 3.59954 8.7504 3.52319 8.64453 3.42188C8.53811 3.32001 8.44595 3.18455 8.37109 3.04395C8.29582 2.9025 8.23505 2.75083 8.19336 2.61523C8.15238 2.48184 8.12793 2.35527 8.12793 2.26465C8.12781 2.22829 8.10964 2.19143 8.06348 2.16016C8.01556 2.12774 7.93927 2.10449 7.8418 2.10449H6.18066L6.00586 2.12988Z" fill="currentColor" stroke="currentColor" stroke-width="0.2"/>
<path d="M16.5704 12.777C16.9481 11.9301 15.0809 9.56383 13.297 8.57802C12.1726 7.81432 11.001 7.91924 10.7637 8.25456C10.243 8.99046 12.4881 9.61402 13.9896 10.3417C13.6668 10.4824 13.3627 10.7349 13.1838 11.0578C12.624 10.4444 11.3954 9.91615 9.95376 10.3417C8.98226 10.6284 8.17487 11.3044 7.86281 12.3255C7.78699 12.2916 7.70304 12.2728 7.61472 12.2728C7.27697 12.2728 7.00317 12.5477 7.00317 12.8867C7.00317 13.2257 7.27697 13.5006 7.61472 13.5006C7.67732 13.5006 7.87306 13.4584 7.87306 13.4584L11.001 13.4812C9.75008 15.4731 8.76148 15.7643 8.76148 16.1094C8.76148 16.4545 9.70739 16.361 10.0626 16.2324C11.7628 15.6166 13.5889 13.6974 13.9023 13.1449C15.2182 13.3097 16.3241 13.3292 16.5704 12.777Z" fill="#4C65FF"/>
<path d="M10.726 8.63867C10.829 8.42605 11.5443 8.40101 12.5161 8.86035C13.2277 9.19681 13.9858 9.94853 14.0297 10.1348C14.0488 10.2158 14.0602 10.3192 13.9907 10.3467C13.9602 10.3333 13.9282 10.3219 13.8969 10.3086C12.6754 9.72915 11.0191 9.21129 10.7221 8.64941C10.7236 8.64596 10.7243 8.64213 10.726 8.63867Z" fill="#4C65FF"/>
<path d="M10.3235 11.6094C11.3617 11.6094 11.8084 11.9466 12.1644 12.5801C12.418 13.0316 12.3616 13.7462 12.0931 14.2285C12.3397 14.2898 12.5573 14.3573 12.7503 14.4307C12.4317 14.7278 12.0671 15.0352 11.68 15.3174C11.1555 15.1829 10.6753 15.058 9.94855 14.8711C10.2616 14.5297 10.6211 14.0798 11.0042 13.4697L8.19562 13.4492C8.18685 13.3393 8.18507 13.2202 8.18781 13.0908C8.2151 11.8025 9.75246 11.6094 10.3235 11.6094Z" fill="#4C65FF"/>
<path d="M7.82634 13.3176C7.94103 14.2963 8.49515 14.6798 9.62744 14.7933C10.7597 14.9068 11.4092 14.8307 12.2739 14.9097C12.9961 14.9756 13.6409 15.345 13.8802 15.2174C14.0955 15.1025 13.975 14.6874 13.6869 14.4211C13.3135 14.0759 12.7967 13.8359 11.8873 13.7507C12.0686 13.2526 12.0178 12.5543 11.7363 12.1743C11.3293 11.625 10.5782 11.3766 9.62744 11.4851C8.63416 11.5985 7.6824 12.0893 7.82634 13.3176Z" fill="#4C65FF"/>
</svg>
