<svg width="20" height="20" viewBox="0 0 20 20" fill="none" xmlns="http://www.w3.org/2000/svg">
<path d="M7.34398 2.47656H2.95902C2.47467 2.47656 2.08203 2.8692 2.08203 3.35355V7.73851C2.08203 8.22287 2.47467 8.6155 2.95902 8.6155H7.34398C7.82834 8.6155 8.22097 8.22287 8.22097 7.73851V3.35355C8.22097 2.8692 7.82834 2.47656 7.34398 2.47656Z" stroke="currentColor" stroke-width="1.75" stroke-linejoin="round"/>
<path d="M7.34398 12.125H2.95902C2.47467 12.125 2.08203 12.5176 2.08203 13.002V17.3869C2.08203 17.8713 2.47467 18.2639 2.95902 18.2639H7.34398C7.82834 18.2639 8.22097 17.8713 8.22097 17.3869V13.002C8.22097 12.5176 7.82834 12.125 7.34398 12.125Z" stroke="currentColor" stroke-width="1.75" stroke-linejoin="round"/>
<path d="M14.2463 2.2185L11.4727 4.99215C11.1663 5.29852 11.1663 5.79524 11.4727 6.1016L14.2463 8.87525C14.5527 9.18163 15.0494 9.18163 15.3558 8.87525L18.1295 6.1016C18.4358 5.79523 18.4358 5.29852 18.1295 4.99215L15.3558 2.2185C15.0494 1.91213 14.5527 1.91212 14.2463 2.2185Z" stroke="#4C65FF" stroke-width="1.75" stroke-linejoin="round"/>
<path d="M16.9963 12.125H12.6114C12.127 12.125 11.7344 12.5176 11.7344 13.002V17.3869C11.7344 17.8713 12.127 18.2639 12.6114 18.2639H16.9963C17.4807 18.2639 17.8733 17.8713 17.8733 17.3869V13.002C17.8733 12.5176 17.4807 12.125 16.9963 12.125Z" stroke="currentColor" stroke-width="1.75" stroke-linejoin="round"/>
</svg>
