<svg width="20" height="20" viewBox="0 0 20 20" fill="none" xmlns="http://www.w3.org/2000/svg">
<path d="M18.3929 15.3594L14.1202 11.8231L8.00008 12.5619L4.85004 10.3594L1.25 12.5619" stroke="#4C65FF" stroke-width="1.75" stroke-linecap="round" stroke-linejoin="round"/>
<path d="M16.6018 17.5H3.04104C2.05597 17.5 1.25 16.744 1.25 15.82V4.18C1.25 3.256 2.05597 2.5 3.04104 2.5H16.6018C17.5869 2.5 18.3929 3.256 18.3929 4.18V15.82C18.3929 16.744 17.5869 17.5 16.6018 17.5Z" stroke="currentColor" stroke-width="1.75" stroke-linecap="round" stroke-linejoin="round"/>
<path d="M13.5463 5.29688C13.0927 5.29688 12.6577 5.48501 12.3369 5.8199C12.0161 6.15478 11.8359 6.60899 11.8359 7.08259C11.8359 7.55619 12.0161 8.01039 12.3369 8.34528C12.6577 8.68017 13.0927 8.8683 13.5463 8.8683C13.9999 8.8683 14.435 8.68017 14.7557 8.34528C15.0765 8.01039 15.2567 7.55619 15.2567 7.08259C15.2567 6.60899 15.0765 6.15478 14.7557 5.8199C14.435 5.48501 13.9999 5.29688 13.5463 5.29688Z" stroke="#4C65FF" stroke-width="1.75"/>
</svg>
