<svg xmlns="http://www.w3.org/2000/svg" width="24" height="24" viewBox="0 0 24 24" fill="none">
  <path d="M21 19.2002L16.2146 14.9567L9.36014 15.8432L5.8321 13.2002L1.80005 15.8432" stroke="#4C65FF" stroke-width="2" stroke-linecap="round" stroke-linejoin="round"/>
  <path d="M20.0687 21.6004H3.93139C2.75915 21.6004 1.80005 20.6327 1.80005 19.45V4.55079C1.80005 3.36807 2.75915 2.40039 3.93139 2.40039H20.0687C21.2409 2.40039 22.2 3.36807 22.2 4.55079V19.45C22.2 20.6327 21.2409 21.6004 20.0687 21.6004Z" stroke="currentColor" stroke-width="2" stroke-linecap="round" stroke-linejoin="round"/>
  <path d="M16.8 6C16.3226 6 15.8648 6.18964 15.5272 6.52721C15.1896 6.86477 15 7.32261 15 7.8C15 8.27739 15.1896 8.73523 15.5272 9.07279C15.8648 9.41036 16.3226 9.6 16.8 9.6C17.2774 9.6 17.7352 9.41036 18.0728 9.07279C18.4104 8.73523 18.6 8.27739 18.6 7.8C18.6 7.32261 18.4104 6.86477 18.0728 6.52721C17.7352 6.18964 17.2774 6 16.8 6Z" fill="#4C65FF"/>
</svg>