<svg xmlns="http://www.w3.org/2000/svg" width="24" height="24" viewBox="0 0 24 24" fill="none">
  <path d="M12.502 17.0665L13.916 16.9426L14.4217 22.7272C15.0655 22.5826 15.695 22.3803 16.3024 22.1226V16.9917H18.0492V21.1829C18.779 20.7004 19.4491 20.1332 20.0455 19.4931L20.2701 16.9285L21.7673 17.059C22.6205 15.4115 23.0433 13.575 22.9965 11.7203C22.9496 9.86555 22.4347 8.05277 21.4994 6.45032L21.4437 7.08731L19.697 6.93432L19.9216 4.37131C19.3558 3.78373 18.7267 3.26052 18.0459 2.81123V7.02327H16.2991V1.87235C15.5541 1.55535 14.776 1.32244 13.9792 1.17796L14.4841 6.94845L13.0701 7.07233L12.5394 1.01331C12.3614 1.00499 12.1817 1 12.0021 1C11.3014 1 10.6023 1.06655 9.91425 1.19875L10.9124 6.87857L9.83608 7.06819L8.84627 1.45904C7.92367 1.73455 7.04153 2.13077 6.22279 2.63742L7.33737 6.79542L6.4923 7.02247L5.45589 3.15385C4.65619 3.74622 3.9402 4.44386 3.32732 5.22786L3.86716 6.71061L3.2508 6.93512L2.86235 5.8682C2.24097 6.79263 1.76414 7.80635 1.44831 8.87442L1.62298 8.81123L3.86882 14.9742L3.25246 15.1988L1.24452 9.68359C0.784644 11.8286 0.976357 14.062 1.79505 16.0973C2.61375 18.1326 4.02208 19.877 5.83934 21.1064L4.79627 17.2146L5.64135 16.9875L6.91735 21.7493C7.79158 22.2055 8.72362 22.5412 9.68804 22.7472L8.70402 17.1405L9.78119 16.9509L10.8367 22.9385C11.2252 22.9795 11.6156 23.0001 12.0062 23C12.3464 23 12.6841 22.9842 13.0169 22.9534L12.502 17.0665ZM20.2784 8.66733L22.021 8.81956L21.4495 15.3542L19.7028 15.2021L20.2784 8.66733ZM16.3049 8.73137H18.0517V15.2902H16.3049V8.73137ZM6.49975 15.2919L4.80209 8.95592L5.64719 8.72972L7.34486 15.0615L6.49975 15.2919ZM9.84357 15.3351L8.70402 8.87607L9.78119 8.68649L10.9199 15.1447L9.84357 15.3351Z" fill="currentColor"/>
  <path d="M14.49 15.2164L13.9185 8.68164L12.5036 8.80553L13.0759 15.3402L14.49 15.2164Z" fill="#4C65FF"/>
</svg>