<svg width="21" height="20" viewBox="0 0 21 20" fill="none" xmlns="http://www.w3.org/2000/svg">
<g clip-path="url(#clip0_133672_59109)">
<path d="M20.3057 9.85156C20.3121 11.4325 19.9775 12.9427 19.3359 14.3779V14.3789C18.8469 15.4698 17.9926 16.5254 16.9033 17.0625C16.3473 17.3366 15.7145 17.4812 15.0469 17.3994C14.3759 17.3171 13.7326 17.014 13.1475 16.4951C12.6678 16.0699 12.309 15.5559 12.0127 15.0703C11.8638 14.8262 11.7231 14.5767 11.5918 14.3428C11.4579 14.1042 11.3332 13.8816 11.2041 13.668C10.6885 12.8147 10.2216 12.3146 9.47559 12.1748C8.91276 12.1101 8.5438 12.2247 8.25879 12.4004C7.9425 12.5954 7.66699 12.9034 7.36035 13.3262C7.09228 13.6958 6.72894 14.2682 6.36328 14.6885C5.96549 15.1457 5.42995 15.5985 4.66797 15.7529C3.83104 15.9241 3.10394 15.6874 2.53809 15.2188C2.00497 14.7772 1.63714 14.1525 1.38086 13.5381C0.868102 12.3088 0.678168 10.8183 0.696289 9.86914C0.696401 9.86329 0.697145 9.85744 0.697266 9.85156H2.44824C2.44783 9.86853 2.44661 9.88544 2.44629 9.90234C2.43183 10.6598 2.5945 11.9014 2.99609 12.8643C3.197 13.3459 3.42655 13.6824 3.6543 13.8711C3.84918 14.0325 4.0454 14.0947 4.31738 14.0391H4.32031C4.55242 13.9921 4.77248 13.8499 5.04297 13.5391C5.34578 13.1909 5.5646 12.8214 5.94434 12.2979C6.28557 11.8275 6.72455 11.2901 7.34082 10.9102C7.90441 10.5628 8.5697 10.3743 9.3623 10.4102L9.70996 10.4395L9.73242 10.4424L9.75488 10.4463C11.2976 10.7175 12.1208 11.8006 12.7021 12.7627C12.8486 13.005 12.9877 13.2538 13.1182 13.4863C13.2512 13.7233 13.3761 13.9455 13.5059 14.1582C13.7672 14.5866 14.0201 14.9299 14.3086 15.1855C14.6654 15.502 14.9871 15.6286 15.2598 15.6621C15.5358 15.6959 15.827 15.6415 16.1299 15.4922C16.7584 15.1821 17.3666 14.4927 17.7383 13.6641C18.277 12.459 18.5529 11.2083 18.5537 9.90234V9.85156H20.3057ZM9.22656 9.85352H9.22363C9.03948 9.8655 8.86398 9.86229 8.69629 9.85156H9.24414C9.23827 9.85199 9.23245 9.85311 9.22656 9.85352Z" fill="currentColor"/>
<path d="M13.2754 3.08496C14.3078 2.23007 15.4882 2.09867 16.54 2.46777C17.5483 2.82173 18.3894 3.61266 18.9336 4.5332H18.9346C19.7326 5.88145 20.1449 7.40624 20.2695 8.90723H20.3037L20.3135 9.77246C20.3137 9.79624 20.3134 9.82 20.3135 9.84375H18.5605V9.79199C18.5429 8.25911 18.1927 6.71551 17.4287 5.4248L17.4277 5.42383C17.046 4.77795 16.5001 4.30871 15.96 4.11914C15.5249 3.9665 15.0638 3.9791 14.5938 4.28418L14.3916 4.43359C14.059 4.70871 13.7773 5.10175 13.4932 5.61035C13.3524 5.86235 13.2182 6.1286 13.0771 6.41211C12.9391 6.68962 12.7921 6.98798 12.6367 7.27637C12.0256 8.41049 11.1263 9.69149 9.29492 9.84375H8.61914C7.13287 9.71491 6.28492 8.74537 5.67871 7.99707C5.31263 7.54518 5.06385 7.21745 4.77344 6.9707C4.52013 6.75552 4.28865 6.65234 3.99023 6.65234C3.49874 6.65242 3.15164 6.91431 2.875 7.54297C2.59252 8.18508 2.4757 9.05028 2.45605 9.84375H0.705078C0.72388 8.94888 0.850712 7.79861 1.27344 6.83789C1.71226 5.84076 2.55408 4.90244 3.99023 4.90234C4.80106 4.90234 5.42059 5.22329 5.90723 5.63672C6.35653 6.01852 6.73766 6.52465 7.03809 6.89551C7.68564 7.69484 8.17494 8.16451 9.11426 8.10449C10.0304 8.0416 10.5374 7.48414 11.0967 6.44629C11.2353 6.18908 11.3674 5.92111 11.5107 5.63281C11.6514 5.35008 11.8023 5.04962 11.9658 4.75684C12.2903 4.17604 12.6976 3.56416 13.2754 3.08594V3.08496Z" fill="#4C65FF"/>
</g>
<defs>
<clipPath id="clip0_133672_59109">
<rect width="20" height="20" fill="white" transform="translate(0.5)"/>
</clipPath>
</defs>
</svg>
