<svg xmlns="http://www.w3.org/2000/svg" width="24" height="24" viewBox="0 0 24 24" fill="none">
  <path d="M23.4993 12.3154C23.5023 14.2818 23.1155 16.1628 22.3733 17.9551L22.3723 17.9561C21.8089 19.3123 20.82 20.6388 19.5432 21.3184C18.8892 21.6663 18.1375 21.8544 17.3401 21.749C16.6397 21.6563 15.9726 21.3468 15.3616 20.835L15.1038 20.6035C14.5472 20.071 14.1305 19.4281 13.7854 18.8174C13.6116 18.5099 13.4477 18.1956 13.2932 17.8984C13.136 17.5961 12.9882 17.3113 12.8352 17.0381C12.2154 15.9312 11.6541 15.2934 10.7844 15.1182C10.1387 15.0391 9.71379 15.18 9.37817 15.4033C9.00029 15.655 8.66939 16.0534 8.30493 16.5957C7.98328 17.0744 7.5647 17.7889 7.13794 18.3184C6.68101 18.8851 6.05612 19.4613 5.15161 19.6592C4.14728 19.8807 3.28306 19.5698 2.6272 18.9834C2.01224 18.4334 1.5896 17.657 1.29419 16.8926C0.702243 15.3607 0.481456 13.4994 0.501221 12.3154H2.5022C2.50202 12.3246 2.50138 12.3337 2.50122 12.3428C2.48388 13.325 2.67783 14.9256 3.15942 16.1719C3.40138 16.7979 3.68089 17.2423 3.96021 17.4922C4.19864 17.7054 4.42175 17.773 4.72095 17.707L4.72388 17.7061C4.98808 17.6484 5.25151 17.4704 5.58032 17.0625C5.93973 16.6166 6.20567 16.1354 6.64575 15.4805C7.04285 14.8896 7.55238 14.2164 8.27075 13.7383C8.97921 13.2669 9.83324 13.0217 10.8665 13.1152L11.0764 13.1387L11.1038 13.1416L11.1321 13.1475C12.9546 13.4934 13.9101 14.8646 14.5803 16.0615C14.7513 16.3668 14.914 16.6801 15.0676 16.9756C15.224 17.2764 15.3726 17.5606 15.5266 17.833C15.837 18.3822 16.1399 18.8265 16.4866 19.1582C16.9144 19.5677 17.2926 19.7256 17.6018 19.7666C17.9138 19.8079 18.248 19.742 18.6038 19.5527C19.3468 19.1571 20.077 18.2694 20.5256 17.1895C21.15 15.6817 21.4816 14.1137 21.4993 12.4766L21.4973 12.3154H23.4993Z" fill="currentColor"/>
  <path d="M15.468 2.99121C16.6194 2.06563 17.9296 1.93049 19.1125 2.38867C20.3036 2.85019 21.2764 3.87204 21.8987 5.03418H21.8997C22.8408 6.78949 23.3179 8.7785 23.4514 10.7324H23.4846L23.4944 11.7227C23.4964 11.9224 23.4933 12.1213 23.4875 12.3193H21.4866C21.4904 12.2035 21.4926 12.0872 21.4934 11.9707L21.4915 11.7422C21.4704 9.7221 21.0511 7.68432 20.137 5.97949V5.97852C19.6722 5.11013 19.017 4.49692 18.3899 4.25391C17.8332 4.03834 17.2304 4.07782 16.5891 4.66406H16.5881C16.1873 5.03017 15.8485 5.55377 15.51 6.22266C15.3427 6.55335 15.1834 6.90194 15.0178 7.26953C14.8552 7.63058 14.6843 8.0147 14.5032 8.38574C13.7988 9.829 12.7443 11.5178 10.5188 11.6865L10.5149 11.6875C8.27866 11.848 7.11385 10.3633 6.3313 9.29688C5.90464 8.71541 5.6058 8.27937 5.25806 7.95312C4.94977 7.66404 4.68255 7.54199 4.35669 7.54199C3.8214 7.5422 3.38748 7.85989 3.0354 8.74316C2.68164 9.63072 2.544 10.8198 2.52563 11.8809C2.5233 12.0163 2.52599 12.1634 2.53149 12.3193H0.529541C0.524609 12.1523 0.523076 11.9936 0.525635 11.8457C0.545574 10.6947 0.6918 9.22276 1.17798 8.00293C1.66582 6.77905 2.629 5.54225 4.35669 5.54199C5.333 5.54199 6.06585 5.96862 6.62622 6.49414C7.14693 6.98258 7.58784 7.62843 7.9436 8.11328C8.72533 9.17861 9.30079 9.7673 10.3674 9.69238C11.4161 9.6129 12.0277 8.89708 12.7053 7.50879C12.8697 7.17202 13.0265 6.82123 13.1946 6.44824C13.3597 6.08173 13.5348 5.69587 13.7249 5.32031C14.1009 4.57713 14.5712 3.79791 15.2395 3.1875L15.468 2.99121Z" fill="#4C65FF"/>
</svg>