<svg width="20" height="20" viewBox="0 0 20 20" fill="none" xmlns="http://www.w3.org/2000/svg">
  <path d="M16.875 2.5H3.125C2.0875 2.5 1.25 3.3375 1.25 4.375V15.625C1.25 16.6625 2.0875 17.5 3.125 17.5H8.75V16.25H3.125C2.775 16.25 2.5 15.975 2.5 15.625V7.5H18.75V4.375C18.75 3.3375 17.9125 2.5 16.875 2.5ZM17.5 6.25H2.5V4.375C2.5 4.025 2.775 3.75 3.125 3.75H16.875C17.225 3.75 17.5 4.025 17.5 4.375V6.25ZM18.75 10.625V15.625C18.75 16.6625 17.9125 17.5 16.875 17.5H11.875C10.8375 17.5 10 16.6625 10 15.625V10.625C10 9.5875 10.8375 8.75 11.875 8.75H16.875C17.9125 8.75 18.75 9.5875 18.75 10.625ZM16.875 16.25C17.225 16.25 17.5 15.975 17.5 15.625V10.625C17.5 10.275 17.225 10 16.875 10H11.875C11.525 10 11.25 10.275 11.25 10.625V15.625C11.25 15.975 11.525 16.25 11.875 16.25H16.875Z" fill="currentColor"/>
</svg>
