<svg width="24" height="24" viewBox="0 0 24 24" fill="none" xmlns="http://www.w3.org/2000/svg">
<path d="M6.81681 3.05735L5.51191 2.62285L5.07603 1.31657C4.93533 0.894477 4.23598 0.894477 4.09529 1.31657L3.6594 2.62285L2.3545 3.05735C2.14346 3.1277 2 3.32495 2 3.54841C2 3.77187 2.14346 3.96913 2.3545 4.03948L3.6594 4.47398L4.09529 5.78026C4.16563 5.99131 4.36289 6.13338 4.58497 6.13338C4.80705 6.13338 5.00568 5.98993 5.07465 5.78026L5.51054 4.47398L6.81543 4.03948C7.02648 3.96913 7.16994 3.77187 7.16994 3.54841C7.16994 3.32495 7.02786 3.1277 6.81681 3.05735Z" fill="#4C65FF"/>
<path d="M18.8525 13.0379L22.6886 9.29842L15.7779 8.29561L12.688 2.0332L9.59822 8.29561L2.6875 9.29842L7.68777 14.1732L6.50702 21.0549L12.5004 17.9044" stroke="currentColor" stroke-width="1.75" stroke-linecap="round" stroke-linejoin="round"/>
<path d="M21.1824 18.2274L19.4403 17.6467L18.8595 15.9045C18.6706 15.3417 17.7395 15.3417 17.5505 15.9045L16.9698 17.6467L15.2276 18.2274C14.9462 18.3212 14.7559 18.5847 14.7559 18.8812C14.7559 19.1778 14.9462 19.4413 15.2276 19.5351L16.9698 20.1158L17.5505 21.8579C17.6443 22.1393 17.9091 22.3297 18.2057 22.3297C18.5023 22.3297 18.7657 22.1393 18.8609 21.8579L19.4416 20.1158L21.1838 19.5351C21.4652 19.4413 21.6555 19.1778 21.6555 18.8812C21.6555 18.5847 21.4652 18.3212 21.1838 18.2274H21.1824Z" fill="#4C65FF"/>
<path d="M19.931 5.13744C20.5024 5.13744 20.9656 4.67426 20.9656 4.1029C20.9656 3.53154 20.5024 3.06836 19.931 3.06836C19.3597 3.06836 18.8965 3.53154 18.8965 4.1029C18.8965 4.67426 19.3597 5.13744 19.931 5.13744Z" fill="#4C65FF"/>
</svg>
