<svg xmlns="http://www.w3.org/2000/svg" width="24" height="24" viewBox="0 0 24 24" fill="none">
  <g clip-path="url(#clip0_135415_1264)">
    <path d="M6.81657 3.06028L5.51167 2.62578L5.07578 1.3195C4.93509 0.897407 4.23574 0.897407 4.09504 1.3195L3.65916 2.62578L2.35426 3.06028C2.14321 3.13063 1.99976 3.32788 1.99976 3.55134C1.99976 3.7748 2.14321 3.97206 2.35426 4.0424L3.65916 4.47691L4.09504 5.78319C4.16539 5.99424 4.36264 6.13631 4.58472 6.13631C4.8068 6.13631 5.00544 5.99286 5.07441 5.78319L5.51029 4.47691L6.81519 4.0424C7.02624 3.97206 7.16969 3.7748 7.16969 3.55134C7.16969 3.32788 7.02761 3.13063 6.81657 3.06028Z" fill="#4C65FF"/>
    <path d="M18.8528 13.0389L22.6888 9.2994L15.7781 8.29659L12.6883 2.03418L9.59846 8.29659L2.68774 9.2994L7.68802 14.1741L6.50726 21.0559L12.5007 17.9054" stroke="currentColor" stroke-width="2" stroke-linecap="round" stroke-linejoin="round"/>
    <path d="M21.1822 18.2323L19.44 17.6516L18.8593 15.9094C18.6703 15.3466 17.7392 15.3466 17.5502 15.9094L16.9695 17.6516L15.2274 18.2323C14.946 18.3261 14.7556 18.5895 14.7556 18.8861C14.7556 19.1827 14.946 19.4461 15.2274 19.5399L16.9695 20.1207L17.5502 21.8628C17.644 22.1442 17.9089 22.3346 18.2055 22.3346C18.502 22.3346 18.7655 22.1442 18.8607 21.8628L19.4414 20.1207L21.1836 19.5399C21.4649 19.4461 21.6553 19.1827 21.6553 18.8861C21.6553 18.5895 21.4649 18.3261 21.1836 18.2323H21.1822Z" fill="#4C65FF"/>
    <path d="M19.931 5.14427C20.5024 5.14427 20.9656 4.68109 20.9656 4.10973C20.9656 3.53837 20.5024 3.0752 19.931 3.0752C19.3597 3.0752 18.8965 3.53837 18.8965 4.10973C18.8965 4.68109 19.3597 5.14427 19.931 5.14427Z" fill="#4C65FF"/>
  </g>
  <defs>
    <clipPath id="clip0_135415_1264">
      <rect width="24" height="24" fill="white"/>
    </clipPath>
  </defs>
</svg>