<svg xmlns="http://www.w3.org/2000/svg" width="24" height="24" viewBox="0 0 24 24" fill="none">
  <path d="M16.2856 10.2817H7.7144C5.06178 10.2817 2.9114 12.4321 2.9114 15.0847C2.9114 17.7373 5.06178 19.8877 7.7144 19.8877H16.2856C18.9382 19.8877 21.0886 17.7373 21.0886 15.0847C21.0886 12.4321 18.9382 10.2817 16.2856 10.2817Z" stroke="currentColor" stroke-width="2.1963" stroke-linecap="round" stroke-linejoin="round"/>
  <path d="M22.9815 5.35059V7.54689H1.0185V5.35059H22.9815Z" fill="currentColor"/>
  <path d="M16.1461 12.9102C17.3462 12.9102 18.3206 13.8845 18.3206 15.0846C18.3206 16.2847 17.3462 17.2591 16.1461 17.2591C14.9461 17.2591 13.9717 16.2847 13.9717 15.0846C13.9717 13.8845 14.9461 12.9102 16.1461 12.9102Z" fill="#4C65FF"/>
</svg>