<svg xmlns="http://www.w3.org/2000/svg" width="24" height="24" viewBox="0 0 24 24" fill="none">
  <path d="M9.1419 22C7.46635 21.481 5.9749 20.5175 4.79393 19.2408C5.2345 18.6976 5.5 17.9957 5.5 17.2293C5.5 15.5056 4.15685 14.1082 2.5 14.1082C2.39977 14.1082 2.3007 14.1134 2.203 14.1234C2.0699 13.4464 2 12.7455 2 12.0275C2 10.94 2.16039 9.89149 2.4579 8.90611C2.47191 8.90632 2.48594 8.90642 2.5 8.90642C4.15685 8.90642 5.5 7.50906 5.5 5.78534C5.5 5.29049 5.3893 4.82259 5.1923 4.40686C6.34875 3.28816 7.76025 2.45093 9.32605 2C9.8222 3.01178 10.8333 3.70463 12 3.70463C13.1667 3.70463 14.1778 3.01178 14.674 2C16.2398 2.45093 17.6512 3.28816 18.8077 4.40686C18.6107 4.82259 18.5 5.29049 18.5 5.78534C18.5 7.50906 19.8432 8.90642 21.5 8.90642C21.5141 8.90642 21.5281 8.90632 21.5421 8.90611C21.8396 9.89149 22 10.94 22 12.0275C22 12.7455 21.9301 13.4464 21.797 14.1234C21.6993 14.1134 21.6002 14.1082 21.5 14.1082C19.8432 14.1082 18.5 15.5056 18.5 17.2293C18.5 17.9957 18.7655 18.6976 19.2061 19.2408C18.0251 20.5175 16.5336 21.481 14.8581 22C14.4714 20.7415 13.338 19.8302 12 19.8302C10.662 19.8302 9.5286 20.7415 9.1419 22Z" stroke="currentColor" stroke-width="2" stroke-linejoin="round"/>
  <path d="M12 15C13.6569 15 15 13.6569 15 12C15 10.3431 13.6569 9 12 9C10.3431 9 9 10.3431 9 12C9 13.6569 10.3431 15 12 15Z" stroke="#4C65FF" stroke-width="2" stroke-linejoin="round"/>
</svg>