<svg xmlns="http://www.w3.org/2000/svg" width="24" height="24" viewBox="0 0 24 24" fill="none">
  <path d="M23.2591 12C23.614 12.6915 23.1511 13.6717 22.2269 13.6719H16.1292L17.6771 16.6592C18.1966 17.6619 17.1353 18.6562 16.1839 18.2275L13.3929 16.9678L10.6009 22.2627C10.0567 23.2942 8.43696 22.9545 8.43683 21.7305V14.7334L2.37628 12H6.63116L9.67218 13.3721L10.1868 13.6045V19.2959L12.2288 15.4248L12.6126 14.6973L13.3626 15.0361L15.3216 15.9189L13.9134 13.2002L13.2913 12H23.2591Z" fill="currentColor"/>
  <path fill-rule="evenodd" clip-rule="evenodd" d="M13.4532 0.644308C14.0429 -0.272861 15.5634 0.0836376 15.5635 1.26931V8.26638L22.7003 11.4851C22.9687 11.6063 23.1511 11.7899 23.2588 11.9998H13.2911L13.251 11.9217H19.4131L14.3292 9.62868L13.8135 9.39626V3.7029L11.7715 7.57497L11.3878 8.30153L10.6387 7.96462L8.67389 7.08181L10.087 9.7986L10.752 11.0779H4.58697L6.63092 11.9998H2.37604L1.29986 11.5144C0.146772 10.994 0.568236 9.3279 1.7735 9.3279H7.8692L6.31842 6.34548C5.8139 5.37522 6.7921 4.40932 7.71979 4.73903L7.80963 4.77517L10.6065 6.032L13.3995 0.737081L13.4532 0.644308Z" fill="#4C65FF"/>
</svg>