<svg xmlns="http://www.w3.org/2000/svg" width="24" height="24" viewBox="0 0 24 24" fill="none">
  <path d="M19.75 7.25C19.75 8.63071 16.616 9.75 12.75 9.75C8.88401 9.75 5.75 8.63071 5.75 7.25M19.75 7.25C19.75 5.86929 16.616 4.75 12.75 4.75C8.88401 4.75 5.75 5.86929 5.75 7.25M19.75 7.25V19.25C19.75 20.6307 16.616 21.75 12.75 21.75C8.88401 21.75 5.75 20.6307 5.75 19.25V7.25M19.75 11.25C19.75 12.6307 16.616 13.75 12.75 13.75C8.88401 13.75 5.75 12.6307 5.75 11.25M19.75 15.25C19.75 16.6307 16.616 17.75 12.75 17.75C8.88401 17.75 5.75 16.6307 5.75 15.25" stroke="currentColor" stroke-width="1.5"/>
  <path d="M19.75 7.25C19.75 8.63071 16.616 9.75 12.75 9.75C8.88401 9.75 5.75 8.63071 5.75 7.25M19.75 7.25C19.75 5.86929 16.616 4.75 12.75 4.75C8.88401 4.75 5.75 5.86929 5.75 7.25M19.75 7.25C19.75 7.25 19.75 9.86929 19.75 11.25M5.75 7.25C5.75 7.25 5.75 6.56371 5.75 11.25" stroke="var(--r-blue-default)" stroke-width="1.5"/>
</svg>
