<svg xmlns="http://www.w3.org/2000/svg" width="24" height="24" viewBox="0 0 24 24" fill="none">
  <path d="M22.1456 8.84014L14.4601 21.7224C14.2277 22.111 13.8939 22.4335 13.492 22.6577C13.0901 22.882 12.6344 23 12.1706 23C11.7067 23 11.251 22.882 10.8491 22.6577C10.4472 22.4335 10.1134 22.111 9.881 21.7224L8.53369 19.4659C8.52938 19.4602 8.52752 19.4533 8.52856 19.4463C8.52956 19.4394 8.5334 19.4331 8.53917 19.4289C8.54493 19.4247 8.55222 19.4229 8.55938 19.4239C8.56655 19.4249 8.57301 19.4286 8.57738 19.4342C8.81768 19.6638 9.10913 19.8372 9.4293 19.941C9.74952 20.0449 10.09 20.0765 10.4248 20.0335C10.7596 19.9904 11.0798 19.8739 11.3608 19.6927C11.6419 19.5115 11.8764 19.2705 12.0464 18.9882L18.4801 8.19352C18.6498 7.90853 18.7493 7.58958 18.7711 7.26137C18.7929 6.93316 18.7363 6.6045 18.6058 6.30084C18.4753 5.99718 18.2743 5.72666 18.0184 5.51024C17.7625 5.29382 17.4586 5.13729 17.1301 5.05279C17.1229 5.05279 17.116 5.05001 17.1109 5.04506C17.1057 5.04011 17.1029 5.03339 17.1029 5.02639C17.1029 5.01939 17.1057 5.01268 17.1109 5.00773C17.116 5.00278 17.1229 5 17.1301 5H19.8574C20.3216 5.00048 20.7774 5.11913 21.1792 5.34402C21.5809 5.56891 21.9145 5.89214 22.1463 6.28124C22.3782 6.67034 22.5002 7.11163 22.5 7.56079C22.4999 8.00994 22.3777 8.45116 22.1456 8.84014ZM13.0474 5H10.3828C10.3774 5.00174 10.3726 5.0051 10.3692 5.0096C10.3659 5.0141 10.364 5.01952 10.364 5.02507C10.364 5.03063 10.3659 5.03605 10.3692 5.04055C10.3726 5.04505 10.3774 5.04841 10.3828 5.05015C10.5623 5.11723 10.7246 5.22102 10.8589 5.35442C10.9931 5.48782 11.0959 5.6477 11.1604 5.82311C11.2249 5.99852 11.2495 6.18534 11.2324 6.37079C11.2154 6.55624 11.1573 6.73595 11.0619 6.89764L7.17825 13.3982C7.07792 13.563 6.94111 13.7043 6.77765 13.8119C6.61419 13.9195 6.42814 13.9908 6.23285 14.0205C6.03757 14.0503 5.8379 14.0379 5.64817 13.9841C5.45844 13.9303 5.28337 13.8366 5.13552 13.7096C5.13118 13.704 5.12472 13.7003 5.11755 13.6993C5.11039 13.6983 5.10312 13.7001 5.09733 13.7043C5.09155 13.7085 5.08772 13.7148 5.0867 13.7217C5.08568 13.7286 5.08754 13.7357 5.09188 13.7413L6.45553 16.0322C6.60863 16.2892 6.82902 16.5028 7.0945 16.6512C7.35998 16.7997 7.66121 16.8778 7.96781 16.8778C8.2744 16.8778 8.57563 16.7997 8.8411 16.6512C9.10657 16.5028 9.327 16.2892 9.48009 16.0322L14.5611 7.5337C14.7143 7.27678 14.7949 6.98532 14.7949 6.68864C14.7948 6.39197 14.714 6.10055 14.5605 5.84372C14.4071 5.58688 14.1865 5.37368 13.9208 5.22557C13.6552 5.07745 13.354 4.99966 13.0474 5Z" fill="currentColor"/>
  <path d="M2.52179 5.37497C2.89988 5.13049 3.34439 5 3.79911 5C4.10113 4.99965 4.40025 5.05697 4.67936 5.16866C4.95846 5.28034 5.21205 5.44422 5.42562 5.65089C5.63918 5.85756 5.80852 6.10297 5.92393 6.37306C6.03934 6.64316 6.09857 6.93263 6.09821 7.22491C6.09821 7.66495 5.96337 8.09511 5.71074 8.461C5.45811 8.82688 5.09904 9.11206 4.67893 9.28046C4.25883 9.44885 3.79656 9.49292 3.35057 9.40706C2.90459 9.32122 2.49493 9.10932 2.17339 8.79816C1.85186 8.487 1.63289 8.09056 1.54418 7.65897C1.45547 7.22738 1.501 6.78002 1.67501 6.37348C1.84902 5.96693 2.14371 5.61944 2.52179 5.37497Z" fill="#4C65FF"/>
</svg>