<svg width="14" height="14" viewBox="0 0 14 14" fill="none" xmlns="http://www.w3.org/2000/svg">
<path d="M12.0096 1.99145C10.6878 0.669515 8.54885 0.669515 7.2286 1.99145L5.71461 3.50559L6.51145 4.3025L8.02544 2.78837C8.86602 1.9477 10.2847 1.85864 11.2128 2.78837C12.1424 3.7181 12.0534 5.13536 11.2128 5.97602L9.69879 7.49016L10.4972 8.28864L12.0112 6.7745C13.3299 5.45256 13.3299 3.31339 12.0096 1.99145ZM5.9771 11.2138C5.13652 12.0544 3.71784 12.1435 2.78976 11.2138C1.86011 10.284 1.94917 8.86679 2.78976 8.02612L4.30375 6.51199L3.50535 5.71351L1.99136 7.22765C0.669547 8.54959 0.669547 10.6888 1.99136 12.0091C3.31317 13.3295 5.45213 13.3311 6.77237 12.0091L8.28636 10.495L7.48953 9.69808L5.9771 11.2138ZM3.06787 2.27272C3.01943 2.22428 2.93975 2.22428 2.89131 2.27272L2.27259 2.8915C2.22416 2.93994 2.22416 3.01963 2.27259 3.06807L10.9347 11.731C10.9831 11.7794 11.0628 11.7794 11.1112 11.731L11.7299 11.1122C11.7784 11.0638 11.7784 10.9841 11.7299 10.9356L3.06787 2.27272Z" fill="currentColor"/>
</svg>
