<svg xmlns="http://www.w3.org/2000/svg" width="14" height="14" viewBox="0 0 14 14" fill="none">
    <path
        d="M1.62187 7.87862C1.27187 7.3474 1.27187 6.64817 1.62187 6.11695C2.41365 4.91684 4.15899 2.91406 6.99787 2.91406C9.83676 2.91406 11.5829 4.91606 12.3739 6.11695C12.7239 6.64817 12.7239 7.3474 12.3739 7.87862C11.5821 9.07873 9.83676 11.0815 6.99787 11.0815C4.15899 11.0815 2.41287 9.07951 1.62187 7.87862Z"
        stroke="var(--r-neutral-body, #3e495e)" stroke-linecap="round" stroke-linejoin="round" />
    <path
        d="M6.99826 9.13715C8.17954 9.13715 9.13715 8.17954 9.13715 6.99826C9.13715 5.81699 8.17954 4.85938 6.99826 4.85938C5.81699 4.85938 4.85938 5.81699 4.85938 6.99826C4.85938 8.17954 5.81699 9.13715 6.99826 9.13715Z"
        stroke="var(--r-neutral-body, #3e495e)" stroke-linecap="round" stroke-linejoin="round" />
</svg>