<svg width="20" height="20" viewBox="0 0 20 20" fill="none" xmlns="http://www.w3.org/2000/svg">
<path d="M11.4977 9.67968H8.29493V10.9168H11.4977V9.67968Z" fill="#707280"/>
<path d="M15.841 3.73711C15.9388 3.73711 16.0326 3.77435 16.1017 3.84064C16.1708 3.90693 16.2097 3.99683 16.2097 4.09057V15.9094C16.2097 16.0032 16.1708 16.0931 16.1017 16.1594C16.0326 16.2256 15.9388 16.2629 15.841 16.2629H4.15899C4.06121 16.2629 3.96744 16.2256 3.8983 16.1594C3.82916 16.0931 3.79032 16.0032 3.79032 15.9094V4.09057C3.79032 3.99683 3.82916 3.90693 3.8983 3.84064C3.96744 3.77435 4.06121 3.73711 4.15899 3.73711H15.841ZM15.841 2.5H4.15899C3.719 2.5 3.29703 2.66758 2.98591 2.96587C2.67479 3.26416 2.5 3.66873 2.5 4.09057V15.9094C2.5 16.3313 2.67479 16.7358 2.98591 17.0341C3.29703 17.3324 3.719 17.5 4.15899 17.5H15.841C16.281 17.5 16.703 17.3324 17.0141 17.0341C17.3252 16.7358 17.5 16.3313 17.5 15.9094V4.09057C17.5 3.66873 17.3252 3.26416 17.0141 2.96587C16.703 2.66758 16.281 2.5 15.841 2.5Z" fill="#707280"/>
<path d="M9.97679 5.71981C9.8446 5.71977 9.71538 5.75732 9.60546 5.82771C9.49554 5.8981 9.40987 5.99816 9.35927 6.11524L6.64038 12.4004C6.57286 12.5573 6.57303 12.7335 6.64085 12.8903C6.70868 13.047 6.83861 13.1716 7.00213 13.2366C7.08319 13.2688 7.17008 13.2854 7.25784 13.2855C7.3456 13.2855 7.43251 13.269 7.5136 13.2368C7.59469 13.2047 7.66838 13.1575 7.73046 13.098C7.79254 13.0385 7.84179 12.9679 7.8754 12.8902L10.5931 6.60589C10.6607 6.44914 10.6607 6.27309 10.5931 6.11634C10.5255 5.9596 10.3959 5.83495 10.2325 5.76973C10.1515 5.73736 10.0646 5.71981 9.97679 5.71981Z" fill="#707280"/>
<path d="M10.0228 5.71981C9.93501 5.71981 9.84808 5.73648 9.76704 5.76885C9.60337 5.83394 9.47337 5.95868 9.40562 6.11565C9.33787 6.27261 9.33791 6.44896 9.40575 6.60589L12.1246 12.8911C12.1927 13.0478 12.3228 13.1722 12.4865 13.237C12.6501 13.3018 12.8339 13.3016 12.9975 13.2366C13.1608 13.1714 13.2904 13.0467 13.358 12.89C13.4256 12.7332 13.4256 12.5572 13.3581 12.4004L10.6392 6.11524C10.5886 5.99816 10.5029 5.8981 10.393 5.82771C10.2831 5.75732 10.1538 5.71977 10.0216 5.71981H10.0228Z" fill="#707280"/>
</svg>
