<svg width="26" height="26" viewBox="0 0 26 26" fill="none" xmlns="http://www.w3.org/2000/svg">
<path d="M9.08792 12.4104H4.4719C3.71755 12.4081 2.99475 12.1072 2.46134 11.5735C1.92793 11.0397 1.62727 10.3164 1.625 9.56153V4.94239C1.62727 4.18735 1.92808 3.46389 2.46172 2.9301C2.99536 2.3963 3.71844 2.09555 4.47298 2.09357H9.089C9.84335 2.09583 10.5662 2.39671 11.0996 2.93047C11.633 3.46424 11.9336 4.18753 11.9359 4.94239V9.56153C11.9336 10.3166 11.6328 11.04 11.0992 11.5738C10.5655 12.1076 9.84246 12.4084 9.08792 12.4104ZM23.6101 9.10821L20.6044 12.116C20.1116 12.6057 19.4454 12.8805 18.751 12.8805C18.0565 12.8805 17.3903 12.6057 16.8976 12.116L13.8918 9.10821C13.4021 8.61513 13.1273 7.9482 13.1273 7.25304C13.1273 6.55788 13.4021 5.89095 13.8918 5.39786L16.8976 2.39005C17.3903 1.90003 18.0568 1.625 18.7515 1.625C19.4462 1.625 20.1127 1.90003 20.6054 2.39005L23.6101 5.39786C24.63 6.41837 24.63 8.0877 23.6101 9.10821ZM9.089 24.375H4.47298C3.71844 24.373 2.99536 24.0723 2.46172 23.5385C1.92808 23.0047 1.62727 22.2812 1.625 21.5262V16.907C1.62727 16.152 1.92808 15.4285 2.46172 14.8947C2.99536 14.3609 3.71844 14.0602 4.47298 14.0582H9.089C9.84335 14.0605 10.5662 14.3613 11.0996 14.8951C11.633 15.4289 11.9336 16.1522 11.9359 16.907V21.5262C11.9336 22.2812 11.6328 23.0047 11.0992 23.5385C10.5655 24.0723 9.84246 24.373 9.08792 24.375H9.089ZM21.0584 24.375H16.4424C15.6881 24.3727 14.9653 24.0719 14.4319 23.5381C13.8985 23.0043 13.5978 22.281 13.5955 21.5262V16.907C13.5978 16.152 13.8986 15.4285 14.4322 14.8947C14.9659 14.3609 15.689 14.0602 16.4435 14.0582H21.0595C21.8139 14.0605 22.5367 14.3613 23.0701 14.8951C23.6035 15.4289 23.9042 16.1522 23.9064 16.907V21.5262C23.9042 22.281 23.6035 23.0043 23.0701 23.5381C22.5367 24.0719 21.8139 24.3727 21.0595 24.375H21.0584Z" fill="#B4BDCC"/>
</svg>
