<svg width="20" height="20" viewBox="0 0 20 20" fill="none" xmlns="http://www.w3.org/2000/svg">
<path d="M11.4225 7.88459L11.4293 7.8913L12.2818 8.74378C13.5258 9.98783 13.5382 11.9971 12.3191 13.2565L12.2818 13.2944L9.73096 15.8452C8.19112 17.3849 5.69465 17.3849 4.15484 15.8452C2.63046 14.3208 2.61521 11.8588 4.1091 10.3156L4.15483 10.2691L4.49451 9.92941C4.72111 9.70281 5.0885 9.70279 5.31511 9.92937C5.53947 10.1537 5.54171 10.516 5.32187 10.7431L5.31515 10.75L4.97545 11.0897C3.88885 12.1763 3.88885 13.938 4.97545 15.0246C6.05116 16.1003 7.78859 16.111 8.87759 15.0569L8.91039 15.0246L11.4612 12.4738C12.2565 11.6784 12.2645 10.3938 11.4851 9.5886L11.4612 9.56436L10.6088 8.71192C10.3822 8.48531 10.3822 8.11793 10.6088 7.89132C10.8309 7.66923 11.1882 7.6648 11.4157 7.87806L11.4225 7.88459ZM15.8451 4.15486C17.3696 5.67924 17.3848 8.1413 15.8908 9.68453L15.8451 9.731L15.5054 10.0706C15.2787 10.2972 14.9114 10.2972 14.6848 10.0705C14.4605 9.84616 14.4583 9.48383 14.6782 9.25677L14.6849 9.24992L15.0245 8.91037C16.1112 7.82374 16.1112 6.06203 15.0245 4.97544C13.9488 3.89971 12.2114 3.88896 11.1225 4.94316L11.0896 4.97544L8.53885 7.52625C7.74347 8.32163 7.73553 9.60627 8.51499 10.4114L8.53885 10.4356L9.39127 11.288C9.6179 11.5147 9.6179 11.8821 9.39127 12.1087C9.16695 12.333 8.80462 12.3352 8.57753 12.1154L8.57069 12.1087L7.71827 11.2562C6.47421 10.0123 6.46177 8.00294 7.68092 6.74359L7.71827 6.70565L10.2691 4.15484C11.8089 2.61505 14.3054 2.61505 15.8452 4.15484L15.8451 4.15486Z" fill="#707280"/>
</svg>
