<svg width="20" height="20" viewBox="0 0 20 20" fill="none" xmlns="http://www.w3.org/2000/svg">
<g opacity="0.4">
<path d="M3.89474 13C2.84834 13 2 12.1045 2 11C2 9.89547 2.84834 9 3.89474 9C4.94114 9 5.78947 9.89547 5.78947 11C5.78947 12.1045 4.94114 13 3.89474 13ZM10 13C8.9536 13 8.10526 12.1045 8.10526 11C8.10526 9.89547 8.9536 9 10 9C11.0464 9 11.8947 9.89547 11.8947 11C11.8947 12.1045 11.0464 13 10 13ZM16.1053 13C15.0589 13 14.2105 12.1045 14.2105 11C14.2105 9.89547 15.0589 9 16.1053 9C17.1517 9 18 9.89547 18 11C18 12.1045 17.1517 13 16.1053 13Z" fill="white"/>
</g>
</svg>
