<svg width="20" height="20" viewBox="0 0 20 20" fill="none" xmlns="http://www.w3.org/2000/svg">
<path d="M6.10714 19.2143C7.34152 19.7366 8.64955 20 10 20C11.3504 20 12.6585 19.7366 13.8929 19.2143C15.0848 18.7098 16.154 17.9888 17.0714 17.0714C17.9888 16.154 18.7098 15.0848 19.2143 13.8929C19.7366 12.6585 20 11.3504 20 10C20 8.64955 19.7366 7.34152 19.2143 6.10714C18.7098 4.91518 17.9888 3.84598 17.0714 2.92857C16.154 2.01116 15.0848 1.29018 13.8929 0.785714C12.6585 0.263393 11.3504 0 10 0C8.64955 0 7.34152 0.263393 6.10714 0.785714C4.91518 1.29018 3.84598 2.01116 2.92857 2.92857C2.01116 3.84598 1.29018 4.91518 0.785714 6.10714C0.263393 7.34152 0 8.64955 0 10C0 11.3504 0.263393 12.6585 0.785714 13.8929C1.29018 15.0848 2.01116 16.154 2.92857 17.0714C3.84598 17.9888 4.91518 18.7098 6.10714 19.2143Z" fill="#27C193"/>
<path d="M9.15247 14.2863H9.148C8.95158 14.284 8.76408 14.2037 8.63015 14.0608L4.83551 10.0028C4.56542 9.71484 4.58104 9.26172 4.86899 8.99386C5.15693 8.72377 5.61006 8.7394 5.87792 9.02735L9.15916 12.534L14.1279 7.36217C14.4002 7.07869 14.8534 7.06976 15.1368 7.34208C15.4203 7.6144 15.4293 8.06752 15.1569 8.35101L9.66586 14.0653C9.53416 14.2081 9.34666 14.2863 9.15247 14.2863Z" fill="white"/>
</svg>
