<svg width="20" height="20" viewBox="0 0 20 20" fill="none" xmlns="http://www.w3.org/2000/svg">
<path d="M13.12 10.48C13.84 9.88 14.2 9.04 14.2 8.2C14.2 6.52 12.88 5.2 11.2 5.2C9.52 5.2 8.2 6.52 8.2 8.2C8.2 9.04 8.56 9.88 9.28 10.48C7.6 11.2 6.4 12.88 6.4 14.8C6.4 15.16 6.64 15.4 7 15.4C7.36 15.4 7.6 15.16 7.6 14.8C7.6 12.76 9.16 11.2 11.2 11.2C13.24 11.2 14.8 12.76 14.8 14.8C14.8 15.16 15.04 15.4 15.4 15.4C15.76 15.4 16 15.16 16 14.8C16 12.88 14.8 11.2 13.12 10.48ZM11.2 10C10.24 10 9.4 9.16 9.4 8.2C9.4 7.24 10.24 6.4 11.2 6.4C12.16 6.4 13 7.24 13 8.2C13 9.16 12.16 10 11.2 10ZM16 1H5.2C3.52 1 2.2 2.32 2.2 4V5.8H1.6C1.24 5.8 1 6.04 1 6.4C1 6.76 1.24 7 1.6 7H2.2V9.4H1.6C1.24 9.4 1 9.64 1 10C1 10.36 1.24 10.6 1.6 10.6H2.2V13H1.6C1.24 13 1 13.24 1 13.6C1 13.96 1.24 14.2 1.6 14.2H2.2V16C2.2 17.68 3.52 19 5.2 19H16C17.68 19 19 17.68 19 16V4C19 2.32 17.68 1 16 1ZM17.8 16C17.8 16.96 16.96 17.8 16 17.8H5.2C4.24 17.8 3.4 16.96 3.4 16V14.2H4C4.36 14.2 4.6 13.96 4.6 13.6C4.6 13.24 4.36 13 4 13H3.4V10.6H4C4.36 10.6 4.6 10.36 4.6 10C4.6 9.64 4.36 9.4 4 9.4H3.4V7H4C4.36 7 4.6 6.76 4.6 6.4C4.6 6.04 4.36 5.8 4 5.8H3.4V4C3.4 3.04 4.24 2.2 5.2 2.2H16C16.96 2.2 17.8 3.04 17.8 4V16Z" fill="#707880"/>
</svg>
