<svg width="16" height="16" viewBox="0 0 16 16" fill="none" xmlns="http://www.w3.org/2000/svg">
<path d="M6.26316 2H12.8947C13.1879 2 13.469 2.11645 13.6763 2.32372C13.8836 2.531 14 2.81213 14 3.10526V9.73684C14 10.03 13.8836 10.3111 13.6763 10.5184C13.469 10.7257 13.1879 10.8421 12.8947 10.8421H6.26316C5.97002 10.8421 5.6889 10.7257 5.48162 10.5184C5.27434 10.3111 5.15789 10.03 5.15789 9.73684V3.10526C5.15789 2.81213 5.27434 2.531 5.48162 2.32372C5.6889 2.11645 5.97002 2 6.26316 2ZM6.26316 2.94737C6.22128 2.94737 6.18112 2.964 6.15151 2.99361C6.1219 3.02323 6.10526 3.06339 6.10526 3.10526V9.73684C6.10526 9.75758 6.10935 9.77811 6.11728 9.79727C6.12522 9.81642 6.13685 9.83383 6.15151 9.84849C6.16617 9.86315 6.18358 9.87478 6.20273 9.88272C6.22189 9.89065 6.24242 9.89474 6.26316 9.89474H12.8947C12.9366 9.89474 12.9768 9.8781 13.0064 9.84849C13.036 9.81888 13.0526 9.77872 13.0526 9.73684V3.10526C13.0526 3.06339 13.036 3.02323 13.0064 2.99361C12.9768 2.964 12.9366 2.94737 12.8947 2.94737H6.26316ZM9.89474 11.7895C9.89474 11.6638 9.94464 11.5434 10.0335 11.4545C10.1223 11.3657 10.2428 11.3158 10.3684 11.3158C10.4941 11.3158 10.6145 11.3657 10.7034 11.4545C10.7922 11.5434 10.8421 11.6638 10.8421 11.7895V12.8947C10.8421 13.1879 10.7257 13.469 10.5184 13.6763C10.3111 13.8836 10.03 14 9.73684 14H3.10526C2.81213 14 2.531 13.8836 2.32372 13.6763C2.11645 13.469 2 13.1879 2 12.8947V6.26316C2 5.97002 2.11645 5.6889 2.32372 5.48162C2.531 5.27434 2.81213 5.15789 3.10526 5.15789H4.21053C4.33616 5.15789 4.45664 5.2078 4.54547 5.29663C4.6343 5.38547 4.68421 5.50595 4.68421 5.63158C4.68421 5.75721 4.6343 5.87769 4.54547 5.96652C4.45664 6.05536 4.33616 6.10526 4.21053 6.10526H3.10526C3.06339 6.10526 3.02323 6.1219 2.99361 6.15151C2.964 6.18112 2.94737 6.22128 2.94737 6.26316V12.8947C2.94737 12.9366 2.964 12.9768 2.99361 13.0064C3.02323 13.036 3.06339 13.0526 3.10526 13.0526H9.73684C9.77872 13.0526 9.81888 13.036 9.84849 13.0064C9.8781 12.9768 9.89474 12.9366 9.89474 12.8947V11.7895Z" fill="#B4BDCC"/>
</svg>
