<svg viewBox="0 0 6 7" fill="none" xmlns="http://www.w3.org/2000/svg">
<path d="M3 2.88415L0.744037 0.627493C0.703621 0.587073 0.655639 0.55501 0.602832 0.533134C0.550025 0.511259 0.493426 0.5 0.436268 0.5C0.37911 0.5 0.322511 0.511259 0.269704 0.533134C0.216897 0.55501 0.168915 0.587073 0.128498 0.627493C0.0880813 0.667914 0.0560208 0.7159 0.0341473 0.768711C0.0122738 0.821523 0.0010157 0.878126 0.0010157 0.935289C0.0010157 0.992452 0.0122738 1.04906 0.0341473 1.10187C0.0560208 1.15468 0.0880813 1.20266 0.128498 1.24309L2.38395 3.49975L0.127482 5.7559C0.0870652 5.79632 0.0550051 5.84431 0.0331316 5.89712C0.0112581 5.94993 4.4443e-10 6.00653 0 6.0637C-4.44429e-10 6.12086 0.0112581 6.17746 0.0331316 6.23027C0.0550051 6.28308 0.0870652 6.33107 0.127482 6.37149C0.167899 6.41191 0.215881 6.44397 0.268688 6.46585C0.321495 6.48773 0.378094 6.49898 0.435252 6.49898C0.49241 6.49898 0.549009 6.48773 0.601816 6.46585C0.654623 6.44397 0.702605 6.41191 0.743022 6.37149L3 4.11585L5.25596 6.37251C5.29638 6.41293 5.34436 6.44499 5.39717 6.46687C5.44998 6.48874 5.50657 6.5 5.56373 6.5C5.62089 6.5 5.67749 6.48874 5.7303 6.46687C5.7831 6.44499 5.83108 6.41293 5.8715 6.37251C5.91192 6.33209 5.94398 6.2841 5.96585 6.23129C5.98773 6.17848 5.99898 6.12187 5.99898 6.06471C5.99898 6.00755 5.98773 5.95094 5.96585 5.89813C5.94398 5.84532 5.91192 5.79734 5.8715 5.75692L3.61605 3.49975L5.87252 1.24359C5.91293 1.20317 5.94499 1.15519 5.96687 1.10238C5.98874 1.04956 6 0.99296 6 0.935797C6 0.878634 5.98874 0.822031 5.96687 0.769219C5.94499 0.716407 5.91293 0.668422 5.87252 0.628001C5.8321 0.587581 5.78412 0.555518 5.73131 0.533642C5.6785 0.511767 5.62191 0.500508 5.56475 0.500508C5.50759 0.500508 5.45099 0.511767 5.39818 0.533642C5.34538 0.555518 5.29739 0.587581 5.25698 0.628001L3 2.88365V2.88415Z"/>
</svg>
