<svg width="16" height="16" viewBox="0 0 16 16" fill="none" xmlns="http://www.w3.org/2000/svg">
<path fill-rule="evenodd" clip-rule="evenodd" d="M0 8C0 3.5832 3.5832 0 8 0C12.4168 0 16 3.5832 16 8C16 12.4168 12.4168 16 8 16C3.5832 16 0 12.4168 0 8ZM10.6632 11.1432C10.8332 11.31 11.13 11.31 11.2968 11.1432C11.4632 10.9768 11.4632 10.68 11.2968 10.51L8.78 7.99319L11.2868 5.48679C11.4532 5.31679 11.4532 5.01999 11.2868 4.85319C11.1168 4.68679 10.83 4.68679 10.6532 4.85319L8.1468 7.35999L5.64 4.85319C5.47 4.68679 5.1732 4.68679 5.0068 4.85319C4.84 5.02319 4.84 5.31999 5.0068 5.48679L7.5132 7.99319L4.9968 10.51C4.83 10.68 4.83 10.9768 4.9968 11.1432C5.1668 11.31 5.4632 11.31 5.63 11.1432L8.1468 8.62679L10.6632 11.1432Z" fill="#F24822"/>
</svg>
