<svg width="60" height="60" viewBox="0 0 60 60" fill="none" xmlns="http://www.w3.org/2000/svg">
<g opacity="0.4">
<path d="M50.4385 4C51.1688 4 51.892 4.14385 52.5668 4.42334C53.2415 4.70284 53.8546 5.11249 54.3711 5.62892C54.8875 6.14536 55.2972 6.75845 55.5767 7.4332C55.8561 8.10796 56 8.83115 56 9.5615V42.9305C56 44.4055 55.4141 45.8201 54.3711 46.8631C53.3281 47.906 51.9135 48.492 50.4385 48.492H49.6043V48.8396C49.6044 50.6602 48.9109 52.4126 47.665 53.7402C46.419 55.0677 44.7142 55.8708 42.8971 55.9861L42.4439 56H11.1604C9.33975 56.0001 7.58741 55.3067 6.25983 54.0607C4.93225 52.8148 4.12916 51.1099 4.0139 49.2929L4 48.8396V17.5561C3.99988 15.7355 4.69333 13.9831 5.93928 12.6556C7.18524 11.328 8.89012 10.5249 10.7071 10.4096L11.1604 10.3957H11.508V9.5615C11.508 8.0865 12.094 6.67191 13.1369 5.62892C14.1799 4.58594 15.5945 4 17.0695 4H50.4385ZM11.508 14.2888H11.1604C9.4753 14.2888 8.09047 15.5624 7.91249 17.2002L7.89305 17.5561V48.8396C7.89305 50.5247 9.16665 51.9095 10.8045 52.0875L11.1604 52.107H42.4439C44.129 52.107 45.5138 50.8333 45.6918 49.1955L45.7112 48.8396V48.492H17.0695C15.5945 48.492 14.1799 47.906 13.1369 46.8631C12.094 45.8201 11.508 44.4055 11.508 42.9305V14.2888ZM50.4385 7.89305H17.0695C16.6738 7.89312 16.291 8.03383 15.9895 8.29004C15.688 8.54626 15.4873 8.9013 15.4233 9.29179L15.4011 9.5615V10.3957V14.2888V42.9305C15.4011 43.3262 15.5419 43.709 15.7981 44.0105C16.0543 44.312 16.4093 44.5127 16.7998 44.5767L17.0695 44.5989H50.4385C50.8342 44.5989 51.217 44.4581 51.5185 44.2019C51.8201 43.9457 52.0207 43.5907 52.0847 43.2002L52.107 42.9305V9.5615C52.1069 9.16581 51.9662 8.78302 51.71 8.48148C51.4537 8.17995 51.0987 7.97928 50.7082 7.91532L50.4385 7.89305ZM35.4141 32.6417C35.9092 32.6391 36.3866 32.8253 36.7493 33.1623C37.112 33.4994 37.3326 33.9619 37.3663 34.4559C37.3999 34.9498 37.2441 35.438 36.9305 35.8211C36.6169 36.2042 36.1691 36.4535 35.6783 36.5181L35.4141 36.5348H22.631C22.1359 36.5373 21.6585 36.3512 21.2958 36.0141C20.9331 35.6771 20.7125 35.2146 20.6789 34.7206C20.6452 34.2267 20.801 33.7384 21.1146 33.3553C21.4282 32.9722 21.876 32.723 22.3668 32.6584L22.631 32.6417H35.4141ZM44.2902 23.8768C44.7852 23.8743 45.2626 24.0605 45.6252 24.3975C45.9878 24.7346 46.2083 25.1971 46.242 25.6909C46.2757 26.1848 46.1199 26.673 45.8064 27.0561C45.4929 27.4392 45.0452 27.6884 44.5545 27.7531L44.2903 27.7699H22.631C22.1394 27.7673 21.667 27.5789 21.3087 27.2424C20.9503 26.9059 20.7325 26.4462 20.6991 25.9558C20.6656 25.4654 20.819 24.9804 21.1284 24.5984C21.4377 24.2164 21.8802 23.9655 22.3668 23.8963L22.631 23.8768H44.293H44.2902ZM44.7407 14.5668C45.2358 14.5643 45.7133 14.7504 46.076 15.0875C46.4386 15.4245 46.6592 15.8871 46.6929 16.381C46.7266 16.8749 46.5707 17.3632 46.2571 17.7463C45.9436 18.1294 45.4958 18.3786 45.0049 18.4432L44.7407 18.4599H23.0815C22.5864 18.4625 22.1089 18.2763 21.7463 17.9393C21.3836 17.6022 21.163 17.1397 21.1293 16.6457C21.0957 16.1518 21.2515 15.6636 21.5651 15.2805C21.8787 14.8974 22.3264 14.6481 22.8173 14.5835L23.0815 14.5668H44.7435H44.7407Z" fill="#E5E9EF"/>
</g>
</svg>
