<svg width="16" height="16" viewBox="0 0 16 16" fill="none" xmlns="http://www.w3.org/2000/svg">
<path d="M10.3817 3.39621C10.6608 3.14278 11.0391 3.00043 11.4336 3.00043C11.828 3.00043 12.2064 3.14278 12.4854 3.39621L13.5641 4.37501C13.8429 4.62884 13.9995 4.9729 13.9995 5.33162C13.9995 5.69034 13.8429 6.03439 13.5641 6.28823L6.61775 12.6042C6.47953 12.7298 6.31543 12.8295 6.13483 12.8975C5.95424 12.9655 5.76068 13.0004 5.56521 13.0004H3.49588C3.36423 13.0004 3.23798 12.9529 3.14489 12.8683C3.05181 12.7836 2.99951 12.6688 2.99951 12.5492V10.6678C2.99951 10.309 3.15626 9.96466 3.43538 9.71089L10.3817 3.39621ZM11.7842 4.03374C11.6912 3.94932 11.5651 3.9019 11.4336 3.9019C11.3021 3.9019 11.176 3.94932 11.083 4.03374L10.1507 4.88129L11.93 6.49886L12.8622 5.65132C12.9551 5.56672 13.0072 5.45208 13.0072 5.33256C13.0072 5.21304 12.9551 5.09839 12.8622 5.01379L11.7842 4.03374ZM11.228 7.13639L9.44951 5.51944L4.1373 10.3484C4.09116 10.3902 4.05453 10.4399 4.02952 10.4946C4.00452 10.5493 3.99161 10.608 3.99155 10.6672V12.0985H5.56521C5.63036 12.0985 5.69487 12.0867 5.75503 12.064C5.81519 12.0413 5.86983 12.008 5.91583 11.966L11.228 7.13639Z" fill="#8697FF"/>
</svg>
