<svg width="11" height="11" viewBox="0 0 11 11" fill="none" xmlns="http://www.w3.org/2000/svg">
<path d="M7.38174 0.782229C7.66083 0.520218 8.03915 0.373047 8.4336 0.373047C8.82805 0.373047 9.20637 0.520218 9.48545 0.782229L10.5641 1.79415C10.8429 2.05658 10.9995 2.41228 10.9995 2.78314C10.9995 3.154 10.8429 3.5097 10.5641 3.77213L3.61775 10.3018C3.47953 10.4317 3.31543 10.5348 3.13483 10.6051C2.95424 10.6754 2.76068 10.7115 2.56521 10.7115H0.495877C0.364233 10.7115 0.23798 10.6624 0.144894 10.5749C0.0518072 10.4874 -0.000488281 10.3687 -0.000488281 10.245V8.29994C-0.000488281 7.92903 0.156259 7.57299 0.435378 7.31064L7.38174 0.782229ZM8.78422 1.44134C8.69116 1.35405 8.56506 1.30503 8.4336 1.30503C8.30213 1.30503 8.17604 1.35405 8.08298 1.44134L7.15075 2.31756L8.92996 3.98989L9.8622 3.11366C9.95506 3.0262 10.0072 2.90768 10.0072 2.78411C10.0072 2.66054 9.95506 2.54202 9.8622 2.45456L8.78422 1.44134ZM8.22804 4.649L6.44951 2.97732L1.1373 7.96974C1.09116 8.01298 1.05453 8.06434 1.02952 8.12088C1.00452 8.17743 0.991613 8.23806 0.991555 8.2993V9.77906H2.56521C2.63037 9.77901 2.69487 9.76688 2.75503 9.74337C2.81519 9.71987 2.86983 9.68544 2.91583 9.64207L8.22804 4.649Z" fill="#8697FF"/>
</svg>
