<svg width="20" height="20" viewBox="0 0 20 20" fill="none" xmlns="http://www.w3.org/2000/svg">
<path d="M10 17C13.866 17 17 13.866 17 10C17 6.13398 13.866 3 10 3C6.13398 3 3 6.13398 3 10C3 13.866 6.13398 17 10 17ZM10 18C5.58164 18 2 14.4184 2 10C2 5.58164 5.58164 2 10 2C14.4182 2 18 5.58164 18 10C18 14.4184 14.4184 18 10 18ZM10.5 5C10.5 4.72383 10.2762 4.5 10 4.5C9.72383 4.5 9.5 4.72383 9.5 5V10.375C9.5 10.5189 9.56191 10.6561 9.66992 10.751L12.6699 13.376C12.8775 13.5582 13.1938 13.5375 13.376 13.3301C13.5582 13.1225 13.5375 12.8062 13.3301 12.624L10.5 10.148V5Z" fill="white"/>
</svg>
