<svg width="20" height="20" viewBox="0 0 20 20" fill="none" xmlns="http://www.w3.org/2000/svg">
<path d="M9.99984 18.3346C12.301 18.3346 14.3843 17.4019 15.8924 15.8938C17.4004 14.3858 18.3332 12.3025 18.3332 10.0013C18.3332 7.70014 17.4004 5.6168 15.8924 4.10874C14.3843 2.60071 12.301 1.66797 9.99984 1.66797C7.69867 1.66797 5.61534 2.60071 4.10728 4.10874C2.59925 5.6168 1.6665 7.70014 1.6665 10.0013C1.6665 12.3025 2.59925 14.3858 4.10728 15.8938C5.61534 17.4019 7.69867 18.3346 9.99984 18.3346Z" stroke="#707280" stroke-width="1.25" stroke-linejoin="round"/>
<path d="M10 11.9284V10.2617C11.3807 10.2617 12.5 9.14243 12.5 7.76172C12.5 6.38101 11.3807 5.26172 10 5.26172C8.61929 5.26172 7.5 6.38101 7.5 7.76172" stroke="#707280" stroke-width="1.25" stroke-linecap="round" stroke-linejoin="round"/>
<path fill-rule="evenodd" clip-rule="evenodd" d="M10.0002 15.6771C10.5755 15.6771 11.0418 15.2107 11.0418 14.6354C11.0418 14.0601 10.5755 13.5938 10.0002 13.5938C9.42487 13.5938 8.9585 14.0601 8.9585 14.6354C8.9585 15.2107 9.42487 15.6771 10.0002 15.6771Z" fill="#707280"/>
</svg>
