<svg width="64" height="64" viewBox="0 0 64 64" fill="none" xmlns="http://www.w3.org/2000/svg">
<path d="M64 0H0V64H64V0Z" fill="white" fill-opacity="0.01"/>
<path d="M31.9896 58.659C39.3533 58.659 46.02 55.6742 50.8457 50.8485C55.6715 46.0227 58.6563 39.3561 58.6563 31.9923C58.6563 24.6286 55.6715 17.9619 50.8457 13.1362C46.02 8.31046 39.3533 5.32568 31.9896 5.32568C24.6259 5.32568 17.9592 8.31046 13.1334 13.1362C8.30771 17.9619 5.32294 24.6286 5.32294 31.9923C5.32294 39.3561 8.30771 46.0227 13.1334 50.8485C17.9592 55.6742 24.6259 58.659 31.9896 58.659Z" stroke="#EC5151" stroke-width="3" stroke-linejoin="round"/>
<path fill-rule="evenodd" clip-rule="evenodd" d="M32.013 49.0163C33.6744 49.0163 35.0212 47.6695 35.0212 46.0081C35.0212 44.3468 33.6744 43 32.013 43C30.3517 43 29.0049 44.3468 29.0049 46.0081C29.0049 47.6695 30.3517 49.0163 32.013 49.0163Z" fill="#EC5151"/>
<path d="M32 16V37.3333" stroke="#EC5151" stroke-width="3" stroke-linecap="round" stroke-linejoin="round"/>
</svg>
