<svg width="14" height="14" viewBox="0 0 14 14" fill="none" xmlns="http://www.w3.org/2000/svg">
<path d="M14 0H0V14H14V0Z" fill="white" fill-opacity="0.01"/>
<path d="M6.99544 12.8337C8.60626 12.8337 10.0646 12.1807 11.1202 11.1251C12.1759 10.0695 12.8288 8.61114 12.8288 7.00033C12.8288 5.38951 12.1759 3.93118 11.1202 2.87553C10.0646 1.81991 8.60626 1.16699 6.99544 1.16699C5.38463 1.16699 3.92629 1.81991 2.87065 2.87553C1.81503 3.93118 1.16211 5.38951 1.16211 7.00033C1.16211 8.61114 1.81503 10.0695 2.87065 11.1251C3.92629 12.1807 5.38463 12.8337 6.99544 12.8337Z" fill="#27C193"/>
<path d="M4.66211 7L6.41211 8.75L9.91211 5.25" stroke="white" stroke-width="0.875" stroke-linecap="round" stroke-linejoin="round"/>
</svg>
