<svg width="28" height="28" viewBox="0 0 28 28" fill="none" xmlns="http://www.w3.org/2000/svg">
<g opacity="0.5">
<path d="M21.4391 24.4704C21.7355 24.9711 21.5692 25.6398 21.052 25.9198C20.9322 25.9902 20.7995 26.036 20.6618 26.0545C20.5241 26.0731 20.384 26.064 20.2499 26.0278C20.1157 25.9916 19.9901 25.929 19.8804 25.8437C19.7706 25.7585 19.679 25.6522 19.6108 25.5311C19.5386 25.4119 19.4909 25.2796 19.4704 25.1418C19.45 25.004 19.4572 24.8635 19.4917 24.7285C19.5262 24.5936 19.5873 24.4668 19.6714 24.3558C19.7555 24.2447 19.8609 24.1515 19.9814 24.0816C20.2267 23.9418 20.5172 23.9042 20.79 23.9769C21.0628 24.0497 21.296 24.227 21.4391 24.4704ZM15.177 26.7334C15.177 27.3099 14.6993 27.7941 14.0981 27.7941C13.8168 27.7937 13.5471 27.6818 13.348 27.4831C13.1489 27.2843 13.0366 27.0147 13.0358 26.7334V25.9889C13.0358 25.705 13.1486 25.4327 13.3493 25.2319C13.5501 25.0311 13.8224 24.9184 14.1064 24.9184C14.3903 24.9184 14.6626 25.0311 14.8634 25.2319C15.0642 25.4327 15.177 25.705 15.177 25.9889V26.7334ZM8.61672 25.5344C8.47836 25.7791 8.24851 25.9589 7.97766 26.0342C7.7068 26.1096 7.41712 26.0744 7.17224 25.9362L7.15907 25.928C7.03603 25.8596 6.92794 25.7673 6.84118 25.6564C6.75441 25.5455 6.69073 25.4184 6.65388 25.2826C6.61704 25.1467 6.60778 25.0048 6.62665 24.8653C6.64553 24.7258 6.69215 24.5915 6.76377 24.4704L7.55436 23.0868C7.70035 22.8421 7.93611 22.664 8.21144 22.5905C8.48676 22.517 8.77991 22.5538 9.02848 22.6932C9.52919 22.9896 9.71201 23.6518 9.4073 24.1525L8.61672 25.5344V25.5344ZM3.52895 21.2388C3.28282 21.3791 2.9912 21.4162 2.71778 21.3421C2.44435 21.2681 2.21135 21.0888 2.06966 20.8435C1.99851 20.7232 1.95187 20.5899 1.93241 20.4515C1.91295 20.313 1.92106 20.1721 1.95626 20.0367C1.99147 19.9014 2.05308 19.7744 2.13755 19.663C2.22203 19.5516 2.3277 19.458 2.44848 19.3875L4.57648 18.1572C5.08542 17.8772 5.74589 18.0336 6.03413 18.5525C6.17117 18.7988 6.20653 19.0889 6.13268 19.3609C6.05884 19.6329 5.88162 19.8653 5.63883 20.0085L3.52895 21.2388ZM1.26754 14.9635C1.12832 14.964 0.990387 14.9369 0.861623 14.884C0.732859 14.8311 0.615793 14.7533 0.517123 14.6551C0.418453 14.5569 0.340114 14.4402 0.286589 14.3117C0.233063 14.1831 0.205401 14.0453 0.205185 13.9061V13.9012C0.203882 13.7616 0.230138 13.6232 0.282448 13.4937C0.334758 13.3643 0.412094 13.2465 0.510021 13.1471C0.607949 13.0476 0.724543 12.9685 0.85312 12.9142C0.981697 12.8598 1.11973 12.8314 1.2593 12.8306H4.57813C4.71734 12.8302 4.85528 12.8572 4.98404 12.9101C5.11281 12.963 5.22987 13.0408 5.32854 13.139C5.42721 13.2372 5.50555 13.3539 5.55908 13.4825C5.6126 13.611 5.64026 13.7488 5.64048 13.888V13.8929C5.64178 14.0324 5.61558 14.1707 5.56337 14.3C5.51117 14.4293 5.43398 14.547 5.33623 14.6465C5.23847 14.7459 5.12207 14.8251 4.99369 14.8795C4.8653 14.9339 4.72744 14.9625 4.58801 14.9635H1.26754V14.9635ZM2.45342 8.39835C2.33105 8.33034 2.22371 8.23826 2.13786 8.12767C2.05201 8.01708 1.98942 7.89026 1.95388 7.75484C1.91833 7.61942 1.91056 7.47822 1.93102 7.33972C1.95148 7.20122 1.99976 7.06829 2.07295 6.94894C2.14198 6.82654 2.23468 6.7191 2.34565 6.63288C2.45662 6.54666 2.58364 6.48339 2.71931 6.44675C2.85497 6.41011 2.99658 6.40084 3.13586 6.41948C3.27515 6.43811 3.40933 6.48428 3.5306 6.55529L7.12777 8.64212C7.63836 8.932 7.80307 9.58259 7.52307 10.0849C7.38109 10.329 7.14868 10.5074 6.87618 10.5813C6.60367 10.6553 6.31299 10.619 6.06707 10.4802L2.45177 8.39835H2.45342ZM6.76377 3.31553L9.2706 7.66376C9.41368 7.909 9.64819 8.08747 9.92269 8.16003C10.1972 8.23259 10.4893 8.19332 10.7348 8.05082C10.8557 7.98023 10.9614 7.88646 11.0459 7.7749C11.1304 7.66334 11.192 7.53618 11.2272 7.40073C11.2624 7.26528 11.2705 7.12421 11.251 6.98563C11.2315 6.84704 11.1848 6.71367 11.1137 6.59318L8.60024 2.25318C8.46002 2.00943 8.22872 1.83136 7.95721 1.75816C7.6857 1.68495 7.39623 1.7226 7.15248 1.86282C6.90873 2.00304 6.73067 2.23435 6.65746 2.50586C6.58426 2.77737 6.6219 3.06684 6.76213 3.31059L6.76377 3.31553ZM13.0358 1.06894C13.0358 0.494118 13.5217 0 14.0981 0C14.6911 0 15.177 0.479294 15.177 1.07059V6.07765C15.177 6.67059 14.6993 7.14824 14.0981 7.15647C13.8153 7.15516 13.5446 7.04169 13.3455 6.84096C13.1463 6.64023 13.0349 6.36866 13.0358 6.08588V1.06729V1.06894ZM19.596 2.25482C19.7377 2.00997 19.9704 1.83103 20.2434 1.75699C20.5165 1.68295 20.8077 1.71981 21.0537 1.85953C21.298 1.9952 21.4785 2.22237 21.5554 2.49108C21.6323 2.7598 21.5994 3.04805 21.4638 3.29247L21.4473 3.31718L18.9372 7.66541C18.7955 7.91076 18.5624 8.08995 18.2889 8.16374C18.0153 8.23752 17.7237 8.19988 17.4779 8.05906C17.2345 7.91384 17.0577 7.67907 16.9854 7.40507C16.913 7.13106 16.9509 6.83961 17.0908 6.59318L19.5944 2.25318L19.596 2.25482ZM24.6986 6.55529L20.3405 9.06541C20.0953 9.20679 19.9161 9.4395 19.842 9.71265C19.7679 9.98581 19.805 10.2772 19.9452 10.5231C20.0918 10.763 20.3252 10.9373 20.597 11.0097C20.8687 11.0821 21.1579 11.047 21.4045 10.9118L25.7626 8.4C26.0044 8.26043 26.1809 8.03066 26.2534 7.76109C26.326 7.49153 26.2887 7.20419 26.1497 6.96212L26.1414 6.95059C26.0743 6.82822 25.9833 6.72059 25.8737 6.63411C25.7642 6.54763 25.6384 6.48406 25.5038 6.44719C25.3692 6.41031 25.2285 6.40088 25.0902 6.41945C24.9519 6.43802 24.8187 6.48422 24.6986 6.55529V6.55529ZM26.9386 12.8306C27.0791 12.8292 27.2184 12.8561 27.3484 12.9095C27.4783 12.963 27.5963 13.042 27.6951 13.1418C27.794 13.2416 27.8719 13.3602 27.9242 13.4907C27.9764 13.6211 28.002 13.7607 27.9993 13.9012C28.0002 14.0397 27.9737 14.1771 27.9214 14.3055C27.8692 14.4338 27.7921 14.5505 27.6946 14.6491C27.5972 14.7476 27.4813 14.8259 27.3535 14.8796C27.2258 14.9333 27.0887 14.9612 26.9501 14.9619H21.92C21.6376 14.9597 21.3675 14.8462 21.1683 14.6461C20.9691 14.446 20.8569 14.1753 20.856 13.8929C20.8586 13.6119 20.9716 13.3431 21.1707 13.1446C21.3698 12.9462 21.6389 12.834 21.92 12.8322H26.937L26.9386 12.8306Z" fill="#707880"/>
</g>
</svg>
