<svg width="36" height="36" viewBox="0 0 36 36" fill="none" xmlns="http://www.w3.org/2000/svg">
<path d="M27.2506 2.55567C27.5576 2.73994 27.7789 3.03862 27.8657 3.38601C27.9525 3.7334 27.8977 4.10104 27.7134 4.40806C27.5292 4.71507 27.2305 4.93631 26.8831 5.0231C26.5357 5.1099 26.168 5.05514 25.861 4.87087C23.487 3.44556 20.769 2.69488 18 2.69967C9.54989 2.69967 2.7 9.54941 2.7 17.9993C2.7 26.4492 9.54989 33.299 18 33.299C26.4501 33.299 33.3 26.4492 33.3 17.9993C33.3049 15.2307 32.5545 12.5132 31.1296 10.1393C31.0384 9.98733 30.978 9.81884 30.9519 9.64349C30.9258 9.46813 30.9345 9.28936 30.9775 9.11737C31.0205 8.94538 31.097 8.78355 31.2025 8.6411C31.3081 8.49866 31.4406 8.3784 31.5927 8.28719C31.7447 8.19598 31.9132 8.13561 32.0885 8.10951C32.2639 8.08342 32.4427 8.09212 32.6147 8.13512C32.7867 8.17811 32.9485 8.25457 33.0909 8.36011C33.2334 8.46565 33.3537 8.59821 33.4449 8.75023C35.1215 11.5437 36.0049 14.7413 36 17.9993C36 27.94 27.9409 35.9989 18 35.9989C8.05904 35.9989 -3.52272e-07 27.94 -7.86805e-07 17.9993C-1.22134e-06 8.0586 8.05904 -0.000267381 18 -0.000267816C21.303 -0.00026796 24.4786 0.892062 27.2506 2.55567Z" fill="none"/>
</svg>
