<svg width="18" height="17" viewBox="0 0 18 17" fill="none" xmlns="http://www.w3.org/2000/svg">
<path d="M8.74589 5.20209L6.5423 5.20551L5.6825 3.12891L8.74589 5.20209Z" fill="#F6851B"/>
<path d="M5.6825 3.12837L9.63531 3.12012L8.74589 5.20155L5.6825 3.12837Z" fill="#F6851B"/>
<path d="M6.54235 5.20812L0.996094 1.03662L5.68254 3.13151L6.54235 5.20812Z" fill="#E4761B"/>
<path d="M14.3004 1L8.74585 5.20332L9.6353 3.12189L14.3004 1Z" fill="#E2761B"/>
<path d="M3.24603 6.98202L0.732907 6.32732L0.598022 5.74121L3.24603 6.98202ZM0.818848 7.03143L0.732868 6.32732L3.24603 6.98202L0.818848 7.03143ZM1.17044 8.04841L3.24603 6.98202L4.32526 7.1737L1.17044 8.04841Z" fill="#763D16"/>
<path d="M0.818848 7.03297L3.24603 6.98356L1.17043 8.04995L0.818848 7.03297ZM12.0756 6.97426L14.727 5.72314L14.591 6.31178L12.0756 6.97426ZM14.5038 7.01869L12.0756 6.97426L14.591 6.31182L14.5038 7.01869ZM14.1501 8.03995L10.982 7.16859L12.0756 6.97426L14.1501 8.03995Z" fill="#763D16"/>
<path d="M14.5038 7.0168L14.1501 8.03806L12.0756 6.97237L14.5038 7.0168ZM3.35302 3.79443L3.24603 6.98167L0.598022 5.74086L3.35302 3.79443ZM4.3253 7.17335L3.24603 6.98167L3.35302 3.79443L4.3253 7.17335Z" fill="#763D16"/>
<path d="M4.38806 13.6514L5.21169 13.2156L5.35575 13.1816L4.38806 13.6514ZM9.96801 13.1844L10.0952 13.2185L10.8986 13.6561L9.96801 13.1844Z" fill="#E2761B"/>
<path d="M14.7269 5.724L12.0755 6.97512L11.9471 3.78076L14.7269 5.724Z" fill="#763D16"/>
<path d="M11.9471 3.78076L12.0755 6.97512L10.9819 7.16945L11.9471 3.78076Z" fill="#763D16"/>
<path d="M4.38812 13.6501L0.86358 14.9521L0 11.4263L4.38812 13.6501Z" fill="#E4761B"/>
<path d="M0.27063 5.95317L0.598017 5.74121L0.732863 6.32732L0.27063 5.95317Z" fill="#763D16"/>
<path d="M15.3387 11.4312L14.4742 14.9696L10.8987 13.6577L15.3387 11.4312Z" fill="#E4761B"/>
<path d="M3.35303 3.79384L6.54237 5.20485L4.32531 7.17276L3.35303 3.79384ZM0.818861 7.03048L0.361491 6.58373L0.73288 6.32633L0.818861 7.03048ZM10.982 7.1661L8.74596 5.20143L11.9472 3.77738L10.982 7.1661ZM15.0547 5.93257L14.591 6.30933L14.727 5.72069L15.0547 5.93257ZM0.598035 5.74026L0.190308 3.29297L3.35303 3.79384L0.598035 5.74026ZM1.17045 8.04746L0.514972 7.22637L0.818822 7.03048L1.17045 8.04746Z" fill="#763D16"/>
<path d="M14.5037 7.01936L14.5909 6.31245L14.9626 6.56996L14.5037 7.01936ZM11.9471 3.78057L15.1265 3.26562L14.7269 5.72381L11.9471 3.78057Z" fill="#763D16"/>
<path d="M3.3392 8.27411L0 11.4271L1.17035 8.04834L3.3392 8.27411Z" fill="#F6851B"/>
<path d="M14.15 8.03933L14.5037 7.01807L14.8078 7.21407L14.15 8.03933Z" fill="#763D16"/>
<path d="M2.81355 11.0205L0.00012207 11.4294L3.33928 8.27637L2.81355 11.0205Z" fill="#F6851B"/>
<path d="M0.00012207 11.4294L2.81355 11.0205L4.38824 13.6532L0.00012207 11.4294Z" fill="#E4761B"/>
<path d="M11.9388 8.26872L14.1501 8.03906L15.3387 11.4299L11.9388 8.26872ZM11.9388 8.26872L15.3387 11.4299L12.465 11.0192L11.9388 8.26872Z" fill="#F6851B"/>
<path d="M10.8987 13.6577L12.465 11.0205L15.3387 11.4312L10.8987 13.6577Z" fill="#E4761B"/>
<path d="M1.17041 8.04982L4.32524 7.17511L3.33922 8.27558L1.17041 8.04982ZM14.1501 8.03982L11.9388 8.26948L10.982 7.16846L14.1501 8.03982Z" fill="#F6851B"/>
<path d="M4.32529 7.17494L6.54234 5.20704L6.70901 8.29284L4.32529 7.17494ZM6.70901 8.29284L3.33923 8.27541L4.32529 7.17494L6.70901 8.29284ZM10.982 7.16829L11.9388 8.26931L8.54666 8.29156L10.982 7.16829ZM8.54666 8.29152L8.74593 5.20361L10.982 7.16829L8.54666 8.29152Z" fill="#E4761B"/>
<path d="M0.996074 1.03525L6.54233 5.20675L3.35299 3.79573L0.996074 1.03525ZM3.35299 3.79573L0.190308 3.29486L0.996035 1.03525L3.35299 3.79573ZM14.3004 1L15.1265 3.26436L11.9472 3.77931L14.3004 1ZM11.9472 3.77931L8.74592 5.20336L14.3004 1L11.9472 3.77931Z" fill="#763D16"/>
<path d="M6.54236 5.207L8.74595 5.20361L8.54668 8.29152L6.54236 5.207Z" fill="#F6851B"/>
<path d="M8.54668 8.29249L6.70903 8.29382L6.54236 5.20801L8.54668 8.29249Z" fill="#F6851B"/>
<path d="M4.38813 13.6533L2.81348 11.0205L4.70555 10.9302L4.38813 13.6533ZM10.8986 13.658L10.5532 10.9302L12.465 11.0207L10.8986 13.658ZM4.6782 9.57463L3.3392 8.27637L6.70898 8.29387L4.6782 9.57463Z" fill="#CD6116"/>
<path d="M3.3392 8.27637L4.70555 10.9301L2.81348 11.0205L3.3392 8.27637Z" fill="#F6851B"/>
<path d="M3.33923 8.27637L4.67823 9.57463L4.70559 10.9301L3.33923 8.27637Z" fill="#E4751F"/>
<path d="M8.54663 8.2893L11.9388 8.26709L10.5853 9.56929L8.54663 8.2893Z" fill="#CD6116"/>
<path d="M12.4649 11.0175L10.5532 10.9269L11.9388 8.26709L12.4649 11.0175Z" fill="#F6851B"/>
<path d="M11.9388 8.26709L10.5532 10.927L10.5852 9.56929L11.9388 8.26709Z" fill="#E4751F"/>
<path d="M5.05206 14.0358L4.38818 13.6514L6.29435 13.788L5.05206 14.0358ZM8.90543 13.79L10.8987 13.6562L10.214 14.0401L8.90543 13.79Z" fill="#C0AD9E"/>
<path d="M6.709 8.29443L5.89137 9.00959L4.67822 9.57527L6.709 8.29443Z" fill="#CD6116"/>
<path d="M6.27431 13.0356L6.29435 13.7902L4.38818 13.6536L6.27431 13.0356Z" fill="#D7C1B3"/>
<path d="M10.5853 9.57002L9.36753 9.00473L8.54663 8.29004L10.5853 9.57002Z" fill="#CD6116"/>
<path d="M6.44459 11.6226L4.38806 13.6527L4.70553 10.9297L6.44459 11.6226Z" fill="#E4761B"/>
<path d="M4.38806 13.6527L6.44459 11.6226L6.27423 13.0347L4.38806 13.6527ZM8.90901 13.0362L10.8986 13.6574L8.90539 13.7913L8.90901 13.0362Z" fill="#D7C1B3"/>
<path d="M8.73657 11.6231L10.5532 10.9297L10.8986 13.6575L8.73657 11.6231Z" fill="#E4761B"/>
<path d="M10.8986 13.657L8.90904 13.0358L8.73657 11.6226L10.8986 13.657Z" fill="#D7C1B3"/>
<path d="M4.70561 10.9312L4.67822 9.57568L6.38356 9.98835L4.70561 10.9312Z" fill="#F6851B"/>
<path d="M6.38356 9.98368L4.67822 9.57101L5.89137 9.00537L6.38356 9.98368Z" fill="#233447"/>
<path d="M10.5533 10.9285L8.86633 9.98502L10.5853 9.5708L10.5533 10.9285Z" fill="#F6851B"/>
<path d="M8.86633 9.98485L9.36759 9.00537L10.5853 9.57066L8.86633 9.98485Z" fill="#233447"/>
<path d="M5.89136 9.00648L6.70899 8.29132L6.38355 9.98479L5.89136 9.00648ZM9.36758 9.00469L8.86632 9.98417L8.54664 8.29004L9.36758 9.00469Z" fill="#CD6116"/>
<path d="M6.77505 9.26438L6.70898 8.29136L8.54663 8.29004L6.77505 9.26438Z" fill="#F6851B"/>
<path d="M6.38354 9.9879L6.70899 8.29443L6.77505 9.26749L6.38354 9.9879Z" fill="#E4751F"/>
<path d="M8.54661 8.29004L8.4676 9.26368L6.77502 9.26446L8.54661 8.29004Z" fill="#F6851B"/>
<path d="M8.86635 9.98417L8.46765 9.26364L8.54667 8.29004L8.86635 9.98417Z" fill="#E2761B"/>
<path d="M6.29441 13.7881L6.40556 14.3601L5.05212 14.036L6.29441 13.7881ZM10.214 14.0403L8.79026 14.3624L8.90553 13.7901L10.214 14.0403Z" fill="#C0AD9E"/>
<path d="M6.44463 11.6223L4.70557 10.9294L6.38351 9.98646L6.44463 11.6223ZM8.86629 9.98584L10.5532 10.9293L8.73658 11.6227L8.86629 9.98584Z" fill="#F6851B"/>
<path d="M6.77505 9.26562L6.7405 11.416L6.38354 9.98603L6.77505 9.26562Z" fill="#E4751F"/>
<path d="M6.38354 9.98584L6.7405 11.4158L6.44463 11.6216L6.38354 9.98584Z" fill="#F6851B"/>
<path d="M8.46763 9.26562L8.86633 9.98615L8.44055 11.417L8.46763 9.26562Z" fill="#E4751F"/>
<path d="M8.73662 11.6227L8.44055 11.4167L8.86633 9.98584L8.73662 11.6227Z" fill="#F6851B"/>
<path d="M6.77503 9.26636L8.4676 9.26562L8.44052 11.417L6.77503 9.26636ZM8.44048 11.417L6.74048 11.4167L6.77503 9.26636L8.44048 11.417Z" fill="#F6851B"/>
<path d="M6.40548 14.3622L6.29433 13.7902L6.27429 13.0356L6.40548 14.3622ZM8.90907 13.0371L8.90545 13.7922L8.79018 14.3645L8.90907 13.0371Z" fill="#C0AD9E"/>
<path d="M6.27429 13.0321L6.42361 12.8125L6.40548 14.3587L6.27429 13.0321ZM6.40548 14.3587L6.42361 12.8125L8.75182 12.8137L6.40548 14.3587Z" fill="#C0AD9E"/>
<path d="M8.75185 12.8169L8.79021 14.3641L6.40552 14.3619L8.75185 12.8169ZM8.79021 14.3641L8.75185 12.8169L8.90911 13.0368L8.79021 14.3641Z" fill="#C0AD9E"/>
<path d="M6.42365 12.8159L6.27429 13.0355L6.44462 11.6233L6.42365 12.8159ZM8.7366 11.6238L8.90907 13.037L8.75182 12.8171L8.7366 11.6238ZM6.71622 11.5459L6.74049 11.4175L8.44054 11.4177L6.71622 11.5459Z" fill="#161616"/>
<path d="M6.44458 11.6233L6.74042 11.4175L6.71618 11.5459L6.44458 11.6233Z" fill="#161616"/>
<path d="M8.44043 11.4175L8.44891 11.5459L6.71619 11.5456L8.44043 11.4175ZM8.44891 11.5459L8.44047 11.4175L8.73654 11.6235L8.44891 11.5459ZM6.44459 11.6231L6.52668 11.7592L6.42358 12.8157L6.44459 11.6231Z" fill="#161616"/>
<path d="M6.71614 11.5449L6.52667 11.7585L6.44458 11.6224L6.71614 11.5449ZM8.75174 12.8162L8.63849 11.7589L8.73653 11.6228L8.75174 12.8162Z" fill="#161616"/>
<path d="M8.73658 11.6228L8.63854 11.7589L8.44895 11.5452L8.73658 11.6228ZM8.75179 12.8162L6.42358 12.815L6.52668 11.7585L8.75179 12.8162ZM6.52672 11.7585L8.6385 11.7589L8.75179 12.8162L6.52672 11.7585ZM6.52672 11.7585L6.71619 11.5449L8.44895 11.5452L6.52672 11.7585Z" fill="#161616"/>
<path d="M8.44896 11.5449L8.63855 11.7586L6.52673 11.7582L8.44896 11.5449Z" fill="#161616"/>
<circle cx="14" cy="13" r="4" fill="white"/>
<path d="M14 9C16.2091 9 18 10.7909 18 13C18 15.2091 16.2091 17 14 17C11.7909 17 10 15.2091 10 13C10 10.7909 11.7909 9 14 9ZM14 14.1C13.8939 14.1 13.7922 14.1421 13.7172 14.2172C13.6421 14.2922 13.6 14.3939 13.6 14.5C13.6 14.6061 13.6421 14.7078 13.7172 14.7828C13.7922 14.8579 13.8939 14.9 14 14.9C14.1061 14.9 14.2078 14.8579 14.2828 14.7828C14.3579 14.7078 14.4 14.6061 14.4 14.5C14.4 14.3939 14.3579 14.2922 14.2828 14.2172C14.2078 14.1421 14.1061 14.1 14 14.1ZM14 10.7C13.8939 10.7 13.7922 10.7421 13.7172 10.8172C13.6421 10.8922 13.6 10.9939 13.6 11.1V13.3C13.6 13.4061 13.6421 13.5078 13.7172 13.5828C13.7922 13.6579 13.8939 13.7 14 13.7C14.1061 13.7 14.2078 13.6579 14.2828 13.5828C14.3579 13.5078 14.4 13.4061 14.4 13.3V11.1C14.4 10.9939 14.3579 10.8922 14.2828 10.8172C14.2078 10.7421 14.1061 10.7 14 10.7Z" fill="#F24822"/>
</svg>
