<svg width="20" height="20" viewBox="0 0 20 20" fill="none" xmlns="http://www.w3.org/2000/svg">
<path d="M16.8261 7.13837V6.25786H16.0435V5.46541C16.0435 4.67296 15.4348 4.0566 14.6522 4.0566H13.5217V3H12.6522V4.14465H10.3913V3H9.52174V4.14465H7.17391V3H6.30435V4.14465H5.26087C4.47826 4.14465 3.86957 4.76101 3.86957 5.46541V6.25786H3V7.13837H3.86957V9.51572H3V10.3962H3.86957V12.7736H3V13.6541H3.86957V14.4465C3.86957 15.239 4.47826 15.8553 5.26087 15.8553H6.3913V17H7.26087V15.8553H9.6087V17H10.4783V15.8553H12.8261V17H13.6957V15.8553H14.8261C15.6087 15.8553 16.2174 15.239 16.2174 14.4465V13.6541H17V12.7736H16.0435V10.3962H16.8261V9.51572H16.0435V7.13837H16.8261ZM15.1739 14.4465C15.1739 14.7107 14.913 14.9748 14.6522 14.9748H5.26087C5 14.9748 4.73913 14.7107 4.73913 14.4465V5.46541C4.73913 5.20126 5 4.93711 5.26087 4.93711H14.7391C15 4.93711 15.2609 5.20126 15.2609 5.46541V14.4465H15.1739ZM6.82609 7.75472L5.43478 11.717H6.30435L6.56522 10.9245H8.04348L8.21739 11.717H9.08696L7.78261 7.75472H6.82609ZM6.73913 10.2201L7.26087 8.63522L7.78261 10.2201H6.73913ZM11.4348 7.75472H9.6087V11.717H10.3913V10.3082H11.3478C11.7826 10.3082 12.1304 10.1321 12.3913 9.77987C12.5652 9.51572 12.6522 9.25157 12.6522 8.98742C12.6522 8.63522 12.5652 8.28302 12.3043 8.01887C12.1304 7.84277 11.7826 7.75472 11.4348 7.75472ZM11.7826 9.33962C11.6957 9.51572 11.5217 9.60377 11.2609 9.60377H10.4783V8.45912H11.087C11.3478 8.45912 11.5217 8.45912 11.6087 8.54717C11.6957 8.63522 11.7826 8.81132 11.7826 8.98742C11.8696 9.16352 11.7826 9.25157 11.7826 9.33962ZM13.1739 11.717H13.9565V7.75472H13.1739V11.717Z" fill="#707280"/>
</svg>
