<svg width="19" height="18" viewBox="0 0 19 18" fill="none" xmlns="http://www.w3.org/2000/svg">
<path d="M9.53404 6.75153C9.28552 7.0138 9.14891 7.3589 9.14891 7.72546V8.27454C9.14891 8.6411 9.28552 8.9862 9.53404 9.24847C9.78256 9.51074 10.1096 9.65491 10.4569 9.65491H15V6.34509H10.4569C10.1096 6.34509 9.78111 6.48926 9.53404 6.75153ZM10.9917 7.3865C11.3129 7.3865 11.5731 7.66104 11.5731 8C11.5731 8.33896 11.3129 8.6135 10.9917 8.6135C10.6705 8.6135 10.4104 8.33896 10.4104 8C10.4104 7.66104 10.6705 7.3865 10.9917 7.3865ZM13.2298 2H3.7716C2.79497 2 2 2.83742 2 3.86963V12.1304C2 13.161 2.79352 14 3.7716 14H13.2284C14.205 14 15 13.1626 15 12.1304V10.4218H10.4569C9.33784 10.4218 8.42225 9.45552 8.42225 8.27454V7.72546C8.42225 6.54448 9.33784 5.57822 10.4569 5.57822H15V3.86963C15 2.83896 14.205 2 13.2298 2Z" fill="#F29C1B"/>
<circle cx="15" cy="14" r="4" fill="white"/>
<path d="M15 10C17.2091 10 19 11.7909 19 14C19 16.2091 17.2091 18 15 18C12.7909 18 11 16.2091 11 14C11 11.7909 12.7909 10 15 10ZM15 15.1C14.8939 15.1 14.7922 15.1421 14.7172 15.2172C14.6421 15.2922 14.6 15.3939 14.6 15.5C14.6 15.6061 14.6421 15.7078 14.7172 15.7828C14.7922 15.8579 14.8939 15.9 15 15.9C15.1061 15.9 15.2078 15.8579 15.2828 15.7828C15.3579 15.7078 15.4 15.6061 15.4 15.5C15.4 15.3939 15.3579 15.2922 15.2828 15.2172C15.2078 15.1421 15.1061 15.1 15 15.1ZM15 11.7C14.8939 11.7 14.7922 11.7421 14.7172 11.8172C14.6421 11.8922 14.6 11.9939 14.6 12.1V14.3C14.6 14.4061 14.6421 14.5078 14.7172 14.5828C14.7922 14.6579 14.8939 14.7 15 14.7C15.1061 14.7 15.2078 14.6579 15.2828 14.5828C15.3579 14.5078 15.4 14.4061 15.4 14.3V12.1C15.4 11.9939 15.3579 11.8922 15.2828 11.8172C15.2078 11.7421 15.1061 11.7 15 11.7Z" fill="#F24822"/>
</svg>
