<svg width="24" height="24" viewBox="0 0 24 24" fill="none" xmlns="http://www.w3.org/2000/svg">
<path d="M23.3665 12C23.7256 12 24.0185 12.2912 23.9991 12.6495C23.8559 15.2914 22.8419 17.819 21.1058 19.8327C19.2279 22.0108 16.6298 23.4428 13.7844 23.868C10.939 24.2932 8.03537 23.6834 5.60195 22.1496C3.16853 20.6158 1.36706 18.2599 0.525371 15.5106C-0.316314 12.7613 -0.142268 9.80146 1.01584 7.16962C2.17394 4.53778 4.23913 2.40891 6.83557 1.17044C9.432 -0.068032 12.3871 -0.333791 15.1631 0.421526C17.7295 1.11981 19.985 2.64786 21.583 4.75749C21.7997 5.0436 21.7199 5.4487 21.4223 5.64947C21.1247 5.85024 20.7221 5.77048 20.5035 5.4858C19.0813 3.63355 17.0872 2.29179 14.8215 1.67532C12.3461 1.00179 9.71099 1.23877 7.39571 2.34313C5.08043 3.4475 3.23888 5.34583 2.20618 7.69268C1.17348 10.0395 1.01828 12.6789 1.76882 15.1304C2.51936 17.582 4.12576 19.6828 6.29567 21.0505C8.46559 22.4183 11.0548 22.962 13.5921 22.5829C16.1294 22.2037 18.4461 20.9268 20.1207 18.9845C21.6534 17.2067 22.5549 14.9798 22.6966 12.6494C22.7184 12.2912 23.0074 12 23.3665 12Z" fill="url(#paint0_linear)"/>
<defs>
<linearGradient id="paint0_linear" x1="17.2529" y1="1.42908" x2="32.2423" y2="16.9394" gradientUnits="userSpaceOnUse">
<stop stop-color="white"/>
<stop offset="1" stop-color="white" stop-opacity="0"/>
</linearGradient>
</defs>
</svg>
