<svg width="12" height="12" viewBox="0 0 12 12" fill="none" xmlns="http://www.w3.org/2000/svg">
<path d="M9.08354 0.851769C9.18588 0.913191 9.25963 1.01275 9.28856 1.12855C9.31749 1.24434 9.29924 1.36689 9.23782 1.46923C9.17639 1.57157 9.07683 1.64531 8.96103 1.67425C8.84523 1.70318 8.72268 1.68492 8.62034 1.6235C7.82899 1.1484 6.92302 0.898169 5.99999 0.899768C3.1833 0.899768 0.899999 3.18302 0.899999 5.99965C0.899999 8.81629 3.1833 11.0995 5.99999 11.0995C8.81669 11.0995 11.1 8.81628 11.1 5.99965C11.1016 5.07678 10.8515 4.17094 10.3765 3.37966C10.3461 3.32899 10.326 3.27282 10.3173 3.21437C10.3086 3.15592 10.3115 3.09633 10.3258 3.039C10.3402 2.98167 10.3657 2.92773 10.4008 2.88025C10.436 2.83277 10.4802 2.79268 10.5309 2.76227C10.5816 2.73187 10.6377 2.71175 10.6962 2.70305C10.7546 2.69435 10.8142 2.69725 10.8716 2.71158C10.9289 2.72592 10.9828 2.7514 11.0303 2.78658C11.0778 2.82176 11.1179 2.86595 11.1483 2.91662C11.7072 3.84777 12.0016 4.91366 12 5.99965C12 9.31322 9.31364 11.9995 5.99999 11.9995C2.68635 11.9995 -1.17424e-07 9.31322 -2.62268e-07 5.99965C-4.07112e-07 2.68608 2.68635 -0.000211833 5.99999 -0.000211978C7.10099 -0.000212026 8.15954 0.297231 9.08354 0.851769Z" fill="#F29C1B"/>
</svg>
