<svg width="16" height="16" viewBox="0 0 16 16" fill="none" xmlns="http://www.w3.org/2000/svg">
<path d="M13.4813 7.06895H8.51586V2.51733C8.51586 2.23259 8.2833 2 7.99859 2C7.71388 2 7.48132 2.23259 7.48132 2.51733V7.06895H2.51727C2.23256 7.06895 2 7.30154 2 7.58628C2 7.87102 2.23256 8.10361 2.51727 8.10361H7.48273V13.4827C7.48273 13.7674 7.71529 14 8 14C8.28471 14 8.51727 13.7674 8.51727 13.4827V8.10361H13.4827C13.7674 8.10361 14 7.87102 14 7.58628C13.9986 7.30154 13.766 7.06895 13.4813 7.06895Z" stroke-width="0.5"/>
</svg>
