<svg width="128" height="130" viewBox="0 0 128 130" fill="none" xmlns="http://www.w3.org/2000/svg">
<g filter="url(#filter0_d)">
<path fill-rule="evenodd" clip-rule="evenodd" d="M69.6998 85.5873V88.6172H76.9997V98.7166H69.6998V102H59.7001V68.9112C58.5239 68.6461 57.3693 68.2804 56.249 67.8164C53.6315 66.7323 51.2535 65.1336 49.2531 63.1133C47.2527 61.0929 45.6698 58.6912 44.5965 56.0477C43.5231 53.4041 42.9806 50.5715 43.0005 47.7144C42.9806 44.8572 43.5231 42.0246 44.5965 39.3811C45.6698 36.7375 47.2527 34.3358 49.2531 32.3155C51.2535 30.2951 53.6315 28.6965 56.249 27.6124C58.8664 26.5283 61.6711 25.9804 64.5 26.0005C67.3289 25.9804 70.1336 26.5283 72.751 27.6124C75.3685 28.6965 77.7465 30.2951 79.7469 32.3155C81.7473 34.3358 83.3302 36.7375 84.4035 39.3811C85.4769 42.0246 86.0194 44.8572 85.9995 47.7144C86.0194 50.5715 85.4769 53.4041 84.4035 56.0477C83.3302 58.6912 81.7473 61.0929 79.7469 63.1133C77.7465 65.1336 75.3685 66.7323 72.751 67.8164C71.7579 68.2277 70.7379 68.5618 69.6998 68.817V75.4879H74.4998V85.5873H69.6998ZM60.0674 36.9283C61.4748 36.3543 62.9824 36.0726 64.5 36.1C66.0176 36.0726 67.5252 36.3543 68.9326 36.9283C70.3401 37.5023 71.6186 38.3568 72.6919 39.4408C73.7652 40.5248 74.6113 41.8161 75.1796 43.2376C75.7479 44.659 76.0268 46.1816 75.9997 47.7144C76.0268 49.2471 75.7479 50.7697 75.1796 52.1912C74.6113 53.6127 73.7652 54.9039 72.6919 55.9879C71.6186 57.0719 70.3401 57.9264 68.9326 58.5004C67.5252 59.0744 66.0176 59.3561 64.5 59.3287C62.9824 59.3561 61.4748 59.0744 60.0674 58.5004C58.6599 57.9264 57.3814 57.0719 56.3081 55.9879C55.2348 54.9039 54.3887 53.6127 53.8204 52.1912C53.2521 50.7697 52.9732 49.2471 53.0003 47.7144C52.9732 46.1816 53.2521 44.659 53.8204 43.2376C54.3887 41.8161 55.2348 40.5248 56.3081 39.4408C57.3814 38.3568 58.6599 37.5023 60.0674 36.9283Z" fill="white"/>
</g>
<mask id="mask0" mask-type="alpha" maskUnits="userSpaceOnUse" x="43" y="26" width="43" height="76">
<path fill-rule="evenodd" clip-rule="evenodd" d="M69.6998 85.5873V88.6172H76.9997V98.7166H69.6998V102H59.7001V68.9112C58.5239 68.6461 57.3693 68.2804 56.249 67.8164C53.6315 66.7323 51.2535 65.1336 49.2531 63.1133C47.2527 61.0929 45.6698 58.6912 44.5965 56.0477C43.5231 53.4041 42.9806 50.5715 43.0005 47.7144C42.9806 44.8572 43.5231 42.0246 44.5965 39.3811C45.6698 36.7375 47.2527 34.3358 49.2531 32.3155C51.2535 30.2951 53.6315 28.6965 56.249 27.6124C58.8664 26.5283 61.6711 25.9804 64.5 26.0005C67.3289 25.9804 70.1336 26.5283 72.751 27.6124C75.3685 28.6965 77.7465 30.2951 79.7469 32.3155C81.7473 34.3358 83.3302 36.7375 84.4035 39.3811C85.4769 42.0246 86.0194 44.8572 85.9995 47.7144C86.0194 50.5715 85.4769 53.4041 84.4035 56.0477C83.3302 58.6912 81.7473 61.0929 79.7469 63.1133C77.7465 65.1336 75.3685 66.7323 72.751 67.8164C71.7579 68.2277 70.7379 68.5618 69.6998 68.817V75.4879H74.4998V85.5873H69.6998ZM60.0674 36.9283C61.4748 36.3543 62.9824 36.0726 64.5 36.1C66.0176 36.0726 67.5252 36.3543 68.9326 36.9283C70.3401 37.5023 71.6186 38.3568 72.6919 39.4408C73.7652 40.5248 74.6113 41.8161 75.1796 43.2376C75.7479 44.659 76.0268 46.1816 75.9997 47.7144C76.0268 49.2471 75.7479 50.7697 75.1796 52.1912C74.6113 53.6127 73.7652 54.9039 72.6919 55.9879C71.6186 57.0719 70.3401 57.9264 68.9326 58.5004C67.5252 59.0744 66.0176 59.3561 64.5 59.3287C62.9824 59.3561 61.4748 59.0744 60.0674 58.5004C58.6599 57.9264 57.3814 57.0719 56.3081 55.9879C55.2348 54.9039 54.3887 53.6127 53.8204 52.1912C53.2521 50.7697 52.9732 49.2471 53.0003 47.7144C52.9732 46.1816 53.2521 44.659 53.8204 43.2376C54.3887 41.8161 55.2348 40.5248 56.3081 39.4408C57.3814 38.3568 58.6599 37.5023 60.0674 36.9283Z" fill="white"/>
</mask>
<g mask="url(#mask0)">
<circle opacity="0.1" cx="58" cy="68" r="15" fill="#8399FF"/>
</g>
<defs>
<filter id="filter0_d" x="27" y="22" width="75" height="108" filterUnits="userSpaceOnUse" color-interpolation-filters="sRGB">
<feFlood flood-opacity="0" result="BackgroundImageFix"/>
<feColorMatrix in="SourceAlpha" type="matrix" values="0 0 0 0 0 0 0 0 0 0 0 0 0 0 0 0 0 0 127 0"/>
<feOffset dy="12"/>
<feGaussianBlur stdDeviation="8"/>
<feColorMatrix type="matrix" values="0 0 0 0 0.0840278 0 0 0 0 0.109304 0 0 0 0 0.366667 0 0 0 0.08 0"/>
<feBlend mode="normal" in2="BackgroundImageFix" result="effect1_dropShadow"/>
<feBlend mode="normal" in="SourceGraphic" in2="effect1_dropShadow" result="shape"/>
</filter>
</defs>
</svg>
