<svg width="18" height="18" viewBox="0 0 18 18" fill="none" xmlns="http://www.w3.org/2000/svg">
<circle opacity="0.2" cx="9" cy="9" r="9" fill="white"/>
<path d="M7.66667 9.44444H5.88889C5.4 9.44444 5 9.84444 5 10.3333V12.1111C5 12.6 5.4 13 5.88889 13H7.66667C8.15556 13 8.55556 12.6 8.55556 12.1111V10.3333C8.55556 9.84444 8.15556 9.44444 7.66667 9.44444ZM7.96296 12.1111C7.96296 12.2741 7.82963 12.4074 7.66667 12.4074H5.88889C5.72593 12.4074 5.59259 12.2741 5.59259 12.1111V10.3333C5.59259 10.1704 5.72593 10.037 5.88889 10.037H7.66667C7.82963 10.037 7.96296 10.1704 7.96296 10.3333V12.1111ZM7.66667 5H5.88889C5.4 5 5 5.4 5 5.88889V7.66667C5 8.15556 5.4 8.55556 5.88889 8.55556H7.66667C8.15556 8.55556 8.55556 8.15556 8.55556 7.66667V5.88889C8.55556 5.4 8.15556 5 7.66667 5ZM7.96296 7.66667C7.96296 7.82963 7.82963 7.96296 7.66667 7.96296H5.88889C5.72593 7.96296 5.59259 7.82963 5.59259 7.66667V5.88889C5.59259 5.72593 5.72593 5.59259 5.88889 5.59259H7.66667C7.82963 5.59259 7.96296 5.72593 7.96296 5.88889V7.66667ZM12.5556 9.44444C12.3926 9.44444 12.2593 9.57778 12.2593 9.74074V12.7037C12.2593 12.8667 12.3926 13 12.5556 13C12.7185 13 12.8519 12.8667 12.8519 12.7037V9.74074C12.8519 9.57778 12.7185 9.44444 12.5556 9.44444ZM12.1111 5H10.3333C9.84444 5 9.44444 5.4 9.44444 5.88889V7.66667C9.44444 8.15556 9.84444 8.55556 10.3333 8.55556H12.1111C12.6 8.55556 13 8.15556 13 7.66667V5.88889C13 5.4 12.6 5 12.1111 5ZM12.4074 7.66667C12.4074 7.82963 12.2741 7.96296 12.1111 7.96296H10.3333C10.1704 7.96296 10.037 7.82963 10.037 7.66667V5.88889C10.037 5.72593 10.1704 5.59259 10.3333 5.59259H12.1111C12.2741 5.59259 12.4074 5.72593 12.4074 5.88889V7.66667ZM9.88889 9.88889C9.72593 9.88889 9.59259 10.0222 9.59259 10.1852V12.7037C9.59259 12.8667 9.72593 13 9.88889 13C10.0519 13 10.1852 12.8667 10.1852 12.7037V10.1852C10.1852 10.0222 10.0519 9.88889 9.88889 9.88889ZM11.2222 10.7778C11.0593 10.7778 10.9259 10.9111 10.9259 11.0741V12.7037C10.9259 12.8667 11.0593 13 11.2222 13C11.3852 13 11.5185 12.8667 11.5185 12.7037V11.0741C11.5185 10.9111 11.3852 10.7778 11.2222 10.7778Z" fill="white"/>
</svg>
