<svg width="16" height="16" viewBox="0 0 16 16" fill="none" xmlns="http://www.w3.org/2000/svg">
<path d="M4.88571 15.3714C5.87321 15.7893 6.91964 16 8 16C9.08036 16 10.1268 15.7893 11.1143 15.3714C12.0679 14.9679 12.9232 14.3911 13.6571 13.6571C14.3911 12.9232 14.9679 12.0679 15.3714 11.1143C15.7893 10.1268 16 9.08036 16 8C16 6.91964 15.7893 5.87321 15.3714 4.88571C14.9679 3.93214 14.3911 3.07679 13.6571 2.34286C12.9232 1.60893 12.0679 1.03214 11.1143 0.628571C10.1268 0.210714 9.08036 0 8 0C6.91964 0 5.87321 0.210714 4.88571 0.628571C3.93214 1.03214 3.07679 1.60893 2.34286 2.34286C1.60893 3.07679 1.03214 3.93214 0.628571 4.88571C0.210714 5.87321 0 6.91964 0 8C0 9.08036 0.210714 10.1268 0.628571 11.1143C1.03214 12.0679 1.60893 12.9232 2.34286 13.6571C3.07679 14.3911 3.93214 14.9679 4.88571 15.3714Z" fill="#E5E9EF"/>
<path d="M8.08976 10.0632C8.14909 10.0632 8.20617 10.035 8.24923 9.98414C8.29228 9.93334 8.31802 9.8639 8.32114 9.79015C8.33154 9.54245 8.35067 9.35443 8.37854 9.22612C8.41621 9.05412 8.47329 8.90231 8.55151 8.76992C8.62973 8.63752 8.79435 8.43175 9.0471 8.15307C9.42346 7.73822 9.67639 7.38578 9.8059 7.09576C9.9354 6.80573 10.0001 6.48917 10 6.14608C10 5.55205 9.81603 5.0459 9.4481 4.62762C9.08017 4.20933 8.5873 4.00013 7.96951 4C7.38603 4 6.91682 4.19487 6.56188 4.58462C6.30791 4.86435 6.12634 5.2321 6.01716 5.68784C5.94541 5.98806 6.10637 6.29673 6.35631 6.33371C6.45138 6.34769 6.54734 6.31928 6.62716 6.25353C6.70699 6.18778 6.76551 6.08894 6.79233 5.97457C6.87281 5.6331 6.99374 5.36841 7.15511 5.18049C7.37633 4.92327 7.65224 4.79457 7.98284 4.79437C8.32426 4.79437 8.61314 4.93654 8.84949 5.22087C9.085 5.5052 9.20273 5.83522 9.20268 6.21092C9.20407 6.41222 9.16231 6.61033 9.08173 6.78486C9.00192 6.96048 8.82737 7.1956 8.55806 7.49022C8.29 7.78511 8.10398 8.00958 8 8.16365C7.85916 8.37461 7.75718 8.58394 7.69407 8.79166C7.60792 9.06693 7.56487 9.39413 7.56492 9.77327V9.77521C7.56501 9.85165 7.58946 9.92492 7.63292 9.97894C7.67637 10.033 7.73528 10.0633 7.79669 10.0633L8.08976 10.0632ZM8.40474 11.4501C8.40473 11.323 8.36928 11.1997 8.30444 11.1014C8.2396 11.0031 8.14939 10.9358 8.04916 10.911C7.94893 10.8862 7.8449 10.9054 7.75478 10.9654C7.66466 11.0254 7.59404 11.1224 7.55494 11.2399C7.51584 11.3574 7.51069 11.4881 7.54036 11.6098C7.57002 11.7316 7.63268 11.8367 7.71765 11.9074C7.80262 11.978 7.90464 12.0098 8.00633 11.9974C8.10803 11.9849 8.20311 11.9289 8.27537 11.839C8.31639 11.7879 8.34893 11.7273 8.37113 11.6606C8.39333 11.5939 8.40475 11.5224 8.40474 11.4501Z" fill="white"/>
</svg>
