<svg width="20" height="20" viewBox="0 0 20 20" fill="none" xmlns="http://www.w3.org/2000/svg">
<path d="M17.9833 10.3027C17.9818 10.3167 17.9803 10.3306 17.9796 10.3444C17.9817 10.3525 17.9839 10.3603 17.9861 10.3682C17.9931 10.393 18 10.4175 18 10.4444C18 10.5111 17.9831 10.5729 17.9564 10.6298C17.6338 14.7516 14.2045 18 10 18C6.90044 18 4.21642 16.2356 2.88891 13.6573V15.3334C2.88891 15.5791 2.6898 15.7777 2.44441 15.7777C2.19913 15.7777 2 15.5791 2 15.3334V12.6667C2 12.6473 2.00491 12.6293 2.00988 12.6112C2.0124 12.602 2.01494 12.5927 2.01687 12.5831C2.00667 12.5373 2 12.4894 2 12.4409C2 12.0823 2.29069 11.7916 2.64938 11.7916C2.97867 11.7916 3.24761 12.0378 3.28976 12.3556L3.29644 12.3547C4.2689 15.1222 6.89916 17.1111 10 17.1111C13.7979 17.1111 16.8912 14.1311 17.092 10.3849L17.1241 10.3796C17.1574 10.1657 17.3334 10 17.5556 10C17.7343 10 17.8871 10.1076 17.9578 10.2599L17.9872 10.2559C17.9867 10.2715 17.985 10.2871 17.9833 10.3027Z" fill="white"/>
<path d="M2.95466 9.01511C2.89514 9.18705 2.7356 9.31249 2.54314 9.31249C2.29957 9.31249 2.10227 9.11505 2.10224 8.87149C2.10224 8.86216 2.10468 8.85382 2.10711 8.8455C2.10896 8.8392 2.11079 8.83291 2.11157 8.82622L2.10224 8.82438C2.67196 4.96573 5.98269 2 10 2C12.788 2 15.237 3.42936 16.6667 5.59284V4.22221C16.6667 3.97648 16.8658 3.77772 17.1111 3.77772C17.3565 3.77772 17.5556 3.97648 17.5556 4.22221V6.81822L17.5405 6.82443C17.5421 6.8344 17.5447 6.84388 17.5474 6.85334C17.5515 6.86795 17.5556 6.88248 17.5556 6.89863C17.5556 7.20484 17.3072 7.45326 17.001 7.45326C16.8161 7.45326 16.661 7.35683 16.5596 7.21818L16.5405 7.22573C15.4587 4.67864 12.9419 2.8889 10.0001 2.8889C6.40719 2.8889 3.44494 5.55642 2.96449 9.0173L2.95466 9.01511Z" fill="white"/>
<path fill-rule="evenodd" clip-rule="evenodd" d="M8.2664 13.5546C8.6714 13.7276 9.10393 13.8429 9.56399 13.9006L9.45782 15.0577H9.99455C10.1086 15.0577 10.201 15.0217 10.2718 14.9496C10.3425 14.8811 10.3819 14.8054 10.3897 14.7225L10.4605 13.9276C10.9009 13.8988 11.2921 13.8141 11.6342 13.6735C11.9763 13.5329 12.2634 13.3509 12.4954 13.1274C12.7313 12.9003 12.9102 12.6408 13.0321 12.3488C13.154 12.0532 13.2149 11.7378 13.2149 11.4026C13.2149 11.0637 13.1461 10.7825 13.0085 10.5591C12.8709 10.332 12.69 10.1427 12.4659 9.99132C12.2457 9.83992 11.996 9.71736 11.7168 9.62364C11.4416 9.52631 11.1624 9.438 10.8793 9.35869L11.0857 7.12018C11.2391 7.15262 11.3786 7.19407 11.5045 7.24454C11.6303 7.29501 11.7443 7.34547 11.8466 7.39594C11.9527 7.4428 12.0451 7.48425 12.1238 7.5203C12.2063 7.55274 12.2771 7.56896 12.3361 7.56896C12.4147 7.56896 12.4816 7.55094 12.5366 7.51489C12.5917 7.47884 12.6467 7.42477 12.7018 7.35268L13.0557 6.86064C12.8315 6.66599 12.5681 6.49116 12.2653 6.33616C11.9626 6.18115 11.6028 6.07301 11.186 6.01173L11.2862 4.94655H10.7495C10.6355 4.94655 10.5431 4.98079 10.4723 5.04928C10.4015 5.11777 10.3622 5.19527 10.3543 5.28178L10.2895 5.96307C9.85693 5.98109 9.47355 6.05679 9.13932 6.19017C8.80509 6.32354 8.52395 6.49296 8.29589 6.69843C8.06783 6.9039 7.89285 7.1382 7.77096 7.40134C7.65299 7.66088 7.59401 7.92763 7.59401 8.20159C7.59401 8.56926 7.66086 8.87566 7.79455 9.12078C7.92824 9.3659 8.10322 9.56957 8.31948 9.73178C8.53968 9.89038 8.78543 10.0184 9.05675 10.1157C9.33199 10.213 9.6092 10.2977 9.88838 10.3698L9.66425 12.7922C9.44406 12.7561 9.25335 12.7002 9.09214 12.6245C8.93092 12.5488 8.7874 12.4731 8.66157 12.3974C8.53575 12.3218 8.42368 12.2569 8.32538 12.2028C8.22708 12.1451 8.13467 12.1163 8.04817 12.1163C7.97739 12.1163 7.90858 12.1343 7.84173 12.1704C7.77882 12.2028 7.7277 12.2461 7.68838 12.3001L7.24012 12.9111C7.52323 13.1671 7.86533 13.3815 8.2664 13.5546ZM11.7522 11.2512C11.8072 11.3521 11.8348 11.471 11.8348 11.608C11.8348 11.9433 11.7266 12.2154 11.5104 12.4245C11.298 12.63 10.9835 12.7579 10.5667 12.8084L10.7672 10.6131C10.9206 10.66 11.0621 10.7123 11.1919 10.7699C11.3216 10.8276 11.4337 10.8961 11.5281 10.9754C11.6264 11.0547 11.7011 11.1466 11.7522 11.2512ZM9.04495 8.43409C8.99383 8.32955 8.96828 8.2088 8.96828 8.07182C8.96828 7.95286 8.9899 7.84112 9.03315 7.73658C9.08034 7.62844 9.15308 7.53111 9.25139 7.4446C9.34969 7.35809 9.47552 7.28599 9.62887 7.22832C9.78222 7.16704 9.96702 7.12378 10.1833 7.09855L10.0004 9.09915C9.85103 9.04869 9.7134 8.99282 9.58758 8.93154C9.46175 8.86665 9.35165 8.79456 9.25728 8.71525C9.16685 8.63235 9.09607 8.53862 9.04495 8.43409Z" fill="white"/>
</svg>
