<svg width="18" height="18" viewBox="0 0 18 18" fill="none" xmlns="http://www.w3.org/2000/svg">
<path d="M17.1596 7.40002C17.1196 7.08002 16.9196 6.80001 16.5596 6.72002H16.5196C15.7996 6.56001 15.2796 6.16001 14.8796 5.48001C14.5196 4.88001 14.3996 4.12001 14.6396 3.44001C14.7596 3.16001 14.6796 2.80001 14.3996 2.56001C13.6396 1.84001 12.7196 1.28001 11.6796 0.920013C11.3996 0.800013 11.0796 0.880013 10.7996 1.16001C10.3596 1.72001 9.67957 2.00001 8.91957 2.00001C8.23957 2.00001 7.59957 1.68001 7.03957 1.12001C6.71957 0.800013 6.39957 0.840013 6.15957 0.920013C5.11957 1.36001 4.23957 1.88001 3.47957 2.52001C3.19957 2.72001 3.07957 3.08001 3.19957 3.40001C3.39957 4.16001 3.31957 4.88001 2.95957 5.52001C2.63957 6.08001 2.03957 6.52001 1.31957 6.72002C1.27957 6.72002 1.27957 6.72001 1.23957 6.76001C0.99957 6.88001 0.83957 7.08001 0.71957 7.36001V7.40002C0.59957 8.00002 0.55957 8.52002 0.55957 9.04002C0.55957 9.56002 0.59957 10.16 0.71957 10.64C0.75957 10.96 0.95957 11.24 1.31957 11.32H1.35957C2.07957 11.48 2.59957 11.88 2.99957 12.56C3.35957 13.16 3.47957 13.92 3.23957 14.6C3.11957 14.88 3.19957 15.24 3.47957 15.48C4.23957 16.2 5.15957 16.76 6.23957 17.12C6.27957 17.12 6.31957 17.16 6.39957 17.16H6.51957C6.71957 17.16 6.95957 17.08 7.15957 16.88C7.59957 16.36 8.27957 16.04 9.03957 16.04C9.71957 16.04 10.3596 16.36 10.9196 16.92C11.0796 17.08 11.2796 17.2 11.4796 17.2C11.5596 17.2 11.6796 17.2 11.7596 17.16C12.7996 16.72 13.6796 16.2 14.4396 15.56C14.7196 15.4 14.8396 15 14.7196 14.68C14.5196 13.92 14.5996 13.2 14.9596 12.56C15.2796 12 15.8796 11.56 16.5996 11.36C16.6396 11.36 16.6396 11.36 16.6796 11.32C16.9196 11.2 17.0796 11 17.1996 10.72V10.68C17.3196 10.08 17.3596 9.56002 17.3596 9.04002C17.3196 8.48002 17.2796 7.92002 17.1596 7.40002ZM8.91957 11.8C7.35957 11.8 6.11957 10.56 6.11957 9.00002C6.11957 7.44002 7.35957 6.20002 8.91957 6.20002C10.4796 6.20002 11.7196 7.44002 11.7196 9.00002C11.7196 10.56 10.4796 11.8 8.91957 11.8Z" fill="white"/>
</svg>
