<svg width="16" height="16" viewBox="0 0 16 16" fill="none" xmlns="http://www.w3.org/2000/svg">
<path d="M14.8333 6.60156C14.8 6.32732 14.6333 6.08737 14.3333 6.01881H14.3C13.7 5.88169 13.2667 5.5389 12.9333 4.95615C12.6333 4.44196 12.5333 3.79065 12.7333 3.2079C12.8333 2.96795 12.7667 2.65943 12.5333 2.45376C11.9 1.83673 11.1333 1.35682 10.2667 1.0483C10.0333 0.945467 9.76667 1.01403 9.53333 1.25398C9.16667 1.73389 8.6 1.97385 7.96667 1.97385C7.4 1.97385 6.86667 1.69961 6.4 1.2197C6.13333 0.945467 5.86667 0.979746 5.66667 1.0483C4.8 1.42538 4.06667 1.87101 3.43333 2.41948C3.2 2.59088 3.1 2.89939 3.2 3.17362C3.36667 3.82493 3.3 4.44196 3 4.99043C2.73333 5.47034 2.23333 5.84741 1.63333 6.01881C1.6 6.01881 1.6 6.01881 1.56667 6.05309C1.36667 6.15593 1.23333 6.32732 1.13333 6.56728V6.60156C1.03333 7.11575 1 7.56138 1 8.00701C1 8.45264 1.03333 8.96683 1.13333 9.37819C1.16667 9.65242 1.33333 9.89238 1.63333 9.96094H1.66667C2.26667 10.0981 2.7 10.4408 3.03333 11.0236C3.33333 11.5378 3.43333 12.1891 3.23333 12.7718C3.13333 13.0118 3.2 13.3203 3.43333 13.526C4.06667 14.143 4.83333 14.6229 5.73333 14.9314C5.76667 14.9314 5.8 14.9657 5.86667 14.9657H5.96667C6.13333 14.9657 6.33333 14.8972 6.5 14.7258C6.86667 14.2801 7.43333 14.0059 8.06667 14.0059C8.63333 14.0059 9.16667 14.2801 9.63333 14.76C9.76667 14.8972 9.93333 15 10.1 15C10.1667 15 10.2667 15 10.3333 14.9657C11.2 14.5886 11.9333 14.143 12.5667 13.5945C12.8 13.4574 12.9 13.1146 12.8 12.8404C12.6333 12.1891 12.7 11.5721 13 11.0236C13.2667 10.5437 13.7667 10.1666 14.3667 9.99521C14.4 9.99521 14.4 9.99522 14.4333 9.96094C14.6333 9.8581 14.7667 9.6867 14.8667 9.44674V9.41247C14.9667 8.89828 15 8.45264 15 8.00701C14.9667 7.5271 14.9333 7.04719 14.8333 6.60156ZM7.96667 10.3723C6.66667 10.3723 5.63333 9.30963 5.63333 7.97273C5.63333 6.63584 6.66667 5.57318 7.96667 5.57318C9.26667 5.57318 10.3 6.63584 10.3 7.97273C10.3 9.30963 9.26667 10.3723 7.96667 10.3723Z" fill="#B4BDCC"/>
</svg>
