<svg width="44" height="44" viewBox="0 0 44 44" fill="none" xmlns="http://www.w3.org/2000/svg">
<mask id="mask0" mask-type="alpha" maskUnits="userSpaceOnUse" x="0" y="0" width="44" height="44">
<rect x="0.5" y="0.5" width="43" height="43" rx="5.5" fill="#F5F6FA" stroke="#E5E9EF"/>
</mask>
<g mask="url(#mask0)">
<path d="M44 39.5L10 5L5 0H44V39.5Z" fill="#27C193"/>
<path d="M30.8655 13.1936H28.4505C28.1352 13.1936 27.9177 12.8344 28.0299 12.4993L30.4296 5.32986C30.4621 5.23286 30.5196 5.14938 30.5947 5.09047C30.6698 5.03157 30.7588 5.00002 30.85 5H34.8994C35.2189 5 35.4367 5.36844 35.3161 5.7053L33.9189 9.60893H36.5493C36.9361 9.60893 37.1425 10.128 36.8874 10.4588L30.4383 18.823C30.1248 19.2297 29.5435 18.8773 29.6652 18.3544L30.8655 13.1936Z" fill="white"/>
</g>
</svg>
