<svg width="10" height="10" viewBox="0 0 8 8" fill="none" xmlns="http://www.w3.org/2000/svg">
<path d="M3.79378 0.743124C3.89308 0.59823 4.10692 0.598231 4.20622 0.743123L5.10395 2.05303C5.20148 2.19532 5.34507 2.29965 5.51054 2.34843L7.03375 2.79745C7.20224 2.84711 7.26831 3.05048 7.1612 3.18969L6.19282 4.44827C6.08762 4.585 6.03278 4.7538 6.03752 4.92625L6.08118 6.51366C6.08601 6.68925 5.91301 6.81493 5.74751 6.75608L4.25129 6.22402C4.08875 6.16622 3.91125 6.16622 3.74871 6.22402L2.25249 6.75608C2.08699 6.81493 1.91399 6.68925 1.91882 6.51366L1.96248 4.92625C1.96722 4.7538 1.91238 4.585 1.80718 4.44827L0.838802 3.1897C0.731686 3.05048 0.797764 2.84711 0.966251 2.79744L2.48946 2.34843C2.65493 2.29965 2.79852 2.19532 2.89605 2.05303L3.79378 0.743124Z" stroke="#8697FF" stroke-width="0.5"/>
</svg>
