<svg width="12" height="12" viewBox="0 0 12 12" fill="none" xmlns="http://www.w3.org/2000/svg">
<path d="M3.66429 11.5286C4.40491 11.842 5.18973 12 6 12C6.81027 12 7.59509 11.842 8.33572 11.5286C9.05089 11.2259 9.69241 10.7933 10.2429 10.2429C10.7933 9.69241 11.2259 9.05089 11.5286 8.33572C11.842 7.59509 12 6.81027 12 6C12 5.18973 11.842 4.40491 11.5286 3.66429C11.2259 2.94911 10.7933 2.30759 10.2429 1.75714C9.69241 1.2067 9.05089 0.774107 8.33572 0.471429C7.59509 0.158036 6.81027 0 6 0C5.18973 0 4.40491 0.158036 3.66429 0.471429C2.94911 0.774107 2.30759 1.2067 1.75714 1.75714C1.2067 2.30759 0.774107 2.94911 0.471429 3.66429C0.158036 4.40491 0 5.18973 0 6C0 6.81027 0.158036 7.59509 0.471429 8.33572C0.774107 9.05089 1.2067 9.69241 1.75714 10.2429C2.30759 10.7933 2.94911 11.2259 3.66429 11.5286Z" fill="#27C193"/>
<path d="M5.49109 8.57176H5.48841C5.37055 8.57042 5.25805 8.52221 5.1777 8.4365L2.90091 6.00167C2.73886 5.82891 2.74823 5.55703 2.921 5.39632C3.09377 5.23426 3.36564 5.24364 3.52636 5.41641L5.49511 7.52042L8.47636 4.4173C8.63975 4.24721 8.91162 4.24185 9.08171 4.40525C9.2518 4.56864 9.25716 4.84051 9.09377 5.0106L5.79913 8.43917C5.72011 8.52489 5.60761 8.57176 5.49109 8.57176Z" fill="white" stroke="white" stroke-width="0.5"/>
</svg>
