<svg width="20" height="20" viewBox="0 0 20 20" fill="none" xmlns="http://www.w3.org/2000/svg">
<path d="M6.79003 11.4487H8.1382V10.7583H6.79003V9.80563H8.37685V9.12073H6.02239V13.2423H8.43367V12.5519H6.79003V11.4487ZM10.7904 10.0453C10.3963 10.0453 10.1007 10.2682 9.84682 10.5354H9.82586L9.77416 10.1235H9.15201V13.2425H9.90909V11.0978C10.1268 10.8693 10.2774 10.7469 10.5159 10.7469C10.8009 10.7469 10.9253 10.9199 10.9253 11.3988V13.2423H11.6877V11.2983C11.6875 10.5129 11.4178 10.0453 10.7904 10.0453ZM15.3365 4H6.95281C6.03583 4 5.2898 4.80157 5.2898 5.78676V6.3629H4.53656C3.68921 6.3629 3 7.1039 3 8.01491V14.348C3 15.2587 3.68921 16 4.53656 16H13.1738C14.0208 16 14.7104 15.2587 14.7104 14.348V13.6368H15.3367C16.2536 13.6368 17 12.8359 17 11.8507V5.78693C16.9997 4.80174 16.2535 4 15.3365 4ZM13.6858 14.3482C13.6858 14.6515 13.4557 14.8988 13.1736 14.8988H4.53656C4.25406 14.8988 4.02437 14.6514 4.02437 14.3482V8.01509C4.02437 7.71136 4.25406 7.46441 4.53656 7.46441H13.1738C13.456 7.46441 13.686 7.71136 13.686 8.01509V14.3482H13.6858ZM15.9753 11.8507C15.9753 12.2286 15.6885 12.5354 15.3364 12.5354H14.71V8.01509C14.71 7.10407 14.0205 6.36307 13.1735 6.36307H6.31417V5.78693C6.31417 5.40903 6.60068 5.10152 6.95281 5.10152H15.3365C15.6886 5.10152 15.9755 5.4092 15.9755 5.78693V11.8507H15.9753Z" fill="#707280"/>
</svg>
