<svg width="54" height="16" viewBox="0 0 54 16" fill="none" xmlns="http://www.w3.org/2000/svg">
<path d="M13.918 12H12.8813L8.94434 5.97363V12H7.90771V4.17969H8.94434L12.8921 10.2329V4.17969H13.918V12ZM15.3306 9.04053C15.3306 8.47119 15.4416 7.95915 15.6636 7.50439C15.8892 7.04964 16.2007 6.69873 16.5981 6.45166C16.9992 6.20459 17.4557 6.08105 17.9678 6.08105C18.7591 6.08105 19.3983 6.35498 19.8853 6.90283C20.3758 7.45068 20.6211 8.17936 20.6211 9.08887V9.15869C20.6211 9.72445 20.5119 10.2329 20.2935 10.6841C20.0786 11.1317 19.7689 11.4808 19.3643 11.7314C18.9632 11.9821 18.5013 12.1074 17.9785 12.1074C17.1908 12.1074 16.5516 11.8335 16.061 11.2856C15.5741 10.7378 15.3306 10.0127 15.3306 9.11035V9.04053ZM16.3296 9.15869C16.3296 9.80322 16.4782 10.3206 16.7754 10.7109C17.0762 11.1012 17.4772 11.2964 17.9785 11.2964C18.4834 11.2964 18.8844 11.0994 19.1816 10.7056C19.4788 10.3081 19.6274 9.75309 19.6274 9.04053C19.6274 8.40316 19.4753 7.88753 19.1709 7.49365C18.8701 7.09619 18.4691 6.89746 17.9678 6.89746C17.4772 6.89746 17.0815 7.09261 16.7808 7.48291C16.48 7.87321 16.3296 8.4318 16.3296 9.15869ZM23.2153 4.78125V6.18848H24.3003V6.95654H23.2153V10.5605C23.2153 10.7933 23.2637 10.9688 23.3604 11.0869C23.457 11.2015 23.6217 11.2588 23.8545 11.2588C23.9691 11.2588 24.1266 11.2373 24.3271 11.1943V12C24.0658 12.0716 23.8115 12.1074 23.5645 12.1074C23.1204 12.1074 22.7856 11.9731 22.5601 11.7046C22.3345 11.436 22.2217 11.0547 22.2217 10.5605V6.95654H21.1636V6.18848H22.2217V4.78125H23.2153ZM30.7349 8.10596L32.7759 4.17969H33.9468L31.2505 9.0835V12H30.2192V9.0835L27.5229 4.17969H28.7046L30.7349 8.10596ZM34.1831 9.04053C34.1831 8.47119 34.2941 7.95915 34.5161 7.50439C34.7417 7.04964 35.0532 6.69873 35.4507 6.45166C35.8517 6.20459 36.3083 6.08105 36.8203 6.08105C37.6117 6.08105 38.2508 6.35498 38.7378 6.90283C39.2284 7.45068 39.4736 8.17936 39.4736 9.08887V9.15869C39.4736 9.72445 39.3644 10.2329 39.146 10.6841C38.9312 11.1317 38.6214 11.4808 38.2168 11.7314C37.8158 11.9821 37.3538 12.1074 36.8311 12.1074C36.0433 12.1074 35.4041 11.8335 34.9136 11.2856C34.4266 10.7378 34.1831 10.0127 34.1831 9.11035V9.04053ZM35.1821 9.15869C35.1821 9.80322 35.3307 10.3206 35.6279 10.7109C35.9287 11.1012 36.3298 11.2964 36.8311 11.2964C37.3359 11.2964 37.737 11.0994 38.0342 10.7056C38.3314 10.3081 38.48 9.75309 38.48 9.04053C38.48 8.40316 38.3278 7.88753 38.0234 7.49365C37.7227 7.09619 37.3216 6.89746 36.8203 6.89746C36.3298 6.89746 35.9341 7.09261 35.6333 7.48291C35.3325 7.87321 35.1821 8.4318 35.1821 9.15869ZM44.3076 11.4253C43.9209 11.88 43.3534 12.1074 42.605 12.1074C41.9855 12.1074 41.5129 11.9284 41.187 11.5703C40.8647 11.2087 40.7018 10.6751 40.6982 9.96973V6.18848H41.6919V9.94287C41.6919 10.8237 42.05 11.2642 42.7661 11.2642C43.5252 11.2642 44.0301 10.9813 44.2808 10.4155V6.18848H45.2744V12H44.3291L44.3076 11.4253Z" fill="#B4BDCC"/>
<rect x="0.25" y="0.25" width="53.5" height="15.5" rx="7.75" stroke="#B4BDCC" stroke-width="0.5"/>
</svg>
