<svg width="12" height="12" viewBox="0 0 12 12" fill="none" xmlns="http://www.w3.org/2000/svg">
<path d="M6 1.42578C4.96165 1.42578 3.94662 1.73478 3.08326 2.3137C2.2199 2.89263 1.54699 3.71547 1.14963 4.67819C0.752275 5.6409 0.648307 6.70025 0.85088 7.72226C1.05345 8.74427 1.55347 9.68305 2.28769 10.4199C3.02192 11.1567 3.95738 11.6585 4.97578 11.8618C5.99418 12.0651 7.04978 11.9607 8.00909 11.562C8.9684 11.1632 9.78834 10.4879 10.3652 9.62149C10.9421 8.75507 11.25 7.73644 11.25 6.6944C11.25 5.29708 10.6969 3.95698 9.71231 2.96892C8.72775 1.98087 7.39239 1.42578 6 1.42578ZM6 11.2605C5.1001 11.2605 4.2204 10.9927 3.47216 10.491C2.72391 9.98928 2.14073 9.27614 1.79635 8.44179C1.45197 7.60744 1.36187 6.68934 1.53743 5.80359C1.71299 4.91785 2.14634 4.10424 2.78267 3.46566C3.419 2.82707 4.22973 2.39219 5.11234 2.216C5.99495 2.03982 6.90981 2.13024 7.74121 2.47584C8.57261 2.82144 9.28323 3.40669 9.78319 4.15759C10.2831 4.90849 10.55 5.79131 10.55 6.6944C10.55 7.90542 10.0706 9.06683 9.21734 9.92315C8.36405 10.7795 7.20674 11.2605 6 11.2605Z" fill="#707280"/>
<path d="M8.03583 7.11837H5.93583V4.30844C5.93583 4.21529 5.89895 4.12595 5.83331 4.06008C5.76768 3.99421 5.67865 3.9572 5.58583 3.9572C5.493 3.9572 5.40398 3.99421 5.33834 4.06008C5.2727 4.12595 5.23583 4.21529 5.23583 4.30844V7.46961C5.23583 7.51574 5.24488 7.56141 5.26247 7.60403C5.28006 7.64664 5.30584 7.68536 5.33834 7.71798C5.37084 7.7506 5.40942 7.77647 5.45189 7.79412C5.49435 7.81177 5.53986 7.82086 5.58583 7.82086H8.03583C8.12865 7.82086 8.21768 7.78385 8.28331 7.71798C8.34895 7.65211 8.38583 7.56277 8.38583 7.46961C8.38583 7.37646 8.34895 7.28712 8.28331 7.22125C8.21768 7.15538 8.12865 7.11837 8.03583 7.11837Z" fill="#707280"/>
</svg>
