<svg width="128" height="130" viewBox="0 0 128 130" fill="none" xmlns="http://www.w3.org/2000/svg">
<g filter="url(#filter0_d)">
<path d="M49.3597 55.0613H80.6648C88.5693 55.0613 95 61.57 95 69.5703V87.3186C95 95.3189 88.5693 101.828 80.6648 101.828H47.3352C39.4307 101.828 33 95.3189 33 87.3186V69.5703C33 62.361 38.2324 56.357 45.0576 55.2496V45.7653C45.0576 35.4146 53.3789 26.9925 63.5981 27H64.3945C74.6137 27 82.9349 35.4146 82.9349 45.7653C82.9349 46.9706 81.9748 47.9424 80.7839 47.9424C79.593 47.9424 78.6329 46.9631 78.6329 45.7653C78.6329 41.9309 77.1517 38.3149 74.4499 35.5804C71.7556 32.8533 68.183 31.3467 64.3945 31.3467H63.5981C59.817 31.3467 56.2444 32.8458 53.5426 35.5804C50.8483 38.3149 49.3597 41.9309 49.3597 45.7653V55.0613Z" fill="white"/>
</g>
<mask id="mask0" mask-type="alpha" maskUnits="userSpaceOnUse" x="33" y="27" width="62" height="75">
<path d="M49.3597 55.0613H80.6648C88.5693 55.0613 95 61.57 95 69.5703V87.3186C95 95.3189 88.5693 101.828 80.6648 101.828H47.3352C39.4307 101.828 33 95.3189 33 87.3186V69.5703C33 62.361 38.2324 56.357 45.0576 55.2496V45.7653C45.0576 35.4146 53.3789 26.9925 63.5981 27H64.3945C74.6137 27 82.9349 35.4146 82.9349 45.7653C82.9349 46.9706 81.9748 47.9424 80.7839 47.9424C79.593 47.9424 78.6329 46.9631 78.6329 45.7653C78.6329 41.9309 77.1517 38.3149 74.4499 35.5804C71.7556 32.8533 68.183 31.3467 64.3945 31.3467H63.5981C59.817 31.3467 56.2444 32.8458 53.5426 35.5804C50.8483 38.3149 49.3597 41.9309 49.3597 45.7653V55.0613Z" fill="white"/>
</mask>
<g mask="url(#mask0)">
<circle opacity="0.1" cx="52.6552" cy="101.655" r="25.6552" fill="#D2DAFF"/>
</g>
<path opacity="0.6" d="M67.7729 80.1927L68.5544 79.5373C69.9537 78.3697 70.7576 76.6521 70.7576 74.814C70.7576 71.4391 68.0409 68.6895 64.7064 68.6895C61.372 68.6895 58.6553 71.4391 58.6553 74.814C58.6553 76.6445 59.4591 78.3697 60.8584 79.5373L61.6399 80.1927V89.3004C61.6399 91.0104 63.0169 92.4041 64.7064 92.4041C66.396 92.4041 67.7729 91.0104 67.7729 89.3004V80.1927Z" fill="#B4C1FF"/>
<defs>
<filter id="filter0_d" x="17" y="23" width="94" height="106.828" filterUnits="userSpaceOnUse" color-interpolation-filters="sRGB">
<feFlood flood-opacity="0" result="BackgroundImageFix"/>
<feColorMatrix in="SourceAlpha" type="matrix" values="0 0 0 0 0 0 0 0 0 0 0 0 0 0 0 0 0 0 127 0"/>
<feOffset dy="12"/>
<feGaussianBlur stdDeviation="8"/>
<feColorMatrix type="matrix" values="0 0 0 0 0.148542 0 0 0 0 0.199467 0 0 0 0 0.3875 0 0 0 0.08 0"/>
<feBlend mode="normal" in2="BackgroundImageFix" result="effect1_dropShadow"/>
<feBlend mode="normal" in="SourceGraphic" in2="effect1_dropShadow" result="shape"/>
</filter>
</defs>
</svg>
