<svg width="16" height="16" viewBox="0 0 16 16" fill="none" xmlns="http://www.w3.org/2000/svg">
<g opacity="0.6">
<path d="M8.31703 1.99995C8.4725 1.99995 8.61298 2.05802 8.71975 2.15542L8.76096 2.19662L9.16367 2.59934L12.4547 5.89037C12.687 6.12264 12.687 6.50475 12.4547 6.73889C12.2224 6.97115 11.8403 6.97115 11.6062 6.73889L8.31516 3.44598L5.02225 6.73701C4.78999 6.96928 4.40788 6.96928 4.17374 6.73701C3.94147 6.50475 3.94147 6.12264 4.17561 5.89037L7.46665 2.59934L7.87498 2.191L7.9087 2.15729C8.01546 2.05801 8.15969 1.99808 8.31703 1.99995Z" fill="white"/>
<path d="M8.31752 14.0489C8.47299 14.0489 8.61347 13.9908 8.72024 13.8934L8.76145 13.8522L9.16416 13.4495L12.4552 10.1585C12.6875 9.92619 12.6875 9.54408 12.4552 9.30994C12.2229 9.07768 11.8408 9.07768 11.6067 9.30994L8.31565 12.6028L5.02274 9.31181C4.79048 9.07955 4.40837 9.07955 4.17423 9.31181C3.94196 9.54408 3.94196 9.92619 4.1761 10.1585L7.46713 13.4495L7.87547 13.8578L7.90919 13.8915C8.01595 13.9908 8.16018 14.0508 8.31752 14.0489Z" fill="white"/>
</g>
</svg>
