<svg width="32" height="32" viewBox="0 0 32 32" fill="none" xmlns="http://www.w3.org/2000/svg">
<path d="M20.7072 17.0215L16.7072 13.1032C16.5197 12.9195 16.2653 12.8163 16.0002 12.8163C15.735 12.8163 15.4807 12.9195 15.2931 13.1032L11.2931 17.0215C11.198 17.112 11.1223 17.2201 11.0702 17.3395C11.0181 17.4589 10.9908 17.5873 10.9898 17.7171C10.9889 17.8469 11.0143 17.9757 11.0645 18.0958C11.1148 18.216 11.189 18.3251 11.2827 18.4169C11.3764 18.5087 11.4879 18.5814 11.6105 18.6306C11.7332 18.6799 11.8646 18.7048 11.9971 18.7038C12.1297 18.7029 12.2607 18.6761 12.3826 18.6251C12.5045 18.5741 12.6148 18.4999 12.7072 18.4067L15 16.1607V27.0204C15 27.2802 15.1054 27.5294 15.2929 27.7131C15.4804 27.8968 15.7348 28 16 28C16.2652 28 16.5196 27.8968 16.7071 27.7131C16.8946 27.5294 17 27.2802 17 27.0204V16.1607L19.2928 18.4067C19.3852 18.4999 19.4955 18.5741 19.6174 18.6251C19.7393 18.6761 19.8703 18.7029 20.0029 18.7038C20.1354 18.7048 20.2668 18.6799 20.3895 18.6306C20.5121 18.5814 20.6236 18.5087 20.7173 18.4169C20.811 18.3251 20.8852 18.216 20.9354 18.0958C20.9857 17.9757 21.0111 17.8469 21.0102 17.7171C21.0092 17.5873 20.9819 17.4589 20.9298 17.3395C20.8777 17.2201 20.802 17.112 20.7069 17.0215H20.7072ZM23.5 23.5918H20C19.7348 23.5918 19.4804 23.4886 19.2929 23.3049C19.1054 23.1212 19 22.872 19 22.6122C19 22.3524 19.1054 22.1033 19.2929 21.9196C19.4804 21.7359 19.7348 21.6327 20 21.6327H23.5C25.9813 21.6327 28 19.6551 28 17.2245C28 16.1166 27.5742 15.0492 26.8072 14.235C26.0402 13.4207 24.9883 12.9193 23.8609 12.8304C23.6311 12.8126 23.4146 12.7176 23.2481 12.5614C23.0816 12.4052 22.9753 12.1974 22.9472 11.9733C22.5187 8.54469 19.5312 5.95918 16 5.95918C12.4688 5.95918 9.48125 8.54469 9.05281 11.973C9.02471 12.1971 8.91841 12.4049 8.75189 12.5611C8.58538 12.7173 8.36889 12.8123 8.13906 12.8301C7.01164 12.919 5.95972 13.4205 5.19272 14.2348C4.42572 15.0491 3.99989 16.1165 4 17.2245C4 19.6551 6.01875 21.6327 8.5 21.6327H12C12.2652 21.6327 12.5196 21.7359 12.7071 21.9196C12.8946 22.1033 13 22.3524 13 22.6122C13 22.872 12.8946 23.1212 12.7071 23.3049C12.5196 23.4886 12.2652 23.5918 12 23.5918H8.5C4.91594 23.5918 2 20.7354 2 17.2245C2.00027 15.7577 2.51728 14.336 3.4637 13.1994C4.41012 12.0628 5.72797 11.281 7.19469 10.986C8.0625 6.95408 11.7188 4 16 4C20.2812 4 23.9375 6.95408 24.8053 10.986C26.272 11.281 27.5899 12.0628 28.5363 13.1994C29.4827 14.336 29.9997 15.7577 30 17.2245C30 20.7354 27.0841 23.5918 23.5 23.5918Z" fill="#B4BDCC"/>
</svg>
