<svg width="75" height="80" viewBox="0 0 75 80" fill="none" xmlns="http://www.w3.org/2000/svg">
<path d="M73.9473 40.75C73.0614 39.4441 71.2197 37.8583 67.4432 37.8583H63.0372C63.1071 35.0599 62.9206 33.2176 62.9206 33.2176H1.81932C1.81932 33.2176 0.560457 44.9476 5.78239 54.159C9.06941 59.8958 11.0509 61.5515 13.8717 64.3966C18.6041 69.1538 24.2923 69.1538 24.2923 69.1538H40.3311C40.3311 69.1538 46.0192 69.1538 50.6817 64.5365C51.754 63.4404 52.7565 62.5309 53.7356 61.4582C69.821 60.5721 73.9006 49.3318 74.3902 47.8393C74.6933 47.0231 75.8122 43.5484 73.9473 40.75ZM69.2848 45.9037L69.1916 46.1836C69.1683 46.2535 67.1634 52.9464 58.3048 55.2784C58.5146 54.9286 58.7244 54.5555 58.9575 54.159C60.9391 50.6377 61.9881 46.7666 62.5243 43.3152H67.4432C68.7486 43.3152 69.3081 43.6184 69.4247 43.7816C69.6811 44.1547 69.5413 45.2275 69.2848 45.9037ZM64.4755 73.1672H0.401934C-3.4539 77.3415 21.7023 80 21.7023 80H43.1705C43.1705 80 67.576 77.4395 64.4755 73.1672ZM38.0698 28.2271C38.1397 28.4603 37.3704 28.7402 37.114 28.6469C29.3976 23.7963 31.2626 17.0335 36.2981 12.0896C40.1446 8.33511 43.012 6.44619 43.0353 0.499573C43.012 -0.0367883 44.1776 -0.106748 44.3641 0.126452C53.8521 13.5821 32.5914 14.2817 38.0698 28.2271ZM24.1524 28.2271C24.2457 28.4603 23.4764 28.7402 23.2199 28.6469C15.5036 23.7963 17.3452 17.0335 22.404 12.0896C26.2272 8.33511 29.0946 6.44619 29.1179 0.499573C29.1179 -0.0367883 30.2835 -0.106748 30.47 0.126452C39.9581 13.5821 18.674 14.2817 24.1524 28.2271Z" fill="white"/>
</svg>
