<svg width="28" height="28" viewBox="0 0 28 28" fill="none" xmlns="http://www.w3.org/2000/svg">
<rect width="28" height="28" rx="4" fill="#C12783"/>
<path fill-rule="evenodd" clip-rule="evenodd" d="M10.6735 14C10.6735 11.9935 12.1665 10.3595 14 10.3595C15.8335 10.3595 17.3265 11.9935 17.3265 14C17.3265 16.0066 15.8335 17.6405 14 17.6405C12.1665 17.6405 10.6735 16.0066 10.6735 14ZM11.9307 14C11.9307 15.2498 12.858 16.2646 14 16.2646C15.1394 16.2646 16.0693 15.2498 16.0693 14C16.0693 12.7502 15.142 11.7355 14 11.7355C12.858 11.7355 11.9307 12.7502 11.9307 14Z" fill="white"/>
<path fill-rule="evenodd" clip-rule="evenodd" d="M19.4822 8.9005C21.0538 10.113 22.243 11.7928 22.9162 13.7592L23 14L22.9162 14.2408C22.243 16.2043 21.0565 17.8841 19.4822 19.0995C17.8713 20.3436 15.9776 21 14 21C12.0224 21 10.1286 20.3407 8.51776 19.0995C6.94616 17.887 5.75699 16.2072 5.08383 14.2408L5 14L5.08383 13.7592C5.75699 11.7957 6.94353 10.1159 8.51776 8.9005C10.1287 7.65643 12.0224 7 14 7C15.9776 7 17.8714 7.65931 19.4822 8.9005ZM6.34634 14.0029C7.60885 17.3768 10.6525 19.6269 14 19.6269C17.3449 19.6269 20.3911 17.3768 21.6537 14.0029C20.3911 10.629 17.3475 8.37878 14 8.37878C10.6525 8.37878 7.60622 10.6261 6.34634 14.0029Z" fill="white"/>
<path fill-rule="evenodd" clip-rule="evenodd" d="M10.6735 14C10.6735 11.9935 12.1665 10.3595 14 10.3595C15.8335 10.3595 17.3265 11.9935 17.3265 14C17.3265 16.0066 15.8335 17.6405 14 17.6405C12.1665 17.6405 10.6735 16.0066 10.6735 14ZM11.9307 14C11.9307 15.2498 12.858 16.2646 14 16.2646C15.1394 16.2646 16.0693 15.2498 16.0693 14C16.0693 12.7502 15.142 11.7355 14 11.7355C12.858 11.7355 11.9307 12.7502 11.9307 14Z" stroke="#C12783" stroke-width="0.2"/>
<path fill-rule="evenodd" clip-rule="evenodd" d="M19.4822 8.9005C21.0538 10.113 22.243 11.7928 22.9162 13.7592L23 14L22.9162 14.2408C22.243 16.2043 21.0565 17.8841 19.4822 19.0995C17.8713 20.3436 15.9776 21 14 21C12.0224 21 10.1286 20.3407 8.51776 19.0995C6.94616 17.887 5.75699 16.2072 5.08383 14.2408L5 14L5.08383 13.7592C5.75699 11.7957 6.94353 10.1159 8.51776 8.9005C10.1287 7.65643 12.0224 7 14 7C15.9776 7 17.8714 7.65931 19.4822 8.9005ZM6.34634 14.0029C7.60885 17.3768 10.6525 19.6269 14 19.6269C17.3449 19.6269 20.3911 17.3768 21.6537 14.0029C20.3911 10.629 17.3475 8.37878 14 8.37878C10.6525 8.37878 7.60622 10.6261 6.34634 14.0029Z" stroke="#C12783" stroke-width="0.2"/>
</svg>
