<svg width="128" height="128" viewBox="0 0 128 128" fill="none" xmlns="http://www.w3.org/2000/svg">
<g filter="url(#filter0_d)">
<path d="M98.3978 94.8667L81.9944 78.4632C87.0027 72.5437 89.5293 64.9175 89.0459 57.1785C88.5624 49.4397 85.1065 42.1871 79.4003 36.9369C73.6942 31.6867 66.1796 28.8453 58.4273 29.0065C50.675 29.1677 43.285 32.3192 37.8021 37.8021C32.3192 43.285 29.1677 50.675 29.0065 58.4273C28.8453 66.1796 31.6867 73.6942 36.9369 79.4003C42.1871 85.1065 49.4397 88.5624 57.1786 89.0459C64.9175 89.5293 72.5437 87.0028 78.4632 81.9944L94.8667 98.3978C95.3458 98.8081 95.962 99.0225 96.5923 98.9981C97.2226 98.9738 97.8205 98.7125 98.2665 98.2665C98.7125 97.8205 98.9738 97.2226 98.9981 96.5923C99.0225 95.962 98.8081 95.3458 98.3978 94.8667Z" fill="white"/>
</g>
<mask id="mask0" mask-type="alpha" maskUnits="userSpaceOnUse" x="29" y="29" width="70" height="70">
<path d="M98.3978 94.8667L81.9944 78.4632C87.0027 72.5437 89.5293 64.9175 89.0459 57.1785C88.5624 49.4397 85.1065 42.1871 79.4003 36.9369C73.6942 31.6867 66.1796 28.8453 58.4273 29.0065C50.675 29.1677 43.285 32.3192 37.8021 37.8021C32.3192 43.285 29.1677 50.675 29.0065 58.4273C28.8453 66.1796 31.6867 73.6942 36.9369 79.4003C42.1871 85.1065 49.4397 88.5624 57.1786 89.0459C64.9175 89.5293 72.5437 87.0028 78.4632 81.9944L94.8667 98.3978C95.3458 98.8081 95.962 99.0225 96.5923 98.9981C97.2226 98.9738 97.8205 98.7125 98.2665 98.2665C98.7125 97.8205 98.9738 97.2226 98.9981 96.5923C99.0225 95.962 98.8081 95.3458 98.3978 94.8667Z" fill="white"/>
</mask>
<g mask="url(#mask0)">
<path opacity="0.6" d="M75.3186 40.5555C77.3934 42.6087 78.9559 45.121 79.8797 47.8894C79.9775 48.1843 80.0163 48.4956 79.9938 48.8055C79.9712 49.1154 79.8879 49.4178 79.7484 49.6955C79.609 49.9732 79.4161 50.2207 79.181 50.4239C78.9458 50.6271 78.6729 50.782 78.3779 50.8798C78.0828 50.9776 77.7713 51.0163 77.4613 50.9938C77.1513 50.9713 76.8487 50.8879 76.5709 50.7485C76.293 50.6092 76.0454 50.4164 75.8421 50.1814C75.6388 49.9464 75.4838 49.6736 75.386 49.3787C74.6987 47.3153 73.5358 45.4422 71.991 43.9106C70.4463 42.379 68.563 41.2317 66.4931 40.5613C65.9355 40.3402 65.4828 39.9157 65.2266 39.3735C64.9704 38.8314 64.9298 38.2122 65.1132 37.6413C65.2966 37.0704 65.6901 36.5905 66.2142 36.2988C66.7383 36.007 67.3537 35.9252 67.9358 36.0699C70.7147 36.9656 73.2437 38.5022 75.3186 40.5555Z" fill="#8298FF"/>
<circle opacity="0.1" cx="46.5" cy="85.5" r="19.5" fill="#B4C1FF"/>
</g>
<defs>
<filter id="filter0_d" x="13" y="25" width="102" height="102" filterUnits="userSpaceOnUse" color-interpolation-filters="sRGB">
<feFlood flood-opacity="0" result="BackgroundImageFix"/>
<feColorMatrix in="SourceAlpha" type="matrix" values="0 0 0 0 0 0 0 0 0 0 0 0 0 0 0 0 0 0 127 0"/>
<feOffset dy="12"/>
<feGaussianBlur stdDeviation="8"/>
<feColorMatrix type="matrix" values="0 0 0 0 0.0840278 0 0 0 0 0.109304 0 0 0 0 0.366667 0 0 0 0.08 0"/>
<feBlend mode="normal" in2="BackgroundImageFix" result="effect1_dropShadow"/>
<feBlend mode="normal" in="SourceGraphic" in2="effect1_dropShadow" result="shape"/>
</filter>
</defs>
</svg>
