<svg xmlns="http://www.w3.org/2000/svg" width="360" height="45" viewBox="0 0 360 45" fill="none">
    <mask id="path-1-inside-1_101532_74282" fill="white">
        <path fill-rule="evenodd" clip-rule="evenodd"
            d="M114.545 5H354C357.314 5 360 7.68629 360 11V39C360 42.3137 357.314 45 354 45H5.99999C2.68629 45 0 42.3137 0 39V11C0 7.68629 2.68629 5 6 5H106.617L109.936 0.413774C110.347 -0.154706 111.201 -0.133726 111.584 0.454278L114.545 5Z" />
    </mask>
    <path
        d="M114.545 5L113.707 5.54576L114.003 6H114.545V5ZM106.617 5V6H107.128L107.427 5.58627L106.617 5ZM109.936 0.413774L110.746 1.00004V1.00004L109.936 0.413774ZM111.584 0.454278L110.746 1.00004L110.746 1.00004L111.584 0.454278ZM114.545 6H354V4H114.545V6ZM354 6C356.761 6 359 8.23857 359 11H361C361 7.13401 357.866 4 354 4V6ZM359 11V39H361V11H359ZM359 39C359 41.7614 356.761 44 354 44V46C357.866 46 361 42.866 361 39H359ZM354 44H5.99999V46H354V44ZM5.99999 44C3.23857 44 1 41.7614 1 39H-1C-1 42.866 2.134 46 5.99999 46V44ZM1 39V11H-1V39H1ZM1 11C1 8.23858 3.23858 6 6 6V4C2.13401 4 -1 7.13401 -1 11H1ZM6 6H106.617V4H6V6ZM107.427 5.58627L110.746 1.00004L109.126 -0.172494L105.807 4.41373L107.427 5.58627ZM110.746 1.00004L110.746 1.00004L112.422 -0.0914806C111.656 -1.2675 109.949 -1.30945 109.126 -0.172493L110.746 1.00004ZM110.746 1.00004L113.707 5.54576L115.383 4.45424L112.422 -0.0914848L110.746 1.00004Z"
        fill="currentColor" mask="url(#path-1-inside-1_101532_74282)" />
</svg>